<?xml version="1.0" encoding="utf-8" standalone="no"?>
<!DOCTYPE svg PUBLIC "-//W3C//DTD SVG 1.1//EN"
  "http://www.w3.org/Graphics/SVG/1.1/DTD/svg11.dtd">
<svg xmlns:xlink="http://www.w3.org/1999/xlink" width="1440pt" height="576pt" viewBox="0 0 1440 576" xmlns="http://www.w3.org/2000/svg" version="1.1">
 <metadata>
  <rdf:RDF xmlns:dc="http://purl.org/dc/elements/1.1/" xmlns:cc="http://creativecommons.org/ns#" xmlns:rdf="http://www.w3.org/1999/02/22-rdf-syntax-ns#">
   <cc:Work>
    <dc:type rdf:resource="http://purl.org/dc/dcmitype/StillImage"/>
    <dc:date>2026-03-10T10:43:38.869273</dc:date>
    <dc:format>image/svg+xml</dc:format>
    <dc:creator>
     <cc:Agent>
      <dc:title>Matplotlib v3.10.8, https://matplotlib.org/</dc:title>
     </cc:Agent>
    </dc:creator>
   </cc:Work>
  </rdf:RDF>
 </metadata>
 <defs>
  <style type="text/css">*{stroke-linejoin: round; stroke-linecap: butt}</style>
 </defs>
 <g id="figure_1">
  <g id="patch_1">
   <path d="M 0 576 
L 1440 576 
L 1440 0 
L 0 0 
z
" style="fill: #ffffff"/>
  </g>
  <g id="axes_1">
   <g id="patch_2">
    <path d="M 50.092685 532.09185 
L 1429.2 532.09185 
L 1429.2 26.88 
L 50.092685 26.88 
z
" style="fill: #ffffff"/>
   </g>
   <g id="patch_3">
    <path d="M 112.779381 146113.992303 
L 122.97234 146113.992303 
L 122.97234 422.917764 
L 112.779381 422.917764 
z
" clip-path="url(#p912afac304)" style="fill: #4682b4; opacity: 0.85"/>
   </g>
   <g id="patch_4">
    <path d="M 153.551216 146113.992303 
L 163.744175 146113.992303 
L 163.744175 230.40036 
L 153.551216 230.40036 
z
" clip-path="url(#p912afac304)" style="fill: #4682b4; opacity: 0.85"/>
   </g>
   <g id="patch_5">
    <path d="M 194.323051 146113.992303 
L 204.516009 146113.992303 
L 204.516009 224.756612 
L 194.323051 224.756612 
z
" clip-path="url(#p912afac304)" style="fill: #4682b4; opacity: 0.85"/>
   </g>
   <g id="patch_6">
    <path d="M 235.094886 146113.992303 
L 245.287844 146113.992303 
L 245.287844 190.773697 
L 235.094886 190.773697 
z
" clip-path="url(#p912afac304)" style="fill: #4682b4; opacity: 0.85"/>
   </g>
   <g id="patch_7">
    <path d="M 275.86672 146113.992303 
L 286.059679 146113.992303 
L 286.059679 295.684328 
L 275.86672 295.684328 
z
" clip-path="url(#p912afac304)" style="fill: #4682b4; opacity: 0.85"/>
   </g>
   <g id="patch_8">
    <path d="M 316.638555 146113.992303 
L 326.831514 146113.992303 
L 326.831514 174.456781 
L 316.638555 174.456781 
z
" clip-path="url(#p912afac304)" style="fill: #4682b4; opacity: 0.85"/>
   </g>
   <g id="patch_9">
    <path d="M 357.41039 146113.992303 
L 367.603349 146113.992303 
L 367.603349 87.680777 
L 357.41039 87.680777 
z
" clip-path="url(#p912afac304)" style="fill: #4682b4; opacity: 0.85"/>
   </g>
   <g id="patch_10">
    <path d="M 398.182225 146113.992303 
L 408.375184 146113.992303 
L 408.375184 313.207231 
L 398.182225 313.207231 
z
" clip-path="url(#p912afac304)" style="fill: #4682b4; opacity: 0.85"/>
   </g>
   <g id="patch_11">
    <path d="M 438.95406 146113.992303 
L 449.147019 146113.992303 
L 449.147019 412.37254 
L 438.95406 412.37254 
z
" clip-path="url(#p912afac304)" style="fill: #4682b4; opacity: 0.85"/>
   </g>
   <g id="patch_12">
    <path d="M 479.725895 146113.992303 
L 489.918854 146113.992303 
L 489.918854 149.317748 
L 479.725895 149.317748 
z
" clip-path="url(#p912afac304)" style="fill: #4682b4; opacity: 0.85"/>
   </g>
   <g id="patch_13">
    <path d="M 520.49773 146113.992303 
L 530.690689 146113.992303 
L 530.690689 159.165651 
L 520.49773 159.165651 
z
" clip-path="url(#p912afac304)" style="fill: #4682b4; opacity: 0.85"/>
   </g>
   <g id="patch_14">
    <path d="M 561.269565 146113.992303 
L 571.462523 146113.992303 
L 571.462523 430.635343 
L 561.269565 430.635343 
z
" clip-path="url(#p912afac304)" style="fill: #4682b4; opacity: 0.85"/>
   </g>
   <g id="patch_15">
    <path d="M 602.0414 146113.992303 
L 612.234358 146113.992303 
L 612.234358 218.603791 
L 602.0414 218.603791 
z
" clip-path="url(#p912afac304)" style="fill: #4682b4; opacity: 0.85"/>
   </g>
   <g id="patch_16">
    <path d="M 642.813235 146113.992303 
L 653.006193 146113.992303 
L 653.006193 359.116678 
L 642.813235 359.116678 
z
" clip-path="url(#p912afac304)" style="fill: #4682b4; opacity: 0.85"/>
   </g>
   <g id="patch_17">
    <path d="M 683.585069 146113.992303 
L 693.778028 146113.992303 
L 693.778028 200.259389 
L 683.585069 200.259389 
z
" clip-path="url(#p912afac304)" style="fill: #4682b4; opacity: 0.85"/>
   </g>
   <g id="patch_18">
    <path d="M 724.356904 146113.992303 
L 734.549863 146113.992303 
L 734.549863 71.836458 
L 724.356904 71.836458 
z
" clip-path="url(#p912afac304)" style="fill: #4682b4; opacity: 0.85"/>
   </g>
   <g id="patch_19">
    <path d="M 765.128739 146113.992303 
L 775.321698 146113.992303 
L 775.321698 189.79587 
L 765.128739 189.79587 
z
" clip-path="url(#p912afac304)" style="fill: #4682b4; opacity: 0.85"/>
   </g>
   <g id="patch_20">
    <path d="M 805.900574 146113.992303 
L 816.093533 146113.992303 
L 816.093533 187.911405 
L 805.900574 187.911405 
z
" clip-path="url(#p912afac304)" style="fill: #4682b4; opacity: 0.85"/>
   </g>
   <g id="patch_21">
    <path d="M 846.672409 146113.992303 
L 856.865368 146113.992303 
L 856.865368 272.494436 
L 846.672409 272.494436 
z
" clip-path="url(#p912afac304)" style="fill: #4682b4; opacity: 0.85"/>
   </g>
   <g id="patch_22">
    <path d="M 887.444244 146113.992303 
L 897.637203 146113.992303 
L 897.637203 293.703568 
L 887.444244 293.703568 
z
" clip-path="url(#p912afac304)" style="fill: #4682b4; opacity: 0.85"/>
   </g>
   <g id="patch_23">
    <path d="M 928.216079 146113.992303 
L 938.409037 146113.992303 
L 938.409037 153.822182 
L 928.216079 153.822182 
z
" clip-path="url(#p912afac304)" style="fill: #4682b4; opacity: 0.85"/>
   </g>
   <g id="patch_24">
    <path d="M 968.987914 146113.992303 
L 979.180872 146113.992303 
L 979.180872 299.867153 
L 968.987914 299.867153 
z
" clip-path="url(#p912afac304)" style="fill: #4682b4; opacity: 0.85"/>
   </g>
   <g id="patch_25">
    <path d="M 1009.759749 146113.992303 
L 1019.952707 146113.992303 
L 1019.952707 195.828571 
L 1009.759749 195.828571 
z
" clip-path="url(#p912afac304)" style="fill: #4682b4; opacity: 0.85"/>
   </g>
   <g id="patch_26">
    <path d="M 1050.531583 146113.992303 
L 1060.724542 146113.992303 
L 1060.724542 160.326347 
L 1050.531583 160.326347 
z
" clip-path="url(#p912afac304)" style="fill: #4682b4; opacity: 0.85"/>
   </g>
   <g id="patch_27">
    <path d="M 1091.303418 146113.992303 
L 1101.496377 146113.992303 
L 1101.496377 261.831351 
L 1091.303418 261.831351 
z
" clip-path="url(#p912afac304)" style="fill: #4682b4; opacity: 0.85"/>
   </g>
   <g id="patch_28">
    <path d="M 1132.075253 146113.992303 
L 1142.268212 146113.992303 
L 1142.268212 253.902612 
L 1132.075253 253.902612 
z
" clip-path="url(#p912afac304)" style="fill: #4682b4; opacity: 0.85"/>
   </g>
   <g id="patch_29">
    <path d="M 1172.847088 146113.992303 
L 1183.040047 146113.992303 
L 1183.040047 283.32145 
L 1172.847088 283.32145 
z
" clip-path="url(#p912afac304)" style="fill: #4682b4; opacity: 0.85"/>
   </g>
   <g id="patch_30">
    <path d="M 1213.618923 146113.992303 
L 1223.811882 146113.992303 
L 1223.811882 279.651972 
L 1213.618923 279.651972 
z
" clip-path="url(#p912afac304)" style="fill: #4682b4; opacity: 0.85"/>
   </g>
   <g id="patch_31">
    <path d="M 1254.390758 146113.992303 
L 1264.583717 146113.992303 
L 1264.583717 326.082078 
L 1254.390758 326.082078 
z
" clip-path="url(#p912afac304)" style="fill: #4682b4; opacity: 0.85"/>
   </g>
   <g id="patch_32">
    <path d="M 1295.162593 146113.992303 
L 1305.355552 146113.992303 
L 1305.355552 303.990308 
L 1295.162593 303.990308 
z
" clip-path="url(#p912afac304)" style="fill: #4682b4; opacity: 0.85"/>
   </g>
   <g id="patch_33">
    <path d="M 1335.934428 146113.992303 
L 1346.127386 146113.992303 
L 1346.127386 489.829944 
L 1335.934428 489.829944 
z
" clip-path="url(#p912afac304)" style="fill: #4682b4; opacity: 0.85"/>
   </g>
   <g id="patch_34">
    <path d="M 122.97234 146113.992303 
L 133.165298 146113.992303 
L 133.165298 173.534688 
L 122.97234 173.534688 
z
" clip-path="url(#p912afac304)" style="fill: #ff6347; opacity: 0.85"/>
   </g>
   <g id="patch_35">
    <path d="M 163.744175 146113.992303 
L 173.937133 146113.992303 
L 173.937133 249.906072 
L 163.744175 249.906072 
z
" clip-path="url(#p912afac304)" style="fill: #ff6347; opacity: 0.85"/>
   </g>
   <g id="patch_36">
    <path d="M 204.516009 146113.992303 
L 214.708968 146113.992303 
L 214.708968 200.348984 
L 204.516009 200.348984 
z
" clip-path="url(#p912afac304)" style="fill: #ff6347; opacity: 0.85"/>
   </g>
   <g id="patch_37">
    <path d="M 245.287844 146113.992303 
L 255.480803 146113.992303 
L 255.480803 207.125464 
L 245.287844 207.125464 
z
" clip-path="url(#p912afac304)" style="fill: #ff6347; opacity: 0.85"/>
   </g>
   <g id="patch_38">
    <path d="M 286.059679 146113.992303 
L 296.252638 146113.992303 
L 296.252638 285.330641 
L 286.059679 285.330641 
z
" clip-path="url(#p912afac304)" style="fill: #ff6347; opacity: 0.85"/>
   </g>
   <g id="patch_39">
    <path d="M 326.831514 146113.992303 
L 337.024473 146113.992303 
L 337.024473 176.08224 
L 326.831514 176.08224 
z
" clip-path="url(#p912afac304)" style="fill: #ff6347; opacity: 0.85"/>
   </g>
   <g id="patch_40">
    <path d="M 367.603349 146113.992303 
L 377.796308 146113.992303 
L 377.796308 57.68907 
L 367.603349 57.68907 
z
" clip-path="url(#p912afac304)" style="fill: #ff6347; opacity: 0.85"/>
   </g>
   <g id="patch_41">
    <path d="M 408.375184 146113.992303 
L 418.568143 146113.992303 
L 418.568143 287.669396 
L 408.375184 287.669396 
z
" clip-path="url(#p912afac304)" style="fill: #ff6347; opacity: 0.85"/>
   </g>
   <g id="patch_42">
    <path d="M 449.147019 146113.992303 
L 459.339977 146113.992303 
L 459.339977 373.283245 
L 449.147019 373.283245 
z
" clip-path="url(#p912afac304)" style="fill: #ff6347; opacity: 0.85"/>
   </g>
   <g id="patch_43">
    <path d="M 489.918854 146113.992303 
L 500.111812 146113.992303 
L 500.111812 161.370187 
L 489.918854 161.370187 
z
" clip-path="url(#p912afac304)" style="fill: #ff6347; opacity: 0.85"/>
   </g>
   <g id="patch_44">
    <path d="M 530.690689 146113.992303 
L 540.883647 146113.992303 
L 540.883647 123.885579 
L 530.690689 123.885579 
z
" clip-path="url(#p912afac304)" style="fill: #ff6347; opacity: 0.85"/>
   </g>
   <g id="patch_45">
    <path d="M 571.462523 146113.992303 
L 581.655482 146113.992303 
L 581.655482 509.127675 
L 571.462523 509.127675 
z
" clip-path="url(#p912afac304)" style="fill: #ff6347; opacity: 0.85"/>
   </g>
   <g id="patch_46">
    <path d="M 612.234358 146113.992303 
L 622.427317 146113.992303 
L 622.427317 218.739509 
L 612.234358 218.739509 
z
" clip-path="url(#p912afac304)" style="fill: #ff6347; opacity: 0.85"/>
   </g>
   <g id="patch_47">
    <path d="M 653.006193 146113.992303 
L 663.199152 146113.992303 
L 663.199152 290.744267 
L 653.006193 290.744267 
z
" clip-path="url(#p912afac304)" style="fill: #ff6347; opacity: 0.85"/>
   </g>
   <g id="patch_48">
    <path d="M 693.778028 146113.992303 
L 703.970987 146113.992303 
L 703.970987 253.879984 
L 693.778028 253.879984 
z
" clip-path="url(#p912afac304)" style="fill: #ff6347; opacity: 0.85"/>
   </g>
   <g id="patch_49">
    <path d="M 734.549863 146113.992303 
L 744.742822 146113.992303 
L 744.742822 49.844175 
L 734.549863 49.844175 
z
" clip-path="url(#p912afac304)" style="fill: #ff6347; opacity: 0.85"/>
   </g>
   <g id="patch_50">
    <path d="M 775.321698 146113.992303 
L 785.514657 146113.992303 
L 785.514657 244.210745 
L 775.321698 244.210745 
z
" clip-path="url(#p912afac304)" style="fill: #ff6347; opacity: 0.85"/>
   </g>
   <g id="patch_51">
    <path d="M 816.093533 146113.992303 
L 826.286492 146113.992303 
L 826.286492 194.061943 
L 816.093533 194.061943 
z
" clip-path="url(#p912afac304)" style="fill: #ff6347; opacity: 0.85"/>
   </g>
   <g id="patch_52">
    <path d="M 856.865368 146113.992303 
L 867.058326 146113.992303 
L 867.058326 229.714145 
L 856.865368 229.714145 
z
" clip-path="url(#p912afac304)" style="fill: #ff6347; opacity: 0.85"/>
   </g>
   <g id="patch_53">
    <path d="M 897.637203 146113.992303 
L 907.830161 146113.992303 
L 907.830161 316.66383 
L 897.637203 316.66383 
z
" clip-path="url(#p912afac304)" style="fill: #ff6347; opacity: 0.85"/>
   </g>
   <g id="patch_54">
    <path d="M 938.409037 146113.992303 
L 948.601996 146113.992303 
L 948.601996 137.662725 
L 938.409037 137.662725 
z
" clip-path="url(#p912afac304)" style="fill: #ff6347; opacity: 0.85"/>
   </g>
   <g id="patch_55">
    <path d="M 979.180872 146113.992303 
L 989.373831 146113.992303 
L 989.373831 200.438649 
L 979.180872 200.438649 
z
" clip-path="url(#p912afac304)" style="fill: #ff6347; opacity: 0.85"/>
   </g>
   <g id="patch_56">
    <path d="M 1019.952707 146113.992303 
L 1030.145666 146113.992303 
L 1030.145666 125.582703 
L 1019.952707 125.582703 
z
" clip-path="url(#p912afac304)" style="fill: #ff6347; opacity: 0.85"/>
   </g>
   <g id="patch_57">
    <path d="M 1060.724542 146113.992303 
L 1070.917501 146113.992303 
L 1070.917501 126.580024 
L 1060.724542 126.580024 
z
" clip-path="url(#p912afac304)" style="fill: #ff6347; opacity: 0.85"/>
   </g>
   <g id="patch_58">
    <path d="M 1101.496377 146113.992303 
L 1111.689336 146113.992303 
L 1111.689336 262.488776 
L 1101.496377 262.488776 
z
" clip-path="url(#p912afac304)" style="fill: #ff6347; opacity: 0.85"/>
   </g>
   <g id="patch_59">
    <path d="M 1142.268212 146113.992303 
L 1152.461171 146113.992303 
L 1152.461171 274.607583 
L 1142.268212 274.607583 
z
" clip-path="url(#p912afac304)" style="fill: #ff6347; opacity: 0.85"/>
   </g>
   <g id="patch_60">
    <path d="M 1183.040047 146113.992303 
L 1193.233006 146113.992303 
L 1193.233006 344.29842 
L 1183.040047 344.29842 
z
" clip-path="url(#p912afac304)" style="fill: #ff6347; opacity: 0.85"/>
   </g>
   <g id="patch_61">
    <path d="M 1223.811882 146113.992303 
L 1234.00484 146113.992303 
L 1234.00484 221.642121 
L 1223.811882 221.642121 
z
" clip-path="url(#p912afac304)" style="fill: #ff6347; opacity: 0.85"/>
   </g>
   <g id="patch_62">
    <path d="M 1264.583717 146113.992303 
L 1274.776675 146113.992303 
L 1274.776675 329.941826 
L 1264.583717 329.941826 
z
" clip-path="url(#p912afac304)" style="fill: #ff6347; opacity: 0.85"/>
   </g>
   <g id="patch_63">
    <path d="M 1305.355552 146113.992303 
L 1315.54851 146113.992303 
L 1315.54851 287.809442 
L 1305.355552 287.809442 
z
" clip-path="url(#p912afac304)" style="fill: #ff6347; opacity: 0.85"/>
   </g>
   <g id="patch_64">
    <path d="M 1346.127386 146113.992303 
L 1356.320345 146113.992303 
L 1356.320345 456.611657 
L 1346.127386 456.611657 
z
" clip-path="url(#p912afac304)" style="fill: #ff6347; opacity: 0.85"/>
   </g>
   <g id="patch_65">
    <path d="M 133.165298 146113.992303 
L 143.358257 146113.992303 
L 143.358257 192.760524 
L 133.165298 192.760524 
z
" clip-path="url(#p912afac304)" style="fill: #228b22; opacity: 0.85"/>
   </g>
   <g id="patch_66">
    <path d="M 173.937133 146113.992303 
L 184.130092 146113.992303 
L 184.130092 198.230845 
L 173.937133 198.230845 
z
" clip-path="url(#p912afac304)" style="fill: #228b22; opacity: 0.85"/>
   </g>
   <g id="patch_67">
    <path d="M 214.708968 146113.992303 
L 224.901927 146113.992303 
L 224.901927 221.91333 
L 214.708968 221.91333 
z
" clip-path="url(#p912afac304)" style="fill: #228b22; opacity: 0.85"/>
   </g>
   <g id="patch_68">
    <path d="M 255.480803 146113.992303 
L 265.673762 146113.992303 
L 265.673762 198.393457 
L 255.480803 198.393457 
z
" clip-path="url(#p912afac304)" style="fill: #228b22; opacity: 0.85"/>
   </g>
   <g id="patch_69">
    <path d="M 296.252638 146113.992303 
L 306.445597 146113.992303 
L 306.445597 359.272908 
L 296.252638 359.272908 
z
" clip-path="url(#p912afac304)" style="fill: #228b22; opacity: 0.85"/>
   </g>
   <g id="patch_70">
    <path d="M 337.024473 146113.992303 
L 347.217432 146113.992303 
L 347.217432 174.888987 
L 337.024473 174.888987 
z
" clip-path="url(#p912afac304)" style="fill: #228b22; opacity: 0.85"/>
   </g>
   <g id="patch_71">
    <path d="M 377.796308 146113.992303 
L 387.989266 146113.992303 
L 387.989266 99.619313 
L 377.796308 99.619313 
z
" clip-path="url(#p912afac304)" style="fill: #228b22; opacity: 0.85"/>
   </g>
   <g id="patch_72">
    <path d="M 418.568143 146113.992303 
L 428.761101 146113.992303 
L 428.761101 364.019597 
L 418.568143 364.019597 
z
" clip-path="url(#p912afac304)" style="fill: #228b22; opacity: 0.85"/>
   </g>
   <g id="patch_73">
    <path d="M 459.339977 146113.992303 
L 469.532936 146113.992303 
L 469.532936 427.349706 
L 459.339977 427.349706 
z
" clip-path="url(#p912afac304)" style="fill: #228b22; opacity: 0.85"/>
   </g>
   <g id="patch_74">
    <path d="M 500.111812 146113.992303 
L 510.304771 146113.992303 
L 510.304771 168.974123 
L 500.111812 168.974123 
z
" clip-path="url(#p912afac304)" style="fill: #228b22; opacity: 0.85"/>
   </g>
   <g id="patch_75">
    <path d="M 540.883647 146113.992303 
L 551.076606 146113.992303 
L 551.076606 169.505894 
L 540.883647 169.505894 
z
" clip-path="url(#p912afac304)" style="fill: #228b22; opacity: 0.85"/>
   </g>
   <g id="patch_76">
    <path d="M 581.655482 146113.992303 
L 591.848441 146113.992303 
L 591.848441 403.48891 
L 581.655482 403.48891 
z
" clip-path="url(#p912afac304)" style="fill: #228b22; opacity: 0.85"/>
   </g>
   <g id="patch_77">
    <path d="M 622.427317 146113.992303 
L 632.620276 146113.992303 
L 632.620276 225.65145 
L 622.427317 225.65145 
z
" clip-path="url(#p912afac304)" style="fill: #228b22; opacity: 0.85"/>
   </g>
   <g id="patch_78">
    <path d="M 663.199152 146113.992303 
L 673.392111 146113.992303 
L 673.392111 342.652097 
L 663.199152 342.652097 
z
" clip-path="url(#p912afac304)" style="fill: #228b22; opacity: 0.85"/>
   </g>
   <g id="patch_79">
    <path d="M 703.970987 146113.992303 
L 714.163946 146113.992303 
L 714.163946 229.057103 
L 703.970987 229.057103 
z
" clip-path="url(#p912afac304)" style="fill: #228b22; opacity: 0.85"/>
   </g>
   <g id="patch_80">
    <path d="M 744.742822 146113.992303 
L 754.93578 146113.992303 
L 754.93578 86.461995 
L 744.742822 86.461995 
z
" clip-path="url(#p912afac304)" style="fill: #228b22; opacity: 0.85"/>
   </g>
   <g id="patch_81">
    <path d="M 785.514657 146113.992303 
L 795.707615 146113.992303 
L 795.707615 211.077994 
L 785.514657 211.077994 
z
" clip-path="url(#p912afac304)" style="fill: #228b22; opacity: 0.85"/>
   </g>
   <g id="patch_82">
    <path d="M 826.286492 146113.992303 
L 836.47945 146113.992303 
L 836.47945 194.114955 
L 826.286492 194.114955 
z
" clip-path="url(#p912afac304)" style="fill: #228b22; opacity: 0.85"/>
   </g>
   <g id="patch_83">
    <path d="M 867.058326 146113.992303 
L 877.251285 146113.992303 
L 877.251285 355.82557 
L 867.058326 355.82557 
z
" clip-path="url(#p912afac304)" style="fill: #228b22; opacity: 0.85"/>
   </g>
   <g id="patch_84">
    <path d="M 907.830161 146113.992303 
L 918.02312 146113.992303 
L 918.02312 279.41623 
L 907.830161 279.41623 
z
" clip-path="url(#p912afac304)" style="fill: #228b22; opacity: 0.85"/>
   </g>
   <g id="patch_85">
    <path d="M 948.601996 146113.992303 
L 958.794955 146113.992303 
L 958.794955 160.027428 
L 948.601996 160.027428 
z
" clip-path="url(#p912afac304)" style="fill: #228b22; opacity: 0.85"/>
   </g>
   <g id="patch_86">
    <path d="M 989.373831 146113.992303 
L 999.56679 146113.992303 
L 999.56679 239.79358 
L 989.373831 239.79358 
z
" clip-path="url(#p912afac304)" style="fill: #228b22; opacity: 0.85"/>
   </g>
   <g id="patch_87">
    <path d="M 1030.145666 146113.992303 
L 1040.338625 146113.992303 
L 1040.338625 214.681874 
L 1030.145666 214.681874 
z
" clip-path="url(#p912afac304)" style="fill: #228b22; opacity: 0.85"/>
   </g>
   <g id="patch_88">
    <path d="M 1070.917501 146113.992303 
L 1081.11046 146113.992303 
L 1081.11046 163.268391 
L 1070.917501 163.268391 
z
" clip-path="url(#p912afac304)" style="fill: #228b22; opacity: 0.85"/>
   </g>
   <g id="patch_89">
    <path d="M 1111.689336 146113.992303 
L 1121.882294 146113.992303 
L 1121.882294 281.53762 
L 1111.689336 281.53762 
z
" clip-path="url(#p912afac304)" style="fill: #228b22; opacity: 0.85"/>
   </g>
   <g id="patch_90">
    <path d="M 1152.461171 146113.992303 
L 1162.654129 146113.992303 
L 1162.654129 234.886537 
L 1152.461171 234.886537 
z
" clip-path="url(#p912afac304)" style="fill: #228b22; opacity: 0.85"/>
   </g>
   <g id="patch_91">
    <path d="M 1193.233006 146113.992303 
L 1203.425964 146113.992303 
L 1203.425964 277.306236 
L 1193.233006 277.306236 
z
" clip-path="url(#p912afac304)" style="fill: #228b22; opacity: 0.85"/>
   </g>
   <g id="patch_92">
    <path d="M 1234.00484 146113.992303 
L 1244.197799 146113.992303 
L 1244.197799 283.802037 
L 1234.00484 283.802037 
z
" clip-path="url(#p912afac304)" style="fill: #228b22; opacity: 0.85"/>
   </g>
   <g id="patch_93">
    <path d="M 1274.776675 146113.992303 
L 1284.969634 146113.992303 
L 1284.969634 314.073726 
L 1274.776675 314.073726 
z
" clip-path="url(#p912afac304)" style="fill: #228b22; opacity: 0.85"/>
   </g>
   <g id="patch_94">
    <path d="M 1315.54851 146113.992303 
L 1325.741469 146113.992303 
L 1325.741469 309.53258 
L 1315.54851 309.53258 
z
" clip-path="url(#p912afac304)" style="fill: #228b22; opacity: 0.85"/>
   </g>
   <g id="patch_95">
    <path d="M 1356.320345 146113.992303 
L 1366.513304 146113.992303 
L 1366.513304 489.941156 
L 1356.320345 489.941156 
z
" clip-path="url(#p912afac304)" style="fill: #228b22; opacity: 0.85"/>
   </g>
   <g id="matplotlib.axis_1">
    <g id="xtick_1">
     <g id="line2d_1">
      <defs>
       <path id="m18cccaecff" d="M 0 0 
L 0 3.5 
" style="stroke: #000000; stroke-width: 0.8"/>
      </defs>
      <g>
       <use xlink:href="#m18cccaecff" x="128.068819" y="532.09185" style="stroke: #000000; stroke-width: 0.8"/>
      </g>
     </g>
     <g id="text_1">
      <!-- eb_x -->
      <g transform="translate(113.486509 556.638705) rotate(-45) scale(0.08 -0.08)">
       <defs>
        <path id="DejaVuSans-65" d="M 3597 1894 
L 3597 1613 
L 953 1613 
Q 991 1019 1311 708 
Q 1631 397 2203 397 
Q 2534 397 2845 478 
Q 3156 559 3463 722 
L 3463 178 
Q 3153 47 2828 -22 
Q 2503 -91 2169 -91 
Q 1331 -91 842 396 
Q 353 884 353 1716 
Q 353 2575 817 3079 
Q 1281 3584 2069 3584 
Q 2775 3584 3186 3129 
Q 3597 2675 3597 1894 
z
M 3022 2063 
Q 3016 2534 2758 2815 
Q 2500 3097 2075 3097 
Q 1594 3097 1305 2825 
Q 1016 2553 972 2059 
L 3022 2063 
z
" transform="scale(0.015625)"/>
        <path id="DejaVuSans-62" d="M 3116 1747 
Q 3116 2381 2855 2742 
Q 2594 3103 2138 3103 
Q 1681 3103 1420 2742 
Q 1159 2381 1159 1747 
Q 1159 1113 1420 752 
Q 1681 391 2138 391 
Q 2594 391 2855 752 
Q 3116 1113 3116 1747 
z
M 1159 2969 
Q 1341 3281 1617 3432 
Q 1894 3584 2278 3584 
Q 2916 3584 3314 3078 
Q 3713 2572 3713 1747 
Q 3713 922 3314 415 
Q 2916 -91 2278 -91 
Q 1894 -91 1617 61 
Q 1341 213 1159 525 
L 1159 0 
L 581 0 
L 581 4863 
L 1159 4863 
L 1159 2969 
z
" transform="scale(0.015625)"/>
        <path id="DejaVuSans-5f" d="M 3263 -1063 
L 3263 -1509 
L -63 -1509 
L -63 -1063 
L 3263 -1063 
z
" transform="scale(0.015625)"/>
        <path id="DejaVuSans-78" d="M 3513 3500 
L 2247 1797 
L 3578 0 
L 2900 0 
L 1881 1375 
L 863 0 
L 184 0 
L 1544 1831 
L 300 3500 
L 978 3500 
L 1906 2253 
L 2834 3500 
L 3513 3500 
z
" transform="scale(0.015625)"/>
       </defs>
       <use xlink:href="#DejaVuSans-65"/>
       <use xlink:href="#DejaVuSans-62" transform="translate(61.523438 0)"/>
       <use xlink:href="#DejaVuSans-5f" transform="translate(125 0)"/>
       <use xlink:href="#DejaVuSans-78" transform="translate(175 0)"/>
      </g>
     </g>
    </g>
    <g id="xtick_2">
     <g id="line2d_2">
      <g>
       <use xlink:href="#m18cccaecff" x="168.840654" y="532.09185" style="stroke: #000000; stroke-width: 0.8"/>
      </g>
     </g>
     <g id="text_2">
      <!-- eb_y -->
      <g transform="translate(154.258344 556.638705) rotate(-45) scale(0.08 -0.08)">
       <defs>
        <path id="DejaVuSans-79" d="M 2059 -325 
Q 1816 -950 1584 -1140 
Q 1353 -1331 966 -1331 
L 506 -1331 
L 506 -850 
L 844 -850 
Q 1081 -850 1212 -737 
Q 1344 -625 1503 -206 
L 1606 56 
L 191 3500 
L 800 3500 
L 1894 763 
L 2988 3500 
L 3597 3500 
L 2059 -325 
z
" transform="scale(0.015625)"/>
       </defs>
       <use xlink:href="#DejaVuSans-65"/>
       <use xlink:href="#DejaVuSans-62" transform="translate(61.523438 0)"/>
       <use xlink:href="#DejaVuSans-5f" transform="translate(125 0)"/>
       <use xlink:href="#DejaVuSans-79" transform="translate(175 0)"/>
      </g>
     </g>
    </g>
    <g id="xtick_3">
     <g id="line2d_3">
      <g>
       <use xlink:href="#m18cccaecff" x="209.612489" y="532.09185" style="stroke: #000000; stroke-width: 0.8"/>
      </g>
     </g>
     <g id="text_3">
      <!-- eb_z -->
      <g transform="translate(195.409365 556.259519) rotate(-45) scale(0.08 -0.08)">
       <defs>
        <path id="DejaVuSans-7a" d="M 353 3500 
L 3084 3500 
L 3084 2975 
L 922 459 
L 3084 459 
L 3084 0 
L 275 0 
L 275 525 
L 2438 3041 
L 353 3041 
L 353 3500 
z
" transform="scale(0.015625)"/>
       </defs>
       <use xlink:href="#DejaVuSans-65"/>
       <use xlink:href="#DejaVuSans-62" transform="translate(61.523438 0)"/>
       <use xlink:href="#DejaVuSans-5f" transform="translate(125 0)"/>
       <use xlink:href="#DejaVuSans-7a" transform="translate(175 0)"/>
      </g>
     </g>
    </g>
    <g id="xtick_4">
     <g id="line2d_4">
      <g>
       <use xlink:href="#m18cccaecff" x="250.384324" y="532.09185" style="stroke: #000000; stroke-width: 0.8"/>
      </g>
     </g>
     <g id="text_4">
      <!-- db_x -->
      <g transform="translate(235.691529 556.74919) rotate(-45) scale(0.08 -0.08)">
       <defs>
        <path id="DejaVuSans-64" d="M 2906 2969 
L 2906 4863 
L 3481 4863 
L 3481 0 
L 2906 0 
L 2906 525 
Q 2725 213 2448 61 
Q 2172 -91 1784 -91 
Q 1150 -91 751 415 
Q 353 922 353 1747 
Q 353 2572 751 3078 
Q 1150 3584 1784 3584 
Q 2172 3584 2448 3432 
Q 2725 3281 2906 2969 
z
M 947 1747 
Q 947 1113 1208 752 
Q 1469 391 1925 391 
Q 2381 391 2643 752 
Q 2906 1113 2906 1747 
Q 2906 2381 2643 2742 
Q 2381 3103 1925 3103 
Q 1469 3103 1208 2742 
Q 947 2381 947 1747 
z
" transform="scale(0.015625)"/>
       </defs>
       <use xlink:href="#DejaVuSans-64"/>
       <use xlink:href="#DejaVuSans-62" transform="translate(63.476562 0)"/>
       <use xlink:href="#DejaVuSans-5f" transform="translate(126.953125 0)"/>
       <use xlink:href="#DejaVuSans-78" transform="translate(176.953125 0)"/>
      </g>
     </g>
    </g>
    <g id="xtick_5">
     <g id="line2d_5">
      <g>
       <use xlink:href="#m18cccaecff" x="291.156159" y="532.09185" style="stroke: #000000; stroke-width: 0.8"/>
      </g>
     </g>
     <g id="text_5">
      <!-- db_y -->
      <g transform="translate(276.463364 556.74919) rotate(-45) scale(0.08 -0.08)">
       <use xlink:href="#DejaVuSans-64"/>
       <use xlink:href="#DejaVuSans-62" transform="translate(63.476562 0)"/>
       <use xlink:href="#DejaVuSans-5f" transform="translate(126.953125 0)"/>
       <use xlink:href="#DejaVuSans-79" transform="translate(176.953125 0)"/>
      </g>
     </g>
    </g>
    <g id="xtick_6">
     <g id="line2d_6">
      <g>
       <use xlink:href="#m18cccaecff" x="331.927993" y="532.09185" style="stroke: #000000; stroke-width: 0.8"/>
      </g>
     </g>
     <g id="text_6">
      <!-- db_z -->
      <g transform="translate(317.614384 556.370004) rotate(-45) scale(0.08 -0.08)">
       <use xlink:href="#DejaVuSans-64"/>
       <use xlink:href="#DejaVuSans-62" transform="translate(63.476562 0)"/>
       <use xlink:href="#DejaVuSans-5f" transform="translate(126.953125 0)"/>
       <use xlink:href="#DejaVuSans-7a" transform="translate(176.953125 0)"/>
      </g>
     </g>
    </g>
    <g id="xtick_7">
     <g id="line2d_7">
      <g>
       <use xlink:href="#m18cccaecff" x="372.699828" y="532.09185" style="stroke: #000000; stroke-width: 0.8"/>
      </g>
     </g>
     <g id="text_7">
      <!-- dKg_xx -->
      <g transform="translate(350.949224 563.807) rotate(-45) scale(0.08 -0.08)">
       <defs>
        <path id="DejaVuSans-4b" d="M 628 4666 
L 1259 4666 
L 1259 2694 
L 3353 4666 
L 4166 4666 
L 1850 2491 
L 4331 0 
L 3500 0 
L 1259 2247 
L 1259 0 
L 628 0 
L 628 4666 
z
" transform="scale(0.015625)"/>
        <path id="DejaVuSans-67" d="M 2906 1791 
Q 2906 2416 2648 2759 
Q 2391 3103 1925 3103 
Q 1463 3103 1205 2759 
Q 947 2416 947 1791 
Q 947 1169 1205 825 
Q 1463 481 1925 481 
Q 2391 481 2648 825 
Q 2906 1169 2906 1791 
z
M 3481 434 
Q 3481 -459 3084 -895 
Q 2688 -1331 1869 -1331 
Q 1566 -1331 1297 -1286 
Q 1028 -1241 775 -1147 
L 775 -588 
Q 1028 -725 1275 -790 
Q 1522 -856 1778 -856 
Q 2344 -856 2625 -561 
Q 2906 -266 2906 331 
L 2906 616 
Q 2728 306 2450 153 
Q 2172 0 1784 0 
Q 1141 0 747 490 
Q 353 981 353 1791 
Q 353 2603 747 3093 
Q 1141 3584 1784 3584 
Q 2172 3584 2450 3431 
Q 2728 3278 2906 2969 
L 2906 3500 
L 3481 3500 
L 3481 434 
z
" transform="scale(0.015625)"/>
       </defs>
       <use xlink:href="#DejaVuSans-64"/>
       <use xlink:href="#DejaVuSans-4b" transform="translate(63.476562 0)"/>
       <use xlink:href="#DejaVuSans-67" transform="translate(129.052734 0)"/>
       <use xlink:href="#DejaVuSans-5f" transform="translate(192.529297 0)"/>
       <use xlink:href="#DejaVuSans-78" transform="translate(242.529297 0)"/>
       <use xlink:href="#DejaVuSans-78" transform="translate(301.708984 0)"/>
      </g>
     </g>
    </g>
    <g id="xtick_8">
     <g id="line2d_8">
      <g>
       <use xlink:href="#m18cccaecff" x="413.471663" y="532.09185" style="stroke: #000000; stroke-width: 0.8"/>
      </g>
     </g>
     <g id="text_8">
      <!-- dKg_yx -->
      <g transform="translate(391.721059 563.807) rotate(-45) scale(0.08 -0.08)">
       <use xlink:href="#DejaVuSans-64"/>
       <use xlink:href="#DejaVuSans-4b" transform="translate(63.476562 0)"/>
       <use xlink:href="#DejaVuSans-67" transform="translate(129.052734 0)"/>
       <use xlink:href="#DejaVuSans-5f" transform="translate(192.529297 0)"/>
       <use xlink:href="#DejaVuSans-79" transform="translate(242.529297 0)"/>
       <use xlink:href="#DejaVuSans-78" transform="translate(301.708984 0)"/>
      </g>
     </g>
    </g>
    <g id="xtick_9">
     <g id="line2d_9">
      <g>
       <use xlink:href="#m18cccaecff" x="454.243498" y="532.09185" style="stroke: #000000; stroke-width: 0.8"/>
      </g>
     </g>
     <g id="text_9">
      <!-- dKg_zx -->
      <g transform="translate(432.87208 563.427814) rotate(-45) scale(0.08 -0.08)">
       <use xlink:href="#DejaVuSans-64"/>
       <use xlink:href="#DejaVuSans-4b" transform="translate(63.476562 0)"/>
       <use xlink:href="#DejaVuSans-67" transform="translate(129.052734 0)"/>
       <use xlink:href="#DejaVuSans-5f" transform="translate(192.529297 0)"/>
       <use xlink:href="#DejaVuSans-7a" transform="translate(242.529297 0)"/>
       <use xlink:href="#DejaVuSans-78" transform="translate(295.019531 0)"/>
      </g>
     </g>
    </g>
    <g id="xtick_10">
     <g id="line2d_10">
      <g>
       <use xlink:href="#m18cccaecff" x="495.015333" y="532.09185" style="stroke: #000000; stroke-width: 0.8"/>
      </g>
     </g>
     <g id="text_10">
      <!-- dKg_xy -->
      <g transform="translate(473.264728 563.807) rotate(-45) scale(0.08 -0.08)">
       <use xlink:href="#DejaVuSans-64"/>
       <use xlink:href="#DejaVuSans-4b" transform="translate(63.476562 0)"/>
       <use xlink:href="#DejaVuSans-67" transform="translate(129.052734 0)"/>
       <use xlink:href="#DejaVuSans-5f" transform="translate(192.529297 0)"/>
       <use xlink:href="#DejaVuSans-78" transform="translate(242.529297 0)"/>
       <use xlink:href="#DejaVuSans-79" transform="translate(301.708984 0)"/>
      </g>
     </g>
    </g>
    <g id="xtick_11">
     <g id="line2d_11">
      <g>
       <use xlink:href="#m18cccaecff" x="535.787168" y="532.09185" style="stroke: #000000; stroke-width: 0.8"/>
      </g>
     </g>
     <g id="text_11">
      <!-- dKg_yy -->
      <g transform="translate(514.036563 563.807) rotate(-45) scale(0.08 -0.08)">
       <use xlink:href="#DejaVuSans-64"/>
       <use xlink:href="#DejaVuSans-4b" transform="translate(63.476562 0)"/>
       <use xlink:href="#DejaVuSans-67" transform="translate(129.052734 0)"/>
       <use xlink:href="#DejaVuSans-5f" transform="translate(192.529297 0)"/>
       <use xlink:href="#DejaVuSans-79" transform="translate(242.529297 0)"/>
       <use xlink:href="#DejaVuSans-79" transform="translate(301.708984 0)"/>
      </g>
     </g>
    </g>
    <g id="xtick_12">
     <g id="line2d_12">
      <g>
       <use xlink:href="#m18cccaecff" x="576.559003" y="532.09185" style="stroke: #000000; stroke-width: 0.8"/>
      </g>
     </g>
     <g id="text_12">
      <!-- dKg_zy -->
      <g transform="translate(555.187584 563.427814) rotate(-45) scale(0.08 -0.08)">
       <use xlink:href="#DejaVuSans-64"/>
       <use xlink:href="#DejaVuSans-4b" transform="translate(63.476562 0)"/>
       <use xlink:href="#DejaVuSans-67" transform="translate(129.052734 0)"/>
       <use xlink:href="#DejaVuSans-5f" transform="translate(192.529297 0)"/>
       <use xlink:href="#DejaVuSans-7a" transform="translate(242.529297 0)"/>
       <use xlink:href="#DejaVuSans-79" transform="translate(295.019531 0)"/>
      </g>
     </g>
    </g>
    <g id="xtick_13">
     <g id="line2d_13">
      <g>
       <use xlink:href="#m18cccaecff" x="617.330838" y="532.09185" style="stroke: #000000; stroke-width: 0.8"/>
      </g>
     </g>
     <g id="text_13">
      <!-- dKg_xz -->
      <g transform="translate(595.959419 563.427814) rotate(-45) scale(0.08 -0.08)">
       <use xlink:href="#DejaVuSans-64"/>
       <use xlink:href="#DejaVuSans-4b" transform="translate(63.476562 0)"/>
       <use xlink:href="#DejaVuSans-67" transform="translate(129.052734 0)"/>
       <use xlink:href="#DejaVuSans-5f" transform="translate(192.529297 0)"/>
       <use xlink:href="#DejaVuSans-78" transform="translate(242.529297 0)"/>
       <use xlink:href="#DejaVuSans-7a" transform="translate(301.708984 0)"/>
      </g>
     </g>
    </g>
    <g id="xtick_14">
     <g id="line2d_14">
      <g>
       <use xlink:href="#m18cccaecff" x="658.102673" y="532.09185" style="stroke: #000000; stroke-width: 0.8"/>
      </g>
     </g>
     <g id="text_14">
      <!-- dKg_yz -->
      <g transform="translate(636.731254 563.427814) rotate(-45) scale(0.08 -0.08)">
       <use xlink:href="#DejaVuSans-64"/>
       <use xlink:href="#DejaVuSans-4b" transform="translate(63.476562 0)"/>
       <use xlink:href="#DejaVuSans-67" transform="translate(129.052734 0)"/>
       <use xlink:href="#DejaVuSans-5f" transform="translate(192.529297 0)"/>
       <use xlink:href="#DejaVuSans-79" transform="translate(242.529297 0)"/>
       <use xlink:href="#DejaVuSans-7a" transform="translate(301.708984 0)"/>
      </g>
     </g>
    </g>
    <g id="xtick_15">
     <g id="line2d_15">
      <g>
       <use xlink:href="#m18cccaecff" x="698.874507" y="532.09185" style="stroke: #000000; stroke-width: 0.8"/>
      </g>
     </g>
     <g id="text_15">
      <!-- dKg_zz -->
      <g transform="translate(677.882275 563.048628) rotate(-45) scale(0.08 -0.08)">
       <use xlink:href="#DejaVuSans-64"/>
       <use xlink:href="#DejaVuSans-4b" transform="translate(63.476562 0)"/>
       <use xlink:href="#DejaVuSans-67" transform="translate(129.052734 0)"/>
       <use xlink:href="#DejaVuSans-5f" transform="translate(192.529297 0)"/>
       <use xlink:href="#DejaVuSans-7a" transform="translate(242.529297 0)"/>
       <use xlink:href="#DejaVuSans-7a" transform="translate(295.019531 0)"/>
      </g>
     </g>
    </g>
    <g id="xtick_16">
     <g id="line2d_16">
      <g>
       <use xlink:href="#m18cccaecff" x="739.646342" y="532.09185" style="stroke: #000000; stroke-width: 0.8"/>
      </g>
     </g>
     <g id="text_16">
      <!-- dKa_xx -->
      <g transform="translate(718.11936 563.583377) rotate(-45) scale(0.08 -0.08)">
       <defs>
        <path id="DejaVuSans-61" d="M 2194 1759 
Q 1497 1759 1228 1600 
Q 959 1441 959 1056 
Q 959 750 1161 570 
Q 1363 391 1709 391 
Q 2188 391 2477 730 
Q 2766 1069 2766 1631 
L 2766 1759 
L 2194 1759 
z
M 3341 1997 
L 3341 0 
L 2766 0 
L 2766 531 
Q 2569 213 2275 61 
Q 1981 -91 1556 -91 
Q 1019 -91 701 211 
Q 384 513 384 1019 
Q 384 1609 779 1909 
Q 1175 2209 1959 2209 
L 2766 2209 
L 2766 2266 
Q 2766 2663 2505 2880 
Q 2244 3097 1772 3097 
Q 1472 3097 1187 3025 
Q 903 2953 641 2809 
L 641 3341 
Q 956 3463 1253 3523 
Q 1550 3584 1831 3584 
Q 2591 3584 2966 3190 
Q 3341 2797 3341 1997 
z
" transform="scale(0.015625)"/>
       </defs>
       <use xlink:href="#DejaVuSans-64"/>
       <use xlink:href="#DejaVuSans-4b" transform="translate(63.476562 0)"/>
       <use xlink:href="#DejaVuSans-61" transform="translate(127.302734 0)"/>
       <use xlink:href="#DejaVuSans-5f" transform="translate(188.582031 0)"/>
       <use xlink:href="#DejaVuSans-78" transform="translate(238.582031 0)"/>
       <use xlink:href="#DejaVuSans-78" transform="translate(297.761719 0)"/>
      </g>
     </g>
    </g>
    <g id="xtick_17">
     <g id="line2d_17">
      <g>
       <use xlink:href="#m18cccaecff" x="780.418177" y="532.09185" style="stroke: #000000; stroke-width: 0.8"/>
      </g>
     </g>
     <g id="text_17">
      <!-- dKa_yx -->
      <g transform="translate(758.891195 563.583377) rotate(-45) scale(0.08 -0.08)">
       <use xlink:href="#DejaVuSans-64"/>
       <use xlink:href="#DejaVuSans-4b" transform="translate(63.476562 0)"/>
       <use xlink:href="#DejaVuSans-61" transform="translate(127.302734 0)"/>
       <use xlink:href="#DejaVuSans-5f" transform="translate(188.582031 0)"/>
       <use xlink:href="#DejaVuSans-79" transform="translate(238.582031 0)"/>
       <use xlink:href="#DejaVuSans-78" transform="translate(297.761719 0)"/>
      </g>
     </g>
    </g>
    <g id="xtick_18">
     <g id="line2d_18">
      <g>
       <use xlink:href="#m18cccaecff" x="821.190012" y="532.09185" style="stroke: #000000; stroke-width: 0.8"/>
      </g>
     </g>
     <g id="text_18">
      <!-- dKa_zx -->
      <g transform="translate(800.042216 563.204191) rotate(-45) scale(0.08 -0.08)">
       <use xlink:href="#DejaVuSans-64"/>
       <use xlink:href="#DejaVuSans-4b" transform="translate(63.476562 0)"/>
       <use xlink:href="#DejaVuSans-61" transform="translate(127.302734 0)"/>
       <use xlink:href="#DejaVuSans-5f" transform="translate(188.582031 0)"/>
       <use xlink:href="#DejaVuSans-7a" transform="translate(238.582031 0)"/>
       <use xlink:href="#DejaVuSans-78" transform="translate(291.072266 0)"/>
      </g>
     </g>
    </g>
    <g id="xtick_19">
     <g id="line2d_19">
      <g>
       <use xlink:href="#m18cccaecff" x="861.961847" y="532.09185" style="stroke: #000000; stroke-width: 0.8"/>
      </g>
     </g>
     <g id="text_19">
      <!-- dKa_yy -->
      <g transform="translate(840.434865 563.583377) rotate(-45) scale(0.08 -0.08)">
       <use xlink:href="#DejaVuSans-64"/>
       <use xlink:href="#DejaVuSans-4b" transform="translate(63.476562 0)"/>
       <use xlink:href="#DejaVuSans-61" transform="translate(127.302734 0)"/>
       <use xlink:href="#DejaVuSans-5f" transform="translate(188.582031 0)"/>
       <use xlink:href="#DejaVuSans-79" transform="translate(238.582031 0)"/>
       <use xlink:href="#DejaVuSans-79" transform="translate(297.761719 0)"/>
      </g>
     </g>
    </g>
    <g id="xtick_20">
     <g id="line2d_20">
      <g>
       <use xlink:href="#m18cccaecff" x="902.733682" y="532.09185" style="stroke: #000000; stroke-width: 0.8"/>
      </g>
     </g>
     <g id="text_20">
      <!-- dKa_zy -->
      <g transform="translate(881.585886 563.204191) rotate(-45) scale(0.08 -0.08)">
       <use xlink:href="#DejaVuSans-64"/>
       <use xlink:href="#DejaVuSans-4b" transform="translate(63.476562 0)"/>
       <use xlink:href="#DejaVuSans-61" transform="translate(127.302734 0)"/>
       <use xlink:href="#DejaVuSans-5f" transform="translate(188.582031 0)"/>
       <use xlink:href="#DejaVuSans-7a" transform="translate(238.582031 0)"/>
       <use xlink:href="#DejaVuSans-79" transform="translate(291.072266 0)"/>
      </g>
     </g>
    </g>
    <g id="xtick_21">
     <g id="line2d_21">
      <g>
       <use xlink:href="#m18cccaecff" x="943.505517" y="532.09185" style="stroke: #000000; stroke-width: 0.8"/>
      </g>
     </g>
     <g id="text_21">
      <!-- dKa_zz -->
      <g transform="translate(922.736907 562.825005) rotate(-45) scale(0.08 -0.08)">
       <use xlink:href="#DejaVuSans-64"/>
       <use xlink:href="#DejaVuSans-4b" transform="translate(63.476562 0)"/>
       <use xlink:href="#DejaVuSans-61" transform="translate(127.302734 0)"/>
       <use xlink:href="#DejaVuSans-5f" transform="translate(188.582031 0)"/>
       <use xlink:href="#DejaVuSans-7a" transform="translate(238.582031 0)"/>
       <use xlink:href="#DejaVuSans-7a" transform="translate(291.072266 0)"/>
      </g>
     </g>
    </g>
    <g id="xtick_22">
     <g id="line2d_22">
      <g>
       <use xlink:href="#m18cccaecff" x="984.277352" y="532.09185" style="stroke: #000000; stroke-width: 0.8"/>
      </g>
     </g>
     <g id="text_22">
      <!-- Ka2_x -->
      <g transform="translate(966.090565 560.143303) rotate(-45) scale(0.08 -0.08)">
       <defs>
        <path id="DejaVuSans-32" d="M 1228 531 
L 3431 531 
L 3431 0 
L 469 0 
L 469 531 
Q 828 903 1448 1529 
Q 2069 2156 2228 2338 
Q 2531 2678 2651 2914 
Q 2772 3150 2772 3378 
Q 2772 3750 2511 3984 
Q 2250 4219 1831 4219 
Q 1534 4219 1204 4116 
Q 875 4013 500 3803 
L 500 4441 
Q 881 4594 1212 4672 
Q 1544 4750 1819 4750 
Q 2544 4750 2975 4387 
Q 3406 4025 3406 3419 
Q 3406 3131 3298 2873 
Q 3191 2616 2906 2266 
Q 2828 2175 2409 1742 
Q 1991 1309 1228 531 
z
" transform="scale(0.015625)"/>
       </defs>
       <use xlink:href="#DejaVuSans-4b"/>
       <use xlink:href="#DejaVuSans-61" transform="translate(63.826172 0)"/>
       <use xlink:href="#DejaVuSans-32" transform="translate(125.105469 0)"/>
       <use xlink:href="#DejaVuSans-5f" transform="translate(188.728516 0)"/>
       <use xlink:href="#DejaVuSans-78" transform="translate(238.728516 0)"/>
      </g>
     </g>
    </g>
    <g id="xtick_23">
     <g id="line2d_23">
      <g>
       <use xlink:href="#m18cccaecff" x="1025.049187" y="532.09185" style="stroke: #000000; stroke-width: 0.8"/>
      </g>
     </g>
     <g id="text_23">
      <!-- Ka2_y -->
      <g transform="translate(1006.8624 560.143303) rotate(-45) scale(0.08 -0.08)">
       <use xlink:href="#DejaVuSans-4b"/>
       <use xlink:href="#DejaVuSans-61" transform="translate(63.826172 0)"/>
       <use xlink:href="#DejaVuSans-32" transform="translate(125.105469 0)"/>
       <use xlink:href="#DejaVuSans-5f" transform="translate(188.728516 0)"/>
       <use xlink:href="#DejaVuSans-79" transform="translate(238.728516 0)"/>
      </g>
     </g>
    </g>
    <g id="xtick_24">
     <g id="line2d_24">
      <g>
       <use xlink:href="#m18cccaecff" x="1065.821022" y="532.09185" style="stroke: #000000; stroke-width: 0.8"/>
      </g>
     </g>
     <g id="text_24">
      <!-- Ka2_z -->
      <g transform="translate(1048.013421 559.764117) rotate(-45) scale(0.08 -0.08)">
       <use xlink:href="#DejaVuSans-4b"/>
       <use xlink:href="#DejaVuSans-61" transform="translate(63.826172 0)"/>
       <use xlink:href="#DejaVuSans-32" transform="translate(125.105469 0)"/>
       <use xlink:href="#DejaVuSans-5f" transform="translate(188.728516 0)"/>
       <use xlink:href="#DejaVuSans-7a" transform="translate(238.728516 0)"/>
      </g>
     </g>
    </g>
    <g id="xtick_25">
     <g id="line2d_25">
      <g>
       <use xlink:href="#m18cccaecff" x="1106.592856" y="532.09185" style="stroke: #000000; stroke-width: 0.8"/>
      </g>
     </g>
     <g id="text_25">
      <!-- rx_x -->
      <g transform="translate(1093.557343 554.934577) rotate(-45) scale(0.08 -0.08)">
       <defs>
        <path id="DejaVuSans-72" d="M 2631 2963 
Q 2534 3019 2420 3045 
Q 2306 3072 2169 3072 
Q 1681 3072 1420 2755 
Q 1159 2438 1159 1844 
L 1159 0 
L 581 0 
L 581 3500 
L 1159 3500 
L 1159 2956 
Q 1341 3275 1631 3429 
Q 1922 3584 2338 3584 
Q 2397 3584 2469 3576 
Q 2541 3569 2628 3553 
L 2631 2963 
z
" transform="scale(0.015625)"/>
       </defs>
       <use xlink:href="#DejaVuSans-72"/>
       <use xlink:href="#DejaVuSans-78" transform="translate(38.488281 0)"/>
       <use xlink:href="#DejaVuSans-5f" transform="translate(97.667969 0)"/>
       <use xlink:href="#DejaVuSans-78" transform="translate(147.667969 0)"/>
      </g>
     </g>
    </g>
    <g id="xtick_26">
     <g id="line2d_26">
      <g>
       <use xlink:href="#m18cccaecff" x="1147.364691" y="532.09185" style="stroke: #000000; stroke-width: 0.8"/>
      </g>
     </g>
     <g id="text_26">
      <!-- rx_y -->
      <g transform="translate(1134.329178 554.934577) rotate(-45) scale(0.08 -0.08)">
       <use xlink:href="#DejaVuSans-72"/>
       <use xlink:href="#DejaVuSans-78" transform="translate(38.488281 0)"/>
       <use xlink:href="#DejaVuSans-5f" transform="translate(97.667969 0)"/>
       <use xlink:href="#DejaVuSans-79" transform="translate(147.667969 0)"/>
      </g>
     </g>
    </g>
    <g id="xtick_27">
     <g id="line2d_27">
      <g>
       <use xlink:href="#m18cccaecff" x="1188.136526" y="532.09185" style="stroke: #000000; stroke-width: 0.8"/>
      </g>
     </g>
     <g id="text_27">
      <!-- rx_z -->
      <g transform="translate(1175.480199 554.555391) rotate(-45) scale(0.08 -0.08)">
       <use xlink:href="#DejaVuSans-72"/>
       <use xlink:href="#DejaVuSans-78" transform="translate(38.488281 0)"/>
       <use xlink:href="#DejaVuSans-5f" transform="translate(97.667969 0)"/>
       <use xlink:href="#DejaVuSans-7a" transform="translate(147.667969 0)"/>
      </g>
     </g>
    </g>
    <g id="xtick_28">
     <g id="line2d_28">
      <g>
       <use xlink:href="#m18cccaecff" x="1228.908361" y="532.09185" style="stroke: #000000; stroke-width: 0.8"/>
      </g>
     </g>
     <g id="text_28">
      <!-- ry_x -->
      <g transform="translate(1215.724355 555.08307) rotate(-45) scale(0.08 -0.08)">
       <use xlink:href="#DejaVuSans-72"/>
       <use xlink:href="#DejaVuSans-79" transform="translate(41.113281 0)"/>
       <use xlink:href="#DejaVuSans-5f" transform="translate(100.292969 0)"/>
       <use xlink:href="#DejaVuSans-78" transform="translate(150.292969 0)"/>
      </g>
     </g>
    </g>
    <g id="xtick_29">
     <g id="line2d_29">
      <g>
       <use xlink:href="#m18cccaecff" x="1269.680196" y="532.09185" style="stroke: #000000; stroke-width: 0.8"/>
      </g>
     </g>
     <g id="text_29">
      <!-- ry_y -->
      <g transform="translate(1256.49619 555.08307) rotate(-45) scale(0.08 -0.08)">
       <use xlink:href="#DejaVuSans-72"/>
       <use xlink:href="#DejaVuSans-79" transform="translate(41.113281 0)"/>
       <use xlink:href="#DejaVuSans-5f" transform="translate(100.292969 0)"/>
       <use xlink:href="#DejaVuSans-79" transform="translate(150.292969 0)"/>
      </g>
     </g>
    </g>
    <g id="xtick_30">
     <g id="line2d_30">
      <g>
       <use xlink:href="#m18cccaecff" x="1310.452031" y="532.09185" style="stroke: #000000; stroke-width: 0.8"/>
      </g>
     </g>
     <g id="text_30">
      <!-- ry_z -->
      <g transform="translate(1297.647211 554.703884) rotate(-45) scale(0.08 -0.08)">
       <use xlink:href="#DejaVuSans-72"/>
       <use xlink:href="#DejaVuSans-79" transform="translate(41.113281 0)"/>
       <use xlink:href="#DejaVuSans-5f" transform="translate(100.292969 0)"/>
       <use xlink:href="#DejaVuSans-7a" transform="translate(150.292969 0)"/>
      </g>
     </g>
    </g>
    <g id="xtick_31">
     <g id="line2d_31">
      <g>
       <use xlink:href="#m18cccaecff" x="1351.223866" y="532.09185" style="stroke: #000000; stroke-width: 0.8"/>
      </g>
     </g>
     <g id="text_31">
      <!-- tGA -->
      <g transform="translate(1339.576933 553.860659) rotate(-45) scale(0.08 -0.08)">
       <defs>
        <path id="DejaVuSans-74" d="M 1172 4494 
L 1172 3500 
L 2356 3500 
L 2356 3053 
L 1172 3053 
L 1172 1153 
Q 1172 725 1289 603 
Q 1406 481 1766 481 
L 2356 481 
L 2356 0 
L 1766 0 
Q 1100 0 847 248 
Q 594 497 594 1153 
L 594 3053 
L 172 3053 
L 172 3500 
L 594 3500 
L 594 4494 
L 1172 4494 
z
" transform="scale(0.015625)"/>
        <path id="DejaVuSans-47" d="M 3809 666 
L 3809 1919 
L 2778 1919 
L 2778 2438 
L 4434 2438 
L 4434 434 
Q 4069 175 3628 42 
Q 3188 -91 2688 -91 
Q 1594 -91 976 548 
Q 359 1188 359 2328 
Q 359 3472 976 4111 
Q 1594 4750 2688 4750 
Q 3144 4750 3555 4637 
Q 3966 4525 4313 4306 
L 4313 3634 
Q 3963 3931 3569 4081 
Q 3175 4231 2741 4231 
Q 1884 4231 1454 3753 
Q 1025 3275 1025 2328 
Q 1025 1384 1454 906 
Q 1884 428 2741 428 
Q 3075 428 3337 486 
Q 3600 544 3809 666 
z
" transform="scale(0.015625)"/>
        <path id="DejaVuSans-41" d="M 2188 4044 
L 1331 1722 
L 3047 1722 
L 2188 4044 
z
M 1831 4666 
L 2547 4666 
L 4325 0 
L 3669 0 
L 3244 1197 
L 1141 1197 
L 716 0 
L 50 0 
L 1831 4666 
z
" transform="scale(0.015625)"/>
       </defs>
       <use xlink:href="#DejaVuSans-74"/>
       <use xlink:href="#DejaVuSans-47" transform="translate(39.208984 0)"/>
       <use xlink:href="#DejaVuSans-41" transform="translate(116.699219 0)"/>
      </g>
     </g>
    </g>
   </g>
   <g id="matplotlib.axis_2">
    <g id="ytick_1">
     <g id="line2d_32">
      <path d="M 50.092685 388.372804 
L 1429.2 388.372804 
" clip-path="url(#p912afac304)" style="fill: none; stroke: #b0b0b0; stroke-opacity: 0.4; stroke-width: 0.8; stroke-linecap: square"/>
     </g>
     <g id="line2d_33">
      <defs>
       <path id="m8c27735c19" d="M 0 0 
L -3.5 0 
" style="stroke: #000000; stroke-width: 0.8"/>
      </defs>
      <g>
       <use xlink:href="#m8c27735c19" x="50.092685" y="388.372804" style="stroke: #000000; stroke-width: 0.8"/>
      </g>
     </g>
     <g id="text_32">
      <!-- $\mathdefault{10^{0}}$ -->
      <g transform="translate(25.492685 392.172022) scale(0.1 -0.1)">
       <defs>
        <path id="DejaVuSans-31" d="M 794 531 
L 1825 531 
L 1825 4091 
L 703 3866 
L 703 4441 
L 1819 4666 
L 2450 4666 
L 2450 531 
L 3481 531 
L 3481 0 
L 794 0 
L 794 531 
z
" transform="scale(0.015625)"/>
        <path id="DejaVuSans-30" d="M 2034 4250 
Q 1547 4250 1301 3770 
Q 1056 3291 1056 2328 
Q 1056 1369 1301 889 
Q 1547 409 2034 409 
Q 2525 409 2770 889 
Q 3016 1369 3016 2328 
Q 3016 3291 2770 3770 
Q 2525 4250 2034 4250 
z
M 2034 4750 
Q 2819 4750 3233 4129 
Q 3647 3509 3647 2328 
Q 3647 1150 3233 529 
Q 2819 -91 2034 -91 
Q 1250 -91 836 529 
Q 422 1150 422 2328 
Q 422 3509 836 4129 
Q 1250 4750 2034 4750 
z
" transform="scale(0.015625)"/>
       </defs>
       <use xlink:href="#DejaVuSans-31" transform="translate(0 0.765625)"/>
       <use xlink:href="#DejaVuSans-30" transform="translate(63.623047 0.765625)"/>
       <use xlink:href="#DejaVuSans-30" transform="translate(128.203125 39.046875) scale(0.7)"/>
      </g>
     </g>
    </g>
    <g id="ytick_2">
     <g id="line2d_34">
      <path d="M 50.092685 242.647184 
L 1429.2 242.647184 
" clip-path="url(#p912afac304)" style="fill: none; stroke: #b0b0b0; stroke-opacity: 0.4; stroke-width: 0.8; stroke-linecap: square"/>
     </g>
     <g id="line2d_35">
      <g>
       <use xlink:href="#m8c27735c19" x="50.092685" y="242.647184" style="stroke: #000000; stroke-width: 0.8"/>
      </g>
     </g>
     <g id="text_33">
      <!-- $\mathdefault{10^{1}}$ -->
      <g transform="translate(25.492685 246.446403) scale(0.1 -0.1)">
       <use xlink:href="#DejaVuSans-31" transform="translate(0 0.684375)"/>
       <use xlink:href="#DejaVuSans-30" transform="translate(63.623047 0.684375)"/>
       <use xlink:href="#DejaVuSans-31" transform="translate(128.203125 38.965625) scale(0.7)"/>
      </g>
     </g>
    </g>
    <g id="ytick_3">
     <g id="line2d_36">
      <path d="M 50.092685 96.921565 
L 1429.2 96.921565 
" clip-path="url(#p912afac304)" style="fill: none; stroke: #b0b0b0; stroke-opacity: 0.4; stroke-width: 0.8; stroke-linecap: square"/>
     </g>
     <g id="line2d_37">
      <g>
       <use xlink:href="#m8c27735c19" x="50.092685" y="96.921565" style="stroke: #000000; stroke-width: 0.8"/>
      </g>
     </g>
     <g id="text_34">
      <!-- $\mathdefault{10^{2}}$ -->
      <g transform="translate(25.492685 100.720783) scale(0.1 -0.1)">
       <use xlink:href="#DejaVuSans-31" transform="translate(0 0.765625)"/>
       <use xlink:href="#DejaVuSans-30" transform="translate(63.623047 0.765625)"/>
       <use xlink:href="#DejaVuSans-32" transform="translate(128.203125 39.046875) scale(0.7)"/>
      </g>
     </g>
    </g>
    <g id="ytick_4">
     <g id="line2d_38">
      <defs>
       <path id="m8ac41a81fe" d="M 0 0 
L -2 0 
" style="stroke: #000000; stroke-width: 0.6"/>
      </defs>
      <g>
       <use xlink:href="#m8ac41a81fe" x="50.092685" y="490.23064" style="stroke: #000000; stroke-width: 0.6"/>
      </g>
     </g>
    </g>
    <g id="ytick_5">
     <g id="line2d_39">
      <g>
       <use xlink:href="#m8ac41a81fe" x="50.092685" y="464.569633" style="stroke: #000000; stroke-width: 0.6"/>
      </g>
     </g>
    </g>
    <g id="ytick_6">
     <g id="line2d_40">
      <g>
       <use xlink:href="#m8ac41a81fe" x="50.092685" y="446.362858" style="stroke: #000000; stroke-width: 0.6"/>
      </g>
     </g>
    </g>
    <g id="ytick_7">
     <g id="line2d_41">
      <g>
       <use xlink:href="#m8ac41a81fe" x="50.092685" y="432.240586" style="stroke: #000000; stroke-width: 0.6"/>
      </g>
     </g>
    </g>
    <g id="ytick_8">
     <g id="line2d_42">
      <g>
       <use xlink:href="#m8ac41a81fe" x="50.092685" y="420.70185" style="stroke: #000000; stroke-width: 0.6"/>
      </g>
     </g>
    </g>
    <g id="ytick_9">
     <g id="line2d_43">
      <g>
       <use xlink:href="#m8ac41a81fe" x="50.092685" y="410.945988" style="stroke: #000000; stroke-width: 0.6"/>
      </g>
     </g>
    </g>
    <g id="ytick_10">
     <g id="line2d_44">
      <g>
       <use xlink:href="#m8ac41a81fe" x="50.092685" y="402.495075" style="stroke: #000000; stroke-width: 0.6"/>
      </g>
     </g>
    </g>
    <g id="ytick_11">
     <g id="line2d_45">
      <g>
       <use xlink:href="#m8ac41a81fe" x="50.092685" y="395.040842" style="stroke: #000000; stroke-width: 0.6"/>
      </g>
     </g>
    </g>
    <g id="ytick_12">
     <g id="line2d_46">
      <g>
       <use xlink:href="#m8ac41a81fe" x="50.092685" y="344.505021" style="stroke: #000000; stroke-width: 0.6"/>
      </g>
     </g>
    </g>
    <g id="ytick_13">
     <g id="line2d_47">
      <g>
       <use xlink:href="#m8ac41a81fe" x="50.092685" y="318.844013" style="stroke: #000000; stroke-width: 0.6"/>
      </g>
     </g>
    </g>
    <g id="ytick_14">
     <g id="line2d_48">
      <g>
       <use xlink:href="#m8ac41a81fe" x="50.092685" y="300.637238" style="stroke: #000000; stroke-width: 0.6"/>
      </g>
     </g>
    </g>
    <g id="ytick_15">
     <g id="line2d_49">
      <g>
       <use xlink:href="#m8ac41a81fe" x="50.092685" y="286.514967" style="stroke: #000000; stroke-width: 0.6"/>
      </g>
     </g>
    </g>
    <g id="ytick_16">
     <g id="line2d_50">
      <g>
       <use xlink:href="#m8ac41a81fe" x="50.092685" y="274.976231" style="stroke: #000000; stroke-width: 0.6"/>
      </g>
     </g>
    </g>
    <g id="ytick_17">
     <g id="line2d_51">
      <g>
       <use xlink:href="#m8ac41a81fe" x="50.092685" y="265.220368" style="stroke: #000000; stroke-width: 0.6"/>
      </g>
     </g>
    </g>
    <g id="ytick_18">
     <g id="line2d_52">
      <g>
       <use xlink:href="#m8ac41a81fe" x="50.092685" y="256.769456" style="stroke: #000000; stroke-width: 0.6"/>
      </g>
     </g>
    </g>
    <g id="ytick_19">
     <g id="line2d_53">
      <g>
       <use xlink:href="#m8ac41a81fe" x="50.092685" y="249.315223" style="stroke: #000000; stroke-width: 0.6"/>
      </g>
     </g>
    </g>
    <g id="ytick_20">
     <g id="line2d_54">
      <g>
       <use xlink:href="#m8ac41a81fe" x="50.092685" y="198.779401" style="stroke: #000000; stroke-width: 0.6"/>
      </g>
     </g>
    </g>
    <g id="ytick_21">
     <g id="line2d_55">
      <g>
       <use xlink:href="#m8ac41a81fe" x="50.092685" y="173.118394" style="stroke: #000000; stroke-width: 0.6"/>
      </g>
     </g>
    </g>
    <g id="ytick_22">
     <g id="line2d_56">
      <g>
       <use xlink:href="#m8ac41a81fe" x="50.092685" y="154.911619" style="stroke: #000000; stroke-width: 0.6"/>
      </g>
     </g>
    </g>
    <g id="ytick_23">
     <g id="line2d_57">
      <g>
       <use xlink:href="#m8ac41a81fe" x="50.092685" y="140.789347" style="stroke: #000000; stroke-width: 0.6"/>
      </g>
     </g>
    </g>
    <g id="ytick_24">
     <g id="line2d_58">
      <g>
       <use xlink:href="#m8ac41a81fe" x="50.092685" y="129.250611" style="stroke: #000000; stroke-width: 0.6"/>
      </g>
     </g>
    </g>
    <g id="ytick_25">
     <g id="line2d_59">
      <g>
       <use xlink:href="#m8ac41a81fe" x="50.092685" y="119.494749" style="stroke: #000000; stroke-width: 0.6"/>
      </g>
     </g>
    </g>
    <g id="ytick_26">
     <g id="line2d_60">
      <g>
       <use xlink:href="#m8ac41a81fe" x="50.092685" y="111.043836" style="stroke: #000000; stroke-width: 0.6"/>
      </g>
     </g>
    </g>
    <g id="ytick_27">
     <g id="line2d_61">
      <g>
       <use xlink:href="#m8ac41a81fe" x="50.092685" y="103.589603" style="stroke: #000000; stroke-width: 0.6"/>
      </g>
     </g>
    </g>
    <g id="ytick_28">
     <g id="line2d_62">
      <g>
       <use xlink:href="#m8ac41a81fe" x="50.092685" y="53.053782" style="stroke: #000000; stroke-width: 0.6"/>
      </g>
     </g>
    </g>
    <g id="ytick_29">
     <g id="line2d_63">
      <g>
       <use xlink:href="#m8ac41a81fe" x="50.092685" y="27.392774" style="stroke: #000000; stroke-width: 0.6"/>
      </g>
     </g>
    </g>
    <g id="text_35">
     <!-- Calibration Error (%) -->
     <g transform="translate(19.412997 330.706237) rotate(-90) scale(0.1 -0.1)">
      <defs>
       <path id="DejaVuSans-43" d="M 4122 4306 
L 4122 3641 
Q 3803 3938 3442 4084 
Q 3081 4231 2675 4231 
Q 1875 4231 1450 3742 
Q 1025 3253 1025 2328 
Q 1025 1406 1450 917 
Q 1875 428 2675 428 
Q 3081 428 3442 575 
Q 3803 722 4122 1019 
L 4122 359 
Q 3791 134 3420 21 
Q 3050 -91 2638 -91 
Q 1578 -91 968 557 
Q 359 1206 359 2328 
Q 359 3453 968 4101 
Q 1578 4750 2638 4750 
Q 3056 4750 3426 4639 
Q 3797 4528 4122 4306 
z
" transform="scale(0.015625)"/>
       <path id="DejaVuSans-6c" d="M 603 4863 
L 1178 4863 
L 1178 0 
L 603 0 
L 603 4863 
z
" transform="scale(0.015625)"/>
       <path id="DejaVuSans-69" d="M 603 3500 
L 1178 3500 
L 1178 0 
L 603 0 
L 603 3500 
z
M 603 4863 
L 1178 4863 
L 1178 4134 
L 603 4134 
L 603 4863 
z
" transform="scale(0.015625)"/>
       <path id="DejaVuSans-6f" d="M 1959 3097 
Q 1497 3097 1228 2736 
Q 959 2375 959 1747 
Q 959 1119 1226 758 
Q 1494 397 1959 397 
Q 2419 397 2687 759 
Q 2956 1122 2956 1747 
Q 2956 2369 2687 2733 
Q 2419 3097 1959 3097 
z
M 1959 3584 
Q 2709 3584 3137 3096 
Q 3566 2609 3566 1747 
Q 3566 888 3137 398 
Q 2709 -91 1959 -91 
Q 1206 -91 779 398 
Q 353 888 353 1747 
Q 353 2609 779 3096 
Q 1206 3584 1959 3584 
z
" transform="scale(0.015625)"/>
       <path id="DejaVuSans-6e" d="M 3513 2113 
L 3513 0 
L 2938 0 
L 2938 2094 
Q 2938 2591 2744 2837 
Q 2550 3084 2163 3084 
Q 1697 3084 1428 2787 
Q 1159 2491 1159 1978 
L 1159 0 
L 581 0 
L 581 3500 
L 1159 3500 
L 1159 2956 
Q 1366 3272 1645 3428 
Q 1925 3584 2291 3584 
Q 2894 3584 3203 3211 
Q 3513 2838 3513 2113 
z
" transform="scale(0.015625)"/>
       <path id="DejaVuSans-20" transform="scale(0.015625)"/>
       <path id="DejaVuSans-45" d="M 628 4666 
L 3578 4666 
L 3578 4134 
L 1259 4134 
L 1259 2753 
L 3481 2753 
L 3481 2222 
L 1259 2222 
L 1259 531 
L 3634 531 
L 3634 0 
L 628 0 
L 628 4666 
z
" transform="scale(0.015625)"/>
       <path id="DejaVuSans-28" d="M 1984 4856 
Q 1566 4138 1362 3434 
Q 1159 2731 1159 2009 
Q 1159 1288 1364 580 
Q 1569 -128 1984 -844 
L 1484 -844 
Q 1016 -109 783 600 
Q 550 1309 550 2009 
Q 550 2706 781 3412 
Q 1013 4119 1484 4856 
L 1984 4856 
z
" transform="scale(0.015625)"/>
       <path id="DejaVuSans-25" d="M 4653 2053 
Q 4381 2053 4226 1822 
Q 4072 1591 4072 1178 
Q 4072 772 4226 539 
Q 4381 306 4653 306 
Q 4919 306 5073 539 
Q 5228 772 5228 1178 
Q 5228 1588 5073 1820 
Q 4919 2053 4653 2053 
z
M 4653 2450 
Q 5147 2450 5437 2106 
Q 5728 1763 5728 1178 
Q 5728 594 5436 251 
Q 5144 -91 4653 -91 
Q 4153 -91 3862 251 
Q 3572 594 3572 1178 
Q 3572 1766 3864 2108 
Q 4156 2450 4653 2450 
z
M 1428 4353 
Q 1159 4353 1004 4120 
Q 850 3888 850 3481 
Q 850 3069 1003 2837 
Q 1156 2606 1428 2606 
Q 1700 2606 1854 2837 
Q 2009 3069 2009 3481 
Q 2009 3884 1853 4118 
Q 1697 4353 1428 4353 
z
M 4250 4750 
L 4750 4750 
L 1831 -91 
L 1331 -91 
L 4250 4750 
z
M 1428 4750 
Q 1922 4750 2215 4408 
Q 2509 4066 2509 3481 
Q 2509 2891 2217 2550 
Q 1925 2209 1428 2209 
Q 931 2209 642 2551 
Q 353 2894 353 3481 
Q 353 4063 643 4406 
Q 934 4750 1428 4750 
z
" transform="scale(0.015625)"/>
       <path id="DejaVuSans-29" d="M 513 4856 
L 1013 4856 
Q 1481 4119 1714 3412 
Q 1947 2706 1947 2009 
Q 1947 1309 1714 600 
Q 1481 -109 1013 -844 
L 513 -844 
Q 928 -128 1133 580 
Q 1338 1288 1338 2009 
Q 1338 2731 1133 3434 
Q 928 4138 513 4856 
z
" transform="scale(0.015625)"/>
      </defs>
      <use xlink:href="#DejaVuSans-43"/>
      <use xlink:href="#DejaVuSans-61" transform="translate(69.824219 0)"/>
      <use xlink:href="#DejaVuSans-6c" transform="translate(131.103516 0)"/>
      <use xlink:href="#DejaVuSans-69" transform="translate(158.886719 0)"/>
      <use xlink:href="#DejaVuSans-62" transform="translate(186.669922 0)"/>
      <use xlink:href="#DejaVuSans-72" transform="translate(250.146484 0)"/>
      <use xlink:href="#DejaVuSans-61" transform="translate(291.259766 0)"/>
      <use xlink:href="#DejaVuSans-74" transform="translate(352.539062 0)"/>
      <use xlink:href="#DejaVuSans-69" transform="translate(391.748047 0)"/>
      <use xlink:href="#DejaVuSans-6f" transform="translate(419.53125 0)"/>
      <use xlink:href="#DejaVuSans-6e" transform="translate(480.712891 0)"/>
      <use xlink:href="#DejaVuSans-20" transform="translate(544.091797 0)"/>
      <use xlink:href="#DejaVuSans-45" transform="translate(575.878906 0)"/>
      <use xlink:href="#DejaVuSans-72" transform="translate(639.0625 0)"/>
      <use xlink:href="#DejaVuSans-72" transform="translate(678.425781 0)"/>
      <use xlink:href="#DejaVuSans-6f" transform="translate(717.289062 0)"/>
      <use xlink:href="#DejaVuSans-72" transform="translate(778.470703 0)"/>
      <use xlink:href="#DejaVuSans-20" transform="translate(819.583984 0)"/>
      <use xlink:href="#DejaVuSans-28" transform="translate(851.371094 0)"/>
      <use xlink:href="#DejaVuSans-25" transform="translate(890.384766 0)"/>
      <use xlink:href="#DejaVuSans-29" transform="translate(985.404297 0)"/>
     </g>
    </g>
   </g>
   <g id="patch_96">
    <path d="M 50.092685 532.09185 
L 50.092685 26.88 
" style="fill: none; stroke: #000000; stroke-width: 0.8; stroke-linejoin: miter; stroke-linecap: square"/>
   </g>
   <g id="patch_97">
    <path d="M 1429.2 532.09185 
L 1429.2 26.88 
" style="fill: none; stroke: #000000; stroke-width: 0.8; stroke-linejoin: miter; stroke-linecap: square"/>
   </g>
   <g id="patch_98">
    <path d="M 50.092685 532.09185 
L 1429.2 532.09185 
" style="fill: none; stroke: #000000; stroke-width: 0.8; stroke-linejoin: miter; stroke-linecap: square"/>
   </g>
   <g id="patch_99">
    <path d="M 50.092685 26.88 
L 1429.2 26.88 
" style="fill: none; stroke: #000000; stroke-width: 0.8; stroke-linejoin: miter; stroke-linecap: square"/>
   </g>
   <g id="text_36">
    <!-- Calibration Accuracy Comparison (All Parameters) -->
    <g transform="translate(589.59478 20.88) scale(0.12 -0.12)">
     <defs>
      <path id="DejaVuSans-63" d="M 3122 3366 
L 3122 2828 
Q 2878 2963 2633 3030 
Q 2388 3097 2138 3097 
Q 1578 3097 1268 2742 
Q 959 2388 959 1747 
Q 959 1106 1268 751 
Q 1578 397 2138 397 
Q 2388 397 2633 464 
Q 2878 531 3122 666 
L 3122 134 
Q 2881 22 2623 -34 
Q 2366 -91 2075 -91 
Q 1284 -91 818 406 
Q 353 903 353 1747 
Q 353 2603 823 3093 
Q 1294 3584 2113 3584 
Q 2378 3584 2631 3529 
Q 2884 3475 3122 3366 
z
" transform="scale(0.015625)"/>
      <path id="DejaVuSans-75" d="M 544 1381 
L 544 3500 
L 1119 3500 
L 1119 1403 
Q 1119 906 1312 657 
Q 1506 409 1894 409 
Q 2359 409 2629 706 
Q 2900 1003 2900 1516 
L 2900 3500 
L 3475 3500 
L 3475 0 
L 2900 0 
L 2900 538 
Q 2691 219 2414 64 
Q 2138 -91 1772 -91 
Q 1169 -91 856 284 
Q 544 659 544 1381 
z
M 1991 3584 
L 1991 3584 
z
" transform="scale(0.015625)"/>
      <path id="DejaVuSans-6d" d="M 3328 2828 
Q 3544 3216 3844 3400 
Q 4144 3584 4550 3584 
Q 5097 3584 5394 3201 
Q 5691 2819 5691 2113 
L 5691 0 
L 5113 0 
L 5113 2094 
Q 5113 2597 4934 2840 
Q 4756 3084 4391 3084 
Q 3944 3084 3684 2787 
Q 3425 2491 3425 1978 
L 3425 0 
L 2847 0 
L 2847 2094 
Q 2847 2600 2669 2842 
Q 2491 3084 2119 3084 
Q 1678 3084 1418 2786 
Q 1159 2488 1159 1978 
L 1159 0 
L 581 0 
L 581 3500 
L 1159 3500 
L 1159 2956 
Q 1356 3278 1631 3431 
Q 1906 3584 2284 3584 
Q 2666 3584 2933 3390 
Q 3200 3197 3328 2828 
z
" transform="scale(0.015625)"/>
      <path id="DejaVuSans-70" d="M 1159 525 
L 1159 -1331 
L 581 -1331 
L 581 3500 
L 1159 3500 
L 1159 2969 
Q 1341 3281 1617 3432 
Q 1894 3584 2278 3584 
Q 2916 3584 3314 3078 
Q 3713 2572 3713 1747 
Q 3713 922 3314 415 
Q 2916 -91 2278 -91 
Q 1894 -91 1617 61 
Q 1341 213 1159 525 
z
M 3116 1747 
Q 3116 2381 2855 2742 
Q 2594 3103 2138 3103 
Q 1681 3103 1420 2742 
Q 1159 2381 1159 1747 
Q 1159 1113 1420 752 
Q 1681 391 2138 391 
Q 2594 391 2855 752 
Q 3116 1113 3116 1747 
z
" transform="scale(0.015625)"/>
      <path id="DejaVuSans-73" d="M 2834 3397 
L 2834 2853 
Q 2591 2978 2328 3040 
Q 2066 3103 1784 3103 
Q 1356 3103 1142 2972 
Q 928 2841 928 2578 
Q 928 2378 1081 2264 
Q 1234 2150 1697 2047 
L 1894 2003 
Q 2506 1872 2764 1633 
Q 3022 1394 3022 966 
Q 3022 478 2636 193 
Q 2250 -91 1575 -91 
Q 1294 -91 989 -36 
Q 684 19 347 128 
L 347 722 
Q 666 556 975 473 
Q 1284 391 1588 391 
Q 1994 391 2212 530 
Q 2431 669 2431 922 
Q 2431 1156 2273 1281 
Q 2116 1406 1581 1522 
L 1381 1569 
Q 847 1681 609 1914 
Q 372 2147 372 2553 
Q 372 3047 722 3315 
Q 1072 3584 1716 3584 
Q 2034 3584 2315 3537 
Q 2597 3491 2834 3397 
z
" transform="scale(0.015625)"/>
      <path id="DejaVuSans-50" d="M 1259 4147 
L 1259 2394 
L 2053 2394 
Q 2494 2394 2734 2622 
Q 2975 2850 2975 3272 
Q 2975 3691 2734 3919 
Q 2494 4147 2053 4147 
L 1259 4147 
z
M 628 4666 
L 2053 4666 
Q 2838 4666 3239 4311 
Q 3641 3956 3641 3272 
Q 3641 2581 3239 2228 
Q 2838 1875 2053 1875 
L 1259 1875 
L 1259 0 
L 628 0 
L 628 4666 
z
" transform="scale(0.015625)"/>
     </defs>
     <use xlink:href="#DejaVuSans-43"/>
     <use xlink:href="#DejaVuSans-61" transform="translate(69.824219 0)"/>
     <use xlink:href="#DejaVuSans-6c" transform="translate(131.103516 0)"/>
     <use xlink:href="#DejaVuSans-69" transform="translate(158.886719 0)"/>
     <use xlink:href="#DejaVuSans-62" transform="translate(186.669922 0)"/>
     <use xlink:href="#DejaVuSans-72" transform="translate(250.146484 0)"/>
     <use xlink:href="#DejaVuSans-61" transform="translate(291.259766 0)"/>
     <use xlink:href="#DejaVuSans-74" transform="translate(352.539062 0)"/>
     <use xlink:href="#DejaVuSans-69" transform="translate(391.748047 0)"/>
     <use xlink:href="#DejaVuSans-6f" transform="translate(419.53125 0)"/>
     <use xlink:href="#DejaVuSans-6e" transform="translate(480.712891 0)"/>
     <use xlink:href="#DejaVuSans-20" transform="translate(544.091797 0)"/>
     <use xlink:href="#DejaVuSans-41" transform="translate(575.878906 0)"/>
     <use xlink:href="#DejaVuSans-63" transform="translate(642.537109 0)"/>
     <use xlink:href="#DejaVuSans-63" transform="translate(697.517578 0)"/>
     <use xlink:href="#DejaVuSans-75" transform="translate(752.498047 0)"/>
     <use xlink:href="#DejaVuSans-72" transform="translate(815.876953 0)"/>
     <use xlink:href="#DejaVuSans-61" transform="translate(856.990234 0)"/>
     <use xlink:href="#DejaVuSans-63" transform="translate(918.269531 0)"/>
     <use xlink:href="#DejaVuSans-79" transform="translate(973.25 0)"/>
     <use xlink:href="#DejaVuSans-20" transform="translate(1032.429688 0)"/>
     <use xlink:href="#DejaVuSans-43" transform="translate(1064.216797 0)"/>
     <use xlink:href="#DejaVuSans-6f" transform="translate(1134.041016 0)"/>
     <use xlink:href="#DejaVuSans-6d" transform="translate(1195.222656 0)"/>
     <use xlink:href="#DejaVuSans-70" transform="translate(1292.634766 0)"/>
     <use xlink:href="#DejaVuSans-61" transform="translate(1356.111328 0)"/>
     <use xlink:href="#DejaVuSans-72" transform="translate(1417.390625 0)"/>
     <use xlink:href="#DejaVuSans-69" transform="translate(1458.503906 0)"/>
     <use xlink:href="#DejaVuSans-73" transform="translate(1486.287109 0)"/>
     <use xlink:href="#DejaVuSans-6f" transform="translate(1538.386719 0)"/>
     <use xlink:href="#DejaVuSans-6e" transform="translate(1599.568359 0)"/>
     <use xlink:href="#DejaVuSans-20" transform="translate(1662.947266 0)"/>
     <use xlink:href="#DejaVuSans-28" transform="translate(1694.734375 0)"/>
     <use xlink:href="#DejaVuSans-41" transform="translate(1733.748047 0)"/>
     <use xlink:href="#DejaVuSans-6c" transform="translate(1802.15625 0)"/>
     <use xlink:href="#DejaVuSans-6c" transform="translate(1829.939453 0)"/>
     <use xlink:href="#DejaVuSans-20" transform="translate(1857.722656 0)"/>
     <use xlink:href="#DejaVuSans-50" transform="translate(1889.509766 0)"/>
     <use xlink:href="#DejaVuSans-61" transform="translate(1945.3125 0)"/>
     <use xlink:href="#DejaVuSans-72" transform="translate(2006.591797 0)"/>
     <use xlink:href="#DejaVuSans-61" transform="translate(2047.705078 0)"/>
     <use xlink:href="#DejaVuSans-6d" transform="translate(2108.984375 0)"/>
     <use xlink:href="#DejaVuSans-65" transform="translate(2206.396484 0)"/>
     <use xlink:href="#DejaVuSans-74" transform="translate(2267.919922 0)"/>
     <use xlink:href="#DejaVuSans-65" transform="translate(2307.128906 0)"/>
     <use xlink:href="#DejaVuSans-72" transform="translate(2368.652344 0)"/>
     <use xlink:href="#DejaVuSans-73" transform="translate(2409.765625 0)"/>
     <use xlink:href="#DejaVuSans-29" transform="translate(2461.865234 0)"/>
    </g>
   </g>
   <g id="legend_1">
    <g id="patch_100">
     <path d="M 1320.802031 73.710938 
L 1422.9 73.710938 
Q 1424.7 73.710938 1424.7 71.910937 
L 1424.7 33.18 
Q 1424.7 31.38 1422.9 31.38 
L 1320.802031 31.38 
Q 1319.002031 31.38 1319.002031 33.18 
L 1319.002031 71.910937 
Q 1319.002031 73.710938 1320.802031 73.710938 
z
" style="fill: #ffffff; opacity: 0.8; stroke: #cccccc; stroke-linejoin: miter"/>
    </g>
    <g id="patch_101">
     <path d="M 1322.602031 41.818594 
L 1340.602031 41.818594 
L 1340.602031 35.518594 
L 1322.602031 35.518594 
z
" style="fill: #4682b4; opacity: 0.85"/>
    </g>
    <g id="text_37">
     <!-- C: 49-correct -->
     <g transform="translate(1347.802031 41.818594) scale(0.09 -0.09)">
      <defs>
       <path id="DejaVuSans-3a" d="M 750 794 
L 1409 794 
L 1409 0 
L 750 0 
L 750 794 
z
M 750 3309 
L 1409 3309 
L 1409 2516 
L 750 2516 
L 750 3309 
z
" transform="scale(0.015625)"/>
       <path id="DejaVuSans-34" d="M 2419 4116 
L 825 1625 
L 2419 1625 
L 2419 4116 
z
M 2253 4666 
L 3047 4666 
L 3047 1625 
L 3713 1625 
L 3713 1100 
L 3047 1100 
L 3047 0 
L 2419 0 
L 2419 1100 
L 313 1100 
L 313 1709 
L 2253 4666 
z
" transform="scale(0.015625)"/>
       <path id="DejaVuSans-39" d="M 703 97 
L 703 672 
Q 941 559 1184 500 
Q 1428 441 1663 441 
Q 2288 441 2617 861 
Q 2947 1281 2994 2138 
Q 2813 1869 2534 1725 
Q 2256 1581 1919 1581 
Q 1219 1581 811 2004 
Q 403 2428 403 3163 
Q 403 3881 828 4315 
Q 1253 4750 1959 4750 
Q 2769 4750 3195 4129 
Q 3622 3509 3622 2328 
Q 3622 1225 3098 567 
Q 2575 -91 1691 -91 
Q 1453 -91 1209 -44 
Q 966 3 703 97 
z
M 1959 2075 
Q 2384 2075 2632 2365 
Q 2881 2656 2881 3163 
Q 2881 3666 2632 3958 
Q 2384 4250 1959 4250 
Q 1534 4250 1286 3958 
Q 1038 3666 1038 3163 
Q 1038 2656 1286 2365 
Q 1534 2075 1959 2075 
z
" transform="scale(0.015625)"/>
       <path id="DejaVuSans-2d" d="M 313 2009 
L 1997 2009 
L 1997 1497 
L 313 1497 
L 313 2009 
z
" transform="scale(0.015625)"/>
      </defs>
      <use xlink:href="#DejaVuSans-43"/>
      <use xlink:href="#DejaVuSans-3a" transform="translate(69.824219 0)"/>
      <use xlink:href="#DejaVuSans-20" transform="translate(103.515625 0)"/>
      <use xlink:href="#DejaVuSans-34" transform="translate(135.302734 0)"/>
      <use xlink:href="#DejaVuSans-39" transform="translate(198.925781 0)"/>
      <use xlink:href="#DejaVuSans-2d" transform="translate(262.548828 0)"/>
      <use xlink:href="#DejaVuSans-63" transform="translate(298.632812 0)"/>
      <use xlink:href="#DejaVuSans-6f" transform="translate(353.613281 0)"/>
      <use xlink:href="#DejaVuSans-72" transform="translate(414.794922 0)"/>
      <use xlink:href="#DejaVuSans-72" transform="translate(454.158203 0)"/>
      <use xlink:href="#DejaVuSans-65" transform="translate(493.021484 0)"/>
      <use xlink:href="#DejaVuSans-63" transform="translate(554.544922 0)"/>
      <use xlink:href="#DejaVuSans-74" transform="translate(609.525391 0)"/>
     </g>
    </g>
    <g id="patch_102">
     <path d="M 1322.602031 55.028906 
L 1340.602031 55.028906 
L 1340.602031 48.728906 
L 1322.602031 48.728906 
z
" style="fill: #ff6347; opacity: 0.85"/>
    </g>
    <g id="text_38">
     <!-- D: 49-wrong-tau -->
     <g transform="translate(1347.802031 55.028906) scale(0.09 -0.09)">
      <defs>
       <path id="DejaVuSans-44" d="M 1259 4147 
L 1259 519 
L 2022 519 
Q 2988 519 3436 956 
Q 3884 1394 3884 2338 
Q 3884 3275 3436 3711 
Q 2988 4147 2022 4147 
L 1259 4147 
z
M 628 4666 
L 1925 4666 
Q 3281 4666 3915 4102 
Q 4550 3538 4550 2338 
Q 4550 1131 3912 565 
Q 3275 0 1925 0 
L 628 0 
L 628 4666 
z
" transform="scale(0.015625)"/>
       <path id="DejaVuSans-77" d="M 269 3500 
L 844 3500 
L 1563 769 
L 2278 3500 
L 2956 3500 
L 3675 769 
L 4391 3500 
L 4966 3500 
L 4050 0 
L 3372 0 
L 2619 2869 
L 1863 0 
L 1184 0 
L 269 3500 
z
" transform="scale(0.015625)"/>
      </defs>
      <use xlink:href="#DejaVuSans-44"/>
      <use xlink:href="#DejaVuSans-3a" transform="translate(77.001953 0)"/>
      <use xlink:href="#DejaVuSans-20" transform="translate(110.693359 0)"/>
      <use xlink:href="#DejaVuSans-34" transform="translate(142.480469 0)"/>
      <use xlink:href="#DejaVuSans-39" transform="translate(206.103516 0)"/>
      <use xlink:href="#DejaVuSans-2d" transform="translate(269.726562 0)"/>
      <use xlink:href="#DejaVuSans-77" transform="translate(305.810547 0)"/>
      <use xlink:href="#DejaVuSans-72" transform="translate(387.597656 0)"/>
      <use xlink:href="#DejaVuSans-6f" transform="translate(426.460938 0)"/>
      <use xlink:href="#DejaVuSans-6e" transform="translate(487.642578 0)"/>
      <use xlink:href="#DejaVuSans-67" transform="translate(551.021484 0)"/>
      <use xlink:href="#DejaVuSans-2d" transform="translate(614.498047 0)"/>
      <use xlink:href="#DejaVuSans-74" transform="translate(650.582031 0)"/>
      <use xlink:href="#DejaVuSans-61" transform="translate(689.791016 0)"/>
      <use xlink:href="#DejaVuSans-75" transform="translate(751.070312 0)"/>
     </g>
    </g>
    <g id="patch_103">
     <path d="M 1322.602031 68.239219 
L 1340.602031 68.239219 
L 1340.602031 61.939219 
L 1322.602031 61.939219 
z
" style="fill: #228b22; opacity: 0.85"/>
    </g>
    <g id="text_39">
     <!-- E: 49+LLM -->
     <g transform="translate(1347.802031 68.239219) scale(0.09 -0.09)">
      <defs>
       <path id="DejaVuSans-2b" d="M 2944 4013 
L 2944 2272 
L 4684 2272 
L 4684 1741 
L 2944 1741 
L 2944 0 
L 2419 0 
L 2419 1741 
L 678 1741 
L 678 2272 
L 2419 2272 
L 2419 4013 
L 2944 4013 
z
" transform="scale(0.015625)"/>
       <path id="DejaVuSans-4c" d="M 628 4666 
L 1259 4666 
L 1259 531 
L 3531 531 
L 3531 0 
L 628 0 
L 628 4666 
z
" transform="scale(0.015625)"/>
       <path id="DejaVuSans-4d" d="M 628 4666 
L 1569 4666 
L 2759 1491 
L 3956 4666 
L 4897 4666 
L 4897 0 
L 4281 0 
L 4281 4097 
L 3078 897 
L 2444 897 
L 1241 4097 
L 1241 0 
L 628 0 
L 628 4666 
z
" transform="scale(0.015625)"/>
      </defs>
      <use xlink:href="#DejaVuSans-45"/>
      <use xlink:href="#DejaVuSans-3a" transform="translate(63.183594 0)"/>
      <use xlink:href="#DejaVuSans-20" transform="translate(96.875 0)"/>
      <use xlink:href="#DejaVuSans-34" transform="translate(128.662109 0)"/>
      <use xlink:href="#DejaVuSans-39" transform="translate(192.285156 0)"/>
      <use xlink:href="#DejaVuSans-2b" transform="translate(255.908203 0)"/>
      <use xlink:href="#DejaVuSans-4c" transform="translate(339.697266 0)"/>
      <use xlink:href="#DejaVuSans-4c" transform="translate(395.410156 0)"/>
      <use xlink:href="#DejaVuSans-4d" transform="translate(451.123047 0)"/>
     </g>
    </g>
   </g>
  </g>
 </g>
 <defs>
  <clipPath id="p912afac304">
   <rect x="50.092685" y="26.88" width="1379.107315" height="505.21185"/>
  </clipPath>
 </defs>
</svg>
