<?xml version="1.0" encoding="utf-8" standalone="no"?>
<!DOCTYPE svg PUBLIC "-//W3C//DTD SVG 1.1//EN"
  "http://www.w3.org/Graphics/SVG/1.1/DTD/svg11.dtd">
<svg xmlns:xlink="http://www.w3.org/1999/xlink" width="720pt" height="432pt" viewBox="0 0 720 432" xmlns="http://www.w3.org/2000/svg" version="1.1">
 <metadata>
  <rdf:RDF xmlns:dc="http://purl.org/dc/elements/1.1/" xmlns:cc="http://creativecommons.org/ns#" xmlns:rdf="http://www.w3.org/1999/02/22-rdf-syntax-ns#">
   <cc:Work>
    <dc:type rdf:resource="http://purl.org/dc/dcmitype/StillImage"/>
    <dc:date>2026-03-25T09:55:28.768161</dc:date>
    <dc:format>image/svg+xml</dc:format>
    <dc:creator>
     <cc:Agent>
      <dc:title>Matplotlib v3.10.8, https://matplotlib.org/</dc:title>
     </cc:Agent>
    </dc:creator>
   </cc:Work>
  </rdf:RDF>
 </metadata>
 <defs>
  <style type="text/css">*{stroke-linejoin: round; stroke-linecap: butt}</style>
 </defs>
 <g id="figure_1">
  <g id="patch_1">
   <path d="M 0 432 
L 720 432 
L 720 0 
L 0 0 
z
" style="fill: #ffffff"/>
  </g>
  <g id="axes_1">
   <g id="patch_2">
    <path d="M 90 384.48 
L 648 384.48 
L 648 51.84 
L 90 51.84 
z
" style="fill: #ffffff"/>
   </g>
   <g id="matplotlib.axis_1">
    <g id="xtick_1">
     <g id="line2d_1">
      <path d="M 115.363636 384.48 
L 115.363636 51.84 
" clip-path="url(#pcca75ee8c7)" style="fill: none; stroke: #b0b0b0; stroke-width: 0.8; stroke-linecap: square"/>
     </g>
     <g id="line2d_2">
      <defs>
       <path id="m9cbdca8064" d="M 0 0 
L 0 3.5 
" style="stroke: #000000; stroke-width: 0.8"/>
      </defs>
      <g>
       <use xlink:href="#m9cbdca8064" x="115.363636" y="384.48" style="stroke: #000000; stroke-width: 0.8"/>
      </g>
     </g>
     <g id="text_1">
      <!-- 0 -->
      <g transform="translate(112.182386 399.078438) scale(0.1 -0.1)">
       <defs>
        <path id="DejaVuSans-30" d="M 2034 4250 
Q 1547 4250 1301 3770 
Q 1056 3291 1056 2328 
Q 1056 1369 1301 889 
Q 1547 409 2034 409 
Q 2525 409 2770 889 
Q 3016 1369 3016 2328 
Q 3016 3291 2770 3770 
Q 2525 4250 2034 4250 
z
M 2034 4750 
Q 2819 4750 3233 4129 
Q 3647 3509 3647 2328 
Q 3647 1150 3233 529 
Q 2819 -91 2034 -91 
Q 1250 -91 836 529 
Q 422 1150 422 2328 
Q 422 3509 836 4129 
Q 1250 4750 2034 4750 
z
" transform="scale(0.015625)"/>
       </defs>
       <use xlink:href="#DejaVuSans-30"/>
      </g>
     </g>
    </g>
    <g id="xtick_2">
     <g id="line2d_3">
      <path d="M 201.605174 384.48 
L 201.605174 51.84 
" clip-path="url(#pcca75ee8c7)" style="fill: none; stroke: #b0b0b0; stroke-width: 0.8; stroke-linecap: square"/>
     </g>
     <g id="line2d_4">
      <g>
       <use xlink:href="#m9cbdca8064" x="201.605174" y="384.48" style="stroke: #000000; stroke-width: 0.8"/>
      </g>
     </g>
     <g id="text_2">
      <!-- 50 -->
      <g transform="translate(195.242674 399.078438) scale(0.1 -0.1)">
       <defs>
        <path id="DejaVuSans-35" d="M 691 4666 
L 3169 4666 
L 3169 4134 
L 1269 4134 
L 1269 2991 
Q 1406 3038 1543 3061 
Q 1681 3084 1819 3084 
Q 2600 3084 3056 2656 
Q 3513 2228 3513 1497 
Q 3513 744 3044 326 
Q 2575 -91 1722 -91 
Q 1428 -91 1123 -41 
Q 819 9 494 109 
L 494 744 
Q 775 591 1075 516 
Q 1375 441 1709 441 
Q 2250 441 2565 725 
Q 2881 1009 2881 1497 
Q 2881 1984 2565 2268 
Q 2250 2553 1709 2553 
Q 1456 2553 1204 2497 
Q 953 2441 691 2322 
L 691 4666 
z
" transform="scale(0.015625)"/>
       </defs>
       <use xlink:href="#DejaVuSans-35"/>
       <use xlink:href="#DejaVuSans-30" transform="translate(63.623047 0)"/>
      </g>
     </g>
    </g>
    <g id="xtick_3">
     <g id="line2d_5">
      <path d="M 287.846713 384.48 
L 287.846713 51.84 
" clip-path="url(#pcca75ee8c7)" style="fill: none; stroke: #b0b0b0; stroke-width: 0.8; stroke-linecap: square"/>
     </g>
     <g id="line2d_6">
      <g>
       <use xlink:href="#m9cbdca8064" x="287.846713" y="384.48" style="stroke: #000000; stroke-width: 0.8"/>
      </g>
     </g>
     <g id="text_3">
      <!-- 100 -->
      <g transform="translate(278.302963 399.078438) scale(0.1 -0.1)">
       <defs>
        <path id="DejaVuSans-31" d="M 794 531 
L 1825 531 
L 1825 4091 
L 703 3866 
L 703 4441 
L 1819 4666 
L 2450 4666 
L 2450 531 
L 3481 531 
L 3481 0 
L 794 0 
L 794 531 
z
" transform="scale(0.015625)"/>
       </defs>
       <use xlink:href="#DejaVuSans-31"/>
       <use xlink:href="#DejaVuSans-30" transform="translate(63.623047 0)"/>
       <use xlink:href="#DejaVuSans-30" transform="translate(127.246094 0)"/>
      </g>
     </g>
    </g>
    <g id="xtick_4">
     <g id="line2d_7">
      <path d="M 374.088251 384.48 
L 374.088251 51.84 
" clip-path="url(#pcca75ee8c7)" style="fill: none; stroke: #b0b0b0; stroke-width: 0.8; stroke-linecap: square"/>
     </g>
     <g id="line2d_8">
      <g>
       <use xlink:href="#m9cbdca8064" x="374.088251" y="384.48" style="stroke: #000000; stroke-width: 0.8"/>
      </g>
     </g>
     <g id="text_4">
      <!-- 150 -->
      <g transform="translate(364.544501 399.078438) scale(0.1 -0.1)">
       <use xlink:href="#DejaVuSans-31"/>
       <use xlink:href="#DejaVuSans-35" transform="translate(63.623047 0)"/>
       <use xlink:href="#DejaVuSans-30" transform="translate(127.246094 0)"/>
      </g>
     </g>
    </g>
    <g id="xtick_5">
     <g id="line2d_9">
      <path d="M 460.329789 384.48 
L 460.329789 51.84 
" clip-path="url(#pcca75ee8c7)" style="fill: none; stroke: #b0b0b0; stroke-width: 0.8; stroke-linecap: square"/>
     </g>
     <g id="line2d_10">
      <g>
       <use xlink:href="#m9cbdca8064" x="460.329789" y="384.48" style="stroke: #000000; stroke-width: 0.8"/>
      </g>
     </g>
     <g id="text_5">
      <!-- 200 -->
      <g transform="translate(450.786039 399.078438) scale(0.1 -0.1)">
       <defs>
        <path id="DejaVuSans-32" d="M 1228 531 
L 3431 531 
L 3431 0 
L 469 0 
L 469 531 
Q 828 903 1448 1529 
Q 2069 2156 2228 2338 
Q 2531 2678 2651 2914 
Q 2772 3150 2772 3378 
Q 2772 3750 2511 3984 
Q 2250 4219 1831 4219 
Q 1534 4219 1204 4116 
Q 875 4013 500 3803 
L 500 4441 
Q 881 4594 1212 4672 
Q 1544 4750 1819 4750 
Q 2544 4750 2975 4387 
Q 3406 4025 3406 3419 
Q 3406 3131 3298 2873 
Q 3191 2616 2906 2266 
Q 2828 2175 2409 1742 
Q 1991 1309 1228 531 
z
" transform="scale(0.015625)"/>
       </defs>
       <use xlink:href="#DejaVuSans-32"/>
       <use xlink:href="#DejaVuSans-30" transform="translate(63.623047 0)"/>
       <use xlink:href="#DejaVuSans-30" transform="translate(127.246094 0)"/>
      </g>
     </g>
    </g>
    <g id="xtick_6">
     <g id="line2d_11">
      <path d="M 546.571327 384.48 
L 546.571327 51.84 
" clip-path="url(#pcca75ee8c7)" style="fill: none; stroke: #b0b0b0; stroke-width: 0.8; stroke-linecap: square"/>
     </g>
     <g id="line2d_12">
      <g>
       <use xlink:href="#m9cbdca8064" x="546.571327" y="384.48" style="stroke: #000000; stroke-width: 0.8"/>
      </g>
     </g>
     <g id="text_6">
      <!-- 250 -->
      <g transform="translate(537.027577 399.078438) scale(0.1 -0.1)">
       <use xlink:href="#DejaVuSans-32"/>
       <use xlink:href="#DejaVuSans-35" transform="translate(63.623047 0)"/>
       <use xlink:href="#DejaVuSans-30" transform="translate(127.246094 0)"/>
      </g>
     </g>
    </g>
    <g id="xtick_7">
     <g id="line2d_13">
      <path d="M 632.812865 384.48 
L 632.812865 51.84 
" clip-path="url(#pcca75ee8c7)" style="fill: none; stroke: #b0b0b0; stroke-width: 0.8; stroke-linecap: square"/>
     </g>
     <g id="line2d_14">
      <g>
       <use xlink:href="#m9cbdca8064" x="632.812865" y="384.48" style="stroke: #000000; stroke-width: 0.8"/>
      </g>
     </g>
     <g id="text_7">
      <!-- 300 -->
      <g transform="translate(623.269115 399.078438) scale(0.1 -0.1)">
       <defs>
        <path id="DejaVuSans-33" d="M 2597 2516 
Q 3050 2419 3304 2112 
Q 3559 1806 3559 1356 
Q 3559 666 3084 287 
Q 2609 -91 1734 -91 
Q 1441 -91 1130 -33 
Q 819 25 488 141 
L 488 750 
Q 750 597 1062 519 
Q 1375 441 1716 441 
Q 2309 441 2620 675 
Q 2931 909 2931 1356 
Q 2931 1769 2642 2001 
Q 2353 2234 1838 2234 
L 1294 2234 
L 1294 2753 
L 1863 2753 
Q 2328 2753 2575 2939 
Q 2822 3125 2822 3475 
Q 2822 3834 2567 4026 
Q 2313 4219 1838 4219 
Q 1578 4219 1281 4162 
Q 984 4106 628 3988 
L 628 4550 
Q 988 4650 1302 4700 
Q 1616 4750 1894 4750 
Q 2613 4750 3031 4423 
Q 3450 4097 3450 3541 
Q 3450 3153 3228 2886 
Q 3006 2619 2597 2516 
z
" transform="scale(0.015625)"/>
       </defs>
       <use xlink:href="#DejaVuSans-33"/>
       <use xlink:href="#DejaVuSans-30" transform="translate(63.623047 0)"/>
       <use xlink:href="#DejaVuSans-30" transform="translate(127.246094 0)"/>
      </g>
     </g>
    </g>
    <g id="text_8">
     <!-- Maneuver Time (s) -->
     <g transform="translate(322.198438 412.756563) scale(0.1 -0.1)">
      <defs>
       <path id="DejaVuSans-4d" d="M 628 4666 
L 1569 4666 
L 2759 1491 
L 3956 4666 
L 4897 4666 
L 4897 0 
L 4281 0 
L 4281 4097 
L 3078 897 
L 2444 897 
L 1241 4097 
L 1241 0 
L 628 0 
L 628 4666 
z
" transform="scale(0.015625)"/>
       <path id="DejaVuSans-61" d="M 2194 1759 
Q 1497 1759 1228 1600 
Q 959 1441 959 1056 
Q 959 750 1161 570 
Q 1363 391 1709 391 
Q 2188 391 2477 730 
Q 2766 1069 2766 1631 
L 2766 1759 
L 2194 1759 
z
M 3341 1997 
L 3341 0 
L 2766 0 
L 2766 531 
Q 2569 213 2275 61 
Q 1981 -91 1556 -91 
Q 1019 -91 701 211 
Q 384 513 384 1019 
Q 384 1609 779 1909 
Q 1175 2209 1959 2209 
L 2766 2209 
L 2766 2266 
Q 2766 2663 2505 2880 
Q 2244 3097 1772 3097 
Q 1472 3097 1187 3025 
Q 903 2953 641 2809 
L 641 3341 
Q 956 3463 1253 3523 
Q 1550 3584 1831 3584 
Q 2591 3584 2966 3190 
Q 3341 2797 3341 1997 
z
" transform="scale(0.015625)"/>
       <path id="DejaVuSans-6e" d="M 3513 2113 
L 3513 0 
L 2938 0 
L 2938 2094 
Q 2938 2591 2744 2837 
Q 2550 3084 2163 3084 
Q 1697 3084 1428 2787 
Q 1159 2491 1159 1978 
L 1159 0 
L 581 0 
L 581 3500 
L 1159 3500 
L 1159 2956 
Q 1366 3272 1645 3428 
Q 1925 3584 2291 3584 
Q 2894 3584 3203 3211 
Q 3513 2838 3513 2113 
z
" transform="scale(0.015625)"/>
       <path id="DejaVuSans-65" d="M 3597 1894 
L 3597 1613 
L 953 1613 
Q 991 1019 1311 708 
Q 1631 397 2203 397 
Q 2534 397 2845 478 
Q 3156 559 3463 722 
L 3463 178 
Q 3153 47 2828 -22 
Q 2503 -91 2169 -91 
Q 1331 -91 842 396 
Q 353 884 353 1716 
Q 353 2575 817 3079 
Q 1281 3584 2069 3584 
Q 2775 3584 3186 3129 
Q 3597 2675 3597 1894 
z
M 3022 2063 
Q 3016 2534 2758 2815 
Q 2500 3097 2075 3097 
Q 1594 3097 1305 2825 
Q 1016 2553 972 2059 
L 3022 2063 
z
" transform="scale(0.015625)"/>
       <path id="DejaVuSans-75" d="M 544 1381 
L 544 3500 
L 1119 3500 
L 1119 1403 
Q 1119 906 1312 657 
Q 1506 409 1894 409 
Q 2359 409 2629 706 
Q 2900 1003 2900 1516 
L 2900 3500 
L 3475 3500 
L 3475 0 
L 2900 0 
L 2900 538 
Q 2691 219 2414 64 
Q 2138 -91 1772 -91 
Q 1169 -91 856 284 
Q 544 659 544 1381 
z
M 1991 3584 
L 1991 3584 
z
" transform="scale(0.015625)"/>
       <path id="DejaVuSans-76" d="M 191 3500 
L 800 3500 
L 1894 563 
L 2988 3500 
L 3597 3500 
L 2284 0 
L 1503 0 
L 191 3500 
z
" transform="scale(0.015625)"/>
       <path id="DejaVuSans-72" d="M 2631 2963 
Q 2534 3019 2420 3045 
Q 2306 3072 2169 3072 
Q 1681 3072 1420 2755 
Q 1159 2438 1159 1844 
L 1159 0 
L 581 0 
L 581 3500 
L 1159 3500 
L 1159 2956 
Q 1341 3275 1631 3429 
Q 1922 3584 2338 3584 
Q 2397 3584 2469 3576 
Q 2541 3569 2628 3553 
L 2631 2963 
z
" transform="scale(0.015625)"/>
       <path id="DejaVuSans-20" transform="scale(0.015625)"/>
       <path id="DejaVuSans-54" d="M -19 4666 
L 3928 4666 
L 3928 4134 
L 2272 4134 
L 2272 0 
L 1638 0 
L 1638 4134 
L -19 4134 
L -19 4666 
z
" transform="scale(0.015625)"/>
       <path id="DejaVuSans-69" d="M 603 3500 
L 1178 3500 
L 1178 0 
L 603 0 
L 603 3500 
z
M 603 4863 
L 1178 4863 
L 1178 4134 
L 603 4134 
L 603 4863 
z
" transform="scale(0.015625)"/>
       <path id="DejaVuSans-6d" d="M 3328 2828 
Q 3544 3216 3844 3400 
Q 4144 3584 4550 3584 
Q 5097 3584 5394 3201 
Q 5691 2819 5691 2113 
L 5691 0 
L 5113 0 
L 5113 2094 
Q 5113 2597 4934 2840 
Q 4756 3084 4391 3084 
Q 3944 3084 3684 2787 
Q 3425 2491 3425 1978 
L 3425 0 
L 2847 0 
L 2847 2094 
Q 2847 2600 2669 2842 
Q 2491 3084 2119 3084 
Q 1678 3084 1418 2786 
Q 1159 2488 1159 1978 
L 1159 0 
L 581 0 
L 581 3500 
L 1159 3500 
L 1159 2956 
Q 1356 3278 1631 3431 
Q 1906 3584 2284 3584 
Q 2666 3584 2933 3390 
Q 3200 3197 3328 2828 
z
" transform="scale(0.015625)"/>
       <path id="DejaVuSans-28" d="M 1984 4856 
Q 1566 4138 1362 3434 
Q 1159 2731 1159 2009 
Q 1159 1288 1364 580 
Q 1569 -128 1984 -844 
L 1484 -844 
Q 1016 -109 783 600 
Q 550 1309 550 2009 
Q 550 2706 781 3412 
Q 1013 4119 1484 4856 
L 1984 4856 
z
" transform="scale(0.015625)"/>
       <path id="DejaVuSans-73" d="M 2834 3397 
L 2834 2853 
Q 2591 2978 2328 3040 
Q 2066 3103 1784 3103 
Q 1356 3103 1142 2972 
Q 928 2841 928 2578 
Q 928 2378 1081 2264 
Q 1234 2150 1697 2047 
L 1894 2003 
Q 2506 1872 2764 1633 
Q 3022 1394 3022 966 
Q 3022 478 2636 193 
Q 2250 -91 1575 -91 
Q 1294 -91 989 -36 
Q 684 19 347 128 
L 347 722 
Q 666 556 975 473 
Q 1284 391 1588 391 
Q 1994 391 2212 530 
Q 2431 669 2431 922 
Q 2431 1156 2273 1281 
Q 2116 1406 1581 1522 
L 1381 1569 
Q 847 1681 609 1914 
Q 372 2147 372 2553 
Q 372 3047 722 3315 
Q 1072 3584 1716 3584 
Q 2034 3584 2315 3537 
Q 2597 3491 2834 3397 
z
" transform="scale(0.015625)"/>
       <path id="DejaVuSans-29" d="M 513 4856 
L 1013 4856 
Q 1481 4119 1714 3412 
Q 1947 2706 1947 2009 
Q 1947 1309 1714 600 
Q 1481 -109 1013 -844 
L 513 -844 
Q 928 -128 1133 580 
Q 1338 1288 1338 2009 
Q 1338 2731 1133 3434 
Q 928 4138 513 4856 
z
" transform="scale(0.015625)"/>
      </defs>
      <use xlink:href="#DejaVuSans-4d"/>
      <use xlink:href="#DejaVuSans-61" transform="translate(86.279297 0)"/>
      <use xlink:href="#DejaVuSans-6e" transform="translate(147.558594 0)"/>
      <use xlink:href="#DejaVuSans-65" transform="translate(210.9375 0)"/>
      <use xlink:href="#DejaVuSans-75" transform="translate(272.460938 0)"/>
      <use xlink:href="#DejaVuSans-76" transform="translate(335.839844 0)"/>
      <use xlink:href="#DejaVuSans-65" transform="translate(395.019531 0)"/>
      <use xlink:href="#DejaVuSans-72" transform="translate(456.542969 0)"/>
      <use xlink:href="#DejaVuSans-20" transform="translate(497.65625 0)"/>
      <use xlink:href="#DejaVuSans-54" transform="translate(529.443359 0)"/>
      <use xlink:href="#DejaVuSans-69" transform="translate(587.402344 0)"/>
      <use xlink:href="#DejaVuSans-6d" transform="translate(615.185547 0)"/>
      <use xlink:href="#DejaVuSans-65" transform="translate(712.597656 0)"/>
      <use xlink:href="#DejaVuSans-20" transform="translate(774.121094 0)"/>
      <use xlink:href="#DejaVuSans-28" transform="translate(805.908203 0)"/>
      <use xlink:href="#DejaVuSans-73" transform="translate(844.921875 0)"/>
      <use xlink:href="#DejaVuSans-29" transform="translate(897.021484 0)"/>
     </g>
    </g>
   </g>
   <g id="matplotlib.axis_2">
    <g id="ytick_1">
     <g id="line2d_15">
      <path d="M 90 383.754865 
L 648 383.754865 
" clip-path="url(#pcca75ee8c7)" style="fill: none; stroke: #b0b0b0; stroke-width: 0.8; stroke-linecap: square"/>
     </g>
     <g id="line2d_16">
      <defs>
       <path id="m641dac34f6" d="M 0 0 
L -3.5 0 
" style="stroke: #000000; stroke-width: 0.8"/>
      </defs>
      <g>
       <use xlink:href="#m641dac34f6" x="90" y="383.754865" style="stroke: #000000; stroke-width: 0.8"/>
      </g>
     </g>
     <g id="text_9">
      <!-- −0.0006 -->
      <g transform="translate(39.629687 387.554084) scale(0.1 -0.1)">
       <defs>
        <path id="DejaVuSans-2212" d="M 678 2272 
L 4684 2272 
L 4684 1741 
L 678 1741 
L 678 2272 
z
" transform="scale(0.015625)"/>
        <path id="DejaVuSans-2e" d="M 684 794 
L 1344 794 
L 1344 0 
L 684 0 
L 684 794 
z
" transform="scale(0.015625)"/>
        <path id="DejaVuSans-36" d="M 2113 2584 
Q 1688 2584 1439 2293 
Q 1191 2003 1191 1497 
Q 1191 994 1439 701 
Q 1688 409 2113 409 
Q 2538 409 2786 701 
Q 3034 994 3034 1497 
Q 3034 2003 2786 2293 
Q 2538 2584 2113 2584 
z
M 3366 4563 
L 3366 3988 
Q 3128 4100 2886 4159 
Q 2644 4219 2406 4219 
Q 1781 4219 1451 3797 
Q 1122 3375 1075 2522 
Q 1259 2794 1537 2939 
Q 1816 3084 2150 3084 
Q 2853 3084 3261 2657 
Q 3669 2231 3669 1497 
Q 3669 778 3244 343 
Q 2819 -91 2113 -91 
Q 1303 -91 875 529 
Q 447 1150 447 2328 
Q 447 3434 972 4092 
Q 1497 4750 2381 4750 
Q 2619 4750 2861 4703 
Q 3103 4656 3366 4563 
z
" transform="scale(0.015625)"/>
       </defs>
       <use xlink:href="#DejaVuSans-2212"/>
       <use xlink:href="#DejaVuSans-30" transform="translate(83.789062 0)"/>
       <use xlink:href="#DejaVuSans-2e" transform="translate(147.412109 0)"/>
       <use xlink:href="#DejaVuSans-30" transform="translate(179.199219 0)"/>
       <use xlink:href="#DejaVuSans-30" transform="translate(242.822266 0)"/>
       <use xlink:href="#DejaVuSans-30" transform="translate(306.445312 0)"/>
       <use xlink:href="#DejaVuSans-36" transform="translate(370.068359 0)"/>
      </g>
     </g>
    </g>
    <g id="ytick_2">
     <g id="line2d_17">
      <path d="M 90 321.227608 
L 648 321.227608 
" clip-path="url(#pcca75ee8c7)" style="fill: none; stroke: #b0b0b0; stroke-width: 0.8; stroke-linecap: square"/>
     </g>
     <g id="line2d_18">
      <g>
       <use xlink:href="#m641dac34f6" x="90" y="321.227608" style="stroke: #000000; stroke-width: 0.8"/>
      </g>
     </g>
     <g id="text_10">
      <!-- −0.0004 -->
      <g transform="translate(39.629687 325.026827) scale(0.1 -0.1)">
       <defs>
        <path id="DejaVuSans-34" d="M 2419 4116 
L 825 1625 
L 2419 1625 
L 2419 4116 
z
M 2253 4666 
L 3047 4666 
L 3047 1625 
L 3713 1625 
L 3713 1100 
L 3047 1100 
L 3047 0 
L 2419 0 
L 2419 1100 
L 313 1100 
L 313 1709 
L 2253 4666 
z
" transform="scale(0.015625)"/>
       </defs>
       <use xlink:href="#DejaVuSans-2212"/>
       <use xlink:href="#DejaVuSans-30" transform="translate(83.789062 0)"/>
       <use xlink:href="#DejaVuSans-2e" transform="translate(147.412109 0)"/>
       <use xlink:href="#DejaVuSans-30" transform="translate(179.199219 0)"/>
       <use xlink:href="#DejaVuSans-30" transform="translate(242.822266 0)"/>
       <use xlink:href="#DejaVuSans-30" transform="translate(306.445312 0)"/>
       <use xlink:href="#DejaVuSans-34" transform="translate(370.068359 0)"/>
      </g>
     </g>
    </g>
    <g id="ytick_3">
     <g id="line2d_19">
      <path d="M 90 258.700351 
L 648 258.700351 
" clip-path="url(#pcca75ee8c7)" style="fill: none; stroke: #b0b0b0; stroke-width: 0.8; stroke-linecap: square"/>
     </g>
     <g id="line2d_20">
      <g>
       <use xlink:href="#m641dac34f6" x="90" y="258.700351" style="stroke: #000000; stroke-width: 0.8"/>
      </g>
     </g>
     <g id="text_11">
      <!-- −0.0002 -->
      <g transform="translate(39.629687 262.49957) scale(0.1 -0.1)">
       <use xlink:href="#DejaVuSans-2212"/>
       <use xlink:href="#DejaVuSans-30" transform="translate(83.789062 0)"/>
       <use xlink:href="#DejaVuSans-2e" transform="translate(147.412109 0)"/>
       <use xlink:href="#DejaVuSans-30" transform="translate(179.199219 0)"/>
       <use xlink:href="#DejaVuSans-30" transform="translate(242.822266 0)"/>
       <use xlink:href="#DejaVuSans-30" transform="translate(306.445312 0)"/>
       <use xlink:href="#DejaVuSans-32" transform="translate(370.068359 0)"/>
      </g>
     </g>
    </g>
    <g id="ytick_4">
     <g id="line2d_21">
      <path d="M 90 196.173094 
L 648 196.173094 
" clip-path="url(#pcca75ee8c7)" style="fill: none; stroke: #b0b0b0; stroke-width: 0.8; stroke-linecap: square"/>
     </g>
     <g id="line2d_22">
      <g>
       <use xlink:href="#m641dac34f6" x="90" y="196.173094" style="stroke: #000000; stroke-width: 0.8"/>
      </g>
     </g>
     <g id="text_12">
      <!-- 0.0000 -->
      <g transform="translate(48.009375 199.972313) scale(0.1 -0.1)">
       <use xlink:href="#DejaVuSans-30"/>
       <use xlink:href="#DejaVuSans-2e" transform="translate(63.623047 0)"/>
       <use xlink:href="#DejaVuSans-30" transform="translate(95.410156 0)"/>
       <use xlink:href="#DejaVuSans-30" transform="translate(159.033203 0)"/>
       <use xlink:href="#DejaVuSans-30" transform="translate(222.65625 0)"/>
       <use xlink:href="#DejaVuSans-30" transform="translate(286.279297 0)"/>
      </g>
     </g>
    </g>
    <g id="ytick_5">
     <g id="line2d_23">
      <path d="M 90 133.645837 
L 648 133.645837 
" clip-path="url(#pcca75ee8c7)" style="fill: none; stroke: #b0b0b0; stroke-width: 0.8; stroke-linecap: square"/>
     </g>
     <g id="line2d_24">
      <g>
       <use xlink:href="#m641dac34f6" x="90" y="133.645837" style="stroke: #000000; stroke-width: 0.8"/>
      </g>
     </g>
     <g id="text_13">
      <!-- 0.0002 -->
      <g transform="translate(48.009375 137.445056) scale(0.1 -0.1)">
       <use xlink:href="#DejaVuSans-30"/>
       <use xlink:href="#DejaVuSans-2e" transform="translate(63.623047 0)"/>
       <use xlink:href="#DejaVuSans-30" transform="translate(95.410156 0)"/>
       <use xlink:href="#DejaVuSans-30" transform="translate(159.033203 0)"/>
       <use xlink:href="#DejaVuSans-30" transform="translate(222.65625 0)"/>
       <use xlink:href="#DejaVuSans-32" transform="translate(286.279297 0)"/>
      </g>
     </g>
    </g>
    <g id="ytick_6">
     <g id="line2d_25">
      <path d="M 90 71.11858 
L 648 71.11858 
" clip-path="url(#pcca75ee8c7)" style="fill: none; stroke: #b0b0b0; stroke-width: 0.8; stroke-linecap: square"/>
     </g>
     <g id="line2d_26">
      <g>
       <use xlink:href="#m641dac34f6" x="90" y="71.11858" style="stroke: #000000; stroke-width: 0.8"/>
      </g>
     </g>
     <g id="text_14">
      <!-- 0.0004 -->
      <g transform="translate(48.009375 74.917799) scale(0.1 -0.1)">
       <use xlink:href="#DejaVuSans-30"/>
       <use xlink:href="#DejaVuSans-2e" transform="translate(63.623047 0)"/>
       <use xlink:href="#DejaVuSans-30" transform="translate(95.410156 0)"/>
       <use xlink:href="#DejaVuSans-30" transform="translate(159.033203 0)"/>
       <use xlink:href="#DejaVuSans-30" transform="translate(222.65625 0)"/>
       <use xlink:href="#DejaVuSans-34" transform="translate(286.279297 0)"/>
      </g>
     </g>
    </g>
    <g id="text_15">
     <!-- Estimated Value -->
     <g transform="translate(33.55 258.738906) rotate(-90) scale(0.1 -0.1)">
      <defs>
       <path id="DejaVuSans-45" d="M 628 4666 
L 3578 4666 
L 3578 4134 
L 1259 4134 
L 1259 2753 
L 3481 2753 
L 3481 2222 
L 1259 2222 
L 1259 531 
L 3634 531 
L 3634 0 
L 628 0 
L 628 4666 
z
" transform="scale(0.015625)"/>
       <path id="DejaVuSans-74" d="M 1172 4494 
L 1172 3500 
L 2356 3500 
L 2356 3053 
L 1172 3053 
L 1172 1153 
Q 1172 725 1289 603 
Q 1406 481 1766 481 
L 2356 481 
L 2356 0 
L 1766 0 
Q 1100 0 847 248 
Q 594 497 594 1153 
L 594 3053 
L 172 3053 
L 172 3500 
L 594 3500 
L 594 4494 
L 1172 4494 
z
" transform="scale(0.015625)"/>
       <path id="DejaVuSans-64" d="M 2906 2969 
L 2906 4863 
L 3481 4863 
L 3481 0 
L 2906 0 
L 2906 525 
Q 2725 213 2448 61 
Q 2172 -91 1784 -91 
Q 1150 -91 751 415 
Q 353 922 353 1747 
Q 353 2572 751 3078 
Q 1150 3584 1784 3584 
Q 2172 3584 2448 3432 
Q 2725 3281 2906 2969 
z
M 947 1747 
Q 947 1113 1208 752 
Q 1469 391 1925 391 
Q 2381 391 2643 752 
Q 2906 1113 2906 1747 
Q 2906 2381 2643 2742 
Q 2381 3103 1925 3103 
Q 1469 3103 1208 2742 
Q 947 2381 947 1747 
z
" transform="scale(0.015625)"/>
       <path id="DejaVuSans-56" d="M 1831 0 
L 50 4666 
L 709 4666 
L 2188 738 
L 3669 4666 
L 4325 4666 
L 2547 0 
L 1831 0 
z
" transform="scale(0.015625)"/>
       <path id="DejaVuSans-6c" d="M 603 4863 
L 1178 4863 
L 1178 0 
L 603 0 
L 603 4863 
z
" transform="scale(0.015625)"/>
      </defs>
      <use xlink:href="#DejaVuSans-45"/>
      <use xlink:href="#DejaVuSans-73" transform="translate(63.183594 0)"/>
      <use xlink:href="#DejaVuSans-74" transform="translate(115.283203 0)"/>
      <use xlink:href="#DejaVuSans-69" transform="translate(154.492188 0)"/>
      <use xlink:href="#DejaVuSans-6d" transform="translate(182.275391 0)"/>
      <use xlink:href="#DejaVuSans-61" transform="translate(279.6875 0)"/>
      <use xlink:href="#DejaVuSans-74" transform="translate(340.966797 0)"/>
      <use xlink:href="#DejaVuSans-65" transform="translate(380.175781 0)"/>
      <use xlink:href="#DejaVuSans-64" transform="translate(441.699219 0)"/>
      <use xlink:href="#DejaVuSans-20" transform="translate(505.175781 0)"/>
      <use xlink:href="#DejaVuSans-56" transform="translate(536.962891 0)"/>
      <use xlink:href="#DejaVuSans-61" transform="translate(597.621094 0)"/>
      <use xlink:href="#DejaVuSans-6c" transform="translate(658.900391 0)"/>
      <use xlink:href="#DejaVuSans-75" transform="translate(686.683594 0)"/>
      <use xlink:href="#DejaVuSans-65" transform="translate(750.0625 0)"/>
     </g>
    </g>
   </g>
   <g id="line2d_27">
    <path d="M 115.363636 196.173094 
L 115.536119 196.272021 
L 117.295447 196.423295 
L 118.157862 196.746719 
L 118.951284 197.28371 
L 119.744707 198.095257 
L 120.607122 199.315956 
L 121.573027 201.101854 
L 122.711415 203.71777 
L 124.19477 207.748276 
L 127.299465 216.39481 
L 128.88631 216.423539 
L 128.920806 100.431167 
L 129.024296 120.217523 
L 129.196779 126.216007 
L 129.403759 127.113865 
L 129.714228 127.458299 
L 130.231678 127.643141 
L 131.473556 127.791994 
L 141.995023 128.701258 
L 144.37529 129.046142 
L 144.858242 129.474209 
L 145.444685 129.667024 
L 145.962134 129.79392 
L 145.996631 122.602529 
L 146.065624 124.593584 
L 146.169114 126.04478 
L 146.20361 125.963793 
L 146.72106 124.084379 
L 147.135019 123.596131 
L 147.686965 123.313475 
L 148.54938 123.144449 
L 150.136225 123.091803 
L 152.792464 123.059434 
L 153.378906 121.537108 
L 153.758369 121.081179 
L 154.034342 121.037467 
L 154.413805 121.232406 
L 154.551791 107.321669 
L 154.862261 105.582999 
L 155.17273 105.061753 
L 155.621186 104.763962 
L 156.414609 104.54779 
L 158.139439 104.358285 
L 161.209638 104.183326 
L 161.451114 104.874702 
L 161.934067 106.849613 
L 162.555006 110.460661 
L 162.865476 111.920073 
L 163.003462 111.85249 
L 166.177151 111.511912 
L 169.626812 111.494977 
L 169.695805 111.723389 
L 171.455133 123.572972 
L 171.489629 123.567686 
L 172.490031 123.487168 
L 174.663318 123.657007 
L 178.11298 124.07692 
L 179.423851 130.105585 
L 179.73432 130.619183 
L 179.768817 130.619969 
L 179.906803 131.290127 
L 185.460759 131.496805 
L 186.944113 131.4309 
L 187.185589 130.698263 
L 187.530555 128.842671 
L 188.220488 124.075774 
L 188.358474 214.903038 
L 188.565454 219.443632 
L 188.80693 220.693069 
L 189.186393 221.449931 
L 189.841829 222.184222 
L 194.222899 226.497986 
L 194.981824 227.275231 
L 195.188804 227.318857 
L 196.603165 227.707681 
L 196.672159 227.683963 
L 196.706655 217.563498 
L 196.775648 223.737223 
L 196.982628 234.437932 
L 197.224104 236.040335 
L 197.534574 236.61922 
L 198.017527 237.001245 
L 198.983432 237.418071 
L 201.950141 238.615853 
L 203.467992 239.424099 
L 204.778863 244.055434 
L 205.123829 244.600356 
L 205.261816 236.917038 
L 205.606782 235.174895 
L 205.917251 234.672116 
L 206.365707 234.379056 
L 207.090136 234.208506 
L 208.263021 234.180432 
L 209.780872 234.369561 
L 211.264227 234.774615 
L 212.851071 235.444176 
L 213.230534 236.135158 
L 213.5755 236.776683 
L 213.609997 240.128869 
L 213.713486 239.863534 
L 214.127446 238.692784 
L 214.506909 238.310356 
L 215.093351 238.060712 
L 216.059256 237.918247 
L 217.473618 237.945656 
L 218.922475 238.18994 
L 220.40583 238.469556 
L 220.923279 237.198851 
L 221.337238 236.701351 
L 221.820191 236.479023 
L 222.027171 236.437476 
L 222.165157 240.830903 
L 223.165559 243.745243 
L 224.027974 245.392346 
L 225.200859 247.130882 
L 226.994683 249.359758 
L 228.96099 251.78873 
L 229.685419 253.734231 
L 230.099379 254.274966 
L 230.444345 254.353633 
L 230.478841 254.368656 
L 230.616828 257.881969 
L 231.582733 260.782457 
L 232.445149 262.478627 
L 233.618033 264.262759 
L 235.342864 266.452962 
L 237.550648 268.92398 
L 237.826621 268.997009 
L 238.13709 268.826409 
L 238.585546 268.252295 
L 238.930512 267.917646 
L 239.068499 270.017602 
L 240.0689 272.01098 
L 241.069302 273.385164 
L 242.552657 275.017945 
L 245.036413 277.382232 
L 245.691849 278.000309 
L 245.760842 279.764327 
L 246.278291 301.364422 
L 246.588761 306.717997 
L 246.692251 307.071212 
L 246.726747 307.027267 
L 246.830237 306.411592 
L 247.037217 303.039372 
L 247.31319 295.675873 
L 247.382183 295.742148 
L 247.41668 249.753125 
L 247.520169 250.379212 
L 248.106612 255.324635 
L 248.693054 257.952097 
L 249.693456 261.320171 
L 252.177212 268.66375 
L 254.14352 274.349385 
L 254.178016 274.06477 
L 254.419492 260.479977 
L 255.76486 183.023293 
L 255.833854 183.040439 
L 255.97184 184.502919 
L 257.627678 191.518584 
L 258.973046 195.678112 
L 261.456802 202.501312 
L 262.629687 205.699181 
L 262.836667 213.896137 
L 263.388612 245.030689 
L 264.251028 294.967034 
L 264.285524 295.043266 
L 264.423511 301.70086 
L 265.492906 306.895852 
L 267.114247 313.589015 
L 269.977466 324.318327 
L 271.081358 328.564365 
L 271.87478 358.506978 
L 272.081759 359.968458 
L 272.150753 359.796822 
L 272.288739 358.471106 
L 272.530215 353.098352 
L 272.702699 349.595948 
L 272.737195 349.610087 
L 272.875182 360.229243 
L 273.323638 361.603641 
L 274.048067 363.124092 
L 275.013972 364.619065 
L 276.35934 366.26662 
L 278.325647 368.300254 
L 279.498532 369.355452 
L 279.533028 369.173161 
L 279.740008 361.500161 
L 280.222961 334.694576 
L 281.188866 277.294922 
L 281.326852 280.944051 
L 281.568329 280.757282 
L 282.465241 280.027657 
L 283.534636 279.462974 
L 284.431548 279.126039 
L 284.569534 196.112906 
L 287.46725 196.187767 
L 289.433557 196.448905 
L 291.399864 196.942216 
L 293.918117 197.827476 
L 296.505363 198.709136 
L 297.988718 198.71219 
L 298.333684 196.769206 
L 299.092609 196.740418 
L 312.753269 196.860401 
L 315.064542 196.883789 
L 315.099039 196.497354 
L 315.202529 196.560614 
L 315.857964 195.374632 
L 316.40991 195.161471 
L 317.513802 195.022941 
L 320.308028 194.951977 
L 321.929368 194.860876 
L 323.516213 192.878075 
L 323.550709 194.447066 
L 323.654199 194.327285 
L 323.999165 193.866265 
L 324.447621 193.701195 
L 325.551513 193.594654 
L 329.691107 193.515565 
L 330.381039 193.607536 
L 331.967884 195.806207 
L 332.10587 195.641839 
L 337.590832 195.764244 
L 338.83271 195.875829 
L 340.626534 198.50279 
L 342.385861 198.39507 
L 347.215387 198.421313 
L 347.663843 199.143835 
L 348.871225 200.955002 
L 349.009211 201.725975 
L 355.977528 201.65734 
L 356.356991 201.285155 
L 356.87444 200.397997 
L 357.426386 199.330232 
L 357.495379 199.369535 
L 357.874842 199.45285 
L 360.531081 199.457783 
L 363.739266 199.604286 
L 364.532688 199.560837 
L 365.774566 199.43071 
L 365.912553 198.646998 
L 366.223022 198.547295 
L 369.293221 198.213083 
L 373.881271 197.907611 
L 374.226237 197.884044 
L 374.364224 197.360282 
L 374.743686 196.894514 
L 375.295632 196.668872 
L 376.74449 196.38536 
L 379.987172 195.991399 
L 381.263547 195.774175 
L 382.677908 195.067389 
L 382.712405 196.190054 
L 382.815894 196.136297 
L 383.402337 195.88241 
L 384.885691 195.612405 
L 388.335353 195.21494 
L 389.784211 195.202875 
L 391.129579 195.503508 
L 391.267565 196.208458 
L 392.578437 196.715371 
L 394.165281 196.977761 
L 397.511453 197.258371 
L 398.063398 197.391913 
L 399.581249 198.672927 
L 399.719236 199.459057 
L 400.823128 199.809789 
L 402.478965 200.03188 
L 406.239096 200.265668 
L 406.446076 200.344494 
L 408.03292 202.231706 
L 408.170907 202.992156 
L 409.585268 203.20135 
L 412.482984 203.334858 
L 414.897747 203.471404 
L 415.518686 204.587359 
L 416.450094 206.282605 
L 416.484591 206.29387 
L 416.519088 198.67954 
L 416.622577 198.804133 
L 417.20902 199.74986 
L 417.933449 200.355069 
L 419.55479 201.356727 
L 423.349417 203.449613 
L 423.797873 203.32244 
L 424.177336 203.439558 
L 424.625792 203.830736 
L 424.936262 204.12545 
L 425.074248 204.498854 
L 427.040555 206.324131 
L 429.524311 208.099479 
L 431.766591 209.540477 
L 432.732497 208.751834 
L 433.215449 208.659611 
L 433.387932 208.706523 
L 433.525919 210.090295 
L 434.83679 211.44296 
L 436.803097 213.104819 
L 440.149269 215.621223 
L 440.425242 215.894986 
L 441.805106 217.32099 
L 441.839603 217.320077 
L 441.97759 219.451927 
L 442.529535 219.707906 
L 443.633427 219.967902 
L 445.634231 220.180284 
L 448.773423 220.504264 
L 449.187382 220.870584 
L 449.532348 220.906866 
L 449.877314 220.703678 
L 450.291274 220.337209 
L 450.42926 221.053417 
L 451.567649 220.887702 
L 453.533956 220.719399 
L 453.671942 196.155446 
L 454.396371 196.127519 
L 467.091125 196.136684 
L 467.160119 196.266405 
L 467.229112 196.23715 
L 467.643071 196.168227 
L 471.368706 196.161457 
L 483.925474 196.077393 
L 484.16695 196.065409 
L 484.201447 195.603587 
L 484.304936 195.634369 
L 484.718896 195.685927 
L 491.10077 195.581253 
L 492.618621 194.71943 
L 492.756607 194.904982 
L 494.929894 194.757412 
L 499.483447 194.781269 
L 501.070291 196.023145 
L 501.208278 195.94617 
L 508.073104 196.202823 
L 509.763439 197.599115 
L 512.937127 197.535915 
L 516.421285 197.627193 
L 517.973633 199.044529 
L 518.111619 199.447541 
L 525.562888 199.275859 
L 526.045841 198.734493 
L 526.425304 198.308163 
L 526.4598 198.431813 
L 526.528794 198.394706 
L 526.908256 198.181164 
L 527.908658 198.071532 
L 532.738184 197.862187 
L 533.428117 197.731196 
L 534.945968 196.837125 
L 535.32543 196.112632 
L 535.808383 195.979538 
L 537.602207 195.830329 
L 541.879787 195.476616 
L 543.363142 194.495254 
L 547.088776 194.194351 
L 550.296961 193.919394 
L 551.780316 192.898442 
L 551.918302 194.515557 
L 552.573738 194.625697 
L 554.609038 194.580782 
L 558.783129 194.513227 
L 560.576953 195.176606 
L 562.301784 195.312075 
L 566.889833 195.377717 
L 567.200303 195.472487 
L 568.683657 196.303717 
L 568.821644 196.673601 
L 570.511978 196.81599 
L 574.789558 196.86045 
L 575.617477 196.957932 
L 577.135328 198.035391 
L 577.273315 198.501992 
L 579.481098 198.574029 
L 583.965658 198.509136 
L 584.448611 197.672888 
L 585.586999 195.574667 
L 585.724985 196.007707 
L 587.760286 196.23613 
L 592.486322 196.59151 
L 593.072764 196.273027 
L 593.52122 196.262242 
L 594.03867 196.44369 
L 594.176656 196.695467 
L 596.591419 197.184308 
L 601.179469 197.797092 
L 601.834905 197.656769 
L 602.49034 197.39544 
L 602.628327 197.737629 
L 605.388056 198.378312 
L 609.32067 199.011283 
L 610.010602 198.636874 
L 610.942011 198.089206 
L 611.079998 198.755964 
L 612.287379 199.145697 
L 613.943217 199.385788 
L 616.909926 199.561132 
L 618.255293 199.499278 
L 619.393682 199.331276 
L 619.531668 199.489434 
L 622.636364 199.56148 
L 622.636364 199.56148 
" clip-path="url(#pcca75ee8c7)" style="fill: none; stroke: #ff0000; stroke-width: 1.5; stroke-linecap: square"/>
   </g>
   <g id="line2d_28">
    <path d="M 115.363636 196.173094 
L 115.536119 196.272021 
L 117.295447 196.423295 
L 118.157862 196.746719 
L 118.951284 197.283587 
L 119.848196 197.900609 
L 120.503632 197.966617 
L 123.746314 198.09032 
L 128.88631 198.384299 
L 128.955303 112.741856 
L 129.024296 120.767046 
L 129.196779 126.223235 
L 129.403759 127.114159 
L 129.714228 127.478919 
L 130.300671 127.734137 
L 132.094495 128.169483 
L 134.99221 128.648509 
L 139.407777 129.116557 
L 144.409786 129.675418 
L 144.789249 129.814394 
L 145.237705 129.717364 
L 145.962134 129.563551 
L 145.996631 124.877236 
L 146.065624 126.040003 
L 146.134617 126.561252 
L 146.169114 126.44403 
L 146.61757 124.281156 
L 146.997033 123.683385 
L 147.479985 123.349977 
L 148.204414 123.137232 
L 149.480789 123.024485 
L 152.068035 123.059261 
L 152.792464 122.985007 
L 153.34441 121.615146 
L 153.689376 121.23852 
L 153.965349 121.234712 
L 154.241322 121.486952 
L 154.413805 121.584974 
L 154.551791 107.381026 
L 154.862261 105.6148 
L 155.17273 105.081588 
L 155.621186 104.765013 
L 156.414609 104.511911 
L 158.139439 104.241558 
L 161.209638 103.953622 
L 161.451114 104.51406 
L 161.89957 106.130762 
L 162.451516 109.111272 
L 162.865476 111.234751 
L 162.899972 115.05563 
L 163.003462 114.996739 
L 163.417421 114.750832 
L 164.176347 114.67935 
L 166.763593 114.737297 
L 169.661309 114.968166 
L 169.971778 117.817819 
L 171.28265 129.688409 
L 171.317146 129.693534 
L 171.351643 123.376044 
L 171.455133 123.41776 
L 172.110568 123.661324 
L 174.042379 123.943733 
L 178.11298 124.483186 
L 179.354858 129.891371 
L 179.73432 130.473129 
L 179.768817 130.472568 
L 179.906803 130.920462 
L 181.045192 131.124367 
L 183.597941 131.204477 
L 186.77163 131.359972 
L 187.185589 131.42717 
L 187.565052 131.261291 
L 188.048005 130.772224 
L 188.220488 130.581051 
L 188.358474 218.1137 
L 188.565454 220.020718 
L 188.841427 220.619202 
L 189.358876 221.128257 
L 192.187599 223.507016 
L 192.567061 224.439756 
L 193.981423 228.392633 
L 194.705851 229.544385 
L 195.568267 230.876566 
L 196.672159 232.768144 
L 196.706655 223.707638 
L 196.775648 229.223051 
L 196.948131 236.477316 
L 197.189608 237.980291 
L 197.603567 238.920417 
L 198.500479 240.290904 
L 199.673364 241.713567 
L 200.43229 242.659335 
L 202.295107 245.364242 
L 203.467992 246.762688 
L 204.088931 253.482373 
L 205.054836 262.181041 
L 205.123829 262.294512 
L 205.261816 234.242868 
L 205.572285 233.20953 
L 205.813762 233.08329 
L 206.158728 233.199967 
L 206.814163 233.707923 
L 208.401008 235.290892 
L 211.919662 238.900823 
L 212.195635 237.747169 
L 212.989058 234.798312 
L 213.437514 233.83155 
L 213.541003 233.839065 
L 213.5755 233.871471 
L 213.713486 237.458501 
L 214.437915 237.87964 
L 215.783283 239.117896 
L 220.474823 243.772688 
L 220.957776 245.73248 
L 221.682205 249.788885 
L 222.027171 251.416625 
L 222.061667 251.323754 
L 222.130661 251.385744 
L 223.648512 252.8266 
L 228.823004 258.216717 
L 229.305957 261.118215 
L 230.030385 264.733122 
L 230.444345 265.962508 
L 230.478841 265.997008 
L 230.513338 265.534411 
L 230.616828 265.613686 
L 232.824611 267.686494 
L 237.343668 272.151055 
L 237.757627 272.842335 
L 238.102593 273.021755 
L 238.44756 272.936115 
L 238.930512 272.768198 
L 239.102995 273.176682 
L 240.034404 274.285504 
L 242.000711 276.169318 
L 244.898427 278.674379 
L 245.691849 279.389265 
L 245.760842 280.968056 
L 246.209298 296.916621 
L 246.485271 300.372887 
L 246.519768 300.435308 
L 246.554264 300.414762 
L 246.657754 299.856109 
L 246.830237 297.28809 
L 247.10621 289.130784 
L 247.31319 281.72086 
L 247.382183 281.80368 
L 247.41668 256.292864 
L 247.520169 256.54377 
L 248.520571 260.195656 
L 251.935736 270.462525 
L 254.14352 277.293508 
L 254.178016 277.021196 
L 254.419492 263.215835 
L 255.76486 182.342933 
L 255.833854 182.315541 
L 255.97184 185.418817 
L 256.799759 187.826749 
L 257.351705 190.209123 
L 258.11063 194.677096 
L 259.628481 203.694966 
L 260.594387 207.938182 
L 261.698278 211.762272 
L 262.629687 214.902901 
L 262.871163 227.44637 
L 263.664585 281.473459 
L 264.216531 314.077008 
L 264.285524 314.316729 
L 264.320021 312.500162 
L 264.423511 312.646518 
L 265.078947 313.894806 
L 266.148342 316.568132 
L 268.114649 322.158575 
L 270.736391 330.292728 
L 271.081358 331.665474 
L 271.736793 353.969644 
L 271.943773 355.262962 
L 272.047263 354.763583 
L 272.219746 352.251955 
L 272.495719 344.077197 
L 272.737195 337.816726 
L 272.875182 346.757757 
L 273.7031 350.314715 
L 274.324039 351.758638 
L 275.117462 353.018876 
L 276.497326 354.724055 
L 279.188062 358.058573 
L 279.395042 358.333824 
L 279.464035 358.26241 
L 279.533028 357.951003 
L 279.740008 349.636255 
L 280.257457 319.235728 
L 281.188866 262.879072 
L 281.326852 271.341798 
L 281.775308 271.662893 
L 282.258261 271.710246 
L 283.051683 271.528359 
L 284.431548 271.039907 
L 284.569534 196.115095 
L 287.915706 196.185194 
L 290.364966 196.447471 
L 293.090198 196.976301 
L 296.815833 197.708235 
L 297.988718 197.709194 
L 298.299187 200.949114 
L 298.609657 201.05343 
L 299.955025 201.097934 
L 312.408303 201.110713 
L 313.753671 201.217322 
L 315.064542 201.59524 
L 315.237025 203.638783 
L 315.375012 203.770623 
L 316.237427 203.524259 
L 317.927761 203.449894 
L 321.894872 203.478881 
L 323.516213 205.193646 
L 323.654199 208.312258 
L 324.654601 208.256419 
L 330.07057 208.237438 
L 330.381039 208.136089 
L 332.071373 205.701662 
L 338.867207 205.586436 
L 340.419554 203.40707 
L 340.557541 203.578665 
L 343.144787 203.40358 
L 347.318877 203.21081 
L 348.871225 201.09909 
L 349.009211 201.632765 
L 357.322896 201.426895 
L 357.495379 200.26939 
L 357.771352 199.475097 
L 358.392291 198.674261 
L 362.221415 194.116801 
L 364.222219 191.591878 
L 365.774566 191.455521 
L 365.912553 188.095734 
L 366.223022 187.831598 
L 370.707582 184.918847 
L 372.846373 183.100892 
L 373.881271 181.773977 
L 374.226237 181.396699 
L 374.29523 173.239614 
L 374.364224 173.254429 
L 374.778183 173.379428 
L 375.468115 173.202545 
L 377.261939 172.466933 
L 379.19375 171.454523 
L 381.02207 170.25303 
L 381.367037 168.095371 
L 382.677908 160.266584 
L 382.815894 161.815968 
L 383.195357 162.572637 
L 383.540323 162.720749 
L 384.057773 162.6674 
L 385.058174 162.300355 
L 386.714012 161.438794 
L 388.473339 160.277952 
L 389.473741 159.612207 
L 389.784211 161.295427 
L 391.095082 168.333635 
L 391.129579 168.325345 
L 391.267565 164.746802 
L 392.33696 161.768508 
L 393.302865 159.90683 
L 394.751723 157.629988 
L 397.373466 153.989211 
L 397.925412 153.359183 
L 398.201385 154.141136 
L 399.512256 157.785181 
L 399.581249 157.740792 
L 399.719236 154.21249 
L 400.685141 151.220376 
L 401.582053 149.341295 
L 402.858428 147.209819 
L 404.859232 144.336138 
L 406.411579 142.388279 
L 408.03292 143.781486 
L 408.170907 142.212509 
L 409.240302 139.93857 
L 410.447683 138.030342 
L 412.448487 135.3308 
L 414.828753 132.273316 
L 415.07023 128.131877 
L 416.484591 100.871255 
L 416.519088 129.420665 
L 416.622577 129.056784 
L 417.20902 126.107754 
L 417.864456 124.298048 
L 419.071837 121.730658 
L 423.418411 112.87475 
L 423.83237 111.45182 
L 424.108343 111.132175 
L 424.280826 111.199224 
L 424.522302 111.627388 
L 424.936262 112.695453 
L 425.074248 111.738553 
L 426.626596 108.316935 
L 427.799481 106.576313 
L 429.696795 104.208277 
L 431.973571 101.657766 
L 432.180551 101.661564 
L 432.422027 101.949237 
L 432.732497 102.723574 
L 433.249946 104.753563 
L 433.318939 104.881529 
L 433.353436 104.842677 
L 433.387932 104.797545 
L 433.525919 100.722051 
L 434.664307 97.171708 
L 436.423635 92.463913 
L 439.907793 83.895671 
L 440.183766 83.366959 
L 440.218262 83.413972 
L 440.632222 84.65186 
L 441.77061 88.324859 
L 441.839603 88.261298 
L 441.97759 81.169642 
L 442.495039 79.762786 
L 443.391951 77.967517 
L 444.702822 75.873696 
L 446.841612 72.921172 
L 448.70443 70.623029 
L 449.428858 70.385202 
L 450.015301 69.95145 
L 450.291274 69.777719 
L 450.42926 66.968182 
L 450.774226 67.009985 
L 452.913017 67.393327 
L 453.533956 67.471692 
L 453.568452 196.17267 
L 453.671942 196.158013 
L 454.465364 196.140398 
L 467.091125 196.112857 
L 467.229112 196.30886 
L 468.850453 196.295029 
L 484.16695 196.254506 
L 484.201447 195.826034 
L 484.304936 195.855154 
L 484.753392 195.903851 
L 491.20426 195.799175 
L 492.618621 195.160963 
L 492.756607 195.352654 
L 495.48184 195.233361 
L 499.517944 195.312894 
L 501.070291 196.350553 
L 501.208278 196.267405 
L 508.073104 196.513537 
L 509.797935 197.684935 
L 512.557664 197.606277 
L 516.421285 197.66113 
L 517.973633 198.836377 
L 518.111619 199.21988 
L 524.907453 199.223074 
L 525.321412 199.218483 
L 525.735371 198.984605 
L 526.87376 198.159082 
L 527.529195 198.085112 
L 530.530401 198.102648 
L 533.6006 198.01527 
L 534.876974 197.731576 
L 535.049458 196.631543 
L 535.290934 196.058024 
L 535.6359 195.910679 
L 536.532812 195.872616 
L 541.879787 195.858127 
L 543.328645 194.736105 
L 543.363142 193.632689 
L 543.466632 193.647185 
L 544.880993 193.845559 
L 548.917097 194.153646 
L 550.158975 194.153151 
L 551.780316 191.551646 
L 551.918302 192.160807 
L 552.401255 192.51325 
L 553.160181 192.68968 
L 555.229977 192.881437 
L 558.645142 193.150289 
L 560.231987 196.021717 
L 560.369973 195.389288 
L 561.818831 194.898609 
L 563.785138 194.577445 
L 567.02782 194.24307 
L 567.510772 194.936621 
L 568.683657 196.502911 
L 568.821644 195.638017 
L 569.925536 194.998044 
L 571.167414 194.637347 
L 573.3407 194.269174 
L 575.513987 194.056428 
L 577.135328 195.524397 
L 577.273315 195.274277 
L 578.618683 194.842037 
L 580.550493 194.545055 
L 584.069148 194.059202 
L 585.586999 192.243389 
L 585.724985 190.811171 
L 588.001762 190.242302 
L 592.382832 188.974886 
L 592.969275 188.32387 
L 593.245247 188.358832 
L 593.555717 188.669887 
L 594.03867 189.405214 
L 594.176656 188.33527 
L 595.453031 187.555879 
L 597.108868 186.88706 
L 600.76551 185.696656 
L 601.524435 185.78502 
L 601.938394 186.30681 
L 602.49034 187.159154 
L 602.628327 186.191921 
L 604.663627 184.637562 
L 606.836914 183.385344 
L 609.286174 182.197665 
L 609.562146 182.64662 
L 610.321072 184.34028 
L 610.907514 185.460897 
L 610.942011 185.461905 
L 611.079998 183.399958 
L 611.97691 182.29668 
L 612.839325 181.643963 
L 613.977713 181.073699 
L 615.564558 180.541433 
L 617.668851 180.067558 
L 617.979321 180.179972 
L 619.048716 180.571763 
L 619.393682 180.614113 
L 619.531668 180.051064 
L 621.222002 179.758939 
L 622.636364 179.647956 
L 622.636364 179.647956 
" clip-path="url(#pcca75ee8c7)" style="fill: none; stroke-dasharray: 5.55,2.4; stroke-dashoffset: 0; stroke: #0000ff; stroke-width: 1.5"/>
   </g>
   <g id="patch_3">
    <path d="M 90 384.48 
L 90 51.84 
" style="fill: none; stroke: #000000; stroke-width: 0.8; stroke-linejoin: miter; stroke-linecap: square"/>
   </g>
   <g id="patch_4">
    <path d="M 648 384.48 
L 648 51.84 
" style="fill: none; stroke: #000000; stroke-width: 0.8; stroke-linejoin: miter; stroke-linecap: square"/>
   </g>
   <g id="patch_5">
    <path d="M 90 384.48 
L 648 384.48 
" style="fill: none; stroke: #000000; stroke-width: 0.8; stroke-linejoin: miter; stroke-linecap: square"/>
   </g>
   <g id="patch_6">
    <path d="M 90 51.84 
L 648 51.84 
" style="fill: none; stroke: #000000; stroke-width: 0.8; stroke-linejoin: miter; stroke-linecap: square"/>
   </g>
   <g id="text_16">
    <!-- State Value Convergence for phi_E (Index 0) -->
    <g transform="translate(236.297812 45.84) scale(0.12 -0.12)">
     <defs>
      <path id="DejaVuSans-53" d="M 3425 4513 
L 3425 3897 
Q 3066 4069 2747 4153 
Q 2428 4238 2131 4238 
Q 1616 4238 1336 4038 
Q 1056 3838 1056 3469 
Q 1056 3159 1242 3001 
Q 1428 2844 1947 2747 
L 2328 2669 
Q 3034 2534 3370 2195 
Q 3706 1856 3706 1288 
Q 3706 609 3251 259 
Q 2797 -91 1919 -91 
Q 1588 -91 1214 -16 
Q 841 59 441 206 
L 441 856 
Q 825 641 1194 531 
Q 1563 422 1919 422 
Q 2459 422 2753 634 
Q 3047 847 3047 1241 
Q 3047 1584 2836 1778 
Q 2625 1972 2144 2069 
L 1759 2144 
Q 1053 2284 737 2584 
Q 422 2884 422 3419 
Q 422 4038 858 4394 
Q 1294 4750 2059 4750 
Q 2388 4750 2728 4690 
Q 3069 4631 3425 4513 
z
" transform="scale(0.015625)"/>
      <path id="DejaVuSans-43" d="M 4122 4306 
L 4122 3641 
Q 3803 3938 3442 4084 
Q 3081 4231 2675 4231 
Q 1875 4231 1450 3742 
Q 1025 3253 1025 2328 
Q 1025 1406 1450 917 
Q 1875 428 2675 428 
Q 3081 428 3442 575 
Q 3803 722 4122 1019 
L 4122 359 
Q 3791 134 3420 21 
Q 3050 -91 2638 -91 
Q 1578 -91 968 557 
Q 359 1206 359 2328 
Q 359 3453 968 4101 
Q 1578 4750 2638 4750 
Q 3056 4750 3426 4639 
Q 3797 4528 4122 4306 
z
" transform="scale(0.015625)"/>
      <path id="DejaVuSans-6f" d="M 1959 3097 
Q 1497 3097 1228 2736 
Q 959 2375 959 1747 
Q 959 1119 1226 758 
Q 1494 397 1959 397 
Q 2419 397 2687 759 
Q 2956 1122 2956 1747 
Q 2956 2369 2687 2733 
Q 2419 3097 1959 3097 
z
M 1959 3584 
Q 2709 3584 3137 3096 
Q 3566 2609 3566 1747 
Q 3566 888 3137 398 
Q 2709 -91 1959 -91 
Q 1206 -91 779 398 
Q 353 888 353 1747 
Q 353 2609 779 3096 
Q 1206 3584 1959 3584 
z
" transform="scale(0.015625)"/>
      <path id="DejaVuSans-67" d="M 2906 1791 
Q 2906 2416 2648 2759 
Q 2391 3103 1925 3103 
Q 1463 3103 1205 2759 
Q 947 2416 947 1791 
Q 947 1169 1205 825 
Q 1463 481 1925 481 
Q 2391 481 2648 825 
Q 2906 1169 2906 1791 
z
M 3481 434 
Q 3481 -459 3084 -895 
Q 2688 -1331 1869 -1331 
Q 1566 -1331 1297 -1286 
Q 1028 -1241 775 -1147 
L 775 -588 
Q 1028 -725 1275 -790 
Q 1522 -856 1778 -856 
Q 2344 -856 2625 -561 
Q 2906 -266 2906 331 
L 2906 616 
Q 2728 306 2450 153 
Q 2172 0 1784 0 
Q 1141 0 747 490 
Q 353 981 353 1791 
Q 353 2603 747 3093 
Q 1141 3584 1784 3584 
Q 2172 3584 2450 3431 
Q 2728 3278 2906 2969 
L 2906 3500 
L 3481 3500 
L 3481 434 
z
" transform="scale(0.015625)"/>
      <path id="DejaVuSans-63" d="M 3122 3366 
L 3122 2828 
Q 2878 2963 2633 3030 
Q 2388 3097 2138 3097 
Q 1578 3097 1268 2742 
Q 959 2388 959 1747 
Q 959 1106 1268 751 
Q 1578 397 2138 397 
Q 2388 397 2633 464 
Q 2878 531 3122 666 
L 3122 134 
Q 2881 22 2623 -34 
Q 2366 -91 2075 -91 
Q 1284 -91 818 406 
Q 353 903 353 1747 
Q 353 2603 823 3093 
Q 1294 3584 2113 3584 
Q 2378 3584 2631 3529 
Q 2884 3475 3122 3366 
z
" transform="scale(0.015625)"/>
      <path id="DejaVuSans-66" d="M 2375 4863 
L 2375 4384 
L 1825 4384 
Q 1516 4384 1395 4259 
Q 1275 4134 1275 3809 
L 1275 3500 
L 2222 3500 
L 2222 3053 
L 1275 3053 
L 1275 0 
L 697 0 
L 697 3053 
L 147 3053 
L 147 3500 
L 697 3500 
L 697 3744 
Q 697 4328 969 4595 
Q 1241 4863 1831 4863 
L 2375 4863 
z
" transform="scale(0.015625)"/>
      <path id="DejaVuSans-70" d="M 1159 525 
L 1159 -1331 
L 581 -1331 
L 581 3500 
L 1159 3500 
L 1159 2969 
Q 1341 3281 1617 3432 
Q 1894 3584 2278 3584 
Q 2916 3584 3314 3078 
Q 3713 2572 3713 1747 
Q 3713 922 3314 415 
Q 2916 -91 2278 -91 
Q 1894 -91 1617 61 
Q 1341 213 1159 525 
z
M 3116 1747 
Q 3116 2381 2855 2742 
Q 2594 3103 2138 3103 
Q 1681 3103 1420 2742 
Q 1159 2381 1159 1747 
Q 1159 1113 1420 752 
Q 1681 391 2138 391 
Q 2594 391 2855 752 
Q 3116 1113 3116 1747 
z
" transform="scale(0.015625)"/>
      <path id="DejaVuSans-68" d="M 3513 2113 
L 3513 0 
L 2938 0 
L 2938 2094 
Q 2938 2591 2744 2837 
Q 2550 3084 2163 3084 
Q 1697 3084 1428 2787 
Q 1159 2491 1159 1978 
L 1159 0 
L 581 0 
L 581 4863 
L 1159 4863 
L 1159 2956 
Q 1366 3272 1645 3428 
Q 1925 3584 2291 3584 
Q 2894 3584 3203 3211 
Q 3513 2838 3513 2113 
z
" transform="scale(0.015625)"/>
      <path id="DejaVuSans-5f" d="M 3263 -1063 
L 3263 -1509 
L -63 -1509 
L -63 -1063 
L 3263 -1063 
z
" transform="scale(0.015625)"/>
      <path id="DejaVuSans-49" d="M 628 4666 
L 1259 4666 
L 1259 0 
L 628 0 
L 628 4666 
z
" transform="scale(0.015625)"/>
      <path id="DejaVuSans-78" d="M 3513 3500 
L 2247 1797 
L 3578 0 
L 2900 0 
L 1881 1375 
L 863 0 
L 184 0 
L 1544 1831 
L 300 3500 
L 978 3500 
L 1906 2253 
L 2834 3500 
L 3513 3500 
z
" transform="scale(0.015625)"/>
     </defs>
     <use xlink:href="#DejaVuSans-53"/>
     <use xlink:href="#DejaVuSans-74" transform="translate(63.476562 0)"/>
     <use xlink:href="#DejaVuSans-61" transform="translate(102.685547 0)"/>
     <use xlink:href="#DejaVuSans-74" transform="translate(163.964844 0)"/>
     <use xlink:href="#DejaVuSans-65" transform="translate(203.173828 0)"/>
     <use xlink:href="#DejaVuSans-20" transform="translate(264.697266 0)"/>
     <use xlink:href="#DejaVuSans-56" transform="translate(296.484375 0)"/>
     <use xlink:href="#DejaVuSans-61" transform="translate(357.142578 0)"/>
     <use xlink:href="#DejaVuSans-6c" transform="translate(418.421875 0)"/>
     <use xlink:href="#DejaVuSans-75" transform="translate(446.205078 0)"/>
     <use xlink:href="#DejaVuSans-65" transform="translate(509.583984 0)"/>
     <use xlink:href="#DejaVuSans-20" transform="translate(571.107422 0)"/>
     <use xlink:href="#DejaVuSans-43" transform="translate(602.894531 0)"/>
     <use xlink:href="#DejaVuSans-6f" transform="translate(672.71875 0)"/>
     <use xlink:href="#DejaVuSans-6e" transform="translate(733.900391 0)"/>
     <use xlink:href="#DejaVuSans-76" transform="translate(797.279297 0)"/>
     <use xlink:href="#DejaVuSans-65" transform="translate(856.458984 0)"/>
     <use xlink:href="#DejaVuSans-72" transform="translate(917.982422 0)"/>
     <use xlink:href="#DejaVuSans-67" transform="translate(957.345703 0)"/>
     <use xlink:href="#DejaVuSans-65" transform="translate(1020.822266 0)"/>
     <use xlink:href="#DejaVuSans-6e" transform="translate(1082.345703 0)"/>
     <use xlink:href="#DejaVuSans-63" transform="translate(1145.724609 0)"/>
     <use xlink:href="#DejaVuSans-65" transform="translate(1200.705078 0)"/>
     <use xlink:href="#DejaVuSans-20" transform="translate(1262.228516 0)"/>
     <use xlink:href="#DejaVuSans-66" transform="translate(1294.015625 0)"/>
     <use xlink:href="#DejaVuSans-6f" transform="translate(1329.220703 0)"/>
     <use xlink:href="#DejaVuSans-72" transform="translate(1390.402344 0)"/>
     <use xlink:href="#DejaVuSans-20" transform="translate(1431.515625 0)"/>
     <use xlink:href="#DejaVuSans-70" transform="translate(1463.302734 0)"/>
     <use xlink:href="#DejaVuSans-68" transform="translate(1526.779297 0)"/>
     <use xlink:href="#DejaVuSans-69" transform="translate(1590.158203 0)"/>
     <use xlink:href="#DejaVuSans-5f" transform="translate(1617.941406 0)"/>
     <use xlink:href="#DejaVuSans-45" transform="translate(1667.941406 0)"/>
     <use xlink:href="#DejaVuSans-20" transform="translate(1731.125 0)"/>
     <use xlink:href="#DejaVuSans-28" transform="translate(1762.912109 0)"/>
     <use xlink:href="#DejaVuSans-49" transform="translate(1801.925781 0)"/>
     <use xlink:href="#DejaVuSans-6e" transform="translate(1831.417969 0)"/>
     <use xlink:href="#DejaVuSans-64" transform="translate(1894.796875 0)"/>
     <use xlink:href="#DejaVuSans-65" transform="translate(1958.273438 0)"/>
     <use xlink:href="#DejaVuSans-78" transform="translate(2018.046875 0)"/>
     <use xlink:href="#DejaVuSans-20" transform="translate(2077.226562 0)"/>
     <use xlink:href="#DejaVuSans-30" transform="translate(2109.013672 0)"/>
     <use xlink:href="#DejaVuSans-29" transform="translate(2172.636719 0)"/>
    </g>
   </g>
   <g id="legend_1">
    <g id="patch_7">
     <path d="M 521.465625 89.19625 
L 641 89.19625 
Q 643 89.19625 643 87.19625 
L 643 58.84 
Q 643 56.84 641 56.84 
L 521.465625 56.84 
Q 519.465625 56.84 519.465625 58.84 
L 519.465625 87.19625 
Q 519.465625 89.19625 521.465625 89.19625 
z
" style="fill: #ffffff; opacity: 0.8; stroke: #cccccc; stroke-linejoin: miter"/>
    </g>
    <g id="line2d_29">
     <path d="M 523.465625 64.938437 
L 533.465625 64.938437 
L 543.465625 64.938437 
" style="fill: none; stroke: #ff0000; stroke-width: 1.5; stroke-linecap: square"/>
    </g>
    <g id="text_17">
     <!-- Baseline KF State -->
     <g transform="translate(551.465625 68.438437) scale(0.1 -0.1)">
      <defs>
       <path id="DejaVuSans-42" d="M 1259 2228 
L 1259 519 
L 2272 519 
Q 2781 519 3026 730 
Q 3272 941 3272 1375 
Q 3272 1813 3026 2020 
Q 2781 2228 2272 2228 
L 1259 2228 
z
M 1259 4147 
L 1259 2741 
L 2194 2741 
Q 2656 2741 2882 2914 
Q 3109 3088 3109 3444 
Q 3109 3797 2882 3972 
Q 2656 4147 2194 4147 
L 1259 4147 
z
M 628 4666 
L 2241 4666 
Q 2963 4666 3353 4366 
Q 3744 4066 3744 3513 
Q 3744 3084 3544 2831 
Q 3344 2578 2956 2516 
Q 3422 2416 3680 2098 
Q 3938 1781 3938 1306 
Q 3938 681 3513 340 
Q 3088 0 2303 0 
L 628 0 
L 628 4666 
z
" transform="scale(0.015625)"/>
       <path id="DejaVuSans-4b" d="M 628 4666 
L 1259 4666 
L 1259 2694 
L 3353 4666 
L 4166 4666 
L 1850 2491 
L 4331 0 
L 3500 0 
L 1259 2247 
L 1259 0 
L 628 0 
L 628 4666 
z
" transform="scale(0.015625)"/>
       <path id="DejaVuSans-46" d="M 628 4666 
L 3309 4666 
L 3309 4134 
L 1259 4134 
L 1259 2759 
L 3109 2759 
L 3109 2228 
L 1259 2228 
L 1259 0 
L 628 0 
L 628 4666 
z
" transform="scale(0.015625)"/>
      </defs>
      <use xlink:href="#DejaVuSans-42"/>
      <use xlink:href="#DejaVuSans-61" transform="translate(68.603516 0)"/>
      <use xlink:href="#DejaVuSans-73" transform="translate(129.882812 0)"/>
      <use xlink:href="#DejaVuSans-65" transform="translate(181.982422 0)"/>
      <use xlink:href="#DejaVuSans-6c" transform="translate(243.505859 0)"/>
      <use xlink:href="#DejaVuSans-69" transform="translate(271.289062 0)"/>
      <use xlink:href="#DejaVuSans-6e" transform="translate(299.072266 0)"/>
      <use xlink:href="#DejaVuSans-65" transform="translate(362.451172 0)"/>
      <use xlink:href="#DejaVuSans-20" transform="translate(423.974609 0)"/>
      <use xlink:href="#DejaVuSans-4b" transform="translate(455.761719 0)"/>
      <use xlink:href="#DejaVuSans-46" transform="translate(521.337891 0)"/>
      <use xlink:href="#DejaVuSans-20" transform="translate(578.857422 0)"/>
      <use xlink:href="#DejaVuSans-53" transform="translate(610.644531 0)"/>
      <use xlink:href="#DejaVuSans-74" transform="translate(674.121094 0)"/>
      <use xlink:href="#DejaVuSans-61" transform="translate(713.330078 0)"/>
      <use xlink:href="#DejaVuSans-74" transform="translate(774.609375 0)"/>
      <use xlink:href="#DejaVuSans-65" transform="translate(813.818359 0)"/>
     </g>
    </g>
    <g id="line2d_30">
     <path d="M 523.465625 79.616562 
L 533.465625 79.616562 
L 543.465625 79.616562 
" style="fill: none; stroke-dasharray: 5.55,2.4; stroke-dashoffset: 0; stroke: #0000ff; stroke-width: 1.5"/>
    </g>
    <g id="text_18">
     <!-- Shadow KF State -->
     <g transform="translate(551.465625 83.116562) scale(0.1 -0.1)">
      <defs>
       <path id="DejaVuSans-77" d="M 269 3500 
L 844 3500 
L 1563 769 
L 2278 3500 
L 2956 3500 
L 3675 769 
L 4391 3500 
L 4966 3500 
L 4050 0 
L 3372 0 
L 2619 2869 
L 1863 0 
L 1184 0 
L 269 3500 
z
" transform="scale(0.015625)"/>
      </defs>
      <use xlink:href="#DejaVuSans-53"/>
      <use xlink:href="#DejaVuSans-68" transform="translate(63.476562 0)"/>
      <use xlink:href="#DejaVuSans-61" transform="translate(126.855469 0)"/>
      <use xlink:href="#DejaVuSans-64" transform="translate(188.134766 0)"/>
      <use xlink:href="#DejaVuSans-6f" transform="translate(251.611328 0)"/>
      <use xlink:href="#DejaVuSans-77" transform="translate(312.792969 0)"/>
      <use xlink:href="#DejaVuSans-20" transform="translate(394.580078 0)"/>
      <use xlink:href="#DejaVuSans-4b" transform="translate(426.367188 0)"/>
      <use xlink:href="#DejaVuSans-46" transform="translate(491.943359 0)"/>
      <use xlink:href="#DejaVuSans-20" transform="translate(549.462891 0)"/>
      <use xlink:href="#DejaVuSans-53" transform="translate(581.25 0)"/>
      <use xlink:href="#DejaVuSans-74" transform="translate(644.726562 0)"/>
      <use xlink:href="#DejaVuSans-61" transform="translate(683.935547 0)"/>
      <use xlink:href="#DejaVuSans-74" transform="translate(745.214844 0)"/>
      <use xlink:href="#DejaVuSans-65" transform="translate(784.423828 0)"/>
     </g>
    </g>
   </g>
  </g>
 </g>
 <defs>
  <clipPath id="pcca75ee8c7">
   <rect x="90" y="51.84" width="558" height="332.64"/>
  </clipPath>
 </defs>
</svg>
