<?xml version="1.0" encoding="utf-8" standalone="no"?>
<!DOCTYPE svg PUBLIC "-//W3C//DTD SVG 1.1//EN"
  "http://www.w3.org/Graphics/SVG/1.1/DTD/svg11.dtd">
<svg xmlns:xlink="http://www.w3.org/1999/xlink" width="720pt" height="432pt" viewBox="0 0 720 432" xmlns="http://www.w3.org/2000/svg" version="1.1">
 <metadata>
  <rdf:RDF xmlns:dc="http://purl.org/dc/elements/1.1/" xmlns:cc="http://creativecommons.org/ns#" xmlns:rdf="http://www.w3.org/1999/02/22-rdf-syntax-ns#">
   <cc:Work>
    <dc:type rdf:resource="http://purl.org/dc/dcmitype/StillImage"/>
    <dc:date>2026-03-25T09:55:28.859839</dc:date>
    <dc:format>image/svg+xml</dc:format>
    <dc:creator>
     <cc:Agent>
      <dc:title>Matplotlib v3.10.8, https://matplotlib.org/</dc:title>
     </cc:Agent>
    </dc:creator>
   </cc:Work>
  </rdf:RDF>
 </metadata>
 <defs>
  <style type="text/css">*{stroke-linejoin: round; stroke-linecap: butt}</style>
 </defs>
 <g id="figure_1">
  <g id="patch_1">
   <path d="M 0 432 
L 720 432 
L 720 0 
L 0 0 
z
" style="fill: #ffffff"/>
  </g>
  <g id="axes_1">
   <g id="patch_2">
    <path d="M 90 384.48 
L 648 384.48 
L 648 51.84 
L 90 51.84 
z
" style="fill: #ffffff"/>
   </g>
   <g id="matplotlib.axis_1">
    <g id="xtick_1">
     <g id="line2d_1">
      <path d="M 115.363636 384.48 
L 115.363636 51.84 
" clip-path="url(#p269da09868)" style="fill: none; stroke: #b0b0b0; stroke-width: 0.8; stroke-linecap: square"/>
     </g>
     <g id="line2d_2">
      <defs>
       <path id="m8234f1ab84" d="M 0 0 
L 0 3.5 
" style="stroke: #000000; stroke-width: 0.8"/>
      </defs>
      <g>
       <use xlink:href="#m8234f1ab84" x="115.363636" y="384.48" style="stroke: #000000; stroke-width: 0.8"/>
      </g>
     </g>
     <g id="text_1">
      <!-- 0 -->
      <g transform="translate(112.182386 399.078438) scale(0.1 -0.1)">
       <defs>
        <path id="DejaVuSans-30" d="M 2034 4250 
Q 1547 4250 1301 3770 
Q 1056 3291 1056 2328 
Q 1056 1369 1301 889 
Q 1547 409 2034 409 
Q 2525 409 2770 889 
Q 3016 1369 3016 2328 
Q 3016 3291 2770 3770 
Q 2525 4250 2034 4250 
z
M 2034 4750 
Q 2819 4750 3233 4129 
Q 3647 3509 3647 2328 
Q 3647 1150 3233 529 
Q 2819 -91 2034 -91 
Q 1250 -91 836 529 
Q 422 1150 422 2328 
Q 422 3509 836 4129 
Q 1250 4750 2034 4750 
z
" transform="scale(0.015625)"/>
       </defs>
       <use xlink:href="#DejaVuSans-30"/>
      </g>
     </g>
    </g>
    <g id="xtick_2">
     <g id="line2d_3">
      <path d="M 201.605174 384.48 
L 201.605174 51.84 
" clip-path="url(#p269da09868)" style="fill: none; stroke: #b0b0b0; stroke-width: 0.8; stroke-linecap: square"/>
     </g>
     <g id="line2d_4">
      <g>
       <use xlink:href="#m8234f1ab84" x="201.605174" y="384.48" style="stroke: #000000; stroke-width: 0.8"/>
      </g>
     </g>
     <g id="text_2">
      <!-- 50 -->
      <g transform="translate(195.242674 399.078438) scale(0.1 -0.1)">
       <defs>
        <path id="DejaVuSans-35" d="M 691 4666 
L 3169 4666 
L 3169 4134 
L 1269 4134 
L 1269 2991 
Q 1406 3038 1543 3061 
Q 1681 3084 1819 3084 
Q 2600 3084 3056 2656 
Q 3513 2228 3513 1497 
Q 3513 744 3044 326 
Q 2575 -91 1722 -91 
Q 1428 -91 1123 -41 
Q 819 9 494 109 
L 494 744 
Q 775 591 1075 516 
Q 1375 441 1709 441 
Q 2250 441 2565 725 
Q 2881 1009 2881 1497 
Q 2881 1984 2565 2268 
Q 2250 2553 1709 2553 
Q 1456 2553 1204 2497 
Q 953 2441 691 2322 
L 691 4666 
z
" transform="scale(0.015625)"/>
       </defs>
       <use xlink:href="#DejaVuSans-35"/>
       <use xlink:href="#DejaVuSans-30" transform="translate(63.623047 0)"/>
      </g>
     </g>
    </g>
    <g id="xtick_3">
     <g id="line2d_5">
      <path d="M 287.846713 384.48 
L 287.846713 51.84 
" clip-path="url(#p269da09868)" style="fill: none; stroke: #b0b0b0; stroke-width: 0.8; stroke-linecap: square"/>
     </g>
     <g id="line2d_6">
      <g>
       <use xlink:href="#m8234f1ab84" x="287.846713" y="384.48" style="stroke: #000000; stroke-width: 0.8"/>
      </g>
     </g>
     <g id="text_3">
      <!-- 100 -->
      <g transform="translate(278.302963 399.078438) scale(0.1 -0.1)">
       <defs>
        <path id="DejaVuSans-31" d="M 794 531 
L 1825 531 
L 1825 4091 
L 703 3866 
L 703 4441 
L 1819 4666 
L 2450 4666 
L 2450 531 
L 3481 531 
L 3481 0 
L 794 0 
L 794 531 
z
" transform="scale(0.015625)"/>
       </defs>
       <use xlink:href="#DejaVuSans-31"/>
       <use xlink:href="#DejaVuSans-30" transform="translate(63.623047 0)"/>
       <use xlink:href="#DejaVuSans-30" transform="translate(127.246094 0)"/>
      </g>
     </g>
    </g>
    <g id="xtick_4">
     <g id="line2d_7">
      <path d="M 374.088251 384.48 
L 374.088251 51.84 
" clip-path="url(#p269da09868)" style="fill: none; stroke: #b0b0b0; stroke-width: 0.8; stroke-linecap: square"/>
     </g>
     <g id="line2d_8">
      <g>
       <use xlink:href="#m8234f1ab84" x="374.088251" y="384.48" style="stroke: #000000; stroke-width: 0.8"/>
      </g>
     </g>
     <g id="text_4">
      <!-- 150 -->
      <g transform="translate(364.544501 399.078438) scale(0.1 -0.1)">
       <use xlink:href="#DejaVuSans-31"/>
       <use xlink:href="#DejaVuSans-35" transform="translate(63.623047 0)"/>
       <use xlink:href="#DejaVuSans-30" transform="translate(127.246094 0)"/>
      </g>
     </g>
    </g>
    <g id="xtick_5">
     <g id="line2d_9">
      <path d="M 460.329789 384.48 
L 460.329789 51.84 
" clip-path="url(#p269da09868)" style="fill: none; stroke: #b0b0b0; stroke-width: 0.8; stroke-linecap: square"/>
     </g>
     <g id="line2d_10">
      <g>
       <use xlink:href="#m8234f1ab84" x="460.329789" y="384.48" style="stroke: #000000; stroke-width: 0.8"/>
      </g>
     </g>
     <g id="text_5">
      <!-- 200 -->
      <g transform="translate(450.786039 399.078438) scale(0.1 -0.1)">
       <defs>
        <path id="DejaVuSans-32" d="M 1228 531 
L 3431 531 
L 3431 0 
L 469 0 
L 469 531 
Q 828 903 1448 1529 
Q 2069 2156 2228 2338 
Q 2531 2678 2651 2914 
Q 2772 3150 2772 3378 
Q 2772 3750 2511 3984 
Q 2250 4219 1831 4219 
Q 1534 4219 1204 4116 
Q 875 4013 500 3803 
L 500 4441 
Q 881 4594 1212 4672 
Q 1544 4750 1819 4750 
Q 2544 4750 2975 4387 
Q 3406 4025 3406 3419 
Q 3406 3131 3298 2873 
Q 3191 2616 2906 2266 
Q 2828 2175 2409 1742 
Q 1991 1309 1228 531 
z
" transform="scale(0.015625)"/>
       </defs>
       <use xlink:href="#DejaVuSans-32"/>
       <use xlink:href="#DejaVuSans-30" transform="translate(63.623047 0)"/>
       <use xlink:href="#DejaVuSans-30" transform="translate(127.246094 0)"/>
      </g>
     </g>
    </g>
    <g id="xtick_6">
     <g id="line2d_11">
      <path d="M 546.571327 384.48 
L 546.571327 51.84 
" clip-path="url(#p269da09868)" style="fill: none; stroke: #b0b0b0; stroke-width: 0.8; stroke-linecap: square"/>
     </g>
     <g id="line2d_12">
      <g>
       <use xlink:href="#m8234f1ab84" x="546.571327" y="384.48" style="stroke: #000000; stroke-width: 0.8"/>
      </g>
     </g>
     <g id="text_6">
      <!-- 250 -->
      <g transform="translate(537.027577 399.078438) scale(0.1 -0.1)">
       <use xlink:href="#DejaVuSans-32"/>
       <use xlink:href="#DejaVuSans-35" transform="translate(63.623047 0)"/>
       <use xlink:href="#DejaVuSans-30" transform="translate(127.246094 0)"/>
      </g>
     </g>
    </g>
    <g id="xtick_7">
     <g id="line2d_13">
      <path d="M 632.812865 384.48 
L 632.812865 51.84 
" clip-path="url(#p269da09868)" style="fill: none; stroke: #b0b0b0; stroke-width: 0.8; stroke-linecap: square"/>
     </g>
     <g id="line2d_14">
      <g>
       <use xlink:href="#m8234f1ab84" x="632.812865" y="384.48" style="stroke: #000000; stroke-width: 0.8"/>
      </g>
     </g>
     <g id="text_7">
      <!-- 300 -->
      <g transform="translate(623.269115 399.078438) scale(0.1 -0.1)">
       <defs>
        <path id="DejaVuSans-33" d="M 2597 2516 
Q 3050 2419 3304 2112 
Q 3559 1806 3559 1356 
Q 3559 666 3084 287 
Q 2609 -91 1734 -91 
Q 1441 -91 1130 -33 
Q 819 25 488 141 
L 488 750 
Q 750 597 1062 519 
Q 1375 441 1716 441 
Q 2309 441 2620 675 
Q 2931 909 2931 1356 
Q 2931 1769 2642 2001 
Q 2353 2234 1838 2234 
L 1294 2234 
L 1294 2753 
L 1863 2753 
Q 2328 2753 2575 2939 
Q 2822 3125 2822 3475 
Q 2822 3834 2567 4026 
Q 2313 4219 1838 4219 
Q 1578 4219 1281 4162 
Q 984 4106 628 3988 
L 628 4550 
Q 988 4650 1302 4700 
Q 1616 4750 1894 4750 
Q 2613 4750 3031 4423 
Q 3450 4097 3450 3541 
Q 3450 3153 3228 2886 
Q 3006 2619 2597 2516 
z
" transform="scale(0.015625)"/>
       </defs>
       <use xlink:href="#DejaVuSans-33"/>
       <use xlink:href="#DejaVuSans-30" transform="translate(63.623047 0)"/>
       <use xlink:href="#DejaVuSans-30" transform="translate(127.246094 0)"/>
      </g>
     </g>
    </g>
    <g id="text_8">
     <!-- Maneuver Time (s) -->
     <g transform="translate(322.198438 412.756563) scale(0.1 -0.1)">
      <defs>
       <path id="DejaVuSans-4d" d="M 628 4666 
L 1569 4666 
L 2759 1491 
L 3956 4666 
L 4897 4666 
L 4897 0 
L 4281 0 
L 4281 4097 
L 3078 897 
L 2444 897 
L 1241 4097 
L 1241 0 
L 628 0 
L 628 4666 
z
" transform="scale(0.015625)"/>
       <path id="DejaVuSans-61" d="M 2194 1759 
Q 1497 1759 1228 1600 
Q 959 1441 959 1056 
Q 959 750 1161 570 
Q 1363 391 1709 391 
Q 2188 391 2477 730 
Q 2766 1069 2766 1631 
L 2766 1759 
L 2194 1759 
z
M 3341 1997 
L 3341 0 
L 2766 0 
L 2766 531 
Q 2569 213 2275 61 
Q 1981 -91 1556 -91 
Q 1019 -91 701 211 
Q 384 513 384 1019 
Q 384 1609 779 1909 
Q 1175 2209 1959 2209 
L 2766 2209 
L 2766 2266 
Q 2766 2663 2505 2880 
Q 2244 3097 1772 3097 
Q 1472 3097 1187 3025 
Q 903 2953 641 2809 
L 641 3341 
Q 956 3463 1253 3523 
Q 1550 3584 1831 3584 
Q 2591 3584 2966 3190 
Q 3341 2797 3341 1997 
z
" transform="scale(0.015625)"/>
       <path id="DejaVuSans-6e" d="M 3513 2113 
L 3513 0 
L 2938 0 
L 2938 2094 
Q 2938 2591 2744 2837 
Q 2550 3084 2163 3084 
Q 1697 3084 1428 2787 
Q 1159 2491 1159 1978 
L 1159 0 
L 581 0 
L 581 3500 
L 1159 3500 
L 1159 2956 
Q 1366 3272 1645 3428 
Q 1925 3584 2291 3584 
Q 2894 3584 3203 3211 
Q 3513 2838 3513 2113 
z
" transform="scale(0.015625)"/>
       <path id="DejaVuSans-65" d="M 3597 1894 
L 3597 1613 
L 953 1613 
Q 991 1019 1311 708 
Q 1631 397 2203 397 
Q 2534 397 2845 478 
Q 3156 559 3463 722 
L 3463 178 
Q 3153 47 2828 -22 
Q 2503 -91 2169 -91 
Q 1331 -91 842 396 
Q 353 884 353 1716 
Q 353 2575 817 3079 
Q 1281 3584 2069 3584 
Q 2775 3584 3186 3129 
Q 3597 2675 3597 1894 
z
M 3022 2063 
Q 3016 2534 2758 2815 
Q 2500 3097 2075 3097 
Q 1594 3097 1305 2825 
Q 1016 2553 972 2059 
L 3022 2063 
z
" transform="scale(0.015625)"/>
       <path id="DejaVuSans-75" d="M 544 1381 
L 544 3500 
L 1119 3500 
L 1119 1403 
Q 1119 906 1312 657 
Q 1506 409 1894 409 
Q 2359 409 2629 706 
Q 2900 1003 2900 1516 
L 2900 3500 
L 3475 3500 
L 3475 0 
L 2900 0 
L 2900 538 
Q 2691 219 2414 64 
Q 2138 -91 1772 -91 
Q 1169 -91 856 284 
Q 544 659 544 1381 
z
M 1991 3584 
L 1991 3584 
z
" transform="scale(0.015625)"/>
       <path id="DejaVuSans-76" d="M 191 3500 
L 800 3500 
L 1894 563 
L 2988 3500 
L 3597 3500 
L 2284 0 
L 1503 0 
L 191 3500 
z
" transform="scale(0.015625)"/>
       <path id="DejaVuSans-72" d="M 2631 2963 
Q 2534 3019 2420 3045 
Q 2306 3072 2169 3072 
Q 1681 3072 1420 2755 
Q 1159 2438 1159 1844 
L 1159 0 
L 581 0 
L 581 3500 
L 1159 3500 
L 1159 2956 
Q 1341 3275 1631 3429 
Q 1922 3584 2338 3584 
Q 2397 3584 2469 3576 
Q 2541 3569 2628 3553 
L 2631 2963 
z
" transform="scale(0.015625)"/>
       <path id="DejaVuSans-20" transform="scale(0.015625)"/>
       <path id="DejaVuSans-54" d="M -19 4666 
L 3928 4666 
L 3928 4134 
L 2272 4134 
L 2272 0 
L 1638 0 
L 1638 4134 
L -19 4134 
L -19 4666 
z
" transform="scale(0.015625)"/>
       <path id="DejaVuSans-69" d="M 603 3500 
L 1178 3500 
L 1178 0 
L 603 0 
L 603 3500 
z
M 603 4863 
L 1178 4863 
L 1178 4134 
L 603 4134 
L 603 4863 
z
" transform="scale(0.015625)"/>
       <path id="DejaVuSans-6d" d="M 3328 2828 
Q 3544 3216 3844 3400 
Q 4144 3584 4550 3584 
Q 5097 3584 5394 3201 
Q 5691 2819 5691 2113 
L 5691 0 
L 5113 0 
L 5113 2094 
Q 5113 2597 4934 2840 
Q 4756 3084 4391 3084 
Q 3944 3084 3684 2787 
Q 3425 2491 3425 1978 
L 3425 0 
L 2847 0 
L 2847 2094 
Q 2847 2600 2669 2842 
Q 2491 3084 2119 3084 
Q 1678 3084 1418 2786 
Q 1159 2488 1159 1978 
L 1159 0 
L 581 0 
L 581 3500 
L 1159 3500 
L 1159 2956 
Q 1356 3278 1631 3431 
Q 1906 3584 2284 3584 
Q 2666 3584 2933 3390 
Q 3200 3197 3328 2828 
z
" transform="scale(0.015625)"/>
       <path id="DejaVuSans-28" d="M 1984 4856 
Q 1566 4138 1362 3434 
Q 1159 2731 1159 2009 
Q 1159 1288 1364 580 
Q 1569 -128 1984 -844 
L 1484 -844 
Q 1016 -109 783 600 
Q 550 1309 550 2009 
Q 550 2706 781 3412 
Q 1013 4119 1484 4856 
L 1984 4856 
z
" transform="scale(0.015625)"/>
       <path id="DejaVuSans-73" d="M 2834 3397 
L 2834 2853 
Q 2591 2978 2328 3040 
Q 2066 3103 1784 3103 
Q 1356 3103 1142 2972 
Q 928 2841 928 2578 
Q 928 2378 1081 2264 
Q 1234 2150 1697 2047 
L 1894 2003 
Q 2506 1872 2764 1633 
Q 3022 1394 3022 966 
Q 3022 478 2636 193 
Q 2250 -91 1575 -91 
Q 1294 -91 989 -36 
Q 684 19 347 128 
L 347 722 
Q 666 556 975 473 
Q 1284 391 1588 391 
Q 1994 391 2212 530 
Q 2431 669 2431 922 
Q 2431 1156 2273 1281 
Q 2116 1406 1581 1522 
L 1381 1569 
Q 847 1681 609 1914 
Q 372 2147 372 2553 
Q 372 3047 722 3315 
Q 1072 3584 1716 3584 
Q 2034 3584 2315 3537 
Q 2597 3491 2834 3397 
z
" transform="scale(0.015625)"/>
       <path id="DejaVuSans-29" d="M 513 4856 
L 1013 4856 
Q 1481 4119 1714 3412 
Q 1947 2706 1947 2009 
Q 1947 1309 1714 600 
Q 1481 -109 1013 -844 
L 513 -844 
Q 928 -128 1133 580 
Q 1338 1288 1338 2009 
Q 1338 2731 1133 3434 
Q 928 4138 513 4856 
z
" transform="scale(0.015625)"/>
      </defs>
      <use xlink:href="#DejaVuSans-4d"/>
      <use xlink:href="#DejaVuSans-61" transform="translate(86.279297 0)"/>
      <use xlink:href="#DejaVuSans-6e" transform="translate(147.558594 0)"/>
      <use xlink:href="#DejaVuSans-65" transform="translate(210.9375 0)"/>
      <use xlink:href="#DejaVuSans-75" transform="translate(272.460938 0)"/>
      <use xlink:href="#DejaVuSans-76" transform="translate(335.839844 0)"/>
      <use xlink:href="#DejaVuSans-65" transform="translate(395.019531 0)"/>
      <use xlink:href="#DejaVuSans-72" transform="translate(456.542969 0)"/>
      <use xlink:href="#DejaVuSans-20" transform="translate(497.65625 0)"/>
      <use xlink:href="#DejaVuSans-54" transform="translate(529.443359 0)"/>
      <use xlink:href="#DejaVuSans-69" transform="translate(587.402344 0)"/>
      <use xlink:href="#DejaVuSans-6d" transform="translate(615.185547 0)"/>
      <use xlink:href="#DejaVuSans-65" transform="translate(712.597656 0)"/>
      <use xlink:href="#DejaVuSans-20" transform="translate(774.121094 0)"/>
      <use xlink:href="#DejaVuSans-28" transform="translate(805.908203 0)"/>
      <use xlink:href="#DejaVuSans-73" transform="translate(844.921875 0)"/>
      <use xlink:href="#DejaVuSans-29" transform="translate(897.021484 0)"/>
     </g>
    </g>
   </g>
   <g id="matplotlib.axis_2">
    <g id="ytick_1">
     <g id="line2d_15">
      <path d="M 90 355.468604 
L 648 355.468604 
" clip-path="url(#p269da09868)" style="fill: none; stroke: #b0b0b0; stroke-width: 0.8; stroke-linecap: square"/>
     </g>
     <g id="line2d_16">
      <defs>
       <path id="m522eeefbca" d="M 0 0 
L -3.5 0 
" style="stroke: #000000; stroke-width: 0.8"/>
      </defs>
      <g>
       <use xlink:href="#m522eeefbca" x="90" y="355.468604" style="stroke: #000000; stroke-width: 0.8"/>
      </g>
     </g>
     <g id="text_9">
      <!-- −0.0006 -->
      <g transform="translate(39.629687 359.267822) scale(0.1 -0.1)">
       <defs>
        <path id="DejaVuSans-2212" d="M 678 2272 
L 4684 2272 
L 4684 1741 
L 678 1741 
L 678 2272 
z
" transform="scale(0.015625)"/>
        <path id="DejaVuSans-2e" d="M 684 794 
L 1344 794 
L 1344 0 
L 684 0 
L 684 794 
z
" transform="scale(0.015625)"/>
        <path id="DejaVuSans-36" d="M 2113 2584 
Q 1688 2584 1439 2293 
Q 1191 2003 1191 1497 
Q 1191 994 1439 701 
Q 1688 409 2113 409 
Q 2538 409 2786 701 
Q 3034 994 3034 1497 
Q 3034 2003 2786 2293 
Q 2538 2584 2113 2584 
z
M 3366 4563 
L 3366 3988 
Q 3128 4100 2886 4159 
Q 2644 4219 2406 4219 
Q 1781 4219 1451 3797 
Q 1122 3375 1075 2522 
Q 1259 2794 1537 2939 
Q 1816 3084 2150 3084 
Q 2853 3084 3261 2657 
Q 3669 2231 3669 1497 
Q 3669 778 3244 343 
Q 2819 -91 2113 -91 
Q 1303 -91 875 529 
Q 447 1150 447 2328 
Q 447 3434 972 4092 
Q 1497 4750 2381 4750 
Q 2619 4750 2861 4703 
Q 3103 4656 3366 4563 
z
" transform="scale(0.015625)"/>
       </defs>
       <use xlink:href="#DejaVuSans-2212"/>
       <use xlink:href="#DejaVuSans-30" transform="translate(83.789062 0)"/>
       <use xlink:href="#DejaVuSans-2e" transform="translate(147.412109 0)"/>
       <use xlink:href="#DejaVuSans-30" transform="translate(179.199219 0)"/>
       <use xlink:href="#DejaVuSans-30" transform="translate(242.822266 0)"/>
       <use xlink:href="#DejaVuSans-30" transform="translate(306.445312 0)"/>
       <use xlink:href="#DejaVuSans-36" transform="translate(370.068359 0)"/>
      </g>
     </g>
    </g>
    <g id="ytick_2">
     <g id="line2d_17">
      <path d="M 90 292.316692 
L 648 292.316692 
" clip-path="url(#p269da09868)" style="fill: none; stroke: #b0b0b0; stroke-width: 0.8; stroke-linecap: square"/>
     </g>
     <g id="line2d_18">
      <g>
       <use xlink:href="#m522eeefbca" x="90" y="292.316692" style="stroke: #000000; stroke-width: 0.8"/>
      </g>
     </g>
     <g id="text_10">
      <!-- −0.0004 -->
      <g transform="translate(39.629687 296.115911) scale(0.1 -0.1)">
       <defs>
        <path id="DejaVuSans-34" d="M 2419 4116 
L 825 1625 
L 2419 1625 
L 2419 4116 
z
M 2253 4666 
L 3047 4666 
L 3047 1625 
L 3713 1625 
L 3713 1100 
L 3047 1100 
L 3047 0 
L 2419 0 
L 2419 1100 
L 313 1100 
L 313 1709 
L 2253 4666 
z
" transform="scale(0.015625)"/>
       </defs>
       <use xlink:href="#DejaVuSans-2212"/>
       <use xlink:href="#DejaVuSans-30" transform="translate(83.789062 0)"/>
       <use xlink:href="#DejaVuSans-2e" transform="translate(147.412109 0)"/>
       <use xlink:href="#DejaVuSans-30" transform="translate(179.199219 0)"/>
       <use xlink:href="#DejaVuSans-30" transform="translate(242.822266 0)"/>
       <use xlink:href="#DejaVuSans-30" transform="translate(306.445312 0)"/>
       <use xlink:href="#DejaVuSans-34" transform="translate(370.068359 0)"/>
      </g>
     </g>
    </g>
    <g id="ytick_3">
     <g id="line2d_19">
      <path d="M 90 229.164781 
L 648 229.164781 
" clip-path="url(#p269da09868)" style="fill: none; stroke: #b0b0b0; stroke-width: 0.8; stroke-linecap: square"/>
     </g>
     <g id="line2d_20">
      <g>
       <use xlink:href="#m522eeefbca" x="90" y="229.164781" style="stroke: #000000; stroke-width: 0.8"/>
      </g>
     </g>
     <g id="text_11">
      <!-- −0.0002 -->
      <g transform="translate(39.629687 232.964) scale(0.1 -0.1)">
       <use xlink:href="#DejaVuSans-2212"/>
       <use xlink:href="#DejaVuSans-30" transform="translate(83.789062 0)"/>
       <use xlink:href="#DejaVuSans-2e" transform="translate(147.412109 0)"/>
       <use xlink:href="#DejaVuSans-30" transform="translate(179.199219 0)"/>
       <use xlink:href="#DejaVuSans-30" transform="translate(242.822266 0)"/>
       <use xlink:href="#DejaVuSans-30" transform="translate(306.445312 0)"/>
       <use xlink:href="#DejaVuSans-32" transform="translate(370.068359 0)"/>
      </g>
     </g>
    </g>
    <g id="ytick_4">
     <g id="line2d_21">
      <path d="M 90 166.01287 
L 648 166.01287 
" clip-path="url(#p269da09868)" style="fill: none; stroke: #b0b0b0; stroke-width: 0.8; stroke-linecap: square"/>
     </g>
     <g id="line2d_22">
      <g>
       <use xlink:href="#m522eeefbca" x="90" y="166.01287" style="stroke: #000000; stroke-width: 0.8"/>
      </g>
     </g>
     <g id="text_12">
      <!-- 0.0000 -->
      <g transform="translate(48.009375 169.812089) scale(0.1 -0.1)">
       <use xlink:href="#DejaVuSans-30"/>
       <use xlink:href="#DejaVuSans-2e" transform="translate(63.623047 0)"/>
       <use xlink:href="#DejaVuSans-30" transform="translate(95.410156 0)"/>
       <use xlink:href="#DejaVuSans-30" transform="translate(159.033203 0)"/>
       <use xlink:href="#DejaVuSans-30" transform="translate(222.65625 0)"/>
       <use xlink:href="#DejaVuSans-30" transform="translate(286.279297 0)"/>
      </g>
     </g>
    </g>
    <g id="ytick_5">
     <g id="line2d_23">
      <path d="M 90 102.860959 
L 648 102.860959 
" clip-path="url(#p269da09868)" style="fill: none; stroke: #b0b0b0; stroke-width: 0.8; stroke-linecap: square"/>
     </g>
     <g id="line2d_24">
      <g>
       <use xlink:href="#m522eeefbca" x="90" y="102.860959" style="stroke: #000000; stroke-width: 0.8"/>
      </g>
     </g>
     <g id="text_13">
      <!-- 0.0002 -->
      <g transform="translate(48.009375 106.660178) scale(0.1 -0.1)">
       <use xlink:href="#DejaVuSans-30"/>
       <use xlink:href="#DejaVuSans-2e" transform="translate(63.623047 0)"/>
       <use xlink:href="#DejaVuSans-30" transform="translate(95.410156 0)"/>
       <use xlink:href="#DejaVuSans-30" transform="translate(159.033203 0)"/>
       <use xlink:href="#DejaVuSans-30" transform="translate(222.65625 0)"/>
       <use xlink:href="#DejaVuSans-32" transform="translate(286.279297 0)"/>
      </g>
     </g>
    </g>
    <g id="text_14">
     <!-- Estimated Value -->
     <g transform="translate(33.55 258.738906) rotate(-90) scale(0.1 -0.1)">
      <defs>
       <path id="DejaVuSans-45" d="M 628 4666 
L 3578 4666 
L 3578 4134 
L 1259 4134 
L 1259 2753 
L 3481 2753 
L 3481 2222 
L 1259 2222 
L 1259 531 
L 3634 531 
L 3634 0 
L 628 0 
L 628 4666 
z
" transform="scale(0.015625)"/>
       <path id="DejaVuSans-74" d="M 1172 4494 
L 1172 3500 
L 2356 3500 
L 2356 3053 
L 1172 3053 
L 1172 1153 
Q 1172 725 1289 603 
Q 1406 481 1766 481 
L 2356 481 
L 2356 0 
L 1766 0 
Q 1100 0 847 248 
Q 594 497 594 1153 
L 594 3053 
L 172 3053 
L 172 3500 
L 594 3500 
L 594 4494 
L 1172 4494 
z
" transform="scale(0.015625)"/>
       <path id="DejaVuSans-64" d="M 2906 2969 
L 2906 4863 
L 3481 4863 
L 3481 0 
L 2906 0 
L 2906 525 
Q 2725 213 2448 61 
Q 2172 -91 1784 -91 
Q 1150 -91 751 415 
Q 353 922 353 1747 
Q 353 2572 751 3078 
Q 1150 3584 1784 3584 
Q 2172 3584 2448 3432 
Q 2725 3281 2906 2969 
z
M 947 1747 
Q 947 1113 1208 752 
Q 1469 391 1925 391 
Q 2381 391 2643 752 
Q 2906 1113 2906 1747 
Q 2906 2381 2643 2742 
Q 2381 3103 1925 3103 
Q 1469 3103 1208 2742 
Q 947 2381 947 1747 
z
" transform="scale(0.015625)"/>
       <path id="DejaVuSans-56" d="M 1831 0 
L 50 4666 
L 709 4666 
L 2188 738 
L 3669 4666 
L 4325 4666 
L 2547 0 
L 1831 0 
z
" transform="scale(0.015625)"/>
       <path id="DejaVuSans-6c" d="M 603 4863 
L 1178 4863 
L 1178 0 
L 603 0 
L 603 4863 
z
" transform="scale(0.015625)"/>
      </defs>
      <use xlink:href="#DejaVuSans-45"/>
      <use xlink:href="#DejaVuSans-73" transform="translate(63.183594 0)"/>
      <use xlink:href="#DejaVuSans-74" transform="translate(115.283203 0)"/>
      <use xlink:href="#DejaVuSans-69" transform="translate(154.492188 0)"/>
      <use xlink:href="#DejaVuSans-6d" transform="translate(182.275391 0)"/>
      <use xlink:href="#DejaVuSans-61" transform="translate(279.6875 0)"/>
      <use xlink:href="#DejaVuSans-74" transform="translate(340.966797 0)"/>
      <use xlink:href="#DejaVuSans-65" transform="translate(380.175781 0)"/>
      <use xlink:href="#DejaVuSans-64" transform="translate(441.699219 0)"/>
      <use xlink:href="#DejaVuSans-20" transform="translate(505.175781 0)"/>
      <use xlink:href="#DejaVuSans-56" transform="translate(536.962891 0)"/>
      <use xlink:href="#DejaVuSans-61" transform="translate(597.621094 0)"/>
      <use xlink:href="#DejaVuSans-6c" transform="translate(658.900391 0)"/>
      <use xlink:href="#DejaVuSans-75" transform="translate(686.683594 0)"/>
      <use xlink:href="#DejaVuSans-65" transform="translate(750.0625 0)"/>
     </g>
    </g>
   </g>
   <g id="line2d_25">
    <path d="M 115.363636 166.01287 
L 118.261352 163.236716 
L 119.779203 161.452174 
L 121.090074 159.568247 
L 122.400946 157.289222 
L 123.815307 154.366665 
L 125.436648 150.482621 
L 127.333962 145.889427 
L 128.334364 145.406781 
L 128.88631 145.342439 
L 128.920806 217.639642 
L 129.024296 215.286943 
L 129.231276 210.734419 
L 129.472752 209.741572 
L 129.748725 209.438787 
L 130.162684 209.334113 
L 130.92161 209.416446 
L 132.335971 209.823776 
L 134.060802 210.550874 
L 135.751136 211.510415 
L 137.510463 212.775219 
L 139.545764 214.525693 
L 142.339989 217.249123 
L 144.340793 219.181184 
L 144.444283 218.792223 
L 144.616766 216.821025 
L 144.892739 210.395546 
L 145.306698 194.301789 
L 145.927637 165.274598 
L 145.962134 165.29229 
L 146.100121 125.857348 
L 146.238107 126.598903 
L 146.548577 127.856488 
L 147.031529 128.790851 
L 148.44589 130.843982 
L 150.929647 134.552769 
L 152.688974 137.51329 
L 152.723471 137.476615 
L 152.757967 136.996279 
L 153.206423 103.033276 
L 153.723873 75.053141 
L 154.034342 67.66403 
L 154.172329 66.96 
L 154.206825 67.037378 
L 154.379308 67.891103 
L 154.413805 67.879868 
L 154.551791 74.90805 
L 154.862261 75.641845 
L 155.138234 75.749733 
L 155.621186 75.641738 
L 156.759575 75.090252 
L 159.519304 73.476078 
L 161.209638 72.335647 
L 161.347624 71.605032 
L 161.382121 71.652305 
L 161.485611 72.415939 
L 161.658094 75.734923 
L 161.934067 86.098154 
L 162.348026 111.538212 
L 162.899972 145.260905 
L 163.072455 145.480374 
L 164.003864 147.584757 
L 168.177954 157.158638 
L 169.626812 160.780636 
L 169.695805 163.620722 
L 170.730704 243.902783 
L 171.110167 258.055716 
L 171.28265 259.856341 
L 171.317146 259.867096 
L 171.455133 263.901957 
L 172.490031 269.421877 
L 173.21446 271.749375 
L 174.076876 273.780785 
L 175.146271 275.727576 
L 176.526135 277.761176 
L 178.11298 279.806987 
L 178.319959 281.64894 
L 178.354456 281.583474 
L 178.457946 280.691941 
L 178.664925 275.828586 
L 178.975395 261.311158 
L 179.423851 227.910756 
L 179.768817 205.407394 
L 179.9413 205.16135 
L 181.183178 202.988241 
L 183.011499 199.288984 
L 185.460759 193.809968 
L 186.909616 190.701142 
L 188.048005 189.094086 
L 188.220488 188.820967 
L 188.254984 171.703343 
L 188.323978 191.3929 
L 188.496461 201.207876 
L 188.634447 201.507638 
L 188.668944 201.495967 
L 188.875923 201.231118 
L 189.600352 199.757322 
L 192.843034 192.447706 
L 195.016321 187.488234 
L 195.050818 187.561969 
L 196.361689 191.647469 
L 196.637662 191.918136 
L 196.672159 191.913784 
L 196.810145 303.274075 
L 196.948131 303.287261 
L 198.500479 301.769082 
L 201.398195 298.780945 
L 203.433495 296.492244 
L 203.502488 297.4822 
L 203.778461 302.657717 
L 203.847454 302.942271 
L 203.916448 302.81286 
L 204.054434 301.316442 
L 204.261414 296.046581 
L 204.571883 281.851589 
L 205.089333 250.659191 
L 205.123829 250.708993 
L 205.261816 262.039188 
L 205.813762 264.438807 
L 206.676177 266.875346 
L 209.09094 272.809705 
L 211.885166 279.455269 
L 211.919662 279.070241 
L 212.195635 258.784438 
L 213.36852 173.237859 
L 213.541003 168.491979 
L 213.5755 168.495122 
L 213.713486 168.38954 
L 214.023956 168.160659 
L 214.644895 167.747048 
L 215.231338 167.636699 
L 215.886773 167.743774 
L 216.714692 168.11668 
L 217.74959 168.846138 
L 218.991469 170.011965 
L 220.336837 171.511776 
L 220.40583 172.886329 
L 220.750796 192.194558 
L 221.371735 241.255794 
L 221.992674 287.310388 
L 222.027171 287.386214 
L 222.165157 291.597279 
L 223.786498 300.060483 
L 225.097369 305.290525 
L 226.891193 311.488283 
L 228.823004 317.956487 
L 229.650923 359.805159 
L 229.857902 361.664662 
L 229.926896 361.410818 
L 230.064882 359.59692 
L 230.306358 352.356404 
L 230.478841 349.143745 
L 230.616828 348.706358 
L 231.755216 348.404911 
L 232.583135 347.810685 
L 233.75602 346.672132 
L 235.342864 344.799875 
L 237.240178 342.249822 
L 237.309171 340.717504 
L 237.688634 317.196575 
L 238.413063 254.732059 
L 238.896016 218.762144 
L 238.930512 218.677953 
L 239.068499 214.348859 
L 239.999907 211.533733 
L 242.242187 205.511349 
L 245.829835 195.874265 
L 246.830237 190.049206 
L 247.382183 187.935731 
L 247.520169 172.699478 
L 248.244598 170.647734 
L 250.521375 165.285214 
L 254.178016 156.672652 
L 254.660969 150.473649 
L 255.833854 137.052698 
L 255.86835 138.359991 
L 255.97184 138.232406 
L 256.3858 137.617741 
L 257.317208 135.580224 
L 261.767271 125.035556 
L 262.629687 123.069216 
L 262.90566 125.266404 
L 264.216531 136.038374 
L 264.285524 135.905619 
L 264.423511 134.269773 
L 266.251831 128.22056 
L 268.735588 121.140705 
L 271.081358 114.827594 
L 271.288337 116.405235 
L 272.150753 124.618543 
L 272.668202 129.935701 
L 272.737195 129.801864 
L 272.875182 126.665146 
L 274.151556 121.426002 
L 275.565918 116.853114 
L 277.980681 109.883546 
L 279.533028 105.735042 
L 279.774505 107.984719 
L 281.119873 120.867701 
L 281.154369 120.803772 
L 281.188866 120.72784 
L 281.326852 119.099827 
L 283.120676 113.767134 
L 284.431548 110.243272 
L 284.466044 166.01287 
L 284.569534 166.002499 
L 289.744026 165.274223 
L 292.469259 164.646414 
L 295.435968 163.724714 
L 296.677846 163.414759 
L 297.988718 163.354685 
L 298.023214 162.553165 
L 298.092207 162.788002 
L 298.299187 163.387173 
L 298.609657 163.548873 
L 299.748045 163.742834 
L 304.025625 164.449653 
L 306.716361 165.147217 
L 309.855553 166.205966 
L 313.443201 167.62249 
L 313.891657 169.174951 
L 315.064542 173.736242 
L 315.133535 168.809354 
L 315.202529 168.928405 
L 315.616488 169.912013 
L 316.030447 170.206067 
L 316.892863 170.491684 
L 319.825075 171.125534 
L 322.757287 171.661276 
L 323.205743 171.317215 
L 323.516213 171.071467 
L 323.550709 169.299244 
L 323.654199 169.394554 
L 324.068159 169.879549 
L 324.551111 170.003424 
L 325.517016 169.968337 
L 327.586813 169.63073 
L 330.450032 169.151223 
L 331.036475 169.532944 
L 331.484931 169.591557 
L 331.967884 169.477549 
L 332.10587 169.705357 
L 333.796204 170.026012 
L 337.176872 170.849854 
L 338.901703 171.236221 
L 339.419152 170.855546 
L 340.419554 169.844009 
L 340.557541 170.573153 
L 341.799419 171.766755 
L 343.0068 172.489308 
L 345.007604 173.396486 
L 347.353374 174.251988 
L 347.90532 174.172442 
L 348.526259 173.842707 
L 349.043708 173.602366 
L 351.148002 173.268191 
L 354.252697 172.507551 
L 356.87444 171.905294 
L 357.322896 171.837522 
L 357.529875 170.30103 
L 357.771352 170.037455 
L 358.530277 169.77401 
L 364.153226 168.238381 
L 365.188124 168.857818 
L 365.774566 168.930633 
L 365.809063 167.158232 
L 365.912553 167.287624 
L 366.154029 167.463559 
L 366.740472 167.423568 
L 369.741677 166.871615 
L 372.604896 166.171662 
L 373.950264 163.267447 
L 374.226237 163.113608 
L 374.364224 166.292608 
L 374.881673 166.85127 
L 375.640598 167.24173 
L 377.606906 167.938814 
L 381.160057 169.196131 
L 382.229452 170.458026 
L 382.677908 170.66151 
L 382.815894 170.583795 
L 384.644215 170.442028 
L 386.438039 170.62748 
L 388.887299 171.111378 
L 389.646224 171.181922 
L 390.19817 170.870733 
L 391.129579 170.171313 
L 391.267565 171.064932 
L 392.888906 172.457047 
L 394.47575 173.410923 
L 396.856017 174.560047 
L 398.028902 174.960809 
L 398.718834 174.540828 
L 399.581249 173.949631 
L 399.719236 173.679441 
L 403.272387 172.937462 
L 406.480572 172.008328 
L 407.101512 171.642016 
L 407.584464 171.605712 
L 408.03292 171.698339 
L 408.170907 170.914799 
L 409.343792 170.393462 
L 412.379494 169.307323 
L 416.484591 167.946946 
L 416.588081 167.116616 
L 416.622577 167.11943 
L 417.278013 167.114959 
L 419.002844 166.725773 
L 423.418411 165.502618 
L 424.936262 164.640354 
L 425.074248 163.517544 
L 425.76418 163.12911 
L 427.592501 162.483682 
L 431.801088 161.208717 
L 433.387932 161.9328 
L 433.525919 161.65502 
L 436.044172 160.706023 
L 440.287255 159.357308 
L 441.839603 159.768292 
L 441.97759 159.254631 
L 443.495441 158.400242 
L 445.703224 157.51473 
L 448.773423 156.496232 
L 450.498254 156.435376 
L 452.844023 155.526464 
L 453.533956 155.287015 
L 453.671942 166.024252 
L 454.672344 166.027934 
L 460.260796 165.819712 
L 467.401595 165.528699 
L 469.126426 165.642359 
L 473.921455 166.029721 
L 483.580508 166.859302 
L 484.16695 166.879036 
L 484.304936 166.591581 
L 485.029365 166.494094 
L 487.616612 166.564971 
L 491.928688 166.849512 
L 493.515533 167.109902 
L 498.793515 166.727099 
L 499.517944 166.581004 
L 500.345863 165.926253 
L 500.863312 165.77358 
L 502.829619 165.817667 
L 508.245587 166.149028 
L 508.797533 166.509626 
L 509.797935 167.219644 
L 516.524775 168.009077 
L 517.249204 168.585362 
L 517.732157 168.711362 
L 524.803963 168.494252 
L 526.425304 167.647497 
L 526.597787 168.267142 
L 526.839263 168.587826 
L 527.253222 168.680628 
L 528.70208 168.677179 
L 535.256437 168.369641 
L 536.291336 168.274719 
L 542.190257 167.844966 
L 543.121665 167.633595 
L 543.811598 167.698033 
L 544.949986 167.849204 
L 549.641526 168.142347 
L 550.952397 168.318753 
L 551.780316 168.553524 
L 551.918302 168.226257 
L 553.125684 168.15103 
L 556.678835 168.223766 
L 558.886619 168.201813 
L 559.921517 167.99769 
L 560.231987 167.998419 
L 560.369973 168.225072 
L 562.922723 168.646278 
L 566.993323 169.01804 
L 567.924732 169.188633 
L 568.787147 169.276578 
L 575.065531 168.814971 
L 576.272913 168.844878 
L 577.135328 168.847824 
L 577.273315 168.710171 
L 579.929554 168.427138 
L 584.000155 168.191107 
L 585.586999 169.094165 
L 585.655992 168.615297 
L 585.724985 168.632541 
L 586.414918 168.787394 
L 588.139748 168.787301 
L 592.589812 168.778354 
L 594.03867 169.708126 
L 594.176656 167.016784 
L 594.625112 166.567776 
L 595.246051 166.343106 
L 596.625916 166.137784 
L 600.66202 165.83064 
L 601.834905 165.8644 
L 603.697722 165.839727 
L 608.975704 165.686183 
L 610.390065 165.73993 
L 611.286977 165.684812 
L 613.874223 165.454526 
L 618.910729 165.22865 
L 621.635962 165.107068 
L 622.636364 165.039357 
L 622.636364 165.039357 
" clip-path="url(#p269da09868)" style="fill: none; stroke: #ff0000; stroke-width: 1.5; stroke-linecap: square"/>
   </g>
   <g id="line2d_26">
    <path d="M 115.363636 166.01287 
L 118.261352 163.236716 
L 119.089271 162.21302 
L 119.330747 161.443574 
L 119.71021 159.269446 
L 120.607122 153.968708 
L 121.331551 151.201178 
L 122.607926 147.380882 
L 127.644431 134.441831 
L 128.230874 133.127419 
L 128.610337 132.718254 
L 128.88631 132.67043 
L 128.920806 224.999013 
L 129.024296 219.16147 
L 129.231276 211.068513 
L 129.472752 209.185157 
L 129.817718 208.185914 
L 130.197181 207.696903 
L 130.50765 207.624502 
L 130.852617 207.807031 
L 131.404562 208.410227 
L 134.474761 212.121189 
L 137.303484 214.992452 
L 142.339989 219.751556 
L 144.306297 221.505815 
L 144.409786 220.624984 
L 144.616766 216.340963 
L 144.927236 204.369186 
L 145.410188 175.293761 
L 145.893141 142.227083 
L 145.962134 142.319017 
L 145.996631 120.365433 
L 146.100121 120.988886 
L 146.583073 126.363488 
L 147.100522 128.909085 
L 148.031931 132.221485 
L 150.067231 138.493557 
L 152.723471 146.100814 
L 152.757967 145.630449 
L 153.171927 111.170014 
L 153.689376 79.212018 
L 153.999845 70.041593 
L 154.172329 68.709304 
L 154.241322 68.948738 
L 154.344812 69.629463 
L 154.413805 69.59053 
L 154.551791 74.352752 
L 154.862261 75.000806 
L 155.138234 75.083707 
L 155.58669 74.944499 
L 156.552595 74.352733 
L 158.967358 72.546399 
L 161.209638 70.694842 
L 161.347624 69.706639 
L 161.382121 69.717763 
L 161.485611 70.456488 
L 161.658094 74.012082 
L 161.934067 85.455401 
L 162.348026 113.944379 
L 162.865476 152.091716 
L 162.899972 151.72112 
L 164.314333 155.17254 
L 169.626812 170.149399 
L 169.695805 173.261468 
L 170.7652 262.494084 
L 171.144663 277.148566 
L 171.317146 278.535301 
L 171.455133 279.09129 
L 172.869494 280.615806 
L 174.766808 282.388982 
L 174.939291 283.81824 
L 175.215264 283.970969 
L 176.043183 284.457762 
L 177.80251 285.80031 
L 178.11298 286.158449 
L 178.250966 287.152812 
L 178.285463 287.146205 
L 178.388952 286.428434 
L 178.561436 282.931205 
L 178.837408 271.634876 
L 179.251368 243.455363 
L 179.872307 198.8261 
L 180.14828 198.394587 
L 180.665729 197.527917 
L 181.700627 195.25747 
L 183.218479 191.575007 
L 183.252975 193.227844 
L 183.321968 192.347072 
L 183.597941 191.327471 
L 185.253779 187.132738 
L 187.185589 181.995402 
L 188.220488 179.025757 
L 188.254984 168.416356 
L 188.289481 178.681569 
L 188.461964 199.852338 
L 188.634447 200.708883 
L 188.772434 200.612568 
L 189.1174 199.912266 
L 190.393775 196.5901 
L 191.670149 193.153246 
L 191.704646 193.303258 
L 191.739143 193.351498 
L 191.773639 193.293381 
L 195.016321 184.225258 
L 195.878736 181.567334 
L 196.258199 181.016494 
L 196.534172 180.935659 
L 196.672159 180.932509 
L 196.741152 304.024084 
L 196.810145 303.7439 
L 197.086118 302.689469 
L 197.534574 302.033674 
L 198.983432 300.486447 
L 201.467188 297.76715 
L 203.433495 295.366285 
L 203.502488 296.33365 
L 203.778461 301.206612 
L 203.847454 301.381517 
L 203.881951 301.308954 
L 203.985441 300.45244 
L 204.192421 295.908957 
L 204.50289 282.458869 
L 204.951346 251.629124 
L 205.089333 245.913316 
L 205.123829 245.992943 
L 205.261816 259.844227 
L 205.744768 263.504394 
L 206.331211 265.942276 
L 207.435102 269.440148 
L 209.987852 276.633211 
L 211.885166 281.523276 
L 211.919662 281.146044 
L 212.195635 260.214688 
L 213.334024 174.78706 
L 213.541003 168.348188 
L 213.5755 168.34856 
L 213.713486 166.023227 
L 214.265432 164.16866 
L 214.541405 163.952045 
L 214.817378 164.012089 
L 215.196841 164.365967 
L 215.81778 165.301128 
L 217.094155 167.715468 
L 220.371333 174.452635 
L 220.578313 184.506698 
L 221.061265 219.551309 
L 222.096164 299.399876 
L 223.476029 305.005475 
L 225.131866 310.365925 
L 227.581126 317.512567 
L 228.788507 320.920763 
L 228.857501 323.592463 
L 229.409446 358.736954 
L 229.719916 368.031078 
L 229.892399 369.36 
L 229.961392 369.103673 
L 230.099379 367.245542 
L 230.340855 359.836797 
L 230.582331 354.410609 
L 231.651726 350.345889 
L 232.755618 347.289991 
L 234.445952 343.304099 
L 236.791722 338.355222 
L 237.240178 337.407007 
L 237.309171 335.831008 
L 237.688634 312.172973 
L 238.378566 251.907696 
L 238.896016 211.871223 
L 238.930512 211.777029 
L 239.068499 210.18856 
L 245.864332 192.190362 
L 246.761244 187.287045 
L 247.347686 185.181986 
L 247.382183 185.096585 
L 247.520169 176.570064 
L 249.176007 172.152636 
L 253.591574 161.327504 
L 254.212513 159.639429 
L 255.350901 151.589891 
L 255.833854 148.783483 
L 255.97184 140.54523 
L 258.076134 135.306698 
L 262.629687 123.321749 
L 262.836667 124.189353 
L 264.078545 130.239228 
L 264.216531 130.795616 
L 264.251028 130.723034 
L 264.285524 130.641353 
L 264.423511 129.331532 
L 265.906865 124.446809 
L 268.459615 117.180885 
L 271.081358 110.032076 
L 271.253841 110.858519 
L 271.943773 115.289708 
L 272.668202 120.784511 
L 272.737195 120.633166 
L 272.909678 119.647951 
L 274.531019 114.743881 
L 277.566721 106.570874 
L 279.533028 101.475926 
L 279.774505 103.385089 
L 281.119873 114.242899 
L 281.188866 114.091221 
L 281.223362 115.765089 
L 281.326852 115.589605 
L 282.051281 114.188718 
L 283.914098 109.828167 
L 284.431548 108.574656 
L 284.500541 166.017177 
L 284.569534 166.012623 
L 290.502952 165.473306 
L 293.98711 164.908661 
L 297.229792 164.394784 
L 297.988718 164.380877 
L 298.023214 162.28275 
L 298.126704 162.674474 
L 298.333684 162.839423 
L 299.196099 162.884784 
L 312.477296 163.271489 
L 314.029644 163.441938 
L 314.512596 163.91264 
L 315.064542 164.548528 
L 315.202529 162.954892 
L 315.340515 163.094429 
L 315.719978 163.409625 
L 316.40991 163.604639 
L 318.514204 163.883509 
L 322.343328 164.421461 
L 322.998764 164.89399 
L 323.516213 165.263551 
L 323.585206 162.872084 
L 323.654199 162.892834 
L 324.240642 163.114654 
L 325.413527 163.130237 
L 330.312046 162.892979 
L 331.622917 162.156386 
L 332.174863 162.231393 
L 338.867207 163.275058 
L 339.453649 163.631544 
L 340.419554 164.396122 
L 340.557541 164.659016 
L 342.178882 164.961828 
L 345.145591 165.201543 
L 347.318877 165.435062 
L 347.90532 165.974352 
L 348.353776 166.103324 
L 348.767735 165.978475 
L 350.561559 165.658707 
L 357.322896 164.51832 
L 357.357392 164.752175 
L 357.391889 164.594905 
L 357.598869 164.031163 
L 358.012828 163.895887 
L 361.772959 163.199952 
L 364.532688 162.577137 
L 365.498594 162.278779 
L 365.774566 162.263149 
L 365.94705 164.792284 
L 366.188526 165.944799 
L 366.533492 166.424231 
L 367.326914 167.033263 
L 372.018454 170.323352 
L 372.5704 170.79394 
L 372.846373 175.23084 
L 373.984761 193.444812 
L 374.226237 194.853462 
L 374.364224 184.892689 
L 374.778183 183.977049 
L 375.192142 183.649488 
L 375.813082 183.468712 
L 376.95147 183.403881 
L 379.159253 183.530977 
L 381.02207 183.764187 
L 381.298043 184.124838 
L 381.43603 184.029702 
L 381.643009 183.530146 
L 381.953479 182.029481 
L 382.401935 178.570408 
L 382.677908 176.917604 
L 382.815894 177.046343 
L 383.26435 177.228738 
L 383.988779 177.450287 
L 384.782201 177.452777 
L 385.782603 177.223262 
L 387.024481 176.699231 
L 388.473339 175.840044 
L 389.439245 175.214266 
L 389.473741 175.265508 
L 390.577633 182.021017 
L 390.784613 182.214251 
L 390.957096 182.062118 
L 391.129579 181.930933 
L 391.267565 179.791832 
L 392.44045 177.8846 
L 393.233872 177.134511 
L 394.199777 176.532373 
L 395.372662 176.076749 
L 396.787024 175.775226 
L 397.959909 175.579067 
L 398.304875 173.984124 
L 398.891317 170.025982 
L 399.512256 165.71984 
L 399.546753 165.727134 
L 399.581249 165.742137 
L 399.719236 168.155812 
L 400.616148 169.366226 
L 402.340979 171.226818 
L 406.377083 175.327543 
L 407.446478 171.535711 
L 407.687954 171.465528 
L 407.894934 171.673749 
L 408.03292 171.719973 
L 408.170907 174.498376 
L 408.722852 174.782744 
L 409.654261 175.008601 
L 411.034126 175.096364 
L 413.207412 174.991976 
L 415.725665 174.883118 
L 416.484591 175.107425 
L 416.519088 174.353207 
L 416.622577 174.374582 
L 417.20902 174.4924 
L 418.450898 174.376755 
L 424.004853 173.747207 
L 424.936262 173.814252 
L 425.074248 171.877098 
L 425.591697 171.707274 
L 427.937467 171.361447 
L 434.422831 170.549337 
L 436.837594 170.370491 
L 440.873698 170.069123 
L 441.839603 170.205899 
L 441.97759 170.666935 
L 443.495441 170.541535 
L 447.324565 169.949018 
L 448.807919 169.795218 
L 450.394764 170.385921 
L 453.051003 169.590753 
L 453.533956 169.474877 
L 453.568452 166.013281 
L 453.671942 166.028336 
L 454.568854 166.070116 
L 462.089116 166.33449 
L 467.091125 166.516516 
L 467.229112 166.402282 
L 474.162932 165.428912 
L 485.719298 163.445235 
L 491.480232 163.331199 
L 492.618621 163.746437 
L 492.756607 163.858612 
L 495.102377 164.217286 
L 499.55244 164.761995 
L 500.656332 164.17084 
L 501.242775 164.10406 
L 508.659547 163.907608 
L 509.728942 164.215935 
L 512.557664 163.681227 
L 516.421285 163.125328 
L 517.69766 163.828557 
L 518.560075 163.965772 
L 525.183426 164.038488 
L 526.425304 163.640775 
L 526.597787 164.463566 
L 526.839263 164.909244 
L 527.218726 165.064238 
L 528.322618 165.182559 
L 533.876573 165.429763 
L 536.567309 165.615414 
L 541.707304 166.297003 
L 542.604216 166.895519 
L 543.156162 166.991139 
L 543.328645 166.980427 
L 543.363142 167.749111 
L 543.466632 167.720137 
L 544.260054 167.487433 
L 546.157368 167.29744 
L 550.779914 166.841603 
L 551.43535 166.310456 
L 551.780316 166.073825 
L 551.918302 166.132038 
L 553.091187 166.174746 
L 555.160984 166.120933 
L 558.196686 165.805131 
L 558.645142 165.833876 
L 559.542054 166.538385 
L 560.059504 166.67215 
L 560.231987 166.665989 
L 560.369973 166.167607 
L 561.956817 165.447258 
L 563.681648 164.98754 
L 566.199901 164.562367 
L 567.372786 164.30394 
L 568.407684 163.588848 
L 568.683657 163.47336 
L 568.821644 163.662314 
L 571.20191 164.378243 
L 575.479491 165.253041 
L 577.135328 164.892612 
L 577.273315 165.455418 
L 578.963649 165.981593 
L 581.171432 166.370441 
L 584.276127 166.912419 
L 585.655992 167.746076 
L 586.863374 168.079644 
L 589.761089 168.297807 
L 592.486322 168.554467 
L 594.03867 170.09286 
L 594.176656 167.307654 
L 594.625112 166.989612 
L 595.280548 166.878119 
L 596.970882 166.877903 
L 601.386449 166.910331 
L 602.835306 166.638595 
L 605.526042 166.90995 
L 609.562146 167.119693 
L 610.942011 166.95272 
L 611.079998 167.038085 
L 618.39328 167.285271 
L 621.153009 167.242849 
L 622.636364 167.248902 
L 622.636364 167.248902 
" clip-path="url(#p269da09868)" style="fill: none; stroke-dasharray: 5.55,2.4; stroke-dashoffset: 0; stroke: #0000ff; stroke-width: 1.5"/>
   </g>
   <g id="patch_3">
    <path d="M 90 384.48 
L 90 51.84 
" style="fill: none; stroke: #000000; stroke-width: 0.8; stroke-linejoin: miter; stroke-linecap: square"/>
   </g>
   <g id="patch_4">
    <path d="M 648 384.48 
L 648 51.84 
" style="fill: none; stroke: #000000; stroke-width: 0.8; stroke-linejoin: miter; stroke-linecap: square"/>
   </g>
   <g id="patch_5">
    <path d="M 90 384.48 
L 648 384.48 
" style="fill: none; stroke: #000000; stroke-width: 0.8; stroke-linejoin: miter; stroke-linecap: square"/>
   </g>
   <g id="patch_6">
    <path d="M 90 51.84 
L 648 51.84 
" style="fill: none; stroke: #000000; stroke-width: 0.8; stroke-linejoin: miter; stroke-linecap: square"/>
   </g>
   <g id="text_15">
    <!-- State Value Convergence for phi_N (Index 1) -->
    <g transform="translate(235.600313 45.84) scale(0.12 -0.12)">
     <defs>
      <path id="DejaVuSans-53" d="M 3425 4513 
L 3425 3897 
Q 3066 4069 2747 4153 
Q 2428 4238 2131 4238 
Q 1616 4238 1336 4038 
Q 1056 3838 1056 3469 
Q 1056 3159 1242 3001 
Q 1428 2844 1947 2747 
L 2328 2669 
Q 3034 2534 3370 2195 
Q 3706 1856 3706 1288 
Q 3706 609 3251 259 
Q 2797 -91 1919 -91 
Q 1588 -91 1214 -16 
Q 841 59 441 206 
L 441 856 
Q 825 641 1194 531 
Q 1563 422 1919 422 
Q 2459 422 2753 634 
Q 3047 847 3047 1241 
Q 3047 1584 2836 1778 
Q 2625 1972 2144 2069 
L 1759 2144 
Q 1053 2284 737 2584 
Q 422 2884 422 3419 
Q 422 4038 858 4394 
Q 1294 4750 2059 4750 
Q 2388 4750 2728 4690 
Q 3069 4631 3425 4513 
z
" transform="scale(0.015625)"/>
      <path id="DejaVuSans-43" d="M 4122 4306 
L 4122 3641 
Q 3803 3938 3442 4084 
Q 3081 4231 2675 4231 
Q 1875 4231 1450 3742 
Q 1025 3253 1025 2328 
Q 1025 1406 1450 917 
Q 1875 428 2675 428 
Q 3081 428 3442 575 
Q 3803 722 4122 1019 
L 4122 359 
Q 3791 134 3420 21 
Q 3050 -91 2638 -91 
Q 1578 -91 968 557 
Q 359 1206 359 2328 
Q 359 3453 968 4101 
Q 1578 4750 2638 4750 
Q 3056 4750 3426 4639 
Q 3797 4528 4122 4306 
z
" transform="scale(0.015625)"/>
      <path id="DejaVuSans-6f" d="M 1959 3097 
Q 1497 3097 1228 2736 
Q 959 2375 959 1747 
Q 959 1119 1226 758 
Q 1494 397 1959 397 
Q 2419 397 2687 759 
Q 2956 1122 2956 1747 
Q 2956 2369 2687 2733 
Q 2419 3097 1959 3097 
z
M 1959 3584 
Q 2709 3584 3137 3096 
Q 3566 2609 3566 1747 
Q 3566 888 3137 398 
Q 2709 -91 1959 -91 
Q 1206 -91 779 398 
Q 353 888 353 1747 
Q 353 2609 779 3096 
Q 1206 3584 1959 3584 
z
" transform="scale(0.015625)"/>
      <path id="DejaVuSans-67" d="M 2906 1791 
Q 2906 2416 2648 2759 
Q 2391 3103 1925 3103 
Q 1463 3103 1205 2759 
Q 947 2416 947 1791 
Q 947 1169 1205 825 
Q 1463 481 1925 481 
Q 2391 481 2648 825 
Q 2906 1169 2906 1791 
z
M 3481 434 
Q 3481 -459 3084 -895 
Q 2688 -1331 1869 -1331 
Q 1566 -1331 1297 -1286 
Q 1028 -1241 775 -1147 
L 775 -588 
Q 1028 -725 1275 -790 
Q 1522 -856 1778 -856 
Q 2344 -856 2625 -561 
Q 2906 -266 2906 331 
L 2906 616 
Q 2728 306 2450 153 
Q 2172 0 1784 0 
Q 1141 0 747 490 
Q 353 981 353 1791 
Q 353 2603 747 3093 
Q 1141 3584 1784 3584 
Q 2172 3584 2450 3431 
Q 2728 3278 2906 2969 
L 2906 3500 
L 3481 3500 
L 3481 434 
z
" transform="scale(0.015625)"/>
      <path id="DejaVuSans-63" d="M 3122 3366 
L 3122 2828 
Q 2878 2963 2633 3030 
Q 2388 3097 2138 3097 
Q 1578 3097 1268 2742 
Q 959 2388 959 1747 
Q 959 1106 1268 751 
Q 1578 397 2138 397 
Q 2388 397 2633 464 
Q 2878 531 3122 666 
L 3122 134 
Q 2881 22 2623 -34 
Q 2366 -91 2075 -91 
Q 1284 -91 818 406 
Q 353 903 353 1747 
Q 353 2603 823 3093 
Q 1294 3584 2113 3584 
Q 2378 3584 2631 3529 
Q 2884 3475 3122 3366 
z
" transform="scale(0.015625)"/>
      <path id="DejaVuSans-66" d="M 2375 4863 
L 2375 4384 
L 1825 4384 
Q 1516 4384 1395 4259 
Q 1275 4134 1275 3809 
L 1275 3500 
L 2222 3500 
L 2222 3053 
L 1275 3053 
L 1275 0 
L 697 0 
L 697 3053 
L 147 3053 
L 147 3500 
L 697 3500 
L 697 3744 
Q 697 4328 969 4595 
Q 1241 4863 1831 4863 
L 2375 4863 
z
" transform="scale(0.015625)"/>
      <path id="DejaVuSans-70" d="M 1159 525 
L 1159 -1331 
L 581 -1331 
L 581 3500 
L 1159 3500 
L 1159 2969 
Q 1341 3281 1617 3432 
Q 1894 3584 2278 3584 
Q 2916 3584 3314 3078 
Q 3713 2572 3713 1747 
Q 3713 922 3314 415 
Q 2916 -91 2278 -91 
Q 1894 -91 1617 61 
Q 1341 213 1159 525 
z
M 3116 1747 
Q 3116 2381 2855 2742 
Q 2594 3103 2138 3103 
Q 1681 3103 1420 2742 
Q 1159 2381 1159 1747 
Q 1159 1113 1420 752 
Q 1681 391 2138 391 
Q 2594 391 2855 752 
Q 3116 1113 3116 1747 
z
" transform="scale(0.015625)"/>
      <path id="DejaVuSans-68" d="M 3513 2113 
L 3513 0 
L 2938 0 
L 2938 2094 
Q 2938 2591 2744 2837 
Q 2550 3084 2163 3084 
Q 1697 3084 1428 2787 
Q 1159 2491 1159 1978 
L 1159 0 
L 581 0 
L 581 4863 
L 1159 4863 
L 1159 2956 
Q 1366 3272 1645 3428 
Q 1925 3584 2291 3584 
Q 2894 3584 3203 3211 
Q 3513 2838 3513 2113 
z
" transform="scale(0.015625)"/>
      <path id="DejaVuSans-5f" d="M 3263 -1063 
L 3263 -1509 
L -63 -1509 
L -63 -1063 
L 3263 -1063 
z
" transform="scale(0.015625)"/>
      <path id="DejaVuSans-4e" d="M 628 4666 
L 1478 4666 
L 3547 763 
L 3547 4666 
L 4159 4666 
L 4159 0 
L 3309 0 
L 1241 3903 
L 1241 0 
L 628 0 
L 628 4666 
z
" transform="scale(0.015625)"/>
      <path id="DejaVuSans-49" d="M 628 4666 
L 1259 4666 
L 1259 0 
L 628 0 
L 628 4666 
z
" transform="scale(0.015625)"/>
      <path id="DejaVuSans-78" d="M 3513 3500 
L 2247 1797 
L 3578 0 
L 2900 0 
L 1881 1375 
L 863 0 
L 184 0 
L 1544 1831 
L 300 3500 
L 978 3500 
L 1906 2253 
L 2834 3500 
L 3513 3500 
z
" transform="scale(0.015625)"/>
     </defs>
     <use xlink:href="#DejaVuSans-53"/>
     <use xlink:href="#DejaVuSans-74" transform="translate(63.476562 0)"/>
     <use xlink:href="#DejaVuSans-61" transform="translate(102.685547 0)"/>
     <use xlink:href="#DejaVuSans-74" transform="translate(163.964844 0)"/>
     <use xlink:href="#DejaVuSans-65" transform="translate(203.173828 0)"/>
     <use xlink:href="#DejaVuSans-20" transform="translate(264.697266 0)"/>
     <use xlink:href="#DejaVuSans-56" transform="translate(296.484375 0)"/>
     <use xlink:href="#DejaVuSans-61" transform="translate(357.142578 0)"/>
     <use xlink:href="#DejaVuSans-6c" transform="translate(418.421875 0)"/>
     <use xlink:href="#DejaVuSans-75" transform="translate(446.205078 0)"/>
     <use xlink:href="#DejaVuSans-65" transform="translate(509.583984 0)"/>
     <use xlink:href="#DejaVuSans-20" transform="translate(571.107422 0)"/>
     <use xlink:href="#DejaVuSans-43" transform="translate(602.894531 0)"/>
     <use xlink:href="#DejaVuSans-6f" transform="translate(672.71875 0)"/>
     <use xlink:href="#DejaVuSans-6e" transform="translate(733.900391 0)"/>
     <use xlink:href="#DejaVuSans-76" transform="translate(797.279297 0)"/>
     <use xlink:href="#DejaVuSans-65" transform="translate(856.458984 0)"/>
     <use xlink:href="#DejaVuSans-72" transform="translate(917.982422 0)"/>
     <use xlink:href="#DejaVuSans-67" transform="translate(957.345703 0)"/>
     <use xlink:href="#DejaVuSans-65" transform="translate(1020.822266 0)"/>
     <use xlink:href="#DejaVuSans-6e" transform="translate(1082.345703 0)"/>
     <use xlink:href="#DejaVuSans-63" transform="translate(1145.724609 0)"/>
     <use xlink:href="#DejaVuSans-65" transform="translate(1200.705078 0)"/>
     <use xlink:href="#DejaVuSans-20" transform="translate(1262.228516 0)"/>
     <use xlink:href="#DejaVuSans-66" transform="translate(1294.015625 0)"/>
     <use xlink:href="#DejaVuSans-6f" transform="translate(1329.220703 0)"/>
     <use xlink:href="#DejaVuSans-72" transform="translate(1390.402344 0)"/>
     <use xlink:href="#DejaVuSans-20" transform="translate(1431.515625 0)"/>
     <use xlink:href="#DejaVuSans-70" transform="translate(1463.302734 0)"/>
     <use xlink:href="#DejaVuSans-68" transform="translate(1526.779297 0)"/>
     <use xlink:href="#DejaVuSans-69" transform="translate(1590.158203 0)"/>
     <use xlink:href="#DejaVuSans-5f" transform="translate(1617.941406 0)"/>
     <use xlink:href="#DejaVuSans-4e" transform="translate(1667.941406 0)"/>
     <use xlink:href="#DejaVuSans-20" transform="translate(1742.746094 0)"/>
     <use xlink:href="#DejaVuSans-28" transform="translate(1774.533203 0)"/>
     <use xlink:href="#DejaVuSans-49" transform="translate(1813.546875 0)"/>
     <use xlink:href="#DejaVuSans-6e" transform="translate(1843.039062 0)"/>
     <use xlink:href="#DejaVuSans-64" transform="translate(1906.417969 0)"/>
     <use xlink:href="#DejaVuSans-65" transform="translate(1969.894531 0)"/>
     <use xlink:href="#DejaVuSans-78" transform="translate(2029.667969 0)"/>
     <use xlink:href="#DejaVuSans-20" transform="translate(2088.847656 0)"/>
     <use xlink:href="#DejaVuSans-31" transform="translate(2120.634766 0)"/>
     <use xlink:href="#DejaVuSans-29" transform="translate(2184.257812 0)"/>
    </g>
   </g>
   <g id="legend_1">
    <g id="patch_7">
     <path d="M 521.465625 89.19625 
L 641 89.19625 
Q 643 89.19625 643 87.19625 
L 643 58.84 
Q 643 56.84 641 56.84 
L 521.465625 56.84 
Q 519.465625 56.84 519.465625 58.84 
L 519.465625 87.19625 
Q 519.465625 89.19625 521.465625 89.19625 
z
" style="fill: #ffffff; opacity: 0.8; stroke: #cccccc; stroke-linejoin: miter"/>
    </g>
    <g id="line2d_27">
     <path d="M 523.465625 64.938437 
L 533.465625 64.938437 
L 543.465625 64.938437 
" style="fill: none; stroke: #ff0000; stroke-width: 1.5; stroke-linecap: square"/>
    </g>
    <g id="text_16">
     <!-- Baseline KF State -->
     <g transform="translate(551.465625 68.438437) scale(0.1 -0.1)">
      <defs>
       <path id="DejaVuSans-42" d="M 1259 2228 
L 1259 519 
L 2272 519 
Q 2781 519 3026 730 
Q 3272 941 3272 1375 
Q 3272 1813 3026 2020 
Q 2781 2228 2272 2228 
L 1259 2228 
z
M 1259 4147 
L 1259 2741 
L 2194 2741 
Q 2656 2741 2882 2914 
Q 3109 3088 3109 3444 
Q 3109 3797 2882 3972 
Q 2656 4147 2194 4147 
L 1259 4147 
z
M 628 4666 
L 2241 4666 
Q 2963 4666 3353 4366 
Q 3744 4066 3744 3513 
Q 3744 3084 3544 2831 
Q 3344 2578 2956 2516 
Q 3422 2416 3680 2098 
Q 3938 1781 3938 1306 
Q 3938 681 3513 340 
Q 3088 0 2303 0 
L 628 0 
L 628 4666 
z
" transform="scale(0.015625)"/>
       <path id="DejaVuSans-4b" d="M 628 4666 
L 1259 4666 
L 1259 2694 
L 3353 4666 
L 4166 4666 
L 1850 2491 
L 4331 0 
L 3500 0 
L 1259 2247 
L 1259 0 
L 628 0 
L 628 4666 
z
" transform="scale(0.015625)"/>
       <path id="DejaVuSans-46" d="M 628 4666 
L 3309 4666 
L 3309 4134 
L 1259 4134 
L 1259 2759 
L 3109 2759 
L 3109 2228 
L 1259 2228 
L 1259 0 
L 628 0 
L 628 4666 
z
" transform="scale(0.015625)"/>
      </defs>
      <use xlink:href="#DejaVuSans-42"/>
      <use xlink:href="#DejaVuSans-61" transform="translate(68.603516 0)"/>
      <use xlink:href="#DejaVuSans-73" transform="translate(129.882812 0)"/>
      <use xlink:href="#DejaVuSans-65" transform="translate(181.982422 0)"/>
      <use xlink:href="#DejaVuSans-6c" transform="translate(243.505859 0)"/>
      <use xlink:href="#DejaVuSans-69" transform="translate(271.289062 0)"/>
      <use xlink:href="#DejaVuSans-6e" transform="translate(299.072266 0)"/>
      <use xlink:href="#DejaVuSans-65" transform="translate(362.451172 0)"/>
      <use xlink:href="#DejaVuSans-20" transform="translate(423.974609 0)"/>
      <use xlink:href="#DejaVuSans-4b" transform="translate(455.761719 0)"/>
      <use xlink:href="#DejaVuSans-46" transform="translate(521.337891 0)"/>
      <use xlink:href="#DejaVuSans-20" transform="translate(578.857422 0)"/>
      <use xlink:href="#DejaVuSans-53" transform="translate(610.644531 0)"/>
      <use xlink:href="#DejaVuSans-74" transform="translate(674.121094 0)"/>
      <use xlink:href="#DejaVuSans-61" transform="translate(713.330078 0)"/>
      <use xlink:href="#DejaVuSans-74" transform="translate(774.609375 0)"/>
      <use xlink:href="#DejaVuSans-65" transform="translate(813.818359 0)"/>
     </g>
    </g>
    <g id="line2d_28">
     <path d="M 523.465625 79.616562 
L 533.465625 79.616562 
L 543.465625 79.616562 
" style="fill: none; stroke-dasharray: 5.55,2.4; stroke-dashoffset: 0; stroke: #0000ff; stroke-width: 1.5"/>
    </g>
    <g id="text_17">
     <!-- Shadow KF State -->
     <g transform="translate(551.465625 83.116562) scale(0.1 -0.1)">
      <defs>
       <path id="DejaVuSans-77" d="M 269 3500 
L 844 3500 
L 1563 769 
L 2278 3500 
L 2956 3500 
L 3675 769 
L 4391 3500 
L 4966 3500 
L 4050 0 
L 3372 0 
L 2619 2869 
L 1863 0 
L 1184 0 
L 269 3500 
z
" transform="scale(0.015625)"/>
      </defs>
      <use xlink:href="#DejaVuSans-53"/>
      <use xlink:href="#DejaVuSans-68" transform="translate(63.476562 0)"/>
      <use xlink:href="#DejaVuSans-61" transform="translate(126.855469 0)"/>
      <use xlink:href="#DejaVuSans-64" transform="translate(188.134766 0)"/>
      <use xlink:href="#DejaVuSans-6f" transform="translate(251.611328 0)"/>
      <use xlink:href="#DejaVuSans-77" transform="translate(312.792969 0)"/>
      <use xlink:href="#DejaVuSans-20" transform="translate(394.580078 0)"/>
      <use xlink:href="#DejaVuSans-4b" transform="translate(426.367188 0)"/>
      <use xlink:href="#DejaVuSans-46" transform="translate(491.943359 0)"/>
      <use xlink:href="#DejaVuSans-20" transform="translate(549.462891 0)"/>
      <use xlink:href="#DejaVuSans-53" transform="translate(581.25 0)"/>
      <use xlink:href="#DejaVuSans-74" transform="translate(644.726562 0)"/>
      <use xlink:href="#DejaVuSans-61" transform="translate(683.935547 0)"/>
      <use xlink:href="#DejaVuSans-74" transform="translate(745.214844 0)"/>
      <use xlink:href="#DejaVuSans-65" transform="translate(784.423828 0)"/>
     </g>
    </g>
   </g>
  </g>
 </g>
 <defs>
  <clipPath id="p269da09868">
   <rect x="90" y="51.84" width="558" height="332.64"/>
  </clipPath>
 </defs>
</svg>
