<?xml version="1.0" encoding="utf-8" standalone="no"?>
<!DOCTYPE svg PUBLIC "-//W3C//DTD SVG 1.1//EN"
  "http://www.w3.org/Graphics/SVG/1.1/DTD/svg11.dtd">
<svg xmlns:xlink="http://www.w3.org/1999/xlink" width="720pt" height="432pt" viewBox="0 0 720 432" xmlns="http://www.w3.org/2000/svg" version="1.1">
 <metadata>
  <rdf:RDF xmlns:dc="http://purl.org/dc/elements/1.1/" xmlns:cc="http://creativecommons.org/ns#" xmlns:rdf="http://www.w3.org/1999/02/22-rdf-syntax-ns#">
   <cc:Work>
    <dc:type rdf:resource="http://purl.org/dc/dcmitype/StillImage"/>
    <dc:date>2026-03-25T09:55:28.949205</dc:date>
    <dc:format>image/svg+xml</dc:format>
    <dc:creator>
     <cc:Agent>
      <dc:title>Matplotlib v3.10.8, https://matplotlib.org/</dc:title>
     </cc:Agent>
    </dc:creator>
   </cc:Work>
  </rdf:RDF>
 </metadata>
 <defs>
  <style type="text/css">*{stroke-linejoin: round; stroke-linecap: butt}</style>
 </defs>
 <g id="figure_1">
  <g id="patch_1">
   <path d="M 0 432 
L 720 432 
L 720 0 
L 0 0 
z
" style="fill: #ffffff"/>
  </g>
  <g id="axes_1">
   <g id="patch_2">
    <path d="M 90 384.48 
L 648 384.48 
L 648 51.84 
L 90 51.84 
z
" style="fill: #ffffff"/>
   </g>
   <g id="matplotlib.axis_1">
    <g id="xtick_1">
     <g id="line2d_1">
      <path d="M 115.363636 384.48 
L 115.363636 51.84 
" clip-path="url(#pf23b5997b2)" style="fill: none; stroke: #b0b0b0; stroke-width: 0.8; stroke-linecap: square"/>
     </g>
     <g id="line2d_2">
      <defs>
       <path id="m480b3836fa" d="M 0 0 
L 0 3.5 
" style="stroke: #000000; stroke-width: 0.8"/>
      </defs>
      <g>
       <use xlink:href="#m480b3836fa" x="115.363636" y="384.48" style="stroke: #000000; stroke-width: 0.8"/>
      </g>
     </g>
     <g id="text_1">
      <!-- 0 -->
      <g transform="translate(112.182386 399.078438) scale(0.1 -0.1)">
       <defs>
        <path id="DejaVuSans-30" d="M 2034 4250 
Q 1547 4250 1301 3770 
Q 1056 3291 1056 2328 
Q 1056 1369 1301 889 
Q 1547 409 2034 409 
Q 2525 409 2770 889 
Q 3016 1369 3016 2328 
Q 3016 3291 2770 3770 
Q 2525 4250 2034 4250 
z
M 2034 4750 
Q 2819 4750 3233 4129 
Q 3647 3509 3647 2328 
Q 3647 1150 3233 529 
Q 2819 -91 2034 -91 
Q 1250 -91 836 529 
Q 422 1150 422 2328 
Q 422 3509 836 4129 
Q 1250 4750 2034 4750 
z
" transform="scale(0.015625)"/>
       </defs>
       <use xlink:href="#DejaVuSans-30"/>
      </g>
     </g>
    </g>
    <g id="xtick_2">
     <g id="line2d_3">
      <path d="M 201.605174 384.48 
L 201.605174 51.84 
" clip-path="url(#pf23b5997b2)" style="fill: none; stroke: #b0b0b0; stroke-width: 0.8; stroke-linecap: square"/>
     </g>
     <g id="line2d_4">
      <g>
       <use xlink:href="#m480b3836fa" x="201.605174" y="384.48" style="stroke: #000000; stroke-width: 0.8"/>
      </g>
     </g>
     <g id="text_2">
      <!-- 50 -->
      <g transform="translate(195.242674 399.078438) scale(0.1 -0.1)">
       <defs>
        <path id="DejaVuSans-35" d="M 691 4666 
L 3169 4666 
L 3169 4134 
L 1269 4134 
L 1269 2991 
Q 1406 3038 1543 3061 
Q 1681 3084 1819 3084 
Q 2600 3084 3056 2656 
Q 3513 2228 3513 1497 
Q 3513 744 3044 326 
Q 2575 -91 1722 -91 
Q 1428 -91 1123 -41 
Q 819 9 494 109 
L 494 744 
Q 775 591 1075 516 
Q 1375 441 1709 441 
Q 2250 441 2565 725 
Q 2881 1009 2881 1497 
Q 2881 1984 2565 2268 
Q 2250 2553 1709 2553 
Q 1456 2553 1204 2497 
Q 953 2441 691 2322 
L 691 4666 
z
" transform="scale(0.015625)"/>
       </defs>
       <use xlink:href="#DejaVuSans-35"/>
       <use xlink:href="#DejaVuSans-30" transform="translate(63.623047 0)"/>
      </g>
     </g>
    </g>
    <g id="xtick_3">
     <g id="line2d_5">
      <path d="M 287.846713 384.48 
L 287.846713 51.84 
" clip-path="url(#pf23b5997b2)" style="fill: none; stroke: #b0b0b0; stroke-width: 0.8; stroke-linecap: square"/>
     </g>
     <g id="line2d_6">
      <g>
       <use xlink:href="#m480b3836fa" x="287.846713" y="384.48" style="stroke: #000000; stroke-width: 0.8"/>
      </g>
     </g>
     <g id="text_3">
      <!-- 100 -->
      <g transform="translate(278.302963 399.078438) scale(0.1 -0.1)">
       <defs>
        <path id="DejaVuSans-31" d="M 794 531 
L 1825 531 
L 1825 4091 
L 703 3866 
L 703 4441 
L 1819 4666 
L 2450 4666 
L 2450 531 
L 3481 531 
L 3481 0 
L 794 0 
L 794 531 
z
" transform="scale(0.015625)"/>
       </defs>
       <use xlink:href="#DejaVuSans-31"/>
       <use xlink:href="#DejaVuSans-30" transform="translate(63.623047 0)"/>
       <use xlink:href="#DejaVuSans-30" transform="translate(127.246094 0)"/>
      </g>
     </g>
    </g>
    <g id="xtick_4">
     <g id="line2d_7">
      <path d="M 374.088251 384.48 
L 374.088251 51.84 
" clip-path="url(#pf23b5997b2)" style="fill: none; stroke: #b0b0b0; stroke-width: 0.8; stroke-linecap: square"/>
     </g>
     <g id="line2d_8">
      <g>
       <use xlink:href="#m480b3836fa" x="374.088251" y="384.48" style="stroke: #000000; stroke-width: 0.8"/>
      </g>
     </g>
     <g id="text_4">
      <!-- 150 -->
      <g transform="translate(364.544501 399.078438) scale(0.1 -0.1)">
       <use xlink:href="#DejaVuSans-31"/>
       <use xlink:href="#DejaVuSans-35" transform="translate(63.623047 0)"/>
       <use xlink:href="#DejaVuSans-30" transform="translate(127.246094 0)"/>
      </g>
     </g>
    </g>
    <g id="xtick_5">
     <g id="line2d_9">
      <path d="M 460.329789 384.48 
L 460.329789 51.84 
" clip-path="url(#pf23b5997b2)" style="fill: none; stroke: #b0b0b0; stroke-width: 0.8; stroke-linecap: square"/>
     </g>
     <g id="line2d_10">
      <g>
       <use xlink:href="#m480b3836fa" x="460.329789" y="384.48" style="stroke: #000000; stroke-width: 0.8"/>
      </g>
     </g>
     <g id="text_5">
      <!-- 200 -->
      <g transform="translate(450.786039 399.078438) scale(0.1 -0.1)">
       <defs>
        <path id="DejaVuSans-32" d="M 1228 531 
L 3431 531 
L 3431 0 
L 469 0 
L 469 531 
Q 828 903 1448 1529 
Q 2069 2156 2228 2338 
Q 2531 2678 2651 2914 
Q 2772 3150 2772 3378 
Q 2772 3750 2511 3984 
Q 2250 4219 1831 4219 
Q 1534 4219 1204 4116 
Q 875 4013 500 3803 
L 500 4441 
Q 881 4594 1212 4672 
Q 1544 4750 1819 4750 
Q 2544 4750 2975 4387 
Q 3406 4025 3406 3419 
Q 3406 3131 3298 2873 
Q 3191 2616 2906 2266 
Q 2828 2175 2409 1742 
Q 1991 1309 1228 531 
z
" transform="scale(0.015625)"/>
       </defs>
       <use xlink:href="#DejaVuSans-32"/>
       <use xlink:href="#DejaVuSans-30" transform="translate(63.623047 0)"/>
       <use xlink:href="#DejaVuSans-30" transform="translate(127.246094 0)"/>
      </g>
     </g>
    </g>
    <g id="xtick_6">
     <g id="line2d_11">
      <path d="M 546.571327 384.48 
L 546.571327 51.84 
" clip-path="url(#pf23b5997b2)" style="fill: none; stroke: #b0b0b0; stroke-width: 0.8; stroke-linecap: square"/>
     </g>
     <g id="line2d_12">
      <g>
       <use xlink:href="#m480b3836fa" x="546.571327" y="384.48" style="stroke: #000000; stroke-width: 0.8"/>
      </g>
     </g>
     <g id="text_6">
      <!-- 250 -->
      <g transform="translate(537.027577 399.078438) scale(0.1 -0.1)">
       <use xlink:href="#DejaVuSans-32"/>
       <use xlink:href="#DejaVuSans-35" transform="translate(63.623047 0)"/>
       <use xlink:href="#DejaVuSans-30" transform="translate(127.246094 0)"/>
      </g>
     </g>
    </g>
    <g id="xtick_7">
     <g id="line2d_13">
      <path d="M 632.812865 384.48 
L 632.812865 51.84 
" clip-path="url(#pf23b5997b2)" style="fill: none; stroke: #b0b0b0; stroke-width: 0.8; stroke-linecap: square"/>
     </g>
     <g id="line2d_14">
      <g>
       <use xlink:href="#m480b3836fa" x="632.812865" y="384.48" style="stroke: #000000; stroke-width: 0.8"/>
      </g>
     </g>
     <g id="text_7">
      <!-- 300 -->
      <g transform="translate(623.269115 399.078438) scale(0.1 -0.1)">
       <defs>
        <path id="DejaVuSans-33" d="M 2597 2516 
Q 3050 2419 3304 2112 
Q 3559 1806 3559 1356 
Q 3559 666 3084 287 
Q 2609 -91 1734 -91 
Q 1441 -91 1130 -33 
Q 819 25 488 141 
L 488 750 
Q 750 597 1062 519 
Q 1375 441 1716 441 
Q 2309 441 2620 675 
Q 2931 909 2931 1356 
Q 2931 1769 2642 2001 
Q 2353 2234 1838 2234 
L 1294 2234 
L 1294 2753 
L 1863 2753 
Q 2328 2753 2575 2939 
Q 2822 3125 2822 3475 
Q 2822 3834 2567 4026 
Q 2313 4219 1838 4219 
Q 1578 4219 1281 4162 
Q 984 4106 628 3988 
L 628 4550 
Q 988 4650 1302 4700 
Q 1616 4750 1894 4750 
Q 2613 4750 3031 4423 
Q 3450 4097 3450 3541 
Q 3450 3153 3228 2886 
Q 3006 2619 2597 2516 
z
" transform="scale(0.015625)"/>
       </defs>
       <use xlink:href="#DejaVuSans-33"/>
       <use xlink:href="#DejaVuSans-30" transform="translate(63.623047 0)"/>
       <use xlink:href="#DejaVuSans-30" transform="translate(127.246094 0)"/>
      </g>
     </g>
    </g>
    <g id="text_8">
     <!-- Maneuver Time (s) -->
     <g transform="translate(322.198438 412.756563) scale(0.1 -0.1)">
      <defs>
       <path id="DejaVuSans-4d" d="M 628 4666 
L 1569 4666 
L 2759 1491 
L 3956 4666 
L 4897 4666 
L 4897 0 
L 4281 0 
L 4281 4097 
L 3078 897 
L 2444 897 
L 1241 4097 
L 1241 0 
L 628 0 
L 628 4666 
z
" transform="scale(0.015625)"/>
       <path id="DejaVuSans-61" d="M 2194 1759 
Q 1497 1759 1228 1600 
Q 959 1441 959 1056 
Q 959 750 1161 570 
Q 1363 391 1709 391 
Q 2188 391 2477 730 
Q 2766 1069 2766 1631 
L 2766 1759 
L 2194 1759 
z
M 3341 1997 
L 3341 0 
L 2766 0 
L 2766 531 
Q 2569 213 2275 61 
Q 1981 -91 1556 -91 
Q 1019 -91 701 211 
Q 384 513 384 1019 
Q 384 1609 779 1909 
Q 1175 2209 1959 2209 
L 2766 2209 
L 2766 2266 
Q 2766 2663 2505 2880 
Q 2244 3097 1772 3097 
Q 1472 3097 1187 3025 
Q 903 2953 641 2809 
L 641 3341 
Q 956 3463 1253 3523 
Q 1550 3584 1831 3584 
Q 2591 3584 2966 3190 
Q 3341 2797 3341 1997 
z
" transform="scale(0.015625)"/>
       <path id="DejaVuSans-6e" d="M 3513 2113 
L 3513 0 
L 2938 0 
L 2938 2094 
Q 2938 2591 2744 2837 
Q 2550 3084 2163 3084 
Q 1697 3084 1428 2787 
Q 1159 2491 1159 1978 
L 1159 0 
L 581 0 
L 581 3500 
L 1159 3500 
L 1159 2956 
Q 1366 3272 1645 3428 
Q 1925 3584 2291 3584 
Q 2894 3584 3203 3211 
Q 3513 2838 3513 2113 
z
" transform="scale(0.015625)"/>
       <path id="DejaVuSans-65" d="M 3597 1894 
L 3597 1613 
L 953 1613 
Q 991 1019 1311 708 
Q 1631 397 2203 397 
Q 2534 397 2845 478 
Q 3156 559 3463 722 
L 3463 178 
Q 3153 47 2828 -22 
Q 2503 -91 2169 -91 
Q 1331 -91 842 396 
Q 353 884 353 1716 
Q 353 2575 817 3079 
Q 1281 3584 2069 3584 
Q 2775 3584 3186 3129 
Q 3597 2675 3597 1894 
z
M 3022 2063 
Q 3016 2534 2758 2815 
Q 2500 3097 2075 3097 
Q 1594 3097 1305 2825 
Q 1016 2553 972 2059 
L 3022 2063 
z
" transform="scale(0.015625)"/>
       <path id="DejaVuSans-75" d="M 544 1381 
L 544 3500 
L 1119 3500 
L 1119 1403 
Q 1119 906 1312 657 
Q 1506 409 1894 409 
Q 2359 409 2629 706 
Q 2900 1003 2900 1516 
L 2900 3500 
L 3475 3500 
L 3475 0 
L 2900 0 
L 2900 538 
Q 2691 219 2414 64 
Q 2138 -91 1772 -91 
Q 1169 -91 856 284 
Q 544 659 544 1381 
z
M 1991 3584 
L 1991 3584 
z
" transform="scale(0.015625)"/>
       <path id="DejaVuSans-76" d="M 191 3500 
L 800 3500 
L 1894 563 
L 2988 3500 
L 3597 3500 
L 2284 0 
L 1503 0 
L 191 3500 
z
" transform="scale(0.015625)"/>
       <path id="DejaVuSans-72" d="M 2631 2963 
Q 2534 3019 2420 3045 
Q 2306 3072 2169 3072 
Q 1681 3072 1420 2755 
Q 1159 2438 1159 1844 
L 1159 0 
L 581 0 
L 581 3500 
L 1159 3500 
L 1159 2956 
Q 1341 3275 1631 3429 
Q 1922 3584 2338 3584 
Q 2397 3584 2469 3576 
Q 2541 3569 2628 3553 
L 2631 2963 
z
" transform="scale(0.015625)"/>
       <path id="DejaVuSans-20" transform="scale(0.015625)"/>
       <path id="DejaVuSans-54" d="M -19 4666 
L 3928 4666 
L 3928 4134 
L 2272 4134 
L 2272 0 
L 1638 0 
L 1638 4134 
L -19 4134 
L -19 4666 
z
" transform="scale(0.015625)"/>
       <path id="DejaVuSans-69" d="M 603 3500 
L 1178 3500 
L 1178 0 
L 603 0 
L 603 3500 
z
M 603 4863 
L 1178 4863 
L 1178 4134 
L 603 4134 
L 603 4863 
z
" transform="scale(0.015625)"/>
       <path id="DejaVuSans-6d" d="M 3328 2828 
Q 3544 3216 3844 3400 
Q 4144 3584 4550 3584 
Q 5097 3584 5394 3201 
Q 5691 2819 5691 2113 
L 5691 0 
L 5113 0 
L 5113 2094 
Q 5113 2597 4934 2840 
Q 4756 3084 4391 3084 
Q 3944 3084 3684 2787 
Q 3425 2491 3425 1978 
L 3425 0 
L 2847 0 
L 2847 2094 
Q 2847 2600 2669 2842 
Q 2491 3084 2119 3084 
Q 1678 3084 1418 2786 
Q 1159 2488 1159 1978 
L 1159 0 
L 581 0 
L 581 3500 
L 1159 3500 
L 1159 2956 
Q 1356 3278 1631 3431 
Q 1906 3584 2284 3584 
Q 2666 3584 2933 3390 
Q 3200 3197 3328 2828 
z
" transform="scale(0.015625)"/>
       <path id="DejaVuSans-28" d="M 1984 4856 
Q 1566 4138 1362 3434 
Q 1159 2731 1159 2009 
Q 1159 1288 1364 580 
Q 1569 -128 1984 -844 
L 1484 -844 
Q 1016 -109 783 600 
Q 550 1309 550 2009 
Q 550 2706 781 3412 
Q 1013 4119 1484 4856 
L 1984 4856 
z
" transform="scale(0.015625)"/>
       <path id="DejaVuSans-73" d="M 2834 3397 
L 2834 2853 
Q 2591 2978 2328 3040 
Q 2066 3103 1784 3103 
Q 1356 3103 1142 2972 
Q 928 2841 928 2578 
Q 928 2378 1081 2264 
Q 1234 2150 1697 2047 
L 1894 2003 
Q 2506 1872 2764 1633 
Q 3022 1394 3022 966 
Q 3022 478 2636 193 
Q 2250 -91 1575 -91 
Q 1294 -91 989 -36 
Q 684 19 347 128 
L 347 722 
Q 666 556 975 473 
Q 1284 391 1588 391 
Q 1994 391 2212 530 
Q 2431 669 2431 922 
Q 2431 1156 2273 1281 
Q 2116 1406 1581 1522 
L 1381 1569 
Q 847 1681 609 1914 
Q 372 2147 372 2553 
Q 372 3047 722 3315 
Q 1072 3584 1716 3584 
Q 2034 3584 2315 3537 
Q 2597 3491 2834 3397 
z
" transform="scale(0.015625)"/>
       <path id="DejaVuSans-29" d="M 513 4856 
L 1013 4856 
Q 1481 4119 1714 3412 
Q 1947 2706 1947 2009 
Q 1947 1309 1714 600 
Q 1481 -109 1013 -844 
L 513 -844 
Q 928 -128 1133 580 
Q 1338 1288 1338 2009 
Q 1338 2731 1133 3434 
Q 928 4138 513 4856 
z
" transform="scale(0.015625)"/>
      </defs>
      <use xlink:href="#DejaVuSans-4d"/>
      <use xlink:href="#DejaVuSans-61" transform="translate(86.279297 0)"/>
      <use xlink:href="#DejaVuSans-6e" transform="translate(147.558594 0)"/>
      <use xlink:href="#DejaVuSans-65" transform="translate(210.9375 0)"/>
      <use xlink:href="#DejaVuSans-75" transform="translate(272.460938 0)"/>
      <use xlink:href="#DejaVuSans-76" transform="translate(335.839844 0)"/>
      <use xlink:href="#DejaVuSans-65" transform="translate(395.019531 0)"/>
      <use xlink:href="#DejaVuSans-72" transform="translate(456.542969 0)"/>
      <use xlink:href="#DejaVuSans-20" transform="translate(497.65625 0)"/>
      <use xlink:href="#DejaVuSans-54" transform="translate(529.443359 0)"/>
      <use xlink:href="#DejaVuSans-69" transform="translate(587.402344 0)"/>
      <use xlink:href="#DejaVuSans-6d" transform="translate(615.185547 0)"/>
      <use xlink:href="#DejaVuSans-65" transform="translate(712.597656 0)"/>
      <use xlink:href="#DejaVuSans-20" transform="translate(774.121094 0)"/>
      <use xlink:href="#DejaVuSans-28" transform="translate(805.908203 0)"/>
      <use xlink:href="#DejaVuSans-73" transform="translate(844.921875 0)"/>
      <use xlink:href="#DejaVuSans-29" transform="translate(897.021484 0)"/>
     </g>
    </g>
   </g>
   <g id="matplotlib.axis_2">
    <g id="ytick_1">
     <g id="line2d_15">
      <path d="M 90 362.133819 
L 648 362.133819 
" clip-path="url(#pf23b5997b2)" style="fill: none; stroke: #b0b0b0; stroke-width: 0.8; stroke-linecap: square"/>
     </g>
     <g id="line2d_16">
      <defs>
       <path id="m94bd5b80db" d="M 0 0 
L -3.5 0 
" style="stroke: #000000; stroke-width: 0.8"/>
      </defs>
      <g>
       <use xlink:href="#m94bd5b80db" x="90" y="362.133819" style="stroke: #000000; stroke-width: 0.8"/>
      </g>
     </g>
     <g id="text_9">
      <!-- −0.0075 -->
      <g transform="translate(39.629687 365.933037) scale(0.1 -0.1)">
       <defs>
        <path id="DejaVuSans-2212" d="M 678 2272 
L 4684 2272 
L 4684 1741 
L 678 1741 
L 678 2272 
z
" transform="scale(0.015625)"/>
        <path id="DejaVuSans-2e" d="M 684 794 
L 1344 794 
L 1344 0 
L 684 0 
L 684 794 
z
" transform="scale(0.015625)"/>
        <path id="DejaVuSans-37" d="M 525 4666 
L 3525 4666 
L 3525 4397 
L 1831 0 
L 1172 0 
L 2766 4134 
L 525 4134 
L 525 4666 
z
" transform="scale(0.015625)"/>
       </defs>
       <use xlink:href="#DejaVuSans-2212"/>
       <use xlink:href="#DejaVuSans-30" transform="translate(83.789062 0)"/>
       <use xlink:href="#DejaVuSans-2e" transform="translate(147.412109 0)"/>
       <use xlink:href="#DejaVuSans-30" transform="translate(179.199219 0)"/>
       <use xlink:href="#DejaVuSans-30" transform="translate(242.822266 0)"/>
       <use xlink:href="#DejaVuSans-37" transform="translate(306.445312 0)"/>
       <use xlink:href="#DejaVuSans-35" transform="translate(370.068359 0)"/>
      </g>
     </g>
    </g>
    <g id="ytick_2">
     <g id="line2d_17">
      <path d="M 90 324.895721 
L 648 324.895721 
" clip-path="url(#pf23b5997b2)" style="fill: none; stroke: #b0b0b0; stroke-width: 0.8; stroke-linecap: square"/>
     </g>
     <g id="line2d_18">
      <g>
       <use xlink:href="#m94bd5b80db" x="90" y="324.895721" style="stroke: #000000; stroke-width: 0.8"/>
      </g>
     </g>
     <g id="text_10">
      <!-- −0.0050 -->
      <g transform="translate(39.629687 328.694939) scale(0.1 -0.1)">
       <use xlink:href="#DejaVuSans-2212"/>
       <use xlink:href="#DejaVuSans-30" transform="translate(83.789062 0)"/>
       <use xlink:href="#DejaVuSans-2e" transform="translate(147.412109 0)"/>
       <use xlink:href="#DejaVuSans-30" transform="translate(179.199219 0)"/>
       <use xlink:href="#DejaVuSans-30" transform="translate(242.822266 0)"/>
       <use xlink:href="#DejaVuSans-35" transform="translate(306.445312 0)"/>
       <use xlink:href="#DejaVuSans-30" transform="translate(370.068359 0)"/>
      </g>
     </g>
    </g>
    <g id="ytick_3">
     <g id="line2d_19">
      <path d="M 90 287.657622 
L 648 287.657622 
" clip-path="url(#pf23b5997b2)" style="fill: none; stroke: #b0b0b0; stroke-width: 0.8; stroke-linecap: square"/>
     </g>
     <g id="line2d_20">
      <g>
       <use xlink:href="#m94bd5b80db" x="90" y="287.657622" style="stroke: #000000; stroke-width: 0.8"/>
      </g>
     </g>
     <g id="text_11">
      <!-- −0.0025 -->
      <g transform="translate(39.629687 291.456841) scale(0.1 -0.1)">
       <use xlink:href="#DejaVuSans-2212"/>
       <use xlink:href="#DejaVuSans-30" transform="translate(83.789062 0)"/>
       <use xlink:href="#DejaVuSans-2e" transform="translate(147.412109 0)"/>
       <use xlink:href="#DejaVuSans-30" transform="translate(179.199219 0)"/>
       <use xlink:href="#DejaVuSans-30" transform="translate(242.822266 0)"/>
       <use xlink:href="#DejaVuSans-32" transform="translate(306.445312 0)"/>
       <use xlink:href="#DejaVuSans-35" transform="translate(370.068359 0)"/>
      </g>
     </g>
    </g>
    <g id="ytick_4">
     <g id="line2d_21">
      <path d="M 90 250.419524 
L 648 250.419524 
" clip-path="url(#pf23b5997b2)" style="fill: none; stroke: #b0b0b0; stroke-width: 0.8; stroke-linecap: square"/>
     </g>
     <g id="line2d_22">
      <g>
       <use xlink:href="#m94bd5b80db" x="90" y="250.419524" style="stroke: #000000; stroke-width: 0.8"/>
      </g>
     </g>
     <g id="text_12">
      <!-- 0.0000 -->
      <g transform="translate(48.009375 254.218743) scale(0.1 -0.1)">
       <use xlink:href="#DejaVuSans-30"/>
       <use xlink:href="#DejaVuSans-2e" transform="translate(63.623047 0)"/>
       <use xlink:href="#DejaVuSans-30" transform="translate(95.410156 0)"/>
       <use xlink:href="#DejaVuSans-30" transform="translate(159.033203 0)"/>
       <use xlink:href="#DejaVuSans-30" transform="translate(222.65625 0)"/>
       <use xlink:href="#DejaVuSans-30" transform="translate(286.279297 0)"/>
      </g>
     </g>
    </g>
    <g id="ytick_5">
     <g id="line2d_23">
      <path d="M 90 213.181426 
L 648 213.181426 
" clip-path="url(#pf23b5997b2)" style="fill: none; stroke: #b0b0b0; stroke-width: 0.8; stroke-linecap: square"/>
     </g>
     <g id="line2d_24">
      <g>
       <use xlink:href="#m94bd5b80db" x="90" y="213.181426" style="stroke: #000000; stroke-width: 0.8"/>
      </g>
     </g>
     <g id="text_13">
      <!-- 0.0025 -->
      <g transform="translate(48.009375 216.980645) scale(0.1 -0.1)">
       <use xlink:href="#DejaVuSans-30"/>
       <use xlink:href="#DejaVuSans-2e" transform="translate(63.623047 0)"/>
       <use xlink:href="#DejaVuSans-30" transform="translate(95.410156 0)"/>
       <use xlink:href="#DejaVuSans-30" transform="translate(159.033203 0)"/>
       <use xlink:href="#DejaVuSans-32" transform="translate(222.65625 0)"/>
       <use xlink:href="#DejaVuSans-35" transform="translate(286.279297 0)"/>
      </g>
     </g>
    </g>
    <g id="ytick_6">
     <g id="line2d_25">
      <path d="M 90 175.943328 
L 648 175.943328 
" clip-path="url(#pf23b5997b2)" style="fill: none; stroke: #b0b0b0; stroke-width: 0.8; stroke-linecap: square"/>
     </g>
     <g id="line2d_26">
      <g>
       <use xlink:href="#m94bd5b80db" x="90" y="175.943328" style="stroke: #000000; stroke-width: 0.8"/>
      </g>
     </g>
     <g id="text_14">
      <!-- 0.0050 -->
      <g transform="translate(48.009375 179.742547) scale(0.1 -0.1)">
       <use xlink:href="#DejaVuSans-30"/>
       <use xlink:href="#DejaVuSans-2e" transform="translate(63.623047 0)"/>
       <use xlink:href="#DejaVuSans-30" transform="translate(95.410156 0)"/>
       <use xlink:href="#DejaVuSans-30" transform="translate(159.033203 0)"/>
       <use xlink:href="#DejaVuSans-35" transform="translate(222.65625 0)"/>
       <use xlink:href="#DejaVuSans-30" transform="translate(286.279297 0)"/>
      </g>
     </g>
    </g>
    <g id="ytick_7">
     <g id="line2d_27">
      <path d="M 90 138.70523 
L 648 138.70523 
" clip-path="url(#pf23b5997b2)" style="fill: none; stroke: #b0b0b0; stroke-width: 0.8; stroke-linecap: square"/>
     </g>
     <g id="line2d_28">
      <g>
       <use xlink:href="#m94bd5b80db" x="90" y="138.70523" style="stroke: #000000; stroke-width: 0.8"/>
      </g>
     </g>
     <g id="text_15">
      <!-- 0.0075 -->
      <g transform="translate(48.009375 142.504448) scale(0.1 -0.1)">
       <use xlink:href="#DejaVuSans-30"/>
       <use xlink:href="#DejaVuSans-2e" transform="translate(63.623047 0)"/>
       <use xlink:href="#DejaVuSans-30" transform="translate(95.410156 0)"/>
       <use xlink:href="#DejaVuSans-30" transform="translate(159.033203 0)"/>
       <use xlink:href="#DejaVuSans-37" transform="translate(222.65625 0)"/>
       <use xlink:href="#DejaVuSans-35" transform="translate(286.279297 0)"/>
      </g>
     </g>
    </g>
    <g id="ytick_8">
     <g id="line2d_29">
      <path d="M 90 101.467131 
L 648 101.467131 
" clip-path="url(#pf23b5997b2)" style="fill: none; stroke: #b0b0b0; stroke-width: 0.8; stroke-linecap: square"/>
     </g>
     <g id="line2d_30">
      <g>
       <use xlink:href="#m94bd5b80db" x="90" y="101.467131" style="stroke: #000000; stroke-width: 0.8"/>
      </g>
     </g>
     <g id="text_16">
      <!-- 0.0100 -->
      <g transform="translate(48.009375 105.26635) scale(0.1 -0.1)">
       <use xlink:href="#DejaVuSans-30"/>
       <use xlink:href="#DejaVuSans-2e" transform="translate(63.623047 0)"/>
       <use xlink:href="#DejaVuSans-30" transform="translate(95.410156 0)"/>
       <use xlink:href="#DejaVuSans-31" transform="translate(159.033203 0)"/>
       <use xlink:href="#DejaVuSans-30" transform="translate(222.65625 0)"/>
       <use xlink:href="#DejaVuSans-30" transform="translate(286.279297 0)"/>
      </g>
     </g>
    </g>
    <g id="ytick_9">
     <g id="line2d_31">
      <path d="M 90 64.229033 
L 648 64.229033 
" clip-path="url(#pf23b5997b2)" style="fill: none; stroke: #b0b0b0; stroke-width: 0.8; stroke-linecap: square"/>
     </g>
     <g id="line2d_32">
      <g>
       <use xlink:href="#m94bd5b80db" x="90" y="64.229033" style="stroke: #000000; stroke-width: 0.8"/>
      </g>
     </g>
     <g id="text_17">
      <!-- 0.0125 -->
      <g transform="translate(48.009375 68.028252) scale(0.1 -0.1)">
       <use xlink:href="#DejaVuSans-30"/>
       <use xlink:href="#DejaVuSans-2e" transform="translate(63.623047 0)"/>
       <use xlink:href="#DejaVuSans-30" transform="translate(95.410156 0)"/>
       <use xlink:href="#DejaVuSans-31" transform="translate(159.033203 0)"/>
       <use xlink:href="#DejaVuSans-32" transform="translate(222.65625 0)"/>
       <use xlink:href="#DejaVuSans-35" transform="translate(286.279297 0)"/>
      </g>
     </g>
    </g>
    <g id="text_18">
     <!-- Estimated Value -->
     <g transform="translate(33.55 258.738906) rotate(-90) scale(0.1 -0.1)">
      <defs>
       <path id="DejaVuSans-45" d="M 628 4666 
L 3578 4666 
L 3578 4134 
L 1259 4134 
L 1259 2753 
L 3481 2753 
L 3481 2222 
L 1259 2222 
L 1259 531 
L 3634 531 
L 3634 0 
L 628 0 
L 628 4666 
z
" transform="scale(0.015625)"/>
       <path id="DejaVuSans-74" d="M 1172 4494 
L 1172 3500 
L 2356 3500 
L 2356 3053 
L 1172 3053 
L 1172 1153 
Q 1172 725 1289 603 
Q 1406 481 1766 481 
L 2356 481 
L 2356 0 
L 1766 0 
Q 1100 0 847 248 
Q 594 497 594 1153 
L 594 3053 
L 172 3053 
L 172 3500 
L 594 3500 
L 594 4494 
L 1172 4494 
z
" transform="scale(0.015625)"/>
       <path id="DejaVuSans-64" d="M 2906 2969 
L 2906 4863 
L 3481 4863 
L 3481 0 
L 2906 0 
L 2906 525 
Q 2725 213 2448 61 
Q 2172 -91 1784 -91 
Q 1150 -91 751 415 
Q 353 922 353 1747 
Q 353 2572 751 3078 
Q 1150 3584 1784 3584 
Q 2172 3584 2448 3432 
Q 2725 3281 2906 2969 
z
M 947 1747 
Q 947 1113 1208 752 
Q 1469 391 1925 391 
Q 2381 391 2643 752 
Q 2906 1113 2906 1747 
Q 2906 2381 2643 2742 
Q 2381 3103 1925 3103 
Q 1469 3103 1208 2742 
Q 947 2381 947 1747 
z
" transform="scale(0.015625)"/>
       <path id="DejaVuSans-56" d="M 1831 0 
L 50 4666 
L 709 4666 
L 2188 738 
L 3669 4666 
L 4325 4666 
L 2547 0 
L 1831 0 
z
" transform="scale(0.015625)"/>
       <path id="DejaVuSans-6c" d="M 603 4863 
L 1178 4863 
L 1178 0 
L 603 0 
L 603 4863 
z
" transform="scale(0.015625)"/>
      </defs>
      <use xlink:href="#DejaVuSans-45"/>
      <use xlink:href="#DejaVuSans-73" transform="translate(63.183594 0)"/>
      <use xlink:href="#DejaVuSans-74" transform="translate(115.283203 0)"/>
      <use xlink:href="#DejaVuSans-69" transform="translate(154.492188 0)"/>
      <use xlink:href="#DejaVuSans-6d" transform="translate(182.275391 0)"/>
      <use xlink:href="#DejaVuSans-61" transform="translate(279.6875 0)"/>
      <use xlink:href="#DejaVuSans-74" transform="translate(340.966797 0)"/>
      <use xlink:href="#DejaVuSans-65" transform="translate(380.175781 0)"/>
      <use xlink:href="#DejaVuSans-64" transform="translate(441.699219 0)"/>
      <use xlink:href="#DejaVuSans-20" transform="translate(505.175781 0)"/>
      <use xlink:href="#DejaVuSans-56" transform="translate(536.962891 0)"/>
      <use xlink:href="#DejaVuSans-61" transform="translate(597.621094 0)"/>
      <use xlink:href="#DejaVuSans-6c" transform="translate(658.900391 0)"/>
      <use xlink:href="#DejaVuSans-75" transform="translate(686.683594 0)"/>
      <use xlink:href="#DejaVuSans-65" transform="translate(750.0625 0)"/>
     </g>
    </g>
   </g>
   <g id="line2d_33">
    <path d="M 115.363636 250.419524 
L 125.988594 250.307237 
L 128.88631 250.255316 
L 129.058793 260.637205 
L 129.265772 264.896578 
L 129.507249 265.851143 
L 129.783222 266.133807 
L 130.162684 266.187082 
L 130.81812 266.009201 
L 131.887515 265.461641 
L 133.26738 264.499141 
L 135.026707 262.982069 
L 140.166703 258.370144 
L 142.098513 257.039809 
L 144.099317 255.936187 
L 144.306297 255.918353 
L 144.720256 256.946796 
L 145.341195 258.155746 
L 145.720658 258.495584 
L 145.962134 258.529826 
L 145.996631 222.58587 
L 146.100121 223.398431 
L 146.583073 230.781734 
L 146.893543 232.253543 
L 147.204012 232.846535 
L 147.514482 233.027039 
L 147.859448 232.970128 
L 148.376897 232.616455 
L 149.273809 231.678524 
L 151.585082 229.20018 
L 152.619981 228.429502 
L 152.861457 228.351768 
L 153.171927 227.860229 
L 153.585886 226.713163 
L 154.413805 223.951588 
L 154.517295 231.759217 
L 154.551791 231.754517 
L 154.724274 231.876892 
L 156.276622 233.691059 
L 157.82897 235.008231 
L 160.07125 236.605284 
L 161.278631 237.513705 
L 162.244536 240.966442 
L 162.658496 241.701602 
L 162.865476 241.786409 
L 162.899972 242.156503 
L 162.968965 241.984651 
L 163.037959 242.018622 
L 163.244938 242.801167 
L 164.03836 245.917328 
L 164.866279 248.248277 
L 165.832184 250.306373 
L 166.90158 252.059792 
L 168.039968 253.499313 
L 169.212853 254.632391 
L 169.695805 254.90059 
L 169.937282 254.882741 
L 170.178758 254.620667 
L 170.523724 253.85543 
L 171.041173 252.049789 
L 171.317146 251.322514 
L 171.420636 229.181771 
L 171.455133 229.23849 
L 171.627616 230.38876 
L 172.214058 234.308765 
L 172.766004 236.541876 
L 173.352447 238.067836 
L 174.007882 239.172806 
L 174.697815 239.916084 
L 175.45674 240.418283 
L 176.353652 240.737032 
L 177.423047 240.868758 
L 178.11298 240.822323 
L 178.457946 239.308122 
L 179.216871 236.392544 
L 179.630831 235.575243 
L 179.768817 235.532916 
L 179.906803 232.243147 
L 181.942104 232.108133 
L 185.426262 231.470486 
L 187.013106 231.229383 
L 187.979011 230.944876 
L 188.220488 230.931592 
L 188.254984 228.610943 
L 188.323978 229.225159 
L 188.530957 230.379359 
L 188.80693 230.683258 
L 189.358876 230.863006 
L 190.290285 230.921148 
L 191.1527 230.75497 
L 191.946122 230.370223 
L 192.739544 229.723319 
L 193.567463 228.740097 
L 194.464375 227.305483 
L 195.016321 226.515494 
L 196.258199 226.588887 
L 196.672159 226.63077 
L 196.706655 229.343049 
L 196.775648 228.851728 
L 196.948131 228.164093 
L 197.189608 228.066595 
L 198.776452 227.811829 
L 199.431888 227.383625 
L 200.052827 226.702271 
L 200.708262 225.63985 
L 201.432691 224.008741 
L 202.226114 221.638258 
L 203.123026 218.220384 
L 203.433495 217.319112 
L 203.502488 217.43484 
L 204.985843 222.499805 
L 205.123829 222.562444 
L 205.158326 224.849309 
L 205.261816 224.73421 
L 205.813762 223.699137 
L 206.400204 223.255674 
L 208.745974 221.742249 
L 209.746376 220.712114 
L 210.746778 219.352299 
L 211.919662 217.597218 
L 211.954159 217.64428 
L 212.299125 218.050315 
L 212.540602 218.064051 
L 212.782078 217.851073 
L 213.127044 217.181522 
L 213.5755 216.155951 
L 213.609997 216.799435 
L 213.713486 216.703549 
L 213.920466 216.711183 
L 214.610398 217.268441 
L 215.300331 217.645815 
L 215.886773 217.71582 
L 216.438719 217.544538 
L 216.990665 217.127128 
L 217.611604 216.350444 
L 218.301536 215.098874 
L 219.094958 213.160215 
L 220.026367 210.241656 
L 220.336837 209.518482 
L 220.40583 209.632433 
L 220.992272 211.197592 
L 221.337238 211.559101 
L 221.578715 211.525858 
L 221.854688 211.200818 
L 222.027171 211.06555 
L 222.165157 185.647388 
L 222.855089 177.44761 
L 223.510525 172.409496 
L 224.234954 168.513451 
L 225.028376 165.400578 
L 225.925288 162.755466 
L 226.92569 160.484166 
L 228.064078 158.449053 
L 228.788507 157.502378 
L 228.891997 157.351894 
L 229.340453 155.949827 
L 230.478841 151.686225 
L 230.616828 147.274005 
L 231.168774 146.035168 
L 231.962196 144.847435 
L 233.65253 142.831383 
L 236.10179 139.80802 
L 237.412661 137.909735 
L 237.895614 136.653007 
L 238.206083 136.315691 
L 238.44756 136.339144 
L 238.689036 136.612416 
L 238.930512 136.886529 
L 239.068499 135.476269 
L 239.792928 133.701891 
L 240.551853 132.46463 
L 241.483262 131.379864 
L 242.587153 130.434351 
L 243.898025 129.602865 
L 245.415876 128.905239 
L 245.829835 128.650563 
L 246.347284 127.299054 
L 247.382183 124.447878 
L 247.520169 128.098739 
L 248.210102 129.288119 
L 248.727551 129.565345 
L 249.382987 129.664351 
L 250.141912 129.549243 
L 250.900838 129.205556 
L 251.69426 128.589792 
L 252.522179 127.651796 
L 253.419091 126.286121 
L 254.384996 124.82235 
L 254.729962 124.582409 
L 255.005935 124.664383 
L 255.316404 125.040315 
L 255.833854 125.947898 
L 255.97184 123.768892 
L 256.937745 121.273281 
L 262.008748 109.111596 
L 262.59519 107.796377 
L 262.69868 107.633023 
L 263.216129 106.671094 
L 263.561095 106.432879 
L 263.837068 106.502952 
L 264.147538 106.850522 
L 264.285524 106.914532 
L 264.423511 102.35503 
L 265.561899 95.951912 
L 266.562301 91.789943 
L 267.769683 87.715872 
L 269.253037 83.49921 
L 270.943371 79.321092 
L 271.115854 79.385223 
L 271.529814 80.368229 
L 272.737195 83.797081 
L 272.875182 73.269046 
L 273.289141 71.679872 
L 273.875583 70.282281 
L 274.531019 69.28549 
L 275.289945 68.527466 
L 276.221353 67.917163 
L 277.394238 67.42677 
L 278.912089 67.044174 
L 279.533028 66.989686 
L 280.395444 68.595134 
L 280.671417 68.639614 
L 280.94739 68.428592 
L 281.257859 68.206058 
L 281.464839 68.194921 
L 283.18967 68.700185 
L 284.431548 68.847403 
L 284.569534 250.419533 
L 298.023214 250.316797 
L 298.126704 249.973944 
L 298.333684 249.513595 
L 298.713146 249.348061 
L 300.162004 249.11042 
L 304.405088 248.636881 
L 308.027233 248.463219 
L 315.064542 248.393669 
L 315.099039 245.157076 
L 315.202529 245.331223 
L 315.685481 246.86251 
L 316.064944 247.231894 
L 316.582393 247.407294 
L 317.444809 247.436075 
L 319.445612 247.219648 
L 322.067355 247.002097 
L 323.516213 247.076218 
L 323.619703 248.434953 
L 323.654199 248.429515 
L 324.965071 248.134918 
L 326.344935 248.193542 
L 329.104664 248.57918 
L 330.760502 248.731438 
L 331.967884 248.678644 
L 332.071373 251.001153 
L 332.10587 250.999239 
L 333.244258 250.960865 
L 335.452042 251.20975 
L 339.005193 251.568197 
L 340.419554 251.542218 
L 340.523044 247.980102 
L 340.557541 247.991908 
L 340.799017 248.318043 
L 341.419956 249.063193 
L 342.144385 249.568768 
L 343.11029 249.957252 
L 344.455658 250.241104 
L 346.387469 250.403066 
L 348.698742 250.379919 
L 348.871225 250.378182 
L 349.009211 249.046849 
L 354.390683 249.206415 
L 361.910946 248.937285 
L 363.49779 248.512711 
L 364.325709 248.338846 
L 367.947853 248.262877 
L 369.224228 248.055413 
L 370.362616 247.644069 
L 371.466508 247.006571 
L 372.742883 246.25576 
L 374.226237 246.175974 
L 374.260734 246.706436 
L 374.364224 246.669492 
L 375.019659 246.318382 
L 376.158048 246.145241 
L 378.98677 245.720131 
L 381.849989 245.1982 
L 382.746901 245.124777 
L 383.195357 245.121525 
L 385.058174 245.207327 
L 386.265556 245.02988 
L 387.438441 244.632795 
L 388.645822 243.987162 
L 389.577231 243.51475 
L 391.129579 243.486916 
L 391.267565 238.578351 
L 391.991994 236.912626 
L 392.681926 235.907758 
L 393.509845 235.091843 
L 394.544744 234.392492 
L 395.890112 233.767355 
L 397.718432 233.181701 
L 398.235881 233.15363 
L 399.581249 233.14639 
L 399.719236 232.363304 
L 400.685141 231.934381 
L 402.823931 231.319418 
L 406.791042 230.360111 
L 408.03292 230.413112 
L 408.170907 230.126505 
L 409.171308 229.695072 
L 410.58567 229.361906 
L 412.862446 229.075485 
L 415.277209 228.970586 
L 416.484591 228.959211 
L 416.622577 229.546767 
L 417.519489 229.815633 
L 418.864857 229.861588 
L 420.451702 229.705566 
L 421.969553 229.335087 
L 423.62539 228.915507 
L 424.936262 228.988631 
L 425.074248 228.47577 
L 426.523106 227.696867 
L 430.628203 225.58735 
L 431.835585 225.019238 
L 433.387932 224.963877 
L 433.525919 224.026945 
L 434.871287 222.302708 
L 436.078668 221.220015 
L 437.665513 220.110132 
L 439.804303 218.900332 
L 440.287255 218.776582 
L 441.839603 218.791292 
L 441.97759 216.678347 
L 442.495039 216.294858 
L 443.357454 215.947116 
L 444.668326 215.683971 
L 446.876109 215.49391 
L 449.187382 215.484079 
L 451.326172 215.584615 
L 453.533956 215.62684 
L 453.671942 250.419524 
L 525.562888 250.308956 
L 527.563692 250.284031 
L 566.406881 250.245315 
L 593.417731 250.324137 
L 596.591419 250.372285 
L 622.636364 250.363508 
L 622.636364 250.363508 
" clip-path="url(#pf23b5997b2)" style="fill: none; stroke: #ff0000; stroke-width: 1.5; stroke-linecap: square"/>
   </g>
   <g id="line2d_34">
    <path d="M 115.363636 250.419524 
L 128.541343 250.309347 
L 128.88631 250.260738 
L 129.127786 286.796663 
L 129.334766 293.329155 
L 129.576242 294.945513 
L 129.817718 295.321839 
L 130.093691 295.345656 
L 130.783623 295.31302 
L 131.439059 295.587501 
L 132.784427 296.147249 
L 133.819326 296.304572 
L 135.130197 296.26377 
L 137.027511 295.956253 
L 144.340793 294.563879 
L 145.203209 297.097067 
L 145.582671 297.619721 
L 145.858644 297.689979 
L 145.962134 297.691165 
L 145.996631 256.114824 
L 146.100121 256.194117 
L 147.100522 256.468883 
L 149.204816 257.239077 
L 150.619177 257.514797 
L 151.999042 257.551181 
L 152.861457 257.422844 
L 153.13743 256.971841 
L 153.551389 255.774134 
L 154.413805 252.653189 
L 154.482798 249.760681 
L 154.551791 249.805195 
L 154.827764 249.86912 
L 158.346419 249.464755 
L 161.175141 249.45532 
L 161.244135 249.604596 
L 162.31353 253.883898 
L 162.692992 254.586092 
L 162.899972 254.667174 
L 163.003462 254.543531 
L 163.382925 253.973099 
L 163.865877 253.75208 
L 165.107756 253.500873 
L 168.108961 253.145379 
L 170.144261 252.865265 
L 170.454731 252.204895 
L 170.903187 250.656031 
L 171.455133 248.865917 
L 172.697011 249.165766 
L 174.214862 249.087825 
L 177.423047 248.671061 
L 178.11298 248.546073 
L 178.457946 247.026289 
L 179.182375 244.286007 
L 179.561837 243.532299 
L 179.768817 243.427598 
L 179.906803 243.945105 
L 180.872709 244.068423 
L 183.425458 244.296162 
L 188.220488 244.058911 
L 188.254984 241.602843 
L 188.358474 241.843776 
L 188.599951 242.229122 
L 189.082903 242.433145 
L 189.876325 242.532185 
L 190.531761 242.405259 
L 191.1527 242.052386 
L 191.773639 241.426124 
L 193.153504 239.880974 
L 193.739946 239.751793 
L 196.672159 239.514977 
L 196.706655 244.643628 
L 196.810145 244.395421 
L 196.982628 244.492323 
L 197.431084 244.642103 
L 198.19001 244.661519 
L 198.845445 244.461915 
L 199.466384 244.024397 
L 200.087323 243.298677 
L 200.915242 241.923953 
L 201.639671 240.211482 
L 202.46759 237.66005 
L 203.433495 234.363694 
L 203.467992 234.383804 
L 203.778461 235.605082 
L 204.70987 239.065671 
L 205.054836 239.735382 
L 205.123829 239.73693 
L 205.158326 241.689381 
L 205.261816 241.394104 
L 205.744768 239.093628 
L 206.124231 238.442124 
L 206.607184 238.057507 
L 207.297116 237.812567 
L 208.435504 237.671303 
L 211.574696 237.597565 
L 211.954159 237.652456 
L 212.299125 238.045743 
L 212.540602 238.042291 
L 212.782078 237.806398 
L 213.127044 237.096831 
L 213.5755 236.0307 
L 213.609997 234.987525 
L 213.713486 235.102969 
L 214.161942 236.032228 
L 214.437915 236.076736 
L 216.369726 235.839845 
L 217.74959 236.173511 
L 220.40583 237.016061 
L 220.992272 238.687901 
L 221.337238 239.08713 
L 221.578715 239.065834 
L 221.820191 238.796625 
L 222.027171 238.595857 
L 222.130661 233.195666 
L 222.165157 233.217462 
L 222.44113 233.741033 
L 222.889586 234.358813 
L 223.372539 234.641357 
L 223.958981 234.709682 
L 224.855893 234.559023 
L 228.064078 233.875903 
L 228.857501 233.72957 
L 229.236963 232.635972 
L 229.926896 229.793366 
L 230.444345 227.87688 
L 230.478841 227.871831 
L 230.547835 232.973515 
L 230.616828 232.865281 
L 231.030787 231.11589 
L 231.51374 229.758078 
L 232.031189 228.93579 
L 232.617632 228.422995 
L 233.307564 228.120959 
L 234.342462 227.941342 
L 237.274675 227.581187 
L 238.13709 225.50016 
L 238.378566 225.437146 
L 238.620043 225.630832 
L 238.930512 226.010003 
L 239.068499 229.031966 
L 239.827424 228.890663 
L 245.760842 227.594184 
L 246.278291 226.136721 
L 247.347686 223.083184 
L 247.382183 223.081655 
L 247.520169 226.597879 
L 248.727551 227.191317 
L 250.003926 227.448854 
L 251.211307 227.472641 
L 252.315199 227.274141 
L 253.453587 226.83661 
L 254.281506 226.345856 
L 254.660969 225.932971 
L 254.936942 225.924281 
L 255.212915 226.16418 
L 255.592377 226.863024 
L 255.833854 227.204917 
L 255.97184 218.873896 
L 256.144323 218.915122 
L 256.3858 218.943671 
L 256.627276 218.725558 
L 256.972242 218.051834 
L 257.524188 216.368011 
L 258.869556 212.07965 
L 259.490495 210.917141 
L 260.076937 210.272487 
L 260.732373 209.889201 
L 261.560292 209.678128 
L 262.69868 209.422958 
L 263.147136 208.655946 
L 263.457606 208.496319 
L 263.699082 208.597776 
L 264.009551 209.007682 
L 264.285524 209.380561 
L 264.354518 208.320529 
L 264.423511 208.335288 
L 265.14794 208.508959 
L 265.872369 208.370898 
L 267.07975 207.888187 
L 269.563507 206.603456 
L 271.081358 205.911968 
L 271.357331 206.59197 
L 272.288739 209.595924 
L 272.702699 210.597271 
L 272.737195 210.601547 
L 272.771692 213.888604 
L 272.875182 213.220438 
L 274.255046 198.637896 
L 275.117462 193.21754 
L 276.221353 187.712528 
L 277.566721 182.15076 
L 278.981083 177.230369 
L 279.464035 175.956228 
L 279.567525 176.058914 
L 280.119471 177.256283 
L 280.464437 177.551747 
L 280.74041 177.49939 
L 281.016383 177.193557 
L 281.188866 177.067221 
L 281.223362 177.734661 
L 281.292356 177.467178 
L 281.740812 174.676615 
L 283.534636 163.921375 
L 284.431548 158.599473 
L 284.569534 250.419532 
L 297.988718 250.411624 
L 298.161201 250.097773 
L 298.506167 250.032056 
L 301.886835 249.93952 
L 307.199314 249.972977 
L 314.754073 250.027361 
L 315.064542 250.023461 
L 315.168032 247.983749 
L 315.202529 247.999465 
L 315.857964 248.464387 
L 316.61689 248.523698 
L 318.85917 248.392522 
L 322.895274 248.22026 
L 324.102655 248.310796 
L 325.620506 248.581033 
L 328.828692 248.886213 
L 331.967884 249.024555 
L 332.10587 249.635943 
L 333.071775 249.78116 
L 336.107477 250.120998 
L 339.798615 250.321551 
L 340.419554 250.318892 
L 340.523044 249.017071 
L 340.557541 249.024279 
L 342.661834 249.711845 
L 344.662638 249.872345 
L 347.836327 249.900386 
L 350.872029 249.831412 
L 357.322896 249.699003 
L 357.426386 249.680814 
L 357.771352 249.487552 
L 358.771754 249.341792 
L 359.772155 249.391813 
L 360.600074 249.648245 
L 361.393496 250.129946 
L 362.186918 250.87797 
L 363.049334 252.016292 
L 364.222219 253.63092 
L 365.774566 253.612566 
L 365.809063 253.885902 
L 365.878056 253.759766 
L 366.154029 253.188442 
L 366.533492 253.021392 
L 367.292418 252.947372 
L 368.051343 253.08687 
L 368.741275 253.451266 
L 369.396711 254.05741 
L 370.086643 255.010881 
L 370.845569 256.467485 
L 371.673488 258.5614 
L 372.604896 260.919952 
L 373.156842 260.82884 
L 373.674291 260.973652 
L 374.226237 261.254085 
L 374.260734 259.919069 
L 374.364224 260.071474 
L 374.881673 261.340995 
L 375.295632 261.68011 
L 376.020061 261.934847 
L 377.744892 262.482693 
L 378.676301 263.041324 
L 379.607709 263.86649 
L 380.573614 265.026662 
L 381.02207 265.469367 
L 382.677908 266.034929 
L 382.815894 266.450082 
L 383.091867 266.533697 
L 383.850793 266.373912 
L 384.713208 266.311863 
L 385.403141 266.488023 
L 386.058576 266.885844 
L 386.748509 267.573169 
L 387.507434 268.663579 
L 388.369849 270.329148 
L 389.542734 272.69801 
L 390.336157 272.473817 
L 391.129579 272.17493 
L 391.267565 288.94713 
L 392.026491 295.341209 
L 392.681926 298.822495 
L 393.406355 301.517099 
L 394.234274 303.770051 
L 395.200179 305.758715 
L 396.338568 307.592371 
L 397.752929 309.434301 
L 397.925412 309.475574 
L 399.236283 309.292636 
L 399.581249 309.321004 
L 399.719236 311.553131 
L 400.616148 314.714529 
L 401.375073 316.365568 
L 402.375475 317.982367 
L 403.893326 319.973068 
L 406.273593 322.742673 
L 406.998022 322.839611 
L 408.03292 323.080142 
L 408.170907 324.07673 
L 408.895336 325.420467 
L 409.585268 326.210328 
L 410.447683 326.860456 
L 411.586072 327.425153 
L 413.138419 327.928777 
L 414.828753 328.270988 
L 415.587679 327.980943 
L 416.036135 328.079203 
L 416.484591 328.289519 
L 416.622577 325.785407 
L 417.347006 325.098713 
L 418.002442 324.93878 
L 418.899354 324.957272 
L 419.830763 325.199321 
L 420.762171 325.678786 
L 421.69358 326.414036 
L 422.693982 327.497617 
L 423.314921 328.090792 
L 424.936262 328.540132 
L 425.074248 330.210198 
L 426.143643 332.121934 
L 428.489413 335.639977 
L 431.042163 339.685439 
L 431.697598 340.614311 
L 432.215047 340.494117 
L 433.387932 340.314851 
L 433.525919 343.251806 
L 434.698804 347.386369 
L 435.733702 350.092601 
L 437.044574 352.881975 
L 438.665915 355.799584 
L 440.080276 358.002763 
L 441.839603 357.995744 
L 441.97759 364.796921 
L 442.426046 365.942526 
L 443.012488 366.874149 
L 443.736917 367.605763 
L 444.633829 368.185712 
L 445.806714 368.667598 
L 447.428055 369.076301 
L 448.911409 369.252997 
L 451.498655 369.186543 
L 453.533956 368.997678 
L 453.671942 250.419524 
L 480.855275 250.530567 
L 492.618621 250.452655 
L 492.963587 250.436062 
L 500.759822 250.438831 
L 504.037 250.423624 
L 516.455782 250.448071 
L 527.701678 250.396481 
L 540.637909 250.393947 
L 593.210751 250.412971 
L 594.452629 250.479851 
L 606.250471 250.352311 
L 622.636364 250.50208 
L 622.636364 250.50208 
" clip-path="url(#pf23b5997b2)" style="fill: none; stroke-dasharray: 5.55,2.4; stroke-dashoffset: 0; stroke: #0000ff; stroke-width: 1.5"/>
   </g>
   <g id="patch_3">
    <path d="M 90 384.48 
L 90 51.84 
" style="fill: none; stroke: #000000; stroke-width: 0.8; stroke-linejoin: miter; stroke-linecap: square"/>
   </g>
   <g id="patch_4">
    <path d="M 648 384.48 
L 648 51.84 
" style="fill: none; stroke: #000000; stroke-width: 0.8; stroke-linejoin: miter; stroke-linecap: square"/>
   </g>
   <g id="patch_5">
    <path d="M 90 384.48 
L 648 384.48 
" style="fill: none; stroke: #000000; stroke-width: 0.8; stroke-linejoin: miter; stroke-linecap: square"/>
   </g>
   <g id="patch_6">
    <path d="M 90 51.84 
L 648 51.84 
" style="fill: none; stroke: #000000; stroke-width: 0.8; stroke-linejoin: miter; stroke-linecap: square"/>
   </g>
   <g id="text_19">
    <!-- State Value Convergence for phi_U (Index 2) -->
    <g transform="translate(235.697812 45.84) scale(0.12 -0.12)">
     <defs>
      <path id="DejaVuSans-53" d="M 3425 4513 
L 3425 3897 
Q 3066 4069 2747 4153 
Q 2428 4238 2131 4238 
Q 1616 4238 1336 4038 
Q 1056 3838 1056 3469 
Q 1056 3159 1242 3001 
Q 1428 2844 1947 2747 
L 2328 2669 
Q 3034 2534 3370 2195 
Q 3706 1856 3706 1288 
Q 3706 609 3251 259 
Q 2797 -91 1919 -91 
Q 1588 -91 1214 -16 
Q 841 59 441 206 
L 441 856 
Q 825 641 1194 531 
Q 1563 422 1919 422 
Q 2459 422 2753 634 
Q 3047 847 3047 1241 
Q 3047 1584 2836 1778 
Q 2625 1972 2144 2069 
L 1759 2144 
Q 1053 2284 737 2584 
Q 422 2884 422 3419 
Q 422 4038 858 4394 
Q 1294 4750 2059 4750 
Q 2388 4750 2728 4690 
Q 3069 4631 3425 4513 
z
" transform="scale(0.015625)"/>
      <path id="DejaVuSans-43" d="M 4122 4306 
L 4122 3641 
Q 3803 3938 3442 4084 
Q 3081 4231 2675 4231 
Q 1875 4231 1450 3742 
Q 1025 3253 1025 2328 
Q 1025 1406 1450 917 
Q 1875 428 2675 428 
Q 3081 428 3442 575 
Q 3803 722 4122 1019 
L 4122 359 
Q 3791 134 3420 21 
Q 3050 -91 2638 -91 
Q 1578 -91 968 557 
Q 359 1206 359 2328 
Q 359 3453 968 4101 
Q 1578 4750 2638 4750 
Q 3056 4750 3426 4639 
Q 3797 4528 4122 4306 
z
" transform="scale(0.015625)"/>
      <path id="DejaVuSans-6f" d="M 1959 3097 
Q 1497 3097 1228 2736 
Q 959 2375 959 1747 
Q 959 1119 1226 758 
Q 1494 397 1959 397 
Q 2419 397 2687 759 
Q 2956 1122 2956 1747 
Q 2956 2369 2687 2733 
Q 2419 3097 1959 3097 
z
M 1959 3584 
Q 2709 3584 3137 3096 
Q 3566 2609 3566 1747 
Q 3566 888 3137 398 
Q 2709 -91 1959 -91 
Q 1206 -91 779 398 
Q 353 888 353 1747 
Q 353 2609 779 3096 
Q 1206 3584 1959 3584 
z
" transform="scale(0.015625)"/>
      <path id="DejaVuSans-67" d="M 2906 1791 
Q 2906 2416 2648 2759 
Q 2391 3103 1925 3103 
Q 1463 3103 1205 2759 
Q 947 2416 947 1791 
Q 947 1169 1205 825 
Q 1463 481 1925 481 
Q 2391 481 2648 825 
Q 2906 1169 2906 1791 
z
M 3481 434 
Q 3481 -459 3084 -895 
Q 2688 -1331 1869 -1331 
Q 1566 -1331 1297 -1286 
Q 1028 -1241 775 -1147 
L 775 -588 
Q 1028 -725 1275 -790 
Q 1522 -856 1778 -856 
Q 2344 -856 2625 -561 
Q 2906 -266 2906 331 
L 2906 616 
Q 2728 306 2450 153 
Q 2172 0 1784 0 
Q 1141 0 747 490 
Q 353 981 353 1791 
Q 353 2603 747 3093 
Q 1141 3584 1784 3584 
Q 2172 3584 2450 3431 
Q 2728 3278 2906 2969 
L 2906 3500 
L 3481 3500 
L 3481 434 
z
" transform="scale(0.015625)"/>
      <path id="DejaVuSans-63" d="M 3122 3366 
L 3122 2828 
Q 2878 2963 2633 3030 
Q 2388 3097 2138 3097 
Q 1578 3097 1268 2742 
Q 959 2388 959 1747 
Q 959 1106 1268 751 
Q 1578 397 2138 397 
Q 2388 397 2633 464 
Q 2878 531 3122 666 
L 3122 134 
Q 2881 22 2623 -34 
Q 2366 -91 2075 -91 
Q 1284 -91 818 406 
Q 353 903 353 1747 
Q 353 2603 823 3093 
Q 1294 3584 2113 3584 
Q 2378 3584 2631 3529 
Q 2884 3475 3122 3366 
z
" transform="scale(0.015625)"/>
      <path id="DejaVuSans-66" d="M 2375 4863 
L 2375 4384 
L 1825 4384 
Q 1516 4384 1395 4259 
Q 1275 4134 1275 3809 
L 1275 3500 
L 2222 3500 
L 2222 3053 
L 1275 3053 
L 1275 0 
L 697 0 
L 697 3053 
L 147 3053 
L 147 3500 
L 697 3500 
L 697 3744 
Q 697 4328 969 4595 
Q 1241 4863 1831 4863 
L 2375 4863 
z
" transform="scale(0.015625)"/>
      <path id="DejaVuSans-70" d="M 1159 525 
L 1159 -1331 
L 581 -1331 
L 581 3500 
L 1159 3500 
L 1159 2969 
Q 1341 3281 1617 3432 
Q 1894 3584 2278 3584 
Q 2916 3584 3314 3078 
Q 3713 2572 3713 1747 
Q 3713 922 3314 415 
Q 2916 -91 2278 -91 
Q 1894 -91 1617 61 
Q 1341 213 1159 525 
z
M 3116 1747 
Q 3116 2381 2855 2742 
Q 2594 3103 2138 3103 
Q 1681 3103 1420 2742 
Q 1159 2381 1159 1747 
Q 1159 1113 1420 752 
Q 1681 391 2138 391 
Q 2594 391 2855 752 
Q 3116 1113 3116 1747 
z
" transform="scale(0.015625)"/>
      <path id="DejaVuSans-68" d="M 3513 2113 
L 3513 0 
L 2938 0 
L 2938 2094 
Q 2938 2591 2744 2837 
Q 2550 3084 2163 3084 
Q 1697 3084 1428 2787 
Q 1159 2491 1159 1978 
L 1159 0 
L 581 0 
L 581 4863 
L 1159 4863 
L 1159 2956 
Q 1366 3272 1645 3428 
Q 1925 3584 2291 3584 
Q 2894 3584 3203 3211 
Q 3513 2838 3513 2113 
z
" transform="scale(0.015625)"/>
      <path id="DejaVuSans-5f" d="M 3263 -1063 
L 3263 -1509 
L -63 -1509 
L -63 -1063 
L 3263 -1063 
z
" transform="scale(0.015625)"/>
      <path id="DejaVuSans-55" d="M 556 4666 
L 1191 4666 
L 1191 1831 
Q 1191 1081 1462 751 
Q 1734 422 2344 422 
Q 2950 422 3222 751 
Q 3494 1081 3494 1831 
L 3494 4666 
L 4128 4666 
L 4128 1753 
Q 4128 841 3676 375 
Q 3225 -91 2344 -91 
Q 1459 -91 1007 375 
Q 556 841 556 1753 
L 556 4666 
z
" transform="scale(0.015625)"/>
      <path id="DejaVuSans-49" d="M 628 4666 
L 1259 4666 
L 1259 0 
L 628 0 
L 628 4666 
z
" transform="scale(0.015625)"/>
      <path id="DejaVuSans-78" d="M 3513 3500 
L 2247 1797 
L 3578 0 
L 2900 0 
L 1881 1375 
L 863 0 
L 184 0 
L 1544 1831 
L 300 3500 
L 978 3500 
L 1906 2253 
L 2834 3500 
L 3513 3500 
z
" transform="scale(0.015625)"/>
     </defs>
     <use xlink:href="#DejaVuSans-53"/>
     <use xlink:href="#DejaVuSans-74" transform="translate(63.476562 0)"/>
     <use xlink:href="#DejaVuSans-61" transform="translate(102.685547 0)"/>
     <use xlink:href="#DejaVuSans-74" transform="translate(163.964844 0)"/>
     <use xlink:href="#DejaVuSans-65" transform="translate(203.173828 0)"/>
     <use xlink:href="#DejaVuSans-20" transform="translate(264.697266 0)"/>
     <use xlink:href="#DejaVuSans-56" transform="translate(296.484375 0)"/>
     <use xlink:href="#DejaVuSans-61" transform="translate(357.142578 0)"/>
     <use xlink:href="#DejaVuSans-6c" transform="translate(418.421875 0)"/>
     <use xlink:href="#DejaVuSans-75" transform="translate(446.205078 0)"/>
     <use xlink:href="#DejaVuSans-65" transform="translate(509.583984 0)"/>
     <use xlink:href="#DejaVuSans-20" transform="translate(571.107422 0)"/>
     <use xlink:href="#DejaVuSans-43" transform="translate(602.894531 0)"/>
     <use xlink:href="#DejaVuSans-6f" transform="translate(672.71875 0)"/>
     <use xlink:href="#DejaVuSans-6e" transform="translate(733.900391 0)"/>
     <use xlink:href="#DejaVuSans-76" transform="translate(797.279297 0)"/>
     <use xlink:href="#DejaVuSans-65" transform="translate(856.458984 0)"/>
     <use xlink:href="#DejaVuSans-72" transform="translate(917.982422 0)"/>
     <use xlink:href="#DejaVuSans-67" transform="translate(957.345703 0)"/>
     <use xlink:href="#DejaVuSans-65" transform="translate(1020.822266 0)"/>
     <use xlink:href="#DejaVuSans-6e" transform="translate(1082.345703 0)"/>
     <use xlink:href="#DejaVuSans-63" transform="translate(1145.724609 0)"/>
     <use xlink:href="#DejaVuSans-65" transform="translate(1200.705078 0)"/>
     <use xlink:href="#DejaVuSans-20" transform="translate(1262.228516 0)"/>
     <use xlink:href="#DejaVuSans-66" transform="translate(1294.015625 0)"/>
     <use xlink:href="#DejaVuSans-6f" transform="translate(1329.220703 0)"/>
     <use xlink:href="#DejaVuSans-72" transform="translate(1390.402344 0)"/>
     <use xlink:href="#DejaVuSans-20" transform="translate(1431.515625 0)"/>
     <use xlink:href="#DejaVuSans-70" transform="translate(1463.302734 0)"/>
     <use xlink:href="#DejaVuSans-68" transform="translate(1526.779297 0)"/>
     <use xlink:href="#DejaVuSans-69" transform="translate(1590.158203 0)"/>
     <use xlink:href="#DejaVuSans-5f" transform="translate(1617.941406 0)"/>
     <use xlink:href="#DejaVuSans-55" transform="translate(1667.941406 0)"/>
     <use xlink:href="#DejaVuSans-20" transform="translate(1741.134766 0)"/>
     <use xlink:href="#DejaVuSans-28" transform="translate(1772.921875 0)"/>
     <use xlink:href="#DejaVuSans-49" transform="translate(1811.935547 0)"/>
     <use xlink:href="#DejaVuSans-6e" transform="translate(1841.427734 0)"/>
     <use xlink:href="#DejaVuSans-64" transform="translate(1904.806641 0)"/>
     <use xlink:href="#DejaVuSans-65" transform="translate(1968.283203 0)"/>
     <use xlink:href="#DejaVuSans-78" transform="translate(2028.056641 0)"/>
     <use xlink:href="#DejaVuSans-20" transform="translate(2087.236328 0)"/>
     <use xlink:href="#DejaVuSans-32" transform="translate(2119.023438 0)"/>
     <use xlink:href="#DejaVuSans-29" transform="translate(2182.646484 0)"/>
    </g>
   </g>
   <g id="legend_1">
    <g id="patch_7">
     <path d="M 521.465625 89.19625 
L 641 89.19625 
Q 643 89.19625 643 87.19625 
L 643 58.84 
Q 643 56.84 641 56.84 
L 521.465625 56.84 
Q 519.465625 56.84 519.465625 58.84 
L 519.465625 87.19625 
Q 519.465625 89.19625 521.465625 89.19625 
z
" style="fill: #ffffff; opacity: 0.8; stroke: #cccccc; stroke-linejoin: miter"/>
    </g>
    <g id="line2d_35">
     <path d="M 523.465625 64.938437 
L 533.465625 64.938437 
L 543.465625 64.938437 
" style="fill: none; stroke: #ff0000; stroke-width: 1.5; stroke-linecap: square"/>
    </g>
    <g id="text_20">
     <!-- Baseline KF State -->
     <g transform="translate(551.465625 68.438437) scale(0.1 -0.1)">
      <defs>
       <path id="DejaVuSans-42" d="M 1259 2228 
L 1259 519 
L 2272 519 
Q 2781 519 3026 730 
Q 3272 941 3272 1375 
Q 3272 1813 3026 2020 
Q 2781 2228 2272 2228 
L 1259 2228 
z
M 1259 4147 
L 1259 2741 
L 2194 2741 
Q 2656 2741 2882 2914 
Q 3109 3088 3109 3444 
Q 3109 3797 2882 3972 
Q 2656 4147 2194 4147 
L 1259 4147 
z
M 628 4666 
L 2241 4666 
Q 2963 4666 3353 4366 
Q 3744 4066 3744 3513 
Q 3744 3084 3544 2831 
Q 3344 2578 2956 2516 
Q 3422 2416 3680 2098 
Q 3938 1781 3938 1306 
Q 3938 681 3513 340 
Q 3088 0 2303 0 
L 628 0 
L 628 4666 
z
" transform="scale(0.015625)"/>
       <path id="DejaVuSans-4b" d="M 628 4666 
L 1259 4666 
L 1259 2694 
L 3353 4666 
L 4166 4666 
L 1850 2491 
L 4331 0 
L 3500 0 
L 1259 2247 
L 1259 0 
L 628 0 
L 628 4666 
z
" transform="scale(0.015625)"/>
       <path id="DejaVuSans-46" d="M 628 4666 
L 3309 4666 
L 3309 4134 
L 1259 4134 
L 1259 2759 
L 3109 2759 
L 3109 2228 
L 1259 2228 
L 1259 0 
L 628 0 
L 628 4666 
z
" transform="scale(0.015625)"/>
      </defs>
      <use xlink:href="#DejaVuSans-42"/>
      <use xlink:href="#DejaVuSans-61" transform="translate(68.603516 0)"/>
      <use xlink:href="#DejaVuSans-73" transform="translate(129.882812 0)"/>
      <use xlink:href="#DejaVuSans-65" transform="translate(181.982422 0)"/>
      <use xlink:href="#DejaVuSans-6c" transform="translate(243.505859 0)"/>
      <use xlink:href="#DejaVuSans-69" transform="translate(271.289062 0)"/>
      <use xlink:href="#DejaVuSans-6e" transform="translate(299.072266 0)"/>
      <use xlink:href="#DejaVuSans-65" transform="translate(362.451172 0)"/>
      <use xlink:href="#DejaVuSans-20" transform="translate(423.974609 0)"/>
      <use xlink:href="#DejaVuSans-4b" transform="translate(455.761719 0)"/>
      <use xlink:href="#DejaVuSans-46" transform="translate(521.337891 0)"/>
      <use xlink:href="#DejaVuSans-20" transform="translate(578.857422 0)"/>
      <use xlink:href="#DejaVuSans-53" transform="translate(610.644531 0)"/>
      <use xlink:href="#DejaVuSans-74" transform="translate(674.121094 0)"/>
      <use xlink:href="#DejaVuSans-61" transform="translate(713.330078 0)"/>
      <use xlink:href="#DejaVuSans-74" transform="translate(774.609375 0)"/>
      <use xlink:href="#DejaVuSans-65" transform="translate(813.818359 0)"/>
     </g>
    </g>
    <g id="line2d_36">
     <path d="M 523.465625 79.616562 
L 533.465625 79.616562 
L 543.465625 79.616562 
" style="fill: none; stroke-dasharray: 5.55,2.4; stroke-dashoffset: 0; stroke: #0000ff; stroke-width: 1.5"/>
    </g>
    <g id="text_21">
     <!-- Shadow KF State -->
     <g transform="translate(551.465625 83.116562) scale(0.1 -0.1)">
      <defs>
       <path id="DejaVuSans-77" d="M 269 3500 
L 844 3500 
L 1563 769 
L 2278 3500 
L 2956 3500 
L 3675 769 
L 4391 3500 
L 4966 3500 
L 4050 0 
L 3372 0 
L 2619 2869 
L 1863 0 
L 1184 0 
L 269 3500 
z
" transform="scale(0.015625)"/>
      </defs>
      <use xlink:href="#DejaVuSans-53"/>
      <use xlink:href="#DejaVuSans-68" transform="translate(63.476562 0)"/>
      <use xlink:href="#DejaVuSans-61" transform="translate(126.855469 0)"/>
      <use xlink:href="#DejaVuSans-64" transform="translate(188.134766 0)"/>
      <use xlink:href="#DejaVuSans-6f" transform="translate(251.611328 0)"/>
      <use xlink:href="#DejaVuSans-77" transform="translate(312.792969 0)"/>
      <use xlink:href="#DejaVuSans-20" transform="translate(394.580078 0)"/>
      <use xlink:href="#DejaVuSans-4b" transform="translate(426.367188 0)"/>
      <use xlink:href="#DejaVuSans-46" transform="translate(491.943359 0)"/>
      <use xlink:href="#DejaVuSans-20" transform="translate(549.462891 0)"/>
      <use xlink:href="#DejaVuSans-53" transform="translate(581.25 0)"/>
      <use xlink:href="#DejaVuSans-74" transform="translate(644.726562 0)"/>
      <use xlink:href="#DejaVuSans-61" transform="translate(683.935547 0)"/>
      <use xlink:href="#DejaVuSans-74" transform="translate(745.214844 0)"/>
      <use xlink:href="#DejaVuSans-65" transform="translate(784.423828 0)"/>
     </g>
    </g>
   </g>
  </g>
 </g>
 <defs>
  <clipPath id="pf23b5997b2">
   <rect x="90" y="51.84" width="558" height="332.64"/>
  </clipPath>
 </defs>
</svg>
