<?xml version="1.0" encoding="utf-8" standalone="no"?>
<!DOCTYPE svg PUBLIC "-//W3C//DTD SVG 1.1//EN"
  "http://www.w3.org/Graphics/SVG/1.1/DTD/svg11.dtd">
<svg xmlns:xlink="http://www.w3.org/1999/xlink" width="720pt" height="432pt" viewBox="0 0 720 432" xmlns="http://www.w3.org/2000/svg" version="1.1">
 <metadata>
  <rdf:RDF xmlns:dc="http://purl.org/dc/elements/1.1/" xmlns:cc="http://creativecommons.org/ns#" xmlns:rdf="http://www.w3.org/1999/02/22-rdf-syntax-ns#">
   <cc:Work>
    <dc:type rdf:resource="http://purl.org/dc/dcmitype/StillImage"/>
    <dc:date>2026-03-25T09:55:29.613995</dc:date>
    <dc:format>image/svg+xml</dc:format>
    <dc:creator>
     <cc:Agent>
      <dc:title>Matplotlib v3.10.8, https://matplotlib.org/</dc:title>
     </cc:Agent>
    </dc:creator>
   </cc:Work>
  </rdf:RDF>
 </metadata>
 <defs>
  <style type="text/css">*{stroke-linejoin: round; stroke-linecap: butt}</style>
 </defs>
 <g id="figure_1">
  <g id="patch_1">
   <path d="M 0 432 
L 720 432 
L 720 0 
L 0 0 
z
" style="fill: #ffffff"/>
  </g>
  <g id="axes_1">
   <g id="patch_2">
    <path d="M 90 384.48 
L 648 384.48 
L 648 51.84 
L 90 51.84 
z
" style="fill: #ffffff"/>
   </g>
   <g id="matplotlib.axis_1">
    <g id="xtick_1">
     <g id="line2d_1">
      <path d="M 115.363636 384.48 
L 115.363636 51.84 
" clip-path="url(#p4ff7ca009a)" style="fill: none; stroke: #b0b0b0; stroke-width: 0.8; stroke-linecap: square"/>
     </g>
     <g id="line2d_2">
      <defs>
       <path id="mdd007c9e1b" d="M 0 0 
L 0 3.5 
" style="stroke: #000000; stroke-width: 0.8"/>
      </defs>
      <g>
       <use xlink:href="#mdd007c9e1b" x="115.363636" y="384.48" style="stroke: #000000; stroke-width: 0.8"/>
      </g>
     </g>
     <g id="text_1">
      <!-- 0 -->
      <g transform="translate(112.182386 399.078438) scale(0.1 -0.1)">
       <defs>
        <path id="DejaVuSans-30" d="M 2034 4250 
Q 1547 4250 1301 3770 
Q 1056 3291 1056 2328 
Q 1056 1369 1301 889 
Q 1547 409 2034 409 
Q 2525 409 2770 889 
Q 3016 1369 3016 2328 
Q 3016 3291 2770 3770 
Q 2525 4250 2034 4250 
z
M 2034 4750 
Q 2819 4750 3233 4129 
Q 3647 3509 3647 2328 
Q 3647 1150 3233 529 
Q 2819 -91 2034 -91 
Q 1250 -91 836 529 
Q 422 1150 422 2328 
Q 422 3509 836 4129 
Q 1250 4750 2034 4750 
z
" transform="scale(0.015625)"/>
       </defs>
       <use xlink:href="#DejaVuSans-30"/>
      </g>
     </g>
    </g>
    <g id="xtick_2">
     <g id="line2d_3">
      <path d="M 201.605174 384.48 
L 201.605174 51.84 
" clip-path="url(#p4ff7ca009a)" style="fill: none; stroke: #b0b0b0; stroke-width: 0.8; stroke-linecap: square"/>
     </g>
     <g id="line2d_4">
      <g>
       <use xlink:href="#mdd007c9e1b" x="201.605174" y="384.48" style="stroke: #000000; stroke-width: 0.8"/>
      </g>
     </g>
     <g id="text_2">
      <!-- 50 -->
      <g transform="translate(195.242674 399.078438) scale(0.1 -0.1)">
       <defs>
        <path id="DejaVuSans-35" d="M 691 4666 
L 3169 4666 
L 3169 4134 
L 1269 4134 
L 1269 2991 
Q 1406 3038 1543 3061 
Q 1681 3084 1819 3084 
Q 2600 3084 3056 2656 
Q 3513 2228 3513 1497 
Q 3513 744 3044 326 
Q 2575 -91 1722 -91 
Q 1428 -91 1123 -41 
Q 819 9 494 109 
L 494 744 
Q 775 591 1075 516 
Q 1375 441 1709 441 
Q 2250 441 2565 725 
Q 2881 1009 2881 1497 
Q 2881 1984 2565 2268 
Q 2250 2553 1709 2553 
Q 1456 2553 1204 2497 
Q 953 2441 691 2322 
L 691 4666 
z
" transform="scale(0.015625)"/>
       </defs>
       <use xlink:href="#DejaVuSans-35"/>
       <use xlink:href="#DejaVuSans-30" transform="translate(63.623047 0)"/>
      </g>
     </g>
    </g>
    <g id="xtick_3">
     <g id="line2d_5">
      <path d="M 287.846713 384.48 
L 287.846713 51.84 
" clip-path="url(#p4ff7ca009a)" style="fill: none; stroke: #b0b0b0; stroke-width: 0.8; stroke-linecap: square"/>
     </g>
     <g id="line2d_6">
      <g>
       <use xlink:href="#mdd007c9e1b" x="287.846713" y="384.48" style="stroke: #000000; stroke-width: 0.8"/>
      </g>
     </g>
     <g id="text_3">
      <!-- 100 -->
      <g transform="translate(278.302963 399.078438) scale(0.1 -0.1)">
       <defs>
        <path id="DejaVuSans-31" d="M 794 531 
L 1825 531 
L 1825 4091 
L 703 3866 
L 703 4441 
L 1819 4666 
L 2450 4666 
L 2450 531 
L 3481 531 
L 3481 0 
L 794 0 
L 794 531 
z
" transform="scale(0.015625)"/>
       </defs>
       <use xlink:href="#DejaVuSans-31"/>
       <use xlink:href="#DejaVuSans-30" transform="translate(63.623047 0)"/>
       <use xlink:href="#DejaVuSans-30" transform="translate(127.246094 0)"/>
      </g>
     </g>
    </g>
    <g id="xtick_4">
     <g id="line2d_7">
      <path d="M 374.088251 384.48 
L 374.088251 51.84 
" clip-path="url(#p4ff7ca009a)" style="fill: none; stroke: #b0b0b0; stroke-width: 0.8; stroke-linecap: square"/>
     </g>
     <g id="line2d_8">
      <g>
       <use xlink:href="#mdd007c9e1b" x="374.088251" y="384.48" style="stroke: #000000; stroke-width: 0.8"/>
      </g>
     </g>
     <g id="text_4">
      <!-- 150 -->
      <g transform="translate(364.544501 399.078438) scale(0.1 -0.1)">
       <use xlink:href="#DejaVuSans-31"/>
       <use xlink:href="#DejaVuSans-35" transform="translate(63.623047 0)"/>
       <use xlink:href="#DejaVuSans-30" transform="translate(127.246094 0)"/>
      </g>
     </g>
    </g>
    <g id="xtick_5">
     <g id="line2d_9">
      <path d="M 460.329789 384.48 
L 460.329789 51.84 
" clip-path="url(#p4ff7ca009a)" style="fill: none; stroke: #b0b0b0; stroke-width: 0.8; stroke-linecap: square"/>
     </g>
     <g id="line2d_10">
      <g>
       <use xlink:href="#mdd007c9e1b" x="460.329789" y="384.48" style="stroke: #000000; stroke-width: 0.8"/>
      </g>
     </g>
     <g id="text_5">
      <!-- 200 -->
      <g transform="translate(450.786039 399.078438) scale(0.1 -0.1)">
       <defs>
        <path id="DejaVuSans-32" d="M 1228 531 
L 3431 531 
L 3431 0 
L 469 0 
L 469 531 
Q 828 903 1448 1529 
Q 2069 2156 2228 2338 
Q 2531 2678 2651 2914 
Q 2772 3150 2772 3378 
Q 2772 3750 2511 3984 
Q 2250 4219 1831 4219 
Q 1534 4219 1204 4116 
Q 875 4013 500 3803 
L 500 4441 
Q 881 4594 1212 4672 
Q 1544 4750 1819 4750 
Q 2544 4750 2975 4387 
Q 3406 4025 3406 3419 
Q 3406 3131 3298 2873 
Q 3191 2616 2906 2266 
Q 2828 2175 2409 1742 
Q 1991 1309 1228 531 
z
" transform="scale(0.015625)"/>
       </defs>
       <use xlink:href="#DejaVuSans-32"/>
       <use xlink:href="#DejaVuSans-30" transform="translate(63.623047 0)"/>
       <use xlink:href="#DejaVuSans-30" transform="translate(127.246094 0)"/>
      </g>
     </g>
    </g>
    <g id="xtick_6">
     <g id="line2d_11">
      <path d="M 546.571327 384.48 
L 546.571327 51.84 
" clip-path="url(#p4ff7ca009a)" style="fill: none; stroke: #b0b0b0; stroke-width: 0.8; stroke-linecap: square"/>
     </g>
     <g id="line2d_12">
      <g>
       <use xlink:href="#mdd007c9e1b" x="546.571327" y="384.48" style="stroke: #000000; stroke-width: 0.8"/>
      </g>
     </g>
     <g id="text_6">
      <!-- 250 -->
      <g transform="translate(537.027577 399.078438) scale(0.1 -0.1)">
       <use xlink:href="#DejaVuSans-32"/>
       <use xlink:href="#DejaVuSans-35" transform="translate(63.623047 0)"/>
       <use xlink:href="#DejaVuSans-30" transform="translate(127.246094 0)"/>
      </g>
     </g>
    </g>
    <g id="xtick_7">
     <g id="line2d_13">
      <path d="M 632.812865 384.48 
L 632.812865 51.84 
" clip-path="url(#p4ff7ca009a)" style="fill: none; stroke: #b0b0b0; stroke-width: 0.8; stroke-linecap: square"/>
     </g>
     <g id="line2d_14">
      <g>
       <use xlink:href="#mdd007c9e1b" x="632.812865" y="384.48" style="stroke: #000000; stroke-width: 0.8"/>
      </g>
     </g>
     <g id="text_7">
      <!-- 300 -->
      <g transform="translate(623.269115 399.078438) scale(0.1 -0.1)">
       <defs>
        <path id="DejaVuSans-33" d="M 2597 2516 
Q 3050 2419 3304 2112 
Q 3559 1806 3559 1356 
Q 3559 666 3084 287 
Q 2609 -91 1734 -91 
Q 1441 -91 1130 -33 
Q 819 25 488 141 
L 488 750 
Q 750 597 1062 519 
Q 1375 441 1716 441 
Q 2309 441 2620 675 
Q 2931 909 2931 1356 
Q 2931 1769 2642 2001 
Q 2353 2234 1838 2234 
L 1294 2234 
L 1294 2753 
L 1863 2753 
Q 2328 2753 2575 2939 
Q 2822 3125 2822 3475 
Q 2822 3834 2567 4026 
Q 2313 4219 1838 4219 
Q 1578 4219 1281 4162 
Q 984 4106 628 3988 
L 628 4550 
Q 988 4650 1302 4700 
Q 1616 4750 1894 4750 
Q 2613 4750 3031 4423 
Q 3450 4097 3450 3541 
Q 3450 3153 3228 2886 
Q 3006 2619 2597 2516 
z
" transform="scale(0.015625)"/>
       </defs>
       <use xlink:href="#DejaVuSans-33"/>
       <use xlink:href="#DejaVuSans-30" transform="translate(63.623047 0)"/>
       <use xlink:href="#DejaVuSans-30" transform="translate(127.246094 0)"/>
      </g>
     </g>
    </g>
    <g id="text_8">
     <!-- Maneuver Time (s) -->
     <g transform="translate(322.198438 412.756563) scale(0.1 -0.1)">
      <defs>
       <path id="DejaVuSans-4d" d="M 628 4666 
L 1569 4666 
L 2759 1491 
L 3956 4666 
L 4897 4666 
L 4897 0 
L 4281 0 
L 4281 4097 
L 3078 897 
L 2444 897 
L 1241 4097 
L 1241 0 
L 628 0 
L 628 4666 
z
" transform="scale(0.015625)"/>
       <path id="DejaVuSans-61" d="M 2194 1759 
Q 1497 1759 1228 1600 
Q 959 1441 959 1056 
Q 959 750 1161 570 
Q 1363 391 1709 391 
Q 2188 391 2477 730 
Q 2766 1069 2766 1631 
L 2766 1759 
L 2194 1759 
z
M 3341 1997 
L 3341 0 
L 2766 0 
L 2766 531 
Q 2569 213 2275 61 
Q 1981 -91 1556 -91 
Q 1019 -91 701 211 
Q 384 513 384 1019 
Q 384 1609 779 1909 
Q 1175 2209 1959 2209 
L 2766 2209 
L 2766 2266 
Q 2766 2663 2505 2880 
Q 2244 3097 1772 3097 
Q 1472 3097 1187 3025 
Q 903 2953 641 2809 
L 641 3341 
Q 956 3463 1253 3523 
Q 1550 3584 1831 3584 
Q 2591 3584 2966 3190 
Q 3341 2797 3341 1997 
z
" transform="scale(0.015625)"/>
       <path id="DejaVuSans-6e" d="M 3513 2113 
L 3513 0 
L 2938 0 
L 2938 2094 
Q 2938 2591 2744 2837 
Q 2550 3084 2163 3084 
Q 1697 3084 1428 2787 
Q 1159 2491 1159 1978 
L 1159 0 
L 581 0 
L 581 3500 
L 1159 3500 
L 1159 2956 
Q 1366 3272 1645 3428 
Q 1925 3584 2291 3584 
Q 2894 3584 3203 3211 
Q 3513 2838 3513 2113 
z
" transform="scale(0.015625)"/>
       <path id="DejaVuSans-65" d="M 3597 1894 
L 3597 1613 
L 953 1613 
Q 991 1019 1311 708 
Q 1631 397 2203 397 
Q 2534 397 2845 478 
Q 3156 559 3463 722 
L 3463 178 
Q 3153 47 2828 -22 
Q 2503 -91 2169 -91 
Q 1331 -91 842 396 
Q 353 884 353 1716 
Q 353 2575 817 3079 
Q 1281 3584 2069 3584 
Q 2775 3584 3186 3129 
Q 3597 2675 3597 1894 
z
M 3022 2063 
Q 3016 2534 2758 2815 
Q 2500 3097 2075 3097 
Q 1594 3097 1305 2825 
Q 1016 2553 972 2059 
L 3022 2063 
z
" transform="scale(0.015625)"/>
       <path id="DejaVuSans-75" d="M 544 1381 
L 544 3500 
L 1119 3500 
L 1119 1403 
Q 1119 906 1312 657 
Q 1506 409 1894 409 
Q 2359 409 2629 706 
Q 2900 1003 2900 1516 
L 2900 3500 
L 3475 3500 
L 3475 0 
L 2900 0 
L 2900 538 
Q 2691 219 2414 64 
Q 2138 -91 1772 -91 
Q 1169 -91 856 284 
Q 544 659 544 1381 
z
M 1991 3584 
L 1991 3584 
z
" transform="scale(0.015625)"/>
       <path id="DejaVuSans-76" d="M 191 3500 
L 800 3500 
L 1894 563 
L 2988 3500 
L 3597 3500 
L 2284 0 
L 1503 0 
L 191 3500 
z
" transform="scale(0.015625)"/>
       <path id="DejaVuSans-72" d="M 2631 2963 
Q 2534 3019 2420 3045 
Q 2306 3072 2169 3072 
Q 1681 3072 1420 2755 
Q 1159 2438 1159 1844 
L 1159 0 
L 581 0 
L 581 3500 
L 1159 3500 
L 1159 2956 
Q 1341 3275 1631 3429 
Q 1922 3584 2338 3584 
Q 2397 3584 2469 3576 
Q 2541 3569 2628 3553 
L 2631 2963 
z
" transform="scale(0.015625)"/>
       <path id="DejaVuSans-20" transform="scale(0.015625)"/>
       <path id="DejaVuSans-54" d="M -19 4666 
L 3928 4666 
L 3928 4134 
L 2272 4134 
L 2272 0 
L 1638 0 
L 1638 4134 
L -19 4134 
L -19 4666 
z
" transform="scale(0.015625)"/>
       <path id="DejaVuSans-69" d="M 603 3500 
L 1178 3500 
L 1178 0 
L 603 0 
L 603 3500 
z
M 603 4863 
L 1178 4863 
L 1178 4134 
L 603 4134 
L 603 4863 
z
" transform="scale(0.015625)"/>
       <path id="DejaVuSans-6d" d="M 3328 2828 
Q 3544 3216 3844 3400 
Q 4144 3584 4550 3584 
Q 5097 3584 5394 3201 
Q 5691 2819 5691 2113 
L 5691 0 
L 5113 0 
L 5113 2094 
Q 5113 2597 4934 2840 
Q 4756 3084 4391 3084 
Q 3944 3084 3684 2787 
Q 3425 2491 3425 1978 
L 3425 0 
L 2847 0 
L 2847 2094 
Q 2847 2600 2669 2842 
Q 2491 3084 2119 3084 
Q 1678 3084 1418 2786 
Q 1159 2488 1159 1978 
L 1159 0 
L 581 0 
L 581 3500 
L 1159 3500 
L 1159 2956 
Q 1356 3278 1631 3431 
Q 1906 3584 2284 3584 
Q 2666 3584 2933 3390 
Q 3200 3197 3328 2828 
z
" transform="scale(0.015625)"/>
       <path id="DejaVuSans-28" d="M 1984 4856 
Q 1566 4138 1362 3434 
Q 1159 2731 1159 2009 
Q 1159 1288 1364 580 
Q 1569 -128 1984 -844 
L 1484 -844 
Q 1016 -109 783 600 
Q 550 1309 550 2009 
Q 550 2706 781 3412 
Q 1013 4119 1484 4856 
L 1984 4856 
z
" transform="scale(0.015625)"/>
       <path id="DejaVuSans-73" d="M 2834 3397 
L 2834 2853 
Q 2591 2978 2328 3040 
Q 2066 3103 1784 3103 
Q 1356 3103 1142 2972 
Q 928 2841 928 2578 
Q 928 2378 1081 2264 
Q 1234 2150 1697 2047 
L 1894 2003 
Q 2506 1872 2764 1633 
Q 3022 1394 3022 966 
Q 3022 478 2636 193 
Q 2250 -91 1575 -91 
Q 1294 -91 989 -36 
Q 684 19 347 128 
L 347 722 
Q 666 556 975 473 
Q 1284 391 1588 391 
Q 1994 391 2212 530 
Q 2431 669 2431 922 
Q 2431 1156 2273 1281 
Q 2116 1406 1581 1522 
L 1381 1569 
Q 847 1681 609 1914 
Q 372 2147 372 2553 
Q 372 3047 722 3315 
Q 1072 3584 1716 3584 
Q 2034 3584 2315 3537 
Q 2597 3491 2834 3397 
z
" transform="scale(0.015625)"/>
       <path id="DejaVuSans-29" d="M 513 4856 
L 1013 4856 
Q 1481 4119 1714 3412 
Q 1947 2706 1947 2009 
Q 1947 1309 1714 600 
Q 1481 -109 1013 -844 
L 513 -844 
Q 928 -128 1133 580 
Q 1338 1288 1338 2009 
Q 1338 2731 1133 3434 
Q 928 4138 513 4856 
z
" transform="scale(0.015625)"/>
      </defs>
      <use xlink:href="#DejaVuSans-4d"/>
      <use xlink:href="#DejaVuSans-61" transform="translate(86.279297 0)"/>
      <use xlink:href="#DejaVuSans-6e" transform="translate(147.558594 0)"/>
      <use xlink:href="#DejaVuSans-65" transform="translate(210.9375 0)"/>
      <use xlink:href="#DejaVuSans-75" transform="translate(272.460938 0)"/>
      <use xlink:href="#DejaVuSans-76" transform="translate(335.839844 0)"/>
      <use xlink:href="#DejaVuSans-65" transform="translate(395.019531 0)"/>
      <use xlink:href="#DejaVuSans-72" transform="translate(456.542969 0)"/>
      <use xlink:href="#DejaVuSans-20" transform="translate(497.65625 0)"/>
      <use xlink:href="#DejaVuSans-54" transform="translate(529.443359 0)"/>
      <use xlink:href="#DejaVuSans-69" transform="translate(587.402344 0)"/>
      <use xlink:href="#DejaVuSans-6d" transform="translate(615.185547 0)"/>
      <use xlink:href="#DejaVuSans-65" transform="translate(712.597656 0)"/>
      <use xlink:href="#DejaVuSans-20" transform="translate(774.121094 0)"/>
      <use xlink:href="#DejaVuSans-28" transform="translate(805.908203 0)"/>
      <use xlink:href="#DejaVuSans-73" transform="translate(844.921875 0)"/>
      <use xlink:href="#DejaVuSans-29" transform="translate(897.021484 0)"/>
     </g>
    </g>
   </g>
   <g id="matplotlib.axis_2">
    <g id="ytick_1">
     <g id="line2d_15">
      <path d="M 90 364.019506 
L 648 364.019506 
" clip-path="url(#p4ff7ca009a)" style="fill: none; stroke: #b0b0b0; stroke-width: 0.8; stroke-linecap: square"/>
     </g>
     <g id="line2d_16">
      <defs>
       <path id="m26f38e42b8" d="M 0 0 
L -3.5 0 
" style="stroke: #000000; stroke-width: 0.8"/>
      </defs>
      <g>
       <use xlink:href="#m26f38e42b8" x="90" y="364.019506" style="stroke: #000000; stroke-width: 0.8"/>
      </g>
     </g>
     <g id="text_9">
      <!-- −0.0012 -->
      <g transform="translate(39.629687 367.818724) scale(0.1 -0.1)">
       <defs>
        <path id="DejaVuSans-2212" d="M 678 2272 
L 4684 2272 
L 4684 1741 
L 678 1741 
L 678 2272 
z
" transform="scale(0.015625)"/>
        <path id="DejaVuSans-2e" d="M 684 794 
L 1344 794 
L 1344 0 
L 684 0 
L 684 794 
z
" transform="scale(0.015625)"/>
       </defs>
       <use xlink:href="#DejaVuSans-2212"/>
       <use xlink:href="#DejaVuSans-30" transform="translate(83.789062 0)"/>
       <use xlink:href="#DejaVuSans-2e" transform="translate(147.412109 0)"/>
       <use xlink:href="#DejaVuSans-30" transform="translate(179.199219 0)"/>
       <use xlink:href="#DejaVuSans-30" transform="translate(242.822266 0)"/>
       <use xlink:href="#DejaVuSans-31" transform="translate(306.445312 0)"/>
       <use xlink:href="#DejaVuSans-32" transform="translate(370.068359 0)"/>
      </g>
     </g>
    </g>
    <g id="ytick_2">
     <g id="line2d_17">
      <path d="M 90 315.345947 
L 648 315.345947 
" clip-path="url(#p4ff7ca009a)" style="fill: none; stroke: #b0b0b0; stroke-width: 0.8; stroke-linecap: square"/>
     </g>
     <g id="line2d_18">
      <g>
       <use xlink:href="#m26f38e42b8" x="90" y="315.345947" style="stroke: #000000; stroke-width: 0.8"/>
      </g>
     </g>
     <g id="text_10">
      <!-- −0.0010 -->
      <g transform="translate(39.629687 319.145166) scale(0.1 -0.1)">
       <use xlink:href="#DejaVuSans-2212"/>
       <use xlink:href="#DejaVuSans-30" transform="translate(83.789062 0)"/>
       <use xlink:href="#DejaVuSans-2e" transform="translate(147.412109 0)"/>
       <use xlink:href="#DejaVuSans-30" transform="translate(179.199219 0)"/>
       <use xlink:href="#DejaVuSans-30" transform="translate(242.822266 0)"/>
       <use xlink:href="#DejaVuSans-31" transform="translate(306.445312 0)"/>
       <use xlink:href="#DejaVuSans-30" transform="translate(370.068359 0)"/>
      </g>
     </g>
    </g>
    <g id="ytick_3">
     <g id="line2d_19">
      <path d="M 90 266.672388 
L 648 266.672388 
" clip-path="url(#p4ff7ca009a)" style="fill: none; stroke: #b0b0b0; stroke-width: 0.8; stroke-linecap: square"/>
     </g>
     <g id="line2d_20">
      <g>
       <use xlink:href="#m26f38e42b8" x="90" y="266.672388" style="stroke: #000000; stroke-width: 0.8"/>
      </g>
     </g>
     <g id="text_11">
      <!-- −0.0008 -->
      <g transform="translate(39.629687 270.471607) scale(0.1 -0.1)">
       <defs>
        <path id="DejaVuSans-38" d="M 2034 2216 
Q 1584 2216 1326 1975 
Q 1069 1734 1069 1313 
Q 1069 891 1326 650 
Q 1584 409 2034 409 
Q 2484 409 2743 651 
Q 3003 894 3003 1313 
Q 3003 1734 2745 1975 
Q 2488 2216 2034 2216 
z
M 1403 2484 
Q 997 2584 770 2862 
Q 544 3141 544 3541 
Q 544 4100 942 4425 
Q 1341 4750 2034 4750 
Q 2731 4750 3128 4425 
Q 3525 4100 3525 3541 
Q 3525 3141 3298 2862 
Q 3072 2584 2669 2484 
Q 3125 2378 3379 2068 
Q 3634 1759 3634 1313 
Q 3634 634 3220 271 
Q 2806 -91 2034 -91 
Q 1263 -91 848 271 
Q 434 634 434 1313 
Q 434 1759 690 2068 
Q 947 2378 1403 2484 
z
M 1172 3481 
Q 1172 3119 1398 2916 
Q 1625 2713 2034 2713 
Q 2441 2713 2670 2916 
Q 2900 3119 2900 3481 
Q 2900 3844 2670 4047 
Q 2441 4250 2034 4250 
Q 1625 4250 1398 4047 
Q 1172 3844 1172 3481 
z
" transform="scale(0.015625)"/>
       </defs>
       <use xlink:href="#DejaVuSans-2212"/>
       <use xlink:href="#DejaVuSans-30" transform="translate(83.789062 0)"/>
       <use xlink:href="#DejaVuSans-2e" transform="translate(147.412109 0)"/>
       <use xlink:href="#DejaVuSans-30" transform="translate(179.199219 0)"/>
       <use xlink:href="#DejaVuSans-30" transform="translate(242.822266 0)"/>
       <use xlink:href="#DejaVuSans-30" transform="translate(306.445312 0)"/>
       <use xlink:href="#DejaVuSans-38" transform="translate(370.068359 0)"/>
      </g>
     </g>
    </g>
    <g id="ytick_4">
     <g id="line2d_21">
      <path d="M 90 217.99883 
L 648 217.99883 
" clip-path="url(#p4ff7ca009a)" style="fill: none; stroke: #b0b0b0; stroke-width: 0.8; stroke-linecap: square"/>
     </g>
     <g id="line2d_22">
      <g>
       <use xlink:href="#m26f38e42b8" x="90" y="217.99883" style="stroke: #000000; stroke-width: 0.8"/>
      </g>
     </g>
     <g id="text_12">
      <!-- −0.0006 -->
      <g transform="translate(39.629687 221.798048) scale(0.1 -0.1)">
       <defs>
        <path id="DejaVuSans-36" d="M 2113 2584 
Q 1688 2584 1439 2293 
Q 1191 2003 1191 1497 
Q 1191 994 1439 701 
Q 1688 409 2113 409 
Q 2538 409 2786 701 
Q 3034 994 3034 1497 
Q 3034 2003 2786 2293 
Q 2538 2584 2113 2584 
z
M 3366 4563 
L 3366 3988 
Q 3128 4100 2886 4159 
Q 2644 4219 2406 4219 
Q 1781 4219 1451 3797 
Q 1122 3375 1075 2522 
Q 1259 2794 1537 2939 
Q 1816 3084 2150 3084 
Q 2853 3084 3261 2657 
Q 3669 2231 3669 1497 
Q 3669 778 3244 343 
Q 2819 -91 2113 -91 
Q 1303 -91 875 529 
Q 447 1150 447 2328 
Q 447 3434 972 4092 
Q 1497 4750 2381 4750 
Q 2619 4750 2861 4703 
Q 3103 4656 3366 4563 
z
" transform="scale(0.015625)"/>
       </defs>
       <use xlink:href="#DejaVuSans-2212"/>
       <use xlink:href="#DejaVuSans-30" transform="translate(83.789062 0)"/>
       <use xlink:href="#DejaVuSans-2e" transform="translate(147.412109 0)"/>
       <use xlink:href="#DejaVuSans-30" transform="translate(179.199219 0)"/>
       <use xlink:href="#DejaVuSans-30" transform="translate(242.822266 0)"/>
       <use xlink:href="#DejaVuSans-30" transform="translate(306.445312 0)"/>
       <use xlink:href="#DejaVuSans-36" transform="translate(370.068359 0)"/>
      </g>
     </g>
    </g>
    <g id="ytick_5">
     <g id="line2d_23">
      <path d="M 90 169.325271 
L 648 169.325271 
" clip-path="url(#p4ff7ca009a)" style="fill: none; stroke: #b0b0b0; stroke-width: 0.8; stroke-linecap: square"/>
     </g>
     <g id="line2d_24">
      <g>
       <use xlink:href="#m26f38e42b8" x="90" y="169.325271" style="stroke: #000000; stroke-width: 0.8"/>
      </g>
     </g>
     <g id="text_13">
      <!-- −0.0004 -->
      <g transform="translate(39.629687 173.12449) scale(0.1 -0.1)">
       <defs>
        <path id="DejaVuSans-34" d="M 2419 4116 
L 825 1625 
L 2419 1625 
L 2419 4116 
z
M 2253 4666 
L 3047 4666 
L 3047 1625 
L 3713 1625 
L 3713 1100 
L 3047 1100 
L 3047 0 
L 2419 0 
L 2419 1100 
L 313 1100 
L 313 1709 
L 2253 4666 
z
" transform="scale(0.015625)"/>
       </defs>
       <use xlink:href="#DejaVuSans-2212"/>
       <use xlink:href="#DejaVuSans-30" transform="translate(83.789062 0)"/>
       <use xlink:href="#DejaVuSans-2e" transform="translate(147.412109 0)"/>
       <use xlink:href="#DejaVuSans-30" transform="translate(179.199219 0)"/>
       <use xlink:href="#DejaVuSans-30" transform="translate(242.822266 0)"/>
       <use xlink:href="#DejaVuSans-30" transform="translate(306.445312 0)"/>
       <use xlink:href="#DejaVuSans-34" transform="translate(370.068359 0)"/>
      </g>
     </g>
    </g>
    <g id="ytick_6">
     <g id="line2d_25">
      <path d="M 90 120.651712 
L 648 120.651712 
" clip-path="url(#p4ff7ca009a)" style="fill: none; stroke: #b0b0b0; stroke-width: 0.8; stroke-linecap: square"/>
     </g>
     <g id="line2d_26">
      <g>
       <use xlink:href="#m26f38e42b8" x="90" y="120.651712" style="stroke: #000000; stroke-width: 0.8"/>
      </g>
     </g>
     <g id="text_14">
      <!-- −0.0002 -->
      <g transform="translate(39.629687 124.450931) scale(0.1 -0.1)">
       <use xlink:href="#DejaVuSans-2212"/>
       <use xlink:href="#DejaVuSans-30" transform="translate(83.789062 0)"/>
       <use xlink:href="#DejaVuSans-2e" transform="translate(147.412109 0)"/>
       <use xlink:href="#DejaVuSans-30" transform="translate(179.199219 0)"/>
       <use xlink:href="#DejaVuSans-30" transform="translate(242.822266 0)"/>
       <use xlink:href="#DejaVuSans-30" transform="translate(306.445312 0)"/>
       <use xlink:href="#DejaVuSans-32" transform="translate(370.068359 0)"/>
      </g>
     </g>
    </g>
    <g id="ytick_7">
     <g id="line2d_27">
      <path d="M 90 71.978153 
L 648 71.978153 
" clip-path="url(#p4ff7ca009a)" style="fill: none; stroke: #b0b0b0; stroke-width: 0.8; stroke-linecap: square"/>
     </g>
     <g id="line2d_28">
      <g>
       <use xlink:href="#m26f38e42b8" x="90" y="71.978153" style="stroke: #000000; stroke-width: 0.8"/>
      </g>
     </g>
     <g id="text_15">
      <!-- 0.0000 -->
      <g transform="translate(48.009375 75.777372) scale(0.1 -0.1)">
       <use xlink:href="#DejaVuSans-30"/>
       <use xlink:href="#DejaVuSans-2e" transform="translate(63.623047 0)"/>
       <use xlink:href="#DejaVuSans-30" transform="translate(95.410156 0)"/>
       <use xlink:href="#DejaVuSans-30" transform="translate(159.033203 0)"/>
       <use xlink:href="#DejaVuSans-30" transform="translate(222.65625 0)"/>
       <use xlink:href="#DejaVuSans-30" transform="translate(286.279297 0)"/>
      </g>
     </g>
    </g>
    <g id="text_16">
     <!-- Estimated Value -->
     <g transform="translate(33.55 258.738906) rotate(-90) scale(0.1 -0.1)">
      <defs>
       <path id="DejaVuSans-45" d="M 628 4666 
L 3578 4666 
L 3578 4134 
L 1259 4134 
L 1259 2753 
L 3481 2753 
L 3481 2222 
L 1259 2222 
L 1259 531 
L 3634 531 
L 3634 0 
L 628 0 
L 628 4666 
z
" transform="scale(0.015625)"/>
       <path id="DejaVuSans-74" d="M 1172 4494 
L 1172 3500 
L 2356 3500 
L 2356 3053 
L 1172 3053 
L 1172 1153 
Q 1172 725 1289 603 
Q 1406 481 1766 481 
L 2356 481 
L 2356 0 
L 1766 0 
Q 1100 0 847 248 
Q 594 497 594 1153 
L 594 3053 
L 172 3053 
L 172 3500 
L 594 3500 
L 594 4494 
L 1172 4494 
z
" transform="scale(0.015625)"/>
       <path id="DejaVuSans-64" d="M 2906 2969 
L 2906 4863 
L 3481 4863 
L 3481 0 
L 2906 0 
L 2906 525 
Q 2725 213 2448 61 
Q 2172 -91 1784 -91 
Q 1150 -91 751 415 
Q 353 922 353 1747 
Q 353 2572 751 3078 
Q 1150 3584 1784 3584 
Q 2172 3584 2448 3432 
Q 2725 3281 2906 2969 
z
M 947 1747 
Q 947 1113 1208 752 
Q 1469 391 1925 391 
Q 2381 391 2643 752 
Q 2906 1113 2906 1747 
Q 2906 2381 2643 2742 
Q 2381 3103 1925 3103 
Q 1469 3103 1208 2742 
Q 947 2381 947 1747 
z
" transform="scale(0.015625)"/>
       <path id="DejaVuSans-56" d="M 1831 0 
L 50 4666 
L 709 4666 
L 2188 738 
L 3669 4666 
L 4325 4666 
L 2547 0 
L 1831 0 
z
" transform="scale(0.015625)"/>
       <path id="DejaVuSans-6c" d="M 603 4863 
L 1178 4863 
L 1178 0 
L 603 0 
L 603 4863 
z
" transform="scale(0.015625)"/>
      </defs>
      <use xlink:href="#DejaVuSans-45"/>
      <use xlink:href="#DejaVuSans-73" transform="translate(63.183594 0)"/>
      <use xlink:href="#DejaVuSans-74" transform="translate(115.283203 0)"/>
      <use xlink:href="#DejaVuSans-69" transform="translate(154.492188 0)"/>
      <use xlink:href="#DejaVuSans-6d" transform="translate(182.275391 0)"/>
      <use xlink:href="#DejaVuSans-61" transform="translate(279.6875 0)"/>
      <use xlink:href="#DejaVuSans-74" transform="translate(340.966797 0)"/>
      <use xlink:href="#DejaVuSans-65" transform="translate(380.175781 0)"/>
      <use xlink:href="#DejaVuSans-64" transform="translate(441.699219 0)"/>
      <use xlink:href="#DejaVuSans-20" transform="translate(505.175781 0)"/>
      <use xlink:href="#DejaVuSans-56" transform="translate(536.962891 0)"/>
      <use xlink:href="#DejaVuSans-61" transform="translate(597.621094 0)"/>
      <use xlink:href="#DejaVuSans-6c" transform="translate(658.900391 0)"/>
      <use xlink:href="#DejaVuSans-75" transform="translate(686.683594 0)"/>
      <use xlink:href="#DejaVuSans-65" transform="translate(750.0625 0)"/>
     </g>
    </g>
   </g>
   <g id="line2d_29">
    <path d="M 115.363636 71.979238 
L 115.501623 339.586787 
L 115.674106 347.354324 
L 115.881086 348.628703 
L 116.157059 349.108985 
L 116.571018 349.355554 
L 117.295447 349.480845 
L 118.606318 349.452174 
L 120.296652 349.193805 
L 122.193966 348.674309 
L 124.746716 347.720056 
L 127.368458 346.771654 
L 128.88631 346.771654 
L 128.920806 369.36 
L 128.989799 354.148556 
L 129.162282 341.566468 
L 129.369262 340.079933 
L 129.645235 339.612022 
L 130.059194 339.370487 
L 130.92161 339.180739 
L 133.508856 338.928427 
L 140.373682 338.223 
L 144.858242 337.85122 
L 145.962134 337.85122 
L 145.996631 325.955903 
L 146.065624 333.049477 
L 146.169114 338.935644 
L 146.20361 338.818491 
L 146.824549 332.435458 
L 147.238509 331.058046 
L 147.721461 330.217859 
L 148.342401 329.60468 
L 149.204816 329.096819 
L 150.653674 328.543205 
L 152.895954 327.907071 
L 154.413805 327.907071 
L 154.551791 284.080555 
L 154.620785 284.133967 
L 155.448703 286.137049 
L 155.966153 286.507548 
L 156.725078 286.747806 
L 158.001453 286.887035 
L 160.726685 286.913849 
L 162.865476 286.910448 
L 163.003462 289.803128 
L 164.693796 289.734295 
L 171.317146 289.498456 
L 171.38614 290.135888 
L 171.455133 290.124365 
L 173.869896 289.726943 
L 176.595128 289.570771 
L 179.768817 289.542058 
L 179.906803 291.946485 
L 188.220488 292.314078 
L 188.427467 298.5611 
L 188.634447 299.502722 
L 188.944917 299.805949 
L 189.600352 300.03936 
L 191.739143 300.474275 
L 195.326791 301.024272 
L 196.672159 301.024272 
L 196.706655 300.293336 
L 196.775648 301.003889 
L 196.982628 302.217855 
L 197.224104 302.394009 
L 197.914037 302.487147 
L 202.743563 302.922012 
L 204.192421 303.001349 
L 205.123829 303.001349 
L 205.158326 300.673875 
L 205.261816 300.832586 
L 205.710272 301.768765 
L 206.296714 302.34605 
L 207.642082 303.289077 
L 210.022349 304.679064 
L 211.850669 305.532821 
L 213.5755 305.532821 
L 213.609997 302.902647 
L 213.713486 303.263634 
L 214.092949 304.705558 
L 214.437915 305.13277 
L 214.886371 305.306444 
L 215.576304 305.30041 
L 216.818182 305.030176 
L 220.888782 304.012244 
L 222.027171 304.012244 
L 222.061667 303.876749 
L 222.130661 303.979081 
L 222.372137 304.793153 
L 222.924083 306.485921 
L 223.545022 307.666255 
L 224.234954 308.508884 
L 225.062873 309.169129 
L 226.097771 309.695669 
L 227.374146 310.087453 
L 228.857501 310.314869 
L 230.478841 310.314869 
L 230.616828 309.739731 
L 231.789713 308.273874 
L 232.652128 307.7324 
L 233.825013 307.272708 
L 235.584341 306.837976 
L 237.516151 306.567644 
L 238.930512 306.567644 
L 239.068499 306.233217 
L 240.48286 304.507831 
L 241.379772 303.986818 
L 242.62165 303.535932 
L 244.449971 303.128491 
L 246.105808 302.951583 
L 247.382183 302.951583 
L 247.451176 299.903867 
L 247.520169 299.963636 
L 248.106612 300.60701 
L 248.831041 300.940582 
L 250.383388 301.367147 
L 253.315601 301.925119 
L 254.695465 302.034951 
L 255.833854 302.034951 
L 255.97184 305.309991 
L 256.454793 306.716381 
L 256.903249 307.258872 
L 257.455195 307.563935 
L 258.179624 307.69814 
L 259.180025 307.643194 
L 260.628883 307.321929 
L 263.147136 306.714186 
L 264.285524 306.714186 
L 264.423511 306.907169 
L 265.975859 308.028244 
L 266.941764 308.222967 
L 268.356125 308.265911 
L 270.563908 308.090073 
L 271.909276 308.04424 
L 272.737195 308.04424 
L 272.875182 304.77416 
L 273.323638 304.461297 
L 274.255046 304.096902 
L 275.772897 303.767562 
L 278.670613 303.401513 
L 280.42994 303.328872 
L 281.188866 303.328872 
L 281.326852 301.817549 
L 282.465241 300.407704 
L 283.362153 299.785758 
L 284.431548 299.293026 
L 284.466044 71.978154 
L 284.569534 72.200849 
L 285.22497 72.211399 
L 291.53785 72.065873 
L 297.988718 71.833002 
L 298.299187 72.309071 
L 300.058514 72.273965 
L 305.681463 72.081749 
L 315.064542 71.655601 
L 315.168032 77.35914 
L 315.202529 77.311526 
L 315.857964 73.466581 
L 316.271924 72.879775 
L 316.823869 72.50986 
L 317.686285 72.233267 
L 319.238632 72.007068 
L 322.239838 71.820225 
L 323.516213 71.820225 
L 323.654199 75.979471 
L 324.240642 78.614616 
L 324.654601 79.193551 
L 325.206547 79.559379 
L 326.034466 79.820643 
L 327.51782 80.021707 
L 330.415536 80.155633 
L 331.967884 80.155633 
L 332.10587 81.59198 
L 334.24466 81.664947 
L 340.419554 81.749552 
L 340.557541 82.2612 
L 348.871225 82.369109 
L 349.009211 85.044009 
L 357.357392 85.189488 
L 357.840345 85.480376 
L 360.255108 85.564543 
L 365.774566 85.653066 
L 365.912553 85.556527 
L 367.188928 85.578144 
L 374.226237 85.714457 
L 374.29523 85.505286 
L 374.364224 85.536553 
L 375.019659 85.920583 
L 376.158048 86.146455 
L 379.504219 86.531814 
L 381.953479 86.648037 
L 382.677908 86.648037 
L 382.712405 86.314957 
L 382.815894 86.379254 
L 383.36784 86.600733 
L 384.437235 86.666277 
L 387.507434 86.577465 
L 391.129579 86.490487 
L 391.267565 86.647771 
L 393.026893 87.441459 
L 394.57924 87.681226 
L 397.269976 87.842704 
L 399.753732 87.810793 
L 401.133597 87.573693 
L 403.789836 87.425127 
L 408.03292 87.360195 
L 408.13641 88.198625 
L 408.170907 88.193094 
L 409.826744 87.959585 
L 413.069426 87.839002 
L 416.484591 87.812138 
L 416.622577 86.27048 
L 417.31251 86.15671 
L 419.4513 86.228703 
L 424.936262 86.386995 
L 425.074248 84.418206 
L 425.488207 84.195582 
L 426.28163 84.121095 
L 433.387932 84.006051 
L 433.525919 84.162455 
L 436.837594 84.204741 
L 441.839603 84.171061 
L 441.97759 83.66005 
L 443.288461 83.565979 
L 448.428457 83.461339 
L 451.050199 83.322302 
L 452.67154 83.116374 
L 453.533956 83.056105 
L 453.568452 71.978535 
L 453.671942 71.991149 
L 454.568854 72.01427 
L 461.261197 72.056613 
L 467.091125 72.118331 
L 467.229112 72.540755 
L 467.505085 72.746579 
L 468.195017 72.813481 
L 474.128435 72.892965 
L 484.16695 72.954503 
L 484.304936 74.257183 
L 484.787889 75.470288 
L 485.236345 75.855892 
L 485.926277 76.115108 
L 487.202652 76.315132 
L 489.962381 76.47657 
L 492.618621 76.504521 
L 492.756607 79.608447 
L 493.308553 81.033927 
L 493.757009 81.414488 
L 494.446941 81.673023 
L 495.68882 81.864546 
L 498.345059 82.005169 
L 501.070291 82.028589 
L 501.208278 82.357531 
L 509.521962 82.51948 
L 509.659949 82.835201 
L 516.386789 83.007796 
L 517.973633 83.007796 
L 518.111619 84.406574 
L 526.494297 84.203739 
L 526.908256 83.744189 
L 527.598189 83.668459 
L 531.289326 83.636515 
L 534.876974 83.6333 
L 535.118451 83.005012 
L 535.359927 82.812991 
L 535.94637 82.742047 
L 538.602609 82.774105 
L 543.328645 82.835863 
L 543.466632 83.002813 
L 546.467837 83.267321 
L 551.711323 83.394611 
L 551.780316 83.394611 
L 551.918302 81.663568 
L 552.401255 81.414155 
L 553.36716 81.282038 
L 556.851318 81.118694 
L 560.231987 81.070151 
L 560.369973 81.193663 
L 562.853729 81.699758 
L 565.751445 81.858048 
L 569.06312 81.846682 
L 571.822849 81.778611 
L 577.135328 81.763715 
L 577.238818 82.313571 
L 577.273315 82.310932 
L 579.619084 82.18168 
L 585.586999 82.122054 
L 585.724985 80.587587 
L 586.345924 80.28143 
L 587.346326 80.181138 
L 590.658001 80.152201 
L 594.03867 80.160084 
L 594.176656 74.708091 
L 594.590615 73.786076 
L 595.004575 73.444912 
L 595.660011 73.226898 
L 596.901889 73.089764 
L 599.868598 73.039272 
L 604.560137 72.935113 
L 608.354765 72.809918 
L 611.286977 72.651486 
L 613.667244 72.533288 
L 619.393682 72.481813 
L 619.531668 72.636076 
L 622.636364 72.493989 
L 622.636364 72.493989 
" clip-path="url(#p4ff7ca009a)" style="fill: none; stroke: #ff0000; stroke-width: 1.5; stroke-linecap: square"/>
   </g>
   <g id="line2d_30">
    <path d="M 115.363636 71.979238 
L 115.501623 339.586787 
L 115.674106 347.354324 
L 115.881086 348.628703 
L 116.157059 349.108985 
L 116.571018 349.355554 
L 117.295447 349.480845 
L 118.606318 349.452174 
L 120.986585 349.349562 
L 127.782418 349.32843 
L 128.88631 349.32843 
L 128.920806 366.02982 
L 128.989799 353.54215 
L 129.162282 340.777364 
L 129.369262 339.279261 
L 129.645235 338.80875 
L 130.059194 338.572009 
L 130.749127 338.464109 
L 132.611944 338.499003 
L 136.096102 338.47115 
L 145.962134 338.179264 
L 145.996631 333.847255 
L 146.065624 337.893282 
L 146.134617 340.036064 
L 146.169114 339.750703 
L 146.652066 332.540667 
L 146.997033 330.782389 
L 147.410992 329.714395 
L 147.928441 328.987985 
L 148.583877 328.470975 
L 149.446292 328.088006 
L 150.68817 327.794249 
L 152.619981 327.585329 
L 154.413805 327.585329 
L 154.551791 283.372109 
L 154.620785 283.299536 
L 154.655281 283.331948 
L 155.621186 284.848685 
L 156.276622 285.168326 
L 157.380514 285.424523 
L 159.105345 285.585976 
L 162.865476 285.644591 
L 162.934469 285.957449 
L 163.003462 285.944039 
L 163.796884 285.832705 
L 166.315137 285.796622 
L 166.48762 285.992097 
L 167.660505 285.972414 
L 171.317146 285.981967 
L 171.455133 290.116243 
L 171.903589 290.261124 
L 172.972984 290.503157 
L 174.939291 290.684026 
L 178.837408 290.720241 
L 179.768817 290.720241 
L 179.83781 292.231689 
L 179.906803 292.223158 
L 180.25177 292.35153 
L 181.183178 292.644015 
L 182.735526 292.8643 
L 185.633242 293.019312 
L 188.220488 293.038968 
L 188.392971 297.343836 
L 188.599951 298.033042 
L 188.91042 298.222075 
L 189.841829 298.419823 
L 193.60196 298.93306 
L 196.672159 298.942635 
L 196.706655 297.042493 
L 196.810145 297.449516 
L 196.982628 297.62423 
L 197.465581 297.50764 
L 198.879942 297.20778 
L 200.294303 297.147304 
L 202.57108 297.221107 
L 204.433897 297.328809 
L 205.123829 297.328809 
L 205.158326 296.028259 
L 205.227319 296.245516 
L 205.813762 299.473699 
L 206.193224 300.111338 
L 206.710674 300.527923 
L 207.435102 300.804206 
L 208.642484 300.999966 
L 210.815771 301.103256 
L 213.5755 301.126738 
L 213.609997 299.130166 
L 213.713486 299.149478 
L 214.575902 299.319739 
L 216.12825 299.550543 
L 218.784489 299.671112 
L 222.027171 299.686641 
L 222.096164 300.421463 
L 222.165157 300.411695 
L 223.269049 300.233029 
L 225.545825 300.214764 
L 238.930512 300.26774 
L 239.068499 299.421092 
L 240.37937 299.261601 
L 242.863126 299.108314 
L 247.382183 299.072073 
L 247.451176 296.292298 
L 247.520169 296.296658 
L 251.970233 295.952437 
L 255.833854 295.988651 
L 255.97184 291.384877 
L 256.489289 291.46784 
L 260.076937 291.930493 
L 264.285524 291.90778 
L 264.423511 293.009676 
L 265.182436 293.222723 
L 266.941764 293.448248 
L 270.805385 293.684417 
L 273.047665 293.870837 
L 273.772094 294.29144 
L 274.737999 294.570238 
L 276.25585 294.757934 
L 278.843096 294.827971 
L 281.188866 294.824977 
L 281.326852 301.475785 
L 281.740812 302.247249 
L 282.120274 302.472295 
L 282.67222 302.507421 
L 283.638126 302.304471 
L 284.431548 302.059541 
L 284.569534 70.879734 
L 284.776514 70.81497 
L 287.605236 70.787849 
L 295.470465 70.594971 
L 298.023214 70.510637 
L 298.26469 67.770085 
L 298.506167 67.615518 
L 299.265092 67.555187 
L 305.370993 67.515919 
L 315.064542 67.453476 
L 315.099039 66.96 
L 315.133535 67.937098 
L 315.306018 72.244206 
L 315.375012 72.312418 
L 315.409508 72.287382 
L 316.099441 71.676095 
L 316.823869 71.47075 
L 318.341721 71.317745 
L 322.343328 71.193908 
L 323.516213 71.193908 
L 323.654199 80.425015 
L 324.137152 82.332376 
L 324.516615 82.814974 
L 325.06856 83.126969 
L 325.965472 83.344669 
L 327.690303 83.498211 
L 331.381441 83.569937 
L 331.967884 83.569937 
L 332.10587 84.341005 
L 335.245062 84.421373 
L 340.419554 84.466193 
L 340.557541 84.798105 
L 345.007604 85.021901 
L 348.871225 85.042871 
L 349.009211 86.939343 
L 355.322092 86.934498 
L 358.771754 86.853946 
L 364.981144 86.453652 
L 365.774566 86.453652 
L 365.912553 85.973051 
L 366.843962 85.826316 
L 372.811876 85.119353 
L 374.226237 85.119353 
L 374.260734 81.974041 
L 374.364224 82.173319 
L 374.847176 83.758853 
L 375.192142 84.097075 
L 375.640598 84.215627 
L 376.330531 84.139534 
L 377.641402 83.72831 
L 381.12556 82.570625 
L 382.677908 82.570625 
L 382.850391 81.736475 
L 383.160861 80.781751 
L 383.47133 80.483348 
L 383.885289 80.409784 
L 384.609718 80.550917 
L 386.231059 81.154711 
L 389.542734 82.382708 
L 391.129579 82.382708 
L 391.164075 83.766362 
L 391.267565 83.64399 
L 392.612933 80.514107 
L 393.337362 79.706613 
L 394.199777 79.082509 
L 395.269173 78.589027 
L 396.649037 78.209628 
L 398.097895 78.028962 
L 399.581249 78.028962 
L 399.719236 78.649363 
L 400.857624 80.02818 
L 401.72004 80.551617 
L 402.927421 81.004457 
L 404.755742 81.432799 
L 406.653056 81.678926 
L 408.03292 81.678926 
L 408.170907 82.523912 
L 409.688758 84.100449 
L 410.68916 84.58431 
L 412.103521 85.004606 
L 414.207814 85.378178 
L 415.484189 85.440588 
L 416.484591 85.440588 
L 416.519088 86.368804 
L 416.622577 86.327373 
L 417.278013 85.899263 
L 418.209422 85.727149 
L 420.796668 85.539366 
L 424.936262 85.43318 
L 425.074248 81.4349 
L 425.591697 80.740201 
L 426.247133 80.278035 
L 427.213038 79.882856 
L 428.661896 79.54974 
L 430.731693 79.31994 
L 433.077463 79.274131 
L 433.387932 79.274131 
L 433.525919 79.546329 
L 435.319743 79.866851 
L 438.631418 80.263692 
L 441.115174 80.384497 
L 441.839603 80.384497 
L 441.97759 81.769465 
L 442.702018 81.967375 
L 444.323359 82.163501 
L 447.911007 82.32955 
L 450.774226 82.309887 
L 452.016105 82.138506 
L 453.533956 82.06924 
L 453.568452 71.978612 
L 453.671942 71.996485 
L 454.430868 72.054479 
L 459.053414 72.070875 
L 467.091125 71.985596 
L 467.229112 72.158413 
L 467.850051 72.245257 
L 470.50629 72.252495 
L 484.16695 72.034436 
L 484.304936 73.254495 
L 484.787889 74.408476 
L 485.236345 74.776645 
L 485.926277 75.023418 
L 487.202652 75.211777 
L 489.996878 75.357965 
L 492.618621 75.380092 
L 492.756607 78.334764 
L 493.308553 79.69802 
L 493.757009 80.060079 
L 494.446941 80.305108 
L 495.723316 80.488113 
L 498.483045 80.617214 
L 501.070291 80.634283 
L 501.208278 80.919192 
L 509.521962 81.054403 
L 509.659949 81.344964 
L 516.490279 81.508096 
L 517.973633 81.508096 
L 518.111619 82.851091 
L 525.148929 82.826687 
L 526.425304 82.826687 
L 526.632283 82.262733 
L 526.87376 82.009157 
L 527.391209 81.909756 
L 529.426509 81.86826 
L 534.876974 81.879165 
L 535.049458 80.818898 
L 535.290934 80.290081 
L 535.670397 80.109292 
L 536.739792 79.95192 
L 540.775896 79.655563 
L 543.328645 79.615583 
L 543.742605 79.928409 
L 544.191061 80.11222 
L 545.053476 80.171153 
L 547.192266 80.031712 
L 551.193873 79.795064 
L 551.780316 79.795064 
L 551.952799 79.469771 
L 552.332262 79.031251 
L 552.815214 78.884084 
L 553.78112 78.870856 
L 556.713332 79.135152 
L 559.473061 79.298132 
L 560.231987 79.298132 
L 560.266483 79.613707 
L 560.369973 79.571215 
L 561.853328 78.580011 
L 563.026212 78.234002 
L 564.820036 77.959182 
L 567.338289 77.805182 
L 568.994127 77.911721 
L 570.063522 78.157957 
L 572.064326 78.34262 
L 576.20392 78.475017 
L 577.135328 78.475017 
L 577.273315 78.985522 
L 579.412105 79.65003 
L 581.654385 79.906146 
L 584.724583 80.041499 
L 585.586999 80.041499 
L 585.724985 78.996122 
L 586.345924 78.648065 
L 587.31183 78.517908 
L 590.313035 78.415802 
L 594.03867 78.381284 
L 594.176656 72.257415 
L 594.590615 71.345674 
L 595.039071 70.925912 
L 595.7635 70.589719 
L 597.005379 70.291069 
L 599.351148 69.988161 
L 601.696918 69.871422 
L 602.49034 69.871422 
L 602.628327 70.037435 
L 609.872616 70.502372 
L 610.942011 70.502372 
L 611.079998 70.940824 
L 612.494359 71.25024 
L 614.667646 71.436168 
L 618.669253 71.534755 
L 619.393682 71.534755 
L 619.531668 71.646116 
L 621.946431 71.343287 
L 622.636364 71.308874 
L 622.636364 71.308874 
" clip-path="url(#p4ff7ca009a)" style="fill: none; stroke-dasharray: 5.55,2.4; stroke-dashoffset: 0; stroke: #0000ff; stroke-width: 1.5"/>
   </g>
   <g id="patch_3">
    <path d="M 90 384.48 
L 90 51.84 
" style="fill: none; stroke: #000000; stroke-width: 0.8; stroke-linejoin: miter; stroke-linecap: square"/>
   </g>
   <g id="patch_4">
    <path d="M 648 384.48 
L 648 51.84 
" style="fill: none; stroke: #000000; stroke-width: 0.8; stroke-linejoin: miter; stroke-linecap: square"/>
   </g>
   <g id="patch_5">
    <path d="M 90 384.48 
L 648 384.48 
" style="fill: none; stroke: #000000; stroke-width: 0.8; stroke-linejoin: miter; stroke-linecap: square"/>
   </g>
   <g id="patch_6">
    <path d="M 90 51.84 
L 648 51.84 
" style="fill: none; stroke: #000000; stroke-width: 0.8; stroke-linejoin: miter; stroke-linecap: square"/>
   </g>
   <g id="text_17">
    <!-- State Value Convergence for db_x (Index 9) -->
    <g transform="translate(238.198125 45.84) scale(0.12 -0.12)">
     <defs>
      <path id="DejaVuSans-53" d="M 3425 4513 
L 3425 3897 
Q 3066 4069 2747 4153 
Q 2428 4238 2131 4238 
Q 1616 4238 1336 4038 
Q 1056 3838 1056 3469 
Q 1056 3159 1242 3001 
Q 1428 2844 1947 2747 
L 2328 2669 
Q 3034 2534 3370 2195 
Q 3706 1856 3706 1288 
Q 3706 609 3251 259 
Q 2797 -91 1919 -91 
Q 1588 -91 1214 -16 
Q 841 59 441 206 
L 441 856 
Q 825 641 1194 531 
Q 1563 422 1919 422 
Q 2459 422 2753 634 
Q 3047 847 3047 1241 
Q 3047 1584 2836 1778 
Q 2625 1972 2144 2069 
L 1759 2144 
Q 1053 2284 737 2584 
Q 422 2884 422 3419 
Q 422 4038 858 4394 
Q 1294 4750 2059 4750 
Q 2388 4750 2728 4690 
Q 3069 4631 3425 4513 
z
" transform="scale(0.015625)"/>
      <path id="DejaVuSans-43" d="M 4122 4306 
L 4122 3641 
Q 3803 3938 3442 4084 
Q 3081 4231 2675 4231 
Q 1875 4231 1450 3742 
Q 1025 3253 1025 2328 
Q 1025 1406 1450 917 
Q 1875 428 2675 428 
Q 3081 428 3442 575 
Q 3803 722 4122 1019 
L 4122 359 
Q 3791 134 3420 21 
Q 3050 -91 2638 -91 
Q 1578 -91 968 557 
Q 359 1206 359 2328 
Q 359 3453 968 4101 
Q 1578 4750 2638 4750 
Q 3056 4750 3426 4639 
Q 3797 4528 4122 4306 
z
" transform="scale(0.015625)"/>
      <path id="DejaVuSans-6f" d="M 1959 3097 
Q 1497 3097 1228 2736 
Q 959 2375 959 1747 
Q 959 1119 1226 758 
Q 1494 397 1959 397 
Q 2419 397 2687 759 
Q 2956 1122 2956 1747 
Q 2956 2369 2687 2733 
Q 2419 3097 1959 3097 
z
M 1959 3584 
Q 2709 3584 3137 3096 
Q 3566 2609 3566 1747 
Q 3566 888 3137 398 
Q 2709 -91 1959 -91 
Q 1206 -91 779 398 
Q 353 888 353 1747 
Q 353 2609 779 3096 
Q 1206 3584 1959 3584 
z
" transform="scale(0.015625)"/>
      <path id="DejaVuSans-67" d="M 2906 1791 
Q 2906 2416 2648 2759 
Q 2391 3103 1925 3103 
Q 1463 3103 1205 2759 
Q 947 2416 947 1791 
Q 947 1169 1205 825 
Q 1463 481 1925 481 
Q 2391 481 2648 825 
Q 2906 1169 2906 1791 
z
M 3481 434 
Q 3481 -459 3084 -895 
Q 2688 -1331 1869 -1331 
Q 1566 -1331 1297 -1286 
Q 1028 -1241 775 -1147 
L 775 -588 
Q 1028 -725 1275 -790 
Q 1522 -856 1778 -856 
Q 2344 -856 2625 -561 
Q 2906 -266 2906 331 
L 2906 616 
Q 2728 306 2450 153 
Q 2172 0 1784 0 
Q 1141 0 747 490 
Q 353 981 353 1791 
Q 353 2603 747 3093 
Q 1141 3584 1784 3584 
Q 2172 3584 2450 3431 
Q 2728 3278 2906 2969 
L 2906 3500 
L 3481 3500 
L 3481 434 
z
" transform="scale(0.015625)"/>
      <path id="DejaVuSans-63" d="M 3122 3366 
L 3122 2828 
Q 2878 2963 2633 3030 
Q 2388 3097 2138 3097 
Q 1578 3097 1268 2742 
Q 959 2388 959 1747 
Q 959 1106 1268 751 
Q 1578 397 2138 397 
Q 2388 397 2633 464 
Q 2878 531 3122 666 
L 3122 134 
Q 2881 22 2623 -34 
Q 2366 -91 2075 -91 
Q 1284 -91 818 406 
Q 353 903 353 1747 
Q 353 2603 823 3093 
Q 1294 3584 2113 3584 
Q 2378 3584 2631 3529 
Q 2884 3475 3122 3366 
z
" transform="scale(0.015625)"/>
      <path id="DejaVuSans-66" d="M 2375 4863 
L 2375 4384 
L 1825 4384 
Q 1516 4384 1395 4259 
Q 1275 4134 1275 3809 
L 1275 3500 
L 2222 3500 
L 2222 3053 
L 1275 3053 
L 1275 0 
L 697 0 
L 697 3053 
L 147 3053 
L 147 3500 
L 697 3500 
L 697 3744 
Q 697 4328 969 4595 
Q 1241 4863 1831 4863 
L 2375 4863 
z
" transform="scale(0.015625)"/>
      <path id="DejaVuSans-62" d="M 3116 1747 
Q 3116 2381 2855 2742 
Q 2594 3103 2138 3103 
Q 1681 3103 1420 2742 
Q 1159 2381 1159 1747 
Q 1159 1113 1420 752 
Q 1681 391 2138 391 
Q 2594 391 2855 752 
Q 3116 1113 3116 1747 
z
M 1159 2969 
Q 1341 3281 1617 3432 
Q 1894 3584 2278 3584 
Q 2916 3584 3314 3078 
Q 3713 2572 3713 1747 
Q 3713 922 3314 415 
Q 2916 -91 2278 -91 
Q 1894 -91 1617 61 
Q 1341 213 1159 525 
L 1159 0 
L 581 0 
L 581 4863 
L 1159 4863 
L 1159 2969 
z
" transform="scale(0.015625)"/>
      <path id="DejaVuSans-5f" d="M 3263 -1063 
L 3263 -1509 
L -63 -1509 
L -63 -1063 
L 3263 -1063 
z
" transform="scale(0.015625)"/>
      <path id="DejaVuSans-78" d="M 3513 3500 
L 2247 1797 
L 3578 0 
L 2900 0 
L 1881 1375 
L 863 0 
L 184 0 
L 1544 1831 
L 300 3500 
L 978 3500 
L 1906 2253 
L 2834 3500 
L 3513 3500 
z
" transform="scale(0.015625)"/>
      <path id="DejaVuSans-49" d="M 628 4666 
L 1259 4666 
L 1259 0 
L 628 0 
L 628 4666 
z
" transform="scale(0.015625)"/>
      <path id="DejaVuSans-39" d="M 703 97 
L 703 672 
Q 941 559 1184 500 
Q 1428 441 1663 441 
Q 2288 441 2617 861 
Q 2947 1281 2994 2138 
Q 2813 1869 2534 1725 
Q 2256 1581 1919 1581 
Q 1219 1581 811 2004 
Q 403 2428 403 3163 
Q 403 3881 828 4315 
Q 1253 4750 1959 4750 
Q 2769 4750 3195 4129 
Q 3622 3509 3622 2328 
Q 3622 1225 3098 567 
Q 2575 -91 1691 -91 
Q 1453 -91 1209 -44 
Q 966 3 703 97 
z
M 1959 2075 
Q 2384 2075 2632 2365 
Q 2881 2656 2881 3163 
Q 2881 3666 2632 3958 
Q 2384 4250 1959 4250 
Q 1534 4250 1286 3958 
Q 1038 3666 1038 3163 
Q 1038 2656 1286 2365 
Q 1534 2075 1959 2075 
z
" transform="scale(0.015625)"/>
     </defs>
     <use xlink:href="#DejaVuSans-53"/>
     <use xlink:href="#DejaVuSans-74" transform="translate(63.476562 0)"/>
     <use xlink:href="#DejaVuSans-61" transform="translate(102.685547 0)"/>
     <use xlink:href="#DejaVuSans-74" transform="translate(163.964844 0)"/>
     <use xlink:href="#DejaVuSans-65" transform="translate(203.173828 0)"/>
     <use xlink:href="#DejaVuSans-20" transform="translate(264.697266 0)"/>
     <use xlink:href="#DejaVuSans-56" transform="translate(296.484375 0)"/>
     <use xlink:href="#DejaVuSans-61" transform="translate(357.142578 0)"/>
     <use xlink:href="#DejaVuSans-6c" transform="translate(418.421875 0)"/>
     <use xlink:href="#DejaVuSans-75" transform="translate(446.205078 0)"/>
     <use xlink:href="#DejaVuSans-65" transform="translate(509.583984 0)"/>
     <use xlink:href="#DejaVuSans-20" transform="translate(571.107422 0)"/>
     <use xlink:href="#DejaVuSans-43" transform="translate(602.894531 0)"/>
     <use xlink:href="#DejaVuSans-6f" transform="translate(672.71875 0)"/>
     <use xlink:href="#DejaVuSans-6e" transform="translate(733.900391 0)"/>
     <use xlink:href="#DejaVuSans-76" transform="translate(797.279297 0)"/>
     <use xlink:href="#DejaVuSans-65" transform="translate(856.458984 0)"/>
     <use xlink:href="#DejaVuSans-72" transform="translate(917.982422 0)"/>
     <use xlink:href="#DejaVuSans-67" transform="translate(957.345703 0)"/>
     <use xlink:href="#DejaVuSans-65" transform="translate(1020.822266 0)"/>
     <use xlink:href="#DejaVuSans-6e" transform="translate(1082.345703 0)"/>
     <use xlink:href="#DejaVuSans-63" transform="translate(1145.724609 0)"/>
     <use xlink:href="#DejaVuSans-65" transform="translate(1200.705078 0)"/>
     <use xlink:href="#DejaVuSans-20" transform="translate(1262.228516 0)"/>
     <use xlink:href="#DejaVuSans-66" transform="translate(1294.015625 0)"/>
     <use xlink:href="#DejaVuSans-6f" transform="translate(1329.220703 0)"/>
     <use xlink:href="#DejaVuSans-72" transform="translate(1390.402344 0)"/>
     <use xlink:href="#DejaVuSans-20" transform="translate(1431.515625 0)"/>
     <use xlink:href="#DejaVuSans-64" transform="translate(1463.302734 0)"/>
     <use xlink:href="#DejaVuSans-62" transform="translate(1526.779297 0)"/>
     <use xlink:href="#DejaVuSans-5f" transform="translate(1590.255859 0)"/>
     <use xlink:href="#DejaVuSans-78" transform="translate(1640.255859 0)"/>
     <use xlink:href="#DejaVuSans-20" transform="translate(1699.435547 0)"/>
     <use xlink:href="#DejaVuSans-28" transform="translate(1731.222656 0)"/>
     <use xlink:href="#DejaVuSans-49" transform="translate(1770.236328 0)"/>
     <use xlink:href="#DejaVuSans-6e" transform="translate(1799.728516 0)"/>
     <use xlink:href="#DejaVuSans-64" transform="translate(1863.107422 0)"/>
     <use xlink:href="#DejaVuSans-65" transform="translate(1926.583984 0)"/>
     <use xlink:href="#DejaVuSans-78" transform="translate(1986.357422 0)"/>
     <use xlink:href="#DejaVuSans-20" transform="translate(2045.537109 0)"/>
     <use xlink:href="#DejaVuSans-39" transform="translate(2077.324219 0)"/>
     <use xlink:href="#DejaVuSans-29" transform="translate(2140.947266 0)"/>
    </g>
   </g>
   <g id="legend_1">
    <g id="patch_7">
     <path d="M 521.465625 379.48 
L 641 379.48 
Q 643 379.48 643 377.48 
L 643 349.12375 
Q 643 347.12375 641 347.12375 
L 521.465625 347.12375 
Q 519.465625 347.12375 519.465625 349.12375 
L 519.465625 377.48 
Q 519.465625 379.48 521.465625 379.48 
z
" style="fill: #ffffff; opacity: 0.8; stroke: #cccccc; stroke-linejoin: miter"/>
    </g>
    <g id="line2d_31">
     <path d="M 523.465625 355.222188 
L 533.465625 355.222188 
L 543.465625 355.222188 
" style="fill: none; stroke: #ff0000; stroke-width: 1.5; stroke-linecap: square"/>
    </g>
    <g id="text_18">
     <!-- Baseline KF State -->
     <g transform="translate(551.465625 358.722188) scale(0.1 -0.1)">
      <defs>
       <path id="DejaVuSans-42" d="M 1259 2228 
L 1259 519 
L 2272 519 
Q 2781 519 3026 730 
Q 3272 941 3272 1375 
Q 3272 1813 3026 2020 
Q 2781 2228 2272 2228 
L 1259 2228 
z
M 1259 4147 
L 1259 2741 
L 2194 2741 
Q 2656 2741 2882 2914 
Q 3109 3088 3109 3444 
Q 3109 3797 2882 3972 
Q 2656 4147 2194 4147 
L 1259 4147 
z
M 628 4666 
L 2241 4666 
Q 2963 4666 3353 4366 
Q 3744 4066 3744 3513 
Q 3744 3084 3544 2831 
Q 3344 2578 2956 2516 
Q 3422 2416 3680 2098 
Q 3938 1781 3938 1306 
Q 3938 681 3513 340 
Q 3088 0 2303 0 
L 628 0 
L 628 4666 
z
" transform="scale(0.015625)"/>
       <path id="DejaVuSans-4b" d="M 628 4666 
L 1259 4666 
L 1259 2694 
L 3353 4666 
L 4166 4666 
L 1850 2491 
L 4331 0 
L 3500 0 
L 1259 2247 
L 1259 0 
L 628 0 
L 628 4666 
z
" transform="scale(0.015625)"/>
       <path id="DejaVuSans-46" d="M 628 4666 
L 3309 4666 
L 3309 4134 
L 1259 4134 
L 1259 2759 
L 3109 2759 
L 3109 2228 
L 1259 2228 
L 1259 0 
L 628 0 
L 628 4666 
z
" transform="scale(0.015625)"/>
      </defs>
      <use xlink:href="#DejaVuSans-42"/>
      <use xlink:href="#DejaVuSans-61" transform="translate(68.603516 0)"/>
      <use xlink:href="#DejaVuSans-73" transform="translate(129.882812 0)"/>
      <use xlink:href="#DejaVuSans-65" transform="translate(181.982422 0)"/>
      <use xlink:href="#DejaVuSans-6c" transform="translate(243.505859 0)"/>
      <use xlink:href="#DejaVuSans-69" transform="translate(271.289062 0)"/>
      <use xlink:href="#DejaVuSans-6e" transform="translate(299.072266 0)"/>
      <use xlink:href="#DejaVuSans-65" transform="translate(362.451172 0)"/>
      <use xlink:href="#DejaVuSans-20" transform="translate(423.974609 0)"/>
      <use xlink:href="#DejaVuSans-4b" transform="translate(455.761719 0)"/>
      <use xlink:href="#DejaVuSans-46" transform="translate(521.337891 0)"/>
      <use xlink:href="#DejaVuSans-20" transform="translate(578.857422 0)"/>
      <use xlink:href="#DejaVuSans-53" transform="translate(610.644531 0)"/>
      <use xlink:href="#DejaVuSans-74" transform="translate(674.121094 0)"/>
      <use xlink:href="#DejaVuSans-61" transform="translate(713.330078 0)"/>
      <use xlink:href="#DejaVuSans-74" transform="translate(774.609375 0)"/>
      <use xlink:href="#DejaVuSans-65" transform="translate(813.818359 0)"/>
     </g>
    </g>
    <g id="line2d_32">
     <path d="M 523.465625 369.900312 
L 533.465625 369.900312 
L 543.465625 369.900312 
" style="fill: none; stroke-dasharray: 5.55,2.4; stroke-dashoffset: 0; stroke: #0000ff; stroke-width: 1.5"/>
    </g>
    <g id="text_19">
     <!-- Shadow KF State -->
     <g transform="translate(551.465625 373.400312) scale(0.1 -0.1)">
      <defs>
       <path id="DejaVuSans-68" d="M 3513 2113 
L 3513 0 
L 2938 0 
L 2938 2094 
Q 2938 2591 2744 2837 
Q 2550 3084 2163 3084 
Q 1697 3084 1428 2787 
Q 1159 2491 1159 1978 
L 1159 0 
L 581 0 
L 581 4863 
L 1159 4863 
L 1159 2956 
Q 1366 3272 1645 3428 
Q 1925 3584 2291 3584 
Q 2894 3584 3203 3211 
Q 3513 2838 3513 2113 
z
" transform="scale(0.015625)"/>
       <path id="DejaVuSans-77" d="M 269 3500 
L 844 3500 
L 1563 769 
L 2278 3500 
L 2956 3500 
L 3675 769 
L 4391 3500 
L 4966 3500 
L 4050 0 
L 3372 0 
L 2619 2869 
L 1863 0 
L 1184 0 
L 269 3500 
z
" transform="scale(0.015625)"/>
      </defs>
      <use xlink:href="#DejaVuSans-53"/>
      <use xlink:href="#DejaVuSans-68" transform="translate(63.476562 0)"/>
      <use xlink:href="#DejaVuSans-61" transform="translate(126.855469 0)"/>
      <use xlink:href="#DejaVuSans-64" transform="translate(188.134766 0)"/>
      <use xlink:href="#DejaVuSans-6f" transform="translate(251.611328 0)"/>
      <use xlink:href="#DejaVuSans-77" transform="translate(312.792969 0)"/>
      <use xlink:href="#DejaVuSans-20" transform="translate(394.580078 0)"/>
      <use xlink:href="#DejaVuSans-4b" transform="translate(426.367188 0)"/>
      <use xlink:href="#DejaVuSans-46" transform="translate(491.943359 0)"/>
      <use xlink:href="#DejaVuSans-20" transform="translate(549.462891 0)"/>
      <use xlink:href="#DejaVuSans-53" transform="translate(581.25 0)"/>
      <use xlink:href="#DejaVuSans-74" transform="translate(644.726562 0)"/>
      <use xlink:href="#DejaVuSans-61" transform="translate(683.935547 0)"/>
      <use xlink:href="#DejaVuSans-74" transform="translate(745.214844 0)"/>
      <use xlink:href="#DejaVuSans-65" transform="translate(784.423828 0)"/>
     </g>
    </g>
   </g>
  </g>
 </g>
 <defs>
  <clipPath id="p4ff7ca009a">
   <rect x="90" y="51.84" width="558" height="332.64"/>
  </clipPath>
 </defs>
</svg>
