<?xml version="1.0" encoding="utf-8" standalone="no"?>
<!DOCTYPE svg PUBLIC "-//W3C//DTD SVG 1.1//EN"
  "http://www.w3.org/Graphics/SVG/1.1/DTD/svg11.dtd">
<svg xmlns:xlink="http://www.w3.org/1999/xlink" width="720pt" height="432pt" viewBox="0 0 720 432" xmlns="http://www.w3.org/2000/svg" version="1.1">
 <metadata>
  <rdf:RDF xmlns:dc="http://purl.org/dc/elements/1.1/" xmlns:cc="http://creativecommons.org/ns#" xmlns:rdf="http://www.w3.org/1999/02/22-rdf-syntax-ns#">
   <cc:Work>
    <dc:type rdf:resource="http://purl.org/dc/dcmitype/StillImage"/>
    <dc:date>2026-03-25T09:55:29.722625</dc:date>
    <dc:format>image/svg+xml</dc:format>
    <dc:creator>
     <cc:Agent>
      <dc:title>Matplotlib v3.10.8, https://matplotlib.org/</dc:title>
     </cc:Agent>
    </dc:creator>
   </cc:Work>
  </rdf:RDF>
 </metadata>
 <defs>
  <style type="text/css">*{stroke-linejoin: round; stroke-linecap: butt}</style>
 </defs>
 <g id="figure_1">
  <g id="patch_1">
   <path d="M 0 432 
L 720 432 
L 720 0 
L 0 0 
z
" style="fill: #ffffff"/>
  </g>
  <g id="axes_1">
   <g id="patch_2">
    <path d="M 90 384.48 
L 648 384.48 
L 648 51.84 
L 90 51.84 
z
" style="fill: #ffffff"/>
   </g>
   <g id="matplotlib.axis_1">
    <g id="xtick_1">
     <g id="line2d_1">
      <path d="M 115.363636 384.48 
L 115.363636 51.84 
" clip-path="url(#pa818f75fa9)" style="fill: none; stroke: #b0b0b0; stroke-width: 0.8; stroke-linecap: square"/>
     </g>
     <g id="line2d_2">
      <defs>
       <path id="m2894bbe669" d="M 0 0 
L 0 3.5 
" style="stroke: #000000; stroke-width: 0.8"/>
      </defs>
      <g>
       <use xlink:href="#m2894bbe669" x="115.363636" y="384.48" style="stroke: #000000; stroke-width: 0.8"/>
      </g>
     </g>
     <g id="text_1">
      <!-- 0 -->
      <g transform="translate(112.182386 399.078438) scale(0.1 -0.1)">
       <defs>
        <path id="DejaVuSans-30" d="M 2034 4250 
Q 1547 4250 1301 3770 
Q 1056 3291 1056 2328 
Q 1056 1369 1301 889 
Q 1547 409 2034 409 
Q 2525 409 2770 889 
Q 3016 1369 3016 2328 
Q 3016 3291 2770 3770 
Q 2525 4250 2034 4250 
z
M 2034 4750 
Q 2819 4750 3233 4129 
Q 3647 3509 3647 2328 
Q 3647 1150 3233 529 
Q 2819 -91 2034 -91 
Q 1250 -91 836 529 
Q 422 1150 422 2328 
Q 422 3509 836 4129 
Q 1250 4750 2034 4750 
z
" transform="scale(0.015625)"/>
       </defs>
       <use xlink:href="#DejaVuSans-30"/>
      </g>
     </g>
    </g>
    <g id="xtick_2">
     <g id="line2d_3">
      <path d="M 201.605174 384.48 
L 201.605174 51.84 
" clip-path="url(#pa818f75fa9)" style="fill: none; stroke: #b0b0b0; stroke-width: 0.8; stroke-linecap: square"/>
     </g>
     <g id="line2d_4">
      <g>
       <use xlink:href="#m2894bbe669" x="201.605174" y="384.48" style="stroke: #000000; stroke-width: 0.8"/>
      </g>
     </g>
     <g id="text_2">
      <!-- 50 -->
      <g transform="translate(195.242674 399.078438) scale(0.1 -0.1)">
       <defs>
        <path id="DejaVuSans-35" d="M 691 4666 
L 3169 4666 
L 3169 4134 
L 1269 4134 
L 1269 2991 
Q 1406 3038 1543 3061 
Q 1681 3084 1819 3084 
Q 2600 3084 3056 2656 
Q 3513 2228 3513 1497 
Q 3513 744 3044 326 
Q 2575 -91 1722 -91 
Q 1428 -91 1123 -41 
Q 819 9 494 109 
L 494 744 
Q 775 591 1075 516 
Q 1375 441 1709 441 
Q 2250 441 2565 725 
Q 2881 1009 2881 1497 
Q 2881 1984 2565 2268 
Q 2250 2553 1709 2553 
Q 1456 2553 1204 2497 
Q 953 2441 691 2322 
L 691 4666 
z
" transform="scale(0.015625)"/>
       </defs>
       <use xlink:href="#DejaVuSans-35"/>
       <use xlink:href="#DejaVuSans-30" transform="translate(63.623047 0)"/>
      </g>
     </g>
    </g>
    <g id="xtick_3">
     <g id="line2d_5">
      <path d="M 287.846713 384.48 
L 287.846713 51.84 
" clip-path="url(#pa818f75fa9)" style="fill: none; stroke: #b0b0b0; stroke-width: 0.8; stroke-linecap: square"/>
     </g>
     <g id="line2d_6">
      <g>
       <use xlink:href="#m2894bbe669" x="287.846713" y="384.48" style="stroke: #000000; stroke-width: 0.8"/>
      </g>
     </g>
     <g id="text_3">
      <!-- 100 -->
      <g transform="translate(278.302963 399.078438) scale(0.1 -0.1)">
       <defs>
        <path id="DejaVuSans-31" d="M 794 531 
L 1825 531 
L 1825 4091 
L 703 3866 
L 703 4441 
L 1819 4666 
L 2450 4666 
L 2450 531 
L 3481 531 
L 3481 0 
L 794 0 
L 794 531 
z
" transform="scale(0.015625)"/>
       </defs>
       <use xlink:href="#DejaVuSans-31"/>
       <use xlink:href="#DejaVuSans-30" transform="translate(63.623047 0)"/>
       <use xlink:href="#DejaVuSans-30" transform="translate(127.246094 0)"/>
      </g>
     </g>
    </g>
    <g id="xtick_4">
     <g id="line2d_7">
      <path d="M 374.088251 384.48 
L 374.088251 51.84 
" clip-path="url(#pa818f75fa9)" style="fill: none; stroke: #b0b0b0; stroke-width: 0.8; stroke-linecap: square"/>
     </g>
     <g id="line2d_8">
      <g>
       <use xlink:href="#m2894bbe669" x="374.088251" y="384.48" style="stroke: #000000; stroke-width: 0.8"/>
      </g>
     </g>
     <g id="text_4">
      <!-- 150 -->
      <g transform="translate(364.544501 399.078438) scale(0.1 -0.1)">
       <use xlink:href="#DejaVuSans-31"/>
       <use xlink:href="#DejaVuSans-35" transform="translate(63.623047 0)"/>
       <use xlink:href="#DejaVuSans-30" transform="translate(127.246094 0)"/>
      </g>
     </g>
    </g>
    <g id="xtick_5">
     <g id="line2d_9">
      <path d="M 460.329789 384.48 
L 460.329789 51.84 
" clip-path="url(#pa818f75fa9)" style="fill: none; stroke: #b0b0b0; stroke-width: 0.8; stroke-linecap: square"/>
     </g>
     <g id="line2d_10">
      <g>
       <use xlink:href="#m2894bbe669" x="460.329789" y="384.48" style="stroke: #000000; stroke-width: 0.8"/>
      </g>
     </g>
     <g id="text_5">
      <!-- 200 -->
      <g transform="translate(450.786039 399.078438) scale(0.1 -0.1)">
       <defs>
        <path id="DejaVuSans-32" d="M 1228 531 
L 3431 531 
L 3431 0 
L 469 0 
L 469 531 
Q 828 903 1448 1529 
Q 2069 2156 2228 2338 
Q 2531 2678 2651 2914 
Q 2772 3150 2772 3378 
Q 2772 3750 2511 3984 
Q 2250 4219 1831 4219 
Q 1534 4219 1204 4116 
Q 875 4013 500 3803 
L 500 4441 
Q 881 4594 1212 4672 
Q 1544 4750 1819 4750 
Q 2544 4750 2975 4387 
Q 3406 4025 3406 3419 
Q 3406 3131 3298 2873 
Q 3191 2616 2906 2266 
Q 2828 2175 2409 1742 
Q 1991 1309 1228 531 
z
" transform="scale(0.015625)"/>
       </defs>
       <use xlink:href="#DejaVuSans-32"/>
       <use xlink:href="#DejaVuSans-30" transform="translate(63.623047 0)"/>
       <use xlink:href="#DejaVuSans-30" transform="translate(127.246094 0)"/>
      </g>
     </g>
    </g>
    <g id="xtick_6">
     <g id="line2d_11">
      <path d="M 546.571327 384.48 
L 546.571327 51.84 
" clip-path="url(#pa818f75fa9)" style="fill: none; stroke: #b0b0b0; stroke-width: 0.8; stroke-linecap: square"/>
     </g>
     <g id="line2d_12">
      <g>
       <use xlink:href="#m2894bbe669" x="546.571327" y="384.48" style="stroke: #000000; stroke-width: 0.8"/>
      </g>
     </g>
     <g id="text_6">
      <!-- 250 -->
      <g transform="translate(537.027577 399.078438) scale(0.1 -0.1)">
       <use xlink:href="#DejaVuSans-32"/>
       <use xlink:href="#DejaVuSans-35" transform="translate(63.623047 0)"/>
       <use xlink:href="#DejaVuSans-30" transform="translate(127.246094 0)"/>
      </g>
     </g>
    </g>
    <g id="xtick_7">
     <g id="line2d_13">
      <path d="M 632.812865 384.48 
L 632.812865 51.84 
" clip-path="url(#pa818f75fa9)" style="fill: none; stroke: #b0b0b0; stroke-width: 0.8; stroke-linecap: square"/>
     </g>
     <g id="line2d_14">
      <g>
       <use xlink:href="#m2894bbe669" x="632.812865" y="384.48" style="stroke: #000000; stroke-width: 0.8"/>
      </g>
     </g>
     <g id="text_7">
      <!-- 300 -->
      <g transform="translate(623.269115 399.078438) scale(0.1 -0.1)">
       <defs>
        <path id="DejaVuSans-33" d="M 2597 2516 
Q 3050 2419 3304 2112 
Q 3559 1806 3559 1356 
Q 3559 666 3084 287 
Q 2609 -91 1734 -91 
Q 1441 -91 1130 -33 
Q 819 25 488 141 
L 488 750 
Q 750 597 1062 519 
Q 1375 441 1716 441 
Q 2309 441 2620 675 
Q 2931 909 2931 1356 
Q 2931 1769 2642 2001 
Q 2353 2234 1838 2234 
L 1294 2234 
L 1294 2753 
L 1863 2753 
Q 2328 2753 2575 2939 
Q 2822 3125 2822 3475 
Q 2822 3834 2567 4026 
Q 2313 4219 1838 4219 
Q 1578 4219 1281 4162 
Q 984 4106 628 3988 
L 628 4550 
Q 988 4650 1302 4700 
Q 1616 4750 1894 4750 
Q 2613 4750 3031 4423 
Q 3450 4097 3450 3541 
Q 3450 3153 3228 2886 
Q 3006 2619 2597 2516 
z
" transform="scale(0.015625)"/>
       </defs>
       <use xlink:href="#DejaVuSans-33"/>
       <use xlink:href="#DejaVuSans-30" transform="translate(63.623047 0)"/>
       <use xlink:href="#DejaVuSans-30" transform="translate(127.246094 0)"/>
      </g>
     </g>
    </g>
    <g id="text_8">
     <!-- Maneuver Time (s) -->
     <g transform="translate(322.198438 412.756563) scale(0.1 -0.1)">
      <defs>
       <path id="DejaVuSans-4d" d="M 628 4666 
L 1569 4666 
L 2759 1491 
L 3956 4666 
L 4897 4666 
L 4897 0 
L 4281 0 
L 4281 4097 
L 3078 897 
L 2444 897 
L 1241 4097 
L 1241 0 
L 628 0 
L 628 4666 
z
" transform="scale(0.015625)"/>
       <path id="DejaVuSans-61" d="M 2194 1759 
Q 1497 1759 1228 1600 
Q 959 1441 959 1056 
Q 959 750 1161 570 
Q 1363 391 1709 391 
Q 2188 391 2477 730 
Q 2766 1069 2766 1631 
L 2766 1759 
L 2194 1759 
z
M 3341 1997 
L 3341 0 
L 2766 0 
L 2766 531 
Q 2569 213 2275 61 
Q 1981 -91 1556 -91 
Q 1019 -91 701 211 
Q 384 513 384 1019 
Q 384 1609 779 1909 
Q 1175 2209 1959 2209 
L 2766 2209 
L 2766 2266 
Q 2766 2663 2505 2880 
Q 2244 3097 1772 3097 
Q 1472 3097 1187 3025 
Q 903 2953 641 2809 
L 641 3341 
Q 956 3463 1253 3523 
Q 1550 3584 1831 3584 
Q 2591 3584 2966 3190 
Q 3341 2797 3341 1997 
z
" transform="scale(0.015625)"/>
       <path id="DejaVuSans-6e" d="M 3513 2113 
L 3513 0 
L 2938 0 
L 2938 2094 
Q 2938 2591 2744 2837 
Q 2550 3084 2163 3084 
Q 1697 3084 1428 2787 
Q 1159 2491 1159 1978 
L 1159 0 
L 581 0 
L 581 3500 
L 1159 3500 
L 1159 2956 
Q 1366 3272 1645 3428 
Q 1925 3584 2291 3584 
Q 2894 3584 3203 3211 
Q 3513 2838 3513 2113 
z
" transform="scale(0.015625)"/>
       <path id="DejaVuSans-65" d="M 3597 1894 
L 3597 1613 
L 953 1613 
Q 991 1019 1311 708 
Q 1631 397 2203 397 
Q 2534 397 2845 478 
Q 3156 559 3463 722 
L 3463 178 
Q 3153 47 2828 -22 
Q 2503 -91 2169 -91 
Q 1331 -91 842 396 
Q 353 884 353 1716 
Q 353 2575 817 3079 
Q 1281 3584 2069 3584 
Q 2775 3584 3186 3129 
Q 3597 2675 3597 1894 
z
M 3022 2063 
Q 3016 2534 2758 2815 
Q 2500 3097 2075 3097 
Q 1594 3097 1305 2825 
Q 1016 2553 972 2059 
L 3022 2063 
z
" transform="scale(0.015625)"/>
       <path id="DejaVuSans-75" d="M 544 1381 
L 544 3500 
L 1119 3500 
L 1119 1403 
Q 1119 906 1312 657 
Q 1506 409 1894 409 
Q 2359 409 2629 706 
Q 2900 1003 2900 1516 
L 2900 3500 
L 3475 3500 
L 3475 0 
L 2900 0 
L 2900 538 
Q 2691 219 2414 64 
Q 2138 -91 1772 -91 
Q 1169 -91 856 284 
Q 544 659 544 1381 
z
M 1991 3584 
L 1991 3584 
z
" transform="scale(0.015625)"/>
       <path id="DejaVuSans-76" d="M 191 3500 
L 800 3500 
L 1894 563 
L 2988 3500 
L 3597 3500 
L 2284 0 
L 1503 0 
L 191 3500 
z
" transform="scale(0.015625)"/>
       <path id="DejaVuSans-72" d="M 2631 2963 
Q 2534 3019 2420 3045 
Q 2306 3072 2169 3072 
Q 1681 3072 1420 2755 
Q 1159 2438 1159 1844 
L 1159 0 
L 581 0 
L 581 3500 
L 1159 3500 
L 1159 2956 
Q 1341 3275 1631 3429 
Q 1922 3584 2338 3584 
Q 2397 3584 2469 3576 
Q 2541 3569 2628 3553 
L 2631 2963 
z
" transform="scale(0.015625)"/>
       <path id="DejaVuSans-20" transform="scale(0.015625)"/>
       <path id="DejaVuSans-54" d="M -19 4666 
L 3928 4666 
L 3928 4134 
L 2272 4134 
L 2272 0 
L 1638 0 
L 1638 4134 
L -19 4134 
L -19 4666 
z
" transform="scale(0.015625)"/>
       <path id="DejaVuSans-69" d="M 603 3500 
L 1178 3500 
L 1178 0 
L 603 0 
L 603 3500 
z
M 603 4863 
L 1178 4863 
L 1178 4134 
L 603 4134 
L 603 4863 
z
" transform="scale(0.015625)"/>
       <path id="DejaVuSans-6d" d="M 3328 2828 
Q 3544 3216 3844 3400 
Q 4144 3584 4550 3584 
Q 5097 3584 5394 3201 
Q 5691 2819 5691 2113 
L 5691 0 
L 5113 0 
L 5113 2094 
Q 5113 2597 4934 2840 
Q 4756 3084 4391 3084 
Q 3944 3084 3684 2787 
Q 3425 2491 3425 1978 
L 3425 0 
L 2847 0 
L 2847 2094 
Q 2847 2600 2669 2842 
Q 2491 3084 2119 3084 
Q 1678 3084 1418 2786 
Q 1159 2488 1159 1978 
L 1159 0 
L 581 0 
L 581 3500 
L 1159 3500 
L 1159 2956 
Q 1356 3278 1631 3431 
Q 1906 3584 2284 3584 
Q 2666 3584 2933 3390 
Q 3200 3197 3328 2828 
z
" transform="scale(0.015625)"/>
       <path id="DejaVuSans-28" d="M 1984 4856 
Q 1566 4138 1362 3434 
Q 1159 2731 1159 2009 
Q 1159 1288 1364 580 
Q 1569 -128 1984 -844 
L 1484 -844 
Q 1016 -109 783 600 
Q 550 1309 550 2009 
Q 550 2706 781 3412 
Q 1013 4119 1484 4856 
L 1984 4856 
z
" transform="scale(0.015625)"/>
       <path id="DejaVuSans-73" d="M 2834 3397 
L 2834 2853 
Q 2591 2978 2328 3040 
Q 2066 3103 1784 3103 
Q 1356 3103 1142 2972 
Q 928 2841 928 2578 
Q 928 2378 1081 2264 
Q 1234 2150 1697 2047 
L 1894 2003 
Q 2506 1872 2764 1633 
Q 3022 1394 3022 966 
Q 3022 478 2636 193 
Q 2250 -91 1575 -91 
Q 1294 -91 989 -36 
Q 684 19 347 128 
L 347 722 
Q 666 556 975 473 
Q 1284 391 1588 391 
Q 1994 391 2212 530 
Q 2431 669 2431 922 
Q 2431 1156 2273 1281 
Q 2116 1406 1581 1522 
L 1381 1569 
Q 847 1681 609 1914 
Q 372 2147 372 2553 
Q 372 3047 722 3315 
Q 1072 3584 1716 3584 
Q 2034 3584 2315 3537 
Q 2597 3491 2834 3397 
z
" transform="scale(0.015625)"/>
       <path id="DejaVuSans-29" d="M 513 4856 
L 1013 4856 
Q 1481 4119 1714 3412 
Q 1947 2706 1947 2009 
Q 1947 1309 1714 600 
Q 1481 -109 1013 -844 
L 513 -844 
Q 928 -128 1133 580 
Q 1338 1288 1338 2009 
Q 1338 2731 1133 3434 
Q 928 4138 513 4856 
z
" transform="scale(0.015625)"/>
      </defs>
      <use xlink:href="#DejaVuSans-4d"/>
      <use xlink:href="#DejaVuSans-61" transform="translate(86.279297 0)"/>
      <use xlink:href="#DejaVuSans-6e" transform="translate(147.558594 0)"/>
      <use xlink:href="#DejaVuSans-65" transform="translate(210.9375 0)"/>
      <use xlink:href="#DejaVuSans-75" transform="translate(272.460938 0)"/>
      <use xlink:href="#DejaVuSans-76" transform="translate(335.839844 0)"/>
      <use xlink:href="#DejaVuSans-65" transform="translate(395.019531 0)"/>
      <use xlink:href="#DejaVuSans-72" transform="translate(456.542969 0)"/>
      <use xlink:href="#DejaVuSans-20" transform="translate(497.65625 0)"/>
      <use xlink:href="#DejaVuSans-54" transform="translate(529.443359 0)"/>
      <use xlink:href="#DejaVuSans-69" transform="translate(587.402344 0)"/>
      <use xlink:href="#DejaVuSans-6d" transform="translate(615.185547 0)"/>
      <use xlink:href="#DejaVuSans-65" transform="translate(712.597656 0)"/>
      <use xlink:href="#DejaVuSans-20" transform="translate(774.121094 0)"/>
      <use xlink:href="#DejaVuSans-28" transform="translate(805.908203 0)"/>
      <use xlink:href="#DejaVuSans-73" transform="translate(844.921875 0)"/>
      <use xlink:href="#DejaVuSans-29" transform="translate(897.021484 0)"/>
     </g>
    </g>
   </g>
   <g id="matplotlib.axis_2">
    <g id="ytick_1">
     <g id="line2d_15">
      <path d="M 90 353.547508 
L 648 353.547508 
" clip-path="url(#pa818f75fa9)" style="fill: none; stroke: #b0b0b0; stroke-width: 0.8; stroke-linecap: square"/>
     </g>
     <g id="line2d_16">
      <defs>
       <path id="me9ed6e08d0" d="M 0 0 
L -3.5 0 
" style="stroke: #000000; stroke-width: 0.8"/>
      </defs>
      <g>
       <use xlink:href="#me9ed6e08d0" x="90" y="353.547508" style="stroke: #000000; stroke-width: 0.8"/>
      </g>
     </g>
     <g id="text_9">
      <!-- −0.0020 -->
      <g transform="translate(39.629687 357.346727) scale(0.1 -0.1)">
       <defs>
        <path id="DejaVuSans-2212" d="M 678 2272 
L 4684 2272 
L 4684 1741 
L 678 1741 
L 678 2272 
z
" transform="scale(0.015625)"/>
        <path id="DejaVuSans-2e" d="M 684 794 
L 1344 794 
L 1344 0 
L 684 0 
L 684 794 
z
" transform="scale(0.015625)"/>
       </defs>
       <use xlink:href="#DejaVuSans-2212"/>
       <use xlink:href="#DejaVuSans-30" transform="translate(83.789062 0)"/>
       <use xlink:href="#DejaVuSans-2e" transform="translate(147.412109 0)"/>
       <use xlink:href="#DejaVuSans-30" transform="translate(179.199219 0)"/>
       <use xlink:href="#DejaVuSans-30" transform="translate(242.822266 0)"/>
       <use xlink:href="#DejaVuSans-32" transform="translate(306.445312 0)"/>
       <use xlink:href="#DejaVuSans-30" transform="translate(370.068359 0)"/>
      </g>
     </g>
    </g>
    <g id="ytick_2">
     <g id="line2d_17">
      <path d="M 90 286.353935 
L 648 286.353935 
" clip-path="url(#pa818f75fa9)" style="fill: none; stroke: #b0b0b0; stroke-width: 0.8; stroke-linecap: square"/>
     </g>
     <g id="line2d_18">
      <g>
       <use xlink:href="#me9ed6e08d0" x="90" y="286.353935" style="stroke: #000000; stroke-width: 0.8"/>
      </g>
     </g>
     <g id="text_10">
      <!-- −0.0015 -->
      <g transform="translate(39.629687 290.153153) scale(0.1 -0.1)">
       <use xlink:href="#DejaVuSans-2212"/>
       <use xlink:href="#DejaVuSans-30" transform="translate(83.789062 0)"/>
       <use xlink:href="#DejaVuSans-2e" transform="translate(147.412109 0)"/>
       <use xlink:href="#DejaVuSans-30" transform="translate(179.199219 0)"/>
       <use xlink:href="#DejaVuSans-30" transform="translate(242.822266 0)"/>
       <use xlink:href="#DejaVuSans-31" transform="translate(306.445312 0)"/>
       <use xlink:href="#DejaVuSans-35" transform="translate(370.068359 0)"/>
      </g>
     </g>
    </g>
    <g id="ytick_3">
     <g id="line2d_19">
      <path d="M 90 219.160361 
L 648 219.160361 
" clip-path="url(#pa818f75fa9)" style="fill: none; stroke: #b0b0b0; stroke-width: 0.8; stroke-linecap: square"/>
     </g>
     <g id="line2d_20">
      <g>
       <use xlink:href="#me9ed6e08d0" x="90" y="219.160361" style="stroke: #000000; stroke-width: 0.8"/>
      </g>
     </g>
     <g id="text_11">
      <!-- −0.0010 -->
      <g transform="translate(39.629687 222.95958) scale(0.1 -0.1)">
       <use xlink:href="#DejaVuSans-2212"/>
       <use xlink:href="#DejaVuSans-30" transform="translate(83.789062 0)"/>
       <use xlink:href="#DejaVuSans-2e" transform="translate(147.412109 0)"/>
       <use xlink:href="#DejaVuSans-30" transform="translate(179.199219 0)"/>
       <use xlink:href="#DejaVuSans-30" transform="translate(242.822266 0)"/>
       <use xlink:href="#DejaVuSans-31" transform="translate(306.445312 0)"/>
       <use xlink:href="#DejaVuSans-30" transform="translate(370.068359 0)"/>
      </g>
     </g>
    </g>
    <g id="ytick_4">
     <g id="line2d_21">
      <path d="M 90 151.966787 
L 648 151.966787 
" clip-path="url(#pa818f75fa9)" style="fill: none; stroke: #b0b0b0; stroke-width: 0.8; stroke-linecap: square"/>
     </g>
     <g id="line2d_22">
      <g>
       <use xlink:href="#me9ed6e08d0" x="90" y="151.966787" style="stroke: #000000; stroke-width: 0.8"/>
      </g>
     </g>
     <g id="text_12">
      <!-- −0.0005 -->
      <g transform="translate(39.629687 155.766006) scale(0.1 -0.1)">
       <use xlink:href="#DejaVuSans-2212"/>
       <use xlink:href="#DejaVuSans-30" transform="translate(83.789062 0)"/>
       <use xlink:href="#DejaVuSans-2e" transform="translate(147.412109 0)"/>
       <use xlink:href="#DejaVuSans-30" transform="translate(179.199219 0)"/>
       <use xlink:href="#DejaVuSans-30" transform="translate(242.822266 0)"/>
       <use xlink:href="#DejaVuSans-30" transform="translate(306.445312 0)"/>
       <use xlink:href="#DejaVuSans-35" transform="translate(370.068359 0)"/>
      </g>
     </g>
    </g>
    <g id="ytick_5">
     <g id="line2d_23">
      <path d="M 90 84.773213 
L 648 84.773213 
" clip-path="url(#pa818f75fa9)" style="fill: none; stroke: #b0b0b0; stroke-width: 0.8; stroke-linecap: square"/>
     </g>
     <g id="line2d_24">
      <g>
       <use xlink:href="#me9ed6e08d0" x="90" y="84.773213" style="stroke: #000000; stroke-width: 0.8"/>
      </g>
     </g>
     <g id="text_13">
      <!-- 0.0000 -->
      <g transform="translate(48.009375 88.572432) scale(0.1 -0.1)">
       <use xlink:href="#DejaVuSans-30"/>
       <use xlink:href="#DejaVuSans-2e" transform="translate(63.623047 0)"/>
       <use xlink:href="#DejaVuSans-30" transform="translate(95.410156 0)"/>
       <use xlink:href="#DejaVuSans-30" transform="translate(159.033203 0)"/>
       <use xlink:href="#DejaVuSans-30" transform="translate(222.65625 0)"/>
       <use xlink:href="#DejaVuSans-30" transform="translate(286.279297 0)"/>
      </g>
     </g>
    </g>
    <g id="text_14">
     <!-- Estimated Value -->
     <g transform="translate(33.55 258.738906) rotate(-90) scale(0.1 -0.1)">
      <defs>
       <path id="DejaVuSans-45" d="M 628 4666 
L 3578 4666 
L 3578 4134 
L 1259 4134 
L 1259 2753 
L 3481 2753 
L 3481 2222 
L 1259 2222 
L 1259 531 
L 3634 531 
L 3634 0 
L 628 0 
L 628 4666 
z
" transform="scale(0.015625)"/>
       <path id="DejaVuSans-74" d="M 1172 4494 
L 1172 3500 
L 2356 3500 
L 2356 3053 
L 1172 3053 
L 1172 1153 
Q 1172 725 1289 603 
Q 1406 481 1766 481 
L 2356 481 
L 2356 0 
L 1766 0 
Q 1100 0 847 248 
Q 594 497 594 1153 
L 594 3053 
L 172 3053 
L 172 3500 
L 594 3500 
L 594 4494 
L 1172 4494 
z
" transform="scale(0.015625)"/>
       <path id="DejaVuSans-64" d="M 2906 2969 
L 2906 4863 
L 3481 4863 
L 3481 0 
L 2906 0 
L 2906 525 
Q 2725 213 2448 61 
Q 2172 -91 1784 -91 
Q 1150 -91 751 415 
Q 353 922 353 1747 
Q 353 2572 751 3078 
Q 1150 3584 1784 3584 
Q 2172 3584 2448 3432 
Q 2725 3281 2906 2969 
z
M 947 1747 
Q 947 1113 1208 752 
Q 1469 391 1925 391 
Q 2381 391 2643 752 
Q 2906 1113 2906 1747 
Q 2906 2381 2643 2742 
Q 2381 3103 1925 3103 
Q 1469 3103 1208 2742 
Q 947 2381 947 1747 
z
" transform="scale(0.015625)"/>
       <path id="DejaVuSans-56" d="M 1831 0 
L 50 4666 
L 709 4666 
L 2188 738 
L 3669 4666 
L 4325 4666 
L 2547 0 
L 1831 0 
z
" transform="scale(0.015625)"/>
       <path id="DejaVuSans-6c" d="M 603 4863 
L 1178 4863 
L 1178 0 
L 603 0 
L 603 4863 
z
" transform="scale(0.015625)"/>
      </defs>
      <use xlink:href="#DejaVuSans-45"/>
      <use xlink:href="#DejaVuSans-73" transform="translate(63.183594 0)"/>
      <use xlink:href="#DejaVuSans-74" transform="translate(115.283203 0)"/>
      <use xlink:href="#DejaVuSans-69" transform="translate(154.492188 0)"/>
      <use xlink:href="#DejaVuSans-6d" transform="translate(182.275391 0)"/>
      <use xlink:href="#DejaVuSans-61" transform="translate(279.6875 0)"/>
      <use xlink:href="#DejaVuSans-74" transform="translate(340.966797 0)"/>
      <use xlink:href="#DejaVuSans-65" transform="translate(380.175781 0)"/>
      <use xlink:href="#DejaVuSans-64" transform="translate(441.699219 0)"/>
      <use xlink:href="#DejaVuSans-20" transform="translate(505.175781 0)"/>
      <use xlink:href="#DejaVuSans-56" transform="translate(536.962891 0)"/>
      <use xlink:href="#DejaVuSans-61" transform="translate(597.621094 0)"/>
      <use xlink:href="#DejaVuSans-6c" transform="translate(658.900391 0)"/>
      <use xlink:href="#DejaVuSans-75" transform="translate(686.683594 0)"/>
      <use xlink:href="#DejaVuSans-65" transform="translate(750.0625 0)"/>
     </g>
    </g>
   </g>
   <g id="line2d_25">
    <path d="M 115.363636 84.773224 
L 115.501623 87.462844 
L 115.846589 87.980457 
L 119.158264 92.085561 
L 121.124571 94.215688 
L 122.642422 95.548765 
L 124.022287 96.478627 
L 125.402151 97.143253 
L 126.851009 97.59146 
L 127.540942 97.644873 
L 128.88631 97.644873 
L 128.920806 79.649905 
L 128.989799 94.983627 
L 129.196779 118.538376 
L 129.438255 122.302306 
L 129.714228 123.403056 
L 130.024698 123.828041 
L 130.404161 123.989253 
L 130.990603 123.969393 
L 132.163488 123.653569 
L 134.681741 122.974722 
L 136.303082 122.789374 
L 137.993416 122.825278 
L 140.063213 123.106261 
L 143.443881 123.828759 
L 144.651263 123.994105 
L 145.962134 123.994105 
L 145.996631 123.436255 
L 146.065624 124.010336 
L 146.20361 130.695004 
L 146.51408 142.194765 
L 146.859046 146.829533 
L 147.238509 149.086505 
L 147.652468 150.309816 
L 148.100924 150.983416 
L 148.583877 151.323063 
L 149.135823 151.440831 
L 149.860252 151.347753 
L 150.860653 150.967327 
L 152.413001 150.107795 
L 152.826961 149.981657 
L 154.413805 149.981657 
L 154.551791 171.611616 
L 154.896757 175.767985 
L 155.241724 177.277186 
L 155.69018 178.218858 
L 156.276622 178.908777 
L 157.104541 179.510622 
L 158.311922 180.088776 
L 160.036753 180.654969 
L 161.382121 180.910584 
L 162.865476 180.910584 
L 163.106952 180.494086 
L 163.486415 180.414752 
L 164.935272 180.444919 
L 167.660505 180.447209 
L 171.317146 180.299239 
L 171.455133 165.107138 
L 171.558623 165.248018 
L 172.559024 167.454794 
L 173.21446 168.235636 
L 173.973386 168.800819 
L 174.904794 169.210196 
L 176.077679 169.47317 
L 177.664524 169.586875 
L 179.768817 169.589103 
L 179.872307 167.997633 
L 179.906803 167.998464 
L 181.459151 168.091831 
L 183.908411 167.790488 
L 186.185187 167.635889 
L 188.220488 167.634699 
L 188.254984 108.166242 
L 188.289481 163.324384 
L 188.461964 309.732248 
L 188.668944 324.076249 
L 188.91042 327.627486 
L 189.22089 329.227744 
L 189.600352 330.064337 
L 190.048808 330.542794 
L 190.669747 330.872116 
L 191.635653 331.109492 
L 194.015919 331.38755 
L 195.913233 331.492036 
L 196.672159 331.492036 
L 196.706655 324.33521 
L 196.775648 328.185313 
L 196.982628 334.997295 
L 197.224104 336.092722 
L 197.569071 336.591569 
L 198.19001 337.041983 
L 199.328398 337.565755 
L 200.708262 337.965076 
L 202.019134 338.120127 
L 203.364502 338.049144 
L 205.123829 338.049144 
L 205.261816 359.544977 
L 205.606782 363.484543 
L 205.917251 364.585883 
L 206.296714 365.120899 
L 206.74517 365.374833 
L 207.400606 365.474596 
L 208.470001 365.385942 
L 210.539798 364.950456 
L 212.264629 364.644925 
L 213.5755 364.644925 
L 213.609997 353.41216 
L 213.713486 353.996856 
L 214.092949 356.829287 
L 214.403419 357.560625 
L 214.713888 357.795495 
L 215.093351 357.803131 
L 215.645297 357.56801 
L 216.611202 356.877117 
L 220.440326 353.927 
L 222.027171 353.927 
L 222.165157 355.552115 
L 223.027573 356.95486 
L 223.717505 357.539189 
L 224.57992 357.967523 
L 225.752805 358.290474 
L 227.408643 358.501152 
L 229.719916 358.557304 
L 230.478841 358.557304 
L 230.547835 357.692913 
L 230.616828 357.731362 
L 232.169176 359.223794 
L 233.100584 359.545464 
L 234.342462 359.724644 
L 236.10179 359.736168 
L 238.930512 359.667719 
L 239.068499 357.144913 
L 239.861921 355.658391 
L 240.551853 354.918702 
L 241.414268 354.334631 
L 242.552657 353.849266 
L 244.105004 353.443408 
L 245.864332 353.198262 
L 247.382183 353.198262 
L 247.520169 352.382618 
L 248.072115 352.19527 
L 249.865939 351.972044 
L 254.902445 351.56384 
L 255.833854 351.56384 
L 255.97184 349.831308 
L 256.316806 349.632258 
L 256.730766 349.72556 
L 258.11063 350.387426 
L 260.66338 351.509544 
L 262.629687 352.158585 
L 264.285524 352.158585 
L 264.423511 351.568371 
L 265.768879 349.796334 
L 266.631294 349.189901 
L 267.735186 348.692259 
L 269.149547 348.306236 
L 270.977868 348.045161 
L 273.082161 348.150053 
L 274.358536 348.4085 
L 276.911286 348.655575 
L 280.602423 348.809825 
L 281.188866 348.809825 
L 281.326852 349.694583 
L 282.327254 350.37184 
L 283.431146 350.783049 
L 284.431548 351.028105 
L 284.466044 84.773213 
L 284.569534 84.791253 
L 290.502952 85.659288 
L 293.88362 85.918962 
L 297.781738 85.980165 
L 297.988718 85.980165 
L 298.023214 86.19862 
L 298.057711 85.973557 
L 298.299187 84.583718 
L 298.57516 84.295782 
L 299.230596 84.045816 
L 301.472876 83.505584 
L 304.301598 83.025944 
L 306.888844 82.817066 
L 309.89005 82.812301 
L 315.064542 82.967543 
L 315.099039 77.691024 
L 315.202529 78.690908 
L 315.581991 84.348772 
L 315.892461 85.890333 
L 316.271924 86.74893 
L 316.754876 87.287425 
L 317.375815 87.632253 
L 318.272727 87.859004 
L 319.721585 87.972281 
L 323.516213 87.954818 
L 323.550709 79.664277 
L 323.654199 80.024717 
L 324.033662 81.947336 
L 324.378628 82.549574 
L 324.861581 82.917156 
L 325.655003 83.196223 
L 327.241847 83.473259 
L 330.450032 83.790839 
L 331.967884 83.790839 
L 332.10587 84.692547 
L 337.487342 85.184017 
L 340.419554 85.218599 
L 340.557541 83.256387 
L 340.9715 83.366622 
L 342.213378 83.634901 
L 344.214182 83.80976 
L 347.69834 83.864827 
L 348.871225 83.864827 
L 349.009211 83.244753 
L 354.597663 83.379258 
L 357.322896 83.375704 
L 357.426386 82.855586 
L 357.460882 82.978642 
L 357.667862 83.462127 
L 358.012828 83.570134 
L 359.323699 83.604283 
L 365.774566 83.615125 
L 365.912553 83.252216 
L 366.257519 83.217221 
L 372.880869 83.360997 
L 374.226237 83.360997 
L 374.260734 82.653536 
L 374.329727 82.780466 
L 374.778183 83.9205 
L 375.157646 84.177784 
L 375.847578 84.327438 
L 377.330933 84.371884 
L 382.677908 84.246883 
L 382.746901 79.621654 
L 382.815894 79.687375 
L 383.195357 80.013224 
L 383.712806 80.076757 
L 384.920188 79.935231 
L 389.956694 79.225639 
L 391.129579 79.225639 
L 391.267565 79.380436 
L 392.474947 79.76777 
L 394.061791 79.95205 
L 397.200983 80.056692 
L 399.581249 80.061772 
L 399.719236 79.822873 
L 401.72004 80.050834 
L 404.997218 80.070699 
L 408.03292 80.049808 
L 408.170907 78.866704 
L 409.378288 78.589997 
L 411.448085 78.404839 
L 415.518686 78.287987 
L 416.484591 78.287987 
L 416.622577 79.270132 
L 417.31251 79.477734 
L 418.795864 79.518536 
L 424.936262 79.464079 
L 425.074248 80.85725 
L 425.660691 81.14997 
L 426.764582 81.364079 
L 429.489815 81.623184 
L 432.835987 81.749317 
L 433.560415 81.638596 
L 435.354239 81.343541 
L 438.217459 81.163307 
L 442.460542 81.115106 
L 448.18698 81.194061 
L 450.291274 81.196507 
L 450.42926 81.345334 
L 453.051003 81.545975 
L 453.533956 81.563399 
L 453.568452 84.772982 
L 453.671942 84.766179 
L 455.362276 84.781614 
L 463.193008 84.745701 
L 467.298105 84.815293 
L 467.746561 84.883363 
L 471.058236 84.916237 
L 484.16695 84.894369 
L 484.304936 84.491925 
L 484.684399 84.266572 
L 485.477821 84.174683 
L 488.720503 84.124953 
L 492.618621 84.117135 
L 492.756607 84.75987 
L 493.515533 84.890057 
L 496.378752 84.933236 
L 526.425304 84.952602 
L 526.597787 85.748884 
L 526.839263 86.163286 
L 527.218726 86.295776 
L 528.357114 86.365967 
L 534.256035 86.380237 
L 534.876974 86.380237 
L 535.083954 85.355092 
L 535.32543 84.927089 
L 535.704893 84.801312 
L 536.774288 84.769846 
L 550.952397 84.871733 
L 551.780316 84.871733 
L 551.918302 79.93097 
L 552.435752 79.589385 
L 553.298167 79.420373 
L 555.850917 79.22174 
L 559.956014 79.095566 
L 562.060307 79.205611 
L 566.061915 79.279427 
L 577.135328 79.2433 
L 577.273315 78.529736 
L 579.101635 78.381473 
L 583.862168 78.27967 
L 585.586999 78.27967 
L 585.724985 79.322164 
L 586.380421 79.592329 
L 587.587803 79.688961 
L 591.968873 79.729376 
L 594.03867 79.729325 
L 594.176656 83.197052 
L 594.625112 83.796597 
L 595.142561 84.043891 
L 596.142963 84.226177 
L 598.385243 84.360447 
L 603.835708 84.428485 
L 611.87342 84.366321 
L 619.531668 84.394731 
L 622.636364 84.51904 
L 622.636364 84.51904 
" clip-path="url(#pa818f75fa9)" style="fill: none; stroke: #ff0000; stroke-width: 1.5; stroke-linecap: square"/>
   </g>
   <g id="line2d_26">
    <path d="M 115.363636 84.773224 
L 115.501623 87.462844 
L 115.846589 87.980457 
L 119.123767 92.040771 
L 119.641217 92.46927 
L 120.124169 92.565332 
L 123.090878 92.744932 
L 127.264969 93.137764 
L 128.88631 93.137764 
L 128.920806 66.96 
L 128.989799 84.883527 
L 129.196779 113.564272 
L 129.403759 117.452945 
L 129.645235 118.50468 
L 129.921208 118.769211 
L 130.71463 119.159416 
L 133.16389 121.249293 
L 134.371271 121.747787 
L 136.096102 122.201136 
L 138.683348 122.634372 
L 142.202003 122.986904 
L 145.375692 123.112929 
L 145.962134 123.112929 
L 146.100121 131.054461 
L 146.51408 146.229198 
L 146.859046 150.139907 
L 147.238509 152.125224 
L 147.686965 153.388021 
L 148.238911 154.281049 
L 148.894346 154.919054 
L 149.756762 155.437248 
L 150.964143 155.883375 
L 152.654477 156.26083 
L 154.413805 156.26083 
L 154.551791 175.471932 
L 154.896757 179.059735 
L 155.207227 180.144651 
L 155.621186 180.785736 
L 156.173132 181.193779 
L 156.966554 181.479358 
L 158.277426 181.689449 
L 160.485209 181.77052 
L 162.865476 181.774117 
L 163.003462 181.899593 
L 164.797286 181.853872 
L 170.523724 181.921602 
L 174.766808 181.980045 
L 174.973788 186.86843 
L 175.077277 186.766664 
L 175.76721 185.768945 
L 176.457142 185.209291 
L 177.388551 184.746458 
L 178.181973 184.548655 
L 179.768817 184.548655 
L 179.872307 157.614718 
L 179.906803 157.63079 
L 180.079287 158.565608 
L 180.562239 160.9399 
L 181.114185 162.506079 
L 181.804117 163.778601 
L 182.666533 164.887346 
L 183.839418 166.010982 
L 185.771228 167.771926 
L 186.56465 168.323504 
L 188.220488 168.323504 
L 188.254984 125.962548 
L 188.289481 182.987347 
L 188.461964 319.841437 
L 188.668944 331.995143 
L 188.91042 334.994286 
L 189.22089 336.375547 
L 189.600352 337.134675 
L 190.117802 337.662266 
L 190.842231 338.066202 
L 192.015115 338.442294 
L 193.429477 338.660863 
L 195.809743 338.739713 
L 196.672159 338.739713 
L 196.706655 327.668229 
L 196.775648 329.580456 
L 196.948131 332.167934 
L 197.189608 332.705565 
L 197.603567 333.001363 
L 198.603969 333.369773 
L 200.12182 333.85807 
L 200.156317 335.861308 
L 200.190813 333.39591 
L 200.363296 329.727411 
L 200.639269 329.107692 
L 201.329202 328.306888 
L 202.05363 327.755833 
L 202.605576 327.589871 
L 203.123026 327.66288 
L 203.674971 327.752064 
L 205.123829 327.752064 
L 205.261816 361.028295 
L 205.606782 365.461198 
L 205.917251 366.850492 
L 206.296714 367.622476 
L 206.779667 368.113744 
L 207.469599 368.480188 
L 208.745974 368.860405 
L 210.815771 369.234721 
L 212.437112 369.36 
L 213.5755 369.36 
L 213.644493 357.718405 
L 213.713486 357.737681 
L 214.161942 357.80718 
L 215.679794 357.991468 
L 220.026367 358.533371 
L 221.613211 358.549347 
L 222.027171 358.549347 
L 222.165157 357.845456 
L 224.269451 357.684899 
L 228.098575 357.540883 
L 230.478841 357.532153 
L 230.616828 357.641542 
L 232.169176 357.415069 
L 235.101388 357.372673 
L 239.275478 357.260626 
L 239.896417 357.055744 
L 241.172792 356.920522 
L 244.587957 356.838279 
L 247.382183 356.819149 
L 247.41668 356.5183 
L 247.520169 356.536736 
L 248.762048 356.448628 
L 252.453185 356.297439 
L 255.833854 356.282394 
L 255.937344 357.827879 
L 255.97184 357.824343 
L 256.972242 357.537238 
L 258.938549 357.047025 
L 260.525393 356.954656 
L 264.285524 356.939249 
L 264.423511 356.523491 
L 265.665389 356.337557 
L 268.218139 356.237514 
L 272.737195 356.249695 
L 272.875182 356.628865 
L 276.497326 356.466705 
L 281.188866 356.527321 
L 281.326852 352.37734 
L 281.809805 351.840668 
L 282.327254 351.655263 
L 283.293159 351.588051 
L 284.431548 351.622373 
L 284.500541 84.760595 
L 284.569534 84.763523 
L 292.538252 85.369722 
L 297.333282 85.411428 
L 297.988718 85.411428 
L 298.195697 87.555559 
L 298.402677 87.714443 
L 299.127106 87.744305 
L 315.064542 87.594057 
L 315.099039 89.446103 
L 315.202529 89.153851 
L 315.340515 89.97801 
L 315.650985 91.37611 
L 315.995951 91.970457 
L 316.478903 92.331889 
L 317.203332 92.560868 
L 318.479707 92.697758 
L 321.135946 92.718296 
L 323.516213 92.708224 
L 323.585206 82.740719 
L 323.654199 82.850601 
L 324.171648 84.01308 
L 324.620104 84.347741 
L 325.37903 84.602596 
L 326.827888 84.819202 
L 329.898087 85.017457 
L 339.557139 85.305784 
L 340.419554 85.305784 
L 340.557541 84.670127 
L 341.971902 84.611699 
L 357.322896 84.397495 
L 357.357392 86.629589 
L 357.426386 85.658717 
L 357.598869 85.213254 
L 358.150815 85.150769 
L 365.774566 84.807853 
L 365.912553 83.202576 
L 366.188526 82.982681 
L 367.257921 82.642855 
L 369.189731 82.22418 
L 370.707582 82.115264 
L 372.121944 82.233672 
L 373.122346 82.289009 
L 374.226237 82.289009 
L 374.364224 83.822376 
L 375.019659 84.549867 
L 375.778585 84.973387 
L 377.399926 85.56525 
L 381.12556 86.67378 
L 382.677908 86.67378 
L 382.815894 80.505646 
L 383.229854 77.93542 
L 383.540323 77.347464 
L 383.885289 77.13548 
L 384.333745 77.139498 
L 385.023678 77.400814 
L 386.334549 78.184712 
L 389.370251 80.040019 
L 391.129579 80.040019 
L 391.267565 77.296397 
L 392.129981 75.81361 
L 392.819913 75.164484 
L 393.682328 74.669643 
L 394.820717 74.289903 
L 396.338568 74.033251 
L 398.270378 73.936694 
L 399.581249 73.936694 
L 399.650243 74.671748 
L 399.719236 74.638711 
L 401.168094 73.496607 
L 402.168496 73.21752 
L 403.617353 73.063477 
L 405.825137 73.072378 
L 408.03292 73.091846 
L 408.170907 74.588319 
L 408.964329 75.789248 
L 409.688758 76.404558 
L 410.620166 76.887633 
L 411.896541 77.285775 
L 413.759358 77.61684 
L 415.415196 77.723312 
L 416.484591 77.723312 
L 416.519088 76.907434 
L 416.622577 76.933526 
L 417.278013 77.10493 
L 418.933851 77.142537 
L 424.936262 77.11174 
L 425.074248 79.449545 
L 425.453711 79.447476 
L 429.765788 78.776848 
L 432.456524 78.633258 
L 433.387932 78.633258 
L 433.525919 78.860449 
L 435.319743 79.362273 
L 437.38954 79.616192 
L 440.494235 79.76596 
L 441.839603 79.76596 
L 441.97759 80.089767 
L 444.21987 80.132924 
L 451.843622 80.282741 
L 453.533956 80.359342 
L 453.568452 84.772953 
L 453.671942 84.764486 
L 455.22429 84.74621 
L 465.469785 84.78713 
L 484.16695 84.74601 
L 484.304936 84.366454 
L 484.718896 84.152116 
L 485.650304 84.068378 
L 489.651912 84.033703 
L 492.618621 84.036103 
L 492.756607 84.673655 
L 493.481036 84.806674 
L 496.068282 84.849219 
L 526.425304 84.95144 
L 526.597787 85.996461 
L 526.839263 86.544845 
L 527.184229 86.714075 
L 528.046645 86.808179 
L 531.634293 86.868121 
L 534.876974 86.882033 
L 535.049458 85.10882 
L 535.290934 84.175194 
L 535.601403 83.886832 
L 536.256839 83.664531 
L 538.08516 83.351921 
L 541.534821 82.983255 
L 543.328645 82.983255 
L 543.466632 82.423691 
L 545.605422 82.354025 
L 551.780316 82.427195 
L 551.918302 80.083882 
L 552.366758 79.409219 
L 552.815214 79.229978 
L 553.643133 79.18659 
L 555.60944 79.365607 
L 559.369571 79.700171 
L 560.231987 79.700171 
L 560.369973 79.024205 
L 561.646348 78.647267 
L 563.405675 78.431494 
L 566.475874 78.305919 
L 568.683657 78.300645 
L 568.821644 78.527233 
L 571.029427 78.182011 
L 574.099626 78.112776 
L 577.135328 78.115568 
L 577.273315 78.266491 
L 578.377206 78.690807 
L 579.791567 78.92324 
L 582.41331 79.096449 
L 585.586999 79.139769 
L 585.724985 79.917305 
L 586.345924 80.198459 
L 587.415319 80.293251 
L 591.416927 80.325372 
L 594.03867 80.327385 
L 594.176656 83.85265 
L 594.590615 84.27231 
L 595.142561 84.431247 
L 596.384439 84.492426 
L 603.456246 84.623634 
L 605.698526 84.815482 
L 609.941609 84.933374 
L 610.942011 84.933374 
L 611.079998 85.093544 
L 613.563754 85.222565 
L 622.636364 85.380686 
L 622.636364 85.380686 
" clip-path="url(#pa818f75fa9)" style="fill: none; stroke-dasharray: 5.55,2.4; stroke-dashoffset: 0; stroke: #0000ff; stroke-width: 1.5"/>
   </g>
   <g id="patch_3">
    <path d="M 90 384.48 
L 90 51.84 
" style="fill: none; stroke: #000000; stroke-width: 0.8; stroke-linejoin: miter; stroke-linecap: square"/>
   </g>
   <g id="patch_4">
    <path d="M 648 384.48 
L 648 51.84 
" style="fill: none; stroke: #000000; stroke-width: 0.8; stroke-linejoin: miter; stroke-linecap: square"/>
   </g>
   <g id="patch_5">
    <path d="M 90 384.48 
L 648 384.48 
" style="fill: none; stroke: #000000; stroke-width: 0.8; stroke-linejoin: miter; stroke-linecap: square"/>
   </g>
   <g id="patch_6">
    <path d="M 90 51.84 
L 648 51.84 
" style="fill: none; stroke: #000000; stroke-width: 0.8; stroke-linejoin: miter; stroke-linecap: square"/>
   </g>
   <g id="text_15">
    <!-- State Value Convergence for db_y (Index 10) -->
    <g transform="translate(234.380625 45.84) scale(0.12 -0.12)">
     <defs>
      <path id="DejaVuSans-53" d="M 3425 4513 
L 3425 3897 
Q 3066 4069 2747 4153 
Q 2428 4238 2131 4238 
Q 1616 4238 1336 4038 
Q 1056 3838 1056 3469 
Q 1056 3159 1242 3001 
Q 1428 2844 1947 2747 
L 2328 2669 
Q 3034 2534 3370 2195 
Q 3706 1856 3706 1288 
Q 3706 609 3251 259 
Q 2797 -91 1919 -91 
Q 1588 -91 1214 -16 
Q 841 59 441 206 
L 441 856 
Q 825 641 1194 531 
Q 1563 422 1919 422 
Q 2459 422 2753 634 
Q 3047 847 3047 1241 
Q 3047 1584 2836 1778 
Q 2625 1972 2144 2069 
L 1759 2144 
Q 1053 2284 737 2584 
Q 422 2884 422 3419 
Q 422 4038 858 4394 
Q 1294 4750 2059 4750 
Q 2388 4750 2728 4690 
Q 3069 4631 3425 4513 
z
" transform="scale(0.015625)"/>
      <path id="DejaVuSans-43" d="M 4122 4306 
L 4122 3641 
Q 3803 3938 3442 4084 
Q 3081 4231 2675 4231 
Q 1875 4231 1450 3742 
Q 1025 3253 1025 2328 
Q 1025 1406 1450 917 
Q 1875 428 2675 428 
Q 3081 428 3442 575 
Q 3803 722 4122 1019 
L 4122 359 
Q 3791 134 3420 21 
Q 3050 -91 2638 -91 
Q 1578 -91 968 557 
Q 359 1206 359 2328 
Q 359 3453 968 4101 
Q 1578 4750 2638 4750 
Q 3056 4750 3426 4639 
Q 3797 4528 4122 4306 
z
" transform="scale(0.015625)"/>
      <path id="DejaVuSans-6f" d="M 1959 3097 
Q 1497 3097 1228 2736 
Q 959 2375 959 1747 
Q 959 1119 1226 758 
Q 1494 397 1959 397 
Q 2419 397 2687 759 
Q 2956 1122 2956 1747 
Q 2956 2369 2687 2733 
Q 2419 3097 1959 3097 
z
M 1959 3584 
Q 2709 3584 3137 3096 
Q 3566 2609 3566 1747 
Q 3566 888 3137 398 
Q 2709 -91 1959 -91 
Q 1206 -91 779 398 
Q 353 888 353 1747 
Q 353 2609 779 3096 
Q 1206 3584 1959 3584 
z
" transform="scale(0.015625)"/>
      <path id="DejaVuSans-67" d="M 2906 1791 
Q 2906 2416 2648 2759 
Q 2391 3103 1925 3103 
Q 1463 3103 1205 2759 
Q 947 2416 947 1791 
Q 947 1169 1205 825 
Q 1463 481 1925 481 
Q 2391 481 2648 825 
Q 2906 1169 2906 1791 
z
M 3481 434 
Q 3481 -459 3084 -895 
Q 2688 -1331 1869 -1331 
Q 1566 -1331 1297 -1286 
Q 1028 -1241 775 -1147 
L 775 -588 
Q 1028 -725 1275 -790 
Q 1522 -856 1778 -856 
Q 2344 -856 2625 -561 
Q 2906 -266 2906 331 
L 2906 616 
Q 2728 306 2450 153 
Q 2172 0 1784 0 
Q 1141 0 747 490 
Q 353 981 353 1791 
Q 353 2603 747 3093 
Q 1141 3584 1784 3584 
Q 2172 3584 2450 3431 
Q 2728 3278 2906 2969 
L 2906 3500 
L 3481 3500 
L 3481 434 
z
" transform="scale(0.015625)"/>
      <path id="DejaVuSans-63" d="M 3122 3366 
L 3122 2828 
Q 2878 2963 2633 3030 
Q 2388 3097 2138 3097 
Q 1578 3097 1268 2742 
Q 959 2388 959 1747 
Q 959 1106 1268 751 
Q 1578 397 2138 397 
Q 2388 397 2633 464 
Q 2878 531 3122 666 
L 3122 134 
Q 2881 22 2623 -34 
Q 2366 -91 2075 -91 
Q 1284 -91 818 406 
Q 353 903 353 1747 
Q 353 2603 823 3093 
Q 1294 3584 2113 3584 
Q 2378 3584 2631 3529 
Q 2884 3475 3122 3366 
z
" transform="scale(0.015625)"/>
      <path id="DejaVuSans-66" d="M 2375 4863 
L 2375 4384 
L 1825 4384 
Q 1516 4384 1395 4259 
Q 1275 4134 1275 3809 
L 1275 3500 
L 2222 3500 
L 2222 3053 
L 1275 3053 
L 1275 0 
L 697 0 
L 697 3053 
L 147 3053 
L 147 3500 
L 697 3500 
L 697 3744 
Q 697 4328 969 4595 
Q 1241 4863 1831 4863 
L 2375 4863 
z
" transform="scale(0.015625)"/>
      <path id="DejaVuSans-62" d="M 3116 1747 
Q 3116 2381 2855 2742 
Q 2594 3103 2138 3103 
Q 1681 3103 1420 2742 
Q 1159 2381 1159 1747 
Q 1159 1113 1420 752 
Q 1681 391 2138 391 
Q 2594 391 2855 752 
Q 3116 1113 3116 1747 
z
M 1159 2969 
Q 1341 3281 1617 3432 
Q 1894 3584 2278 3584 
Q 2916 3584 3314 3078 
Q 3713 2572 3713 1747 
Q 3713 922 3314 415 
Q 2916 -91 2278 -91 
Q 1894 -91 1617 61 
Q 1341 213 1159 525 
L 1159 0 
L 581 0 
L 581 4863 
L 1159 4863 
L 1159 2969 
z
" transform="scale(0.015625)"/>
      <path id="DejaVuSans-5f" d="M 3263 -1063 
L 3263 -1509 
L -63 -1509 
L -63 -1063 
L 3263 -1063 
z
" transform="scale(0.015625)"/>
      <path id="DejaVuSans-79" d="M 2059 -325 
Q 1816 -950 1584 -1140 
Q 1353 -1331 966 -1331 
L 506 -1331 
L 506 -850 
L 844 -850 
Q 1081 -850 1212 -737 
Q 1344 -625 1503 -206 
L 1606 56 
L 191 3500 
L 800 3500 
L 1894 763 
L 2988 3500 
L 3597 3500 
L 2059 -325 
z
" transform="scale(0.015625)"/>
      <path id="DejaVuSans-49" d="M 628 4666 
L 1259 4666 
L 1259 0 
L 628 0 
L 628 4666 
z
" transform="scale(0.015625)"/>
      <path id="DejaVuSans-78" d="M 3513 3500 
L 2247 1797 
L 3578 0 
L 2900 0 
L 1881 1375 
L 863 0 
L 184 0 
L 1544 1831 
L 300 3500 
L 978 3500 
L 1906 2253 
L 2834 3500 
L 3513 3500 
z
" transform="scale(0.015625)"/>
     </defs>
     <use xlink:href="#DejaVuSans-53"/>
     <use xlink:href="#DejaVuSans-74" transform="translate(63.476562 0)"/>
     <use xlink:href="#DejaVuSans-61" transform="translate(102.685547 0)"/>
     <use xlink:href="#DejaVuSans-74" transform="translate(163.964844 0)"/>
     <use xlink:href="#DejaVuSans-65" transform="translate(203.173828 0)"/>
     <use xlink:href="#DejaVuSans-20" transform="translate(264.697266 0)"/>
     <use xlink:href="#DejaVuSans-56" transform="translate(296.484375 0)"/>
     <use xlink:href="#DejaVuSans-61" transform="translate(357.142578 0)"/>
     <use xlink:href="#DejaVuSans-6c" transform="translate(418.421875 0)"/>
     <use xlink:href="#DejaVuSans-75" transform="translate(446.205078 0)"/>
     <use xlink:href="#DejaVuSans-65" transform="translate(509.583984 0)"/>
     <use xlink:href="#DejaVuSans-20" transform="translate(571.107422 0)"/>
     <use xlink:href="#DejaVuSans-43" transform="translate(602.894531 0)"/>
     <use xlink:href="#DejaVuSans-6f" transform="translate(672.71875 0)"/>
     <use xlink:href="#DejaVuSans-6e" transform="translate(733.900391 0)"/>
     <use xlink:href="#DejaVuSans-76" transform="translate(797.279297 0)"/>
     <use xlink:href="#DejaVuSans-65" transform="translate(856.458984 0)"/>
     <use xlink:href="#DejaVuSans-72" transform="translate(917.982422 0)"/>
     <use xlink:href="#DejaVuSans-67" transform="translate(957.345703 0)"/>
     <use xlink:href="#DejaVuSans-65" transform="translate(1020.822266 0)"/>
     <use xlink:href="#DejaVuSans-6e" transform="translate(1082.345703 0)"/>
     <use xlink:href="#DejaVuSans-63" transform="translate(1145.724609 0)"/>
     <use xlink:href="#DejaVuSans-65" transform="translate(1200.705078 0)"/>
     <use xlink:href="#DejaVuSans-20" transform="translate(1262.228516 0)"/>
     <use xlink:href="#DejaVuSans-66" transform="translate(1294.015625 0)"/>
     <use xlink:href="#DejaVuSans-6f" transform="translate(1329.220703 0)"/>
     <use xlink:href="#DejaVuSans-72" transform="translate(1390.402344 0)"/>
     <use xlink:href="#DejaVuSans-20" transform="translate(1431.515625 0)"/>
     <use xlink:href="#DejaVuSans-64" transform="translate(1463.302734 0)"/>
     <use xlink:href="#DejaVuSans-62" transform="translate(1526.779297 0)"/>
     <use xlink:href="#DejaVuSans-5f" transform="translate(1590.255859 0)"/>
     <use xlink:href="#DejaVuSans-79" transform="translate(1640.255859 0)"/>
     <use xlink:href="#DejaVuSans-20" transform="translate(1699.435547 0)"/>
     <use xlink:href="#DejaVuSans-28" transform="translate(1731.222656 0)"/>
     <use xlink:href="#DejaVuSans-49" transform="translate(1770.236328 0)"/>
     <use xlink:href="#DejaVuSans-6e" transform="translate(1799.728516 0)"/>
     <use xlink:href="#DejaVuSans-64" transform="translate(1863.107422 0)"/>
     <use xlink:href="#DejaVuSans-65" transform="translate(1926.583984 0)"/>
     <use xlink:href="#DejaVuSans-78" transform="translate(1986.357422 0)"/>
     <use xlink:href="#DejaVuSans-20" transform="translate(2045.537109 0)"/>
     <use xlink:href="#DejaVuSans-31" transform="translate(2077.324219 0)"/>
     <use xlink:href="#DejaVuSans-30" transform="translate(2140.947266 0)"/>
     <use xlink:href="#DejaVuSans-29" transform="translate(2204.570312 0)"/>
    </g>
   </g>
   <g id="legend_1">
    <g id="patch_7">
     <path d="M 521.465625 379.48 
L 641 379.48 
Q 643 379.48 643 377.48 
L 643 349.12375 
Q 643 347.12375 641 347.12375 
L 521.465625 347.12375 
Q 519.465625 347.12375 519.465625 349.12375 
L 519.465625 377.48 
Q 519.465625 379.48 521.465625 379.48 
z
" style="fill: #ffffff; opacity: 0.8; stroke: #cccccc; stroke-linejoin: miter"/>
    </g>
    <g id="line2d_27">
     <path d="M 523.465625 355.222188 
L 533.465625 355.222188 
L 543.465625 355.222188 
" style="fill: none; stroke: #ff0000; stroke-width: 1.5; stroke-linecap: square"/>
    </g>
    <g id="text_16">
     <!-- Baseline KF State -->
     <g transform="translate(551.465625 358.722188) scale(0.1 -0.1)">
      <defs>
       <path id="DejaVuSans-42" d="M 1259 2228 
L 1259 519 
L 2272 519 
Q 2781 519 3026 730 
Q 3272 941 3272 1375 
Q 3272 1813 3026 2020 
Q 2781 2228 2272 2228 
L 1259 2228 
z
M 1259 4147 
L 1259 2741 
L 2194 2741 
Q 2656 2741 2882 2914 
Q 3109 3088 3109 3444 
Q 3109 3797 2882 3972 
Q 2656 4147 2194 4147 
L 1259 4147 
z
M 628 4666 
L 2241 4666 
Q 2963 4666 3353 4366 
Q 3744 4066 3744 3513 
Q 3744 3084 3544 2831 
Q 3344 2578 2956 2516 
Q 3422 2416 3680 2098 
Q 3938 1781 3938 1306 
Q 3938 681 3513 340 
Q 3088 0 2303 0 
L 628 0 
L 628 4666 
z
" transform="scale(0.015625)"/>
       <path id="DejaVuSans-4b" d="M 628 4666 
L 1259 4666 
L 1259 2694 
L 3353 4666 
L 4166 4666 
L 1850 2491 
L 4331 0 
L 3500 0 
L 1259 2247 
L 1259 0 
L 628 0 
L 628 4666 
z
" transform="scale(0.015625)"/>
       <path id="DejaVuSans-46" d="M 628 4666 
L 3309 4666 
L 3309 4134 
L 1259 4134 
L 1259 2759 
L 3109 2759 
L 3109 2228 
L 1259 2228 
L 1259 0 
L 628 0 
L 628 4666 
z
" transform="scale(0.015625)"/>
      </defs>
      <use xlink:href="#DejaVuSans-42"/>
      <use xlink:href="#DejaVuSans-61" transform="translate(68.603516 0)"/>
      <use xlink:href="#DejaVuSans-73" transform="translate(129.882812 0)"/>
      <use xlink:href="#DejaVuSans-65" transform="translate(181.982422 0)"/>
      <use xlink:href="#DejaVuSans-6c" transform="translate(243.505859 0)"/>
      <use xlink:href="#DejaVuSans-69" transform="translate(271.289062 0)"/>
      <use xlink:href="#DejaVuSans-6e" transform="translate(299.072266 0)"/>
      <use xlink:href="#DejaVuSans-65" transform="translate(362.451172 0)"/>
      <use xlink:href="#DejaVuSans-20" transform="translate(423.974609 0)"/>
      <use xlink:href="#DejaVuSans-4b" transform="translate(455.761719 0)"/>
      <use xlink:href="#DejaVuSans-46" transform="translate(521.337891 0)"/>
      <use xlink:href="#DejaVuSans-20" transform="translate(578.857422 0)"/>
      <use xlink:href="#DejaVuSans-53" transform="translate(610.644531 0)"/>
      <use xlink:href="#DejaVuSans-74" transform="translate(674.121094 0)"/>
      <use xlink:href="#DejaVuSans-61" transform="translate(713.330078 0)"/>
      <use xlink:href="#DejaVuSans-74" transform="translate(774.609375 0)"/>
      <use xlink:href="#DejaVuSans-65" transform="translate(813.818359 0)"/>
     </g>
    </g>
    <g id="line2d_28">
     <path d="M 523.465625 369.900312 
L 533.465625 369.900312 
L 543.465625 369.900312 
" style="fill: none; stroke-dasharray: 5.55,2.4; stroke-dashoffset: 0; stroke: #0000ff; stroke-width: 1.5"/>
    </g>
    <g id="text_17">
     <!-- Shadow KF State -->
     <g transform="translate(551.465625 373.400312) scale(0.1 -0.1)">
      <defs>
       <path id="DejaVuSans-68" d="M 3513 2113 
L 3513 0 
L 2938 0 
L 2938 2094 
Q 2938 2591 2744 2837 
Q 2550 3084 2163 3084 
Q 1697 3084 1428 2787 
Q 1159 2491 1159 1978 
L 1159 0 
L 581 0 
L 581 4863 
L 1159 4863 
L 1159 2956 
Q 1366 3272 1645 3428 
Q 1925 3584 2291 3584 
Q 2894 3584 3203 3211 
Q 3513 2838 3513 2113 
z
" transform="scale(0.015625)"/>
       <path id="DejaVuSans-77" d="M 269 3500 
L 844 3500 
L 1563 769 
L 2278 3500 
L 2956 3500 
L 3675 769 
L 4391 3500 
L 4966 3500 
L 4050 0 
L 3372 0 
L 2619 2869 
L 1863 0 
L 1184 0 
L 269 3500 
z
" transform="scale(0.015625)"/>
      </defs>
      <use xlink:href="#DejaVuSans-53"/>
      <use xlink:href="#DejaVuSans-68" transform="translate(63.476562 0)"/>
      <use xlink:href="#DejaVuSans-61" transform="translate(126.855469 0)"/>
      <use xlink:href="#DejaVuSans-64" transform="translate(188.134766 0)"/>
      <use xlink:href="#DejaVuSans-6f" transform="translate(251.611328 0)"/>
      <use xlink:href="#DejaVuSans-77" transform="translate(312.792969 0)"/>
      <use xlink:href="#DejaVuSans-20" transform="translate(394.580078 0)"/>
      <use xlink:href="#DejaVuSans-4b" transform="translate(426.367188 0)"/>
      <use xlink:href="#DejaVuSans-46" transform="translate(491.943359 0)"/>
      <use xlink:href="#DejaVuSans-20" transform="translate(549.462891 0)"/>
      <use xlink:href="#DejaVuSans-53" transform="translate(581.25 0)"/>
      <use xlink:href="#DejaVuSans-74" transform="translate(644.726562 0)"/>
      <use xlink:href="#DejaVuSans-61" transform="translate(683.935547 0)"/>
      <use xlink:href="#DejaVuSans-74" transform="translate(745.214844 0)"/>
      <use xlink:href="#DejaVuSans-65" transform="translate(784.423828 0)"/>
     </g>
    </g>
   </g>
  </g>
 </g>
 <defs>
  <clipPath id="pa818f75fa9">
   <rect x="90" y="51.84" width="558" height="332.64"/>
  </clipPath>
 </defs>
</svg>
