<?xml version="1.0" encoding="utf-8" standalone="no"?>
<!DOCTYPE svg PUBLIC "-//W3C//DTD SVG 1.1//EN"
  "http://www.w3.org/Graphics/SVG/1.1/DTD/svg11.dtd">
<svg xmlns:xlink="http://www.w3.org/1999/xlink" width="720pt" height="432pt" viewBox="0 0 720 432" xmlns="http://www.w3.org/2000/svg" version="1.1">
 <metadata>
  <rdf:RDF xmlns:dc="http://purl.org/dc/elements/1.1/" xmlns:cc="http://creativecommons.org/ns#" xmlns:rdf="http://www.w3.org/1999/02/22-rdf-syntax-ns#">
   <cc:Work>
    <dc:type rdf:resource="http://purl.org/dc/dcmitype/StillImage"/>
    <dc:date>2026-03-25T09:55:30.017652</dc:date>
    <dc:format>image/svg+xml</dc:format>
    <dc:creator>
     <cc:Agent>
      <dc:title>Matplotlib v3.10.8, https://matplotlib.org/</dc:title>
     </cc:Agent>
    </dc:creator>
   </cc:Work>
  </rdf:RDF>
 </metadata>
 <defs>
  <style type="text/css">*{stroke-linejoin: round; stroke-linecap: butt}</style>
 </defs>
 <g id="figure_1">
  <g id="patch_1">
   <path d="M 0 432 
L 720 432 
L 720 0 
L 0 0 
z
" style="fill: #ffffff"/>
  </g>
  <g id="axes_1">
   <g id="patch_2">
    <path d="M 90 384.48 
L 648 384.48 
L 648 51.84 
L 90 51.84 
z
" style="fill: #ffffff"/>
   </g>
   <g id="matplotlib.axis_1">
    <g id="xtick_1">
     <g id="line2d_1">
      <path d="M 115.363636 384.48 
L 115.363636 51.84 
" clip-path="url(#pf50d9097d1)" style="fill: none; stroke: #b0b0b0; stroke-width: 0.8; stroke-linecap: square"/>
     </g>
     <g id="line2d_2">
      <defs>
       <path id="m45c90a0002" d="M 0 0 
L 0 3.5 
" style="stroke: #000000; stroke-width: 0.8"/>
      </defs>
      <g>
       <use xlink:href="#m45c90a0002" x="115.363636" y="384.48" style="stroke: #000000; stroke-width: 0.8"/>
      </g>
     </g>
     <g id="text_1">
      <!-- 0 -->
      <g transform="translate(112.182386 399.078438) scale(0.1 -0.1)">
       <defs>
        <path id="DejaVuSans-30" d="M 2034 4250 
Q 1547 4250 1301 3770 
Q 1056 3291 1056 2328 
Q 1056 1369 1301 889 
Q 1547 409 2034 409 
Q 2525 409 2770 889 
Q 3016 1369 3016 2328 
Q 3016 3291 2770 3770 
Q 2525 4250 2034 4250 
z
M 2034 4750 
Q 2819 4750 3233 4129 
Q 3647 3509 3647 2328 
Q 3647 1150 3233 529 
Q 2819 -91 2034 -91 
Q 1250 -91 836 529 
Q 422 1150 422 2328 
Q 422 3509 836 4129 
Q 1250 4750 2034 4750 
z
" transform="scale(0.015625)"/>
       </defs>
       <use xlink:href="#DejaVuSans-30"/>
      </g>
     </g>
    </g>
    <g id="xtick_2">
     <g id="line2d_3">
      <path d="M 201.605174 384.48 
L 201.605174 51.84 
" clip-path="url(#pf50d9097d1)" style="fill: none; stroke: #b0b0b0; stroke-width: 0.8; stroke-linecap: square"/>
     </g>
     <g id="line2d_4">
      <g>
       <use xlink:href="#m45c90a0002" x="201.605174" y="384.48" style="stroke: #000000; stroke-width: 0.8"/>
      </g>
     </g>
     <g id="text_2">
      <!-- 50 -->
      <g transform="translate(195.242674 399.078438) scale(0.1 -0.1)">
       <defs>
        <path id="DejaVuSans-35" d="M 691 4666 
L 3169 4666 
L 3169 4134 
L 1269 4134 
L 1269 2991 
Q 1406 3038 1543 3061 
Q 1681 3084 1819 3084 
Q 2600 3084 3056 2656 
Q 3513 2228 3513 1497 
Q 3513 744 3044 326 
Q 2575 -91 1722 -91 
Q 1428 -91 1123 -41 
Q 819 9 494 109 
L 494 744 
Q 775 591 1075 516 
Q 1375 441 1709 441 
Q 2250 441 2565 725 
Q 2881 1009 2881 1497 
Q 2881 1984 2565 2268 
Q 2250 2553 1709 2553 
Q 1456 2553 1204 2497 
Q 953 2441 691 2322 
L 691 4666 
z
" transform="scale(0.015625)"/>
       </defs>
       <use xlink:href="#DejaVuSans-35"/>
       <use xlink:href="#DejaVuSans-30" transform="translate(63.623047 0)"/>
      </g>
     </g>
    </g>
    <g id="xtick_3">
     <g id="line2d_5">
      <path d="M 287.846713 384.48 
L 287.846713 51.84 
" clip-path="url(#pf50d9097d1)" style="fill: none; stroke: #b0b0b0; stroke-width: 0.8; stroke-linecap: square"/>
     </g>
     <g id="line2d_6">
      <g>
       <use xlink:href="#m45c90a0002" x="287.846713" y="384.48" style="stroke: #000000; stroke-width: 0.8"/>
      </g>
     </g>
     <g id="text_3">
      <!-- 100 -->
      <g transform="translate(278.302963 399.078438) scale(0.1 -0.1)">
       <defs>
        <path id="DejaVuSans-31" d="M 794 531 
L 1825 531 
L 1825 4091 
L 703 3866 
L 703 4441 
L 1819 4666 
L 2450 4666 
L 2450 531 
L 3481 531 
L 3481 0 
L 794 0 
L 794 531 
z
" transform="scale(0.015625)"/>
       </defs>
       <use xlink:href="#DejaVuSans-31"/>
       <use xlink:href="#DejaVuSans-30" transform="translate(63.623047 0)"/>
       <use xlink:href="#DejaVuSans-30" transform="translate(127.246094 0)"/>
      </g>
     </g>
    </g>
    <g id="xtick_4">
     <g id="line2d_7">
      <path d="M 374.088251 384.48 
L 374.088251 51.84 
" clip-path="url(#pf50d9097d1)" style="fill: none; stroke: #b0b0b0; stroke-width: 0.8; stroke-linecap: square"/>
     </g>
     <g id="line2d_8">
      <g>
       <use xlink:href="#m45c90a0002" x="374.088251" y="384.48" style="stroke: #000000; stroke-width: 0.8"/>
      </g>
     </g>
     <g id="text_4">
      <!-- 150 -->
      <g transform="translate(364.544501 399.078438) scale(0.1 -0.1)">
       <use xlink:href="#DejaVuSans-31"/>
       <use xlink:href="#DejaVuSans-35" transform="translate(63.623047 0)"/>
       <use xlink:href="#DejaVuSans-30" transform="translate(127.246094 0)"/>
      </g>
     </g>
    </g>
    <g id="xtick_5">
     <g id="line2d_9">
      <path d="M 460.329789 384.48 
L 460.329789 51.84 
" clip-path="url(#pf50d9097d1)" style="fill: none; stroke: #b0b0b0; stroke-width: 0.8; stroke-linecap: square"/>
     </g>
     <g id="line2d_10">
      <g>
       <use xlink:href="#m45c90a0002" x="460.329789" y="384.48" style="stroke: #000000; stroke-width: 0.8"/>
      </g>
     </g>
     <g id="text_5">
      <!-- 200 -->
      <g transform="translate(450.786039 399.078438) scale(0.1 -0.1)">
       <defs>
        <path id="DejaVuSans-32" d="M 1228 531 
L 3431 531 
L 3431 0 
L 469 0 
L 469 531 
Q 828 903 1448 1529 
Q 2069 2156 2228 2338 
Q 2531 2678 2651 2914 
Q 2772 3150 2772 3378 
Q 2772 3750 2511 3984 
Q 2250 4219 1831 4219 
Q 1534 4219 1204 4116 
Q 875 4013 500 3803 
L 500 4441 
Q 881 4594 1212 4672 
Q 1544 4750 1819 4750 
Q 2544 4750 2975 4387 
Q 3406 4025 3406 3419 
Q 3406 3131 3298 2873 
Q 3191 2616 2906 2266 
Q 2828 2175 2409 1742 
Q 1991 1309 1228 531 
z
" transform="scale(0.015625)"/>
       </defs>
       <use xlink:href="#DejaVuSans-32"/>
       <use xlink:href="#DejaVuSans-30" transform="translate(63.623047 0)"/>
       <use xlink:href="#DejaVuSans-30" transform="translate(127.246094 0)"/>
      </g>
     </g>
    </g>
    <g id="xtick_6">
     <g id="line2d_11">
      <path d="M 546.571327 384.48 
L 546.571327 51.84 
" clip-path="url(#pf50d9097d1)" style="fill: none; stroke: #b0b0b0; stroke-width: 0.8; stroke-linecap: square"/>
     </g>
     <g id="line2d_12">
      <g>
       <use xlink:href="#m45c90a0002" x="546.571327" y="384.48" style="stroke: #000000; stroke-width: 0.8"/>
      </g>
     </g>
     <g id="text_6">
      <!-- 250 -->
      <g transform="translate(537.027577 399.078438) scale(0.1 -0.1)">
       <use xlink:href="#DejaVuSans-32"/>
       <use xlink:href="#DejaVuSans-35" transform="translate(63.623047 0)"/>
       <use xlink:href="#DejaVuSans-30" transform="translate(127.246094 0)"/>
      </g>
     </g>
    </g>
    <g id="xtick_7">
     <g id="line2d_13">
      <path d="M 632.812865 384.48 
L 632.812865 51.84 
" clip-path="url(#pf50d9097d1)" style="fill: none; stroke: #b0b0b0; stroke-width: 0.8; stroke-linecap: square"/>
     </g>
     <g id="line2d_14">
      <g>
       <use xlink:href="#m45c90a0002" x="632.812865" y="384.48" style="stroke: #000000; stroke-width: 0.8"/>
      </g>
     </g>
     <g id="text_7">
      <!-- 300 -->
      <g transform="translate(623.269115 399.078438) scale(0.1 -0.1)">
       <defs>
        <path id="DejaVuSans-33" d="M 2597 2516 
Q 3050 2419 3304 2112 
Q 3559 1806 3559 1356 
Q 3559 666 3084 287 
Q 2609 -91 1734 -91 
Q 1441 -91 1130 -33 
Q 819 25 488 141 
L 488 750 
Q 750 597 1062 519 
Q 1375 441 1716 441 
Q 2309 441 2620 675 
Q 2931 909 2931 1356 
Q 2931 1769 2642 2001 
Q 2353 2234 1838 2234 
L 1294 2234 
L 1294 2753 
L 1863 2753 
Q 2328 2753 2575 2939 
Q 2822 3125 2822 3475 
Q 2822 3834 2567 4026 
Q 2313 4219 1838 4219 
Q 1578 4219 1281 4162 
Q 984 4106 628 3988 
L 628 4550 
Q 988 4650 1302 4700 
Q 1616 4750 1894 4750 
Q 2613 4750 3031 4423 
Q 3450 4097 3450 3541 
Q 3450 3153 3228 2886 
Q 3006 2619 2597 2516 
z
" transform="scale(0.015625)"/>
       </defs>
       <use xlink:href="#DejaVuSans-33"/>
       <use xlink:href="#DejaVuSans-30" transform="translate(63.623047 0)"/>
       <use xlink:href="#DejaVuSans-30" transform="translate(127.246094 0)"/>
      </g>
     </g>
    </g>
    <g id="text_8">
     <!-- Maneuver Time (s) -->
     <g transform="translate(322.198438 412.756563) scale(0.1 -0.1)">
      <defs>
       <path id="DejaVuSans-4d" d="M 628 4666 
L 1569 4666 
L 2759 1491 
L 3956 4666 
L 4897 4666 
L 4897 0 
L 4281 0 
L 4281 4097 
L 3078 897 
L 2444 897 
L 1241 4097 
L 1241 0 
L 628 0 
L 628 4666 
z
" transform="scale(0.015625)"/>
       <path id="DejaVuSans-61" d="M 2194 1759 
Q 1497 1759 1228 1600 
Q 959 1441 959 1056 
Q 959 750 1161 570 
Q 1363 391 1709 391 
Q 2188 391 2477 730 
Q 2766 1069 2766 1631 
L 2766 1759 
L 2194 1759 
z
M 3341 1997 
L 3341 0 
L 2766 0 
L 2766 531 
Q 2569 213 2275 61 
Q 1981 -91 1556 -91 
Q 1019 -91 701 211 
Q 384 513 384 1019 
Q 384 1609 779 1909 
Q 1175 2209 1959 2209 
L 2766 2209 
L 2766 2266 
Q 2766 2663 2505 2880 
Q 2244 3097 1772 3097 
Q 1472 3097 1187 3025 
Q 903 2953 641 2809 
L 641 3341 
Q 956 3463 1253 3523 
Q 1550 3584 1831 3584 
Q 2591 3584 2966 3190 
Q 3341 2797 3341 1997 
z
" transform="scale(0.015625)"/>
       <path id="DejaVuSans-6e" d="M 3513 2113 
L 3513 0 
L 2938 0 
L 2938 2094 
Q 2938 2591 2744 2837 
Q 2550 3084 2163 3084 
Q 1697 3084 1428 2787 
Q 1159 2491 1159 1978 
L 1159 0 
L 581 0 
L 581 3500 
L 1159 3500 
L 1159 2956 
Q 1366 3272 1645 3428 
Q 1925 3584 2291 3584 
Q 2894 3584 3203 3211 
Q 3513 2838 3513 2113 
z
" transform="scale(0.015625)"/>
       <path id="DejaVuSans-65" d="M 3597 1894 
L 3597 1613 
L 953 1613 
Q 991 1019 1311 708 
Q 1631 397 2203 397 
Q 2534 397 2845 478 
Q 3156 559 3463 722 
L 3463 178 
Q 3153 47 2828 -22 
Q 2503 -91 2169 -91 
Q 1331 -91 842 396 
Q 353 884 353 1716 
Q 353 2575 817 3079 
Q 1281 3584 2069 3584 
Q 2775 3584 3186 3129 
Q 3597 2675 3597 1894 
z
M 3022 2063 
Q 3016 2534 2758 2815 
Q 2500 3097 2075 3097 
Q 1594 3097 1305 2825 
Q 1016 2553 972 2059 
L 3022 2063 
z
" transform="scale(0.015625)"/>
       <path id="DejaVuSans-75" d="M 544 1381 
L 544 3500 
L 1119 3500 
L 1119 1403 
Q 1119 906 1312 657 
Q 1506 409 1894 409 
Q 2359 409 2629 706 
Q 2900 1003 2900 1516 
L 2900 3500 
L 3475 3500 
L 3475 0 
L 2900 0 
L 2900 538 
Q 2691 219 2414 64 
Q 2138 -91 1772 -91 
Q 1169 -91 856 284 
Q 544 659 544 1381 
z
M 1991 3584 
L 1991 3584 
z
" transform="scale(0.015625)"/>
       <path id="DejaVuSans-76" d="M 191 3500 
L 800 3500 
L 1894 563 
L 2988 3500 
L 3597 3500 
L 2284 0 
L 1503 0 
L 191 3500 
z
" transform="scale(0.015625)"/>
       <path id="DejaVuSans-72" d="M 2631 2963 
Q 2534 3019 2420 3045 
Q 2306 3072 2169 3072 
Q 1681 3072 1420 2755 
Q 1159 2438 1159 1844 
L 1159 0 
L 581 0 
L 581 3500 
L 1159 3500 
L 1159 2956 
Q 1341 3275 1631 3429 
Q 1922 3584 2338 3584 
Q 2397 3584 2469 3576 
Q 2541 3569 2628 3553 
L 2631 2963 
z
" transform="scale(0.015625)"/>
       <path id="DejaVuSans-20" transform="scale(0.015625)"/>
       <path id="DejaVuSans-54" d="M -19 4666 
L 3928 4666 
L 3928 4134 
L 2272 4134 
L 2272 0 
L 1638 0 
L 1638 4134 
L -19 4134 
L -19 4666 
z
" transform="scale(0.015625)"/>
       <path id="DejaVuSans-69" d="M 603 3500 
L 1178 3500 
L 1178 0 
L 603 0 
L 603 3500 
z
M 603 4863 
L 1178 4863 
L 1178 4134 
L 603 4134 
L 603 4863 
z
" transform="scale(0.015625)"/>
       <path id="DejaVuSans-6d" d="M 3328 2828 
Q 3544 3216 3844 3400 
Q 4144 3584 4550 3584 
Q 5097 3584 5394 3201 
Q 5691 2819 5691 2113 
L 5691 0 
L 5113 0 
L 5113 2094 
Q 5113 2597 4934 2840 
Q 4756 3084 4391 3084 
Q 3944 3084 3684 2787 
Q 3425 2491 3425 1978 
L 3425 0 
L 2847 0 
L 2847 2094 
Q 2847 2600 2669 2842 
Q 2491 3084 2119 3084 
Q 1678 3084 1418 2786 
Q 1159 2488 1159 1978 
L 1159 0 
L 581 0 
L 581 3500 
L 1159 3500 
L 1159 2956 
Q 1356 3278 1631 3431 
Q 1906 3584 2284 3584 
Q 2666 3584 2933 3390 
Q 3200 3197 3328 2828 
z
" transform="scale(0.015625)"/>
       <path id="DejaVuSans-28" d="M 1984 4856 
Q 1566 4138 1362 3434 
Q 1159 2731 1159 2009 
Q 1159 1288 1364 580 
Q 1569 -128 1984 -844 
L 1484 -844 
Q 1016 -109 783 600 
Q 550 1309 550 2009 
Q 550 2706 781 3412 
Q 1013 4119 1484 4856 
L 1984 4856 
z
" transform="scale(0.015625)"/>
       <path id="DejaVuSans-73" d="M 2834 3397 
L 2834 2853 
Q 2591 2978 2328 3040 
Q 2066 3103 1784 3103 
Q 1356 3103 1142 2972 
Q 928 2841 928 2578 
Q 928 2378 1081 2264 
Q 1234 2150 1697 2047 
L 1894 2003 
Q 2506 1872 2764 1633 
Q 3022 1394 3022 966 
Q 3022 478 2636 193 
Q 2250 -91 1575 -91 
Q 1294 -91 989 -36 
Q 684 19 347 128 
L 347 722 
Q 666 556 975 473 
Q 1284 391 1588 391 
Q 1994 391 2212 530 
Q 2431 669 2431 922 
Q 2431 1156 2273 1281 
Q 2116 1406 1581 1522 
L 1381 1569 
Q 847 1681 609 1914 
Q 372 2147 372 2553 
Q 372 3047 722 3315 
Q 1072 3584 1716 3584 
Q 2034 3584 2315 3537 
Q 2597 3491 2834 3397 
z
" transform="scale(0.015625)"/>
       <path id="DejaVuSans-29" d="M 513 4856 
L 1013 4856 
Q 1481 4119 1714 3412 
Q 1947 2706 1947 2009 
Q 1947 1309 1714 600 
Q 1481 -109 1013 -844 
L 513 -844 
Q 928 -128 1133 580 
Q 1338 1288 1338 2009 
Q 1338 2731 1133 3434 
Q 928 4138 513 4856 
z
" transform="scale(0.015625)"/>
      </defs>
      <use xlink:href="#DejaVuSans-4d"/>
      <use xlink:href="#DejaVuSans-61" transform="translate(86.279297 0)"/>
      <use xlink:href="#DejaVuSans-6e" transform="translate(147.558594 0)"/>
      <use xlink:href="#DejaVuSans-65" transform="translate(210.9375 0)"/>
      <use xlink:href="#DejaVuSans-75" transform="translate(272.460938 0)"/>
      <use xlink:href="#DejaVuSans-76" transform="translate(335.839844 0)"/>
      <use xlink:href="#DejaVuSans-65" transform="translate(395.019531 0)"/>
      <use xlink:href="#DejaVuSans-72" transform="translate(456.542969 0)"/>
      <use xlink:href="#DejaVuSans-20" transform="translate(497.65625 0)"/>
      <use xlink:href="#DejaVuSans-54" transform="translate(529.443359 0)"/>
      <use xlink:href="#DejaVuSans-69" transform="translate(587.402344 0)"/>
      <use xlink:href="#DejaVuSans-6d" transform="translate(615.185547 0)"/>
      <use xlink:href="#DejaVuSans-65" transform="translate(712.597656 0)"/>
      <use xlink:href="#DejaVuSans-20" transform="translate(774.121094 0)"/>
      <use xlink:href="#DejaVuSans-28" transform="translate(805.908203 0)"/>
      <use xlink:href="#DejaVuSans-73" transform="translate(844.921875 0)"/>
      <use xlink:href="#DejaVuSans-29" transform="translate(897.021484 0)"/>
     </g>
    </g>
   </g>
   <g id="matplotlib.axis_2">
    <g id="ytick_1">
     <g id="line2d_15">
      <path d="M 90 354.795664 
L 648 354.795664 
" clip-path="url(#pf50d9097d1)" style="fill: none; stroke: #b0b0b0; stroke-width: 0.8; stroke-linecap: square"/>
     </g>
     <g id="line2d_16">
      <defs>
       <path id="mcfe4234aa4" d="M 0 0 
L -3.5 0 
" style="stroke: #000000; stroke-width: 0.8"/>
      </defs>
      <g>
       <use xlink:href="#mcfe4234aa4" x="90" y="354.795664" style="stroke: #000000; stroke-width: 0.8"/>
      </g>
     </g>
     <g id="text_9">
      <!-- 0.00000 -->
      <g transform="translate(41.646875 358.594883) scale(0.1 -0.1)">
       <defs>
        <path id="DejaVuSans-2e" d="M 684 794 
L 1344 794 
L 1344 0 
L 684 0 
L 684 794 
z
" transform="scale(0.015625)"/>
       </defs>
       <use xlink:href="#DejaVuSans-30"/>
       <use xlink:href="#DejaVuSans-2e" transform="translate(63.623047 0)"/>
       <use xlink:href="#DejaVuSans-30" transform="translate(95.410156 0)"/>
       <use xlink:href="#DejaVuSans-30" transform="translate(159.033203 0)"/>
       <use xlink:href="#DejaVuSans-30" transform="translate(222.65625 0)"/>
       <use xlink:href="#DejaVuSans-30" transform="translate(286.279297 0)"/>
       <use xlink:href="#DejaVuSans-30" transform="translate(349.902344 0)"/>
      </g>
     </g>
    </g>
    <g id="ytick_2">
     <g id="line2d_17">
      <path d="M 90 315.765768 
L 648 315.765768 
" clip-path="url(#pf50d9097d1)" style="fill: none; stroke: #b0b0b0; stroke-width: 0.8; stroke-linecap: square"/>
     </g>
     <g id="line2d_18">
      <g>
       <use xlink:href="#mcfe4234aa4" x="90" y="315.765768" style="stroke: #000000; stroke-width: 0.8"/>
      </g>
     </g>
     <g id="text_10">
      <!-- 0.00002 -->
      <g transform="translate(41.646875 319.564987) scale(0.1 -0.1)">
       <use xlink:href="#DejaVuSans-30"/>
       <use xlink:href="#DejaVuSans-2e" transform="translate(63.623047 0)"/>
       <use xlink:href="#DejaVuSans-30" transform="translate(95.410156 0)"/>
       <use xlink:href="#DejaVuSans-30" transform="translate(159.033203 0)"/>
       <use xlink:href="#DejaVuSans-30" transform="translate(222.65625 0)"/>
       <use xlink:href="#DejaVuSans-30" transform="translate(286.279297 0)"/>
       <use xlink:href="#DejaVuSans-32" transform="translate(349.902344 0)"/>
      </g>
     </g>
    </g>
    <g id="ytick_3">
     <g id="line2d_19">
      <path d="M 90 276.735872 
L 648 276.735872 
" clip-path="url(#pf50d9097d1)" style="fill: none; stroke: #b0b0b0; stroke-width: 0.8; stroke-linecap: square"/>
     </g>
     <g id="line2d_20">
      <g>
       <use xlink:href="#mcfe4234aa4" x="90" y="276.735872" style="stroke: #000000; stroke-width: 0.8"/>
      </g>
     </g>
     <g id="text_11">
      <!-- 0.00004 -->
      <g transform="translate(41.646875 280.53509) scale(0.1 -0.1)">
       <defs>
        <path id="DejaVuSans-34" d="M 2419 4116 
L 825 1625 
L 2419 1625 
L 2419 4116 
z
M 2253 4666 
L 3047 4666 
L 3047 1625 
L 3713 1625 
L 3713 1100 
L 3047 1100 
L 3047 0 
L 2419 0 
L 2419 1100 
L 313 1100 
L 313 1709 
L 2253 4666 
z
" transform="scale(0.015625)"/>
       </defs>
       <use xlink:href="#DejaVuSans-30"/>
       <use xlink:href="#DejaVuSans-2e" transform="translate(63.623047 0)"/>
       <use xlink:href="#DejaVuSans-30" transform="translate(95.410156 0)"/>
       <use xlink:href="#DejaVuSans-30" transform="translate(159.033203 0)"/>
       <use xlink:href="#DejaVuSans-30" transform="translate(222.65625 0)"/>
       <use xlink:href="#DejaVuSans-30" transform="translate(286.279297 0)"/>
       <use xlink:href="#DejaVuSans-34" transform="translate(349.902344 0)"/>
      </g>
     </g>
    </g>
    <g id="ytick_4">
     <g id="line2d_21">
      <path d="M 90 237.705975 
L 648 237.705975 
" clip-path="url(#pf50d9097d1)" style="fill: none; stroke: #b0b0b0; stroke-width: 0.8; stroke-linecap: square"/>
     </g>
     <g id="line2d_22">
      <g>
       <use xlink:href="#mcfe4234aa4" x="90" y="237.705975" style="stroke: #000000; stroke-width: 0.8"/>
      </g>
     </g>
     <g id="text_12">
      <!-- 0.00006 -->
      <g transform="translate(41.646875 241.505194) scale(0.1 -0.1)">
       <defs>
        <path id="DejaVuSans-36" d="M 2113 2584 
Q 1688 2584 1439 2293 
Q 1191 2003 1191 1497 
Q 1191 994 1439 701 
Q 1688 409 2113 409 
Q 2538 409 2786 701 
Q 3034 994 3034 1497 
Q 3034 2003 2786 2293 
Q 2538 2584 2113 2584 
z
M 3366 4563 
L 3366 3988 
Q 3128 4100 2886 4159 
Q 2644 4219 2406 4219 
Q 1781 4219 1451 3797 
Q 1122 3375 1075 2522 
Q 1259 2794 1537 2939 
Q 1816 3084 2150 3084 
Q 2853 3084 3261 2657 
Q 3669 2231 3669 1497 
Q 3669 778 3244 343 
Q 2819 -91 2113 -91 
Q 1303 -91 875 529 
Q 447 1150 447 2328 
Q 447 3434 972 4092 
Q 1497 4750 2381 4750 
Q 2619 4750 2861 4703 
Q 3103 4656 3366 4563 
z
" transform="scale(0.015625)"/>
       </defs>
       <use xlink:href="#DejaVuSans-30"/>
       <use xlink:href="#DejaVuSans-2e" transform="translate(63.623047 0)"/>
       <use xlink:href="#DejaVuSans-30" transform="translate(95.410156 0)"/>
       <use xlink:href="#DejaVuSans-30" transform="translate(159.033203 0)"/>
       <use xlink:href="#DejaVuSans-30" transform="translate(222.65625 0)"/>
       <use xlink:href="#DejaVuSans-30" transform="translate(286.279297 0)"/>
       <use xlink:href="#DejaVuSans-36" transform="translate(349.902344 0)"/>
      </g>
     </g>
    </g>
    <g id="ytick_5">
     <g id="line2d_23">
      <path d="M 90 198.676079 
L 648 198.676079 
" clip-path="url(#pf50d9097d1)" style="fill: none; stroke: #b0b0b0; stroke-width: 0.8; stroke-linecap: square"/>
     </g>
     <g id="line2d_24">
      <g>
       <use xlink:href="#mcfe4234aa4" x="90" y="198.676079" style="stroke: #000000; stroke-width: 0.8"/>
      </g>
     </g>
     <g id="text_13">
      <!-- 0.00008 -->
      <g transform="translate(41.646875 202.475298) scale(0.1 -0.1)">
       <defs>
        <path id="DejaVuSans-38" d="M 2034 2216 
Q 1584 2216 1326 1975 
Q 1069 1734 1069 1313 
Q 1069 891 1326 650 
Q 1584 409 2034 409 
Q 2484 409 2743 651 
Q 3003 894 3003 1313 
Q 3003 1734 2745 1975 
Q 2488 2216 2034 2216 
z
M 1403 2484 
Q 997 2584 770 2862 
Q 544 3141 544 3541 
Q 544 4100 942 4425 
Q 1341 4750 2034 4750 
Q 2731 4750 3128 4425 
Q 3525 4100 3525 3541 
Q 3525 3141 3298 2862 
Q 3072 2584 2669 2484 
Q 3125 2378 3379 2068 
Q 3634 1759 3634 1313 
Q 3634 634 3220 271 
Q 2806 -91 2034 -91 
Q 1263 -91 848 271 
Q 434 634 434 1313 
Q 434 1759 690 2068 
Q 947 2378 1403 2484 
z
M 1172 3481 
Q 1172 3119 1398 2916 
Q 1625 2713 2034 2713 
Q 2441 2713 2670 2916 
Q 2900 3119 2900 3481 
Q 2900 3844 2670 4047 
Q 2441 4250 2034 4250 
Q 1625 4250 1398 4047 
Q 1172 3844 1172 3481 
z
" transform="scale(0.015625)"/>
       </defs>
       <use xlink:href="#DejaVuSans-30"/>
       <use xlink:href="#DejaVuSans-2e" transform="translate(63.623047 0)"/>
       <use xlink:href="#DejaVuSans-30" transform="translate(95.410156 0)"/>
       <use xlink:href="#DejaVuSans-30" transform="translate(159.033203 0)"/>
       <use xlink:href="#DejaVuSans-30" transform="translate(222.65625 0)"/>
       <use xlink:href="#DejaVuSans-30" transform="translate(286.279297 0)"/>
       <use xlink:href="#DejaVuSans-38" transform="translate(349.902344 0)"/>
      </g>
     </g>
    </g>
    <g id="ytick_6">
     <g id="line2d_25">
      <path d="M 90 159.646183 
L 648 159.646183 
" clip-path="url(#pf50d9097d1)" style="fill: none; stroke: #b0b0b0; stroke-width: 0.8; stroke-linecap: square"/>
     </g>
     <g id="line2d_26">
      <g>
       <use xlink:href="#mcfe4234aa4" x="90" y="159.646183" style="stroke: #000000; stroke-width: 0.8"/>
      </g>
     </g>
     <g id="text_14">
      <!-- 0.00010 -->
      <g transform="translate(41.646875 163.445401) scale(0.1 -0.1)">
       <use xlink:href="#DejaVuSans-30"/>
       <use xlink:href="#DejaVuSans-2e" transform="translate(63.623047 0)"/>
       <use xlink:href="#DejaVuSans-30" transform="translate(95.410156 0)"/>
       <use xlink:href="#DejaVuSans-30" transform="translate(159.033203 0)"/>
       <use xlink:href="#DejaVuSans-30" transform="translate(222.65625 0)"/>
       <use xlink:href="#DejaVuSans-31" transform="translate(286.279297 0)"/>
       <use xlink:href="#DejaVuSans-30" transform="translate(349.902344 0)"/>
      </g>
     </g>
    </g>
    <g id="ytick_7">
     <g id="line2d_27">
      <path d="M 90 120.616286 
L 648 120.616286 
" clip-path="url(#pf50d9097d1)" style="fill: none; stroke: #b0b0b0; stroke-width: 0.8; stroke-linecap: square"/>
     </g>
     <g id="line2d_28">
      <g>
       <use xlink:href="#mcfe4234aa4" x="90" y="120.616286" style="stroke: #000000; stroke-width: 0.8"/>
      </g>
     </g>
     <g id="text_15">
      <!-- 0.00012 -->
      <g transform="translate(41.646875 124.415505) scale(0.1 -0.1)">
       <use xlink:href="#DejaVuSans-30"/>
       <use xlink:href="#DejaVuSans-2e" transform="translate(63.623047 0)"/>
       <use xlink:href="#DejaVuSans-30" transform="translate(95.410156 0)"/>
       <use xlink:href="#DejaVuSans-30" transform="translate(159.033203 0)"/>
       <use xlink:href="#DejaVuSans-30" transform="translate(222.65625 0)"/>
       <use xlink:href="#DejaVuSans-31" transform="translate(286.279297 0)"/>
       <use xlink:href="#DejaVuSans-32" transform="translate(349.902344 0)"/>
      </g>
     </g>
    </g>
    <g id="ytick_8">
     <g id="line2d_29">
      <path d="M 90 81.58639 
L 648 81.58639 
" clip-path="url(#pf50d9097d1)" style="fill: none; stroke: #b0b0b0; stroke-width: 0.8; stroke-linecap: square"/>
     </g>
     <g id="line2d_30">
      <g>
       <use xlink:href="#mcfe4234aa4" x="90" y="81.58639" style="stroke: #000000; stroke-width: 0.8"/>
      </g>
     </g>
     <g id="text_16">
      <!-- 0.00014 -->
      <g transform="translate(41.646875 85.385609) scale(0.1 -0.1)">
       <use xlink:href="#DejaVuSans-30"/>
       <use xlink:href="#DejaVuSans-2e" transform="translate(63.623047 0)"/>
       <use xlink:href="#DejaVuSans-30" transform="translate(95.410156 0)"/>
       <use xlink:href="#DejaVuSans-30" transform="translate(159.033203 0)"/>
       <use xlink:href="#DejaVuSans-30" transform="translate(222.65625 0)"/>
       <use xlink:href="#DejaVuSans-31" transform="translate(286.279297 0)"/>
       <use xlink:href="#DejaVuSans-34" transform="translate(349.902344 0)"/>
      </g>
     </g>
    </g>
    <g id="text_17">
     <!-- Estimated Value -->
     <g transform="translate(35.567187 258.738906) rotate(-90) scale(0.1 -0.1)">
      <defs>
       <path id="DejaVuSans-45" d="M 628 4666 
L 3578 4666 
L 3578 4134 
L 1259 4134 
L 1259 2753 
L 3481 2753 
L 3481 2222 
L 1259 2222 
L 1259 531 
L 3634 531 
L 3634 0 
L 628 0 
L 628 4666 
z
" transform="scale(0.015625)"/>
       <path id="DejaVuSans-74" d="M 1172 4494 
L 1172 3500 
L 2356 3500 
L 2356 3053 
L 1172 3053 
L 1172 1153 
Q 1172 725 1289 603 
Q 1406 481 1766 481 
L 2356 481 
L 2356 0 
L 1766 0 
Q 1100 0 847 248 
Q 594 497 594 1153 
L 594 3053 
L 172 3053 
L 172 3500 
L 594 3500 
L 594 4494 
L 1172 4494 
z
" transform="scale(0.015625)"/>
       <path id="DejaVuSans-64" d="M 2906 2969 
L 2906 4863 
L 3481 4863 
L 3481 0 
L 2906 0 
L 2906 525 
Q 2725 213 2448 61 
Q 2172 -91 1784 -91 
Q 1150 -91 751 415 
Q 353 922 353 1747 
Q 353 2572 751 3078 
Q 1150 3584 1784 3584 
Q 2172 3584 2448 3432 
Q 2725 3281 2906 2969 
z
M 947 1747 
Q 947 1113 1208 752 
Q 1469 391 1925 391 
Q 2381 391 2643 752 
Q 2906 1113 2906 1747 
Q 2906 2381 2643 2742 
Q 2381 3103 1925 3103 
Q 1469 3103 1208 2742 
Q 947 2381 947 1747 
z
" transform="scale(0.015625)"/>
       <path id="DejaVuSans-56" d="M 1831 0 
L 50 4666 
L 709 4666 
L 2188 738 
L 3669 4666 
L 4325 4666 
L 2547 0 
L 1831 0 
z
" transform="scale(0.015625)"/>
       <path id="DejaVuSans-6c" d="M 603 4863 
L 1178 4863 
L 1178 0 
L 603 0 
L 603 4863 
z
" transform="scale(0.015625)"/>
      </defs>
      <use xlink:href="#DejaVuSans-45"/>
      <use xlink:href="#DejaVuSans-73" transform="translate(63.183594 0)"/>
      <use xlink:href="#DejaVuSans-74" transform="translate(115.283203 0)"/>
      <use xlink:href="#DejaVuSans-69" transform="translate(154.492188 0)"/>
      <use xlink:href="#DejaVuSans-6d" transform="translate(182.275391 0)"/>
      <use xlink:href="#DejaVuSans-61" transform="translate(279.6875 0)"/>
      <use xlink:href="#DejaVuSans-74" transform="translate(340.966797 0)"/>
      <use xlink:href="#DejaVuSans-65" transform="translate(380.175781 0)"/>
      <use xlink:href="#DejaVuSans-64" transform="translate(441.699219 0)"/>
      <use xlink:href="#DejaVuSans-20" transform="translate(505.175781 0)"/>
      <use xlink:href="#DejaVuSans-56" transform="translate(536.962891 0)"/>
      <use xlink:href="#DejaVuSans-61" transform="translate(597.621094 0)"/>
      <use xlink:href="#DejaVuSans-6c" transform="translate(658.900391 0)"/>
      <use xlink:href="#DejaVuSans-75" transform="translate(686.683594 0)"/>
      <use xlink:href="#DejaVuSans-65" transform="translate(750.0625 0)"/>
     </g>
    </g>
   </g>
   <g id="line2d_31">
    <path d="M 115.363636 354.795664 
L 119.779203 354.686848 
L 122.642422 354.370457 
L 128.541343 353.619052 
L 128.88631 353.619052 
L 129.127786 352.628888 
L 129.369262 352.421345 
L 129.921208 352.393233 
L 131.646039 352.590781 
L 133.715836 353.040838 
L 136.303082 353.857484 
L 140.856635 355.304323 
L 143.788847 355.971324 
L 144.720256 356.04109 
L 145.962134 356.04109 
L 146.100121 351.256657 
L 146.376093 350.530767 
L 146.72106 350.314723 
L 147.686965 350.103913 
L 153.758369 349.125013 
L 154.413805 349.125013 
L 154.551791 350.087244 
L 154.896757 351.186458 
L 155.27622 351.597049 
L 155.931656 351.932264 
L 157.484004 352.406948 
L 161.761584 353.472602 
L 162.865476 353.472602 
L 163.003462 354.442142 
L 164.176347 354.932509 
L 165.349232 355.037473 
L 167.419029 354.973501 
L 171.317146 354.784569 
L 171.455133 352.025597 
L 171.834596 351.897535 
L 172.662514 351.923232 
L 176.526135 352.175536 
L 179.768817 352.208545 
L 179.906803 352.114624 
L 182.149083 352.032703 
L 185.667738 351.621551 
L 187.220086 351.512219 
L 188.220488 351.512219 
L 188.358474 349.611536 
L 188.530957 349.447312 
L 189.703842 349.469763 
L 191.808136 349.389421 
L 193.463973 349.106881 
L 195.671757 348.676547 
L 196.672159 348.676547 
L 196.810145 83.68364 
L 196.913635 81.611351 
L 196.948131 81.721017 
L 197.155111 83.829454 
L 200.570276 125.983151 
L 203.330005 158.917037 
L 205.123829 158.917037 
L 205.261816 124.889217 
L 205.744768 121.425994 
L 206.227721 119.82607 
L 206.917653 118.346749 
L 208.021545 116.538619 
L 209.815369 114.051117 
L 211.816173 111.625611 
L 213.5755 111.625611 
L 213.609997 111.744052 
L 213.67899 111.703254 
L 213.920466 111.201208 
L 214.403419 110.345195 
L 214.886371 109.912372 
L 215.438317 109.715116 
L 216.162746 109.712341 
L 217.646101 109.999563 
L 219.060462 110.168108 
L 220.164353 110.077026 
L 220.819789 110.063807 
L 222.027171 110.063807 
L 222.165157 102.084098 
L 223.234552 95.83471 
L 223.958981 93.146446 
L 224.752403 91.049804 
L 225.580322 89.476307 
L 226.477234 88.246116 
L 227.443139 87.299426 
L 228.512534 86.566891 
L 228.891997 86.472501 
L 230.478841 86.472501 
L 230.513338 86.026232 
L 230.616828 86.094098 
L 231.858706 87.834344 
L 232.445149 88.067748 
L 233.135081 88.093133 
L 234.066489 87.883031 
L 235.515347 87.294096 
L 237.447158 86.523116 
L 238.930512 86.523116 
L 239.068499 79.863302 
L 239.482458 79.31691 
L 240.48286 78.387443 
L 241.828228 77.454118 
L 243.484065 76.582006 
L 245.415876 75.820397 
L 245.933325 75.763245 
L 247.382183 75.763245 
L 247.520169 75.595392 
L 250.245402 75.565222 
L 253.902043 75.743325 
L 255.419894 75.754525 
L 256.17882 75.864355 
L 262.146734 76.402097 
L 263.526599 76.438908 
L 264.699484 76.542013 
L 266.217335 76.913667 
L 268.908071 77.31366 
L 271.6678 77.537422 
L 272.737195 77.537422 
L 272.875182 77.751288 
L 276.324843 77.317396 
L 280.464437 77.230935 
L 281.188866 77.230935 
L 281.326852 77.447708 
L 282.98269 77.711056 
L 284.431548 77.818315 
L 284.569534 354.795665 
L 315.064542 354.687098 
L 315.202529 354.009073 
L 315.581991 353.661156 
L 316.20293 353.544963 
L 318.479707 353.456358 
L 323.516213 353.390306 
L 323.654199 353.707937 
L 324.068159 354.02687 
L 324.758091 354.141617 
L 327.690303 354.263973 
L 331.967884 354.358911 
L 332.071373 355.259662 
L 332.10587 355.256645 
L 334.313653 355.051903 
L 339.419152 355.035498 
L 341.316466 354.925327 
L 342.903311 354.801358 
L 347.767333 354.71109 
L 348.871225 354.71109 
L 349.009211 355.049454 
L 361.014034 355.115176 
L 365.774566 354.998108 
L 365.809063 359.184106 
L 365.878056 358.263558 
L 366.119533 354.971773 
L 366.292016 354.737175 
L 366.464499 354.88562 
L 366.878458 355.656052 
L 368.051343 358.465048 
L 372.501406 369.36 
L 374.226237 369.36 
L 374.364224 359.693005 
L 374.81268 358.548651 
L 375.261136 358.080321 
L 375.951068 357.706622 
L 377.227443 357.302693 
L 380.056165 356.686949 
L 381.43603 356.528294 
L 382.988377 356.428165 
L 383.747303 356.219418 
L 384.920188 356.165525 
L 391.129579 356.220596 
L 391.267565 354.417152 
L 392.33696 353.17539 
L 393.233872 352.55706 
L 394.337764 352.075002 
L 395.786622 351.69648 
L 397.787425 351.417767 
L 399.581249 351.417767 
L 399.719236 351.124695 
L 402.306482 350.983301 
L 407.446478 350.435041 
L 408.03292 350.435041 
L 408.170907 348.999116 
L 408.964329 348.747141 
L 410.723656 348.420373 
L 413.586875 348.137497 
L 416.139625 348.068476 
L 453.533956 348.048876 
L 453.568452 354.795609 
L 453.671942 354.794005 
L 460.950728 354.806451 
L 484.16695 354.786676 
L 484.304936 354.674701 
L 487.547618 354.615503 
L 526.56329 354.613225 
L 526.839263 354.83229 
L 527.494699 354.900102 
L 531.530803 354.925664 
L 535.049458 355.004498 
L 535.601403 355.51077 
L 536.463819 355.888716 
L 538.533616 356.504944 
L 541.534821 357.178272 
L 543.328645 357.178272 
L 543.363142 357.450984 
L 543.466632 357.39332 
L 544.053074 357.038496 
L 544.915489 356.883914 
L 547.123273 356.774144 
L 554.712528 356.694894 
L 560.231987 356.788125 
L 560.369973 356.474281 
L 562.1293 356.201098 
L 564.820036 356.05993 
L 569.822046 355.824551 
L 572.788755 355.550017 
L 576.548886 355.398487 
L 577.135328 355.398487 
L 577.273315 355.06644 
L 579.205125 354.866984 
L 582.896263 354.747176 
L 590.830484 354.743967 
L 622.636364 354.763239 
L 622.636364 354.763239 
" clip-path="url(#pf50d9097d1)" style="fill: none; stroke: #ff0000; stroke-width: 1.5; stroke-linecap: square"/>
   </g>
   <g id="line2d_32">
    <path d="M 115.363636 354.795664 
L 125.057185 354.684476 
L 129.024296 354.575023 
L 129.334766 354.492808 
L 133.232883 354.435414 
L 135.061204 354.018548 
L 142.02952 352.189596 
L 144.47878 351.865124 
L 145.962134 351.865124 
L 145.996631 353.421412 
L 146.100121 353.087947 
L 146.445087 351.922632 
L 146.790053 351.561593 
L 147.341999 351.345859 
L 148.44589 351.203104 
L 150.99864 351.143624 
L 154.413805 351.153302 
L 154.448301 350.989004 
L 154.517295 351.135175 
L 154.931254 352.295198 
L 155.310717 352.601521 
L 156.035146 352.850285 
L 157.62199 353.11189 
L 160.381719 353.336668 
L 162.968965 353.363275 
L 163.727891 353.137775 
L 165.694198 353.068834 
L 171.248153 353.088144 
L 171.317146 353.088144 
L 171.455133 352.616535 
L 175.180767 352.750497 
L 179.768817 352.777139 
L 179.906803 352.677562 
L 181.148682 352.560216 
L 185.046799 352.247919 
L 187.358072 352.044879 
L 188.220488 352.044879 
L 188.254984 351.102895 
L 188.323978 351.415293 
L 188.496461 351.584327 
L 189.358876 351.640664 
L 196.672159 351.844565 
L 196.741152 66.96 
L 196.810145 68.465816 
L 197.155111 82.929823 
L 197.638064 91.333456 
L 199.052425 110.686647 
L 201.501685 141.595023 
L 203.157522 159.817758 
L 203.433495 161.536508 
L 205.123829 161.536508 
L 205.261816 123.412425 
L 205.675775 117.661304 
L 206.020741 115.795526 
L 206.434701 114.701136 
L 206.917653 114.039101 
L 207.504096 113.621611 
L 208.263021 113.369314 
L 209.332416 113.267199 
L 213.5755 113.235287 
L 213.713486 112.48529 
L 214.058453 112.253747 
L 215.265834 111.970817 
L 216.335229 111.24263 
L 218.26704 109.968537 
L 219.853884 109.202676 
L 220.50932 109.052479 
L 222.027171 109.052479 
L 222.165157 104.656435 
L 222.786096 103.669255 
L 223.372539 103.200586 
L 224.096968 102.919572 
L 225.131866 102.778493 
L 227.270656 102.770896 
L 230.478841 102.782887 
L 230.616828 100.055841 
L 231.444747 97.096708 
L 231.962196 96.203545 
L 232.548638 95.626297 
L 233.238571 95.270783 
L 234.135483 95.078878 
L 235.653334 95.021745 
L 238.930512 95.010362 
L 239.068499 94.46184 
L 246.174801 92.323906 
L 247.382183 92.323906 
L 247.520169 92.182993 
L 249.693456 92.49983 
L 251.107817 92.913615 
L 252.487682 93.558748 
L 254.453989 94.542243 
L 255.833854 94.542243 
L 255.97184 95.260722 
L 256.765262 96.003623 
L 257.351705 96.18821 
L 258.076134 96.158125 
L 261.801768 95.6482 
L 264.285524 95.614455 
L 264.423511 95.146338 
L 265.492906 94.75758 
L 266.596798 94.65512 
L 267.907669 94.758068 
L 269.356527 95.102375 
L 271.633303 95.703966 
L 272.737195 95.703966 
L 272.875182 101.293066 
L 273.358134 102.02403 
L 274.01357 102.604467 
L 274.875985 103.056372 
L 276.014374 103.39124 
L 277.463231 103.577547 
L 279.326049 103.581451 
L 281.188866 103.578138 
L 281.257859 104.716347 
L 281.326852 104.698102 
L 281.878798 104.293855 
L 283.362153 102.975328 
L 284.431548 101.818393 
L 284.569534 354.795665 
L 315.064542 354.692484 
L 315.340515 354.414601 
L 315.754474 354.277775 
L 317.030849 354.210207 
L 323.516213 354.160262 
L 323.654199 354.278606 
L 325.758493 354.420985 
L 331.967884 354.485991 
L 332.10587 355.165341 
L 339.867608 355.062819 
L 340.419554 355.062819 
L 340.523044 355.199272 
L 340.557541 355.190594 
L 342.247875 354.752482 
L 344.593645 354.554959 
L 348.491762 354.445263 
L 348.871225 354.445263 
L 349.009211 354.81665 
L 362.186918 354.942758 
L 363.946246 355.316352 
L 364.394702 355.325879 
L 365.774566 355.325879 
L 365.94705 336.738752 
L 366.188526 319.784312 
L 366.498995 313.160171 
L 367.085438 306.11641 
L 368.430806 293.339633 
L 371.535501 266.157455 
L 372.501406 258.82314 
L 374.226237 258.82314 
L 374.364224 288.465221 
L 374.778183 292.251362 
L 375.157646 293.621163 
L 375.606102 294.401902 
L 376.158048 294.904505 
L 376.916973 295.272979 
L 378.193348 295.605688 
L 381.470526 296.171566 
L 382.781398 296.276793 
L 384.023276 297.292088 
L 384.747705 297.360785 
L 386.093073 297.209022 
L 387.783407 297.082892 
L 388.990789 297.219484 
L 389.887701 297.30053 
L 391.129579 297.30053 
L 391.267565 302.701878 
L 392.198974 305.748818 
L 392.888906 307.130535 
L 393.647832 308.160471 
L 394.510247 308.952703 
L 395.510649 309.565323 
L 396.752527 310.057316 
L 397.994405 310.334654 
L 399.581249 310.334654 
L 399.719236 312.731994 
L 400.409168 313.683526 
L 401.40957 314.635748 
L 402.927421 315.751933 
L 404.893728 316.922687 
L 406.377083 317.592575 
L 408.03292 317.592575 
L 408.170907 322.153571 
L 408.584866 322.530612 
L 409.447281 323.006269 
L 410.620166 323.383202 
L 412.3105 323.671838 
L 414.828753 323.857337 
L 453.533956 323.960509 
L 453.568452 354.7956 
L 453.671942 354.793413 
L 459.156904 354.78064 
L 484.16695 354.758473 
L 484.304936 354.65061 
L 487.444128 354.592746 
L 526.528794 354.572111 
L 526.839263 354.923731 
L 527.391209 355.006308 
L 530.081945 355.037438 
L 534.876974 355.041379 
L 535.014961 354.718273 
L 535.463417 354.287904 
L 537.119254 352.837097 
L 539.534017 350.988849 
L 541.534821 349.720941 
L 543.328645 349.720941 
L 543.363142 347.431261 
L 543.466632 347.517999 
L 544.018577 348.182657 
L 544.60502 348.43182 
L 545.674415 348.605647 
L 548.054681 348.723601 
L 556.333869 348.815156 
L 559.749034 348.671356 
L 560.231987 348.671356 
L 560.369973 349.512697 
L 561.542858 350.139591 
L 562.75024 350.4812 
L 564.440574 350.711952 
L 567.13131 350.833092 
L 568.683657 350.833092 
L 568.821644 351.005837 
L 571.270904 352.031453 
L 573.54768 352.571535 
L 575.68647 352.887728 
L 577.135328 352.887728 
L 577.273315 353.713517 
L 578.480696 354.212613 
L 579.895057 354.522496 
L 581.999351 354.737857 
L 585.035053 354.817017 
L 622.636364 354.896487 
L 622.636364 354.896487 
" clip-path="url(#pf50d9097d1)" style="fill: none; stroke-dasharray: 5.55,2.4; stroke-dashoffset: 0; stroke: #0000ff; stroke-width: 1.5"/>
   </g>
   <g id="patch_3">
    <path d="M 90 384.48 
L 90 51.84 
" style="fill: none; stroke: #000000; stroke-width: 0.8; stroke-linejoin: miter; stroke-linecap: square"/>
   </g>
   <g id="patch_4">
    <path d="M 648 384.48 
L 648 51.84 
" style="fill: none; stroke: #000000; stroke-width: 0.8; stroke-linejoin: miter; stroke-linecap: square"/>
   </g>
   <g id="patch_5">
    <path d="M 90 384.48 
L 648 384.48 
" style="fill: none; stroke: #000000; stroke-width: 0.8; stroke-linejoin: miter; stroke-linecap: square"/>
   </g>
   <g id="patch_6">
    <path d="M 90 51.84 
L 648 51.84 
" style="fill: none; stroke: #000000; stroke-width: 0.8; stroke-linejoin: miter; stroke-linecap: square"/>
   </g>
   <g id="text_18">
    <!-- State Value Convergence for dKg_yx (Index 13) -->
    <g transform="translate(226.894688 45.84) scale(0.12 -0.12)">
     <defs>
      <path id="DejaVuSans-53" d="M 3425 4513 
L 3425 3897 
Q 3066 4069 2747 4153 
Q 2428 4238 2131 4238 
Q 1616 4238 1336 4038 
Q 1056 3838 1056 3469 
Q 1056 3159 1242 3001 
Q 1428 2844 1947 2747 
L 2328 2669 
Q 3034 2534 3370 2195 
Q 3706 1856 3706 1288 
Q 3706 609 3251 259 
Q 2797 -91 1919 -91 
Q 1588 -91 1214 -16 
Q 841 59 441 206 
L 441 856 
Q 825 641 1194 531 
Q 1563 422 1919 422 
Q 2459 422 2753 634 
Q 3047 847 3047 1241 
Q 3047 1584 2836 1778 
Q 2625 1972 2144 2069 
L 1759 2144 
Q 1053 2284 737 2584 
Q 422 2884 422 3419 
Q 422 4038 858 4394 
Q 1294 4750 2059 4750 
Q 2388 4750 2728 4690 
Q 3069 4631 3425 4513 
z
" transform="scale(0.015625)"/>
      <path id="DejaVuSans-43" d="M 4122 4306 
L 4122 3641 
Q 3803 3938 3442 4084 
Q 3081 4231 2675 4231 
Q 1875 4231 1450 3742 
Q 1025 3253 1025 2328 
Q 1025 1406 1450 917 
Q 1875 428 2675 428 
Q 3081 428 3442 575 
Q 3803 722 4122 1019 
L 4122 359 
Q 3791 134 3420 21 
Q 3050 -91 2638 -91 
Q 1578 -91 968 557 
Q 359 1206 359 2328 
Q 359 3453 968 4101 
Q 1578 4750 2638 4750 
Q 3056 4750 3426 4639 
Q 3797 4528 4122 4306 
z
" transform="scale(0.015625)"/>
      <path id="DejaVuSans-6f" d="M 1959 3097 
Q 1497 3097 1228 2736 
Q 959 2375 959 1747 
Q 959 1119 1226 758 
Q 1494 397 1959 397 
Q 2419 397 2687 759 
Q 2956 1122 2956 1747 
Q 2956 2369 2687 2733 
Q 2419 3097 1959 3097 
z
M 1959 3584 
Q 2709 3584 3137 3096 
Q 3566 2609 3566 1747 
Q 3566 888 3137 398 
Q 2709 -91 1959 -91 
Q 1206 -91 779 398 
Q 353 888 353 1747 
Q 353 2609 779 3096 
Q 1206 3584 1959 3584 
z
" transform="scale(0.015625)"/>
      <path id="DejaVuSans-67" d="M 2906 1791 
Q 2906 2416 2648 2759 
Q 2391 3103 1925 3103 
Q 1463 3103 1205 2759 
Q 947 2416 947 1791 
Q 947 1169 1205 825 
Q 1463 481 1925 481 
Q 2391 481 2648 825 
Q 2906 1169 2906 1791 
z
M 3481 434 
Q 3481 -459 3084 -895 
Q 2688 -1331 1869 -1331 
Q 1566 -1331 1297 -1286 
Q 1028 -1241 775 -1147 
L 775 -588 
Q 1028 -725 1275 -790 
Q 1522 -856 1778 -856 
Q 2344 -856 2625 -561 
Q 2906 -266 2906 331 
L 2906 616 
Q 2728 306 2450 153 
Q 2172 0 1784 0 
Q 1141 0 747 490 
Q 353 981 353 1791 
Q 353 2603 747 3093 
Q 1141 3584 1784 3584 
Q 2172 3584 2450 3431 
Q 2728 3278 2906 2969 
L 2906 3500 
L 3481 3500 
L 3481 434 
z
" transform="scale(0.015625)"/>
      <path id="DejaVuSans-63" d="M 3122 3366 
L 3122 2828 
Q 2878 2963 2633 3030 
Q 2388 3097 2138 3097 
Q 1578 3097 1268 2742 
Q 959 2388 959 1747 
Q 959 1106 1268 751 
Q 1578 397 2138 397 
Q 2388 397 2633 464 
Q 2878 531 3122 666 
L 3122 134 
Q 2881 22 2623 -34 
Q 2366 -91 2075 -91 
Q 1284 -91 818 406 
Q 353 903 353 1747 
Q 353 2603 823 3093 
Q 1294 3584 2113 3584 
Q 2378 3584 2631 3529 
Q 2884 3475 3122 3366 
z
" transform="scale(0.015625)"/>
      <path id="DejaVuSans-66" d="M 2375 4863 
L 2375 4384 
L 1825 4384 
Q 1516 4384 1395 4259 
Q 1275 4134 1275 3809 
L 1275 3500 
L 2222 3500 
L 2222 3053 
L 1275 3053 
L 1275 0 
L 697 0 
L 697 3053 
L 147 3053 
L 147 3500 
L 697 3500 
L 697 3744 
Q 697 4328 969 4595 
Q 1241 4863 1831 4863 
L 2375 4863 
z
" transform="scale(0.015625)"/>
      <path id="DejaVuSans-4b" d="M 628 4666 
L 1259 4666 
L 1259 2694 
L 3353 4666 
L 4166 4666 
L 1850 2491 
L 4331 0 
L 3500 0 
L 1259 2247 
L 1259 0 
L 628 0 
L 628 4666 
z
" transform="scale(0.015625)"/>
      <path id="DejaVuSans-5f" d="M 3263 -1063 
L 3263 -1509 
L -63 -1509 
L -63 -1063 
L 3263 -1063 
z
" transform="scale(0.015625)"/>
      <path id="DejaVuSans-79" d="M 2059 -325 
Q 1816 -950 1584 -1140 
Q 1353 -1331 966 -1331 
L 506 -1331 
L 506 -850 
L 844 -850 
Q 1081 -850 1212 -737 
Q 1344 -625 1503 -206 
L 1606 56 
L 191 3500 
L 800 3500 
L 1894 763 
L 2988 3500 
L 3597 3500 
L 2059 -325 
z
" transform="scale(0.015625)"/>
      <path id="DejaVuSans-78" d="M 3513 3500 
L 2247 1797 
L 3578 0 
L 2900 0 
L 1881 1375 
L 863 0 
L 184 0 
L 1544 1831 
L 300 3500 
L 978 3500 
L 1906 2253 
L 2834 3500 
L 3513 3500 
z
" transform="scale(0.015625)"/>
      <path id="DejaVuSans-49" d="M 628 4666 
L 1259 4666 
L 1259 0 
L 628 0 
L 628 4666 
z
" transform="scale(0.015625)"/>
     </defs>
     <use xlink:href="#DejaVuSans-53"/>
     <use xlink:href="#DejaVuSans-74" transform="translate(63.476562 0)"/>
     <use xlink:href="#DejaVuSans-61" transform="translate(102.685547 0)"/>
     <use xlink:href="#DejaVuSans-74" transform="translate(163.964844 0)"/>
     <use xlink:href="#DejaVuSans-65" transform="translate(203.173828 0)"/>
     <use xlink:href="#DejaVuSans-20" transform="translate(264.697266 0)"/>
     <use xlink:href="#DejaVuSans-56" transform="translate(296.484375 0)"/>
     <use xlink:href="#DejaVuSans-61" transform="translate(357.142578 0)"/>
     <use xlink:href="#DejaVuSans-6c" transform="translate(418.421875 0)"/>
     <use xlink:href="#DejaVuSans-75" transform="translate(446.205078 0)"/>
     <use xlink:href="#DejaVuSans-65" transform="translate(509.583984 0)"/>
     <use xlink:href="#DejaVuSans-20" transform="translate(571.107422 0)"/>
     <use xlink:href="#DejaVuSans-43" transform="translate(602.894531 0)"/>
     <use xlink:href="#DejaVuSans-6f" transform="translate(672.71875 0)"/>
     <use xlink:href="#DejaVuSans-6e" transform="translate(733.900391 0)"/>
     <use xlink:href="#DejaVuSans-76" transform="translate(797.279297 0)"/>
     <use xlink:href="#DejaVuSans-65" transform="translate(856.458984 0)"/>
     <use xlink:href="#DejaVuSans-72" transform="translate(917.982422 0)"/>
     <use xlink:href="#DejaVuSans-67" transform="translate(957.345703 0)"/>
     <use xlink:href="#DejaVuSans-65" transform="translate(1020.822266 0)"/>
     <use xlink:href="#DejaVuSans-6e" transform="translate(1082.345703 0)"/>
     <use xlink:href="#DejaVuSans-63" transform="translate(1145.724609 0)"/>
     <use xlink:href="#DejaVuSans-65" transform="translate(1200.705078 0)"/>
     <use xlink:href="#DejaVuSans-20" transform="translate(1262.228516 0)"/>
     <use xlink:href="#DejaVuSans-66" transform="translate(1294.015625 0)"/>
     <use xlink:href="#DejaVuSans-6f" transform="translate(1329.220703 0)"/>
     <use xlink:href="#DejaVuSans-72" transform="translate(1390.402344 0)"/>
     <use xlink:href="#DejaVuSans-20" transform="translate(1431.515625 0)"/>
     <use xlink:href="#DejaVuSans-64" transform="translate(1463.302734 0)"/>
     <use xlink:href="#DejaVuSans-4b" transform="translate(1526.779297 0)"/>
     <use xlink:href="#DejaVuSans-67" transform="translate(1592.355469 0)"/>
     <use xlink:href="#DejaVuSans-5f" transform="translate(1655.832031 0)"/>
     <use xlink:href="#DejaVuSans-79" transform="translate(1705.832031 0)"/>
     <use xlink:href="#DejaVuSans-78" transform="translate(1765.011719 0)"/>
     <use xlink:href="#DejaVuSans-20" transform="translate(1824.191406 0)"/>
     <use xlink:href="#DejaVuSans-28" transform="translate(1855.978516 0)"/>
     <use xlink:href="#DejaVuSans-49" transform="translate(1894.992188 0)"/>
     <use xlink:href="#DejaVuSans-6e" transform="translate(1924.484375 0)"/>
     <use xlink:href="#DejaVuSans-64" transform="translate(1987.863281 0)"/>
     <use xlink:href="#DejaVuSans-65" transform="translate(2051.339844 0)"/>
     <use xlink:href="#DejaVuSans-78" transform="translate(2111.113281 0)"/>
     <use xlink:href="#DejaVuSans-20" transform="translate(2170.292969 0)"/>
     <use xlink:href="#DejaVuSans-31" transform="translate(2202.080078 0)"/>
     <use xlink:href="#DejaVuSans-33" transform="translate(2265.703125 0)"/>
     <use xlink:href="#DejaVuSans-29" transform="translate(2329.326172 0)"/>
    </g>
   </g>
   <g id="legend_1">
    <g id="patch_7">
     <path d="M 521.465625 89.19625 
L 641 89.19625 
Q 643 89.19625 643 87.19625 
L 643 58.84 
Q 643 56.84 641 56.84 
L 521.465625 56.84 
Q 519.465625 56.84 519.465625 58.84 
L 519.465625 87.19625 
Q 519.465625 89.19625 521.465625 89.19625 
z
" style="fill: #ffffff; opacity: 0.8; stroke: #cccccc; stroke-linejoin: miter"/>
    </g>
    <g id="line2d_33">
     <path d="M 523.465625 64.938437 
L 533.465625 64.938437 
L 543.465625 64.938437 
" style="fill: none; stroke: #ff0000; stroke-width: 1.5; stroke-linecap: square"/>
    </g>
    <g id="text_19">
     <!-- Baseline KF State -->
     <g transform="translate(551.465625 68.438437) scale(0.1 -0.1)">
      <defs>
       <path id="DejaVuSans-42" d="M 1259 2228 
L 1259 519 
L 2272 519 
Q 2781 519 3026 730 
Q 3272 941 3272 1375 
Q 3272 1813 3026 2020 
Q 2781 2228 2272 2228 
L 1259 2228 
z
M 1259 4147 
L 1259 2741 
L 2194 2741 
Q 2656 2741 2882 2914 
Q 3109 3088 3109 3444 
Q 3109 3797 2882 3972 
Q 2656 4147 2194 4147 
L 1259 4147 
z
M 628 4666 
L 2241 4666 
Q 2963 4666 3353 4366 
Q 3744 4066 3744 3513 
Q 3744 3084 3544 2831 
Q 3344 2578 2956 2516 
Q 3422 2416 3680 2098 
Q 3938 1781 3938 1306 
Q 3938 681 3513 340 
Q 3088 0 2303 0 
L 628 0 
L 628 4666 
z
" transform="scale(0.015625)"/>
       <path id="DejaVuSans-46" d="M 628 4666 
L 3309 4666 
L 3309 4134 
L 1259 4134 
L 1259 2759 
L 3109 2759 
L 3109 2228 
L 1259 2228 
L 1259 0 
L 628 0 
L 628 4666 
z
" transform="scale(0.015625)"/>
      </defs>
      <use xlink:href="#DejaVuSans-42"/>
      <use xlink:href="#DejaVuSans-61" transform="translate(68.603516 0)"/>
      <use xlink:href="#DejaVuSans-73" transform="translate(129.882812 0)"/>
      <use xlink:href="#DejaVuSans-65" transform="translate(181.982422 0)"/>
      <use xlink:href="#DejaVuSans-6c" transform="translate(243.505859 0)"/>
      <use xlink:href="#DejaVuSans-69" transform="translate(271.289062 0)"/>
      <use xlink:href="#DejaVuSans-6e" transform="translate(299.072266 0)"/>
      <use xlink:href="#DejaVuSans-65" transform="translate(362.451172 0)"/>
      <use xlink:href="#DejaVuSans-20" transform="translate(423.974609 0)"/>
      <use xlink:href="#DejaVuSans-4b" transform="translate(455.761719 0)"/>
      <use xlink:href="#DejaVuSans-46" transform="translate(521.337891 0)"/>
      <use xlink:href="#DejaVuSans-20" transform="translate(578.857422 0)"/>
      <use xlink:href="#DejaVuSans-53" transform="translate(610.644531 0)"/>
      <use xlink:href="#DejaVuSans-74" transform="translate(674.121094 0)"/>
      <use xlink:href="#DejaVuSans-61" transform="translate(713.330078 0)"/>
      <use xlink:href="#DejaVuSans-74" transform="translate(774.609375 0)"/>
      <use xlink:href="#DejaVuSans-65" transform="translate(813.818359 0)"/>
     </g>
    </g>
    <g id="line2d_34">
     <path d="M 523.465625 79.616562 
L 533.465625 79.616562 
L 543.465625 79.616562 
" style="fill: none; stroke-dasharray: 5.55,2.4; stroke-dashoffset: 0; stroke: #0000ff; stroke-width: 1.5"/>
    </g>
    <g id="text_20">
     <!-- Shadow KF State -->
     <g transform="translate(551.465625 83.116562) scale(0.1 -0.1)">
      <defs>
       <path id="DejaVuSans-68" d="M 3513 2113 
L 3513 0 
L 2938 0 
L 2938 2094 
Q 2938 2591 2744 2837 
Q 2550 3084 2163 3084 
Q 1697 3084 1428 2787 
Q 1159 2491 1159 1978 
L 1159 0 
L 581 0 
L 581 4863 
L 1159 4863 
L 1159 2956 
Q 1366 3272 1645 3428 
Q 1925 3584 2291 3584 
Q 2894 3584 3203 3211 
Q 3513 2838 3513 2113 
z
" transform="scale(0.015625)"/>
       <path id="DejaVuSans-77" d="M 269 3500 
L 844 3500 
L 1563 769 
L 2278 3500 
L 2956 3500 
L 3675 769 
L 4391 3500 
L 4966 3500 
L 4050 0 
L 3372 0 
L 2619 2869 
L 1863 0 
L 1184 0 
L 269 3500 
z
" transform="scale(0.015625)"/>
      </defs>
      <use xlink:href="#DejaVuSans-53"/>
      <use xlink:href="#DejaVuSans-68" transform="translate(63.476562 0)"/>
      <use xlink:href="#DejaVuSans-61" transform="translate(126.855469 0)"/>
      <use xlink:href="#DejaVuSans-64" transform="translate(188.134766 0)"/>
      <use xlink:href="#DejaVuSans-6f" transform="translate(251.611328 0)"/>
      <use xlink:href="#DejaVuSans-77" transform="translate(312.792969 0)"/>
      <use xlink:href="#DejaVuSans-20" transform="translate(394.580078 0)"/>
      <use xlink:href="#DejaVuSans-4b" transform="translate(426.367188 0)"/>
      <use xlink:href="#DejaVuSans-46" transform="translate(491.943359 0)"/>
      <use xlink:href="#DejaVuSans-20" transform="translate(549.462891 0)"/>
      <use xlink:href="#DejaVuSans-53" transform="translate(581.25 0)"/>
      <use xlink:href="#DejaVuSans-74" transform="translate(644.726562 0)"/>
      <use xlink:href="#DejaVuSans-61" transform="translate(683.935547 0)"/>
      <use xlink:href="#DejaVuSans-74" transform="translate(745.214844 0)"/>
      <use xlink:href="#DejaVuSans-65" transform="translate(784.423828 0)"/>
     </g>
    </g>
   </g>
  </g>
 </g>
 <defs>
  <clipPath id="pf50d9097d1">
   <rect x="90" y="51.84" width="558" height="332.64"/>
  </clipPath>
 </defs>
</svg>
