<?xml version="1.0" encoding="utf-8" standalone="no"?>
<!DOCTYPE svg PUBLIC "-//W3C//DTD SVG 1.1//EN"
  "http://www.w3.org/Graphics/SVG/1.1/DTD/svg11.dtd">
<svg xmlns:xlink="http://www.w3.org/1999/xlink" width="720pt" height="432pt" viewBox="0 0 720 432" xmlns="http://www.w3.org/2000/svg" version="1.1">
 <metadata>
  <rdf:RDF xmlns:dc="http://purl.org/dc/elements/1.1/" xmlns:cc="http://creativecommons.org/ns#" xmlns:rdf="http://www.w3.org/1999/02/22-rdf-syntax-ns#">
   <cc:Work>
    <dc:type rdf:resource="http://purl.org/dc/dcmitype/StillImage"/>
    <dc:date>2026-03-25T09:55:30.208125</dc:date>
    <dc:format>image/svg+xml</dc:format>
    <dc:creator>
     <cc:Agent>
      <dc:title>Matplotlib v3.10.8, https://matplotlib.org/</dc:title>
     </cc:Agent>
    </dc:creator>
   </cc:Work>
  </rdf:RDF>
 </metadata>
 <defs>
  <style type="text/css">*{stroke-linejoin: round; stroke-linecap: butt}</style>
 </defs>
 <g id="figure_1">
  <g id="patch_1">
   <path d="M 0 432 
L 720 432 
L 720 0 
L 0 0 
z
" style="fill: #ffffff"/>
  </g>
  <g id="axes_1">
   <g id="patch_2">
    <path d="M 90 384.48 
L 648 384.48 
L 648 51.84 
L 90 51.84 
z
" style="fill: #ffffff"/>
   </g>
   <g id="matplotlib.axis_1">
    <g id="xtick_1">
     <g id="line2d_1">
      <path d="M 115.363636 384.48 
L 115.363636 51.84 
" clip-path="url(#pc9aceede18)" style="fill: none; stroke: #b0b0b0; stroke-width: 0.8; stroke-linecap: square"/>
     </g>
     <g id="line2d_2">
      <defs>
       <path id="m719eb53495" d="M 0 0 
L 0 3.5 
" style="stroke: #000000; stroke-width: 0.8"/>
      </defs>
      <g>
       <use xlink:href="#m719eb53495" x="115.363636" y="384.48" style="stroke: #000000; stroke-width: 0.8"/>
      </g>
     </g>
     <g id="text_1">
      <!-- 0 -->
      <g transform="translate(112.182386 399.078438) scale(0.1 -0.1)">
       <defs>
        <path id="DejaVuSans-30" d="M 2034 4250 
Q 1547 4250 1301 3770 
Q 1056 3291 1056 2328 
Q 1056 1369 1301 889 
Q 1547 409 2034 409 
Q 2525 409 2770 889 
Q 3016 1369 3016 2328 
Q 3016 3291 2770 3770 
Q 2525 4250 2034 4250 
z
M 2034 4750 
Q 2819 4750 3233 4129 
Q 3647 3509 3647 2328 
Q 3647 1150 3233 529 
Q 2819 -91 2034 -91 
Q 1250 -91 836 529 
Q 422 1150 422 2328 
Q 422 3509 836 4129 
Q 1250 4750 2034 4750 
z
" transform="scale(0.015625)"/>
       </defs>
       <use xlink:href="#DejaVuSans-30"/>
      </g>
     </g>
    </g>
    <g id="xtick_2">
     <g id="line2d_3">
      <path d="M 201.605174 384.48 
L 201.605174 51.84 
" clip-path="url(#pc9aceede18)" style="fill: none; stroke: #b0b0b0; stroke-width: 0.8; stroke-linecap: square"/>
     </g>
     <g id="line2d_4">
      <g>
       <use xlink:href="#m719eb53495" x="201.605174" y="384.48" style="stroke: #000000; stroke-width: 0.8"/>
      </g>
     </g>
     <g id="text_2">
      <!-- 50 -->
      <g transform="translate(195.242674 399.078438) scale(0.1 -0.1)">
       <defs>
        <path id="DejaVuSans-35" d="M 691 4666 
L 3169 4666 
L 3169 4134 
L 1269 4134 
L 1269 2991 
Q 1406 3038 1543 3061 
Q 1681 3084 1819 3084 
Q 2600 3084 3056 2656 
Q 3513 2228 3513 1497 
Q 3513 744 3044 326 
Q 2575 -91 1722 -91 
Q 1428 -91 1123 -41 
Q 819 9 494 109 
L 494 744 
Q 775 591 1075 516 
Q 1375 441 1709 441 
Q 2250 441 2565 725 
Q 2881 1009 2881 1497 
Q 2881 1984 2565 2268 
Q 2250 2553 1709 2553 
Q 1456 2553 1204 2497 
Q 953 2441 691 2322 
L 691 4666 
z
" transform="scale(0.015625)"/>
       </defs>
       <use xlink:href="#DejaVuSans-35"/>
       <use xlink:href="#DejaVuSans-30" transform="translate(63.623047 0)"/>
      </g>
     </g>
    </g>
    <g id="xtick_3">
     <g id="line2d_5">
      <path d="M 287.846713 384.48 
L 287.846713 51.84 
" clip-path="url(#pc9aceede18)" style="fill: none; stroke: #b0b0b0; stroke-width: 0.8; stroke-linecap: square"/>
     </g>
     <g id="line2d_6">
      <g>
       <use xlink:href="#m719eb53495" x="287.846713" y="384.48" style="stroke: #000000; stroke-width: 0.8"/>
      </g>
     </g>
     <g id="text_3">
      <!-- 100 -->
      <g transform="translate(278.302963 399.078438) scale(0.1 -0.1)">
       <defs>
        <path id="DejaVuSans-31" d="M 794 531 
L 1825 531 
L 1825 4091 
L 703 3866 
L 703 4441 
L 1819 4666 
L 2450 4666 
L 2450 531 
L 3481 531 
L 3481 0 
L 794 0 
L 794 531 
z
" transform="scale(0.015625)"/>
       </defs>
       <use xlink:href="#DejaVuSans-31"/>
       <use xlink:href="#DejaVuSans-30" transform="translate(63.623047 0)"/>
       <use xlink:href="#DejaVuSans-30" transform="translate(127.246094 0)"/>
      </g>
     </g>
    </g>
    <g id="xtick_4">
     <g id="line2d_7">
      <path d="M 374.088251 384.48 
L 374.088251 51.84 
" clip-path="url(#pc9aceede18)" style="fill: none; stroke: #b0b0b0; stroke-width: 0.8; stroke-linecap: square"/>
     </g>
     <g id="line2d_8">
      <g>
       <use xlink:href="#m719eb53495" x="374.088251" y="384.48" style="stroke: #000000; stroke-width: 0.8"/>
      </g>
     </g>
     <g id="text_4">
      <!-- 150 -->
      <g transform="translate(364.544501 399.078438) scale(0.1 -0.1)">
       <use xlink:href="#DejaVuSans-31"/>
       <use xlink:href="#DejaVuSans-35" transform="translate(63.623047 0)"/>
       <use xlink:href="#DejaVuSans-30" transform="translate(127.246094 0)"/>
      </g>
     </g>
    </g>
    <g id="xtick_5">
     <g id="line2d_9">
      <path d="M 460.329789 384.48 
L 460.329789 51.84 
" clip-path="url(#pc9aceede18)" style="fill: none; stroke: #b0b0b0; stroke-width: 0.8; stroke-linecap: square"/>
     </g>
     <g id="line2d_10">
      <g>
       <use xlink:href="#m719eb53495" x="460.329789" y="384.48" style="stroke: #000000; stroke-width: 0.8"/>
      </g>
     </g>
     <g id="text_5">
      <!-- 200 -->
      <g transform="translate(450.786039 399.078438) scale(0.1 -0.1)">
       <defs>
        <path id="DejaVuSans-32" d="M 1228 531 
L 3431 531 
L 3431 0 
L 469 0 
L 469 531 
Q 828 903 1448 1529 
Q 2069 2156 2228 2338 
Q 2531 2678 2651 2914 
Q 2772 3150 2772 3378 
Q 2772 3750 2511 3984 
Q 2250 4219 1831 4219 
Q 1534 4219 1204 4116 
Q 875 4013 500 3803 
L 500 4441 
Q 881 4594 1212 4672 
Q 1544 4750 1819 4750 
Q 2544 4750 2975 4387 
Q 3406 4025 3406 3419 
Q 3406 3131 3298 2873 
Q 3191 2616 2906 2266 
Q 2828 2175 2409 1742 
Q 1991 1309 1228 531 
z
" transform="scale(0.015625)"/>
       </defs>
       <use xlink:href="#DejaVuSans-32"/>
       <use xlink:href="#DejaVuSans-30" transform="translate(63.623047 0)"/>
       <use xlink:href="#DejaVuSans-30" transform="translate(127.246094 0)"/>
      </g>
     </g>
    </g>
    <g id="xtick_6">
     <g id="line2d_11">
      <path d="M 546.571327 384.48 
L 546.571327 51.84 
" clip-path="url(#pc9aceede18)" style="fill: none; stroke: #b0b0b0; stroke-width: 0.8; stroke-linecap: square"/>
     </g>
     <g id="line2d_12">
      <g>
       <use xlink:href="#m719eb53495" x="546.571327" y="384.48" style="stroke: #000000; stroke-width: 0.8"/>
      </g>
     </g>
     <g id="text_6">
      <!-- 250 -->
      <g transform="translate(537.027577 399.078438) scale(0.1 -0.1)">
       <use xlink:href="#DejaVuSans-32"/>
       <use xlink:href="#DejaVuSans-35" transform="translate(63.623047 0)"/>
       <use xlink:href="#DejaVuSans-30" transform="translate(127.246094 0)"/>
      </g>
     </g>
    </g>
    <g id="xtick_7">
     <g id="line2d_13">
      <path d="M 632.812865 384.48 
L 632.812865 51.84 
" clip-path="url(#pc9aceede18)" style="fill: none; stroke: #b0b0b0; stroke-width: 0.8; stroke-linecap: square"/>
     </g>
     <g id="line2d_14">
      <g>
       <use xlink:href="#m719eb53495" x="632.812865" y="384.48" style="stroke: #000000; stroke-width: 0.8"/>
      </g>
     </g>
     <g id="text_7">
      <!-- 300 -->
      <g transform="translate(623.269115 399.078438) scale(0.1 -0.1)">
       <defs>
        <path id="DejaVuSans-33" d="M 2597 2516 
Q 3050 2419 3304 2112 
Q 3559 1806 3559 1356 
Q 3559 666 3084 287 
Q 2609 -91 1734 -91 
Q 1441 -91 1130 -33 
Q 819 25 488 141 
L 488 750 
Q 750 597 1062 519 
Q 1375 441 1716 441 
Q 2309 441 2620 675 
Q 2931 909 2931 1356 
Q 2931 1769 2642 2001 
Q 2353 2234 1838 2234 
L 1294 2234 
L 1294 2753 
L 1863 2753 
Q 2328 2753 2575 2939 
Q 2822 3125 2822 3475 
Q 2822 3834 2567 4026 
Q 2313 4219 1838 4219 
Q 1578 4219 1281 4162 
Q 984 4106 628 3988 
L 628 4550 
Q 988 4650 1302 4700 
Q 1616 4750 1894 4750 
Q 2613 4750 3031 4423 
Q 3450 4097 3450 3541 
Q 3450 3153 3228 2886 
Q 3006 2619 2597 2516 
z
" transform="scale(0.015625)"/>
       </defs>
       <use xlink:href="#DejaVuSans-33"/>
       <use xlink:href="#DejaVuSans-30" transform="translate(63.623047 0)"/>
       <use xlink:href="#DejaVuSans-30" transform="translate(127.246094 0)"/>
      </g>
     </g>
    </g>
    <g id="text_8">
     <!-- Maneuver Time (s) -->
     <g transform="translate(322.198438 412.756563) scale(0.1 -0.1)">
      <defs>
       <path id="DejaVuSans-4d" d="M 628 4666 
L 1569 4666 
L 2759 1491 
L 3956 4666 
L 4897 4666 
L 4897 0 
L 4281 0 
L 4281 4097 
L 3078 897 
L 2444 897 
L 1241 4097 
L 1241 0 
L 628 0 
L 628 4666 
z
" transform="scale(0.015625)"/>
       <path id="DejaVuSans-61" d="M 2194 1759 
Q 1497 1759 1228 1600 
Q 959 1441 959 1056 
Q 959 750 1161 570 
Q 1363 391 1709 391 
Q 2188 391 2477 730 
Q 2766 1069 2766 1631 
L 2766 1759 
L 2194 1759 
z
M 3341 1997 
L 3341 0 
L 2766 0 
L 2766 531 
Q 2569 213 2275 61 
Q 1981 -91 1556 -91 
Q 1019 -91 701 211 
Q 384 513 384 1019 
Q 384 1609 779 1909 
Q 1175 2209 1959 2209 
L 2766 2209 
L 2766 2266 
Q 2766 2663 2505 2880 
Q 2244 3097 1772 3097 
Q 1472 3097 1187 3025 
Q 903 2953 641 2809 
L 641 3341 
Q 956 3463 1253 3523 
Q 1550 3584 1831 3584 
Q 2591 3584 2966 3190 
Q 3341 2797 3341 1997 
z
" transform="scale(0.015625)"/>
       <path id="DejaVuSans-6e" d="M 3513 2113 
L 3513 0 
L 2938 0 
L 2938 2094 
Q 2938 2591 2744 2837 
Q 2550 3084 2163 3084 
Q 1697 3084 1428 2787 
Q 1159 2491 1159 1978 
L 1159 0 
L 581 0 
L 581 3500 
L 1159 3500 
L 1159 2956 
Q 1366 3272 1645 3428 
Q 1925 3584 2291 3584 
Q 2894 3584 3203 3211 
Q 3513 2838 3513 2113 
z
" transform="scale(0.015625)"/>
       <path id="DejaVuSans-65" d="M 3597 1894 
L 3597 1613 
L 953 1613 
Q 991 1019 1311 708 
Q 1631 397 2203 397 
Q 2534 397 2845 478 
Q 3156 559 3463 722 
L 3463 178 
Q 3153 47 2828 -22 
Q 2503 -91 2169 -91 
Q 1331 -91 842 396 
Q 353 884 353 1716 
Q 353 2575 817 3079 
Q 1281 3584 2069 3584 
Q 2775 3584 3186 3129 
Q 3597 2675 3597 1894 
z
M 3022 2063 
Q 3016 2534 2758 2815 
Q 2500 3097 2075 3097 
Q 1594 3097 1305 2825 
Q 1016 2553 972 2059 
L 3022 2063 
z
" transform="scale(0.015625)"/>
       <path id="DejaVuSans-75" d="M 544 1381 
L 544 3500 
L 1119 3500 
L 1119 1403 
Q 1119 906 1312 657 
Q 1506 409 1894 409 
Q 2359 409 2629 706 
Q 2900 1003 2900 1516 
L 2900 3500 
L 3475 3500 
L 3475 0 
L 2900 0 
L 2900 538 
Q 2691 219 2414 64 
Q 2138 -91 1772 -91 
Q 1169 -91 856 284 
Q 544 659 544 1381 
z
M 1991 3584 
L 1991 3584 
z
" transform="scale(0.015625)"/>
       <path id="DejaVuSans-76" d="M 191 3500 
L 800 3500 
L 1894 563 
L 2988 3500 
L 3597 3500 
L 2284 0 
L 1503 0 
L 191 3500 
z
" transform="scale(0.015625)"/>
       <path id="DejaVuSans-72" d="M 2631 2963 
Q 2534 3019 2420 3045 
Q 2306 3072 2169 3072 
Q 1681 3072 1420 2755 
Q 1159 2438 1159 1844 
L 1159 0 
L 581 0 
L 581 3500 
L 1159 3500 
L 1159 2956 
Q 1341 3275 1631 3429 
Q 1922 3584 2338 3584 
Q 2397 3584 2469 3576 
Q 2541 3569 2628 3553 
L 2631 2963 
z
" transform="scale(0.015625)"/>
       <path id="DejaVuSans-20" transform="scale(0.015625)"/>
       <path id="DejaVuSans-54" d="M -19 4666 
L 3928 4666 
L 3928 4134 
L 2272 4134 
L 2272 0 
L 1638 0 
L 1638 4134 
L -19 4134 
L -19 4666 
z
" transform="scale(0.015625)"/>
       <path id="DejaVuSans-69" d="M 603 3500 
L 1178 3500 
L 1178 0 
L 603 0 
L 603 3500 
z
M 603 4863 
L 1178 4863 
L 1178 4134 
L 603 4134 
L 603 4863 
z
" transform="scale(0.015625)"/>
       <path id="DejaVuSans-6d" d="M 3328 2828 
Q 3544 3216 3844 3400 
Q 4144 3584 4550 3584 
Q 5097 3584 5394 3201 
Q 5691 2819 5691 2113 
L 5691 0 
L 5113 0 
L 5113 2094 
Q 5113 2597 4934 2840 
Q 4756 3084 4391 3084 
Q 3944 3084 3684 2787 
Q 3425 2491 3425 1978 
L 3425 0 
L 2847 0 
L 2847 2094 
Q 2847 2600 2669 2842 
Q 2491 3084 2119 3084 
Q 1678 3084 1418 2786 
Q 1159 2488 1159 1978 
L 1159 0 
L 581 0 
L 581 3500 
L 1159 3500 
L 1159 2956 
Q 1356 3278 1631 3431 
Q 1906 3584 2284 3584 
Q 2666 3584 2933 3390 
Q 3200 3197 3328 2828 
z
" transform="scale(0.015625)"/>
       <path id="DejaVuSans-28" d="M 1984 4856 
Q 1566 4138 1362 3434 
Q 1159 2731 1159 2009 
Q 1159 1288 1364 580 
Q 1569 -128 1984 -844 
L 1484 -844 
Q 1016 -109 783 600 
Q 550 1309 550 2009 
Q 550 2706 781 3412 
Q 1013 4119 1484 4856 
L 1984 4856 
z
" transform="scale(0.015625)"/>
       <path id="DejaVuSans-73" d="M 2834 3397 
L 2834 2853 
Q 2591 2978 2328 3040 
Q 2066 3103 1784 3103 
Q 1356 3103 1142 2972 
Q 928 2841 928 2578 
Q 928 2378 1081 2264 
Q 1234 2150 1697 2047 
L 1894 2003 
Q 2506 1872 2764 1633 
Q 3022 1394 3022 966 
Q 3022 478 2636 193 
Q 2250 -91 1575 -91 
Q 1294 -91 989 -36 
Q 684 19 347 128 
L 347 722 
Q 666 556 975 473 
Q 1284 391 1588 391 
Q 1994 391 2212 530 
Q 2431 669 2431 922 
Q 2431 1156 2273 1281 
Q 2116 1406 1581 1522 
L 1381 1569 
Q 847 1681 609 1914 
Q 372 2147 372 2553 
Q 372 3047 722 3315 
Q 1072 3584 1716 3584 
Q 2034 3584 2315 3537 
Q 2597 3491 2834 3397 
z
" transform="scale(0.015625)"/>
       <path id="DejaVuSans-29" d="M 513 4856 
L 1013 4856 
Q 1481 4119 1714 3412 
Q 1947 2706 1947 2009 
Q 1947 1309 1714 600 
Q 1481 -109 1013 -844 
L 513 -844 
Q 928 -128 1133 580 
Q 1338 1288 1338 2009 
Q 1338 2731 1133 3434 
Q 928 4138 513 4856 
z
" transform="scale(0.015625)"/>
      </defs>
      <use xlink:href="#DejaVuSans-4d"/>
      <use xlink:href="#DejaVuSans-61" transform="translate(86.279297 0)"/>
      <use xlink:href="#DejaVuSans-6e" transform="translate(147.558594 0)"/>
      <use xlink:href="#DejaVuSans-65" transform="translate(210.9375 0)"/>
      <use xlink:href="#DejaVuSans-75" transform="translate(272.460938 0)"/>
      <use xlink:href="#DejaVuSans-76" transform="translate(335.839844 0)"/>
      <use xlink:href="#DejaVuSans-65" transform="translate(395.019531 0)"/>
      <use xlink:href="#DejaVuSans-72" transform="translate(456.542969 0)"/>
      <use xlink:href="#DejaVuSans-20" transform="translate(497.65625 0)"/>
      <use xlink:href="#DejaVuSans-54" transform="translate(529.443359 0)"/>
      <use xlink:href="#DejaVuSans-69" transform="translate(587.402344 0)"/>
      <use xlink:href="#DejaVuSans-6d" transform="translate(615.185547 0)"/>
      <use xlink:href="#DejaVuSans-65" transform="translate(712.597656 0)"/>
      <use xlink:href="#DejaVuSans-20" transform="translate(774.121094 0)"/>
      <use xlink:href="#DejaVuSans-28" transform="translate(805.908203 0)"/>
      <use xlink:href="#DejaVuSans-73" transform="translate(844.921875 0)"/>
      <use xlink:href="#DejaVuSans-29" transform="translate(897.021484 0)"/>
     </g>
    </g>
   </g>
   <g id="matplotlib.axis_2">
    <g id="ytick_1">
     <g id="line2d_15">
      <path d="M 90 365.076773 
L 648 365.076773 
" clip-path="url(#pc9aceede18)" style="fill: none; stroke: #b0b0b0; stroke-width: 0.8; stroke-linecap: square"/>
     </g>
     <g id="line2d_16">
      <defs>
       <path id="mb02336905f" d="M 0 0 
L -3.5 0 
" style="stroke: #000000; stroke-width: 0.8"/>
      </defs>
      <g>
       <use xlink:href="#mb02336905f" x="90" y="365.076773" style="stroke: #000000; stroke-width: 0.8"/>
      </g>
     </g>
     <g id="text_9">
      <!-- −8 -->
      <g transform="translate(68.257812 368.875992) scale(0.1 -0.1)">
       <defs>
        <path id="DejaVuSans-2212" d="M 678 2272 
L 4684 2272 
L 4684 1741 
L 678 1741 
L 678 2272 
z
" transform="scale(0.015625)"/>
        <path id="DejaVuSans-38" d="M 2034 2216 
Q 1584 2216 1326 1975 
Q 1069 1734 1069 1313 
Q 1069 891 1326 650 
Q 1584 409 2034 409 
Q 2484 409 2743 651 
Q 3003 894 3003 1313 
Q 3003 1734 2745 1975 
Q 2488 2216 2034 2216 
z
M 1403 2484 
Q 997 2584 770 2862 
Q 544 3141 544 3541 
Q 544 4100 942 4425 
Q 1341 4750 2034 4750 
Q 2731 4750 3128 4425 
Q 3525 4100 3525 3541 
Q 3525 3141 3298 2862 
Q 3072 2584 2669 2484 
Q 3125 2378 3379 2068 
Q 3634 1759 3634 1313 
Q 3634 634 3220 271 
Q 2806 -91 2034 -91 
Q 1263 -91 848 271 
Q 434 634 434 1313 
Q 434 1759 690 2068 
Q 947 2378 1403 2484 
z
M 1172 3481 
Q 1172 3119 1398 2916 
Q 1625 2713 2034 2713 
Q 2441 2713 2670 2916 
Q 2900 3119 2900 3481 
Q 2900 3844 2670 4047 
Q 2441 4250 2034 4250 
Q 1625 4250 1398 4047 
Q 1172 3844 1172 3481 
z
" transform="scale(0.015625)"/>
       </defs>
       <use xlink:href="#DejaVuSans-2212"/>
       <use xlink:href="#DejaVuSans-38" transform="translate(83.789062 0)"/>
      </g>
     </g>
    </g>
    <g id="ytick_2">
     <g id="line2d_17">
      <path d="M 90 324.139893 
L 648 324.139893 
" clip-path="url(#pc9aceede18)" style="fill: none; stroke: #b0b0b0; stroke-width: 0.8; stroke-linecap: square"/>
     </g>
     <g id="line2d_18">
      <g>
       <use xlink:href="#mb02336905f" x="90" y="324.139893" style="stroke: #000000; stroke-width: 0.8"/>
      </g>
     </g>
     <g id="text_10">
      <!-- −6 -->
      <g transform="translate(68.257812 327.939112) scale(0.1 -0.1)">
       <defs>
        <path id="DejaVuSans-36" d="M 2113 2584 
Q 1688 2584 1439 2293 
Q 1191 2003 1191 1497 
Q 1191 994 1439 701 
Q 1688 409 2113 409 
Q 2538 409 2786 701 
Q 3034 994 3034 1497 
Q 3034 2003 2786 2293 
Q 2538 2584 2113 2584 
z
M 3366 4563 
L 3366 3988 
Q 3128 4100 2886 4159 
Q 2644 4219 2406 4219 
Q 1781 4219 1451 3797 
Q 1122 3375 1075 2522 
Q 1259 2794 1537 2939 
Q 1816 3084 2150 3084 
Q 2853 3084 3261 2657 
Q 3669 2231 3669 1497 
Q 3669 778 3244 343 
Q 2819 -91 2113 -91 
Q 1303 -91 875 529 
Q 447 1150 447 2328 
Q 447 3434 972 4092 
Q 1497 4750 2381 4750 
Q 2619 4750 2861 4703 
Q 3103 4656 3366 4563 
z
" transform="scale(0.015625)"/>
       </defs>
       <use xlink:href="#DejaVuSans-2212"/>
       <use xlink:href="#DejaVuSans-36" transform="translate(83.789062 0)"/>
      </g>
     </g>
    </g>
    <g id="ytick_3">
     <g id="line2d_19">
      <path d="M 90 283.203014 
L 648 283.203014 
" clip-path="url(#pc9aceede18)" style="fill: none; stroke: #b0b0b0; stroke-width: 0.8; stroke-linecap: square"/>
     </g>
     <g id="line2d_20">
      <g>
       <use xlink:href="#mb02336905f" x="90" y="283.203014" style="stroke: #000000; stroke-width: 0.8"/>
      </g>
     </g>
     <g id="text_11">
      <!-- −4 -->
      <g transform="translate(68.257812 287.002232) scale(0.1 -0.1)">
       <defs>
        <path id="DejaVuSans-34" d="M 2419 4116 
L 825 1625 
L 2419 1625 
L 2419 4116 
z
M 2253 4666 
L 3047 4666 
L 3047 1625 
L 3713 1625 
L 3713 1100 
L 3047 1100 
L 3047 0 
L 2419 0 
L 2419 1100 
L 313 1100 
L 313 1709 
L 2253 4666 
z
" transform="scale(0.015625)"/>
       </defs>
       <use xlink:href="#DejaVuSans-2212"/>
       <use xlink:href="#DejaVuSans-34" transform="translate(83.789062 0)"/>
      </g>
     </g>
    </g>
    <g id="ytick_4">
     <g id="line2d_21">
      <path d="M 90 242.266134 
L 648 242.266134 
" clip-path="url(#pc9aceede18)" style="fill: none; stroke: #b0b0b0; stroke-width: 0.8; stroke-linecap: square"/>
     </g>
     <g id="line2d_22">
      <g>
       <use xlink:href="#mb02336905f" x="90" y="242.266134" style="stroke: #000000; stroke-width: 0.8"/>
      </g>
     </g>
     <g id="text_12">
      <!-- −2 -->
      <g transform="translate(68.257812 246.065353) scale(0.1 -0.1)">
       <use xlink:href="#DejaVuSans-2212"/>
       <use xlink:href="#DejaVuSans-32" transform="translate(83.789062 0)"/>
      </g>
     </g>
    </g>
    <g id="ytick_5">
     <g id="line2d_23">
      <path d="M 90 201.329254 
L 648 201.329254 
" clip-path="url(#pc9aceede18)" style="fill: none; stroke: #b0b0b0; stroke-width: 0.8; stroke-linecap: square"/>
     </g>
     <g id="line2d_24">
      <g>
       <use xlink:href="#mb02336905f" x="90" y="201.329254" style="stroke: #000000; stroke-width: 0.8"/>
      </g>
     </g>
     <g id="text_13">
      <!-- 0 -->
      <g transform="translate(76.6375 205.128473) scale(0.1 -0.1)">
       <use xlink:href="#DejaVuSans-30"/>
      </g>
     </g>
    </g>
    <g id="ytick_6">
     <g id="line2d_25">
      <path d="M 90 160.392374 
L 648 160.392374 
" clip-path="url(#pc9aceede18)" style="fill: none; stroke: #b0b0b0; stroke-width: 0.8; stroke-linecap: square"/>
     </g>
     <g id="line2d_26">
      <g>
       <use xlink:href="#mb02336905f" x="90" y="160.392374" style="stroke: #000000; stroke-width: 0.8"/>
      </g>
     </g>
     <g id="text_14">
      <!-- 2 -->
      <g transform="translate(76.6375 164.191593) scale(0.1 -0.1)">
       <use xlink:href="#DejaVuSans-32"/>
      </g>
     </g>
    </g>
    <g id="ytick_7">
     <g id="line2d_27">
      <path d="M 90 119.455494 
L 648 119.455494 
" clip-path="url(#pc9aceede18)" style="fill: none; stroke: #b0b0b0; stroke-width: 0.8; stroke-linecap: square"/>
     </g>
     <g id="line2d_28">
      <g>
       <use xlink:href="#mb02336905f" x="90" y="119.455494" style="stroke: #000000; stroke-width: 0.8"/>
      </g>
     </g>
     <g id="text_15">
      <!-- 4 -->
      <g transform="translate(76.6375 123.254713) scale(0.1 -0.1)">
       <use xlink:href="#DejaVuSans-34"/>
      </g>
     </g>
    </g>
    <g id="ytick_8">
     <g id="line2d_29">
      <path d="M 90 78.518614 
L 648 78.518614 
" clip-path="url(#pc9aceede18)" style="fill: none; stroke: #b0b0b0; stroke-width: 0.8; stroke-linecap: square"/>
     </g>
     <g id="line2d_30">
      <g>
       <use xlink:href="#mb02336905f" x="90" y="78.518614" style="stroke: #000000; stroke-width: 0.8"/>
      </g>
     </g>
     <g id="text_16">
      <!-- 6 -->
      <g transform="translate(76.6375 82.317833) scale(0.1 -0.1)">
       <use xlink:href="#DejaVuSans-36"/>
      </g>
     </g>
    </g>
    <g id="text_17">
     <!-- Estimated Value -->
     <g transform="translate(62.178125 258.738906) rotate(-90) scale(0.1 -0.1)">
      <defs>
       <path id="DejaVuSans-45" d="M 628 4666 
L 3578 4666 
L 3578 4134 
L 1259 4134 
L 1259 2753 
L 3481 2753 
L 3481 2222 
L 1259 2222 
L 1259 531 
L 3634 531 
L 3634 0 
L 628 0 
L 628 4666 
z
" transform="scale(0.015625)"/>
       <path id="DejaVuSans-74" d="M 1172 4494 
L 1172 3500 
L 2356 3500 
L 2356 3053 
L 1172 3053 
L 1172 1153 
Q 1172 725 1289 603 
Q 1406 481 1766 481 
L 2356 481 
L 2356 0 
L 1766 0 
Q 1100 0 847 248 
Q 594 497 594 1153 
L 594 3053 
L 172 3053 
L 172 3500 
L 594 3500 
L 594 4494 
L 1172 4494 
z
" transform="scale(0.015625)"/>
       <path id="DejaVuSans-64" d="M 2906 2969 
L 2906 4863 
L 3481 4863 
L 3481 0 
L 2906 0 
L 2906 525 
Q 2725 213 2448 61 
Q 2172 -91 1784 -91 
Q 1150 -91 751 415 
Q 353 922 353 1747 
Q 353 2572 751 3078 
Q 1150 3584 1784 3584 
Q 2172 3584 2448 3432 
Q 2725 3281 2906 2969 
z
M 947 1747 
Q 947 1113 1208 752 
Q 1469 391 1925 391 
Q 2381 391 2643 752 
Q 2906 1113 2906 1747 
Q 2906 2381 2643 2742 
Q 2381 3103 1925 3103 
Q 1469 3103 1208 2742 
Q 947 2381 947 1747 
z
" transform="scale(0.015625)"/>
       <path id="DejaVuSans-56" d="M 1831 0 
L 50 4666 
L 709 4666 
L 2188 738 
L 3669 4666 
L 4325 4666 
L 2547 0 
L 1831 0 
z
" transform="scale(0.015625)"/>
       <path id="DejaVuSans-6c" d="M 603 4863 
L 1178 4863 
L 1178 0 
L 603 0 
L 603 4863 
z
" transform="scale(0.015625)"/>
      </defs>
      <use xlink:href="#DejaVuSans-45"/>
      <use xlink:href="#DejaVuSans-73" transform="translate(63.183594 0)"/>
      <use xlink:href="#DejaVuSans-74" transform="translate(115.283203 0)"/>
      <use xlink:href="#DejaVuSans-69" transform="translate(154.492188 0)"/>
      <use xlink:href="#DejaVuSans-6d" transform="translate(182.275391 0)"/>
      <use xlink:href="#DejaVuSans-61" transform="translate(279.6875 0)"/>
      <use xlink:href="#DejaVuSans-74" transform="translate(340.966797 0)"/>
      <use xlink:href="#DejaVuSans-65" transform="translate(380.175781 0)"/>
      <use xlink:href="#DejaVuSans-64" transform="translate(441.699219 0)"/>
      <use xlink:href="#DejaVuSans-20" transform="translate(505.175781 0)"/>
      <use xlink:href="#DejaVuSans-56" transform="translate(536.962891 0)"/>
      <use xlink:href="#DejaVuSans-61" transform="translate(597.621094 0)"/>
      <use xlink:href="#DejaVuSans-6c" transform="translate(658.900391 0)"/>
      <use xlink:href="#DejaVuSans-75" transform="translate(686.683594 0)"/>
      <use xlink:href="#DejaVuSans-65" transform="translate(750.0625 0)"/>
     </g>
    </g>
    <g id="text_18">
     <!-- 1e−5 -->
     <g transform="translate(90 48.84) scale(0.1 -0.1)">
      <use xlink:href="#DejaVuSans-31"/>
      <use xlink:href="#DejaVuSans-65" transform="translate(63.623047 0)"/>
      <use xlink:href="#DejaVuSans-2212" transform="translate(125.146484 0)"/>
      <use xlink:href="#DejaVuSans-35" transform="translate(208.935547 0)"/>
     </g>
    </g>
   </g>
   <g id="line2d_31">
    <path d="M 115.363636 201.329254 
L 128.88631 201.308549 
L 128.920806 329.309741 
L 128.989799 300.227376 
L 129.196779 216.187887 
L 129.438255 199.210672 
L 129.714228 194.302525 
L 129.990201 192.692805 
L 130.266174 192.217637 
L 130.473154 192.217622 
L 130.749127 192.480819 
L 131.232079 193.332658 
L 132.232481 195.687052 
L 134.026305 199.83519 
L 135.061204 201.664553 
L 135.923619 202.765431 
L 136.682545 203.40419 
L 137.406974 203.736276 
L 138.131402 203.818639 
L 138.890328 203.668047 
L 139.718247 203.270311 
L 140.718649 202.533378 
L 142.02952 201.271713 
L 144.133813 198.891605 
L 144.306297 198.851793 
L 145.962134 198.851793 
L 146.100121 111.202126 
L 146.479583 104.911857 
L 146.790053 103.10905 
L 147.100522 102.383314 
L 147.410992 102.138619 
L 147.755958 102.160685 
L 148.204414 102.442643 
L 148.928843 103.204216 
L 150.343204 105.0885 
L 152.619981 108.101154 
L 154.413805 108.101154 
L 154.551791 112.875968 
L 155.103737 114.427674 
L 155.69018 115.239999 
L 156.552595 116.043669 
L 157.759977 116.852238 
L 159.243331 117.570371 
L 160.864672 118.106838 
L 161.485611 118.159176 
L 162.865476 118.159176 
L 162.899972 118.705396 
L 162.968965 118.60033 
L 163.658898 117.716472 
L 164.728293 116.69288 
L 165.970171 115.817751 
L 167.384532 115.096118 
L 168.971376 114.538922 
L 169.868288 114.394857 
L 171.317146 114.394857 
L 171.455133 103.717136 
L 172.421038 87.865172 
L 173.041977 82.190363 
L 173.731909 77.901947 
L 174.490835 74.589402 
L 175.284257 72.079725 
L 176.146672 70.054422 
L 177.078081 68.411199 
L 177.974993 67.19665 
L 179.768817 67.19665 
L 179.906803 67.620409 
L 181.769621 67.627127 
L 183.183982 67.878549 
L 184.63284 68.366763 
L 186.219684 69.143007 
L 186.633643 69.260768 
L 188.220488 69.260768 
L 188.254984 66.96 
L 188.530957 189.081972 
L 188.772434 197.745162 
L 189.082903 200.985242 
L 189.496863 203.032482 
L 190.117802 204.942915 
L 191.083707 207.139658 
L 192.463571 209.701243 
L 193.946926 212.004721 
L 194.947328 213.232331 
L 196.672159 213.232331 
L 196.706655 200.462922 
L 196.775648 203.034202 
L 196.982628 207.493373 
L 197.224104 208.214623 
L 197.603567 208.57374 
L 198.327996 208.893832 
L 199.328398 209.095519 
L 200.294303 209.075521 
L 201.225712 208.836628 
L 202.15712 208.367484 
L 203.157522 207.609007 
L 203.467992 207.452568 
L 205.123829 207.452568 
L 205.261816 236.932432 
L 205.572285 241.047261 
L 205.848258 242.184567 
L 206.158728 242.634079 
L 206.503694 242.761916 
L 206.95215 242.679988 
L 207.642082 242.308139 
L 208.711477 241.459469 
L 210.229328 239.951761 
L 212.023152 238.168754 
L 213.5755 238.168754 
L 213.609997 225.09832 
L 213.713486 225.625248 
L 214.127446 228.745075 
L 214.472412 229.64198 
L 214.817378 229.969581 
L 215.196841 230.020193 
L 215.679794 229.831561 
L 216.404222 229.268572 
L 217.680597 227.94056 
L 220.233347 225.272528 
L 222.027171 225.272528 
L 222.165157 226.364697 
L 222.54462 226.408638 
L 223.234552 226.234466 
L 224.234954 225.73104 
L 225.787302 224.677606 
L 228.443541 222.571304 
L 228.857501 222.371868 
L 230.478841 222.371868 
L 230.582331 220.72495 
L 230.616828 220.729559 
L 230.927297 220.992489 
L 231.548237 221.410028 
L 232.410652 221.700357 
L 233.618033 221.857044 
L 235.239374 221.835316 
L 238.930512 221.59799 
L 239.068499 220.120384 
L 239.723934 219.174248 
L 240.448363 218.564774 
L 241.517758 217.989183 
L 244.036011 216.978432 
L 245.933325 216.329353 
L 247.382183 216.329353 
L 247.520169 109.079564 
L 247.899632 106.977243 
L 248.348088 105.844028 
L 249.03802 104.765336 
L 250.245402 103.341388 
L 252.556675 101.006263 
L 254.14352 99.613189 
L 255.833854 99.613189 
L 255.97184 96.546999 
L 256.489289 95.069086 
L 256.972242 94.442031 
L 257.593181 94.006946 
L 258.4211 93.704274 
L 259.628481 93.517667 
L 261.525795 93.475093 
L 264.285524 93.501976 
L 264.527001 92.846779 
L 265.285926 90.647042 
L 265.975859 89.394323 
L 266.769281 88.419573 
L 267.700689 87.630234 
L 268.839078 86.963943 
L 270.253439 86.403352 
L 271.219344 86.200701 
L 272.737195 86.200701 
L 272.875182 90.297709 
L 273.875583 93.797291 
L 274.565516 95.176077 
L 275.358938 96.253685 
L 276.290347 97.132154 
L 277.394238 97.860589 
L 278.739606 98.475375 
L 279.636518 98.701943 
L 281.188866 98.701943 
L 281.326852 97.979898 
L 282.189268 97.519123 
L 283.396649 97.165402 
L 284.431548 96.968018 
L 284.569534 201.329254 
L 297.988718 201.328175 
L 298.023214 199.794339 
L 298.057711 200.584465 
L 298.333684 209.149193 
L 298.609657 210.648927 
L 299.058113 211.720665 
L 299.955025 213.188718 
L 301.472876 215.238466 
L 302.921733 216.844021 
L 304.163612 217.898348 
L 305.302 218.576988 
L 306.405892 218.975215 
L 307.54428 219.143722 
L 308.786158 219.095626 
L 310.269513 218.804648 
L 312.304813 218.158808 
L 313.615684 217.802898 
L 315.064542 217.802898 
L 315.202529 209.210974 
L 315.616488 207.991572 
L 315.995951 207.615286 
L 316.5134 207.441543 
L 317.375815 207.420264 
L 319.135143 207.646296 
L 322.412321 208.069645 
L 323.516213 208.069645 
L 323.654199 208.297819 
L 324.068159 208.455205 
L 330.657012 208.849039 
L 331.967884 208.849039 
L 332.10587 210.105012 
L 335.176069 209.868368 
L 339.591635 209.742068 
L 340.419554 209.742068 
L 340.557541 208.453637 
L 341.626936 205.423051 
L 342.316868 204.348953 
L 343.144787 203.471018 
L 344.179685 202.71061 
L 345.45606 202.055475 
L 347.077401 201.475864 
L 348.871225 201.475864 
L 349.009211 201.858113 
L 353.459275 201.859938 
L 357.322896 201.971689 
L 357.529875 209.36827 
L 357.736855 210.733665 
L 358.012828 211.128619 
L 358.530277 211.41403 
L 359.875645 211.826919 
L 363.566783 212.687578 
L 364.498192 212.772755 
L 365.774566 212.772755 
L 365.912553 212.371463 
L 366.361009 212.347983 
L 370.776576 212.319088 
L 374.226237 212.185124 
L 374.260734 211.171672 
L 374.329727 211.32288 
L 374.743686 212.487854 
L 375.088653 212.730143 
L 375.675095 212.829731 
L 376.916973 212.762892 
L 379.814689 212.339952 
L 381.574016 212.156214 
L 382.677908 212.156214 
L 382.746901 206.258004 
L 382.815894 206.323287 
L 383.229854 206.697292 
L 383.747303 206.777326 
L 384.747705 206.655369 
L 389.818707 205.789684 
L 391.129579 205.789684 
L 391.267565 206.061859 
L 392.026491 206.257465 
L 393.268369 206.323871 
L 395.476152 206.190478 
L 399.305276 205.946276 
L 399.581249 205.946276 
L 399.684739 205.626399 
L 399.719236 205.631718 
L 401.582053 205.885266 
L 404.824735 205.986199 
L 408.03292 205.992738 
L 408.170907 204.246566 
L 410.17171 204.015806 
L 415.760162 203.68679 
L 416.484591 203.68679 
L 416.519088 201.015418 
L 416.622577 201.292548 
L 417.071033 202.77796 
L 417.450496 203.191294 
L 417.967945 203.40762 
L 418.830361 203.496807 
L 420.555191 203.410508 
L 424.798275 203.153966 
L 424.936262 203.153966 
L 425.074248 204.729442 
L 425.488207 204.914781 
L 426.385119 204.964378 
L 433.387932 204.999792 
L 433.525919 204.75727 
L 435.664709 204.419667 
L 438.941887 204.258279 
L 441.839603 204.231112 
L 441.97759 205.029595 
L 443.115978 205.700764 
L 444.288863 206.033062 
L 446.15168 206.302526 
L 448.945906 206.471029 
L 450.291274 206.471029 
L 450.42926 206.138555 
L 453.0855 205.976237 
L 453.533956 205.96245 
L 453.568452 201.329385 
L 453.671942 201.331639 
L 462.848042 201.194163 
L 467.091125 201.18615 
L 467.229112 200.93636 
L 467.470588 200.921455 
L 470.195821 201.620117 
L 471.644679 201.697712 
L 473.576489 201.553074 
L 479.923866 200.957231 
L 483.85648 200.839732 
L 484.16695 200.839732 
L 484.304936 199.890382 
L 485.029365 199.397288 
L 485.926277 199.263001 
L 488.203054 199.207243 
L 492.618621 199.219465 
L 492.756607 197.151781 
L 493.308553 196.285847 
L 493.826002 196.027466 
L 494.757411 195.847401 
L 496.792711 195.723799 
L 509.521962 195.425126 
L 509.659949 195.174832 
L 512.799141 194.996048 
L 517.973633 194.938486 
L 518.111619 194.162776 
L 526.425304 194.13317 
L 526.597787 192.016016 
L 526.839263 190.729228 
L 527.115236 190.37669 
L 527.563692 190.194446 
L 528.564094 190.080571 
L 531.427313 190.043242 
L 534.945968 190.157099 
L 535.32543 190.446796 
L 536.222342 190.449818 
L 543.639115 190.097169 
L 544.363544 189.932119 
L 546.433341 189.776607 
L 551.400853 189.626814 
L 551.780316 189.626814 
L 551.918302 190.003218 
L 552.470248 190.201262 
L 553.712126 190.297074 
L 558.852122 190.357641 
L 560.473463 190.2539 
L 562.163797 189.931042 
L 564.958023 189.699995 
L 568.511174 189.609812 
L 569.37359 189.718572 
L 571.857346 189.864624 
L 577.135328 189.952473 
L 577.238818 189.354016 
L 577.273315 189.35707 
L 579.343111 189.478796 
L 585.380019 189.500235 
L 585.586999 189.500235 
L 585.724985 191.319036 
L 586.207938 193.152954 
L 586.587401 193.67862 
L 587.10485 194.022191 
L 587.932769 194.276502 
L 589.381627 194.454906 
L 592.348335 194.556532 
L 594.03867 194.556532 
L 594.176656 199.25896 
L 594.590615 200.049849 
L 595.039071 200.356745 
L 595.7635 200.544275 
L 597.246855 200.65773 
L 601.420945 200.686099 
L 602.49034 200.686099 
L 602.628327 200.481433 
L 605.560539 200.842126 
L 609.596643 200.945213 
L 610.942011 200.945213 
L 611.079998 201.082558 
L 613.218788 201.326411 
L 617.116905 201.430331 
L 619.393682 201.435676 
L 619.531668 201.197563 
L 622.636364 201.077153 
L 622.636364 201.077153 
" clip-path="url(#pc9aceede18)" style="fill: none; stroke: #ff0000; stroke-width: 1.5; stroke-linecap: square"/>
   </g>
   <g id="line2d_32">
    <path d="M 115.363636 201.329254 
L 128.88631 201.327176 
L 128.920806 369.36 
L 128.989799 322.30392 
L 129.196779 203.391335 
L 129.403759 184.161811 
L 129.645235 179.303426 
L 129.852215 178.540995 
L 130.059194 178.503143 
L 130.266174 178.382531 
L 130.473154 177.889455 
L 130.783623 176.435743 
L 131.646039 170.735089 
L 132.439461 166.371198 
L 133.198386 163.412196 
L 133.991809 161.193589 
L 134.854224 159.421764 
L 135.820129 157.928076 
L 136.924021 156.623401 
L 138.165899 155.495165 
L 139.58026 154.512861 
L 141.167105 153.682164 
L 143.029922 152.963434 
L 144.409786 152.622097 
L 145.962134 152.622097 
L 146.100121 101.532964 
L 146.272604 101.512859 
L 146.790053 101.477169 
L 149.032333 100.953559 
L 152.481994 100.216747 
L 153.309913 100.195176 
L 154.413805 100.195176 
L 154.586288 100.888524 
L 154.862261 101.381085 
L 155.241724 101.543041 
L 156.138636 101.593748 
L 163.279435 101.505618 
L 163.969367 101.39831 
L 166.453124 101.317634 
L 171.317146 101.383044 
L 171.455133 101.005625 
L 172.386541 100.680432 
L 173.835399 100.542725 
L 176.526135 100.516635 
L 180.010293 100.420762 
L 182.804519 99.952268 
L 184.460357 99.836485 
L 188.220488 99.722375 
L 188.254984 85.749143 
L 188.289481 107.46778 
L 188.461964 176.618196 
L 188.668944 185.265955 
L 188.91042 187.459853 
L 189.22089 188.419604 
L 189.600352 188.884319 
L 190.117802 189.139296 
L 191.083707 189.309292 
L 191.980619 189.530587 
L 193.084511 189.946422 
L 194.878335 190.222045 
L 196.672159 190.222045 
L 196.706655 173.082233 
L 196.810145 174.596726 
L 197.017125 175.633626 
L 197.362091 176.057979 
L 198.155513 176.614336 
L 199.880344 177.509833 
L 200.363296 177.614564 
L 202.05363 177.691662 
L 205.123829 177.598701 
L 205.261816 210.76694 
L 205.572285 214.545115 
L 205.882755 215.802948 
L 206.262218 216.470915 
L 206.779667 216.919365 
L 207.504096 217.238179 
L 208.573491 217.454297 
L 209.987852 217.510715 
L 213.5755 217.409176 
L 213.644493 203.660284 
L 213.713486 203.68344 
L 214.058453 203.773177 
L 214.886371 203.616794 
L 220.40583 202.392856 
L 222.027171 202.392856 
L 222.165157 199.425814 
L 223.096566 198.725872 
L 224.027974 198.403456 
L 225.442336 198.172702 
L 227.995085 198.018309 
L 230.478841 197.996137 
L 230.616828 199.300837 
L 231.30676 199.478216 
L 232.755618 199.595242 
L 236.20528 199.598863 
L 238.930512 199.586953 
L 239.068499 201.510711 
L 240.17239 201.491229 
L 246.519768 201.054282 
L 247.382183 201.054282 
L 247.520169 147.898688 
L 248.175605 146.808014 
L 248.727551 146.573479 
L 249.727953 146.426833 
L 251.79775 146.385928 
L 255.833854 146.511842 
L 255.97184 130.443105 
L 256.868752 130.267854 
L 258.076134 129.479677 
L 259.007542 129.024319 
L 259.938951 128.82424 
L 261.042843 128.822744 
L 262.422707 129.054592 
L 262.940156 129.071427 
L 264.285524 129.071427 
L 264.423511 129.877775 
L 265.389416 133.216733 
L 265.975859 134.181834 
L 266.665791 134.886092 
L 267.49371 135.411393 
L 268.563105 135.821114 
L 270.080956 136.15037 
L 271.529814 136.272587 
L 272.737195 136.272587 
L 272.806188 136.898048 
L 272.875182 136.886072 
L 273.358134 136.526997 
L 274.255046 136.054285 
L 276.04887 135.40533 
L 278.912089 134.605441 
L 279.843498 134.493051 
L 281.188866 134.493051 
L 281.326852 116.730934 
L 281.775308 114.267109 
L 282.154771 113.409548 
L 282.603227 112.933395 
L 283.18967 112.653437 
L 284.155575 112.482348 
L 284.431548 112.455876 
L 284.569534 201.329254 
L 297.988718 201.329621 
L 298.023214 197.357932 
L 298.126704 198.179997 
L 298.333684 198.721488 
L 298.713146 198.895933 
L 300.162004 199.168298 
L 303.887639 199.654692 
L 307.026831 199.842628 
L 310.821458 199.829108 
L 315.064542 199.751362 
L 315.202529 195.524025 
L 315.512998 195.214628 
L 315.995951 195.085082 
L 317.099842 195.08271 
L 321.239436 195.413145 
L 323.13675 195.449405 
L 323.516213 195.449405 
L 323.619703 194.969359 
L 323.654199 194.976786 
L 325.206547 195.409909 
L 327.448827 195.614053 
L 331.105468 195.71544 
L 331.967884 195.71544 
L 332.071373 196.184347 
L 332.10587 196.181756 
L 335.383048 195.969606 
L 340.419554 195.897659 
L 340.557541 195.503655 
L 341.626936 194.52056 
L 342.523848 194.117021 
L 343.869216 193.776582 
L 345.973509 193.495588 
L 348.112299 193.404794 
L 348.871225 193.404794 
L 349.009211 193.574709 
L 352.28639 193.70436 
L 357.322896 193.921706 
L 357.495379 196.492424 
L 357.702359 197.02718 
L 358.047325 197.163286 
L 359.254706 197.291712 
L 361.221013 197.301457 
L 362.911347 197.08933 
L 364.774165 196.831675 
L 365.774566 196.831675 
L 365.912553 195.153447 
L 366.223022 195.03305 
L 367.706377 194.884311 
L 369.258725 194.921361 
L 370.569596 195.172739 
L 371.845971 195.642898 
L 372.742883 195.932875 
L 374.226237 195.932875 
L 374.329727 198.912205 
L 374.364224 198.911531 
L 374.847176 198.663957 
L 375.364626 198.88331 
L 376.778987 199.795592 
L 380.504621 202.509831 
L 381.056567 202.790271 
L 382.677908 202.790271 
L 382.815894 195.00242 
L 383.26435 192.269054 
L 383.609317 191.573572 
L 383.988779 191.287374 
L 384.437235 191.235423 
L 385.058174 191.406975 
L 386.162066 191.986406 
L 388.438843 193.195454 
L 389.473741 193.500851 
L 391.129579 193.500851 
L 391.267565 187.844191 
L 391.750518 187.226056 
L 392.33696 186.828547 
L 393.061389 186.61373 
L 394.027294 186.573599 
L 395.441656 186.76008 
L 398.925814 187.32157 
L 399.753732 187.253066 
L 400.650644 185.916368 
L 401.340577 185.377552 
L 402.237489 184.961283 
L 403.44487 184.653979 
L 405.100708 184.47486 
L 407.791444 184.447857 
L 408.03292 184.447857 
L 408.205403 184.760685 
L 408.791846 185.3271 
L 409.550771 185.727632 
L 410.654663 186.034886 
L 412.3105 186.247658 
L 414.725264 186.321079 
L 416.484591 186.321079 
L 416.519088 183.249168 
L 416.622577 183.58314 
L 417.071033 185.371713 
L 417.450496 185.926516 
L 417.967945 186.285518 
L 418.795864 186.560651 
L 420.313715 186.791873 
L 423.5219 187.020841 
L 424.936262 187.020841 
L 425.074248 190.378277 
L 425.626194 191.06997 
L 426.316126 191.53312 
L 427.351025 191.945599 
L 428.903372 192.306837 
L 431.145652 192.584298 
L 432.90498 192.61898 
L 433.387932 192.61898 
L 433.525919 192.080932 
L 435.25075 192.138088 
L 441.839603 192.038046 
L 441.97759 190.944528 
L 442.908998 190.664819 
L 444.599332 190.414318 
L 447.807518 190.1977 
L 450.291274 190.168813 
L 450.42926 189.923626 
L 453.533956 189.66932 
L 453.671942 201.331798 
L 458.880931 201.346332 
L 467.091125 201.380188 
L 467.229112 201.111306 
L 468.022534 200.333952 
L 469.126426 199.691689 
L 470.230317 199.28812 
L 471.265216 199.139624 
L 472.472597 199.20356 
L 474.404408 199.569085 
L 478.164539 200.270831 
L 481.545207 200.643024 
L 483.649501 200.706834 
L 484.16695 200.706834 
L 484.201447 200.050328 
L 484.304936 200.07571 
L 486.20225 199.801236 
L 492.066675 199.620293 
L 492.618621 199.620293 
L 492.756607 197.647537 
L 493.308553 196.862997 
L 493.860499 196.63433 
L 494.929894 196.479169 
L 497.586133 196.368741 
L 509.521962 196.099551 
L 509.659949 196.0216 
L 511.626256 196.176757 
L 516.628265 196.264369 
L 517.973633 196.264369 
L 518.111619 195.581471 
L 522.699669 195.660331 
L 526.425304 195.667823 
L 526.597787 192.918286 
L 526.839263 191.216753 
L 527.115236 190.746903 
L 527.529195 190.511097 
L 528.357114 190.353175 
L 530.633891 190.223002 
L 534.876974 190.114876 
L 535.049458 190.722242 
L 535.290934 191.031349 
L 535.808383 191.191929 
L 537.87818 191.474603 
L 541.948781 191.840611 
L 543.466632 191.752623 
L 544.122067 191.262552 
L 544.846496 191.159477 
L 546.433341 191.212614 
L 551.780316 191.511704 
L 551.849309 190.992247 
L 551.918302 191.040661 
L 552.332262 191.296157 
L 553.022194 191.340086 
L 560.231987 191.175801 
L 560.30098 190.276292 
L 560.369973 190.289737 
L 562.922723 191.335296 
L 565.027016 191.70926 
L 567.372786 191.916524 
L 568.718154 191.807892 
L 569.201107 191.576259 
L 570.167012 191.220172 
L 571.788353 190.8902 
L 574.651572 190.561493 
L 576.548886 190.503884 
L 577.135328 190.503884 
L 577.273315 189.727142 
L 579.170628 189.114259 
L 581.033446 188.916213 
L 584.483107 188.80309 
L 585.586999 188.80309 
L 585.724985 191.729653 
L 586.173441 193.655835 
L 586.552904 194.265334 
L 587.070353 194.651319 
L 587.829279 194.9111 
L 589.14015 195.09023 
L 591.761893 195.183995 
L 594.03867 195.189084 
L 594.176656 200.410822 
L 594.590615 201.204419 
L 595.073568 201.594307 
L 595.86699 201.905428 
L 597.281351 202.188938 
L 599.972087 202.47381 
L 602.076381 202.52715 
L 602.49034 202.52715 
L 602.628327 202.157296 
L 610.942011 201.745909 
L 611.079998 201.456969 
L 613.253284 201.32273 
L 618.531266 201.230487 
L 619.393682 201.230487 
L 619.531668 201.011228 
L 622.636364 200.97683 
L 622.636364 200.97683 
" clip-path="url(#pc9aceede18)" style="fill: none; stroke-dasharray: 5.55,2.4; stroke-dashoffset: 0; stroke: #0000ff; stroke-width: 1.5"/>
   </g>
   <g id="patch_3">
    <path d="M 90 384.48 
L 90 51.84 
" style="fill: none; stroke: #000000; stroke-width: 0.8; stroke-linejoin: miter; stroke-linecap: square"/>
   </g>
   <g id="patch_4">
    <path d="M 648 384.48 
L 648 51.84 
" style="fill: none; stroke: #000000; stroke-width: 0.8; stroke-linejoin: miter; stroke-linecap: square"/>
   </g>
   <g id="patch_5">
    <path d="M 90 384.48 
L 648 384.48 
" style="fill: none; stroke: #000000; stroke-width: 0.8; stroke-linejoin: miter; stroke-linecap: square"/>
   </g>
   <g id="patch_6">
    <path d="M 90 51.84 
L 648 51.84 
" style="fill: none; stroke: #000000; stroke-width: 0.8; stroke-linejoin: miter; stroke-linecap: square"/>
   </g>
   <g id="text_19">
    <!-- State Value Convergence for dKg_xy (Index 15) -->
    <g transform="translate(226.894688 45.84) scale(0.12 -0.12)">
     <defs>
      <path id="DejaVuSans-53" d="M 3425 4513 
L 3425 3897 
Q 3066 4069 2747 4153 
Q 2428 4238 2131 4238 
Q 1616 4238 1336 4038 
Q 1056 3838 1056 3469 
Q 1056 3159 1242 3001 
Q 1428 2844 1947 2747 
L 2328 2669 
Q 3034 2534 3370 2195 
Q 3706 1856 3706 1288 
Q 3706 609 3251 259 
Q 2797 -91 1919 -91 
Q 1588 -91 1214 -16 
Q 841 59 441 206 
L 441 856 
Q 825 641 1194 531 
Q 1563 422 1919 422 
Q 2459 422 2753 634 
Q 3047 847 3047 1241 
Q 3047 1584 2836 1778 
Q 2625 1972 2144 2069 
L 1759 2144 
Q 1053 2284 737 2584 
Q 422 2884 422 3419 
Q 422 4038 858 4394 
Q 1294 4750 2059 4750 
Q 2388 4750 2728 4690 
Q 3069 4631 3425 4513 
z
" transform="scale(0.015625)"/>
      <path id="DejaVuSans-43" d="M 4122 4306 
L 4122 3641 
Q 3803 3938 3442 4084 
Q 3081 4231 2675 4231 
Q 1875 4231 1450 3742 
Q 1025 3253 1025 2328 
Q 1025 1406 1450 917 
Q 1875 428 2675 428 
Q 3081 428 3442 575 
Q 3803 722 4122 1019 
L 4122 359 
Q 3791 134 3420 21 
Q 3050 -91 2638 -91 
Q 1578 -91 968 557 
Q 359 1206 359 2328 
Q 359 3453 968 4101 
Q 1578 4750 2638 4750 
Q 3056 4750 3426 4639 
Q 3797 4528 4122 4306 
z
" transform="scale(0.015625)"/>
      <path id="DejaVuSans-6f" d="M 1959 3097 
Q 1497 3097 1228 2736 
Q 959 2375 959 1747 
Q 959 1119 1226 758 
Q 1494 397 1959 397 
Q 2419 397 2687 759 
Q 2956 1122 2956 1747 
Q 2956 2369 2687 2733 
Q 2419 3097 1959 3097 
z
M 1959 3584 
Q 2709 3584 3137 3096 
Q 3566 2609 3566 1747 
Q 3566 888 3137 398 
Q 2709 -91 1959 -91 
Q 1206 -91 779 398 
Q 353 888 353 1747 
Q 353 2609 779 3096 
Q 1206 3584 1959 3584 
z
" transform="scale(0.015625)"/>
      <path id="DejaVuSans-67" d="M 2906 1791 
Q 2906 2416 2648 2759 
Q 2391 3103 1925 3103 
Q 1463 3103 1205 2759 
Q 947 2416 947 1791 
Q 947 1169 1205 825 
Q 1463 481 1925 481 
Q 2391 481 2648 825 
Q 2906 1169 2906 1791 
z
M 3481 434 
Q 3481 -459 3084 -895 
Q 2688 -1331 1869 -1331 
Q 1566 -1331 1297 -1286 
Q 1028 -1241 775 -1147 
L 775 -588 
Q 1028 -725 1275 -790 
Q 1522 -856 1778 -856 
Q 2344 -856 2625 -561 
Q 2906 -266 2906 331 
L 2906 616 
Q 2728 306 2450 153 
Q 2172 0 1784 0 
Q 1141 0 747 490 
Q 353 981 353 1791 
Q 353 2603 747 3093 
Q 1141 3584 1784 3584 
Q 2172 3584 2450 3431 
Q 2728 3278 2906 2969 
L 2906 3500 
L 3481 3500 
L 3481 434 
z
" transform="scale(0.015625)"/>
      <path id="DejaVuSans-63" d="M 3122 3366 
L 3122 2828 
Q 2878 2963 2633 3030 
Q 2388 3097 2138 3097 
Q 1578 3097 1268 2742 
Q 959 2388 959 1747 
Q 959 1106 1268 751 
Q 1578 397 2138 397 
Q 2388 397 2633 464 
Q 2878 531 3122 666 
L 3122 134 
Q 2881 22 2623 -34 
Q 2366 -91 2075 -91 
Q 1284 -91 818 406 
Q 353 903 353 1747 
Q 353 2603 823 3093 
Q 1294 3584 2113 3584 
Q 2378 3584 2631 3529 
Q 2884 3475 3122 3366 
z
" transform="scale(0.015625)"/>
      <path id="DejaVuSans-66" d="M 2375 4863 
L 2375 4384 
L 1825 4384 
Q 1516 4384 1395 4259 
Q 1275 4134 1275 3809 
L 1275 3500 
L 2222 3500 
L 2222 3053 
L 1275 3053 
L 1275 0 
L 697 0 
L 697 3053 
L 147 3053 
L 147 3500 
L 697 3500 
L 697 3744 
Q 697 4328 969 4595 
Q 1241 4863 1831 4863 
L 2375 4863 
z
" transform="scale(0.015625)"/>
      <path id="DejaVuSans-4b" d="M 628 4666 
L 1259 4666 
L 1259 2694 
L 3353 4666 
L 4166 4666 
L 1850 2491 
L 4331 0 
L 3500 0 
L 1259 2247 
L 1259 0 
L 628 0 
L 628 4666 
z
" transform="scale(0.015625)"/>
      <path id="DejaVuSans-5f" d="M 3263 -1063 
L 3263 -1509 
L -63 -1509 
L -63 -1063 
L 3263 -1063 
z
" transform="scale(0.015625)"/>
      <path id="DejaVuSans-78" d="M 3513 3500 
L 2247 1797 
L 3578 0 
L 2900 0 
L 1881 1375 
L 863 0 
L 184 0 
L 1544 1831 
L 300 3500 
L 978 3500 
L 1906 2253 
L 2834 3500 
L 3513 3500 
z
" transform="scale(0.015625)"/>
      <path id="DejaVuSans-79" d="M 2059 -325 
Q 1816 -950 1584 -1140 
Q 1353 -1331 966 -1331 
L 506 -1331 
L 506 -850 
L 844 -850 
Q 1081 -850 1212 -737 
Q 1344 -625 1503 -206 
L 1606 56 
L 191 3500 
L 800 3500 
L 1894 763 
L 2988 3500 
L 3597 3500 
L 2059 -325 
z
" transform="scale(0.015625)"/>
      <path id="DejaVuSans-49" d="M 628 4666 
L 1259 4666 
L 1259 0 
L 628 0 
L 628 4666 
z
" transform="scale(0.015625)"/>
     </defs>
     <use xlink:href="#DejaVuSans-53"/>
     <use xlink:href="#DejaVuSans-74" transform="translate(63.476562 0)"/>
     <use xlink:href="#DejaVuSans-61" transform="translate(102.685547 0)"/>
     <use xlink:href="#DejaVuSans-74" transform="translate(163.964844 0)"/>
     <use xlink:href="#DejaVuSans-65" transform="translate(203.173828 0)"/>
     <use xlink:href="#DejaVuSans-20" transform="translate(264.697266 0)"/>
     <use xlink:href="#DejaVuSans-56" transform="translate(296.484375 0)"/>
     <use xlink:href="#DejaVuSans-61" transform="translate(357.142578 0)"/>
     <use xlink:href="#DejaVuSans-6c" transform="translate(418.421875 0)"/>
     <use xlink:href="#DejaVuSans-75" transform="translate(446.205078 0)"/>
     <use xlink:href="#DejaVuSans-65" transform="translate(509.583984 0)"/>
     <use xlink:href="#DejaVuSans-20" transform="translate(571.107422 0)"/>
     <use xlink:href="#DejaVuSans-43" transform="translate(602.894531 0)"/>
     <use xlink:href="#DejaVuSans-6f" transform="translate(672.71875 0)"/>
     <use xlink:href="#DejaVuSans-6e" transform="translate(733.900391 0)"/>
     <use xlink:href="#DejaVuSans-76" transform="translate(797.279297 0)"/>
     <use xlink:href="#DejaVuSans-65" transform="translate(856.458984 0)"/>
     <use xlink:href="#DejaVuSans-72" transform="translate(917.982422 0)"/>
     <use xlink:href="#DejaVuSans-67" transform="translate(957.345703 0)"/>
     <use xlink:href="#DejaVuSans-65" transform="translate(1020.822266 0)"/>
     <use xlink:href="#DejaVuSans-6e" transform="translate(1082.345703 0)"/>
     <use xlink:href="#DejaVuSans-63" transform="translate(1145.724609 0)"/>
     <use xlink:href="#DejaVuSans-65" transform="translate(1200.705078 0)"/>
     <use xlink:href="#DejaVuSans-20" transform="translate(1262.228516 0)"/>
     <use xlink:href="#DejaVuSans-66" transform="translate(1294.015625 0)"/>
     <use xlink:href="#DejaVuSans-6f" transform="translate(1329.220703 0)"/>
     <use xlink:href="#DejaVuSans-72" transform="translate(1390.402344 0)"/>
     <use xlink:href="#DejaVuSans-20" transform="translate(1431.515625 0)"/>
     <use xlink:href="#DejaVuSans-64" transform="translate(1463.302734 0)"/>
     <use xlink:href="#DejaVuSans-4b" transform="translate(1526.779297 0)"/>
     <use xlink:href="#DejaVuSans-67" transform="translate(1592.355469 0)"/>
     <use xlink:href="#DejaVuSans-5f" transform="translate(1655.832031 0)"/>
     <use xlink:href="#DejaVuSans-78" transform="translate(1705.832031 0)"/>
     <use xlink:href="#DejaVuSans-79" transform="translate(1765.011719 0)"/>
     <use xlink:href="#DejaVuSans-20" transform="translate(1824.191406 0)"/>
     <use xlink:href="#DejaVuSans-28" transform="translate(1855.978516 0)"/>
     <use xlink:href="#DejaVuSans-49" transform="translate(1894.992188 0)"/>
     <use xlink:href="#DejaVuSans-6e" transform="translate(1924.484375 0)"/>
     <use xlink:href="#DejaVuSans-64" transform="translate(1987.863281 0)"/>
     <use xlink:href="#DejaVuSans-65" transform="translate(2051.339844 0)"/>
     <use xlink:href="#DejaVuSans-78" transform="translate(2111.113281 0)"/>
     <use xlink:href="#DejaVuSans-20" transform="translate(2170.292969 0)"/>
     <use xlink:href="#DejaVuSans-31" transform="translate(2202.080078 0)"/>
     <use xlink:href="#DejaVuSans-35" transform="translate(2265.703125 0)"/>
     <use xlink:href="#DejaVuSans-29" transform="translate(2329.326172 0)"/>
    </g>
   </g>
   <g id="legend_1">
    <g id="patch_7">
     <path d="M 521.465625 89.19625 
L 641 89.19625 
Q 643 89.19625 643 87.19625 
L 643 58.84 
Q 643 56.84 641 56.84 
L 521.465625 56.84 
Q 519.465625 56.84 519.465625 58.84 
L 519.465625 87.19625 
Q 519.465625 89.19625 521.465625 89.19625 
z
" style="fill: #ffffff; opacity: 0.8; stroke: #cccccc; stroke-linejoin: miter"/>
    </g>
    <g id="line2d_33">
     <path d="M 523.465625 64.938437 
L 533.465625 64.938437 
L 543.465625 64.938437 
" style="fill: none; stroke: #ff0000; stroke-width: 1.5; stroke-linecap: square"/>
    </g>
    <g id="text_20">
     <!-- Baseline KF State -->
     <g transform="translate(551.465625 68.438437) scale(0.1 -0.1)">
      <defs>
       <path id="DejaVuSans-42" d="M 1259 2228 
L 1259 519 
L 2272 519 
Q 2781 519 3026 730 
Q 3272 941 3272 1375 
Q 3272 1813 3026 2020 
Q 2781 2228 2272 2228 
L 1259 2228 
z
M 1259 4147 
L 1259 2741 
L 2194 2741 
Q 2656 2741 2882 2914 
Q 3109 3088 3109 3444 
Q 3109 3797 2882 3972 
Q 2656 4147 2194 4147 
L 1259 4147 
z
M 628 4666 
L 2241 4666 
Q 2963 4666 3353 4366 
Q 3744 4066 3744 3513 
Q 3744 3084 3544 2831 
Q 3344 2578 2956 2516 
Q 3422 2416 3680 2098 
Q 3938 1781 3938 1306 
Q 3938 681 3513 340 
Q 3088 0 2303 0 
L 628 0 
L 628 4666 
z
" transform="scale(0.015625)"/>
       <path id="DejaVuSans-46" d="M 628 4666 
L 3309 4666 
L 3309 4134 
L 1259 4134 
L 1259 2759 
L 3109 2759 
L 3109 2228 
L 1259 2228 
L 1259 0 
L 628 0 
L 628 4666 
z
" transform="scale(0.015625)"/>
      </defs>
      <use xlink:href="#DejaVuSans-42"/>
      <use xlink:href="#DejaVuSans-61" transform="translate(68.603516 0)"/>
      <use xlink:href="#DejaVuSans-73" transform="translate(129.882812 0)"/>
      <use xlink:href="#DejaVuSans-65" transform="translate(181.982422 0)"/>
      <use xlink:href="#DejaVuSans-6c" transform="translate(243.505859 0)"/>
      <use xlink:href="#DejaVuSans-69" transform="translate(271.289062 0)"/>
      <use xlink:href="#DejaVuSans-6e" transform="translate(299.072266 0)"/>
      <use xlink:href="#DejaVuSans-65" transform="translate(362.451172 0)"/>
      <use xlink:href="#DejaVuSans-20" transform="translate(423.974609 0)"/>
      <use xlink:href="#DejaVuSans-4b" transform="translate(455.761719 0)"/>
      <use xlink:href="#DejaVuSans-46" transform="translate(521.337891 0)"/>
      <use xlink:href="#DejaVuSans-20" transform="translate(578.857422 0)"/>
      <use xlink:href="#DejaVuSans-53" transform="translate(610.644531 0)"/>
      <use xlink:href="#DejaVuSans-74" transform="translate(674.121094 0)"/>
      <use xlink:href="#DejaVuSans-61" transform="translate(713.330078 0)"/>
      <use xlink:href="#DejaVuSans-74" transform="translate(774.609375 0)"/>
      <use xlink:href="#DejaVuSans-65" transform="translate(813.818359 0)"/>
     </g>
    </g>
    <g id="line2d_34">
     <path d="M 523.465625 79.616562 
L 533.465625 79.616562 
L 543.465625 79.616562 
" style="fill: none; stroke-dasharray: 5.55,2.4; stroke-dashoffset: 0; stroke: #0000ff; stroke-width: 1.5"/>
    </g>
    <g id="text_21">
     <!-- Shadow KF State -->
     <g transform="translate(551.465625 83.116562) scale(0.1 -0.1)">
      <defs>
       <path id="DejaVuSans-68" d="M 3513 2113 
L 3513 0 
L 2938 0 
L 2938 2094 
Q 2938 2591 2744 2837 
Q 2550 3084 2163 3084 
Q 1697 3084 1428 2787 
Q 1159 2491 1159 1978 
L 1159 0 
L 581 0 
L 581 4863 
L 1159 4863 
L 1159 2956 
Q 1366 3272 1645 3428 
Q 1925 3584 2291 3584 
Q 2894 3584 3203 3211 
Q 3513 2838 3513 2113 
z
" transform="scale(0.015625)"/>
       <path id="DejaVuSans-77" d="M 269 3500 
L 844 3500 
L 1563 769 
L 2278 3500 
L 2956 3500 
L 3675 769 
L 4391 3500 
L 4966 3500 
L 4050 0 
L 3372 0 
L 2619 2869 
L 1863 0 
L 1184 0 
L 269 3500 
z
" transform="scale(0.015625)"/>
      </defs>
      <use xlink:href="#DejaVuSans-53"/>
      <use xlink:href="#DejaVuSans-68" transform="translate(63.476562 0)"/>
      <use xlink:href="#DejaVuSans-61" transform="translate(126.855469 0)"/>
      <use xlink:href="#DejaVuSans-64" transform="translate(188.134766 0)"/>
      <use xlink:href="#DejaVuSans-6f" transform="translate(251.611328 0)"/>
      <use xlink:href="#DejaVuSans-77" transform="translate(312.792969 0)"/>
      <use xlink:href="#DejaVuSans-20" transform="translate(394.580078 0)"/>
      <use xlink:href="#DejaVuSans-4b" transform="translate(426.367188 0)"/>
      <use xlink:href="#DejaVuSans-46" transform="translate(491.943359 0)"/>
      <use xlink:href="#DejaVuSans-20" transform="translate(549.462891 0)"/>
      <use xlink:href="#DejaVuSans-53" transform="translate(581.25 0)"/>
      <use xlink:href="#DejaVuSans-74" transform="translate(644.726562 0)"/>
      <use xlink:href="#DejaVuSans-61" transform="translate(683.935547 0)"/>
      <use xlink:href="#DejaVuSans-74" transform="translate(745.214844 0)"/>
      <use xlink:href="#DejaVuSans-65" transform="translate(784.423828 0)"/>
     </g>
    </g>
   </g>
  </g>
 </g>
 <defs>
  <clipPath id="pc9aceede18">
   <rect x="90" y="51.84" width="558" height="332.64"/>
  </clipPath>
 </defs>
</svg>
