<?xml version="1.0" encoding="utf-8" standalone="no"?>
<!DOCTYPE svg PUBLIC "-//W3C//DTD SVG 1.1//EN"
  "http://www.w3.org/Graphics/SVG/1.1/DTD/svg11.dtd">
<svg xmlns:xlink="http://www.w3.org/1999/xlink" width="720pt" height="432pt" viewBox="0 0 720 432" xmlns="http://www.w3.org/2000/svg" version="1.1">
 <metadata>
  <rdf:RDF xmlns:dc="http://purl.org/dc/elements/1.1/" xmlns:cc="http://creativecommons.org/ns#" xmlns:rdf="http://www.w3.org/1999/02/22-rdf-syntax-ns#">
   <cc:Work>
    <dc:type rdf:resource="http://purl.org/dc/dcmitype/StillImage"/>
    <dc:date>2026-03-25T09:55:30.306478</dc:date>
    <dc:format>image/svg+xml</dc:format>
    <dc:creator>
     <cc:Agent>
      <dc:title>Matplotlib v3.10.8, https://matplotlib.org/</dc:title>
     </cc:Agent>
    </dc:creator>
   </cc:Work>
  </rdf:RDF>
 </metadata>
 <defs>
  <style type="text/css">*{stroke-linejoin: round; stroke-linecap: butt}</style>
 </defs>
 <g id="figure_1">
  <g id="patch_1">
   <path d="M 0 432 
L 720 432 
L 720 0 
L 0 0 
z
" style="fill: #ffffff"/>
  </g>
  <g id="axes_1">
   <g id="patch_2">
    <path d="M 90 384.48 
L 648 384.48 
L 648 51.84 
L 90 51.84 
z
" style="fill: #ffffff"/>
   </g>
   <g id="matplotlib.axis_1">
    <g id="xtick_1">
     <g id="line2d_1">
      <path d="M 115.363636 384.48 
L 115.363636 51.84 
" clip-path="url(#p5d558c229b)" style="fill: none; stroke: #b0b0b0; stroke-width: 0.8; stroke-linecap: square"/>
     </g>
     <g id="line2d_2">
      <defs>
       <path id="me571a6aca5" d="M 0 0 
L 0 3.5 
" style="stroke: #000000; stroke-width: 0.8"/>
      </defs>
      <g>
       <use xlink:href="#me571a6aca5" x="115.363636" y="384.48" style="stroke: #000000; stroke-width: 0.8"/>
      </g>
     </g>
     <g id="text_1">
      <!-- 0 -->
      <g transform="translate(112.182386 399.078438) scale(0.1 -0.1)">
       <defs>
        <path id="DejaVuSans-30" d="M 2034 4250 
Q 1547 4250 1301 3770 
Q 1056 3291 1056 2328 
Q 1056 1369 1301 889 
Q 1547 409 2034 409 
Q 2525 409 2770 889 
Q 3016 1369 3016 2328 
Q 3016 3291 2770 3770 
Q 2525 4250 2034 4250 
z
M 2034 4750 
Q 2819 4750 3233 4129 
Q 3647 3509 3647 2328 
Q 3647 1150 3233 529 
Q 2819 -91 2034 -91 
Q 1250 -91 836 529 
Q 422 1150 422 2328 
Q 422 3509 836 4129 
Q 1250 4750 2034 4750 
z
" transform="scale(0.015625)"/>
       </defs>
       <use xlink:href="#DejaVuSans-30"/>
      </g>
     </g>
    </g>
    <g id="xtick_2">
     <g id="line2d_3">
      <path d="M 201.605174 384.48 
L 201.605174 51.84 
" clip-path="url(#p5d558c229b)" style="fill: none; stroke: #b0b0b0; stroke-width: 0.8; stroke-linecap: square"/>
     </g>
     <g id="line2d_4">
      <g>
       <use xlink:href="#me571a6aca5" x="201.605174" y="384.48" style="stroke: #000000; stroke-width: 0.8"/>
      </g>
     </g>
     <g id="text_2">
      <!-- 50 -->
      <g transform="translate(195.242674 399.078438) scale(0.1 -0.1)">
       <defs>
        <path id="DejaVuSans-35" d="M 691 4666 
L 3169 4666 
L 3169 4134 
L 1269 4134 
L 1269 2991 
Q 1406 3038 1543 3061 
Q 1681 3084 1819 3084 
Q 2600 3084 3056 2656 
Q 3513 2228 3513 1497 
Q 3513 744 3044 326 
Q 2575 -91 1722 -91 
Q 1428 -91 1123 -41 
Q 819 9 494 109 
L 494 744 
Q 775 591 1075 516 
Q 1375 441 1709 441 
Q 2250 441 2565 725 
Q 2881 1009 2881 1497 
Q 2881 1984 2565 2268 
Q 2250 2553 1709 2553 
Q 1456 2553 1204 2497 
Q 953 2441 691 2322 
L 691 4666 
z
" transform="scale(0.015625)"/>
       </defs>
       <use xlink:href="#DejaVuSans-35"/>
       <use xlink:href="#DejaVuSans-30" transform="translate(63.623047 0)"/>
      </g>
     </g>
    </g>
    <g id="xtick_3">
     <g id="line2d_5">
      <path d="M 287.846713 384.48 
L 287.846713 51.84 
" clip-path="url(#p5d558c229b)" style="fill: none; stroke: #b0b0b0; stroke-width: 0.8; stroke-linecap: square"/>
     </g>
     <g id="line2d_6">
      <g>
       <use xlink:href="#me571a6aca5" x="287.846713" y="384.48" style="stroke: #000000; stroke-width: 0.8"/>
      </g>
     </g>
     <g id="text_3">
      <!-- 100 -->
      <g transform="translate(278.302963 399.078438) scale(0.1 -0.1)">
       <defs>
        <path id="DejaVuSans-31" d="M 794 531 
L 1825 531 
L 1825 4091 
L 703 3866 
L 703 4441 
L 1819 4666 
L 2450 4666 
L 2450 531 
L 3481 531 
L 3481 0 
L 794 0 
L 794 531 
z
" transform="scale(0.015625)"/>
       </defs>
       <use xlink:href="#DejaVuSans-31"/>
       <use xlink:href="#DejaVuSans-30" transform="translate(63.623047 0)"/>
       <use xlink:href="#DejaVuSans-30" transform="translate(127.246094 0)"/>
      </g>
     </g>
    </g>
    <g id="xtick_4">
     <g id="line2d_7">
      <path d="M 374.088251 384.48 
L 374.088251 51.84 
" clip-path="url(#p5d558c229b)" style="fill: none; stroke: #b0b0b0; stroke-width: 0.8; stroke-linecap: square"/>
     </g>
     <g id="line2d_8">
      <g>
       <use xlink:href="#me571a6aca5" x="374.088251" y="384.48" style="stroke: #000000; stroke-width: 0.8"/>
      </g>
     </g>
     <g id="text_4">
      <!-- 150 -->
      <g transform="translate(364.544501 399.078438) scale(0.1 -0.1)">
       <use xlink:href="#DejaVuSans-31"/>
       <use xlink:href="#DejaVuSans-35" transform="translate(63.623047 0)"/>
       <use xlink:href="#DejaVuSans-30" transform="translate(127.246094 0)"/>
      </g>
     </g>
    </g>
    <g id="xtick_5">
     <g id="line2d_9">
      <path d="M 460.329789 384.48 
L 460.329789 51.84 
" clip-path="url(#p5d558c229b)" style="fill: none; stroke: #b0b0b0; stroke-width: 0.8; stroke-linecap: square"/>
     </g>
     <g id="line2d_10">
      <g>
       <use xlink:href="#me571a6aca5" x="460.329789" y="384.48" style="stroke: #000000; stroke-width: 0.8"/>
      </g>
     </g>
     <g id="text_5">
      <!-- 200 -->
      <g transform="translate(450.786039 399.078438) scale(0.1 -0.1)">
       <defs>
        <path id="DejaVuSans-32" d="M 1228 531 
L 3431 531 
L 3431 0 
L 469 0 
L 469 531 
Q 828 903 1448 1529 
Q 2069 2156 2228 2338 
Q 2531 2678 2651 2914 
Q 2772 3150 2772 3378 
Q 2772 3750 2511 3984 
Q 2250 4219 1831 4219 
Q 1534 4219 1204 4116 
Q 875 4013 500 3803 
L 500 4441 
Q 881 4594 1212 4672 
Q 1544 4750 1819 4750 
Q 2544 4750 2975 4387 
Q 3406 4025 3406 3419 
Q 3406 3131 3298 2873 
Q 3191 2616 2906 2266 
Q 2828 2175 2409 1742 
Q 1991 1309 1228 531 
z
" transform="scale(0.015625)"/>
       </defs>
       <use xlink:href="#DejaVuSans-32"/>
       <use xlink:href="#DejaVuSans-30" transform="translate(63.623047 0)"/>
       <use xlink:href="#DejaVuSans-30" transform="translate(127.246094 0)"/>
      </g>
     </g>
    </g>
    <g id="xtick_6">
     <g id="line2d_11">
      <path d="M 546.571327 384.48 
L 546.571327 51.84 
" clip-path="url(#p5d558c229b)" style="fill: none; stroke: #b0b0b0; stroke-width: 0.8; stroke-linecap: square"/>
     </g>
     <g id="line2d_12">
      <g>
       <use xlink:href="#me571a6aca5" x="546.571327" y="384.48" style="stroke: #000000; stroke-width: 0.8"/>
      </g>
     </g>
     <g id="text_6">
      <!-- 250 -->
      <g transform="translate(537.027577 399.078438) scale(0.1 -0.1)">
       <use xlink:href="#DejaVuSans-32"/>
       <use xlink:href="#DejaVuSans-35" transform="translate(63.623047 0)"/>
       <use xlink:href="#DejaVuSans-30" transform="translate(127.246094 0)"/>
      </g>
     </g>
    </g>
    <g id="xtick_7">
     <g id="line2d_13">
      <path d="M 632.812865 384.48 
L 632.812865 51.84 
" clip-path="url(#p5d558c229b)" style="fill: none; stroke: #b0b0b0; stroke-width: 0.8; stroke-linecap: square"/>
     </g>
     <g id="line2d_14">
      <g>
       <use xlink:href="#me571a6aca5" x="632.812865" y="384.48" style="stroke: #000000; stroke-width: 0.8"/>
      </g>
     </g>
     <g id="text_7">
      <!-- 300 -->
      <g transform="translate(623.269115 399.078438) scale(0.1 -0.1)">
       <defs>
        <path id="DejaVuSans-33" d="M 2597 2516 
Q 3050 2419 3304 2112 
Q 3559 1806 3559 1356 
Q 3559 666 3084 287 
Q 2609 -91 1734 -91 
Q 1441 -91 1130 -33 
Q 819 25 488 141 
L 488 750 
Q 750 597 1062 519 
Q 1375 441 1716 441 
Q 2309 441 2620 675 
Q 2931 909 2931 1356 
Q 2931 1769 2642 2001 
Q 2353 2234 1838 2234 
L 1294 2234 
L 1294 2753 
L 1863 2753 
Q 2328 2753 2575 2939 
Q 2822 3125 2822 3475 
Q 2822 3834 2567 4026 
Q 2313 4219 1838 4219 
Q 1578 4219 1281 4162 
Q 984 4106 628 3988 
L 628 4550 
Q 988 4650 1302 4700 
Q 1616 4750 1894 4750 
Q 2613 4750 3031 4423 
Q 3450 4097 3450 3541 
Q 3450 3153 3228 2886 
Q 3006 2619 2597 2516 
z
" transform="scale(0.015625)"/>
       </defs>
       <use xlink:href="#DejaVuSans-33"/>
       <use xlink:href="#DejaVuSans-30" transform="translate(63.623047 0)"/>
       <use xlink:href="#DejaVuSans-30" transform="translate(127.246094 0)"/>
      </g>
     </g>
    </g>
    <g id="text_8">
     <!-- Maneuver Time (s) -->
     <g transform="translate(322.198438 412.756563) scale(0.1 -0.1)">
      <defs>
       <path id="DejaVuSans-4d" d="M 628 4666 
L 1569 4666 
L 2759 1491 
L 3956 4666 
L 4897 4666 
L 4897 0 
L 4281 0 
L 4281 4097 
L 3078 897 
L 2444 897 
L 1241 4097 
L 1241 0 
L 628 0 
L 628 4666 
z
" transform="scale(0.015625)"/>
       <path id="DejaVuSans-61" d="M 2194 1759 
Q 1497 1759 1228 1600 
Q 959 1441 959 1056 
Q 959 750 1161 570 
Q 1363 391 1709 391 
Q 2188 391 2477 730 
Q 2766 1069 2766 1631 
L 2766 1759 
L 2194 1759 
z
M 3341 1997 
L 3341 0 
L 2766 0 
L 2766 531 
Q 2569 213 2275 61 
Q 1981 -91 1556 -91 
Q 1019 -91 701 211 
Q 384 513 384 1019 
Q 384 1609 779 1909 
Q 1175 2209 1959 2209 
L 2766 2209 
L 2766 2266 
Q 2766 2663 2505 2880 
Q 2244 3097 1772 3097 
Q 1472 3097 1187 3025 
Q 903 2953 641 2809 
L 641 3341 
Q 956 3463 1253 3523 
Q 1550 3584 1831 3584 
Q 2591 3584 2966 3190 
Q 3341 2797 3341 1997 
z
" transform="scale(0.015625)"/>
       <path id="DejaVuSans-6e" d="M 3513 2113 
L 3513 0 
L 2938 0 
L 2938 2094 
Q 2938 2591 2744 2837 
Q 2550 3084 2163 3084 
Q 1697 3084 1428 2787 
Q 1159 2491 1159 1978 
L 1159 0 
L 581 0 
L 581 3500 
L 1159 3500 
L 1159 2956 
Q 1366 3272 1645 3428 
Q 1925 3584 2291 3584 
Q 2894 3584 3203 3211 
Q 3513 2838 3513 2113 
z
" transform="scale(0.015625)"/>
       <path id="DejaVuSans-65" d="M 3597 1894 
L 3597 1613 
L 953 1613 
Q 991 1019 1311 708 
Q 1631 397 2203 397 
Q 2534 397 2845 478 
Q 3156 559 3463 722 
L 3463 178 
Q 3153 47 2828 -22 
Q 2503 -91 2169 -91 
Q 1331 -91 842 396 
Q 353 884 353 1716 
Q 353 2575 817 3079 
Q 1281 3584 2069 3584 
Q 2775 3584 3186 3129 
Q 3597 2675 3597 1894 
z
M 3022 2063 
Q 3016 2534 2758 2815 
Q 2500 3097 2075 3097 
Q 1594 3097 1305 2825 
Q 1016 2553 972 2059 
L 3022 2063 
z
" transform="scale(0.015625)"/>
       <path id="DejaVuSans-75" d="M 544 1381 
L 544 3500 
L 1119 3500 
L 1119 1403 
Q 1119 906 1312 657 
Q 1506 409 1894 409 
Q 2359 409 2629 706 
Q 2900 1003 2900 1516 
L 2900 3500 
L 3475 3500 
L 3475 0 
L 2900 0 
L 2900 538 
Q 2691 219 2414 64 
Q 2138 -91 1772 -91 
Q 1169 -91 856 284 
Q 544 659 544 1381 
z
M 1991 3584 
L 1991 3584 
z
" transform="scale(0.015625)"/>
       <path id="DejaVuSans-76" d="M 191 3500 
L 800 3500 
L 1894 563 
L 2988 3500 
L 3597 3500 
L 2284 0 
L 1503 0 
L 191 3500 
z
" transform="scale(0.015625)"/>
       <path id="DejaVuSans-72" d="M 2631 2963 
Q 2534 3019 2420 3045 
Q 2306 3072 2169 3072 
Q 1681 3072 1420 2755 
Q 1159 2438 1159 1844 
L 1159 0 
L 581 0 
L 581 3500 
L 1159 3500 
L 1159 2956 
Q 1341 3275 1631 3429 
Q 1922 3584 2338 3584 
Q 2397 3584 2469 3576 
Q 2541 3569 2628 3553 
L 2631 2963 
z
" transform="scale(0.015625)"/>
       <path id="DejaVuSans-20" transform="scale(0.015625)"/>
       <path id="DejaVuSans-54" d="M -19 4666 
L 3928 4666 
L 3928 4134 
L 2272 4134 
L 2272 0 
L 1638 0 
L 1638 4134 
L -19 4134 
L -19 4666 
z
" transform="scale(0.015625)"/>
       <path id="DejaVuSans-69" d="M 603 3500 
L 1178 3500 
L 1178 0 
L 603 0 
L 603 3500 
z
M 603 4863 
L 1178 4863 
L 1178 4134 
L 603 4134 
L 603 4863 
z
" transform="scale(0.015625)"/>
       <path id="DejaVuSans-6d" d="M 3328 2828 
Q 3544 3216 3844 3400 
Q 4144 3584 4550 3584 
Q 5097 3584 5394 3201 
Q 5691 2819 5691 2113 
L 5691 0 
L 5113 0 
L 5113 2094 
Q 5113 2597 4934 2840 
Q 4756 3084 4391 3084 
Q 3944 3084 3684 2787 
Q 3425 2491 3425 1978 
L 3425 0 
L 2847 0 
L 2847 2094 
Q 2847 2600 2669 2842 
Q 2491 3084 2119 3084 
Q 1678 3084 1418 2786 
Q 1159 2488 1159 1978 
L 1159 0 
L 581 0 
L 581 3500 
L 1159 3500 
L 1159 2956 
Q 1356 3278 1631 3431 
Q 1906 3584 2284 3584 
Q 2666 3584 2933 3390 
Q 3200 3197 3328 2828 
z
" transform="scale(0.015625)"/>
       <path id="DejaVuSans-28" d="M 1984 4856 
Q 1566 4138 1362 3434 
Q 1159 2731 1159 2009 
Q 1159 1288 1364 580 
Q 1569 -128 1984 -844 
L 1484 -844 
Q 1016 -109 783 600 
Q 550 1309 550 2009 
Q 550 2706 781 3412 
Q 1013 4119 1484 4856 
L 1984 4856 
z
" transform="scale(0.015625)"/>
       <path id="DejaVuSans-73" d="M 2834 3397 
L 2834 2853 
Q 2591 2978 2328 3040 
Q 2066 3103 1784 3103 
Q 1356 3103 1142 2972 
Q 928 2841 928 2578 
Q 928 2378 1081 2264 
Q 1234 2150 1697 2047 
L 1894 2003 
Q 2506 1872 2764 1633 
Q 3022 1394 3022 966 
Q 3022 478 2636 193 
Q 2250 -91 1575 -91 
Q 1294 -91 989 -36 
Q 684 19 347 128 
L 347 722 
Q 666 556 975 473 
Q 1284 391 1588 391 
Q 1994 391 2212 530 
Q 2431 669 2431 922 
Q 2431 1156 2273 1281 
Q 2116 1406 1581 1522 
L 1381 1569 
Q 847 1681 609 1914 
Q 372 2147 372 2553 
Q 372 3047 722 3315 
Q 1072 3584 1716 3584 
Q 2034 3584 2315 3537 
Q 2597 3491 2834 3397 
z
" transform="scale(0.015625)"/>
       <path id="DejaVuSans-29" d="M 513 4856 
L 1013 4856 
Q 1481 4119 1714 3412 
Q 1947 2706 1947 2009 
Q 1947 1309 1714 600 
Q 1481 -109 1013 -844 
L 513 -844 
Q 928 -128 1133 580 
Q 1338 1288 1338 2009 
Q 1338 2731 1133 3434 
Q 928 4138 513 4856 
z
" transform="scale(0.015625)"/>
      </defs>
      <use xlink:href="#DejaVuSans-4d"/>
      <use xlink:href="#DejaVuSans-61" transform="translate(86.279297 0)"/>
      <use xlink:href="#DejaVuSans-6e" transform="translate(147.558594 0)"/>
      <use xlink:href="#DejaVuSans-65" transform="translate(210.9375 0)"/>
      <use xlink:href="#DejaVuSans-75" transform="translate(272.460938 0)"/>
      <use xlink:href="#DejaVuSans-76" transform="translate(335.839844 0)"/>
      <use xlink:href="#DejaVuSans-65" transform="translate(395.019531 0)"/>
      <use xlink:href="#DejaVuSans-72" transform="translate(456.542969 0)"/>
      <use xlink:href="#DejaVuSans-20" transform="translate(497.65625 0)"/>
      <use xlink:href="#DejaVuSans-54" transform="translate(529.443359 0)"/>
      <use xlink:href="#DejaVuSans-69" transform="translate(587.402344 0)"/>
      <use xlink:href="#DejaVuSans-6d" transform="translate(615.185547 0)"/>
      <use xlink:href="#DejaVuSans-65" transform="translate(712.597656 0)"/>
      <use xlink:href="#DejaVuSans-20" transform="translate(774.121094 0)"/>
      <use xlink:href="#DejaVuSans-28" transform="translate(805.908203 0)"/>
      <use xlink:href="#DejaVuSans-73" transform="translate(844.921875 0)"/>
      <use xlink:href="#DejaVuSans-29" transform="translate(897.021484 0)"/>
     </g>
    </g>
   </g>
   <g id="matplotlib.axis_2">
    <g id="ytick_1">
     <g id="line2d_15">
      <path d="M 90 354.050979 
L 648 354.050979 
" clip-path="url(#p5d558c229b)" style="fill: none; stroke: #b0b0b0; stroke-width: 0.8; stroke-linecap: square"/>
     </g>
     <g id="line2d_16">
      <defs>
       <path id="m2e4754ebc0" d="M 0 0 
L -3.5 0 
" style="stroke: #000000; stroke-width: 0.8"/>
      </defs>
      <g>
       <use xlink:href="#m2e4754ebc0" x="90" y="354.050979" style="stroke: #000000; stroke-width: 0.8"/>
      </g>
     </g>
     <g id="text_9">
      <!-- −2.5 -->
      <g transform="translate(58.717187 357.850198) scale(0.1 -0.1)">
       <defs>
        <path id="DejaVuSans-2212" d="M 678 2272 
L 4684 2272 
L 4684 1741 
L 678 1741 
L 678 2272 
z
" transform="scale(0.015625)"/>
        <path id="DejaVuSans-2e" d="M 684 794 
L 1344 794 
L 1344 0 
L 684 0 
L 684 794 
z
" transform="scale(0.015625)"/>
       </defs>
       <use xlink:href="#DejaVuSans-2212"/>
       <use xlink:href="#DejaVuSans-32" transform="translate(83.789062 0)"/>
       <use xlink:href="#DejaVuSans-2e" transform="translate(147.412109 0)"/>
       <use xlink:href="#DejaVuSans-35" transform="translate(179.199219 0)"/>
      </g>
     </g>
    </g>
    <g id="ytick_2">
     <g id="line2d_17">
      <path d="M 90 309.882903 
L 648 309.882903 
" clip-path="url(#p5d558c229b)" style="fill: none; stroke: #b0b0b0; stroke-width: 0.8; stroke-linecap: square"/>
     </g>
     <g id="line2d_18">
      <g>
       <use xlink:href="#m2e4754ebc0" x="90" y="309.882903" style="stroke: #000000; stroke-width: 0.8"/>
      </g>
     </g>
     <g id="text_10">
      <!-- −2.0 -->
      <g transform="translate(58.717187 313.682122) scale(0.1 -0.1)">
       <use xlink:href="#DejaVuSans-2212"/>
       <use xlink:href="#DejaVuSans-32" transform="translate(83.789062 0)"/>
       <use xlink:href="#DejaVuSans-2e" transform="translate(147.412109 0)"/>
       <use xlink:href="#DejaVuSans-30" transform="translate(179.199219 0)"/>
      </g>
     </g>
    </g>
    <g id="ytick_3">
     <g id="line2d_19">
      <path d="M 90 265.714827 
L 648 265.714827 
" clip-path="url(#p5d558c229b)" style="fill: none; stroke: #b0b0b0; stroke-width: 0.8; stroke-linecap: square"/>
     </g>
     <g id="line2d_20">
      <g>
       <use xlink:href="#m2e4754ebc0" x="90" y="265.714827" style="stroke: #000000; stroke-width: 0.8"/>
      </g>
     </g>
     <g id="text_11">
      <!-- −1.5 -->
      <g transform="translate(58.717187 269.514046) scale(0.1 -0.1)">
       <use xlink:href="#DejaVuSans-2212"/>
       <use xlink:href="#DejaVuSans-31" transform="translate(83.789062 0)"/>
       <use xlink:href="#DejaVuSans-2e" transform="translate(147.412109 0)"/>
       <use xlink:href="#DejaVuSans-35" transform="translate(179.199219 0)"/>
      </g>
     </g>
    </g>
    <g id="ytick_4">
     <g id="line2d_21">
      <path d="M 90 221.546752 
L 648 221.546752 
" clip-path="url(#p5d558c229b)" style="fill: none; stroke: #b0b0b0; stroke-width: 0.8; stroke-linecap: square"/>
     </g>
     <g id="line2d_22">
      <g>
       <use xlink:href="#m2e4754ebc0" x="90" y="221.546752" style="stroke: #000000; stroke-width: 0.8"/>
      </g>
     </g>
     <g id="text_12">
      <!-- −1.0 -->
      <g transform="translate(58.717187 225.345971) scale(0.1 -0.1)">
       <use xlink:href="#DejaVuSans-2212"/>
       <use xlink:href="#DejaVuSans-31" transform="translate(83.789062 0)"/>
       <use xlink:href="#DejaVuSans-2e" transform="translate(147.412109 0)"/>
       <use xlink:href="#DejaVuSans-30" transform="translate(179.199219 0)"/>
      </g>
     </g>
    </g>
    <g id="ytick_5">
     <g id="line2d_23">
      <path d="M 90 177.378676 
L 648 177.378676 
" clip-path="url(#p5d558c229b)" style="fill: none; stroke: #b0b0b0; stroke-width: 0.8; stroke-linecap: square"/>
     </g>
     <g id="line2d_24">
      <g>
       <use xlink:href="#m2e4754ebc0" x="90" y="177.378676" style="stroke: #000000; stroke-width: 0.8"/>
      </g>
     </g>
     <g id="text_13">
      <!-- −0.5 -->
      <g transform="translate(58.717187 181.177895) scale(0.1 -0.1)">
       <use xlink:href="#DejaVuSans-2212"/>
       <use xlink:href="#DejaVuSans-30" transform="translate(83.789062 0)"/>
       <use xlink:href="#DejaVuSans-2e" transform="translate(147.412109 0)"/>
       <use xlink:href="#DejaVuSans-35" transform="translate(179.199219 0)"/>
      </g>
     </g>
    </g>
    <g id="ytick_6">
     <g id="line2d_25">
      <path d="M 90 133.2106 
L 648 133.2106 
" clip-path="url(#p5d558c229b)" style="fill: none; stroke: #b0b0b0; stroke-width: 0.8; stroke-linecap: square"/>
     </g>
     <g id="line2d_26">
      <g>
       <use xlink:href="#m2e4754ebc0" x="90" y="133.2106" style="stroke: #000000; stroke-width: 0.8"/>
      </g>
     </g>
     <g id="text_14">
      <!-- 0.0 -->
      <g transform="translate(67.096875 137.009819) scale(0.1 -0.1)">
       <use xlink:href="#DejaVuSans-30"/>
       <use xlink:href="#DejaVuSans-2e" transform="translate(63.623047 0)"/>
       <use xlink:href="#DejaVuSans-30" transform="translate(95.410156 0)"/>
      </g>
     </g>
    </g>
    <g id="ytick_7">
     <g id="line2d_27">
      <path d="M 90 89.042525 
L 648 89.042525 
" clip-path="url(#p5d558c229b)" style="fill: none; stroke: #b0b0b0; stroke-width: 0.8; stroke-linecap: square"/>
     </g>
     <g id="line2d_28">
      <g>
       <use xlink:href="#m2e4754ebc0" x="90" y="89.042525" style="stroke: #000000; stroke-width: 0.8"/>
      </g>
     </g>
     <g id="text_15">
      <!-- 0.5 -->
      <g transform="translate(67.096875 92.841743) scale(0.1 -0.1)">
       <use xlink:href="#DejaVuSans-30"/>
       <use xlink:href="#DejaVuSans-2e" transform="translate(63.623047 0)"/>
       <use xlink:href="#DejaVuSans-35" transform="translate(95.410156 0)"/>
      </g>
     </g>
    </g>
    <g id="text_16">
     <!-- Estimated Value -->
     <g transform="translate(52.6375 258.738906) rotate(-90) scale(0.1 -0.1)">
      <defs>
       <path id="DejaVuSans-45" d="M 628 4666 
L 3578 4666 
L 3578 4134 
L 1259 4134 
L 1259 2753 
L 3481 2753 
L 3481 2222 
L 1259 2222 
L 1259 531 
L 3634 531 
L 3634 0 
L 628 0 
L 628 4666 
z
" transform="scale(0.015625)"/>
       <path id="DejaVuSans-74" d="M 1172 4494 
L 1172 3500 
L 2356 3500 
L 2356 3053 
L 1172 3053 
L 1172 1153 
Q 1172 725 1289 603 
Q 1406 481 1766 481 
L 2356 481 
L 2356 0 
L 1766 0 
Q 1100 0 847 248 
Q 594 497 594 1153 
L 594 3053 
L 172 3053 
L 172 3500 
L 594 3500 
L 594 4494 
L 1172 4494 
z
" transform="scale(0.015625)"/>
       <path id="DejaVuSans-64" d="M 2906 2969 
L 2906 4863 
L 3481 4863 
L 3481 0 
L 2906 0 
L 2906 525 
Q 2725 213 2448 61 
Q 2172 -91 1784 -91 
Q 1150 -91 751 415 
Q 353 922 353 1747 
Q 353 2572 751 3078 
Q 1150 3584 1784 3584 
Q 2172 3584 2448 3432 
Q 2725 3281 2906 2969 
z
M 947 1747 
Q 947 1113 1208 752 
Q 1469 391 1925 391 
Q 2381 391 2643 752 
Q 2906 1113 2906 1747 
Q 2906 2381 2643 2742 
Q 2381 3103 1925 3103 
Q 1469 3103 1208 2742 
Q 947 2381 947 1747 
z
" transform="scale(0.015625)"/>
       <path id="DejaVuSans-56" d="M 1831 0 
L 50 4666 
L 709 4666 
L 2188 738 
L 3669 4666 
L 4325 4666 
L 2547 0 
L 1831 0 
z
" transform="scale(0.015625)"/>
       <path id="DejaVuSans-6c" d="M 603 4863 
L 1178 4863 
L 1178 0 
L 603 0 
L 603 4863 
z
" transform="scale(0.015625)"/>
      </defs>
      <use xlink:href="#DejaVuSans-45"/>
      <use xlink:href="#DejaVuSans-73" transform="translate(63.183594 0)"/>
      <use xlink:href="#DejaVuSans-74" transform="translate(115.283203 0)"/>
      <use xlink:href="#DejaVuSans-69" transform="translate(154.492188 0)"/>
      <use xlink:href="#DejaVuSans-6d" transform="translate(182.275391 0)"/>
      <use xlink:href="#DejaVuSans-61" transform="translate(279.6875 0)"/>
      <use xlink:href="#DejaVuSans-74" transform="translate(340.966797 0)"/>
      <use xlink:href="#DejaVuSans-65" transform="translate(380.175781 0)"/>
      <use xlink:href="#DejaVuSans-64" transform="translate(441.699219 0)"/>
      <use xlink:href="#DejaVuSans-20" transform="translate(505.175781 0)"/>
      <use xlink:href="#DejaVuSans-56" transform="translate(536.962891 0)"/>
      <use xlink:href="#DejaVuSans-61" transform="translate(597.621094 0)"/>
      <use xlink:href="#DejaVuSans-6c" transform="translate(658.900391 0)"/>
      <use xlink:href="#DejaVuSans-75" transform="translate(686.683594 0)"/>
      <use xlink:href="#DejaVuSans-65" transform="translate(750.0625 0)"/>
     </g>
    </g>
    <g id="text_17">
     <!-- 1e−5 -->
     <g transform="translate(90 48.84) scale(0.1 -0.1)">
      <use xlink:href="#DejaVuSans-31"/>
      <use xlink:href="#DejaVuSans-65" transform="translate(63.623047 0)"/>
      <use xlink:href="#DejaVuSans-2212" transform="translate(125.146484 0)"/>
      <use xlink:href="#DejaVuSans-35" transform="translate(208.935547 0)"/>
     </g>
    </g>
   </g>
   <g id="line2d_29">
    <path d="M 115.363636 133.2106 
L 128.88631 133.217696 
L 128.920806 151.946541 
L 128.955303 133.658193 
L 129.127786 77.408097 
L 129.334766 71.295379 
L 129.576242 69.752109 
L 129.886711 69.041736 
L 130.300671 68.635925 
L 130.92161 68.366364 
L 131.922012 68.199678 
L 133.543353 68.172941 
L 135.854626 68.369263 
L 145.548175 69.439617 
L 145.962134 69.439617 
L 145.996631 155.303299 
L 146.065624 135.744782 
L 146.169114 122.362545 
L 146.20361 123.205746 
L 146.686563 140.573142 
L 147.066026 145.554654 
L 147.514482 148.70819 
L 148.066428 151.088762 
L 148.75636 153.091044 
L 149.584279 154.821426 
L 150.550184 156.323352 
L 151.550586 157.471904 
L 152.516491 158.257797 
L 152.792464 158.324846 
L 154.413805 158.324846 
L 154.551791 229.192017 
L 154.862261 246.652596 
L 155.17273 252.341569 
L 155.517697 255.066322 
L 155.931656 256.71554 
L 156.414609 257.749784 
L 156.966554 258.405594 
L 157.62199 258.826453 
L 158.415412 259.062313 
L 159.450311 259.122596 
L 160.795679 258.96454 
L 161.658094 258.910238 
L 162.865476 258.910238 
L 162.968965 265.22575 
L 163.003462 265.197956 
L 163.210442 264.620278 
L 163.796884 263.104751 
L 164.417823 262.117914 
L 165.176749 261.321353 
L 166.177151 260.608008 
L 167.488022 259.958971 
L 169.281846 259.329418 
L 169.902785 259.258652 
L 171.317146 259.258652 
L 171.38614 261.791381 
L 171.455133 261.706258 
L 172.076072 260.888858 
L 172.628018 260.593269 
L 173.455936 260.421719 
L 174.973788 260.369619 
L 179.768817 260.466772 
L 179.906803 265.820863 
L 183.977404 266.361472 
L 187.599549 266.634232 
L 188.220488 266.634232 
L 188.392971 276.228331 
L 188.599951 278.016724 
L 188.875923 278.50633 
L 189.358876 278.836493 
L 190.497264 279.276062 
L 192.601558 279.844111 
L 194.705851 280.189676 
L 195.913233 280.207393 
L 196.672159 280.207393 
L 196.706655 279.029443 
L 196.741152 279.615696 
L 196.948131 283.121604 
L 197.155111 283.59219 
L 197.500077 283.771945 
L 198.431486 283.902367 
L 201.122222 284.027313 
L 203.019536 283.904971 
L 204.192421 283.861811 
L 205.123829 283.861811 
L 205.158326 277.109502 
L 205.261816 277.410302 
L 205.744768 279.440149 
L 206.331211 280.691368 
L 207.504096 282.600003 
L 209.228926 284.991452 
L 210.815771 286.83116 
L 211.850669 287.759802 
L 213.5755 287.759802 
L 213.609997 282.272186 
L 213.713486 283.102997 
L 214.092949 286.446543 
L 214.403419 287.393954 
L 214.748385 287.807026 
L 215.162344 287.943495 
L 215.679794 287.858181 
L 216.438719 287.477582 
L 217.508114 286.670144 
L 219.094958 285.165723 
L 220.40583 283.977072 
L 222.027171 283.977072 
L 222.096164 280.615041 
L 222.165157 280.817367 
L 222.475627 283.015751 
L 223.027573 286.109418 
L 223.614015 288.156761 
L 224.269451 289.647972 
L 224.99388 290.747062 
L 225.787302 291.559584 
L 226.71871 292.191273 
L 227.788105 292.641714 
L 228.857501 292.864821 
L 230.478841 292.864821 
L 230.616828 290.910131 
L 231.686223 287.420039 
L 232.376155 286.190132 
L 233.204074 285.168495 
L 234.273469 284.217342 
L 235.68783 283.270063 
L 237.240178 282.477263 
L 238.930512 282.477263 
L 239.068499 281.397217 
L 240.37937 277.259204 
L 241.103799 276.077607 
L 241.966214 275.110586 
L 243.001113 274.297901 
L 244.277488 273.589708 
L 245.657352 273.061593 
L 247.382183 273.061593 
L 247.451176 271.812918 
L 247.520169 271.993604 
L 248.072115 273.745671 
L 248.589564 274.477912 
L 249.382987 275.185806 
L 250.590368 275.942506 
L 252.039226 276.589967 
L 253.557077 277.027891 
L 254.522982 277.11889 
L 255.833854 277.11889 
L 255.97184 284.666386 
L 256.489289 288.172132 
L 256.903249 289.375131 
L 257.351705 290.052568 
L 257.834657 290.406694 
L 258.386603 290.52859 
L 259.042039 290.423667 
L 259.835461 290.058171 
L 260.870359 289.323973 
L 262.284721 288.028222 
L 262.629687 287.819753 
L 264.285524 287.819753 
L 264.389014 287.472748 
L 264.423511 287.489198 
L 264.664987 287.894018 
L 265.14794 288.579462 
L 265.665389 288.926747 
L 266.251831 289.047836 
L 267.010757 288.966678 
L 268.080152 288.612326 
L 269.73599 287.802901 
L 271.219344 287.117641 
L 272.737195 287.117641 
L 272.875182 278.018625 
L 273.289141 276.984309 
L 273.91008 275.996824 
L 274.669006 275.20744 
L 275.634911 274.52876 
L 276.945782 273.89059 
L 278.843096 273.231108 
L 279.740008 273.070781 
L 281.188866 273.070781 
L 281.326852 270.174922 
L 282.465241 266.983341 
L 283.224166 265.755627 
L 284.121078 264.74244 
L 284.431548 264.461607 
L 284.569534 133.2106 
L 298.023214 133.280647 
L 298.195697 135.335725 
L 298.437174 135.458464 
L 299.541065 135.529182 
L 309.89005 135.823581 
L 315.064542 135.857311 
L 315.099039 154.028065 
L 315.202529 153.21923 
L 315.857964 164.649169 
L 316.237427 166.301804 
L 316.685883 167.329043 
L 317.272325 168.103726 
L 318.031251 168.714682 
L 319.066149 169.244333 
L 320.480511 169.708585 
L 321.929368 169.977404 
L 323.516213 169.977404 
L 323.550709 160.02053 
L 323.654199 161.288396 
L 324.033662 168.379438 
L 324.378628 170.586679 
L 324.792588 171.790457 
L 325.27554 172.516624 
L 325.861983 173.002312 
L 326.655405 173.356878 
L 327.793793 173.598107 
L 329.518624 173.71477 
L 331.967884 173.721914 
L 332.10587 175.447545 
L 332.485333 175.735317 
L 333.209762 176.1517 
L 334.279157 176.482067 
L 335.969491 176.742672 
L 338.763717 176.925889 
L 340.419554 176.925889 
L 340.523044 179.540003 
L 340.557541 179.5287 
L 341.799419 178.998288 
L 343.11029 178.853669 
L 345.904516 178.811861 
L 348.871225 178.823346 
L 349.009211 185.161203 
L 357.357392 185.331133 
L 357.840345 185.681943 
L 359.841149 185.808037 
L 365.567587 185.994195 
L 365.774566 185.994195 
L 365.912553 185.784065 
L 366.533492 185.795471 
L 374.226237 186.16541 
L 374.29523 185.709736 
L 374.364224 185.774664 
L 374.950666 186.588337 
L 375.640598 186.970587 
L 377.123953 187.485102 
L 379.814689 188.174794 
L 381.33254 188.391268 
L 382.677908 188.391268 
L 382.712405 187.909916 
L 382.781398 188.017646 
L 383.333344 188.562036 
L 383.954283 188.703806 
L 385.230657 188.722401 
L 387.817904 188.50547 
L 390.40515 188.334304 
L 391.129579 188.334304 
L 391.267565 188.65265 
L 391.750518 189.418012 
L 392.371457 190.097823 
L 393.164879 190.61959 
L 394.199777 191.022704 
L 395.683132 191.345403 
L 397.821922 191.566535 
L 399.684739 191.466407 
L 401.064604 190.877873 
L 402.547958 190.625589 
L 405.480171 190.389578 
L 408.03292 190.347524 
L 408.101913 192.403068 
L 408.170907 192.388209 
L 409.309295 191.951137 
L 410.758153 191.729995 
L 413.586875 191.559898 
L 416.484591 191.524571 
L 416.622577 187.971981 
L 417.10553 187.636097 
L 417.760966 187.591353 
L 419.658279 187.77238 
L 423.83237 188.140734 
L 424.936262 188.140734 
L 425.074248 183.495579 
L 425.419214 183.077818 
L 425.86767 182.962383 
L 427.109548 182.987653 
L 430.041761 182.993225 
L 433.387932 182.921819 
L 433.525919 183.139372 
L 436.113165 183.135383 
L 441.839603 182.975164 
L 441.97759 181.667431 
L 442.736515 181.460178 
L 444.392353 181.256694 
L 448.152484 181.065609 
L 450.63624 180.879687 
L 451.533152 180.470893 
L 452.844023 180.152208 
L 453.533956 180.044765 
L 453.568452 133.21138 
L 453.671942 133.23646 
L 454.223888 133.279576 
L 460.053816 133.319957 
L 466.746159 133.520168 
L 467.091125 133.520168 
L 467.229112 134.625922 
L 467.505085 134.949284 
L 467.988037 135.054267 
L 469.988841 135.126957 
L 484.16695 135.543833 
L 484.201447 145.952223 
L 484.304936 145.724529 
L 484.37393 145.822712 
L 485.167352 148.357615 
L 485.684801 148.95568 
L 486.374733 149.385387 
L 487.409632 149.737493 
L 489.099966 150.05128 
L 491.342246 150.252096 
L 492.618621 150.252096 
L 492.756607 152.606155 
L 493.412043 155.387184 
L 493.860499 156.009181 
L 494.446941 156.417986 
L 495.309357 156.726626 
L 496.758215 156.980911 
L 499.379957 157.18603 
L 501.070291 157.18603 
L 501.208278 157.379852 
L 501.656734 157.644886 
L 502.484653 157.986655 
L 503.830021 158.272052 
L 506.141294 158.506156 
L 509.073506 158.594881 
L 509.521962 158.594881 
L 509.625452 159.980308 
L 509.659949 159.977855 
L 511.695249 159.787551 
L 516.352292 159.777532 
L 517.973633 159.777532 
L 518.111619 163.129747 
L 522.596179 163.039254 
L 526.425304 163.047425 
L 526.632283 162.134537 
L 526.87376 161.733228 
L 527.287719 161.589856 
L 528.495101 161.513366 
L 534.738988 161.474774 
L 534.876974 161.474774 
L 535.083954 160.153706 
L 535.32543 159.581033 
L 535.670397 159.421057 
L 536.498315 159.375019 
L 539.80999 159.530146 
L 543.328645 159.613106 
L 543.466632 160.019597 
L 545.467435 160.551261 
L 548.848104 160.897212 
L 551.262867 160.982109 
L 551.780316 160.982109 
L 551.918302 157.032871 
L 552.332262 156.481058 
L 552.849711 156.239858 
L 553.953603 156.022064 
L 556.885815 155.725182 
L 559.680041 155.611618 
L 560.231987 155.611618 
L 560.369973 155.903445 
L 561.059905 156.442023 
L 561.922321 156.86166 
L 563.164199 157.198984 
L 565.061513 157.463384 
L 567.579766 157.592437 
L 568.994127 157.486681 
L 570.442985 157.346249 
L 574.272109 157.26463 
L 577.135328 157.255369 
L 577.238818 158.60522 
L 577.273315 158.598923 
L 578.722172 158.358691 
L 581.516398 158.210797 
L 585.586999 158.154798 
L 585.724985 154.411956 
L 586.242435 153.639261 
L 586.759884 153.400547 
L 587.691292 153.256772 
L 589.864579 153.196553 
L 594.03867 153.213386 
L 594.176656 140.365043 
L 594.590615 138.253419 
L 594.970078 137.524122 
L 595.453031 137.104335 
L 596.108467 136.84663 
L 597.177862 136.686706 
L 599.247658 136.637785 
L 602.49034 136.66262 
L 602.628327 136.803013 
L 605.14658 136.17991 
L 607.733826 135.958108 
L 610.907514 135.891432 
L 610.942011 135.891432 
L 611.079998 135.533478 
L 612.528855 135.276759 
L 615.047108 135.117425 
L 619.393682 135.054207 
L 619.531668 135.270979 
L 622.153411 134.97683 
L 622.636364 134.961426 
L 622.636364 134.961426 
" clip-path="url(#p5d558c229b)" style="fill: none; stroke: #ff0000; stroke-width: 1.5; stroke-linecap: square"/>
   </g>
   <g id="line2d_30">
    <path d="M 115.363636 133.2106 
L 128.88631 133.211309 
L 128.920806 153.850191 
L 128.955303 139.009516 
L 129.127786 78.371641 
L 129.334766 71.379498 
L 129.576242 69.676377 
L 129.886711 68.94946 
L 130.300671 68.576037 
L 130.956106 68.32555 
L 132.163488 68.128672 
L 144.823746 66.96 
L 145.962134 66.96 
L 145.996631 120.241943 
L 146.065624 108.861664 
L 146.134617 104.472777 
L 146.169114 105.901547 
L 146.61757 128.798775 
L 146.962536 134.868699 
L 147.376495 138.510305 
L 147.859448 140.879075 
L 148.411394 142.523632 
L 149.066829 143.779447 
L 149.825755 144.748515 
L 150.722667 145.525198 
L 151.757565 146.126398 
L 152.723471 146.466711 
L 154.413805 146.466711 
L 154.551791 221.583711 
L 154.862261 238.753326 
L 155.17273 244.286138 
L 155.552193 247.12293 
L 155.966153 248.663046 
L 156.449105 249.659366 
L 157.035548 250.352325 
L 157.72548 250.823314 
L 158.518902 251.112183 
L 159.726284 251.270906 
L 162.21004 251.328386 
L 162.865476 251.328386 
L 162.899972 320.84002 
L 163.003462 319.589887 
L 163.348428 314.705024 
L 163.693394 313.023312 
L 164.107354 312.0875 
L 164.6593 311.403337 
L 165.418225 310.842066 
L 166.349634 310.412911 
L 168.83339 310.455083 
L 171.317146 310.482372 
L 171.351643 246.446437 
L 171.455133 247.552176 
L 171.938085 251.44742 
L 172.352045 252.700345 
L 172.869494 253.558503 
L 173.52493 254.216931 
L 174.387345 254.760794 
L 175.525733 255.211162 
L 176.767612 255.376447 
L 179.044388 255.439443 
L 179.768817 255.439443 
L 179.906803 261.741995 
L 180.355259 263.550803 
L 180.769219 264.277061 
L 181.355661 264.845789 
L 182.18358 265.323369 
L 183.287472 265.697008 
L 184.42586 265.94655 
L 185.978208 266.102609 
L 188.220488 266.109254 
L 188.634447 277.954391 
L 188.944917 278.325782 
L 189.565856 278.624338 
L 191.1527 279.084141 
L 192.912027 279.393409 
L 195.878736 279.404789 
L 196.672159 279.404789 
L 196.706655 276.432897 
L 196.775648 277.203741 
L 196.948131 278.097421 
L 197.120615 278.103111 
L 198.121016 277.806025 
L 198.534976 277.969316 
L 198.948935 278.376453 
L 199.397391 279.136196 
L 199.91484 280.473868 
L 200.535779 282.763265 
L 201.225712 286.186249 
L 201.984637 291.157184 
L 202.881549 298.607388 
L 203.433495 302.912492 
L 205.123829 302.912492 
L 205.158326 297.404746 
L 205.227319 298.151184 
L 205.848258 309.849792 
L 206.227721 312.004741 
L 206.676177 313.304247 
L 207.193626 314.122406 
L 207.814565 314.671305 
L 208.607987 315.055031 
L 209.539396 315.263712 
L 211.919662 315.482106 
L 213.5755 315.482106 
L 213.609997 308.094193 
L 213.713486 308.254908 
L 214.265432 309.850653 
L 216.921672 313.761709 
L 218.232543 315.531606 
L 219.474421 316.83295 
L 220.336837 317.473883 
L 222.027171 317.473883 
L 222.165157 325.833457 
L 222.993076 329.221088 
L 223.545022 330.378459 
L 224.131464 331.106184 
L 224.7869 331.565171 
L 225.580322 331.839891 
L 226.753207 331.983362 
L 229.685419 332.03598 
L 230.478841 332.03598 
L 230.616828 341.095892 
L 231.548237 348.43753 
L 232.169176 351.208455 
L 232.824611 353.191839 
L 233.514544 354.602282 
L 234.169979 355.473176 
L 234.825415 355.988473 
L 235.480851 356.220082 
L 236.170783 356.22239 
L 236.964205 355.994789 
L 237.412661 355.920118 
L 238.930512 355.920118 
L 239.068499 360.304264 
L 239.413465 360.569176 
L 240.37937 361.270102 
L 241.310779 362.257694 
L 242.41467 363.78382 
L 243.863528 366.253953 
L 245.691849 369.36 
L 247.382183 369.36 
L 247.485673 367.392143 
L 247.520169 367.393035 
L 247.761646 367.628315 
L 248.313592 368.061009 
L 249.072517 368.368688 
L 249.900436 368.468794 
L 250.762851 368.344641 
L 251.659763 367.987104 
L 252.729158 367.30368 
L 254.350499 366.218658 
L 255.833854 366.218658 
L 255.97184 356.61093 
L 256.17882 356.576711 
L 256.592779 356.515065 
L 257.179222 356.158267 
L 258.938549 354.939227 
L 259.662978 354.783457 
L 260.4564 354.842007 
L 261.387809 355.137418 
L 263.00915 355.725007 
L 264.285524 355.725007 
L 264.423511 360.027826 
L 265.14794 362.788005 
L 265.699886 363.898655 
L 266.320825 364.658007 
L 267.010757 365.163205 
L 267.804179 365.475678 
L 268.735588 365.604349 
L 269.873976 365.53159 
L 272.081759 365.3151 
L 272.737195 365.3151 
L 272.875182 362.438744 
L 273.80659 358.37008 
L 274.565516 356.349595 
L 275.496924 354.507711 
L 276.600816 352.815993 
L 277.773701 351.410933 
L 279.015579 350.267833 
L 279.533028 349.979367 
L 281.188866 349.979367 
L 281.326852 367.324039 
L 281.671818 368.3751 
L 281.913295 368.507716 
L 282.189268 368.356649 
L 282.637724 367.781976 
L 283.431146 366.333689 
L 284.431548 364.186247 
L 284.569534 133.2106 
L 297.988718 133.210574 
L 298.023214 133.050923 
L 298.26469 125.784633 
L 298.47167 125.423918 
L 298.851133 125.295783 
L 300.024018 125.234955 
L 308.096226 125.239045 
L 315.064542 125.227839 
L 315.237025 99.087707 
L 315.340515 97.959644 
L 315.375012 98.071312 
L 315.892461 100.140221 
L 316.30642 100.811057 
L 316.858366 101.281042 
L 317.686285 101.665663 
L 318.997156 101.998967 
L 320.99796 102.259753 
L 322.92977 102.311559 
L 323.516213 102.311559 
L 323.585206 85.349595 
L 323.654199 85.482088 
L 324.275138 88.358824 
L 324.689098 88.940356 
L 325.241044 89.313696 
L 326.068962 89.583479 
L 327.483324 89.783805 
L 330.036073 89.895132 
L 331.967884 89.896949 
L 332.036877 90.764263 
L 332.10587 90.760946 
L 332.657816 90.890148 
L 334.03768 91.097199 
L 336.659423 91.233806 
L 340.419554 91.264122 
L 340.488547 92.764011 
L 340.557541 92.745152 
L 341.695929 92.238302 
L 342.972304 92.054798 
L 345.525053 91.953942 
L 348.871225 91.941915 
L 349.009211 96.419795 
L 352.562363 96.292773 
L 357.667862 96.216597 
L 358.633767 95.995088 
L 363.877253 95.071105 
L 364.739668 95.055926 
L 365.774566 95.055926 
L 365.912553 93.982334 
L 366.430002 93.766793 
L 372.018454 92.024637 
L 372.846373 91.916268 
L 374.226237 91.916268 
L 374.260734 84.223723 
L 374.364224 84.692063 
L 374.847176 88.476516 
L 375.157646 89.229418 
L 375.502612 89.517877 
L 375.882075 89.533286 
L 376.399524 89.310912 
L 377.261939 88.668027 
L 381.160057 85.498802 
L 382.677908 85.498802 
L 382.919384 83.240493 
L 383.195357 81.590012 
L 383.47133 81.03088 
L 383.7818 80.870795 
L 384.161262 80.949399 
L 384.782201 81.34044 
L 386.02408 82.436529 
L 389.439245 85.548979 
L 391.129579 85.548979 
L 391.164075 89.428924 
L 391.267565 89.163507 
L 392.64743 81.576301 
L 393.302865 79.827633 
L 394.027294 78.502104 
L 394.855213 77.453421 
L 395.752125 76.669015 
L 396.787024 76.059858 
L 397.856419 75.677786 
L 399.581249 75.677786 
L 399.719236 77.370521 
L 400.788631 80.568882 
L 401.478563 81.668516 
L 402.306482 82.559279 
L 403.34138 83.335391 
L 404.686748 84.056876 
L 406.308089 84.68001 
L 408.03292 84.68001 
L 408.170907 86.823581 
L 409.654261 90.432444 
L 410.413187 91.347228 
L 411.344595 92.120625 
L 412.51748 92.796138 
L 414.035331 93.400097 
L 415.001236 93.601901 
L 416.484591 93.601901 
L 416.519088 96.128134 
L 416.622577 96.008124 
L 417.174523 94.931507 
L 417.691972 94.569883 
L 418.554388 94.274745 
L 420.313715 93.948271 
L 423.349417 93.616601 
L 424.936262 93.616601 
L 425.074248 84.082535 
L 425.626194 82.212995 
L 426.212636 81.103323 
L 426.937065 80.216163 
L 427.833977 79.481661 
L 428.903372 78.89806 
L 430.214244 78.444779 
L 431.663102 78.172715 
L 433.387932 78.172715 
L 433.525919 78.860269 
L 434.491824 79.454258 
L 436.078668 80.204164 
L 438.044975 80.880257 
L 440.183766 81.391416 
L 441.839603 81.391416 
L 441.97759 84.859672 
L 442.460542 85.222783 
L 443.322958 85.589646 
L 444.668326 85.899515 
L 446.979599 86.177561 
L 449.566845 86.292905 
L 450.291274 86.292905 
L 450.42926 86.08648 
L 451.326172 85.673502 
L 452.430064 85.461251 
L 453.533956 85.373049 
L 453.671942 133.248274 
L 454.154895 133.344523 
L 456.569658 133.427777 
L 460.226299 133.345203 
L 467.091125 133.182123 
L 467.229112 133.661872 
L 467.746561 133.857639 
L 468.919446 133.944078 
L 470.92025 133.870778 
L 480.682792 133.180684 
L 484.16695 133.137075 
L 484.201447 142.850377 
L 484.304936 142.649882 
L 484.37393 142.762005 
L 485.132855 145.195174 
L 485.615808 145.770872 
L 486.271244 146.1957 
L 487.237149 146.536076 
L 488.789496 146.825403 
L 491.135266 147.03078 
L 492.618621 147.03078 
L 492.756607 149.140163 
L 493.44654 151.802783 
L 493.894996 152.358743 
L 494.515935 152.747762 
L 495.447343 153.042916 
L 497.034188 153.284367 
L 499.65593 153.443597 
L 501.380761 153.539032 
L 502.277673 153.903914 
L 503.588544 154.15645 
L 505.968811 154.358887 
L 509.383976 154.432808 
L 509.521962 154.432808 
L 509.625452 155.701805 
L 509.659949 155.697205 
L 511.384779 155.443677 
L 514.489475 155.373415 
L 517.973633 155.369487 
L 518.111619 158.582446 
L 521.595778 158.460425 
L 526.425304 158.4664 
L 526.632283 157.304459 
L 526.87376 156.781512 
L 527.218726 156.612954 
L 528.081141 156.521717 
L 531.116843 156.511798 
L 534.876974 156.541539 
L 535.049458 154.038788 
L 535.290934 152.795931 
L 535.601403 152.415684 
L 536.153349 152.158752 
L 537.533214 151.823101 
L 540.706902 151.300504 
L 542.328243 151.197452 
L 543.328645 151.197452 
L 543.535625 151.524201 
L 543.949584 152.256218 
L 544.363544 152.500987 
L 544.984483 152.577895 
L 546.122871 152.451348 
L 551.22837 151.67116 
L 551.780316 151.67116 
L 551.987296 150.876576 
L 552.297765 150.022863 
L 552.642731 149.693599 
L 553.125684 149.566135 
L 553.953603 149.615936 
L 555.81642 150.008584 
L 558.817625 150.613517 
L 560.231987 150.613517 
L 560.266483 151.518043 
L 560.369973 151.422069 
L 561.749838 149.124508 
L 562.54326 148.466911 
L 563.543662 147.932275 
L 564.854533 147.496198 
L 566.61386 147.160364 
L 567.683256 147.124227 
L 568.683657 147.124227 
L 568.821644 147.301336 
L 570.236005 148.113496 
L 571.546876 148.436253 
L 573.823653 148.734838 
L 576.307409 148.869014 
L 577.135328 148.869014 
L 577.273315 150.158576 
L 579.136132 151.629763 
L 580.37801 152.06257 
L 582.240827 152.457023 
L 584.241631 152.672551 
L 585.586999 152.672551 
L 585.724985 150.043757 
L 586.242435 149.171705 
L 586.725387 148.894404 
L 587.587803 148.68877 
L 589.45062 148.516341 
L 593.417731 148.390478 
L 594.03867 148.390478 
L 594.176656 133.78867 
L 594.590615 131.640157 
L 595.004575 130.689165 
L 595.556521 129.994088 
L 596.315446 129.417683 
L 597.419338 128.881138 
L 599.075175 128.34592 
L 600.903496 127.967045 
L 602.49034 127.967045 
L 602.628327 128.2773 
L 607.802819 129.449598 
L 609.73463 129.638626 
L 610.942011 129.638626 
L 611.079998 130.721469 
L 612.080399 131.300727 
L 613.218788 131.649153 
L 614.943618 131.925559 
L 617.737844 132.127123 
L 619.911131 132.020452 
L 620.877036 131.678862 
L 622.360391 131.415626 
L 622.636364 131.383745 
L 622.636364 131.383745 
" clip-path="url(#p5d558c229b)" style="fill: none; stroke-dasharray: 5.55,2.4; stroke-dashoffset: 0; stroke: #0000ff; stroke-width: 1.5"/>
   </g>
   <g id="patch_3">
    <path d="M 90 384.48 
L 90 51.84 
" style="fill: none; stroke: #000000; stroke-width: 0.8; stroke-linejoin: miter; stroke-linecap: square"/>
   </g>
   <g id="patch_4">
    <path d="M 648 384.48 
L 648 51.84 
" style="fill: none; stroke: #000000; stroke-width: 0.8; stroke-linejoin: miter; stroke-linecap: square"/>
   </g>
   <g id="patch_5">
    <path d="M 90 384.48 
L 648 384.48 
" style="fill: none; stroke: #000000; stroke-width: 0.8; stroke-linejoin: miter; stroke-linecap: square"/>
   </g>
   <g id="patch_6">
    <path d="M 90 51.84 
L 648 51.84 
" style="fill: none; stroke: #000000; stroke-width: 0.8; stroke-linejoin: miter; stroke-linecap: square"/>
   </g>
   <g id="text_18">
    <!-- State Value Convergence for dKg_yy (Index 16) -->
    <g transform="translate(226.894688 45.84) scale(0.12 -0.12)">
     <defs>
      <path id="DejaVuSans-53" d="M 3425 4513 
L 3425 3897 
Q 3066 4069 2747 4153 
Q 2428 4238 2131 4238 
Q 1616 4238 1336 4038 
Q 1056 3838 1056 3469 
Q 1056 3159 1242 3001 
Q 1428 2844 1947 2747 
L 2328 2669 
Q 3034 2534 3370 2195 
Q 3706 1856 3706 1288 
Q 3706 609 3251 259 
Q 2797 -91 1919 -91 
Q 1588 -91 1214 -16 
Q 841 59 441 206 
L 441 856 
Q 825 641 1194 531 
Q 1563 422 1919 422 
Q 2459 422 2753 634 
Q 3047 847 3047 1241 
Q 3047 1584 2836 1778 
Q 2625 1972 2144 2069 
L 1759 2144 
Q 1053 2284 737 2584 
Q 422 2884 422 3419 
Q 422 4038 858 4394 
Q 1294 4750 2059 4750 
Q 2388 4750 2728 4690 
Q 3069 4631 3425 4513 
z
" transform="scale(0.015625)"/>
      <path id="DejaVuSans-43" d="M 4122 4306 
L 4122 3641 
Q 3803 3938 3442 4084 
Q 3081 4231 2675 4231 
Q 1875 4231 1450 3742 
Q 1025 3253 1025 2328 
Q 1025 1406 1450 917 
Q 1875 428 2675 428 
Q 3081 428 3442 575 
Q 3803 722 4122 1019 
L 4122 359 
Q 3791 134 3420 21 
Q 3050 -91 2638 -91 
Q 1578 -91 968 557 
Q 359 1206 359 2328 
Q 359 3453 968 4101 
Q 1578 4750 2638 4750 
Q 3056 4750 3426 4639 
Q 3797 4528 4122 4306 
z
" transform="scale(0.015625)"/>
      <path id="DejaVuSans-6f" d="M 1959 3097 
Q 1497 3097 1228 2736 
Q 959 2375 959 1747 
Q 959 1119 1226 758 
Q 1494 397 1959 397 
Q 2419 397 2687 759 
Q 2956 1122 2956 1747 
Q 2956 2369 2687 2733 
Q 2419 3097 1959 3097 
z
M 1959 3584 
Q 2709 3584 3137 3096 
Q 3566 2609 3566 1747 
Q 3566 888 3137 398 
Q 2709 -91 1959 -91 
Q 1206 -91 779 398 
Q 353 888 353 1747 
Q 353 2609 779 3096 
Q 1206 3584 1959 3584 
z
" transform="scale(0.015625)"/>
      <path id="DejaVuSans-67" d="M 2906 1791 
Q 2906 2416 2648 2759 
Q 2391 3103 1925 3103 
Q 1463 3103 1205 2759 
Q 947 2416 947 1791 
Q 947 1169 1205 825 
Q 1463 481 1925 481 
Q 2391 481 2648 825 
Q 2906 1169 2906 1791 
z
M 3481 434 
Q 3481 -459 3084 -895 
Q 2688 -1331 1869 -1331 
Q 1566 -1331 1297 -1286 
Q 1028 -1241 775 -1147 
L 775 -588 
Q 1028 -725 1275 -790 
Q 1522 -856 1778 -856 
Q 2344 -856 2625 -561 
Q 2906 -266 2906 331 
L 2906 616 
Q 2728 306 2450 153 
Q 2172 0 1784 0 
Q 1141 0 747 490 
Q 353 981 353 1791 
Q 353 2603 747 3093 
Q 1141 3584 1784 3584 
Q 2172 3584 2450 3431 
Q 2728 3278 2906 2969 
L 2906 3500 
L 3481 3500 
L 3481 434 
z
" transform="scale(0.015625)"/>
      <path id="DejaVuSans-63" d="M 3122 3366 
L 3122 2828 
Q 2878 2963 2633 3030 
Q 2388 3097 2138 3097 
Q 1578 3097 1268 2742 
Q 959 2388 959 1747 
Q 959 1106 1268 751 
Q 1578 397 2138 397 
Q 2388 397 2633 464 
Q 2878 531 3122 666 
L 3122 134 
Q 2881 22 2623 -34 
Q 2366 -91 2075 -91 
Q 1284 -91 818 406 
Q 353 903 353 1747 
Q 353 2603 823 3093 
Q 1294 3584 2113 3584 
Q 2378 3584 2631 3529 
Q 2884 3475 3122 3366 
z
" transform="scale(0.015625)"/>
      <path id="DejaVuSans-66" d="M 2375 4863 
L 2375 4384 
L 1825 4384 
Q 1516 4384 1395 4259 
Q 1275 4134 1275 3809 
L 1275 3500 
L 2222 3500 
L 2222 3053 
L 1275 3053 
L 1275 0 
L 697 0 
L 697 3053 
L 147 3053 
L 147 3500 
L 697 3500 
L 697 3744 
Q 697 4328 969 4595 
Q 1241 4863 1831 4863 
L 2375 4863 
z
" transform="scale(0.015625)"/>
      <path id="DejaVuSans-4b" d="M 628 4666 
L 1259 4666 
L 1259 2694 
L 3353 4666 
L 4166 4666 
L 1850 2491 
L 4331 0 
L 3500 0 
L 1259 2247 
L 1259 0 
L 628 0 
L 628 4666 
z
" transform="scale(0.015625)"/>
      <path id="DejaVuSans-5f" d="M 3263 -1063 
L 3263 -1509 
L -63 -1509 
L -63 -1063 
L 3263 -1063 
z
" transform="scale(0.015625)"/>
      <path id="DejaVuSans-79" d="M 2059 -325 
Q 1816 -950 1584 -1140 
Q 1353 -1331 966 -1331 
L 506 -1331 
L 506 -850 
L 844 -850 
Q 1081 -850 1212 -737 
Q 1344 -625 1503 -206 
L 1606 56 
L 191 3500 
L 800 3500 
L 1894 763 
L 2988 3500 
L 3597 3500 
L 2059 -325 
z
" transform="scale(0.015625)"/>
      <path id="DejaVuSans-49" d="M 628 4666 
L 1259 4666 
L 1259 0 
L 628 0 
L 628 4666 
z
" transform="scale(0.015625)"/>
      <path id="DejaVuSans-78" d="M 3513 3500 
L 2247 1797 
L 3578 0 
L 2900 0 
L 1881 1375 
L 863 0 
L 184 0 
L 1544 1831 
L 300 3500 
L 978 3500 
L 1906 2253 
L 2834 3500 
L 3513 3500 
z
" transform="scale(0.015625)"/>
      <path id="DejaVuSans-36" d="M 2113 2584 
Q 1688 2584 1439 2293 
Q 1191 2003 1191 1497 
Q 1191 994 1439 701 
Q 1688 409 2113 409 
Q 2538 409 2786 701 
Q 3034 994 3034 1497 
Q 3034 2003 2786 2293 
Q 2538 2584 2113 2584 
z
M 3366 4563 
L 3366 3988 
Q 3128 4100 2886 4159 
Q 2644 4219 2406 4219 
Q 1781 4219 1451 3797 
Q 1122 3375 1075 2522 
Q 1259 2794 1537 2939 
Q 1816 3084 2150 3084 
Q 2853 3084 3261 2657 
Q 3669 2231 3669 1497 
Q 3669 778 3244 343 
Q 2819 -91 2113 -91 
Q 1303 -91 875 529 
Q 447 1150 447 2328 
Q 447 3434 972 4092 
Q 1497 4750 2381 4750 
Q 2619 4750 2861 4703 
Q 3103 4656 3366 4563 
z
" transform="scale(0.015625)"/>
     </defs>
     <use xlink:href="#DejaVuSans-53"/>
     <use xlink:href="#DejaVuSans-74" transform="translate(63.476562 0)"/>
     <use xlink:href="#DejaVuSans-61" transform="translate(102.685547 0)"/>
     <use xlink:href="#DejaVuSans-74" transform="translate(163.964844 0)"/>
     <use xlink:href="#DejaVuSans-65" transform="translate(203.173828 0)"/>
     <use xlink:href="#DejaVuSans-20" transform="translate(264.697266 0)"/>
     <use xlink:href="#DejaVuSans-56" transform="translate(296.484375 0)"/>
     <use xlink:href="#DejaVuSans-61" transform="translate(357.142578 0)"/>
     <use xlink:href="#DejaVuSans-6c" transform="translate(418.421875 0)"/>
     <use xlink:href="#DejaVuSans-75" transform="translate(446.205078 0)"/>
     <use xlink:href="#DejaVuSans-65" transform="translate(509.583984 0)"/>
     <use xlink:href="#DejaVuSans-20" transform="translate(571.107422 0)"/>
     <use xlink:href="#DejaVuSans-43" transform="translate(602.894531 0)"/>
     <use xlink:href="#DejaVuSans-6f" transform="translate(672.71875 0)"/>
     <use xlink:href="#DejaVuSans-6e" transform="translate(733.900391 0)"/>
     <use xlink:href="#DejaVuSans-76" transform="translate(797.279297 0)"/>
     <use xlink:href="#DejaVuSans-65" transform="translate(856.458984 0)"/>
     <use xlink:href="#DejaVuSans-72" transform="translate(917.982422 0)"/>
     <use xlink:href="#DejaVuSans-67" transform="translate(957.345703 0)"/>
     <use xlink:href="#DejaVuSans-65" transform="translate(1020.822266 0)"/>
     <use xlink:href="#DejaVuSans-6e" transform="translate(1082.345703 0)"/>
     <use xlink:href="#DejaVuSans-63" transform="translate(1145.724609 0)"/>
     <use xlink:href="#DejaVuSans-65" transform="translate(1200.705078 0)"/>
     <use xlink:href="#DejaVuSans-20" transform="translate(1262.228516 0)"/>
     <use xlink:href="#DejaVuSans-66" transform="translate(1294.015625 0)"/>
     <use xlink:href="#DejaVuSans-6f" transform="translate(1329.220703 0)"/>
     <use xlink:href="#DejaVuSans-72" transform="translate(1390.402344 0)"/>
     <use xlink:href="#DejaVuSans-20" transform="translate(1431.515625 0)"/>
     <use xlink:href="#DejaVuSans-64" transform="translate(1463.302734 0)"/>
     <use xlink:href="#DejaVuSans-4b" transform="translate(1526.779297 0)"/>
     <use xlink:href="#DejaVuSans-67" transform="translate(1592.355469 0)"/>
     <use xlink:href="#DejaVuSans-5f" transform="translate(1655.832031 0)"/>
     <use xlink:href="#DejaVuSans-79" transform="translate(1705.832031 0)"/>
     <use xlink:href="#DejaVuSans-79" transform="translate(1765.011719 0)"/>
     <use xlink:href="#DejaVuSans-20" transform="translate(1824.191406 0)"/>
     <use xlink:href="#DejaVuSans-28" transform="translate(1855.978516 0)"/>
     <use xlink:href="#DejaVuSans-49" transform="translate(1894.992188 0)"/>
     <use xlink:href="#DejaVuSans-6e" transform="translate(1924.484375 0)"/>
     <use xlink:href="#DejaVuSans-64" transform="translate(1987.863281 0)"/>
     <use xlink:href="#DejaVuSans-65" transform="translate(2051.339844 0)"/>
     <use xlink:href="#DejaVuSans-78" transform="translate(2111.113281 0)"/>
     <use xlink:href="#DejaVuSans-20" transform="translate(2170.292969 0)"/>
     <use xlink:href="#DejaVuSans-31" transform="translate(2202.080078 0)"/>
     <use xlink:href="#DejaVuSans-36" transform="translate(2265.703125 0)"/>
     <use xlink:href="#DejaVuSans-29" transform="translate(2329.326172 0)"/>
    </g>
   </g>
   <g id="legend_1">
    <g id="patch_7">
     <path d="M 521.465625 89.19625 
L 641 89.19625 
Q 643 89.19625 643 87.19625 
L 643 58.84 
Q 643 56.84 641 56.84 
L 521.465625 56.84 
Q 519.465625 56.84 519.465625 58.84 
L 519.465625 87.19625 
Q 519.465625 89.19625 521.465625 89.19625 
z
" style="fill: #ffffff; opacity: 0.8; stroke: #cccccc; stroke-linejoin: miter"/>
    </g>
    <g id="line2d_31">
     <path d="M 523.465625 64.938437 
L 533.465625 64.938437 
L 543.465625 64.938437 
" style="fill: none; stroke: #ff0000; stroke-width: 1.5; stroke-linecap: square"/>
    </g>
    <g id="text_19">
     <!-- Baseline KF State -->
     <g transform="translate(551.465625 68.438437) scale(0.1 -0.1)">
      <defs>
       <path id="DejaVuSans-42" d="M 1259 2228 
L 1259 519 
L 2272 519 
Q 2781 519 3026 730 
Q 3272 941 3272 1375 
Q 3272 1813 3026 2020 
Q 2781 2228 2272 2228 
L 1259 2228 
z
M 1259 4147 
L 1259 2741 
L 2194 2741 
Q 2656 2741 2882 2914 
Q 3109 3088 3109 3444 
Q 3109 3797 2882 3972 
Q 2656 4147 2194 4147 
L 1259 4147 
z
M 628 4666 
L 2241 4666 
Q 2963 4666 3353 4366 
Q 3744 4066 3744 3513 
Q 3744 3084 3544 2831 
Q 3344 2578 2956 2516 
Q 3422 2416 3680 2098 
Q 3938 1781 3938 1306 
Q 3938 681 3513 340 
Q 3088 0 2303 0 
L 628 0 
L 628 4666 
z
" transform="scale(0.015625)"/>
       <path id="DejaVuSans-46" d="M 628 4666 
L 3309 4666 
L 3309 4134 
L 1259 4134 
L 1259 2759 
L 3109 2759 
L 3109 2228 
L 1259 2228 
L 1259 0 
L 628 0 
L 628 4666 
z
" transform="scale(0.015625)"/>
      </defs>
      <use xlink:href="#DejaVuSans-42"/>
      <use xlink:href="#DejaVuSans-61" transform="translate(68.603516 0)"/>
      <use xlink:href="#DejaVuSans-73" transform="translate(129.882812 0)"/>
      <use xlink:href="#DejaVuSans-65" transform="translate(181.982422 0)"/>
      <use xlink:href="#DejaVuSans-6c" transform="translate(243.505859 0)"/>
      <use xlink:href="#DejaVuSans-69" transform="translate(271.289062 0)"/>
      <use xlink:href="#DejaVuSans-6e" transform="translate(299.072266 0)"/>
      <use xlink:href="#DejaVuSans-65" transform="translate(362.451172 0)"/>
      <use xlink:href="#DejaVuSans-20" transform="translate(423.974609 0)"/>
      <use xlink:href="#DejaVuSans-4b" transform="translate(455.761719 0)"/>
      <use xlink:href="#DejaVuSans-46" transform="translate(521.337891 0)"/>
      <use xlink:href="#DejaVuSans-20" transform="translate(578.857422 0)"/>
      <use xlink:href="#DejaVuSans-53" transform="translate(610.644531 0)"/>
      <use xlink:href="#DejaVuSans-74" transform="translate(674.121094 0)"/>
      <use xlink:href="#DejaVuSans-61" transform="translate(713.330078 0)"/>
      <use xlink:href="#DejaVuSans-74" transform="translate(774.609375 0)"/>
      <use xlink:href="#DejaVuSans-65" transform="translate(813.818359 0)"/>
     </g>
    </g>
    <g id="line2d_32">
     <path d="M 523.465625 79.616562 
L 533.465625 79.616562 
L 543.465625 79.616562 
" style="fill: none; stroke-dasharray: 5.55,2.4; stroke-dashoffset: 0; stroke: #0000ff; stroke-width: 1.5"/>
    </g>
    <g id="text_20">
     <!-- Shadow KF State -->
     <g transform="translate(551.465625 83.116562) scale(0.1 -0.1)">
      <defs>
       <path id="DejaVuSans-68" d="M 3513 2113 
L 3513 0 
L 2938 0 
L 2938 2094 
Q 2938 2591 2744 2837 
Q 2550 3084 2163 3084 
Q 1697 3084 1428 2787 
Q 1159 2491 1159 1978 
L 1159 0 
L 581 0 
L 581 4863 
L 1159 4863 
L 1159 2956 
Q 1366 3272 1645 3428 
Q 1925 3584 2291 3584 
Q 2894 3584 3203 3211 
Q 3513 2838 3513 2113 
z
" transform="scale(0.015625)"/>
       <path id="DejaVuSans-77" d="M 269 3500 
L 844 3500 
L 1563 769 
L 2278 3500 
L 2956 3500 
L 3675 769 
L 4391 3500 
L 4966 3500 
L 4050 0 
L 3372 0 
L 2619 2869 
L 1863 0 
L 1184 0 
L 269 3500 
z
" transform="scale(0.015625)"/>
      </defs>
      <use xlink:href="#DejaVuSans-53"/>
      <use xlink:href="#DejaVuSans-68" transform="translate(63.476562 0)"/>
      <use xlink:href="#DejaVuSans-61" transform="translate(126.855469 0)"/>
      <use xlink:href="#DejaVuSans-64" transform="translate(188.134766 0)"/>
      <use xlink:href="#DejaVuSans-6f" transform="translate(251.611328 0)"/>
      <use xlink:href="#DejaVuSans-77" transform="translate(312.792969 0)"/>
      <use xlink:href="#DejaVuSans-20" transform="translate(394.580078 0)"/>
      <use xlink:href="#DejaVuSans-4b" transform="translate(426.367188 0)"/>
      <use xlink:href="#DejaVuSans-46" transform="translate(491.943359 0)"/>
      <use xlink:href="#DejaVuSans-20" transform="translate(549.462891 0)"/>
      <use xlink:href="#DejaVuSans-53" transform="translate(581.25 0)"/>
      <use xlink:href="#DejaVuSans-74" transform="translate(644.726562 0)"/>
      <use xlink:href="#DejaVuSans-61" transform="translate(683.935547 0)"/>
      <use xlink:href="#DejaVuSans-74" transform="translate(745.214844 0)"/>
      <use xlink:href="#DejaVuSans-65" transform="translate(784.423828 0)"/>
     </g>
    </g>
   </g>
  </g>
 </g>
 <defs>
  <clipPath id="p5d558c229b">
   <rect x="90" y="51.84" width="558" height="332.64"/>
  </clipPath>
 </defs>
</svg>
