<?xml version="1.0" encoding="utf-8" standalone="no"?>
<!DOCTYPE svg PUBLIC "-//W3C//DTD SVG 1.1//EN"
  "http://www.w3.org/Graphics/SVG/1.1/DTD/svg11.dtd">
<svg xmlns:xlink="http://www.w3.org/1999/xlink" width="720pt" height="432pt" viewBox="0 0 720 432" xmlns="http://www.w3.org/2000/svg" version="1.1">
 <metadata>
  <rdf:RDF xmlns:dc="http://purl.org/dc/elements/1.1/" xmlns:cc="http://creativecommons.org/ns#" xmlns:rdf="http://www.w3.org/1999/02/22-rdf-syntax-ns#">
   <cc:Work>
    <dc:type rdf:resource="http://purl.org/dc/dcmitype/StillImage"/>
    <dc:date>2026-03-25T09:55:30.589739</dc:date>
    <dc:format>image/svg+xml</dc:format>
    <dc:creator>
     <cc:Agent>
      <dc:title>Matplotlib v3.10.8, https://matplotlib.org/</dc:title>
     </cc:Agent>
    </dc:creator>
   </cc:Work>
  </rdf:RDF>
 </metadata>
 <defs>
  <style type="text/css">*{stroke-linejoin: round; stroke-linecap: butt}</style>
 </defs>
 <g id="figure_1">
  <g id="patch_1">
   <path d="M 0 432 
L 720 432 
L 720 0 
L 0 0 
z
" style="fill: #ffffff"/>
  </g>
  <g id="axes_1">
   <g id="patch_2">
    <path d="M 90 384.48 
L 648 384.48 
L 648 51.84 
L 90 51.84 
z
" style="fill: #ffffff"/>
   </g>
   <g id="matplotlib.axis_1">
    <g id="xtick_1">
     <g id="line2d_1">
      <path d="M 115.363636 384.48 
L 115.363636 51.84 
" clip-path="url(#pefab8d4be0)" style="fill: none; stroke: #b0b0b0; stroke-width: 0.8; stroke-linecap: square"/>
     </g>
     <g id="line2d_2">
      <defs>
       <path id="ma78221f24e" d="M 0 0 
L 0 3.5 
" style="stroke: #000000; stroke-width: 0.8"/>
      </defs>
      <g>
       <use xlink:href="#ma78221f24e" x="115.363636" y="384.48" style="stroke: #000000; stroke-width: 0.8"/>
      </g>
     </g>
     <g id="text_1">
      <!-- 0 -->
      <g transform="translate(112.182386 399.078438) scale(0.1 -0.1)">
       <defs>
        <path id="DejaVuSans-30" d="M 2034 4250 
Q 1547 4250 1301 3770 
Q 1056 3291 1056 2328 
Q 1056 1369 1301 889 
Q 1547 409 2034 409 
Q 2525 409 2770 889 
Q 3016 1369 3016 2328 
Q 3016 3291 2770 3770 
Q 2525 4250 2034 4250 
z
M 2034 4750 
Q 2819 4750 3233 4129 
Q 3647 3509 3647 2328 
Q 3647 1150 3233 529 
Q 2819 -91 2034 -91 
Q 1250 -91 836 529 
Q 422 1150 422 2328 
Q 422 3509 836 4129 
Q 1250 4750 2034 4750 
z
" transform="scale(0.015625)"/>
       </defs>
       <use xlink:href="#DejaVuSans-30"/>
      </g>
     </g>
    </g>
    <g id="xtick_2">
     <g id="line2d_3">
      <path d="M 201.605174 384.48 
L 201.605174 51.84 
" clip-path="url(#pefab8d4be0)" style="fill: none; stroke: #b0b0b0; stroke-width: 0.8; stroke-linecap: square"/>
     </g>
     <g id="line2d_4">
      <g>
       <use xlink:href="#ma78221f24e" x="201.605174" y="384.48" style="stroke: #000000; stroke-width: 0.8"/>
      </g>
     </g>
     <g id="text_2">
      <!-- 50 -->
      <g transform="translate(195.242674 399.078438) scale(0.1 -0.1)">
       <defs>
        <path id="DejaVuSans-35" d="M 691 4666 
L 3169 4666 
L 3169 4134 
L 1269 4134 
L 1269 2991 
Q 1406 3038 1543 3061 
Q 1681 3084 1819 3084 
Q 2600 3084 3056 2656 
Q 3513 2228 3513 1497 
Q 3513 744 3044 326 
Q 2575 -91 1722 -91 
Q 1428 -91 1123 -41 
Q 819 9 494 109 
L 494 744 
Q 775 591 1075 516 
Q 1375 441 1709 441 
Q 2250 441 2565 725 
Q 2881 1009 2881 1497 
Q 2881 1984 2565 2268 
Q 2250 2553 1709 2553 
Q 1456 2553 1204 2497 
Q 953 2441 691 2322 
L 691 4666 
z
" transform="scale(0.015625)"/>
       </defs>
       <use xlink:href="#DejaVuSans-35"/>
       <use xlink:href="#DejaVuSans-30" transform="translate(63.623047 0)"/>
      </g>
     </g>
    </g>
    <g id="xtick_3">
     <g id="line2d_5">
      <path d="M 287.846713 384.48 
L 287.846713 51.84 
" clip-path="url(#pefab8d4be0)" style="fill: none; stroke: #b0b0b0; stroke-width: 0.8; stroke-linecap: square"/>
     </g>
     <g id="line2d_6">
      <g>
       <use xlink:href="#ma78221f24e" x="287.846713" y="384.48" style="stroke: #000000; stroke-width: 0.8"/>
      </g>
     </g>
     <g id="text_3">
      <!-- 100 -->
      <g transform="translate(278.302963 399.078438) scale(0.1 -0.1)">
       <defs>
        <path id="DejaVuSans-31" d="M 794 531 
L 1825 531 
L 1825 4091 
L 703 3866 
L 703 4441 
L 1819 4666 
L 2450 4666 
L 2450 531 
L 3481 531 
L 3481 0 
L 794 0 
L 794 531 
z
" transform="scale(0.015625)"/>
       </defs>
       <use xlink:href="#DejaVuSans-31"/>
       <use xlink:href="#DejaVuSans-30" transform="translate(63.623047 0)"/>
       <use xlink:href="#DejaVuSans-30" transform="translate(127.246094 0)"/>
      </g>
     </g>
    </g>
    <g id="xtick_4">
     <g id="line2d_7">
      <path d="M 374.088251 384.48 
L 374.088251 51.84 
" clip-path="url(#pefab8d4be0)" style="fill: none; stroke: #b0b0b0; stroke-width: 0.8; stroke-linecap: square"/>
     </g>
     <g id="line2d_8">
      <g>
       <use xlink:href="#ma78221f24e" x="374.088251" y="384.48" style="stroke: #000000; stroke-width: 0.8"/>
      </g>
     </g>
     <g id="text_4">
      <!-- 150 -->
      <g transform="translate(364.544501 399.078438) scale(0.1 -0.1)">
       <use xlink:href="#DejaVuSans-31"/>
       <use xlink:href="#DejaVuSans-35" transform="translate(63.623047 0)"/>
       <use xlink:href="#DejaVuSans-30" transform="translate(127.246094 0)"/>
      </g>
     </g>
    </g>
    <g id="xtick_5">
     <g id="line2d_9">
      <path d="M 460.329789 384.48 
L 460.329789 51.84 
" clip-path="url(#pefab8d4be0)" style="fill: none; stroke: #b0b0b0; stroke-width: 0.8; stroke-linecap: square"/>
     </g>
     <g id="line2d_10">
      <g>
       <use xlink:href="#ma78221f24e" x="460.329789" y="384.48" style="stroke: #000000; stroke-width: 0.8"/>
      </g>
     </g>
     <g id="text_5">
      <!-- 200 -->
      <g transform="translate(450.786039 399.078438) scale(0.1 -0.1)">
       <defs>
        <path id="DejaVuSans-32" d="M 1228 531 
L 3431 531 
L 3431 0 
L 469 0 
L 469 531 
Q 828 903 1448 1529 
Q 2069 2156 2228 2338 
Q 2531 2678 2651 2914 
Q 2772 3150 2772 3378 
Q 2772 3750 2511 3984 
Q 2250 4219 1831 4219 
Q 1534 4219 1204 4116 
Q 875 4013 500 3803 
L 500 4441 
Q 881 4594 1212 4672 
Q 1544 4750 1819 4750 
Q 2544 4750 2975 4387 
Q 3406 4025 3406 3419 
Q 3406 3131 3298 2873 
Q 3191 2616 2906 2266 
Q 2828 2175 2409 1742 
Q 1991 1309 1228 531 
z
" transform="scale(0.015625)"/>
       </defs>
       <use xlink:href="#DejaVuSans-32"/>
       <use xlink:href="#DejaVuSans-30" transform="translate(63.623047 0)"/>
       <use xlink:href="#DejaVuSans-30" transform="translate(127.246094 0)"/>
      </g>
     </g>
    </g>
    <g id="xtick_6">
     <g id="line2d_11">
      <path d="M 546.571327 384.48 
L 546.571327 51.84 
" clip-path="url(#pefab8d4be0)" style="fill: none; stroke: #b0b0b0; stroke-width: 0.8; stroke-linecap: square"/>
     </g>
     <g id="line2d_12">
      <g>
       <use xlink:href="#ma78221f24e" x="546.571327" y="384.48" style="stroke: #000000; stroke-width: 0.8"/>
      </g>
     </g>
     <g id="text_6">
      <!-- 250 -->
      <g transform="translate(537.027577 399.078438) scale(0.1 -0.1)">
       <use xlink:href="#DejaVuSans-32"/>
       <use xlink:href="#DejaVuSans-35" transform="translate(63.623047 0)"/>
       <use xlink:href="#DejaVuSans-30" transform="translate(127.246094 0)"/>
      </g>
     </g>
    </g>
    <g id="xtick_7">
     <g id="line2d_13">
      <path d="M 632.812865 384.48 
L 632.812865 51.84 
" clip-path="url(#pefab8d4be0)" style="fill: none; stroke: #b0b0b0; stroke-width: 0.8; stroke-linecap: square"/>
     </g>
     <g id="line2d_14">
      <g>
       <use xlink:href="#ma78221f24e" x="632.812865" y="384.48" style="stroke: #000000; stroke-width: 0.8"/>
      </g>
     </g>
     <g id="text_7">
      <!-- 300 -->
      <g transform="translate(623.269115 399.078438) scale(0.1 -0.1)">
       <defs>
        <path id="DejaVuSans-33" d="M 2597 2516 
Q 3050 2419 3304 2112 
Q 3559 1806 3559 1356 
Q 3559 666 3084 287 
Q 2609 -91 1734 -91 
Q 1441 -91 1130 -33 
Q 819 25 488 141 
L 488 750 
Q 750 597 1062 519 
Q 1375 441 1716 441 
Q 2309 441 2620 675 
Q 2931 909 2931 1356 
Q 2931 1769 2642 2001 
Q 2353 2234 1838 2234 
L 1294 2234 
L 1294 2753 
L 1863 2753 
Q 2328 2753 2575 2939 
Q 2822 3125 2822 3475 
Q 2822 3834 2567 4026 
Q 2313 4219 1838 4219 
Q 1578 4219 1281 4162 
Q 984 4106 628 3988 
L 628 4550 
Q 988 4650 1302 4700 
Q 1616 4750 1894 4750 
Q 2613 4750 3031 4423 
Q 3450 4097 3450 3541 
Q 3450 3153 3228 2886 
Q 3006 2619 2597 2516 
z
" transform="scale(0.015625)"/>
       </defs>
       <use xlink:href="#DejaVuSans-33"/>
       <use xlink:href="#DejaVuSans-30" transform="translate(63.623047 0)"/>
       <use xlink:href="#DejaVuSans-30" transform="translate(127.246094 0)"/>
      </g>
     </g>
    </g>
    <g id="text_8">
     <!-- Maneuver Time (s) -->
     <g transform="translate(322.198438 412.756563) scale(0.1 -0.1)">
      <defs>
       <path id="DejaVuSans-4d" d="M 628 4666 
L 1569 4666 
L 2759 1491 
L 3956 4666 
L 4897 4666 
L 4897 0 
L 4281 0 
L 4281 4097 
L 3078 897 
L 2444 897 
L 1241 4097 
L 1241 0 
L 628 0 
L 628 4666 
z
" transform="scale(0.015625)"/>
       <path id="DejaVuSans-61" d="M 2194 1759 
Q 1497 1759 1228 1600 
Q 959 1441 959 1056 
Q 959 750 1161 570 
Q 1363 391 1709 391 
Q 2188 391 2477 730 
Q 2766 1069 2766 1631 
L 2766 1759 
L 2194 1759 
z
M 3341 1997 
L 3341 0 
L 2766 0 
L 2766 531 
Q 2569 213 2275 61 
Q 1981 -91 1556 -91 
Q 1019 -91 701 211 
Q 384 513 384 1019 
Q 384 1609 779 1909 
Q 1175 2209 1959 2209 
L 2766 2209 
L 2766 2266 
Q 2766 2663 2505 2880 
Q 2244 3097 1772 3097 
Q 1472 3097 1187 3025 
Q 903 2953 641 2809 
L 641 3341 
Q 956 3463 1253 3523 
Q 1550 3584 1831 3584 
Q 2591 3584 2966 3190 
Q 3341 2797 3341 1997 
z
" transform="scale(0.015625)"/>
       <path id="DejaVuSans-6e" d="M 3513 2113 
L 3513 0 
L 2938 0 
L 2938 2094 
Q 2938 2591 2744 2837 
Q 2550 3084 2163 3084 
Q 1697 3084 1428 2787 
Q 1159 2491 1159 1978 
L 1159 0 
L 581 0 
L 581 3500 
L 1159 3500 
L 1159 2956 
Q 1366 3272 1645 3428 
Q 1925 3584 2291 3584 
Q 2894 3584 3203 3211 
Q 3513 2838 3513 2113 
z
" transform="scale(0.015625)"/>
       <path id="DejaVuSans-65" d="M 3597 1894 
L 3597 1613 
L 953 1613 
Q 991 1019 1311 708 
Q 1631 397 2203 397 
Q 2534 397 2845 478 
Q 3156 559 3463 722 
L 3463 178 
Q 3153 47 2828 -22 
Q 2503 -91 2169 -91 
Q 1331 -91 842 396 
Q 353 884 353 1716 
Q 353 2575 817 3079 
Q 1281 3584 2069 3584 
Q 2775 3584 3186 3129 
Q 3597 2675 3597 1894 
z
M 3022 2063 
Q 3016 2534 2758 2815 
Q 2500 3097 2075 3097 
Q 1594 3097 1305 2825 
Q 1016 2553 972 2059 
L 3022 2063 
z
" transform="scale(0.015625)"/>
       <path id="DejaVuSans-75" d="M 544 1381 
L 544 3500 
L 1119 3500 
L 1119 1403 
Q 1119 906 1312 657 
Q 1506 409 1894 409 
Q 2359 409 2629 706 
Q 2900 1003 2900 1516 
L 2900 3500 
L 3475 3500 
L 3475 0 
L 2900 0 
L 2900 538 
Q 2691 219 2414 64 
Q 2138 -91 1772 -91 
Q 1169 -91 856 284 
Q 544 659 544 1381 
z
M 1991 3584 
L 1991 3584 
z
" transform="scale(0.015625)"/>
       <path id="DejaVuSans-76" d="M 191 3500 
L 800 3500 
L 1894 563 
L 2988 3500 
L 3597 3500 
L 2284 0 
L 1503 0 
L 191 3500 
z
" transform="scale(0.015625)"/>
       <path id="DejaVuSans-72" d="M 2631 2963 
Q 2534 3019 2420 3045 
Q 2306 3072 2169 3072 
Q 1681 3072 1420 2755 
Q 1159 2438 1159 1844 
L 1159 0 
L 581 0 
L 581 3500 
L 1159 3500 
L 1159 2956 
Q 1341 3275 1631 3429 
Q 1922 3584 2338 3584 
Q 2397 3584 2469 3576 
Q 2541 3569 2628 3553 
L 2631 2963 
z
" transform="scale(0.015625)"/>
       <path id="DejaVuSans-20" transform="scale(0.015625)"/>
       <path id="DejaVuSans-54" d="M -19 4666 
L 3928 4666 
L 3928 4134 
L 2272 4134 
L 2272 0 
L 1638 0 
L 1638 4134 
L -19 4134 
L -19 4666 
z
" transform="scale(0.015625)"/>
       <path id="DejaVuSans-69" d="M 603 3500 
L 1178 3500 
L 1178 0 
L 603 0 
L 603 3500 
z
M 603 4863 
L 1178 4863 
L 1178 4134 
L 603 4134 
L 603 4863 
z
" transform="scale(0.015625)"/>
       <path id="DejaVuSans-6d" d="M 3328 2828 
Q 3544 3216 3844 3400 
Q 4144 3584 4550 3584 
Q 5097 3584 5394 3201 
Q 5691 2819 5691 2113 
L 5691 0 
L 5113 0 
L 5113 2094 
Q 5113 2597 4934 2840 
Q 4756 3084 4391 3084 
Q 3944 3084 3684 2787 
Q 3425 2491 3425 1978 
L 3425 0 
L 2847 0 
L 2847 2094 
Q 2847 2600 2669 2842 
Q 2491 3084 2119 3084 
Q 1678 3084 1418 2786 
Q 1159 2488 1159 1978 
L 1159 0 
L 581 0 
L 581 3500 
L 1159 3500 
L 1159 2956 
Q 1356 3278 1631 3431 
Q 1906 3584 2284 3584 
Q 2666 3584 2933 3390 
Q 3200 3197 3328 2828 
z
" transform="scale(0.015625)"/>
       <path id="DejaVuSans-28" d="M 1984 4856 
Q 1566 4138 1362 3434 
Q 1159 2731 1159 2009 
Q 1159 1288 1364 580 
Q 1569 -128 1984 -844 
L 1484 -844 
Q 1016 -109 783 600 
Q 550 1309 550 2009 
Q 550 2706 781 3412 
Q 1013 4119 1484 4856 
L 1984 4856 
z
" transform="scale(0.015625)"/>
       <path id="DejaVuSans-73" d="M 2834 3397 
L 2834 2853 
Q 2591 2978 2328 3040 
Q 2066 3103 1784 3103 
Q 1356 3103 1142 2972 
Q 928 2841 928 2578 
Q 928 2378 1081 2264 
Q 1234 2150 1697 2047 
L 1894 2003 
Q 2506 1872 2764 1633 
Q 3022 1394 3022 966 
Q 3022 478 2636 193 
Q 2250 -91 1575 -91 
Q 1294 -91 989 -36 
Q 684 19 347 128 
L 347 722 
Q 666 556 975 473 
Q 1284 391 1588 391 
Q 1994 391 2212 530 
Q 2431 669 2431 922 
Q 2431 1156 2273 1281 
Q 2116 1406 1581 1522 
L 1381 1569 
Q 847 1681 609 1914 
Q 372 2147 372 2553 
Q 372 3047 722 3315 
Q 1072 3584 1716 3584 
Q 2034 3584 2315 3537 
Q 2597 3491 2834 3397 
z
" transform="scale(0.015625)"/>
       <path id="DejaVuSans-29" d="M 513 4856 
L 1013 4856 
Q 1481 4119 1714 3412 
Q 1947 2706 1947 2009 
Q 1947 1309 1714 600 
Q 1481 -109 1013 -844 
L 513 -844 
Q 928 -128 1133 580 
Q 1338 1288 1338 2009 
Q 1338 2731 1133 3434 
Q 928 4138 513 4856 
z
" transform="scale(0.015625)"/>
      </defs>
      <use xlink:href="#DejaVuSans-4d"/>
      <use xlink:href="#DejaVuSans-61" transform="translate(86.279297 0)"/>
      <use xlink:href="#DejaVuSans-6e" transform="translate(147.558594 0)"/>
      <use xlink:href="#DejaVuSans-65" transform="translate(210.9375 0)"/>
      <use xlink:href="#DejaVuSans-75" transform="translate(272.460938 0)"/>
      <use xlink:href="#DejaVuSans-76" transform="translate(335.839844 0)"/>
      <use xlink:href="#DejaVuSans-65" transform="translate(395.019531 0)"/>
      <use xlink:href="#DejaVuSans-72" transform="translate(456.542969 0)"/>
      <use xlink:href="#DejaVuSans-20" transform="translate(497.65625 0)"/>
      <use xlink:href="#DejaVuSans-54" transform="translate(529.443359 0)"/>
      <use xlink:href="#DejaVuSans-69" transform="translate(587.402344 0)"/>
      <use xlink:href="#DejaVuSans-6d" transform="translate(615.185547 0)"/>
      <use xlink:href="#DejaVuSans-65" transform="translate(712.597656 0)"/>
      <use xlink:href="#DejaVuSans-20" transform="translate(774.121094 0)"/>
      <use xlink:href="#DejaVuSans-28" transform="translate(805.908203 0)"/>
      <use xlink:href="#DejaVuSans-73" transform="translate(844.921875 0)"/>
      <use xlink:href="#DejaVuSans-29" transform="translate(897.021484 0)"/>
     </g>
    </g>
   </g>
   <g id="matplotlib.axis_2">
    <g id="ytick_1">
     <g id="line2d_15">
      <path d="M 90 363.34111 
L 648 363.34111 
" clip-path="url(#pefab8d4be0)" style="fill: none; stroke: #b0b0b0; stroke-width: 0.8; stroke-linecap: square"/>
     </g>
     <g id="line2d_16">
      <defs>
       <path id="mcb8cc1494d" d="M 0 0 
L -3.5 0 
" style="stroke: #000000; stroke-width: 0.8"/>
      </defs>
      <g>
       <use xlink:href="#mcb8cc1494d" x="90" y="363.34111" style="stroke: #000000; stroke-width: 0.8"/>
      </g>
     </g>
     <g id="text_9">
      <!-- 0.000000 -->
      <g transform="translate(35.284375 367.140329) scale(0.1 -0.1)">
       <defs>
        <path id="DejaVuSans-2e" d="M 684 794 
L 1344 794 
L 1344 0 
L 684 0 
L 684 794 
z
" transform="scale(0.015625)"/>
       </defs>
       <use xlink:href="#DejaVuSans-30"/>
       <use xlink:href="#DejaVuSans-2e" transform="translate(63.623047 0)"/>
       <use xlink:href="#DejaVuSans-30" transform="translate(95.410156 0)"/>
       <use xlink:href="#DejaVuSans-30" transform="translate(159.033203 0)"/>
       <use xlink:href="#DejaVuSans-30" transform="translate(222.65625 0)"/>
       <use xlink:href="#DejaVuSans-30" transform="translate(286.279297 0)"/>
       <use xlink:href="#DejaVuSans-30" transform="translate(349.902344 0)"/>
       <use xlink:href="#DejaVuSans-30" transform="translate(413.525391 0)"/>
      </g>
     </g>
    </g>
    <g id="ytick_2">
     <g id="line2d_17">
      <path d="M 90 325.95884 
L 648 325.95884 
" clip-path="url(#pefab8d4be0)" style="fill: none; stroke: #b0b0b0; stroke-width: 0.8; stroke-linecap: square"/>
     </g>
     <g id="line2d_18">
      <g>
       <use xlink:href="#mcb8cc1494d" x="90" y="325.95884" style="stroke: #000000; stroke-width: 0.8"/>
      </g>
     </g>
     <g id="text_10">
      <!-- 0.000025 -->
      <g transform="translate(35.284375 329.758058) scale(0.1 -0.1)">
       <use xlink:href="#DejaVuSans-30"/>
       <use xlink:href="#DejaVuSans-2e" transform="translate(63.623047 0)"/>
       <use xlink:href="#DejaVuSans-30" transform="translate(95.410156 0)"/>
       <use xlink:href="#DejaVuSans-30" transform="translate(159.033203 0)"/>
       <use xlink:href="#DejaVuSans-30" transform="translate(222.65625 0)"/>
       <use xlink:href="#DejaVuSans-30" transform="translate(286.279297 0)"/>
       <use xlink:href="#DejaVuSans-32" transform="translate(349.902344 0)"/>
       <use xlink:href="#DejaVuSans-35" transform="translate(413.525391 0)"/>
      </g>
     </g>
    </g>
    <g id="ytick_3">
     <g id="line2d_19">
      <path d="M 90 288.576569 
L 648 288.576569 
" clip-path="url(#pefab8d4be0)" style="fill: none; stroke: #b0b0b0; stroke-width: 0.8; stroke-linecap: square"/>
     </g>
     <g id="line2d_20">
      <g>
       <use xlink:href="#mcb8cc1494d" x="90" y="288.576569" style="stroke: #000000; stroke-width: 0.8"/>
      </g>
     </g>
     <g id="text_11">
      <!-- 0.000050 -->
      <g transform="translate(35.284375 292.375788) scale(0.1 -0.1)">
       <use xlink:href="#DejaVuSans-30"/>
       <use xlink:href="#DejaVuSans-2e" transform="translate(63.623047 0)"/>
       <use xlink:href="#DejaVuSans-30" transform="translate(95.410156 0)"/>
       <use xlink:href="#DejaVuSans-30" transform="translate(159.033203 0)"/>
       <use xlink:href="#DejaVuSans-30" transform="translate(222.65625 0)"/>
       <use xlink:href="#DejaVuSans-30" transform="translate(286.279297 0)"/>
       <use xlink:href="#DejaVuSans-35" transform="translate(349.902344 0)"/>
       <use xlink:href="#DejaVuSans-30" transform="translate(413.525391 0)"/>
      </g>
     </g>
    </g>
    <g id="ytick_4">
     <g id="line2d_21">
      <path d="M 90 251.194299 
L 648 251.194299 
" clip-path="url(#pefab8d4be0)" style="fill: none; stroke: #b0b0b0; stroke-width: 0.8; stroke-linecap: square"/>
     </g>
     <g id="line2d_22">
      <g>
       <use xlink:href="#mcb8cc1494d" x="90" y="251.194299" style="stroke: #000000; stroke-width: 0.8"/>
      </g>
     </g>
     <g id="text_12">
      <!-- 0.000075 -->
      <g transform="translate(35.284375 254.993517) scale(0.1 -0.1)">
       <defs>
        <path id="DejaVuSans-37" d="M 525 4666 
L 3525 4666 
L 3525 4397 
L 1831 0 
L 1172 0 
L 2766 4134 
L 525 4134 
L 525 4666 
z
" transform="scale(0.015625)"/>
       </defs>
       <use xlink:href="#DejaVuSans-30"/>
       <use xlink:href="#DejaVuSans-2e" transform="translate(63.623047 0)"/>
       <use xlink:href="#DejaVuSans-30" transform="translate(95.410156 0)"/>
       <use xlink:href="#DejaVuSans-30" transform="translate(159.033203 0)"/>
       <use xlink:href="#DejaVuSans-30" transform="translate(222.65625 0)"/>
       <use xlink:href="#DejaVuSans-30" transform="translate(286.279297 0)"/>
       <use xlink:href="#DejaVuSans-37" transform="translate(349.902344 0)"/>
       <use xlink:href="#DejaVuSans-35" transform="translate(413.525391 0)"/>
      </g>
     </g>
    </g>
    <g id="ytick_5">
     <g id="line2d_23">
      <path d="M 90 213.812028 
L 648 213.812028 
" clip-path="url(#pefab8d4be0)" style="fill: none; stroke: #b0b0b0; stroke-width: 0.8; stroke-linecap: square"/>
     </g>
     <g id="line2d_24">
      <g>
       <use xlink:href="#mcb8cc1494d" x="90" y="213.812028" style="stroke: #000000; stroke-width: 0.8"/>
      </g>
     </g>
     <g id="text_13">
      <!-- 0.000100 -->
      <g transform="translate(35.284375 217.611247) scale(0.1 -0.1)">
       <use xlink:href="#DejaVuSans-30"/>
       <use xlink:href="#DejaVuSans-2e" transform="translate(63.623047 0)"/>
       <use xlink:href="#DejaVuSans-30" transform="translate(95.410156 0)"/>
       <use xlink:href="#DejaVuSans-30" transform="translate(159.033203 0)"/>
       <use xlink:href="#DejaVuSans-30" transform="translate(222.65625 0)"/>
       <use xlink:href="#DejaVuSans-31" transform="translate(286.279297 0)"/>
       <use xlink:href="#DejaVuSans-30" transform="translate(349.902344 0)"/>
       <use xlink:href="#DejaVuSans-30" transform="translate(413.525391 0)"/>
      </g>
     </g>
    </g>
    <g id="ytick_6">
     <g id="line2d_25">
      <path d="M 90 176.429757 
L 648 176.429757 
" clip-path="url(#pefab8d4be0)" style="fill: none; stroke: #b0b0b0; stroke-width: 0.8; stroke-linecap: square"/>
     </g>
     <g id="line2d_26">
      <g>
       <use xlink:href="#mcb8cc1494d" x="90" y="176.429757" style="stroke: #000000; stroke-width: 0.8"/>
      </g>
     </g>
     <g id="text_14">
      <!-- 0.000125 -->
      <g transform="translate(35.284375 180.228976) scale(0.1 -0.1)">
       <use xlink:href="#DejaVuSans-30"/>
       <use xlink:href="#DejaVuSans-2e" transform="translate(63.623047 0)"/>
       <use xlink:href="#DejaVuSans-30" transform="translate(95.410156 0)"/>
       <use xlink:href="#DejaVuSans-30" transform="translate(159.033203 0)"/>
       <use xlink:href="#DejaVuSans-30" transform="translate(222.65625 0)"/>
       <use xlink:href="#DejaVuSans-31" transform="translate(286.279297 0)"/>
       <use xlink:href="#DejaVuSans-32" transform="translate(349.902344 0)"/>
       <use xlink:href="#DejaVuSans-35" transform="translate(413.525391 0)"/>
      </g>
     </g>
    </g>
    <g id="ytick_7">
     <g id="line2d_27">
      <path d="M 90 139.047487 
L 648 139.047487 
" clip-path="url(#pefab8d4be0)" style="fill: none; stroke: #b0b0b0; stroke-width: 0.8; stroke-linecap: square"/>
     </g>
     <g id="line2d_28">
      <g>
       <use xlink:href="#mcb8cc1494d" x="90" y="139.047487" style="stroke: #000000; stroke-width: 0.8"/>
      </g>
     </g>
     <g id="text_15">
      <!-- 0.000150 -->
      <g transform="translate(35.284375 142.846706) scale(0.1 -0.1)">
       <use xlink:href="#DejaVuSans-30"/>
       <use xlink:href="#DejaVuSans-2e" transform="translate(63.623047 0)"/>
       <use xlink:href="#DejaVuSans-30" transform="translate(95.410156 0)"/>
       <use xlink:href="#DejaVuSans-30" transform="translate(159.033203 0)"/>
       <use xlink:href="#DejaVuSans-30" transform="translate(222.65625 0)"/>
       <use xlink:href="#DejaVuSans-31" transform="translate(286.279297 0)"/>
       <use xlink:href="#DejaVuSans-35" transform="translate(349.902344 0)"/>
       <use xlink:href="#DejaVuSans-30" transform="translate(413.525391 0)"/>
      </g>
     </g>
    </g>
    <g id="ytick_8">
     <g id="line2d_29">
      <path d="M 90 101.665216 
L 648 101.665216 
" clip-path="url(#pefab8d4be0)" style="fill: none; stroke: #b0b0b0; stroke-width: 0.8; stroke-linecap: square"/>
     </g>
     <g id="line2d_30">
      <g>
       <use xlink:href="#mcb8cc1494d" x="90" y="101.665216" style="stroke: #000000; stroke-width: 0.8"/>
      </g>
     </g>
     <g id="text_16">
      <!-- 0.000175 -->
      <g transform="translate(35.284375 105.464435) scale(0.1 -0.1)">
       <use xlink:href="#DejaVuSans-30"/>
       <use xlink:href="#DejaVuSans-2e" transform="translate(63.623047 0)"/>
       <use xlink:href="#DejaVuSans-30" transform="translate(95.410156 0)"/>
       <use xlink:href="#DejaVuSans-30" transform="translate(159.033203 0)"/>
       <use xlink:href="#DejaVuSans-30" transform="translate(222.65625 0)"/>
       <use xlink:href="#DejaVuSans-31" transform="translate(286.279297 0)"/>
       <use xlink:href="#DejaVuSans-37" transform="translate(349.902344 0)"/>
       <use xlink:href="#DejaVuSans-35" transform="translate(413.525391 0)"/>
      </g>
     </g>
    </g>
    <g id="ytick_9">
     <g id="line2d_31">
      <path d="M 90 64.282946 
L 648 64.282946 
" clip-path="url(#pefab8d4be0)" style="fill: none; stroke: #b0b0b0; stroke-width: 0.8; stroke-linecap: square"/>
     </g>
     <g id="line2d_32">
      <g>
       <use xlink:href="#mcb8cc1494d" x="90" y="64.282946" style="stroke: #000000; stroke-width: 0.8"/>
      </g>
     </g>
     <g id="text_17">
      <!-- 0.000200 -->
      <g transform="translate(35.284375 68.082165) scale(0.1 -0.1)">
       <use xlink:href="#DejaVuSans-30"/>
       <use xlink:href="#DejaVuSans-2e" transform="translate(63.623047 0)"/>
       <use xlink:href="#DejaVuSans-30" transform="translate(95.410156 0)"/>
       <use xlink:href="#DejaVuSans-30" transform="translate(159.033203 0)"/>
       <use xlink:href="#DejaVuSans-30" transform="translate(222.65625 0)"/>
       <use xlink:href="#DejaVuSans-32" transform="translate(286.279297 0)"/>
       <use xlink:href="#DejaVuSans-30" transform="translate(349.902344 0)"/>
       <use xlink:href="#DejaVuSans-30" transform="translate(413.525391 0)"/>
      </g>
     </g>
    </g>
    <g id="text_18">
     <!-- Estimated Value -->
     <g transform="translate(29.204687 258.738906) rotate(-90) scale(0.1 -0.1)">
      <defs>
       <path id="DejaVuSans-45" d="M 628 4666 
L 3578 4666 
L 3578 4134 
L 1259 4134 
L 1259 2753 
L 3481 2753 
L 3481 2222 
L 1259 2222 
L 1259 531 
L 3634 531 
L 3634 0 
L 628 0 
L 628 4666 
z
" transform="scale(0.015625)"/>
       <path id="DejaVuSans-74" d="M 1172 4494 
L 1172 3500 
L 2356 3500 
L 2356 3053 
L 1172 3053 
L 1172 1153 
Q 1172 725 1289 603 
Q 1406 481 1766 481 
L 2356 481 
L 2356 0 
L 1766 0 
Q 1100 0 847 248 
Q 594 497 594 1153 
L 594 3053 
L 172 3053 
L 172 3500 
L 594 3500 
L 594 4494 
L 1172 4494 
z
" transform="scale(0.015625)"/>
       <path id="DejaVuSans-64" d="M 2906 2969 
L 2906 4863 
L 3481 4863 
L 3481 0 
L 2906 0 
L 2906 525 
Q 2725 213 2448 61 
Q 2172 -91 1784 -91 
Q 1150 -91 751 415 
Q 353 922 353 1747 
Q 353 2572 751 3078 
Q 1150 3584 1784 3584 
Q 2172 3584 2448 3432 
Q 2725 3281 2906 2969 
z
M 947 1747 
Q 947 1113 1208 752 
Q 1469 391 1925 391 
Q 2381 391 2643 752 
Q 2906 1113 2906 1747 
Q 2906 2381 2643 2742 
Q 2381 3103 1925 3103 
Q 1469 3103 1208 2742 
Q 947 2381 947 1747 
z
" transform="scale(0.015625)"/>
       <path id="DejaVuSans-56" d="M 1831 0 
L 50 4666 
L 709 4666 
L 2188 738 
L 3669 4666 
L 4325 4666 
L 2547 0 
L 1831 0 
z
" transform="scale(0.015625)"/>
       <path id="DejaVuSans-6c" d="M 603 4863 
L 1178 4863 
L 1178 0 
L 603 0 
L 603 4863 
z
" transform="scale(0.015625)"/>
      </defs>
      <use xlink:href="#DejaVuSans-45"/>
      <use xlink:href="#DejaVuSans-73" transform="translate(63.183594 0)"/>
      <use xlink:href="#DejaVuSans-74" transform="translate(115.283203 0)"/>
      <use xlink:href="#DejaVuSans-69" transform="translate(154.492188 0)"/>
      <use xlink:href="#DejaVuSans-6d" transform="translate(182.275391 0)"/>
      <use xlink:href="#DejaVuSans-61" transform="translate(279.6875 0)"/>
      <use xlink:href="#DejaVuSans-74" transform="translate(340.966797 0)"/>
      <use xlink:href="#DejaVuSans-65" transform="translate(380.175781 0)"/>
      <use xlink:href="#DejaVuSans-64" transform="translate(441.699219 0)"/>
      <use xlink:href="#DejaVuSans-20" transform="translate(505.175781 0)"/>
      <use xlink:href="#DejaVuSans-56" transform="translate(536.962891 0)"/>
      <use xlink:href="#DejaVuSans-61" transform="translate(597.621094 0)"/>
      <use xlink:href="#DejaVuSans-6c" transform="translate(658.900391 0)"/>
      <use xlink:href="#DejaVuSans-75" transform="translate(686.683594 0)"/>
      <use xlink:href="#DejaVuSans-65" transform="translate(750.0625 0)"/>
     </g>
    </g>
   </g>
   <g id="line2d_33">
    <path d="M 115.363636 363.34111 
L 119.675713 363.231463 
L 122.435442 362.914044 
L 126.54054 362.174498 
L 127.678928 362.070737 
L 128.88631 362.070737 
L 129.231276 360.63786 
L 129.541745 360.498207 
L 130.473154 360.455398 
L 134.750734 360.583091 
L 145.858644 360.922707 
L 145.962134 360.922707 
L 145.996631 367.061827 
L 146.100121 366.893865 
L 146.51408 366.028797 
L 146.859046 365.826806 
L 147.410992 365.801003 
L 148.54938 366.035437 
L 150.68817 366.456623 
L 152.033538 366.479803 
L 154.413805 366.414224 
L 154.482798 363.027264 
L 154.551791 363.036621 
L 154.827764 362.974619 
L 155.862663 362.648026 
L 159.726284 361.861545 
L 161.623597 361.554939 
L 162.865476 361.554939 
L 163.003462 360.926013 
L 164.383327 359.535658 
L 165.280239 359.195472 
L 166.660103 358.935438 
L 169.04037 358.748096 
L 171.317146 358.725611 
L 171.420636 357.067276 
L 171.455133 357.068366 
L 171.834596 357.269825 
L 172.834997 357.74351 
L 174.111372 358.087695 
L 175.939693 358.335991 
L 178.457946 358.447196 
L 179.768817 358.447196 
L 179.906803 357.791743 
L 182.011097 357.561061 
L 187.461562 357.126367 
L 188.220488 357.126367 
L 188.254984 99.652332 
L 188.358474 105.211774 
L 188.599951 114.244011 
L 188.875923 116.729379 
L 189.324379 118.607141 
L 190.117802 120.834911 
L 191.325183 123.539643 
L 192.498068 125.657324 
L 193.49847 127.036983 
L 194.360885 127.876911 
L 194.981824 128.217359 
L 196.672159 128.217359 
L 196.706655 201.518638 
L 196.775648 181.375327 
L 196.982628 146.156129 
L 197.224104 140.501232 
L 197.569071 137.905056 
L 198.08652 135.866151 
L 198.810949 133.929843 
L 199.638867 132.318516 
L 200.363296 131.342934 
L 200.984235 130.836268 
L 201.536181 130.652696 
L 202.05363 130.715204 
L 202.57108 131.007005 
L 203.157522 131.61231 
L 203.467992 131.847111 
L 205.123829 131.847111 
L 205.261816 135.95816 
L 205.710272 138.688066 
L 206.158728 139.847101 
L 206.917653 141.119304 
L 208.401008 143.097008 
L 211.64369 147.003102 
L 211.919662 147.162223 
L 213.5755 147.162223 
L 213.609997 134.662924 
L 213.713486 135.339683 
L 214.092949 138.392261 
L 214.368922 139.064414 
L 214.679392 139.284843 
L 215.058854 139.245955 
L 215.71429 138.894704 
L 217.473618 137.889141 
L 218.301536 137.691628 
L 219.060462 137.727459 
L 219.819387 137.981388 
L 220.543816 138.211149 
L 222.027171 138.211149 
L 222.165157 150.638914 
L 222.855089 155.357583 
L 223.476029 157.997236 
L 224.165961 159.967842 
L 224.924886 161.462378 
L 225.752805 162.602783 
L 226.649717 163.469583 
L 227.684616 164.155839 
L 228.719514 164.600842 
L 230.478841 164.600842 
L 230.616828 161.75537 
L 231.686223 158.712047 
L 232.272665 157.912393 
L 232.893605 157.426323 
L 233.583537 157.172885 
L 234.342462 157.139089 
L 235.204878 157.330721 
L 236.20528 157.7876 
L 237.481654 158.391919 
L 238.930512 158.391919 
L 239.068499 161.743571 
L 239.999907 165.909375 
L 240.68984 167.761495 
L 241.483262 169.260638 
L 242.41467 170.541993 
L 243.484065 171.63711 
L 244.725944 172.593714 
L 245.691849 173.119901 
L 247.382183 173.119901 
L 247.41668 66.96 
L 247.520169 68.071172 
L 248.072115 77.752777 
L 248.520571 81.238947 
L 249.107014 84.108446 
L 249.900436 86.888886 
L 250.935334 89.714346 
L 252.142716 92.377642 
L 253.350097 94.519005 
L 254.109023 95.526171 
L 255.833854 95.526171 
L 255.86835 95.212183 
L 255.937344 95.42867 
L 256.213316 96.888836 
L 257.075732 101.517254 
L 257.869154 104.525295 
L 258.731569 106.94698 
L 259.662978 108.916956 
L 260.628883 110.457627 
L 261.629285 111.640898 
L 262.526197 112.387336 
L 264.285524 112.387336 
L 264.492504 111.163165 
L 265.389416 106.790596 
L 266.182838 104.095036 
L 267.114247 101.720352 
L 268.149145 99.685441 
L 269.32203 97.865649 
L 270.632902 96.239547 
L 271.081358 95.902356 
L 272.737195 95.902356 
L 272.875182 82.479813 
L 273.254644 81.173309 
L 273.841087 79.937968 
L 274.496523 79.064856 
L 275.289945 78.382467 
L 276.25585 77.850784 
L 277.497728 77.427813 
L 279.188062 77.101395 
L 280.188464 77.073912 
L 281.188866 77.073912 
L 281.326852 77.928627 
L 281.809805 78.234328 
L 282.844703 78.592383 
L 284.431548 78.929338 
L 284.569534 363.341111 
L 306.716361 363.452256 
L 315.064542 363.509457 
L 315.133535 364.074482 
L 315.202529 364.054216 
L 315.857964 363.856348 
L 317.134339 363.857647 
L 323.516213 364.020442 
L 323.654199 363.630714 
L 324.413125 363.385383 
L 326.241445 363.29392 
L 331.967884 363.164868 
L 332.071373 362.436998 
L 332.10587 362.442722 
L 334.624123 363.033663 
L 337.625328 363.240194 
L 340.454051 363.260435 
L 341.799419 363.295754 
L 347.836327 363.477353 
L 348.871225 363.477353 
L 349.009211 362.882034 
L 356.425984 363.186049 
L 357.322896 363.186049 
L 357.460882 364.068701 
L 357.805848 364.415526 
L 358.840747 364.897493 
L 361.324503 365.824452 
L 363.221817 366.306417 
L 364.463695 366.427702 
L 365.774566 366.427702 
L 365.912553 368.96314 
L 366.085036 369.161113 
L 366.464499 369.106584 
L 369.362214 368.423606 
L 370.604093 368.409295 
L 371.776978 368.614615 
L 372.949862 368.825907 
L 374.226237 368.825907 
L 374.260734 365.210424 
L 374.364224 365.310011 
L 374.881673 366.235008 
L 375.433619 366.594269 
L 376.503014 366.973065 
L 379.19375 367.631782 
L 381.33254 367.996248 
L 382.677908 367.996248 
L 382.712405 362.972674 
L 382.815894 363.051389 
L 383.195357 363.411635 
L 383.67831 363.472192 
L 384.885691 363.317204 
L 387.127971 363.074024 
L 388.783809 363.128006 
L 390.543136 363.195725 
L 391.129579 363.195725 
L 391.267565 365.582714 
L 392.060987 366.650392 
L 392.819913 367.238826 
L 393.785818 367.694831 
L 395.096689 368.055298 
L 396.959507 368.321508 
L 398.822324 368.38884 
L 399.581249 368.38884 
L 399.719236 367.604874 
L 400.823128 367.253026 
L 402.065006 367.165412 
L 403.893326 367.276081 
L 408.03292 367.636684 
L 408.067417 367.536673 
L 408.13641 367.582626 
L 409.136812 368.28416 
L 410.206207 368.684142 
L 411.827548 369.032209 
L 414.380297 369.334154 
L 415.967142 369.36 
L 416.484591 369.36 
L 416.519088 352.646031 
L 416.622577 352.916522 
L 417.174523 354.993275 
L 417.657476 355.772447 
L 418.381905 356.4771 
L 419.520293 357.237647 
L 421.141634 358.044442 
L 422.969955 358.712231 
L 423.5219 358.763257 
L 424.936262 358.763257 
L 425.074248 360.730088 
L 425.902167 362.001122 
L 426.695589 362.717041 
L 427.730487 363.344845 
L 429.041359 363.875567 
L 430.628203 364.275023 
L 432.008068 364.423704 
L 433.456926 364.317825 
L 435.802695 362.370947 
L 437.251553 361.707061 
L 439.183364 361.079403 
L 440.390745 360.857882 
L 441.839603 360.857882 
L 441.97759 358.13385 
L 442.460542 357.804089 
L 443.322958 357.486057 
L 444.702822 357.238263 
L 447.117585 357.061284 
L 450.291274 357.015734 
L 450.42926 357.143214 
L 451.947111 357.246684 
L 453.533956 357.298312 
L 453.568452 363.340603 
L 453.671942 363.324044 
L 454.396371 363.309651 
L 463.055021 363.288332 
L 467.677568 363.36032 
L 470.747767 363.380925 
L 484.16695 363.336871 
L 484.304936 362.52459 
L 484.684399 361.942867 
L 485.132855 361.730806 
L 486.064264 361.586526 
L 488.479027 361.498612 
L 492.618621 361.480342 
L 492.722111 361.897525 
L 492.756607 361.891667 
L 493.998485 361.659335 
L 497.034188 361.60374 
L 517.973633 361.465605 
L 518.111619 361.236274 
L 526.425304 361.215685 
L 526.4598 360.910596 
L 526.528794 361.025952 
L 526.804766 361.526882 
L 527.184229 361.642643 
L 528.59859 361.723313 
L 534.221539 361.7807 
L 534.876974 361.7807 
L 534.911471 361.40869 
L 534.980464 361.746739 
L 535.256437 363.241624 
L 535.53241 363.523701 
L 536.049859 363.652251 
L 537.395227 363.682912 
L 543.328645 363.549676 
L 543.363142 364.010578 
L 543.466632 363.963736 
L 543.915088 363.760069 
L 544.777503 363.734595 
L 551.780316 363.999496 
L 551.918302 358.229607 
L 552.401255 357.882499 
L 553.194677 357.704521 
L 555.60944 357.475367 
L 559.818027 357.255446 
L 560.231987 357.255446 
L 560.369973 356.985951 
L 563.440172 357.166752 
L 568.683657 357.148307 
L 568.821644 356.576971 
L 570.132515 356.274835 
L 572.374795 356.06108 
L 576.376403 355.909784 
L 577.135328 355.909784 
L 577.273315 355.423079 
L 582.137337 355.46411 
L 585.586999 355.469634 
L 585.724985 357.631219 
L 586.345924 358.093252 
L 587.31183 358.393821 
L 589.692096 358.853141 
L 592.555315 359.205936 
L 594.03867 359.205936 
L 594.176656 363.42128 
L 594.659609 364.288195 
L 595.211555 364.727758 
L 596.108467 365.118165 
L 597.626318 365.504859 
L 600.110074 365.887783 
L 601.593428 365.954667 
L 603.352756 365.849247 
L 605.905505 365.456043 
L 609.42416 365.143698 
L 610.942011 365.143698 
L 611.079998 364.251771 
L 612.114896 363.677514 
L 613.253284 363.35372 
L 615.047108 363.098526 
L 617.875831 362.937603 
L 620.083614 363.047927 
L 622.360391 363.211573 
L 622.636364 363.222811 
L 622.636364 363.222811 
" clip-path="url(#pefab8d4be0)" style="fill: none; stroke: #ff0000; stroke-width: 1.5; stroke-linecap: square"/>
   </g>
   <g id="line2d_34">
    <path d="M 115.363636 363.34111 
L 122.780409 363.230048 
L 128.955303 363.126913 
L 129.231276 362.80479 
L 129.852215 362.774434 
L 134.060802 362.707438 
L 145.962134 362.243556 
L 145.996631 362.96228 
L 146.100121 362.923384 
L 146.51408 362.82932 
L 147.686965 362.936306 
L 151.964545 363.352815 
L 154.413805 363.376207 
L 154.482798 361.084845 
L 154.551791 361.111583 
L 154.862261 361.162948 
L 159.070848 360.84379 
L 163.072455 360.781455 
L 164.969769 360.754622 
L 170.834194 360.68778 
L 171.317146 360.68778 
L 171.420636 359.86441 
L 171.455133 359.86606 
L 174.697815 360.198922 
L 178.423449 360.22124 
L 179.768817 360.22124 
L 179.906803 359.933889 
L 183.666935 359.806513 
L 188.220488 359.679097 
L 188.254984 106.995756 
L 188.358474 109.227274 
L 188.599951 112.949055 
L 188.979413 114.826605 
L 189.876325 117.800771 
L 191.773639 123.287509 
L 192.532565 125.012537 
L 192.946524 125.436243 
L 193.39498 125.548378 
L 196.672159 125.598073 
L 196.706655 225.794116 
L 196.810145 212.464187 
L 196.982628 204.510305 
L 197.258601 202.037847 
L 197.707057 200.291789 
L 198.396989 198.564372 
L 199.466384 196.545641 
L 200.190813 195.516083 
L 200.43229 195.411999 
L 201.294705 194.898211 
L 202.122624 194.679777 
L 203.019536 194.665581 
L 204.433897 194.711093 
L 205.123829 194.711093 
L 205.158326 125.207589 
L 205.261816 126.424985 
L 205.675775 132.844338 
L 206.020741 134.832318 
L 206.434701 135.975085 
L 206.917653 136.668156 
L 207.504096 137.122219 
L 208.332014 137.459615 
L 209.539396 137.696523 
L 212.195635 137.92802 
L 213.5755 137.92802 
L 213.713486 126.106277 
L 214.299929 125.697761 
L 215.265834 125.813231 
L 216.300733 125.750417 
L 221.544218 125.140397 
L 222.027171 125.140397 
L 222.096164 126.725686 
L 222.165157 126.676884 
L 223.338042 125.254773 
L 223.993478 125.041957 
L 224.959383 124.988052 
L 230.478841 125.117505 
L 230.582331 121.976287 
L 230.616828 121.993089 
L 230.927297 122.436439 
L 231.444747 122.984128 
L 232.065686 123.313399 
L 232.928101 123.499355 
L 234.376959 123.548605 
L 238.930512 123.547218 
L 238.999505 122.827006 
L 239.068499 122.851721 
L 240.758833 123.745086 
L 242.41467 124.19027 
L 244.86393 124.536638 
L 246.485271 124.615457 
L 247.382183 124.615457 
L 247.451176 74.599588 
L 247.520169 74.807005 
L 248.279095 78.772883 
L 249.03802 80.925723 
L 250.210905 83.580416 
L 251.418287 85.799474 
L 252.453185 87.258181 
L 253.350097 88.156355 
L 254.074526 88.609592 
L 255.833854 88.609592 
L 255.86835 91.819512 
L 255.97184 91.682249 
L 256.28231 91.062705 
L 256.420296 91.261662 
L 256.627276 92.096657 
L 256.972242 94.663548 
L 257.524188 100.851168 
L 258.766066 115.254095 
L 259.352508 119.393554 
L 259.869958 121.587818 
L 260.35291 122.748853 
L 260.801366 123.313026 
L 261.249822 123.556488 
L 261.767271 123.590871 
L 264.285524 123.39859 
L 264.423511 121.136759 
L 264.906463 121.054919 
L 266.286328 121.119028 
L 267.873172 121.096865 
L 269.184044 120.849519 
L 270.529412 120.361966 
L 271.219344 120.168779 
L 272.737195 120.168779 
L 272.875182 111.305352 
L 273.80659 103.907803 
L 274.531019 100.394253 
L 275.427931 97.164099 
L 276.497326 94.132865 
L 277.739204 91.274191 
L 279.050076 88.805702 
L 279.498532 88.235016 
L 281.188866 88.235016 
L 281.326852 79.945182 
L 281.809805 79.010258 
L 282.327254 78.531762 
L 283.051683 78.180439 
L 284.017588 77.968324 
L 284.431548 77.932299 
L 284.569534 363.341111 
L 315.064542 363.339312 
L 315.168032 363.636333 
L 315.202529 363.631677 
L 316.20293 363.60066 
L 323.964669 363.692449 
L 324.654601 363.576389 
L 326.965874 363.502005 
L 331.967884 363.452602 
L 332.10587 362.943129 
L 340.799017 363.19226 
L 342.316868 363.149205 
L 348.871225 363.262324 
L 349.009211 362.946412 
L 352.38988 363.290521 
L 357.219406 363.371275 
L 357.322896 363.371275 
L 357.357392 364.856512 
L 357.426386 364.462048 
L 357.736855 362.3278 
L 358.219808 361.062672 
L 359.668666 358.090042 
L 361.427993 354.928446 
L 362.807858 352.887633 
L 363.980742 351.53783 
L 365.774566 351.53783 
L 365.912553 362.702031 
L 366.154029 363.800491 
L 366.636982 364.690774 
L 367.740874 366.220247 
L 368.706779 367.225722 
L 369.500201 367.748493 
L 370.155637 367.932123 
L 370.776576 367.876369 
L 371.397515 367.584833 
L 372.05295 367.016861 
L 372.604896 366.565294 
L 374.226237 366.565294 
L 374.260734 332.545064 
L 374.364224 332.963515 
L 374.778183 334.995309 
L 375.088653 335.498842 
L 375.468115 335.689689 
L 375.951068 335.656281 
L 376.709994 335.346223 
L 377.986368 334.552282 
L 380.608111 332.605388 
L 381.056567 332.394795 
L 382.677908 332.394795 
L 382.815894 325.389051 
L 383.195357 322.682897 
L 383.505827 321.984125 
L 383.850793 321.745945 
L 384.264752 321.748139 
L 384.989181 322.019962 
L 386.955488 322.832521 
L 387.921393 322.955088 
L 388.818305 322.841437 
L 389.887701 322.673086 
L 391.129579 322.673086 
L 391.267565 313.410787 
L 392.060987 309.284908 
L 392.681926 307.358232 
L 393.371859 305.927128 
L 394.130784 304.851117 
L 394.9932 304.010857 
L 395.993601 303.35257 
L 397.166486 302.852552 
L 398.063398 302.668931 
L 399.581249 302.668931 
L 399.719236 306.884135 
L 400.409168 307.928185 
L 400.961114 308.315417 
L 401.61655 308.492053 
L 402.409972 308.465256 
L 403.410374 308.199099 
L 404.686748 307.612966 
L 406.687552 306.644307 
L 408.03292 306.644307 
L 408.170907 303.725436 
L 409.136812 300.25487 
L 409.792248 298.89984 
L 410.551173 297.822632 
L 411.448085 296.928202 
L 412.551977 296.146715 
L 413.931841 295.451665 
L 414.897747 295.153097 
L 416.484591 295.153097 
L 416.519088 361.210593 
L 416.622577 360.6217 
L 417.174523 355.111848 
L 417.657476 352.925333 
L 418.312912 351.032368 
L 419.24432 349.066127 
L 420.451702 347.049489 
L 421.762573 345.278951 
L 423.038948 343.915123 
L 423.280424 343.819667 
L 424.936262 343.819667 
L 424.970758 345.195282 
L 425.074248 344.976842 
L 425.522704 343.239684 
L 426.212636 341.100031 
L 426.971562 339.465859 
L 427.799481 338.194051 
L 428.730889 337.169427 
L 429.731291 336.39954 
L 430.800686 335.855664 
L 431.732095 335.599117 
L 433.387932 335.599117 
L 433.560415 336.207734 
L 434.664307 338.893326 
L 435.595716 340.473482 
L 436.699607 341.903742 
L 438.010479 343.232359 
L 439.562826 344.482789 
L 440.218262 344.820358 
L 441.839603 344.820358 
L 441.97759 353.807215 
L 442.391549 354.826425 
L 442.977991 355.720628 
L 443.70242 356.418461 
L 444.599332 356.968664 
L 445.806714 357.433565 
L 447.462551 357.816981 
L 448.980402 357.974814 
L 450.73973 358.082935 
L 451.878118 358.346227 
L 453.533956 358.49882 
L 453.568452 363.340588 
L 453.671942 363.322629 
L 454.396371 363.29105 
L 462.468579 363.304196 
L 467.091125 363.321561 
L 467.229112 363.113135 
L 468.505487 363.087823 
L 473.26602 363.120801 
L 482.994065 363.186553 
L 484.16695 363.186553 
L 484.304936 362.417497 
L 484.684399 361.873671 
L 485.167352 361.664779 
L 486.167754 361.529962 
L 488.823993 361.454642 
L 492.618621 361.448319 
L 492.722111 361.873748 
L 492.756607 361.869321 
L 494.170968 361.654291 
L 498.103583 361.601337 
L 517.973633 361.510169 
L 518.111619 361.294697 
L 526.425304 361.27273 
L 526.4598 361.104889 
L 526.528794 361.264022 
L 526.804766 361.900914 
L 527.149733 362.003597 
L 528.288121 361.979618 
L 533.29013 361.821807 
L 534.911471 361.775867 
L 535.014961 362.836256 
L 535.256437 364.828067 
L 535.53241 365.35703 
L 535.980866 365.673925 
L 536.912275 365.998128 
L 539.258045 366.527864 
L 541.914284 366.938888 
L 543.328645 366.938888 
L 543.397638 360.606845 
L 543.466632 360.630682 
L 544.018577 360.933648 
L 544.70851 360.911816 
L 546.674817 360.538144 
L 549.572533 360.065273 
L 550.952397 360.022163 
L 551.780316 360.022163 
L 551.918302 357.250279 
L 552.366758 356.535156 
L 552.815214 356.341649 
L 553.608637 356.291287 
L 555.195481 356.452559 
L 558.127693 356.996925 
L 558.955612 357.063946 
L 560.231987 357.063946 
L 560.335476 357.244008 
L 560.369973 357.237037 
L 562.43977 356.746456 
L 564.57856 356.643711 
L 568.683657 356.678977 
L 568.821644 357.99932 
L 569.787549 359.009453 
L 570.649964 359.49249 
L 571.891843 359.914941 
L 573.823653 360.315318 
L 575.824457 360.534788 
L 577.135328 360.534788 
L 577.273315 360.160582 
L 581.171432 359.803785 
L 585.586999 359.713257 
L 585.690489 357.283747 
L 585.724985 357.286588 
L 586.242435 357.289318 
L 587.10485 356.926124 
L 591.899879 354.699802 
L 592.555315 354.574882 
L 594.03867 354.574882 
L 594.073166 356.423034 
L 594.176656 356.414924 
L 594.487126 356.394426 
L 595.108065 355.969421 
L 596.694909 354.918676 
L 598.385243 354.088308 
L 600.420543 353.339306 
L 601.041482 353.253938 
L 602.80081 353.353725 
L 603.870205 354.235061 
L 605.112083 354.943478 
L 606.767921 355.616257 
L 608.975704 356.258875 
L 609.596643 356.301087 
L 610.942011 356.301087 
L 611.079998 359.088826 
L 611.907916 360.640591 
L 612.632345 361.458236 
L 613.494761 362.084069 
L 614.564156 362.576358 
L 615.978517 362.970774 
L 617.737844 363.234103 
L 620.980526 363.12454 
L 622.636364 363.006961 
L 622.636364 363.006961 
" clip-path="url(#pefab8d4be0)" style="fill: none; stroke-dasharray: 5.55,2.4; stroke-dashoffset: 0; stroke: #0000ff; stroke-width: 1.5"/>
   </g>
   <g id="patch_3">
    <path d="M 90 384.48 
L 90 51.84 
" style="fill: none; stroke: #000000; stroke-width: 0.8; stroke-linejoin: miter; stroke-linecap: square"/>
   </g>
   <g id="patch_4">
    <path d="M 648 384.48 
L 648 51.84 
" style="fill: none; stroke: #000000; stroke-width: 0.8; stroke-linejoin: miter; stroke-linecap: square"/>
   </g>
   <g id="patch_5">
    <path d="M 90 384.48 
L 648 384.48 
" style="fill: none; stroke: #000000; stroke-width: 0.8; stroke-linejoin: miter; stroke-linecap: square"/>
   </g>
   <g id="patch_6">
    <path d="M 90 51.84 
L 648 51.84 
" style="fill: none; stroke: #000000; stroke-width: 0.8; stroke-linejoin: miter; stroke-linecap: square"/>
   </g>
   <g id="text_19">
    <!-- State Value Convergence for dKg_yz (Index 19) -->
    <g transform="translate(227.296875 45.84) scale(0.12 -0.12)">
     <defs>
      <path id="DejaVuSans-53" d="M 3425 4513 
L 3425 3897 
Q 3066 4069 2747 4153 
Q 2428 4238 2131 4238 
Q 1616 4238 1336 4038 
Q 1056 3838 1056 3469 
Q 1056 3159 1242 3001 
Q 1428 2844 1947 2747 
L 2328 2669 
Q 3034 2534 3370 2195 
Q 3706 1856 3706 1288 
Q 3706 609 3251 259 
Q 2797 -91 1919 -91 
Q 1588 -91 1214 -16 
Q 841 59 441 206 
L 441 856 
Q 825 641 1194 531 
Q 1563 422 1919 422 
Q 2459 422 2753 634 
Q 3047 847 3047 1241 
Q 3047 1584 2836 1778 
Q 2625 1972 2144 2069 
L 1759 2144 
Q 1053 2284 737 2584 
Q 422 2884 422 3419 
Q 422 4038 858 4394 
Q 1294 4750 2059 4750 
Q 2388 4750 2728 4690 
Q 3069 4631 3425 4513 
z
" transform="scale(0.015625)"/>
      <path id="DejaVuSans-43" d="M 4122 4306 
L 4122 3641 
Q 3803 3938 3442 4084 
Q 3081 4231 2675 4231 
Q 1875 4231 1450 3742 
Q 1025 3253 1025 2328 
Q 1025 1406 1450 917 
Q 1875 428 2675 428 
Q 3081 428 3442 575 
Q 3803 722 4122 1019 
L 4122 359 
Q 3791 134 3420 21 
Q 3050 -91 2638 -91 
Q 1578 -91 968 557 
Q 359 1206 359 2328 
Q 359 3453 968 4101 
Q 1578 4750 2638 4750 
Q 3056 4750 3426 4639 
Q 3797 4528 4122 4306 
z
" transform="scale(0.015625)"/>
      <path id="DejaVuSans-6f" d="M 1959 3097 
Q 1497 3097 1228 2736 
Q 959 2375 959 1747 
Q 959 1119 1226 758 
Q 1494 397 1959 397 
Q 2419 397 2687 759 
Q 2956 1122 2956 1747 
Q 2956 2369 2687 2733 
Q 2419 3097 1959 3097 
z
M 1959 3584 
Q 2709 3584 3137 3096 
Q 3566 2609 3566 1747 
Q 3566 888 3137 398 
Q 2709 -91 1959 -91 
Q 1206 -91 779 398 
Q 353 888 353 1747 
Q 353 2609 779 3096 
Q 1206 3584 1959 3584 
z
" transform="scale(0.015625)"/>
      <path id="DejaVuSans-67" d="M 2906 1791 
Q 2906 2416 2648 2759 
Q 2391 3103 1925 3103 
Q 1463 3103 1205 2759 
Q 947 2416 947 1791 
Q 947 1169 1205 825 
Q 1463 481 1925 481 
Q 2391 481 2648 825 
Q 2906 1169 2906 1791 
z
M 3481 434 
Q 3481 -459 3084 -895 
Q 2688 -1331 1869 -1331 
Q 1566 -1331 1297 -1286 
Q 1028 -1241 775 -1147 
L 775 -588 
Q 1028 -725 1275 -790 
Q 1522 -856 1778 -856 
Q 2344 -856 2625 -561 
Q 2906 -266 2906 331 
L 2906 616 
Q 2728 306 2450 153 
Q 2172 0 1784 0 
Q 1141 0 747 490 
Q 353 981 353 1791 
Q 353 2603 747 3093 
Q 1141 3584 1784 3584 
Q 2172 3584 2450 3431 
Q 2728 3278 2906 2969 
L 2906 3500 
L 3481 3500 
L 3481 434 
z
" transform="scale(0.015625)"/>
      <path id="DejaVuSans-63" d="M 3122 3366 
L 3122 2828 
Q 2878 2963 2633 3030 
Q 2388 3097 2138 3097 
Q 1578 3097 1268 2742 
Q 959 2388 959 1747 
Q 959 1106 1268 751 
Q 1578 397 2138 397 
Q 2388 397 2633 464 
Q 2878 531 3122 666 
L 3122 134 
Q 2881 22 2623 -34 
Q 2366 -91 2075 -91 
Q 1284 -91 818 406 
Q 353 903 353 1747 
Q 353 2603 823 3093 
Q 1294 3584 2113 3584 
Q 2378 3584 2631 3529 
Q 2884 3475 3122 3366 
z
" transform="scale(0.015625)"/>
      <path id="DejaVuSans-66" d="M 2375 4863 
L 2375 4384 
L 1825 4384 
Q 1516 4384 1395 4259 
Q 1275 4134 1275 3809 
L 1275 3500 
L 2222 3500 
L 2222 3053 
L 1275 3053 
L 1275 0 
L 697 0 
L 697 3053 
L 147 3053 
L 147 3500 
L 697 3500 
L 697 3744 
Q 697 4328 969 4595 
Q 1241 4863 1831 4863 
L 2375 4863 
z
" transform="scale(0.015625)"/>
      <path id="DejaVuSans-4b" d="M 628 4666 
L 1259 4666 
L 1259 2694 
L 3353 4666 
L 4166 4666 
L 1850 2491 
L 4331 0 
L 3500 0 
L 1259 2247 
L 1259 0 
L 628 0 
L 628 4666 
z
" transform="scale(0.015625)"/>
      <path id="DejaVuSans-5f" d="M 3263 -1063 
L 3263 -1509 
L -63 -1509 
L -63 -1063 
L 3263 -1063 
z
" transform="scale(0.015625)"/>
      <path id="DejaVuSans-79" d="M 2059 -325 
Q 1816 -950 1584 -1140 
Q 1353 -1331 966 -1331 
L 506 -1331 
L 506 -850 
L 844 -850 
Q 1081 -850 1212 -737 
Q 1344 -625 1503 -206 
L 1606 56 
L 191 3500 
L 800 3500 
L 1894 763 
L 2988 3500 
L 3597 3500 
L 2059 -325 
z
" transform="scale(0.015625)"/>
      <path id="DejaVuSans-7a" d="M 353 3500 
L 3084 3500 
L 3084 2975 
L 922 459 
L 3084 459 
L 3084 0 
L 275 0 
L 275 525 
L 2438 3041 
L 353 3041 
L 353 3500 
z
" transform="scale(0.015625)"/>
      <path id="DejaVuSans-49" d="M 628 4666 
L 1259 4666 
L 1259 0 
L 628 0 
L 628 4666 
z
" transform="scale(0.015625)"/>
      <path id="DejaVuSans-78" d="M 3513 3500 
L 2247 1797 
L 3578 0 
L 2900 0 
L 1881 1375 
L 863 0 
L 184 0 
L 1544 1831 
L 300 3500 
L 978 3500 
L 1906 2253 
L 2834 3500 
L 3513 3500 
z
" transform="scale(0.015625)"/>
      <path id="DejaVuSans-39" d="M 703 97 
L 703 672 
Q 941 559 1184 500 
Q 1428 441 1663 441 
Q 2288 441 2617 861 
Q 2947 1281 2994 2138 
Q 2813 1869 2534 1725 
Q 2256 1581 1919 1581 
Q 1219 1581 811 2004 
Q 403 2428 403 3163 
Q 403 3881 828 4315 
Q 1253 4750 1959 4750 
Q 2769 4750 3195 4129 
Q 3622 3509 3622 2328 
Q 3622 1225 3098 567 
Q 2575 -91 1691 -91 
Q 1453 -91 1209 -44 
Q 966 3 703 97 
z
M 1959 2075 
Q 2384 2075 2632 2365 
Q 2881 2656 2881 3163 
Q 2881 3666 2632 3958 
Q 2384 4250 1959 4250 
Q 1534 4250 1286 3958 
Q 1038 3666 1038 3163 
Q 1038 2656 1286 2365 
Q 1534 2075 1959 2075 
z
" transform="scale(0.015625)"/>
     </defs>
     <use xlink:href="#DejaVuSans-53"/>
     <use xlink:href="#DejaVuSans-74" transform="translate(63.476562 0)"/>
     <use xlink:href="#DejaVuSans-61" transform="translate(102.685547 0)"/>
     <use xlink:href="#DejaVuSans-74" transform="translate(163.964844 0)"/>
     <use xlink:href="#DejaVuSans-65" transform="translate(203.173828 0)"/>
     <use xlink:href="#DejaVuSans-20" transform="translate(264.697266 0)"/>
     <use xlink:href="#DejaVuSans-56" transform="translate(296.484375 0)"/>
     <use xlink:href="#DejaVuSans-61" transform="translate(357.142578 0)"/>
     <use xlink:href="#DejaVuSans-6c" transform="translate(418.421875 0)"/>
     <use xlink:href="#DejaVuSans-75" transform="translate(446.205078 0)"/>
     <use xlink:href="#DejaVuSans-65" transform="translate(509.583984 0)"/>
     <use xlink:href="#DejaVuSans-20" transform="translate(571.107422 0)"/>
     <use xlink:href="#DejaVuSans-43" transform="translate(602.894531 0)"/>
     <use xlink:href="#DejaVuSans-6f" transform="translate(672.71875 0)"/>
     <use xlink:href="#DejaVuSans-6e" transform="translate(733.900391 0)"/>
     <use xlink:href="#DejaVuSans-76" transform="translate(797.279297 0)"/>
     <use xlink:href="#DejaVuSans-65" transform="translate(856.458984 0)"/>
     <use xlink:href="#DejaVuSans-72" transform="translate(917.982422 0)"/>
     <use xlink:href="#DejaVuSans-67" transform="translate(957.345703 0)"/>
     <use xlink:href="#DejaVuSans-65" transform="translate(1020.822266 0)"/>
     <use xlink:href="#DejaVuSans-6e" transform="translate(1082.345703 0)"/>
     <use xlink:href="#DejaVuSans-63" transform="translate(1145.724609 0)"/>
     <use xlink:href="#DejaVuSans-65" transform="translate(1200.705078 0)"/>
     <use xlink:href="#DejaVuSans-20" transform="translate(1262.228516 0)"/>
     <use xlink:href="#DejaVuSans-66" transform="translate(1294.015625 0)"/>
     <use xlink:href="#DejaVuSans-6f" transform="translate(1329.220703 0)"/>
     <use xlink:href="#DejaVuSans-72" transform="translate(1390.402344 0)"/>
     <use xlink:href="#DejaVuSans-20" transform="translate(1431.515625 0)"/>
     <use xlink:href="#DejaVuSans-64" transform="translate(1463.302734 0)"/>
     <use xlink:href="#DejaVuSans-4b" transform="translate(1526.779297 0)"/>
     <use xlink:href="#DejaVuSans-67" transform="translate(1592.355469 0)"/>
     <use xlink:href="#DejaVuSans-5f" transform="translate(1655.832031 0)"/>
     <use xlink:href="#DejaVuSans-79" transform="translate(1705.832031 0)"/>
     <use xlink:href="#DejaVuSans-7a" transform="translate(1765.011719 0)"/>
     <use xlink:href="#DejaVuSans-20" transform="translate(1817.501953 0)"/>
     <use xlink:href="#DejaVuSans-28" transform="translate(1849.289062 0)"/>
     <use xlink:href="#DejaVuSans-49" transform="translate(1888.302734 0)"/>
     <use xlink:href="#DejaVuSans-6e" transform="translate(1917.794922 0)"/>
     <use xlink:href="#DejaVuSans-64" transform="translate(1981.173828 0)"/>
     <use xlink:href="#DejaVuSans-65" transform="translate(2044.650391 0)"/>
     <use xlink:href="#DejaVuSans-78" transform="translate(2104.423828 0)"/>
     <use xlink:href="#DejaVuSans-20" transform="translate(2163.603516 0)"/>
     <use xlink:href="#DejaVuSans-31" transform="translate(2195.390625 0)"/>
     <use xlink:href="#DejaVuSans-39" transform="translate(2259.013672 0)"/>
     <use xlink:href="#DejaVuSans-29" transform="translate(2322.636719 0)"/>
    </g>
   </g>
   <g id="legend_1">
    <g id="patch_7">
     <path d="M 521.465625 89.19625 
L 641 89.19625 
Q 643 89.19625 643 87.19625 
L 643 58.84 
Q 643 56.84 641 56.84 
L 521.465625 56.84 
Q 519.465625 56.84 519.465625 58.84 
L 519.465625 87.19625 
Q 519.465625 89.19625 521.465625 89.19625 
z
" style="fill: #ffffff; opacity: 0.8; stroke: #cccccc; stroke-linejoin: miter"/>
    </g>
    <g id="line2d_35">
     <path d="M 523.465625 64.938437 
L 533.465625 64.938437 
L 543.465625 64.938437 
" style="fill: none; stroke: #ff0000; stroke-width: 1.5; stroke-linecap: square"/>
    </g>
    <g id="text_20">
     <!-- Baseline KF State -->
     <g transform="translate(551.465625 68.438437) scale(0.1 -0.1)">
      <defs>
       <path id="DejaVuSans-42" d="M 1259 2228 
L 1259 519 
L 2272 519 
Q 2781 519 3026 730 
Q 3272 941 3272 1375 
Q 3272 1813 3026 2020 
Q 2781 2228 2272 2228 
L 1259 2228 
z
M 1259 4147 
L 1259 2741 
L 2194 2741 
Q 2656 2741 2882 2914 
Q 3109 3088 3109 3444 
Q 3109 3797 2882 3972 
Q 2656 4147 2194 4147 
L 1259 4147 
z
M 628 4666 
L 2241 4666 
Q 2963 4666 3353 4366 
Q 3744 4066 3744 3513 
Q 3744 3084 3544 2831 
Q 3344 2578 2956 2516 
Q 3422 2416 3680 2098 
Q 3938 1781 3938 1306 
Q 3938 681 3513 340 
Q 3088 0 2303 0 
L 628 0 
L 628 4666 
z
" transform="scale(0.015625)"/>
       <path id="DejaVuSans-46" d="M 628 4666 
L 3309 4666 
L 3309 4134 
L 1259 4134 
L 1259 2759 
L 3109 2759 
L 3109 2228 
L 1259 2228 
L 1259 0 
L 628 0 
L 628 4666 
z
" transform="scale(0.015625)"/>
      </defs>
      <use xlink:href="#DejaVuSans-42"/>
      <use xlink:href="#DejaVuSans-61" transform="translate(68.603516 0)"/>
      <use xlink:href="#DejaVuSans-73" transform="translate(129.882812 0)"/>
      <use xlink:href="#DejaVuSans-65" transform="translate(181.982422 0)"/>
      <use xlink:href="#DejaVuSans-6c" transform="translate(243.505859 0)"/>
      <use xlink:href="#DejaVuSans-69" transform="translate(271.289062 0)"/>
      <use xlink:href="#DejaVuSans-6e" transform="translate(299.072266 0)"/>
      <use xlink:href="#DejaVuSans-65" transform="translate(362.451172 0)"/>
      <use xlink:href="#DejaVuSans-20" transform="translate(423.974609 0)"/>
      <use xlink:href="#DejaVuSans-4b" transform="translate(455.761719 0)"/>
      <use xlink:href="#DejaVuSans-46" transform="translate(521.337891 0)"/>
      <use xlink:href="#DejaVuSans-20" transform="translate(578.857422 0)"/>
      <use xlink:href="#DejaVuSans-53" transform="translate(610.644531 0)"/>
      <use xlink:href="#DejaVuSans-74" transform="translate(674.121094 0)"/>
      <use xlink:href="#DejaVuSans-61" transform="translate(713.330078 0)"/>
      <use xlink:href="#DejaVuSans-74" transform="translate(774.609375 0)"/>
      <use xlink:href="#DejaVuSans-65" transform="translate(813.818359 0)"/>
     </g>
    </g>
    <g id="line2d_36">
     <path d="M 523.465625 79.616562 
L 533.465625 79.616562 
L 543.465625 79.616562 
" style="fill: none; stroke-dasharray: 5.55,2.4; stroke-dashoffset: 0; stroke: #0000ff; stroke-width: 1.5"/>
    </g>
    <g id="text_21">
     <!-- Shadow KF State -->
     <g transform="translate(551.465625 83.116562) scale(0.1 -0.1)">
      <defs>
       <path id="DejaVuSans-68" d="M 3513 2113 
L 3513 0 
L 2938 0 
L 2938 2094 
Q 2938 2591 2744 2837 
Q 2550 3084 2163 3084 
Q 1697 3084 1428 2787 
Q 1159 2491 1159 1978 
L 1159 0 
L 581 0 
L 581 4863 
L 1159 4863 
L 1159 2956 
Q 1366 3272 1645 3428 
Q 1925 3584 2291 3584 
Q 2894 3584 3203 3211 
Q 3513 2838 3513 2113 
z
" transform="scale(0.015625)"/>
       <path id="DejaVuSans-77" d="M 269 3500 
L 844 3500 
L 1563 769 
L 2278 3500 
L 2956 3500 
L 3675 769 
L 4391 3500 
L 4966 3500 
L 4050 0 
L 3372 0 
L 2619 2869 
L 1863 0 
L 1184 0 
L 269 3500 
z
" transform="scale(0.015625)"/>
      </defs>
      <use xlink:href="#DejaVuSans-53"/>
      <use xlink:href="#DejaVuSans-68" transform="translate(63.476562 0)"/>
      <use xlink:href="#DejaVuSans-61" transform="translate(126.855469 0)"/>
      <use xlink:href="#DejaVuSans-64" transform="translate(188.134766 0)"/>
      <use xlink:href="#DejaVuSans-6f" transform="translate(251.611328 0)"/>
      <use xlink:href="#DejaVuSans-77" transform="translate(312.792969 0)"/>
      <use xlink:href="#DejaVuSans-20" transform="translate(394.580078 0)"/>
      <use xlink:href="#DejaVuSans-4b" transform="translate(426.367188 0)"/>
      <use xlink:href="#DejaVuSans-46" transform="translate(491.943359 0)"/>
      <use xlink:href="#DejaVuSans-20" transform="translate(549.462891 0)"/>
      <use xlink:href="#DejaVuSans-53" transform="translate(581.25 0)"/>
      <use xlink:href="#DejaVuSans-74" transform="translate(644.726562 0)"/>
      <use xlink:href="#DejaVuSans-61" transform="translate(683.935547 0)"/>
      <use xlink:href="#DejaVuSans-74" transform="translate(745.214844 0)"/>
      <use xlink:href="#DejaVuSans-65" transform="translate(784.423828 0)"/>
     </g>
    </g>
   </g>
  </g>
 </g>
 <defs>
  <clipPath id="pefab8d4be0">
   <rect x="90" y="51.84" width="558" height="332.64"/>
  </clipPath>
 </defs>
</svg>
