<?xml version="1.0" encoding="utf-8" standalone="no"?>
<!DOCTYPE svg PUBLIC "-//W3C//DTD SVG 1.1//EN"
  "http://www.w3.org/Graphics/SVG/1.1/DTD/svg11.dtd">
<svg xmlns:xlink="http://www.w3.org/1999/xlink" width="720pt" height="432pt" viewBox="0 0 720 432" xmlns="http://www.w3.org/2000/svg" version="1.1">
 <metadata>
  <rdf:RDF xmlns:dc="http://purl.org/dc/elements/1.1/" xmlns:cc="http://creativecommons.org/ns#" xmlns:rdf="http://www.w3.org/1999/02/22-rdf-syntax-ns#">
   <cc:Work>
    <dc:type rdf:resource="http://purl.org/dc/dcmitype/StillImage"/>
    <dc:date>2026-03-25T09:55:30.779480</dc:date>
    <dc:format>image/svg+xml</dc:format>
    <dc:creator>
     <cc:Agent>
      <dc:title>Matplotlib v3.10.8, https://matplotlib.org/</dc:title>
     </cc:Agent>
    </dc:creator>
   </cc:Work>
  </rdf:RDF>
 </metadata>
 <defs>
  <style type="text/css">*{stroke-linejoin: round; stroke-linecap: butt}</style>
 </defs>
 <g id="figure_1">
  <g id="patch_1">
   <path d="M 0 432 
L 720 432 
L 720 0 
L 0 0 
z
" style="fill: #ffffff"/>
  </g>
  <g id="axes_1">
   <g id="patch_2">
    <path d="M 90 384.48 
L 648 384.48 
L 648 51.84 
L 90 51.84 
z
" style="fill: #ffffff"/>
   </g>
   <g id="matplotlib.axis_1">
    <g id="xtick_1">
     <g id="line2d_1">
      <path d="M 115.363636 384.48 
L 115.363636 51.84 
" clip-path="url(#p76f93da96a)" style="fill: none; stroke: #b0b0b0; stroke-width: 0.8; stroke-linecap: square"/>
     </g>
     <g id="line2d_2">
      <defs>
       <path id="mbf8005fac1" d="M 0 0 
L 0 3.5 
" style="stroke: #000000; stroke-width: 0.8"/>
      </defs>
      <g>
       <use xlink:href="#mbf8005fac1" x="115.363636" y="384.48" style="stroke: #000000; stroke-width: 0.8"/>
      </g>
     </g>
     <g id="text_1">
      <!-- 0 -->
      <g transform="translate(112.182386 399.078438) scale(0.1 -0.1)">
       <defs>
        <path id="DejaVuSans-30" d="M 2034 4250 
Q 1547 4250 1301 3770 
Q 1056 3291 1056 2328 
Q 1056 1369 1301 889 
Q 1547 409 2034 409 
Q 2525 409 2770 889 
Q 3016 1369 3016 2328 
Q 3016 3291 2770 3770 
Q 2525 4250 2034 4250 
z
M 2034 4750 
Q 2819 4750 3233 4129 
Q 3647 3509 3647 2328 
Q 3647 1150 3233 529 
Q 2819 -91 2034 -91 
Q 1250 -91 836 529 
Q 422 1150 422 2328 
Q 422 3509 836 4129 
Q 1250 4750 2034 4750 
z
" transform="scale(0.015625)"/>
       </defs>
       <use xlink:href="#DejaVuSans-30"/>
      </g>
     </g>
    </g>
    <g id="xtick_2">
     <g id="line2d_3">
      <path d="M 201.605174 384.48 
L 201.605174 51.84 
" clip-path="url(#p76f93da96a)" style="fill: none; stroke: #b0b0b0; stroke-width: 0.8; stroke-linecap: square"/>
     </g>
     <g id="line2d_4">
      <g>
       <use xlink:href="#mbf8005fac1" x="201.605174" y="384.48" style="stroke: #000000; stroke-width: 0.8"/>
      </g>
     </g>
     <g id="text_2">
      <!-- 50 -->
      <g transform="translate(195.242674 399.078438) scale(0.1 -0.1)">
       <defs>
        <path id="DejaVuSans-35" d="M 691 4666 
L 3169 4666 
L 3169 4134 
L 1269 4134 
L 1269 2991 
Q 1406 3038 1543 3061 
Q 1681 3084 1819 3084 
Q 2600 3084 3056 2656 
Q 3513 2228 3513 1497 
Q 3513 744 3044 326 
Q 2575 -91 1722 -91 
Q 1428 -91 1123 -41 
Q 819 9 494 109 
L 494 744 
Q 775 591 1075 516 
Q 1375 441 1709 441 
Q 2250 441 2565 725 
Q 2881 1009 2881 1497 
Q 2881 1984 2565 2268 
Q 2250 2553 1709 2553 
Q 1456 2553 1204 2497 
Q 953 2441 691 2322 
L 691 4666 
z
" transform="scale(0.015625)"/>
       </defs>
       <use xlink:href="#DejaVuSans-35"/>
       <use xlink:href="#DejaVuSans-30" transform="translate(63.623047 0)"/>
      </g>
     </g>
    </g>
    <g id="xtick_3">
     <g id="line2d_5">
      <path d="M 287.846713 384.48 
L 287.846713 51.84 
" clip-path="url(#p76f93da96a)" style="fill: none; stroke: #b0b0b0; stroke-width: 0.8; stroke-linecap: square"/>
     </g>
     <g id="line2d_6">
      <g>
       <use xlink:href="#mbf8005fac1" x="287.846713" y="384.48" style="stroke: #000000; stroke-width: 0.8"/>
      </g>
     </g>
     <g id="text_3">
      <!-- 100 -->
      <g transform="translate(278.302963 399.078438) scale(0.1 -0.1)">
       <defs>
        <path id="DejaVuSans-31" d="M 794 531 
L 1825 531 
L 1825 4091 
L 703 3866 
L 703 4441 
L 1819 4666 
L 2450 4666 
L 2450 531 
L 3481 531 
L 3481 0 
L 794 0 
L 794 531 
z
" transform="scale(0.015625)"/>
       </defs>
       <use xlink:href="#DejaVuSans-31"/>
       <use xlink:href="#DejaVuSans-30" transform="translate(63.623047 0)"/>
       <use xlink:href="#DejaVuSans-30" transform="translate(127.246094 0)"/>
      </g>
     </g>
    </g>
    <g id="xtick_4">
     <g id="line2d_7">
      <path d="M 374.088251 384.48 
L 374.088251 51.84 
" clip-path="url(#p76f93da96a)" style="fill: none; stroke: #b0b0b0; stroke-width: 0.8; stroke-linecap: square"/>
     </g>
     <g id="line2d_8">
      <g>
       <use xlink:href="#mbf8005fac1" x="374.088251" y="384.48" style="stroke: #000000; stroke-width: 0.8"/>
      </g>
     </g>
     <g id="text_4">
      <!-- 150 -->
      <g transform="translate(364.544501 399.078438) scale(0.1 -0.1)">
       <use xlink:href="#DejaVuSans-31"/>
       <use xlink:href="#DejaVuSans-35" transform="translate(63.623047 0)"/>
       <use xlink:href="#DejaVuSans-30" transform="translate(127.246094 0)"/>
      </g>
     </g>
    </g>
    <g id="xtick_5">
     <g id="line2d_9">
      <path d="M 460.329789 384.48 
L 460.329789 51.84 
" clip-path="url(#p76f93da96a)" style="fill: none; stroke: #b0b0b0; stroke-width: 0.8; stroke-linecap: square"/>
     </g>
     <g id="line2d_10">
      <g>
       <use xlink:href="#mbf8005fac1" x="460.329789" y="384.48" style="stroke: #000000; stroke-width: 0.8"/>
      </g>
     </g>
     <g id="text_5">
      <!-- 200 -->
      <g transform="translate(450.786039 399.078438) scale(0.1 -0.1)">
       <defs>
        <path id="DejaVuSans-32" d="M 1228 531 
L 3431 531 
L 3431 0 
L 469 0 
L 469 531 
Q 828 903 1448 1529 
Q 2069 2156 2228 2338 
Q 2531 2678 2651 2914 
Q 2772 3150 2772 3378 
Q 2772 3750 2511 3984 
Q 2250 4219 1831 4219 
Q 1534 4219 1204 4116 
Q 875 4013 500 3803 
L 500 4441 
Q 881 4594 1212 4672 
Q 1544 4750 1819 4750 
Q 2544 4750 2975 4387 
Q 3406 4025 3406 3419 
Q 3406 3131 3298 2873 
Q 3191 2616 2906 2266 
Q 2828 2175 2409 1742 
Q 1991 1309 1228 531 
z
" transform="scale(0.015625)"/>
       </defs>
       <use xlink:href="#DejaVuSans-32"/>
       <use xlink:href="#DejaVuSans-30" transform="translate(63.623047 0)"/>
       <use xlink:href="#DejaVuSans-30" transform="translate(127.246094 0)"/>
      </g>
     </g>
    </g>
    <g id="xtick_6">
     <g id="line2d_11">
      <path d="M 546.571327 384.48 
L 546.571327 51.84 
" clip-path="url(#p76f93da96a)" style="fill: none; stroke: #b0b0b0; stroke-width: 0.8; stroke-linecap: square"/>
     </g>
     <g id="line2d_12">
      <g>
       <use xlink:href="#mbf8005fac1" x="546.571327" y="384.48" style="stroke: #000000; stroke-width: 0.8"/>
      </g>
     </g>
     <g id="text_6">
      <!-- 250 -->
      <g transform="translate(537.027577 399.078438) scale(0.1 -0.1)">
       <use xlink:href="#DejaVuSans-32"/>
       <use xlink:href="#DejaVuSans-35" transform="translate(63.623047 0)"/>
       <use xlink:href="#DejaVuSans-30" transform="translate(127.246094 0)"/>
      </g>
     </g>
    </g>
    <g id="xtick_7">
     <g id="line2d_13">
      <path d="M 632.812865 384.48 
L 632.812865 51.84 
" clip-path="url(#p76f93da96a)" style="fill: none; stroke: #b0b0b0; stroke-width: 0.8; stroke-linecap: square"/>
     </g>
     <g id="line2d_14">
      <g>
       <use xlink:href="#mbf8005fac1" x="632.812865" y="384.48" style="stroke: #000000; stroke-width: 0.8"/>
      </g>
     </g>
     <g id="text_7">
      <!-- 300 -->
      <g transform="translate(623.269115 399.078438) scale(0.1 -0.1)">
       <defs>
        <path id="DejaVuSans-33" d="M 2597 2516 
Q 3050 2419 3304 2112 
Q 3559 1806 3559 1356 
Q 3559 666 3084 287 
Q 2609 -91 1734 -91 
Q 1441 -91 1130 -33 
Q 819 25 488 141 
L 488 750 
Q 750 597 1062 519 
Q 1375 441 1716 441 
Q 2309 441 2620 675 
Q 2931 909 2931 1356 
Q 2931 1769 2642 2001 
Q 2353 2234 1838 2234 
L 1294 2234 
L 1294 2753 
L 1863 2753 
Q 2328 2753 2575 2939 
Q 2822 3125 2822 3475 
Q 2822 3834 2567 4026 
Q 2313 4219 1838 4219 
Q 1578 4219 1281 4162 
Q 984 4106 628 3988 
L 628 4550 
Q 988 4650 1302 4700 
Q 1616 4750 1894 4750 
Q 2613 4750 3031 4423 
Q 3450 4097 3450 3541 
Q 3450 3153 3228 2886 
Q 3006 2619 2597 2516 
z
" transform="scale(0.015625)"/>
       </defs>
       <use xlink:href="#DejaVuSans-33"/>
       <use xlink:href="#DejaVuSans-30" transform="translate(63.623047 0)"/>
       <use xlink:href="#DejaVuSans-30" transform="translate(127.246094 0)"/>
      </g>
     </g>
    </g>
    <g id="text_8">
     <!-- Maneuver Time (s) -->
     <g transform="translate(322.198438 412.756563) scale(0.1 -0.1)">
      <defs>
       <path id="DejaVuSans-4d" d="M 628 4666 
L 1569 4666 
L 2759 1491 
L 3956 4666 
L 4897 4666 
L 4897 0 
L 4281 0 
L 4281 4097 
L 3078 897 
L 2444 897 
L 1241 4097 
L 1241 0 
L 628 0 
L 628 4666 
z
" transform="scale(0.015625)"/>
       <path id="DejaVuSans-61" d="M 2194 1759 
Q 1497 1759 1228 1600 
Q 959 1441 959 1056 
Q 959 750 1161 570 
Q 1363 391 1709 391 
Q 2188 391 2477 730 
Q 2766 1069 2766 1631 
L 2766 1759 
L 2194 1759 
z
M 3341 1997 
L 3341 0 
L 2766 0 
L 2766 531 
Q 2569 213 2275 61 
Q 1981 -91 1556 -91 
Q 1019 -91 701 211 
Q 384 513 384 1019 
Q 384 1609 779 1909 
Q 1175 2209 1959 2209 
L 2766 2209 
L 2766 2266 
Q 2766 2663 2505 2880 
Q 2244 3097 1772 3097 
Q 1472 3097 1187 3025 
Q 903 2953 641 2809 
L 641 3341 
Q 956 3463 1253 3523 
Q 1550 3584 1831 3584 
Q 2591 3584 2966 3190 
Q 3341 2797 3341 1997 
z
" transform="scale(0.015625)"/>
       <path id="DejaVuSans-6e" d="M 3513 2113 
L 3513 0 
L 2938 0 
L 2938 2094 
Q 2938 2591 2744 2837 
Q 2550 3084 2163 3084 
Q 1697 3084 1428 2787 
Q 1159 2491 1159 1978 
L 1159 0 
L 581 0 
L 581 3500 
L 1159 3500 
L 1159 2956 
Q 1366 3272 1645 3428 
Q 1925 3584 2291 3584 
Q 2894 3584 3203 3211 
Q 3513 2838 3513 2113 
z
" transform="scale(0.015625)"/>
       <path id="DejaVuSans-65" d="M 3597 1894 
L 3597 1613 
L 953 1613 
Q 991 1019 1311 708 
Q 1631 397 2203 397 
Q 2534 397 2845 478 
Q 3156 559 3463 722 
L 3463 178 
Q 3153 47 2828 -22 
Q 2503 -91 2169 -91 
Q 1331 -91 842 396 
Q 353 884 353 1716 
Q 353 2575 817 3079 
Q 1281 3584 2069 3584 
Q 2775 3584 3186 3129 
Q 3597 2675 3597 1894 
z
M 3022 2063 
Q 3016 2534 2758 2815 
Q 2500 3097 2075 3097 
Q 1594 3097 1305 2825 
Q 1016 2553 972 2059 
L 3022 2063 
z
" transform="scale(0.015625)"/>
       <path id="DejaVuSans-75" d="M 544 1381 
L 544 3500 
L 1119 3500 
L 1119 1403 
Q 1119 906 1312 657 
Q 1506 409 1894 409 
Q 2359 409 2629 706 
Q 2900 1003 2900 1516 
L 2900 3500 
L 3475 3500 
L 3475 0 
L 2900 0 
L 2900 538 
Q 2691 219 2414 64 
Q 2138 -91 1772 -91 
Q 1169 -91 856 284 
Q 544 659 544 1381 
z
M 1991 3584 
L 1991 3584 
z
" transform="scale(0.015625)"/>
       <path id="DejaVuSans-76" d="M 191 3500 
L 800 3500 
L 1894 563 
L 2988 3500 
L 3597 3500 
L 2284 0 
L 1503 0 
L 191 3500 
z
" transform="scale(0.015625)"/>
       <path id="DejaVuSans-72" d="M 2631 2963 
Q 2534 3019 2420 3045 
Q 2306 3072 2169 3072 
Q 1681 3072 1420 2755 
Q 1159 2438 1159 1844 
L 1159 0 
L 581 0 
L 581 3500 
L 1159 3500 
L 1159 2956 
Q 1341 3275 1631 3429 
Q 1922 3584 2338 3584 
Q 2397 3584 2469 3576 
Q 2541 3569 2628 3553 
L 2631 2963 
z
" transform="scale(0.015625)"/>
       <path id="DejaVuSans-20" transform="scale(0.015625)"/>
       <path id="DejaVuSans-54" d="M -19 4666 
L 3928 4666 
L 3928 4134 
L 2272 4134 
L 2272 0 
L 1638 0 
L 1638 4134 
L -19 4134 
L -19 4666 
z
" transform="scale(0.015625)"/>
       <path id="DejaVuSans-69" d="M 603 3500 
L 1178 3500 
L 1178 0 
L 603 0 
L 603 3500 
z
M 603 4863 
L 1178 4863 
L 1178 4134 
L 603 4134 
L 603 4863 
z
" transform="scale(0.015625)"/>
       <path id="DejaVuSans-6d" d="M 3328 2828 
Q 3544 3216 3844 3400 
Q 4144 3584 4550 3584 
Q 5097 3584 5394 3201 
Q 5691 2819 5691 2113 
L 5691 0 
L 5113 0 
L 5113 2094 
Q 5113 2597 4934 2840 
Q 4756 3084 4391 3084 
Q 3944 3084 3684 2787 
Q 3425 2491 3425 1978 
L 3425 0 
L 2847 0 
L 2847 2094 
Q 2847 2600 2669 2842 
Q 2491 3084 2119 3084 
Q 1678 3084 1418 2786 
Q 1159 2488 1159 1978 
L 1159 0 
L 581 0 
L 581 3500 
L 1159 3500 
L 1159 2956 
Q 1356 3278 1631 3431 
Q 1906 3584 2284 3584 
Q 2666 3584 2933 3390 
Q 3200 3197 3328 2828 
z
" transform="scale(0.015625)"/>
       <path id="DejaVuSans-28" d="M 1984 4856 
Q 1566 4138 1362 3434 
Q 1159 2731 1159 2009 
Q 1159 1288 1364 580 
Q 1569 -128 1984 -844 
L 1484 -844 
Q 1016 -109 783 600 
Q 550 1309 550 2009 
Q 550 2706 781 3412 
Q 1013 4119 1484 4856 
L 1984 4856 
z
" transform="scale(0.015625)"/>
       <path id="DejaVuSans-73" d="M 2834 3397 
L 2834 2853 
Q 2591 2978 2328 3040 
Q 2066 3103 1784 3103 
Q 1356 3103 1142 2972 
Q 928 2841 928 2578 
Q 928 2378 1081 2264 
Q 1234 2150 1697 2047 
L 1894 2003 
Q 2506 1872 2764 1633 
Q 3022 1394 3022 966 
Q 3022 478 2636 193 
Q 2250 -91 1575 -91 
Q 1294 -91 989 -36 
Q 684 19 347 128 
L 347 722 
Q 666 556 975 473 
Q 1284 391 1588 391 
Q 1994 391 2212 530 
Q 2431 669 2431 922 
Q 2431 1156 2273 1281 
Q 2116 1406 1581 1522 
L 1381 1569 
Q 847 1681 609 1914 
Q 372 2147 372 2553 
Q 372 3047 722 3315 
Q 1072 3584 1716 3584 
Q 2034 3584 2315 3537 
Q 2597 3491 2834 3397 
z
" transform="scale(0.015625)"/>
       <path id="DejaVuSans-29" d="M 513 4856 
L 1013 4856 
Q 1481 4119 1714 3412 
Q 1947 2706 1947 2009 
Q 1947 1309 1714 600 
Q 1481 -109 1013 -844 
L 513 -844 
Q 928 -128 1133 580 
Q 1338 1288 1338 2009 
Q 1338 2731 1133 3434 
Q 928 4138 513 4856 
z
" transform="scale(0.015625)"/>
      </defs>
      <use xlink:href="#DejaVuSans-4d"/>
      <use xlink:href="#DejaVuSans-61" transform="translate(86.279297 0)"/>
      <use xlink:href="#DejaVuSans-6e" transform="translate(147.558594 0)"/>
      <use xlink:href="#DejaVuSans-65" transform="translate(210.9375 0)"/>
      <use xlink:href="#DejaVuSans-75" transform="translate(272.460938 0)"/>
      <use xlink:href="#DejaVuSans-76" transform="translate(335.839844 0)"/>
      <use xlink:href="#DejaVuSans-65" transform="translate(395.019531 0)"/>
      <use xlink:href="#DejaVuSans-72" transform="translate(456.542969 0)"/>
      <use xlink:href="#DejaVuSans-20" transform="translate(497.65625 0)"/>
      <use xlink:href="#DejaVuSans-54" transform="translate(529.443359 0)"/>
      <use xlink:href="#DejaVuSans-69" transform="translate(587.402344 0)"/>
      <use xlink:href="#DejaVuSans-6d" transform="translate(615.185547 0)"/>
      <use xlink:href="#DejaVuSans-65" transform="translate(712.597656 0)"/>
      <use xlink:href="#DejaVuSans-20" transform="translate(774.121094 0)"/>
      <use xlink:href="#DejaVuSans-28" transform="translate(805.908203 0)"/>
      <use xlink:href="#DejaVuSans-73" transform="translate(844.921875 0)"/>
      <use xlink:href="#DejaVuSans-29" transform="translate(897.021484 0)"/>
     </g>
    </g>
   </g>
   <g id="matplotlib.axis_2">
    <g id="ytick_1">
     <g id="line2d_15">
      <path d="M 90 369.584948 
L 648 369.584948 
" clip-path="url(#p76f93da96a)" style="fill: none; stroke: #b0b0b0; stroke-width: 0.8; stroke-linecap: square"/>
     </g>
     <g id="line2d_16">
      <defs>
       <path id="m2ee0f276b1" d="M 0 0 
L -3.5 0 
" style="stroke: #000000; stroke-width: 0.8"/>
      </defs>
      <g>
       <use xlink:href="#m2ee0f276b1" x="90" y="369.584948" style="stroke: #000000; stroke-width: 0.8"/>
      </g>
     </g>
     <g id="text_9">
      <!-- −4 -->
      <g transform="translate(68.257812 373.384166) scale(0.1 -0.1)">
       <defs>
        <path id="DejaVuSans-2212" d="M 678 2272 
L 4684 2272 
L 4684 1741 
L 678 1741 
L 678 2272 
z
" transform="scale(0.015625)"/>
        <path id="DejaVuSans-34" d="M 2419 4116 
L 825 1625 
L 2419 1625 
L 2419 4116 
z
M 2253 4666 
L 3047 4666 
L 3047 1625 
L 3713 1625 
L 3713 1100 
L 3047 1100 
L 3047 0 
L 2419 0 
L 2419 1100 
L 313 1100 
L 313 1709 
L 2253 4666 
z
" transform="scale(0.015625)"/>
       </defs>
       <use xlink:href="#DejaVuSans-2212"/>
       <use xlink:href="#DejaVuSans-34" transform="translate(83.789062 0)"/>
      </g>
     </g>
    </g>
    <g id="ytick_2">
     <g id="line2d_17">
      <path d="M 90 299.249072 
L 648 299.249072 
" clip-path="url(#p76f93da96a)" style="fill: none; stroke: #b0b0b0; stroke-width: 0.8; stroke-linecap: square"/>
     </g>
     <g id="line2d_18">
      <g>
       <use xlink:href="#m2ee0f276b1" x="90" y="299.249072" style="stroke: #000000; stroke-width: 0.8"/>
      </g>
     </g>
     <g id="text_10">
      <!-- −3 -->
      <g transform="translate(68.257812 303.04829) scale(0.1 -0.1)">
       <use xlink:href="#DejaVuSans-2212"/>
       <use xlink:href="#DejaVuSans-33" transform="translate(83.789062 0)"/>
      </g>
     </g>
    </g>
    <g id="ytick_3">
     <g id="line2d_19">
      <path d="M 90 228.913196 
L 648 228.913196 
" clip-path="url(#p76f93da96a)" style="fill: none; stroke: #b0b0b0; stroke-width: 0.8; stroke-linecap: square"/>
     </g>
     <g id="line2d_20">
      <g>
       <use xlink:href="#m2ee0f276b1" x="90" y="228.913196" style="stroke: #000000; stroke-width: 0.8"/>
      </g>
     </g>
     <g id="text_11">
      <!-- −2 -->
      <g transform="translate(68.257812 232.712414) scale(0.1 -0.1)">
       <use xlink:href="#DejaVuSans-2212"/>
       <use xlink:href="#DejaVuSans-32" transform="translate(83.789062 0)"/>
      </g>
     </g>
    </g>
    <g id="ytick_4">
     <g id="line2d_21">
      <path d="M 90 158.57732 
L 648 158.57732 
" clip-path="url(#p76f93da96a)" style="fill: none; stroke: #b0b0b0; stroke-width: 0.8; stroke-linecap: square"/>
     </g>
     <g id="line2d_22">
      <g>
       <use xlink:href="#m2ee0f276b1" x="90" y="158.57732" style="stroke: #000000; stroke-width: 0.8"/>
      </g>
     </g>
     <g id="text_12">
      <!-- −1 -->
      <g transform="translate(68.257812 162.376538) scale(0.1 -0.1)">
       <use xlink:href="#DejaVuSans-2212"/>
       <use xlink:href="#DejaVuSans-31" transform="translate(83.789062 0)"/>
      </g>
     </g>
    </g>
    <g id="ytick_5">
     <g id="line2d_23">
      <path d="M 90 88.241444 
L 648 88.241444 
" clip-path="url(#p76f93da96a)" style="fill: none; stroke: #b0b0b0; stroke-width: 0.8; stroke-linecap: square"/>
     </g>
     <g id="line2d_24">
      <g>
       <use xlink:href="#m2ee0f276b1" x="90" y="88.241444" style="stroke: #000000; stroke-width: 0.8"/>
      </g>
     </g>
     <g id="text_13">
      <!-- 0 -->
      <g transform="translate(76.6375 92.040662) scale(0.1 -0.1)">
       <use xlink:href="#DejaVuSans-30"/>
      </g>
     </g>
    </g>
    <g id="text_14">
     <!-- Estimated Value -->
     <g transform="translate(62.178125 258.738906) rotate(-90) scale(0.1 -0.1)">
      <defs>
       <path id="DejaVuSans-45" d="M 628 4666 
L 3578 4666 
L 3578 4134 
L 1259 4134 
L 1259 2753 
L 3481 2753 
L 3481 2222 
L 1259 2222 
L 1259 531 
L 3634 531 
L 3634 0 
L 628 0 
L 628 4666 
z
" transform="scale(0.015625)"/>
       <path id="DejaVuSans-74" d="M 1172 4494 
L 1172 3500 
L 2356 3500 
L 2356 3053 
L 1172 3053 
L 1172 1153 
Q 1172 725 1289 603 
Q 1406 481 1766 481 
L 2356 481 
L 2356 0 
L 1766 0 
Q 1100 0 847 248 
Q 594 497 594 1153 
L 594 3053 
L 172 3053 
L 172 3500 
L 594 3500 
L 594 4494 
L 1172 4494 
z
" transform="scale(0.015625)"/>
       <path id="DejaVuSans-64" d="M 2906 2969 
L 2906 4863 
L 3481 4863 
L 3481 0 
L 2906 0 
L 2906 525 
Q 2725 213 2448 61 
Q 2172 -91 1784 -91 
Q 1150 -91 751 415 
Q 353 922 353 1747 
Q 353 2572 751 3078 
Q 1150 3584 1784 3584 
Q 2172 3584 2448 3432 
Q 2725 3281 2906 2969 
z
M 947 1747 
Q 947 1113 1208 752 
Q 1469 391 1925 391 
Q 2381 391 2643 752 
Q 2906 1113 2906 1747 
Q 2906 2381 2643 2742 
Q 2381 3103 1925 3103 
Q 1469 3103 1208 2742 
Q 947 2381 947 1747 
z
" transform="scale(0.015625)"/>
       <path id="DejaVuSans-56" d="M 1831 0 
L 50 4666 
L 709 4666 
L 2188 738 
L 3669 4666 
L 4325 4666 
L 2547 0 
L 1831 0 
z
" transform="scale(0.015625)"/>
       <path id="DejaVuSans-6c" d="M 603 4863 
L 1178 4863 
L 1178 0 
L 603 0 
L 603 4863 
z
" transform="scale(0.015625)"/>
      </defs>
      <use xlink:href="#DejaVuSans-45"/>
      <use xlink:href="#DejaVuSans-73" transform="translate(63.183594 0)"/>
      <use xlink:href="#DejaVuSans-74" transform="translate(115.283203 0)"/>
      <use xlink:href="#DejaVuSans-69" transform="translate(154.492188 0)"/>
      <use xlink:href="#DejaVuSans-6d" transform="translate(182.275391 0)"/>
      <use xlink:href="#DejaVuSans-61" transform="translate(279.6875 0)"/>
      <use xlink:href="#DejaVuSans-74" transform="translate(340.966797 0)"/>
      <use xlink:href="#DejaVuSans-65" transform="translate(380.175781 0)"/>
      <use xlink:href="#DejaVuSans-64" transform="translate(441.699219 0)"/>
      <use xlink:href="#DejaVuSans-20" transform="translate(505.175781 0)"/>
      <use xlink:href="#DejaVuSans-56" transform="translate(536.962891 0)"/>
      <use xlink:href="#DejaVuSans-61" transform="translate(597.621094 0)"/>
      <use xlink:href="#DejaVuSans-6c" transform="translate(658.900391 0)"/>
      <use xlink:href="#DejaVuSans-75" transform="translate(686.683594 0)"/>
      <use xlink:href="#DejaVuSans-65" transform="translate(750.0625 0)"/>
     </g>
    </g>
    <g id="text_15">
     <!-- 1e−5 -->
     <g transform="translate(90 48.84) scale(0.1 -0.1)">
      <use xlink:href="#DejaVuSans-31"/>
      <use xlink:href="#DejaVuSans-65" transform="translate(63.623047 0)"/>
      <use xlink:href="#DejaVuSans-2212" transform="translate(125.146484 0)"/>
      <use xlink:href="#DejaVuSans-35" transform="translate(208.935547 0)"/>
     </g>
    </g>
   </g>
   <g id="line2d_25">
    <path d="M 115.363636 88.241444 
L 117.743903 88.348065 
L 119.020278 88.638038 
L 120.193162 89.136132 
L 121.400544 89.902747 
L 122.745912 91.035183 
L 124.505239 92.833164 
L 127.264969 95.706515 
L 129.127786 95.598967 
L 129.783222 95.564102 
L 145.962134 95.529326 
L 146.100121 96.010463 
L 146.824549 96.236937 
L 147.928441 96.271316 
L 149.135823 96.093175 
L 150.239714 95.704057 
L 151.343606 95.070992 
L 152.516491 94.128114 
L 152.757967 94.032239 
L 154.413805 94.032239 
L 154.551791 93.154684 
L 155.310717 93.373142 
L 157.173534 93.746051 
L 160.588699 94.185555 
L 162.141047 94.233078 
L 163.141448 94.124118 
L 165.590708 92.232536 
L 167.591512 90.426211 
L 169.764799 88.44961 
L 171.317146 88.44961 
L 171.455133 84.130298 
L 172.179562 82.403412 
L 172.800501 81.535383 
L 173.559426 80.862202 
L 174.490835 80.341795 
L 175.698216 79.93058 
L 177.354054 79.614697 
L 178.733919 79.539483 
L 179.768817 79.539483 
L 179.906803 79.291928 
L 181.079688 79.251549 
L 182.425056 79.433284 
L 183.873914 79.855189 
L 185.495255 80.56589 
L 186.702637 81.069189 
L 188.220488 81.069189 
L 188.289481 77.252366 
L 188.323978 79.470716 
L 188.530957 93.288254 
L 188.772434 95.935964 
L 189.1174 97.147286 
L 189.634849 98.094222 
L 190.531761 99.220019 
L 191.773639 100.423743 
L 193.050014 101.364152 
L 194.222899 101.961951 
L 195.050818 102.181412 
L 196.672159 102.181412 
L 196.844642 121.858758 
L 197.051621 126.284408 
L 197.293098 127.289873 
L 197.67256 127.909914 
L 198.362493 128.543397 
L 199.880344 129.567514 
L 202.778059 131.240534 
L 203.536985 131.528627 
L 205.123829 131.528627 
L 205.261816 144.538621 
L 205.572285 146.727482 
L 205.848258 147.335529 
L 206.193224 147.589812 
L 206.676177 147.641051 
L 207.469599 147.464151 
L 208.814967 146.907425 
L 210.781274 145.841283 
L 212.023152 145.221376 
L 213.5755 145.221376 
L 213.609997 139.555515 
L 213.713486 139.92115 
L 214.161942 142.174404 
L 214.506909 142.802901 
L 214.886371 143.076768 
L 215.334827 143.118437 
L 215.886773 142.927893 
L 216.611202 142.42736 
L 217.577107 141.475221 
L 218.887979 139.846137 
L 220.440326 137.925777 
L 222.027171 137.925777 
L 222.165157 136.285462 
L 222.717103 133.88555 
L 223.510525 131.124934 
L 224.510927 128.458968 
L 225.718309 125.88423 
L 227.13267 123.400518 
L 228.685017 121.121381 
L 230.478841 121.121381 
L 230.616828 122.11393 
L 232.065686 125.026727 
L 233.135081 126.3447 
L 234.514945 127.686271 
L 236.136286 128.953337 
L 237.240178 129.603685 
L 238.930512 129.603685 
L 239.068499 130.240383 
L 240.17239 130.353331 
L 242.41467 130.354865 
L 247.382183 130.131767 
L 247.520169 353.82439 
L 247.899632 358.203662 
L 248.313592 360.385938 
L 248.900034 362.23862 
L 249.727953 364.091233 
L 250.797348 365.938686 
L 251.90124 367.422875 
L 252.936138 368.459712 
L 253.902043 369.118188 
L 254.247009 369.187907 
L 255.833854 369.187907 
L 255.97184 362.163364 
L 256.247813 361.407131 
L 256.420296 361.384646 
L 256.696269 361.664178 
L 257.351705 362.78401 
L 259.145529 365.86468 
L 260.35291 367.490253 
L 261.456802 368.618535 
L 262.457204 369.34024 
L 262.69868 369.36 
L 264.285524 369.36 
L 264.423511 363.96673 
L 265.665389 355.424511 
L 266.458811 352.075018 
L 267.355723 349.245016 
L 268.390622 346.704545 
L 269.598003 344.324568 
L 270.943371 342.128196 
L 272.737195 342.128196 
L 272.875182 328.687781 
L 273.80659 319.388453 
L 274.462026 315.513209 
L 275.186455 312.520483 
L 276.014374 310.045899 
L 276.911286 308.047639 
L 277.911687 306.34258 
L 279.050076 304.839255 
L 279.498532 304.451171 
L 281.188866 304.451171 
L 281.326852 300.986682 
L 282.465241 297.387943 
L 283.18967 296.054648 
L 284.052085 294.933283 
L 284.431548 294.541557 
L 284.569534 88.241444 
L 289.192081 88.351438 
L 292.400266 88.67662 
L 297.402275 89.217704 
L 321.377423 89.109974 
L 322.791784 89.07297 
L 323.516213 89.07297 
L 323.654199 88.893201 
L 325.413527 88.829352 
L 331.967884 88.953375 
L 332.10587 89.007646 
L 334.65862 88.914218 
L 338.246268 88.575357 
L 339.557139 88.529034 
L 340.419554 88.529034 
L 340.557541 87.875281 
L 341.661432 87.486399 
L 343.179283 87.255983 
L 346.008006 87.081734 
L 354.2182 86.896955 
L 357.322896 86.963819 
L 357.495379 91.103916 
L 357.702359 92.102807 
L 357.978331 92.342244 
L 358.633767 92.531294 
L 360.703564 92.828479 
L 363.670273 93.047431 
L 365.878056 93.030798 
L 366.119533 92.958804 
L 367.706377 93.079918 
L 374.226237 93.5601 
L 374.260734 93.15394 
L 374.329727 93.230403 
L 374.778183 93.870239 
L 375.261136 94.005843 
L 376.365027 94.021592 
L 380.194152 93.765117 
L 382.367438 93.714182 
L 382.677908 93.714182 
L 382.746901 91.317762 
L 382.815894 91.365183 
L 383.298847 91.662378 
L 383.988779 91.731675 
L 385.265154 91.598784 
L 387.541931 91.108991 
L 389.853204 90.641513 
L 391.129579 90.641513 
L 391.267565 90.448556 
L 394.096288 89.015841 
L 396.200581 88.413811 
L 398.063398 88.075186 
L 399.581249 88.075186 
L 399.719236 88.468187 
L 400.995611 89.018021 
L 402.754938 89.437873 
L 405.652654 89.885666 
L 407.101512 89.954125 
L 408.03292 89.954125 
L 408.13641 89.335473 
L 408.170907 89.338331 
L 410.344193 89.442377 
L 416.001638 89.449379 
L 416.484591 89.449379 
L 416.519088 99.819193 
L 416.622577 99.443958 
L 417.071033 96.975609 
L 417.416 96.321789 
L 417.864456 95.950389 
L 418.485395 95.752141 
L 419.485796 95.696862 
L 421.79707 95.855741 
L 424.349819 95.948932 
L 424.936262 95.948932 
L 425.074248 101.694666 
L 425.522704 102.653661 
L 426.040153 103.191919 
L 426.868072 103.702647 
L 428.144447 104.206804 
L 429.903774 104.652071 
L 431.766591 104.900251 
L 433.387932 104.900251 
L 433.525919 104.102773 
L 434.664307 103.062674 
L 435.768199 102.44316 
L 437.320547 101.846935 
L 439.597323 101.227124 
L 440.494235 101.124727 
L 441.839603 101.124727 
L 441.97759 98.88039 
L 442.908998 97.29887 
L 443.633427 96.593619 
L 444.564836 96.003705 
L 445.806714 95.495241 
L 447.531545 95.047385 
L 448.945906 94.869315 
L 450.705233 94.765332 
L 451.567649 94.349895 
L 452.844023 94.012745 
L 453.533956 93.894324 
L 453.568452 88.242324 
L 453.671942 88.269965 
L 454.154895 88.308951 
L 459.122407 88.341669 
L 466.470186 88.672458 
L 467.091125 88.672458 
L 467.263609 89.178799 
L 467.505085 89.423809 
L 468.022534 89.508676 
L 470.575284 89.55386 
L 484.16695 89.671564 
L 484.304936 89.96889 
L 485.374332 90.703583 
L 486.478223 90.877466 
L 489.237952 91.032789 
L 492.618621 91.08577 
L 492.756607 94.845545 
L 493.274056 96.17702 
L 493.722512 96.556923 
L 494.412445 96.808043 
L 495.68882 96.994817 
L 498.483045 97.132349 
L 501.070291 97.151373 
L 501.208278 97.397507 
L 509.521962 97.564077 
L 509.659949 97.933046 
L 516.455782 98.080503 
L 517.973633 98.080503 
L 518.111619 99.301587 
L 524.11403 99.204114 
L 526.425304 99.20317 
L 526.56329 98.019717 
L 526.804766 97.606418 
L 527.184229 97.489586 
L 528.529597 97.423593 
L 534.876974 97.332576 
L 535.083954 94.421186 
L 535.290934 93.325718 
L 535.566907 92.995947 
L 536.015363 92.887975 
L 537.015765 92.94226 
L 542.983679 93.494414 
L 543.328645 93.494414 
L 543.466632 93.639031 
L 551.780316 93.655368 
L 551.918302 79.67295 
L 552.366758 78.713722 
L 552.815214 78.347012 
L 553.608637 78.018832 
L 555.298971 77.605779 
L 558.576149 77.043584 
L 560.231987 77.043584 
L 560.335476 76.741278 
L 560.369973 76.746219 
L 562.23279 77.013622 
L 565.165003 77.034007 
L 568.683657 77.00766 
L 568.787147 76.710888 
L 568.821644 76.717002 
L 570.718958 77.017726 
L 573.616673 77.135275 
L 577.135328 77.149493 
L 577.273315 75.328575 
L 578.308213 75.033084 
L 580.102037 74.790919 
L 583.724182 74.561276 
L 585.586999 74.558274 
L 585.621495 77.840314 
L 585.724985 77.419054 
L 586.173441 74.650177 
L 586.552904 73.771306 
L 587.00136 73.266686 
L 587.622299 72.911698 
L 588.553708 72.65777 
L 590.140552 72.484328 
L 593.210751 72.404471 
L 594.03867 72.404471 
L 594.176656 85.592402 
L 594.590615 87.72992 
L 594.970078 88.525004 
L 595.453031 89.029609 
L 596.142963 89.401782 
L 597.177862 89.680375 
L 598.902692 89.886739 
L 601.593428 89.97396 
L 603.180273 90.079891 
L 604.698124 90.201582 
L 608.354765 90.217961 
L 610.942011 90.209257 
L 611.079998 90.005719 
L 612.528855 89.511423 
L 614.184693 89.290955 
L 617.254892 89.138358 
L 619.393682 89.129492 
L 619.497172 89.521732 
L 619.531668 89.518051 
L 622.084418 89.18307 
L 622.636364 89.161231 
L 622.636364 89.161231 
" clip-path="url(#p76f93da96a)" style="fill: none; stroke: #ff0000; stroke-width: 1.5; stroke-linecap: square"/>
   </g>
   <g id="line2d_26">
    <path d="M 115.363636 88.241444 
L 117.743903 88.348065 
L 119.020278 88.637812 
L 120.055176 88.861242 
L 123.504838 88.913396 
L 131.715032 89.002204 
L 149.653272 89.114821 
L 154.413805 89.451528 
L 154.551791 89.615243 
L 167.350036 89.539512 
L 171.800099 89.66184 
L 181.286668 89.592797 
L 184.839819 89.393736 
L 188.220488 89.378492 
L 188.289481 77.739446 
L 188.358474 79.691263 
L 188.565454 84.465941 
L 188.80693 85.318645 
L 189.1174 85.58646 
L 189.600352 85.663459 
L 190.531761 85.543025 
L 193.325987 85.051447 
L 196.672159 85.10766 
L 196.810145 99.655335 
L 196.982628 102.562089 
L 197.224104 103.226443 
L 197.603567 103.538324 
L 198.259003 103.740906 
L 199.328398 103.81627 
L 201.674168 103.696213 
L 203.054032 103.3853 
L 203.709468 103.298015 
L 205.123829 103.298015 
L 205.261816 122.16039 
L 205.606782 124.454385 
L 205.917251 125.130287 
L 206.331211 125.524821 
L 206.95215 125.795643 
L 208.021545 125.987352 
L 209.815369 126.056953 
L 213.5755 125.989499 
L 213.644493 120.088292 
L 213.713486 120.095775 
L 214.403419 120.161029 
L 215.852277 120.039288 
L 220.681803 119.563635 
L 222.027171 119.563635 
L 222.165157 118.586255 
L 223.165559 118.130747 
L 224.269451 117.980295 
L 226.8222 117.924007 
L 231.582733 117.990495 
L 234.100986 118.051643 
L 238.930512 118.070932 
L 239.068499 119.21072 
L 239.999907 119.351012 
L 242.51816 119.651949 
L 244.55346 120.184504 
L 246.002318 120.512249 
L 247.382183 120.512249 
L 247.520169 239.140293 
L 248.244598 241.654652 
L 248.727551 242.164225 
L 249.417483 242.54959 
L 250.417885 242.832786 
L 251.728756 242.962226 
L 253.108621 242.874437 
L 255.143921 242.682348 
L 255.833854 242.682348 
L 255.97184 294.140311 
L 256.316806 294.479595 
L 256.799759 295.296893 
L 258.248617 297.871402 
L 258.938549 298.603985 
L 259.662978 299.045543 
L 260.4564 299.263707 
L 261.318815 299.266741 
L 262.215727 299.044644 
L 262.80217 298.932797 
L 264.285524 298.932797 
L 264.423511 293.924148 
L 265.285926 287.259743 
L 265.837872 285.028393 
L 266.458811 283.372577 
L 267.18324 282.060515 
L 268.011159 281.026497 
L 268.977064 280.188191 
L 270.115452 279.50135 
L 271.081358 279.128514 
L 272.737195 279.128514 
L 272.909678 278.687125 
L 273.80659 277.20691 
L 274.531019 276.506205 
L 275.462428 275.928373 
L 276.704306 275.436544 
L 278.532627 274.973454 
L 279.877994 274.810191 
L 281.188866 274.810191 
L 281.326852 288.258415 
L 281.775308 290.203929 
L 282.154771 290.876478 
L 282.603227 291.243709 
L 283.224166 291.452482 
L 284.259065 291.532763 
L 284.431548 291.533949 
L 284.569534 88.241444 
L 290.088993 88.35135 
L 294.815029 88.717144 
L 297.402275 88.840318 
L 323.516213 88.745692 
L 323.757689 88.736835 
L 327.51782 88.872236 
L 333.244258 88.882745 
L 340.419554 88.616724 
L 340.557541 88.382569 
L 342.454855 88.238531 
L 347.422367 88.17222 
L 352.49337 88.283055 
L 357.322896 88.456624 
L 357.495379 90.555313 
L 357.702359 90.89565 
L 358.185311 91.007204 
L 361.945442 91.589265 
L 363.842756 92.177964 
L 364.291212 92.229526 
L 365.774566 92.229526 
L 365.981546 91.829837 
L 366.361009 91.594961 
L 372.811876 88.842219 
L 374.226237 88.842219 
L 374.364224 92.306304 
L 374.91617 92.347082 
L 378.745294 93.450026 
L 380.263145 93.575898 
L 382.677908 93.562127 
L 382.815894 90.128024 
L 383.26435 88.302642 
L 383.609317 87.810819 
L 384.023276 87.591431 
L 384.540725 87.580609 
L 385.230657 87.806474 
L 386.162066 88.360792 
L 387.438441 89.400543 
L 389.197768 91.144567 
L 389.473741 91.290774 
L 391.129579 91.290774 
L 391.164075 91.084138 
L 391.233069 91.148849 
L 391.543538 91.797374 
L 392.23347 93.052328 
L 393.026893 94.014478 
L 393.923805 94.753862 
L 394.958703 95.315 
L 396.097091 95.677365 
L 397.373466 95.845472 
L 399.581249 95.8559 
L 399.719236 92.496249 
L 400.685141 89.107359 
L 401.375073 87.67805 
L 402.237489 86.403675 
L 403.306884 85.233042 
L 404.617755 84.14024 
L 406.170103 83.142451 
L 406.446076 83.103674 
L 408.03292 83.103674 
L 408.170907 82.118928 
L 409.274798 82.020998 
L 410.965132 82.1175 
L 413.552379 82.504721 
L 415.346203 82.726355 
L 416.484591 82.726355 
L 416.519088 91.426059 
L 416.622577 90.776061 
L 417.071033 87.305399 
L 417.450496 86.187253 
L 417.933449 85.46547 
L 418.554388 84.946166 
L 419.4513 84.50709 
L 420.762171 84.135236 
L 422.555995 83.868856 
L 424.211833 83.821628 
L 424.936262 83.821628 
L 425.074248 93.418942 
L 425.281228 93.498908 
L 425.626194 93.276714 
L 427.420018 91.915789 
L 428.799883 91.21672 
L 430.386727 90.666805 
L 431.801088 90.386739 
L 433.387932 90.386739 
L 433.525919 91.625229 
L 434.871287 93.599849 
L 435.837192 94.476478 
L 437.07907 95.289391 
L 438.665915 96.049936 
L 440.183766 96.563818 
L 441.839603 96.563818 
L 441.97759 99.917815 
L 442.598529 100.49986 
L 443.460944 101.002074 
L 444.702822 101.448246 
L 446.565639 101.858523 
L 448.807919 102.136716 
L 450.498254 102.036829 
L 451.291676 101.610968 
L 452.292078 101.363203 
L 453.533956 101.233573 
L 453.568452 88.24251 
L 453.671942 88.282758 
L 454.120398 88.37681 
L 456.397175 88.457337 
L 459.60536 88.367005 
L 466.504683 88.128743 
L 467.815554 88.239541 
L 470.126828 88.2499 
L 484.16695 87.941411 
L 484.304936 88.185683 
L 485.374332 88.877148 
L 486.547216 89.047533 
L 489.375939 89.181169 
L 492.618621 89.211198 
L 492.756607 92.821327 
L 493.274056 94.105797 
L 493.722512 94.469717 
L 494.412445 94.708994 
L 495.723316 94.886517 
L 498.586535 95.00509 
L 501.070291 95.017406 
L 501.208278 95.239398 
L 509.521962 95.323864 
L 509.659949 95.610595 
L 513.385583 95.616769 
L 517.973633 95.617448 
L 518.111619 96.792234 
L 523.044635 96.712445 
L 526.425304 96.715867 
L 526.56329 95.217572 
L 526.804766 94.685647 
L 527.149733 94.552885 
L 528.150134 94.514148 
L 531.392816 94.656914 
L 534.876974 94.794998 
L 535.049458 89.646908 
L 535.290934 86.969834 
L 535.566907 86.167214 
L 536.015363 85.594678 
L 536.843282 84.96873 
L 538.430126 84.085664 
L 540.465426 83.201537 
L 541.741801 82.837917 
L 543.328645 82.837917 
L 543.397638 80.622009 
L 543.466632 80.645333 
L 544.191061 80.916928 
L 545.432939 80.993392 
L 551.780316 81.160251 
L 551.918302 74.616172 
L 552.332262 72.627206 
L 552.677228 72.095592 
L 553.091187 71.881205 
L 553.67763 71.86296 
L 554.609038 72.086448 
L 556.368366 72.77508 
L 558.748632 73.689605 
L 560.231987 73.689605 
L 560.369973 73.05018 
L 561.473865 72.486686 
L 562.54326 72.301771 
L 564.47507 72.227321 
L 568.683657 72.266661 
L 568.752651 72.89709 
L 568.821644 72.864752 
L 570.477481 71.647206 
L 571.650366 71.291713 
L 573.375197 71.021287 
L 575.68647 70.890514 
L 577.135328 70.890514 
L 577.273315 71.447805 
L 578.204723 72.557829 
L 579.032642 73.105329 
L 580.17103 73.573019 
L 581.826868 73.992665 
L 583.965658 74.308617 
L 585.586999 74.308617 
L 585.724985 72.509332 
L 586.173441 69.443604 
L 586.552904 68.472474 
L 587.00136 67.908959 
L 587.622299 67.506064 
L 588.519211 67.218859 
L 589.933572 67.027218 
L 592.244846 66.960843 
L 594.03867 66.960843 
L 594.176656 80.447257 
L 594.556119 81.928919 
L 594.901085 82.409999 
L 595.349541 82.651142 
L 596.07397 82.750997 
L 597.557324 82.677516 
L 602.007388 82.39527 
L 602.49034 82.39527 
L 602.628327 82.66688 
L 604.83611 83.976963 
L 606.388458 84.429288 
L 608.596241 84.827403 
L 609.907113 84.900534 
L 610.942011 84.900534 
L 611.079998 85.701386 
L 612.425366 85.84815 
L 615.530061 86.001413 
L 619.393682 86.039877 
L 619.462675 86.292643 
L 619.531668 86.273682 
L 621.325492 85.622195 
L 622.636364 85.426893 
L 622.636364 85.426893 
" clip-path="url(#p76f93da96a)" style="fill: none; stroke-dasharray: 5.55,2.4; stroke-dashoffset: 0; stroke: #0000ff; stroke-width: 1.5"/>
   </g>
   <g id="patch_3">
    <path d="M 90 384.48 
L 90 51.84 
" style="fill: none; stroke: #000000; stroke-width: 0.8; stroke-linejoin: miter; stroke-linecap: square"/>
   </g>
   <g id="patch_4">
    <path d="M 648 384.48 
L 648 51.84 
" style="fill: none; stroke: #000000; stroke-width: 0.8; stroke-linejoin: miter; stroke-linecap: square"/>
   </g>
   <g id="patch_5">
    <path d="M 90 384.48 
L 648 384.48 
" style="fill: none; stroke: #000000; stroke-width: 0.8; stroke-linejoin: miter; stroke-linecap: square"/>
   </g>
   <g id="patch_6">
    <path d="M 90 51.84 
L 648 51.84 
" style="fill: none; stroke: #000000; stroke-width: 0.8; stroke-linejoin: miter; stroke-linecap: square"/>
   </g>
   <g id="text_16">
    <!-- State Value Convergence for dKg_zz (Index 20) -->
    <g transform="translate(227.699062 45.84) scale(0.12 -0.12)">
     <defs>
      <path id="DejaVuSans-53" d="M 3425 4513 
L 3425 3897 
Q 3066 4069 2747 4153 
Q 2428 4238 2131 4238 
Q 1616 4238 1336 4038 
Q 1056 3838 1056 3469 
Q 1056 3159 1242 3001 
Q 1428 2844 1947 2747 
L 2328 2669 
Q 3034 2534 3370 2195 
Q 3706 1856 3706 1288 
Q 3706 609 3251 259 
Q 2797 -91 1919 -91 
Q 1588 -91 1214 -16 
Q 841 59 441 206 
L 441 856 
Q 825 641 1194 531 
Q 1563 422 1919 422 
Q 2459 422 2753 634 
Q 3047 847 3047 1241 
Q 3047 1584 2836 1778 
Q 2625 1972 2144 2069 
L 1759 2144 
Q 1053 2284 737 2584 
Q 422 2884 422 3419 
Q 422 4038 858 4394 
Q 1294 4750 2059 4750 
Q 2388 4750 2728 4690 
Q 3069 4631 3425 4513 
z
" transform="scale(0.015625)"/>
      <path id="DejaVuSans-43" d="M 4122 4306 
L 4122 3641 
Q 3803 3938 3442 4084 
Q 3081 4231 2675 4231 
Q 1875 4231 1450 3742 
Q 1025 3253 1025 2328 
Q 1025 1406 1450 917 
Q 1875 428 2675 428 
Q 3081 428 3442 575 
Q 3803 722 4122 1019 
L 4122 359 
Q 3791 134 3420 21 
Q 3050 -91 2638 -91 
Q 1578 -91 968 557 
Q 359 1206 359 2328 
Q 359 3453 968 4101 
Q 1578 4750 2638 4750 
Q 3056 4750 3426 4639 
Q 3797 4528 4122 4306 
z
" transform="scale(0.015625)"/>
      <path id="DejaVuSans-6f" d="M 1959 3097 
Q 1497 3097 1228 2736 
Q 959 2375 959 1747 
Q 959 1119 1226 758 
Q 1494 397 1959 397 
Q 2419 397 2687 759 
Q 2956 1122 2956 1747 
Q 2956 2369 2687 2733 
Q 2419 3097 1959 3097 
z
M 1959 3584 
Q 2709 3584 3137 3096 
Q 3566 2609 3566 1747 
Q 3566 888 3137 398 
Q 2709 -91 1959 -91 
Q 1206 -91 779 398 
Q 353 888 353 1747 
Q 353 2609 779 3096 
Q 1206 3584 1959 3584 
z
" transform="scale(0.015625)"/>
      <path id="DejaVuSans-67" d="M 2906 1791 
Q 2906 2416 2648 2759 
Q 2391 3103 1925 3103 
Q 1463 3103 1205 2759 
Q 947 2416 947 1791 
Q 947 1169 1205 825 
Q 1463 481 1925 481 
Q 2391 481 2648 825 
Q 2906 1169 2906 1791 
z
M 3481 434 
Q 3481 -459 3084 -895 
Q 2688 -1331 1869 -1331 
Q 1566 -1331 1297 -1286 
Q 1028 -1241 775 -1147 
L 775 -588 
Q 1028 -725 1275 -790 
Q 1522 -856 1778 -856 
Q 2344 -856 2625 -561 
Q 2906 -266 2906 331 
L 2906 616 
Q 2728 306 2450 153 
Q 2172 0 1784 0 
Q 1141 0 747 490 
Q 353 981 353 1791 
Q 353 2603 747 3093 
Q 1141 3584 1784 3584 
Q 2172 3584 2450 3431 
Q 2728 3278 2906 2969 
L 2906 3500 
L 3481 3500 
L 3481 434 
z
" transform="scale(0.015625)"/>
      <path id="DejaVuSans-63" d="M 3122 3366 
L 3122 2828 
Q 2878 2963 2633 3030 
Q 2388 3097 2138 3097 
Q 1578 3097 1268 2742 
Q 959 2388 959 1747 
Q 959 1106 1268 751 
Q 1578 397 2138 397 
Q 2388 397 2633 464 
Q 2878 531 3122 666 
L 3122 134 
Q 2881 22 2623 -34 
Q 2366 -91 2075 -91 
Q 1284 -91 818 406 
Q 353 903 353 1747 
Q 353 2603 823 3093 
Q 1294 3584 2113 3584 
Q 2378 3584 2631 3529 
Q 2884 3475 3122 3366 
z
" transform="scale(0.015625)"/>
      <path id="DejaVuSans-66" d="M 2375 4863 
L 2375 4384 
L 1825 4384 
Q 1516 4384 1395 4259 
Q 1275 4134 1275 3809 
L 1275 3500 
L 2222 3500 
L 2222 3053 
L 1275 3053 
L 1275 0 
L 697 0 
L 697 3053 
L 147 3053 
L 147 3500 
L 697 3500 
L 697 3744 
Q 697 4328 969 4595 
Q 1241 4863 1831 4863 
L 2375 4863 
z
" transform="scale(0.015625)"/>
      <path id="DejaVuSans-4b" d="M 628 4666 
L 1259 4666 
L 1259 2694 
L 3353 4666 
L 4166 4666 
L 1850 2491 
L 4331 0 
L 3500 0 
L 1259 2247 
L 1259 0 
L 628 0 
L 628 4666 
z
" transform="scale(0.015625)"/>
      <path id="DejaVuSans-5f" d="M 3263 -1063 
L 3263 -1509 
L -63 -1509 
L -63 -1063 
L 3263 -1063 
z
" transform="scale(0.015625)"/>
      <path id="DejaVuSans-7a" d="M 353 3500 
L 3084 3500 
L 3084 2975 
L 922 459 
L 3084 459 
L 3084 0 
L 275 0 
L 275 525 
L 2438 3041 
L 353 3041 
L 353 3500 
z
" transform="scale(0.015625)"/>
      <path id="DejaVuSans-49" d="M 628 4666 
L 1259 4666 
L 1259 0 
L 628 0 
L 628 4666 
z
" transform="scale(0.015625)"/>
      <path id="DejaVuSans-78" d="M 3513 3500 
L 2247 1797 
L 3578 0 
L 2900 0 
L 1881 1375 
L 863 0 
L 184 0 
L 1544 1831 
L 300 3500 
L 978 3500 
L 1906 2253 
L 2834 3500 
L 3513 3500 
z
" transform="scale(0.015625)"/>
     </defs>
     <use xlink:href="#DejaVuSans-53"/>
     <use xlink:href="#DejaVuSans-74" transform="translate(63.476562 0)"/>
     <use xlink:href="#DejaVuSans-61" transform="translate(102.685547 0)"/>
     <use xlink:href="#DejaVuSans-74" transform="translate(163.964844 0)"/>
     <use xlink:href="#DejaVuSans-65" transform="translate(203.173828 0)"/>
     <use xlink:href="#DejaVuSans-20" transform="translate(264.697266 0)"/>
     <use xlink:href="#DejaVuSans-56" transform="translate(296.484375 0)"/>
     <use xlink:href="#DejaVuSans-61" transform="translate(357.142578 0)"/>
     <use xlink:href="#DejaVuSans-6c" transform="translate(418.421875 0)"/>
     <use xlink:href="#DejaVuSans-75" transform="translate(446.205078 0)"/>
     <use xlink:href="#DejaVuSans-65" transform="translate(509.583984 0)"/>
     <use xlink:href="#DejaVuSans-20" transform="translate(571.107422 0)"/>
     <use xlink:href="#DejaVuSans-43" transform="translate(602.894531 0)"/>
     <use xlink:href="#DejaVuSans-6f" transform="translate(672.71875 0)"/>
     <use xlink:href="#DejaVuSans-6e" transform="translate(733.900391 0)"/>
     <use xlink:href="#DejaVuSans-76" transform="translate(797.279297 0)"/>
     <use xlink:href="#DejaVuSans-65" transform="translate(856.458984 0)"/>
     <use xlink:href="#DejaVuSans-72" transform="translate(917.982422 0)"/>
     <use xlink:href="#DejaVuSans-67" transform="translate(957.345703 0)"/>
     <use xlink:href="#DejaVuSans-65" transform="translate(1020.822266 0)"/>
     <use xlink:href="#DejaVuSans-6e" transform="translate(1082.345703 0)"/>
     <use xlink:href="#DejaVuSans-63" transform="translate(1145.724609 0)"/>
     <use xlink:href="#DejaVuSans-65" transform="translate(1200.705078 0)"/>
     <use xlink:href="#DejaVuSans-20" transform="translate(1262.228516 0)"/>
     <use xlink:href="#DejaVuSans-66" transform="translate(1294.015625 0)"/>
     <use xlink:href="#DejaVuSans-6f" transform="translate(1329.220703 0)"/>
     <use xlink:href="#DejaVuSans-72" transform="translate(1390.402344 0)"/>
     <use xlink:href="#DejaVuSans-20" transform="translate(1431.515625 0)"/>
     <use xlink:href="#DejaVuSans-64" transform="translate(1463.302734 0)"/>
     <use xlink:href="#DejaVuSans-4b" transform="translate(1526.779297 0)"/>
     <use xlink:href="#DejaVuSans-67" transform="translate(1592.355469 0)"/>
     <use xlink:href="#DejaVuSans-5f" transform="translate(1655.832031 0)"/>
     <use xlink:href="#DejaVuSans-7a" transform="translate(1705.832031 0)"/>
     <use xlink:href="#DejaVuSans-7a" transform="translate(1758.322266 0)"/>
     <use xlink:href="#DejaVuSans-20" transform="translate(1810.8125 0)"/>
     <use xlink:href="#DejaVuSans-28" transform="translate(1842.599609 0)"/>
     <use xlink:href="#DejaVuSans-49" transform="translate(1881.613281 0)"/>
     <use xlink:href="#DejaVuSans-6e" transform="translate(1911.105469 0)"/>
     <use xlink:href="#DejaVuSans-64" transform="translate(1974.484375 0)"/>
     <use xlink:href="#DejaVuSans-65" transform="translate(2037.960938 0)"/>
     <use xlink:href="#DejaVuSans-78" transform="translate(2097.734375 0)"/>
     <use xlink:href="#DejaVuSans-20" transform="translate(2156.914062 0)"/>
     <use xlink:href="#DejaVuSans-32" transform="translate(2188.701172 0)"/>
     <use xlink:href="#DejaVuSans-30" transform="translate(2252.324219 0)"/>
     <use xlink:href="#DejaVuSans-29" transform="translate(2315.947266 0)"/>
    </g>
   </g>
   <g id="legend_1">
    <g id="patch_7">
     <path d="M 97 379.48 
L 216.534375 379.48 
Q 218.534375 379.48 218.534375 377.48 
L 218.534375 349.12375 
Q 218.534375 347.12375 216.534375 347.12375 
L 97 347.12375 
Q 95 347.12375 95 349.12375 
L 95 377.48 
Q 95 379.48 97 379.48 
z
" style="fill: #ffffff; opacity: 0.8; stroke: #cccccc; stroke-linejoin: miter"/>
    </g>
    <g id="line2d_27">
     <path d="M 99 355.222188 
L 109 355.222188 
L 119 355.222188 
" style="fill: none; stroke: #ff0000; stroke-width: 1.5; stroke-linecap: square"/>
    </g>
    <g id="text_17">
     <!-- Baseline KF State -->
     <g transform="translate(127 358.722188) scale(0.1 -0.1)">
      <defs>
       <path id="DejaVuSans-42" d="M 1259 2228 
L 1259 519 
L 2272 519 
Q 2781 519 3026 730 
Q 3272 941 3272 1375 
Q 3272 1813 3026 2020 
Q 2781 2228 2272 2228 
L 1259 2228 
z
M 1259 4147 
L 1259 2741 
L 2194 2741 
Q 2656 2741 2882 2914 
Q 3109 3088 3109 3444 
Q 3109 3797 2882 3972 
Q 2656 4147 2194 4147 
L 1259 4147 
z
M 628 4666 
L 2241 4666 
Q 2963 4666 3353 4366 
Q 3744 4066 3744 3513 
Q 3744 3084 3544 2831 
Q 3344 2578 2956 2516 
Q 3422 2416 3680 2098 
Q 3938 1781 3938 1306 
Q 3938 681 3513 340 
Q 3088 0 2303 0 
L 628 0 
L 628 4666 
z
" transform="scale(0.015625)"/>
       <path id="DejaVuSans-46" d="M 628 4666 
L 3309 4666 
L 3309 4134 
L 1259 4134 
L 1259 2759 
L 3109 2759 
L 3109 2228 
L 1259 2228 
L 1259 0 
L 628 0 
L 628 4666 
z
" transform="scale(0.015625)"/>
      </defs>
      <use xlink:href="#DejaVuSans-42"/>
      <use xlink:href="#DejaVuSans-61" transform="translate(68.603516 0)"/>
      <use xlink:href="#DejaVuSans-73" transform="translate(129.882812 0)"/>
      <use xlink:href="#DejaVuSans-65" transform="translate(181.982422 0)"/>
      <use xlink:href="#DejaVuSans-6c" transform="translate(243.505859 0)"/>
      <use xlink:href="#DejaVuSans-69" transform="translate(271.289062 0)"/>
      <use xlink:href="#DejaVuSans-6e" transform="translate(299.072266 0)"/>
      <use xlink:href="#DejaVuSans-65" transform="translate(362.451172 0)"/>
      <use xlink:href="#DejaVuSans-20" transform="translate(423.974609 0)"/>
      <use xlink:href="#DejaVuSans-4b" transform="translate(455.761719 0)"/>
      <use xlink:href="#DejaVuSans-46" transform="translate(521.337891 0)"/>
      <use xlink:href="#DejaVuSans-20" transform="translate(578.857422 0)"/>
      <use xlink:href="#DejaVuSans-53" transform="translate(610.644531 0)"/>
      <use xlink:href="#DejaVuSans-74" transform="translate(674.121094 0)"/>
      <use xlink:href="#DejaVuSans-61" transform="translate(713.330078 0)"/>
      <use xlink:href="#DejaVuSans-74" transform="translate(774.609375 0)"/>
      <use xlink:href="#DejaVuSans-65" transform="translate(813.818359 0)"/>
     </g>
    </g>
    <g id="line2d_28">
     <path d="M 99 369.900312 
L 109 369.900312 
L 119 369.900312 
" style="fill: none; stroke-dasharray: 5.55,2.4; stroke-dashoffset: 0; stroke: #0000ff; stroke-width: 1.5"/>
    </g>
    <g id="text_18">
     <!-- Shadow KF State -->
     <g transform="translate(127 373.400312) scale(0.1 -0.1)">
      <defs>
       <path id="DejaVuSans-68" d="M 3513 2113 
L 3513 0 
L 2938 0 
L 2938 2094 
Q 2938 2591 2744 2837 
Q 2550 3084 2163 3084 
Q 1697 3084 1428 2787 
Q 1159 2491 1159 1978 
L 1159 0 
L 581 0 
L 581 4863 
L 1159 4863 
L 1159 2956 
Q 1366 3272 1645 3428 
Q 1925 3584 2291 3584 
Q 2894 3584 3203 3211 
Q 3513 2838 3513 2113 
z
" transform="scale(0.015625)"/>
       <path id="DejaVuSans-77" d="M 269 3500 
L 844 3500 
L 1563 769 
L 2278 3500 
L 2956 3500 
L 3675 769 
L 4391 3500 
L 4966 3500 
L 4050 0 
L 3372 0 
L 2619 2869 
L 1863 0 
L 1184 0 
L 269 3500 
z
" transform="scale(0.015625)"/>
      </defs>
      <use xlink:href="#DejaVuSans-53"/>
      <use xlink:href="#DejaVuSans-68" transform="translate(63.476562 0)"/>
      <use xlink:href="#DejaVuSans-61" transform="translate(126.855469 0)"/>
      <use xlink:href="#DejaVuSans-64" transform="translate(188.134766 0)"/>
      <use xlink:href="#DejaVuSans-6f" transform="translate(251.611328 0)"/>
      <use xlink:href="#DejaVuSans-77" transform="translate(312.792969 0)"/>
      <use xlink:href="#DejaVuSans-20" transform="translate(394.580078 0)"/>
      <use xlink:href="#DejaVuSans-4b" transform="translate(426.367188 0)"/>
      <use xlink:href="#DejaVuSans-46" transform="translate(491.943359 0)"/>
      <use xlink:href="#DejaVuSans-20" transform="translate(549.462891 0)"/>
      <use xlink:href="#DejaVuSans-53" transform="translate(581.25 0)"/>
      <use xlink:href="#DejaVuSans-74" transform="translate(644.726562 0)"/>
      <use xlink:href="#DejaVuSans-61" transform="translate(683.935547 0)"/>
      <use xlink:href="#DejaVuSans-74" transform="translate(745.214844 0)"/>
      <use xlink:href="#DejaVuSans-65" transform="translate(784.423828 0)"/>
     </g>
    </g>
   </g>
  </g>
 </g>
 <defs>
  <clipPath id="p76f93da96a">
   <rect x="90" y="51.84" width="558" height="332.64"/>
  </clipPath>
 </defs>
</svg>
