<?xml version="1.0" encoding="utf-8" standalone="no"?>
<!DOCTYPE svg PUBLIC "-//W3C//DTD SVG 1.1//EN"
  "http://www.w3.org/Graphics/SVG/1.1/DTD/svg11.dtd">
<svg xmlns:xlink="http://www.w3.org/1999/xlink" width="720pt" height="432pt" viewBox="0 0 720 432" xmlns="http://www.w3.org/2000/svg" version="1.1">
 <metadata>
  <rdf:RDF xmlns:dc="http://purl.org/dc/elements/1.1/" xmlns:cc="http://creativecommons.org/ns#" xmlns:rdf="http://www.w3.org/1999/02/22-rdf-syntax-ns#">
   <cc:Work>
    <dc:type rdf:resource="http://purl.org/dc/dcmitype/StillImage"/>
    <dc:date>2026-03-25T09:55:30.974741</dc:date>
    <dc:format>image/svg+xml</dc:format>
    <dc:creator>
     <cc:Agent>
      <dc:title>Matplotlib v3.10.8, https://matplotlib.org/</dc:title>
     </cc:Agent>
    </dc:creator>
   </cc:Work>
  </rdf:RDF>
 </metadata>
 <defs>
  <style type="text/css">*{stroke-linejoin: round; stroke-linecap: butt}</style>
 </defs>
 <g id="figure_1">
  <g id="patch_1">
   <path d="M 0 432 
L 720 432 
L 720 0 
L 0 0 
z
" style="fill: #ffffff"/>
  </g>
  <g id="axes_1">
   <g id="patch_2">
    <path d="M 90 384.48 
L 648 384.48 
L 648 51.84 
L 90 51.84 
z
" style="fill: #ffffff"/>
   </g>
   <g id="matplotlib.axis_1">
    <g id="xtick_1">
     <g id="line2d_1">
      <path d="M 115.363636 384.48 
L 115.363636 51.84 
" clip-path="url(#p706ae12fa6)" style="fill: none; stroke: #b0b0b0; stroke-width: 0.8; stroke-linecap: square"/>
     </g>
     <g id="line2d_2">
      <defs>
       <path id="m47e3850a56" d="M 0 0 
L 0 3.5 
" style="stroke: #000000; stroke-width: 0.8"/>
      </defs>
      <g>
       <use xlink:href="#m47e3850a56" x="115.363636" y="384.48" style="stroke: #000000; stroke-width: 0.8"/>
      </g>
     </g>
     <g id="text_1">
      <!-- 0 -->
      <g transform="translate(112.182386 399.078438) scale(0.1 -0.1)">
       <defs>
        <path id="DejaVuSans-30" d="M 2034 4250 
Q 1547 4250 1301 3770 
Q 1056 3291 1056 2328 
Q 1056 1369 1301 889 
Q 1547 409 2034 409 
Q 2525 409 2770 889 
Q 3016 1369 3016 2328 
Q 3016 3291 2770 3770 
Q 2525 4250 2034 4250 
z
M 2034 4750 
Q 2819 4750 3233 4129 
Q 3647 3509 3647 2328 
Q 3647 1150 3233 529 
Q 2819 -91 2034 -91 
Q 1250 -91 836 529 
Q 422 1150 422 2328 
Q 422 3509 836 4129 
Q 1250 4750 2034 4750 
z
" transform="scale(0.015625)"/>
       </defs>
       <use xlink:href="#DejaVuSans-30"/>
      </g>
     </g>
    </g>
    <g id="xtick_2">
     <g id="line2d_3">
      <path d="M 201.605174 384.48 
L 201.605174 51.84 
" clip-path="url(#p706ae12fa6)" style="fill: none; stroke: #b0b0b0; stroke-width: 0.8; stroke-linecap: square"/>
     </g>
     <g id="line2d_4">
      <g>
       <use xlink:href="#m47e3850a56" x="201.605174" y="384.48" style="stroke: #000000; stroke-width: 0.8"/>
      </g>
     </g>
     <g id="text_2">
      <!-- 50 -->
      <g transform="translate(195.242674 399.078438) scale(0.1 -0.1)">
       <defs>
        <path id="DejaVuSans-35" d="M 691 4666 
L 3169 4666 
L 3169 4134 
L 1269 4134 
L 1269 2991 
Q 1406 3038 1543 3061 
Q 1681 3084 1819 3084 
Q 2600 3084 3056 2656 
Q 3513 2228 3513 1497 
Q 3513 744 3044 326 
Q 2575 -91 1722 -91 
Q 1428 -91 1123 -41 
Q 819 9 494 109 
L 494 744 
Q 775 591 1075 516 
Q 1375 441 1709 441 
Q 2250 441 2565 725 
Q 2881 1009 2881 1497 
Q 2881 1984 2565 2268 
Q 2250 2553 1709 2553 
Q 1456 2553 1204 2497 
Q 953 2441 691 2322 
L 691 4666 
z
" transform="scale(0.015625)"/>
       </defs>
       <use xlink:href="#DejaVuSans-35"/>
       <use xlink:href="#DejaVuSans-30" transform="translate(63.623047 0)"/>
      </g>
     </g>
    </g>
    <g id="xtick_3">
     <g id="line2d_5">
      <path d="M 287.846713 384.48 
L 287.846713 51.84 
" clip-path="url(#p706ae12fa6)" style="fill: none; stroke: #b0b0b0; stroke-width: 0.8; stroke-linecap: square"/>
     </g>
     <g id="line2d_6">
      <g>
       <use xlink:href="#m47e3850a56" x="287.846713" y="384.48" style="stroke: #000000; stroke-width: 0.8"/>
      </g>
     </g>
     <g id="text_3">
      <!-- 100 -->
      <g transform="translate(278.302963 399.078438) scale(0.1 -0.1)">
       <defs>
        <path id="DejaVuSans-31" d="M 794 531 
L 1825 531 
L 1825 4091 
L 703 3866 
L 703 4441 
L 1819 4666 
L 2450 4666 
L 2450 531 
L 3481 531 
L 3481 0 
L 794 0 
L 794 531 
z
" transform="scale(0.015625)"/>
       </defs>
       <use xlink:href="#DejaVuSans-31"/>
       <use xlink:href="#DejaVuSans-30" transform="translate(63.623047 0)"/>
       <use xlink:href="#DejaVuSans-30" transform="translate(127.246094 0)"/>
      </g>
     </g>
    </g>
    <g id="xtick_4">
     <g id="line2d_7">
      <path d="M 374.088251 384.48 
L 374.088251 51.84 
" clip-path="url(#p706ae12fa6)" style="fill: none; stroke: #b0b0b0; stroke-width: 0.8; stroke-linecap: square"/>
     </g>
     <g id="line2d_8">
      <g>
       <use xlink:href="#m47e3850a56" x="374.088251" y="384.48" style="stroke: #000000; stroke-width: 0.8"/>
      </g>
     </g>
     <g id="text_4">
      <!-- 150 -->
      <g transform="translate(364.544501 399.078438) scale(0.1 -0.1)">
       <use xlink:href="#DejaVuSans-31"/>
       <use xlink:href="#DejaVuSans-35" transform="translate(63.623047 0)"/>
       <use xlink:href="#DejaVuSans-30" transform="translate(127.246094 0)"/>
      </g>
     </g>
    </g>
    <g id="xtick_5">
     <g id="line2d_9">
      <path d="M 460.329789 384.48 
L 460.329789 51.84 
" clip-path="url(#p706ae12fa6)" style="fill: none; stroke: #b0b0b0; stroke-width: 0.8; stroke-linecap: square"/>
     </g>
     <g id="line2d_10">
      <g>
       <use xlink:href="#m47e3850a56" x="460.329789" y="384.48" style="stroke: #000000; stroke-width: 0.8"/>
      </g>
     </g>
     <g id="text_5">
      <!-- 200 -->
      <g transform="translate(450.786039 399.078438) scale(0.1 -0.1)">
       <defs>
        <path id="DejaVuSans-32" d="M 1228 531 
L 3431 531 
L 3431 0 
L 469 0 
L 469 531 
Q 828 903 1448 1529 
Q 2069 2156 2228 2338 
Q 2531 2678 2651 2914 
Q 2772 3150 2772 3378 
Q 2772 3750 2511 3984 
Q 2250 4219 1831 4219 
Q 1534 4219 1204 4116 
Q 875 4013 500 3803 
L 500 4441 
Q 881 4594 1212 4672 
Q 1544 4750 1819 4750 
Q 2544 4750 2975 4387 
Q 3406 4025 3406 3419 
Q 3406 3131 3298 2873 
Q 3191 2616 2906 2266 
Q 2828 2175 2409 1742 
Q 1991 1309 1228 531 
z
" transform="scale(0.015625)"/>
       </defs>
       <use xlink:href="#DejaVuSans-32"/>
       <use xlink:href="#DejaVuSans-30" transform="translate(63.623047 0)"/>
       <use xlink:href="#DejaVuSans-30" transform="translate(127.246094 0)"/>
      </g>
     </g>
    </g>
    <g id="xtick_6">
     <g id="line2d_11">
      <path d="M 546.571327 384.48 
L 546.571327 51.84 
" clip-path="url(#p706ae12fa6)" style="fill: none; stroke: #b0b0b0; stroke-width: 0.8; stroke-linecap: square"/>
     </g>
     <g id="line2d_12">
      <g>
       <use xlink:href="#m47e3850a56" x="546.571327" y="384.48" style="stroke: #000000; stroke-width: 0.8"/>
      </g>
     </g>
     <g id="text_6">
      <!-- 250 -->
      <g transform="translate(537.027577 399.078438) scale(0.1 -0.1)">
       <use xlink:href="#DejaVuSans-32"/>
       <use xlink:href="#DejaVuSans-35" transform="translate(63.623047 0)"/>
       <use xlink:href="#DejaVuSans-30" transform="translate(127.246094 0)"/>
      </g>
     </g>
    </g>
    <g id="xtick_7">
     <g id="line2d_13">
      <path d="M 632.812865 384.48 
L 632.812865 51.84 
" clip-path="url(#p706ae12fa6)" style="fill: none; stroke: #b0b0b0; stroke-width: 0.8; stroke-linecap: square"/>
     </g>
     <g id="line2d_14">
      <g>
       <use xlink:href="#m47e3850a56" x="632.812865" y="384.48" style="stroke: #000000; stroke-width: 0.8"/>
      </g>
     </g>
     <g id="text_7">
      <!-- 300 -->
      <g transform="translate(623.269115 399.078438) scale(0.1 -0.1)">
       <defs>
        <path id="DejaVuSans-33" d="M 2597 2516 
Q 3050 2419 3304 2112 
Q 3559 1806 3559 1356 
Q 3559 666 3084 287 
Q 2609 -91 1734 -91 
Q 1441 -91 1130 -33 
Q 819 25 488 141 
L 488 750 
Q 750 597 1062 519 
Q 1375 441 1716 441 
Q 2309 441 2620 675 
Q 2931 909 2931 1356 
Q 2931 1769 2642 2001 
Q 2353 2234 1838 2234 
L 1294 2234 
L 1294 2753 
L 1863 2753 
Q 2328 2753 2575 2939 
Q 2822 3125 2822 3475 
Q 2822 3834 2567 4026 
Q 2313 4219 1838 4219 
Q 1578 4219 1281 4162 
Q 984 4106 628 3988 
L 628 4550 
Q 988 4650 1302 4700 
Q 1616 4750 1894 4750 
Q 2613 4750 3031 4423 
Q 3450 4097 3450 3541 
Q 3450 3153 3228 2886 
Q 3006 2619 2597 2516 
z
" transform="scale(0.015625)"/>
       </defs>
       <use xlink:href="#DejaVuSans-33"/>
       <use xlink:href="#DejaVuSans-30" transform="translate(63.623047 0)"/>
       <use xlink:href="#DejaVuSans-30" transform="translate(127.246094 0)"/>
      </g>
     </g>
    </g>
    <g id="text_8">
     <!-- Maneuver Time (s) -->
     <g transform="translate(322.198438 412.756563) scale(0.1 -0.1)">
      <defs>
       <path id="DejaVuSans-4d" d="M 628 4666 
L 1569 4666 
L 2759 1491 
L 3956 4666 
L 4897 4666 
L 4897 0 
L 4281 0 
L 4281 4097 
L 3078 897 
L 2444 897 
L 1241 4097 
L 1241 0 
L 628 0 
L 628 4666 
z
" transform="scale(0.015625)"/>
       <path id="DejaVuSans-61" d="M 2194 1759 
Q 1497 1759 1228 1600 
Q 959 1441 959 1056 
Q 959 750 1161 570 
Q 1363 391 1709 391 
Q 2188 391 2477 730 
Q 2766 1069 2766 1631 
L 2766 1759 
L 2194 1759 
z
M 3341 1997 
L 3341 0 
L 2766 0 
L 2766 531 
Q 2569 213 2275 61 
Q 1981 -91 1556 -91 
Q 1019 -91 701 211 
Q 384 513 384 1019 
Q 384 1609 779 1909 
Q 1175 2209 1959 2209 
L 2766 2209 
L 2766 2266 
Q 2766 2663 2505 2880 
Q 2244 3097 1772 3097 
Q 1472 3097 1187 3025 
Q 903 2953 641 2809 
L 641 3341 
Q 956 3463 1253 3523 
Q 1550 3584 1831 3584 
Q 2591 3584 2966 3190 
Q 3341 2797 3341 1997 
z
" transform="scale(0.015625)"/>
       <path id="DejaVuSans-6e" d="M 3513 2113 
L 3513 0 
L 2938 0 
L 2938 2094 
Q 2938 2591 2744 2837 
Q 2550 3084 2163 3084 
Q 1697 3084 1428 2787 
Q 1159 2491 1159 1978 
L 1159 0 
L 581 0 
L 581 3500 
L 1159 3500 
L 1159 2956 
Q 1366 3272 1645 3428 
Q 1925 3584 2291 3584 
Q 2894 3584 3203 3211 
Q 3513 2838 3513 2113 
z
" transform="scale(0.015625)"/>
       <path id="DejaVuSans-65" d="M 3597 1894 
L 3597 1613 
L 953 1613 
Q 991 1019 1311 708 
Q 1631 397 2203 397 
Q 2534 397 2845 478 
Q 3156 559 3463 722 
L 3463 178 
Q 3153 47 2828 -22 
Q 2503 -91 2169 -91 
Q 1331 -91 842 396 
Q 353 884 353 1716 
Q 353 2575 817 3079 
Q 1281 3584 2069 3584 
Q 2775 3584 3186 3129 
Q 3597 2675 3597 1894 
z
M 3022 2063 
Q 3016 2534 2758 2815 
Q 2500 3097 2075 3097 
Q 1594 3097 1305 2825 
Q 1016 2553 972 2059 
L 3022 2063 
z
" transform="scale(0.015625)"/>
       <path id="DejaVuSans-75" d="M 544 1381 
L 544 3500 
L 1119 3500 
L 1119 1403 
Q 1119 906 1312 657 
Q 1506 409 1894 409 
Q 2359 409 2629 706 
Q 2900 1003 2900 1516 
L 2900 3500 
L 3475 3500 
L 3475 0 
L 2900 0 
L 2900 538 
Q 2691 219 2414 64 
Q 2138 -91 1772 -91 
Q 1169 -91 856 284 
Q 544 659 544 1381 
z
M 1991 3584 
L 1991 3584 
z
" transform="scale(0.015625)"/>
       <path id="DejaVuSans-76" d="M 191 3500 
L 800 3500 
L 1894 563 
L 2988 3500 
L 3597 3500 
L 2284 0 
L 1503 0 
L 191 3500 
z
" transform="scale(0.015625)"/>
       <path id="DejaVuSans-72" d="M 2631 2963 
Q 2534 3019 2420 3045 
Q 2306 3072 2169 3072 
Q 1681 3072 1420 2755 
Q 1159 2438 1159 1844 
L 1159 0 
L 581 0 
L 581 3500 
L 1159 3500 
L 1159 2956 
Q 1341 3275 1631 3429 
Q 1922 3584 2338 3584 
Q 2397 3584 2469 3576 
Q 2541 3569 2628 3553 
L 2631 2963 
z
" transform="scale(0.015625)"/>
       <path id="DejaVuSans-20" transform="scale(0.015625)"/>
       <path id="DejaVuSans-54" d="M -19 4666 
L 3928 4666 
L 3928 4134 
L 2272 4134 
L 2272 0 
L 1638 0 
L 1638 4134 
L -19 4134 
L -19 4666 
z
" transform="scale(0.015625)"/>
       <path id="DejaVuSans-69" d="M 603 3500 
L 1178 3500 
L 1178 0 
L 603 0 
L 603 3500 
z
M 603 4863 
L 1178 4863 
L 1178 4134 
L 603 4134 
L 603 4863 
z
" transform="scale(0.015625)"/>
       <path id="DejaVuSans-6d" d="M 3328 2828 
Q 3544 3216 3844 3400 
Q 4144 3584 4550 3584 
Q 5097 3584 5394 3201 
Q 5691 2819 5691 2113 
L 5691 0 
L 5113 0 
L 5113 2094 
Q 5113 2597 4934 2840 
Q 4756 3084 4391 3084 
Q 3944 3084 3684 2787 
Q 3425 2491 3425 1978 
L 3425 0 
L 2847 0 
L 2847 2094 
Q 2847 2600 2669 2842 
Q 2491 3084 2119 3084 
Q 1678 3084 1418 2786 
Q 1159 2488 1159 1978 
L 1159 0 
L 581 0 
L 581 3500 
L 1159 3500 
L 1159 2956 
Q 1356 3278 1631 3431 
Q 1906 3584 2284 3584 
Q 2666 3584 2933 3390 
Q 3200 3197 3328 2828 
z
" transform="scale(0.015625)"/>
       <path id="DejaVuSans-28" d="M 1984 4856 
Q 1566 4138 1362 3434 
Q 1159 2731 1159 2009 
Q 1159 1288 1364 580 
Q 1569 -128 1984 -844 
L 1484 -844 
Q 1016 -109 783 600 
Q 550 1309 550 2009 
Q 550 2706 781 3412 
Q 1013 4119 1484 4856 
L 1984 4856 
z
" transform="scale(0.015625)"/>
       <path id="DejaVuSans-73" d="M 2834 3397 
L 2834 2853 
Q 2591 2978 2328 3040 
Q 2066 3103 1784 3103 
Q 1356 3103 1142 2972 
Q 928 2841 928 2578 
Q 928 2378 1081 2264 
Q 1234 2150 1697 2047 
L 1894 2003 
Q 2506 1872 2764 1633 
Q 3022 1394 3022 966 
Q 3022 478 2636 193 
Q 2250 -91 1575 -91 
Q 1294 -91 989 -36 
Q 684 19 347 128 
L 347 722 
Q 666 556 975 473 
Q 1284 391 1588 391 
Q 1994 391 2212 530 
Q 2431 669 2431 922 
Q 2431 1156 2273 1281 
Q 2116 1406 1581 1522 
L 1381 1569 
Q 847 1681 609 1914 
Q 372 2147 372 2553 
Q 372 3047 722 3315 
Q 1072 3584 1716 3584 
Q 2034 3584 2315 3537 
Q 2597 3491 2834 3397 
z
" transform="scale(0.015625)"/>
       <path id="DejaVuSans-29" d="M 513 4856 
L 1013 4856 
Q 1481 4119 1714 3412 
Q 1947 2706 1947 2009 
Q 1947 1309 1714 600 
Q 1481 -109 1013 -844 
L 513 -844 
Q 928 -128 1133 580 
Q 1338 1288 1338 2009 
Q 1338 2731 1133 3434 
Q 928 4138 513 4856 
z
" transform="scale(0.015625)"/>
      </defs>
      <use xlink:href="#DejaVuSans-4d"/>
      <use xlink:href="#DejaVuSans-61" transform="translate(86.279297 0)"/>
      <use xlink:href="#DejaVuSans-6e" transform="translate(147.558594 0)"/>
      <use xlink:href="#DejaVuSans-65" transform="translate(210.9375 0)"/>
      <use xlink:href="#DejaVuSans-75" transform="translate(272.460938 0)"/>
      <use xlink:href="#DejaVuSans-76" transform="translate(335.839844 0)"/>
      <use xlink:href="#DejaVuSans-65" transform="translate(395.019531 0)"/>
      <use xlink:href="#DejaVuSans-72" transform="translate(456.542969 0)"/>
      <use xlink:href="#DejaVuSans-20" transform="translate(497.65625 0)"/>
      <use xlink:href="#DejaVuSans-54" transform="translate(529.443359 0)"/>
      <use xlink:href="#DejaVuSans-69" transform="translate(587.402344 0)"/>
      <use xlink:href="#DejaVuSans-6d" transform="translate(615.185547 0)"/>
      <use xlink:href="#DejaVuSans-65" transform="translate(712.597656 0)"/>
      <use xlink:href="#DejaVuSans-20" transform="translate(774.121094 0)"/>
      <use xlink:href="#DejaVuSans-28" transform="translate(805.908203 0)"/>
      <use xlink:href="#DejaVuSans-73" transform="translate(844.921875 0)"/>
      <use xlink:href="#DejaVuSans-29" transform="translate(897.021484 0)"/>
     </g>
    </g>
   </g>
   <g id="matplotlib.axis_2">
    <g id="ytick_1">
     <g id="line2d_15">
      <path d="M 90 362.639816 
L 648 362.639816 
" clip-path="url(#p706ae12fa6)" style="fill: none; stroke: #b0b0b0; stroke-width: 0.8; stroke-linecap: square"/>
     </g>
     <g id="line2d_16">
      <defs>
       <path id="m4635747595" d="M 0 0 
L -3.5 0 
" style="stroke: #000000; stroke-width: 0.8"/>
      </defs>
      <g>
       <use xlink:href="#m4635747595" x="90" y="362.639816" style="stroke: #000000; stroke-width: 0.8"/>
      </g>
     </g>
     <g id="text_9">
      <!-- −0.000075 -->
      <g transform="translate(26.904687 366.439035) scale(0.1 -0.1)">
       <defs>
        <path id="DejaVuSans-2212" d="M 678 2272 
L 4684 2272 
L 4684 1741 
L 678 1741 
L 678 2272 
z
" transform="scale(0.015625)"/>
        <path id="DejaVuSans-2e" d="M 684 794 
L 1344 794 
L 1344 0 
L 684 0 
L 684 794 
z
" transform="scale(0.015625)"/>
        <path id="DejaVuSans-37" d="M 525 4666 
L 3525 4666 
L 3525 4397 
L 1831 0 
L 1172 0 
L 2766 4134 
L 525 4134 
L 525 4666 
z
" transform="scale(0.015625)"/>
       </defs>
       <use xlink:href="#DejaVuSans-2212"/>
       <use xlink:href="#DejaVuSans-30" transform="translate(83.789062 0)"/>
       <use xlink:href="#DejaVuSans-2e" transform="translate(147.412109 0)"/>
       <use xlink:href="#DejaVuSans-30" transform="translate(179.199219 0)"/>
       <use xlink:href="#DejaVuSans-30" transform="translate(242.822266 0)"/>
       <use xlink:href="#DejaVuSans-30" transform="translate(306.445312 0)"/>
       <use xlink:href="#DejaVuSans-30" transform="translate(370.068359 0)"/>
       <use xlink:href="#DejaVuSans-37" transform="translate(433.691406 0)"/>
       <use xlink:href="#DejaVuSans-35" transform="translate(497.314453 0)"/>
      </g>
     </g>
    </g>
    <g id="ytick_2">
     <g id="line2d_17">
      <path d="M 90 324.300577 
L 648 324.300577 
" clip-path="url(#p706ae12fa6)" style="fill: none; stroke: #b0b0b0; stroke-width: 0.8; stroke-linecap: square"/>
     </g>
     <g id="line2d_18">
      <g>
       <use xlink:href="#m4635747595" x="90" y="324.300577" style="stroke: #000000; stroke-width: 0.8"/>
      </g>
     </g>
     <g id="text_10">
      <!-- −0.000050 -->
      <g transform="translate(26.904687 328.099795) scale(0.1 -0.1)">
       <use xlink:href="#DejaVuSans-2212"/>
       <use xlink:href="#DejaVuSans-30" transform="translate(83.789062 0)"/>
       <use xlink:href="#DejaVuSans-2e" transform="translate(147.412109 0)"/>
       <use xlink:href="#DejaVuSans-30" transform="translate(179.199219 0)"/>
       <use xlink:href="#DejaVuSans-30" transform="translate(242.822266 0)"/>
       <use xlink:href="#DejaVuSans-30" transform="translate(306.445312 0)"/>
       <use xlink:href="#DejaVuSans-30" transform="translate(370.068359 0)"/>
       <use xlink:href="#DejaVuSans-35" transform="translate(433.691406 0)"/>
       <use xlink:href="#DejaVuSans-30" transform="translate(497.314453 0)"/>
      </g>
     </g>
    </g>
    <g id="ytick_3">
     <g id="line2d_19">
      <path d="M 90 285.961337 
L 648 285.961337 
" clip-path="url(#p706ae12fa6)" style="fill: none; stroke: #b0b0b0; stroke-width: 0.8; stroke-linecap: square"/>
     </g>
     <g id="line2d_20">
      <g>
       <use xlink:href="#m4635747595" x="90" y="285.961337" style="stroke: #000000; stroke-width: 0.8"/>
      </g>
     </g>
     <g id="text_11">
      <!-- −0.000025 -->
      <g transform="translate(26.904687 289.760556) scale(0.1 -0.1)">
       <use xlink:href="#DejaVuSans-2212"/>
       <use xlink:href="#DejaVuSans-30" transform="translate(83.789062 0)"/>
       <use xlink:href="#DejaVuSans-2e" transform="translate(147.412109 0)"/>
       <use xlink:href="#DejaVuSans-30" transform="translate(179.199219 0)"/>
       <use xlink:href="#DejaVuSans-30" transform="translate(242.822266 0)"/>
       <use xlink:href="#DejaVuSans-30" transform="translate(306.445312 0)"/>
       <use xlink:href="#DejaVuSans-30" transform="translate(370.068359 0)"/>
       <use xlink:href="#DejaVuSans-32" transform="translate(433.691406 0)"/>
       <use xlink:href="#DejaVuSans-35" transform="translate(497.314453 0)"/>
      </g>
     </g>
    </g>
    <g id="ytick_4">
     <g id="line2d_21">
      <path d="M 90 247.622097 
L 648 247.622097 
" clip-path="url(#p706ae12fa6)" style="fill: none; stroke: #b0b0b0; stroke-width: 0.8; stroke-linecap: square"/>
     </g>
     <g id="line2d_22">
      <g>
       <use xlink:href="#m4635747595" x="90" y="247.622097" style="stroke: #000000; stroke-width: 0.8"/>
      </g>
     </g>
     <g id="text_12">
      <!-- 0.000000 -->
      <g transform="translate(35.284375 251.421316) scale(0.1 -0.1)">
       <use xlink:href="#DejaVuSans-30"/>
       <use xlink:href="#DejaVuSans-2e" transform="translate(63.623047 0)"/>
       <use xlink:href="#DejaVuSans-30" transform="translate(95.410156 0)"/>
       <use xlink:href="#DejaVuSans-30" transform="translate(159.033203 0)"/>
       <use xlink:href="#DejaVuSans-30" transform="translate(222.65625 0)"/>
       <use xlink:href="#DejaVuSans-30" transform="translate(286.279297 0)"/>
       <use xlink:href="#DejaVuSans-30" transform="translate(349.902344 0)"/>
       <use xlink:href="#DejaVuSans-30" transform="translate(413.525391 0)"/>
      </g>
     </g>
    </g>
    <g id="ytick_5">
     <g id="line2d_23">
      <path d="M 90 209.282857 
L 648 209.282857 
" clip-path="url(#p706ae12fa6)" style="fill: none; stroke: #b0b0b0; stroke-width: 0.8; stroke-linecap: square"/>
     </g>
     <g id="line2d_24">
      <g>
       <use xlink:href="#m4635747595" x="90" y="209.282857" style="stroke: #000000; stroke-width: 0.8"/>
      </g>
     </g>
     <g id="text_13">
      <!-- 0.000025 -->
      <g transform="translate(35.284375 213.082076) scale(0.1 -0.1)">
       <use xlink:href="#DejaVuSans-30"/>
       <use xlink:href="#DejaVuSans-2e" transform="translate(63.623047 0)"/>
       <use xlink:href="#DejaVuSans-30" transform="translate(95.410156 0)"/>
       <use xlink:href="#DejaVuSans-30" transform="translate(159.033203 0)"/>
       <use xlink:href="#DejaVuSans-30" transform="translate(222.65625 0)"/>
       <use xlink:href="#DejaVuSans-30" transform="translate(286.279297 0)"/>
       <use xlink:href="#DejaVuSans-32" transform="translate(349.902344 0)"/>
       <use xlink:href="#DejaVuSans-35" transform="translate(413.525391 0)"/>
      </g>
     </g>
    </g>
    <g id="ytick_6">
     <g id="line2d_25">
      <path d="M 90 170.943618 
L 648 170.943618 
" clip-path="url(#p706ae12fa6)" style="fill: none; stroke: #b0b0b0; stroke-width: 0.8; stroke-linecap: square"/>
     </g>
     <g id="line2d_26">
      <g>
       <use xlink:href="#m4635747595" x="90" y="170.943618" style="stroke: #000000; stroke-width: 0.8"/>
      </g>
     </g>
     <g id="text_14">
      <!-- 0.000050 -->
      <g transform="translate(35.284375 174.742836) scale(0.1 -0.1)">
       <use xlink:href="#DejaVuSans-30"/>
       <use xlink:href="#DejaVuSans-2e" transform="translate(63.623047 0)"/>
       <use xlink:href="#DejaVuSans-30" transform="translate(95.410156 0)"/>
       <use xlink:href="#DejaVuSans-30" transform="translate(159.033203 0)"/>
       <use xlink:href="#DejaVuSans-30" transform="translate(222.65625 0)"/>
       <use xlink:href="#DejaVuSans-30" transform="translate(286.279297 0)"/>
       <use xlink:href="#DejaVuSans-35" transform="translate(349.902344 0)"/>
       <use xlink:href="#DejaVuSans-30" transform="translate(413.525391 0)"/>
      </g>
     </g>
    </g>
    <g id="ytick_7">
     <g id="line2d_27">
      <path d="M 90 132.604378 
L 648 132.604378 
" clip-path="url(#p706ae12fa6)" style="fill: none; stroke: #b0b0b0; stroke-width: 0.8; stroke-linecap: square"/>
     </g>
     <g id="line2d_28">
      <g>
       <use xlink:href="#m4635747595" x="90" y="132.604378" style="stroke: #000000; stroke-width: 0.8"/>
      </g>
     </g>
     <g id="text_15">
      <!-- 0.000075 -->
      <g transform="translate(35.284375 136.403596) scale(0.1 -0.1)">
       <use xlink:href="#DejaVuSans-30"/>
       <use xlink:href="#DejaVuSans-2e" transform="translate(63.623047 0)"/>
       <use xlink:href="#DejaVuSans-30" transform="translate(95.410156 0)"/>
       <use xlink:href="#DejaVuSans-30" transform="translate(159.033203 0)"/>
       <use xlink:href="#DejaVuSans-30" transform="translate(222.65625 0)"/>
       <use xlink:href="#DejaVuSans-30" transform="translate(286.279297 0)"/>
       <use xlink:href="#DejaVuSans-37" transform="translate(349.902344 0)"/>
       <use xlink:href="#DejaVuSans-35" transform="translate(413.525391 0)"/>
      </g>
     </g>
    </g>
    <g id="ytick_8">
     <g id="line2d_29">
      <path d="M 90 94.265138 
L 648 94.265138 
" clip-path="url(#p706ae12fa6)" style="fill: none; stroke: #b0b0b0; stroke-width: 0.8; stroke-linecap: square"/>
     </g>
     <g id="line2d_30">
      <g>
       <use xlink:href="#m4635747595" x="90" y="94.265138" style="stroke: #000000; stroke-width: 0.8"/>
      </g>
     </g>
     <g id="text_16">
      <!-- 0.000100 -->
      <g transform="translate(35.284375 98.064357) scale(0.1 -0.1)">
       <use xlink:href="#DejaVuSans-30"/>
       <use xlink:href="#DejaVuSans-2e" transform="translate(63.623047 0)"/>
       <use xlink:href="#DejaVuSans-30" transform="translate(95.410156 0)"/>
       <use xlink:href="#DejaVuSans-30" transform="translate(159.033203 0)"/>
       <use xlink:href="#DejaVuSans-30" transform="translate(222.65625 0)"/>
       <use xlink:href="#DejaVuSans-31" transform="translate(286.279297 0)"/>
       <use xlink:href="#DejaVuSans-30" transform="translate(349.902344 0)"/>
       <use xlink:href="#DejaVuSans-30" transform="translate(413.525391 0)"/>
      </g>
     </g>
    </g>
    <g id="ytick_9">
     <g id="line2d_31">
      <path d="M 90 55.925898 
L 648 55.925898 
" clip-path="url(#p706ae12fa6)" style="fill: none; stroke: #b0b0b0; stroke-width: 0.8; stroke-linecap: square"/>
     </g>
     <g id="line2d_32">
      <g>
       <use xlink:href="#m4635747595" x="90" y="55.925898" style="stroke: #000000; stroke-width: 0.8"/>
      </g>
     </g>
     <g id="text_17">
      <!-- 0.000125 -->
      <g transform="translate(35.284375 59.725117) scale(0.1 -0.1)">
       <use xlink:href="#DejaVuSans-30"/>
       <use xlink:href="#DejaVuSans-2e" transform="translate(63.623047 0)"/>
       <use xlink:href="#DejaVuSans-30" transform="translate(95.410156 0)"/>
       <use xlink:href="#DejaVuSans-30" transform="translate(159.033203 0)"/>
       <use xlink:href="#DejaVuSans-30" transform="translate(222.65625 0)"/>
       <use xlink:href="#DejaVuSans-31" transform="translate(286.279297 0)"/>
       <use xlink:href="#DejaVuSans-32" transform="translate(349.902344 0)"/>
       <use xlink:href="#DejaVuSans-35" transform="translate(413.525391 0)"/>
      </g>
     </g>
    </g>
    <g id="text_18">
     <!-- Estimated Value -->
     <g transform="translate(20.825 258.738906) rotate(-90) scale(0.1 -0.1)">
      <defs>
       <path id="DejaVuSans-45" d="M 628 4666 
L 3578 4666 
L 3578 4134 
L 1259 4134 
L 1259 2753 
L 3481 2753 
L 3481 2222 
L 1259 2222 
L 1259 531 
L 3634 531 
L 3634 0 
L 628 0 
L 628 4666 
z
" transform="scale(0.015625)"/>
       <path id="DejaVuSans-74" d="M 1172 4494 
L 1172 3500 
L 2356 3500 
L 2356 3053 
L 1172 3053 
L 1172 1153 
Q 1172 725 1289 603 
Q 1406 481 1766 481 
L 2356 481 
L 2356 0 
L 1766 0 
Q 1100 0 847 248 
Q 594 497 594 1153 
L 594 3053 
L 172 3053 
L 172 3500 
L 594 3500 
L 594 4494 
L 1172 4494 
z
" transform="scale(0.015625)"/>
       <path id="DejaVuSans-64" d="M 2906 2969 
L 2906 4863 
L 3481 4863 
L 3481 0 
L 2906 0 
L 2906 525 
Q 2725 213 2448 61 
Q 2172 -91 1784 -91 
Q 1150 -91 751 415 
Q 353 922 353 1747 
Q 353 2572 751 3078 
Q 1150 3584 1784 3584 
Q 2172 3584 2448 3432 
Q 2725 3281 2906 2969 
z
M 947 1747 
Q 947 1113 1208 752 
Q 1469 391 1925 391 
Q 2381 391 2643 752 
Q 2906 1113 2906 1747 
Q 2906 2381 2643 2742 
Q 2381 3103 1925 3103 
Q 1469 3103 1208 2742 
Q 947 2381 947 1747 
z
" transform="scale(0.015625)"/>
       <path id="DejaVuSans-56" d="M 1831 0 
L 50 4666 
L 709 4666 
L 2188 738 
L 3669 4666 
L 4325 4666 
L 2547 0 
L 1831 0 
z
" transform="scale(0.015625)"/>
       <path id="DejaVuSans-6c" d="M 603 4863 
L 1178 4863 
L 1178 0 
L 603 0 
L 603 4863 
z
" transform="scale(0.015625)"/>
      </defs>
      <use xlink:href="#DejaVuSans-45"/>
      <use xlink:href="#DejaVuSans-73" transform="translate(63.183594 0)"/>
      <use xlink:href="#DejaVuSans-74" transform="translate(115.283203 0)"/>
      <use xlink:href="#DejaVuSans-69" transform="translate(154.492188 0)"/>
      <use xlink:href="#DejaVuSans-6d" transform="translate(182.275391 0)"/>
      <use xlink:href="#DejaVuSans-61" transform="translate(279.6875 0)"/>
      <use xlink:href="#DejaVuSans-74" transform="translate(340.966797 0)"/>
      <use xlink:href="#DejaVuSans-65" transform="translate(380.175781 0)"/>
      <use xlink:href="#DejaVuSans-64" transform="translate(441.699219 0)"/>
      <use xlink:href="#DejaVuSans-20" transform="translate(505.175781 0)"/>
      <use xlink:href="#DejaVuSans-56" transform="translate(536.962891 0)"/>
      <use xlink:href="#DejaVuSans-61" transform="translate(597.621094 0)"/>
      <use xlink:href="#DejaVuSans-6c" transform="translate(658.900391 0)"/>
      <use xlink:href="#DejaVuSans-75" transform="translate(686.683594 0)"/>
      <use xlink:href="#DejaVuSans-65" transform="translate(750.0625 0)"/>
     </g>
    </g>
   </g>
   <g id="line2d_33">
    <path d="M 115.363636 247.6221 
L 115.501623 248.360626 
L 116.088065 248.587839 
L 120.883095 250.149014 
L 123.401348 250.730621 
L 125.850607 251.063685 
L 128.058391 251.156424 
L 128.88631 251.156424 
L 128.920806 342.126012 
L 128.989799 321.05434 
L 129.196779 261.950538 
L 129.438255 250.086725 
L 129.714228 246.644588 
L 129.990201 245.50176 
L 130.266174 245.148713 
L 130.542147 245.155302 
L 130.92161 245.456477 
L 131.577046 246.32992 
L 134.302278 250.244972 
L 135.233687 251.106833 
L 136.061606 251.591449 
L 136.855028 251.810405 
L 137.682946 251.801871 
L 138.545362 251.567756 
L 139.545764 251.06085 
L 140.822138 250.144896 
L 142.650459 248.527863 
L 144.340793 247.084257 
L 145.962134 247.084257 
L 146.100121 180.871503 
L 146.51408 176.916872 
L 146.824549 175.903888 
L 147.169516 175.457677 
L 147.548978 175.322658 
L 148.031931 175.407061 
L 148.75636 175.78922 
L 149.963741 176.710879 
L 152.861457 179.01845 
L 154.413805 179.01845 
L 154.551791 175.280171 
L 154.896757 174.724615 
L 155.345213 174.508874 
L 156.483602 174.294554 
L 159.65729 173.705913 
L 161.658094 173.33065 
L 162.865476 173.33065 
L 162.899972 172.894234 
L 162.968965 173.093482 
L 163.348428 175.000264 
L 164.107354 178.325753 
L 164.969769 181.113782 
L 165.901178 183.378013 
L 166.867083 185.14798 
L 167.832988 186.463913 
L 168.798893 187.411437 
L 169.592316 187.918916 
L 171.317146 187.918916 
L 171.351643 186.974677 
L 171.420636 187.173179 
L 171.731106 189.082194 
L 172.283052 191.827026 
L 172.869494 193.682342 
L 173.52493 195.069806 
L 174.283855 196.167243 
L 175.146271 197.026541 
L 176.146672 197.713486 
L 177.388551 198.286063 
L 178.216469 198.484485 
L 179.768817 198.484485 
L 179.906803 196.857078 
L 180.527743 196.754096 
L 181.562641 196.825795 
L 185.322772 197.249554 
L 188.220488 197.183393 
L 188.254984 198.917977 
L 188.530957 107.444327 
L 188.772434 100.960935 
L 189.082903 98.537248 
L 189.496863 97.006396 
L 190.117802 95.577629 
L 191.118203 93.879195 
L 192.567061 91.871185 
L 194.188402 89.995144 
L 194.981824 89.307387 
L 196.672159 89.307387 
L 196.706655 98.960569 
L 196.775648 97.031252 
L 196.982628 93.688673 
L 197.224104 93.149136 
L 197.638064 92.864926 
L 198.500479 92.599828 
L 199.742357 92.44746 
L 200.915242 92.518658 
L 202.05363 92.806149 
L 203.261012 93.347164 
L 203.536985 93.385285 
L 205.123829 93.385285 
L 205.261816 71.3869 
L 205.572285 68.277478 
L 205.848258 67.411923 
L 206.158728 67.065556 
L 206.53819 66.960409 
L 207.090136 67.055312 
L 207.987048 67.461935 
L 209.366913 68.349589 
L 211.264227 69.847454 
L 211.954159 70.294674 
L 213.5755 70.294674 
L 213.609997 80.122102 
L 213.713486 79.723354 
L 214.127446 77.394825 
L 214.472412 76.73426 
L 214.851875 76.487322 
L 215.300331 76.484138 
L 215.92127 76.73084 
L 216.956168 77.421349 
L 220.233347 79.751557 
L 222.027171 79.751557 
L 222.165157 78.123035 
L 222.579117 77.992963 
L 223.269049 78.029 
L 224.234954 78.317366 
L 225.718309 79.017499 
L 228.133072 80.435354 
L 228.891997 80.78071 
L 230.478841 80.78071 
L 230.582331 81.950185 
L 230.616828 81.946726 
L 231.030787 81.702401 
L 231.789713 81.401538 
L 232.997094 81.188645 
L 234.859912 81.103176 
L 238.930512 81.202849 
L 239.068499 82.311387 
L 239.758431 83.006455 
L 240.551853 83.453181 
L 241.897221 83.920462 
L 246.002318 85.008552 
L 247.382183 85.008552 
L 247.520169 165.649001 
L 247.899632 167.246409 
L 248.348088 168.106537 
L 249.072517 168.951041 
L 250.348892 170.046225 
L 252.453185 171.536269 
L 254.14352 172.517281 
L 255.833854 172.517281 
L 255.97184 174.712706 
L 256.489289 175.779028 
L 256.972242 176.204374 
L 257.627678 176.477413 
L 258.559086 176.612645 
L 259.938951 176.57141 
L 262.112238 176.261471 
L 263.112639 176.192645 
L 264.285524 176.192645 
L 264.320021 176.063967 
L 264.389014 176.104871 
L 264.630491 176.572195 
L 265.25143 177.693469 
L 265.941362 178.470628 
L 266.769281 179.061437 
L 267.804179 179.521402 
L 269.184044 179.879506 
L 271.012364 180.111758 
L 272.737195 180.111758 
L 272.875182 176.68417 
L 273.841087 174.031432 
L 274.531019 172.945564 
L 275.324441 172.103671 
L 276.290347 171.402078 
L 277.497728 170.806685 
L 279.015579 170.31234 
L 279.809001 170.218483 
L 281.188866 170.218483 
L 281.326852 171.018988 
L 282.327254 171.596298 
L 283.534636 171.971914 
L 284.431548 172.157316 
L 284.569534 247.627051 
L 293.814627 247.935882 
L 297.988718 247.953538 
L 298.023214 246.863648 
L 298.057711 247.420463 
L 298.333684 253.364083 
L 298.609657 254.404048 
L 299.058113 255.14774 
L 300.024018 256.237694 
L 301.679855 257.767144 
L 303.232203 258.917515 
L 304.577571 259.650268 
L 305.853946 260.101381 
L 307.164817 260.330309 
L 308.613675 260.350653 
L 310.338506 260.14298 
L 312.822262 259.597456 
L 313.719174 259.484021 
L 315.064542 259.484021 
L 315.202529 253.574176 
L 315.616488 252.746757 
L 316.030447 252.481995 
L 316.72038 252.354732 
L 318.065748 252.376502 
L 323.516213 252.719023 
L 323.654199 252.457322 
L 324.102655 252.235009 
L 325.034064 252.149443 
L 331.967884 251.935632 
L 332.10587 250.375991 
L 332.761306 250.472122 
L 337.418349 251.223032 
L 339.522642 251.318549 
L 340.419554 251.318549 
L 340.454051 251.060855 
L 340.557541 251.116503 
L 341.902909 252.237879 
L 342.937807 252.635232 
L 344.490155 252.976347 
L 346.904918 253.26179 
L 348.388272 253.27599 
L 348.871225 253.27599 
L 349.009211 252.515661 
L 350.354579 252.352318 
L 353.045315 252.30947 
L 357.322896 252.290234 
L 357.529875 246.748647 
L 357.736855 245.725446 
L 358.047325 245.40862 
L 358.70276 245.167244 
L 360.703564 244.75134 
L 364.256715 244.21606 
L 365.774566 244.21606 
L 365.912553 244.51685 
L 366.498995 244.532333 
L 370.949059 244.569353 
L 374.226237 244.666769 
L 374.260734 245.426653 
L 374.329727 245.313319 
L 374.743686 244.439715 
L 375.123149 244.248417 
L 375.847578 244.180424 
L 377.572409 244.29372 
L 382.677908 244.702907 
L 382.746901 249.121573 
L 382.815894 249.07267 
L 383.26435 248.783524 
L 383.885289 248.736986 
L 385.265154 248.905707 
L 389.439245 249.480244 
L 391.129579 249.480244 
L 391.267565 249.28765 
L 392.129981 249.165464 
L 393.820315 249.176737 
L 397.476956 249.47061 
L 398.96031 249.500202 
L 399.581249 249.500202 
L 399.719236 249.75502 
L 402.030509 249.563527 
L 406.860035 249.500159 
L 408.03292 249.500159 
L 408.170907 250.820268 
L 410.516676 251.017937 
L 416.484591 251.253262 
L 416.519088 253.212636 
L 416.622577 253.004658 
L 417.071033 251.898391 
L 417.450496 251.59045 
L 418.036939 251.417471 
L 419.14083 251.361608 
L 421.831566 251.506852 
L 424.694785 251.599617 
L 424.936262 251.599617 
L 425.074248 250.415389 
L 425.557201 250.264131 
L 426.868072 250.23009 
L 433.594912 250.320972 
L 435.526723 250.50209 
L 439.907793 250.59729 
L 441.839603 250.598408 
L 441.97759 249.994084 
L 443.219468 249.463934 
L 444.633829 249.196895 
L 447.083089 248.987612 
L 450.256777 248.924471 
L 450.291274 248.924471 
L 450.42926 249.211947 
L 453.154493 249.388899 
L 453.533956 249.400966 
L 453.671942 247.618819 
L 467.194615 247.836193 
L 467.539581 247.994307 
L 468.712466 248.047044 
L 475.025347 248.041074 
L 484.16695 248.021044 
L 484.304936 248.461255 
L 485.029365 248.939921 
L 485.960774 249.091912 
L 488.34104 249.19608 
L 492.618621 249.230424 
L 492.756607 250.780144 
L 493.34305 251.424251 
L 493.963989 251.61505 
L 495.309357 251.748676 
L 499.069488 251.837772 
L 501.346264 251.972051 
L 507.452165 252.038477 
L 510.039411 252.155605 
L 514.213502 252.21214 
L 517.973633 252.220208 
L 518.111619 252.807008 
L 526.425304 252.780457 
L 526.597787 254.361389 
L 526.839263 255.324295 
L 527.149733 255.605394 
L 527.736175 255.749944 
L 529.288523 255.829506 
L 534.876974 255.831592 
L 535.118451 255.596766 
L 535.463417 255.529024 
L 537.56771 255.573238 
L 543.915088 255.869765 
L 545.260456 255.991865 
L 550.469445 256.162784 
L 551.780316 256.162784 
L 551.918302 255.874402 
L 552.539241 255.71673 
L 554.195079 255.64337 
L 560.231987 255.613529 
L 560.369973 255.684228 
L 564.751043 256.159151 
L 568.683657 256.247014 
L 569.615066 256.170197 
L 573.306204 256.053072 
L 577.135328 256.022308 
L 577.273315 256.476616 
L 579.791567 256.38744 
L 585.586999 256.383924 
L 585.724985 254.967279 
L 586.207938 253.601275 
L 586.621897 253.185895 
L 587.242836 252.909747 
L 588.312231 252.714552 
L 590.485518 252.58643 
L 594.03867 252.554052 
L 594.176656 249.039425 
L 594.590615 248.441214 
L 595.073568 248.198756 
L 595.97048 248.047373 
L 598.10927 247.968049 
L 602.49034 247.959022 
L 602.628327 248.10971 
L 605.802015 247.811498 
L 610.562548 247.735228 
L 611.114494 247.626878 
L 613.356774 247.455585 
L 618.427777 247.389777 
L 619.393682 247.389777 
L 619.531668 247.57534 
L 622.636364 247.69547 
L 622.636364 247.69547 
" clip-path="url(#p706ae12fa6)" style="fill: none; stroke: #ff0000; stroke-width: 1.5; stroke-linecap: square"/>
   </g>
   <g id="line2d_34">
    <path d="M 115.363636 247.6221 
L 115.501623 248.360626 
L 116.088065 248.587839 
L 119.71021 249.743126 
L 121.090074 249.76251 
L 128.88631 249.918871 
L 128.920806 369.36 
L 128.989799 335.592204 
L 129.196779 251.767716 
L 129.403759 238.274737 
L 129.645235 234.851265 
L 129.852215 234.299896 
L 130.473154 233.801693 
L 130.81812 232.629331 
L 132.784427 224.751955 
L 133.508856 223.125365 
L 134.302278 221.875083 
L 135.164694 220.920532 
L 136.165095 220.144917 
L 137.372477 219.500575 
L 138.855831 218.968263 
L 140.822138 218.510522 
L 143.547371 218.120991 
L 145.134215 218.056257 
L 145.962134 218.056257 
L 146.100121 177.740758 
L 147.066026 177.273825 
L 149.342802 176.839071 
L 152.999444 176.292283 
L 154.413805 176.292283 
L 154.551791 175.837778 
L 154.896757 175.283302 
L 155.345213 175.06323 
L 156.311119 174.895127 
L 158.484405 174.777263 
L 162.968965 174.801307 
L 163.589904 175.056588 
L 165.004266 175.160836 
L 168.177954 175.177679 
L 179.768817 174.970939 
L 179.906803 175.135672 
L 182.770023 175.236726 
L 185.943711 175.335449 
L 188.220488 175.351212 
L 188.254984 185.848336 
L 188.289481 169.555646 
L 188.461964 117.702831 
L 188.668944 111.226188 
L 188.91042 109.586304 
L 189.22089 108.872398 
L 189.600352 108.531422 
L 190.186795 108.339925 
L 191.428673 108.243352 
L 192.153102 108.098352 
L 193.429477 107.856109 
L 195.84424 107.689307 
L 196.672159 107.689307 
L 196.706655 120.621354 
L 196.810145 119.476886 
L 197.017125 118.700088 
L 197.396587 118.362093 
L 198.362493 117.876668 
L 200.294303 117.153268 
L 204.29591 116.746951 
L 205.123829 116.746951 
L 205.261816 92.00411 
L 205.572285 89.094662 
L 205.882755 88.115994 
L 206.296714 87.564856 
L 206.84866 87.219642 
L 207.711075 86.966237 
L 208.573491 86.851352 
L 208.711477 89.095179 
L 209.40141 101.756441 
L 210.022349 108.742076 
L 210.677784 113.753966 
L 211.402213 117.680353 
L 211.850669 119.297958 
L 213.5755 119.297958 
L 213.713486 112.739983 
L 214.472412 111.520621 
L 215.024358 111.204106 
L 215.81778 111.020737 
L 217.094155 110.974871 
L 218.853482 111.141149 
L 221.199252 111.385095 
L 222.027171 111.385095 
L 222.130661 109.770776 
L 222.165157 109.781448 
L 222.303144 110.364587 
L 223.579518 117.696791 
L 224.47643 121.228489 
L 225.442336 124.150528 
L 226.511731 126.702839 
L 227.684616 128.946497 
L 228.719514 130.525232 
L 230.478841 130.525232 
L 230.616828 117.229394 
L 230.754814 117.425884 
L 231.479243 118.802397 
L 232.134679 119.508024 
L 232.928101 120.021499 
L 233.928503 120.388889 
L 235.239374 120.616 
L 236.998702 120.681699 
L 238.930512 120.679594 
L 239.068499 98.499087 
L 239.585948 91.558816 
L 239.999907 88.888149 
L 240.48286 87.169499 
L 241.000309 86.12587 
L 241.552255 85.48189 
L 242.207691 85.058989 
L 242.552657 85.018658 
L 243.967018 85.480565 
L 245.691849 85.815383 
L 247.382183 85.815383 
L 247.41668 206.20829 
L 247.520169 205.817165 
L 248.003122 202.723272 
L 248.348088 202.128879 
L 248.727551 201.896166 
L 249.245 201.857364 
L 249.969429 202.048971 
L 250.969831 202.55687 
L 252.315199 203.504661 
L 254.316003 204.948632 
L 255.833854 204.948632 
L 255.97184 186.118819 
L 257.213718 186.039215 
L 261.353312 184.527455 
L 262.836667 184.209492 
L 264.285524 184.209492 
L 264.320021 183.968817 
L 264.389014 184.004138 
L 264.73398 184.507025 
L 265.285926 185.085254 
L 265.975859 185.475379 
L 267.010757 185.782285 
L 268.770084 186.039676 
L 271.56431 186.22264 
L 272.840685 186.157602 
L 273.185651 185.371447 
L 273.772094 184.301155 
L 274.496523 183.458247 
L 275.393435 182.767884 
L 276.566319 182.154899 
L 278.153164 181.591507 
L 279.636518 181.275117 
L 281.188866 181.275117 
L 281.326852 175.723654 
L 281.809805 175.004339 
L 282.292758 174.722496 
L 283.120676 174.530915 
L 284.431548 174.420337 
L 284.466044 247.622097 
L 284.569534 247.619436 
L 296.22939 247.797357 
L 297.988718 247.797357 
L 298.023214 244.972524 
L 298.126704 245.424767 
L 298.333684 245.755494 
L 298.78214 245.879767 
L 301.196903 246.15488 
L 305.819449 246.502142 
L 310.028036 246.582284 
L 315.064542 246.544196 
L 315.133535 243.175404 
L 315.202529 243.181615 
L 316.375413 242.918632 
L 318.686687 242.980401 
L 323.516213 243.127516 
L 323.654199 243.488997 
L 325.344533 243.381695 
L 331.967884 243.274986 
L 332.036877 242.825057 
L 332.10587 242.83456 
L 335.072579 243.403436 
L 338.004791 243.615203 
L 340.419554 243.63791 
L 340.523044 243.519173 
L 340.557541 243.529722 
L 342.109888 243.99658 
L 344.041699 244.195997 
L 347.69834 244.325053 
L 357.322896 244.280864 
L 357.495379 242.354781 
L 357.702359 241.953502 
L 358.116318 241.84102 
L 359.806652 241.730135 
L 362.083429 241.775166 
L 365.774566 242.022217 
L 365.912553 243.279914 
L 366.292016 243.378578 
L 368.154833 243.487112 
L 369.776174 243.382644 
L 371.225032 243.066953 
L 373.053352 242.631177 
L 374.226237 242.631177 
L 374.364224 240.394246 
L 374.881673 240.574003 
L 375.571605 240.32618 
L 377.606906 239.288595 
L 381.22905 237.431396 
L 382.677908 237.431396 
L 382.815894 243.267251 
L 383.26435 245.310639 
L 383.609317 245.830617 
L 384.023276 246.053881 
L 384.575222 246.06818 
L 385.403141 245.834547 
L 389.611728 244.345009 
L 391.129579 244.345009 
L 391.267565 248.440018 
L 391.750518 248.809927 
L 392.44045 249.045628 
L 393.371859 249.112073 
L 394.78622 248.967785 
L 397.304473 248.451911 
L 398.270378 248.33958 
L 399.581249 248.33958 
L 399.615746 248.211512 
L 399.684739 248.249535 
L 400.064202 248.721979 
L 400.685141 249.29387 
L 401.478563 249.711784 
L 402.582455 250.032049 
L 404.203796 250.252868 
L 406.515069 250.326301 
L 408.03292 250.326301 
L 408.170907 250.079575 
L 408.860839 249.564807 
L 409.723254 249.234948 
L 411.068622 248.978902 
L 413.241909 248.81236 
L 416.484591 248.784297 
L 416.519088 251.049638 
L 416.622577 250.800259 
L 417.071033 249.465204 
L 417.484993 249.026392 
L 418.105932 248.737705 
L 419.175327 248.52504 
L 421.38311 248.355404 
L 424.936262 248.285841 
L 425.074248 245.789734 
L 425.660691 245.243738 
L 426.454113 244.870597 
L 427.695991 244.555653 
L 429.593305 244.322836 
L 432.215047 244.232813 
L 433.387932 244.232813 
L 433.525919 244.789088 
L 435.04377 244.857173 
L 441.046181 245.103706 
L 441.839603 245.103706 
L 441.97759 245.942232 
L 443.046985 246.178694 
L 445.116782 246.379667 
L 449.049396 246.516043 
L 450.291274 246.516043 
L 450.42926 246.645286 
L 453.533956 246.895329 
L 453.671942 247.618186 
L 467.091125 247.630755 
L 467.298105 247.676301 
L 468.539983 247.681425 
L 474.542394 247.727405 
L 484.16695 247.783133 
L 484.304936 248.208669 
L 485.029365 248.672457 
L 485.960774 248.818725 
L 488.44453 248.922376 
L 492.618621 248.961314 
L 492.756607 250.469267 
L 493.34305 251.094 
L 493.998485 251.284487 
L 495.412847 251.411432 
L 499.448951 251.489013 
L 501.070291 251.489013 
L 501.208278 251.611943 
L 509.521962 251.686018 
L 509.659949 251.818977 
L 517.973633 251.894686 
L 518.111619 252.481701 
L 526.425304 252.452535 
L 526.597787 254.505732 
L 526.839263 255.778931 
L 527.115236 256.130382 
L 527.598189 256.32302 
L 528.667584 256.445015 
L 532.634694 256.565411 
L 534.876974 256.578199 
L 535.049458 256.117853 
L 535.32543 255.869745 
L 536.015363 255.735002 
L 539.568514 255.403837 
L 542.776699 255.254976 
L 543.501128 255.338264 
L 544.053074 255.662196 
L 544.812 255.755726 
L 546.64032 255.703906 
L 551.780316 255.475912 
L 551.849309 255.860808 
L 551.918302 255.824261 
L 552.366758 255.624937 
L 553.298167 255.601174 
L 560.231987 255.706302 
L 560.30098 256.318769 
L 560.369973 256.304594 
L 562.819233 255.430344 
L 565.061513 255.081547 
L 567.510772 254.902546 
L 568.925134 255.004888 
L 570.132515 255.347274 
L 572.098822 255.61744 
L 575.58298 255.85662 
L 577.135328 255.85662 
L 577.273315 256.422023 
L 579.377608 256.874469 
L 581.826868 257.01385 
L 585.586999 257.055921 
L 585.724985 254.824553 
L 586.173441 253.390137 
L 586.552904 252.936358 
L 587.10485 252.636228 
L 588.001762 252.428836 
L 589.726593 252.294669 
L 593.83169 252.249192 
L 594.03867 252.249192 
L 594.176656 248.338766 
L 594.625112 247.703724 
L 595.177058 247.393475 
L 596.142963 247.142073 
L 598.074774 246.903349 
L 601.282959 246.736616 
L 602.49034 246.736616 
L 602.628327 247.057498 
L 610.114092 247.43077 
L 610.942011 247.43077 
L 611.079998 247.62583 
L 613.977713 247.702667 
L 619.669655 247.887872 
L 622.636364 247.932257 
L 622.636364 247.932257 
" clip-path="url(#p706ae12fa6)" style="fill: none; stroke-dasharray: 5.55,2.4; stroke-dashoffset: 0; stroke: #0000ff; stroke-width: 1.5"/>
   </g>
   <g id="patch_3">
    <path d="M 90 384.48 
L 90 51.84 
" style="fill: none; stroke: #000000; stroke-width: 0.8; stroke-linejoin: miter; stroke-linecap: square"/>
   </g>
   <g id="patch_4">
    <path d="M 648 384.48 
L 648 51.84 
" style="fill: none; stroke: #000000; stroke-width: 0.8; stroke-linejoin: miter; stroke-linecap: square"/>
   </g>
   <g id="patch_5">
    <path d="M 90 384.48 
L 648 384.48 
" style="fill: none; stroke: #000000; stroke-width: 0.8; stroke-linejoin: miter; stroke-linecap: square"/>
   </g>
   <g id="patch_6">
    <path d="M 90 51.84 
L 648 51.84 
" style="fill: none; stroke: #000000; stroke-width: 0.8; stroke-linejoin: miter; stroke-linecap: square"/>
   </g>
   <g id="text_19">
    <!-- State Value Convergence for dKa_yx (Index 22) -->
    <g transform="translate(227.131875 45.84) scale(0.12 -0.12)">
     <defs>
      <path id="DejaVuSans-53" d="M 3425 4513 
L 3425 3897 
Q 3066 4069 2747 4153 
Q 2428 4238 2131 4238 
Q 1616 4238 1336 4038 
Q 1056 3838 1056 3469 
Q 1056 3159 1242 3001 
Q 1428 2844 1947 2747 
L 2328 2669 
Q 3034 2534 3370 2195 
Q 3706 1856 3706 1288 
Q 3706 609 3251 259 
Q 2797 -91 1919 -91 
Q 1588 -91 1214 -16 
Q 841 59 441 206 
L 441 856 
Q 825 641 1194 531 
Q 1563 422 1919 422 
Q 2459 422 2753 634 
Q 3047 847 3047 1241 
Q 3047 1584 2836 1778 
Q 2625 1972 2144 2069 
L 1759 2144 
Q 1053 2284 737 2584 
Q 422 2884 422 3419 
Q 422 4038 858 4394 
Q 1294 4750 2059 4750 
Q 2388 4750 2728 4690 
Q 3069 4631 3425 4513 
z
" transform="scale(0.015625)"/>
      <path id="DejaVuSans-43" d="M 4122 4306 
L 4122 3641 
Q 3803 3938 3442 4084 
Q 3081 4231 2675 4231 
Q 1875 4231 1450 3742 
Q 1025 3253 1025 2328 
Q 1025 1406 1450 917 
Q 1875 428 2675 428 
Q 3081 428 3442 575 
Q 3803 722 4122 1019 
L 4122 359 
Q 3791 134 3420 21 
Q 3050 -91 2638 -91 
Q 1578 -91 968 557 
Q 359 1206 359 2328 
Q 359 3453 968 4101 
Q 1578 4750 2638 4750 
Q 3056 4750 3426 4639 
Q 3797 4528 4122 4306 
z
" transform="scale(0.015625)"/>
      <path id="DejaVuSans-6f" d="M 1959 3097 
Q 1497 3097 1228 2736 
Q 959 2375 959 1747 
Q 959 1119 1226 758 
Q 1494 397 1959 397 
Q 2419 397 2687 759 
Q 2956 1122 2956 1747 
Q 2956 2369 2687 2733 
Q 2419 3097 1959 3097 
z
M 1959 3584 
Q 2709 3584 3137 3096 
Q 3566 2609 3566 1747 
Q 3566 888 3137 398 
Q 2709 -91 1959 -91 
Q 1206 -91 779 398 
Q 353 888 353 1747 
Q 353 2609 779 3096 
Q 1206 3584 1959 3584 
z
" transform="scale(0.015625)"/>
      <path id="DejaVuSans-67" d="M 2906 1791 
Q 2906 2416 2648 2759 
Q 2391 3103 1925 3103 
Q 1463 3103 1205 2759 
Q 947 2416 947 1791 
Q 947 1169 1205 825 
Q 1463 481 1925 481 
Q 2391 481 2648 825 
Q 2906 1169 2906 1791 
z
M 3481 434 
Q 3481 -459 3084 -895 
Q 2688 -1331 1869 -1331 
Q 1566 -1331 1297 -1286 
Q 1028 -1241 775 -1147 
L 775 -588 
Q 1028 -725 1275 -790 
Q 1522 -856 1778 -856 
Q 2344 -856 2625 -561 
Q 2906 -266 2906 331 
L 2906 616 
Q 2728 306 2450 153 
Q 2172 0 1784 0 
Q 1141 0 747 490 
Q 353 981 353 1791 
Q 353 2603 747 3093 
Q 1141 3584 1784 3584 
Q 2172 3584 2450 3431 
Q 2728 3278 2906 2969 
L 2906 3500 
L 3481 3500 
L 3481 434 
z
" transform="scale(0.015625)"/>
      <path id="DejaVuSans-63" d="M 3122 3366 
L 3122 2828 
Q 2878 2963 2633 3030 
Q 2388 3097 2138 3097 
Q 1578 3097 1268 2742 
Q 959 2388 959 1747 
Q 959 1106 1268 751 
Q 1578 397 2138 397 
Q 2388 397 2633 464 
Q 2878 531 3122 666 
L 3122 134 
Q 2881 22 2623 -34 
Q 2366 -91 2075 -91 
Q 1284 -91 818 406 
Q 353 903 353 1747 
Q 353 2603 823 3093 
Q 1294 3584 2113 3584 
Q 2378 3584 2631 3529 
Q 2884 3475 3122 3366 
z
" transform="scale(0.015625)"/>
      <path id="DejaVuSans-66" d="M 2375 4863 
L 2375 4384 
L 1825 4384 
Q 1516 4384 1395 4259 
Q 1275 4134 1275 3809 
L 1275 3500 
L 2222 3500 
L 2222 3053 
L 1275 3053 
L 1275 0 
L 697 0 
L 697 3053 
L 147 3053 
L 147 3500 
L 697 3500 
L 697 3744 
Q 697 4328 969 4595 
Q 1241 4863 1831 4863 
L 2375 4863 
z
" transform="scale(0.015625)"/>
      <path id="DejaVuSans-4b" d="M 628 4666 
L 1259 4666 
L 1259 2694 
L 3353 4666 
L 4166 4666 
L 1850 2491 
L 4331 0 
L 3500 0 
L 1259 2247 
L 1259 0 
L 628 0 
L 628 4666 
z
" transform="scale(0.015625)"/>
      <path id="DejaVuSans-5f" d="M 3263 -1063 
L 3263 -1509 
L -63 -1509 
L -63 -1063 
L 3263 -1063 
z
" transform="scale(0.015625)"/>
      <path id="DejaVuSans-79" d="M 2059 -325 
Q 1816 -950 1584 -1140 
Q 1353 -1331 966 -1331 
L 506 -1331 
L 506 -850 
L 844 -850 
Q 1081 -850 1212 -737 
Q 1344 -625 1503 -206 
L 1606 56 
L 191 3500 
L 800 3500 
L 1894 763 
L 2988 3500 
L 3597 3500 
L 2059 -325 
z
" transform="scale(0.015625)"/>
      <path id="DejaVuSans-78" d="M 3513 3500 
L 2247 1797 
L 3578 0 
L 2900 0 
L 1881 1375 
L 863 0 
L 184 0 
L 1544 1831 
L 300 3500 
L 978 3500 
L 1906 2253 
L 2834 3500 
L 3513 3500 
z
" transform="scale(0.015625)"/>
      <path id="DejaVuSans-49" d="M 628 4666 
L 1259 4666 
L 1259 0 
L 628 0 
L 628 4666 
z
" transform="scale(0.015625)"/>
     </defs>
     <use xlink:href="#DejaVuSans-53"/>
     <use xlink:href="#DejaVuSans-74" transform="translate(63.476562 0)"/>
     <use xlink:href="#DejaVuSans-61" transform="translate(102.685547 0)"/>
     <use xlink:href="#DejaVuSans-74" transform="translate(163.964844 0)"/>
     <use xlink:href="#DejaVuSans-65" transform="translate(203.173828 0)"/>
     <use xlink:href="#DejaVuSans-20" transform="translate(264.697266 0)"/>
     <use xlink:href="#DejaVuSans-56" transform="translate(296.484375 0)"/>
     <use xlink:href="#DejaVuSans-61" transform="translate(357.142578 0)"/>
     <use xlink:href="#DejaVuSans-6c" transform="translate(418.421875 0)"/>
     <use xlink:href="#DejaVuSans-75" transform="translate(446.205078 0)"/>
     <use xlink:href="#DejaVuSans-65" transform="translate(509.583984 0)"/>
     <use xlink:href="#DejaVuSans-20" transform="translate(571.107422 0)"/>
     <use xlink:href="#DejaVuSans-43" transform="translate(602.894531 0)"/>
     <use xlink:href="#DejaVuSans-6f" transform="translate(672.71875 0)"/>
     <use xlink:href="#DejaVuSans-6e" transform="translate(733.900391 0)"/>
     <use xlink:href="#DejaVuSans-76" transform="translate(797.279297 0)"/>
     <use xlink:href="#DejaVuSans-65" transform="translate(856.458984 0)"/>
     <use xlink:href="#DejaVuSans-72" transform="translate(917.982422 0)"/>
     <use xlink:href="#DejaVuSans-67" transform="translate(957.345703 0)"/>
     <use xlink:href="#DejaVuSans-65" transform="translate(1020.822266 0)"/>
     <use xlink:href="#DejaVuSans-6e" transform="translate(1082.345703 0)"/>
     <use xlink:href="#DejaVuSans-63" transform="translate(1145.724609 0)"/>
     <use xlink:href="#DejaVuSans-65" transform="translate(1200.705078 0)"/>
     <use xlink:href="#DejaVuSans-20" transform="translate(1262.228516 0)"/>
     <use xlink:href="#DejaVuSans-66" transform="translate(1294.015625 0)"/>
     <use xlink:href="#DejaVuSans-6f" transform="translate(1329.220703 0)"/>
     <use xlink:href="#DejaVuSans-72" transform="translate(1390.402344 0)"/>
     <use xlink:href="#DejaVuSans-20" transform="translate(1431.515625 0)"/>
     <use xlink:href="#DejaVuSans-64" transform="translate(1463.302734 0)"/>
     <use xlink:href="#DejaVuSans-4b" transform="translate(1526.779297 0)"/>
     <use xlink:href="#DejaVuSans-61" transform="translate(1590.605469 0)"/>
     <use xlink:href="#DejaVuSans-5f" transform="translate(1651.884766 0)"/>
     <use xlink:href="#DejaVuSans-79" transform="translate(1701.884766 0)"/>
     <use xlink:href="#DejaVuSans-78" transform="translate(1761.064453 0)"/>
     <use xlink:href="#DejaVuSans-20" transform="translate(1820.244141 0)"/>
     <use xlink:href="#DejaVuSans-28" transform="translate(1852.03125 0)"/>
     <use xlink:href="#DejaVuSans-49" transform="translate(1891.044922 0)"/>
     <use xlink:href="#DejaVuSans-6e" transform="translate(1920.537109 0)"/>
     <use xlink:href="#DejaVuSans-64" transform="translate(1983.916016 0)"/>
     <use xlink:href="#DejaVuSans-65" transform="translate(2047.392578 0)"/>
     <use xlink:href="#DejaVuSans-78" transform="translate(2107.166016 0)"/>
     <use xlink:href="#DejaVuSans-20" transform="translate(2166.345703 0)"/>
     <use xlink:href="#DejaVuSans-32" transform="translate(2198.132812 0)"/>
     <use xlink:href="#DejaVuSans-32" transform="translate(2261.755859 0)"/>
     <use xlink:href="#DejaVuSans-29" transform="translate(2325.378906 0)"/>
    </g>
   </g>
   <g id="legend_1">
    <g id="patch_7">
     <path d="M 521.465625 89.19625 
L 641 89.19625 
Q 643 89.19625 643 87.19625 
L 643 58.84 
Q 643 56.84 641 56.84 
L 521.465625 56.84 
Q 519.465625 56.84 519.465625 58.84 
L 519.465625 87.19625 
Q 519.465625 89.19625 521.465625 89.19625 
z
" style="fill: #ffffff; opacity: 0.8; stroke: #cccccc; stroke-linejoin: miter"/>
    </g>
    <g id="line2d_35">
     <path d="M 523.465625 64.938437 
L 533.465625 64.938437 
L 543.465625 64.938437 
" style="fill: none; stroke: #ff0000; stroke-width: 1.5; stroke-linecap: square"/>
    </g>
    <g id="text_20">
     <!-- Baseline KF State -->
     <g transform="translate(551.465625 68.438437) scale(0.1 -0.1)">
      <defs>
       <path id="DejaVuSans-42" d="M 1259 2228 
L 1259 519 
L 2272 519 
Q 2781 519 3026 730 
Q 3272 941 3272 1375 
Q 3272 1813 3026 2020 
Q 2781 2228 2272 2228 
L 1259 2228 
z
M 1259 4147 
L 1259 2741 
L 2194 2741 
Q 2656 2741 2882 2914 
Q 3109 3088 3109 3444 
Q 3109 3797 2882 3972 
Q 2656 4147 2194 4147 
L 1259 4147 
z
M 628 4666 
L 2241 4666 
Q 2963 4666 3353 4366 
Q 3744 4066 3744 3513 
Q 3744 3084 3544 2831 
Q 3344 2578 2956 2516 
Q 3422 2416 3680 2098 
Q 3938 1781 3938 1306 
Q 3938 681 3513 340 
Q 3088 0 2303 0 
L 628 0 
L 628 4666 
z
" transform="scale(0.015625)"/>
       <path id="DejaVuSans-46" d="M 628 4666 
L 3309 4666 
L 3309 4134 
L 1259 4134 
L 1259 2759 
L 3109 2759 
L 3109 2228 
L 1259 2228 
L 1259 0 
L 628 0 
L 628 4666 
z
" transform="scale(0.015625)"/>
      </defs>
      <use xlink:href="#DejaVuSans-42"/>
      <use xlink:href="#DejaVuSans-61" transform="translate(68.603516 0)"/>
      <use xlink:href="#DejaVuSans-73" transform="translate(129.882812 0)"/>
      <use xlink:href="#DejaVuSans-65" transform="translate(181.982422 0)"/>
      <use xlink:href="#DejaVuSans-6c" transform="translate(243.505859 0)"/>
      <use xlink:href="#DejaVuSans-69" transform="translate(271.289062 0)"/>
      <use xlink:href="#DejaVuSans-6e" transform="translate(299.072266 0)"/>
      <use xlink:href="#DejaVuSans-65" transform="translate(362.451172 0)"/>
      <use xlink:href="#DejaVuSans-20" transform="translate(423.974609 0)"/>
      <use xlink:href="#DejaVuSans-4b" transform="translate(455.761719 0)"/>
      <use xlink:href="#DejaVuSans-46" transform="translate(521.337891 0)"/>
      <use xlink:href="#DejaVuSans-20" transform="translate(578.857422 0)"/>
      <use xlink:href="#DejaVuSans-53" transform="translate(610.644531 0)"/>
      <use xlink:href="#DejaVuSans-74" transform="translate(674.121094 0)"/>
      <use xlink:href="#DejaVuSans-61" transform="translate(713.330078 0)"/>
      <use xlink:href="#DejaVuSans-74" transform="translate(774.609375 0)"/>
      <use xlink:href="#DejaVuSans-65" transform="translate(813.818359 0)"/>
     </g>
    </g>
    <g id="line2d_36">
     <path d="M 523.465625 79.616562 
L 533.465625 79.616562 
L 543.465625 79.616562 
" style="fill: none; stroke-dasharray: 5.55,2.4; stroke-dashoffset: 0; stroke: #0000ff; stroke-width: 1.5"/>
    </g>
    <g id="text_21">
     <!-- Shadow KF State -->
     <g transform="translate(551.465625 83.116562) scale(0.1 -0.1)">
      <defs>
       <path id="DejaVuSans-68" d="M 3513 2113 
L 3513 0 
L 2938 0 
L 2938 2094 
Q 2938 2591 2744 2837 
Q 2550 3084 2163 3084 
Q 1697 3084 1428 2787 
Q 1159 2491 1159 1978 
L 1159 0 
L 581 0 
L 581 4863 
L 1159 4863 
L 1159 2956 
Q 1366 3272 1645 3428 
Q 1925 3584 2291 3584 
Q 2894 3584 3203 3211 
Q 3513 2838 3513 2113 
z
" transform="scale(0.015625)"/>
       <path id="DejaVuSans-77" d="M 269 3500 
L 844 3500 
L 1563 769 
L 2278 3500 
L 2956 3500 
L 3675 769 
L 4391 3500 
L 4966 3500 
L 4050 0 
L 3372 0 
L 2619 2869 
L 1863 0 
L 1184 0 
L 269 3500 
z
" transform="scale(0.015625)"/>
      </defs>
      <use xlink:href="#DejaVuSans-53"/>
      <use xlink:href="#DejaVuSans-68" transform="translate(63.476562 0)"/>
      <use xlink:href="#DejaVuSans-61" transform="translate(126.855469 0)"/>
      <use xlink:href="#DejaVuSans-64" transform="translate(188.134766 0)"/>
      <use xlink:href="#DejaVuSans-6f" transform="translate(251.611328 0)"/>
      <use xlink:href="#DejaVuSans-77" transform="translate(312.792969 0)"/>
      <use xlink:href="#DejaVuSans-20" transform="translate(394.580078 0)"/>
      <use xlink:href="#DejaVuSans-4b" transform="translate(426.367188 0)"/>
      <use xlink:href="#DejaVuSans-46" transform="translate(491.943359 0)"/>
      <use xlink:href="#DejaVuSans-20" transform="translate(549.462891 0)"/>
      <use xlink:href="#DejaVuSans-53" transform="translate(581.25 0)"/>
      <use xlink:href="#DejaVuSans-74" transform="translate(644.726562 0)"/>
      <use xlink:href="#DejaVuSans-61" transform="translate(683.935547 0)"/>
      <use xlink:href="#DejaVuSans-74" transform="translate(745.214844 0)"/>
      <use xlink:href="#DejaVuSans-65" transform="translate(784.423828 0)"/>
     </g>
    </g>
   </g>
  </g>
 </g>
 <defs>
  <clipPath id="p706ae12fa6">
   <rect x="90" y="51.84" width="558" height="332.64"/>
  </clipPath>
 </defs>
</svg>
