<?xml version="1.0" encoding="utf-8" standalone="no"?>
<!DOCTYPE svg PUBLIC "-//W3C//DTD SVG 1.1//EN"
  "http://www.w3.org/Graphics/SVG/1.1/DTD/svg11.dtd">
<svg xmlns:xlink="http://www.w3.org/1999/xlink" width="1440pt" height="576pt" viewBox="0 0 1440 576" xmlns="http://www.w3.org/2000/svg" version="1.1">
 <metadata>
  <rdf:RDF xmlns:dc="http://purl.org/dc/elements/1.1/" xmlns:cc="http://creativecommons.org/ns#" xmlns:rdf="http://www.w3.org/1999/02/22-rdf-syntax-ns#">
   <cc:Work>
    <dc:type rdf:resource="http://purl.org/dc/dcmitype/StillImage"/>
    <dc:date>2026-03-04T16:52:27.081815</dc:date>
    <dc:format>image/svg+xml</dc:format>
    <dc:creator>
     <cc:Agent>
      <dc:title>Matplotlib v3.10.8, https://matplotlib.org/</dc:title>
     </cc:Agent>
    </dc:creator>
   </cc:Work>
  </rdf:RDF>
 </metadata>
 <defs>
  <style type="text/css">*{stroke-linejoin: round; stroke-linecap: butt}</style>
 </defs>
 <g id="figure_1">
  <g id="patch_1">
   <path d="M 0 576 
L 1440 576 
L 1440 0 
L 0 0 
z
" style="fill: #ffffff"/>
  </g>
  <g id="axes_1">
   <g id="patch_2">
    <path d="M 55.772054 532.09185 
L 1429.2 532.09185 
L 1429.2 26.88 
L 55.772054 26.88 
z
" style="fill: #ffffff"/>
   </g>
   <g id="patch_3">
    <path d="M 118.200597 109261.452203 
L 126.069741 109261.452203 
L 126.069741 121.732007 
L 118.200597 121.732007 
z
" clip-path="url(#p8b4459553f)" style="fill: #4682b4; opacity: 0.85"/>
   </g>
   <g id="patch_4">
    <path d="M 160.169365 109261.452203 
L 168.038509 109261.452203 
L 168.038509 169.007998 
L 160.169365 169.007998 
z
" clip-path="url(#p8b4459553f)" style="fill: #4682b4; opacity: 0.85"/>
   </g>
   <g id="patch_5">
    <path d="M 202.138134 109261.452203 
L 210.007278 109261.452203 
L 210.007278 146.387216 
L 202.138134 146.387216 
z
" clip-path="url(#p8b4459553f)" style="fill: #4682b4; opacity: 0.85"/>
   </g>
   <g id="patch_6">
    <path d="M 244.106902 109261.452203 
L 251.976046 109261.452203 
L 251.976046 196.285411 
L 244.106902 196.285411 
z
" clip-path="url(#p8b4459553f)" style="fill: #4682b4; opacity: 0.85"/>
   </g>
   <g id="patch_7">
    <path d="M 286.075671 109261.452203 
L 293.944815 109261.452203 
L 293.944815 220.870646 
L 286.075671 220.870646 
z
" clip-path="url(#p8b4459553f)" style="fill: #4682b4; opacity: 0.85"/>
   </g>
   <g id="patch_8">
    <path d="M 328.044439 109261.452203 
L 335.913583 109261.452203 
L 335.913583 262.649023 
L 328.044439 262.649023 
z
" clip-path="url(#p8b4459553f)" style="fill: #4682b4; opacity: 0.85"/>
   </g>
   <g id="patch_9">
    <path d="M 370.013207 109261.452203 
L 377.882351 109261.452203 
L 377.882351 98.274297 
L 370.013207 98.274297 
z
" clip-path="url(#p8b4459553f)" style="fill: #4682b4; opacity: 0.85"/>
   </g>
   <g id="patch_10">
    <path d="M 411.981976 109261.452203 
L 419.85112 109261.452203 
L 419.85112 173.78285 
L 411.981976 173.78285 
z
" clip-path="url(#p8b4459553f)" style="fill: #4682b4; opacity: 0.85"/>
   </g>
   <g id="patch_11">
    <path d="M 453.950744 109261.452203 
L 461.819888 109261.452203 
L 461.819888 250.023551 
L 453.950744 250.023551 
z
" clip-path="url(#p8b4459553f)" style="fill: #4682b4; opacity: 0.85"/>
   </g>
   <g id="patch_12">
    <path d="M 495.919513 109261.452203 
L 503.788657 109261.452203 
L 503.788657 156.124296 
L 495.919513 156.124296 
z
" clip-path="url(#p8b4459553f)" style="fill: #4682b4; opacity: 0.85"/>
   </g>
   <g id="patch_13">
    <path d="M 537.888281 109261.452203 
L 545.757425 109261.452203 
L 545.757425 172.936556 
L 537.888281 172.936556 
z
" clip-path="url(#p8b4459553f)" style="fill: #4682b4; opacity: 0.85"/>
   </g>
   <g id="patch_14">
    <path d="M 579.857049 109261.452203 
L 587.726193 109261.452203 
L 587.726193 245.792789 
L 579.857049 245.792789 
z
" clip-path="url(#p8b4459553f)" style="fill: #4682b4; opacity: 0.85"/>
   </g>
   <g id="patch_15">
    <path d="M 621.825818 109261.452203 
L 629.694962 109261.452203 
L 629.694962 128.339226 
L 621.825818 128.339226 
z
" clip-path="url(#p8b4459553f)" style="fill: #4682b4; opacity: 0.85"/>
   </g>
   <g id="patch_16">
    <path d="M 663.794586 109261.452203 
L 671.66373 109261.452203 
L 671.66373 303.841933 
L 663.794586 303.841933 
z
" clip-path="url(#p8b4459553f)" style="fill: #4682b4; opacity: 0.85"/>
   </g>
   <g id="patch_17">
    <path d="M 705.763355 109261.452203 
L 713.632499 109261.452203 
L 713.632499 177.33331 
L 705.763355 177.33331 
z
" clip-path="url(#p8b4459553f)" style="fill: #4682b4; opacity: 0.85"/>
   </g>
   <g id="patch_18">
    <path d="M 747.732123 109261.452203 
L 755.601267 109261.452203 
L 755.601267 202.263829 
L 747.732123 202.263829 
z
" clip-path="url(#p8b4459553f)" style="fill: #4682b4; opacity: 0.85"/>
   </g>
   <g id="patch_19">
    <path d="M 789.700891 109261.452203 
L 797.570035 109261.452203 
L 797.570035 204.632744 
L 789.700891 204.632744 
z
" clip-path="url(#p8b4459553f)" style="fill: #4682b4; opacity: 0.85"/>
   </g>
   <g id="patch_20">
    <path d="M 831.66966 109261.452203 
L 839.538804 109261.452203 
L 839.538804 273.886755 
L 831.66966 273.886755 
z
" clip-path="url(#p8b4459553f)" style="fill: #4682b4; opacity: 0.85"/>
   </g>
   <g id="patch_21">
    <path d="M 873.638428 109261.452203 
L 881.507572 109261.452203 
L 881.507572 164.642145 
L 873.638428 164.642145 
z
" clip-path="url(#p8b4459553f)" style="fill: #4682b4; opacity: 0.85"/>
   </g>
   <g id="patch_22">
    <path d="M 915.607197 109261.452203 
L 923.476341 109261.452203 
L 923.476341 233.452066 
L 915.607197 233.452066 
z
" clip-path="url(#p8b4459553f)" style="fill: #4682b4; opacity: 0.85"/>
   </g>
   <g id="patch_23">
    <path d="M 957.575965 109261.452203 
L 965.445109 109261.452203 
L 965.445109 240.570197 
L 957.575965 240.570197 
z
" clip-path="url(#p8b4459553f)" style="fill: #4682b4; opacity: 0.85"/>
   </g>
   <g id="patch_24">
    <path d="M 999.544733 109261.452203 
L 1007.413878 109261.452203 
L 1007.413878 89.919291 
L 999.544733 89.919291 
z
" clip-path="url(#p8b4459553f)" style="fill: #4682b4; opacity: 0.85"/>
   </g>
   <g id="patch_25">
    <path d="M 1041.513502 109261.452203 
L 1049.382646 109261.452203 
L 1049.382646 112.3389 
L 1041.513502 112.3389 
z
" clip-path="url(#p8b4459553f)" style="fill: #4682b4; opacity: 0.85"/>
   </g>
   <g id="patch_26">
    <path d="M 1083.48227 109261.452203 
L 1091.351414 109261.452203 
L 1091.351414 155.806362 
L 1083.48227 155.806362 
z
" clip-path="url(#p8b4459553f)" style="fill: #4682b4; opacity: 0.85"/>
   </g>
   <g id="patch_27">
    <path d="M 1125.451039 109261.452203 
L 1133.320183 109261.452203 
L 1133.320183 129.956206 
L 1125.451039 129.956206 
z
" clip-path="url(#p8b4459553f)" style="fill: #4682b4; opacity: 0.85"/>
   </g>
   <g id="patch_28">
    <path d="M 1167.419807 109261.452203 
L 1175.288951 109261.452203 
L 1175.288951 155.347024 
L 1167.419807 155.347024 
z
" clip-path="url(#p8b4459553f)" style="fill: #4682b4; opacity: 0.85"/>
   </g>
   <g id="patch_29">
    <path d="M 1209.388575 109261.452203 
L 1217.25772 109261.452203 
L 1217.25772 309.238615 
L 1209.388575 309.238615 
z
" clip-path="url(#p8b4459553f)" style="fill: #4682b4; opacity: 0.85"/>
   </g>
   <g id="patch_30">
    <path d="M 1251.357344 109261.452203 
L 1259.226488 109261.452203 
L 1259.226488 276.724897 
L 1251.357344 276.724897 
z
" clip-path="url(#p8b4459553f)" style="fill: #4682b4; opacity: 0.85"/>
   </g>
   <g id="patch_31">
    <path d="M 1293.326112 109261.452203 
L 1301.195256 109261.452203 
L 1301.195256 308.229749 
L 1293.326112 308.229749 
z
" clip-path="url(#p8b4459553f)" style="fill: #4682b4; opacity: 0.85"/>
   </g>
   <g id="patch_32">
    <path d="M 1335.294881 109261.452203 
L 1343.164025 109261.452203 
L 1343.164025 303.570315 
L 1335.294881 303.570315 
z
" clip-path="url(#p8b4459553f)" style="fill: #4682b4; opacity: 0.85"/>
   </g>
   <g id="patch_33">
    <path d="M 126.069741 109261.452203 
L 133.938885 109261.452203 
L 133.938885 185.623941 
L 126.069741 185.623941 
z
" clip-path="url(#p8b4459553f)" style="fill: #ff6347; opacity: 0.85"/>
   </g>
   <g id="patch_34">
    <path d="M 168.038509 109261.452203 
L 175.907653 109261.452203 
L 175.907653 145.538358 
L 168.038509 145.538358 
z
" clip-path="url(#p8b4459553f)" style="fill: #ff6347; opacity: 0.85"/>
   </g>
   <g id="patch_35">
    <path d="M 210.007278 109261.452203 
L 217.876422 109261.452203 
L 217.876422 123.724209 
L 210.007278 123.724209 
z
" clip-path="url(#p8b4459553f)" style="fill: #ff6347; opacity: 0.85"/>
   </g>
   <g id="patch_36">
    <path d="M 251.976046 109261.452203 
L 259.84519 109261.452203 
L 259.84519 199.803109 
L 251.976046 199.803109 
z
" clip-path="url(#p8b4459553f)" style="fill: #ff6347; opacity: 0.85"/>
   </g>
   <g id="patch_37">
    <path d="M 293.944815 109261.452203 
L 301.813959 109261.452203 
L 301.813959 163.958824 
L 293.944815 163.958824 
z
" clip-path="url(#p8b4459553f)" style="fill: #ff6347; opacity: 0.85"/>
   </g>
   <g id="patch_38">
    <path d="M 335.913583 109261.452203 
L 343.782727 109261.452203 
L 343.782727 156.942291 
L 335.913583 156.942291 
z
" clip-path="url(#p8b4459553f)" style="fill: #ff6347; opacity: 0.85"/>
   </g>
   <g id="patch_39">
    <path d="M 377.882351 109261.452203 
L 385.751496 109261.452203 
L 385.751496 82.943512 
L 377.882351 82.943512 
z
" clip-path="url(#p8b4459553f)" style="fill: #ff6347; opacity: 0.85"/>
   </g>
   <g id="patch_40">
    <path d="M 419.85112 109261.452203 
L 427.720264 109261.452203 
L 427.720264 140.873234 
L 419.85112 140.873234 
z
" clip-path="url(#p8b4459553f)" style="fill: #ff6347; opacity: 0.85"/>
   </g>
   <g id="patch_41">
    <path d="M 461.819888 109261.452203 
L 469.689032 109261.452203 
L 469.689032 212.906489 
L 461.819888 212.906489 
z
" clip-path="url(#p8b4459553f)" style="fill: #ff6347; opacity: 0.85"/>
   </g>
   <g id="patch_42">
    <path d="M 503.788657 109261.452203 
L 511.657801 109261.452203 
L 511.657801 127.228296 
L 503.788657 127.228296 
z
" clip-path="url(#p8b4459553f)" style="fill: #ff6347; opacity: 0.85"/>
   </g>
   <g id="patch_43">
    <path d="M 545.757425 109261.452203 
L 553.626569 109261.452203 
L 553.626569 104.434545 
L 545.757425 104.434545 
z
" clip-path="url(#p8b4459553f)" style="fill: #ff6347; opacity: 0.85"/>
   </g>
   <g id="patch_44">
    <path d="M 587.726193 109261.452203 
L 595.595338 109261.452203 
L 595.595338 509.127675 
L 587.726193 509.127675 
z
" clip-path="url(#p8b4459553f)" style="fill: #ff6347; opacity: 0.85"/>
   </g>
   <g id="patch_45">
    <path d="M 629.694962 109261.452203 
L 637.564106 109261.452203 
L 637.564106 124.501994 
L 629.694962 124.501994 
z
" clip-path="url(#p8b4459553f)" style="fill: #ff6347; opacity: 0.85"/>
   </g>
   <g id="patch_46">
    <path d="M 671.66373 109261.452203 
L 679.532874 109261.452203 
L 679.532874 252.825442 
L 671.66373 252.825442 
z
" clip-path="url(#p8b4459553f)" style="fill: #ff6347; opacity: 0.85"/>
   </g>
   <g id="patch_47">
    <path d="M 713.632499 109261.452203 
L 721.501643 109261.452203 
L 721.501643 103.651493 
L 713.632499 103.651493 
z
" clip-path="url(#p8b4459553f)" style="fill: #ff6347; opacity: 0.85"/>
   </g>
   <g id="patch_48">
    <path d="M 755.601267 109261.452203 
L 763.470411 109261.452203 
L 763.470411 81.015611 
L 755.601267 81.015611 
z
" clip-path="url(#p8b4459553f)" style="fill: #ff6347; opacity: 0.85"/>
   </g>
   <g id="patch_49">
    <path d="M 797.570035 109261.452203 
L 805.43918 109261.452203 
L 805.43918 105.426398 
L 797.570035 105.426398 
z
" clip-path="url(#p8b4459553f)" style="fill: #ff6347; opacity: 0.85"/>
   </g>
   <g id="patch_50">
    <path d="M 839.538804 109261.452203 
L 847.407948 109261.452203 
L 847.407948 152.7199 
L 839.538804 152.7199 
z
" clip-path="url(#p8b4459553f)" style="fill: #ff6347; opacity: 0.85"/>
   </g>
   <g id="patch_51">
    <path d="M 881.507572 109261.452203 
L 889.376716 109261.452203 
L 889.376716 249.730628 
L 881.507572 249.730628 
z
" clip-path="url(#p8b4459553f)" style="fill: #ff6347; opacity: 0.85"/>
   </g>
   <g id="patch_52">
    <path d="M 923.476341 109261.452203 
L 931.345485 109261.452203 
L 931.345485 258.540054 
L 923.476341 258.540054 
z
" clip-path="url(#p8b4459553f)" style="fill: #ff6347; opacity: 0.85"/>
   </g>
   <g id="patch_53">
    <path d="M 965.445109 109261.452203 
L 973.314253 109261.452203 
L 973.314253 122.351888 
L 965.445109 122.351888 
z
" clip-path="url(#p8b4459553f)" style="fill: #ff6347; opacity: 0.85"/>
   </g>
   <g id="patch_54">
    <path d="M 1007.413878 109261.452203 
L 1015.283022 109261.452203 
L 1015.283022 141.576424 
L 1007.413878 141.576424 
z
" clip-path="url(#p8b4459553f)" style="fill: #ff6347; opacity: 0.85"/>
   </g>
   <g id="patch_55">
    <path d="M 1049.382646 109261.452203 
L 1057.25179 109261.452203 
L 1057.25179 103.970305 
L 1049.382646 103.970305 
z
" clip-path="url(#p8b4459553f)" style="fill: #ff6347; opacity: 0.85"/>
   </g>
   <g id="patch_56">
    <path d="M 1091.351414 109261.452203 
L 1099.220558 109261.452203 
L 1099.220558 112.460246 
L 1091.351414 112.460246 
z
" clip-path="url(#p8b4459553f)" style="fill: #ff6347; opacity: 0.85"/>
   </g>
   <g id="patch_57">
    <path d="M 1133.320183 109261.452203 
L 1141.189327 109261.452203 
L 1141.189327 96.802248 
L 1133.320183 96.802248 
z
" clip-path="url(#p8b4459553f)" style="fill: #ff6347; opacity: 0.85"/>
   </g>
   <g id="patch_58">
    <path d="M 1175.288951 109261.452203 
L 1183.158095 109261.452203 
L 1183.158095 270.595794 
L 1175.288951 270.595794 
z
" clip-path="url(#p8b4459553f)" style="fill: #ff6347; opacity: 0.85"/>
   </g>
   <g id="patch_59">
    <path d="M 1217.25772 109261.452203 
L 1225.126864 109261.452203 
L 1225.126864 229.293783 
L 1217.25772 229.293783 
z
" clip-path="url(#p8b4459553f)" style="fill: #ff6347; opacity: 0.85"/>
   </g>
   <g id="patch_60">
    <path d="M 1259.226488 109261.452203 
L 1267.095632 109261.452203 
L 1267.095632 146.375775 
L 1259.226488 146.375775 
z
" clip-path="url(#p8b4459553f)" style="fill: #ff6347; opacity: 0.85"/>
   </g>
   <g id="patch_61">
    <path d="M 1301.195256 109261.452203 
L 1309.0644 109261.452203 
L 1309.0644 227.565547 
L 1301.195256 227.565547 
z
" clip-path="url(#p8b4459553f)" style="fill: #ff6347; opacity: 0.85"/>
   </g>
   <g id="patch_62">
    <path d="M 1343.164025 109261.452203 
L 1351.033169 109261.452203 
L 1351.033169 241.113259 
L 1343.164025 241.113259 
z
" clip-path="url(#p8b4459553f)" style="fill: #ff6347; opacity: 0.85"/>
   </g>
   <g id="patch_63">
    <path d="M 133.938885 109261.452203 
L 141.808029 109261.452203 
L 141.808029 101.638302 
L 133.938885 101.638302 
z
" clip-path="url(#p8b4459553f)" style="fill: #228b22; opacity: 0.85"/>
   </g>
   <g id="patch_64">
    <path d="M 175.907653 109261.452203 
L 183.776798 109261.452203 
L 183.776798 134.15472 
L 175.907653 134.15472 
z
" clip-path="url(#p8b4459553f)" style="fill: #228b22; opacity: 0.85"/>
   </g>
   <g id="patch_65">
    <path d="M 217.876422 109261.452203 
L 225.745566 109261.452203 
L 225.745566 109.436085 
L 217.876422 109.436085 
z
" clip-path="url(#p8b4459553f)" style="fill: #228b22; opacity: 0.85"/>
   </g>
   <g id="patch_66">
    <path d="M 259.84519 109261.452203 
L 267.714334 109261.452203 
L 267.714334 115.666423 
L 259.84519 115.666423 
z
" clip-path="url(#p8b4459553f)" style="fill: #228b22; opacity: 0.85"/>
   </g>
   <g id="patch_67">
    <path d="M 301.813959 109261.452203 
L 309.683103 109261.452203 
L 309.683103 292.869867 
L 301.813959 292.869867 
z
" clip-path="url(#p8b4459553f)" style="fill: #228b22; opacity: 0.85"/>
   </g>
   <g id="patch_68">
    <path d="M 343.782727 109261.452203 
L 351.651871 109261.452203 
L 351.651871 245.05361 
L 343.782727 245.05361 
z
" clip-path="url(#p8b4459553f)" style="fill: #228b22; opacity: 0.85"/>
   </g>
   <g id="patch_69">
    <path d="M 385.751496 109261.452203 
L 393.62064 109261.452203 
L 393.62064 107.183408 
L 385.751496 107.183408 
z
" clip-path="url(#p8b4459553f)" style="fill: #228b22; opacity: 0.85"/>
   </g>
   <g id="patch_70">
    <path d="M 427.720264 109261.452203 
L 435.589408 109261.452203 
L 435.589408 183.344441 
L 427.720264 183.344441 
z
" clip-path="url(#p8b4459553f)" style="fill: #228b22; opacity: 0.85"/>
   </g>
   <g id="patch_71">
    <path d="M 469.689032 109261.452203 
L 477.558176 109261.452203 
L 477.558176 212.527386 
L 469.689032 212.527386 
z
" clip-path="url(#p8b4459553f)" style="fill: #228b22; opacity: 0.85"/>
   </g>
   <g id="patch_72">
    <path d="M 511.657801 109261.452203 
L 519.526945 109261.452203 
L 519.526945 145.597506 
L 511.657801 145.597506 
z
" clip-path="url(#p8b4459553f)" style="fill: #228b22; opacity: 0.85"/>
   </g>
   <g id="patch_73">
    <path d="M 553.626569 109261.452203 
L 561.495713 109261.452203 
L 561.495713 99.632519 
L 553.626569 99.632519 
z
" clip-path="url(#p8b4459553f)" style="fill: #228b22; opacity: 0.85"/>
   </g>
   <g id="patch_74">
    <path d="M 595.595338 109261.452203 
L 603.464482 109261.452203 
L 603.464482 234.240375 
L 595.595338 234.240375 
z
" clip-path="url(#p8b4459553f)" style="fill: #228b22; opacity: 0.85"/>
   </g>
   <g id="patch_75">
    <path d="M 637.564106 109261.452203 
L 645.43325 109261.452203 
L 645.43325 127.543652 
L 637.564106 127.543652 
z
" clip-path="url(#p8b4459553f)" style="fill: #228b22; opacity: 0.85"/>
   </g>
   <g id="patch_76">
    <path d="M 679.532874 109261.452203 
L 687.402018 109261.452203 
L 687.402018 218.881667 
L 679.532874 218.881667 
z
" clip-path="url(#p8b4459553f)" style="fill: #228b22; opacity: 0.85"/>
   </g>
   <g id="patch_77">
    <path d="M 721.501643 109261.452203 
L 729.370787 109261.452203 
L 729.370787 115.787792 
L 721.501643 115.787792 
z
" clip-path="url(#p8b4459553f)" style="fill: #228b22; opacity: 0.85"/>
   </g>
   <g id="patch_78">
    <path d="M 763.470411 109261.452203 
L 771.339555 109261.452203 
L 771.339555 62.777335 
L 763.470411 62.777335 
z
" clip-path="url(#p8b4459553f)" style="fill: #228b22; opacity: 0.85"/>
   </g>
   <g id="patch_79">
    <path d="M 805.43918 109261.452203 
L 813.308324 109261.452203 
L 813.308324 116.38699 
L 805.43918 116.38699 
z
" clip-path="url(#p8b4459553f)" style="fill: #228b22; opacity: 0.85"/>
   </g>
   <g id="patch_80">
    <path d="M 847.407948 109261.452203 
L 855.277092 109261.452203 
L 855.277092 214.248845 
L 847.407948 214.248845 
z
" clip-path="url(#p8b4459553f)" style="fill: #228b22; opacity: 0.85"/>
   </g>
   <g id="patch_81">
    <path d="M 889.376716 109261.452203 
L 897.24586 109261.452203 
L 897.24586 210.793606 
L 889.376716 210.793606 
z
" clip-path="url(#p8b4459553f)" style="fill: #228b22; opacity: 0.85"/>
   </g>
   <g id="patch_82">
    <path d="M 931.345485 109261.452203 
L 939.214629 109261.452203 
L 939.214629 217.68551 
L 931.345485 217.68551 
z
" clip-path="url(#p8b4459553f)" style="fill: #228b22; opacity: 0.85"/>
   </g>
   <g id="patch_83">
    <path d="M 973.314253 109261.452203 
L 981.183397 109261.452203 
L 981.183397 148.381593 
L 973.314253 148.381593 
z
" clip-path="url(#p8b4459553f)" style="fill: #228b22; opacity: 0.85"/>
   </g>
   <g id="patch_84">
    <path d="M 1015.283022 109261.452203 
L 1023.152166 109261.452203 
L 1023.152166 49.844175 
L 1015.283022 49.844175 
z
" clip-path="url(#p8b4459553f)" style="fill: #228b22; opacity: 0.85"/>
   </g>
   <g id="patch_85">
    <path d="M 1057.25179 109261.452203 
L 1065.120934 109261.452203 
L 1065.120934 83.888716 
L 1057.25179 83.888716 
z
" clip-path="url(#p8b4459553f)" style="fill: #228b22; opacity: 0.85"/>
   </g>
   <g id="patch_86">
    <path d="M 1099.220558 109261.452203 
L 1107.089702 109261.452203 
L 1107.089702 158.992573 
L 1099.220558 158.992573 
z
" clip-path="url(#p8b4459553f)" style="fill: #228b22; opacity: 0.85"/>
   </g>
   <g id="patch_87">
    <path d="M 1141.189327 109261.452203 
L 1149.058471 109261.452203 
L 1149.058471 240.68897 
L 1141.189327 240.68897 
z
" clip-path="url(#p8b4459553f)" style="fill: #228b22; opacity: 0.85"/>
   </g>
   <g id="patch_88">
    <path d="M 1183.158095 109261.452203 
L 1191.027239 109261.452203 
L 1191.027239 187.410924 
L 1183.158095 187.410924 
z
" clip-path="url(#p8b4459553f)" style="fill: #228b22; opacity: 0.85"/>
   </g>
   <g id="patch_89">
    <path d="M 1225.126864 109261.452203 
L 1232.996008 109261.452203 
L 1232.996008 228.850999 
L 1225.126864 228.850999 
z
" clip-path="url(#p8b4459553f)" style="fill: #228b22; opacity: 0.85"/>
   </g>
   <g id="patch_90">
    <path d="M 1267.095632 109261.452203 
L 1274.964776 109261.452203 
L 1274.964776 383.655869 
L 1267.095632 383.655869 
z
" clip-path="url(#p8b4459553f)" style="fill: #228b22; opacity: 0.85"/>
   </g>
   <g id="patch_91">
    <path d="M 1309.0644 109261.452203 
L 1316.933545 109261.452203 
L 1316.933545 473.592759 
L 1309.0644 473.592759 
z
" clip-path="url(#p8b4459553f)" style="fill: #228b22; opacity: 0.85"/>
   </g>
   <g id="patch_92">
    <path d="M 1351.033169 109261.452203 
L 1358.902313 109261.452203 
L 1358.902313 283.751764 
L 1351.033169 283.751764 
z
" clip-path="url(#p8b4459553f)" style="fill: #228b22; opacity: 0.85"/>
   </g>
   <g id="patch_93">
    <path d="M 141.808029 109261.452203 
L 149.677173 109261.452203 
L 149.677173 240.916342 
L 141.808029 240.916342 
z
" clip-path="url(#p8b4459553f)" style="fill: #ff8c00; opacity: 0.85"/>
   </g>
   <g id="patch_94">
    <path d="M 183.776798 109261.452203 
L 191.645942 109261.452203 
L 191.645942 237.039806 
L 183.776798 237.039806 
z
" clip-path="url(#p8b4459553f)" style="fill: #ff8c00; opacity: 0.85"/>
   </g>
   <g id="patch_95">
    <path d="M 225.745566 109261.452203 
L 233.61471 109261.452203 
L 233.61471 116.562062 
L 225.745566 116.562062 
z
" clip-path="url(#p8b4459553f)" style="fill: #ff8c00; opacity: 0.85"/>
   </g>
   <g id="patch_96">
    <path d="M 267.714334 109261.452203 
L 275.583478 109261.452203 
L 275.583478 127.112992 
L 267.714334 127.112992 
z
" clip-path="url(#p8b4459553f)" style="fill: #ff8c00; opacity: 0.85"/>
   </g>
   <g id="patch_97">
    <path d="M 309.683103 109261.452203 
L 317.552247 109261.452203 
L 317.552247 202.764043 
L 309.683103 202.764043 
z
" clip-path="url(#p8b4459553f)" style="fill: #ff8c00; opacity: 0.85"/>
   </g>
   <g id="patch_98">
    <path d="M 351.651871 109261.452203 
L 359.521015 109261.452203 
L 359.521015 183.664824 
L 351.651871 183.664824 
z
" clip-path="url(#p8b4459553f)" style="fill: #ff8c00; opacity: 0.85"/>
   </g>
   <g id="patch_99">
    <path d="M 393.62064 109261.452203 
L 401.489784 109261.452203 
L 401.489784 141.617353 
L 393.62064 141.617353 
z
" clip-path="url(#p8b4459553f)" style="fill: #ff8c00; opacity: 0.85"/>
   </g>
   <g id="patch_100">
    <path d="M 435.589408 109261.452203 
L 443.458552 109261.452203 
L 443.458552 180.913996 
L 435.589408 180.913996 
z
" clip-path="url(#p8b4459553f)" style="fill: #ff8c00; opacity: 0.85"/>
   </g>
   <g id="patch_101">
    <path d="M 477.558176 109261.452203 
L 485.42732 109261.452203 
L 485.42732 198.920261 
L 477.558176 198.920261 
z
" clip-path="url(#p8b4459553f)" style="fill: #ff8c00; opacity: 0.85"/>
   </g>
   <g id="patch_102">
    <path d="M 519.526945 109261.452203 
L 527.396089 109261.452203 
L 527.396089 134.799003 
L 519.526945 134.799003 
z
" clip-path="url(#p8b4459553f)" style="fill: #ff8c00; opacity: 0.85"/>
   </g>
   <g id="patch_103">
    <path d="M 561.495713 109261.452203 
L 569.364857 109261.452203 
L 569.364857 112.848023 
L 561.495713 112.848023 
z
" clip-path="url(#p8b4459553f)" style="fill: #ff8c00; opacity: 0.85"/>
   </g>
   <g id="patch_104">
    <path d="M 603.464482 109261.452203 
L 611.333626 109261.452203 
L 611.333626 219.863134 
L 603.464482 219.863134 
z
" clip-path="url(#p8b4459553f)" style="fill: #ff8c00; opacity: 0.85"/>
   </g>
   <g id="patch_105">
    <path d="M 645.43325 109261.452203 
L 653.302394 109261.452203 
L 653.302394 124.325731 
L 645.43325 124.325731 
z
" clip-path="url(#p8b4459553f)" style="fill: #ff8c00; opacity: 0.85"/>
   </g>
   <g id="patch_106">
    <path d="M 687.402018 109261.452203 
L 695.271162 109261.452203 
L 695.271162 234.119497 
L 687.402018 234.119497 
z
" clip-path="url(#p8b4459553f)" style="fill: #ff8c00; opacity: 0.85"/>
   </g>
   <g id="patch_107">
    <path d="M 729.370787 109261.452203 
L 737.239931 109261.452203 
L 737.239931 117.832794 
L 729.370787 117.832794 
z
" clip-path="url(#p8b4459553f)" style="fill: #ff8c00; opacity: 0.85"/>
   </g>
   <g id="patch_108">
    <path d="M 771.339555 109261.452203 
L 779.208699 109261.452203 
L 779.208699 53.4336 
L 771.339555 53.4336 
z
" clip-path="url(#p8b4459553f)" style="fill: #ff8c00; opacity: 0.85"/>
   </g>
   <g id="patch_109">
    <path d="M 813.308324 109261.452203 
L 821.177468 109261.452203 
L 821.177468 116.364821 
L 813.308324 116.364821 
z
" clip-path="url(#p8b4459553f)" style="fill: #ff8c00; opacity: 0.85"/>
   </g>
   <g id="patch_110">
    <path d="M 855.277092 109261.452203 
L 863.146236 109261.452203 
L 863.146236 207.086184 
L 855.277092 207.086184 
z
" clip-path="url(#p8b4459553f)" style="fill: #ff8c00; opacity: 0.85"/>
   </g>
   <g id="patch_111">
    <path d="M 897.24586 109261.452203 
L 905.115005 109261.452203 
L 905.115005 211.318822 
L 897.24586 211.318822 
z
" clip-path="url(#p8b4459553f)" style="fill: #ff8c00; opacity: 0.85"/>
   </g>
   <g id="patch_112">
    <path d="M 939.214629 109261.452203 
L 947.083773 109261.452203 
L 947.083773 202.225091 
L 939.214629 202.225091 
z
" clip-path="url(#p8b4459553f)" style="fill: #ff8c00; opacity: 0.85"/>
   </g>
   <g id="patch_113">
    <path d="M 981.183397 109261.452203 
L 989.052541 109261.452203 
L 989.052541 147.680157 
L 981.183397 147.680157 
z
" clip-path="url(#p8b4459553f)" style="fill: #ff8c00; opacity: 0.85"/>
   </g>
   <g id="patch_114">
    <path d="M 1023.152166 109261.452203 
L 1031.02131 109261.452203 
L 1031.02131 53.522512 
L 1023.152166 53.522512 
z
" clip-path="url(#p8b4459553f)" style="fill: #ff8c00; opacity: 0.85"/>
   </g>
   <g id="patch_115">
    <path d="M 1065.120934 109261.452203 
L 1072.990078 109261.452203 
L 1072.990078 87.463094 
L 1065.120934 87.463094 
z
" clip-path="url(#p8b4459553f)" style="fill: #ff8c00; opacity: 0.85"/>
   </g>
   <g id="patch_116">
    <path d="M 1107.089702 109261.452203 
L 1114.958847 109261.452203 
L 1114.958847 155.199175 
L 1107.089702 155.199175 
z
" clip-path="url(#p8b4459553f)" style="fill: #ff8c00; opacity: 0.85"/>
   </g>
   <g id="patch_117">
    <path d="M 1149.058471 109261.452203 
L 1156.927615 109261.452203 
L 1156.927615 160.890011 
L 1149.058471 160.890011 
z
" clip-path="url(#p8b4459553f)" style="fill: #ff8c00; opacity: 0.85"/>
   </g>
   <g id="patch_118">
    <path d="M 1191.027239 109261.452203 
L 1198.896383 109261.452203 
L 1198.896383 163.932747 
L 1191.027239 163.932747 
z
" clip-path="url(#p8b4459553f)" style="fill: #ff8c00; opacity: 0.85"/>
   </g>
   <g id="patch_119">
    <path d="M 1232.996008 109261.452203 
L 1240.865152 109261.452203 
L 1240.865152 226.417041 
L 1232.996008 226.417041 
z
" clip-path="url(#p8b4459553f)" style="fill: #ff8c00; opacity: 0.85"/>
   </g>
   <g id="patch_120">
    <path d="M 1274.964776 109261.452203 
L 1282.83392 109261.452203 
L 1282.83392 327.66568 
L 1274.964776 327.66568 
z
" clip-path="url(#p8b4459553f)" style="fill: #ff8c00; opacity: 0.85"/>
   </g>
   <g id="patch_121">
    <path d="M 1316.933545 109261.452203 
L 1324.802689 109261.452203 
L 1324.802689 334.982612 
L 1316.933545 334.982612 
z
" clip-path="url(#p8b4459553f)" style="fill: #ff8c00; opacity: 0.85"/>
   </g>
   <g id="patch_122">
    <path d="M 1358.902313 109261.452203 
L 1366.771457 109261.452203 
L 1366.771457 304.278309 
L 1358.902313 304.278309 
z
" clip-path="url(#p8b4459553f)" style="fill: #ff8c00; opacity: 0.85"/>
   </g>
   <g id="matplotlib.axis_1">
    <g id="xtick_1">
     <g id="line2d_1">
      <defs>
       <path id="m7ebc585286" d="M 0 0 
L 0 3.5 
" style="stroke: #000000; stroke-width: 0.8"/>
      </defs>
      <g>
       <use xlink:href="#m7ebc585286" x="133.938885" y="532.09185" style="stroke: #000000; stroke-width: 0.8"/>
      </g>
     </g>
     <g id="text_1">
      <!-- eb_x -->
      <g transform="translate(119.356575 556.638705) rotate(-45) scale(0.08 -0.08)">
       <defs>
        <path id="DejaVuSans-65" d="M 3597 1894 
L 3597 1613 
L 953 1613 
Q 991 1019 1311 708 
Q 1631 397 2203 397 
Q 2534 397 2845 478 
Q 3156 559 3463 722 
L 3463 178 
Q 3153 47 2828 -22 
Q 2503 -91 2169 -91 
Q 1331 -91 842 396 
Q 353 884 353 1716 
Q 353 2575 817 3079 
Q 1281 3584 2069 3584 
Q 2775 3584 3186 3129 
Q 3597 2675 3597 1894 
z
M 3022 2063 
Q 3016 2534 2758 2815 
Q 2500 3097 2075 3097 
Q 1594 3097 1305 2825 
Q 1016 2553 972 2059 
L 3022 2063 
z
" transform="scale(0.015625)"/>
        <path id="DejaVuSans-62" d="M 3116 1747 
Q 3116 2381 2855 2742 
Q 2594 3103 2138 3103 
Q 1681 3103 1420 2742 
Q 1159 2381 1159 1747 
Q 1159 1113 1420 752 
Q 1681 391 2138 391 
Q 2594 391 2855 752 
Q 3116 1113 3116 1747 
z
M 1159 2969 
Q 1341 3281 1617 3432 
Q 1894 3584 2278 3584 
Q 2916 3584 3314 3078 
Q 3713 2572 3713 1747 
Q 3713 922 3314 415 
Q 2916 -91 2278 -91 
Q 1894 -91 1617 61 
Q 1341 213 1159 525 
L 1159 0 
L 581 0 
L 581 4863 
L 1159 4863 
L 1159 2969 
z
" transform="scale(0.015625)"/>
        <path id="DejaVuSans-5f" d="M 3263 -1063 
L 3263 -1509 
L -63 -1509 
L -63 -1063 
L 3263 -1063 
z
" transform="scale(0.015625)"/>
        <path id="DejaVuSans-78" d="M 3513 3500 
L 2247 1797 
L 3578 0 
L 2900 0 
L 1881 1375 
L 863 0 
L 184 0 
L 1544 1831 
L 300 3500 
L 978 3500 
L 1906 2253 
L 2834 3500 
L 3513 3500 
z
" transform="scale(0.015625)"/>
       </defs>
       <use xlink:href="#DejaVuSans-65"/>
       <use xlink:href="#DejaVuSans-62" transform="translate(61.523438 0)"/>
       <use xlink:href="#DejaVuSans-5f" transform="translate(125 0)"/>
       <use xlink:href="#DejaVuSans-78" transform="translate(175 0)"/>
      </g>
     </g>
    </g>
    <g id="xtick_2">
     <g id="line2d_2">
      <g>
       <use xlink:href="#m7ebc585286" x="175.907653" y="532.09185" style="stroke: #000000; stroke-width: 0.8"/>
      </g>
     </g>
     <g id="text_2">
      <!-- eb_y -->
      <g transform="translate(161.325344 556.638705) rotate(-45) scale(0.08 -0.08)">
       <defs>
        <path id="DejaVuSans-79" d="M 2059 -325 
Q 1816 -950 1584 -1140 
Q 1353 -1331 966 -1331 
L 506 -1331 
L 506 -850 
L 844 -850 
Q 1081 -850 1212 -737 
Q 1344 -625 1503 -206 
L 1606 56 
L 191 3500 
L 800 3500 
L 1894 763 
L 2988 3500 
L 3597 3500 
L 2059 -325 
z
" transform="scale(0.015625)"/>
       </defs>
       <use xlink:href="#DejaVuSans-65"/>
       <use xlink:href="#DejaVuSans-62" transform="translate(61.523438 0)"/>
       <use xlink:href="#DejaVuSans-5f" transform="translate(125 0)"/>
       <use xlink:href="#DejaVuSans-79" transform="translate(175 0)"/>
      </g>
     </g>
    </g>
    <g id="xtick_3">
     <g id="line2d_3">
      <g>
       <use xlink:href="#m7ebc585286" x="217.876422" y="532.09185" style="stroke: #000000; stroke-width: 0.8"/>
      </g>
     </g>
     <g id="text_3">
      <!-- eb_z -->
      <g transform="translate(203.673298 556.259519) rotate(-45) scale(0.08 -0.08)">
       <defs>
        <path id="DejaVuSans-7a" d="M 353 3500 
L 3084 3500 
L 3084 2975 
L 922 459 
L 3084 459 
L 3084 0 
L 275 0 
L 275 525 
L 2438 3041 
L 353 3041 
L 353 3500 
z
" transform="scale(0.015625)"/>
       </defs>
       <use xlink:href="#DejaVuSans-65"/>
       <use xlink:href="#DejaVuSans-62" transform="translate(61.523438 0)"/>
       <use xlink:href="#DejaVuSans-5f" transform="translate(125 0)"/>
       <use xlink:href="#DejaVuSans-7a" transform="translate(175 0)"/>
      </g>
     </g>
    </g>
    <g id="xtick_4">
     <g id="line2d_4">
      <g>
       <use xlink:href="#m7ebc585286" x="259.84519" y="532.09185" style="stroke: #000000; stroke-width: 0.8"/>
      </g>
     </g>
     <g id="text_4">
      <!-- db_x -->
      <g transform="translate(245.152395 556.74919) rotate(-45) scale(0.08 -0.08)">
       <defs>
        <path id="DejaVuSans-64" d="M 2906 2969 
L 2906 4863 
L 3481 4863 
L 3481 0 
L 2906 0 
L 2906 525 
Q 2725 213 2448 61 
Q 2172 -91 1784 -91 
Q 1150 -91 751 415 
Q 353 922 353 1747 
Q 353 2572 751 3078 
Q 1150 3584 1784 3584 
Q 2172 3584 2448 3432 
Q 2725 3281 2906 2969 
z
M 947 1747 
Q 947 1113 1208 752 
Q 1469 391 1925 391 
Q 2381 391 2643 752 
Q 2906 1113 2906 1747 
Q 2906 2381 2643 2742 
Q 2381 3103 1925 3103 
Q 1469 3103 1208 2742 
Q 947 2381 947 1747 
z
" transform="scale(0.015625)"/>
       </defs>
       <use xlink:href="#DejaVuSans-64"/>
       <use xlink:href="#DejaVuSans-62" transform="translate(63.476562 0)"/>
       <use xlink:href="#DejaVuSans-5f" transform="translate(126.953125 0)"/>
       <use xlink:href="#DejaVuSans-78" transform="translate(176.953125 0)"/>
      </g>
     </g>
    </g>
    <g id="xtick_5">
     <g id="line2d_5">
      <g>
       <use xlink:href="#m7ebc585286" x="301.813959" y="532.09185" style="stroke: #000000; stroke-width: 0.8"/>
      </g>
     </g>
     <g id="text_5">
      <!-- db_y -->
      <g transform="translate(287.121164 556.74919) rotate(-45) scale(0.08 -0.08)">
       <use xlink:href="#DejaVuSans-64"/>
       <use xlink:href="#DejaVuSans-62" transform="translate(63.476562 0)"/>
       <use xlink:href="#DejaVuSans-5f" transform="translate(126.953125 0)"/>
       <use xlink:href="#DejaVuSans-79" transform="translate(176.953125 0)"/>
      </g>
     </g>
    </g>
    <g id="xtick_6">
     <g id="line2d_6">
      <g>
       <use xlink:href="#m7ebc585286" x="343.782727" y="532.09185" style="stroke: #000000; stroke-width: 0.8"/>
      </g>
     </g>
     <g id="text_6">
      <!-- db_z -->
      <g transform="translate(329.469118 556.370004) rotate(-45) scale(0.08 -0.08)">
       <use xlink:href="#DejaVuSans-64"/>
       <use xlink:href="#DejaVuSans-62" transform="translate(63.476562 0)"/>
       <use xlink:href="#DejaVuSans-5f" transform="translate(126.953125 0)"/>
       <use xlink:href="#DejaVuSans-7a" transform="translate(176.953125 0)"/>
      </g>
     </g>
    </g>
    <g id="xtick_7">
     <g id="line2d_7">
      <g>
       <use xlink:href="#m7ebc585286" x="385.751496" y="532.09185" style="stroke: #000000; stroke-width: 0.8"/>
      </g>
     </g>
     <g id="text_7">
      <!-- dKg_xx -->
      <g transform="translate(364.000891 563.807) rotate(-45) scale(0.08 -0.08)">
       <defs>
        <path id="DejaVuSans-4b" d="M 628 4666 
L 1259 4666 
L 1259 2694 
L 3353 4666 
L 4166 4666 
L 1850 2491 
L 4331 0 
L 3500 0 
L 1259 2247 
L 1259 0 
L 628 0 
L 628 4666 
z
" transform="scale(0.015625)"/>
        <path id="DejaVuSans-67" d="M 2906 1791 
Q 2906 2416 2648 2759 
Q 2391 3103 1925 3103 
Q 1463 3103 1205 2759 
Q 947 2416 947 1791 
Q 947 1169 1205 825 
Q 1463 481 1925 481 
Q 2391 481 2648 825 
Q 2906 1169 2906 1791 
z
M 3481 434 
Q 3481 -459 3084 -895 
Q 2688 -1331 1869 -1331 
Q 1566 -1331 1297 -1286 
Q 1028 -1241 775 -1147 
L 775 -588 
Q 1028 -725 1275 -790 
Q 1522 -856 1778 -856 
Q 2344 -856 2625 -561 
Q 2906 -266 2906 331 
L 2906 616 
Q 2728 306 2450 153 
Q 2172 0 1784 0 
Q 1141 0 747 490 
Q 353 981 353 1791 
Q 353 2603 747 3093 
Q 1141 3584 1784 3584 
Q 2172 3584 2450 3431 
Q 2728 3278 2906 2969 
L 2906 3500 
L 3481 3500 
L 3481 434 
z
" transform="scale(0.015625)"/>
       </defs>
       <use xlink:href="#DejaVuSans-64"/>
       <use xlink:href="#DejaVuSans-4b" transform="translate(63.476562 0)"/>
       <use xlink:href="#DejaVuSans-67" transform="translate(129.052734 0)"/>
       <use xlink:href="#DejaVuSans-5f" transform="translate(192.529297 0)"/>
       <use xlink:href="#DejaVuSans-78" transform="translate(242.529297 0)"/>
       <use xlink:href="#DejaVuSans-78" transform="translate(301.708984 0)"/>
      </g>
     </g>
    </g>
    <g id="xtick_8">
     <g id="line2d_8">
      <g>
       <use xlink:href="#m7ebc585286" x="427.720264" y="532.09185" style="stroke: #000000; stroke-width: 0.8"/>
      </g>
     </g>
     <g id="text_8">
      <!-- dKg_yx -->
      <g transform="translate(405.969659 563.807) rotate(-45) scale(0.08 -0.08)">
       <use xlink:href="#DejaVuSans-64"/>
       <use xlink:href="#DejaVuSans-4b" transform="translate(63.476562 0)"/>
       <use xlink:href="#DejaVuSans-67" transform="translate(129.052734 0)"/>
       <use xlink:href="#DejaVuSans-5f" transform="translate(192.529297 0)"/>
       <use xlink:href="#DejaVuSans-79" transform="translate(242.529297 0)"/>
       <use xlink:href="#DejaVuSans-78" transform="translate(301.708984 0)"/>
      </g>
     </g>
    </g>
    <g id="xtick_9">
     <g id="line2d_9">
      <g>
       <use xlink:href="#m7ebc585286" x="469.689032" y="532.09185" style="stroke: #000000; stroke-width: 0.8"/>
      </g>
     </g>
     <g id="text_9">
      <!-- dKg_zx -->
      <g transform="translate(448.317614 563.427814) rotate(-45) scale(0.08 -0.08)">
       <use xlink:href="#DejaVuSans-64"/>
       <use xlink:href="#DejaVuSans-4b" transform="translate(63.476562 0)"/>
       <use xlink:href="#DejaVuSans-67" transform="translate(129.052734 0)"/>
       <use xlink:href="#DejaVuSans-5f" transform="translate(192.529297 0)"/>
       <use xlink:href="#DejaVuSans-7a" transform="translate(242.529297 0)"/>
       <use xlink:href="#DejaVuSans-78" transform="translate(295.019531 0)"/>
      </g>
     </g>
    </g>
    <g id="xtick_10">
     <g id="line2d_10">
      <g>
       <use xlink:href="#m7ebc585286" x="511.657801" y="532.09185" style="stroke: #000000; stroke-width: 0.8"/>
      </g>
     </g>
     <g id="text_10">
      <!-- dKg_xy -->
      <g transform="translate(489.907196 563.807) rotate(-45) scale(0.08 -0.08)">
       <use xlink:href="#DejaVuSans-64"/>
       <use xlink:href="#DejaVuSans-4b" transform="translate(63.476562 0)"/>
       <use xlink:href="#DejaVuSans-67" transform="translate(129.052734 0)"/>
       <use xlink:href="#DejaVuSans-5f" transform="translate(192.529297 0)"/>
       <use xlink:href="#DejaVuSans-78" transform="translate(242.529297 0)"/>
       <use xlink:href="#DejaVuSans-79" transform="translate(301.708984 0)"/>
      </g>
     </g>
    </g>
    <g id="xtick_11">
     <g id="line2d_11">
      <g>
       <use xlink:href="#m7ebc585286" x="553.626569" y="532.09185" style="stroke: #000000; stroke-width: 0.8"/>
      </g>
     </g>
     <g id="text_11">
      <!-- dKg_yy -->
      <g transform="translate(531.875965 563.807) rotate(-45) scale(0.08 -0.08)">
       <use xlink:href="#DejaVuSans-64"/>
       <use xlink:href="#DejaVuSans-4b" transform="translate(63.476562 0)"/>
       <use xlink:href="#DejaVuSans-67" transform="translate(129.052734 0)"/>
       <use xlink:href="#DejaVuSans-5f" transform="translate(192.529297 0)"/>
       <use xlink:href="#DejaVuSans-79" transform="translate(242.529297 0)"/>
       <use xlink:href="#DejaVuSans-79" transform="translate(301.708984 0)"/>
      </g>
     </g>
    </g>
    <g id="xtick_12">
     <g id="line2d_12">
      <g>
       <use xlink:href="#m7ebc585286" x="595.595338" y="532.09185" style="stroke: #000000; stroke-width: 0.8"/>
      </g>
     </g>
     <g id="text_12">
      <!-- dKg_zy -->
      <g transform="translate(574.223919 563.427814) rotate(-45) scale(0.08 -0.08)">
       <use xlink:href="#DejaVuSans-64"/>
       <use xlink:href="#DejaVuSans-4b" transform="translate(63.476562 0)"/>
       <use xlink:href="#DejaVuSans-67" transform="translate(129.052734 0)"/>
       <use xlink:href="#DejaVuSans-5f" transform="translate(192.529297 0)"/>
       <use xlink:href="#DejaVuSans-7a" transform="translate(242.529297 0)"/>
       <use xlink:href="#DejaVuSans-79" transform="translate(295.019531 0)"/>
      </g>
     </g>
    </g>
    <g id="xtick_13">
     <g id="line2d_13">
      <g>
       <use xlink:href="#m7ebc585286" x="637.564106" y="532.09185" style="stroke: #000000; stroke-width: 0.8"/>
      </g>
     </g>
     <g id="text_13">
      <!-- dKg_xz -->
      <g transform="translate(616.192687 563.427814) rotate(-45) scale(0.08 -0.08)">
       <use xlink:href="#DejaVuSans-64"/>
       <use xlink:href="#DejaVuSans-4b" transform="translate(63.476562 0)"/>
       <use xlink:href="#DejaVuSans-67" transform="translate(129.052734 0)"/>
       <use xlink:href="#DejaVuSans-5f" transform="translate(192.529297 0)"/>
       <use xlink:href="#DejaVuSans-78" transform="translate(242.529297 0)"/>
       <use xlink:href="#DejaVuSans-7a" transform="translate(301.708984 0)"/>
      </g>
     </g>
    </g>
    <g id="xtick_14">
     <g id="line2d_14">
      <g>
       <use xlink:href="#m7ebc585286" x="679.532874" y="532.09185" style="stroke: #000000; stroke-width: 0.8"/>
      </g>
     </g>
     <g id="text_14">
      <!-- dKg_yz -->
      <g transform="translate(658.161456 563.427814) rotate(-45) scale(0.08 -0.08)">
       <use xlink:href="#DejaVuSans-64"/>
       <use xlink:href="#DejaVuSans-4b" transform="translate(63.476562 0)"/>
       <use xlink:href="#DejaVuSans-67" transform="translate(129.052734 0)"/>
       <use xlink:href="#DejaVuSans-5f" transform="translate(192.529297 0)"/>
       <use xlink:href="#DejaVuSans-79" transform="translate(242.529297 0)"/>
       <use xlink:href="#DejaVuSans-7a" transform="translate(301.708984 0)"/>
      </g>
     </g>
    </g>
    <g id="xtick_15">
     <g id="line2d_15">
      <g>
       <use xlink:href="#m7ebc585286" x="721.501643" y="532.09185" style="stroke: #000000; stroke-width: 0.8"/>
      </g>
     </g>
     <g id="text_15">
      <!-- dKg_zz -->
      <g transform="translate(700.50941 563.048628) rotate(-45) scale(0.08 -0.08)">
       <use xlink:href="#DejaVuSans-64"/>
       <use xlink:href="#DejaVuSans-4b" transform="translate(63.476562 0)"/>
       <use xlink:href="#DejaVuSans-67" transform="translate(129.052734 0)"/>
       <use xlink:href="#DejaVuSans-5f" transform="translate(192.529297 0)"/>
       <use xlink:href="#DejaVuSans-7a" transform="translate(242.529297 0)"/>
       <use xlink:href="#DejaVuSans-7a" transform="translate(295.019531 0)"/>
      </g>
     </g>
    </g>
    <g id="xtick_16">
     <g id="line2d_16">
      <g>
       <use xlink:href="#m7ebc585286" x="763.470411" y="532.09185" style="stroke: #000000; stroke-width: 0.8"/>
      </g>
     </g>
     <g id="text_16">
      <!-- dKa_xx -->
      <g transform="translate(741.943429 563.583377) rotate(-45) scale(0.08 -0.08)">
       <defs>
        <path id="DejaVuSans-61" d="M 2194 1759 
Q 1497 1759 1228 1600 
Q 959 1441 959 1056 
Q 959 750 1161 570 
Q 1363 391 1709 391 
Q 2188 391 2477 730 
Q 2766 1069 2766 1631 
L 2766 1759 
L 2194 1759 
z
M 3341 1997 
L 3341 0 
L 2766 0 
L 2766 531 
Q 2569 213 2275 61 
Q 1981 -91 1556 -91 
Q 1019 -91 701 211 
Q 384 513 384 1019 
Q 384 1609 779 1909 
Q 1175 2209 1959 2209 
L 2766 2209 
L 2766 2266 
Q 2766 2663 2505 2880 
Q 2244 3097 1772 3097 
Q 1472 3097 1187 3025 
Q 903 2953 641 2809 
L 641 3341 
Q 956 3463 1253 3523 
Q 1550 3584 1831 3584 
Q 2591 3584 2966 3190 
Q 3341 2797 3341 1997 
z
" transform="scale(0.015625)"/>
       </defs>
       <use xlink:href="#DejaVuSans-64"/>
       <use xlink:href="#DejaVuSans-4b" transform="translate(63.476562 0)"/>
       <use xlink:href="#DejaVuSans-61" transform="translate(127.302734 0)"/>
       <use xlink:href="#DejaVuSans-5f" transform="translate(188.582031 0)"/>
       <use xlink:href="#DejaVuSans-78" transform="translate(238.582031 0)"/>
       <use xlink:href="#DejaVuSans-78" transform="translate(297.761719 0)"/>
      </g>
     </g>
    </g>
    <g id="xtick_17">
     <g id="line2d_17">
      <g>
       <use xlink:href="#m7ebc585286" x="805.43918" y="532.09185" style="stroke: #000000; stroke-width: 0.8"/>
      </g>
     </g>
     <g id="text_17">
      <!-- dKa_xy -->
      <g transform="translate(783.912197 563.583377) rotate(-45) scale(0.08 -0.08)">
       <use xlink:href="#DejaVuSans-64"/>
       <use xlink:href="#DejaVuSans-4b" transform="translate(63.476562 0)"/>
       <use xlink:href="#DejaVuSans-61" transform="translate(127.302734 0)"/>
       <use xlink:href="#DejaVuSans-5f" transform="translate(188.582031 0)"/>
       <use xlink:href="#DejaVuSans-78" transform="translate(238.582031 0)"/>
       <use xlink:href="#DejaVuSans-79" transform="translate(297.761719 0)"/>
      </g>
     </g>
    </g>
    <g id="xtick_18">
     <g id="line2d_18">
      <g>
       <use xlink:href="#m7ebc585286" x="847.407948" y="532.09185" style="stroke: #000000; stroke-width: 0.8"/>
      </g>
     </g>
     <g id="text_18">
      <!-- dKa_yy -->
      <g transform="translate(825.880966 563.583377) rotate(-45) scale(0.08 -0.08)">
       <use xlink:href="#DejaVuSans-64"/>
       <use xlink:href="#DejaVuSans-4b" transform="translate(63.476562 0)"/>
       <use xlink:href="#DejaVuSans-61" transform="translate(127.302734 0)"/>
       <use xlink:href="#DejaVuSans-5f" transform="translate(188.582031 0)"/>
       <use xlink:href="#DejaVuSans-79" transform="translate(238.582031 0)"/>
       <use xlink:href="#DejaVuSans-79" transform="translate(297.761719 0)"/>
      </g>
     </g>
    </g>
    <g id="xtick_19">
     <g id="line2d_19">
      <g>
       <use xlink:href="#m7ebc585286" x="889.376716" y="532.09185" style="stroke: #000000; stroke-width: 0.8"/>
      </g>
     </g>
     <g id="text_19">
      <!-- dKa_xz -->
      <g transform="translate(868.22892 563.204191) rotate(-45) scale(0.08 -0.08)">
       <use xlink:href="#DejaVuSans-64"/>
       <use xlink:href="#DejaVuSans-4b" transform="translate(63.476562 0)"/>
       <use xlink:href="#DejaVuSans-61" transform="translate(127.302734 0)"/>
       <use xlink:href="#DejaVuSans-5f" transform="translate(188.582031 0)"/>
       <use xlink:href="#DejaVuSans-78" transform="translate(238.582031 0)"/>
       <use xlink:href="#DejaVuSans-7a" transform="translate(297.761719 0)"/>
      </g>
     </g>
    </g>
    <g id="xtick_20">
     <g id="line2d_20">
      <g>
       <use xlink:href="#m7ebc585286" x="931.345485" y="532.09185" style="stroke: #000000; stroke-width: 0.8"/>
      </g>
     </g>
     <g id="text_20">
      <!-- dKa_yz -->
      <g transform="translate(910.197689 563.204191) rotate(-45) scale(0.08 -0.08)">
       <use xlink:href="#DejaVuSans-64"/>
       <use xlink:href="#DejaVuSans-4b" transform="translate(63.476562 0)"/>
       <use xlink:href="#DejaVuSans-61" transform="translate(127.302734 0)"/>
       <use xlink:href="#DejaVuSans-5f" transform="translate(188.582031 0)"/>
       <use xlink:href="#DejaVuSans-79" transform="translate(238.582031 0)"/>
       <use xlink:href="#DejaVuSans-7a" transform="translate(297.761719 0)"/>
      </g>
     </g>
    </g>
    <g id="xtick_21">
     <g id="line2d_21">
      <g>
       <use xlink:href="#m7ebc585286" x="973.314253" y="532.09185" style="stroke: #000000; stroke-width: 0.8"/>
      </g>
     </g>
     <g id="text_21">
      <!-- dKa_zz -->
      <g transform="translate(952.545643 562.825005) rotate(-45) scale(0.08 -0.08)">
       <use xlink:href="#DejaVuSans-64"/>
       <use xlink:href="#DejaVuSans-4b" transform="translate(63.476562 0)"/>
       <use xlink:href="#DejaVuSans-61" transform="translate(127.302734 0)"/>
       <use xlink:href="#DejaVuSans-5f" transform="translate(188.582031 0)"/>
       <use xlink:href="#DejaVuSans-7a" transform="translate(238.582031 0)"/>
       <use xlink:href="#DejaVuSans-7a" transform="translate(291.072266 0)"/>
      </g>
     </g>
    </g>
    <g id="xtick_22">
     <g id="line2d_22">
      <g>
       <use xlink:href="#m7ebc585286" x="1015.283022" y="532.09185" style="stroke: #000000; stroke-width: 0.8"/>
      </g>
     </g>
     <g id="text_22">
      <!-- Ka2_x -->
      <g transform="translate(997.096235 560.143303) rotate(-45) scale(0.08 -0.08)">
       <defs>
        <path id="DejaVuSans-32" d="M 1228 531 
L 3431 531 
L 3431 0 
L 469 0 
L 469 531 
Q 828 903 1448 1529 
Q 2069 2156 2228 2338 
Q 2531 2678 2651 2914 
Q 2772 3150 2772 3378 
Q 2772 3750 2511 3984 
Q 2250 4219 1831 4219 
Q 1534 4219 1204 4116 
Q 875 4013 500 3803 
L 500 4441 
Q 881 4594 1212 4672 
Q 1544 4750 1819 4750 
Q 2544 4750 2975 4387 
Q 3406 4025 3406 3419 
Q 3406 3131 3298 2873 
Q 3191 2616 2906 2266 
Q 2828 2175 2409 1742 
Q 1991 1309 1228 531 
z
" transform="scale(0.015625)"/>
       </defs>
       <use xlink:href="#DejaVuSans-4b"/>
       <use xlink:href="#DejaVuSans-61" transform="translate(63.826172 0)"/>
       <use xlink:href="#DejaVuSans-32" transform="translate(125.105469 0)"/>
       <use xlink:href="#DejaVuSans-5f" transform="translate(188.728516 0)"/>
       <use xlink:href="#DejaVuSans-78" transform="translate(238.728516 0)"/>
      </g>
     </g>
    </g>
    <g id="xtick_23">
     <g id="line2d_23">
      <g>
       <use xlink:href="#m7ebc585286" x="1057.25179" y="532.09185" style="stroke: #000000; stroke-width: 0.8"/>
      </g>
     </g>
     <g id="text_23">
      <!-- Ka2_y -->
      <g transform="translate(1039.065004 560.143303) rotate(-45) scale(0.08 -0.08)">
       <use xlink:href="#DejaVuSans-4b"/>
       <use xlink:href="#DejaVuSans-61" transform="translate(63.826172 0)"/>
       <use xlink:href="#DejaVuSans-32" transform="translate(125.105469 0)"/>
       <use xlink:href="#DejaVuSans-5f" transform="translate(188.728516 0)"/>
       <use xlink:href="#DejaVuSans-79" transform="translate(238.728516 0)"/>
      </g>
     </g>
    </g>
    <g id="xtick_24">
     <g id="line2d_24">
      <g>
       <use xlink:href="#m7ebc585286" x="1099.220558" y="532.09185" style="stroke: #000000; stroke-width: 0.8"/>
      </g>
     </g>
     <g id="text_24">
      <!-- Ka2_z -->
      <g transform="translate(1081.412958 559.764117) rotate(-45) scale(0.08 -0.08)">
       <use xlink:href="#DejaVuSans-4b"/>
       <use xlink:href="#DejaVuSans-61" transform="translate(63.826172 0)"/>
       <use xlink:href="#DejaVuSans-32" transform="translate(125.105469 0)"/>
       <use xlink:href="#DejaVuSans-5f" transform="translate(188.728516 0)"/>
       <use xlink:href="#DejaVuSans-7a" transform="translate(238.728516 0)"/>
      </g>
     </g>
    </g>
    <g id="xtick_25">
     <g id="line2d_25">
      <g>
       <use xlink:href="#m7ebc585286" x="1141.189327" y="532.09185" style="stroke: #000000; stroke-width: 0.8"/>
      </g>
     </g>
     <g id="text_25">
      <!-- rx_x -->
      <g transform="translate(1128.153813 554.934577) rotate(-45) scale(0.08 -0.08)">
       <defs>
        <path id="DejaVuSans-72" d="M 2631 2963 
Q 2534 3019 2420 3045 
Q 2306 3072 2169 3072 
Q 1681 3072 1420 2755 
Q 1159 2438 1159 1844 
L 1159 0 
L 581 0 
L 581 3500 
L 1159 3500 
L 1159 2956 
Q 1341 3275 1631 3429 
Q 1922 3584 2338 3584 
Q 2397 3584 2469 3576 
Q 2541 3569 2628 3553 
L 2631 2963 
z
" transform="scale(0.015625)"/>
       </defs>
       <use xlink:href="#DejaVuSans-72"/>
       <use xlink:href="#DejaVuSans-78" transform="translate(38.488281 0)"/>
       <use xlink:href="#DejaVuSans-5f" transform="translate(97.667969 0)"/>
       <use xlink:href="#DejaVuSans-78" transform="translate(147.667969 0)"/>
      </g>
     </g>
    </g>
    <g id="xtick_26">
     <g id="line2d_26">
      <g>
       <use xlink:href="#m7ebc585286" x="1183.158095" y="532.09185" style="stroke: #000000; stroke-width: 0.8"/>
      </g>
     </g>
     <g id="text_26">
      <!-- rx_y -->
      <g transform="translate(1170.122582 554.934577) rotate(-45) scale(0.08 -0.08)">
       <use xlink:href="#DejaVuSans-72"/>
       <use xlink:href="#DejaVuSans-78" transform="translate(38.488281 0)"/>
       <use xlink:href="#DejaVuSans-5f" transform="translate(97.667969 0)"/>
       <use xlink:href="#DejaVuSans-79" transform="translate(147.667969 0)"/>
      </g>
     </g>
    </g>
    <g id="xtick_27">
     <g id="line2d_27">
      <g>
       <use xlink:href="#m7ebc585286" x="1225.126864" y="532.09185" style="stroke: #000000; stroke-width: 0.8"/>
      </g>
     </g>
     <g id="text_27">
      <!-- rx_z -->
      <g transform="translate(1212.470536 554.555391) rotate(-45) scale(0.08 -0.08)">
       <use xlink:href="#DejaVuSans-72"/>
       <use xlink:href="#DejaVuSans-78" transform="translate(38.488281 0)"/>
       <use xlink:href="#DejaVuSans-5f" transform="translate(97.667969 0)"/>
       <use xlink:href="#DejaVuSans-7a" transform="translate(147.667969 0)"/>
      </g>
     </g>
    </g>
    <g id="xtick_28">
     <g id="line2d_28">
      <g>
       <use xlink:href="#m7ebc585286" x="1267.095632" y="532.09185" style="stroke: #000000; stroke-width: 0.8"/>
      </g>
     </g>
     <g id="text_28">
      <!-- ry_x -->
      <g transform="translate(1253.911626 555.08307) rotate(-45) scale(0.08 -0.08)">
       <use xlink:href="#DejaVuSans-72"/>
       <use xlink:href="#DejaVuSans-79" transform="translate(41.113281 0)"/>
       <use xlink:href="#DejaVuSans-5f" transform="translate(100.292969 0)"/>
       <use xlink:href="#DejaVuSans-78" transform="translate(150.292969 0)"/>
      </g>
     </g>
    </g>
    <g id="xtick_29">
     <g id="line2d_29">
      <g>
       <use xlink:href="#m7ebc585286" x="1309.0644" y="532.09185" style="stroke: #000000; stroke-width: 0.8"/>
      </g>
     </g>
     <g id="text_29">
      <!-- ry_y -->
      <g transform="translate(1295.880395 555.08307) rotate(-45) scale(0.08 -0.08)">
       <use xlink:href="#DejaVuSans-72"/>
       <use xlink:href="#DejaVuSans-79" transform="translate(41.113281 0)"/>
       <use xlink:href="#DejaVuSans-5f" transform="translate(100.292969 0)"/>
       <use xlink:href="#DejaVuSans-79" transform="translate(150.292969 0)"/>
      </g>
     </g>
    </g>
    <g id="xtick_30">
     <g id="line2d_30">
      <g>
       <use xlink:href="#m7ebc585286" x="1351.033169" y="532.09185" style="stroke: #000000; stroke-width: 0.8"/>
      </g>
     </g>
     <g id="text_30">
      <!-- ry_z -->
      <g transform="translate(1338.228349 554.703884) rotate(-45) scale(0.08 -0.08)">
       <use xlink:href="#DejaVuSans-72"/>
       <use xlink:href="#DejaVuSans-79" transform="translate(41.113281 0)"/>
       <use xlink:href="#DejaVuSans-5f" transform="translate(100.292969 0)"/>
       <use xlink:href="#DejaVuSans-7a" transform="translate(150.292969 0)"/>
      </g>
     </g>
    </g>
   </g>
   <g id="matplotlib.axis_2">
    <g id="ytick_1">
     <g id="line2d_31">
      <path d="M 55.772054 425.332561 
L 1429.2 425.332561 
" clip-path="url(#p8b4459553f)" style="fill: none; stroke: #b0b0b0; stroke-opacity: 0.4; stroke-width: 0.8; stroke-linecap: square"/>
     </g>
     <g id="line2d_32">
      <defs>
       <path id="ma4bd7eef24" d="M 0 0 
L -3.5 0 
" style="stroke: #000000; stroke-width: 0.8"/>
      </defs>
      <g>
       <use xlink:href="#ma4bd7eef24" x="55.772054" y="425.332561" style="stroke: #000000; stroke-width: 0.8"/>
      </g>
     </g>
     <g id="text_31">
      <!-- $\mathdefault{10^{-1}}$ -->
      <g transform="translate(25.272054 429.13178) scale(0.1 -0.1)">
       <defs>
        <path id="DejaVuSans-31" d="M 794 531 
L 1825 531 
L 1825 4091 
L 703 3866 
L 703 4441 
L 1819 4666 
L 2450 4666 
L 2450 531 
L 3481 531 
L 3481 0 
L 794 0 
L 794 531 
z
" transform="scale(0.015625)"/>
        <path id="DejaVuSans-30" d="M 2034 4250 
Q 1547 4250 1301 3770 
Q 1056 3291 1056 2328 
Q 1056 1369 1301 889 
Q 1547 409 2034 409 
Q 2525 409 2770 889 
Q 3016 1369 3016 2328 
Q 3016 3291 2770 3770 
Q 2525 4250 2034 4250 
z
M 2034 4750 
Q 2819 4750 3233 4129 
Q 3647 3509 3647 2328 
Q 3647 1150 3233 529 
Q 2819 -91 2034 -91 
Q 1250 -91 836 529 
Q 422 1150 422 2328 
Q 422 3509 836 4129 
Q 1250 4750 2034 4750 
z
" transform="scale(0.015625)"/>
        <path id="DejaVuSans-2212" d="M 678 2272 
L 4684 2272 
L 4684 1741 
L 678 1741 
L 678 2272 
z
" transform="scale(0.015625)"/>
       </defs>
       <use xlink:href="#DejaVuSans-31" transform="translate(0 0.684375)"/>
       <use xlink:href="#DejaVuSans-30" transform="translate(63.623047 0.684375)"/>
       <use xlink:href="#DejaVuSans-2212" transform="translate(128.203125 38.965625) scale(0.7)"/>
       <use xlink:href="#DejaVuSans-31" transform="translate(186.855469 38.965625) scale(0.7)"/>
      </g>
     </g>
    </g>
    <g id="ytick_2">
     <g id="line2d_33">
      <path d="M 55.772054 316.387496 
L 1429.2 316.387496 
" clip-path="url(#p8b4459553f)" style="fill: none; stroke: #b0b0b0; stroke-opacity: 0.4; stroke-width: 0.8; stroke-linecap: square"/>
     </g>
     <g id="line2d_34">
      <g>
       <use xlink:href="#ma4bd7eef24" x="55.772054" y="316.387496" style="stroke: #000000; stroke-width: 0.8"/>
      </g>
     </g>
     <g id="text_32">
      <!-- $\mathdefault{10^{0}}$ -->
      <g transform="translate(31.172054 320.186715) scale(0.1 -0.1)">
       <use xlink:href="#DejaVuSans-31" transform="translate(0 0.765625)"/>
       <use xlink:href="#DejaVuSans-30" transform="translate(63.623047 0.765625)"/>
       <use xlink:href="#DejaVuSans-30" transform="translate(128.203125 39.046875) scale(0.7)"/>
      </g>
     </g>
    </g>
    <g id="ytick_3">
     <g id="line2d_35">
      <path d="M 55.772054 207.442432 
L 1429.2 207.442432 
" clip-path="url(#p8b4459553f)" style="fill: none; stroke: #b0b0b0; stroke-opacity: 0.4; stroke-width: 0.8; stroke-linecap: square"/>
     </g>
     <g id="line2d_36">
      <g>
       <use xlink:href="#ma4bd7eef24" x="55.772054" y="207.442432" style="stroke: #000000; stroke-width: 0.8"/>
      </g>
     </g>
     <g id="text_33">
      <!-- $\mathdefault{10^{1}}$ -->
      <g transform="translate(31.172054 211.24165) scale(0.1 -0.1)">
       <use xlink:href="#DejaVuSans-31" transform="translate(0 0.684375)"/>
       <use xlink:href="#DejaVuSans-30" transform="translate(63.623047 0.684375)"/>
       <use xlink:href="#DejaVuSans-31" transform="translate(128.203125 38.965625) scale(0.7)"/>
      </g>
     </g>
    </g>
    <g id="ytick_4">
     <g id="line2d_37">
      <path d="M 55.772054 98.497367 
L 1429.2 98.497367 
" clip-path="url(#p8b4459553f)" style="fill: none; stroke: #b0b0b0; stroke-opacity: 0.4; stroke-width: 0.8; stroke-linecap: square"/>
     </g>
     <g id="line2d_38">
      <g>
       <use xlink:href="#ma4bd7eef24" x="55.772054" y="98.497367" style="stroke: #000000; stroke-width: 0.8"/>
      </g>
     </g>
     <g id="text_34">
      <!-- $\mathdefault{10^{2}}$ -->
      <g transform="translate(31.172054 102.296586) scale(0.1 -0.1)">
       <use xlink:href="#DejaVuSans-31" transform="translate(0 0.765625)"/>
       <use xlink:href="#DejaVuSans-30" transform="translate(63.623047 0.765625)"/>
       <use xlink:href="#DejaVuSans-32" transform="translate(128.203125 39.046875) scale(0.7)"/>
      </g>
     </g>
    </g>
    <g id="ytick_5">
     <g id="line2d_39">
      <defs>
       <path id="m0fa7ca72a3" d="M 0 0 
L -2 0 
" style="stroke: #000000; stroke-width: 0.6"/>
      </defs>
      <g>
       <use xlink:href="#m0fa7ca72a3" x="55.772054" y="501.481893" style="stroke: #000000; stroke-width: 0.6"/>
      </g>
     </g>
    </g>
    <g id="ytick_6">
     <g id="line2d_40">
      <g>
       <use xlink:href="#m0fa7ca72a3" x="55.772054" y="482.29762" style="stroke: #000000; stroke-width: 0.6"/>
      </g>
     </g>
    </g>
    <g id="ytick_7">
     <g id="line2d_41">
      <g>
       <use xlink:href="#m0fa7ca72a3" x="55.772054" y="468.686161" style="stroke: #000000; stroke-width: 0.6"/>
      </g>
     </g>
    </g>
    <g id="ytick_8">
     <g id="line2d_42">
      <g>
       <use xlink:href="#m0fa7ca72a3" x="55.772054" y="458.128293" style="stroke: #000000; stroke-width: 0.6"/>
      </g>
     </g>
    </g>
    <g id="ytick_9">
     <g id="line2d_43">
      <g>
       <use xlink:href="#m0fa7ca72a3" x="55.772054" y="449.501887" style="stroke: #000000; stroke-width: 0.6"/>
      </g>
     </g>
    </g>
    <g id="ytick_10">
     <g id="line2d_44">
      <g>
       <use xlink:href="#m0fa7ca72a3" x="55.772054" y="442.208365" style="stroke: #000000; stroke-width: 0.6"/>
      </g>
     </g>
    </g>
    <g id="ytick_11">
     <g id="line2d_45">
      <g>
       <use xlink:href="#m0fa7ca72a3" x="55.772054" y="435.890429" style="stroke: #000000; stroke-width: 0.6"/>
      </g>
     </g>
    </g>
    <g id="ytick_12">
     <g id="line2d_46">
      <g>
       <use xlink:href="#m0fa7ca72a3" x="55.772054" y="430.317614" style="stroke: #000000; stroke-width: 0.6"/>
      </g>
     </g>
    </g>
    <g id="ytick_13">
     <g id="line2d_47">
      <g>
       <use xlink:href="#m0fa7ca72a3" x="55.772054" y="392.536829" style="stroke: #000000; stroke-width: 0.6"/>
      </g>
     </g>
    </g>
    <g id="ytick_14">
     <g id="line2d_48">
      <g>
       <use xlink:href="#m0fa7ca72a3" x="55.772054" y="373.352555" style="stroke: #000000; stroke-width: 0.6"/>
      </g>
     </g>
    </g>
    <g id="ytick_15">
     <g id="line2d_49">
      <g>
       <use xlink:href="#m0fa7ca72a3" x="55.772054" y="359.741096" style="stroke: #000000; stroke-width: 0.6"/>
      </g>
     </g>
    </g>
    <g id="ytick_16">
     <g id="line2d_50">
      <g>
       <use xlink:href="#m0fa7ca72a3" x="55.772054" y="349.183229" style="stroke: #000000; stroke-width: 0.6"/>
      </g>
     </g>
    </g>
    <g id="ytick_17">
     <g id="line2d_51">
      <g>
       <use xlink:href="#m0fa7ca72a3" x="55.772054" y="340.556823" style="stroke: #000000; stroke-width: 0.6"/>
      </g>
     </g>
    </g>
    <g id="ytick_18">
     <g id="line2d_52">
      <g>
       <use xlink:href="#m0fa7ca72a3" x="55.772054" y="333.2633" style="stroke: #000000; stroke-width: 0.6"/>
      </g>
     </g>
    </g>
    <g id="ytick_19">
     <g id="line2d_53">
      <g>
       <use xlink:href="#m0fa7ca72a3" x="55.772054" y="326.945364" style="stroke: #000000; stroke-width: 0.6"/>
      </g>
     </g>
    </g>
    <g id="ytick_20">
     <g id="line2d_54">
      <g>
       <use xlink:href="#m0fa7ca72a3" x="55.772054" y="321.372549" style="stroke: #000000; stroke-width: 0.6"/>
      </g>
     </g>
    </g>
    <g id="ytick_21">
     <g id="line2d_55">
      <g>
       <use xlink:href="#m0fa7ca72a3" x="55.772054" y="283.591764" style="stroke: #000000; stroke-width: 0.6"/>
      </g>
     </g>
    </g>
    <g id="ytick_22">
     <g id="line2d_56">
      <g>
       <use xlink:href="#m0fa7ca72a3" x="55.772054" y="264.40749" style="stroke: #000000; stroke-width: 0.6"/>
      </g>
     </g>
    </g>
    <g id="ytick_23">
     <g id="line2d_57">
      <g>
       <use xlink:href="#m0fa7ca72a3" x="55.772054" y="250.796032" style="stroke: #000000; stroke-width: 0.6"/>
      </g>
     </g>
    </g>
    <g id="ytick_24">
     <g id="line2d_58">
      <g>
       <use xlink:href="#m0fa7ca72a3" x="55.772054" y="240.238164" style="stroke: #000000; stroke-width: 0.6"/>
      </g>
     </g>
    </g>
    <g id="ytick_25">
     <g id="line2d_59">
      <g>
       <use xlink:href="#m0fa7ca72a3" x="55.772054" y="231.611758" style="stroke: #000000; stroke-width: 0.6"/>
      </g>
     </g>
    </g>
    <g id="ytick_26">
     <g id="line2d_60">
      <g>
       <use xlink:href="#m0fa7ca72a3" x="55.772054" y="224.318236" style="stroke: #000000; stroke-width: 0.6"/>
      </g>
     </g>
    </g>
    <g id="ytick_27">
     <g id="line2d_61">
      <g>
       <use xlink:href="#m0fa7ca72a3" x="55.772054" y="218.000299" style="stroke: #000000; stroke-width: 0.6"/>
      </g>
     </g>
    </g>
    <g id="ytick_28">
     <g id="line2d_62">
      <g>
       <use xlink:href="#m0fa7ca72a3" x="55.772054" y="212.427484" style="stroke: #000000; stroke-width: 0.6"/>
      </g>
     </g>
    </g>
    <g id="ytick_29">
     <g id="line2d_63">
      <g>
       <use xlink:href="#m0fa7ca72a3" x="55.772054" y="174.646699" style="stroke: #000000; stroke-width: 0.6"/>
      </g>
     </g>
    </g>
    <g id="ytick_30">
     <g id="line2d_64">
      <g>
       <use xlink:href="#m0fa7ca72a3" x="55.772054" y="155.462426" style="stroke: #000000; stroke-width: 0.6"/>
      </g>
     </g>
    </g>
    <g id="ytick_31">
     <g id="line2d_65">
      <g>
       <use xlink:href="#m0fa7ca72a3" x="55.772054" y="141.850967" style="stroke: #000000; stroke-width: 0.6"/>
      </g>
     </g>
    </g>
    <g id="ytick_32">
     <g id="line2d_66">
      <g>
       <use xlink:href="#m0fa7ca72a3" x="55.772054" y="131.293099" style="stroke: #000000; stroke-width: 0.6"/>
      </g>
     </g>
    </g>
    <g id="ytick_33">
     <g id="line2d_67">
      <g>
       <use xlink:href="#m0fa7ca72a3" x="55.772054" y="122.666693" style="stroke: #000000; stroke-width: 0.6"/>
      </g>
     </g>
    </g>
    <g id="ytick_34">
     <g id="line2d_68">
      <g>
       <use xlink:href="#m0fa7ca72a3" x="55.772054" y="115.373171" style="stroke: #000000; stroke-width: 0.6"/>
      </g>
     </g>
    </g>
    <g id="ytick_35">
     <g id="line2d_69">
      <g>
       <use xlink:href="#m0fa7ca72a3" x="55.772054" y="109.055234" style="stroke: #000000; stroke-width: 0.6"/>
      </g>
     </g>
    </g>
    <g id="ytick_36">
     <g id="line2d_70">
      <g>
       <use xlink:href="#m0fa7ca72a3" x="55.772054" y="103.48242" style="stroke: #000000; stroke-width: 0.6"/>
      </g>
     </g>
    </g>
    <g id="ytick_37">
     <g id="line2d_71">
      <g>
       <use xlink:href="#m0fa7ca72a3" x="55.772054" y="65.701634" style="stroke: #000000; stroke-width: 0.6"/>
      </g>
     </g>
    </g>
    <g id="ytick_38">
     <g id="line2d_72">
      <g>
       <use xlink:href="#m0fa7ca72a3" x="55.772054" y="46.517361" style="stroke: #000000; stroke-width: 0.6"/>
      </g>
     </g>
    </g>
    <g id="ytick_39">
     <g id="line2d_73">
      <g>
       <use xlink:href="#m0fa7ca72a3" x="55.772054" y="32.905902" style="stroke: #000000; stroke-width: 0.6"/>
      </g>
     </g>
    </g>
    <g id="text_35">
     <!-- Calibration Error (%) -->
     <g transform="translate(19.192366 330.706237) rotate(-90) scale(0.1 -0.1)">
      <defs>
       <path id="DejaVuSans-43" d="M 4122 4306 
L 4122 3641 
Q 3803 3938 3442 4084 
Q 3081 4231 2675 4231 
Q 1875 4231 1450 3742 
Q 1025 3253 1025 2328 
Q 1025 1406 1450 917 
Q 1875 428 2675 428 
Q 3081 428 3442 575 
Q 3803 722 4122 1019 
L 4122 359 
Q 3791 134 3420 21 
Q 3050 -91 2638 -91 
Q 1578 -91 968 557 
Q 359 1206 359 2328 
Q 359 3453 968 4101 
Q 1578 4750 2638 4750 
Q 3056 4750 3426 4639 
Q 3797 4528 4122 4306 
z
" transform="scale(0.015625)"/>
       <path id="DejaVuSans-6c" d="M 603 4863 
L 1178 4863 
L 1178 0 
L 603 0 
L 603 4863 
z
" transform="scale(0.015625)"/>
       <path id="DejaVuSans-69" d="M 603 3500 
L 1178 3500 
L 1178 0 
L 603 0 
L 603 3500 
z
M 603 4863 
L 1178 4863 
L 1178 4134 
L 603 4134 
L 603 4863 
z
" transform="scale(0.015625)"/>
       <path id="DejaVuSans-74" d="M 1172 4494 
L 1172 3500 
L 2356 3500 
L 2356 3053 
L 1172 3053 
L 1172 1153 
Q 1172 725 1289 603 
Q 1406 481 1766 481 
L 2356 481 
L 2356 0 
L 1766 0 
Q 1100 0 847 248 
Q 594 497 594 1153 
L 594 3053 
L 172 3053 
L 172 3500 
L 594 3500 
L 594 4494 
L 1172 4494 
z
" transform="scale(0.015625)"/>
       <path id="DejaVuSans-6f" d="M 1959 3097 
Q 1497 3097 1228 2736 
Q 959 2375 959 1747 
Q 959 1119 1226 758 
Q 1494 397 1959 397 
Q 2419 397 2687 759 
Q 2956 1122 2956 1747 
Q 2956 2369 2687 2733 
Q 2419 3097 1959 3097 
z
M 1959 3584 
Q 2709 3584 3137 3096 
Q 3566 2609 3566 1747 
Q 3566 888 3137 398 
Q 2709 -91 1959 -91 
Q 1206 -91 779 398 
Q 353 888 353 1747 
Q 353 2609 779 3096 
Q 1206 3584 1959 3584 
z
" transform="scale(0.015625)"/>
       <path id="DejaVuSans-6e" d="M 3513 2113 
L 3513 0 
L 2938 0 
L 2938 2094 
Q 2938 2591 2744 2837 
Q 2550 3084 2163 3084 
Q 1697 3084 1428 2787 
Q 1159 2491 1159 1978 
L 1159 0 
L 581 0 
L 581 3500 
L 1159 3500 
L 1159 2956 
Q 1366 3272 1645 3428 
Q 1925 3584 2291 3584 
Q 2894 3584 3203 3211 
Q 3513 2838 3513 2113 
z
" transform="scale(0.015625)"/>
       <path id="DejaVuSans-20" transform="scale(0.015625)"/>
       <path id="DejaVuSans-45" d="M 628 4666 
L 3578 4666 
L 3578 4134 
L 1259 4134 
L 1259 2753 
L 3481 2753 
L 3481 2222 
L 1259 2222 
L 1259 531 
L 3634 531 
L 3634 0 
L 628 0 
L 628 4666 
z
" transform="scale(0.015625)"/>
       <path id="DejaVuSans-28" d="M 1984 4856 
Q 1566 4138 1362 3434 
Q 1159 2731 1159 2009 
Q 1159 1288 1364 580 
Q 1569 -128 1984 -844 
L 1484 -844 
Q 1016 -109 783 600 
Q 550 1309 550 2009 
Q 550 2706 781 3412 
Q 1013 4119 1484 4856 
L 1984 4856 
z
" transform="scale(0.015625)"/>
       <path id="DejaVuSans-25" d="M 4653 2053 
Q 4381 2053 4226 1822 
Q 4072 1591 4072 1178 
Q 4072 772 4226 539 
Q 4381 306 4653 306 
Q 4919 306 5073 539 
Q 5228 772 5228 1178 
Q 5228 1588 5073 1820 
Q 4919 2053 4653 2053 
z
M 4653 2450 
Q 5147 2450 5437 2106 
Q 5728 1763 5728 1178 
Q 5728 594 5436 251 
Q 5144 -91 4653 -91 
Q 4153 -91 3862 251 
Q 3572 594 3572 1178 
Q 3572 1766 3864 2108 
Q 4156 2450 4653 2450 
z
M 1428 4353 
Q 1159 4353 1004 4120 
Q 850 3888 850 3481 
Q 850 3069 1003 2837 
Q 1156 2606 1428 2606 
Q 1700 2606 1854 2837 
Q 2009 3069 2009 3481 
Q 2009 3884 1853 4118 
Q 1697 4353 1428 4353 
z
M 4250 4750 
L 4750 4750 
L 1831 -91 
L 1331 -91 
L 4250 4750 
z
M 1428 4750 
Q 1922 4750 2215 4408 
Q 2509 4066 2509 3481 
Q 2509 2891 2217 2550 
Q 1925 2209 1428 2209 
Q 931 2209 642 2551 
Q 353 2894 353 3481 
Q 353 4063 643 4406 
Q 934 4750 1428 4750 
z
" transform="scale(0.015625)"/>
       <path id="DejaVuSans-29" d="M 513 4856 
L 1013 4856 
Q 1481 4119 1714 3412 
Q 1947 2706 1947 2009 
Q 1947 1309 1714 600 
Q 1481 -109 1013 -844 
L 513 -844 
Q 928 -128 1133 580 
Q 1338 1288 1338 2009 
Q 1338 2731 1133 3434 
Q 928 4138 513 4856 
z
" transform="scale(0.015625)"/>
      </defs>
      <use xlink:href="#DejaVuSans-43"/>
      <use xlink:href="#DejaVuSans-61" transform="translate(69.824219 0)"/>
      <use xlink:href="#DejaVuSans-6c" transform="translate(131.103516 0)"/>
      <use xlink:href="#DejaVuSans-69" transform="translate(158.886719 0)"/>
      <use xlink:href="#DejaVuSans-62" transform="translate(186.669922 0)"/>
      <use xlink:href="#DejaVuSans-72" transform="translate(250.146484 0)"/>
      <use xlink:href="#DejaVuSans-61" transform="translate(291.259766 0)"/>
      <use xlink:href="#DejaVuSans-74" transform="translate(352.539062 0)"/>
      <use xlink:href="#DejaVuSans-69" transform="translate(391.748047 0)"/>
      <use xlink:href="#DejaVuSans-6f" transform="translate(419.53125 0)"/>
      <use xlink:href="#DejaVuSans-6e" transform="translate(480.712891 0)"/>
      <use xlink:href="#DejaVuSans-20" transform="translate(544.091797 0)"/>
      <use xlink:href="#DejaVuSans-45" transform="translate(575.878906 0)"/>
      <use xlink:href="#DejaVuSans-72" transform="translate(639.0625 0)"/>
      <use xlink:href="#DejaVuSans-72" transform="translate(678.425781 0)"/>
      <use xlink:href="#DejaVuSans-6f" transform="translate(717.289062 0)"/>
      <use xlink:href="#DejaVuSans-72" transform="translate(778.470703 0)"/>
      <use xlink:href="#DejaVuSans-20" transform="translate(819.583984 0)"/>
      <use xlink:href="#DejaVuSans-28" transform="translate(851.371094 0)"/>
      <use xlink:href="#DejaVuSans-25" transform="translate(890.384766 0)"/>
      <use xlink:href="#DejaVuSans-29" transform="translate(985.404297 0)"/>
     </g>
    </g>
   </g>
   <g id="patch_123">
    <path d="M 55.772054 532.09185 
L 55.772054 26.88 
" style="fill: none; stroke: #000000; stroke-width: 0.8; stroke-linejoin: miter; stroke-linecap: square"/>
   </g>
   <g id="patch_124">
    <path d="M 1429.2 532.09185 
L 1429.2 26.88 
" style="fill: none; stroke: #000000; stroke-width: 0.8; stroke-linejoin: miter; stroke-linecap: square"/>
   </g>
   <g id="patch_125">
    <path d="M 55.772054 532.09185 
L 1429.2 532.09185 
" style="fill: none; stroke: #000000; stroke-width: 0.8; stroke-linejoin: miter; stroke-linecap: square"/>
   </g>
   <g id="patch_126">
    <path d="M 55.772054 26.88 
L 1429.2 26.88 
" style="fill: none; stroke: #000000; stroke-width: 0.8; stroke-linejoin: miter; stroke-linecap: square"/>
   </g>
   <g id="text_36">
    <!-- Calibration Accuracy Comparison (All Parameters) -->
    <g transform="translate(592.434464 20.88) scale(0.12 -0.12)">
     <defs>
      <path id="DejaVuSans-41" d="M 2188 4044 
L 1331 1722 
L 3047 1722 
L 2188 4044 
z
M 1831 4666 
L 2547 4666 
L 4325 0 
L 3669 0 
L 3244 1197 
L 1141 1197 
L 716 0 
L 50 0 
L 1831 4666 
z
" transform="scale(0.015625)"/>
      <path id="DejaVuSans-63" d="M 3122 3366 
L 3122 2828 
Q 2878 2963 2633 3030 
Q 2388 3097 2138 3097 
Q 1578 3097 1268 2742 
Q 959 2388 959 1747 
Q 959 1106 1268 751 
Q 1578 397 2138 397 
Q 2388 397 2633 464 
Q 2878 531 3122 666 
L 3122 134 
Q 2881 22 2623 -34 
Q 2366 -91 2075 -91 
Q 1284 -91 818 406 
Q 353 903 353 1747 
Q 353 2603 823 3093 
Q 1294 3584 2113 3584 
Q 2378 3584 2631 3529 
Q 2884 3475 3122 3366 
z
" transform="scale(0.015625)"/>
      <path id="DejaVuSans-75" d="M 544 1381 
L 544 3500 
L 1119 3500 
L 1119 1403 
Q 1119 906 1312 657 
Q 1506 409 1894 409 
Q 2359 409 2629 706 
Q 2900 1003 2900 1516 
L 2900 3500 
L 3475 3500 
L 3475 0 
L 2900 0 
L 2900 538 
Q 2691 219 2414 64 
Q 2138 -91 1772 -91 
Q 1169 -91 856 284 
Q 544 659 544 1381 
z
M 1991 3584 
L 1991 3584 
z
" transform="scale(0.015625)"/>
      <path id="DejaVuSans-6d" d="M 3328 2828 
Q 3544 3216 3844 3400 
Q 4144 3584 4550 3584 
Q 5097 3584 5394 3201 
Q 5691 2819 5691 2113 
L 5691 0 
L 5113 0 
L 5113 2094 
Q 5113 2597 4934 2840 
Q 4756 3084 4391 3084 
Q 3944 3084 3684 2787 
Q 3425 2491 3425 1978 
L 3425 0 
L 2847 0 
L 2847 2094 
Q 2847 2600 2669 2842 
Q 2491 3084 2119 3084 
Q 1678 3084 1418 2786 
Q 1159 2488 1159 1978 
L 1159 0 
L 581 0 
L 581 3500 
L 1159 3500 
L 1159 2956 
Q 1356 3278 1631 3431 
Q 1906 3584 2284 3584 
Q 2666 3584 2933 3390 
Q 3200 3197 3328 2828 
z
" transform="scale(0.015625)"/>
      <path id="DejaVuSans-70" d="M 1159 525 
L 1159 -1331 
L 581 -1331 
L 581 3500 
L 1159 3500 
L 1159 2969 
Q 1341 3281 1617 3432 
Q 1894 3584 2278 3584 
Q 2916 3584 3314 3078 
Q 3713 2572 3713 1747 
Q 3713 922 3314 415 
Q 2916 -91 2278 -91 
Q 1894 -91 1617 61 
Q 1341 213 1159 525 
z
M 3116 1747 
Q 3116 2381 2855 2742 
Q 2594 3103 2138 3103 
Q 1681 3103 1420 2742 
Q 1159 2381 1159 1747 
Q 1159 1113 1420 752 
Q 1681 391 2138 391 
Q 2594 391 2855 752 
Q 3116 1113 3116 1747 
z
" transform="scale(0.015625)"/>
      <path id="DejaVuSans-73" d="M 2834 3397 
L 2834 2853 
Q 2591 2978 2328 3040 
Q 2066 3103 1784 3103 
Q 1356 3103 1142 2972 
Q 928 2841 928 2578 
Q 928 2378 1081 2264 
Q 1234 2150 1697 2047 
L 1894 2003 
Q 2506 1872 2764 1633 
Q 3022 1394 3022 966 
Q 3022 478 2636 193 
Q 2250 -91 1575 -91 
Q 1294 -91 989 -36 
Q 684 19 347 128 
L 347 722 
Q 666 556 975 473 
Q 1284 391 1588 391 
Q 1994 391 2212 530 
Q 2431 669 2431 922 
Q 2431 1156 2273 1281 
Q 2116 1406 1581 1522 
L 1381 1569 
Q 847 1681 609 1914 
Q 372 2147 372 2553 
Q 372 3047 722 3315 
Q 1072 3584 1716 3584 
Q 2034 3584 2315 3537 
Q 2597 3491 2834 3397 
z
" transform="scale(0.015625)"/>
      <path id="DejaVuSans-50" d="M 1259 4147 
L 1259 2394 
L 2053 2394 
Q 2494 2394 2734 2622 
Q 2975 2850 2975 3272 
Q 2975 3691 2734 3919 
Q 2494 4147 2053 4147 
L 1259 4147 
z
M 628 4666 
L 2053 4666 
Q 2838 4666 3239 4311 
Q 3641 3956 3641 3272 
Q 3641 2581 3239 2228 
Q 2838 1875 2053 1875 
L 1259 1875 
L 1259 0 
L 628 0 
L 628 4666 
z
" transform="scale(0.015625)"/>
     </defs>
     <use xlink:href="#DejaVuSans-43"/>
     <use xlink:href="#DejaVuSans-61" transform="translate(69.824219 0)"/>
     <use xlink:href="#DejaVuSans-6c" transform="translate(131.103516 0)"/>
     <use xlink:href="#DejaVuSans-69" transform="translate(158.886719 0)"/>
     <use xlink:href="#DejaVuSans-62" transform="translate(186.669922 0)"/>
     <use xlink:href="#DejaVuSans-72" transform="translate(250.146484 0)"/>
     <use xlink:href="#DejaVuSans-61" transform="translate(291.259766 0)"/>
     <use xlink:href="#DejaVuSans-74" transform="translate(352.539062 0)"/>
     <use xlink:href="#DejaVuSans-69" transform="translate(391.748047 0)"/>
     <use xlink:href="#DejaVuSans-6f" transform="translate(419.53125 0)"/>
     <use xlink:href="#DejaVuSans-6e" transform="translate(480.712891 0)"/>
     <use xlink:href="#DejaVuSans-20" transform="translate(544.091797 0)"/>
     <use xlink:href="#DejaVuSans-41" transform="translate(575.878906 0)"/>
     <use xlink:href="#DejaVuSans-63" transform="translate(642.537109 0)"/>
     <use xlink:href="#DejaVuSans-63" transform="translate(697.517578 0)"/>
     <use xlink:href="#DejaVuSans-75" transform="translate(752.498047 0)"/>
     <use xlink:href="#DejaVuSans-72" transform="translate(815.876953 0)"/>
     <use xlink:href="#DejaVuSans-61" transform="translate(856.990234 0)"/>
     <use xlink:href="#DejaVuSans-63" transform="translate(918.269531 0)"/>
     <use xlink:href="#DejaVuSans-79" transform="translate(973.25 0)"/>
     <use xlink:href="#DejaVuSans-20" transform="translate(1032.429688 0)"/>
     <use xlink:href="#DejaVuSans-43" transform="translate(1064.216797 0)"/>
     <use xlink:href="#DejaVuSans-6f" transform="translate(1134.041016 0)"/>
     <use xlink:href="#DejaVuSans-6d" transform="translate(1195.222656 0)"/>
     <use xlink:href="#DejaVuSans-70" transform="translate(1292.634766 0)"/>
     <use xlink:href="#DejaVuSans-61" transform="translate(1356.111328 0)"/>
     <use xlink:href="#DejaVuSans-72" transform="translate(1417.390625 0)"/>
     <use xlink:href="#DejaVuSans-69" transform="translate(1458.503906 0)"/>
     <use xlink:href="#DejaVuSans-73" transform="translate(1486.287109 0)"/>
     <use xlink:href="#DejaVuSans-6f" transform="translate(1538.386719 0)"/>
     <use xlink:href="#DejaVuSans-6e" transform="translate(1599.568359 0)"/>
     <use xlink:href="#DejaVuSans-20" transform="translate(1662.947266 0)"/>
     <use xlink:href="#DejaVuSans-28" transform="translate(1694.734375 0)"/>
     <use xlink:href="#DejaVuSans-41" transform="translate(1733.748047 0)"/>
     <use xlink:href="#DejaVuSans-6c" transform="translate(1802.15625 0)"/>
     <use xlink:href="#DejaVuSans-6c" transform="translate(1829.939453 0)"/>
     <use xlink:href="#DejaVuSans-20" transform="translate(1857.722656 0)"/>
     <use xlink:href="#DejaVuSans-50" transform="translate(1889.509766 0)"/>
     <use xlink:href="#DejaVuSans-61" transform="translate(1945.3125 0)"/>
     <use xlink:href="#DejaVuSans-72" transform="translate(2006.591797 0)"/>
     <use xlink:href="#DejaVuSans-61" transform="translate(2047.705078 0)"/>
     <use xlink:href="#DejaVuSans-6d" transform="translate(2108.984375 0)"/>
     <use xlink:href="#DejaVuSans-65" transform="translate(2206.396484 0)"/>
     <use xlink:href="#DejaVuSans-74" transform="translate(2267.919922 0)"/>
     <use xlink:href="#DejaVuSans-65" transform="translate(2307.128906 0)"/>
     <use xlink:href="#DejaVuSans-72" transform="translate(2368.652344 0)"/>
     <use xlink:href="#DejaVuSans-73" transform="translate(2409.765625 0)"/>
     <use xlink:href="#DejaVuSans-29" transform="translate(2461.865234 0)"/>
    </g>
   </g>
   <g id="legend_1">
    <g id="patch_127">
     <path d="M 1353.85875 86.92125 
L 1422.9 86.92125 
Q 1424.7 86.92125 1424.7 85.12125 
L 1424.7 33.18 
Q 1424.7 31.38 1422.9 31.38 
L 1353.85875 31.38 
Q 1352.05875 31.38 1352.05875 33.18 
L 1352.05875 85.12125 
Q 1352.05875 86.92125 1353.85875 86.92125 
z
" style="fill: #ffffff; opacity: 0.8; stroke: #cccccc; stroke-linejoin: miter"/>
    </g>
    <g id="patch_128">
     <path d="M 1355.65875 41.818594 
L 1373.65875 41.818594 
L 1373.65875 35.518594 
L 1355.65875 35.518594 
z
" style="fill: #4682b4; opacity: 0.85"/>
    </g>
    <g id="text_37">
     <!-- 39-Clean -->
     <g transform="translate(1380.85875 41.818594) scale(0.09 -0.09)">
      <defs>
       <path id="DejaVuSans-33" d="M 2597 2516 
Q 3050 2419 3304 2112 
Q 3559 1806 3559 1356 
Q 3559 666 3084 287 
Q 2609 -91 1734 -91 
Q 1441 -91 1130 -33 
Q 819 25 488 141 
L 488 750 
Q 750 597 1062 519 
Q 1375 441 1716 441 
Q 2309 441 2620 675 
Q 2931 909 2931 1356 
Q 2931 1769 2642 2001 
Q 2353 2234 1838 2234 
L 1294 2234 
L 1294 2753 
L 1863 2753 
Q 2328 2753 2575 2939 
Q 2822 3125 2822 3475 
Q 2822 3834 2567 4026 
Q 2313 4219 1838 4219 
Q 1578 4219 1281 4162 
Q 984 4106 628 3988 
L 628 4550 
Q 988 4650 1302 4700 
Q 1616 4750 1894 4750 
Q 2613 4750 3031 4423 
Q 3450 4097 3450 3541 
Q 3450 3153 3228 2886 
Q 3006 2619 2597 2516 
z
" transform="scale(0.015625)"/>
       <path id="DejaVuSans-39" d="M 703 97 
L 703 672 
Q 941 559 1184 500 
Q 1428 441 1663 441 
Q 2288 441 2617 861 
Q 2947 1281 2994 2138 
Q 2813 1869 2534 1725 
Q 2256 1581 1919 1581 
Q 1219 1581 811 2004 
Q 403 2428 403 3163 
Q 403 3881 828 4315 
Q 1253 4750 1959 4750 
Q 2769 4750 3195 4129 
Q 3622 3509 3622 2328 
Q 3622 1225 3098 567 
Q 2575 -91 1691 -91 
Q 1453 -91 1209 -44 
Q 966 3 703 97 
z
M 1959 2075 
Q 2384 2075 2632 2365 
Q 2881 2656 2881 3163 
Q 2881 3666 2632 3958 
Q 2384 4250 1959 4250 
Q 1534 4250 1286 3958 
Q 1038 3666 1038 3163 
Q 1038 2656 1286 2365 
Q 1534 2075 1959 2075 
z
" transform="scale(0.015625)"/>
       <path id="DejaVuSans-2d" d="M 313 2009 
L 1997 2009 
L 1997 1497 
L 313 1497 
L 313 2009 
z
" transform="scale(0.015625)"/>
      </defs>
      <use xlink:href="#DejaVuSans-33"/>
      <use xlink:href="#DejaVuSans-39" transform="translate(63.623047 0)"/>
      <use xlink:href="#DejaVuSans-2d" transform="translate(127.246094 0)"/>
      <use xlink:href="#DejaVuSans-43" transform="translate(163.330078 0)"/>
      <use xlink:href="#DejaVuSans-6c" transform="translate(233.154297 0)"/>
      <use xlink:href="#DejaVuSans-65" transform="translate(260.9375 0)"/>
      <use xlink:href="#DejaVuSans-61" transform="translate(322.460938 0)"/>
      <use xlink:href="#DejaVuSans-6e" transform="translate(383.740234 0)"/>
     </g>
    </g>
    <g id="patch_129">
     <path d="M 1355.65875 55.028906 
L 1373.65875 55.028906 
L 1373.65875 48.728906 
L 1355.65875 48.728906 
z
" style="fill: #ff6347; opacity: 0.85"/>
    </g>
    <g id="text_38">
     <!-- 39-Noisy -->
     <g transform="translate(1380.85875 55.028906) scale(0.09 -0.09)">
      <defs>
       <path id="DejaVuSans-4e" d="M 628 4666 
L 1478 4666 
L 3547 763 
L 3547 4666 
L 4159 4666 
L 4159 0 
L 3309 0 
L 1241 3903 
L 1241 0 
L 628 0 
L 628 4666 
z
" transform="scale(0.015625)"/>
      </defs>
      <use xlink:href="#DejaVuSans-33"/>
      <use xlink:href="#DejaVuSans-39" transform="translate(63.623047 0)"/>
      <use xlink:href="#DejaVuSans-2d" transform="translate(127.246094 0)"/>
      <use xlink:href="#DejaVuSans-4e" transform="translate(163.330078 0)"/>
      <use xlink:href="#DejaVuSans-6f" transform="translate(238.134766 0)"/>
      <use xlink:href="#DejaVuSans-69" transform="translate(299.316406 0)"/>
      <use xlink:href="#DejaVuSans-73" transform="translate(327.099609 0)"/>
      <use xlink:href="#DejaVuSans-79" transform="translate(379.199219 0)"/>
     </g>
    </g>
    <g id="patch_130">
     <path d="M 1355.65875 68.239219 
L 1373.65875 68.239219 
L 1373.65875 61.939219 
L 1355.65875 61.939219 
z
" style="fill: #228b22; opacity: 0.85"/>
    </g>
    <g id="text_39">
     <!-- 45-GM1 -->
     <g transform="translate(1380.85875 68.239219) scale(0.09 -0.09)">
      <defs>
       <path id="DejaVuSans-34" d="M 2419 4116 
L 825 1625 
L 2419 1625 
L 2419 4116 
z
M 2253 4666 
L 3047 4666 
L 3047 1625 
L 3713 1625 
L 3713 1100 
L 3047 1100 
L 3047 0 
L 2419 0 
L 2419 1100 
L 313 1100 
L 313 1709 
L 2253 4666 
z
" transform="scale(0.015625)"/>
       <path id="DejaVuSans-35" d="M 691 4666 
L 3169 4666 
L 3169 4134 
L 1269 4134 
L 1269 2991 
Q 1406 3038 1543 3061 
Q 1681 3084 1819 3084 
Q 2600 3084 3056 2656 
Q 3513 2228 3513 1497 
Q 3513 744 3044 326 
Q 2575 -91 1722 -91 
Q 1428 -91 1123 -41 
Q 819 9 494 109 
L 494 744 
Q 775 591 1075 516 
Q 1375 441 1709 441 
Q 2250 441 2565 725 
Q 2881 1009 2881 1497 
Q 2881 1984 2565 2268 
Q 2250 2553 1709 2553 
Q 1456 2553 1204 2497 
Q 953 2441 691 2322 
L 691 4666 
z
" transform="scale(0.015625)"/>
       <path id="DejaVuSans-47" d="M 3809 666 
L 3809 1919 
L 2778 1919 
L 2778 2438 
L 4434 2438 
L 4434 434 
Q 4069 175 3628 42 
Q 3188 -91 2688 -91 
Q 1594 -91 976 548 
Q 359 1188 359 2328 
Q 359 3472 976 4111 
Q 1594 4750 2688 4750 
Q 3144 4750 3555 4637 
Q 3966 4525 4313 4306 
L 4313 3634 
Q 3963 3931 3569 4081 
Q 3175 4231 2741 4231 
Q 1884 4231 1454 3753 
Q 1025 3275 1025 2328 
Q 1025 1384 1454 906 
Q 1884 428 2741 428 
Q 3075 428 3337 486 
Q 3600 544 3809 666 
z
" transform="scale(0.015625)"/>
       <path id="DejaVuSans-4d" d="M 628 4666 
L 1569 4666 
L 2759 1491 
L 3956 4666 
L 4897 4666 
L 4897 0 
L 4281 0 
L 4281 4097 
L 3078 897 
L 2444 897 
L 1241 4097 
L 1241 0 
L 628 0 
L 628 4666 
z
" transform="scale(0.015625)"/>
      </defs>
      <use xlink:href="#DejaVuSans-34"/>
      <use xlink:href="#DejaVuSans-35" transform="translate(63.623047 0)"/>
      <use xlink:href="#DejaVuSans-2d" transform="translate(127.246094 0)"/>
      <use xlink:href="#DejaVuSans-47" transform="translate(166.955078 0)"/>
      <use xlink:href="#DejaVuSans-4d" transform="translate(244.445312 0)"/>
      <use xlink:href="#DejaVuSans-31" transform="translate(330.724609 0)"/>
     </g>
    </g>
    <g id="patch_131">
     <path d="M 1355.65875 81.449531 
L 1373.65875 81.449531 
L 1373.65875 75.149531 
L 1355.65875 75.149531 
z
" style="fill: #ff8c00; opacity: 0.85"/>
    </g>
    <g id="text_40">
     <!-- 51-GM2 -->
     <g transform="translate(1380.85875 81.449531) scale(0.09 -0.09)">
      <use xlink:href="#DejaVuSans-35"/>
      <use xlink:href="#DejaVuSans-31" transform="translate(63.623047 0)"/>
      <use xlink:href="#DejaVuSans-2d" transform="translate(127.246094 0)"/>
      <use xlink:href="#DejaVuSans-47" transform="translate(166.955078 0)"/>
      <use xlink:href="#DejaVuSans-4d" transform="translate(244.445312 0)"/>
      <use xlink:href="#DejaVuSans-32" transform="translate(330.724609 0)"/>
     </g>
    </g>
   </g>
  </g>
 </g>
 <defs>
  <clipPath id="p8b4459553f">
   <rect x="55.772054" y="26.88" width="1373.427946" height="505.21185"/>
  </clipPath>
 </defs>
</svg>
