<?xml version="1.0" encoding="utf-8" standalone="no"?>
<!DOCTYPE svg PUBLIC "-//W3C//DTD SVG 1.1//EN"
  "http://www.w3.org/Graphics/SVG/1.1/DTD/svg11.dtd">
<svg xmlns:xlink="http://www.w3.org/1999/xlink" width="720pt" height="432pt" viewBox="0 0 720 432" xmlns="http://www.w3.org/2000/svg" version="1.1">
 <metadata>
  <rdf:RDF xmlns:dc="http://purl.org/dc/elements/1.1/" xmlns:cc="http://creativecommons.org/ns#" xmlns:rdf="http://www.w3.org/1999/02/22-rdf-syntax-ns#">
   <cc:Work>
    <dc:type rdf:resource="http://purl.org/dc/dcmitype/StillImage"/>
    <dc:date>2026-03-25T09:55:24.583043</dc:date>
    <dc:format>image/svg+xml</dc:format>
    <dc:creator>
     <cc:Agent>
      <dc:title>Matplotlib v3.10.8, https://matplotlib.org/</dc:title>
     </cc:Agent>
    </dc:creator>
   </cc:Work>
  </rdf:RDF>
 </metadata>
 <defs>
  <style type="text/css">*{stroke-linejoin: round; stroke-linecap: butt}</style>
 </defs>
 <g id="figure_1">
  <g id="patch_1">
   <path d="M 0 432 
L 720 432 
L 720 0 
L 0 0 
z
" style="fill: #ffffff"/>
  </g>
  <g id="axes_1">
   <g id="patch_2">
    <path d="M 90 384.48 
L 648 384.48 
L 648 51.84 
L 90 51.84 
z
" style="fill: #ffffff"/>
   </g>
   <g id="matplotlib.axis_1">
    <g id="xtick_1">
     <g id="line2d_1">
      <path d="M 115.363636 384.48 
L 115.363636 51.84 
" clip-path="url(#pe828aa8e4a)" style="fill: none; stroke: #b0b0b0; stroke-width: 0.8; stroke-linecap: square"/>
     </g>
     <g id="line2d_2">
      <defs>
       <path id="m634cedc43f" d="M 0 0 
L 0 3.5 
" style="stroke: #000000; stroke-width: 0.8"/>
      </defs>
      <g>
       <use xlink:href="#m634cedc43f" x="115.363636" y="384.48" style="stroke: #000000; stroke-width: 0.8"/>
      </g>
     </g>
     <g id="text_1">
      <!-- 0 -->
      <g transform="translate(112.182386 399.078438) scale(0.1 -0.1)">
       <defs>
        <path id="DejaVuSans-30" d="M 2034 4250 
Q 1547 4250 1301 3770 
Q 1056 3291 1056 2328 
Q 1056 1369 1301 889 
Q 1547 409 2034 409 
Q 2525 409 2770 889 
Q 3016 1369 3016 2328 
Q 3016 3291 2770 3770 
Q 2525 4250 2034 4250 
z
M 2034 4750 
Q 2819 4750 3233 4129 
Q 3647 3509 3647 2328 
Q 3647 1150 3233 529 
Q 2819 -91 2034 -91 
Q 1250 -91 836 529 
Q 422 1150 422 2328 
Q 422 3509 836 4129 
Q 1250 4750 2034 4750 
z
" transform="scale(0.015625)"/>
       </defs>
       <use xlink:href="#DejaVuSans-30"/>
      </g>
     </g>
    </g>
    <g id="xtick_2">
     <g id="line2d_3">
      <path d="M 201.605174 384.48 
L 201.605174 51.84 
" clip-path="url(#pe828aa8e4a)" style="fill: none; stroke: #b0b0b0; stroke-width: 0.8; stroke-linecap: square"/>
     </g>
     <g id="line2d_4">
      <g>
       <use xlink:href="#m634cedc43f" x="201.605174" y="384.48" style="stroke: #000000; stroke-width: 0.8"/>
      </g>
     </g>
     <g id="text_2">
      <!-- 50 -->
      <g transform="translate(195.242674 399.078438) scale(0.1 -0.1)">
       <defs>
        <path id="DejaVuSans-35" d="M 691 4666 
L 3169 4666 
L 3169 4134 
L 1269 4134 
L 1269 2991 
Q 1406 3038 1543 3061 
Q 1681 3084 1819 3084 
Q 2600 3084 3056 2656 
Q 3513 2228 3513 1497 
Q 3513 744 3044 326 
Q 2575 -91 1722 -91 
Q 1428 -91 1123 -41 
Q 819 9 494 109 
L 494 744 
Q 775 591 1075 516 
Q 1375 441 1709 441 
Q 2250 441 2565 725 
Q 2881 1009 2881 1497 
Q 2881 1984 2565 2268 
Q 2250 2553 1709 2553 
Q 1456 2553 1204 2497 
Q 953 2441 691 2322 
L 691 4666 
z
" transform="scale(0.015625)"/>
       </defs>
       <use xlink:href="#DejaVuSans-35"/>
       <use xlink:href="#DejaVuSans-30" transform="translate(63.623047 0)"/>
      </g>
     </g>
    </g>
    <g id="xtick_3">
     <g id="line2d_5">
      <path d="M 287.846713 384.48 
L 287.846713 51.84 
" clip-path="url(#pe828aa8e4a)" style="fill: none; stroke: #b0b0b0; stroke-width: 0.8; stroke-linecap: square"/>
     </g>
     <g id="line2d_6">
      <g>
       <use xlink:href="#m634cedc43f" x="287.846713" y="384.48" style="stroke: #000000; stroke-width: 0.8"/>
      </g>
     </g>
     <g id="text_3">
      <!-- 100 -->
      <g transform="translate(278.302963 399.078438) scale(0.1 -0.1)">
       <defs>
        <path id="DejaVuSans-31" d="M 794 531 
L 1825 531 
L 1825 4091 
L 703 3866 
L 703 4441 
L 1819 4666 
L 2450 4666 
L 2450 531 
L 3481 531 
L 3481 0 
L 794 0 
L 794 531 
z
" transform="scale(0.015625)"/>
       </defs>
       <use xlink:href="#DejaVuSans-31"/>
       <use xlink:href="#DejaVuSans-30" transform="translate(63.623047 0)"/>
       <use xlink:href="#DejaVuSans-30" transform="translate(127.246094 0)"/>
      </g>
     </g>
    </g>
    <g id="xtick_4">
     <g id="line2d_7">
      <path d="M 374.088251 384.48 
L 374.088251 51.84 
" clip-path="url(#pe828aa8e4a)" style="fill: none; stroke: #b0b0b0; stroke-width: 0.8; stroke-linecap: square"/>
     </g>
     <g id="line2d_8">
      <g>
       <use xlink:href="#m634cedc43f" x="374.088251" y="384.48" style="stroke: #000000; stroke-width: 0.8"/>
      </g>
     </g>
     <g id="text_4">
      <!-- 150 -->
      <g transform="translate(364.544501 399.078438) scale(0.1 -0.1)">
       <use xlink:href="#DejaVuSans-31"/>
       <use xlink:href="#DejaVuSans-35" transform="translate(63.623047 0)"/>
       <use xlink:href="#DejaVuSans-30" transform="translate(127.246094 0)"/>
      </g>
     </g>
    </g>
    <g id="xtick_5">
     <g id="line2d_9">
      <path d="M 460.329789 384.48 
L 460.329789 51.84 
" clip-path="url(#pe828aa8e4a)" style="fill: none; stroke: #b0b0b0; stroke-width: 0.8; stroke-linecap: square"/>
     </g>
     <g id="line2d_10">
      <g>
       <use xlink:href="#m634cedc43f" x="460.329789" y="384.48" style="stroke: #000000; stroke-width: 0.8"/>
      </g>
     </g>
     <g id="text_5">
      <!-- 200 -->
      <g transform="translate(450.786039 399.078438) scale(0.1 -0.1)">
       <defs>
        <path id="DejaVuSans-32" d="M 1228 531 
L 3431 531 
L 3431 0 
L 469 0 
L 469 531 
Q 828 903 1448 1529 
Q 2069 2156 2228 2338 
Q 2531 2678 2651 2914 
Q 2772 3150 2772 3378 
Q 2772 3750 2511 3984 
Q 2250 4219 1831 4219 
Q 1534 4219 1204 4116 
Q 875 4013 500 3803 
L 500 4441 
Q 881 4594 1212 4672 
Q 1544 4750 1819 4750 
Q 2544 4750 2975 4387 
Q 3406 4025 3406 3419 
Q 3406 3131 3298 2873 
Q 3191 2616 2906 2266 
Q 2828 2175 2409 1742 
Q 1991 1309 1228 531 
z
" transform="scale(0.015625)"/>
       </defs>
       <use xlink:href="#DejaVuSans-32"/>
       <use xlink:href="#DejaVuSans-30" transform="translate(63.623047 0)"/>
       <use xlink:href="#DejaVuSans-30" transform="translate(127.246094 0)"/>
      </g>
     </g>
    </g>
    <g id="xtick_6">
     <g id="line2d_11">
      <path d="M 546.571327 384.48 
L 546.571327 51.84 
" clip-path="url(#pe828aa8e4a)" style="fill: none; stroke: #b0b0b0; stroke-width: 0.8; stroke-linecap: square"/>
     </g>
     <g id="line2d_12">
      <g>
       <use xlink:href="#m634cedc43f" x="546.571327" y="384.48" style="stroke: #000000; stroke-width: 0.8"/>
      </g>
     </g>
     <g id="text_6">
      <!-- 250 -->
      <g transform="translate(537.027577 399.078438) scale(0.1 -0.1)">
       <use xlink:href="#DejaVuSans-32"/>
       <use xlink:href="#DejaVuSans-35" transform="translate(63.623047 0)"/>
       <use xlink:href="#DejaVuSans-30" transform="translate(127.246094 0)"/>
      </g>
     </g>
    </g>
    <g id="xtick_7">
     <g id="line2d_13">
      <path d="M 632.812865 384.48 
L 632.812865 51.84 
" clip-path="url(#pe828aa8e4a)" style="fill: none; stroke: #b0b0b0; stroke-width: 0.8; stroke-linecap: square"/>
     </g>
     <g id="line2d_14">
      <g>
       <use xlink:href="#m634cedc43f" x="632.812865" y="384.48" style="stroke: #000000; stroke-width: 0.8"/>
      </g>
     </g>
     <g id="text_7">
      <!-- 300 -->
      <g transform="translate(623.269115 399.078438) scale(0.1 -0.1)">
       <defs>
        <path id="DejaVuSans-33" d="M 2597 2516 
Q 3050 2419 3304 2112 
Q 3559 1806 3559 1356 
Q 3559 666 3084 287 
Q 2609 -91 1734 -91 
Q 1441 -91 1130 -33 
Q 819 25 488 141 
L 488 750 
Q 750 597 1062 519 
Q 1375 441 1716 441 
Q 2309 441 2620 675 
Q 2931 909 2931 1356 
Q 2931 1769 2642 2001 
Q 2353 2234 1838 2234 
L 1294 2234 
L 1294 2753 
L 1863 2753 
Q 2328 2753 2575 2939 
Q 2822 3125 2822 3475 
Q 2822 3834 2567 4026 
Q 2313 4219 1838 4219 
Q 1578 4219 1281 4162 
Q 984 4106 628 3988 
L 628 4550 
Q 988 4650 1302 4700 
Q 1616 4750 1894 4750 
Q 2613 4750 3031 4423 
Q 3450 4097 3450 3541 
Q 3450 3153 3228 2886 
Q 3006 2619 2597 2516 
z
" transform="scale(0.015625)"/>
       </defs>
       <use xlink:href="#DejaVuSans-33"/>
       <use xlink:href="#DejaVuSans-30" transform="translate(63.623047 0)"/>
       <use xlink:href="#DejaVuSans-30" transform="translate(127.246094 0)"/>
      </g>
     </g>
    </g>
    <g id="text_8">
     <!-- Maneuver Time (s) -->
     <g transform="translate(322.198438 412.756563) scale(0.1 -0.1)">
      <defs>
       <path id="DejaVuSans-4d" d="M 628 4666 
L 1569 4666 
L 2759 1491 
L 3956 4666 
L 4897 4666 
L 4897 0 
L 4281 0 
L 4281 4097 
L 3078 897 
L 2444 897 
L 1241 4097 
L 1241 0 
L 628 0 
L 628 4666 
z
" transform="scale(0.015625)"/>
       <path id="DejaVuSans-61" d="M 2194 1759 
Q 1497 1759 1228 1600 
Q 959 1441 959 1056 
Q 959 750 1161 570 
Q 1363 391 1709 391 
Q 2188 391 2477 730 
Q 2766 1069 2766 1631 
L 2766 1759 
L 2194 1759 
z
M 3341 1997 
L 3341 0 
L 2766 0 
L 2766 531 
Q 2569 213 2275 61 
Q 1981 -91 1556 -91 
Q 1019 -91 701 211 
Q 384 513 384 1019 
Q 384 1609 779 1909 
Q 1175 2209 1959 2209 
L 2766 2209 
L 2766 2266 
Q 2766 2663 2505 2880 
Q 2244 3097 1772 3097 
Q 1472 3097 1187 3025 
Q 903 2953 641 2809 
L 641 3341 
Q 956 3463 1253 3523 
Q 1550 3584 1831 3584 
Q 2591 3584 2966 3190 
Q 3341 2797 3341 1997 
z
" transform="scale(0.015625)"/>
       <path id="DejaVuSans-6e" d="M 3513 2113 
L 3513 0 
L 2938 0 
L 2938 2094 
Q 2938 2591 2744 2837 
Q 2550 3084 2163 3084 
Q 1697 3084 1428 2787 
Q 1159 2491 1159 1978 
L 1159 0 
L 581 0 
L 581 3500 
L 1159 3500 
L 1159 2956 
Q 1366 3272 1645 3428 
Q 1925 3584 2291 3584 
Q 2894 3584 3203 3211 
Q 3513 2838 3513 2113 
z
" transform="scale(0.015625)"/>
       <path id="DejaVuSans-65" d="M 3597 1894 
L 3597 1613 
L 953 1613 
Q 991 1019 1311 708 
Q 1631 397 2203 397 
Q 2534 397 2845 478 
Q 3156 559 3463 722 
L 3463 178 
Q 3153 47 2828 -22 
Q 2503 -91 2169 -91 
Q 1331 -91 842 396 
Q 353 884 353 1716 
Q 353 2575 817 3079 
Q 1281 3584 2069 3584 
Q 2775 3584 3186 3129 
Q 3597 2675 3597 1894 
z
M 3022 2063 
Q 3016 2534 2758 2815 
Q 2500 3097 2075 3097 
Q 1594 3097 1305 2825 
Q 1016 2553 972 2059 
L 3022 2063 
z
" transform="scale(0.015625)"/>
       <path id="DejaVuSans-75" d="M 544 1381 
L 544 3500 
L 1119 3500 
L 1119 1403 
Q 1119 906 1312 657 
Q 1506 409 1894 409 
Q 2359 409 2629 706 
Q 2900 1003 2900 1516 
L 2900 3500 
L 3475 3500 
L 3475 0 
L 2900 0 
L 2900 538 
Q 2691 219 2414 64 
Q 2138 -91 1772 -91 
Q 1169 -91 856 284 
Q 544 659 544 1381 
z
M 1991 3584 
L 1991 3584 
z
" transform="scale(0.015625)"/>
       <path id="DejaVuSans-76" d="M 191 3500 
L 800 3500 
L 1894 563 
L 2988 3500 
L 3597 3500 
L 2284 0 
L 1503 0 
L 191 3500 
z
" transform="scale(0.015625)"/>
       <path id="DejaVuSans-72" d="M 2631 2963 
Q 2534 3019 2420 3045 
Q 2306 3072 2169 3072 
Q 1681 3072 1420 2755 
Q 1159 2438 1159 1844 
L 1159 0 
L 581 0 
L 581 3500 
L 1159 3500 
L 1159 2956 
Q 1341 3275 1631 3429 
Q 1922 3584 2338 3584 
Q 2397 3584 2469 3576 
Q 2541 3569 2628 3553 
L 2631 2963 
z
" transform="scale(0.015625)"/>
       <path id="DejaVuSans-20" transform="scale(0.015625)"/>
       <path id="DejaVuSans-54" d="M -19 4666 
L 3928 4666 
L 3928 4134 
L 2272 4134 
L 2272 0 
L 1638 0 
L 1638 4134 
L -19 4134 
L -19 4666 
z
" transform="scale(0.015625)"/>
       <path id="DejaVuSans-69" d="M 603 3500 
L 1178 3500 
L 1178 0 
L 603 0 
L 603 3500 
z
M 603 4863 
L 1178 4863 
L 1178 4134 
L 603 4134 
L 603 4863 
z
" transform="scale(0.015625)"/>
       <path id="DejaVuSans-6d" d="M 3328 2828 
Q 3544 3216 3844 3400 
Q 4144 3584 4550 3584 
Q 5097 3584 5394 3201 
Q 5691 2819 5691 2113 
L 5691 0 
L 5113 0 
L 5113 2094 
Q 5113 2597 4934 2840 
Q 4756 3084 4391 3084 
Q 3944 3084 3684 2787 
Q 3425 2491 3425 1978 
L 3425 0 
L 2847 0 
L 2847 2094 
Q 2847 2600 2669 2842 
Q 2491 3084 2119 3084 
Q 1678 3084 1418 2786 
Q 1159 2488 1159 1978 
L 1159 0 
L 581 0 
L 581 3500 
L 1159 3500 
L 1159 2956 
Q 1356 3278 1631 3431 
Q 1906 3584 2284 3584 
Q 2666 3584 2933 3390 
Q 3200 3197 3328 2828 
z
" transform="scale(0.015625)"/>
       <path id="DejaVuSans-28" d="M 1984 4856 
Q 1566 4138 1362 3434 
Q 1159 2731 1159 2009 
Q 1159 1288 1364 580 
Q 1569 -128 1984 -844 
L 1484 -844 
Q 1016 -109 783 600 
Q 550 1309 550 2009 
Q 550 2706 781 3412 
Q 1013 4119 1484 4856 
L 1984 4856 
z
" transform="scale(0.015625)"/>
       <path id="DejaVuSans-73" d="M 2834 3397 
L 2834 2853 
Q 2591 2978 2328 3040 
Q 2066 3103 1784 3103 
Q 1356 3103 1142 2972 
Q 928 2841 928 2578 
Q 928 2378 1081 2264 
Q 1234 2150 1697 2047 
L 1894 2003 
Q 2506 1872 2764 1633 
Q 3022 1394 3022 966 
Q 3022 478 2636 193 
Q 2250 -91 1575 -91 
Q 1294 -91 989 -36 
Q 684 19 347 128 
L 347 722 
Q 666 556 975 473 
Q 1284 391 1588 391 
Q 1994 391 2212 530 
Q 2431 669 2431 922 
Q 2431 1156 2273 1281 
Q 2116 1406 1581 1522 
L 1381 1569 
Q 847 1681 609 1914 
Q 372 2147 372 2553 
Q 372 3047 722 3315 
Q 1072 3584 1716 3584 
Q 2034 3584 2315 3537 
Q 2597 3491 2834 3397 
z
" transform="scale(0.015625)"/>
       <path id="DejaVuSans-29" d="M 513 4856 
L 1013 4856 
Q 1481 4119 1714 3412 
Q 1947 2706 1947 2009 
Q 1947 1309 1714 600 
Q 1481 -109 1013 -844 
L 513 -844 
Q 928 -128 1133 580 
Q 1338 1288 1338 2009 
Q 1338 2731 1133 3434 
Q 928 4138 513 4856 
z
" transform="scale(0.015625)"/>
      </defs>
      <use xlink:href="#DejaVuSans-4d"/>
      <use xlink:href="#DejaVuSans-61" transform="translate(86.279297 0)"/>
      <use xlink:href="#DejaVuSans-6e" transform="translate(147.558594 0)"/>
      <use xlink:href="#DejaVuSans-65" transform="translate(210.9375 0)"/>
      <use xlink:href="#DejaVuSans-75" transform="translate(272.460938 0)"/>
      <use xlink:href="#DejaVuSans-76" transform="translate(335.839844 0)"/>
      <use xlink:href="#DejaVuSans-65" transform="translate(395.019531 0)"/>
      <use xlink:href="#DejaVuSans-72" transform="translate(456.542969 0)"/>
      <use xlink:href="#DejaVuSans-20" transform="translate(497.65625 0)"/>
      <use xlink:href="#DejaVuSans-54" transform="translate(529.443359 0)"/>
      <use xlink:href="#DejaVuSans-69" transform="translate(587.402344 0)"/>
      <use xlink:href="#DejaVuSans-6d" transform="translate(615.185547 0)"/>
      <use xlink:href="#DejaVuSans-65" transform="translate(712.597656 0)"/>
      <use xlink:href="#DejaVuSans-20" transform="translate(774.121094 0)"/>
      <use xlink:href="#DejaVuSans-28" transform="translate(805.908203 0)"/>
      <use xlink:href="#DejaVuSans-73" transform="translate(844.921875 0)"/>
      <use xlink:href="#DejaVuSans-29" transform="translate(897.021484 0)"/>
     </g>
    </g>
   </g>
   <g id="matplotlib.axis_2">
    <g id="ytick_1">
     <g id="line2d_15">
      <path d="M 90 371.661241 
L 648 371.661241 
" clip-path="url(#pe828aa8e4a)" style="fill: none; stroke: #b0b0b0; stroke-width: 0.8; stroke-linecap: square"/>
     </g>
     <g id="line2d_16">
      <defs>
       <path id="m557d5f04fb" d="M 0 0 
L -3.5 0 
" style="stroke: #000000; stroke-width: 0.8"/>
      </defs>
      <g>
       <use xlink:href="#m557d5f04fb" x="90" y="371.661241" style="stroke: #000000; stroke-width: 0.8"/>
      </g>
     </g>
     <g id="text_9">
      <!-- 0.0000 -->
      <g transform="translate(48.009375 375.46046) scale(0.1 -0.1)">
       <defs>
        <path id="DejaVuSans-2e" d="M 684 794 
L 1344 794 
L 1344 0 
L 684 0 
L 684 794 
z
" transform="scale(0.015625)"/>
       </defs>
       <use xlink:href="#DejaVuSans-30"/>
       <use xlink:href="#DejaVuSans-2e" transform="translate(63.623047 0)"/>
       <use xlink:href="#DejaVuSans-30" transform="translate(95.410156 0)"/>
       <use xlink:href="#DejaVuSans-30" transform="translate(159.033203 0)"/>
       <use xlink:href="#DejaVuSans-30" transform="translate(222.65625 0)"/>
       <use xlink:href="#DejaVuSans-30" transform="translate(286.279297 0)"/>
      </g>
     </g>
    </g>
    <g id="ytick_2">
     <g id="line2d_17">
      <path d="M 90 324.144248 
L 648 324.144248 
" clip-path="url(#pe828aa8e4a)" style="fill: none; stroke: #b0b0b0; stroke-width: 0.8; stroke-linecap: square"/>
     </g>
     <g id="line2d_18">
      <g>
       <use xlink:href="#m557d5f04fb" x="90" y="324.144248" style="stroke: #000000; stroke-width: 0.8"/>
      </g>
     </g>
     <g id="text_10">
      <!-- 0.0005 -->
      <g transform="translate(48.009375 327.943467) scale(0.1 -0.1)">
       <use xlink:href="#DejaVuSans-30"/>
       <use xlink:href="#DejaVuSans-2e" transform="translate(63.623047 0)"/>
       <use xlink:href="#DejaVuSans-30" transform="translate(95.410156 0)"/>
       <use xlink:href="#DejaVuSans-30" transform="translate(159.033203 0)"/>
       <use xlink:href="#DejaVuSans-30" transform="translate(222.65625 0)"/>
       <use xlink:href="#DejaVuSans-35" transform="translate(286.279297 0)"/>
      </g>
     </g>
    </g>
    <g id="ytick_3">
     <g id="line2d_19">
      <path d="M 90 276.627255 
L 648 276.627255 
" clip-path="url(#pe828aa8e4a)" style="fill: none; stroke: #b0b0b0; stroke-width: 0.8; stroke-linecap: square"/>
     </g>
     <g id="line2d_20">
      <g>
       <use xlink:href="#m557d5f04fb" x="90" y="276.627255" style="stroke: #000000; stroke-width: 0.8"/>
      </g>
     </g>
     <g id="text_11">
      <!-- 0.0010 -->
      <g transform="translate(48.009375 280.426474) scale(0.1 -0.1)">
       <use xlink:href="#DejaVuSans-30"/>
       <use xlink:href="#DejaVuSans-2e" transform="translate(63.623047 0)"/>
       <use xlink:href="#DejaVuSans-30" transform="translate(95.410156 0)"/>
       <use xlink:href="#DejaVuSans-30" transform="translate(159.033203 0)"/>
       <use xlink:href="#DejaVuSans-31" transform="translate(222.65625 0)"/>
       <use xlink:href="#DejaVuSans-30" transform="translate(286.279297 0)"/>
      </g>
     </g>
    </g>
    <g id="ytick_4">
     <g id="line2d_21">
      <path d="M 90 229.110263 
L 648 229.110263 
" clip-path="url(#pe828aa8e4a)" style="fill: none; stroke: #b0b0b0; stroke-width: 0.8; stroke-linecap: square"/>
     </g>
     <g id="line2d_22">
      <g>
       <use xlink:href="#m557d5f04fb" x="90" y="229.110263" style="stroke: #000000; stroke-width: 0.8"/>
      </g>
     </g>
     <g id="text_12">
      <!-- 0.0015 -->
      <g transform="translate(48.009375 232.909481) scale(0.1 -0.1)">
       <use xlink:href="#DejaVuSans-30"/>
       <use xlink:href="#DejaVuSans-2e" transform="translate(63.623047 0)"/>
       <use xlink:href="#DejaVuSans-30" transform="translate(95.410156 0)"/>
       <use xlink:href="#DejaVuSans-30" transform="translate(159.033203 0)"/>
       <use xlink:href="#DejaVuSans-31" transform="translate(222.65625 0)"/>
       <use xlink:href="#DejaVuSans-35" transform="translate(286.279297 0)"/>
      </g>
     </g>
    </g>
    <g id="ytick_5">
     <g id="line2d_23">
      <path d="M 90 181.59327 
L 648 181.59327 
" clip-path="url(#pe828aa8e4a)" style="fill: none; stroke: #b0b0b0; stroke-width: 0.8; stroke-linecap: square"/>
     </g>
     <g id="line2d_24">
      <g>
       <use xlink:href="#m557d5f04fb" x="90" y="181.59327" style="stroke: #000000; stroke-width: 0.8"/>
      </g>
     </g>
     <g id="text_13">
      <!-- 0.0020 -->
      <g transform="translate(48.009375 185.392488) scale(0.1 -0.1)">
       <use xlink:href="#DejaVuSans-30"/>
       <use xlink:href="#DejaVuSans-2e" transform="translate(63.623047 0)"/>
       <use xlink:href="#DejaVuSans-30" transform="translate(95.410156 0)"/>
       <use xlink:href="#DejaVuSans-30" transform="translate(159.033203 0)"/>
       <use xlink:href="#DejaVuSans-32" transform="translate(222.65625 0)"/>
       <use xlink:href="#DejaVuSans-30" transform="translate(286.279297 0)"/>
      </g>
     </g>
    </g>
    <g id="ytick_6">
     <g id="line2d_25">
      <path d="M 90 134.076277 
L 648 134.076277 
" clip-path="url(#pe828aa8e4a)" style="fill: none; stroke: #b0b0b0; stroke-width: 0.8; stroke-linecap: square"/>
     </g>
     <g id="line2d_26">
      <g>
       <use xlink:href="#m557d5f04fb" x="90" y="134.076277" style="stroke: #000000; stroke-width: 0.8"/>
      </g>
     </g>
     <g id="text_14">
      <!-- 0.0025 -->
      <g transform="translate(48.009375 137.875495) scale(0.1 -0.1)">
       <use xlink:href="#DejaVuSans-30"/>
       <use xlink:href="#DejaVuSans-2e" transform="translate(63.623047 0)"/>
       <use xlink:href="#DejaVuSans-30" transform="translate(95.410156 0)"/>
       <use xlink:href="#DejaVuSans-30" transform="translate(159.033203 0)"/>
       <use xlink:href="#DejaVuSans-32" transform="translate(222.65625 0)"/>
       <use xlink:href="#DejaVuSans-35" transform="translate(286.279297 0)"/>
      </g>
     </g>
    </g>
    <g id="ytick_7">
     <g id="line2d_27">
      <path d="M 90 86.559284 
L 648 86.559284 
" clip-path="url(#pe828aa8e4a)" style="fill: none; stroke: #b0b0b0; stroke-width: 0.8; stroke-linecap: square"/>
     </g>
     <g id="line2d_28">
      <g>
       <use xlink:href="#m557d5f04fb" x="90" y="86.559284" style="stroke: #000000; stroke-width: 0.8"/>
      </g>
     </g>
     <g id="text_15">
      <!-- 0.0030 -->
      <g transform="translate(48.009375 90.358502) scale(0.1 -0.1)">
       <use xlink:href="#DejaVuSans-30"/>
       <use xlink:href="#DejaVuSans-2e" transform="translate(63.623047 0)"/>
       <use xlink:href="#DejaVuSans-30" transform="translate(95.410156 0)"/>
       <use xlink:href="#DejaVuSans-30" transform="translate(159.033203 0)"/>
       <use xlink:href="#DejaVuSans-33" transform="translate(222.65625 0)"/>
       <use xlink:href="#DejaVuSans-30" transform="translate(286.279297 0)"/>
      </g>
     </g>
    </g>
    <g id="text_16">
     <!-- Standard Deviation -->
     <g transform="translate(41.929687 266.413125) rotate(-90) scale(0.1 -0.1)">
      <defs>
       <path id="DejaVuSans-53" d="M 3425 4513 
L 3425 3897 
Q 3066 4069 2747 4153 
Q 2428 4238 2131 4238 
Q 1616 4238 1336 4038 
Q 1056 3838 1056 3469 
Q 1056 3159 1242 3001 
Q 1428 2844 1947 2747 
L 2328 2669 
Q 3034 2534 3370 2195 
Q 3706 1856 3706 1288 
Q 3706 609 3251 259 
Q 2797 -91 1919 -91 
Q 1588 -91 1214 -16 
Q 841 59 441 206 
L 441 856 
Q 825 641 1194 531 
Q 1563 422 1919 422 
Q 2459 422 2753 634 
Q 3047 847 3047 1241 
Q 3047 1584 2836 1778 
Q 2625 1972 2144 2069 
L 1759 2144 
Q 1053 2284 737 2584 
Q 422 2884 422 3419 
Q 422 4038 858 4394 
Q 1294 4750 2059 4750 
Q 2388 4750 2728 4690 
Q 3069 4631 3425 4513 
z
" transform="scale(0.015625)"/>
       <path id="DejaVuSans-74" d="M 1172 4494 
L 1172 3500 
L 2356 3500 
L 2356 3053 
L 1172 3053 
L 1172 1153 
Q 1172 725 1289 603 
Q 1406 481 1766 481 
L 2356 481 
L 2356 0 
L 1766 0 
Q 1100 0 847 248 
Q 594 497 594 1153 
L 594 3053 
L 172 3053 
L 172 3500 
L 594 3500 
L 594 4494 
L 1172 4494 
z
" transform="scale(0.015625)"/>
       <path id="DejaVuSans-64" d="M 2906 2969 
L 2906 4863 
L 3481 4863 
L 3481 0 
L 2906 0 
L 2906 525 
Q 2725 213 2448 61 
Q 2172 -91 1784 -91 
Q 1150 -91 751 415 
Q 353 922 353 1747 
Q 353 2572 751 3078 
Q 1150 3584 1784 3584 
Q 2172 3584 2448 3432 
Q 2725 3281 2906 2969 
z
M 947 1747 
Q 947 1113 1208 752 
Q 1469 391 1925 391 
Q 2381 391 2643 752 
Q 2906 1113 2906 1747 
Q 2906 2381 2643 2742 
Q 2381 3103 1925 3103 
Q 1469 3103 1208 2742 
Q 947 2381 947 1747 
z
" transform="scale(0.015625)"/>
       <path id="DejaVuSans-44" d="M 1259 4147 
L 1259 519 
L 2022 519 
Q 2988 519 3436 956 
Q 3884 1394 3884 2338 
Q 3884 3275 3436 3711 
Q 2988 4147 2022 4147 
L 1259 4147 
z
M 628 4666 
L 1925 4666 
Q 3281 4666 3915 4102 
Q 4550 3538 4550 2338 
Q 4550 1131 3912 565 
Q 3275 0 1925 0 
L 628 0 
L 628 4666 
z
" transform="scale(0.015625)"/>
       <path id="DejaVuSans-6f" d="M 1959 3097 
Q 1497 3097 1228 2736 
Q 959 2375 959 1747 
Q 959 1119 1226 758 
Q 1494 397 1959 397 
Q 2419 397 2687 759 
Q 2956 1122 2956 1747 
Q 2956 2369 2687 2733 
Q 2419 3097 1959 3097 
z
M 1959 3584 
Q 2709 3584 3137 3096 
Q 3566 2609 3566 1747 
Q 3566 888 3137 398 
Q 2709 -91 1959 -91 
Q 1206 -91 779 398 
Q 353 888 353 1747 
Q 353 2609 779 3096 
Q 1206 3584 1959 3584 
z
" transform="scale(0.015625)"/>
      </defs>
      <use xlink:href="#DejaVuSans-53"/>
      <use xlink:href="#DejaVuSans-74" transform="translate(63.476562 0)"/>
      <use xlink:href="#DejaVuSans-61" transform="translate(102.685547 0)"/>
      <use xlink:href="#DejaVuSans-6e" transform="translate(163.964844 0)"/>
      <use xlink:href="#DejaVuSans-64" transform="translate(227.34375 0)"/>
      <use xlink:href="#DejaVuSans-61" transform="translate(290.820312 0)"/>
      <use xlink:href="#DejaVuSans-72" transform="translate(352.099609 0)"/>
      <use xlink:href="#DejaVuSans-64" transform="translate(391.462891 0)"/>
      <use xlink:href="#DejaVuSans-20" transform="translate(454.939453 0)"/>
      <use xlink:href="#DejaVuSans-44" transform="translate(486.726562 0)"/>
      <use xlink:href="#DejaVuSans-65" transform="translate(563.728516 0)"/>
      <use xlink:href="#DejaVuSans-76" transform="translate(625.251953 0)"/>
      <use xlink:href="#DejaVuSans-69" transform="translate(684.431641 0)"/>
      <use xlink:href="#DejaVuSans-61" transform="translate(712.214844 0)"/>
      <use xlink:href="#DejaVuSans-74" transform="translate(773.494141 0)"/>
      <use xlink:href="#DejaVuSans-69" transform="translate(812.703125 0)"/>
      <use xlink:href="#DejaVuSans-6f" transform="translate(840.486328 0)"/>
      <use xlink:href="#DejaVuSans-6e" transform="translate(901.667969 0)"/>
     </g>
    </g>
   </g>
   <g id="line2d_29">
    <path d="M 115.363636 205.796568 
L 115.501623 281.668587 
L 115.674106 282.421615 
L 115.950079 282.559855 
L 116.846991 282.620791 
L 125.022689 282.673461 
L 127.644431 282.603825 
L 128.127384 282.262249 
L 128.67933 281.573998 
L 128.88631 281.40356 
L 129.024296 347.894206 
L 129.196779 356.128908 
L 129.403759 357.619489 
L 129.679732 358.176073 
L 130.093691 358.470982 
L 130.81812 358.653627 
L 132.370468 358.76173 
L 136.924021 358.78231 
L 144.37529 358.69823 
L 144.651263 358.073187 
L 145.030725 356.564931 
L 145.617168 353.201788 
L 145.962134 351.551108 
L 146.20361 356.6384 
L 146.445087 357.817536 
L 146.755556 358.300856 
L 147.204012 358.577027 
L 147.997434 358.764452 
L 149.618775 358.874571 
L 152.757967 358.862131 
L 153.068437 357.903148 
L 153.999845 354.357799 
L 154.413805 353.019621 
L 154.551791 362.358621 
L 154.896757 364.452385 
L 155.207227 365.054335 
L 155.655683 365.419205 
L 156.345615 365.654556 
L 157.587493 365.808305 
L 160.278229 365.872819 
L 161.244135 365.939582 
L 161.865074 367.07842 
L 162.21004 367.334323 
L 162.486013 367.306124 
L 162.865476 367.067983 
L 163.003462 367.381224 
L 164.935272 367.580177 
L 168.695404 367.570905 
L 169.764799 367.471347 
L 170.213255 366.948388 
L 170.834194 365.842 
L 171.317146 364.987111 
L 171.455133 365.523925 
L 172.697011 365.826674 
L 174.594325 365.957715 
L 178.11298 365.983681 
L 178.457946 365.19908 
L 179.768817 361.935857 
L 179.906803 362.709773 
L 182.28707 362.805431 
L 186.56465 362.8087 
L 186.633643 362.286074 
L 186.806127 357.504171 
L 188.220488 306.195125 
L 188.358474 330.238866 
L 188.599951 335.222381 
L 188.841427 336.288629 
L 189.151896 336.767192 
L 189.600352 337.050158 
L 190.393775 337.250149 
L 192.049612 337.390574 
L 195.154307 337.432781 
L 195.464777 337.173358 
L 195.84424 336.50221 
L 196.327192 335.123689 
L 196.672159 334.218522 
L 196.810145 352.588224 
L 197.017125 357.898943 
L 197.258601 358.986865 
L 197.569071 359.40912 
L 198.052023 359.651185 
L 198.948935 359.807406 
L 201.053229 359.898092 
L 203.502488 359.862399 
L 203.778461 359.235036 
L 204.192421 357.592196 
L 204.81336 354.067747 
L 205.123829 352.689139 
L 205.261816 360.268552 
L 205.606782 361.148331 
L 205.986245 361.453646 
L 206.64168 361.636517 
L 208.056042 361.745117 
L 211.885166 361.757728 
L 212.057649 361.62233 
L 212.782078 360.708076 
L 213.5755 359.585968 
L 213.713486 366.360092 
L 214.127446 367.188984 
L 214.575902 367.515615 
L 215.300331 367.724546 
L 216.680195 367.852584 
L 219.750394 367.871378 
L 220.440326 367.962364 
L 221.026769 368.705784 
L 221.406232 368.864105 
L 221.716701 368.760215 
L 222.027171 368.559498 
L 222.165157 368.994435 
L 223.958981 369.173964 
L 227.201663 369.139531 
L 228.926494 368.997541 
L 229.37495 368.430947 
L 230.168372 366.994588 
L 230.478841 366.556572 
L 230.616828 367.138434 
L 231.927699 367.467653 
L 233.790517 367.614879 
L 237.274675 367.650643 
L 237.654137 366.903188 
L 238.930512 364.420349 
L 239.068499 364.93419 
L 241.000309 365.119931 
L 245.139903 365.192718 
L 245.898828 365.101387 
L 246.071312 363.955134 
L 246.381781 359.82511 
L 247.382183 345.197188 
L 247.520169 365.59122 
L 247.968625 367.149328 
L 248.417081 367.864814 
L 249.003524 368.35847 
L 249.796946 368.717886 
L 250.969831 368.988202 
L 252.867145 369.172287 
L 254.384996 369.148397 
L 254.833452 368.7325 
L 255.833854 367.85933 
L 255.97184 368.557147 
L 257.282712 368.955524 
L 258.938549 369.167274 
L 261.836265 369.284025 
L 263.181633 369.198408 
L 263.837068 368.78991 
L 264.285524 368.492029 
L 264.423511 368.777945 
L 267.07975 369.116361 
L 270.736391 369.243338 
L 271.184847 369.157995 
L 271.702297 368.624979 
L 272.737195 367.342166 
L 272.875182 367.872806 
L 274.11706 368.257497 
L 275.738401 368.45548 
L 278.843096 368.576377 
L 279.671015 368.488887 
L 280.498934 368.103892 
L 281.188866 368.050667 
L 281.326852 368.377895 
L 283.431146 368.655376 
L 284.431548 368.714881 
L 284.466044 205.796568 
L 284.535038 278.889515 
L 284.673024 282.1984 
L 284.880004 282.508359 
L 285.32846 282.600405 
L 287.294767 282.637475 
L 296.850329 282.561527 
L 297.333282 282.172614 
L 297.988718 281.427392 
L 298.126704 347.960938 
L 298.299187 356.207488 
L 298.506167 357.702587 
L 298.78214 358.26109 
L 299.196099 358.556948 
L 299.886031 358.734859 
L 301.369386 358.844577 
L 305.646966 358.868243 
L 313.477698 358.784162 
L 313.753671 358.160469 
L 314.133133 356.651769 
L 314.719576 353.276363 
L 315.064542 351.616084 
L 315.306018 356.737035 
L 315.547495 357.94814 
L 315.857964 358.447698 
L 316.30642 358.734 
L 317.065346 358.923789 
L 318.617693 359.040999 
L 321.825879 359.053259 
L 321.894872 358.953735 
L 322.619301 356.388612 
L 323.516213 353.073088 
L 323.654199 362.560648 
L 323.999165 364.743454 
L 324.309635 365.381814 
L 324.723594 365.752569 
L 325.37903 366.010829 
L 326.517418 366.183133 
L 328.828692 366.268949 
L 330.346543 366.34635 
L 331.036475 367.746352 
L 331.381441 368.027098 
L 331.657414 367.976958 
L 331.967884 367.763261 
L 332.10587 368.128146 
L 333.899694 368.357022 
L 336.9009 368.360683 
L 338.867207 368.231309 
L 339.246669 367.723551 
L 339.867608 366.464154 
L 340.419554 365.354278 
L 340.557541 365.918338 
L 341.799419 366.244366 
L 343.593243 366.382717 
L 347.215387 366.415471 
L 347.560354 365.561599 
L 348.871225 362.196907 
L 349.009211 362.999974 
L 351.320485 363.099165 
L 355.667058 363.104386 
L 355.736051 362.563743 
L 355.908535 357.682262 
L 357.322896 306.211182 
L 357.460882 330.229531 
L 357.702359 335.208523 
L 357.943835 336.273939 
L 358.254304 336.752169 
L 358.70276 337.035011 
L 359.496182 337.235063 
L 361.15202 337.375923 
L 364.256715 337.419772 
L 364.567185 337.164725 
L 364.946648 336.504045 
L 365.4296 335.143662 
L 365.774566 334.248128 
L 365.912553 352.582749 
L 366.119533 357.889933 
L 366.361009 358.976678 
L 366.671478 359.398168 
L 367.154431 359.639411 
L 368.051343 359.794411 
L 370.155637 359.882814 
L 372.604896 359.845407 
L 372.880869 359.220098 
L 373.294829 357.583104 
L 373.915768 354.068252 
L 374.226237 352.691522 
L 374.364224 360.247044 
L 374.70919 361.124267 
L 375.088653 361.428185 
L 375.744088 361.609421 
L 377.15845 361.715241 
L 380.987574 361.722065 
L 381.160057 361.586496 
L 381.918982 360.622432 
L 382.677908 359.552704 
L 382.815894 366.332481 
L 383.229854 367.158441 
L 383.67831 367.483534 
L 384.402739 367.691164 
L 385.782603 367.817932 
L 388.887299 367.8351 
L 389.542734 367.926358 
L 390.129177 368.672719 
L 390.50864 368.837644 
L 390.819109 368.741409 
L 391.129579 368.546019 
L 391.267565 368.980738 
L 393.061389 369.15751 
L 396.338568 369.120047 
L 398.028902 368.980342 
L 398.477358 368.422597 
L 399.236283 367.063992 
L 399.581249 366.558748 
L 399.719236 367.143455 
L 401.030107 367.48145 
L 402.858428 367.631484 
L 406.342586 367.685634 
L 406.446076 367.553537 
L 408.03292 364.442749 
L 408.170907 364.960205 
L 410.06822 365.147712 
L 414.069828 365.222433 
L 415.001236 365.128921 
L 415.17372 363.974731 
L 415.484189 359.829632 
L 416.484591 345.173499 
L 416.622577 365.59751 
L 417.071033 367.155754 
L 417.519489 367.871104 
L 418.105932 368.36442 
L 418.899354 368.723182 
L 420.072239 368.992352 
L 421.969553 369.174703 
L 423.452907 369.155161 
L 423.866867 368.767213 
L 424.867268 367.840717 
L 424.936262 367.83283 
L 425.074248 368.542939 
L 426.385119 368.942651 
L 428.040957 369.154884 
L 430.938673 369.272545 
L 432.318537 369.184257 
L 432.973973 368.766287 
L 433.387932 368.488528 
L 433.525919 368.774364 
L 436.216655 369.115329 
L 439.907793 369.242644 
L 440.287255 369.154404 
L 440.804705 368.606556 
L 441.839603 367.289788 
L 441.97759 367.831844 
L 443.219468 368.232208 
L 444.806312 368.436761 
L 447.807518 368.565516 
L 448.773423 368.481099 
L 449.601342 368.096378 
L 450.256777 368.049266 
L 450.291274 368.046905 
L 450.42926 368.371177 
L 452.56805 368.65139 
L 453.533956 368.708756 
L 453.568452 342.328419 
L 453.671942 344.527878 
L 453.878922 347.530126 
L 454.120398 348.25589 
L 454.465364 348.566129 
L 455.051807 348.742408 
L 456.362678 348.847579 
L 460.743748 348.876898 
L 465.435288 348.934478 
L 465.952737 351.603839 
L 466.53918 353.811047 
L 466.918642 354.559094 
L 467.091125 354.626646 
L 467.263609 358.268426 
L 467.505085 360.213208 
L 467.781058 360.726383 
L 468.195017 360.974769 
L 468.953943 361.117956 
L 470.747767 361.176265 
L 482.545609 361.226808 
L 482.925072 362.156494 
L 483.132052 362.253035 
L 483.304535 362.097194 
L 483.546011 361.541312 
L 483.925474 360.020129 
L 484.16695 359.295464 
L 484.304936 361.629947 
L 484.615406 361.886617 
L 485.236345 361.957757 
L 487.685605 361.90805 
L 490.99728 361.717961 
L 491.445736 360.553088 
L 492.170165 357.948385 
L 492.618621 356.497024 
L 492.756607 362.311855 
L 493.101573 364.055073 
L 493.44654 364.663094 
L 493.894996 365.00528 
L 494.619424 365.249666 
L 495.930296 365.418303 
L 498.655528 365.503537 
L 499.448951 365.611605 
L 500.242373 367.860807 
L 500.587339 368.287099 
L 500.794319 368.275937 
L 501.070291 368.081023 
L 501.208278 368.546907 
L 502.760626 368.858538 
L 504.864919 368.913509 
L 507.935118 368.804481 
L 508.211091 368.418196 
L 508.659547 367.334978 
L 509.521962 364.906326 
L 509.659949 365.549852 
L 510.86733 365.831035 
L 512.799141 365.956895 
L 516.317795 365.971248 
L 516.662762 364.82461 
L 517.973633 360.564063 
L 518.111619 361.807497 
L 520.25041 361.90081 
L 524.769466 361.913806 
L 524.872956 361.66187 
L 525.114432 360.129913 
L 526.252821 351.383215 
L 526.425304 351.125136 
L 526.56329 354.539872 
L 526.908256 355.241714 
L 527.322216 355.526112 
L 528.046645 355.710978 
L 529.633489 355.835194 
L 533.29013 356.077372 
L 533.807579 357.186929 
L 534.152546 357.490986 
L 534.428518 357.461863 
L 534.704491 357.191687 
L 534.876974 357.079335 
L 535.049458 360.443505 
L 535.290934 362.680212 
L 535.566907 363.344619 
L 535.94637 363.666959 
L 536.567309 363.865055 
L 537.843683 363.990775 
L 541.120862 364.029661 
L 542.086767 363.943737 
L 542.36274 363.460048 
L 542.776699 362.216902 
L 543.328645 360.373512 
L 543.466632 362.960105 
L 543.984081 363.151965 
L 545.122469 363.210487 
L 550.020989 363.132493 
L 550.193472 363.050391 
L 550.883404 362.039275 
L 551.780316 360.518144 
L 551.918302 366.095748 
L 552.332262 366.939381 
L 552.780718 367.281099 
L 553.505147 367.504994 
L 554.850515 367.649505 
L 557.817224 367.702391 
L 558.610646 367.751343 
L 559.300578 368.787295 
L 559.680041 369.007382 
L 559.99051 368.931419 
L 560.231987 368.80558 
L 560.369973 369.1203 
L 562.43977 369.247725 
L 566.92433 369.14288 
L 567.165806 369.016561 
L 567.614262 368.427144 
L 568.373188 366.995039 
L 568.683657 366.540488 
L 568.821644 367.070244 
L 570.201508 367.391033 
L 572.202312 367.534517 
L 575.479491 367.564343 
L 575.858953 366.780472 
L 577.135328 364.179903 
L 577.273315 364.712025 
L 579.274118 364.874812 
L 584.034651 365.151125 
L 584.207134 365.295308 
L 584.345121 365.101467 
L 584.5521 364.242441 
L 584.931563 361.429399 
L 585.552502 356.852836 
L 585.586999 356.851334 
L 585.724985 365.952138 
L 586.207938 367.352022 
L 586.690891 368.005826 
L 587.31183 368.455758 
L 588.208742 368.804409 
L 589.55411 369.065158 
L 591.79639 369.246833 
L 592.589812 369.187771 
L 593.141758 368.659191 
L 593.969676 368.042364 
L 594.03867 368.037621 
L 594.176656 368.596946 
L 595.556521 369.000377 
L 597.315848 369.219209 
L 600.420543 369.350379 
L 601.420945 369.271274 
L 602.283361 368.811163 
L 602.49034 368.733966 
L 602.628327 369.002182 
L 605.457049 369.251933 
L 609.286174 369.322356 
L 609.665636 369.049081 
L 610.355569 368.247699 
L 610.942011 367.649416 
L 611.079998 368.063595 
L 612.666842 368.372156 
L 614.978115 368.525855 
L 617.806838 368.527509 
L 618.669253 368.120477 
L 619.290192 368.080591 
L 619.393682 368.07565 
L 619.531668 368.402689 
L 621.670458 368.663918 
L 622.636364 368.717215 
L 622.636364 368.717215 
" clip-path="url(#pe828aa8e4a)" style="fill: none; stroke: #ff0000; stroke-width: 1.5; stroke-linecap: square"/>
   </g>
   <g id="line2d_30">
    <path d="M 115.363636 205.796568 
L 115.501623 281.668587 
L 115.674106 282.421615 
L 115.950079 282.559855 
L 116.846991 282.620791 
L 119.468734 282.566191 
L 120.607122 282.526986 
L 127.333962 282.609955 
L 127.782418 282.44696 
L 128.26537 282.032659 
L 128.88631 281.31341 
L 129.127786 354.548075 
L 129.334766 357.28936 
L 129.610738 358.059217 
L 129.955705 358.37832 
L 130.542147 358.580621 
L 131.715032 358.702103 
L 134.681741 358.727322 
L 144.409786 358.613479 
L 144.685759 357.931507 
L 145.099719 356.170301 
L 145.720658 352.410863 
L 145.962134 351.428717 
L 146.238107 356.919287 
L 146.479583 357.898138 
L 146.824549 358.360666 
L 147.341999 358.624649 
L 148.238911 358.79287 
L 150.136225 358.882555 
L 152.757967 358.851614 
L 153.068437 357.898698 
L 153.965349 354.496287 
L 154.413805 353.009581 
L 154.551791 362.335288 
L 154.896757 364.439614 
L 155.207227 365.0449 
L 155.655683 365.412661 
L 156.345615 365.65089 
L 157.587493 365.807201 
L 160.105746 365.863438 
L 161.209638 365.84038 
L 161.278631 364.070806 
L 161.658094 337.083817 
L 162.865476 252.177596 
L 163.003462 356.105257 
L 163.313932 356.846854 
L 163.693394 357.14775 
L 164.34883 357.337273 
L 165.797688 357.47888 
L 167.695002 357.470779 
L 169.626812 357.404221 
L 169.661309 357.290035 
L 169.730302 352.081597 
L 170.178758 269.497104 
L 171.317146 66.96 
L 171.455133 361.590549 
L 171.800099 363.738722 
L 172.145065 364.474565 
L 172.593521 364.888757 
L 173.248957 365.165943 
L 174.352848 365.363644 
L 175.629223 365.393017 
L 178.11298 365.249244 
L 178.319959 364.654172 
L 178.768415 362.613363 
L 179.768817 357.218259 
L 179.906803 360.980539 
L 180.493246 361.544233 
L 181.217675 361.830072 
L 182.459553 362.050953 
L 184.73633 362.200057 
L 186.56465 362.228307 
L 186.633643 361.724301 
L 186.806127 357.069626 
L 187.772032 318.131133 
L 188.185991 305.887825 
L 188.220488 305.881972 
L 188.358474 330.165794 
L 188.599951 335.148411 
L 188.841427 336.209336 
L 189.151896 336.684821 
L 189.600352 336.965662 
L 190.393775 337.16386 
L 191.911626 337.282726 
L 194.119409 337.260089 
L 195.085314 337.255976 
L 195.257797 336.880655 
L 195.499274 335.706485 
L 195.878736 332.504913 
L 196.430682 325.591272 
L 196.672159 323.488848 
L 196.810145 350.824721 
L 197.017125 357.307448 
L 197.258601 358.524607 
L 197.569071 358.978256 
L 198.017527 359.2044 
L 198.810949 359.307364 
L 200.294303 359.256603 
L 201.984637 358.650428 
L 203.502488 358.036546 
L 203.743965 356.817665 
L 204.157924 353.309899 
L 204.91685 344.530977 
L 205.123829 343.155009 
L 205.261816 359.810781 
L 205.606782 360.850816 
L 205.951748 361.186263 
L 206.503694 361.384984 
L 207.469599 361.465708 
L 209.504899 361.358105 
L 212.126642 361.095157 
L 212.609595 360.536143 
L 213.230534 359.430035 
L 213.5755 358.900407 
L 213.713486 365.549109 
L 214.127446 366.580735 
L 214.541405 366.98741 
L 215.162344 367.270409 
L 216.12825 367.451339 
L 217.646101 367.488681 
L 220.819789 367.309447 
L 221.130259 366.898877 
L 221.578715 365.879533 
L 222.027171 364.815899 
L 222.165157 367.157508 
L 222.820593 367.906492 
L 223.476029 368.221877 
L 224.510927 368.435848 
L 226.373744 368.558845 
L 228.857501 368.533289 
L 229.305957 367.937799 
L 230.064882 366.481074 
L 230.478841 365.778695 
L 230.616828 366.737501 
L 231.548237 367.095313 
L 232.790115 367.250113 
L 235.446354 367.312545 
L 237.309171 367.223701 
L 238.930512 363.813509 
L 239.068499 364.342739 
L 239.999907 364.741376 
L 241.241785 364.899973 
L 242.587153 364.900911 
L 242.93212 364.586636 
L 243.484065 363.698861 
L 244.242991 362.559878 
L 244.725944 362.213856 
L 245.243393 362.124928 
L 245.657352 362.059205 
L 245.898828 361.573505 
L 246.105808 360.139979 
L 246.450774 355.735765 
L 247.382183 342.931632 
L 247.520169 364.08887 
L 247.934129 365.879823 
L 248.313592 366.569176 
L 248.831041 367.041101 
L 249.55547 367.376566 
L 250.659361 367.620566 
L 252.522179 367.77873 
L 254.350499 367.769293 
L 254.798955 367.357749 
L 255.178418 367.155555 
L 255.833854 367.084911 
L 255.86835 367.628127 
L 255.97184 367.549486 
L 256.834256 366.598559 
L 257.696671 365.767466 
L 258.283113 365.483256 
L 258.904052 365.431955 
L 259.731971 365.608967 
L 262.629687 366.417012 
L 263.699082 364.756812 
L 264.009551 364.779026 
L 264.285524 364.868346 
L 264.423511 366.960053 
L 265.216933 367.413348 
L 266.217335 367.669917 
L 267.907669 367.843371 
L 271.046861 367.91179 
L 271.219344 367.783882 
L 271.56431 367.240306 
L 272.047263 365.976902 
L 272.737195 364.240555 
L 272.875182 364.686589 
L 274.289543 364.956599 
L 276.566319 365.041456 
L 279.567525 364.97742 
L 280.050478 364.311082 
L 280.360947 364.212203 
L 280.63692 364.367028 
L 280.981886 364.859907 
L 281.188866 365.064088 
L 281.326852 367.150331 
L 281.947791 367.630821 
L 282.741214 367.87949 
L 284.155575 368.054129 
L 284.431548 368.071624 
L 284.466044 205.796568 
L 284.535038 278.88955 
L 284.673024 282.198427 
L 284.880004 282.508385 
L 285.32846 282.600432 
L 287.294767 282.637526 
L 296.850329 282.563469 
L 297.333282 282.177478 
L 297.988718 281.436843 
L 298.126704 347.982676 
L 298.299187 356.213243 
L 298.506167 357.704782 
L 298.78214 358.261941 
L 299.196099 358.557159 
L 299.886031 358.734825 
L 301.369386 358.844678 
L 305.612469 358.868759 
L 313.477698 358.783774 
L 313.753671 358.161886 
L 314.133133 356.654474 
L 314.719576 353.272417 
L 315.064542 351.606418 
L 315.306018 356.745983 
L 315.547495 357.98451 
L 315.857964 358.498522 
L 316.30642 358.794005 
L 317.065346 358.990507 
L 318.583197 359.111654 
L 321.825879 359.128153 
L 321.894872 359.026261 
L 322.619301 356.412111 
L 323.516213 353.073627 
L 323.654199 362.65869 
L 323.999165 364.896842 
L 324.309635 365.558619 
L 324.723594 365.945412 
L 325.344533 366.206891 
L 326.413928 366.388266 
L 328.552719 366.486414 
L 330.346543 366.570693 
L 331.070972 368.128212 
L 331.415938 368.440946 
L 331.657414 368.409708 
L 331.967884 368.193883 
L 332.10587 368.614311 
L 333.830701 368.88134 
L 336.38345 368.899778 
L 338.83271 368.783581 
L 339.177676 368.309703 
L 339.764119 367.033915 
L 340.419554 365.579732 
L 340.557541 366.162602 
L 341.764922 366.495964 
L 343.489753 366.640594 
L 347.180891 366.696357 
L 347.284381 366.520163 
L 348.871225 362.346478 
L 349.009211 363.165053 
L 351.285988 363.265336 
L 355.667058 363.271769 
L 355.736051 362.72089 
L 355.908535 357.78265 
L 357.322896 306.2216 
L 357.460882 330.232075 
L 357.702359 335.208763 
L 357.943835 336.273756 
L 358.254304 336.751783 
L 358.70276 337.034493 
L 359.496182 337.234432 
L 361.15202 337.375176 
L 364.256715 337.419111 
L 364.567185 337.16627 
L 364.946648 336.511083 
L 365.4296 335.160373 
L 365.774566 334.270036 
L 365.912553 352.585482 
L 366.119533 357.887633 
L 366.361009 358.973085 
L 366.671478 359.394025 
L 367.154431 359.634926 
L 368.051343 359.789679 
L 370.155637 359.877928 
L 372.604896 359.840379 
L 372.880869 359.213973 
L 373.294829 357.577291 
L 373.915768 354.06405 
L 374.226237 352.687243 
L 374.364224 360.224405 
L 374.70919 361.101095 
L 375.088653 361.404778 
L 375.744088 361.585905 
L 377.15845 361.691814 
L 380.987574 361.699157 
L 381.160057 361.562167 
L 381.918982 360.590957 
L 382.677908 359.516488 
L 382.815894 366.29742 
L 383.229854 367.122948 
L 383.67831 367.44785 
L 384.402739 367.655721 
L 385.782603 367.78361 
L 388.887299 367.803648 
L 389.542734 367.896457 
L 390.129177 368.656551 
L 390.50864 368.835075 
L 390.819109 368.75011 
L 391.129579 368.561133 
L 391.267565 368.986914 
L 393.095886 369.158496 
L 396.511051 369.112543 
L 398.028902 368.979191 
L 398.477358 368.430848 
L 399.236283 367.079619 
L 399.581249 366.575401 
L 399.719236 367.16365 
L 401.030107 367.506265 
L 402.858428 367.658657 
L 406.342586 367.714235 
L 406.446076 367.582328 
L 408.03292 364.473287 
L 408.170907 364.991761 
L 410.06822 365.181452 
L 414.069828 365.257031 
L 415.001236 365.161742 
L 415.17372 364.000684 
L 415.484189 359.842531 
L 416.484591 345.16846 
L 416.622577 365.597864 
L 417.071033 367.157742 
L 417.519489 367.874125 
L 418.105932 368.368362 
L 418.899354 368.727988 
L 420.072239 368.998012 
L 421.969553 369.181196 
L 423.418411 369.169214 
L 423.797873 368.815021 
L 424.694785 367.986778 
L 424.936262 367.834459 
L 425.074248 368.540081 
L 426.385119 368.940056 
L 428.040957 369.152584 
L 430.938673 369.270712 
L 432.318537 369.184914 
L 432.973973 368.766866 
L 433.387932 368.488364 
L 433.525919 368.774505 
L 436.216655 369.116458 
L 439.907793 369.244231 
L 440.287255 369.15627 
L 440.804705 368.60999 
L 441.839603 367.297755 
L 441.97759 367.83899 
L 443.219468 368.238395 
L 444.806312 368.442355 
L 447.807518 368.570591 
L 448.773423 368.486922 
L 449.601342 368.107756 
L 450.291274 368.06186 
L 450.42926 368.384486 
L 452.56805 368.660067 
L 453.533956 368.716373 
L 453.568452 342.403152 
L 453.671942 344.591522 
L 453.878922 347.587458 
L 454.120398 348.313234 
L 454.465364 348.623786 
L 455.051807 348.800503 
L 456.328182 348.905215 
L 460.502272 348.935894 
L 465.435288 348.99425 
L 465.952737 351.651641 
L 466.53918 353.841217 
L 466.918642 354.578136 
L 467.091125 354.643797 
L 467.263609 358.286171 
L 467.505085 360.235548 
L 467.781058 360.750071 
L 468.195017 360.999177 
L 468.953943 361.142872 
L 470.747767 361.201626 
L 482.545609 361.25119 
L 482.925072 362.167775 
L 483.132052 362.258582 
L 483.304535 362.099326 
L 483.580508 361.432338 
L 483.994467 359.67922 
L 484.16695 359.297157 
L 484.304936 361.628153 
L 484.615406 361.885163 
L 485.236345 361.956284 
L 487.685605 361.906394 
L 490.99728 361.716249 
L 491.445736 360.554355 
L 492.170165 357.957896 
L 492.618621 356.510389 
L 492.756607 362.323304 
L 493.101573 364.063963 
L 493.44654 364.671026 
L 493.894996 365.012643 
L 494.619424 365.25658 
L 495.930296 365.424821 
L 498.655528 365.509641 
L 499.448951 365.617792 
L 500.242373 367.869148 
L 500.587339 368.293775 
L 500.794319 368.280732 
L 501.070291 368.084102 
L 501.208278 368.55035 
L 502.760626 368.862784 
L 504.864919 368.918103 
L 507.935118 368.808488 
L 508.211091 368.419817 
L 508.659547 367.33551 
L 509.521962 364.911822 
L 509.659949 365.555116 
L 510.86733 365.836472 
L 512.799141 365.962413 
L 516.317795 365.976864 
L 516.662762 364.834082 
L 517.973633 360.583622 
L 518.111619 361.824056 
L 520.25041 361.917154 
L 524.769466 361.929834 
L 524.872956 361.676374 
L 525.114432 360.139483 
L 526.252821 351.372653 
L 526.425304 351.113715 
L 526.56329 354.538088 
L 526.908256 355.244154 
L 527.322216 355.529337 
L 528.046645 355.714565 
L 529.598992 355.837657 
L 533.29013 356.081355 
L 533.807579 357.190838 
L 534.152546 357.494775 
L 534.428518 357.465508 
L 534.704491 357.195152 
L 534.876974 357.082747 
L 535.049458 360.445331 
L 535.290934 362.680858 
L 535.566907 363.344823 
L 535.94637 363.666915 
L 536.567309 363.864842 
L 537.843683 363.990442 
L 541.120862 364.029268 
L 542.086767 363.942041 
L 542.36274 363.457739 
L 542.776699 362.214028 
L 543.328645 360.370181 
L 543.466632 362.954732 
L 543.984081 363.146112 
L 545.122469 363.204411 
L 550.020989 363.126328 
L 550.193472 363.044046 
L 550.883404 362.031364 
L 551.780316 360.509075 
L 551.918302 366.088162 
L 552.332262 366.93173 
L 552.780718 367.273382 
L 553.505147 367.497251 
L 554.850515 367.641815 
L 557.817224 367.694928 
L 558.610646 367.743989 
L 559.300578 368.781904 
L 559.680041 369.004279 
L 559.99051 368.930547 
L 560.231987 368.805664 
L 560.369973 369.120472 
L 562.43977 369.247384 
L 566.92433 369.142144 
L 567.165806 369.016738 
L 567.614262 368.429666 
L 568.373188 366.999534 
L 568.683657 366.545274 
L 568.821644 367.075784 
L 570.201508 367.397221 
L 572.202312 367.541041 
L 575.479491 367.571019 
L 575.858953 366.787407 
L 577.135328 364.187193 
L 577.273315 364.719344 
L 579.274118 364.882481 
L 584.034651 365.159176 
L 584.207134 365.303297 
L 584.345121 365.108851 
L 584.5521 364.248205 
L 584.931563 361.431964 
L 585.552502 356.85238 
L 585.586999 356.850877 
L 585.724985 365.952481 
L 586.207938 367.352716 
L 586.690891 368.006755 
L 587.31183 368.456895 
L 588.174245 368.795971 
L 589.519613 369.062103 
L 591.727396 369.245245 
L 592.589812 369.185775 
L 593.176254 368.621109 
L 594.004173 368.039604 
L 594.03867 368.037746 
L 594.176656 368.596125 
L 595.556521 368.999546 
L 597.315848 369.218397 
L 600.420543 369.349595 
L 601.420945 369.271213 
L 602.283361 368.811055 
L 602.49034 368.733785 
L 602.628327 369.001993 
L 605.457049 369.251884 
L 609.286174 369.322387 
L 609.665636 369.049236 
L 610.355569 368.248296 
L 610.942011 367.650504 
L 611.079998 368.064552 
L 612.666842 368.373067 
L 614.978115 368.526772 
L 617.806838 368.528527 
L 618.669253 368.122702 
L 619.290192 368.083538 
L 619.393682 368.078604 
L 619.531668 368.405242 
L 621.670458 368.665545 
L 622.636364 368.718636 
L 622.636364 368.718636 
" clip-path="url(#pe828aa8e4a)" style="fill: none; stroke-dasharray: 5.55,2.4; stroke-dashoffset: 0; stroke: #0000ff; stroke-width: 1.5"/>
   </g>
   <g id="patch_3">
    <path d="M 90 384.48 
L 90 51.84 
" style="fill: none; stroke: #000000; stroke-width: 0.8; stroke-linejoin: miter; stroke-linecap: square"/>
   </g>
   <g id="patch_4">
    <path d="M 648 384.48 
L 648 51.84 
" style="fill: none; stroke: #000000; stroke-width: 0.8; stroke-linejoin: miter; stroke-linecap: square"/>
   </g>
   <g id="patch_5">
    <path d="M 90 384.48 
L 648 384.48 
" style="fill: none; stroke: #000000; stroke-width: 0.8; stroke-linejoin: miter; stroke-linecap: square"/>
   </g>
   <g id="patch_6">
    <path d="M 90 51.84 
L 648 51.84 
" style="fill: none; stroke: #000000; stroke-width: 0.8; stroke-linejoin: miter; stroke-linecap: square"/>
   </g>
   <g id="text_17">
    <!-- Uncertainty Convergence for phi_E (Index 0) -->
    <g transform="translate(235.51125 45.84) scale(0.12 -0.12)">
     <defs>
      <path id="DejaVuSans-55" d="M 556 4666 
L 1191 4666 
L 1191 1831 
Q 1191 1081 1462 751 
Q 1734 422 2344 422 
Q 2950 422 3222 751 
Q 3494 1081 3494 1831 
L 3494 4666 
L 4128 4666 
L 4128 1753 
Q 4128 841 3676 375 
Q 3225 -91 2344 -91 
Q 1459 -91 1007 375 
Q 556 841 556 1753 
L 556 4666 
z
" transform="scale(0.015625)"/>
      <path id="DejaVuSans-63" d="M 3122 3366 
L 3122 2828 
Q 2878 2963 2633 3030 
Q 2388 3097 2138 3097 
Q 1578 3097 1268 2742 
Q 959 2388 959 1747 
Q 959 1106 1268 751 
Q 1578 397 2138 397 
Q 2388 397 2633 464 
Q 2878 531 3122 666 
L 3122 134 
Q 2881 22 2623 -34 
Q 2366 -91 2075 -91 
Q 1284 -91 818 406 
Q 353 903 353 1747 
Q 353 2603 823 3093 
Q 1294 3584 2113 3584 
Q 2378 3584 2631 3529 
Q 2884 3475 3122 3366 
z
" transform="scale(0.015625)"/>
      <path id="DejaVuSans-79" d="M 2059 -325 
Q 1816 -950 1584 -1140 
Q 1353 -1331 966 -1331 
L 506 -1331 
L 506 -850 
L 844 -850 
Q 1081 -850 1212 -737 
Q 1344 -625 1503 -206 
L 1606 56 
L 191 3500 
L 800 3500 
L 1894 763 
L 2988 3500 
L 3597 3500 
L 2059 -325 
z
" transform="scale(0.015625)"/>
      <path id="DejaVuSans-43" d="M 4122 4306 
L 4122 3641 
Q 3803 3938 3442 4084 
Q 3081 4231 2675 4231 
Q 1875 4231 1450 3742 
Q 1025 3253 1025 2328 
Q 1025 1406 1450 917 
Q 1875 428 2675 428 
Q 3081 428 3442 575 
Q 3803 722 4122 1019 
L 4122 359 
Q 3791 134 3420 21 
Q 3050 -91 2638 -91 
Q 1578 -91 968 557 
Q 359 1206 359 2328 
Q 359 3453 968 4101 
Q 1578 4750 2638 4750 
Q 3056 4750 3426 4639 
Q 3797 4528 4122 4306 
z
" transform="scale(0.015625)"/>
      <path id="DejaVuSans-67" d="M 2906 1791 
Q 2906 2416 2648 2759 
Q 2391 3103 1925 3103 
Q 1463 3103 1205 2759 
Q 947 2416 947 1791 
Q 947 1169 1205 825 
Q 1463 481 1925 481 
Q 2391 481 2648 825 
Q 2906 1169 2906 1791 
z
M 3481 434 
Q 3481 -459 3084 -895 
Q 2688 -1331 1869 -1331 
Q 1566 -1331 1297 -1286 
Q 1028 -1241 775 -1147 
L 775 -588 
Q 1028 -725 1275 -790 
Q 1522 -856 1778 -856 
Q 2344 -856 2625 -561 
Q 2906 -266 2906 331 
L 2906 616 
Q 2728 306 2450 153 
Q 2172 0 1784 0 
Q 1141 0 747 490 
Q 353 981 353 1791 
Q 353 2603 747 3093 
Q 1141 3584 1784 3584 
Q 2172 3584 2450 3431 
Q 2728 3278 2906 2969 
L 2906 3500 
L 3481 3500 
L 3481 434 
z
" transform="scale(0.015625)"/>
      <path id="DejaVuSans-66" d="M 2375 4863 
L 2375 4384 
L 1825 4384 
Q 1516 4384 1395 4259 
Q 1275 4134 1275 3809 
L 1275 3500 
L 2222 3500 
L 2222 3053 
L 1275 3053 
L 1275 0 
L 697 0 
L 697 3053 
L 147 3053 
L 147 3500 
L 697 3500 
L 697 3744 
Q 697 4328 969 4595 
Q 1241 4863 1831 4863 
L 2375 4863 
z
" transform="scale(0.015625)"/>
      <path id="DejaVuSans-70" d="M 1159 525 
L 1159 -1331 
L 581 -1331 
L 581 3500 
L 1159 3500 
L 1159 2969 
Q 1341 3281 1617 3432 
Q 1894 3584 2278 3584 
Q 2916 3584 3314 3078 
Q 3713 2572 3713 1747 
Q 3713 922 3314 415 
Q 2916 -91 2278 -91 
Q 1894 -91 1617 61 
Q 1341 213 1159 525 
z
M 3116 1747 
Q 3116 2381 2855 2742 
Q 2594 3103 2138 3103 
Q 1681 3103 1420 2742 
Q 1159 2381 1159 1747 
Q 1159 1113 1420 752 
Q 1681 391 2138 391 
Q 2594 391 2855 752 
Q 3116 1113 3116 1747 
z
" transform="scale(0.015625)"/>
      <path id="DejaVuSans-68" d="M 3513 2113 
L 3513 0 
L 2938 0 
L 2938 2094 
Q 2938 2591 2744 2837 
Q 2550 3084 2163 3084 
Q 1697 3084 1428 2787 
Q 1159 2491 1159 1978 
L 1159 0 
L 581 0 
L 581 4863 
L 1159 4863 
L 1159 2956 
Q 1366 3272 1645 3428 
Q 1925 3584 2291 3584 
Q 2894 3584 3203 3211 
Q 3513 2838 3513 2113 
z
" transform="scale(0.015625)"/>
      <path id="DejaVuSans-5f" d="M 3263 -1063 
L 3263 -1509 
L -63 -1509 
L -63 -1063 
L 3263 -1063 
z
" transform="scale(0.015625)"/>
      <path id="DejaVuSans-45" d="M 628 4666 
L 3578 4666 
L 3578 4134 
L 1259 4134 
L 1259 2753 
L 3481 2753 
L 3481 2222 
L 1259 2222 
L 1259 531 
L 3634 531 
L 3634 0 
L 628 0 
L 628 4666 
z
" transform="scale(0.015625)"/>
      <path id="DejaVuSans-49" d="M 628 4666 
L 1259 4666 
L 1259 0 
L 628 0 
L 628 4666 
z
" transform="scale(0.015625)"/>
      <path id="DejaVuSans-78" d="M 3513 3500 
L 2247 1797 
L 3578 0 
L 2900 0 
L 1881 1375 
L 863 0 
L 184 0 
L 1544 1831 
L 300 3500 
L 978 3500 
L 1906 2253 
L 2834 3500 
L 3513 3500 
z
" transform="scale(0.015625)"/>
     </defs>
     <use xlink:href="#DejaVuSans-55"/>
     <use xlink:href="#DejaVuSans-6e" transform="translate(73.193359 0)"/>
     <use xlink:href="#DejaVuSans-63" transform="translate(136.572266 0)"/>
     <use xlink:href="#DejaVuSans-65" transform="translate(191.552734 0)"/>
     <use xlink:href="#DejaVuSans-72" transform="translate(253.076172 0)"/>
     <use xlink:href="#DejaVuSans-74" transform="translate(294.189453 0)"/>
     <use xlink:href="#DejaVuSans-61" transform="translate(333.398438 0)"/>
     <use xlink:href="#DejaVuSans-69" transform="translate(394.677734 0)"/>
     <use xlink:href="#DejaVuSans-6e" transform="translate(422.460938 0)"/>
     <use xlink:href="#DejaVuSans-74" transform="translate(485.839844 0)"/>
     <use xlink:href="#DejaVuSans-79" transform="translate(525.048828 0)"/>
     <use xlink:href="#DejaVuSans-20" transform="translate(584.228516 0)"/>
     <use xlink:href="#DejaVuSans-43" transform="translate(616.015625 0)"/>
     <use xlink:href="#DejaVuSans-6f" transform="translate(685.839844 0)"/>
     <use xlink:href="#DejaVuSans-6e" transform="translate(747.021484 0)"/>
     <use xlink:href="#DejaVuSans-76" transform="translate(810.400391 0)"/>
     <use xlink:href="#DejaVuSans-65" transform="translate(869.580078 0)"/>
     <use xlink:href="#DejaVuSans-72" transform="translate(931.103516 0)"/>
     <use xlink:href="#DejaVuSans-67" transform="translate(970.466797 0)"/>
     <use xlink:href="#DejaVuSans-65" transform="translate(1033.943359 0)"/>
     <use xlink:href="#DejaVuSans-6e" transform="translate(1095.466797 0)"/>
     <use xlink:href="#DejaVuSans-63" transform="translate(1158.845703 0)"/>
     <use xlink:href="#DejaVuSans-65" transform="translate(1213.826172 0)"/>
     <use xlink:href="#DejaVuSans-20" transform="translate(1275.349609 0)"/>
     <use xlink:href="#DejaVuSans-66" transform="translate(1307.136719 0)"/>
     <use xlink:href="#DejaVuSans-6f" transform="translate(1342.341797 0)"/>
     <use xlink:href="#DejaVuSans-72" transform="translate(1403.523438 0)"/>
     <use xlink:href="#DejaVuSans-20" transform="translate(1444.636719 0)"/>
     <use xlink:href="#DejaVuSans-70" transform="translate(1476.423828 0)"/>
     <use xlink:href="#DejaVuSans-68" transform="translate(1539.900391 0)"/>
     <use xlink:href="#DejaVuSans-69" transform="translate(1603.279297 0)"/>
     <use xlink:href="#DejaVuSans-5f" transform="translate(1631.0625 0)"/>
     <use xlink:href="#DejaVuSans-45" transform="translate(1681.0625 0)"/>
     <use xlink:href="#DejaVuSans-20" transform="translate(1744.246094 0)"/>
     <use xlink:href="#DejaVuSans-28" transform="translate(1776.033203 0)"/>
     <use xlink:href="#DejaVuSans-49" transform="translate(1815.046875 0)"/>
     <use xlink:href="#DejaVuSans-6e" transform="translate(1844.539062 0)"/>
     <use xlink:href="#DejaVuSans-64" transform="translate(1907.917969 0)"/>
     <use xlink:href="#DejaVuSans-65" transform="translate(1971.394531 0)"/>
     <use xlink:href="#DejaVuSans-78" transform="translate(2031.167969 0)"/>
     <use xlink:href="#DejaVuSans-20" transform="translate(2090.347656 0)"/>
     <use xlink:href="#DejaVuSans-30" transform="translate(2122.134766 0)"/>
     <use xlink:href="#DejaVuSans-29" transform="translate(2185.757812 0)"/>
    </g>
   </g>
   <g id="legend_1">
    <g id="patch_7">
     <path d="M 478.453125 89.19625 
L 641 89.19625 
Q 643 89.19625 643 87.19625 
L 643 58.84 
Q 643 56.84 641 56.84 
L 478.453125 56.84 
Q 476.453125 56.84 476.453125 58.84 
L 476.453125 87.19625 
Q 476.453125 89.19625 478.453125 89.19625 
z
" style="fill: #ffffff; opacity: 0.8; stroke: #cccccc; stroke-linejoin: miter"/>
    </g>
    <g id="line2d_31">
     <path d="M 480.453125 64.938437 
L 490.453125 64.938437 
L 500.453125 64.938437 
" style="fill: none; stroke: #ff0000; stroke-width: 1.5; stroke-linecap: square"/>
    </g>
    <g id="text_18">
     <!-- Baseline KF -->
     <g transform="translate(508.453125 68.438437) scale(0.1 -0.1)">
      <defs>
       <path id="DejaVuSans-42" d="M 1259 2228 
L 1259 519 
L 2272 519 
Q 2781 519 3026 730 
Q 3272 941 3272 1375 
Q 3272 1813 3026 2020 
Q 2781 2228 2272 2228 
L 1259 2228 
z
M 1259 4147 
L 1259 2741 
L 2194 2741 
Q 2656 2741 2882 2914 
Q 3109 3088 3109 3444 
Q 3109 3797 2882 3972 
Q 2656 4147 2194 4147 
L 1259 4147 
z
M 628 4666 
L 2241 4666 
Q 2963 4666 3353 4366 
Q 3744 4066 3744 3513 
Q 3744 3084 3544 2831 
Q 3344 2578 2956 2516 
Q 3422 2416 3680 2098 
Q 3938 1781 3938 1306 
Q 3938 681 3513 340 
Q 3088 0 2303 0 
L 628 0 
L 628 4666 
z
" transform="scale(0.015625)"/>
       <path id="DejaVuSans-6c" d="M 603 4863 
L 1178 4863 
L 1178 0 
L 603 0 
L 603 4863 
z
" transform="scale(0.015625)"/>
       <path id="DejaVuSans-4b" d="M 628 4666 
L 1259 4666 
L 1259 2694 
L 3353 4666 
L 4166 4666 
L 1850 2491 
L 4331 0 
L 3500 0 
L 1259 2247 
L 1259 0 
L 628 0 
L 628 4666 
z
" transform="scale(0.015625)"/>
       <path id="DejaVuSans-46" d="M 628 4666 
L 3309 4666 
L 3309 4134 
L 1259 4134 
L 1259 2759 
L 3109 2759 
L 3109 2228 
L 1259 2228 
L 1259 0 
L 628 0 
L 628 4666 
z
" transform="scale(0.015625)"/>
      </defs>
      <use xlink:href="#DejaVuSans-42"/>
      <use xlink:href="#DejaVuSans-61" transform="translate(68.603516 0)"/>
      <use xlink:href="#DejaVuSans-73" transform="translate(129.882812 0)"/>
      <use xlink:href="#DejaVuSans-65" transform="translate(181.982422 0)"/>
      <use xlink:href="#DejaVuSans-6c" transform="translate(243.505859 0)"/>
      <use xlink:href="#DejaVuSans-69" transform="translate(271.289062 0)"/>
      <use xlink:href="#DejaVuSans-6e" transform="translate(299.072266 0)"/>
      <use xlink:href="#DejaVuSans-65" transform="translate(362.451172 0)"/>
      <use xlink:href="#DejaVuSans-20" transform="translate(423.974609 0)"/>
      <use xlink:href="#DejaVuSans-4b" transform="translate(455.761719 0)"/>
      <use xlink:href="#DejaVuSans-46" transform="translate(521.337891 0)"/>
     </g>
    </g>
    <g id="line2d_32">
     <path d="M 480.453125 79.616562 
L 490.453125 79.616562 
L 500.453125 79.616562 
" style="fill: none; stroke-dasharray: 5.55,2.4; stroke-dashoffset: 0; stroke: #0000ff; stroke-width: 1.5"/>
    </g>
    <g id="text_19">
     <!-- Shadow KF (LLM Assisted) -->
     <g transform="translate(508.453125 83.116562) scale(0.1 -0.1)">
      <defs>
       <path id="DejaVuSans-77" d="M 269 3500 
L 844 3500 
L 1563 769 
L 2278 3500 
L 2956 3500 
L 3675 769 
L 4391 3500 
L 4966 3500 
L 4050 0 
L 3372 0 
L 2619 2869 
L 1863 0 
L 1184 0 
L 269 3500 
z
" transform="scale(0.015625)"/>
       <path id="DejaVuSans-4c" d="M 628 4666 
L 1259 4666 
L 1259 531 
L 3531 531 
L 3531 0 
L 628 0 
L 628 4666 
z
" transform="scale(0.015625)"/>
       <path id="DejaVuSans-41" d="M 2188 4044 
L 1331 1722 
L 3047 1722 
L 2188 4044 
z
M 1831 4666 
L 2547 4666 
L 4325 0 
L 3669 0 
L 3244 1197 
L 1141 1197 
L 716 0 
L 50 0 
L 1831 4666 
z
" transform="scale(0.015625)"/>
      </defs>
      <use xlink:href="#DejaVuSans-53"/>
      <use xlink:href="#DejaVuSans-68" transform="translate(63.476562 0)"/>
      <use xlink:href="#DejaVuSans-61" transform="translate(126.855469 0)"/>
      <use xlink:href="#DejaVuSans-64" transform="translate(188.134766 0)"/>
      <use xlink:href="#DejaVuSans-6f" transform="translate(251.611328 0)"/>
      <use xlink:href="#DejaVuSans-77" transform="translate(312.792969 0)"/>
      <use xlink:href="#DejaVuSans-20" transform="translate(394.580078 0)"/>
      <use xlink:href="#DejaVuSans-4b" transform="translate(426.367188 0)"/>
      <use xlink:href="#DejaVuSans-46" transform="translate(491.943359 0)"/>
      <use xlink:href="#DejaVuSans-20" transform="translate(549.462891 0)"/>
      <use xlink:href="#DejaVuSans-28" transform="translate(581.25 0)"/>
      <use xlink:href="#DejaVuSans-4c" transform="translate(620.263672 0)"/>
      <use xlink:href="#DejaVuSans-4c" transform="translate(675.976562 0)"/>
      <use xlink:href="#DejaVuSans-4d" transform="translate(731.689453 0)"/>
      <use xlink:href="#DejaVuSans-20" transform="translate(817.96875 0)"/>
      <use xlink:href="#DejaVuSans-41" transform="translate(849.755859 0)"/>
      <use xlink:href="#DejaVuSans-73" transform="translate(918.164062 0)"/>
      <use xlink:href="#DejaVuSans-73" transform="translate(970.263672 0)"/>
      <use xlink:href="#DejaVuSans-69" transform="translate(1022.363281 0)"/>
      <use xlink:href="#DejaVuSans-73" transform="translate(1050.146484 0)"/>
      <use xlink:href="#DejaVuSans-74" transform="translate(1102.246094 0)"/>
      <use xlink:href="#DejaVuSans-65" transform="translate(1141.455078 0)"/>
      <use xlink:href="#DejaVuSans-64" transform="translate(1202.978516 0)"/>
      <use xlink:href="#DejaVuSans-29" transform="translate(1266.455078 0)"/>
     </g>
    </g>
   </g>
  </g>
 </g>
 <defs>
  <clipPath id="pe828aa8e4a">
   <rect x="90" y="51.84" width="558" height="332.64"/>
  </clipPath>
 </defs>
</svg>
