<?xml version="1.0" encoding="utf-8" standalone="no"?>
<!DOCTYPE svg PUBLIC "-//W3C//DTD SVG 1.1//EN"
  "http://www.w3.org/Graphics/SVG/1.1/DTD/svg11.dtd">
<svg xmlns:xlink="http://www.w3.org/1999/xlink" width="720pt" height="432pt" viewBox="0 0 720 432" xmlns="http://www.w3.org/2000/svg" version="1.1">
 <metadata>
  <rdf:RDF xmlns:dc="http://purl.org/dc/elements/1.1/" xmlns:cc="http://creativecommons.org/ns#" xmlns:rdf="http://www.w3.org/1999/02/22-rdf-syntax-ns#">
   <cc:Work>
    <dc:type rdf:resource="http://purl.org/dc/dcmitype/StillImage"/>
    <dc:date>2026-03-25T09:55:24.803531</dc:date>
    <dc:format>image/svg+xml</dc:format>
    <dc:creator>
     <cc:Agent>
      <dc:title>Matplotlib v3.10.8, https://matplotlib.org/</dc:title>
     </cc:Agent>
    </dc:creator>
   </cc:Work>
  </rdf:RDF>
 </metadata>
 <defs>
  <style type="text/css">*{stroke-linejoin: round; stroke-linecap: butt}</style>
 </defs>
 <g id="figure_1">
  <g id="patch_1">
   <path d="M 0 432 
L 720 432 
L 720 0 
L 0 0 
z
" style="fill: #ffffff"/>
  </g>
  <g id="axes_1">
   <g id="patch_2">
    <path d="M 90 384.48 
L 648 384.48 
L 648 51.84 
L 90 51.84 
z
" style="fill: #ffffff"/>
   </g>
   <g id="matplotlib.axis_1">
    <g id="xtick_1">
     <g id="line2d_1">
      <path d="M 115.363636 384.48 
L 115.363636 51.84 
" clip-path="url(#pcf525f14da)" style="fill: none; stroke: #b0b0b0; stroke-width: 0.8; stroke-linecap: square"/>
     </g>
     <g id="line2d_2">
      <defs>
       <path id="m0d99f2e04b" d="M 0 0 
L 0 3.5 
" style="stroke: #000000; stroke-width: 0.8"/>
      </defs>
      <g>
       <use xlink:href="#m0d99f2e04b" x="115.363636" y="384.48" style="stroke: #000000; stroke-width: 0.8"/>
      </g>
     </g>
     <g id="text_1">
      <!-- 0 -->
      <g transform="translate(112.182386 399.078438) scale(0.1 -0.1)">
       <defs>
        <path id="DejaVuSans-30" d="M 2034 4250 
Q 1547 4250 1301 3770 
Q 1056 3291 1056 2328 
Q 1056 1369 1301 889 
Q 1547 409 2034 409 
Q 2525 409 2770 889 
Q 3016 1369 3016 2328 
Q 3016 3291 2770 3770 
Q 2525 4250 2034 4250 
z
M 2034 4750 
Q 2819 4750 3233 4129 
Q 3647 3509 3647 2328 
Q 3647 1150 3233 529 
Q 2819 -91 2034 -91 
Q 1250 -91 836 529 
Q 422 1150 422 2328 
Q 422 3509 836 4129 
Q 1250 4750 2034 4750 
z
" transform="scale(0.015625)"/>
       </defs>
       <use xlink:href="#DejaVuSans-30"/>
      </g>
     </g>
    </g>
    <g id="xtick_2">
     <g id="line2d_3">
      <path d="M 201.605174 384.48 
L 201.605174 51.84 
" clip-path="url(#pcf525f14da)" style="fill: none; stroke: #b0b0b0; stroke-width: 0.8; stroke-linecap: square"/>
     </g>
     <g id="line2d_4">
      <g>
       <use xlink:href="#m0d99f2e04b" x="201.605174" y="384.48" style="stroke: #000000; stroke-width: 0.8"/>
      </g>
     </g>
     <g id="text_2">
      <!-- 50 -->
      <g transform="translate(195.242674 399.078438) scale(0.1 -0.1)">
       <defs>
        <path id="DejaVuSans-35" d="M 691 4666 
L 3169 4666 
L 3169 4134 
L 1269 4134 
L 1269 2991 
Q 1406 3038 1543 3061 
Q 1681 3084 1819 3084 
Q 2600 3084 3056 2656 
Q 3513 2228 3513 1497 
Q 3513 744 3044 326 
Q 2575 -91 1722 -91 
Q 1428 -91 1123 -41 
Q 819 9 494 109 
L 494 744 
Q 775 591 1075 516 
Q 1375 441 1709 441 
Q 2250 441 2565 725 
Q 2881 1009 2881 1497 
Q 2881 1984 2565 2268 
Q 2250 2553 1709 2553 
Q 1456 2553 1204 2497 
Q 953 2441 691 2322 
L 691 4666 
z
" transform="scale(0.015625)"/>
       </defs>
       <use xlink:href="#DejaVuSans-35"/>
       <use xlink:href="#DejaVuSans-30" transform="translate(63.623047 0)"/>
      </g>
     </g>
    </g>
    <g id="xtick_3">
     <g id="line2d_5">
      <path d="M 287.846713 384.48 
L 287.846713 51.84 
" clip-path="url(#pcf525f14da)" style="fill: none; stroke: #b0b0b0; stroke-width: 0.8; stroke-linecap: square"/>
     </g>
     <g id="line2d_6">
      <g>
       <use xlink:href="#m0d99f2e04b" x="287.846713" y="384.48" style="stroke: #000000; stroke-width: 0.8"/>
      </g>
     </g>
     <g id="text_3">
      <!-- 100 -->
      <g transform="translate(278.302963 399.078438) scale(0.1 -0.1)">
       <defs>
        <path id="DejaVuSans-31" d="M 794 531 
L 1825 531 
L 1825 4091 
L 703 3866 
L 703 4441 
L 1819 4666 
L 2450 4666 
L 2450 531 
L 3481 531 
L 3481 0 
L 794 0 
L 794 531 
z
" transform="scale(0.015625)"/>
       </defs>
       <use xlink:href="#DejaVuSans-31"/>
       <use xlink:href="#DejaVuSans-30" transform="translate(63.623047 0)"/>
       <use xlink:href="#DejaVuSans-30" transform="translate(127.246094 0)"/>
      </g>
     </g>
    </g>
    <g id="xtick_4">
     <g id="line2d_7">
      <path d="M 374.088251 384.48 
L 374.088251 51.84 
" clip-path="url(#pcf525f14da)" style="fill: none; stroke: #b0b0b0; stroke-width: 0.8; stroke-linecap: square"/>
     </g>
     <g id="line2d_8">
      <g>
       <use xlink:href="#m0d99f2e04b" x="374.088251" y="384.48" style="stroke: #000000; stroke-width: 0.8"/>
      </g>
     </g>
     <g id="text_4">
      <!-- 150 -->
      <g transform="translate(364.544501 399.078438) scale(0.1 -0.1)">
       <use xlink:href="#DejaVuSans-31"/>
       <use xlink:href="#DejaVuSans-35" transform="translate(63.623047 0)"/>
       <use xlink:href="#DejaVuSans-30" transform="translate(127.246094 0)"/>
      </g>
     </g>
    </g>
    <g id="xtick_5">
     <g id="line2d_9">
      <path d="M 460.329789 384.48 
L 460.329789 51.84 
" clip-path="url(#pcf525f14da)" style="fill: none; stroke: #b0b0b0; stroke-width: 0.8; stroke-linecap: square"/>
     </g>
     <g id="line2d_10">
      <g>
       <use xlink:href="#m0d99f2e04b" x="460.329789" y="384.48" style="stroke: #000000; stroke-width: 0.8"/>
      </g>
     </g>
     <g id="text_5">
      <!-- 200 -->
      <g transform="translate(450.786039 399.078438) scale(0.1 -0.1)">
       <defs>
        <path id="DejaVuSans-32" d="M 1228 531 
L 3431 531 
L 3431 0 
L 469 0 
L 469 531 
Q 828 903 1448 1529 
Q 2069 2156 2228 2338 
Q 2531 2678 2651 2914 
Q 2772 3150 2772 3378 
Q 2772 3750 2511 3984 
Q 2250 4219 1831 4219 
Q 1534 4219 1204 4116 
Q 875 4013 500 3803 
L 500 4441 
Q 881 4594 1212 4672 
Q 1544 4750 1819 4750 
Q 2544 4750 2975 4387 
Q 3406 4025 3406 3419 
Q 3406 3131 3298 2873 
Q 3191 2616 2906 2266 
Q 2828 2175 2409 1742 
Q 1991 1309 1228 531 
z
" transform="scale(0.015625)"/>
       </defs>
       <use xlink:href="#DejaVuSans-32"/>
       <use xlink:href="#DejaVuSans-30" transform="translate(63.623047 0)"/>
       <use xlink:href="#DejaVuSans-30" transform="translate(127.246094 0)"/>
      </g>
     </g>
    </g>
    <g id="xtick_6">
     <g id="line2d_11">
      <path d="M 546.571327 384.48 
L 546.571327 51.84 
" clip-path="url(#pcf525f14da)" style="fill: none; stroke: #b0b0b0; stroke-width: 0.8; stroke-linecap: square"/>
     </g>
     <g id="line2d_12">
      <g>
       <use xlink:href="#m0d99f2e04b" x="546.571327" y="384.48" style="stroke: #000000; stroke-width: 0.8"/>
      </g>
     </g>
     <g id="text_6">
      <!-- 250 -->
      <g transform="translate(537.027577 399.078438) scale(0.1 -0.1)">
       <use xlink:href="#DejaVuSans-32"/>
       <use xlink:href="#DejaVuSans-35" transform="translate(63.623047 0)"/>
       <use xlink:href="#DejaVuSans-30" transform="translate(127.246094 0)"/>
      </g>
     </g>
    </g>
    <g id="xtick_7">
     <g id="line2d_13">
      <path d="M 632.812865 384.48 
L 632.812865 51.84 
" clip-path="url(#pcf525f14da)" style="fill: none; stroke: #b0b0b0; stroke-width: 0.8; stroke-linecap: square"/>
     </g>
     <g id="line2d_14">
      <g>
       <use xlink:href="#m0d99f2e04b" x="632.812865" y="384.48" style="stroke: #000000; stroke-width: 0.8"/>
      </g>
     </g>
     <g id="text_7">
      <!-- 300 -->
      <g transform="translate(623.269115 399.078438) scale(0.1 -0.1)">
       <defs>
        <path id="DejaVuSans-33" d="M 2597 2516 
Q 3050 2419 3304 2112 
Q 3559 1806 3559 1356 
Q 3559 666 3084 287 
Q 2609 -91 1734 -91 
Q 1441 -91 1130 -33 
Q 819 25 488 141 
L 488 750 
Q 750 597 1062 519 
Q 1375 441 1716 441 
Q 2309 441 2620 675 
Q 2931 909 2931 1356 
Q 2931 1769 2642 2001 
Q 2353 2234 1838 2234 
L 1294 2234 
L 1294 2753 
L 1863 2753 
Q 2328 2753 2575 2939 
Q 2822 3125 2822 3475 
Q 2822 3834 2567 4026 
Q 2313 4219 1838 4219 
Q 1578 4219 1281 4162 
Q 984 4106 628 3988 
L 628 4550 
Q 988 4650 1302 4700 
Q 1616 4750 1894 4750 
Q 2613 4750 3031 4423 
Q 3450 4097 3450 3541 
Q 3450 3153 3228 2886 
Q 3006 2619 2597 2516 
z
" transform="scale(0.015625)"/>
       </defs>
       <use xlink:href="#DejaVuSans-33"/>
       <use xlink:href="#DejaVuSans-30" transform="translate(63.623047 0)"/>
       <use xlink:href="#DejaVuSans-30" transform="translate(127.246094 0)"/>
      </g>
     </g>
    </g>
    <g id="text_8">
     <!-- Maneuver Time (s) -->
     <g transform="translate(322.198438 412.756563) scale(0.1 -0.1)">
      <defs>
       <path id="DejaVuSans-4d" d="M 628 4666 
L 1569 4666 
L 2759 1491 
L 3956 4666 
L 4897 4666 
L 4897 0 
L 4281 0 
L 4281 4097 
L 3078 897 
L 2444 897 
L 1241 4097 
L 1241 0 
L 628 0 
L 628 4666 
z
" transform="scale(0.015625)"/>
       <path id="DejaVuSans-61" d="M 2194 1759 
Q 1497 1759 1228 1600 
Q 959 1441 959 1056 
Q 959 750 1161 570 
Q 1363 391 1709 391 
Q 2188 391 2477 730 
Q 2766 1069 2766 1631 
L 2766 1759 
L 2194 1759 
z
M 3341 1997 
L 3341 0 
L 2766 0 
L 2766 531 
Q 2569 213 2275 61 
Q 1981 -91 1556 -91 
Q 1019 -91 701 211 
Q 384 513 384 1019 
Q 384 1609 779 1909 
Q 1175 2209 1959 2209 
L 2766 2209 
L 2766 2266 
Q 2766 2663 2505 2880 
Q 2244 3097 1772 3097 
Q 1472 3097 1187 3025 
Q 903 2953 641 2809 
L 641 3341 
Q 956 3463 1253 3523 
Q 1550 3584 1831 3584 
Q 2591 3584 2966 3190 
Q 3341 2797 3341 1997 
z
" transform="scale(0.015625)"/>
       <path id="DejaVuSans-6e" d="M 3513 2113 
L 3513 0 
L 2938 0 
L 2938 2094 
Q 2938 2591 2744 2837 
Q 2550 3084 2163 3084 
Q 1697 3084 1428 2787 
Q 1159 2491 1159 1978 
L 1159 0 
L 581 0 
L 581 3500 
L 1159 3500 
L 1159 2956 
Q 1366 3272 1645 3428 
Q 1925 3584 2291 3584 
Q 2894 3584 3203 3211 
Q 3513 2838 3513 2113 
z
" transform="scale(0.015625)"/>
       <path id="DejaVuSans-65" d="M 3597 1894 
L 3597 1613 
L 953 1613 
Q 991 1019 1311 708 
Q 1631 397 2203 397 
Q 2534 397 2845 478 
Q 3156 559 3463 722 
L 3463 178 
Q 3153 47 2828 -22 
Q 2503 -91 2169 -91 
Q 1331 -91 842 396 
Q 353 884 353 1716 
Q 353 2575 817 3079 
Q 1281 3584 2069 3584 
Q 2775 3584 3186 3129 
Q 3597 2675 3597 1894 
z
M 3022 2063 
Q 3016 2534 2758 2815 
Q 2500 3097 2075 3097 
Q 1594 3097 1305 2825 
Q 1016 2553 972 2059 
L 3022 2063 
z
" transform="scale(0.015625)"/>
       <path id="DejaVuSans-75" d="M 544 1381 
L 544 3500 
L 1119 3500 
L 1119 1403 
Q 1119 906 1312 657 
Q 1506 409 1894 409 
Q 2359 409 2629 706 
Q 2900 1003 2900 1516 
L 2900 3500 
L 3475 3500 
L 3475 0 
L 2900 0 
L 2900 538 
Q 2691 219 2414 64 
Q 2138 -91 1772 -91 
Q 1169 -91 856 284 
Q 544 659 544 1381 
z
M 1991 3584 
L 1991 3584 
z
" transform="scale(0.015625)"/>
       <path id="DejaVuSans-76" d="M 191 3500 
L 800 3500 
L 1894 563 
L 2988 3500 
L 3597 3500 
L 2284 0 
L 1503 0 
L 191 3500 
z
" transform="scale(0.015625)"/>
       <path id="DejaVuSans-72" d="M 2631 2963 
Q 2534 3019 2420 3045 
Q 2306 3072 2169 3072 
Q 1681 3072 1420 2755 
Q 1159 2438 1159 1844 
L 1159 0 
L 581 0 
L 581 3500 
L 1159 3500 
L 1159 2956 
Q 1341 3275 1631 3429 
Q 1922 3584 2338 3584 
Q 2397 3584 2469 3576 
Q 2541 3569 2628 3553 
L 2631 2963 
z
" transform="scale(0.015625)"/>
       <path id="DejaVuSans-20" transform="scale(0.015625)"/>
       <path id="DejaVuSans-54" d="M -19 4666 
L 3928 4666 
L 3928 4134 
L 2272 4134 
L 2272 0 
L 1638 0 
L 1638 4134 
L -19 4134 
L -19 4666 
z
" transform="scale(0.015625)"/>
       <path id="DejaVuSans-69" d="M 603 3500 
L 1178 3500 
L 1178 0 
L 603 0 
L 603 3500 
z
M 603 4863 
L 1178 4863 
L 1178 4134 
L 603 4134 
L 603 4863 
z
" transform="scale(0.015625)"/>
       <path id="DejaVuSans-6d" d="M 3328 2828 
Q 3544 3216 3844 3400 
Q 4144 3584 4550 3584 
Q 5097 3584 5394 3201 
Q 5691 2819 5691 2113 
L 5691 0 
L 5113 0 
L 5113 2094 
Q 5113 2597 4934 2840 
Q 4756 3084 4391 3084 
Q 3944 3084 3684 2787 
Q 3425 2491 3425 1978 
L 3425 0 
L 2847 0 
L 2847 2094 
Q 2847 2600 2669 2842 
Q 2491 3084 2119 3084 
Q 1678 3084 1418 2786 
Q 1159 2488 1159 1978 
L 1159 0 
L 581 0 
L 581 3500 
L 1159 3500 
L 1159 2956 
Q 1356 3278 1631 3431 
Q 1906 3584 2284 3584 
Q 2666 3584 2933 3390 
Q 3200 3197 3328 2828 
z
" transform="scale(0.015625)"/>
       <path id="DejaVuSans-28" d="M 1984 4856 
Q 1566 4138 1362 3434 
Q 1159 2731 1159 2009 
Q 1159 1288 1364 580 
Q 1569 -128 1984 -844 
L 1484 -844 
Q 1016 -109 783 600 
Q 550 1309 550 2009 
Q 550 2706 781 3412 
Q 1013 4119 1484 4856 
L 1984 4856 
z
" transform="scale(0.015625)"/>
       <path id="DejaVuSans-73" d="M 2834 3397 
L 2834 2853 
Q 2591 2978 2328 3040 
Q 2066 3103 1784 3103 
Q 1356 3103 1142 2972 
Q 928 2841 928 2578 
Q 928 2378 1081 2264 
Q 1234 2150 1697 2047 
L 1894 2003 
Q 2506 1872 2764 1633 
Q 3022 1394 3022 966 
Q 3022 478 2636 193 
Q 2250 -91 1575 -91 
Q 1294 -91 989 -36 
Q 684 19 347 128 
L 347 722 
Q 666 556 975 473 
Q 1284 391 1588 391 
Q 1994 391 2212 530 
Q 2431 669 2431 922 
Q 2431 1156 2273 1281 
Q 2116 1406 1581 1522 
L 1381 1569 
Q 847 1681 609 1914 
Q 372 2147 372 2553 
Q 372 3047 722 3315 
Q 1072 3584 1716 3584 
Q 2034 3584 2315 3537 
Q 2597 3491 2834 3397 
z
" transform="scale(0.015625)"/>
       <path id="DejaVuSans-29" d="M 513 4856 
L 1013 4856 
Q 1481 4119 1714 3412 
Q 1947 2706 1947 2009 
Q 1947 1309 1714 600 
Q 1481 -109 1013 -844 
L 513 -844 
Q 928 -128 1133 580 
Q 1338 1288 1338 2009 
Q 1338 2731 1133 3434 
Q 928 4138 513 4856 
z
" transform="scale(0.015625)"/>
      </defs>
      <use xlink:href="#DejaVuSans-4d"/>
      <use xlink:href="#DejaVuSans-61" transform="translate(86.279297 0)"/>
      <use xlink:href="#DejaVuSans-6e" transform="translate(147.558594 0)"/>
      <use xlink:href="#DejaVuSans-65" transform="translate(210.9375 0)"/>
      <use xlink:href="#DejaVuSans-75" transform="translate(272.460938 0)"/>
      <use xlink:href="#DejaVuSans-76" transform="translate(335.839844 0)"/>
      <use xlink:href="#DejaVuSans-65" transform="translate(395.019531 0)"/>
      <use xlink:href="#DejaVuSans-72" transform="translate(456.542969 0)"/>
      <use xlink:href="#DejaVuSans-20" transform="translate(497.65625 0)"/>
      <use xlink:href="#DejaVuSans-54" transform="translate(529.443359 0)"/>
      <use xlink:href="#DejaVuSans-69" transform="translate(587.402344 0)"/>
      <use xlink:href="#DejaVuSans-6d" transform="translate(615.185547 0)"/>
      <use xlink:href="#DejaVuSans-65" transform="translate(712.597656 0)"/>
      <use xlink:href="#DejaVuSans-20" transform="translate(774.121094 0)"/>
      <use xlink:href="#DejaVuSans-28" transform="translate(805.908203 0)"/>
      <use xlink:href="#DejaVuSans-73" transform="translate(844.921875 0)"/>
      <use xlink:href="#DejaVuSans-29" transform="translate(897.021484 0)"/>
     </g>
    </g>
   </g>
   <g id="matplotlib.axis_2">
    <g id="ytick_1">
     <g id="line2d_15">
      <path d="M 90 369.383173 
L 648 369.383173 
" clip-path="url(#pcf525f14da)" style="fill: none; stroke: #b0b0b0; stroke-width: 0.8; stroke-linecap: square"/>
     </g>
     <g id="line2d_16">
      <defs>
       <path id="m8266379be1" d="M 0 0 
L -3.5 0 
" style="stroke: #000000; stroke-width: 0.8"/>
      </defs>
      <g>
       <use xlink:href="#m8266379be1" x="90" y="369.383173" style="stroke: #000000; stroke-width: 0.8"/>
      </g>
     </g>
     <g id="text_9">
      <!-- 0.0000 -->
      <g transform="translate(48.009375 373.182392) scale(0.1 -0.1)">
       <defs>
        <path id="DejaVuSans-2e" d="M 684 794 
L 1344 794 
L 1344 0 
L 684 0 
L 684 794 
z
" transform="scale(0.015625)"/>
       </defs>
       <use xlink:href="#DejaVuSans-30"/>
       <use xlink:href="#DejaVuSans-2e" transform="translate(63.623047 0)"/>
       <use xlink:href="#DejaVuSans-30" transform="translate(95.410156 0)"/>
       <use xlink:href="#DejaVuSans-30" transform="translate(159.033203 0)"/>
       <use xlink:href="#DejaVuSans-30" transform="translate(222.65625 0)"/>
       <use xlink:href="#DejaVuSans-30" transform="translate(286.279297 0)"/>
      </g>
     </g>
    </g>
    <g id="ytick_2">
     <g id="line2d_17">
      <path d="M 90 326.064245 
L 648 326.064245 
" clip-path="url(#pcf525f14da)" style="fill: none; stroke: #b0b0b0; stroke-width: 0.8; stroke-linecap: square"/>
     </g>
     <g id="line2d_18">
      <g>
       <use xlink:href="#m8266379be1" x="90" y="326.064245" style="stroke: #000000; stroke-width: 0.8"/>
      </g>
     </g>
     <g id="text_10">
      <!-- 0.0025 -->
      <g transform="translate(48.009375 329.863464) scale(0.1 -0.1)">
       <use xlink:href="#DejaVuSans-30"/>
       <use xlink:href="#DejaVuSans-2e" transform="translate(63.623047 0)"/>
       <use xlink:href="#DejaVuSans-30" transform="translate(95.410156 0)"/>
       <use xlink:href="#DejaVuSans-30" transform="translate(159.033203 0)"/>
       <use xlink:href="#DejaVuSans-32" transform="translate(222.65625 0)"/>
       <use xlink:href="#DejaVuSans-35" transform="translate(286.279297 0)"/>
      </g>
     </g>
    </g>
    <g id="ytick_3">
     <g id="line2d_19">
      <path d="M 90 282.745316 
L 648 282.745316 
" clip-path="url(#pcf525f14da)" style="fill: none; stroke: #b0b0b0; stroke-width: 0.8; stroke-linecap: square"/>
     </g>
     <g id="line2d_20">
      <g>
       <use xlink:href="#m8266379be1" x="90" y="282.745316" style="stroke: #000000; stroke-width: 0.8"/>
      </g>
     </g>
     <g id="text_11">
      <!-- 0.0050 -->
      <g transform="translate(48.009375 286.544535) scale(0.1 -0.1)">
       <use xlink:href="#DejaVuSans-30"/>
       <use xlink:href="#DejaVuSans-2e" transform="translate(63.623047 0)"/>
       <use xlink:href="#DejaVuSans-30" transform="translate(95.410156 0)"/>
       <use xlink:href="#DejaVuSans-30" transform="translate(159.033203 0)"/>
       <use xlink:href="#DejaVuSans-35" transform="translate(222.65625 0)"/>
       <use xlink:href="#DejaVuSans-30" transform="translate(286.279297 0)"/>
      </g>
     </g>
    </g>
    <g id="ytick_4">
     <g id="line2d_21">
      <path d="M 90 239.426388 
L 648 239.426388 
" clip-path="url(#pcf525f14da)" style="fill: none; stroke: #b0b0b0; stroke-width: 0.8; stroke-linecap: square"/>
     </g>
     <g id="line2d_22">
      <g>
       <use xlink:href="#m8266379be1" x="90" y="239.426388" style="stroke: #000000; stroke-width: 0.8"/>
      </g>
     </g>
     <g id="text_12">
      <!-- 0.0075 -->
      <g transform="translate(48.009375 243.225607) scale(0.1 -0.1)">
       <defs>
        <path id="DejaVuSans-37" d="M 525 4666 
L 3525 4666 
L 3525 4397 
L 1831 0 
L 1172 0 
L 2766 4134 
L 525 4134 
L 525 4666 
z
" transform="scale(0.015625)"/>
       </defs>
       <use xlink:href="#DejaVuSans-30"/>
       <use xlink:href="#DejaVuSans-2e" transform="translate(63.623047 0)"/>
       <use xlink:href="#DejaVuSans-30" transform="translate(95.410156 0)"/>
       <use xlink:href="#DejaVuSans-30" transform="translate(159.033203 0)"/>
       <use xlink:href="#DejaVuSans-37" transform="translate(222.65625 0)"/>
       <use xlink:href="#DejaVuSans-35" transform="translate(286.279297 0)"/>
      </g>
     </g>
    </g>
    <g id="ytick_5">
     <g id="line2d_23">
      <path d="M 90 196.107459 
L 648 196.107459 
" clip-path="url(#pcf525f14da)" style="fill: none; stroke: #b0b0b0; stroke-width: 0.8; stroke-linecap: square"/>
     </g>
     <g id="line2d_24">
      <g>
       <use xlink:href="#m8266379be1" x="90" y="196.107459" style="stroke: #000000; stroke-width: 0.8"/>
      </g>
     </g>
     <g id="text_13">
      <!-- 0.0100 -->
      <g transform="translate(48.009375 199.906678) scale(0.1 -0.1)">
       <use xlink:href="#DejaVuSans-30"/>
       <use xlink:href="#DejaVuSans-2e" transform="translate(63.623047 0)"/>
       <use xlink:href="#DejaVuSans-30" transform="translate(95.410156 0)"/>
       <use xlink:href="#DejaVuSans-31" transform="translate(159.033203 0)"/>
       <use xlink:href="#DejaVuSans-30" transform="translate(222.65625 0)"/>
       <use xlink:href="#DejaVuSans-30" transform="translate(286.279297 0)"/>
      </g>
     </g>
    </g>
    <g id="ytick_6">
     <g id="line2d_25">
      <path d="M 90 152.788531 
L 648 152.788531 
" clip-path="url(#pcf525f14da)" style="fill: none; stroke: #b0b0b0; stroke-width: 0.8; stroke-linecap: square"/>
     </g>
     <g id="line2d_26">
      <g>
       <use xlink:href="#m8266379be1" x="90" y="152.788531" style="stroke: #000000; stroke-width: 0.8"/>
      </g>
     </g>
     <g id="text_14">
      <!-- 0.0125 -->
      <g transform="translate(48.009375 156.587749) scale(0.1 -0.1)">
       <use xlink:href="#DejaVuSans-30"/>
       <use xlink:href="#DejaVuSans-2e" transform="translate(63.623047 0)"/>
       <use xlink:href="#DejaVuSans-30" transform="translate(95.410156 0)"/>
       <use xlink:href="#DejaVuSans-31" transform="translate(159.033203 0)"/>
       <use xlink:href="#DejaVuSans-32" transform="translate(222.65625 0)"/>
       <use xlink:href="#DejaVuSans-35" transform="translate(286.279297 0)"/>
      </g>
     </g>
    </g>
    <g id="ytick_7">
     <g id="line2d_27">
      <path d="M 90 109.469602 
L 648 109.469602 
" clip-path="url(#pcf525f14da)" style="fill: none; stroke: #b0b0b0; stroke-width: 0.8; stroke-linecap: square"/>
     </g>
     <g id="line2d_28">
      <g>
       <use xlink:href="#m8266379be1" x="90" y="109.469602" style="stroke: #000000; stroke-width: 0.8"/>
      </g>
     </g>
     <g id="text_15">
      <!-- 0.0150 -->
      <g transform="translate(48.009375 113.268821) scale(0.1 -0.1)">
       <use xlink:href="#DejaVuSans-30"/>
       <use xlink:href="#DejaVuSans-2e" transform="translate(63.623047 0)"/>
       <use xlink:href="#DejaVuSans-30" transform="translate(95.410156 0)"/>
       <use xlink:href="#DejaVuSans-31" transform="translate(159.033203 0)"/>
       <use xlink:href="#DejaVuSans-35" transform="translate(222.65625 0)"/>
       <use xlink:href="#DejaVuSans-30" transform="translate(286.279297 0)"/>
      </g>
     </g>
    </g>
    <g id="ytick_8">
     <g id="line2d_29">
      <path d="M 90 66.150674 
L 648 66.150674 
" clip-path="url(#pcf525f14da)" style="fill: none; stroke: #b0b0b0; stroke-width: 0.8; stroke-linecap: square"/>
     </g>
     <g id="line2d_30">
      <g>
       <use xlink:href="#m8266379be1" x="90" y="66.150674" style="stroke: #000000; stroke-width: 0.8"/>
      </g>
     </g>
     <g id="text_16">
      <!-- 0.0175 -->
      <g transform="translate(48.009375 69.949892) scale(0.1 -0.1)">
       <use xlink:href="#DejaVuSans-30"/>
       <use xlink:href="#DejaVuSans-2e" transform="translate(63.623047 0)"/>
       <use xlink:href="#DejaVuSans-30" transform="translate(95.410156 0)"/>
       <use xlink:href="#DejaVuSans-31" transform="translate(159.033203 0)"/>
       <use xlink:href="#DejaVuSans-37" transform="translate(222.65625 0)"/>
       <use xlink:href="#DejaVuSans-35" transform="translate(286.279297 0)"/>
      </g>
     </g>
    </g>
    <g id="text_17">
     <!-- Standard Deviation -->
     <g transform="translate(41.929687 266.413125) rotate(-90) scale(0.1 -0.1)">
      <defs>
       <path id="DejaVuSans-53" d="M 3425 4513 
L 3425 3897 
Q 3066 4069 2747 4153 
Q 2428 4238 2131 4238 
Q 1616 4238 1336 4038 
Q 1056 3838 1056 3469 
Q 1056 3159 1242 3001 
Q 1428 2844 1947 2747 
L 2328 2669 
Q 3034 2534 3370 2195 
Q 3706 1856 3706 1288 
Q 3706 609 3251 259 
Q 2797 -91 1919 -91 
Q 1588 -91 1214 -16 
Q 841 59 441 206 
L 441 856 
Q 825 641 1194 531 
Q 1563 422 1919 422 
Q 2459 422 2753 634 
Q 3047 847 3047 1241 
Q 3047 1584 2836 1778 
Q 2625 1972 2144 2069 
L 1759 2144 
Q 1053 2284 737 2584 
Q 422 2884 422 3419 
Q 422 4038 858 4394 
Q 1294 4750 2059 4750 
Q 2388 4750 2728 4690 
Q 3069 4631 3425 4513 
z
" transform="scale(0.015625)"/>
       <path id="DejaVuSans-74" d="M 1172 4494 
L 1172 3500 
L 2356 3500 
L 2356 3053 
L 1172 3053 
L 1172 1153 
Q 1172 725 1289 603 
Q 1406 481 1766 481 
L 2356 481 
L 2356 0 
L 1766 0 
Q 1100 0 847 248 
Q 594 497 594 1153 
L 594 3053 
L 172 3053 
L 172 3500 
L 594 3500 
L 594 4494 
L 1172 4494 
z
" transform="scale(0.015625)"/>
       <path id="DejaVuSans-64" d="M 2906 2969 
L 2906 4863 
L 3481 4863 
L 3481 0 
L 2906 0 
L 2906 525 
Q 2725 213 2448 61 
Q 2172 -91 1784 -91 
Q 1150 -91 751 415 
Q 353 922 353 1747 
Q 353 2572 751 3078 
Q 1150 3584 1784 3584 
Q 2172 3584 2448 3432 
Q 2725 3281 2906 2969 
z
M 947 1747 
Q 947 1113 1208 752 
Q 1469 391 1925 391 
Q 2381 391 2643 752 
Q 2906 1113 2906 1747 
Q 2906 2381 2643 2742 
Q 2381 3103 1925 3103 
Q 1469 3103 1208 2742 
Q 947 2381 947 1747 
z
" transform="scale(0.015625)"/>
       <path id="DejaVuSans-44" d="M 1259 4147 
L 1259 519 
L 2022 519 
Q 2988 519 3436 956 
Q 3884 1394 3884 2338 
Q 3884 3275 3436 3711 
Q 2988 4147 2022 4147 
L 1259 4147 
z
M 628 4666 
L 1925 4666 
Q 3281 4666 3915 4102 
Q 4550 3538 4550 2338 
Q 4550 1131 3912 565 
Q 3275 0 1925 0 
L 628 0 
L 628 4666 
z
" transform="scale(0.015625)"/>
       <path id="DejaVuSans-6f" d="M 1959 3097 
Q 1497 3097 1228 2736 
Q 959 2375 959 1747 
Q 959 1119 1226 758 
Q 1494 397 1959 397 
Q 2419 397 2687 759 
Q 2956 1122 2956 1747 
Q 2956 2369 2687 2733 
Q 2419 3097 1959 3097 
z
M 1959 3584 
Q 2709 3584 3137 3096 
Q 3566 2609 3566 1747 
Q 3566 888 3137 398 
Q 2709 -91 1959 -91 
Q 1206 -91 779 398 
Q 353 888 353 1747 
Q 353 2609 779 3096 
Q 1206 3584 1959 3584 
z
" transform="scale(0.015625)"/>
      </defs>
      <use xlink:href="#DejaVuSans-53"/>
      <use xlink:href="#DejaVuSans-74" transform="translate(63.476562 0)"/>
      <use xlink:href="#DejaVuSans-61" transform="translate(102.685547 0)"/>
      <use xlink:href="#DejaVuSans-6e" transform="translate(163.964844 0)"/>
      <use xlink:href="#DejaVuSans-64" transform="translate(227.34375 0)"/>
      <use xlink:href="#DejaVuSans-61" transform="translate(290.820312 0)"/>
      <use xlink:href="#DejaVuSans-72" transform="translate(352.099609 0)"/>
      <use xlink:href="#DejaVuSans-64" transform="translate(391.462891 0)"/>
      <use xlink:href="#DejaVuSans-20" transform="translate(454.939453 0)"/>
      <use xlink:href="#DejaVuSans-44" transform="translate(486.726562 0)"/>
      <use xlink:href="#DejaVuSans-65" transform="translate(563.728516 0)"/>
      <use xlink:href="#DejaVuSans-76" transform="translate(625.251953 0)"/>
      <use xlink:href="#DejaVuSans-69" transform="translate(684.431641 0)"/>
      <use xlink:href="#DejaVuSans-61" transform="translate(712.214844 0)"/>
      <use xlink:href="#DejaVuSans-74" transform="translate(773.494141 0)"/>
      <use xlink:href="#DejaVuSans-69" transform="translate(812.703125 0)"/>
      <use xlink:href="#DejaVuSans-6f" transform="translate(840.486328 0)"/>
      <use xlink:href="#DejaVuSans-6e" transform="translate(901.667969 0)"/>
     </g>
    </g>
   </g>
   <g id="line2d_31">
    <path d="M 115.363636 66.96 
L 116.226052 67.064863 
L 116.640011 67.355834 
L 117.053971 67.947505 
L 117.502427 69.038837 
L 117.985379 70.852324 
L 118.537325 73.849583 
L 119.192761 78.768437 
L 119.986183 86.61229 
L 121.021081 99.303599 
L 125.574634 158.254659 
L 126.851009 170.442868 
L 127.195975 172.492863 
L 128.023894 172.384142 
L 128.88631 172.134033 
L 129.058793 177.083419 
L 129.265772 179.80241 
L 129.507249 180.467714 
L 129.852215 180.7885 
L 130.71463 181.168151 
L 131.646039 181.686759 
L 132.404964 182.368425 
L 133.198386 183.40118 
L 134.026305 184.858105 
L 134.99221 187.036106 
L 136.165095 190.270398 
L 137.889926 195.771439 
L 141.512071 207.428394 
L 143.236901 212.161793 
L 144.237303 214.429306 
L 144.37529 214.512743 
L 144.996229 215.105135 
L 145.410188 215.219144 
L 145.789651 215.081153 
L 145.962134 215.028167 
L 146.100121 239.229269 
L 146.686563 243.59816 
L 147.100522 244.655409 
L 147.583475 245.28704 
L 148.238911 245.755988 
L 149.239313 246.163483 
L 152.861457 247.232802 
L 154.413805 246.902823 
L 154.551791 254.228631 
L 154.724274 254.379845 
L 155.552193 255.315388 
L 156.414609 255.890598 
L 157.656487 256.42625 
L 160.692189 257.4004 
L 161.451114 257.537361 
L 162.658496 257.779902 
L 162.865476 257.794117 
L 163.003462 267.477463 
L 163.348428 268.180134 
L 163.969367 269.20408 
L 164.693796 269.971461 
L 165.625205 270.62835 
L 166.867083 271.221669 
L 168.660907 271.812572 
L 169.868288 272.041439 
L 171.317146 271.912897 
L 171.455133 276.872411 
L 171.800099 277.360444 
L 172.386541 277.992188 
L 173.11097 278.437531 
L 174.111372 278.781073 
L 175.66372 279.056376 
L 178.285463 279.271362 
L 179.768817 279.336611 
L 179.906803 283.434484 
L 180.700226 283.666581 
L 182.045594 283.87617 
L 184.52935 284.001189 
L 187.151093 283.953925 
L 187.772032 283.606122 
L 188.220488 283.343797 
L 188.668944 285.057046 
L 189.01391 285.200841 
L 189.979815 285.264409 
L 192.118605 285.435563 
L 193.567463 285.782125 
L 195.326791 286.240764 
L 195.913233 285.925631 
L 196.672159 285.392383 
L 196.913635 287.521462 
L 197.155111 288.139582 
L 197.500077 288.329432 
L 198.293499 288.41898 
L 200.156317 288.633996 
L 201.329202 289.006605 
L 202.46759 289.604642 
L 203.778461 290.315207 
L 204.50289 290.371807 
L 205.123829 290.258838 
L 205.261816 292.319776 
L 205.848258 293.717733 
L 206.296714 294.066065 
L 206.986646 294.294914 
L 208.607987 294.525269 
L 210.677784 294.901493 
L 212.471608 295.246922 
L 213.5755 295.25115 
L 213.713486 297.516526 
L 215.783283 297.868588 
L 217.232141 298.315945 
L 218.612006 298.981438 
L 220.060864 299.938341 
L 220.40583 300.068488 
L 222.027171 299.971487 
L 222.165157 308.259352 
L 222.855089 309.562308 
L 223.579518 310.420506 
L 224.47643 311.128417 
L 225.683812 311.781706 
L 227.374146 312.427943 
L 228.891997 312.818024 
L 230.478841 312.779819 
L 230.616828 314.615763 
L 232.376155 316.469509 
L 233.618033 317.164889 
L 235.584341 317.985121 
L 237.378165 318.537433 
L 238.930512 318.541964 
L 239.068499 318.913085 
L 240.931316 320.060404 
L 242.242187 320.412191 
L 244.242991 320.69635 
L 247.244196 320.890758 
L 247.382183 320.882653 
L 247.520169 321.624453 
L 248.279095 321.874645 
L 249.865939 321.920517 
L 251.970233 322.074425 
L 253.660567 322.423905 
L 254.695465 322.59644 
L 255.833854 322.680588 
L 255.97184 324.974493 
L 256.903249 325.155943 
L 259.593985 325.760906 
L 261.836265 326.501041 
L 262.767673 326.739783 
L 264.285524 326.611664 
L 264.458007 326.874628 
L 266.596798 329.483424 
L 268.011159 330.62199 
L 269.873976 331.824281 
L 271.081358 332.424008 
L 272.737195 332.416878 
L 272.875182 333.270434 
L 273.979073 334.728484 
L 274.772495 335.275758 
L 275.841891 335.727287 
L 277.325245 336.095428 
L 279.464035 336.384148 
L 281.913295 336.503782 
L 283.914098 336.757914 
L 284.431548 336.800836 
L 284.500541 66.960002 
L 284.569534 66.96003 
L 285.32846 67.069335 
L 285.742419 67.372688 
L 286.156378 67.98942 
L 286.604834 69.12657 
L 287.087787 71.015036 
L 287.639733 74.133072 
L 288.295169 79.24176 
L 289.088591 87.367259 
L 290.157986 100.932228 
L 294.40107 157.543382 
L 295.677444 170.342862 
L 296.263887 174.858551 
L 297.126302 174.748567 
L 297.988718 174.495549 
L 298.47167 182.259008 
L 298.747643 182.682943 
L 299.230596 182.961663 
L 300.81744 183.714305 
L 301.610862 184.410114 
L 302.404284 185.419041 
L 303.2667 186.89832 
L 304.267101 189.095958 
L 305.474483 192.322532 
L 307.3373 198.033621 
L 310.579982 207.959292 
L 312.339309 212.597281 
L 313.339711 214.777882 
L 313.477698 214.861899 
L 314.098637 215.465402 
L 314.512596 215.590979 
L 314.892059 215.464537 
L 315.064542 215.413747 
L 315.202529 239.747891 
L 315.788971 244.124848 
L 316.168434 245.116387 
L 316.651386 245.771239 
L 317.272325 246.226634 
L 318.203734 246.607821 
L 321.756885 247.622415 
L 322.343328 247.51047 
L 323.516213 247.295653 
L 323.654199 254.228846 
L 323.826682 254.402596 
L 324.585608 255.346645 
L 325.37903 255.934381 
L 326.482922 256.455464 
L 328.483725 257.109246 
L 330.691509 257.659386 
L 331.967884 257.879801 
L 332.10587 267.382506 
L 332.41634 268.015817 
L 333.037279 269.080997 
L 333.761708 269.872642 
L 334.65862 270.520947 
L 335.866001 271.105851 
L 337.556335 271.658747 
L 338.9362 271.925986 
L 340.419554 271.777335 
L 340.557541 276.456306 
L 340.86801 276.901375 
L 341.454453 277.571423 
L 342.178882 278.043008 
L 343.179283 278.406419 
L 344.662638 278.687985 
L 347.180891 278.917328 
L 348.871225 278.998125 
L 349.009211 282.847424 
L 349.526661 283.069359 
L 350.527063 283.36888 
L 352.113907 283.586539 
L 355.080616 283.72902 
L 356.253501 283.657027 
L 356.87444 283.316314 
L 357.322896 283.061129 
L 357.771352 284.813744 
L 358.116318 284.961217 
L 359.082223 285.025879 
L 361.186517 285.195843 
L 362.635374 285.547724 
L 364.429198 286.037292 
L 365.015641 285.729972 
L 365.774566 285.205269 
L 366.016043 287.24727 
L 366.257519 287.842362 
L 366.602485 288.024681 
L 367.430404 288.111999 
L 369.224228 288.319894 
L 370.397113 288.692608 
L 371.535501 289.294155 
L 372.915366 290.046613 
L 373.639795 290.102031 
L 374.226237 290.003722 
L 374.364224 292.071699 
L 374.950666 293.44477 
L 375.399122 293.790454 
L 376.123551 294.027588 
L 377.848382 294.272229 
L 379.918179 294.657417 
L 381.574016 294.970236 
L 382.677908 294.989374 
L 382.815894 297.628949 
L 385.748107 298.026664 
L 387.093475 298.497789 
L 388.438843 299.205181 
L 389.611728 299.801493 
L 391.129579 299.673894 
L 391.267565 308.052988 
L 391.923001 309.284205 
L 392.612933 310.110776 
L 393.509845 310.825626 
L 394.68273 311.46007 
L 396.338568 312.085835 
L 397.994405 312.502371 
L 399.581249 312.461521 
L 399.719236 314.179548 
L 401.51306 316.149887 
L 402.754938 316.871867 
L 404.686748 317.711296 
L 406.446076 318.287114 
L 408.03292 318.312505 
L 408.170907 318.71496 
L 410.033724 319.827207 
L 411.379092 320.178793 
L 413.448889 320.469249 
L 416.484591 320.665191 
L 416.622577 321.426245 
L 417.347006 321.675675 
L 418.795864 321.722023 
L 420.934654 321.864938 
L 422.624988 322.207374 
L 423.866867 322.432889 
L 424.936262 322.507 
L 425.074248 324.934617 
L 425.902167 325.142919 
L 429.041359 325.970568 
L 431.387129 326.840976 
L 431.835585 326.912984 
L 433.387932 326.753925 
L 433.560415 327.015898 
L 435.699206 329.585952 
L 437.148063 330.741373 
L 439.045377 331.95753 
L 440.218262 332.515739 
L 441.632623 332.498153 
L 441.839603 332.507455 
L 441.97759 333.392084 
L 443.046985 334.847249 
L 443.840407 335.416532 
L 444.875305 335.872748 
L 446.324163 336.251812 
L 448.462953 336.56368 
L 449.635838 336.579501 
L 451.084696 336.712514 
L 453.223486 336.964003 
L 453.533956 336.988584 
L 453.568452 369.36 
L 453.671942 369.333226 
L 456.121202 368.935642 
L 465.642268 367.370836 
L 465.952737 366.796426 
L 466.918642 364.853319 
L 467.091125 364.769625 
L 467.263609 364.883388 
L 467.850051 365.06502 
L 469.574882 365.226849 
L 474.507898 365.470599 
L 480.579302 365.49016 
L 482.649099 365.376741 
L 482.959568 365.330628 
L 483.270038 365.511519 
L 483.752991 366.105349 
L 484.16695 366.531717 
L 484.304936 367.811822 
L 484.994869 368.002386 
L 486.685203 368.132134 
L 491.10077 368.230352 
L 491.342246 367.938915 
L 492.273655 366.597053 
L 492.618621 366.509027 
L 492.756607 366.686082 
L 494.550431 366.753409 
L 499.724923 366.910559 
L 500.104386 367.33162 
L 500.966802 368.397258 
L 503.312571 368.383663 
L 508.004111 368.241132 
L 508.383574 367.703535 
L 509.03901 366.848092 
L 509.383976 366.710075 
L 515.972829 366.678819 
L 516.593768 366.768911 
L 516.973231 367.148615 
L 517.90464 368.257175 
L 524.941949 368.149355 
L 525.217922 367.800625 
L 525.700875 366.734409 
L 526.425304 365.038891 
L 526.597787 365.156349 
L 527.115236 365.324696 
L 528.426107 365.404606 
L 533.428117 365.412562 
L 533.876573 365.207706 
L 534.497512 364.641087 
L 534.876974 364.350774 
L 535.014961 364.533793 
L 535.42892 364.715112 
L 536.429322 364.79659 
L 540.775896 364.82485 
L 541.810794 364.724694 
L 542.328243 364.492853 
L 542.776699 364.53763 
L 543.328645 364.793631 
L 543.466632 365.76059 
L 544.260054 365.895796 
L 546.709313 365.95004 
L 553.160181 366.100166 
L 565.302989 366.100564 
L 584.069148 365.940771 
L 584.517604 365.5866 
L 584.86257 365.556124 
L 585.242033 365.770158 
L 585.586999 366.026589 
L 585.724985 367.072893 
L 586.449414 367.23694 
L 588.277735 367.309962 
L 592.934778 367.482794 
L 594.073166 367.71388 
L 601.386449 367.654237 
L 603.283762 367.602324 
L 622.636364 367.762271 
L 622.636364 367.762271 
" clip-path="url(#pcf525f14da)" style="fill: none; stroke: #ff0000; stroke-width: 1.5; stroke-linecap: square"/>
   </g>
   <g id="line2d_32">
    <path d="M 115.363636 66.96 
L 116.226052 67.064863 
L 116.640011 67.355834 
L 117.053971 67.947505 
L 117.502427 69.038837 
L 117.985379 70.852324 
L 118.537325 73.849583 
L 119.227257 78.972072 
L 119.71021 81.903544 
L 120.020679 82.668663 
L 120.331149 82.894282 
L 120.883095 82.924012 
L 121.676517 83.046553 
L 122.676919 83.459593 
L 127.230472 85.593055 
L 128.230874 85.443268 
L 128.88631 85.301526 
L 129.024296 94.760445 
L 129.231276 103.819571 
L 129.472752 105.651097 
L 129.748725 106.196001 
L 130.059194 106.351118 
L 133.16389 106.973767 
L 137.75194 108.196832 
L 140.684152 108.740844 
L 143.995827 109.118443 
L 144.340793 109.202597 
L 144.961732 110.227945 
L 145.341195 110.464262 
L 145.651665 110.391203 
L 145.962134 110.204448 
L 146.100121 189.725125 
L 146.61757 200.814077 
L 146.997033 203.563265 
L 147.410992 205.024451 
L 147.859448 205.869859 
L 148.376897 206.396819 
L 148.997836 206.711711 
L 149.860252 206.875814 
L 151.550586 206.907539 
L 153.4479 206.805917 
L 154.413805 206.717108 
L 154.551791 223.376273 
L 154.689778 223.656539 
L 155.4832 225.805393 
L 156.138636 226.842202 
L 156.932058 227.668395 
L 157.897963 228.337261 
L 159.070848 228.871197 
L 160.554202 229.290409 
L 161.451114 229.370908 
L 162.899972 229.23683 
L 162.968965 230.271437 
L 163.417421 241.403258 
L 163.727891 243.577825 
L 164.107354 244.817531 
L 164.590306 245.631709 
L 165.176749 246.174798 
L 165.970171 246.586197 
L 167.074063 246.891341 
L 168.7299 247.101515 
L 170.282248 247.11439 
L 171.317146 247.013656 
L 171.455133 252.827767 
L 171.662112 253.474315 
L 172.110568 254.657892 
L 172.593521 255.317598 
L 173.179964 255.745328 
L 173.973386 256.033524 
L 175.008284 256.170492 
L 179.768817 256.303862 
L 179.906803 263.68606 
L 180.217273 263.801357 
L 181.045192 264.086916 
L 182.28707 264.253445 
L 184.52935 264.294761 
L 187.358072 264.194713 
L 188.220488 263.801697 
L 188.254984 263.938759 
L 188.358474 264.599433 
L 188.565454 265.588441 
L 188.841427 265.845814 
L 189.393373 265.943176 
L 191.877129 266.212233 
L 193.670953 266.537497 
L 195.53377 266.543948 
L 196.189206 266.245538 
L 196.672159 266.000075 
L 196.948131 268.39855 
L 197.189608 268.929456 
L 197.534574 269.092691 
L 198.362493 269.143452 
L 199.91484 269.275119 
L 201.087725 269.617152 
L 202.15712 270.17764 
L 203.295509 271.041866 
L 203.502488 271.089179 
L 204.157924 271.288002 
L 204.744366 271.23253 
L 205.123829 271.124669 
L 205.261816 275.480871 
L 205.813762 277.887097 
L 206.227721 278.506521 
L 206.74517 278.864584 
L 207.504096 279.090568 
L 208.745974 279.19589 
L 210.781274 279.126909 
L 213.5755 279.059765 
L 213.713486 280.528536 
L 214.506909 281.851631 
L 215.024358 282.020219 
L 216.231739 282.091776 
L 222.027171 282.217575 
L 222.165157 285.011371 
L 222.682606 285.259829 
L 223.407035 285.391845 
L 227.408643 285.785043 
L 229.236963 286.012434 
L 230.478841 285.997686 
L 230.616828 288.447681 
L 230.823808 288.77887 
L 231.341257 289.527831 
L 231.893203 289.925544 
L 232.583135 290.139717 
L 233.687027 290.215084 
L 237.688634 290.33652 
L 238.930512 290.385015 
L 239.068499 292.932441 
L 239.482458 293.057978 
L 240.862323 293.447388 
L 243.070106 293.820054 
L 246.968224 294.218067 
L 247.382183 294.133871 
L 247.520169 295.774994 
L 248.106612 296.220267 
L 248.900034 296.382541 
L 251.418287 296.577911 
L 255.730364 296.766613 
L 255.833854 296.767144 
L 255.97184 299.901786 
L 257.317208 300.081462 
L 258.041637 300.486884 
L 260.24942 301.907001 
L 261.422305 302.292418 
L 262.69868 302.497076 
L 264.285524 302.316784 
L 264.423511 302.868472 
L 264.871967 303.322525 
L 265.527403 303.766965 
L 266.493308 304.126605 
L 268.011159 304.429167 
L 270.563908 304.686821 
L 271.736793 304.658117 
L 272.737195 304.665266 
L 272.875182 304.910936 
L 273.185651 305.601358 
L 273.80659 306.732258 
L 274.565516 307.632534 
L 275.565918 308.459812 
L 276.911286 309.267664 
L 278.60162 310.016469 
L 279.636518 310.293689 
L 281.361349 310.392485 
L 281.844302 311.122926 
L 283.258663 313.081525 
L 284.431548 314.584432 
L 284.500541 66.960002 
L 284.569534 66.960031 
L 285.32846 67.069591 
L 285.742419 67.373653 
L 286.156378 67.99182 
L 286.604834 69.131593 
L 287.087787 71.024347 
L 287.639733 74.149284 
L 288.295169 79.268794 
L 289.088591 87.410299 
L 290.157986 100.998779 
L 294.366573 157.288533 
L 295.642948 170.159219 
L 296.263887 174.99069 
L 297.126302 174.880723 
L 297.988718 174.62773 
L 298.47167 182.427469 
L 298.747643 182.850989 
L 299.230596 183.126757 
L 300.851937 183.886664 
L 301.645359 184.58254 
L 302.438781 185.590215 
L 303.301196 187.06512 
L 304.301598 189.252444 
L 305.543476 192.557327 
L 307.44079 198.341387 
L 310.579982 207.862161 
L 312.339309 212.469177 
L 313.339711 214.636428 
L 313.477698 214.720866 
L 314.098637 215.32831 
L 314.512596 215.456149 
L 314.892059 215.331134 
L 315.064542 215.280562 
L 315.202529 239.750154 
L 315.788971 244.115597 
L 316.168434 245.101056 
L 316.651386 245.748532 
L 317.272325 246.19482 
L 318.203734 246.563196 
L 321.825879 247.543604 
L 322.412321 247.414981 
L 323.516213 247.221588 
L 323.654199 254.504623 
L 323.826682 254.651128 
L 324.620104 255.496763 
L 325.448023 256.008532 
L 326.655405 256.474784 
L 330.17406 257.467598 
L 331.105468 257.572768 
L 331.967884 257.709636 
L 332.10587 267.063288 
L 332.41634 267.717663 
L 333.037279 268.820791 
L 333.761708 269.642225 
L 334.65862 270.316118 
L 335.831504 270.910327 
L 337.452845 271.469673 
L 338.901703 271.776131 
L 340.074588 271.639111 
L 340.419554 271.628581 
L 340.557541 276.132235 
L 340.833514 276.548418 
L 341.419956 277.283189 
L 342.109888 277.779199 
L 343.041297 278.161244 
L 344.421162 278.463078 
L 346.732435 278.70978 
L 348.871225 278.81388 
L 349.009211 282.602078 
L 349.492164 282.817532 
L 350.492566 283.140252 
L 352.010417 283.372876 
L 354.701153 283.529631 
L 356.219004 283.477045 
L 356.839943 283.144293 
L 357.322896 282.865092 
L 357.805848 284.667641 
L 358.185311 284.801287 
L 359.358196 284.863156 
L 361.25551 285.033268 
L 362.704368 285.390445 
L 364.429198 285.850822 
L 365.015641 285.548626 
L 365.774566 285.031842 
L 366.016043 287.069215 
L 366.257519 287.66306 
L 366.602485 287.844876 
L 367.430404 287.932072 
L 369.189731 288.135587 
L 370.362616 288.507017 
L 371.501005 289.109626 
L 372.915366 289.894265 
L 373.639795 289.950418 
L 374.226237 289.851213 
L 374.364224 291.949149 
L 374.950666 293.325722 
L 375.399122 293.672604 
L 376.089054 293.903234 
L 377.675899 294.132237 
L 379.883682 294.524215 
L 381.608513 294.842177 
L 382.677908 294.859468 
L 382.815894 297.517793 
L 385.851597 297.936227 
L 387.196965 298.4153 
L 388.576829 299.147535 
L 389.577231 299.648742 
L 391.129579 299.520112 
L 391.267565 307.88545 
L 391.923001 309.08898 
L 392.64743 309.93079 
L 393.544342 310.621086 
L 394.751723 311.252581 
L 396.476554 311.881301 
L 398.028902 312.246361 
L 399.581249 312.207356 
L 399.719236 313.937591 
L 401.547556 315.952288 
L 402.789435 316.677867 
L 404.755742 317.541636 
L 406.446076 318.101279 
L 408.03292 318.126873 
L 408.170907 318.543446 
L 409.999227 319.665672 
L 411.344595 320.029784 
L 413.379896 320.325688 
L 416.381101 320.531385 
L 416.484591 320.529938 
L 416.622577 321.296767 
L 417.347006 321.547732 
L 418.761368 321.593916 
L 420.934654 321.739035 
L 422.590492 322.075478 
L 423.866867 322.311831 
L 424.936262 322.386184 
L 425.074248 324.832415 
L 425.902167 325.042133 
L 429.006862 325.867518 
L 431.352632 326.745034 
L 431.835585 326.832652 
L 433.387932 326.674701 
L 433.560415 326.942121 
L 435.699206 329.535338 
L 437.113567 330.674171 
L 439.010881 331.902115 
L 440.218262 332.483499 
L 441.632623 332.466514 
L 441.839603 332.475808 
L 441.97759 333.363894 
L 443.046985 334.822269 
L 443.840407 335.392475 
L 444.875305 335.84917 
L 446.324163 336.228289 
L 448.462953 336.539706 
L 449.635838 336.555059 
L 451.050199 336.681979 
L 453.154493 336.934433 
L 453.533956 336.964867 
L 453.568452 369.359998 
L 453.671942 369.33321 
L 456.155698 368.929657 
L 465.642268 367.366541 
L 465.952737 366.791015 
L 466.918642 364.847145 
L 467.091125 364.763482 
L 467.263609 364.877083 
L 467.850051 365.05838 
L 469.574882 365.221031 
L 474.507898 365.468208 
L 480.544805 365.489268 
L 482.649099 365.375776 
L 482.959568 365.329779 
L 483.270038 365.510892 
L 483.752991 366.105127 
L 484.16695 366.53163 
L 484.304936 367.811914 
L 484.994869 368.00254 
L 486.685203 368.13229 
L 491.10077 368.230332 
L 491.342246 367.938533 
L 492.273655 366.595529 
L 492.618621 366.507414 
L 492.756607 366.684965 
L 494.550431 366.752494 
L 499.724923 366.909852 
L 500.104386 367.331097 
L 500.966802 368.397237 
L 503.312571 368.383666 
L 508.004111 368.241197 
L 508.383574 367.703424 
L 509.03901 366.8476 
L 509.383976 366.709497 
L 516.007326 366.67787 
L 516.593768 366.768313 
L 516.973231 367.148178 
L 517.90464 368.257141 
L 524.941949 368.149291 
L 525.217922 367.800612 
L 525.700875 366.734976 
L 526.425304 365.040063 
L 526.597787 365.156899 
L 527.115236 365.324672 
L 528.426107 365.404512 
L 533.428117 365.412462 
L 533.876573 365.207612 
L 534.497512 364.640989 
L 534.876974 364.35067 
L 535.014961 364.533776 
L 535.42892 364.71523 
L 536.429322 364.796722 
L 540.775896 364.824947 
L 541.810794 364.724782 
L 542.328243 364.49294 
L 542.776699 364.537721 
L 543.328645 364.793732 
L 543.466632 365.760651 
L 544.260054 365.895853 
L 546.709313 365.950103 
L 553.26367 366.100866 
L 565.682452 366.099025 
L 584.069148 365.940567 
L 584.517604 365.586402 
L 584.86257 365.55594 
L 585.242033 365.769995 
L 585.586999 366.026443 
L 585.724985 367.072778 
L 586.449414 367.236808 
L 588.277735 367.309821 
L 592.934778 367.482697 
L 594.073166 367.713902 
L 601.386449 367.654258 
L 603.283762 367.602323 
L 622.636364 367.762263 
L 622.636364 367.762263 
" clip-path="url(#pcf525f14da)" style="fill: none; stroke-dasharray: 5.55,2.4; stroke-dashoffset: 0; stroke: #0000ff; stroke-width: 1.5"/>
   </g>
   <g id="patch_3">
    <path d="M 90 384.48 
L 90 51.84 
" style="fill: none; stroke: #000000; stroke-width: 0.8; stroke-linejoin: miter; stroke-linecap: square"/>
   </g>
   <g id="patch_4">
    <path d="M 648 384.48 
L 648 51.84 
" style="fill: none; stroke: #000000; stroke-width: 0.8; stroke-linejoin: miter; stroke-linecap: square"/>
   </g>
   <g id="patch_5">
    <path d="M 90 384.48 
L 648 384.48 
" style="fill: none; stroke: #000000; stroke-width: 0.8; stroke-linejoin: miter; stroke-linecap: square"/>
   </g>
   <g id="patch_6">
    <path d="M 90 51.84 
L 648 51.84 
" style="fill: none; stroke: #000000; stroke-width: 0.8; stroke-linejoin: miter; stroke-linecap: square"/>
   </g>
   <g id="text_18">
    <!-- Uncertainty Convergence for phi_U (Index 2) -->
    <g transform="translate(234.91125 45.84) scale(0.12 -0.12)">
     <defs>
      <path id="DejaVuSans-55" d="M 556 4666 
L 1191 4666 
L 1191 1831 
Q 1191 1081 1462 751 
Q 1734 422 2344 422 
Q 2950 422 3222 751 
Q 3494 1081 3494 1831 
L 3494 4666 
L 4128 4666 
L 4128 1753 
Q 4128 841 3676 375 
Q 3225 -91 2344 -91 
Q 1459 -91 1007 375 
Q 556 841 556 1753 
L 556 4666 
z
" transform="scale(0.015625)"/>
      <path id="DejaVuSans-63" d="M 3122 3366 
L 3122 2828 
Q 2878 2963 2633 3030 
Q 2388 3097 2138 3097 
Q 1578 3097 1268 2742 
Q 959 2388 959 1747 
Q 959 1106 1268 751 
Q 1578 397 2138 397 
Q 2388 397 2633 464 
Q 2878 531 3122 666 
L 3122 134 
Q 2881 22 2623 -34 
Q 2366 -91 2075 -91 
Q 1284 -91 818 406 
Q 353 903 353 1747 
Q 353 2603 823 3093 
Q 1294 3584 2113 3584 
Q 2378 3584 2631 3529 
Q 2884 3475 3122 3366 
z
" transform="scale(0.015625)"/>
      <path id="DejaVuSans-79" d="M 2059 -325 
Q 1816 -950 1584 -1140 
Q 1353 -1331 966 -1331 
L 506 -1331 
L 506 -850 
L 844 -850 
Q 1081 -850 1212 -737 
Q 1344 -625 1503 -206 
L 1606 56 
L 191 3500 
L 800 3500 
L 1894 763 
L 2988 3500 
L 3597 3500 
L 2059 -325 
z
" transform="scale(0.015625)"/>
      <path id="DejaVuSans-43" d="M 4122 4306 
L 4122 3641 
Q 3803 3938 3442 4084 
Q 3081 4231 2675 4231 
Q 1875 4231 1450 3742 
Q 1025 3253 1025 2328 
Q 1025 1406 1450 917 
Q 1875 428 2675 428 
Q 3081 428 3442 575 
Q 3803 722 4122 1019 
L 4122 359 
Q 3791 134 3420 21 
Q 3050 -91 2638 -91 
Q 1578 -91 968 557 
Q 359 1206 359 2328 
Q 359 3453 968 4101 
Q 1578 4750 2638 4750 
Q 3056 4750 3426 4639 
Q 3797 4528 4122 4306 
z
" transform="scale(0.015625)"/>
      <path id="DejaVuSans-67" d="M 2906 1791 
Q 2906 2416 2648 2759 
Q 2391 3103 1925 3103 
Q 1463 3103 1205 2759 
Q 947 2416 947 1791 
Q 947 1169 1205 825 
Q 1463 481 1925 481 
Q 2391 481 2648 825 
Q 2906 1169 2906 1791 
z
M 3481 434 
Q 3481 -459 3084 -895 
Q 2688 -1331 1869 -1331 
Q 1566 -1331 1297 -1286 
Q 1028 -1241 775 -1147 
L 775 -588 
Q 1028 -725 1275 -790 
Q 1522 -856 1778 -856 
Q 2344 -856 2625 -561 
Q 2906 -266 2906 331 
L 2906 616 
Q 2728 306 2450 153 
Q 2172 0 1784 0 
Q 1141 0 747 490 
Q 353 981 353 1791 
Q 353 2603 747 3093 
Q 1141 3584 1784 3584 
Q 2172 3584 2450 3431 
Q 2728 3278 2906 2969 
L 2906 3500 
L 3481 3500 
L 3481 434 
z
" transform="scale(0.015625)"/>
      <path id="DejaVuSans-66" d="M 2375 4863 
L 2375 4384 
L 1825 4384 
Q 1516 4384 1395 4259 
Q 1275 4134 1275 3809 
L 1275 3500 
L 2222 3500 
L 2222 3053 
L 1275 3053 
L 1275 0 
L 697 0 
L 697 3053 
L 147 3053 
L 147 3500 
L 697 3500 
L 697 3744 
Q 697 4328 969 4595 
Q 1241 4863 1831 4863 
L 2375 4863 
z
" transform="scale(0.015625)"/>
      <path id="DejaVuSans-70" d="M 1159 525 
L 1159 -1331 
L 581 -1331 
L 581 3500 
L 1159 3500 
L 1159 2969 
Q 1341 3281 1617 3432 
Q 1894 3584 2278 3584 
Q 2916 3584 3314 3078 
Q 3713 2572 3713 1747 
Q 3713 922 3314 415 
Q 2916 -91 2278 -91 
Q 1894 -91 1617 61 
Q 1341 213 1159 525 
z
M 3116 1747 
Q 3116 2381 2855 2742 
Q 2594 3103 2138 3103 
Q 1681 3103 1420 2742 
Q 1159 2381 1159 1747 
Q 1159 1113 1420 752 
Q 1681 391 2138 391 
Q 2594 391 2855 752 
Q 3116 1113 3116 1747 
z
" transform="scale(0.015625)"/>
      <path id="DejaVuSans-68" d="M 3513 2113 
L 3513 0 
L 2938 0 
L 2938 2094 
Q 2938 2591 2744 2837 
Q 2550 3084 2163 3084 
Q 1697 3084 1428 2787 
Q 1159 2491 1159 1978 
L 1159 0 
L 581 0 
L 581 4863 
L 1159 4863 
L 1159 2956 
Q 1366 3272 1645 3428 
Q 1925 3584 2291 3584 
Q 2894 3584 3203 3211 
Q 3513 2838 3513 2113 
z
" transform="scale(0.015625)"/>
      <path id="DejaVuSans-5f" d="M 3263 -1063 
L 3263 -1509 
L -63 -1509 
L -63 -1063 
L 3263 -1063 
z
" transform="scale(0.015625)"/>
      <path id="DejaVuSans-49" d="M 628 4666 
L 1259 4666 
L 1259 0 
L 628 0 
L 628 4666 
z
" transform="scale(0.015625)"/>
      <path id="DejaVuSans-78" d="M 3513 3500 
L 2247 1797 
L 3578 0 
L 2900 0 
L 1881 1375 
L 863 0 
L 184 0 
L 1544 1831 
L 300 3500 
L 978 3500 
L 1906 2253 
L 2834 3500 
L 3513 3500 
z
" transform="scale(0.015625)"/>
     </defs>
     <use xlink:href="#DejaVuSans-55"/>
     <use xlink:href="#DejaVuSans-6e" transform="translate(73.193359 0)"/>
     <use xlink:href="#DejaVuSans-63" transform="translate(136.572266 0)"/>
     <use xlink:href="#DejaVuSans-65" transform="translate(191.552734 0)"/>
     <use xlink:href="#DejaVuSans-72" transform="translate(253.076172 0)"/>
     <use xlink:href="#DejaVuSans-74" transform="translate(294.189453 0)"/>
     <use xlink:href="#DejaVuSans-61" transform="translate(333.398438 0)"/>
     <use xlink:href="#DejaVuSans-69" transform="translate(394.677734 0)"/>
     <use xlink:href="#DejaVuSans-6e" transform="translate(422.460938 0)"/>
     <use xlink:href="#DejaVuSans-74" transform="translate(485.839844 0)"/>
     <use xlink:href="#DejaVuSans-79" transform="translate(525.048828 0)"/>
     <use xlink:href="#DejaVuSans-20" transform="translate(584.228516 0)"/>
     <use xlink:href="#DejaVuSans-43" transform="translate(616.015625 0)"/>
     <use xlink:href="#DejaVuSans-6f" transform="translate(685.839844 0)"/>
     <use xlink:href="#DejaVuSans-6e" transform="translate(747.021484 0)"/>
     <use xlink:href="#DejaVuSans-76" transform="translate(810.400391 0)"/>
     <use xlink:href="#DejaVuSans-65" transform="translate(869.580078 0)"/>
     <use xlink:href="#DejaVuSans-72" transform="translate(931.103516 0)"/>
     <use xlink:href="#DejaVuSans-67" transform="translate(970.466797 0)"/>
     <use xlink:href="#DejaVuSans-65" transform="translate(1033.943359 0)"/>
     <use xlink:href="#DejaVuSans-6e" transform="translate(1095.466797 0)"/>
     <use xlink:href="#DejaVuSans-63" transform="translate(1158.845703 0)"/>
     <use xlink:href="#DejaVuSans-65" transform="translate(1213.826172 0)"/>
     <use xlink:href="#DejaVuSans-20" transform="translate(1275.349609 0)"/>
     <use xlink:href="#DejaVuSans-66" transform="translate(1307.136719 0)"/>
     <use xlink:href="#DejaVuSans-6f" transform="translate(1342.341797 0)"/>
     <use xlink:href="#DejaVuSans-72" transform="translate(1403.523438 0)"/>
     <use xlink:href="#DejaVuSans-20" transform="translate(1444.636719 0)"/>
     <use xlink:href="#DejaVuSans-70" transform="translate(1476.423828 0)"/>
     <use xlink:href="#DejaVuSans-68" transform="translate(1539.900391 0)"/>
     <use xlink:href="#DejaVuSans-69" transform="translate(1603.279297 0)"/>
     <use xlink:href="#DejaVuSans-5f" transform="translate(1631.0625 0)"/>
     <use xlink:href="#DejaVuSans-55" transform="translate(1681.0625 0)"/>
     <use xlink:href="#DejaVuSans-20" transform="translate(1754.255859 0)"/>
     <use xlink:href="#DejaVuSans-28" transform="translate(1786.042969 0)"/>
     <use xlink:href="#DejaVuSans-49" transform="translate(1825.056641 0)"/>
     <use xlink:href="#DejaVuSans-6e" transform="translate(1854.548828 0)"/>
     <use xlink:href="#DejaVuSans-64" transform="translate(1917.927734 0)"/>
     <use xlink:href="#DejaVuSans-65" transform="translate(1981.404297 0)"/>
     <use xlink:href="#DejaVuSans-78" transform="translate(2041.177734 0)"/>
     <use xlink:href="#DejaVuSans-20" transform="translate(2100.357422 0)"/>
     <use xlink:href="#DejaVuSans-32" transform="translate(2132.144531 0)"/>
     <use xlink:href="#DejaVuSans-29" transform="translate(2195.767578 0)"/>
    </g>
   </g>
   <g id="legend_1">
    <g id="patch_7">
     <path d="M 478.453125 89.19625 
L 641 89.19625 
Q 643 89.19625 643 87.19625 
L 643 58.84 
Q 643 56.84 641 56.84 
L 478.453125 56.84 
Q 476.453125 56.84 476.453125 58.84 
L 476.453125 87.19625 
Q 476.453125 89.19625 478.453125 89.19625 
z
" style="fill: #ffffff; opacity: 0.8; stroke: #cccccc; stroke-linejoin: miter"/>
    </g>
    <g id="line2d_33">
     <path d="M 480.453125 64.938437 
L 490.453125 64.938437 
L 500.453125 64.938437 
" style="fill: none; stroke: #ff0000; stroke-width: 1.5; stroke-linecap: square"/>
    </g>
    <g id="text_19">
     <!-- Baseline KF -->
     <g transform="translate(508.453125 68.438437) scale(0.1 -0.1)">
      <defs>
       <path id="DejaVuSans-42" d="M 1259 2228 
L 1259 519 
L 2272 519 
Q 2781 519 3026 730 
Q 3272 941 3272 1375 
Q 3272 1813 3026 2020 
Q 2781 2228 2272 2228 
L 1259 2228 
z
M 1259 4147 
L 1259 2741 
L 2194 2741 
Q 2656 2741 2882 2914 
Q 3109 3088 3109 3444 
Q 3109 3797 2882 3972 
Q 2656 4147 2194 4147 
L 1259 4147 
z
M 628 4666 
L 2241 4666 
Q 2963 4666 3353 4366 
Q 3744 4066 3744 3513 
Q 3744 3084 3544 2831 
Q 3344 2578 2956 2516 
Q 3422 2416 3680 2098 
Q 3938 1781 3938 1306 
Q 3938 681 3513 340 
Q 3088 0 2303 0 
L 628 0 
L 628 4666 
z
" transform="scale(0.015625)"/>
       <path id="DejaVuSans-6c" d="M 603 4863 
L 1178 4863 
L 1178 0 
L 603 0 
L 603 4863 
z
" transform="scale(0.015625)"/>
       <path id="DejaVuSans-4b" d="M 628 4666 
L 1259 4666 
L 1259 2694 
L 3353 4666 
L 4166 4666 
L 1850 2491 
L 4331 0 
L 3500 0 
L 1259 2247 
L 1259 0 
L 628 0 
L 628 4666 
z
" transform="scale(0.015625)"/>
       <path id="DejaVuSans-46" d="M 628 4666 
L 3309 4666 
L 3309 4134 
L 1259 4134 
L 1259 2759 
L 3109 2759 
L 3109 2228 
L 1259 2228 
L 1259 0 
L 628 0 
L 628 4666 
z
" transform="scale(0.015625)"/>
      </defs>
      <use xlink:href="#DejaVuSans-42"/>
      <use xlink:href="#DejaVuSans-61" transform="translate(68.603516 0)"/>
      <use xlink:href="#DejaVuSans-73" transform="translate(129.882812 0)"/>
      <use xlink:href="#DejaVuSans-65" transform="translate(181.982422 0)"/>
      <use xlink:href="#DejaVuSans-6c" transform="translate(243.505859 0)"/>
      <use xlink:href="#DejaVuSans-69" transform="translate(271.289062 0)"/>
      <use xlink:href="#DejaVuSans-6e" transform="translate(299.072266 0)"/>
      <use xlink:href="#DejaVuSans-65" transform="translate(362.451172 0)"/>
      <use xlink:href="#DejaVuSans-20" transform="translate(423.974609 0)"/>
      <use xlink:href="#DejaVuSans-4b" transform="translate(455.761719 0)"/>
      <use xlink:href="#DejaVuSans-46" transform="translate(521.337891 0)"/>
     </g>
    </g>
    <g id="line2d_34">
     <path d="M 480.453125 79.616562 
L 490.453125 79.616562 
L 500.453125 79.616562 
" style="fill: none; stroke-dasharray: 5.55,2.4; stroke-dashoffset: 0; stroke: #0000ff; stroke-width: 1.5"/>
    </g>
    <g id="text_20">
     <!-- Shadow KF (LLM Assisted) -->
     <g transform="translate(508.453125 83.116562) scale(0.1 -0.1)">
      <defs>
       <path id="DejaVuSans-77" d="M 269 3500 
L 844 3500 
L 1563 769 
L 2278 3500 
L 2956 3500 
L 3675 769 
L 4391 3500 
L 4966 3500 
L 4050 0 
L 3372 0 
L 2619 2869 
L 1863 0 
L 1184 0 
L 269 3500 
z
" transform="scale(0.015625)"/>
       <path id="DejaVuSans-4c" d="M 628 4666 
L 1259 4666 
L 1259 531 
L 3531 531 
L 3531 0 
L 628 0 
L 628 4666 
z
" transform="scale(0.015625)"/>
       <path id="DejaVuSans-41" d="M 2188 4044 
L 1331 1722 
L 3047 1722 
L 2188 4044 
z
M 1831 4666 
L 2547 4666 
L 4325 0 
L 3669 0 
L 3244 1197 
L 1141 1197 
L 716 0 
L 50 0 
L 1831 4666 
z
" transform="scale(0.015625)"/>
      </defs>
      <use xlink:href="#DejaVuSans-53"/>
      <use xlink:href="#DejaVuSans-68" transform="translate(63.476562 0)"/>
      <use xlink:href="#DejaVuSans-61" transform="translate(126.855469 0)"/>
      <use xlink:href="#DejaVuSans-64" transform="translate(188.134766 0)"/>
      <use xlink:href="#DejaVuSans-6f" transform="translate(251.611328 0)"/>
      <use xlink:href="#DejaVuSans-77" transform="translate(312.792969 0)"/>
      <use xlink:href="#DejaVuSans-20" transform="translate(394.580078 0)"/>
      <use xlink:href="#DejaVuSans-4b" transform="translate(426.367188 0)"/>
      <use xlink:href="#DejaVuSans-46" transform="translate(491.943359 0)"/>
      <use xlink:href="#DejaVuSans-20" transform="translate(549.462891 0)"/>
      <use xlink:href="#DejaVuSans-28" transform="translate(581.25 0)"/>
      <use xlink:href="#DejaVuSans-4c" transform="translate(620.263672 0)"/>
      <use xlink:href="#DejaVuSans-4c" transform="translate(675.976562 0)"/>
      <use xlink:href="#DejaVuSans-4d" transform="translate(731.689453 0)"/>
      <use xlink:href="#DejaVuSans-20" transform="translate(817.96875 0)"/>
      <use xlink:href="#DejaVuSans-41" transform="translate(849.755859 0)"/>
      <use xlink:href="#DejaVuSans-73" transform="translate(918.164062 0)"/>
      <use xlink:href="#DejaVuSans-73" transform="translate(970.263672 0)"/>
      <use xlink:href="#DejaVuSans-69" transform="translate(1022.363281 0)"/>
      <use xlink:href="#DejaVuSans-73" transform="translate(1050.146484 0)"/>
      <use xlink:href="#DejaVuSans-74" transform="translate(1102.246094 0)"/>
      <use xlink:href="#DejaVuSans-65" transform="translate(1141.455078 0)"/>
      <use xlink:href="#DejaVuSans-64" transform="translate(1202.978516 0)"/>
      <use xlink:href="#DejaVuSans-29" transform="translate(1266.455078 0)"/>
     </g>
    </g>
   </g>
  </g>
 </g>
 <defs>
  <clipPath id="pcf525f14da">
   <rect x="90" y="51.84" width="558" height="332.64"/>
  </clipPath>
 </defs>
</svg>
