<?xml version="1.0" encoding="utf-8" standalone="no"?>
<!DOCTYPE svg PUBLIC "-//W3C//DTD SVG 1.1//EN"
  "http://www.w3.org/Graphics/SVG/1.1/DTD/svg11.dtd">
<svg xmlns:xlink="http://www.w3.org/1999/xlink" width="720pt" height="432pt" viewBox="0 0 720 432" xmlns="http://www.w3.org/2000/svg" version="1.1">
 <metadata>
  <rdf:RDF xmlns:dc="http://purl.org/dc/elements/1.1/" xmlns:cc="http://creativecommons.org/ns#" xmlns:rdf="http://www.w3.org/1999/02/22-rdf-syntax-ns#">
   <cc:Work>
    <dc:type rdf:resource="http://purl.org/dc/dcmitype/StillImage"/>
    <dc:date>2026-03-25T09:55:25.190634</dc:date>
    <dc:format>image/svg+xml</dc:format>
    <dc:creator>
     <cc:Agent>
      <dc:title>Matplotlib v3.10.8, https://matplotlib.org/</dc:title>
     </cc:Agent>
    </dc:creator>
   </cc:Work>
  </rdf:RDF>
 </metadata>
 <defs>
  <style type="text/css">*{stroke-linejoin: round; stroke-linecap: butt}</style>
 </defs>
 <g id="figure_1">
  <g id="patch_1">
   <path d="M 0 432 
L 720 432 
L 720 0 
L 0 0 
z
" style="fill: #ffffff"/>
  </g>
  <g id="axes_1">
   <g id="patch_2">
    <path d="M 90 384.48 
L 648 384.48 
L 648 51.84 
L 90 51.84 
z
" style="fill: #ffffff"/>
   </g>
   <g id="matplotlib.axis_1">
    <g id="xtick_1">
     <g id="line2d_1">
      <path d="M 115.363636 384.48 
L 115.363636 51.84 
" clip-path="url(#pbd3adacc59)" style="fill: none; stroke: #b0b0b0; stroke-width: 0.8; stroke-linecap: square"/>
     </g>
     <g id="line2d_2">
      <defs>
       <path id="m24caa7175f" d="M 0 0 
L 0 3.5 
" style="stroke: #000000; stroke-width: 0.8"/>
      </defs>
      <g>
       <use xlink:href="#m24caa7175f" x="115.363636" y="384.48" style="stroke: #000000; stroke-width: 0.8"/>
      </g>
     </g>
     <g id="text_1">
      <!-- 0 -->
      <g transform="translate(112.182386 399.078438) scale(0.1 -0.1)">
       <defs>
        <path id="DejaVuSans-30" d="M 2034 4250 
Q 1547 4250 1301 3770 
Q 1056 3291 1056 2328 
Q 1056 1369 1301 889 
Q 1547 409 2034 409 
Q 2525 409 2770 889 
Q 3016 1369 3016 2328 
Q 3016 3291 2770 3770 
Q 2525 4250 2034 4250 
z
M 2034 4750 
Q 2819 4750 3233 4129 
Q 3647 3509 3647 2328 
Q 3647 1150 3233 529 
Q 2819 -91 2034 -91 
Q 1250 -91 836 529 
Q 422 1150 422 2328 
Q 422 3509 836 4129 
Q 1250 4750 2034 4750 
z
" transform="scale(0.015625)"/>
       </defs>
       <use xlink:href="#DejaVuSans-30"/>
      </g>
     </g>
    </g>
    <g id="xtick_2">
     <g id="line2d_3">
      <path d="M 201.605174 384.48 
L 201.605174 51.84 
" clip-path="url(#pbd3adacc59)" style="fill: none; stroke: #b0b0b0; stroke-width: 0.8; stroke-linecap: square"/>
     </g>
     <g id="line2d_4">
      <g>
       <use xlink:href="#m24caa7175f" x="201.605174" y="384.48" style="stroke: #000000; stroke-width: 0.8"/>
      </g>
     </g>
     <g id="text_2">
      <!-- 50 -->
      <g transform="translate(195.242674 399.078438) scale(0.1 -0.1)">
       <defs>
        <path id="DejaVuSans-35" d="M 691 4666 
L 3169 4666 
L 3169 4134 
L 1269 4134 
L 1269 2991 
Q 1406 3038 1543 3061 
Q 1681 3084 1819 3084 
Q 2600 3084 3056 2656 
Q 3513 2228 3513 1497 
Q 3513 744 3044 326 
Q 2575 -91 1722 -91 
Q 1428 -91 1123 -41 
Q 819 9 494 109 
L 494 744 
Q 775 591 1075 516 
Q 1375 441 1709 441 
Q 2250 441 2565 725 
Q 2881 1009 2881 1497 
Q 2881 1984 2565 2268 
Q 2250 2553 1709 2553 
Q 1456 2553 1204 2497 
Q 953 2441 691 2322 
L 691 4666 
z
" transform="scale(0.015625)"/>
       </defs>
       <use xlink:href="#DejaVuSans-35"/>
       <use xlink:href="#DejaVuSans-30" transform="translate(63.623047 0)"/>
      </g>
     </g>
    </g>
    <g id="xtick_3">
     <g id="line2d_5">
      <path d="M 287.846713 384.48 
L 287.846713 51.84 
" clip-path="url(#pbd3adacc59)" style="fill: none; stroke: #b0b0b0; stroke-width: 0.8; stroke-linecap: square"/>
     </g>
     <g id="line2d_6">
      <g>
       <use xlink:href="#m24caa7175f" x="287.846713" y="384.48" style="stroke: #000000; stroke-width: 0.8"/>
      </g>
     </g>
     <g id="text_3">
      <!-- 100 -->
      <g transform="translate(278.302963 399.078438) scale(0.1 -0.1)">
       <defs>
        <path id="DejaVuSans-31" d="M 794 531 
L 1825 531 
L 1825 4091 
L 703 3866 
L 703 4441 
L 1819 4666 
L 2450 4666 
L 2450 531 
L 3481 531 
L 3481 0 
L 794 0 
L 794 531 
z
" transform="scale(0.015625)"/>
       </defs>
       <use xlink:href="#DejaVuSans-31"/>
       <use xlink:href="#DejaVuSans-30" transform="translate(63.623047 0)"/>
       <use xlink:href="#DejaVuSans-30" transform="translate(127.246094 0)"/>
      </g>
     </g>
    </g>
    <g id="xtick_4">
     <g id="line2d_7">
      <path d="M 374.088251 384.48 
L 374.088251 51.84 
" clip-path="url(#pbd3adacc59)" style="fill: none; stroke: #b0b0b0; stroke-width: 0.8; stroke-linecap: square"/>
     </g>
     <g id="line2d_8">
      <g>
       <use xlink:href="#m24caa7175f" x="374.088251" y="384.48" style="stroke: #000000; stroke-width: 0.8"/>
      </g>
     </g>
     <g id="text_4">
      <!-- 150 -->
      <g transform="translate(364.544501 399.078438) scale(0.1 -0.1)">
       <use xlink:href="#DejaVuSans-31"/>
       <use xlink:href="#DejaVuSans-35" transform="translate(63.623047 0)"/>
       <use xlink:href="#DejaVuSans-30" transform="translate(127.246094 0)"/>
      </g>
     </g>
    </g>
    <g id="xtick_5">
     <g id="line2d_9">
      <path d="M 460.329789 384.48 
L 460.329789 51.84 
" clip-path="url(#pbd3adacc59)" style="fill: none; stroke: #b0b0b0; stroke-width: 0.8; stroke-linecap: square"/>
     </g>
     <g id="line2d_10">
      <g>
       <use xlink:href="#m24caa7175f" x="460.329789" y="384.48" style="stroke: #000000; stroke-width: 0.8"/>
      </g>
     </g>
     <g id="text_5">
      <!-- 200 -->
      <g transform="translate(450.786039 399.078438) scale(0.1 -0.1)">
       <defs>
        <path id="DejaVuSans-32" d="M 1228 531 
L 3431 531 
L 3431 0 
L 469 0 
L 469 531 
Q 828 903 1448 1529 
Q 2069 2156 2228 2338 
Q 2531 2678 2651 2914 
Q 2772 3150 2772 3378 
Q 2772 3750 2511 3984 
Q 2250 4219 1831 4219 
Q 1534 4219 1204 4116 
Q 875 4013 500 3803 
L 500 4441 
Q 881 4594 1212 4672 
Q 1544 4750 1819 4750 
Q 2544 4750 2975 4387 
Q 3406 4025 3406 3419 
Q 3406 3131 3298 2873 
Q 3191 2616 2906 2266 
Q 2828 2175 2409 1742 
Q 1991 1309 1228 531 
z
" transform="scale(0.015625)"/>
       </defs>
       <use xlink:href="#DejaVuSans-32"/>
       <use xlink:href="#DejaVuSans-30" transform="translate(63.623047 0)"/>
       <use xlink:href="#DejaVuSans-30" transform="translate(127.246094 0)"/>
      </g>
     </g>
    </g>
    <g id="xtick_6">
     <g id="line2d_11">
      <path d="M 546.571327 384.48 
L 546.571327 51.84 
" clip-path="url(#pbd3adacc59)" style="fill: none; stroke: #b0b0b0; stroke-width: 0.8; stroke-linecap: square"/>
     </g>
     <g id="line2d_12">
      <g>
       <use xlink:href="#m24caa7175f" x="546.571327" y="384.48" style="stroke: #000000; stroke-width: 0.8"/>
      </g>
     </g>
     <g id="text_6">
      <!-- 250 -->
      <g transform="translate(537.027577 399.078438) scale(0.1 -0.1)">
       <use xlink:href="#DejaVuSans-32"/>
       <use xlink:href="#DejaVuSans-35" transform="translate(63.623047 0)"/>
       <use xlink:href="#DejaVuSans-30" transform="translate(127.246094 0)"/>
      </g>
     </g>
    </g>
    <g id="xtick_7">
     <g id="line2d_13">
      <path d="M 632.812865 384.48 
L 632.812865 51.84 
" clip-path="url(#pbd3adacc59)" style="fill: none; stroke: #b0b0b0; stroke-width: 0.8; stroke-linecap: square"/>
     </g>
     <g id="line2d_14">
      <g>
       <use xlink:href="#m24caa7175f" x="632.812865" y="384.48" style="stroke: #000000; stroke-width: 0.8"/>
      </g>
     </g>
     <g id="text_7">
      <!-- 300 -->
      <g transform="translate(623.269115 399.078438) scale(0.1 -0.1)">
       <defs>
        <path id="DejaVuSans-33" d="M 2597 2516 
Q 3050 2419 3304 2112 
Q 3559 1806 3559 1356 
Q 3559 666 3084 287 
Q 2609 -91 1734 -91 
Q 1441 -91 1130 -33 
Q 819 25 488 141 
L 488 750 
Q 750 597 1062 519 
Q 1375 441 1716 441 
Q 2309 441 2620 675 
Q 2931 909 2931 1356 
Q 2931 1769 2642 2001 
Q 2353 2234 1838 2234 
L 1294 2234 
L 1294 2753 
L 1863 2753 
Q 2328 2753 2575 2939 
Q 2822 3125 2822 3475 
Q 2822 3834 2567 4026 
Q 2313 4219 1838 4219 
Q 1578 4219 1281 4162 
Q 984 4106 628 3988 
L 628 4550 
Q 988 4650 1302 4700 
Q 1616 4750 1894 4750 
Q 2613 4750 3031 4423 
Q 3450 4097 3450 3541 
Q 3450 3153 3228 2886 
Q 3006 2619 2597 2516 
z
" transform="scale(0.015625)"/>
       </defs>
       <use xlink:href="#DejaVuSans-33"/>
       <use xlink:href="#DejaVuSans-30" transform="translate(63.623047 0)"/>
       <use xlink:href="#DejaVuSans-30" transform="translate(127.246094 0)"/>
      </g>
     </g>
    </g>
    <g id="text_8">
     <!-- Maneuver Time (s) -->
     <g transform="translate(322.198438 412.756563) scale(0.1 -0.1)">
      <defs>
       <path id="DejaVuSans-4d" d="M 628 4666 
L 1569 4666 
L 2759 1491 
L 3956 4666 
L 4897 4666 
L 4897 0 
L 4281 0 
L 4281 4097 
L 3078 897 
L 2444 897 
L 1241 4097 
L 1241 0 
L 628 0 
L 628 4666 
z
" transform="scale(0.015625)"/>
       <path id="DejaVuSans-61" d="M 2194 1759 
Q 1497 1759 1228 1600 
Q 959 1441 959 1056 
Q 959 750 1161 570 
Q 1363 391 1709 391 
Q 2188 391 2477 730 
Q 2766 1069 2766 1631 
L 2766 1759 
L 2194 1759 
z
M 3341 1997 
L 3341 0 
L 2766 0 
L 2766 531 
Q 2569 213 2275 61 
Q 1981 -91 1556 -91 
Q 1019 -91 701 211 
Q 384 513 384 1019 
Q 384 1609 779 1909 
Q 1175 2209 1959 2209 
L 2766 2209 
L 2766 2266 
Q 2766 2663 2505 2880 
Q 2244 3097 1772 3097 
Q 1472 3097 1187 3025 
Q 903 2953 641 2809 
L 641 3341 
Q 956 3463 1253 3523 
Q 1550 3584 1831 3584 
Q 2591 3584 2966 3190 
Q 3341 2797 3341 1997 
z
" transform="scale(0.015625)"/>
       <path id="DejaVuSans-6e" d="M 3513 2113 
L 3513 0 
L 2938 0 
L 2938 2094 
Q 2938 2591 2744 2837 
Q 2550 3084 2163 3084 
Q 1697 3084 1428 2787 
Q 1159 2491 1159 1978 
L 1159 0 
L 581 0 
L 581 3500 
L 1159 3500 
L 1159 2956 
Q 1366 3272 1645 3428 
Q 1925 3584 2291 3584 
Q 2894 3584 3203 3211 
Q 3513 2838 3513 2113 
z
" transform="scale(0.015625)"/>
       <path id="DejaVuSans-65" d="M 3597 1894 
L 3597 1613 
L 953 1613 
Q 991 1019 1311 708 
Q 1631 397 2203 397 
Q 2534 397 2845 478 
Q 3156 559 3463 722 
L 3463 178 
Q 3153 47 2828 -22 
Q 2503 -91 2169 -91 
Q 1331 -91 842 396 
Q 353 884 353 1716 
Q 353 2575 817 3079 
Q 1281 3584 2069 3584 
Q 2775 3584 3186 3129 
Q 3597 2675 3597 1894 
z
M 3022 2063 
Q 3016 2534 2758 2815 
Q 2500 3097 2075 3097 
Q 1594 3097 1305 2825 
Q 1016 2553 972 2059 
L 3022 2063 
z
" transform="scale(0.015625)"/>
       <path id="DejaVuSans-75" d="M 544 1381 
L 544 3500 
L 1119 3500 
L 1119 1403 
Q 1119 906 1312 657 
Q 1506 409 1894 409 
Q 2359 409 2629 706 
Q 2900 1003 2900 1516 
L 2900 3500 
L 3475 3500 
L 3475 0 
L 2900 0 
L 2900 538 
Q 2691 219 2414 64 
Q 2138 -91 1772 -91 
Q 1169 -91 856 284 
Q 544 659 544 1381 
z
M 1991 3584 
L 1991 3584 
z
" transform="scale(0.015625)"/>
       <path id="DejaVuSans-76" d="M 191 3500 
L 800 3500 
L 1894 563 
L 2988 3500 
L 3597 3500 
L 2284 0 
L 1503 0 
L 191 3500 
z
" transform="scale(0.015625)"/>
       <path id="DejaVuSans-72" d="M 2631 2963 
Q 2534 3019 2420 3045 
Q 2306 3072 2169 3072 
Q 1681 3072 1420 2755 
Q 1159 2438 1159 1844 
L 1159 0 
L 581 0 
L 581 3500 
L 1159 3500 
L 1159 2956 
Q 1341 3275 1631 3429 
Q 1922 3584 2338 3584 
Q 2397 3584 2469 3576 
Q 2541 3569 2628 3553 
L 2631 2963 
z
" transform="scale(0.015625)"/>
       <path id="DejaVuSans-20" transform="scale(0.015625)"/>
       <path id="DejaVuSans-54" d="M -19 4666 
L 3928 4666 
L 3928 4134 
L 2272 4134 
L 2272 0 
L 1638 0 
L 1638 4134 
L -19 4134 
L -19 4666 
z
" transform="scale(0.015625)"/>
       <path id="DejaVuSans-69" d="M 603 3500 
L 1178 3500 
L 1178 0 
L 603 0 
L 603 3500 
z
M 603 4863 
L 1178 4863 
L 1178 4134 
L 603 4134 
L 603 4863 
z
" transform="scale(0.015625)"/>
       <path id="DejaVuSans-6d" d="M 3328 2828 
Q 3544 3216 3844 3400 
Q 4144 3584 4550 3584 
Q 5097 3584 5394 3201 
Q 5691 2819 5691 2113 
L 5691 0 
L 5113 0 
L 5113 2094 
Q 5113 2597 4934 2840 
Q 4756 3084 4391 3084 
Q 3944 3084 3684 2787 
Q 3425 2491 3425 1978 
L 3425 0 
L 2847 0 
L 2847 2094 
Q 2847 2600 2669 2842 
Q 2491 3084 2119 3084 
Q 1678 3084 1418 2786 
Q 1159 2488 1159 1978 
L 1159 0 
L 581 0 
L 581 3500 
L 1159 3500 
L 1159 2956 
Q 1356 3278 1631 3431 
Q 1906 3584 2284 3584 
Q 2666 3584 2933 3390 
Q 3200 3197 3328 2828 
z
" transform="scale(0.015625)"/>
       <path id="DejaVuSans-28" d="M 1984 4856 
Q 1566 4138 1362 3434 
Q 1159 2731 1159 2009 
Q 1159 1288 1364 580 
Q 1569 -128 1984 -844 
L 1484 -844 
Q 1016 -109 783 600 
Q 550 1309 550 2009 
Q 550 2706 781 3412 
Q 1013 4119 1484 4856 
L 1984 4856 
z
" transform="scale(0.015625)"/>
       <path id="DejaVuSans-73" d="M 2834 3397 
L 2834 2853 
Q 2591 2978 2328 3040 
Q 2066 3103 1784 3103 
Q 1356 3103 1142 2972 
Q 928 2841 928 2578 
Q 928 2378 1081 2264 
Q 1234 2150 1697 2047 
L 1894 2003 
Q 2506 1872 2764 1633 
Q 3022 1394 3022 966 
Q 3022 478 2636 193 
Q 2250 -91 1575 -91 
Q 1294 -91 989 -36 
Q 684 19 347 128 
L 347 722 
Q 666 556 975 473 
Q 1284 391 1588 391 
Q 1994 391 2212 530 
Q 2431 669 2431 922 
Q 2431 1156 2273 1281 
Q 2116 1406 1581 1522 
L 1381 1569 
Q 847 1681 609 1914 
Q 372 2147 372 2553 
Q 372 3047 722 3315 
Q 1072 3584 1716 3584 
Q 2034 3584 2315 3537 
Q 2597 3491 2834 3397 
z
" transform="scale(0.015625)"/>
       <path id="DejaVuSans-29" d="M 513 4856 
L 1013 4856 
Q 1481 4119 1714 3412 
Q 1947 2706 1947 2009 
Q 1947 1309 1714 600 
Q 1481 -109 1013 -844 
L 513 -844 
Q 928 -128 1133 580 
Q 1338 1288 1338 2009 
Q 1338 2731 1133 3434 
Q 928 4138 513 4856 
z
" transform="scale(0.015625)"/>
      </defs>
      <use xlink:href="#DejaVuSans-4d"/>
      <use xlink:href="#DejaVuSans-61" transform="translate(86.279297 0)"/>
      <use xlink:href="#DejaVuSans-6e" transform="translate(147.558594 0)"/>
      <use xlink:href="#DejaVuSans-65" transform="translate(210.9375 0)"/>
      <use xlink:href="#DejaVuSans-75" transform="translate(272.460938 0)"/>
      <use xlink:href="#DejaVuSans-76" transform="translate(335.839844 0)"/>
      <use xlink:href="#DejaVuSans-65" transform="translate(395.019531 0)"/>
      <use xlink:href="#DejaVuSans-72" transform="translate(456.542969 0)"/>
      <use xlink:href="#DejaVuSans-20" transform="translate(497.65625 0)"/>
      <use xlink:href="#DejaVuSans-54" transform="translate(529.443359 0)"/>
      <use xlink:href="#DejaVuSans-69" transform="translate(587.402344 0)"/>
      <use xlink:href="#DejaVuSans-6d" transform="translate(615.185547 0)"/>
      <use xlink:href="#DejaVuSans-65" transform="translate(712.597656 0)"/>
      <use xlink:href="#DejaVuSans-20" transform="translate(774.121094 0)"/>
      <use xlink:href="#DejaVuSans-28" transform="translate(805.908203 0)"/>
      <use xlink:href="#DejaVuSans-73" transform="translate(844.921875 0)"/>
      <use xlink:href="#DejaVuSans-29" transform="translate(897.021484 0)"/>
     </g>
    </g>
   </g>
   <g id="matplotlib.axis_2">
    <g id="ytick_1">
     <g id="line2d_15">
      <path d="M 90 373.243946 
L 648 373.243946 
" clip-path="url(#pbd3adacc59)" style="fill: none; stroke: #b0b0b0; stroke-width: 0.8; stroke-linecap: square"/>
     </g>
     <g id="line2d_16">
      <defs>
       <path id="m2f168ea814" d="M 0 0 
L -3.5 0 
" style="stroke: #000000; stroke-width: 0.8"/>
      </defs>
      <g>
       <use xlink:href="#m2f168ea814" x="90" y="373.243946" style="stroke: #000000; stroke-width: 0.8"/>
      </g>
     </g>
     <g id="text_9">
      <!-- 0.0 -->
      <g transform="translate(67.096875 377.043165) scale(0.1 -0.1)">
       <defs>
        <path id="DejaVuSans-2e" d="M 684 794 
L 1344 794 
L 1344 0 
L 684 0 
L 684 794 
z
" transform="scale(0.015625)"/>
       </defs>
       <use xlink:href="#DejaVuSans-30"/>
       <use xlink:href="#DejaVuSans-2e" transform="translate(63.623047 0)"/>
       <use xlink:href="#DejaVuSans-30" transform="translate(95.410156 0)"/>
      </g>
     </g>
    </g>
    <g id="ytick_2">
     <g id="line2d_17">
      <path d="M 90 316.737746 
L 648 316.737746 
" clip-path="url(#pbd3adacc59)" style="fill: none; stroke: #b0b0b0; stroke-width: 0.8; stroke-linecap: square"/>
     </g>
     <g id="line2d_18">
      <g>
       <use xlink:href="#m2f168ea814" x="90" y="316.737746" style="stroke: #000000; stroke-width: 0.8"/>
      </g>
     </g>
     <g id="text_10">
      <!-- 0.2 -->
      <g transform="translate(67.096875 320.536965) scale(0.1 -0.1)">
       <use xlink:href="#DejaVuSans-30"/>
       <use xlink:href="#DejaVuSans-2e" transform="translate(63.623047 0)"/>
       <use xlink:href="#DejaVuSans-32" transform="translate(95.410156 0)"/>
      </g>
     </g>
    </g>
    <g id="ytick_3">
     <g id="line2d_19">
      <path d="M 90 260.231546 
L 648 260.231546 
" clip-path="url(#pbd3adacc59)" style="fill: none; stroke: #b0b0b0; stroke-width: 0.8; stroke-linecap: square"/>
     </g>
     <g id="line2d_20">
      <g>
       <use xlink:href="#m2f168ea814" x="90" y="260.231546" style="stroke: #000000; stroke-width: 0.8"/>
      </g>
     </g>
     <g id="text_11">
      <!-- 0.4 -->
      <g transform="translate(67.096875 264.030765) scale(0.1 -0.1)">
       <defs>
        <path id="DejaVuSans-34" d="M 2419 4116 
L 825 1625 
L 2419 1625 
L 2419 4116 
z
M 2253 4666 
L 3047 4666 
L 3047 1625 
L 3713 1625 
L 3713 1100 
L 3047 1100 
L 3047 0 
L 2419 0 
L 2419 1100 
L 313 1100 
L 313 1709 
L 2253 4666 
z
" transform="scale(0.015625)"/>
       </defs>
       <use xlink:href="#DejaVuSans-30"/>
       <use xlink:href="#DejaVuSans-2e" transform="translate(63.623047 0)"/>
       <use xlink:href="#DejaVuSans-34" transform="translate(95.410156 0)"/>
      </g>
     </g>
    </g>
    <g id="ytick_4">
     <g id="line2d_21">
      <path d="M 90 203.725347 
L 648 203.725347 
" clip-path="url(#pbd3adacc59)" style="fill: none; stroke: #b0b0b0; stroke-width: 0.8; stroke-linecap: square"/>
     </g>
     <g id="line2d_22">
      <g>
       <use xlink:href="#m2f168ea814" x="90" y="203.725347" style="stroke: #000000; stroke-width: 0.8"/>
      </g>
     </g>
     <g id="text_12">
      <!-- 0.6 -->
      <g transform="translate(67.096875 207.524565) scale(0.1 -0.1)">
       <defs>
        <path id="DejaVuSans-36" d="M 2113 2584 
Q 1688 2584 1439 2293 
Q 1191 2003 1191 1497 
Q 1191 994 1439 701 
Q 1688 409 2113 409 
Q 2538 409 2786 701 
Q 3034 994 3034 1497 
Q 3034 2003 2786 2293 
Q 2538 2584 2113 2584 
z
M 3366 4563 
L 3366 3988 
Q 3128 4100 2886 4159 
Q 2644 4219 2406 4219 
Q 1781 4219 1451 3797 
Q 1122 3375 1075 2522 
Q 1259 2794 1537 2939 
Q 1816 3084 2150 3084 
Q 2853 3084 3261 2657 
Q 3669 2231 3669 1497 
Q 3669 778 3244 343 
Q 2819 -91 2113 -91 
Q 1303 -91 875 529 
Q 447 1150 447 2328 
Q 447 3434 972 4092 
Q 1497 4750 2381 4750 
Q 2619 4750 2861 4703 
Q 3103 4656 3366 4563 
z
" transform="scale(0.015625)"/>
       </defs>
       <use xlink:href="#DejaVuSans-30"/>
       <use xlink:href="#DejaVuSans-2e" transform="translate(63.623047 0)"/>
       <use xlink:href="#DejaVuSans-36" transform="translate(95.410156 0)"/>
      </g>
     </g>
    </g>
    <g id="ytick_5">
     <g id="line2d_23">
      <path d="M 90 147.219147 
L 648 147.219147 
" clip-path="url(#pbd3adacc59)" style="fill: none; stroke: #b0b0b0; stroke-width: 0.8; stroke-linecap: square"/>
     </g>
     <g id="line2d_24">
      <g>
       <use xlink:href="#m2f168ea814" x="90" y="147.219147" style="stroke: #000000; stroke-width: 0.8"/>
      </g>
     </g>
     <g id="text_13">
      <!-- 0.8 -->
      <g transform="translate(67.096875 151.018366) scale(0.1 -0.1)">
       <defs>
        <path id="DejaVuSans-38" d="M 2034 2216 
Q 1584 2216 1326 1975 
Q 1069 1734 1069 1313 
Q 1069 891 1326 650 
Q 1584 409 2034 409 
Q 2484 409 2743 651 
Q 3003 894 3003 1313 
Q 3003 1734 2745 1975 
Q 2488 2216 2034 2216 
z
M 1403 2484 
Q 997 2584 770 2862 
Q 544 3141 544 3541 
Q 544 4100 942 4425 
Q 1341 4750 2034 4750 
Q 2731 4750 3128 4425 
Q 3525 4100 3525 3541 
Q 3525 3141 3298 2862 
Q 3072 2584 2669 2484 
Q 3125 2378 3379 2068 
Q 3634 1759 3634 1313 
Q 3634 634 3220 271 
Q 2806 -91 2034 -91 
Q 1263 -91 848 271 
Q 434 634 434 1313 
Q 434 1759 690 2068 
Q 947 2378 1403 2484 
z
M 1172 3481 
Q 1172 3119 1398 2916 
Q 1625 2713 2034 2713 
Q 2441 2713 2670 2916 
Q 2900 3119 2900 3481 
Q 2900 3844 2670 4047 
Q 2441 4250 2034 4250 
Q 1625 4250 1398 4047 
Q 1172 3844 1172 3481 
z
" transform="scale(0.015625)"/>
       </defs>
       <use xlink:href="#DejaVuSans-30"/>
       <use xlink:href="#DejaVuSans-2e" transform="translate(63.623047 0)"/>
       <use xlink:href="#DejaVuSans-38" transform="translate(95.410156 0)"/>
      </g>
     </g>
    </g>
    <g id="ytick_6">
     <g id="line2d_25">
      <path d="M 90 90.712947 
L 648 90.712947 
" clip-path="url(#pbd3adacc59)" style="fill: none; stroke: #b0b0b0; stroke-width: 0.8; stroke-linecap: square"/>
     </g>
     <g id="line2d_26">
      <g>
       <use xlink:href="#m2f168ea814" x="90" y="90.712947" style="stroke: #000000; stroke-width: 0.8"/>
      </g>
     </g>
     <g id="text_14">
      <!-- 1.0 -->
      <g transform="translate(67.096875 94.512166) scale(0.1 -0.1)">
       <use xlink:href="#DejaVuSans-31"/>
       <use xlink:href="#DejaVuSans-2e" transform="translate(63.623047 0)"/>
       <use xlink:href="#DejaVuSans-30" transform="translate(95.410156 0)"/>
      </g>
     </g>
    </g>
    <g id="text_15">
     <!-- Standard Deviation -->
     <g transform="translate(61.017187 266.413125) rotate(-90) scale(0.1 -0.1)">
      <defs>
       <path id="DejaVuSans-53" d="M 3425 4513 
L 3425 3897 
Q 3066 4069 2747 4153 
Q 2428 4238 2131 4238 
Q 1616 4238 1336 4038 
Q 1056 3838 1056 3469 
Q 1056 3159 1242 3001 
Q 1428 2844 1947 2747 
L 2328 2669 
Q 3034 2534 3370 2195 
Q 3706 1856 3706 1288 
Q 3706 609 3251 259 
Q 2797 -91 1919 -91 
Q 1588 -91 1214 -16 
Q 841 59 441 206 
L 441 856 
Q 825 641 1194 531 
Q 1563 422 1919 422 
Q 2459 422 2753 634 
Q 3047 847 3047 1241 
Q 3047 1584 2836 1778 
Q 2625 1972 2144 2069 
L 1759 2144 
Q 1053 2284 737 2584 
Q 422 2884 422 3419 
Q 422 4038 858 4394 
Q 1294 4750 2059 4750 
Q 2388 4750 2728 4690 
Q 3069 4631 3425 4513 
z
" transform="scale(0.015625)"/>
       <path id="DejaVuSans-74" d="M 1172 4494 
L 1172 3500 
L 2356 3500 
L 2356 3053 
L 1172 3053 
L 1172 1153 
Q 1172 725 1289 603 
Q 1406 481 1766 481 
L 2356 481 
L 2356 0 
L 1766 0 
Q 1100 0 847 248 
Q 594 497 594 1153 
L 594 3053 
L 172 3053 
L 172 3500 
L 594 3500 
L 594 4494 
L 1172 4494 
z
" transform="scale(0.015625)"/>
       <path id="DejaVuSans-64" d="M 2906 2969 
L 2906 4863 
L 3481 4863 
L 3481 0 
L 2906 0 
L 2906 525 
Q 2725 213 2448 61 
Q 2172 -91 1784 -91 
Q 1150 -91 751 415 
Q 353 922 353 1747 
Q 353 2572 751 3078 
Q 1150 3584 1784 3584 
Q 2172 3584 2448 3432 
Q 2725 3281 2906 2969 
z
M 947 1747 
Q 947 1113 1208 752 
Q 1469 391 1925 391 
Q 2381 391 2643 752 
Q 2906 1113 2906 1747 
Q 2906 2381 2643 2742 
Q 2381 3103 1925 3103 
Q 1469 3103 1208 2742 
Q 947 2381 947 1747 
z
" transform="scale(0.015625)"/>
       <path id="DejaVuSans-44" d="M 1259 4147 
L 1259 519 
L 2022 519 
Q 2988 519 3436 956 
Q 3884 1394 3884 2338 
Q 3884 3275 3436 3711 
Q 2988 4147 2022 4147 
L 1259 4147 
z
M 628 4666 
L 1925 4666 
Q 3281 4666 3915 4102 
Q 4550 3538 4550 2338 
Q 4550 1131 3912 565 
Q 3275 0 1925 0 
L 628 0 
L 628 4666 
z
" transform="scale(0.015625)"/>
       <path id="DejaVuSans-6f" d="M 1959 3097 
Q 1497 3097 1228 2736 
Q 959 2375 959 1747 
Q 959 1119 1226 758 
Q 1494 397 1959 397 
Q 2419 397 2687 759 
Q 2956 1122 2956 1747 
Q 2956 2369 2687 2733 
Q 2419 3097 1959 3097 
z
M 1959 3584 
Q 2709 3584 3137 3096 
Q 3566 2609 3566 1747 
Q 3566 888 3137 398 
Q 2709 -91 1959 -91 
Q 1206 -91 779 398 
Q 353 888 353 1747 
Q 353 2609 779 3096 
Q 1206 3584 1959 3584 
z
" transform="scale(0.015625)"/>
      </defs>
      <use xlink:href="#DejaVuSans-53"/>
      <use xlink:href="#DejaVuSans-74" transform="translate(63.476562 0)"/>
      <use xlink:href="#DejaVuSans-61" transform="translate(102.685547 0)"/>
      <use xlink:href="#DejaVuSans-6e" transform="translate(163.964844 0)"/>
      <use xlink:href="#DejaVuSans-64" transform="translate(227.34375 0)"/>
      <use xlink:href="#DejaVuSans-61" transform="translate(290.820312 0)"/>
      <use xlink:href="#DejaVuSans-72" transform="translate(352.099609 0)"/>
      <use xlink:href="#DejaVuSans-64" transform="translate(391.462891 0)"/>
      <use xlink:href="#DejaVuSans-20" transform="translate(454.939453 0)"/>
      <use xlink:href="#DejaVuSans-44" transform="translate(486.726562 0)"/>
      <use xlink:href="#DejaVuSans-65" transform="translate(563.728516 0)"/>
      <use xlink:href="#DejaVuSans-76" transform="translate(625.251953 0)"/>
      <use xlink:href="#DejaVuSans-69" transform="translate(684.431641 0)"/>
      <use xlink:href="#DejaVuSans-61" transform="translate(712.214844 0)"/>
      <use xlink:href="#DejaVuSans-74" transform="translate(773.494141 0)"/>
      <use xlink:href="#DejaVuSans-69" transform="translate(812.703125 0)"/>
      <use xlink:href="#DejaVuSans-6f" transform="translate(840.486328 0)"/>
      <use xlink:href="#DejaVuSans-6e" transform="translate(901.667969 0)"/>
     </g>
    </g>
    <g id="text_16">
     <!-- 1e−5 -->
     <g transform="translate(90 48.84) scale(0.1 -0.1)">
      <defs>
       <path id="DejaVuSans-2212" d="M 678 2272 
L 4684 2272 
L 4684 1741 
L 678 1741 
L 678 2272 
z
" transform="scale(0.015625)"/>
      </defs>
      <use xlink:href="#DejaVuSans-31"/>
      <use xlink:href="#DejaVuSans-65" transform="translate(63.623047 0)"/>
      <use xlink:href="#DejaVuSans-2212" transform="translate(125.146484 0)"/>
      <use xlink:href="#DejaVuSans-35" transform="translate(208.935547 0)"/>
     </g>
    </g>
   </g>
   <g id="line2d_27">
    <path d="M 115.363636 359.546457 
L 132.508454 359.656648 
L 134.612748 359.954753 
L 136.786034 360.494187 
L 139.718247 361.476041 
L 144.409786 363.051734 
L 146.686563 363.160882 
L 149.032333 363.20711 
L 155.241724 363.349245 
L 157.311521 363.386344 
L 160.761182 363.499522 
L 162.520509 363.524753 
L 162.865476 363.524753 
L 163.003462 364.094718 
L 164.24534 364.44923 
L 165.866681 364.619204 
L 169.04037 364.685003 
L 171.317146 364.686058 
L 171.455133 364.822494 
L 174.214862 365.241167 
L 178.837408 365.647736 
L 179.768817 365.647736 
L 179.906803 365.996688 
L 181.838614 366.156491 
L 185.978208 366.22843 
L 210.815771 366.43618 
L 219.267442 366.500822 
L 222.027171 366.522452 
L 222.165157 366.711028 
L 224.131464 367.008512 
L 227.753609 367.221101 
L 230.892801 367.464305 
L 232.962598 367.614794 
L 238.413063 367.747854 
L 239.413465 367.858309 
L 242.104201 367.982718 
L 251.004328 368.100214 
L 261.594788 368.256832 
L 265.04445 368.4745 
L 267.355723 368.681645 
L 271.598807 368.816252 
L 284.431548 368.873799 
L 284.569534 359.546457 
L 301.610862 359.656738 
L 303.715156 359.955191 
L 305.888442 360.495242 
L 308.820655 361.478096 
L 313.512194 363.055052 
L 315.788971 363.164173 
L 318.169237 363.209312 
L 324.344132 363.349733 
L 326.413928 363.387208 
L 329.86359 363.499833 
L 331.622917 363.524996 
L 331.967884 363.524996 
L 332.10587 364.092518 
L 333.347748 364.450107 
L 334.969089 364.621188 
L 338.142778 364.687401 
L 340.454051 364.805422 
L 343.662236 365.278608 
L 348.043306 365.645648 
L 348.871225 365.645648 
L 349.009211 365.994236 
L 350.941022 366.152173 
L 355.115112 366.223041 
L 379.814689 366.425893 
L 389.784211 366.513818 
L 391.129579 366.513818 
L 391.267565 366.703195 
L 393.268369 367.005418 
L 396.92501 367.220623 
L 399.926216 367.457536 
L 401.927019 367.610726 
L 407.308491 367.749431 
L 408.550369 367.859 
L 411.413588 367.97833 
L 421.521097 368.098408 
L 433.387932 368.288183 
L 433.525919 368.378327 
L 436.492628 368.681945 
L 440.770208 368.814845 
L 453.533956 368.872853 
L 453.568452 329.533149 
L 453.671942 329.534421 
L 458.259992 329.712148 
L 464.262403 330.095069 
L 467.919044 330.3163 
L 468.539983 330.649697 
L 469.126426 331.219262 
L 469.747365 332.146761 
L 470.471794 333.662065 
L 471.403202 336.18666 
L 473.197026 341.888636 
L 474.921857 347.0449 
L 476.267225 350.388612 
L 477.5436 352.992505 
L 478.854471 355.17096 
L 480.199839 356.984344 
L 481.648697 358.563491 
L 482.476616 359.236448 
L 484.615406 359.343321 
L 485.684801 359.431064 
L 490.169361 359.471357 
L 492.722111 359.586063 
L 494.136472 359.861996 
L 499.241971 360.215345 
L 499.793917 360.222476 
L 501.070291 360.222476 
L 501.208278 361.647975 
L 501.967203 362.040606 
L 502.933109 362.265328 
L 504.519953 362.380692 
L 509.314983 362.399182 
L 509.521962 362.399182 
L 509.659949 362.753824 
L 511.246793 363.388839 
L 513.454576 363.885707 
L 516.628265 364.397311 
L 517.973633 364.397311 
L 518.111619 364.870552 
L 519.62947 365.083461 
L 522.28571 365.195788 
L 560.231987 365.780884 
L 560.369973 366.089852 
L 562.094804 366.614259 
L 564.337084 366.946958 
L 567.510772 367.205019 
L 568.683657 367.205019 
L 568.821644 367.58135 
L 570.339495 367.915305 
L 572.857748 368.148716 
L 576.617879 368.292574 
L 577.135328 368.292574 
L 577.273315 368.499659 
L 579.274118 368.755952 
L 583.448209 368.957293 
L 587.20834 368.981029 
L 603.352756 369.102265 
L 608.837718 369.162912 
L 619.393682 369.273564 
L 619.566165 369.322535 
L 622.636364 369.36 
L 622.636364 369.36 
" clip-path="url(#pbd3adacc59)" style="fill: none; stroke: #ff0000; stroke-width: 1.5; stroke-linecap: square"/>
   </g>
   <g id="line2d_28">
    <path d="M 115.363636 359.546457 
L 118.744305 359.54651 
L 118.813298 66.960001 
L 118.882291 66.960021 
L 128.88631 67.063914 
L 129.645235 79.883953 
L 129.955705 95.335107 
L 130.438657 133.114129 
L 131.611542 227.619875 
L 132.266978 261.849234 
L 132.922414 285.357447 
L 133.612346 302.559365 
L 134.336775 315.314974 
L 135.0957 324.943011 
L 135.889122 332.342619 
L 136.751538 338.334543 
L 137.64845 343.035248 
L 138.579858 346.781557 
L 139.58026 349.90456 
L 140.649655 352.512546 
L 141.788044 354.696823 
L 142.995425 356.533181 
L 144.16831 357.970395 
L 146.169114 358.07433 
L 146.61757 358.322326 
L 147.479985 358.445043 
L 150.101728 358.518119 
L 154.448301 358.664594 
L 156.242125 359.049829 
L 160.07125 359.25723 
L 161.934067 359.464124 
L 163.003462 359.564138 
L 163.451918 359.786276 
L 164.45232 359.861085 
L 169.557819 359.889468 
L 171.317146 359.889468 
L 171.455133 361.549167 
L 172.179562 362.380989 
L 172.938487 362.808122 
L 174.214862 363.233117 
L 175.180767 363.378803 
L 179.768817 363.402872 
L 179.906803 363.607855 
L 183.563445 363.663038 
L 191.635653 363.689121 
L 191.670149 159.608735 
L 191.773639 159.61999 
L 191.877129 159.751856 
L 192.015115 160.476119 
L 192.187599 162.921772 
L 192.429075 170.222987 
L 192.808538 190.459868 
L 194.153906 270.309181 
L 194.774845 292.311004 
L 194.981824 295.223722 
L 196.672159 295.223722 
L 196.810145 295.937475 
L 197.500077 296.121431 
L 197.845043 296.475061 
L 198.224506 297.22542 
L 198.638466 298.582591 
L 199.155915 301.14562 
L 199.81135 305.649351 
L 200.22531 308.167044 
L 201.053229 308.326984 
L 201.467188 308.661284 
L 201.881147 309.296613 
L 202.3641 310.509591 
L 202.916046 312.569519 
L 203.467992 314.557703 
L 205.123829 314.557703 
L 205.261816 317.005659 
L 205.606782 317.649947 
L 205.951748 317.761979 
L 206.710674 317.924724 
L 207.124633 318.293586 
L 207.573089 319.033023 
L 208.090538 320.367323 
L 208.745974 322.750954 
L 209.711879 327.249387 
L 211.816173 337.363168 
L 213.5755 337.363168 
L 213.713486 337.556558 
L 214.161942 337.917085 
L 214.782882 337.984217 
L 215.748787 338.128509 
L 216.438719 338.474327 
L 217.128651 339.089807 
L 217.887577 340.084557 
L 218.853482 341.754472 
L 220.440326 344.582986 
L 222.027171 344.582986 
L 222.165157 352.559292 
L 222.786096 355.722793 
L 223.303545 357.025352 
L 223.924485 357.966173 
L 224.68341 358.704768 
L 225.683812 359.357238 
L 227.063677 359.978299 
L 228.754011 360.509282 
L 230.478841 360.509282 
L 230.616828 361.498774 
L 231.651726 362.004314 
L 232.893605 362.253365 
L 235.68783 362.532334 
L 238.44756 362.651601 
L 238.930512 362.651601 
L 239.068499 363.29671 
L 239.999907 363.671807 
L 241.379772 363.882112 
L 242.345677 363.966405 
L 242.380174 165.84922 
L 242.483664 165.854915 
L 242.690643 165.9992 
L 242.863126 166.501601 
L 243.070106 167.96796 
L 243.346079 172.017974 
L 243.691045 181.112335 
L 244.208494 202.114072 
L 245.622856 264.169671 
L 247.382183 264.169671 
L 247.520169 273.326731 
L 248.037619 276.316687 
L 248.417081 277.058816 
L 248.900034 277.50745 
L 249.55547 277.798579 
L 250.590368 277.991498 
L 252.522179 278.088649 
L 255.937344 278.256277 
L 256.351303 278.549572 
L 256.730766 278.660736 
L 256.937745 278.993781 
L 257.213718 279.954839 
L 257.558684 282.149652 
L 258.00714 286.641967 
L 258.731569 296.564881 
L 260.318414 318.573873 
L 261.215326 327.823262 
L 262.112238 334.828671 
L 262.560694 337.251027 
L 264.285524 337.251027 
L 264.423511 350.587164 
L 264.94096 352.161819 
L 265.458409 353.04904 
L 266.044852 353.634886 
L 266.769281 354.038956 
L 267.700689 354.292894 
L 269.115051 354.423227 
L 272.737195 354.444968 
L 272.875182 354.764354 
L 275.186455 356.283382 
L 279.636518 358.581306 
L 281.188866 358.581306 
L 281.326852 359.628231 
L 282.258261 359.827813 
L 283.948595 359.941972 
L 284.431548 359.951343 
L 284.569534 359.546457 
L 301.610862 359.656765 
L 303.715156 359.95539 
L 305.888442 360.495799 
L 308.820655 361.479294 
L 313.512194 363.057156 
L 315.788971 363.166478 
L 318.238231 363.210603 
L 324.344132 363.349227 
L 326.379432 363.387671 
L 329.86359 363.499275 
L 331.622917 363.524348 
L 331.967884 363.524348 
L 332.10587 364.084649 
L 333.347748 364.445087 
L 334.934592 364.615629 
L 338.039288 364.684317 
L 340.454051 364.803367 
L 343.593243 365.264704 
L 348.043306 365.636841 
L 348.871225 365.636841 
L 349.009211 365.990793 
L 350.906525 366.145538 
L 355.046119 366.216671 
L 380.194152 366.424236 
L 387.093475 366.463206 
L 391.129579 366.504004 
L 391.267565 366.69395 
L 393.268369 366.994397 
L 396.92501 367.20862 
L 399.926216 367.443968 
L 401.927019 367.596047 
L 407.308491 367.733606 
L 408.584866 367.843739 
L 411.517078 367.961918 
L 422.211029 368.087448 
L 433.387932 368.274529 
L 433.525919 368.365419 
L 436.492628 368.672468 
L 440.735711 368.806975 
L 453.533956 368.865162 
L 453.568452 329.456249 
L 453.671942 329.460362 
L 467.815554 330.208538 
L 468.47099 330.52765 
L 469.057433 331.066514 
L 469.678372 331.959044 
L 470.402801 333.437422 
L 471.299713 335.829328 
L 472.85206 340.742942 
L 474.783871 346.646249 
L 476.129239 350.06182 
L 477.405613 352.726388 
L 478.716485 354.955875 
L 480.061853 356.810462 
L 481.476214 358.389158 
L 482.476616 359.233466 
L 484.615406 359.340488 
L 485.684801 359.428219 
L 490.169361 359.468838 
L 492.722111 359.583527 
L 494.136472 359.859939 
L 501.070291 360.220479 
L 501.208278 361.647718 
L 501.967203 362.041239 
L 502.933109 362.266547 
L 504.519953 362.382343 
L 509.280486 362.400951 
L 509.521962 362.400951 
L 509.659949 362.75463 
L 511.246793 363.388863 
L 513.489073 363.892161 
L 516.628265 364.396826 
L 517.973633 364.396826 
L 518.111619 364.870122 
L 519.62947 365.083129 
L 522.28571 365.195559 
L 560.231987 365.780936 
L 560.369973 366.089962 
L 562.094804 366.614315 
L 564.337084 366.946977 
L 567.510772 367.205011 
L 568.683657 367.205011 
L 568.821644 367.581353 
L 570.339495 367.915283 
L 572.857748 368.14868 
L 576.617879 368.292533 
L 577.135328 368.292533 
L 577.273315 368.499634 
L 579.274118 368.755918 
L 583.448209 368.957252 
L 587.20834 368.981006 
L 603.352756 369.102229 
L 608.837718 369.162862 
L 619.393682 369.273499 
L 619.566165 369.322471 
L 622.636364 369.359938 
L 622.636364 369.359938 
" clip-path="url(#pbd3adacc59)" style="fill: none; stroke-dasharray: 5.55,2.4; stroke-dashoffset: 0; stroke: #0000ff; stroke-width: 1.5"/>
   </g>
   <g id="patch_3">
    <path d="M 90 384.48 
L 90 51.84 
" style="fill: none; stroke: #000000; stroke-width: 0.8; stroke-linejoin: miter; stroke-linecap: square"/>
   </g>
   <g id="patch_4">
    <path d="M 648 384.48 
L 648 51.84 
" style="fill: none; stroke: #000000; stroke-width: 0.8; stroke-linejoin: miter; stroke-linecap: square"/>
   </g>
   <g id="patch_5">
    <path d="M 90 384.48 
L 648 384.48 
" style="fill: none; stroke: #000000; stroke-width: 0.8; stroke-linejoin: miter; stroke-linecap: square"/>
   </g>
   <g id="patch_6">
    <path d="M 90 51.84 
L 648 51.84 
" style="fill: none; stroke: #000000; stroke-width: 0.8; stroke-linejoin: miter; stroke-linecap: square"/>
   </g>
   <g id="text_17">
    <!-- Uncertainty Convergence for eb_x (Index 6) -->
    <g transform="translate(237.52875 45.84) scale(0.12 -0.12)">
     <defs>
      <path id="DejaVuSans-55" d="M 556 4666 
L 1191 4666 
L 1191 1831 
Q 1191 1081 1462 751 
Q 1734 422 2344 422 
Q 2950 422 3222 751 
Q 3494 1081 3494 1831 
L 3494 4666 
L 4128 4666 
L 4128 1753 
Q 4128 841 3676 375 
Q 3225 -91 2344 -91 
Q 1459 -91 1007 375 
Q 556 841 556 1753 
L 556 4666 
z
" transform="scale(0.015625)"/>
      <path id="DejaVuSans-63" d="M 3122 3366 
L 3122 2828 
Q 2878 2963 2633 3030 
Q 2388 3097 2138 3097 
Q 1578 3097 1268 2742 
Q 959 2388 959 1747 
Q 959 1106 1268 751 
Q 1578 397 2138 397 
Q 2388 397 2633 464 
Q 2878 531 3122 666 
L 3122 134 
Q 2881 22 2623 -34 
Q 2366 -91 2075 -91 
Q 1284 -91 818 406 
Q 353 903 353 1747 
Q 353 2603 823 3093 
Q 1294 3584 2113 3584 
Q 2378 3584 2631 3529 
Q 2884 3475 3122 3366 
z
" transform="scale(0.015625)"/>
      <path id="DejaVuSans-79" d="M 2059 -325 
Q 1816 -950 1584 -1140 
Q 1353 -1331 966 -1331 
L 506 -1331 
L 506 -850 
L 844 -850 
Q 1081 -850 1212 -737 
Q 1344 -625 1503 -206 
L 1606 56 
L 191 3500 
L 800 3500 
L 1894 763 
L 2988 3500 
L 3597 3500 
L 2059 -325 
z
" transform="scale(0.015625)"/>
      <path id="DejaVuSans-43" d="M 4122 4306 
L 4122 3641 
Q 3803 3938 3442 4084 
Q 3081 4231 2675 4231 
Q 1875 4231 1450 3742 
Q 1025 3253 1025 2328 
Q 1025 1406 1450 917 
Q 1875 428 2675 428 
Q 3081 428 3442 575 
Q 3803 722 4122 1019 
L 4122 359 
Q 3791 134 3420 21 
Q 3050 -91 2638 -91 
Q 1578 -91 968 557 
Q 359 1206 359 2328 
Q 359 3453 968 4101 
Q 1578 4750 2638 4750 
Q 3056 4750 3426 4639 
Q 3797 4528 4122 4306 
z
" transform="scale(0.015625)"/>
      <path id="DejaVuSans-67" d="M 2906 1791 
Q 2906 2416 2648 2759 
Q 2391 3103 1925 3103 
Q 1463 3103 1205 2759 
Q 947 2416 947 1791 
Q 947 1169 1205 825 
Q 1463 481 1925 481 
Q 2391 481 2648 825 
Q 2906 1169 2906 1791 
z
M 3481 434 
Q 3481 -459 3084 -895 
Q 2688 -1331 1869 -1331 
Q 1566 -1331 1297 -1286 
Q 1028 -1241 775 -1147 
L 775 -588 
Q 1028 -725 1275 -790 
Q 1522 -856 1778 -856 
Q 2344 -856 2625 -561 
Q 2906 -266 2906 331 
L 2906 616 
Q 2728 306 2450 153 
Q 2172 0 1784 0 
Q 1141 0 747 490 
Q 353 981 353 1791 
Q 353 2603 747 3093 
Q 1141 3584 1784 3584 
Q 2172 3584 2450 3431 
Q 2728 3278 2906 2969 
L 2906 3500 
L 3481 3500 
L 3481 434 
z
" transform="scale(0.015625)"/>
      <path id="DejaVuSans-66" d="M 2375 4863 
L 2375 4384 
L 1825 4384 
Q 1516 4384 1395 4259 
Q 1275 4134 1275 3809 
L 1275 3500 
L 2222 3500 
L 2222 3053 
L 1275 3053 
L 1275 0 
L 697 0 
L 697 3053 
L 147 3053 
L 147 3500 
L 697 3500 
L 697 3744 
Q 697 4328 969 4595 
Q 1241 4863 1831 4863 
L 2375 4863 
z
" transform="scale(0.015625)"/>
      <path id="DejaVuSans-62" d="M 3116 1747 
Q 3116 2381 2855 2742 
Q 2594 3103 2138 3103 
Q 1681 3103 1420 2742 
Q 1159 2381 1159 1747 
Q 1159 1113 1420 752 
Q 1681 391 2138 391 
Q 2594 391 2855 752 
Q 3116 1113 3116 1747 
z
M 1159 2969 
Q 1341 3281 1617 3432 
Q 1894 3584 2278 3584 
Q 2916 3584 3314 3078 
Q 3713 2572 3713 1747 
Q 3713 922 3314 415 
Q 2916 -91 2278 -91 
Q 1894 -91 1617 61 
Q 1341 213 1159 525 
L 1159 0 
L 581 0 
L 581 4863 
L 1159 4863 
L 1159 2969 
z
" transform="scale(0.015625)"/>
      <path id="DejaVuSans-5f" d="M 3263 -1063 
L 3263 -1509 
L -63 -1509 
L -63 -1063 
L 3263 -1063 
z
" transform="scale(0.015625)"/>
      <path id="DejaVuSans-78" d="M 3513 3500 
L 2247 1797 
L 3578 0 
L 2900 0 
L 1881 1375 
L 863 0 
L 184 0 
L 1544 1831 
L 300 3500 
L 978 3500 
L 1906 2253 
L 2834 3500 
L 3513 3500 
z
" transform="scale(0.015625)"/>
      <path id="DejaVuSans-49" d="M 628 4666 
L 1259 4666 
L 1259 0 
L 628 0 
L 628 4666 
z
" transform="scale(0.015625)"/>
     </defs>
     <use xlink:href="#DejaVuSans-55"/>
     <use xlink:href="#DejaVuSans-6e" transform="translate(73.193359 0)"/>
     <use xlink:href="#DejaVuSans-63" transform="translate(136.572266 0)"/>
     <use xlink:href="#DejaVuSans-65" transform="translate(191.552734 0)"/>
     <use xlink:href="#DejaVuSans-72" transform="translate(253.076172 0)"/>
     <use xlink:href="#DejaVuSans-74" transform="translate(294.189453 0)"/>
     <use xlink:href="#DejaVuSans-61" transform="translate(333.398438 0)"/>
     <use xlink:href="#DejaVuSans-69" transform="translate(394.677734 0)"/>
     <use xlink:href="#DejaVuSans-6e" transform="translate(422.460938 0)"/>
     <use xlink:href="#DejaVuSans-74" transform="translate(485.839844 0)"/>
     <use xlink:href="#DejaVuSans-79" transform="translate(525.048828 0)"/>
     <use xlink:href="#DejaVuSans-20" transform="translate(584.228516 0)"/>
     <use xlink:href="#DejaVuSans-43" transform="translate(616.015625 0)"/>
     <use xlink:href="#DejaVuSans-6f" transform="translate(685.839844 0)"/>
     <use xlink:href="#DejaVuSans-6e" transform="translate(747.021484 0)"/>
     <use xlink:href="#DejaVuSans-76" transform="translate(810.400391 0)"/>
     <use xlink:href="#DejaVuSans-65" transform="translate(869.580078 0)"/>
     <use xlink:href="#DejaVuSans-72" transform="translate(931.103516 0)"/>
     <use xlink:href="#DejaVuSans-67" transform="translate(970.466797 0)"/>
     <use xlink:href="#DejaVuSans-65" transform="translate(1033.943359 0)"/>
     <use xlink:href="#DejaVuSans-6e" transform="translate(1095.466797 0)"/>
     <use xlink:href="#DejaVuSans-63" transform="translate(1158.845703 0)"/>
     <use xlink:href="#DejaVuSans-65" transform="translate(1213.826172 0)"/>
     <use xlink:href="#DejaVuSans-20" transform="translate(1275.349609 0)"/>
     <use xlink:href="#DejaVuSans-66" transform="translate(1307.136719 0)"/>
     <use xlink:href="#DejaVuSans-6f" transform="translate(1342.341797 0)"/>
     <use xlink:href="#DejaVuSans-72" transform="translate(1403.523438 0)"/>
     <use xlink:href="#DejaVuSans-20" transform="translate(1444.636719 0)"/>
     <use xlink:href="#DejaVuSans-65" transform="translate(1476.423828 0)"/>
     <use xlink:href="#DejaVuSans-62" transform="translate(1537.947266 0)"/>
     <use xlink:href="#DejaVuSans-5f" transform="translate(1601.423828 0)"/>
     <use xlink:href="#DejaVuSans-78" transform="translate(1651.423828 0)"/>
     <use xlink:href="#DejaVuSans-20" transform="translate(1710.603516 0)"/>
     <use xlink:href="#DejaVuSans-28" transform="translate(1742.390625 0)"/>
     <use xlink:href="#DejaVuSans-49" transform="translate(1781.404297 0)"/>
     <use xlink:href="#DejaVuSans-6e" transform="translate(1810.896484 0)"/>
     <use xlink:href="#DejaVuSans-64" transform="translate(1874.275391 0)"/>
     <use xlink:href="#DejaVuSans-65" transform="translate(1937.751953 0)"/>
     <use xlink:href="#DejaVuSans-78" transform="translate(1997.525391 0)"/>
     <use xlink:href="#DejaVuSans-20" transform="translate(2056.705078 0)"/>
     <use xlink:href="#DejaVuSans-36" transform="translate(2088.492188 0)"/>
     <use xlink:href="#DejaVuSans-29" transform="translate(2152.115234 0)"/>
    </g>
   </g>
   <g id="legend_1">
    <g id="patch_7">
     <path d="M 478.453125 89.19625 
L 641 89.19625 
Q 643 89.19625 643 87.19625 
L 643 58.84 
Q 643 56.84 641 56.84 
L 478.453125 56.84 
Q 476.453125 56.84 476.453125 58.84 
L 476.453125 87.19625 
Q 476.453125 89.19625 478.453125 89.19625 
z
" style="fill: #ffffff; opacity: 0.8; stroke: #cccccc; stroke-linejoin: miter"/>
    </g>
    <g id="line2d_29">
     <path d="M 480.453125 64.938437 
L 490.453125 64.938437 
L 500.453125 64.938437 
" style="fill: none; stroke: #ff0000; stroke-width: 1.5; stroke-linecap: square"/>
    </g>
    <g id="text_18">
     <!-- Baseline KF -->
     <g transform="translate(508.453125 68.438437) scale(0.1 -0.1)">
      <defs>
       <path id="DejaVuSans-42" d="M 1259 2228 
L 1259 519 
L 2272 519 
Q 2781 519 3026 730 
Q 3272 941 3272 1375 
Q 3272 1813 3026 2020 
Q 2781 2228 2272 2228 
L 1259 2228 
z
M 1259 4147 
L 1259 2741 
L 2194 2741 
Q 2656 2741 2882 2914 
Q 3109 3088 3109 3444 
Q 3109 3797 2882 3972 
Q 2656 4147 2194 4147 
L 1259 4147 
z
M 628 4666 
L 2241 4666 
Q 2963 4666 3353 4366 
Q 3744 4066 3744 3513 
Q 3744 3084 3544 2831 
Q 3344 2578 2956 2516 
Q 3422 2416 3680 2098 
Q 3938 1781 3938 1306 
Q 3938 681 3513 340 
Q 3088 0 2303 0 
L 628 0 
L 628 4666 
z
" transform="scale(0.015625)"/>
       <path id="DejaVuSans-6c" d="M 603 4863 
L 1178 4863 
L 1178 0 
L 603 0 
L 603 4863 
z
" transform="scale(0.015625)"/>
       <path id="DejaVuSans-4b" d="M 628 4666 
L 1259 4666 
L 1259 2694 
L 3353 4666 
L 4166 4666 
L 1850 2491 
L 4331 0 
L 3500 0 
L 1259 2247 
L 1259 0 
L 628 0 
L 628 4666 
z
" transform="scale(0.015625)"/>
       <path id="DejaVuSans-46" d="M 628 4666 
L 3309 4666 
L 3309 4134 
L 1259 4134 
L 1259 2759 
L 3109 2759 
L 3109 2228 
L 1259 2228 
L 1259 0 
L 628 0 
L 628 4666 
z
" transform="scale(0.015625)"/>
      </defs>
      <use xlink:href="#DejaVuSans-42"/>
      <use xlink:href="#DejaVuSans-61" transform="translate(68.603516 0)"/>
      <use xlink:href="#DejaVuSans-73" transform="translate(129.882812 0)"/>
      <use xlink:href="#DejaVuSans-65" transform="translate(181.982422 0)"/>
      <use xlink:href="#DejaVuSans-6c" transform="translate(243.505859 0)"/>
      <use xlink:href="#DejaVuSans-69" transform="translate(271.289062 0)"/>
      <use xlink:href="#DejaVuSans-6e" transform="translate(299.072266 0)"/>
      <use xlink:href="#DejaVuSans-65" transform="translate(362.451172 0)"/>
      <use xlink:href="#DejaVuSans-20" transform="translate(423.974609 0)"/>
      <use xlink:href="#DejaVuSans-4b" transform="translate(455.761719 0)"/>
      <use xlink:href="#DejaVuSans-46" transform="translate(521.337891 0)"/>
     </g>
    </g>
    <g id="line2d_30">
     <path d="M 480.453125 79.616562 
L 490.453125 79.616562 
L 500.453125 79.616562 
" style="fill: none; stroke-dasharray: 5.55,2.4; stroke-dashoffset: 0; stroke: #0000ff; stroke-width: 1.5"/>
    </g>
    <g id="text_19">
     <!-- Shadow KF (LLM Assisted) -->
     <g transform="translate(508.453125 83.116562) scale(0.1 -0.1)">
      <defs>
       <path id="DejaVuSans-68" d="M 3513 2113 
L 3513 0 
L 2938 0 
L 2938 2094 
Q 2938 2591 2744 2837 
Q 2550 3084 2163 3084 
Q 1697 3084 1428 2787 
Q 1159 2491 1159 1978 
L 1159 0 
L 581 0 
L 581 4863 
L 1159 4863 
L 1159 2956 
Q 1366 3272 1645 3428 
Q 1925 3584 2291 3584 
Q 2894 3584 3203 3211 
Q 3513 2838 3513 2113 
z
" transform="scale(0.015625)"/>
       <path id="DejaVuSans-77" d="M 269 3500 
L 844 3500 
L 1563 769 
L 2278 3500 
L 2956 3500 
L 3675 769 
L 4391 3500 
L 4966 3500 
L 4050 0 
L 3372 0 
L 2619 2869 
L 1863 0 
L 1184 0 
L 269 3500 
z
" transform="scale(0.015625)"/>
       <path id="DejaVuSans-4c" d="M 628 4666 
L 1259 4666 
L 1259 531 
L 3531 531 
L 3531 0 
L 628 0 
L 628 4666 
z
" transform="scale(0.015625)"/>
       <path id="DejaVuSans-41" d="M 2188 4044 
L 1331 1722 
L 3047 1722 
L 2188 4044 
z
M 1831 4666 
L 2547 4666 
L 4325 0 
L 3669 0 
L 3244 1197 
L 1141 1197 
L 716 0 
L 50 0 
L 1831 4666 
z
" transform="scale(0.015625)"/>
      </defs>
      <use xlink:href="#DejaVuSans-53"/>
      <use xlink:href="#DejaVuSans-68" transform="translate(63.476562 0)"/>
      <use xlink:href="#DejaVuSans-61" transform="translate(126.855469 0)"/>
      <use xlink:href="#DejaVuSans-64" transform="translate(188.134766 0)"/>
      <use xlink:href="#DejaVuSans-6f" transform="translate(251.611328 0)"/>
      <use xlink:href="#DejaVuSans-77" transform="translate(312.792969 0)"/>
      <use xlink:href="#DejaVuSans-20" transform="translate(394.580078 0)"/>
      <use xlink:href="#DejaVuSans-4b" transform="translate(426.367188 0)"/>
      <use xlink:href="#DejaVuSans-46" transform="translate(491.943359 0)"/>
      <use xlink:href="#DejaVuSans-20" transform="translate(549.462891 0)"/>
      <use xlink:href="#DejaVuSans-28" transform="translate(581.25 0)"/>
      <use xlink:href="#DejaVuSans-4c" transform="translate(620.263672 0)"/>
      <use xlink:href="#DejaVuSans-4c" transform="translate(675.976562 0)"/>
      <use xlink:href="#DejaVuSans-4d" transform="translate(731.689453 0)"/>
      <use xlink:href="#DejaVuSans-20" transform="translate(817.96875 0)"/>
      <use xlink:href="#DejaVuSans-41" transform="translate(849.755859 0)"/>
      <use xlink:href="#DejaVuSans-73" transform="translate(918.164062 0)"/>
      <use xlink:href="#DejaVuSans-73" transform="translate(970.263672 0)"/>
      <use xlink:href="#DejaVuSans-69" transform="translate(1022.363281 0)"/>
      <use xlink:href="#DejaVuSans-73" transform="translate(1050.146484 0)"/>
      <use xlink:href="#DejaVuSans-74" transform="translate(1102.246094 0)"/>
      <use xlink:href="#DejaVuSans-65" transform="translate(1141.455078 0)"/>
      <use xlink:href="#DejaVuSans-64" transform="translate(1202.978516 0)"/>
      <use xlink:href="#DejaVuSans-29" transform="translate(1266.455078 0)"/>
     </g>
    </g>
   </g>
  </g>
 </g>
 <defs>
  <clipPath id="pbd3adacc59">
   <rect x="90" y="51.84" width="558" height="332.64"/>
  </clipPath>
 </defs>
</svg>
