<?xml version="1.0" encoding="utf-8" standalone="no"?>
<!DOCTYPE svg PUBLIC "-//W3C//DTD SVG 1.1//EN"
  "http://www.w3.org/Graphics/SVG/1.1/DTD/svg11.dtd">
<svg xmlns:xlink="http://www.w3.org/1999/xlink" width="720pt" height="432pt" viewBox="0 0 720 432" xmlns="http://www.w3.org/2000/svg" version="1.1">
 <metadata>
  <rdf:RDF xmlns:dc="http://purl.org/dc/elements/1.1/" xmlns:cc="http://creativecommons.org/ns#" xmlns:rdf="http://www.w3.org/1999/02/22-rdf-syntax-ns#">
   <cc:Work>
    <dc:type rdf:resource="http://purl.org/dc/dcmitype/StillImage"/>
    <dc:date>2026-03-25T09:55:26.027512</dc:date>
    <dc:format>image/svg+xml</dc:format>
    <dc:creator>
     <cc:Agent>
      <dc:title>Matplotlib v3.10.8, https://matplotlib.org/</dc:title>
     </cc:Agent>
    </dc:creator>
   </cc:Work>
  </rdf:RDF>
 </metadata>
 <defs>
  <style type="text/css">*{stroke-linejoin: round; stroke-linecap: butt}</style>
 </defs>
 <g id="figure_1">
  <g id="patch_1">
   <path d="M 0 432 
L 720 432 
L 720 0 
L 0 0 
z
" style="fill: #ffffff"/>
  </g>
  <g id="axes_1">
   <g id="patch_2">
    <path d="M 90 384.48 
L 648 384.48 
L 648 51.84 
L 90 51.84 
z
" style="fill: #ffffff"/>
   </g>
   <g id="matplotlib.axis_1">
    <g id="xtick_1">
     <g id="line2d_1">
      <path d="M 115.363636 384.48 
L 115.363636 51.84 
" clip-path="url(#p85cdfd5646)" style="fill: none; stroke: #b0b0b0; stroke-width: 0.8; stroke-linecap: square"/>
     </g>
     <g id="line2d_2">
      <defs>
       <path id="m9637b7a091" d="M 0 0 
L 0 3.5 
" style="stroke: #000000; stroke-width: 0.8"/>
      </defs>
      <g>
       <use xlink:href="#m9637b7a091" x="115.363636" y="384.48" style="stroke: #000000; stroke-width: 0.8"/>
      </g>
     </g>
     <g id="text_1">
      <!-- 0 -->
      <g transform="translate(112.182386 399.078438) scale(0.1 -0.1)">
       <defs>
        <path id="DejaVuSans-30" d="M 2034 4250 
Q 1547 4250 1301 3770 
Q 1056 3291 1056 2328 
Q 1056 1369 1301 889 
Q 1547 409 2034 409 
Q 2525 409 2770 889 
Q 3016 1369 3016 2328 
Q 3016 3291 2770 3770 
Q 2525 4250 2034 4250 
z
M 2034 4750 
Q 2819 4750 3233 4129 
Q 3647 3509 3647 2328 
Q 3647 1150 3233 529 
Q 2819 -91 2034 -91 
Q 1250 -91 836 529 
Q 422 1150 422 2328 
Q 422 3509 836 4129 
Q 1250 4750 2034 4750 
z
" transform="scale(0.015625)"/>
       </defs>
       <use xlink:href="#DejaVuSans-30"/>
      </g>
     </g>
    </g>
    <g id="xtick_2">
     <g id="line2d_3">
      <path d="M 201.605174 384.48 
L 201.605174 51.84 
" clip-path="url(#p85cdfd5646)" style="fill: none; stroke: #b0b0b0; stroke-width: 0.8; stroke-linecap: square"/>
     </g>
     <g id="line2d_4">
      <g>
       <use xlink:href="#m9637b7a091" x="201.605174" y="384.48" style="stroke: #000000; stroke-width: 0.8"/>
      </g>
     </g>
     <g id="text_2">
      <!-- 50 -->
      <g transform="translate(195.242674 399.078438) scale(0.1 -0.1)">
       <defs>
        <path id="DejaVuSans-35" d="M 691 4666 
L 3169 4666 
L 3169 4134 
L 1269 4134 
L 1269 2991 
Q 1406 3038 1543 3061 
Q 1681 3084 1819 3084 
Q 2600 3084 3056 2656 
Q 3513 2228 3513 1497 
Q 3513 744 3044 326 
Q 2575 -91 1722 -91 
Q 1428 -91 1123 -41 
Q 819 9 494 109 
L 494 744 
Q 775 591 1075 516 
Q 1375 441 1709 441 
Q 2250 441 2565 725 
Q 2881 1009 2881 1497 
Q 2881 1984 2565 2268 
Q 2250 2553 1709 2553 
Q 1456 2553 1204 2497 
Q 953 2441 691 2322 
L 691 4666 
z
" transform="scale(0.015625)"/>
       </defs>
       <use xlink:href="#DejaVuSans-35"/>
       <use xlink:href="#DejaVuSans-30" transform="translate(63.623047 0)"/>
      </g>
     </g>
    </g>
    <g id="xtick_3">
     <g id="line2d_5">
      <path d="M 287.846713 384.48 
L 287.846713 51.84 
" clip-path="url(#p85cdfd5646)" style="fill: none; stroke: #b0b0b0; stroke-width: 0.8; stroke-linecap: square"/>
     </g>
     <g id="line2d_6">
      <g>
       <use xlink:href="#m9637b7a091" x="287.846713" y="384.48" style="stroke: #000000; stroke-width: 0.8"/>
      </g>
     </g>
     <g id="text_3">
      <!-- 100 -->
      <g transform="translate(278.302963 399.078438) scale(0.1 -0.1)">
       <defs>
        <path id="DejaVuSans-31" d="M 794 531 
L 1825 531 
L 1825 4091 
L 703 3866 
L 703 4441 
L 1819 4666 
L 2450 4666 
L 2450 531 
L 3481 531 
L 3481 0 
L 794 0 
L 794 531 
z
" transform="scale(0.015625)"/>
       </defs>
       <use xlink:href="#DejaVuSans-31"/>
       <use xlink:href="#DejaVuSans-30" transform="translate(63.623047 0)"/>
       <use xlink:href="#DejaVuSans-30" transform="translate(127.246094 0)"/>
      </g>
     </g>
    </g>
    <g id="xtick_4">
     <g id="line2d_7">
      <path d="M 374.088251 384.48 
L 374.088251 51.84 
" clip-path="url(#p85cdfd5646)" style="fill: none; stroke: #b0b0b0; stroke-width: 0.8; stroke-linecap: square"/>
     </g>
     <g id="line2d_8">
      <g>
       <use xlink:href="#m9637b7a091" x="374.088251" y="384.48" style="stroke: #000000; stroke-width: 0.8"/>
      </g>
     </g>
     <g id="text_4">
      <!-- 150 -->
      <g transform="translate(364.544501 399.078438) scale(0.1 -0.1)">
       <use xlink:href="#DejaVuSans-31"/>
       <use xlink:href="#DejaVuSans-35" transform="translate(63.623047 0)"/>
       <use xlink:href="#DejaVuSans-30" transform="translate(127.246094 0)"/>
      </g>
     </g>
    </g>
    <g id="xtick_5">
     <g id="line2d_9">
      <path d="M 460.329789 384.48 
L 460.329789 51.84 
" clip-path="url(#p85cdfd5646)" style="fill: none; stroke: #b0b0b0; stroke-width: 0.8; stroke-linecap: square"/>
     </g>
     <g id="line2d_10">
      <g>
       <use xlink:href="#m9637b7a091" x="460.329789" y="384.48" style="stroke: #000000; stroke-width: 0.8"/>
      </g>
     </g>
     <g id="text_5">
      <!-- 200 -->
      <g transform="translate(450.786039 399.078438) scale(0.1 -0.1)">
       <defs>
        <path id="DejaVuSans-32" d="M 1228 531 
L 3431 531 
L 3431 0 
L 469 0 
L 469 531 
Q 828 903 1448 1529 
Q 2069 2156 2228 2338 
Q 2531 2678 2651 2914 
Q 2772 3150 2772 3378 
Q 2772 3750 2511 3984 
Q 2250 4219 1831 4219 
Q 1534 4219 1204 4116 
Q 875 4013 500 3803 
L 500 4441 
Q 881 4594 1212 4672 
Q 1544 4750 1819 4750 
Q 2544 4750 2975 4387 
Q 3406 4025 3406 3419 
Q 3406 3131 3298 2873 
Q 3191 2616 2906 2266 
Q 2828 2175 2409 1742 
Q 1991 1309 1228 531 
z
" transform="scale(0.015625)"/>
       </defs>
       <use xlink:href="#DejaVuSans-32"/>
       <use xlink:href="#DejaVuSans-30" transform="translate(63.623047 0)"/>
       <use xlink:href="#DejaVuSans-30" transform="translate(127.246094 0)"/>
      </g>
     </g>
    </g>
    <g id="xtick_6">
     <g id="line2d_11">
      <path d="M 546.571327 384.48 
L 546.571327 51.84 
" clip-path="url(#p85cdfd5646)" style="fill: none; stroke: #b0b0b0; stroke-width: 0.8; stroke-linecap: square"/>
     </g>
     <g id="line2d_12">
      <g>
       <use xlink:href="#m9637b7a091" x="546.571327" y="384.48" style="stroke: #000000; stroke-width: 0.8"/>
      </g>
     </g>
     <g id="text_6">
      <!-- 250 -->
      <g transform="translate(537.027577 399.078438) scale(0.1 -0.1)">
       <use xlink:href="#DejaVuSans-32"/>
       <use xlink:href="#DejaVuSans-35" transform="translate(63.623047 0)"/>
       <use xlink:href="#DejaVuSans-30" transform="translate(127.246094 0)"/>
      </g>
     </g>
    </g>
    <g id="xtick_7">
     <g id="line2d_13">
      <path d="M 632.812865 384.48 
L 632.812865 51.84 
" clip-path="url(#p85cdfd5646)" style="fill: none; stroke: #b0b0b0; stroke-width: 0.8; stroke-linecap: square"/>
     </g>
     <g id="line2d_14">
      <g>
       <use xlink:href="#m9637b7a091" x="632.812865" y="384.48" style="stroke: #000000; stroke-width: 0.8"/>
      </g>
     </g>
     <g id="text_7">
      <!-- 300 -->
      <g transform="translate(623.269115 399.078438) scale(0.1 -0.1)">
       <defs>
        <path id="DejaVuSans-33" d="M 2597 2516 
Q 3050 2419 3304 2112 
Q 3559 1806 3559 1356 
Q 3559 666 3084 287 
Q 2609 -91 1734 -91 
Q 1441 -91 1130 -33 
Q 819 25 488 141 
L 488 750 
Q 750 597 1062 519 
Q 1375 441 1716 441 
Q 2309 441 2620 675 
Q 2931 909 2931 1356 
Q 2931 1769 2642 2001 
Q 2353 2234 1838 2234 
L 1294 2234 
L 1294 2753 
L 1863 2753 
Q 2328 2753 2575 2939 
Q 2822 3125 2822 3475 
Q 2822 3834 2567 4026 
Q 2313 4219 1838 4219 
Q 1578 4219 1281 4162 
Q 984 4106 628 3988 
L 628 4550 
Q 988 4650 1302 4700 
Q 1616 4750 1894 4750 
Q 2613 4750 3031 4423 
Q 3450 4097 3450 3541 
Q 3450 3153 3228 2886 
Q 3006 2619 2597 2516 
z
" transform="scale(0.015625)"/>
       </defs>
       <use xlink:href="#DejaVuSans-33"/>
       <use xlink:href="#DejaVuSans-30" transform="translate(63.623047 0)"/>
       <use xlink:href="#DejaVuSans-30" transform="translate(127.246094 0)"/>
      </g>
     </g>
    </g>
    <g id="text_8">
     <!-- Maneuver Time (s) -->
     <g transform="translate(322.198438 412.756563) scale(0.1 -0.1)">
      <defs>
       <path id="DejaVuSans-4d" d="M 628 4666 
L 1569 4666 
L 2759 1491 
L 3956 4666 
L 4897 4666 
L 4897 0 
L 4281 0 
L 4281 4097 
L 3078 897 
L 2444 897 
L 1241 4097 
L 1241 0 
L 628 0 
L 628 4666 
z
" transform="scale(0.015625)"/>
       <path id="DejaVuSans-61" d="M 2194 1759 
Q 1497 1759 1228 1600 
Q 959 1441 959 1056 
Q 959 750 1161 570 
Q 1363 391 1709 391 
Q 2188 391 2477 730 
Q 2766 1069 2766 1631 
L 2766 1759 
L 2194 1759 
z
M 3341 1997 
L 3341 0 
L 2766 0 
L 2766 531 
Q 2569 213 2275 61 
Q 1981 -91 1556 -91 
Q 1019 -91 701 211 
Q 384 513 384 1019 
Q 384 1609 779 1909 
Q 1175 2209 1959 2209 
L 2766 2209 
L 2766 2266 
Q 2766 2663 2505 2880 
Q 2244 3097 1772 3097 
Q 1472 3097 1187 3025 
Q 903 2953 641 2809 
L 641 3341 
Q 956 3463 1253 3523 
Q 1550 3584 1831 3584 
Q 2591 3584 2966 3190 
Q 3341 2797 3341 1997 
z
" transform="scale(0.015625)"/>
       <path id="DejaVuSans-6e" d="M 3513 2113 
L 3513 0 
L 2938 0 
L 2938 2094 
Q 2938 2591 2744 2837 
Q 2550 3084 2163 3084 
Q 1697 3084 1428 2787 
Q 1159 2491 1159 1978 
L 1159 0 
L 581 0 
L 581 3500 
L 1159 3500 
L 1159 2956 
Q 1366 3272 1645 3428 
Q 1925 3584 2291 3584 
Q 2894 3584 3203 3211 
Q 3513 2838 3513 2113 
z
" transform="scale(0.015625)"/>
       <path id="DejaVuSans-65" d="M 3597 1894 
L 3597 1613 
L 953 1613 
Q 991 1019 1311 708 
Q 1631 397 2203 397 
Q 2534 397 2845 478 
Q 3156 559 3463 722 
L 3463 178 
Q 3153 47 2828 -22 
Q 2503 -91 2169 -91 
Q 1331 -91 842 396 
Q 353 884 353 1716 
Q 353 2575 817 3079 
Q 1281 3584 2069 3584 
Q 2775 3584 3186 3129 
Q 3597 2675 3597 1894 
z
M 3022 2063 
Q 3016 2534 2758 2815 
Q 2500 3097 2075 3097 
Q 1594 3097 1305 2825 
Q 1016 2553 972 2059 
L 3022 2063 
z
" transform="scale(0.015625)"/>
       <path id="DejaVuSans-75" d="M 544 1381 
L 544 3500 
L 1119 3500 
L 1119 1403 
Q 1119 906 1312 657 
Q 1506 409 1894 409 
Q 2359 409 2629 706 
Q 2900 1003 2900 1516 
L 2900 3500 
L 3475 3500 
L 3475 0 
L 2900 0 
L 2900 538 
Q 2691 219 2414 64 
Q 2138 -91 1772 -91 
Q 1169 -91 856 284 
Q 544 659 544 1381 
z
M 1991 3584 
L 1991 3584 
z
" transform="scale(0.015625)"/>
       <path id="DejaVuSans-76" d="M 191 3500 
L 800 3500 
L 1894 563 
L 2988 3500 
L 3597 3500 
L 2284 0 
L 1503 0 
L 191 3500 
z
" transform="scale(0.015625)"/>
       <path id="DejaVuSans-72" d="M 2631 2963 
Q 2534 3019 2420 3045 
Q 2306 3072 2169 3072 
Q 1681 3072 1420 2755 
Q 1159 2438 1159 1844 
L 1159 0 
L 581 0 
L 581 3500 
L 1159 3500 
L 1159 2956 
Q 1341 3275 1631 3429 
Q 1922 3584 2338 3584 
Q 2397 3584 2469 3576 
Q 2541 3569 2628 3553 
L 2631 2963 
z
" transform="scale(0.015625)"/>
       <path id="DejaVuSans-20" transform="scale(0.015625)"/>
       <path id="DejaVuSans-54" d="M -19 4666 
L 3928 4666 
L 3928 4134 
L 2272 4134 
L 2272 0 
L 1638 0 
L 1638 4134 
L -19 4134 
L -19 4666 
z
" transform="scale(0.015625)"/>
       <path id="DejaVuSans-69" d="M 603 3500 
L 1178 3500 
L 1178 0 
L 603 0 
L 603 3500 
z
M 603 4863 
L 1178 4863 
L 1178 4134 
L 603 4134 
L 603 4863 
z
" transform="scale(0.015625)"/>
       <path id="DejaVuSans-6d" d="M 3328 2828 
Q 3544 3216 3844 3400 
Q 4144 3584 4550 3584 
Q 5097 3584 5394 3201 
Q 5691 2819 5691 2113 
L 5691 0 
L 5113 0 
L 5113 2094 
Q 5113 2597 4934 2840 
Q 4756 3084 4391 3084 
Q 3944 3084 3684 2787 
Q 3425 2491 3425 1978 
L 3425 0 
L 2847 0 
L 2847 2094 
Q 2847 2600 2669 2842 
Q 2491 3084 2119 3084 
Q 1678 3084 1418 2786 
Q 1159 2488 1159 1978 
L 1159 0 
L 581 0 
L 581 3500 
L 1159 3500 
L 1159 2956 
Q 1356 3278 1631 3431 
Q 1906 3584 2284 3584 
Q 2666 3584 2933 3390 
Q 3200 3197 3328 2828 
z
" transform="scale(0.015625)"/>
       <path id="DejaVuSans-28" d="M 1984 4856 
Q 1566 4138 1362 3434 
Q 1159 2731 1159 2009 
Q 1159 1288 1364 580 
Q 1569 -128 1984 -844 
L 1484 -844 
Q 1016 -109 783 600 
Q 550 1309 550 2009 
Q 550 2706 781 3412 
Q 1013 4119 1484 4856 
L 1984 4856 
z
" transform="scale(0.015625)"/>
       <path id="DejaVuSans-73" d="M 2834 3397 
L 2834 2853 
Q 2591 2978 2328 3040 
Q 2066 3103 1784 3103 
Q 1356 3103 1142 2972 
Q 928 2841 928 2578 
Q 928 2378 1081 2264 
Q 1234 2150 1697 2047 
L 1894 2003 
Q 2506 1872 2764 1633 
Q 3022 1394 3022 966 
Q 3022 478 2636 193 
Q 2250 -91 1575 -91 
Q 1294 -91 989 -36 
Q 684 19 347 128 
L 347 722 
Q 666 556 975 473 
Q 1284 391 1588 391 
Q 1994 391 2212 530 
Q 2431 669 2431 922 
Q 2431 1156 2273 1281 
Q 2116 1406 1581 1522 
L 1381 1569 
Q 847 1681 609 1914 
Q 372 2147 372 2553 
Q 372 3047 722 3315 
Q 1072 3584 1716 3584 
Q 2034 3584 2315 3537 
Q 2597 3491 2834 3397 
z
" transform="scale(0.015625)"/>
       <path id="DejaVuSans-29" d="M 513 4856 
L 1013 4856 
Q 1481 4119 1714 3412 
Q 1947 2706 1947 2009 
Q 1947 1309 1714 600 
Q 1481 -109 1013 -844 
L 513 -844 
Q 928 -128 1133 580 
Q 1338 1288 1338 2009 
Q 1338 2731 1133 3434 
Q 928 4138 513 4856 
z
" transform="scale(0.015625)"/>
      </defs>
      <use xlink:href="#DejaVuSans-4d"/>
      <use xlink:href="#DejaVuSans-61" transform="translate(86.279297 0)"/>
      <use xlink:href="#DejaVuSans-6e" transform="translate(147.558594 0)"/>
      <use xlink:href="#DejaVuSans-65" transform="translate(210.9375 0)"/>
      <use xlink:href="#DejaVuSans-75" transform="translate(272.460938 0)"/>
      <use xlink:href="#DejaVuSans-76" transform="translate(335.839844 0)"/>
      <use xlink:href="#DejaVuSans-65" transform="translate(395.019531 0)"/>
      <use xlink:href="#DejaVuSans-72" transform="translate(456.542969 0)"/>
      <use xlink:href="#DejaVuSans-20" transform="translate(497.65625 0)"/>
      <use xlink:href="#DejaVuSans-54" transform="translate(529.443359 0)"/>
      <use xlink:href="#DejaVuSans-69" transform="translate(587.402344 0)"/>
      <use xlink:href="#DejaVuSans-6d" transform="translate(615.185547 0)"/>
      <use xlink:href="#DejaVuSans-65" transform="translate(712.597656 0)"/>
      <use xlink:href="#DejaVuSans-20" transform="translate(774.121094 0)"/>
      <use xlink:href="#DejaVuSans-28" transform="translate(805.908203 0)"/>
      <use xlink:href="#DejaVuSans-73" transform="translate(844.921875 0)"/>
      <use xlink:href="#DejaVuSans-29" transform="translate(897.021484 0)"/>
     </g>
    </g>
   </g>
   <g id="matplotlib.axis_2">
    <g id="ytick_1">
     <g id="line2d_15">
      <path d="M 90 382.265961 
L 648 382.265961 
" clip-path="url(#p85cdfd5646)" style="fill: none; stroke: #b0b0b0; stroke-width: 0.8; stroke-linecap: square"/>
     </g>
     <g id="line2d_16">
      <defs>
       <path id="m387f2d4fc9" d="M 0 0 
L -3.5 0 
" style="stroke: #000000; stroke-width: 0.8"/>
      </defs>
      <g>
       <use xlink:href="#m387f2d4fc9" x="90" y="382.265961" style="stroke: #000000; stroke-width: 0.8"/>
      </g>
     </g>
     <g id="text_9">
      <!-- 0.0000 -->
      <g transform="translate(48.009375 386.065179) scale(0.1 -0.1)">
       <defs>
        <path id="DejaVuSans-2e" d="M 684 794 
L 1344 794 
L 1344 0 
L 684 0 
L 684 794 
z
" transform="scale(0.015625)"/>
       </defs>
       <use xlink:href="#DejaVuSans-30"/>
       <use xlink:href="#DejaVuSans-2e" transform="translate(63.623047 0)"/>
       <use xlink:href="#DejaVuSans-30" transform="translate(95.410156 0)"/>
       <use xlink:href="#DejaVuSans-30" transform="translate(159.033203 0)"/>
       <use xlink:href="#DejaVuSans-30" transform="translate(222.65625 0)"/>
       <use xlink:href="#DejaVuSans-30" transform="translate(286.279297 0)"/>
      </g>
     </g>
    </g>
    <g id="ytick_2">
     <g id="line2d_17">
      <path d="M 90 317.229438 
L 648 317.229438 
" clip-path="url(#p85cdfd5646)" style="fill: none; stroke: #b0b0b0; stroke-width: 0.8; stroke-linecap: square"/>
     </g>
     <g id="line2d_18">
      <g>
       <use xlink:href="#m387f2d4fc9" x="90" y="317.229438" style="stroke: #000000; stroke-width: 0.8"/>
      </g>
     </g>
     <g id="text_10">
      <!-- 0.0001 -->
      <g transform="translate(48.009375 321.028657) scale(0.1 -0.1)">
       <use xlink:href="#DejaVuSans-30"/>
       <use xlink:href="#DejaVuSans-2e" transform="translate(63.623047 0)"/>
       <use xlink:href="#DejaVuSans-30" transform="translate(95.410156 0)"/>
       <use xlink:href="#DejaVuSans-30" transform="translate(159.033203 0)"/>
       <use xlink:href="#DejaVuSans-30" transform="translate(222.65625 0)"/>
       <use xlink:href="#DejaVuSans-31" transform="translate(286.279297 0)"/>
      </g>
     </g>
    </g>
    <g id="ytick_3">
     <g id="line2d_19">
      <path d="M 90 252.192915 
L 648 252.192915 
" clip-path="url(#p85cdfd5646)" style="fill: none; stroke: #b0b0b0; stroke-width: 0.8; stroke-linecap: square"/>
     </g>
     <g id="line2d_20">
      <g>
       <use xlink:href="#m387f2d4fc9" x="90" y="252.192915" style="stroke: #000000; stroke-width: 0.8"/>
      </g>
     </g>
     <g id="text_11">
      <!-- 0.0002 -->
      <g transform="translate(48.009375 255.992134) scale(0.1 -0.1)">
       <use xlink:href="#DejaVuSans-30"/>
       <use xlink:href="#DejaVuSans-2e" transform="translate(63.623047 0)"/>
       <use xlink:href="#DejaVuSans-30" transform="translate(95.410156 0)"/>
       <use xlink:href="#DejaVuSans-30" transform="translate(159.033203 0)"/>
       <use xlink:href="#DejaVuSans-30" transform="translate(222.65625 0)"/>
       <use xlink:href="#DejaVuSans-32" transform="translate(286.279297 0)"/>
      </g>
     </g>
    </g>
    <g id="ytick_4">
     <g id="line2d_21">
      <path d="M 90 187.156392 
L 648 187.156392 
" clip-path="url(#p85cdfd5646)" style="fill: none; stroke: #b0b0b0; stroke-width: 0.8; stroke-linecap: square"/>
     </g>
     <g id="line2d_22">
      <g>
       <use xlink:href="#m387f2d4fc9" x="90" y="187.156392" style="stroke: #000000; stroke-width: 0.8"/>
      </g>
     </g>
     <g id="text_12">
      <!-- 0.0003 -->
      <g transform="translate(48.009375 190.955611) scale(0.1 -0.1)">
       <use xlink:href="#DejaVuSans-30"/>
       <use xlink:href="#DejaVuSans-2e" transform="translate(63.623047 0)"/>
       <use xlink:href="#DejaVuSans-30" transform="translate(95.410156 0)"/>
       <use xlink:href="#DejaVuSans-30" transform="translate(159.033203 0)"/>
       <use xlink:href="#DejaVuSans-30" transform="translate(222.65625 0)"/>
       <use xlink:href="#DejaVuSans-33" transform="translate(286.279297 0)"/>
      </g>
     </g>
    </g>
    <g id="ytick_5">
     <g id="line2d_23">
      <path d="M 90 122.119869 
L 648 122.119869 
" clip-path="url(#p85cdfd5646)" style="fill: none; stroke: #b0b0b0; stroke-width: 0.8; stroke-linecap: square"/>
     </g>
     <g id="line2d_24">
      <g>
       <use xlink:href="#m387f2d4fc9" x="90" y="122.119869" style="stroke: #000000; stroke-width: 0.8"/>
      </g>
     </g>
     <g id="text_13">
      <!-- 0.0004 -->
      <g transform="translate(48.009375 125.919088) scale(0.1 -0.1)">
       <defs>
        <path id="DejaVuSans-34" d="M 2419 4116 
L 825 1625 
L 2419 1625 
L 2419 4116 
z
M 2253 4666 
L 3047 4666 
L 3047 1625 
L 3713 1625 
L 3713 1100 
L 3047 1100 
L 3047 0 
L 2419 0 
L 2419 1100 
L 313 1100 
L 313 1709 
L 2253 4666 
z
" transform="scale(0.015625)"/>
       </defs>
       <use xlink:href="#DejaVuSans-30"/>
       <use xlink:href="#DejaVuSans-2e" transform="translate(63.623047 0)"/>
       <use xlink:href="#DejaVuSans-30" transform="translate(95.410156 0)"/>
       <use xlink:href="#DejaVuSans-30" transform="translate(159.033203 0)"/>
       <use xlink:href="#DejaVuSans-30" transform="translate(222.65625 0)"/>
       <use xlink:href="#DejaVuSans-34" transform="translate(286.279297 0)"/>
      </g>
     </g>
    </g>
    <g id="ytick_6">
     <g id="line2d_25">
      <path d="M 90 57.083346 
L 648 57.083346 
" clip-path="url(#p85cdfd5646)" style="fill: none; stroke: #b0b0b0; stroke-width: 0.8; stroke-linecap: square"/>
     </g>
     <g id="line2d_26">
      <g>
       <use xlink:href="#m387f2d4fc9" x="90" y="57.083346" style="stroke: #000000; stroke-width: 0.8"/>
      </g>
     </g>
     <g id="text_14">
      <!-- 0.0005 -->
      <g transform="translate(48.009375 60.882565) scale(0.1 -0.1)">
       <use xlink:href="#DejaVuSans-30"/>
       <use xlink:href="#DejaVuSans-2e" transform="translate(63.623047 0)"/>
       <use xlink:href="#DejaVuSans-30" transform="translate(95.410156 0)"/>
       <use xlink:href="#DejaVuSans-30" transform="translate(159.033203 0)"/>
       <use xlink:href="#DejaVuSans-30" transform="translate(222.65625 0)"/>
       <use xlink:href="#DejaVuSans-35" transform="translate(286.279297 0)"/>
      </g>
     </g>
    </g>
    <g id="text_15">
     <!-- Standard Deviation -->
     <g transform="translate(41.929687 266.413125) rotate(-90) scale(0.1 -0.1)">
      <defs>
       <path id="DejaVuSans-53" d="M 3425 4513 
L 3425 3897 
Q 3066 4069 2747 4153 
Q 2428 4238 2131 4238 
Q 1616 4238 1336 4038 
Q 1056 3838 1056 3469 
Q 1056 3159 1242 3001 
Q 1428 2844 1947 2747 
L 2328 2669 
Q 3034 2534 3370 2195 
Q 3706 1856 3706 1288 
Q 3706 609 3251 259 
Q 2797 -91 1919 -91 
Q 1588 -91 1214 -16 
Q 841 59 441 206 
L 441 856 
Q 825 641 1194 531 
Q 1563 422 1919 422 
Q 2459 422 2753 634 
Q 3047 847 3047 1241 
Q 3047 1584 2836 1778 
Q 2625 1972 2144 2069 
L 1759 2144 
Q 1053 2284 737 2584 
Q 422 2884 422 3419 
Q 422 4038 858 4394 
Q 1294 4750 2059 4750 
Q 2388 4750 2728 4690 
Q 3069 4631 3425 4513 
z
" transform="scale(0.015625)"/>
       <path id="DejaVuSans-74" d="M 1172 4494 
L 1172 3500 
L 2356 3500 
L 2356 3053 
L 1172 3053 
L 1172 1153 
Q 1172 725 1289 603 
Q 1406 481 1766 481 
L 2356 481 
L 2356 0 
L 1766 0 
Q 1100 0 847 248 
Q 594 497 594 1153 
L 594 3053 
L 172 3053 
L 172 3500 
L 594 3500 
L 594 4494 
L 1172 4494 
z
" transform="scale(0.015625)"/>
       <path id="DejaVuSans-64" d="M 2906 2969 
L 2906 4863 
L 3481 4863 
L 3481 0 
L 2906 0 
L 2906 525 
Q 2725 213 2448 61 
Q 2172 -91 1784 -91 
Q 1150 -91 751 415 
Q 353 922 353 1747 
Q 353 2572 751 3078 
Q 1150 3584 1784 3584 
Q 2172 3584 2448 3432 
Q 2725 3281 2906 2969 
z
M 947 1747 
Q 947 1113 1208 752 
Q 1469 391 1925 391 
Q 2381 391 2643 752 
Q 2906 1113 2906 1747 
Q 2906 2381 2643 2742 
Q 2381 3103 1925 3103 
Q 1469 3103 1208 2742 
Q 947 2381 947 1747 
z
" transform="scale(0.015625)"/>
       <path id="DejaVuSans-44" d="M 1259 4147 
L 1259 519 
L 2022 519 
Q 2988 519 3436 956 
Q 3884 1394 3884 2338 
Q 3884 3275 3436 3711 
Q 2988 4147 2022 4147 
L 1259 4147 
z
M 628 4666 
L 1925 4666 
Q 3281 4666 3915 4102 
Q 4550 3538 4550 2338 
Q 4550 1131 3912 565 
Q 3275 0 1925 0 
L 628 0 
L 628 4666 
z
" transform="scale(0.015625)"/>
       <path id="DejaVuSans-6f" d="M 1959 3097 
Q 1497 3097 1228 2736 
Q 959 2375 959 1747 
Q 959 1119 1226 758 
Q 1494 397 1959 397 
Q 2419 397 2687 759 
Q 2956 1122 2956 1747 
Q 2956 2369 2687 2733 
Q 2419 3097 1959 3097 
z
M 1959 3584 
Q 2709 3584 3137 3096 
Q 3566 2609 3566 1747 
Q 3566 888 3137 398 
Q 2709 -91 1959 -91 
Q 1206 -91 779 398 
Q 353 888 353 1747 
Q 353 2609 779 3096 
Q 1206 3584 1959 3584 
z
" transform="scale(0.015625)"/>
      </defs>
      <use xlink:href="#DejaVuSans-53"/>
      <use xlink:href="#DejaVuSans-74" transform="translate(63.476562 0)"/>
      <use xlink:href="#DejaVuSans-61" transform="translate(102.685547 0)"/>
      <use xlink:href="#DejaVuSans-6e" transform="translate(163.964844 0)"/>
      <use xlink:href="#DejaVuSans-64" transform="translate(227.34375 0)"/>
      <use xlink:href="#DejaVuSans-61" transform="translate(290.820312 0)"/>
      <use xlink:href="#DejaVuSans-72" transform="translate(352.099609 0)"/>
      <use xlink:href="#DejaVuSans-64" transform="translate(391.462891 0)"/>
      <use xlink:href="#DejaVuSans-20" transform="translate(454.939453 0)"/>
      <use xlink:href="#DejaVuSans-44" transform="translate(486.726562 0)"/>
      <use xlink:href="#DejaVuSans-65" transform="translate(563.728516 0)"/>
      <use xlink:href="#DejaVuSans-76" transform="translate(625.251953 0)"/>
      <use xlink:href="#DejaVuSans-69" transform="translate(684.431641 0)"/>
      <use xlink:href="#DejaVuSans-61" transform="translate(712.214844 0)"/>
      <use xlink:href="#DejaVuSans-74" transform="translate(773.494141 0)"/>
      <use xlink:href="#DejaVuSans-69" transform="translate(812.703125 0)"/>
      <use xlink:href="#DejaVuSans-6f" transform="translate(840.486328 0)"/>
      <use xlink:href="#DejaVuSans-6e" transform="translate(901.667969 0)"/>
     </g>
    </g>
   </g>
   <g id="line2d_27">
    <path d="M 115.363636 66.96 
L 128.88631 66.96 
L 129.058793 128.961051 
L 129.265772 146.957522 
L 129.507249 151.421736 
L 129.817718 153.327032 
L 130.197181 154.30618 
L 130.645637 154.871491 
L 131.232079 155.255812 
L 132.094495 155.538461 
L 133.508856 155.739983 
L 136.337578 155.87553 
L 145.962134 156.055474 
L 146.100121 162.191715 
L 146.652066 162.395513 
L 147.859448 162.484955 
L 152.826961 162.530021 
L 155.000247 162.640659 
L 158.277426 162.706852 
L 171.593119 162.953331 
L 173.11097 163.125934 
L 176.733115 163.246208 
L 187.496059 163.333244 
L 188.220488 163.333244 
L 188.599951 252.38765 
L 188.841427 258.057828 
L 189.151896 260.408714 
L 189.531359 261.60801 
L 189.979815 262.302536 
L 190.566258 262.781075 
L 191.35968 263.123302 
L 192.567061 263.383643 
L 194.636858 263.574596 
L 196.672159 263.587458 
L 196.810145 265.095465 
L 197.017125 265.239604 
L 197.87954 265.291418 
L 205.123829 265.385325 
L 205.261816 273.376295 
L 205.606782 274.091912 
L 205.986245 274.333058 
L 206.74517 274.494359 
L 208.642484 274.605631 
L 213.5755 274.661879 
L 213.713486 281.259603 
L 214.265432 281.643689 
L 215.127848 281.849857 
L 217.163148 282.063712 
L 220.888782 282.221334 
L 222.027171 282.221334 
L 222.165157 282.490985 
L 230.478841 282.516479 
L 230.616828 282.629792 
L 238.930512 282.661514 
L 239.068499 283.107735 
L 247.382183 283.210591 
L 247.520169 347.891281 
L 247.934129 352.682722 
L 248.313592 354.450772 
L 248.762048 355.494934 
L 249.313993 356.197424 
L 250.003926 356.697573 
L 250.935334 357.082709 
L 252.315199 357.391091 
L 254.281506 357.591144 
L 255.833854 357.591144 
L 255.97184 364.618088 
L 256.420296 365.969464 
L 256.834256 366.472457 
L 257.420698 366.810125 
L 258.352107 367.056557 
L 260.042441 367.236835 
L 263.285123 367.329887 
L 264.320021 367.43608 
L 268.252635 367.892872 
L 272.737195 367.932321 
L 272.875182 368.274527 
L 274.22055 368.778178 
L 275.703904 368.989146 
L 278.429137 369.121014 
L 284.431548 369.344218 
L 284.569534 66.96 
L 297.988718 66.96 
L 298.161201 129.001521 
L 298.36818 147.084244 
L 298.609657 151.576642 
L 298.920126 153.495316 
L 299.299589 154.4821 
L 299.748045 155.052409 
L 300.334487 155.440654 
L 301.196903 155.726553 
L 302.576767 155.926581 
L 305.267503 156.05428 
L 315.064542 156.202481 
L 315.202529 162.203902 
L 315.719978 162.411462 
L 316.823869 162.507158 
L 321.10145 162.558282 
L 324.620104 162.681247 
L 330.794999 162.75503 
L 336.969893 162.866118 
L 340.799017 162.97811 
L 342.282371 163.140052 
L 345.973509 163.260864 
L 356.805447 163.347118 
L 357.322896 163.347118 
L 357.702359 252.439075 
L 357.943835 258.108731 
L 358.254304 260.459047 
L 358.633767 261.657834 
L 359.082223 262.351881 
L 359.668666 262.829897 
L 360.462088 263.171542 
L 361.669469 263.431243 
L 363.739266 263.621857 
L 365.774566 263.634746 
L 365.912553 265.16121 
L 366.119533 265.306996 
L 366.981948 265.359276 
L 374.226237 265.449822 
L 374.364224 273.421848 
L 374.70919 274.13958 
L 375.088653 274.380579 
L 375.847578 274.540567 
L 377.744892 274.647954 
L 382.677908 274.6973 
L 382.815894 281.295332 
L 383.36784 281.686575 
L 384.230256 281.892495 
L 386.231059 282.098342 
L 389.99119 282.251388 
L 391.129579 282.251388 
L 391.267565 282.528196 
L 408.03292 282.698132 
L 408.170907 283.13789 
L 416.484591 283.23547 
L 416.622577 347.915198 
L 417.036537 352.710671 
L 417.416 354.480836 
L 417.864456 355.526615 
L 418.416401 356.230528 
L 419.106334 356.732027 
L 420.037742 357.118573 
L 421.417607 357.428471 
L 423.349417 357.629619 
L 424.936262 357.629619 
L 425.074248 364.629562 
L 425.522704 365.980337 
L 425.936663 366.482675 
L 426.523106 366.819404 
L 427.454515 367.064458 
L 429.144849 367.242585 
L 432.387531 367.333189 
L 433.422429 367.440812 
L 437.320547 367.904587 
L 441.839603 367.94612 
L 441.97759 368.289351 
L 443.322958 368.792627 
L 444.806312 369.003438 
L 447.531545 369.135081 
L 453.533956 369.357447 
L 453.568452 253.194364 
L 453.671942 253.327695 
L 453.913418 253.523184 
L 454.534358 253.599398 
L 457.880529 253.639152 
L 467.091125 253.650726 
L 467.263609 258.886243 
L 467.574078 263.74721 
L 467.919044 265.807368 
L 468.298507 266.857483 
L 468.746963 267.487181 
L 469.298909 267.867442 
L 470.023338 268.072512 
L 471.265216 268.147578 
L 474.714877 268.301629 
L 483.132052 268.915654 
L 484.16695 268.915654 
L 484.304936 278.026824 
L 484.787889 279.35671 
L 485.236345 279.847125 
L 485.857284 280.178039 
L 486.892183 280.447769 
L 488.755 280.673348 
L 491.652716 280.798814 
L 492.618621 280.798814 
L 492.756607 288.001094 
L 493.205063 289.188795 
L 493.619023 289.564543 
L 494.274458 289.821205 
L 495.447343 290.003308 
L 498.034589 290.131537 
L 501.070291 290.165604 
L 501.208278 290.810503 
L 503.830021 290.988333 
L 509.590955 291.26254 
L 512.626658 291.564791 
L 517.628667 291.643219 
L 517.973633 291.643219 
L 518.111619 292.27014 
L 522.28571 292.395857 
L 526.425304 292.423084 
L 526.597787 302.117502 
L 526.839263 308.854315 
L 527.115236 310.814319 
L 527.460202 311.699073 
L 527.874162 312.171415 
L 528.460604 312.491048 
L 529.392013 312.717143 
L 531.082347 312.863179 
L 534.704491 312.910523 
L 534.876974 312.910523 
L 535.014961 313.178052 
L 535.359927 313.341597 
L 536.360329 313.416251 
L 541.810794 313.477704 
L 543.432135 313.576426 
L 544.570523 314.222931 
L 545.881395 314.363607 
L 549.434546 314.458004 
L 551.780316 314.464474 
L 551.918302 315.361171 
L 552.780718 315.613347 
L 554.712528 315.833403 
L 558.645142 316.040097 
L 560.231987 316.040097 
L 560.369973 316.274515 
L 577.135328 316.525054 
L 577.273315 316.916705 
L 585.586999 317.010891 
L 585.724985 347.947075 
L 586.173441 352.692234 
L 586.552904 354.332194 
L 587.00136 355.339646 
L 587.553306 356.034573 
L 588.243238 356.537924 
L 589.174647 356.930295 
L 590.520015 357.241295 
L 592.451825 357.450015 
L 594.03867 357.450015 
L 594.176656 364.653685 
L 594.625112 366.008823 
L 595.039071 366.509106 
L 595.625514 366.843671 
L 596.556923 367.087119 
L 598.247257 367.264712 
L 601.489938 367.356021 
L 602.524837 367.462274 
L 606.388458 367.902815 
L 610.942011 367.9413 
L 611.079998 368.29577 
L 612.390869 368.794652 
L 613.839727 369.006683 
L 616.495966 369.140226 
L 622.636364 369.36 
L 622.636364 369.36 
" clip-path="url(#p85cdfd5646)" style="fill: none; stroke: #ff0000; stroke-width: 1.5; stroke-linecap: square"/>
   </g>
   <g id="line2d_28">
    <path d="M 115.363636 66.96 
L 128.88631 66.96 
L 129.058793 127.817076 
L 129.265772 143.37121 
L 129.507249 146.395057 
L 129.748725 146.987136 
L 130.024698 147.052769 
L 130.404161 147.163512 
L 130.749127 147.539679 
L 131.611542 148.975683 
L 132.473958 150.173211 
L 133.336373 150.98778 
L 134.336775 151.619584 
L 135.61315 152.150071 
L 137.33798 152.609 
L 139.718247 152.99534 
L 143.098915 153.303214 
L 145.755154 153.367636 
L 145.962134 153.367636 
L 146.100121 162.032036 
L 146.548577 162.281905 
L 147.410992 162.396088 
L 150.308708 162.46767 
L 163.279435 162.699297 
L 167.315539 162.713813 
L 173.076474 162.824703 
L 179.251368 162.849935 
L 188.220488 162.91153 
L 188.634447 252.90515 
L 188.875923 257.586759 
L 189.186393 259.674168 
L 189.565856 260.77254 
L 190.014312 261.413882 
L 190.600754 261.851638 
L 191.428673 262.16368 
L 192.463571 262.316955 
L 195.223301 262.46639 
L 196.672159 262.46639 
L 196.810145 263.689093 
L 197.224104 263.753412 
L 200.639269 263.867369 
L 205.123829 263.910367 
L 205.261816 271.424984 
L 205.606782 272.16025 
L 205.986245 272.389127 
L 206.710674 272.517887 
L 209.40141 272.640563 
L 213.5755 272.738271 
L 213.713486 278.605636 
L 214.334426 279.118623 
L 215.093351 279.335262 
L 216.611202 279.494439 
L 221.268245 279.675831 
L 222.027171 279.675831 
L 222.165157 280.191559 
L 225.304349 280.269859 
L 238.930512 280.401394 
L 239.068499 281.336846 
L 240.827826 281.374819 
L 247.382183 281.390457 
L 247.520169 305.59294 
L 248.106612 306.544162 
L 248.658558 306.803299 
L 249.762449 307.030426 
L 252.177212 307.257941 
L 255.419894 307.36252 
L 255.833854 307.36252 
L 255.97184 318.229228 
L 256.351303 318.602046 
L 256.903249 318.760454 
L 258.21412 318.8454 
L 264.285524 318.888494 
L 264.423511 320.001314 
L 265.906865 320.538209 
L 267.597199 320.737943 
L 271.046861 320.883704 
L 272.737195 320.883704 
L 272.875182 321.492877 
L 276.876789 321.623946 
L 281.188866 321.650818 
L 281.326852 341.950118 
L 281.809805 345.645243 
L 282.223764 347.095861 
L 282.706717 348.020864 
L 283.293159 348.66549 
L 284.017588 349.127216 
L 284.431548 349.301555 
L 284.569534 66.96 
L 297.988718 66.96 
L 298.161201 129.003215 
L 298.36818 147.086186 
L 298.609657 151.578485 
L 298.920126 153.49762 
L 299.299589 154.485237 
L 299.748045 155.056649 
L 300.334487 155.446374 
L 301.196903 155.734369 
L 302.576767 155.93727 
L 305.233007 156.067114 
L 315.064542 156.211605 
L 315.202529 162.204784 
L 315.719978 162.413817 
L 316.823869 162.510341 
L 321.066953 162.562217 
L 324.689098 162.685951 
L 331.277951 162.756347 
L 337.728818 162.867408 
L 340.799017 162.978017 
L 342.282371 163.139381 
L 345.973509 163.259432 
L 356.839943 163.345335 
L 357.322896 163.345335 
L 357.702359 252.438535 
L 357.943835 258.108299 
L 358.254304 260.458657 
L 358.633767 261.657462 
L 359.082223 262.351518 
L 359.668666 262.829535 
L 360.462088 263.171173 
L 361.669469 263.430851 
L 363.739266 263.621392 
L 365.774566 263.63427 
L 365.912553 265.16012 
L 366.119533 265.305827 
L 366.981948 265.358074 
L 374.226237 265.448807 
L 374.364224 273.421376 
L 374.70919 274.139182 
L 375.088653 274.380235 
L 375.847578 274.540308 
L 377.744892 274.647879 
L 382.677908 274.697528 
L 382.815894 281.295873 
L 383.36784 281.686742 
L 384.230256 281.892613 
L 386.265556 282.101043 
L 390.025687 282.251921 
L 391.129579 282.251921 
L 391.267565 282.528102 
L 408.03292 282.697758 
L 408.170907 283.138056 
L 416.484591 283.23587 
L 416.622577 347.915247 
L 417.036537 352.710675 
L 417.416 354.480821 
L 417.864456 355.526583 
L 418.416401 356.230476 
L 419.106334 356.731951 
L 420.037742 357.118466 
L 421.417607 357.428315 
L 423.349417 357.629405 
L 424.936262 357.629405 
L 425.074248 364.629429 
L 425.522704 365.980235 
L 425.936663 366.482572 
L 426.523106 366.81928 
L 427.454515 367.06429 
L 429.144849 367.242338 
L 432.387531 367.332849 
L 433.422429 367.440549 
L 437.320547 367.904713 
L 441.839603 367.946289 
L 441.97759 368.289547 
L 443.322958 368.79284 
L 444.806312 369.003653 
L 447.531545 369.135286 
L 453.533956 369.357694 
L 453.568452 253.196439 
L 453.671942 253.316733 
L 453.947915 253.504686 
L 454.706841 253.573476 
L 459.329387 253.610469 
L 467.091125 253.617114 
L 467.263609 258.851229 
L 467.574078 263.708175 
L 467.919044 265.768334 
L 468.298507 266.819833 
L 468.746963 267.451647 
L 469.298909 267.834465 
L 470.023338 268.042156 
L 471.230719 268.11843 
L 474.852864 268.276481 
L 483.097555 268.864318 
L 484.16695 268.864318 
L 484.304936 277.977135 
L 484.787889 279.305753 
L 485.236345 279.795637 
L 485.857284 280.126078 
L 486.892183 280.395237 
L 488.789496 280.622848 
L 491.687212 280.744975 
L 492.618621 280.744975 
L 492.756607 287.96229 
L 493.205063 289.152883 
L 493.619023 289.529855 
L 494.274458 289.787471 
L 495.447343 289.97059 
L 498.034589 290.100216 
L 501.070291 290.134618 
L 501.208278 290.779949 
L 503.864517 290.957222 
L 509.556459 291.224113 
L 511.039813 291.441916 
L 513.868536 291.568513 
L 517.973633 291.608639 
L 518.111619 292.240267 
L 522.28571 292.365733 
L 526.425304 292.392995 
L 526.597787 302.109082 
L 526.839263 308.861553 
L 527.115236 310.827668 
L 527.460202 311.71543 
L 527.874162 312.189435 
L 528.460604 312.510204 
L 529.392013 312.737088 
L 531.082347 312.883593 
L 534.704491 312.931063 
L 534.876974 312.931063 
L 535.014961 313.198003 
L 535.359927 313.361052 
L 536.360329 313.435537 
L 541.810794 313.496831 
L 543.432135 313.595181 
L 544.570523 314.240468 
L 545.881395 314.380867 
L 549.434546 314.475099 
L 551.780316 314.481566 
L 551.918302 315.376355 
L 552.780718 315.62792 
L 554.712528 315.847598 
L 558.645142 316.053989 
L 560.231987 316.053989 
L 560.369973 316.288113 
L 577.135328 316.538315 
L 577.273315 316.929277 
L 585.586999 317.023553 
L 585.724985 347.949014 
L 586.173441 352.692117 
L 586.552904 354.331421 
L 587.00136 355.338501 
L 587.553306 356.033199 
L 588.243238 356.536416 
L 589.174647 356.928722 
L 590.520015 357.239723 
L 592.451825 357.448502 
L 594.03867 357.448502 
L 594.176656 364.653288 
L 594.625112 366.008656 
L 595.039071 366.508996 
L 595.625514 366.843592 
L 596.556923 367.087058 
L 598.247257 367.264658 
L 601.489938 367.355964 
L 602.524837 367.462229 
L 606.388458 367.902852 
L 610.942011 367.941348 
L 611.079998 368.29578 
L 612.390869 368.794627 
L 613.839727 369.006641 
L 616.495966 369.14017 
L 622.636364 369.359971 
L 622.636364 369.359971 
" clip-path="url(#p85cdfd5646)" style="fill: none; stroke-dasharray: 5.55,2.4; stroke-dashoffset: 0; stroke: #0000ff; stroke-width: 1.5"/>
   </g>
   <g id="patch_3">
    <path d="M 90 384.48 
L 90 51.84 
" style="fill: none; stroke: #000000; stroke-width: 0.8; stroke-linejoin: miter; stroke-linecap: square"/>
   </g>
   <g id="patch_4">
    <path d="M 648 384.48 
L 648 51.84 
" style="fill: none; stroke: #000000; stroke-width: 0.8; stroke-linejoin: miter; stroke-linecap: square"/>
   </g>
   <g id="patch_5">
    <path d="M 90 384.48 
L 648 384.48 
" style="fill: none; stroke: #000000; stroke-width: 0.8; stroke-linejoin: miter; stroke-linecap: square"/>
   </g>
   <g id="patch_6">
    <path d="M 90 51.84 
L 648 51.84 
" style="fill: none; stroke: #000000; stroke-width: 0.8; stroke-linejoin: miter; stroke-linecap: square"/>
   </g>
   <g id="text_16">
    <!-- Uncertainty Convergence for dKg_xy (Index 15) -->
    <g transform="translate(226.108125 45.84) scale(0.12 -0.12)">
     <defs>
      <path id="DejaVuSans-55" d="M 556 4666 
L 1191 4666 
L 1191 1831 
Q 1191 1081 1462 751 
Q 1734 422 2344 422 
Q 2950 422 3222 751 
Q 3494 1081 3494 1831 
L 3494 4666 
L 4128 4666 
L 4128 1753 
Q 4128 841 3676 375 
Q 3225 -91 2344 -91 
Q 1459 -91 1007 375 
Q 556 841 556 1753 
L 556 4666 
z
" transform="scale(0.015625)"/>
      <path id="DejaVuSans-63" d="M 3122 3366 
L 3122 2828 
Q 2878 2963 2633 3030 
Q 2388 3097 2138 3097 
Q 1578 3097 1268 2742 
Q 959 2388 959 1747 
Q 959 1106 1268 751 
Q 1578 397 2138 397 
Q 2388 397 2633 464 
Q 2878 531 3122 666 
L 3122 134 
Q 2881 22 2623 -34 
Q 2366 -91 2075 -91 
Q 1284 -91 818 406 
Q 353 903 353 1747 
Q 353 2603 823 3093 
Q 1294 3584 2113 3584 
Q 2378 3584 2631 3529 
Q 2884 3475 3122 3366 
z
" transform="scale(0.015625)"/>
      <path id="DejaVuSans-79" d="M 2059 -325 
Q 1816 -950 1584 -1140 
Q 1353 -1331 966 -1331 
L 506 -1331 
L 506 -850 
L 844 -850 
Q 1081 -850 1212 -737 
Q 1344 -625 1503 -206 
L 1606 56 
L 191 3500 
L 800 3500 
L 1894 763 
L 2988 3500 
L 3597 3500 
L 2059 -325 
z
" transform="scale(0.015625)"/>
      <path id="DejaVuSans-43" d="M 4122 4306 
L 4122 3641 
Q 3803 3938 3442 4084 
Q 3081 4231 2675 4231 
Q 1875 4231 1450 3742 
Q 1025 3253 1025 2328 
Q 1025 1406 1450 917 
Q 1875 428 2675 428 
Q 3081 428 3442 575 
Q 3803 722 4122 1019 
L 4122 359 
Q 3791 134 3420 21 
Q 3050 -91 2638 -91 
Q 1578 -91 968 557 
Q 359 1206 359 2328 
Q 359 3453 968 4101 
Q 1578 4750 2638 4750 
Q 3056 4750 3426 4639 
Q 3797 4528 4122 4306 
z
" transform="scale(0.015625)"/>
      <path id="DejaVuSans-67" d="M 2906 1791 
Q 2906 2416 2648 2759 
Q 2391 3103 1925 3103 
Q 1463 3103 1205 2759 
Q 947 2416 947 1791 
Q 947 1169 1205 825 
Q 1463 481 1925 481 
Q 2391 481 2648 825 
Q 2906 1169 2906 1791 
z
M 3481 434 
Q 3481 -459 3084 -895 
Q 2688 -1331 1869 -1331 
Q 1566 -1331 1297 -1286 
Q 1028 -1241 775 -1147 
L 775 -588 
Q 1028 -725 1275 -790 
Q 1522 -856 1778 -856 
Q 2344 -856 2625 -561 
Q 2906 -266 2906 331 
L 2906 616 
Q 2728 306 2450 153 
Q 2172 0 1784 0 
Q 1141 0 747 490 
Q 353 981 353 1791 
Q 353 2603 747 3093 
Q 1141 3584 1784 3584 
Q 2172 3584 2450 3431 
Q 2728 3278 2906 2969 
L 2906 3500 
L 3481 3500 
L 3481 434 
z
" transform="scale(0.015625)"/>
      <path id="DejaVuSans-66" d="M 2375 4863 
L 2375 4384 
L 1825 4384 
Q 1516 4384 1395 4259 
Q 1275 4134 1275 3809 
L 1275 3500 
L 2222 3500 
L 2222 3053 
L 1275 3053 
L 1275 0 
L 697 0 
L 697 3053 
L 147 3053 
L 147 3500 
L 697 3500 
L 697 3744 
Q 697 4328 969 4595 
Q 1241 4863 1831 4863 
L 2375 4863 
z
" transform="scale(0.015625)"/>
      <path id="DejaVuSans-4b" d="M 628 4666 
L 1259 4666 
L 1259 2694 
L 3353 4666 
L 4166 4666 
L 1850 2491 
L 4331 0 
L 3500 0 
L 1259 2247 
L 1259 0 
L 628 0 
L 628 4666 
z
" transform="scale(0.015625)"/>
      <path id="DejaVuSans-5f" d="M 3263 -1063 
L 3263 -1509 
L -63 -1509 
L -63 -1063 
L 3263 -1063 
z
" transform="scale(0.015625)"/>
      <path id="DejaVuSans-78" d="M 3513 3500 
L 2247 1797 
L 3578 0 
L 2900 0 
L 1881 1375 
L 863 0 
L 184 0 
L 1544 1831 
L 300 3500 
L 978 3500 
L 1906 2253 
L 2834 3500 
L 3513 3500 
z
" transform="scale(0.015625)"/>
      <path id="DejaVuSans-49" d="M 628 4666 
L 1259 4666 
L 1259 0 
L 628 0 
L 628 4666 
z
" transform="scale(0.015625)"/>
     </defs>
     <use xlink:href="#DejaVuSans-55"/>
     <use xlink:href="#DejaVuSans-6e" transform="translate(73.193359 0)"/>
     <use xlink:href="#DejaVuSans-63" transform="translate(136.572266 0)"/>
     <use xlink:href="#DejaVuSans-65" transform="translate(191.552734 0)"/>
     <use xlink:href="#DejaVuSans-72" transform="translate(253.076172 0)"/>
     <use xlink:href="#DejaVuSans-74" transform="translate(294.189453 0)"/>
     <use xlink:href="#DejaVuSans-61" transform="translate(333.398438 0)"/>
     <use xlink:href="#DejaVuSans-69" transform="translate(394.677734 0)"/>
     <use xlink:href="#DejaVuSans-6e" transform="translate(422.460938 0)"/>
     <use xlink:href="#DejaVuSans-74" transform="translate(485.839844 0)"/>
     <use xlink:href="#DejaVuSans-79" transform="translate(525.048828 0)"/>
     <use xlink:href="#DejaVuSans-20" transform="translate(584.228516 0)"/>
     <use xlink:href="#DejaVuSans-43" transform="translate(616.015625 0)"/>
     <use xlink:href="#DejaVuSans-6f" transform="translate(685.839844 0)"/>
     <use xlink:href="#DejaVuSans-6e" transform="translate(747.021484 0)"/>
     <use xlink:href="#DejaVuSans-76" transform="translate(810.400391 0)"/>
     <use xlink:href="#DejaVuSans-65" transform="translate(869.580078 0)"/>
     <use xlink:href="#DejaVuSans-72" transform="translate(931.103516 0)"/>
     <use xlink:href="#DejaVuSans-67" transform="translate(970.466797 0)"/>
     <use xlink:href="#DejaVuSans-65" transform="translate(1033.943359 0)"/>
     <use xlink:href="#DejaVuSans-6e" transform="translate(1095.466797 0)"/>
     <use xlink:href="#DejaVuSans-63" transform="translate(1158.845703 0)"/>
     <use xlink:href="#DejaVuSans-65" transform="translate(1213.826172 0)"/>
     <use xlink:href="#DejaVuSans-20" transform="translate(1275.349609 0)"/>
     <use xlink:href="#DejaVuSans-66" transform="translate(1307.136719 0)"/>
     <use xlink:href="#DejaVuSans-6f" transform="translate(1342.341797 0)"/>
     <use xlink:href="#DejaVuSans-72" transform="translate(1403.523438 0)"/>
     <use xlink:href="#DejaVuSans-20" transform="translate(1444.636719 0)"/>
     <use xlink:href="#DejaVuSans-64" transform="translate(1476.423828 0)"/>
     <use xlink:href="#DejaVuSans-4b" transform="translate(1539.900391 0)"/>
     <use xlink:href="#DejaVuSans-67" transform="translate(1605.476562 0)"/>
     <use xlink:href="#DejaVuSans-5f" transform="translate(1668.953125 0)"/>
     <use xlink:href="#DejaVuSans-78" transform="translate(1718.953125 0)"/>
     <use xlink:href="#DejaVuSans-79" transform="translate(1778.132812 0)"/>
     <use xlink:href="#DejaVuSans-20" transform="translate(1837.3125 0)"/>
     <use xlink:href="#DejaVuSans-28" transform="translate(1869.099609 0)"/>
     <use xlink:href="#DejaVuSans-49" transform="translate(1908.113281 0)"/>
     <use xlink:href="#DejaVuSans-6e" transform="translate(1937.605469 0)"/>
     <use xlink:href="#DejaVuSans-64" transform="translate(2000.984375 0)"/>
     <use xlink:href="#DejaVuSans-65" transform="translate(2064.460938 0)"/>
     <use xlink:href="#DejaVuSans-78" transform="translate(2124.234375 0)"/>
     <use xlink:href="#DejaVuSans-20" transform="translate(2183.414062 0)"/>
     <use xlink:href="#DejaVuSans-31" transform="translate(2215.201172 0)"/>
     <use xlink:href="#DejaVuSans-35" transform="translate(2278.824219 0)"/>
     <use xlink:href="#DejaVuSans-29" transform="translate(2342.447266 0)"/>
    </g>
   </g>
   <g id="legend_1">
    <g id="patch_7">
     <path d="M 478.453125 89.19625 
L 641 89.19625 
Q 643 89.19625 643 87.19625 
L 643 58.84 
Q 643 56.84 641 56.84 
L 478.453125 56.84 
Q 476.453125 56.84 476.453125 58.84 
L 476.453125 87.19625 
Q 476.453125 89.19625 478.453125 89.19625 
z
" style="fill: #ffffff; opacity: 0.8; stroke: #cccccc; stroke-linejoin: miter"/>
    </g>
    <g id="line2d_29">
     <path d="M 480.453125 64.938437 
L 490.453125 64.938437 
L 500.453125 64.938437 
" style="fill: none; stroke: #ff0000; stroke-width: 1.5; stroke-linecap: square"/>
    </g>
    <g id="text_17">
     <!-- Baseline KF -->
     <g transform="translate(508.453125 68.438437) scale(0.1 -0.1)">
      <defs>
       <path id="DejaVuSans-42" d="M 1259 2228 
L 1259 519 
L 2272 519 
Q 2781 519 3026 730 
Q 3272 941 3272 1375 
Q 3272 1813 3026 2020 
Q 2781 2228 2272 2228 
L 1259 2228 
z
M 1259 4147 
L 1259 2741 
L 2194 2741 
Q 2656 2741 2882 2914 
Q 3109 3088 3109 3444 
Q 3109 3797 2882 3972 
Q 2656 4147 2194 4147 
L 1259 4147 
z
M 628 4666 
L 2241 4666 
Q 2963 4666 3353 4366 
Q 3744 4066 3744 3513 
Q 3744 3084 3544 2831 
Q 3344 2578 2956 2516 
Q 3422 2416 3680 2098 
Q 3938 1781 3938 1306 
Q 3938 681 3513 340 
Q 3088 0 2303 0 
L 628 0 
L 628 4666 
z
" transform="scale(0.015625)"/>
       <path id="DejaVuSans-6c" d="M 603 4863 
L 1178 4863 
L 1178 0 
L 603 0 
L 603 4863 
z
" transform="scale(0.015625)"/>
       <path id="DejaVuSans-46" d="M 628 4666 
L 3309 4666 
L 3309 4134 
L 1259 4134 
L 1259 2759 
L 3109 2759 
L 3109 2228 
L 1259 2228 
L 1259 0 
L 628 0 
L 628 4666 
z
" transform="scale(0.015625)"/>
      </defs>
      <use xlink:href="#DejaVuSans-42"/>
      <use xlink:href="#DejaVuSans-61" transform="translate(68.603516 0)"/>
      <use xlink:href="#DejaVuSans-73" transform="translate(129.882812 0)"/>
      <use xlink:href="#DejaVuSans-65" transform="translate(181.982422 0)"/>
      <use xlink:href="#DejaVuSans-6c" transform="translate(243.505859 0)"/>
      <use xlink:href="#DejaVuSans-69" transform="translate(271.289062 0)"/>
      <use xlink:href="#DejaVuSans-6e" transform="translate(299.072266 0)"/>
      <use xlink:href="#DejaVuSans-65" transform="translate(362.451172 0)"/>
      <use xlink:href="#DejaVuSans-20" transform="translate(423.974609 0)"/>
      <use xlink:href="#DejaVuSans-4b" transform="translate(455.761719 0)"/>
      <use xlink:href="#DejaVuSans-46" transform="translate(521.337891 0)"/>
     </g>
    </g>
    <g id="line2d_30">
     <path d="M 480.453125 79.616562 
L 490.453125 79.616562 
L 500.453125 79.616562 
" style="fill: none; stroke-dasharray: 5.55,2.4; stroke-dashoffset: 0; stroke: #0000ff; stroke-width: 1.5"/>
    </g>
    <g id="text_18">
     <!-- Shadow KF (LLM Assisted) -->
     <g transform="translate(508.453125 83.116562) scale(0.1 -0.1)">
      <defs>
       <path id="DejaVuSans-68" d="M 3513 2113 
L 3513 0 
L 2938 0 
L 2938 2094 
Q 2938 2591 2744 2837 
Q 2550 3084 2163 3084 
Q 1697 3084 1428 2787 
Q 1159 2491 1159 1978 
L 1159 0 
L 581 0 
L 581 4863 
L 1159 4863 
L 1159 2956 
Q 1366 3272 1645 3428 
Q 1925 3584 2291 3584 
Q 2894 3584 3203 3211 
Q 3513 2838 3513 2113 
z
" transform="scale(0.015625)"/>
       <path id="DejaVuSans-77" d="M 269 3500 
L 844 3500 
L 1563 769 
L 2278 3500 
L 2956 3500 
L 3675 769 
L 4391 3500 
L 4966 3500 
L 4050 0 
L 3372 0 
L 2619 2869 
L 1863 0 
L 1184 0 
L 269 3500 
z
" transform="scale(0.015625)"/>
       <path id="DejaVuSans-4c" d="M 628 4666 
L 1259 4666 
L 1259 531 
L 3531 531 
L 3531 0 
L 628 0 
L 628 4666 
z
" transform="scale(0.015625)"/>
       <path id="DejaVuSans-41" d="M 2188 4044 
L 1331 1722 
L 3047 1722 
L 2188 4044 
z
M 1831 4666 
L 2547 4666 
L 4325 0 
L 3669 0 
L 3244 1197 
L 1141 1197 
L 716 0 
L 50 0 
L 1831 4666 
z
" transform="scale(0.015625)"/>
      </defs>
      <use xlink:href="#DejaVuSans-53"/>
      <use xlink:href="#DejaVuSans-68" transform="translate(63.476562 0)"/>
      <use xlink:href="#DejaVuSans-61" transform="translate(126.855469 0)"/>
      <use xlink:href="#DejaVuSans-64" transform="translate(188.134766 0)"/>
      <use xlink:href="#DejaVuSans-6f" transform="translate(251.611328 0)"/>
      <use xlink:href="#DejaVuSans-77" transform="translate(312.792969 0)"/>
      <use xlink:href="#DejaVuSans-20" transform="translate(394.580078 0)"/>
      <use xlink:href="#DejaVuSans-4b" transform="translate(426.367188 0)"/>
      <use xlink:href="#DejaVuSans-46" transform="translate(491.943359 0)"/>
      <use xlink:href="#DejaVuSans-20" transform="translate(549.462891 0)"/>
      <use xlink:href="#DejaVuSans-28" transform="translate(581.25 0)"/>
      <use xlink:href="#DejaVuSans-4c" transform="translate(620.263672 0)"/>
      <use xlink:href="#DejaVuSans-4c" transform="translate(675.976562 0)"/>
      <use xlink:href="#DejaVuSans-4d" transform="translate(731.689453 0)"/>
      <use xlink:href="#DejaVuSans-20" transform="translate(817.96875 0)"/>
      <use xlink:href="#DejaVuSans-41" transform="translate(849.755859 0)"/>
      <use xlink:href="#DejaVuSans-73" transform="translate(918.164062 0)"/>
      <use xlink:href="#DejaVuSans-73" transform="translate(970.263672 0)"/>
      <use xlink:href="#DejaVuSans-69" transform="translate(1022.363281 0)"/>
      <use xlink:href="#DejaVuSans-73" transform="translate(1050.146484 0)"/>
      <use xlink:href="#DejaVuSans-74" transform="translate(1102.246094 0)"/>
      <use xlink:href="#DejaVuSans-65" transform="translate(1141.455078 0)"/>
      <use xlink:href="#DejaVuSans-64" transform="translate(1202.978516 0)"/>
      <use xlink:href="#DejaVuSans-29" transform="translate(1266.455078 0)"/>
     </g>
    </g>
   </g>
  </g>
 </g>
 <defs>
  <clipPath id="p85cdfd5646">
   <rect x="90" y="51.84" width="558" height="332.64"/>
  </clipPath>
 </defs>
</svg>
