<?xml version="1.0" encoding="utf-8" standalone="no"?>
<!DOCTYPE svg PUBLIC "-//W3C//DTD SVG 1.1//EN"
  "http://www.w3.org/Graphics/SVG/1.1/DTD/svg11.dtd">
<svg xmlns:xlink="http://www.w3.org/1999/xlink" width="720pt" height="432pt" viewBox="0 0 720 432" xmlns="http://www.w3.org/2000/svg" version="1.1">
 <metadata>
  <rdf:RDF xmlns:dc="http://purl.org/dc/elements/1.1/" xmlns:cc="http://creativecommons.org/ns#" xmlns:rdf="http://www.w3.org/1999/02/22-rdf-syntax-ns#">
   <cc:Work>
    <dc:type rdf:resource="http://purl.org/dc/dcmitype/StillImage"/>
    <dc:date>2026-03-25T09:55:26.762215</dc:date>
    <dc:format>image/svg+xml</dc:format>
    <dc:creator>
     <cc:Agent>
      <dc:title>Matplotlib v3.10.8, https://matplotlib.org/</dc:title>
     </cc:Agent>
    </dc:creator>
   </cc:Work>
  </rdf:RDF>
 </metadata>
 <defs>
  <style type="text/css">*{stroke-linejoin: round; stroke-linecap: butt}</style>
 </defs>
 <g id="figure_1">
  <g id="patch_1">
   <path d="M 0 432 
L 720 432 
L 720 0 
L 0 0 
z
" style="fill: #ffffff"/>
  </g>
  <g id="axes_1">
   <g id="patch_2">
    <path d="M 90 384.48 
L 648 384.48 
L 648 51.84 
L 90 51.84 
z
" style="fill: #ffffff"/>
   </g>
   <g id="matplotlib.axis_1">
    <g id="xtick_1">
     <g id="line2d_1">
      <path d="M 115.363636 384.48 
L 115.363636 51.84 
" clip-path="url(#pbc39eaee66)" style="fill: none; stroke: #b0b0b0; stroke-width: 0.8; stroke-linecap: square"/>
     </g>
     <g id="line2d_2">
      <defs>
       <path id="m6a6c56910d" d="M 0 0 
L 0 3.5 
" style="stroke: #000000; stroke-width: 0.8"/>
      </defs>
      <g>
       <use xlink:href="#m6a6c56910d" x="115.363636" y="384.48" style="stroke: #000000; stroke-width: 0.8"/>
      </g>
     </g>
     <g id="text_1">
      <!-- 0 -->
      <g transform="translate(112.182386 399.078438) scale(0.1 -0.1)">
       <defs>
        <path id="DejaVuSans-30" d="M 2034 4250 
Q 1547 4250 1301 3770 
Q 1056 3291 1056 2328 
Q 1056 1369 1301 889 
Q 1547 409 2034 409 
Q 2525 409 2770 889 
Q 3016 1369 3016 2328 
Q 3016 3291 2770 3770 
Q 2525 4250 2034 4250 
z
M 2034 4750 
Q 2819 4750 3233 4129 
Q 3647 3509 3647 2328 
Q 3647 1150 3233 529 
Q 2819 -91 2034 -91 
Q 1250 -91 836 529 
Q 422 1150 422 2328 
Q 422 3509 836 4129 
Q 1250 4750 2034 4750 
z
" transform="scale(0.015625)"/>
       </defs>
       <use xlink:href="#DejaVuSans-30"/>
      </g>
     </g>
    </g>
    <g id="xtick_2">
     <g id="line2d_3">
      <path d="M 201.605174 384.48 
L 201.605174 51.84 
" clip-path="url(#pbc39eaee66)" style="fill: none; stroke: #b0b0b0; stroke-width: 0.8; stroke-linecap: square"/>
     </g>
     <g id="line2d_4">
      <g>
       <use xlink:href="#m6a6c56910d" x="201.605174" y="384.48" style="stroke: #000000; stroke-width: 0.8"/>
      </g>
     </g>
     <g id="text_2">
      <!-- 50 -->
      <g transform="translate(195.242674 399.078438) scale(0.1 -0.1)">
       <defs>
        <path id="DejaVuSans-35" d="M 691 4666 
L 3169 4666 
L 3169 4134 
L 1269 4134 
L 1269 2991 
Q 1406 3038 1543 3061 
Q 1681 3084 1819 3084 
Q 2600 3084 3056 2656 
Q 3513 2228 3513 1497 
Q 3513 744 3044 326 
Q 2575 -91 1722 -91 
Q 1428 -91 1123 -41 
Q 819 9 494 109 
L 494 744 
Q 775 591 1075 516 
Q 1375 441 1709 441 
Q 2250 441 2565 725 
Q 2881 1009 2881 1497 
Q 2881 1984 2565 2268 
Q 2250 2553 1709 2553 
Q 1456 2553 1204 2497 
Q 953 2441 691 2322 
L 691 4666 
z
" transform="scale(0.015625)"/>
       </defs>
       <use xlink:href="#DejaVuSans-35"/>
       <use xlink:href="#DejaVuSans-30" transform="translate(63.623047 0)"/>
      </g>
     </g>
    </g>
    <g id="xtick_3">
     <g id="line2d_5">
      <path d="M 287.846713 384.48 
L 287.846713 51.84 
" clip-path="url(#pbc39eaee66)" style="fill: none; stroke: #b0b0b0; stroke-width: 0.8; stroke-linecap: square"/>
     </g>
     <g id="line2d_6">
      <g>
       <use xlink:href="#m6a6c56910d" x="287.846713" y="384.48" style="stroke: #000000; stroke-width: 0.8"/>
      </g>
     </g>
     <g id="text_3">
      <!-- 100 -->
      <g transform="translate(278.302963 399.078438) scale(0.1 -0.1)">
       <defs>
        <path id="DejaVuSans-31" d="M 794 531 
L 1825 531 
L 1825 4091 
L 703 3866 
L 703 4441 
L 1819 4666 
L 2450 4666 
L 2450 531 
L 3481 531 
L 3481 0 
L 794 0 
L 794 531 
z
" transform="scale(0.015625)"/>
       </defs>
       <use xlink:href="#DejaVuSans-31"/>
       <use xlink:href="#DejaVuSans-30" transform="translate(63.623047 0)"/>
       <use xlink:href="#DejaVuSans-30" transform="translate(127.246094 0)"/>
      </g>
     </g>
    </g>
    <g id="xtick_4">
     <g id="line2d_7">
      <path d="M 374.088251 384.48 
L 374.088251 51.84 
" clip-path="url(#pbc39eaee66)" style="fill: none; stroke: #b0b0b0; stroke-width: 0.8; stroke-linecap: square"/>
     </g>
     <g id="line2d_8">
      <g>
       <use xlink:href="#m6a6c56910d" x="374.088251" y="384.48" style="stroke: #000000; stroke-width: 0.8"/>
      </g>
     </g>
     <g id="text_4">
      <!-- 150 -->
      <g transform="translate(364.544501 399.078438) scale(0.1 -0.1)">
       <use xlink:href="#DejaVuSans-31"/>
       <use xlink:href="#DejaVuSans-35" transform="translate(63.623047 0)"/>
       <use xlink:href="#DejaVuSans-30" transform="translate(127.246094 0)"/>
      </g>
     </g>
    </g>
    <g id="xtick_5">
     <g id="line2d_9">
      <path d="M 460.329789 384.48 
L 460.329789 51.84 
" clip-path="url(#pbc39eaee66)" style="fill: none; stroke: #b0b0b0; stroke-width: 0.8; stroke-linecap: square"/>
     </g>
     <g id="line2d_10">
      <g>
       <use xlink:href="#m6a6c56910d" x="460.329789" y="384.48" style="stroke: #000000; stroke-width: 0.8"/>
      </g>
     </g>
     <g id="text_5">
      <!-- 200 -->
      <g transform="translate(450.786039 399.078438) scale(0.1 -0.1)">
       <defs>
        <path id="DejaVuSans-32" d="M 1228 531 
L 3431 531 
L 3431 0 
L 469 0 
L 469 531 
Q 828 903 1448 1529 
Q 2069 2156 2228 2338 
Q 2531 2678 2651 2914 
Q 2772 3150 2772 3378 
Q 2772 3750 2511 3984 
Q 2250 4219 1831 4219 
Q 1534 4219 1204 4116 
Q 875 4013 500 3803 
L 500 4441 
Q 881 4594 1212 4672 
Q 1544 4750 1819 4750 
Q 2544 4750 2975 4387 
Q 3406 4025 3406 3419 
Q 3406 3131 3298 2873 
Q 3191 2616 2906 2266 
Q 2828 2175 2409 1742 
Q 1991 1309 1228 531 
z
" transform="scale(0.015625)"/>
       </defs>
       <use xlink:href="#DejaVuSans-32"/>
       <use xlink:href="#DejaVuSans-30" transform="translate(63.623047 0)"/>
       <use xlink:href="#DejaVuSans-30" transform="translate(127.246094 0)"/>
      </g>
     </g>
    </g>
    <g id="xtick_6">
     <g id="line2d_11">
      <path d="M 546.571327 384.48 
L 546.571327 51.84 
" clip-path="url(#pbc39eaee66)" style="fill: none; stroke: #b0b0b0; stroke-width: 0.8; stroke-linecap: square"/>
     </g>
     <g id="line2d_12">
      <g>
       <use xlink:href="#m6a6c56910d" x="546.571327" y="384.48" style="stroke: #000000; stroke-width: 0.8"/>
      </g>
     </g>
     <g id="text_6">
      <!-- 250 -->
      <g transform="translate(537.027577 399.078438) scale(0.1 -0.1)">
       <use xlink:href="#DejaVuSans-32"/>
       <use xlink:href="#DejaVuSans-35" transform="translate(63.623047 0)"/>
       <use xlink:href="#DejaVuSans-30" transform="translate(127.246094 0)"/>
      </g>
     </g>
    </g>
    <g id="xtick_7">
     <g id="line2d_13">
      <path d="M 632.812865 384.48 
L 632.812865 51.84 
" clip-path="url(#pbc39eaee66)" style="fill: none; stroke: #b0b0b0; stroke-width: 0.8; stroke-linecap: square"/>
     </g>
     <g id="line2d_14">
      <g>
       <use xlink:href="#m6a6c56910d" x="632.812865" y="384.48" style="stroke: #000000; stroke-width: 0.8"/>
      </g>
     </g>
     <g id="text_7">
      <!-- 300 -->
      <g transform="translate(623.269115 399.078438) scale(0.1 -0.1)">
       <defs>
        <path id="DejaVuSans-33" d="M 2597 2516 
Q 3050 2419 3304 2112 
Q 3559 1806 3559 1356 
Q 3559 666 3084 287 
Q 2609 -91 1734 -91 
Q 1441 -91 1130 -33 
Q 819 25 488 141 
L 488 750 
Q 750 597 1062 519 
Q 1375 441 1716 441 
Q 2309 441 2620 675 
Q 2931 909 2931 1356 
Q 2931 1769 2642 2001 
Q 2353 2234 1838 2234 
L 1294 2234 
L 1294 2753 
L 1863 2753 
Q 2328 2753 2575 2939 
Q 2822 3125 2822 3475 
Q 2822 3834 2567 4026 
Q 2313 4219 1838 4219 
Q 1578 4219 1281 4162 
Q 984 4106 628 3988 
L 628 4550 
Q 988 4650 1302 4700 
Q 1616 4750 1894 4750 
Q 2613 4750 3031 4423 
Q 3450 4097 3450 3541 
Q 3450 3153 3228 2886 
Q 3006 2619 2597 2516 
z
" transform="scale(0.015625)"/>
       </defs>
       <use xlink:href="#DejaVuSans-33"/>
       <use xlink:href="#DejaVuSans-30" transform="translate(63.623047 0)"/>
       <use xlink:href="#DejaVuSans-30" transform="translate(127.246094 0)"/>
      </g>
     </g>
    </g>
    <g id="text_8">
     <!-- Maneuver Time (s) -->
     <g transform="translate(322.198438 412.756563) scale(0.1 -0.1)">
      <defs>
       <path id="DejaVuSans-4d" d="M 628 4666 
L 1569 4666 
L 2759 1491 
L 3956 4666 
L 4897 4666 
L 4897 0 
L 4281 0 
L 4281 4097 
L 3078 897 
L 2444 897 
L 1241 4097 
L 1241 0 
L 628 0 
L 628 4666 
z
" transform="scale(0.015625)"/>
       <path id="DejaVuSans-61" d="M 2194 1759 
Q 1497 1759 1228 1600 
Q 959 1441 959 1056 
Q 959 750 1161 570 
Q 1363 391 1709 391 
Q 2188 391 2477 730 
Q 2766 1069 2766 1631 
L 2766 1759 
L 2194 1759 
z
M 3341 1997 
L 3341 0 
L 2766 0 
L 2766 531 
Q 2569 213 2275 61 
Q 1981 -91 1556 -91 
Q 1019 -91 701 211 
Q 384 513 384 1019 
Q 384 1609 779 1909 
Q 1175 2209 1959 2209 
L 2766 2209 
L 2766 2266 
Q 2766 2663 2505 2880 
Q 2244 3097 1772 3097 
Q 1472 3097 1187 3025 
Q 903 2953 641 2809 
L 641 3341 
Q 956 3463 1253 3523 
Q 1550 3584 1831 3584 
Q 2591 3584 2966 3190 
Q 3341 2797 3341 1997 
z
" transform="scale(0.015625)"/>
       <path id="DejaVuSans-6e" d="M 3513 2113 
L 3513 0 
L 2938 0 
L 2938 2094 
Q 2938 2591 2744 2837 
Q 2550 3084 2163 3084 
Q 1697 3084 1428 2787 
Q 1159 2491 1159 1978 
L 1159 0 
L 581 0 
L 581 3500 
L 1159 3500 
L 1159 2956 
Q 1366 3272 1645 3428 
Q 1925 3584 2291 3584 
Q 2894 3584 3203 3211 
Q 3513 2838 3513 2113 
z
" transform="scale(0.015625)"/>
       <path id="DejaVuSans-65" d="M 3597 1894 
L 3597 1613 
L 953 1613 
Q 991 1019 1311 708 
Q 1631 397 2203 397 
Q 2534 397 2845 478 
Q 3156 559 3463 722 
L 3463 178 
Q 3153 47 2828 -22 
Q 2503 -91 2169 -91 
Q 1331 -91 842 396 
Q 353 884 353 1716 
Q 353 2575 817 3079 
Q 1281 3584 2069 3584 
Q 2775 3584 3186 3129 
Q 3597 2675 3597 1894 
z
M 3022 2063 
Q 3016 2534 2758 2815 
Q 2500 3097 2075 3097 
Q 1594 3097 1305 2825 
Q 1016 2553 972 2059 
L 3022 2063 
z
" transform="scale(0.015625)"/>
       <path id="DejaVuSans-75" d="M 544 1381 
L 544 3500 
L 1119 3500 
L 1119 1403 
Q 1119 906 1312 657 
Q 1506 409 1894 409 
Q 2359 409 2629 706 
Q 2900 1003 2900 1516 
L 2900 3500 
L 3475 3500 
L 3475 0 
L 2900 0 
L 2900 538 
Q 2691 219 2414 64 
Q 2138 -91 1772 -91 
Q 1169 -91 856 284 
Q 544 659 544 1381 
z
M 1991 3584 
L 1991 3584 
z
" transform="scale(0.015625)"/>
       <path id="DejaVuSans-76" d="M 191 3500 
L 800 3500 
L 1894 563 
L 2988 3500 
L 3597 3500 
L 2284 0 
L 1503 0 
L 191 3500 
z
" transform="scale(0.015625)"/>
       <path id="DejaVuSans-72" d="M 2631 2963 
Q 2534 3019 2420 3045 
Q 2306 3072 2169 3072 
Q 1681 3072 1420 2755 
Q 1159 2438 1159 1844 
L 1159 0 
L 581 0 
L 581 3500 
L 1159 3500 
L 1159 2956 
Q 1341 3275 1631 3429 
Q 1922 3584 2338 3584 
Q 2397 3584 2469 3576 
Q 2541 3569 2628 3553 
L 2631 2963 
z
" transform="scale(0.015625)"/>
       <path id="DejaVuSans-20" transform="scale(0.015625)"/>
       <path id="DejaVuSans-54" d="M -19 4666 
L 3928 4666 
L 3928 4134 
L 2272 4134 
L 2272 0 
L 1638 0 
L 1638 4134 
L -19 4134 
L -19 4666 
z
" transform="scale(0.015625)"/>
       <path id="DejaVuSans-69" d="M 603 3500 
L 1178 3500 
L 1178 0 
L 603 0 
L 603 3500 
z
M 603 4863 
L 1178 4863 
L 1178 4134 
L 603 4134 
L 603 4863 
z
" transform="scale(0.015625)"/>
       <path id="DejaVuSans-6d" d="M 3328 2828 
Q 3544 3216 3844 3400 
Q 4144 3584 4550 3584 
Q 5097 3584 5394 3201 
Q 5691 2819 5691 2113 
L 5691 0 
L 5113 0 
L 5113 2094 
Q 5113 2597 4934 2840 
Q 4756 3084 4391 3084 
Q 3944 3084 3684 2787 
Q 3425 2491 3425 1978 
L 3425 0 
L 2847 0 
L 2847 2094 
Q 2847 2600 2669 2842 
Q 2491 3084 2119 3084 
Q 1678 3084 1418 2786 
Q 1159 2488 1159 1978 
L 1159 0 
L 581 0 
L 581 3500 
L 1159 3500 
L 1159 2956 
Q 1356 3278 1631 3431 
Q 1906 3584 2284 3584 
Q 2666 3584 2933 3390 
Q 3200 3197 3328 2828 
z
" transform="scale(0.015625)"/>
       <path id="DejaVuSans-28" d="M 1984 4856 
Q 1566 4138 1362 3434 
Q 1159 2731 1159 2009 
Q 1159 1288 1364 580 
Q 1569 -128 1984 -844 
L 1484 -844 
Q 1016 -109 783 600 
Q 550 1309 550 2009 
Q 550 2706 781 3412 
Q 1013 4119 1484 4856 
L 1984 4856 
z
" transform="scale(0.015625)"/>
       <path id="DejaVuSans-73" d="M 2834 3397 
L 2834 2853 
Q 2591 2978 2328 3040 
Q 2066 3103 1784 3103 
Q 1356 3103 1142 2972 
Q 928 2841 928 2578 
Q 928 2378 1081 2264 
Q 1234 2150 1697 2047 
L 1894 2003 
Q 2506 1872 2764 1633 
Q 3022 1394 3022 966 
Q 3022 478 2636 193 
Q 2250 -91 1575 -91 
Q 1294 -91 989 -36 
Q 684 19 347 128 
L 347 722 
Q 666 556 975 473 
Q 1284 391 1588 391 
Q 1994 391 2212 530 
Q 2431 669 2431 922 
Q 2431 1156 2273 1281 
Q 2116 1406 1581 1522 
L 1381 1569 
Q 847 1681 609 1914 
Q 372 2147 372 2553 
Q 372 3047 722 3315 
Q 1072 3584 1716 3584 
Q 2034 3584 2315 3537 
Q 2597 3491 2834 3397 
z
" transform="scale(0.015625)"/>
       <path id="DejaVuSans-29" d="M 513 4856 
L 1013 4856 
Q 1481 4119 1714 3412 
Q 1947 2706 1947 2009 
Q 1947 1309 1714 600 
Q 1481 -109 1013 -844 
L 513 -844 
Q 928 -128 1133 580 
Q 1338 1288 1338 2009 
Q 1338 2731 1133 3434 
Q 928 4138 513 4856 
z
" transform="scale(0.015625)"/>
      </defs>
      <use xlink:href="#DejaVuSans-4d"/>
      <use xlink:href="#DejaVuSans-61" transform="translate(86.279297 0)"/>
      <use xlink:href="#DejaVuSans-6e" transform="translate(147.558594 0)"/>
      <use xlink:href="#DejaVuSans-65" transform="translate(210.9375 0)"/>
      <use xlink:href="#DejaVuSans-75" transform="translate(272.460938 0)"/>
      <use xlink:href="#DejaVuSans-76" transform="translate(335.839844 0)"/>
      <use xlink:href="#DejaVuSans-65" transform="translate(395.019531 0)"/>
      <use xlink:href="#DejaVuSans-72" transform="translate(456.542969 0)"/>
      <use xlink:href="#DejaVuSans-20" transform="translate(497.65625 0)"/>
      <use xlink:href="#DejaVuSans-54" transform="translate(529.443359 0)"/>
      <use xlink:href="#DejaVuSans-69" transform="translate(587.402344 0)"/>
      <use xlink:href="#DejaVuSans-6d" transform="translate(615.185547 0)"/>
      <use xlink:href="#DejaVuSans-65" transform="translate(712.597656 0)"/>
      <use xlink:href="#DejaVuSans-20" transform="translate(774.121094 0)"/>
      <use xlink:href="#DejaVuSans-28" transform="translate(805.908203 0)"/>
      <use xlink:href="#DejaVuSans-73" transform="translate(844.921875 0)"/>
      <use xlink:href="#DejaVuSans-29" transform="translate(897.021484 0)"/>
     </g>
    </g>
   </g>
   <g id="matplotlib.axis_2">
    <g id="ytick_1">
     <g id="line2d_15">
      <path d="M 90 373.585063 
L 648 373.585063 
" clip-path="url(#pbc39eaee66)" style="fill: none; stroke: #b0b0b0; stroke-width: 0.8; stroke-linecap: square"/>
     </g>
     <g id="line2d_16">
      <defs>
       <path id="m886706f301" d="M 0 0 
L -3.5 0 
" style="stroke: #000000; stroke-width: 0.8"/>
      </defs>
      <g>
       <use xlink:href="#m886706f301" x="90" y="373.585063" style="stroke: #000000; stroke-width: 0.8"/>
      </g>
     </g>
     <g id="text_9">
      <!-- 0.0000 -->
      <g transform="translate(48.009375 377.384282) scale(0.1 -0.1)">
       <defs>
        <path id="DejaVuSans-2e" d="M 684 794 
L 1344 794 
L 1344 0 
L 684 0 
L 684 794 
z
" transform="scale(0.015625)"/>
       </defs>
       <use xlink:href="#DejaVuSans-30"/>
       <use xlink:href="#DejaVuSans-2e" transform="translate(63.623047 0)"/>
       <use xlink:href="#DejaVuSans-30" transform="translate(95.410156 0)"/>
       <use xlink:href="#DejaVuSans-30" transform="translate(159.033203 0)"/>
       <use xlink:href="#DejaVuSans-30" transform="translate(222.65625 0)"/>
       <use xlink:href="#DejaVuSans-30" transform="translate(286.279297 0)"/>
      </g>
     </g>
    </g>
    <g id="ytick_2">
     <g id="line2d_17">
      <path d="M 90 322.045106 
L 648 322.045106 
" clip-path="url(#pbc39eaee66)" style="fill: none; stroke: #b0b0b0; stroke-width: 0.8; stroke-linecap: square"/>
     </g>
     <g id="line2d_18">
      <g>
       <use xlink:href="#m886706f301" x="90" y="322.045106" style="stroke: #000000; stroke-width: 0.8"/>
      </g>
     </g>
     <g id="text_10">
      <!-- 0.0002 -->
      <g transform="translate(48.009375 325.844325) scale(0.1 -0.1)">
       <use xlink:href="#DejaVuSans-30"/>
       <use xlink:href="#DejaVuSans-2e" transform="translate(63.623047 0)"/>
       <use xlink:href="#DejaVuSans-30" transform="translate(95.410156 0)"/>
       <use xlink:href="#DejaVuSans-30" transform="translate(159.033203 0)"/>
       <use xlink:href="#DejaVuSans-30" transform="translate(222.65625 0)"/>
       <use xlink:href="#DejaVuSans-32" transform="translate(286.279297 0)"/>
      </g>
     </g>
    </g>
    <g id="ytick_3">
     <g id="line2d_19">
      <path d="M 90 270.505149 
L 648 270.505149 
" clip-path="url(#pbc39eaee66)" style="fill: none; stroke: #b0b0b0; stroke-width: 0.8; stroke-linecap: square"/>
     </g>
     <g id="line2d_20">
      <g>
       <use xlink:href="#m886706f301" x="90" y="270.505149" style="stroke: #000000; stroke-width: 0.8"/>
      </g>
     </g>
     <g id="text_11">
      <!-- 0.0004 -->
      <g transform="translate(48.009375 274.304368) scale(0.1 -0.1)">
       <defs>
        <path id="DejaVuSans-34" d="M 2419 4116 
L 825 1625 
L 2419 1625 
L 2419 4116 
z
M 2253 4666 
L 3047 4666 
L 3047 1625 
L 3713 1625 
L 3713 1100 
L 3047 1100 
L 3047 0 
L 2419 0 
L 2419 1100 
L 313 1100 
L 313 1709 
L 2253 4666 
z
" transform="scale(0.015625)"/>
       </defs>
       <use xlink:href="#DejaVuSans-30"/>
       <use xlink:href="#DejaVuSans-2e" transform="translate(63.623047 0)"/>
       <use xlink:href="#DejaVuSans-30" transform="translate(95.410156 0)"/>
       <use xlink:href="#DejaVuSans-30" transform="translate(159.033203 0)"/>
       <use xlink:href="#DejaVuSans-30" transform="translate(222.65625 0)"/>
       <use xlink:href="#DejaVuSans-34" transform="translate(286.279297 0)"/>
      </g>
     </g>
    </g>
    <g id="ytick_4">
     <g id="line2d_21">
      <path d="M 90 218.965192 
L 648 218.965192 
" clip-path="url(#pbc39eaee66)" style="fill: none; stroke: #b0b0b0; stroke-width: 0.8; stroke-linecap: square"/>
     </g>
     <g id="line2d_22">
      <g>
       <use xlink:href="#m886706f301" x="90" y="218.965192" style="stroke: #000000; stroke-width: 0.8"/>
      </g>
     </g>
     <g id="text_12">
      <!-- 0.0006 -->
      <g transform="translate(48.009375 222.76441) scale(0.1 -0.1)">
       <defs>
        <path id="DejaVuSans-36" d="M 2113 2584 
Q 1688 2584 1439 2293 
Q 1191 2003 1191 1497 
Q 1191 994 1439 701 
Q 1688 409 2113 409 
Q 2538 409 2786 701 
Q 3034 994 3034 1497 
Q 3034 2003 2786 2293 
Q 2538 2584 2113 2584 
z
M 3366 4563 
L 3366 3988 
Q 3128 4100 2886 4159 
Q 2644 4219 2406 4219 
Q 1781 4219 1451 3797 
Q 1122 3375 1075 2522 
Q 1259 2794 1537 2939 
Q 1816 3084 2150 3084 
Q 2853 3084 3261 2657 
Q 3669 2231 3669 1497 
Q 3669 778 3244 343 
Q 2819 -91 2113 -91 
Q 1303 -91 875 529 
Q 447 1150 447 2328 
Q 447 3434 972 4092 
Q 1497 4750 2381 4750 
Q 2619 4750 2861 4703 
Q 3103 4656 3366 4563 
z
" transform="scale(0.015625)"/>
       </defs>
       <use xlink:href="#DejaVuSans-30"/>
       <use xlink:href="#DejaVuSans-2e" transform="translate(63.623047 0)"/>
       <use xlink:href="#DejaVuSans-30" transform="translate(95.410156 0)"/>
       <use xlink:href="#DejaVuSans-30" transform="translate(159.033203 0)"/>
       <use xlink:href="#DejaVuSans-30" transform="translate(222.65625 0)"/>
       <use xlink:href="#DejaVuSans-36" transform="translate(286.279297 0)"/>
      </g>
     </g>
    </g>
    <g id="ytick_5">
     <g id="line2d_23">
      <path d="M 90 167.425234 
L 648 167.425234 
" clip-path="url(#pbc39eaee66)" style="fill: none; stroke: #b0b0b0; stroke-width: 0.8; stroke-linecap: square"/>
     </g>
     <g id="line2d_24">
      <g>
       <use xlink:href="#m886706f301" x="90" y="167.425234" style="stroke: #000000; stroke-width: 0.8"/>
      </g>
     </g>
     <g id="text_13">
      <!-- 0.0008 -->
      <g transform="translate(48.009375 171.224453) scale(0.1 -0.1)">
       <defs>
        <path id="DejaVuSans-38" d="M 2034 2216 
Q 1584 2216 1326 1975 
Q 1069 1734 1069 1313 
Q 1069 891 1326 650 
Q 1584 409 2034 409 
Q 2484 409 2743 651 
Q 3003 894 3003 1313 
Q 3003 1734 2745 1975 
Q 2488 2216 2034 2216 
z
M 1403 2484 
Q 997 2584 770 2862 
Q 544 3141 544 3541 
Q 544 4100 942 4425 
Q 1341 4750 2034 4750 
Q 2731 4750 3128 4425 
Q 3525 4100 3525 3541 
Q 3525 3141 3298 2862 
Q 3072 2584 2669 2484 
Q 3125 2378 3379 2068 
Q 3634 1759 3634 1313 
Q 3634 634 3220 271 
Q 2806 -91 2034 -91 
Q 1263 -91 848 271 
Q 434 634 434 1313 
Q 434 1759 690 2068 
Q 947 2378 1403 2484 
z
M 1172 3481 
Q 1172 3119 1398 2916 
Q 1625 2713 2034 2713 
Q 2441 2713 2670 2916 
Q 2900 3119 2900 3481 
Q 2900 3844 2670 4047 
Q 2441 4250 2034 4250 
Q 1625 4250 1398 4047 
Q 1172 3844 1172 3481 
z
" transform="scale(0.015625)"/>
       </defs>
       <use xlink:href="#DejaVuSans-30"/>
       <use xlink:href="#DejaVuSans-2e" transform="translate(63.623047 0)"/>
       <use xlink:href="#DejaVuSans-30" transform="translate(95.410156 0)"/>
       <use xlink:href="#DejaVuSans-30" transform="translate(159.033203 0)"/>
       <use xlink:href="#DejaVuSans-30" transform="translate(222.65625 0)"/>
       <use xlink:href="#DejaVuSans-38" transform="translate(286.279297 0)"/>
      </g>
     </g>
    </g>
    <g id="ytick_6">
     <g id="line2d_25">
      <path d="M 90 115.885277 
L 648 115.885277 
" clip-path="url(#pbc39eaee66)" style="fill: none; stroke: #b0b0b0; stroke-width: 0.8; stroke-linecap: square"/>
     </g>
     <g id="line2d_26">
      <g>
       <use xlink:href="#m886706f301" x="90" y="115.885277" style="stroke: #000000; stroke-width: 0.8"/>
      </g>
     </g>
     <g id="text_14">
      <!-- 0.0010 -->
      <g transform="translate(48.009375 119.684496) scale(0.1 -0.1)">
       <use xlink:href="#DejaVuSans-30"/>
       <use xlink:href="#DejaVuSans-2e" transform="translate(63.623047 0)"/>
       <use xlink:href="#DejaVuSans-30" transform="translate(95.410156 0)"/>
       <use xlink:href="#DejaVuSans-30" transform="translate(159.033203 0)"/>
       <use xlink:href="#DejaVuSans-31" transform="translate(222.65625 0)"/>
       <use xlink:href="#DejaVuSans-30" transform="translate(286.279297 0)"/>
      </g>
     </g>
    </g>
    <g id="ytick_7">
     <g id="line2d_27">
      <path d="M 90 64.34532 
L 648 64.34532 
" clip-path="url(#pbc39eaee66)" style="fill: none; stroke: #b0b0b0; stroke-width: 0.8; stroke-linecap: square"/>
     </g>
     <g id="line2d_28">
      <g>
       <use xlink:href="#m886706f301" x="90" y="64.34532" style="stroke: #000000; stroke-width: 0.8"/>
      </g>
     </g>
     <g id="text_15">
      <!-- 0.0012 -->
      <g transform="translate(48.009375 68.144539) scale(0.1 -0.1)">
       <use xlink:href="#DejaVuSans-30"/>
       <use xlink:href="#DejaVuSans-2e" transform="translate(63.623047 0)"/>
       <use xlink:href="#DejaVuSans-30" transform="translate(95.410156 0)"/>
       <use xlink:href="#DejaVuSans-30" transform="translate(159.033203 0)"/>
       <use xlink:href="#DejaVuSans-31" transform="translate(222.65625 0)"/>
       <use xlink:href="#DejaVuSans-32" transform="translate(286.279297 0)"/>
      </g>
     </g>
    </g>
    <g id="text_16">
     <!-- Standard Deviation -->
     <g transform="translate(41.929687 266.413125) rotate(-90) scale(0.1 -0.1)">
      <defs>
       <path id="DejaVuSans-53" d="M 3425 4513 
L 3425 3897 
Q 3066 4069 2747 4153 
Q 2428 4238 2131 4238 
Q 1616 4238 1336 4038 
Q 1056 3838 1056 3469 
Q 1056 3159 1242 3001 
Q 1428 2844 1947 2747 
L 2328 2669 
Q 3034 2534 3370 2195 
Q 3706 1856 3706 1288 
Q 3706 609 3251 259 
Q 2797 -91 1919 -91 
Q 1588 -91 1214 -16 
Q 841 59 441 206 
L 441 856 
Q 825 641 1194 531 
Q 1563 422 1919 422 
Q 2459 422 2753 634 
Q 3047 847 3047 1241 
Q 3047 1584 2836 1778 
Q 2625 1972 2144 2069 
L 1759 2144 
Q 1053 2284 737 2584 
Q 422 2884 422 3419 
Q 422 4038 858 4394 
Q 1294 4750 2059 4750 
Q 2388 4750 2728 4690 
Q 3069 4631 3425 4513 
z
" transform="scale(0.015625)"/>
       <path id="DejaVuSans-74" d="M 1172 4494 
L 1172 3500 
L 2356 3500 
L 2356 3053 
L 1172 3053 
L 1172 1153 
Q 1172 725 1289 603 
Q 1406 481 1766 481 
L 2356 481 
L 2356 0 
L 1766 0 
Q 1100 0 847 248 
Q 594 497 594 1153 
L 594 3053 
L 172 3053 
L 172 3500 
L 594 3500 
L 594 4494 
L 1172 4494 
z
" transform="scale(0.015625)"/>
       <path id="DejaVuSans-64" d="M 2906 2969 
L 2906 4863 
L 3481 4863 
L 3481 0 
L 2906 0 
L 2906 525 
Q 2725 213 2448 61 
Q 2172 -91 1784 -91 
Q 1150 -91 751 415 
Q 353 922 353 1747 
Q 353 2572 751 3078 
Q 1150 3584 1784 3584 
Q 2172 3584 2448 3432 
Q 2725 3281 2906 2969 
z
M 947 1747 
Q 947 1113 1208 752 
Q 1469 391 1925 391 
Q 2381 391 2643 752 
Q 2906 1113 2906 1747 
Q 2906 2381 2643 2742 
Q 2381 3103 1925 3103 
Q 1469 3103 1208 2742 
Q 947 2381 947 1747 
z
" transform="scale(0.015625)"/>
       <path id="DejaVuSans-44" d="M 1259 4147 
L 1259 519 
L 2022 519 
Q 2988 519 3436 956 
Q 3884 1394 3884 2338 
Q 3884 3275 3436 3711 
Q 2988 4147 2022 4147 
L 1259 4147 
z
M 628 4666 
L 1925 4666 
Q 3281 4666 3915 4102 
Q 4550 3538 4550 2338 
Q 4550 1131 3912 565 
Q 3275 0 1925 0 
L 628 0 
L 628 4666 
z
" transform="scale(0.015625)"/>
       <path id="DejaVuSans-6f" d="M 1959 3097 
Q 1497 3097 1228 2736 
Q 959 2375 959 1747 
Q 959 1119 1226 758 
Q 1494 397 1959 397 
Q 2419 397 2687 759 
Q 2956 1122 2956 1747 
Q 2956 2369 2687 2733 
Q 2419 3097 1959 3097 
z
M 1959 3584 
Q 2709 3584 3137 3096 
Q 3566 2609 3566 1747 
Q 3566 888 3137 398 
Q 2709 -91 1959 -91 
Q 1206 -91 779 398 
Q 353 888 353 1747 
Q 353 2609 779 3096 
Q 1206 3584 1959 3584 
z
" transform="scale(0.015625)"/>
      </defs>
      <use xlink:href="#DejaVuSans-53"/>
      <use xlink:href="#DejaVuSans-74" transform="translate(63.476562 0)"/>
      <use xlink:href="#DejaVuSans-61" transform="translate(102.685547 0)"/>
      <use xlink:href="#DejaVuSans-6e" transform="translate(163.964844 0)"/>
      <use xlink:href="#DejaVuSans-64" transform="translate(227.34375 0)"/>
      <use xlink:href="#DejaVuSans-61" transform="translate(290.820312 0)"/>
      <use xlink:href="#DejaVuSans-72" transform="translate(352.099609 0)"/>
      <use xlink:href="#DejaVuSans-64" transform="translate(391.462891 0)"/>
      <use xlink:href="#DejaVuSans-20" transform="translate(454.939453 0)"/>
      <use xlink:href="#DejaVuSans-44" transform="translate(486.726562 0)"/>
      <use xlink:href="#DejaVuSans-65" transform="translate(563.728516 0)"/>
      <use xlink:href="#DejaVuSans-76" transform="translate(625.251953 0)"/>
      <use xlink:href="#DejaVuSans-69" transform="translate(684.431641 0)"/>
      <use xlink:href="#DejaVuSans-61" transform="translate(712.214844 0)"/>
      <use xlink:href="#DejaVuSans-74" transform="translate(773.494141 0)"/>
      <use xlink:href="#DejaVuSans-69" transform="translate(812.703125 0)"/>
      <use xlink:href="#DejaVuSans-6f" transform="translate(840.486328 0)"/>
      <use xlink:href="#DejaVuSans-6e" transform="translate(901.667969 0)"/>
     </g>
    </g>
   </g>
   <g id="line2d_29">
    <path d="M 115.363636 248.648738 
L 115.501623 252.098168 
L 115.950079 252.127057 
L 128.88631 252.136636 
L 129.024296 271.724902 
L 129.231276 279.938619 
L 129.472752 281.778487 
L 129.783222 282.501206 
L 130.197181 282.879148 
L 130.81812 283.11976 
L 131.991005 283.299356 
L 135.30268 283.498693 
L 145.893141 283.945345 
L 145.962134 283.945345 
L 146.100121 286.45856 
L 147.204012 286.522291 
L 158.484405 286.588004 
L 164.072857 286.715939 
L 178.319959 286.805311 
L 188.220488 286.849395 
L 188.599951 322.154375 
L 188.841427 324.403232 
L 189.151896 325.335555 
L 189.531359 325.811087 
L 190.083305 326.129413 
L 190.980217 326.357375 
L 192.670551 326.520054 
L 196.051219 326.594439 
L 196.672159 326.594439 
L 196.810145 327.197474 
L 197.120615 327.260905 
L 200.639269 327.295723 
L 205.123829 327.311917 
L 205.261816 330.479423 
L 205.641278 330.776879 
L 206.296714 330.894011 
L 208.470001 330.964042 
L 213.5755 330.98775 
L 213.713486 333.605978 
L 214.506909 333.789811 
L 216.680195 333.91032 
L 225.856295 334.099381 
L 238.930512 334.161313 
L 239.068499 334.338061 
L 247.382183 334.378624 
L 247.520169 360.26329 
L 247.934129 362.189959 
L 248.313592 362.904294 
L 248.796544 363.350758 
L 249.486476 363.675007 
L 250.590368 363.925875 
L 252.556675 364.1158 
L 255.557881 364.183179 
L 255.833854 364.183179 
L 255.97184 367.15802 
L 256.454793 367.790953 
L 257.006739 368.051033 
L 258.00714 368.228141 
L 260.214924 368.345443 
L 266.941764 368.628015 
L 272.357732 368.675106 
L 272.737195 368.675106 
L 272.875182 368.82267 
L 274.703502 369.092646 
L 277.704708 369.198451 
L 284.431548 369.359577 
L 284.466044 248.648738 
L 284.569534 252.074135 
L 284.81101 252.123946 
L 289.640537 252.131966 
L 297.988718 252.136773 
L 298.126704 271.732677 
L 298.333684 279.982303 
L 298.57516 281.83369 
L 298.88563 282.561477 
L 299.299589 282.942351 
L 299.920528 283.185031 
L 301.093413 283.365919 
L 304.232605 283.550909 
L 315.064542 283.974266 
L 315.202529 286.448144 
L 316.271924 286.514992 
L 326.482922 286.581168 
L 332.450836 286.704772 
L 338.315261 286.739107 
L 357.322896 286.848229 
L 357.702359 322.166807 
L 357.943835 324.415569 
L 358.254304 325.347758 
L 358.633767 325.823166 
L 359.185713 326.141354 
L 360.082625 326.369138 
L 361.772959 326.531592 
L 365.153627 326.605896 
L 365.774566 326.605896 
L 365.912553 327.21264 
L 366.223022 327.27648 
L 369.707181 327.311044 
L 374.226237 327.326833 
L 374.364224 330.488803 
L 374.743686 330.786675 
L 375.399122 330.903659 
L 377.572409 330.972717 
L 382.677908 330.994807 
L 382.815894 333.612628 
L 383.57482 333.794516 
L 385.644617 333.913174 
L 394.751723 334.106973 
L 408.03292 334.169054 
L 408.170907 334.344235 
L 416.484591 334.383565 
L 416.622577 360.265564 
L 417.036537 362.192204 
L 417.416 362.90658 
L 417.898952 363.353124 
L 418.588884 363.677503 
L 419.692776 363.928585 
L 421.659083 364.118855 
L 424.660289 364.186437 
L 424.936262 364.186437 
L 425.074248 367.158276 
L 425.557201 367.791648 
L 426.109147 368.051922 
L 427.109548 368.229195 
L 429.317332 368.346674 
L 441.839603 368.675754 
L 441.97759 368.823184 
L 443.80591 369.093084 
L 446.807116 369.198873 
L 453.533956 369.36 
L 453.568452 331.3462 
L 453.671942 331.459285 
L 453.913418 331.611731 
L 454.672344 331.666226 
L 460.743748 331.684349 
L 467.091125 331.685958 
L 467.298105 332.751209 
L 467.539581 333.172978 
L 467.953541 333.312991 
L 469.160922 333.385201 
L 475.439306 333.407505 
L 484.16695 333.411463 
L 484.304936 333.56528 
L 485.374332 333.73897 
L 488.54802 333.798866 
L 492.618621 333.813088 
L 492.756607 336.709873 
L 493.205063 337.163369 
L 493.791506 337.331167 
L 495.205867 337.444444 
L 499.75942 337.516024 
L 501.070291 337.516024 
L 501.208278 337.711385 
L 517.973633 337.83465 
L 518.111619 338.073099 
L 526.425304 338.101591 
L 526.597787 341.942166 
L 526.839263 344.615289 
L 527.115236 345.3932 
L 527.494699 345.765978 
L 528.081141 345.987667 
L 529.21953 346.136337 
L 531.944762 346.215978 
L 535.083954 346.354147 
L 535.73939 346.414863 
L 540.810392 346.44996 
L 543.604618 346.558031 
L 544.225557 346.712359 
L 545.846898 346.801982 
L 551.780316 346.843902 
L 551.918302 347.199669 
L 553.332664 347.333135 
L 558.16219 347.465309 
L 585.586999 347.855345 
L 585.724985 360.302323 
L 586.173441 362.209758 
L 586.587401 362.913239 
L 587.10485 363.345763 
L 587.863775 363.667707 
L 589.071157 363.912859 
L 591.244444 364.096719 
L 594.03867 364.139491 
L 594.176656 367.178875 
L 594.659609 367.809267 
L 595.211555 368.066342 
L 596.211956 368.241185 
L 598.454236 368.358499 
L 610.942011 368.670625 
L 611.079998 368.822056 
L 612.873822 369.089799 
L 615.806034 369.195522 
L 622.636364 369.354274 
L 622.636364 369.354274 
" clip-path="url(#pbc39eaee66)" style="fill: none; stroke: #ff0000; stroke-width: 1.5; stroke-linecap: square"/>
   </g>
   <g id="line2d_30">
    <path d="M 115.363636 248.648738 
L 115.501623 252.098168 
L 115.950079 252.127057 
L 128.88631 252.13121 
L 129.024296 271.522689 
L 129.231276 278.912167 
L 129.438255 280.157279 
L 129.679732 280.483075 
L 130.059194 280.531822 
L 130.61114 280.637263 
L 131.473556 281.112892 
L 132.646441 281.662951 
L 133.957312 282.009657 
L 135.889122 282.269577 
L 139.235294 282.466619 
L 145.341195 282.581049 
L 145.962134 282.581049 
L 146.100121 286.416511 
L 147.066026 286.485536 
L 153.861859 286.51468 
L 171.317146 286.605499 
L 171.489629 286.644727 
L 188.220488 286.677883 
L 188.634447 322.402425 
L 188.875923 324.261616 
L 189.186393 325.08991 
L 189.600352 325.55121 
L 190.186795 325.841276 
L 191.1527 326.040593 
L 192.877531 326.146089 
L 196.672159 326.191871 
L 196.810145 326.683825 
L 197.603567 326.717928 
L 205.123829 326.77105 
L 205.261816 329.753834 
L 205.641278 330.059011 
L 206.262218 330.163949 
L 208.538994 330.22114 
L 208.573491 66.96 
L 208.676981 68.146561 
L 210.022349 96.621361 
L 210.712281 104.595645 
L 211.471206 110.860042 
L 211.850669 112.914297 
L 213.5755 112.914297 
L 213.713486 113.289898 
L 214.196439 113.704473 
L 214.851875 113.847976 
L 216.542209 113.925518 
L 222.027171 113.937224 
L 222.199654 114.617358 
L 222.7516 117.404373 
L 223.648512 121.218268 
L 224.614417 124.375387 
L 225.649315 127.015763 
L 226.753207 129.243721 
L 227.960589 131.18877 
L 228.754011 132.170782 
L 230.478841 132.170782 
L 230.616828 138.454453 
L 231.375753 141.838484 
L 231.893203 142.92649 
L 232.445149 143.596491 
L 233.100584 144.051372 
L 233.928503 144.349414 
L 235.101388 144.518805 
L 237.309171 144.568523 
L 238.930512 144.568523 
L 239.068499 152.086213 
L 239.689438 156.850216 
L 240.17239 158.641113 
L 240.724336 159.849381 
L 241.379772 160.736998 
L 242.138697 161.391436 
L 242.759636 161.687756 
L 244.415474 162.080352 
L 246.036815 162.263858 
L 247.382183 162.263858 
L 247.520169 336.44317 
L 247.899632 342.353821 
L 248.244598 344.275411 
L 248.658558 345.350309 
L 249.14151 346.012197 
L 249.762449 346.483688 
L 250.590368 346.823467 
L 251.832246 347.069846 
L 253.902043 347.223443 
L 255.833854 347.228894 
L 255.97184 360.803368 
L 256.3858 362.01886 
L 256.799759 362.476826 
L 257.386201 362.771075 
L 258.386603 362.997706 
L 260.35291 363.178824 
L 263.802572 363.263076 
L 265.699886 363.374083 
L 269.873976 363.41803 
L 272.737195 363.421665 
L 272.875182 363.735859 
L 274.462026 364.033718 
L 277.014775 364.175872 
L 281.188866 364.227069 
L 281.326852 367.336823 
L 281.878798 367.851274 
L 282.534234 368.0828 
L 283.776112 368.249043 
L 284.431548 368.290919 
L 284.466044 248.648738 
L 284.569534 252.074138 
L 284.81101 252.123949 
L 289.640537 252.131977 
L 297.988718 252.136788 
L 298.126704 271.733042 
L 298.333684 279.9823 
L 298.57516 281.833425 
L 298.88563 282.561302 
L 299.299589 282.942481 
L 299.920528 283.185712 
L 301.093413 283.367621 
L 304.232605 283.554045 
L 315.064542 283.974178 
L 315.202529 286.446799 
L 316.271924 286.51393 
L 326.482922 286.580726 
L 332.450836 286.704694 
L 338.315261 286.738852 
L 357.322896 286.847216 
L 357.702359 322.166435 
L 357.943835 324.415263 
L 358.254304 325.347479 
L 358.633767 325.822902 
L 359.185713 326.141099 
L 360.082625 326.368889 
L 361.772959 326.531338 
L 365.153627 326.605612 
L 365.774566 326.605612 
L 365.912553 327.211967 
L 366.223022 327.27576 
L 369.707181 327.310314 
L 374.226237 327.326196 
L 374.364224 330.488523 
L 374.743686 330.786422 
L 375.399122 330.903448 
L 377.572409 330.972622 
L 382.677908 330.994889 
L 382.815894 333.612895 
L 383.57482 333.794585 
L 385.644617 333.913307 
L 394.751723 334.106894 
L 408.03292 334.168934 
L 408.170907 334.344372 
L 416.484591 334.383827 
L 416.622577 360.265592 
L 417.036537 362.192252 
L 417.416 362.906635 
L 417.898952 363.353181 
L 418.588884 363.677556 
L 419.692776 363.928625 
L 421.659083 364.118866 
L 424.660289 364.186426 
L 424.936262 364.186426 
L 425.074248 367.158312 
L 425.557201 367.791661 
L 426.109147 368.051927 
L 427.109548 368.229194 
L 429.317332 368.346667 
L 441.839603 368.675765 
L 441.97759 368.823184 
L 443.80591 369.093072 
L 446.807116 369.198853 
L 453.533956 369.359991 
L 453.568452 331.345861 
L 453.671942 331.45066 
L 453.947915 331.598934 
L 454.91382 331.647763 
L 464.08992 331.662491 
L 467.091125 331.662814 
L 467.298105 332.725988 
L 467.539581 333.14626 
L 467.953541 333.285631 
L 469.160922 333.35714 
L 475.542796 333.379065 
L 484.16695 333.383934 
L 484.304936 333.5389 
L 485.374332 333.712617 
L 488.54802 333.772678 
L 492.618621 333.787046 
L 492.756607 336.689011 
L 493.205063 337.143809 
L 493.791506 337.312367 
L 495.205867 337.426322 
L 499.75942 337.498752 
L 501.070291 337.498752 
L 501.208278 337.695806 
L 517.973633 337.819974 
L 518.111619 338.060638 
L 526.425304 338.08946 
L 526.597787 341.938728 
L 526.839263 344.618123 
L 527.115236 345.398478 
L 527.494699 345.772532 
L 528.081141 345.995008 
L 529.21953 346.144202 
L 531.944762 346.224087 
L 535.083954 346.361962 
L 535.73939 346.422516 
L 540.844889 346.457626 
L 543.604618 346.565325 
L 544.225557 346.719364 
L 545.846898 346.808815 
L 551.780316 346.850667 
L 551.918302 347.205691 
L 553.332664 347.338857 
L 558.16219 347.470828 
L 585.586999 347.860357 
L 585.724985 360.303039 
L 586.173441 362.209641 
L 586.587401 362.912837 
L 587.10485 363.345199 
L 587.863775 363.667041 
L 589.071157 363.912141 
L 591.244444 364.096008 
L 594.03867 364.138795 
L 594.176656 367.178671 
L 594.659609 367.809176 
L 595.211555 368.066283 
L 596.211956 368.241142 
L 598.454236 368.358464 
L 610.942011 368.670642 
L 611.079998 368.822057 
L 612.873822 369.089782 
L 615.806034 369.195496 
L 622.636364 369.354262 
L 622.636364 369.354262 
" clip-path="url(#pbc39eaee66)" style="fill: none; stroke-dasharray: 5.55,2.4; stroke-dashoffset: 0; stroke: #0000ff; stroke-width: 1.5"/>
   </g>
   <g id="patch_3">
    <path d="M 90 384.48 
L 90 51.84 
" style="fill: none; stroke: #000000; stroke-width: 0.8; stroke-linejoin: miter; stroke-linecap: square"/>
   </g>
   <g id="patch_4">
    <path d="M 648 384.48 
L 648 51.84 
" style="fill: none; stroke: #000000; stroke-width: 0.8; stroke-linejoin: miter; stroke-linecap: square"/>
   </g>
   <g id="patch_5">
    <path d="M 90 384.48 
L 648 384.48 
" style="fill: none; stroke: #000000; stroke-width: 0.8; stroke-linejoin: miter; stroke-linecap: square"/>
   </g>
   <g id="patch_6">
    <path d="M 90 51.84 
L 648 51.84 
" style="fill: none; stroke: #000000; stroke-width: 0.8; stroke-linejoin: miter; stroke-linecap: square"/>
   </g>
   <g id="text_17">
    <!-- Uncertainty Convergence for dKa_yx (Index 22) -->
    <g transform="translate(226.345313 45.84) scale(0.12 -0.12)">
     <defs>
      <path id="DejaVuSans-55" d="M 556 4666 
L 1191 4666 
L 1191 1831 
Q 1191 1081 1462 751 
Q 1734 422 2344 422 
Q 2950 422 3222 751 
Q 3494 1081 3494 1831 
L 3494 4666 
L 4128 4666 
L 4128 1753 
Q 4128 841 3676 375 
Q 3225 -91 2344 -91 
Q 1459 -91 1007 375 
Q 556 841 556 1753 
L 556 4666 
z
" transform="scale(0.015625)"/>
      <path id="DejaVuSans-63" d="M 3122 3366 
L 3122 2828 
Q 2878 2963 2633 3030 
Q 2388 3097 2138 3097 
Q 1578 3097 1268 2742 
Q 959 2388 959 1747 
Q 959 1106 1268 751 
Q 1578 397 2138 397 
Q 2388 397 2633 464 
Q 2878 531 3122 666 
L 3122 134 
Q 2881 22 2623 -34 
Q 2366 -91 2075 -91 
Q 1284 -91 818 406 
Q 353 903 353 1747 
Q 353 2603 823 3093 
Q 1294 3584 2113 3584 
Q 2378 3584 2631 3529 
Q 2884 3475 3122 3366 
z
" transform="scale(0.015625)"/>
      <path id="DejaVuSans-79" d="M 2059 -325 
Q 1816 -950 1584 -1140 
Q 1353 -1331 966 -1331 
L 506 -1331 
L 506 -850 
L 844 -850 
Q 1081 -850 1212 -737 
Q 1344 -625 1503 -206 
L 1606 56 
L 191 3500 
L 800 3500 
L 1894 763 
L 2988 3500 
L 3597 3500 
L 2059 -325 
z
" transform="scale(0.015625)"/>
      <path id="DejaVuSans-43" d="M 4122 4306 
L 4122 3641 
Q 3803 3938 3442 4084 
Q 3081 4231 2675 4231 
Q 1875 4231 1450 3742 
Q 1025 3253 1025 2328 
Q 1025 1406 1450 917 
Q 1875 428 2675 428 
Q 3081 428 3442 575 
Q 3803 722 4122 1019 
L 4122 359 
Q 3791 134 3420 21 
Q 3050 -91 2638 -91 
Q 1578 -91 968 557 
Q 359 1206 359 2328 
Q 359 3453 968 4101 
Q 1578 4750 2638 4750 
Q 3056 4750 3426 4639 
Q 3797 4528 4122 4306 
z
" transform="scale(0.015625)"/>
      <path id="DejaVuSans-67" d="M 2906 1791 
Q 2906 2416 2648 2759 
Q 2391 3103 1925 3103 
Q 1463 3103 1205 2759 
Q 947 2416 947 1791 
Q 947 1169 1205 825 
Q 1463 481 1925 481 
Q 2391 481 2648 825 
Q 2906 1169 2906 1791 
z
M 3481 434 
Q 3481 -459 3084 -895 
Q 2688 -1331 1869 -1331 
Q 1566 -1331 1297 -1286 
Q 1028 -1241 775 -1147 
L 775 -588 
Q 1028 -725 1275 -790 
Q 1522 -856 1778 -856 
Q 2344 -856 2625 -561 
Q 2906 -266 2906 331 
L 2906 616 
Q 2728 306 2450 153 
Q 2172 0 1784 0 
Q 1141 0 747 490 
Q 353 981 353 1791 
Q 353 2603 747 3093 
Q 1141 3584 1784 3584 
Q 2172 3584 2450 3431 
Q 2728 3278 2906 2969 
L 2906 3500 
L 3481 3500 
L 3481 434 
z
" transform="scale(0.015625)"/>
      <path id="DejaVuSans-66" d="M 2375 4863 
L 2375 4384 
L 1825 4384 
Q 1516 4384 1395 4259 
Q 1275 4134 1275 3809 
L 1275 3500 
L 2222 3500 
L 2222 3053 
L 1275 3053 
L 1275 0 
L 697 0 
L 697 3053 
L 147 3053 
L 147 3500 
L 697 3500 
L 697 3744 
Q 697 4328 969 4595 
Q 1241 4863 1831 4863 
L 2375 4863 
z
" transform="scale(0.015625)"/>
      <path id="DejaVuSans-4b" d="M 628 4666 
L 1259 4666 
L 1259 2694 
L 3353 4666 
L 4166 4666 
L 1850 2491 
L 4331 0 
L 3500 0 
L 1259 2247 
L 1259 0 
L 628 0 
L 628 4666 
z
" transform="scale(0.015625)"/>
      <path id="DejaVuSans-5f" d="M 3263 -1063 
L 3263 -1509 
L -63 -1509 
L -63 -1063 
L 3263 -1063 
z
" transform="scale(0.015625)"/>
      <path id="DejaVuSans-78" d="M 3513 3500 
L 2247 1797 
L 3578 0 
L 2900 0 
L 1881 1375 
L 863 0 
L 184 0 
L 1544 1831 
L 300 3500 
L 978 3500 
L 1906 2253 
L 2834 3500 
L 3513 3500 
z
" transform="scale(0.015625)"/>
      <path id="DejaVuSans-49" d="M 628 4666 
L 1259 4666 
L 1259 0 
L 628 0 
L 628 4666 
z
" transform="scale(0.015625)"/>
     </defs>
     <use xlink:href="#DejaVuSans-55"/>
     <use xlink:href="#DejaVuSans-6e" transform="translate(73.193359 0)"/>
     <use xlink:href="#DejaVuSans-63" transform="translate(136.572266 0)"/>
     <use xlink:href="#DejaVuSans-65" transform="translate(191.552734 0)"/>
     <use xlink:href="#DejaVuSans-72" transform="translate(253.076172 0)"/>
     <use xlink:href="#DejaVuSans-74" transform="translate(294.189453 0)"/>
     <use xlink:href="#DejaVuSans-61" transform="translate(333.398438 0)"/>
     <use xlink:href="#DejaVuSans-69" transform="translate(394.677734 0)"/>
     <use xlink:href="#DejaVuSans-6e" transform="translate(422.460938 0)"/>
     <use xlink:href="#DejaVuSans-74" transform="translate(485.839844 0)"/>
     <use xlink:href="#DejaVuSans-79" transform="translate(525.048828 0)"/>
     <use xlink:href="#DejaVuSans-20" transform="translate(584.228516 0)"/>
     <use xlink:href="#DejaVuSans-43" transform="translate(616.015625 0)"/>
     <use xlink:href="#DejaVuSans-6f" transform="translate(685.839844 0)"/>
     <use xlink:href="#DejaVuSans-6e" transform="translate(747.021484 0)"/>
     <use xlink:href="#DejaVuSans-76" transform="translate(810.400391 0)"/>
     <use xlink:href="#DejaVuSans-65" transform="translate(869.580078 0)"/>
     <use xlink:href="#DejaVuSans-72" transform="translate(931.103516 0)"/>
     <use xlink:href="#DejaVuSans-67" transform="translate(970.466797 0)"/>
     <use xlink:href="#DejaVuSans-65" transform="translate(1033.943359 0)"/>
     <use xlink:href="#DejaVuSans-6e" transform="translate(1095.466797 0)"/>
     <use xlink:href="#DejaVuSans-63" transform="translate(1158.845703 0)"/>
     <use xlink:href="#DejaVuSans-65" transform="translate(1213.826172 0)"/>
     <use xlink:href="#DejaVuSans-20" transform="translate(1275.349609 0)"/>
     <use xlink:href="#DejaVuSans-66" transform="translate(1307.136719 0)"/>
     <use xlink:href="#DejaVuSans-6f" transform="translate(1342.341797 0)"/>
     <use xlink:href="#DejaVuSans-72" transform="translate(1403.523438 0)"/>
     <use xlink:href="#DejaVuSans-20" transform="translate(1444.636719 0)"/>
     <use xlink:href="#DejaVuSans-64" transform="translate(1476.423828 0)"/>
     <use xlink:href="#DejaVuSans-4b" transform="translate(1539.900391 0)"/>
     <use xlink:href="#DejaVuSans-61" transform="translate(1603.726562 0)"/>
     <use xlink:href="#DejaVuSans-5f" transform="translate(1665.005859 0)"/>
     <use xlink:href="#DejaVuSans-79" transform="translate(1715.005859 0)"/>
     <use xlink:href="#DejaVuSans-78" transform="translate(1774.185547 0)"/>
     <use xlink:href="#DejaVuSans-20" transform="translate(1833.365234 0)"/>
     <use xlink:href="#DejaVuSans-28" transform="translate(1865.152344 0)"/>
     <use xlink:href="#DejaVuSans-49" transform="translate(1904.166016 0)"/>
     <use xlink:href="#DejaVuSans-6e" transform="translate(1933.658203 0)"/>
     <use xlink:href="#DejaVuSans-64" transform="translate(1997.037109 0)"/>
     <use xlink:href="#DejaVuSans-65" transform="translate(2060.513672 0)"/>
     <use xlink:href="#DejaVuSans-78" transform="translate(2120.287109 0)"/>
     <use xlink:href="#DejaVuSans-20" transform="translate(2179.466797 0)"/>
     <use xlink:href="#DejaVuSans-32" transform="translate(2211.253906 0)"/>
     <use xlink:href="#DejaVuSans-32" transform="translate(2274.876953 0)"/>
     <use xlink:href="#DejaVuSans-29" transform="translate(2338.5 0)"/>
    </g>
   </g>
   <g id="legend_1">
    <g id="patch_7">
     <path d="M 478.453125 89.19625 
L 641 89.19625 
Q 643 89.19625 643 87.19625 
L 643 58.84 
Q 643 56.84 641 56.84 
L 478.453125 56.84 
Q 476.453125 56.84 476.453125 58.84 
L 476.453125 87.19625 
Q 476.453125 89.19625 478.453125 89.19625 
z
" style="fill: #ffffff; opacity: 0.8; stroke: #cccccc; stroke-linejoin: miter"/>
    </g>
    <g id="line2d_31">
     <path d="M 480.453125 64.938437 
L 490.453125 64.938437 
L 500.453125 64.938437 
" style="fill: none; stroke: #ff0000; stroke-width: 1.5; stroke-linecap: square"/>
    </g>
    <g id="text_18">
     <!-- Baseline KF -->
     <g transform="translate(508.453125 68.438437) scale(0.1 -0.1)">
      <defs>
       <path id="DejaVuSans-42" d="M 1259 2228 
L 1259 519 
L 2272 519 
Q 2781 519 3026 730 
Q 3272 941 3272 1375 
Q 3272 1813 3026 2020 
Q 2781 2228 2272 2228 
L 1259 2228 
z
M 1259 4147 
L 1259 2741 
L 2194 2741 
Q 2656 2741 2882 2914 
Q 3109 3088 3109 3444 
Q 3109 3797 2882 3972 
Q 2656 4147 2194 4147 
L 1259 4147 
z
M 628 4666 
L 2241 4666 
Q 2963 4666 3353 4366 
Q 3744 4066 3744 3513 
Q 3744 3084 3544 2831 
Q 3344 2578 2956 2516 
Q 3422 2416 3680 2098 
Q 3938 1781 3938 1306 
Q 3938 681 3513 340 
Q 3088 0 2303 0 
L 628 0 
L 628 4666 
z
" transform="scale(0.015625)"/>
       <path id="DejaVuSans-6c" d="M 603 4863 
L 1178 4863 
L 1178 0 
L 603 0 
L 603 4863 
z
" transform="scale(0.015625)"/>
       <path id="DejaVuSans-46" d="M 628 4666 
L 3309 4666 
L 3309 4134 
L 1259 4134 
L 1259 2759 
L 3109 2759 
L 3109 2228 
L 1259 2228 
L 1259 0 
L 628 0 
L 628 4666 
z
" transform="scale(0.015625)"/>
      </defs>
      <use xlink:href="#DejaVuSans-42"/>
      <use xlink:href="#DejaVuSans-61" transform="translate(68.603516 0)"/>
      <use xlink:href="#DejaVuSans-73" transform="translate(129.882812 0)"/>
      <use xlink:href="#DejaVuSans-65" transform="translate(181.982422 0)"/>
      <use xlink:href="#DejaVuSans-6c" transform="translate(243.505859 0)"/>
      <use xlink:href="#DejaVuSans-69" transform="translate(271.289062 0)"/>
      <use xlink:href="#DejaVuSans-6e" transform="translate(299.072266 0)"/>
      <use xlink:href="#DejaVuSans-65" transform="translate(362.451172 0)"/>
      <use xlink:href="#DejaVuSans-20" transform="translate(423.974609 0)"/>
      <use xlink:href="#DejaVuSans-4b" transform="translate(455.761719 0)"/>
      <use xlink:href="#DejaVuSans-46" transform="translate(521.337891 0)"/>
     </g>
    </g>
    <g id="line2d_32">
     <path d="M 480.453125 79.616562 
L 490.453125 79.616562 
L 500.453125 79.616562 
" style="fill: none; stroke-dasharray: 5.55,2.4; stroke-dashoffset: 0; stroke: #0000ff; stroke-width: 1.5"/>
    </g>
    <g id="text_19">
     <!-- Shadow KF (LLM Assisted) -->
     <g transform="translate(508.453125 83.116562) scale(0.1 -0.1)">
      <defs>
       <path id="DejaVuSans-68" d="M 3513 2113 
L 3513 0 
L 2938 0 
L 2938 2094 
Q 2938 2591 2744 2837 
Q 2550 3084 2163 3084 
Q 1697 3084 1428 2787 
Q 1159 2491 1159 1978 
L 1159 0 
L 581 0 
L 581 4863 
L 1159 4863 
L 1159 2956 
Q 1366 3272 1645 3428 
Q 1925 3584 2291 3584 
Q 2894 3584 3203 3211 
Q 3513 2838 3513 2113 
z
" transform="scale(0.015625)"/>
       <path id="DejaVuSans-77" d="M 269 3500 
L 844 3500 
L 1563 769 
L 2278 3500 
L 2956 3500 
L 3675 769 
L 4391 3500 
L 4966 3500 
L 4050 0 
L 3372 0 
L 2619 2869 
L 1863 0 
L 1184 0 
L 269 3500 
z
" transform="scale(0.015625)"/>
       <path id="DejaVuSans-4c" d="M 628 4666 
L 1259 4666 
L 1259 531 
L 3531 531 
L 3531 0 
L 628 0 
L 628 4666 
z
" transform="scale(0.015625)"/>
       <path id="DejaVuSans-41" d="M 2188 4044 
L 1331 1722 
L 3047 1722 
L 2188 4044 
z
M 1831 4666 
L 2547 4666 
L 4325 0 
L 3669 0 
L 3244 1197 
L 1141 1197 
L 716 0 
L 50 0 
L 1831 4666 
z
" transform="scale(0.015625)"/>
      </defs>
      <use xlink:href="#DejaVuSans-53"/>
      <use xlink:href="#DejaVuSans-68" transform="translate(63.476562 0)"/>
      <use xlink:href="#DejaVuSans-61" transform="translate(126.855469 0)"/>
      <use xlink:href="#DejaVuSans-64" transform="translate(188.134766 0)"/>
      <use xlink:href="#DejaVuSans-6f" transform="translate(251.611328 0)"/>
      <use xlink:href="#DejaVuSans-77" transform="translate(312.792969 0)"/>
      <use xlink:href="#DejaVuSans-20" transform="translate(394.580078 0)"/>
      <use xlink:href="#DejaVuSans-4b" transform="translate(426.367188 0)"/>
      <use xlink:href="#DejaVuSans-46" transform="translate(491.943359 0)"/>
      <use xlink:href="#DejaVuSans-20" transform="translate(549.462891 0)"/>
      <use xlink:href="#DejaVuSans-28" transform="translate(581.25 0)"/>
      <use xlink:href="#DejaVuSans-4c" transform="translate(620.263672 0)"/>
      <use xlink:href="#DejaVuSans-4c" transform="translate(675.976562 0)"/>
      <use xlink:href="#DejaVuSans-4d" transform="translate(731.689453 0)"/>
      <use xlink:href="#DejaVuSans-20" transform="translate(817.96875 0)"/>
      <use xlink:href="#DejaVuSans-41" transform="translate(849.755859 0)"/>
      <use xlink:href="#DejaVuSans-73" transform="translate(918.164062 0)"/>
      <use xlink:href="#DejaVuSans-73" transform="translate(970.263672 0)"/>
      <use xlink:href="#DejaVuSans-69" transform="translate(1022.363281 0)"/>
      <use xlink:href="#DejaVuSans-73" transform="translate(1050.146484 0)"/>
      <use xlink:href="#DejaVuSans-74" transform="translate(1102.246094 0)"/>
      <use xlink:href="#DejaVuSans-65" transform="translate(1141.455078 0)"/>
      <use xlink:href="#DejaVuSans-64" transform="translate(1202.978516 0)"/>
      <use xlink:href="#DejaVuSans-29" transform="translate(1266.455078 0)"/>
     </g>
    </g>
   </g>
  </g>
 </g>
 <defs>
  <clipPath id="pbc39eaee66">
   <rect x="90" y="51.84" width="558" height="332.64"/>
  </clipPath>
 </defs>
</svg>
