<?xml version="1.0" encoding="utf-8" standalone="no"?>
<!DOCTYPE svg PUBLIC "-//W3C//DTD SVG 1.1//EN"
  "http://www.w3.org/Graphics/SVG/1.1/DTD/svg11.dtd">
<svg xmlns:xlink="http://www.w3.org/1999/xlink" width="1584pt" height="576pt" viewBox="0 0 1584 576" xmlns="http://www.w3.org/2000/svg" version="1.1">
 <metadata>
  <rdf:RDF xmlns:dc="http://purl.org/dc/elements/1.1/" xmlns:cc="http://creativecommons.org/ns#" xmlns:rdf="http://www.w3.org/1999/02/22-rdf-syntax-ns#">
   <cc:Work>
    <dc:type rdf:resource="http://purl.org/dc/dcmitype/StillImage"/>
    <dc:date>2026-03-04T17:20:22.700867</dc:date>
    <dc:format>image/svg+xml</dc:format>
    <dc:creator>
     <cc:Agent>
      <dc:title>Matplotlib v3.10.8, https://matplotlib.org/</dc:title>
     </cc:Agent>
    </dc:creator>
   </cc:Work>
  </rdf:RDF>
 </metadata>
 <defs>
  <style type="text/css">*{stroke-linejoin: round; stroke-linecap: butt}</style>
 </defs>
 <g id="figure_1">
  <g id="patch_1">
   <path d="M 0 576 
L 1584 576 
L 1584 0 
L 0 0 
z
" style="fill: #ffffff"/>
  </g>
  <g id="axes_1">
   <g id="patch_2">
    <path d="M 55.772054 532.09185 
L 1573.2 532.09185 
L 1573.2 26.88 
L 55.772054 26.88 
z
" style="fill: #ffffff"/>
   </g>
   <g id="patch_3">
    <path d="M 124.746051 100922.847538 
L 135.961336 100922.847538 
L 135.961336 176.35218 
L 124.746051 176.35218 
z
" clip-path="url(#p4258e75f7f)" style="fill: #4682b4; opacity: 0.85"/>
   </g>
   <g id="patch_4">
    <path d="M 169.607188 100922.847538 
L 180.822472 100922.847538 
L 180.822472 209.885976 
L 169.607188 209.885976 
z
" clip-path="url(#p4258e75f7f)" style="fill: #4682b4; opacity: 0.85"/>
   </g>
   <g id="patch_5">
    <path d="M 214.468325 100922.847538 
L 225.683609 100922.847538 
L 225.683609 245.99765 
L 214.468325 245.99765 
z
" clip-path="url(#p4258e75f7f)" style="fill: #4682b4; opacity: 0.85"/>
   </g>
   <g id="patch_6">
    <path d="M 259.329461 100922.847538 
L 270.544745 100922.847538 
L 270.544745 369.2163 
L 259.329461 369.2163 
z
" clip-path="url(#p4258e75f7f)" style="fill: #4682b4; opacity: 0.85"/>
   </g>
   <g id="patch_7">
    <path d="M 304.190598 100922.847538 
L 315.405882 100922.847538 
L 315.405882 413.696971 
L 304.190598 413.696971 
z
" clip-path="url(#p4258e75f7f)" style="fill: #4682b4; opacity: 0.85"/>
   </g>
   <g id="patch_8">
    <path d="M 349.051735 100922.847538 
L 360.267019 100922.847538 
L 360.267019 412.415599 
L 349.051735 412.415599 
z
" clip-path="url(#p4258e75f7f)" style="fill: #4682b4; opacity: 0.85"/>
   </g>
   <g id="patch_9">
    <path d="M 393.912871 100922.847538 
L 405.128155 100922.847538 
L 405.128155 274.884826 
L 393.912871 274.884826 
z
" clip-path="url(#p4258e75f7f)" style="fill: #4682b4; opacity: 0.85"/>
   </g>
   <g id="patch_10">
    <path d="M 438.774008 100922.847538 
L 449.989292 100922.847538 
L 449.989292 333.59646 
L 438.774008 333.59646 
z
" clip-path="url(#p4258e75f7f)" style="fill: #4682b4; opacity: 0.85"/>
   </g>
   <g id="patch_11">
    <path d="M 483.635144 100922.847538 
L 494.850429 100922.847538 
L 494.850429 350.300873 
L 483.635144 350.300873 
z
" clip-path="url(#p4258e75f7f)" style="fill: #4682b4; opacity: 0.85"/>
   </g>
   <g id="patch_12">
    <path d="M 528.496281 100922.847538 
L 539.711565 100922.847538 
L 539.711565 311.810543 
L 528.496281 311.810543 
z
" clip-path="url(#p4258e75f7f)" style="fill: #4682b4; opacity: 0.85"/>
   </g>
   <g id="patch_13">
    <path d="M 573.357418 100922.847538 
L 584.572702 100922.847538 
L 584.572702 286.3867 
L 573.357418 286.3867 
z
" clip-path="url(#p4258e75f7f)" style="fill: #4682b4; opacity: 0.85"/>
   </g>
   <g id="patch_14">
    <path d="M 618.218554 100922.847538 
L 629.433838 100922.847538 
L 629.433838 472.370426 
L 618.218554 472.370426 
z
" clip-path="url(#p4258e75f7f)" style="fill: #4682b4; opacity: 0.85"/>
   </g>
   <g id="patch_15">
    <path d="M 663.079691 100922.847538 
L 674.294975 100922.847538 
L 674.294975 356.336313 
L 663.079691 356.336313 
z
" clip-path="url(#p4258e75f7f)" style="fill: #4682b4; opacity: 0.85"/>
   </g>
   <g id="patch_16">
    <path d="M 707.940827 100922.847538 
L 719.156112 100922.847538 
L 719.156112 417.463026 
L 707.940827 417.463026 
z
" clip-path="url(#p4258e75f7f)" style="fill: #4682b4; opacity: 0.85"/>
   </g>
   <g id="patch_17">
    <path d="M 752.801964 100922.847538 
L 764.017248 100922.847538 
L 764.017248 309.720179 
L 752.801964 309.720179 
z
" clip-path="url(#p4258e75f7f)" style="fill: #4682b4; opacity: 0.85"/>
   </g>
   <g id="patch_18">
    <path d="M 797.663101 100922.847538 
L 808.878385 100922.847538 
L 808.878385 222.793194 
L 797.663101 222.793194 
z
" clip-path="url(#p4258e75f7f)" style="fill: #4682b4; opacity: 0.85"/>
   </g>
   <g id="patch_19">
    <path d="M 842.524237 100922.847538 
L 853.739521 100922.847538 
L 853.739521 280.583872 
L 842.524237 280.583872 
z
" clip-path="url(#p4258e75f7f)" style="fill: #4682b4; opacity: 0.85"/>
   </g>
   <g id="patch_20">
    <path d="M 887.385374 100922.847538 
L 898.600658 100922.847538 
L 898.600658 314.150593 
L 887.385374 314.150593 
z
" clip-path="url(#p4258e75f7f)" style="fill: #4682b4; opacity: 0.85"/>
   </g>
   <g id="patch_21">
    <path d="M 932.246511 100922.847538 
L 943.461795 100922.847538 
L 943.461795 245.208024 
L 932.246511 245.208024 
z
" clip-path="url(#p4258e75f7f)" style="fill: #4682b4; opacity: 0.85"/>
   </g>
   <g id="patch_22">
    <path d="M 977.107647 100922.847538 
L 988.322931 100922.847538 
L 988.322931 366.487922 
L 977.107647 366.487922 
z
" clip-path="url(#p4258e75f7f)" style="fill: #4682b4; opacity: 0.85"/>
   </g>
   <g id="patch_23">
    <path d="M 1021.968784 100922.847538 
L 1033.184068 100922.847538 
L 1033.184068 268.44226 
L 1021.968784 268.44226 
z
" clip-path="url(#p4258e75f7f)" style="fill: #4682b4; opacity: 0.85"/>
   </g>
   <g id="patch_24">
    <path d="M 1066.82992 100922.847538 
L 1078.045205 100922.847538 
L 1078.045205 260.325173 
L 1066.82992 260.325173 
z
" clip-path="url(#p4258e75f7f)" style="fill: #4682b4; opacity: 0.85"/>
   </g>
   <g id="patch_25">
    <path d="M 1111.691057 100922.847538 
L 1122.906341 100922.847538 
L 1122.906341 287.548553 
L 1111.691057 287.548553 
z
" clip-path="url(#p4258e75f7f)" style="fill: #4682b4; opacity: 0.85"/>
   </g>
   <g id="patch_26">
    <path d="M 1156.552194 100922.847538 
L 1167.767478 100922.847538 
L 1167.767478 288.798801 
L 1156.552194 288.798801 
z
" clip-path="url(#p4258e75f7f)" style="fill: #4682b4; opacity: 0.85"/>
   </g>
   <g id="patch_27">
    <path d="M 1201.41333 100922.847538 
L 1212.628614 100922.847538 
L 1212.628614 49.844175 
L 1201.41333 49.844175 
z
" clip-path="url(#p4258e75f7f)" style="fill: #4682b4; opacity: 0.85"/>
   </g>
   <g id="patch_28">
    <path d="M 1246.274467 100922.847538 
L 1257.489751 100922.847538 
L 1257.489751 64.733285 
L 1246.274467 64.733285 
z
" clip-path="url(#p4258e75f7f)" style="fill: #4682b4; opacity: 0.85"/>
   </g>
   <g id="patch_29">
    <path d="M 1291.135604 100922.847538 
L 1302.350888 100922.847538 
L 1302.350888 71.415365 
L 1291.135604 71.415365 
z
" clip-path="url(#p4258e75f7f)" style="fill: #4682b4; opacity: 0.85"/>
   </g>
   <g id="patch_30">
    <path d="M 1335.99674 100922.847538 
L 1347.212024 100922.847538 
L 1347.212024 110.928216 
L 1335.99674 110.928216 
z
" clip-path="url(#p4258e75f7f)" style="fill: #4682b4; opacity: 0.85"/>
   </g>
   <g id="patch_31">
    <path d="M 1380.857877 100922.847538 
L 1392.073161 100922.847538 
L 1392.073161 104.366803 
L 1380.857877 104.366803 
z
" clip-path="url(#p4258e75f7f)" style="fill: #4682b4; opacity: 0.85"/>
   </g>
   <g id="patch_32">
    <path d="M 1425.719013 100922.847538 
L 1436.934298 100922.847538 
L 1436.934298 101.743642 
L 1425.719013 101.743642 
z
" clip-path="url(#p4258e75f7f)" style="fill: #4682b4; opacity: 0.85"/>
   </g>
   <g id="patch_33">
    <path d="M 1470.58015 100922.847538 
L 1481.795434 100922.847538 
L 1481.795434 509.127675 
L 1470.58015 509.127675 
z
" clip-path="url(#p4258e75f7f)" style="fill: #4682b4; opacity: 0.85"/>
   </g>
   <g id="patch_34">
    <path d="M 135.961336 100922.847538 
L 147.17662 100922.847538 
L 147.17662 162.353275 
L 135.961336 162.353275 
z
" clip-path="url(#p4258e75f7f)" style="fill: #ff6347; opacity: 0.85"/>
   </g>
   <g id="patch_35">
    <path d="M 180.822472 100922.847538 
L 192.037756 100922.847538 
L 192.037756 205.050144 
L 180.822472 205.050144 
z
" clip-path="url(#p4258e75f7f)" style="fill: #ff6347; opacity: 0.85"/>
   </g>
   <g id="patch_36">
    <path d="M 225.683609 100922.847538 
L 236.898893 100922.847538 
L 236.898893 178.174032 
L 225.683609 178.174032 
z
" clip-path="url(#p4258e75f7f)" style="fill: #ff6347; opacity: 0.85"/>
   </g>
   <g id="patch_37">
    <path d="M 270.544745 100922.847538 
L 281.76003 100922.847538 
L 281.76003 231.466665 
L 270.544745 231.466665 
z
" clip-path="url(#p4258e75f7f)" style="fill: #ff6347; opacity: 0.85"/>
   </g>
   <g id="patch_38">
    <path d="M 315.405882 100922.847538 
L 326.621166 100922.847538 
L 326.621166 217.556732 
L 315.405882 217.556732 
z
" clip-path="url(#p4258e75f7f)" style="fill: #ff6347; opacity: 0.85"/>
   </g>
   <g id="patch_39">
    <path d="M 360.267019 100922.847538 
L 371.482303 100922.847538 
L 371.482303 184.635286 
L 360.267019 184.635286 
z
" clip-path="url(#p4258e75f7f)" style="fill: #ff6347; opacity: 0.85"/>
   </g>
   <g id="patch_40">
    <path d="M 405.128155 100922.847538 
L 416.343439 100922.847538 
L 416.343439 82.717479 
L 405.128155 82.717479 
z
" clip-path="url(#p4258e75f7f)" style="fill: #ff6347; opacity: 0.85"/>
   </g>
   <g id="patch_41">
    <path d="M 449.989292 100922.847538 
L 461.204576 100922.847538 
L 461.204576 190.379221 
L 449.989292 190.379221 
z
" clip-path="url(#p4258e75f7f)" style="fill: #ff6347; opacity: 0.85"/>
   </g>
   <g id="patch_42">
    <path d="M 494.850429 100922.847538 
L 506.065713 100922.847538 
L 506.065713 207.16586 
L 494.850429 207.16586 
z
" clip-path="url(#p4258e75f7f)" style="fill: #ff6347; opacity: 0.85"/>
   </g>
   <g id="patch_43">
    <path d="M 539.711565 100922.847538 
L 550.926849 100922.847538 
L 550.926849 142.472143 
L 539.711565 142.472143 
z
" clip-path="url(#p4258e75f7f)" style="fill: #ff6347; opacity: 0.85"/>
   </g>
   <g id="patch_44">
    <path d="M 584.572702 100922.847538 
L 595.787986 100922.847538 
L 595.787986 132.268675 
L 584.572702 132.268675 
z
" clip-path="url(#p4258e75f7f)" style="fill: #ff6347; opacity: 0.85"/>
   </g>
   <g id="patch_45">
    <path d="M 629.433838 100922.847538 
L 640.649123 100922.847538 
L 640.649123 259.056364 
L 629.433838 259.056364 
z
" clip-path="url(#p4258e75f7f)" style="fill: #ff6347; opacity: 0.85"/>
   </g>
   <g id="patch_46">
    <path d="M 674.294975 100922.847538 
L 685.510259 100922.847538 
L 685.510259 195.519171 
L 674.294975 195.519171 
z
" clip-path="url(#p4258e75f7f)" style="fill: #ff6347; opacity: 0.85"/>
   </g>
   <g id="patch_47">
    <path d="M 719.156112 100922.847538 
L 730.371396 100922.847538 
L 730.371396 231.283433 
L 719.156112 231.283433 
z
" clip-path="url(#p4258e75f7f)" style="fill: #ff6347; opacity: 0.85"/>
   </g>
   <g id="patch_48">
    <path d="M 764.017248 100922.847538 
L 775.232532 100922.847538 
L 775.232532 157.949488 
L 764.017248 157.949488 
z
" clip-path="url(#p4258e75f7f)" style="fill: #ff6347; opacity: 0.85"/>
   </g>
   <g id="patch_49">
    <path d="M 808.878385 100922.847538 
L 820.093669 100922.847538 
L 820.093669 117.913722 
L 808.878385 117.913722 
z
" clip-path="url(#p4258e75f7f)" style="fill: #ff6347; opacity: 0.85"/>
   </g>
   <g id="patch_50">
    <path d="M 853.739521 100922.847538 
L 864.954806 100922.847538 
L 864.954806 249.161622 
L 853.739521 249.161622 
z
" clip-path="url(#p4258e75f7f)" style="fill: #ff6347; opacity: 0.85"/>
   </g>
   <g id="patch_51">
    <path d="M 898.600658 100922.847538 
L 909.815942 100922.847538 
L 909.815942 171.578434 
L 898.600658 171.578434 
z
" clip-path="url(#p4258e75f7f)" style="fill: #ff6347; opacity: 0.85"/>
   </g>
   <g id="patch_52">
    <path d="M 943.461795 100922.847538 
L 954.677079 100922.847538 
L 954.677079 213.965925 
L 943.461795 213.965925 
z
" clip-path="url(#p4258e75f7f)" style="fill: #ff6347; opacity: 0.85"/>
   </g>
   <g id="patch_53">
    <path d="M 988.322931 100922.847538 
L 999.538216 100922.847538 
L 999.538216 233.398144 
L 988.322931 233.398144 
z
" clip-path="url(#p4258e75f7f)" style="fill: #ff6347; opacity: 0.85"/>
   </g>
   <g id="patch_54">
    <path d="M 1033.184068 100922.847538 
L 1044.399352 100922.847538 
L 1044.399352 160.697169 
L 1033.184068 160.697169 
z
" clip-path="url(#p4258e75f7f)" style="fill: #ff6347; opacity: 0.85"/>
   </g>
   <g id="patch_55">
    <path d="M 1078.045205 100922.847538 
L 1089.260489 100922.847538 
L 1089.260489 113.478498 
L 1078.045205 113.478498 
z
" clip-path="url(#p4258e75f7f)" style="fill: #ff6347; opacity: 0.85"/>
   </g>
   <g id="patch_56">
    <path d="M 1122.906341 100922.847538 
L 1134.121625 100922.847538 
L 1134.121625 144.400189 
L 1122.906341 144.400189 
z
" clip-path="url(#p4258e75f7f)" style="fill: #ff6347; opacity: 0.85"/>
   </g>
   <g id="patch_57">
    <path d="M 1167.767478 100922.847538 
L 1178.982762 100922.847538 
L 1178.982762 126.96846 
L 1167.767478 126.96846 
z
" clip-path="url(#p4258e75f7f)" style="fill: #ff6347; opacity: 0.85"/>
   </g>
   <g id="patch_58">
    <path d="M 1212.628614 100922.847538 
L 1223.843899 100922.847538 
L 1223.843899 50.089463 
L 1212.628614 50.089463 
z
" clip-path="url(#p4258e75f7f)" style="fill: #ff6347; opacity: 0.85"/>
   </g>
   <g id="patch_59">
    <path d="M 1257.489751 100922.847538 
L 1268.705035 100922.847538 
L 1268.705035 61.17559 
L 1257.489751 61.17559 
z
" clip-path="url(#p4258e75f7f)" style="fill: #ff6347; opacity: 0.85"/>
   </g>
   <g id="patch_60">
    <path d="M 1302.350888 100922.847538 
L 1313.566172 100922.847538 
L 1313.566172 72.271217 
L 1302.350888 72.271217 
z
" clip-path="url(#p4258e75f7f)" style="fill: #ff6347; opacity: 0.85"/>
   </g>
   <g id="patch_61">
    <path d="M 1347.212024 100922.847538 
L 1358.427308 100922.847538 
L 1358.427308 107.266351 
L 1347.212024 107.266351 
z
" clip-path="url(#p4258e75f7f)" style="fill: #ff6347; opacity: 0.85"/>
   </g>
   <g id="patch_62">
    <path d="M 1392.073161 100922.847538 
L 1403.288445 100922.847538 
L 1403.288445 103.70608 
L 1392.073161 103.70608 
z
" clip-path="url(#p4258e75f7f)" style="fill: #ff6347; opacity: 0.85"/>
   </g>
   <g id="patch_63">
    <path d="M 1436.934298 100922.847538 
L 1448.149582 100922.847538 
L 1448.149582 100.386814 
L 1436.934298 100.386814 
z
" clip-path="url(#p4258e75f7f)" style="fill: #ff6347; opacity: 0.85"/>
   </g>
   <g id="patch_64">
    <path d="M 1481.795434 100922.847538 
L 1493.010718 100922.847538 
L 1493.010718 342.967387 
L 1481.795434 342.967387 
z
" clip-path="url(#p4258e75f7f)" style="fill: #ff6347; opacity: 0.85"/>
   </g>
   <g id="patch_65">
    <path d="M 147.17662 100922.847538 
L 158.391904 100922.847538 
L 158.391904 156.611753 
L 147.17662 156.611753 
z
" clip-path="url(#p4258e75f7f)" style="fill: #228b22; opacity: 0.85"/>
   </g>
   <g id="patch_66">
    <path d="M 192.037756 100922.847538 
L 203.253041 100922.847538 
L 203.253041 197.884539 
L 192.037756 197.884539 
z
" clip-path="url(#p4258e75f7f)" style="fill: #228b22; opacity: 0.85"/>
   </g>
   <g id="patch_67">
    <path d="M 236.898893 100922.847538 
L 248.114177 100922.847538 
L 248.114177 176.469441 
L 236.898893 176.469441 
z
" clip-path="url(#p4258e75f7f)" style="fill: #228b22; opacity: 0.85"/>
   </g>
   <g id="patch_68">
    <path d="M 281.76003 100922.847538 
L 292.975314 100922.847538 
L 292.975314 195.19812 
L 281.76003 195.19812 
z
" clip-path="url(#p4258e75f7f)" style="fill: #228b22; opacity: 0.85"/>
   </g>
   <g id="patch_69">
    <path d="M 326.621166 100922.847538 
L 337.83645 100922.847538 
L 337.83645 197.517413 
L 326.621166 197.517413 
z
" clip-path="url(#p4258e75f7f)" style="fill: #228b22; opacity: 0.85"/>
   </g>
   <g id="patch_70">
    <path d="M 371.482303 100922.847538 
L 382.697587 100922.847538 
L 382.697587 182.090318 
L 371.482303 182.090318 
z
" clip-path="url(#p4258e75f7f)" style="fill: #228b22; opacity: 0.85"/>
   </g>
   <g id="patch_71">
    <path d="M 416.343439 100922.847538 
L 427.558724 100922.847538 
L 427.558724 81.496483 
L 416.343439 81.496483 
z
" clip-path="url(#p4258e75f7f)" style="fill: #228b22; opacity: 0.85"/>
   </g>
   <g id="patch_72">
    <path d="M 461.204576 100922.847538 
L 472.41986 100922.847538 
L 472.41986 210.640925 
L 461.204576 210.640925 
z
" clip-path="url(#p4258e75f7f)" style="fill: #228b22; opacity: 0.85"/>
   </g>
   <g id="patch_73">
    <path d="M 506.065713 100922.847538 
L 517.280997 100922.847538 
L 517.280997 206.3008 
L 506.065713 206.3008 
z
" clip-path="url(#p4258e75f7f)" style="fill: #228b22; opacity: 0.85"/>
   </g>
   <g id="patch_74">
    <path d="M 550.926849 100922.847538 
L 562.142133 100922.847538 
L 562.142133 141.193132 
L 550.926849 141.193132 
z
" clip-path="url(#p4258e75f7f)" style="fill: #228b22; opacity: 0.85"/>
   </g>
   <g id="patch_75">
    <path d="M 595.787986 100922.847538 
L 607.00327 100922.847538 
L 607.00327 127.523267 
L 595.787986 127.523267 
z
" clip-path="url(#p4258e75f7f)" style="fill: #228b22; opacity: 0.85"/>
   </g>
   <g id="patch_76">
    <path d="M 640.649123 100922.847538 
L 651.864407 100922.847538 
L 651.864407 265.302444 
L 640.649123 265.302444 
z
" clip-path="url(#p4258e75f7f)" style="fill: #228b22; opacity: 0.85"/>
   </g>
   <g id="patch_77">
    <path d="M 685.510259 100922.847538 
L 696.725543 100922.847538 
L 696.725543 197.28539 
L 685.510259 197.28539 
z
" clip-path="url(#p4258e75f7f)" style="fill: #228b22; opacity: 0.85"/>
   </g>
   <g id="patch_78">
    <path d="M 730.371396 100922.847538 
L 741.58668 100922.847538 
L 741.58668 230.95886 
L 730.371396 230.95886 
z
" clip-path="url(#p4258e75f7f)" style="fill: #228b22; opacity: 0.85"/>
   </g>
   <g id="patch_79">
    <path d="M 775.232532 100922.847538 
L 786.447817 100922.847538 
L 786.447817 140.124086 
L 775.232532 140.124086 
z
" clip-path="url(#p4258e75f7f)" style="fill: #228b22; opacity: 0.85"/>
   </g>
   <g id="patch_80">
    <path d="M 820.093669 100922.847538 
L 831.308953 100922.847538 
L 831.308953 120.199652 
L 820.093669 120.199652 
z
" clip-path="url(#p4258e75f7f)" style="fill: #228b22; opacity: 0.85"/>
   </g>
   <g id="patch_81">
    <path d="M 864.954806 100922.847538 
L 876.17009 100922.847538 
L 876.17009 175.771158 
L 864.954806 175.771158 
z
" clip-path="url(#p4258e75f7f)" style="fill: #228b22; opacity: 0.85"/>
   </g>
   <g id="patch_82">
    <path d="M 909.815942 100922.847538 
L 921.031226 100922.847538 
L 921.031226 171.147086 
L 909.815942 171.147086 
z
" clip-path="url(#p4258e75f7f)" style="fill: #228b22; opacity: 0.85"/>
   </g>
   <g id="patch_83">
    <path d="M 954.677079 100922.847538 
L 965.892363 100922.847538 
L 965.892363 198.436814 
L 954.677079 198.436814 
z
" clip-path="url(#p4258e75f7f)" style="fill: #228b22; opacity: 0.85"/>
   </g>
   <g id="patch_84">
    <path d="M 999.538216 100922.847538 
L 1010.7535 100922.847538 
L 1010.7535 237.867286 
L 999.538216 237.867286 
z
" clip-path="url(#p4258e75f7f)" style="fill: #228b22; opacity: 0.85"/>
   </g>
   <g id="patch_85">
    <path d="M 1044.399352 100922.847538 
L 1055.614636 100922.847538 
L 1055.614636 156.021014 
L 1044.399352 156.021014 
z
" clip-path="url(#p4258e75f7f)" style="fill: #228b22; opacity: 0.85"/>
   </g>
   <g id="patch_86">
    <path d="M 1089.260489 100922.847538 
L 1100.475773 100922.847538 
L 1100.475773 104.518418 
L 1089.260489 104.518418 
z
" clip-path="url(#p4258e75f7f)" style="fill: #228b22; opacity: 0.85"/>
   </g>
   <g id="patch_87">
    <path d="M 1134.121625 100922.847538 
L 1145.33691 100922.847538 
L 1145.33691 129.6539 
L 1134.121625 129.6539 
z
" clip-path="url(#p4258e75f7f)" style="fill: #228b22; opacity: 0.85"/>
   </g>
   <g id="patch_88">
    <path d="M 1178.982762 100922.847538 
L 1190.198046 100922.847538 
L 1190.198046 122.679766 
L 1178.982762 122.679766 
z
" clip-path="url(#p4258e75f7f)" style="fill: #228b22; opacity: 0.85"/>
   </g>
   <g id="patch_89">
    <path d="M 1223.843899 100922.847538 
L 1235.059183 100922.847538 
L 1235.059183 49.867971 
L 1223.843899 49.867971 
z
" clip-path="url(#p4258e75f7f)" style="fill: #228b22; opacity: 0.85"/>
   </g>
   <g id="patch_90">
    <path d="M 1268.705035 100922.847538 
L 1279.920319 100922.847538 
L 1279.920319 60.755906 
L 1268.705035 60.755906 
z
" clip-path="url(#p4258e75f7f)" style="fill: #228b22; opacity: 0.85"/>
   </g>
   <g id="patch_91">
    <path d="M 1313.566172 100922.847538 
L 1324.781456 100922.847538 
L 1324.781456 72.485928 
L 1313.566172 72.485928 
z
" clip-path="url(#p4258e75f7f)" style="fill: #228b22; opacity: 0.85"/>
   </g>
   <g id="patch_92">
    <path d="M 1358.427308 100922.847538 
L 1369.642593 100922.847538 
L 1369.642593 106.130258 
L 1358.427308 106.130258 
z
" clip-path="url(#p4258e75f7f)" style="fill: #228b22; opacity: 0.85"/>
   </g>
   <g id="patch_93">
    <path d="M 1403.288445 100922.847538 
L 1414.503729 100922.847538 
L 1414.503729 103.568284 
L 1403.288445 103.568284 
z
" clip-path="url(#p4258e75f7f)" style="fill: #228b22; opacity: 0.85"/>
   </g>
   <g id="patch_94">
    <path d="M 1448.149582 100922.847538 
L 1459.364866 100922.847538 
L 1459.364866 100.478377 
L 1448.149582 100.478377 
z
" clip-path="url(#p4258e75f7f)" style="fill: #228b22; opacity: 0.85"/>
   </g>
   <g id="patch_95">
    <path d="M 1493.010718 100922.847538 
L 1504.226002 100922.847538 
L 1504.226002 340.761632 
L 1493.010718 340.761632 
z
" clip-path="url(#p4258e75f7f)" style="fill: #228b22; opacity: 0.85"/>
   </g>
   <g id="matplotlib.axis_1">
    <g id="xtick_1">
     <g id="line2d_1">
      <defs>
       <path id="me4efd4f92b" d="M 0 0 
L 0 3.5 
" style="stroke: #000000; stroke-width: 0.8"/>
      </defs>
      <g>
       <use xlink:href="#me4efd4f92b" x="141.568978" y="532.09185" style="stroke: #000000; stroke-width: 0.8"/>
      </g>
     </g>
     <g id="text_1">
      <!-- eb_x -->
      <g transform="translate(126.986668 556.638705) rotate(-45) scale(0.08 -0.08)">
       <defs>
        <path id="DejaVuSans-65" d="M 3597 1894 
L 3597 1613 
L 953 1613 
Q 991 1019 1311 708 
Q 1631 397 2203 397 
Q 2534 397 2845 478 
Q 3156 559 3463 722 
L 3463 178 
Q 3153 47 2828 -22 
Q 2503 -91 2169 -91 
Q 1331 -91 842 396 
Q 353 884 353 1716 
Q 353 2575 817 3079 
Q 1281 3584 2069 3584 
Q 2775 3584 3186 3129 
Q 3597 2675 3597 1894 
z
M 3022 2063 
Q 3016 2534 2758 2815 
Q 2500 3097 2075 3097 
Q 1594 3097 1305 2825 
Q 1016 2553 972 2059 
L 3022 2063 
z
" transform="scale(0.015625)"/>
        <path id="DejaVuSans-62" d="M 3116 1747 
Q 3116 2381 2855 2742 
Q 2594 3103 2138 3103 
Q 1681 3103 1420 2742 
Q 1159 2381 1159 1747 
Q 1159 1113 1420 752 
Q 1681 391 2138 391 
Q 2594 391 2855 752 
Q 3116 1113 3116 1747 
z
M 1159 2969 
Q 1341 3281 1617 3432 
Q 1894 3584 2278 3584 
Q 2916 3584 3314 3078 
Q 3713 2572 3713 1747 
Q 3713 922 3314 415 
Q 2916 -91 2278 -91 
Q 1894 -91 1617 61 
Q 1341 213 1159 525 
L 1159 0 
L 581 0 
L 581 4863 
L 1159 4863 
L 1159 2969 
z
" transform="scale(0.015625)"/>
        <path id="DejaVuSans-5f" d="M 3263 -1063 
L 3263 -1509 
L -63 -1509 
L -63 -1063 
L 3263 -1063 
z
" transform="scale(0.015625)"/>
        <path id="DejaVuSans-78" d="M 3513 3500 
L 2247 1797 
L 3578 0 
L 2900 0 
L 1881 1375 
L 863 0 
L 184 0 
L 1544 1831 
L 300 3500 
L 978 3500 
L 1906 2253 
L 2834 3500 
L 3513 3500 
z
" transform="scale(0.015625)"/>
       </defs>
       <use xlink:href="#DejaVuSans-65"/>
       <use xlink:href="#DejaVuSans-62" transform="translate(61.523438 0)"/>
       <use xlink:href="#DejaVuSans-5f" transform="translate(125 0)"/>
       <use xlink:href="#DejaVuSans-78" transform="translate(175 0)"/>
      </g>
     </g>
    </g>
    <g id="xtick_2">
     <g id="line2d_2">
      <g>
       <use xlink:href="#me4efd4f92b" x="186.430114" y="532.09185" style="stroke: #000000; stroke-width: 0.8"/>
      </g>
     </g>
     <g id="text_2">
      <!-- eb_y -->
      <g transform="translate(171.847805 556.638705) rotate(-45) scale(0.08 -0.08)">
       <defs>
        <path id="DejaVuSans-79" d="M 2059 -325 
Q 1816 -950 1584 -1140 
Q 1353 -1331 966 -1331 
L 506 -1331 
L 506 -850 
L 844 -850 
Q 1081 -850 1212 -737 
Q 1344 -625 1503 -206 
L 1606 56 
L 191 3500 
L 800 3500 
L 1894 763 
L 2988 3500 
L 3597 3500 
L 2059 -325 
z
" transform="scale(0.015625)"/>
       </defs>
       <use xlink:href="#DejaVuSans-65"/>
       <use xlink:href="#DejaVuSans-62" transform="translate(61.523438 0)"/>
       <use xlink:href="#DejaVuSans-5f" transform="translate(125 0)"/>
       <use xlink:href="#DejaVuSans-79" transform="translate(175 0)"/>
      </g>
     </g>
    </g>
    <g id="xtick_3">
     <g id="line2d_3">
      <g>
       <use xlink:href="#me4efd4f92b" x="231.291251" y="532.09185" style="stroke: #000000; stroke-width: 0.8"/>
      </g>
     </g>
     <g id="text_3">
      <!-- eb_z -->
      <g transform="translate(217.088127 556.259519) rotate(-45) scale(0.08 -0.08)">
       <defs>
        <path id="DejaVuSans-7a" d="M 353 3500 
L 3084 3500 
L 3084 2975 
L 922 459 
L 3084 459 
L 3084 0 
L 275 0 
L 275 525 
L 2438 3041 
L 353 3041 
L 353 3500 
z
" transform="scale(0.015625)"/>
       </defs>
       <use xlink:href="#DejaVuSans-65"/>
       <use xlink:href="#DejaVuSans-62" transform="translate(61.523438 0)"/>
       <use xlink:href="#DejaVuSans-5f" transform="translate(125 0)"/>
       <use xlink:href="#DejaVuSans-7a" transform="translate(175 0)"/>
      </g>
     </g>
    </g>
    <g id="xtick_4">
     <g id="line2d_4">
      <g>
       <use xlink:href="#me4efd4f92b" x="276.152388" y="532.09185" style="stroke: #000000; stroke-width: 0.8"/>
      </g>
     </g>
     <g id="text_4">
      <!-- db_x -->
      <g transform="translate(261.459593 556.74919) rotate(-45) scale(0.08 -0.08)">
       <defs>
        <path id="DejaVuSans-64" d="M 2906 2969 
L 2906 4863 
L 3481 4863 
L 3481 0 
L 2906 0 
L 2906 525 
Q 2725 213 2448 61 
Q 2172 -91 1784 -91 
Q 1150 -91 751 415 
Q 353 922 353 1747 
Q 353 2572 751 3078 
Q 1150 3584 1784 3584 
Q 2172 3584 2448 3432 
Q 2725 3281 2906 2969 
z
M 947 1747 
Q 947 1113 1208 752 
Q 1469 391 1925 391 
Q 2381 391 2643 752 
Q 2906 1113 2906 1747 
Q 2906 2381 2643 2742 
Q 2381 3103 1925 3103 
Q 1469 3103 1208 2742 
Q 947 2381 947 1747 
z
" transform="scale(0.015625)"/>
       </defs>
       <use xlink:href="#DejaVuSans-64"/>
       <use xlink:href="#DejaVuSans-62" transform="translate(63.476562 0)"/>
       <use xlink:href="#DejaVuSans-5f" transform="translate(126.953125 0)"/>
       <use xlink:href="#DejaVuSans-78" transform="translate(176.953125 0)"/>
      </g>
     </g>
    </g>
    <g id="xtick_5">
     <g id="line2d_5">
      <g>
       <use xlink:href="#me4efd4f92b" x="321.013524" y="532.09185" style="stroke: #000000; stroke-width: 0.8"/>
      </g>
     </g>
     <g id="text_5">
      <!-- db_y -->
      <g transform="translate(306.320729 556.74919) rotate(-45) scale(0.08 -0.08)">
       <use xlink:href="#DejaVuSans-64"/>
       <use xlink:href="#DejaVuSans-62" transform="translate(63.476562 0)"/>
       <use xlink:href="#DejaVuSans-5f" transform="translate(126.953125 0)"/>
       <use xlink:href="#DejaVuSans-79" transform="translate(176.953125 0)"/>
      </g>
     </g>
    </g>
    <g id="xtick_6">
     <g id="line2d_6">
      <g>
       <use xlink:href="#me4efd4f92b" x="365.874661" y="532.09185" style="stroke: #000000; stroke-width: 0.8"/>
      </g>
     </g>
     <g id="text_6">
      <!-- db_z -->
      <g transform="translate(351.561052 556.370004) rotate(-45) scale(0.08 -0.08)">
       <use xlink:href="#DejaVuSans-64"/>
       <use xlink:href="#DejaVuSans-62" transform="translate(63.476562 0)"/>
       <use xlink:href="#DejaVuSans-5f" transform="translate(126.953125 0)"/>
       <use xlink:href="#DejaVuSans-7a" transform="translate(176.953125 0)"/>
      </g>
     </g>
    </g>
    <g id="xtick_7">
     <g id="line2d_7">
      <g>
       <use xlink:href="#me4efd4f92b" x="410.735797" y="532.09185" style="stroke: #000000; stroke-width: 0.8"/>
      </g>
     </g>
     <g id="text_7">
      <!-- dKg_xx -->
      <g transform="translate(388.985193 563.807) rotate(-45) scale(0.08 -0.08)">
       <defs>
        <path id="DejaVuSans-4b" d="M 628 4666 
L 1259 4666 
L 1259 2694 
L 3353 4666 
L 4166 4666 
L 1850 2491 
L 4331 0 
L 3500 0 
L 1259 2247 
L 1259 0 
L 628 0 
L 628 4666 
z
" transform="scale(0.015625)"/>
        <path id="DejaVuSans-67" d="M 2906 1791 
Q 2906 2416 2648 2759 
Q 2391 3103 1925 3103 
Q 1463 3103 1205 2759 
Q 947 2416 947 1791 
Q 947 1169 1205 825 
Q 1463 481 1925 481 
Q 2391 481 2648 825 
Q 2906 1169 2906 1791 
z
M 3481 434 
Q 3481 -459 3084 -895 
Q 2688 -1331 1869 -1331 
Q 1566 -1331 1297 -1286 
Q 1028 -1241 775 -1147 
L 775 -588 
Q 1028 -725 1275 -790 
Q 1522 -856 1778 -856 
Q 2344 -856 2625 -561 
Q 2906 -266 2906 331 
L 2906 616 
Q 2728 306 2450 153 
Q 2172 0 1784 0 
Q 1141 0 747 490 
Q 353 981 353 1791 
Q 353 2603 747 3093 
Q 1141 3584 1784 3584 
Q 2172 3584 2450 3431 
Q 2728 3278 2906 2969 
L 2906 3500 
L 3481 3500 
L 3481 434 
z
" transform="scale(0.015625)"/>
       </defs>
       <use xlink:href="#DejaVuSans-64"/>
       <use xlink:href="#DejaVuSans-4b" transform="translate(63.476562 0)"/>
       <use xlink:href="#DejaVuSans-67" transform="translate(129.052734 0)"/>
       <use xlink:href="#DejaVuSans-5f" transform="translate(192.529297 0)"/>
       <use xlink:href="#DejaVuSans-78" transform="translate(242.529297 0)"/>
       <use xlink:href="#DejaVuSans-78" transform="translate(301.708984 0)"/>
      </g>
     </g>
    </g>
    <g id="xtick_8">
     <g id="line2d_8">
      <g>
       <use xlink:href="#me4efd4f92b" x="455.596934" y="532.09185" style="stroke: #000000; stroke-width: 0.8"/>
      </g>
     </g>
     <g id="text_8">
      <!-- dKg_yx -->
      <g transform="translate(433.846329 563.807) rotate(-45) scale(0.08 -0.08)">
       <use xlink:href="#DejaVuSans-64"/>
       <use xlink:href="#DejaVuSans-4b" transform="translate(63.476562 0)"/>
       <use xlink:href="#DejaVuSans-67" transform="translate(129.052734 0)"/>
       <use xlink:href="#DejaVuSans-5f" transform="translate(192.529297 0)"/>
       <use xlink:href="#DejaVuSans-79" transform="translate(242.529297 0)"/>
       <use xlink:href="#DejaVuSans-78" transform="translate(301.708984 0)"/>
      </g>
     </g>
    </g>
    <g id="xtick_9">
     <g id="line2d_9">
      <g>
       <use xlink:href="#me4efd4f92b" x="500.458071" y="532.09185" style="stroke: #000000; stroke-width: 0.8"/>
      </g>
     </g>
     <g id="text_9">
      <!-- dKg_zx -->
      <g transform="translate(479.086652 563.427814) rotate(-45) scale(0.08 -0.08)">
       <use xlink:href="#DejaVuSans-64"/>
       <use xlink:href="#DejaVuSans-4b" transform="translate(63.476562 0)"/>
       <use xlink:href="#DejaVuSans-67" transform="translate(129.052734 0)"/>
       <use xlink:href="#DejaVuSans-5f" transform="translate(192.529297 0)"/>
       <use xlink:href="#DejaVuSans-7a" transform="translate(242.529297 0)"/>
       <use xlink:href="#DejaVuSans-78" transform="translate(295.019531 0)"/>
      </g>
     </g>
    </g>
    <g id="xtick_10">
     <g id="line2d_10">
      <g>
       <use xlink:href="#me4efd4f92b" x="545.319207" y="532.09185" style="stroke: #000000; stroke-width: 0.8"/>
      </g>
     </g>
     <g id="text_10">
      <!-- dKg_xy -->
      <g transform="translate(523.568603 563.807) rotate(-45) scale(0.08 -0.08)">
       <use xlink:href="#DejaVuSans-64"/>
       <use xlink:href="#DejaVuSans-4b" transform="translate(63.476562 0)"/>
       <use xlink:href="#DejaVuSans-67" transform="translate(129.052734 0)"/>
       <use xlink:href="#DejaVuSans-5f" transform="translate(192.529297 0)"/>
       <use xlink:href="#DejaVuSans-78" transform="translate(242.529297 0)"/>
       <use xlink:href="#DejaVuSans-79" transform="translate(301.708984 0)"/>
      </g>
     </g>
    </g>
    <g id="xtick_11">
     <g id="line2d_11">
      <g>
       <use xlink:href="#me4efd4f92b" x="590.180344" y="532.09185" style="stroke: #000000; stroke-width: 0.8"/>
      </g>
     </g>
     <g id="text_11">
      <!-- dKg_yy -->
      <g transform="translate(568.429739 563.807) rotate(-45) scale(0.08 -0.08)">
       <use xlink:href="#DejaVuSans-64"/>
       <use xlink:href="#DejaVuSans-4b" transform="translate(63.476562 0)"/>
       <use xlink:href="#DejaVuSans-67" transform="translate(129.052734 0)"/>
       <use xlink:href="#DejaVuSans-5f" transform="translate(192.529297 0)"/>
       <use xlink:href="#DejaVuSans-79" transform="translate(242.529297 0)"/>
       <use xlink:href="#DejaVuSans-79" transform="translate(301.708984 0)"/>
      </g>
     </g>
    </g>
    <g id="xtick_12">
     <g id="line2d_12">
      <g>
       <use xlink:href="#me4efd4f92b" x="635.04148" y="532.09185" style="stroke: #000000; stroke-width: 0.8"/>
      </g>
     </g>
     <g id="text_12">
      <!-- dKg_zy -->
      <g transform="translate(613.670062 563.427814) rotate(-45) scale(0.08 -0.08)">
       <use xlink:href="#DejaVuSans-64"/>
       <use xlink:href="#DejaVuSans-4b" transform="translate(63.476562 0)"/>
       <use xlink:href="#DejaVuSans-67" transform="translate(129.052734 0)"/>
       <use xlink:href="#DejaVuSans-5f" transform="translate(192.529297 0)"/>
       <use xlink:href="#DejaVuSans-7a" transform="translate(242.529297 0)"/>
       <use xlink:href="#DejaVuSans-79" transform="translate(295.019531 0)"/>
      </g>
     </g>
    </g>
    <g id="xtick_13">
     <g id="line2d_13">
      <g>
       <use xlink:href="#me4efd4f92b" x="679.902617" y="532.09185" style="stroke: #000000; stroke-width: 0.8"/>
      </g>
     </g>
     <g id="text_13">
      <!-- dKg_xz -->
      <g transform="translate(658.531199 563.427814) rotate(-45) scale(0.08 -0.08)">
       <use xlink:href="#DejaVuSans-64"/>
       <use xlink:href="#DejaVuSans-4b" transform="translate(63.476562 0)"/>
       <use xlink:href="#DejaVuSans-67" transform="translate(129.052734 0)"/>
       <use xlink:href="#DejaVuSans-5f" transform="translate(192.529297 0)"/>
       <use xlink:href="#DejaVuSans-78" transform="translate(242.529297 0)"/>
       <use xlink:href="#DejaVuSans-7a" transform="translate(301.708984 0)"/>
      </g>
     </g>
    </g>
    <g id="xtick_14">
     <g id="line2d_14">
      <g>
       <use xlink:href="#me4efd4f92b" x="724.763754" y="532.09185" style="stroke: #000000; stroke-width: 0.8"/>
      </g>
     </g>
     <g id="text_14">
      <!-- dKg_yz -->
      <g transform="translate(703.392335 563.427814) rotate(-45) scale(0.08 -0.08)">
       <use xlink:href="#DejaVuSans-64"/>
       <use xlink:href="#DejaVuSans-4b" transform="translate(63.476562 0)"/>
       <use xlink:href="#DejaVuSans-67" transform="translate(129.052734 0)"/>
       <use xlink:href="#DejaVuSans-5f" transform="translate(192.529297 0)"/>
       <use xlink:href="#DejaVuSans-79" transform="translate(242.529297 0)"/>
       <use xlink:href="#DejaVuSans-7a" transform="translate(301.708984 0)"/>
      </g>
     </g>
    </g>
    <g id="xtick_15">
     <g id="line2d_15">
      <g>
       <use xlink:href="#me4efd4f92b" x="769.62489" y="532.09185" style="stroke: #000000; stroke-width: 0.8"/>
      </g>
     </g>
     <g id="text_15">
      <!-- dKg_zz -->
      <g transform="translate(748.632658 563.048628) rotate(-45) scale(0.08 -0.08)">
       <use xlink:href="#DejaVuSans-64"/>
       <use xlink:href="#DejaVuSans-4b" transform="translate(63.476562 0)"/>
       <use xlink:href="#DejaVuSans-67" transform="translate(129.052734 0)"/>
       <use xlink:href="#DejaVuSans-5f" transform="translate(192.529297 0)"/>
       <use xlink:href="#DejaVuSans-7a" transform="translate(242.529297 0)"/>
       <use xlink:href="#DejaVuSans-7a" transform="translate(295.019531 0)"/>
      </g>
     </g>
    </g>
    <g id="xtick_16">
     <g id="line2d_16">
      <g>
       <use xlink:href="#me4efd4f92b" x="814.486027" y="532.09185" style="stroke: #000000; stroke-width: 0.8"/>
      </g>
     </g>
     <g id="text_16">
      <!-- dKa_xx -->
      <g transform="translate(792.959045 563.583377) rotate(-45) scale(0.08 -0.08)">
       <defs>
        <path id="DejaVuSans-61" d="M 2194 1759 
Q 1497 1759 1228 1600 
Q 959 1441 959 1056 
Q 959 750 1161 570 
Q 1363 391 1709 391 
Q 2188 391 2477 730 
Q 2766 1069 2766 1631 
L 2766 1759 
L 2194 1759 
z
M 3341 1997 
L 3341 0 
L 2766 0 
L 2766 531 
Q 2569 213 2275 61 
Q 1981 -91 1556 -91 
Q 1019 -91 701 211 
Q 384 513 384 1019 
Q 384 1609 779 1909 
Q 1175 2209 1959 2209 
L 2766 2209 
L 2766 2266 
Q 2766 2663 2505 2880 
Q 2244 3097 1772 3097 
Q 1472 3097 1187 3025 
Q 903 2953 641 2809 
L 641 3341 
Q 956 3463 1253 3523 
Q 1550 3584 1831 3584 
Q 2591 3584 2966 3190 
Q 3341 2797 3341 1997 
z
" transform="scale(0.015625)"/>
       </defs>
       <use xlink:href="#DejaVuSans-64"/>
       <use xlink:href="#DejaVuSans-4b" transform="translate(63.476562 0)"/>
       <use xlink:href="#DejaVuSans-61" transform="translate(127.302734 0)"/>
       <use xlink:href="#DejaVuSans-5f" transform="translate(188.582031 0)"/>
       <use xlink:href="#DejaVuSans-78" transform="translate(238.582031 0)"/>
       <use xlink:href="#DejaVuSans-78" transform="translate(297.761719 0)"/>
      </g>
     </g>
    </g>
    <g id="xtick_17">
     <g id="line2d_17">
      <g>
       <use xlink:href="#me4efd4f92b" x="859.347164" y="532.09185" style="stroke: #000000; stroke-width: 0.8"/>
      </g>
     </g>
     <g id="text_17">
      <!-- dKa_xy -->
      <g transform="translate(837.820182 563.583377) rotate(-45) scale(0.08 -0.08)">
       <use xlink:href="#DejaVuSans-64"/>
       <use xlink:href="#DejaVuSans-4b" transform="translate(63.476562 0)"/>
       <use xlink:href="#DejaVuSans-61" transform="translate(127.302734 0)"/>
       <use xlink:href="#DejaVuSans-5f" transform="translate(188.582031 0)"/>
       <use xlink:href="#DejaVuSans-78" transform="translate(238.582031 0)"/>
       <use xlink:href="#DejaVuSans-79" transform="translate(297.761719 0)"/>
      </g>
     </g>
    </g>
    <g id="xtick_18">
     <g id="line2d_18">
      <g>
       <use xlink:href="#me4efd4f92b" x="904.2083" y="532.09185" style="stroke: #000000; stroke-width: 0.8"/>
      </g>
     </g>
     <g id="text_18">
      <!-- dKa_xz -->
      <g transform="translate(883.060504 563.204191) rotate(-45) scale(0.08 -0.08)">
       <use xlink:href="#DejaVuSans-64"/>
       <use xlink:href="#DejaVuSans-4b" transform="translate(63.476562 0)"/>
       <use xlink:href="#DejaVuSans-61" transform="translate(127.302734 0)"/>
       <use xlink:href="#DejaVuSans-5f" transform="translate(188.582031 0)"/>
       <use xlink:href="#DejaVuSans-78" transform="translate(238.582031 0)"/>
       <use xlink:href="#DejaVuSans-7a" transform="translate(297.761719 0)"/>
      </g>
     </g>
    </g>
    <g id="xtick_19">
     <g id="line2d_19">
      <g>
       <use xlink:href="#me4efd4f92b" x="949.069437" y="532.09185" style="stroke: #000000; stroke-width: 0.8"/>
      </g>
     </g>
     <g id="text_19">
      <!-- dKa_yy -->
      <g transform="translate(927.542455 563.583377) rotate(-45) scale(0.08 -0.08)">
       <use xlink:href="#DejaVuSans-64"/>
       <use xlink:href="#DejaVuSans-4b" transform="translate(63.476562 0)"/>
       <use xlink:href="#DejaVuSans-61" transform="translate(127.302734 0)"/>
       <use xlink:href="#DejaVuSans-5f" transform="translate(188.582031 0)"/>
       <use xlink:href="#DejaVuSans-79" transform="translate(238.582031 0)"/>
       <use xlink:href="#DejaVuSans-79" transform="translate(297.761719 0)"/>
      </g>
     </g>
    </g>
    <g id="xtick_20">
     <g id="line2d_20">
      <g>
       <use xlink:href="#me4efd4f92b" x="993.930573" y="532.09185" style="stroke: #000000; stroke-width: 0.8"/>
      </g>
     </g>
     <g id="text_20">
      <!-- dKa_yz -->
      <g transform="translate(972.782777 563.204191) rotate(-45) scale(0.08 -0.08)">
       <use xlink:href="#DejaVuSans-64"/>
       <use xlink:href="#DejaVuSans-4b" transform="translate(63.476562 0)"/>
       <use xlink:href="#DejaVuSans-61" transform="translate(127.302734 0)"/>
       <use xlink:href="#DejaVuSans-5f" transform="translate(188.582031 0)"/>
       <use xlink:href="#DejaVuSans-79" transform="translate(238.582031 0)"/>
       <use xlink:href="#DejaVuSans-7a" transform="translate(297.761719 0)"/>
      </g>
     </g>
    </g>
    <g id="xtick_21">
     <g id="line2d_21">
      <g>
       <use xlink:href="#me4efd4f92b" x="1038.79171" y="532.09185" style="stroke: #000000; stroke-width: 0.8"/>
      </g>
     </g>
     <g id="text_21">
      <!-- dKa_zz -->
      <g transform="translate(1018.0231 562.825005) rotate(-45) scale(0.08 -0.08)">
       <use xlink:href="#DejaVuSans-64"/>
       <use xlink:href="#DejaVuSans-4b" transform="translate(63.476562 0)"/>
       <use xlink:href="#DejaVuSans-61" transform="translate(127.302734 0)"/>
       <use xlink:href="#DejaVuSans-5f" transform="translate(188.582031 0)"/>
       <use xlink:href="#DejaVuSans-7a" transform="translate(238.582031 0)"/>
       <use xlink:href="#DejaVuSans-7a" transform="translate(291.072266 0)"/>
      </g>
     </g>
    </g>
    <g id="xtick_22">
     <g id="line2d_22">
      <g>
       <use xlink:href="#me4efd4f92b" x="1083.652847" y="532.09185" style="stroke: #000000; stroke-width: 0.8"/>
      </g>
     </g>
     <g id="text_22">
      <!-- Ka2_x -->
      <g transform="translate(1065.46606 560.143303) rotate(-45) scale(0.08 -0.08)">
       <defs>
        <path id="DejaVuSans-32" d="M 1228 531 
L 3431 531 
L 3431 0 
L 469 0 
L 469 531 
Q 828 903 1448 1529 
Q 2069 2156 2228 2338 
Q 2531 2678 2651 2914 
Q 2772 3150 2772 3378 
Q 2772 3750 2511 3984 
Q 2250 4219 1831 4219 
Q 1534 4219 1204 4116 
Q 875 4013 500 3803 
L 500 4441 
Q 881 4594 1212 4672 
Q 1544 4750 1819 4750 
Q 2544 4750 2975 4387 
Q 3406 4025 3406 3419 
Q 3406 3131 3298 2873 
Q 3191 2616 2906 2266 
Q 2828 2175 2409 1742 
Q 1991 1309 1228 531 
z
" transform="scale(0.015625)"/>
       </defs>
       <use xlink:href="#DejaVuSans-4b"/>
       <use xlink:href="#DejaVuSans-61" transform="translate(63.826172 0)"/>
       <use xlink:href="#DejaVuSans-32" transform="translate(125.105469 0)"/>
       <use xlink:href="#DejaVuSans-5f" transform="translate(188.728516 0)"/>
       <use xlink:href="#DejaVuSans-78" transform="translate(238.728516 0)"/>
      </g>
     </g>
    </g>
    <g id="xtick_23">
     <g id="line2d_23">
      <g>
       <use xlink:href="#me4efd4f92b" x="1128.513983" y="532.09185" style="stroke: #000000; stroke-width: 0.8"/>
      </g>
     </g>
     <g id="text_23">
      <!-- Ka2_y -->
      <g transform="translate(1110.327197 560.143303) rotate(-45) scale(0.08 -0.08)">
       <use xlink:href="#DejaVuSans-4b"/>
       <use xlink:href="#DejaVuSans-61" transform="translate(63.826172 0)"/>
       <use xlink:href="#DejaVuSans-32" transform="translate(125.105469 0)"/>
       <use xlink:href="#DejaVuSans-5f" transform="translate(188.728516 0)"/>
       <use xlink:href="#DejaVuSans-79" transform="translate(238.728516 0)"/>
      </g>
     </g>
    </g>
    <g id="xtick_24">
     <g id="line2d_24">
      <g>
       <use xlink:href="#me4efd4f92b" x="1173.37512" y="532.09185" style="stroke: #000000; stroke-width: 0.8"/>
      </g>
     </g>
     <g id="text_24">
      <!-- Ka2_z -->
      <g transform="translate(1155.567519 559.764117) rotate(-45) scale(0.08 -0.08)">
       <use xlink:href="#DejaVuSans-4b"/>
       <use xlink:href="#DejaVuSans-61" transform="translate(63.826172 0)"/>
       <use xlink:href="#DejaVuSans-32" transform="translate(125.105469 0)"/>
       <use xlink:href="#DejaVuSans-5f" transform="translate(188.728516 0)"/>
       <use xlink:href="#DejaVuSans-7a" transform="translate(238.728516 0)"/>
      </g>
     </g>
    </g>
    <g id="xtick_25">
     <g id="line2d_25">
      <g>
       <use xlink:href="#me4efd4f92b" x="1218.236257" y="532.09185" style="stroke: #000000; stroke-width: 0.8"/>
      </g>
     </g>
     <g id="text_25">
      <!-- rx_x -->
      <g transform="translate(1205.200743 554.934577) rotate(-45) scale(0.08 -0.08)">
       <defs>
        <path id="DejaVuSans-72" d="M 2631 2963 
Q 2534 3019 2420 3045 
Q 2306 3072 2169 3072 
Q 1681 3072 1420 2755 
Q 1159 2438 1159 1844 
L 1159 0 
L 581 0 
L 581 3500 
L 1159 3500 
L 1159 2956 
Q 1341 3275 1631 3429 
Q 1922 3584 2338 3584 
Q 2397 3584 2469 3576 
Q 2541 3569 2628 3553 
L 2631 2963 
z
" transform="scale(0.015625)"/>
       </defs>
       <use xlink:href="#DejaVuSans-72"/>
       <use xlink:href="#DejaVuSans-78" transform="translate(38.488281 0)"/>
       <use xlink:href="#DejaVuSans-5f" transform="translate(97.667969 0)"/>
       <use xlink:href="#DejaVuSans-78" transform="translate(147.667969 0)"/>
      </g>
     </g>
    </g>
    <g id="xtick_26">
     <g id="line2d_26">
      <g>
       <use xlink:href="#me4efd4f92b" x="1263.097393" y="532.09185" style="stroke: #000000; stroke-width: 0.8"/>
      </g>
     </g>
     <g id="text_26">
      <!-- rx_y -->
      <g transform="translate(1250.06188 554.934577) rotate(-45) scale(0.08 -0.08)">
       <use xlink:href="#DejaVuSans-72"/>
       <use xlink:href="#DejaVuSans-78" transform="translate(38.488281 0)"/>
       <use xlink:href="#DejaVuSans-5f" transform="translate(97.667969 0)"/>
       <use xlink:href="#DejaVuSans-79" transform="translate(147.667969 0)"/>
      </g>
     </g>
    </g>
    <g id="xtick_27">
     <g id="line2d_27">
      <g>
       <use xlink:href="#me4efd4f92b" x="1307.95853" y="532.09185" style="stroke: #000000; stroke-width: 0.8"/>
      </g>
     </g>
     <g id="text_27">
      <!-- rx_z -->
      <g transform="translate(1295.302202 554.555391) rotate(-45) scale(0.08 -0.08)">
       <use xlink:href="#DejaVuSans-72"/>
       <use xlink:href="#DejaVuSans-78" transform="translate(38.488281 0)"/>
       <use xlink:href="#DejaVuSans-5f" transform="translate(97.667969 0)"/>
       <use xlink:href="#DejaVuSans-7a" transform="translate(147.667969 0)"/>
      </g>
     </g>
    </g>
    <g id="xtick_28">
     <g id="line2d_28">
      <g>
       <use xlink:href="#me4efd4f92b" x="1352.819666" y="532.09185" style="stroke: #000000; stroke-width: 0.8"/>
      </g>
     </g>
     <g id="text_28">
      <!-- ry_x -->
      <g transform="translate(1339.63566 555.08307) rotate(-45) scale(0.08 -0.08)">
       <use xlink:href="#DejaVuSans-72"/>
       <use xlink:href="#DejaVuSans-79" transform="translate(41.113281 0)"/>
       <use xlink:href="#DejaVuSans-5f" transform="translate(100.292969 0)"/>
       <use xlink:href="#DejaVuSans-78" transform="translate(150.292969 0)"/>
      </g>
     </g>
    </g>
    <g id="xtick_29">
     <g id="line2d_29">
      <g>
       <use xlink:href="#me4efd4f92b" x="1397.680803" y="532.09185" style="stroke: #000000; stroke-width: 0.8"/>
      </g>
     </g>
     <g id="text_29">
      <!-- ry_y -->
      <g transform="translate(1384.496797 555.08307) rotate(-45) scale(0.08 -0.08)">
       <use xlink:href="#DejaVuSans-72"/>
       <use xlink:href="#DejaVuSans-79" transform="translate(41.113281 0)"/>
       <use xlink:href="#DejaVuSans-5f" transform="translate(100.292969 0)"/>
       <use xlink:href="#DejaVuSans-79" transform="translate(150.292969 0)"/>
      </g>
     </g>
    </g>
    <g id="xtick_30">
     <g id="line2d_30">
      <g>
       <use xlink:href="#me4efd4f92b" x="1442.54194" y="532.09185" style="stroke: #000000; stroke-width: 0.8"/>
      </g>
     </g>
     <g id="text_30">
      <!-- ry_z -->
      <g transform="translate(1429.73712 554.703884) rotate(-45) scale(0.08 -0.08)">
       <use xlink:href="#DejaVuSans-72"/>
       <use xlink:href="#DejaVuSans-79" transform="translate(41.113281 0)"/>
       <use xlink:href="#DejaVuSans-5f" transform="translate(100.292969 0)"/>
       <use xlink:href="#DejaVuSans-7a" transform="translate(150.292969 0)"/>
      </g>
     </g>
    </g>
    <g id="xtick_31">
     <g id="line2d_31">
      <g>
       <use xlink:href="#me4efd4f92b" x="1487.403076" y="532.09185" style="stroke: #000000; stroke-width: 0.8"/>
      </g>
     </g>
     <g id="text_31">
      <!-- tGA -->
      <g transform="translate(1475.756144 553.860659) rotate(-45) scale(0.08 -0.08)">
       <defs>
        <path id="DejaVuSans-74" d="M 1172 4494 
L 1172 3500 
L 2356 3500 
L 2356 3053 
L 1172 3053 
L 1172 1153 
Q 1172 725 1289 603 
Q 1406 481 1766 481 
L 2356 481 
L 2356 0 
L 1766 0 
Q 1100 0 847 248 
Q 594 497 594 1153 
L 594 3053 
L 172 3053 
L 172 3500 
L 594 3500 
L 594 4494 
L 1172 4494 
z
" transform="scale(0.015625)"/>
        <path id="DejaVuSans-47" d="M 3809 666 
L 3809 1919 
L 2778 1919 
L 2778 2438 
L 4434 2438 
L 4434 434 
Q 4069 175 3628 42 
Q 3188 -91 2688 -91 
Q 1594 -91 976 548 
Q 359 1188 359 2328 
Q 359 3472 976 4111 
Q 1594 4750 2688 4750 
Q 3144 4750 3555 4637 
Q 3966 4525 4313 4306 
L 4313 3634 
Q 3963 3931 3569 4081 
Q 3175 4231 2741 4231 
Q 1884 4231 1454 3753 
Q 1025 3275 1025 2328 
Q 1025 1384 1454 906 
Q 1884 428 2741 428 
Q 3075 428 3337 486 
Q 3600 544 3809 666 
z
" transform="scale(0.015625)"/>
        <path id="DejaVuSans-41" d="M 2188 4044 
L 1331 1722 
L 3047 1722 
L 2188 4044 
z
M 1831 4666 
L 2547 4666 
L 4325 0 
L 3669 0 
L 3244 1197 
L 1141 1197 
L 716 0 
L 50 0 
L 1831 4666 
z
" transform="scale(0.015625)"/>
       </defs>
       <use xlink:href="#DejaVuSans-74"/>
       <use xlink:href="#DejaVuSans-47" transform="translate(39.208984 0)"/>
       <use xlink:href="#DejaVuSans-41" transform="translate(116.699219 0)"/>
      </g>
     </g>
    </g>
   </g>
   <g id="matplotlib.axis_2">
    <g id="ytick_1">
     <g id="line2d_32">
      <path d="M 55.772054 473.765679 
L 1573.2 473.765679 
" clip-path="url(#p4258e75f7f)" style="fill: none; stroke: #b0b0b0; stroke-opacity: 0.4; stroke-width: 0.8; stroke-linecap: square"/>
     </g>
     <g id="line2d_33">
      <defs>
       <path id="m16519a326b" d="M 0 0 
L -3.5 0 
" style="stroke: #000000; stroke-width: 0.8"/>
      </defs>
      <g>
       <use xlink:href="#m16519a326b" x="55.772054" y="473.765679" style="stroke: #000000; stroke-width: 0.8"/>
      </g>
     </g>
     <g id="text_32">
      <!-- $\mathdefault{10^{-2}}$ -->
      <g transform="translate(25.272054 477.564898) scale(0.1 -0.1)">
       <defs>
        <path id="DejaVuSans-31" d="M 794 531 
L 1825 531 
L 1825 4091 
L 703 3866 
L 703 4441 
L 1819 4666 
L 2450 4666 
L 2450 531 
L 3481 531 
L 3481 0 
L 794 0 
L 794 531 
z
" transform="scale(0.015625)"/>
        <path id="DejaVuSans-30" d="M 2034 4250 
Q 1547 4250 1301 3770 
Q 1056 3291 1056 2328 
Q 1056 1369 1301 889 
Q 1547 409 2034 409 
Q 2525 409 2770 889 
Q 3016 1369 3016 2328 
Q 3016 3291 2770 3770 
Q 2525 4250 2034 4250 
z
M 2034 4750 
Q 2819 4750 3233 4129 
Q 3647 3509 3647 2328 
Q 3647 1150 3233 529 
Q 2819 -91 2034 -91 
Q 1250 -91 836 529 
Q 422 1150 422 2328 
Q 422 3509 836 4129 
Q 1250 4750 2034 4750 
z
" transform="scale(0.015625)"/>
        <path id="DejaVuSans-2212" d="M 678 2272 
L 4684 2272 
L 4684 1741 
L 678 1741 
L 678 2272 
z
" transform="scale(0.015625)"/>
       </defs>
       <use xlink:href="#DejaVuSans-31" transform="translate(0 0.765625)"/>
       <use xlink:href="#DejaVuSans-30" transform="translate(63.623047 0.765625)"/>
       <use xlink:href="#DejaVuSans-2212" transform="translate(128.203125 39.046875) scale(0.7)"/>
       <use xlink:href="#DejaVuSans-32" transform="translate(186.855469 39.046875) scale(0.7)"/>
      </g>
     </g>
    </g>
    <g id="ytick_2">
     <g id="line2d_34">
      <path d="M 55.772054 373.115296 
L 1573.2 373.115296 
" clip-path="url(#p4258e75f7f)" style="fill: none; stroke: #b0b0b0; stroke-opacity: 0.4; stroke-width: 0.8; stroke-linecap: square"/>
     </g>
     <g id="line2d_35">
      <g>
       <use xlink:href="#m16519a326b" x="55.772054" y="373.115296" style="stroke: #000000; stroke-width: 0.8"/>
      </g>
     </g>
     <g id="text_33">
      <!-- $\mathdefault{10^{-1}}$ -->
      <g transform="translate(25.272054 376.914515) scale(0.1 -0.1)">
       <use xlink:href="#DejaVuSans-31" transform="translate(0 0.684375)"/>
       <use xlink:href="#DejaVuSans-30" transform="translate(63.623047 0.684375)"/>
       <use xlink:href="#DejaVuSans-2212" transform="translate(128.203125 38.965625) scale(0.7)"/>
       <use xlink:href="#DejaVuSans-31" transform="translate(186.855469 38.965625) scale(0.7)"/>
      </g>
     </g>
    </g>
    <g id="ytick_3">
     <g id="line2d_36">
      <path d="M 55.772054 272.464914 
L 1573.2 272.464914 
" clip-path="url(#p4258e75f7f)" style="fill: none; stroke: #b0b0b0; stroke-opacity: 0.4; stroke-width: 0.8; stroke-linecap: square"/>
     </g>
     <g id="line2d_37">
      <g>
       <use xlink:href="#m16519a326b" x="55.772054" y="272.464914" style="stroke: #000000; stroke-width: 0.8"/>
      </g>
     </g>
     <g id="text_34">
      <!-- $\mathdefault{10^{0}}$ -->
      <g transform="translate(31.172054 276.264132) scale(0.1 -0.1)">
       <use xlink:href="#DejaVuSans-31" transform="translate(0 0.765625)"/>
       <use xlink:href="#DejaVuSans-30" transform="translate(63.623047 0.765625)"/>
       <use xlink:href="#DejaVuSans-30" transform="translate(128.203125 39.046875) scale(0.7)"/>
      </g>
     </g>
    </g>
    <g id="ytick_4">
     <g id="line2d_38">
      <path d="M 55.772054 171.814531 
L 1573.2 171.814531 
" clip-path="url(#p4258e75f7f)" style="fill: none; stroke: #b0b0b0; stroke-opacity: 0.4; stroke-width: 0.8; stroke-linecap: square"/>
     </g>
     <g id="line2d_39">
      <g>
       <use xlink:href="#m16519a326b" x="55.772054" y="171.814531" style="stroke: #000000; stroke-width: 0.8"/>
      </g>
     </g>
     <g id="text_35">
      <!-- $\mathdefault{10^{1}}$ -->
      <g transform="translate(31.172054 175.61375) scale(0.1 -0.1)">
       <use xlink:href="#DejaVuSans-31" transform="translate(0 0.684375)"/>
       <use xlink:href="#DejaVuSans-30" transform="translate(63.623047 0.684375)"/>
       <use xlink:href="#DejaVuSans-31" transform="translate(128.203125 38.965625) scale(0.7)"/>
      </g>
     </g>
    </g>
    <g id="ytick_5">
     <g id="line2d_40">
      <path d="M 55.772054 71.164148 
L 1573.2 71.164148 
" clip-path="url(#p4258e75f7f)" style="fill: none; stroke: #b0b0b0; stroke-opacity: 0.4; stroke-width: 0.8; stroke-linecap: square"/>
     </g>
     <g id="line2d_41">
      <g>
       <use xlink:href="#m16519a326b" x="55.772054" y="71.164148" style="stroke: #000000; stroke-width: 0.8"/>
      </g>
     </g>
     <g id="text_36">
      <!-- $\mathdefault{10^{2}}$ -->
      <g transform="translate(31.172054 74.963367) scale(0.1 -0.1)">
       <use xlink:href="#DejaVuSans-31" transform="translate(0 0.765625)"/>
       <use xlink:href="#DejaVuSans-30" transform="translate(63.623047 0.765625)"/>
       <use xlink:href="#DejaVuSans-32" transform="translate(128.203125 39.046875) scale(0.7)"/>
      </g>
     </g>
    </g>
    <g id="ytick_6">
     <g id="line2d_42">
      <defs>
       <path id="m71d4c138bb" d="M 0 0 
L -2 0 
" style="stroke: #000000; stroke-width: 0.6"/>
      </defs>
      <g>
       <use xlink:href="#m71d4c138bb" x="55.772054" y="526.393625" style="stroke: #000000; stroke-width: 0.6"/>
      </g>
     </g>
    </g>
    <g id="ytick_7">
     <g id="line2d_43">
      <g>
       <use xlink:href="#m71d4c138bb" x="55.772054" y="513.818493" style="stroke: #000000; stroke-width: 0.6"/>
      </g>
     </g>
    </g>
    <g id="ytick_8">
     <g id="line2d_44">
      <g>
       <use xlink:href="#m71d4c138bb" x="55.772054" y="504.064463" style="stroke: #000000; stroke-width: 0.6"/>
      </g>
     </g>
    </g>
    <g id="ytick_9">
     <g id="line2d_45">
      <g>
       <use xlink:href="#m71d4c138bb" x="55.772054" y="496.09484" style="stroke: #000000; stroke-width: 0.6"/>
      </g>
     </g>
    </g>
    <g id="ytick_10">
     <g id="line2d_46">
      <g>
       <use xlink:href="#m71d4c138bb" x="55.772054" y="489.35662" style="stroke: #000000; stroke-width: 0.6"/>
      </g>
     </g>
    </g>
    <g id="ytick_11">
     <g id="line2d_47">
      <g>
       <use xlink:href="#m71d4c138bb" x="55.772054" y="483.519709" style="stroke: #000000; stroke-width: 0.6"/>
      </g>
     </g>
    </g>
    <g id="ytick_12">
     <g id="line2d_48">
      <g>
       <use xlink:href="#m71d4c138bb" x="55.772054" y="478.371188" style="stroke: #000000; stroke-width: 0.6"/>
      </g>
     </g>
    </g>
    <g id="ytick_13">
     <g id="line2d_49">
      <g>
       <use xlink:href="#m71d4c138bb" x="55.772054" y="443.466895" style="stroke: #000000; stroke-width: 0.6"/>
      </g>
     </g>
    </g>
    <g id="ytick_14">
     <g id="line2d_50">
      <g>
       <use xlink:href="#m71d4c138bb" x="55.772054" y="425.743242" style="stroke: #000000; stroke-width: 0.6"/>
      </g>
     </g>
    </g>
    <g id="ytick_15">
     <g id="line2d_51">
      <g>
       <use xlink:href="#m71d4c138bb" x="55.772054" y="413.16811" style="stroke: #000000; stroke-width: 0.6"/>
      </g>
     </g>
    </g>
    <g id="ytick_16">
     <g id="line2d_52">
      <g>
       <use xlink:href="#m71d4c138bb" x="55.772054" y="403.414081" style="stroke: #000000; stroke-width: 0.6"/>
      </g>
     </g>
    </g>
    <g id="ytick_17">
     <g id="line2d_53">
      <g>
       <use xlink:href="#m71d4c138bb" x="55.772054" y="395.444458" style="stroke: #000000; stroke-width: 0.6"/>
      </g>
     </g>
    </g>
    <g id="ytick_18">
     <g id="line2d_54">
      <g>
       <use xlink:href="#m71d4c138bb" x="55.772054" y="388.706238" style="stroke: #000000; stroke-width: 0.6"/>
      </g>
     </g>
    </g>
    <g id="ytick_19">
     <g id="line2d_55">
      <g>
       <use xlink:href="#m71d4c138bb" x="55.772054" y="382.869326" style="stroke: #000000; stroke-width: 0.6"/>
      </g>
     </g>
    </g>
    <g id="ytick_20">
     <g id="line2d_56">
      <g>
       <use xlink:href="#m71d4c138bb" x="55.772054" y="377.720805" style="stroke: #000000; stroke-width: 0.6"/>
      </g>
     </g>
    </g>
    <g id="ytick_21">
     <g id="line2d_57">
      <g>
       <use xlink:href="#m71d4c138bb" x="55.772054" y="342.816512" style="stroke: #000000; stroke-width: 0.6"/>
      </g>
     </g>
    </g>
    <g id="ytick_22">
     <g id="line2d_58">
      <g>
       <use xlink:href="#m71d4c138bb" x="55.772054" y="325.092859" style="stroke: #000000; stroke-width: 0.6"/>
      </g>
     </g>
    </g>
    <g id="ytick_23">
     <g id="line2d_59">
      <g>
       <use xlink:href="#m71d4c138bb" x="55.772054" y="312.517728" style="stroke: #000000; stroke-width: 0.6"/>
      </g>
     </g>
    </g>
    <g id="ytick_24">
     <g id="line2d_60">
      <g>
       <use xlink:href="#m71d4c138bb" x="55.772054" y="302.763698" style="stroke: #000000; stroke-width: 0.6"/>
      </g>
     </g>
    </g>
    <g id="ytick_25">
     <g id="line2d_61">
      <g>
       <use xlink:href="#m71d4c138bb" x="55.772054" y="294.794075" style="stroke: #000000; stroke-width: 0.6"/>
      </g>
     </g>
    </g>
    <g id="ytick_26">
     <g id="line2d_62">
      <g>
       <use xlink:href="#m71d4c138bb" x="55.772054" y="288.055855" style="stroke: #000000; stroke-width: 0.6"/>
      </g>
     </g>
    </g>
    <g id="ytick_27">
     <g id="line2d_63">
      <g>
       <use xlink:href="#m71d4c138bb" x="55.772054" y="282.218944" style="stroke: #000000; stroke-width: 0.6"/>
      </g>
     </g>
    </g>
    <g id="ytick_28">
     <g id="line2d_64">
      <g>
       <use xlink:href="#m71d4c138bb" x="55.772054" y="277.070423" style="stroke: #000000; stroke-width: 0.6"/>
      </g>
     </g>
    </g>
    <g id="ytick_29">
     <g id="line2d_65">
      <g>
       <use xlink:href="#m71d4c138bb" x="55.772054" y="242.166129" style="stroke: #000000; stroke-width: 0.6"/>
      </g>
     </g>
    </g>
    <g id="ytick_30">
     <g id="line2d_66">
      <g>
       <use xlink:href="#m71d4c138bb" x="55.772054" y="224.442477" style="stroke: #000000; stroke-width: 0.6"/>
      </g>
     </g>
    </g>
    <g id="ytick_31">
     <g id="line2d_67">
      <g>
       <use xlink:href="#m71d4c138bb" x="55.772054" y="211.867345" style="stroke: #000000; stroke-width: 0.6"/>
      </g>
     </g>
    </g>
    <g id="ytick_32">
     <g id="line2d_68">
      <g>
       <use xlink:href="#m71d4c138bb" x="55.772054" y="202.113315" style="stroke: #000000; stroke-width: 0.6"/>
      </g>
     </g>
    </g>
    <g id="ytick_33">
     <g id="line2d_69">
      <g>
       <use xlink:href="#m71d4c138bb" x="55.772054" y="194.143693" style="stroke: #000000; stroke-width: 0.6"/>
      </g>
     </g>
    </g>
    <g id="ytick_34">
     <g id="line2d_70">
      <g>
       <use xlink:href="#m71d4c138bb" x="55.772054" y="187.405473" style="stroke: #000000; stroke-width: 0.6"/>
      </g>
     </g>
    </g>
    <g id="ytick_35">
     <g id="line2d_71">
      <g>
       <use xlink:href="#m71d4c138bb" x="55.772054" y="181.568561" style="stroke: #000000; stroke-width: 0.6"/>
      </g>
     </g>
    </g>
    <g id="ytick_36">
     <g id="line2d_72">
      <g>
       <use xlink:href="#m71d4c138bb" x="55.772054" y="176.42004" style="stroke: #000000; stroke-width: 0.6"/>
      </g>
     </g>
    </g>
    <g id="ytick_37">
     <g id="line2d_73">
      <g>
       <use xlink:href="#m71d4c138bb" x="55.772054" y="141.515747" style="stroke: #000000; stroke-width: 0.6"/>
      </g>
     </g>
    </g>
    <g id="ytick_38">
     <g id="line2d_74">
      <g>
       <use xlink:href="#m71d4c138bb" x="55.772054" y="123.792094" style="stroke: #000000; stroke-width: 0.6"/>
      </g>
     </g>
    </g>
    <g id="ytick_39">
     <g id="line2d_75">
      <g>
       <use xlink:href="#m71d4c138bb" x="55.772054" y="111.216963" style="stroke: #000000; stroke-width: 0.6"/>
      </g>
     </g>
    </g>
    <g id="ytick_40">
     <g id="line2d_76">
      <g>
       <use xlink:href="#m71d4c138bb" x="55.772054" y="101.462933" style="stroke: #000000; stroke-width: 0.6"/>
      </g>
     </g>
    </g>
    <g id="ytick_41">
     <g id="line2d_77">
      <g>
       <use xlink:href="#m71d4c138bb" x="55.772054" y="93.49331" style="stroke: #000000; stroke-width: 0.6"/>
      </g>
     </g>
    </g>
    <g id="ytick_42">
     <g id="line2d_78">
      <g>
       <use xlink:href="#m71d4c138bb" x="55.772054" y="86.75509" style="stroke: #000000; stroke-width: 0.6"/>
      </g>
     </g>
    </g>
    <g id="ytick_43">
     <g id="line2d_79">
      <g>
       <use xlink:href="#m71d4c138bb" x="55.772054" y="80.918178" style="stroke: #000000; stroke-width: 0.6"/>
      </g>
     </g>
    </g>
    <g id="ytick_44">
     <g id="line2d_80">
      <g>
       <use xlink:href="#m71d4c138bb" x="55.772054" y="75.769657" style="stroke: #000000; stroke-width: 0.6"/>
      </g>
     </g>
    </g>
    <g id="ytick_45">
     <g id="line2d_81">
      <g>
       <use xlink:href="#m71d4c138bb" x="55.772054" y="40.865364" style="stroke: #000000; stroke-width: 0.6"/>
      </g>
     </g>
    </g>
    <g id="text_37">
     <!-- Calibration Error (%) -->
     <g transform="translate(19.192366 330.706237) rotate(-90) scale(0.1 -0.1)">
      <defs>
       <path id="DejaVuSans-43" d="M 4122 4306 
L 4122 3641 
Q 3803 3938 3442 4084 
Q 3081 4231 2675 4231 
Q 1875 4231 1450 3742 
Q 1025 3253 1025 2328 
Q 1025 1406 1450 917 
Q 1875 428 2675 428 
Q 3081 428 3442 575 
Q 3803 722 4122 1019 
L 4122 359 
Q 3791 134 3420 21 
Q 3050 -91 2638 -91 
Q 1578 -91 968 557 
Q 359 1206 359 2328 
Q 359 3453 968 4101 
Q 1578 4750 2638 4750 
Q 3056 4750 3426 4639 
Q 3797 4528 4122 4306 
z
" transform="scale(0.015625)"/>
       <path id="DejaVuSans-6c" d="M 603 4863 
L 1178 4863 
L 1178 0 
L 603 0 
L 603 4863 
z
" transform="scale(0.015625)"/>
       <path id="DejaVuSans-69" d="M 603 3500 
L 1178 3500 
L 1178 0 
L 603 0 
L 603 3500 
z
M 603 4863 
L 1178 4863 
L 1178 4134 
L 603 4134 
L 603 4863 
z
" transform="scale(0.015625)"/>
       <path id="DejaVuSans-6f" d="M 1959 3097 
Q 1497 3097 1228 2736 
Q 959 2375 959 1747 
Q 959 1119 1226 758 
Q 1494 397 1959 397 
Q 2419 397 2687 759 
Q 2956 1122 2956 1747 
Q 2956 2369 2687 2733 
Q 2419 3097 1959 3097 
z
M 1959 3584 
Q 2709 3584 3137 3096 
Q 3566 2609 3566 1747 
Q 3566 888 3137 398 
Q 2709 -91 1959 -91 
Q 1206 -91 779 398 
Q 353 888 353 1747 
Q 353 2609 779 3096 
Q 1206 3584 1959 3584 
z
" transform="scale(0.015625)"/>
       <path id="DejaVuSans-6e" d="M 3513 2113 
L 3513 0 
L 2938 0 
L 2938 2094 
Q 2938 2591 2744 2837 
Q 2550 3084 2163 3084 
Q 1697 3084 1428 2787 
Q 1159 2491 1159 1978 
L 1159 0 
L 581 0 
L 581 3500 
L 1159 3500 
L 1159 2956 
Q 1366 3272 1645 3428 
Q 1925 3584 2291 3584 
Q 2894 3584 3203 3211 
Q 3513 2838 3513 2113 
z
" transform="scale(0.015625)"/>
       <path id="DejaVuSans-20" transform="scale(0.015625)"/>
       <path id="DejaVuSans-45" d="M 628 4666 
L 3578 4666 
L 3578 4134 
L 1259 4134 
L 1259 2753 
L 3481 2753 
L 3481 2222 
L 1259 2222 
L 1259 531 
L 3634 531 
L 3634 0 
L 628 0 
L 628 4666 
z
" transform="scale(0.015625)"/>
       <path id="DejaVuSans-28" d="M 1984 4856 
Q 1566 4138 1362 3434 
Q 1159 2731 1159 2009 
Q 1159 1288 1364 580 
Q 1569 -128 1984 -844 
L 1484 -844 
Q 1016 -109 783 600 
Q 550 1309 550 2009 
Q 550 2706 781 3412 
Q 1013 4119 1484 4856 
L 1984 4856 
z
" transform="scale(0.015625)"/>
       <path id="DejaVuSans-25" d="M 4653 2053 
Q 4381 2053 4226 1822 
Q 4072 1591 4072 1178 
Q 4072 772 4226 539 
Q 4381 306 4653 306 
Q 4919 306 5073 539 
Q 5228 772 5228 1178 
Q 5228 1588 5073 1820 
Q 4919 2053 4653 2053 
z
M 4653 2450 
Q 5147 2450 5437 2106 
Q 5728 1763 5728 1178 
Q 5728 594 5436 251 
Q 5144 -91 4653 -91 
Q 4153 -91 3862 251 
Q 3572 594 3572 1178 
Q 3572 1766 3864 2108 
Q 4156 2450 4653 2450 
z
M 1428 4353 
Q 1159 4353 1004 4120 
Q 850 3888 850 3481 
Q 850 3069 1003 2837 
Q 1156 2606 1428 2606 
Q 1700 2606 1854 2837 
Q 2009 3069 2009 3481 
Q 2009 3884 1853 4118 
Q 1697 4353 1428 4353 
z
M 4250 4750 
L 4750 4750 
L 1831 -91 
L 1331 -91 
L 4250 4750 
z
M 1428 4750 
Q 1922 4750 2215 4408 
Q 2509 4066 2509 3481 
Q 2509 2891 2217 2550 
Q 1925 2209 1428 2209 
Q 931 2209 642 2551 
Q 353 2894 353 3481 
Q 353 4063 643 4406 
Q 934 4750 1428 4750 
z
" transform="scale(0.015625)"/>
       <path id="DejaVuSans-29" d="M 513 4856 
L 1013 4856 
Q 1481 4119 1714 3412 
Q 1947 2706 1947 2009 
Q 1947 1309 1714 600 
Q 1481 -109 1013 -844 
L 513 -844 
Q 928 -128 1133 580 
Q 1338 1288 1338 2009 
Q 1338 2731 1133 3434 
Q 928 4138 513 4856 
z
" transform="scale(0.015625)"/>
      </defs>
      <use xlink:href="#DejaVuSans-43"/>
      <use xlink:href="#DejaVuSans-61" transform="translate(69.824219 0)"/>
      <use xlink:href="#DejaVuSans-6c" transform="translate(131.103516 0)"/>
      <use xlink:href="#DejaVuSans-69" transform="translate(158.886719 0)"/>
      <use xlink:href="#DejaVuSans-62" transform="translate(186.669922 0)"/>
      <use xlink:href="#DejaVuSans-72" transform="translate(250.146484 0)"/>
      <use xlink:href="#DejaVuSans-61" transform="translate(291.259766 0)"/>
      <use xlink:href="#DejaVuSans-74" transform="translate(352.539062 0)"/>
      <use xlink:href="#DejaVuSans-69" transform="translate(391.748047 0)"/>
      <use xlink:href="#DejaVuSans-6f" transform="translate(419.53125 0)"/>
      <use xlink:href="#DejaVuSans-6e" transform="translate(480.712891 0)"/>
      <use xlink:href="#DejaVuSans-20" transform="translate(544.091797 0)"/>
      <use xlink:href="#DejaVuSans-45" transform="translate(575.878906 0)"/>
      <use xlink:href="#DejaVuSans-72" transform="translate(639.0625 0)"/>
      <use xlink:href="#DejaVuSans-72" transform="translate(678.425781 0)"/>
      <use xlink:href="#DejaVuSans-6f" transform="translate(717.289062 0)"/>
      <use xlink:href="#DejaVuSans-72" transform="translate(778.470703 0)"/>
      <use xlink:href="#DejaVuSans-20" transform="translate(819.583984 0)"/>
      <use xlink:href="#DejaVuSans-28" transform="translate(851.371094 0)"/>
      <use xlink:href="#DejaVuSans-25" transform="translate(890.384766 0)"/>
      <use xlink:href="#DejaVuSans-29" transform="translate(985.404297 0)"/>
     </g>
    </g>
   </g>
   <g id="patch_96">
    <path d="M 55.772054 532.09185 
L 55.772054 26.88 
" style="fill: none; stroke: #000000; stroke-width: 0.8; stroke-linejoin: miter; stroke-linecap: square"/>
   </g>
   <g id="patch_97">
    <path d="M 1573.2 532.09185 
L 1573.2 26.88 
" style="fill: none; stroke: #000000; stroke-width: 0.8; stroke-linejoin: miter; stroke-linecap: square"/>
   </g>
   <g id="patch_98">
    <path d="M 55.772054 532.09185 
L 1573.2 532.09185 
" style="fill: none; stroke: #000000; stroke-width: 0.8; stroke-linejoin: miter; stroke-linecap: square"/>
   </g>
   <g id="patch_99">
    <path d="M 55.772054 26.88 
L 1573.2 26.88 
" style="fill: none; stroke: #000000; stroke-width: 0.8; stroke-linejoin: miter; stroke-linecap: square"/>
   </g>
   <g id="text_38">
    <!-- 46-State (Upper-Triangular Ka) Calibration Accuracy Comparison -->
    <g transform="translate(621.901027 20.88) scale(0.12 -0.12)">
     <defs>
      <path id="DejaVuSans-34" d="M 2419 4116 
L 825 1625 
L 2419 1625 
L 2419 4116 
z
M 2253 4666 
L 3047 4666 
L 3047 1625 
L 3713 1625 
L 3713 1100 
L 3047 1100 
L 3047 0 
L 2419 0 
L 2419 1100 
L 313 1100 
L 313 1709 
L 2253 4666 
z
" transform="scale(0.015625)"/>
      <path id="DejaVuSans-36" d="M 2113 2584 
Q 1688 2584 1439 2293 
Q 1191 2003 1191 1497 
Q 1191 994 1439 701 
Q 1688 409 2113 409 
Q 2538 409 2786 701 
Q 3034 994 3034 1497 
Q 3034 2003 2786 2293 
Q 2538 2584 2113 2584 
z
M 3366 4563 
L 3366 3988 
Q 3128 4100 2886 4159 
Q 2644 4219 2406 4219 
Q 1781 4219 1451 3797 
Q 1122 3375 1075 2522 
Q 1259 2794 1537 2939 
Q 1816 3084 2150 3084 
Q 2853 3084 3261 2657 
Q 3669 2231 3669 1497 
Q 3669 778 3244 343 
Q 2819 -91 2113 -91 
Q 1303 -91 875 529 
Q 447 1150 447 2328 
Q 447 3434 972 4092 
Q 1497 4750 2381 4750 
Q 2619 4750 2861 4703 
Q 3103 4656 3366 4563 
z
" transform="scale(0.015625)"/>
      <path id="DejaVuSans-2d" d="M 313 2009 
L 1997 2009 
L 1997 1497 
L 313 1497 
L 313 2009 
z
" transform="scale(0.015625)"/>
      <path id="DejaVuSans-53" d="M 3425 4513 
L 3425 3897 
Q 3066 4069 2747 4153 
Q 2428 4238 2131 4238 
Q 1616 4238 1336 4038 
Q 1056 3838 1056 3469 
Q 1056 3159 1242 3001 
Q 1428 2844 1947 2747 
L 2328 2669 
Q 3034 2534 3370 2195 
Q 3706 1856 3706 1288 
Q 3706 609 3251 259 
Q 2797 -91 1919 -91 
Q 1588 -91 1214 -16 
Q 841 59 441 206 
L 441 856 
Q 825 641 1194 531 
Q 1563 422 1919 422 
Q 2459 422 2753 634 
Q 3047 847 3047 1241 
Q 3047 1584 2836 1778 
Q 2625 1972 2144 2069 
L 1759 2144 
Q 1053 2284 737 2584 
Q 422 2884 422 3419 
Q 422 4038 858 4394 
Q 1294 4750 2059 4750 
Q 2388 4750 2728 4690 
Q 3069 4631 3425 4513 
z
" transform="scale(0.015625)"/>
      <path id="DejaVuSans-55" d="M 556 4666 
L 1191 4666 
L 1191 1831 
Q 1191 1081 1462 751 
Q 1734 422 2344 422 
Q 2950 422 3222 751 
Q 3494 1081 3494 1831 
L 3494 4666 
L 4128 4666 
L 4128 1753 
Q 4128 841 3676 375 
Q 3225 -91 2344 -91 
Q 1459 -91 1007 375 
Q 556 841 556 1753 
L 556 4666 
z
" transform="scale(0.015625)"/>
      <path id="DejaVuSans-70" d="M 1159 525 
L 1159 -1331 
L 581 -1331 
L 581 3500 
L 1159 3500 
L 1159 2969 
Q 1341 3281 1617 3432 
Q 1894 3584 2278 3584 
Q 2916 3584 3314 3078 
Q 3713 2572 3713 1747 
Q 3713 922 3314 415 
Q 2916 -91 2278 -91 
Q 1894 -91 1617 61 
Q 1341 213 1159 525 
z
M 3116 1747 
Q 3116 2381 2855 2742 
Q 2594 3103 2138 3103 
Q 1681 3103 1420 2742 
Q 1159 2381 1159 1747 
Q 1159 1113 1420 752 
Q 1681 391 2138 391 
Q 2594 391 2855 752 
Q 3116 1113 3116 1747 
z
" transform="scale(0.015625)"/>
      <path id="DejaVuSans-54" d="M -19 4666 
L 3928 4666 
L 3928 4134 
L 2272 4134 
L 2272 0 
L 1638 0 
L 1638 4134 
L -19 4134 
L -19 4666 
z
" transform="scale(0.015625)"/>
      <path id="DejaVuSans-75" d="M 544 1381 
L 544 3500 
L 1119 3500 
L 1119 1403 
Q 1119 906 1312 657 
Q 1506 409 1894 409 
Q 2359 409 2629 706 
Q 2900 1003 2900 1516 
L 2900 3500 
L 3475 3500 
L 3475 0 
L 2900 0 
L 2900 538 
Q 2691 219 2414 64 
Q 2138 -91 1772 -91 
Q 1169 -91 856 284 
Q 544 659 544 1381 
z
M 1991 3584 
L 1991 3584 
z
" transform="scale(0.015625)"/>
      <path id="DejaVuSans-63" d="M 3122 3366 
L 3122 2828 
Q 2878 2963 2633 3030 
Q 2388 3097 2138 3097 
Q 1578 3097 1268 2742 
Q 959 2388 959 1747 
Q 959 1106 1268 751 
Q 1578 397 2138 397 
Q 2388 397 2633 464 
Q 2878 531 3122 666 
L 3122 134 
Q 2881 22 2623 -34 
Q 2366 -91 2075 -91 
Q 1284 -91 818 406 
Q 353 903 353 1747 
Q 353 2603 823 3093 
Q 1294 3584 2113 3584 
Q 2378 3584 2631 3529 
Q 2884 3475 3122 3366 
z
" transform="scale(0.015625)"/>
      <path id="DejaVuSans-6d" d="M 3328 2828 
Q 3544 3216 3844 3400 
Q 4144 3584 4550 3584 
Q 5097 3584 5394 3201 
Q 5691 2819 5691 2113 
L 5691 0 
L 5113 0 
L 5113 2094 
Q 5113 2597 4934 2840 
Q 4756 3084 4391 3084 
Q 3944 3084 3684 2787 
Q 3425 2491 3425 1978 
L 3425 0 
L 2847 0 
L 2847 2094 
Q 2847 2600 2669 2842 
Q 2491 3084 2119 3084 
Q 1678 3084 1418 2786 
Q 1159 2488 1159 1978 
L 1159 0 
L 581 0 
L 581 3500 
L 1159 3500 
L 1159 2956 
Q 1356 3278 1631 3431 
Q 1906 3584 2284 3584 
Q 2666 3584 2933 3390 
Q 3200 3197 3328 2828 
z
" transform="scale(0.015625)"/>
      <path id="DejaVuSans-73" d="M 2834 3397 
L 2834 2853 
Q 2591 2978 2328 3040 
Q 2066 3103 1784 3103 
Q 1356 3103 1142 2972 
Q 928 2841 928 2578 
Q 928 2378 1081 2264 
Q 1234 2150 1697 2047 
L 1894 2003 
Q 2506 1872 2764 1633 
Q 3022 1394 3022 966 
Q 3022 478 2636 193 
Q 2250 -91 1575 -91 
Q 1294 -91 989 -36 
Q 684 19 347 128 
L 347 722 
Q 666 556 975 473 
Q 1284 391 1588 391 
Q 1994 391 2212 530 
Q 2431 669 2431 922 
Q 2431 1156 2273 1281 
Q 2116 1406 1581 1522 
L 1381 1569 
Q 847 1681 609 1914 
Q 372 2147 372 2553 
Q 372 3047 722 3315 
Q 1072 3584 1716 3584 
Q 2034 3584 2315 3537 
Q 2597 3491 2834 3397 
z
" transform="scale(0.015625)"/>
     </defs>
     <use xlink:href="#DejaVuSans-34"/>
     <use xlink:href="#DejaVuSans-36" transform="translate(63.623047 0)"/>
     <use xlink:href="#DejaVuSans-2d" transform="translate(127.246094 0)"/>
     <use xlink:href="#DejaVuSans-53" transform="translate(163.330078 0)"/>
     <use xlink:href="#DejaVuSans-74" transform="translate(226.806641 0)"/>
     <use xlink:href="#DejaVuSans-61" transform="translate(266.015625 0)"/>
     <use xlink:href="#DejaVuSans-74" transform="translate(327.294922 0)"/>
     <use xlink:href="#DejaVuSans-65" transform="translate(366.503906 0)"/>
     <use xlink:href="#DejaVuSans-20" transform="translate(428.027344 0)"/>
     <use xlink:href="#DejaVuSans-28" transform="translate(459.814453 0)"/>
     <use xlink:href="#DejaVuSans-55" transform="translate(498.828125 0)"/>
     <use xlink:href="#DejaVuSans-70" transform="translate(572.021484 0)"/>
     <use xlink:href="#DejaVuSans-70" transform="translate(635.498047 0)"/>
     <use xlink:href="#DejaVuSans-65" transform="translate(698.974609 0)"/>
     <use xlink:href="#DejaVuSans-72" transform="translate(760.498047 0)"/>
     <use xlink:href="#DejaVuSans-2d" transform="translate(795.236328 0)"/>
     <use xlink:href="#DejaVuSans-54" transform="translate(822.195312 0)"/>
     <use xlink:href="#DejaVuSans-72" transform="translate(868.529297 0)"/>
     <use xlink:href="#DejaVuSans-69" transform="translate(909.642578 0)"/>
     <use xlink:href="#DejaVuSans-61" transform="translate(937.425781 0)"/>
     <use xlink:href="#DejaVuSans-6e" transform="translate(998.705078 0)"/>
     <use xlink:href="#DejaVuSans-67" transform="translate(1062.083984 0)"/>
     <use xlink:href="#DejaVuSans-75" transform="translate(1125.560547 0)"/>
     <use xlink:href="#DejaVuSans-6c" transform="translate(1188.939453 0)"/>
     <use xlink:href="#DejaVuSans-61" transform="translate(1216.722656 0)"/>
     <use xlink:href="#DejaVuSans-72" transform="translate(1278.001953 0)"/>
     <use xlink:href="#DejaVuSans-20" transform="translate(1319.115234 0)"/>
     <use xlink:href="#DejaVuSans-4b" transform="translate(1350.902344 0)"/>
     <use xlink:href="#DejaVuSans-61" transform="translate(1414.728516 0)"/>
     <use xlink:href="#DejaVuSans-29" transform="translate(1476.007812 0)"/>
     <use xlink:href="#DejaVuSans-20" transform="translate(1515.021484 0)"/>
     <use xlink:href="#DejaVuSans-43" transform="translate(1546.808594 0)"/>
     <use xlink:href="#DejaVuSans-61" transform="translate(1616.632812 0)"/>
     <use xlink:href="#DejaVuSans-6c" transform="translate(1677.912109 0)"/>
     <use xlink:href="#DejaVuSans-69" transform="translate(1705.695312 0)"/>
     <use xlink:href="#DejaVuSans-62" transform="translate(1733.478516 0)"/>
     <use xlink:href="#DejaVuSans-72" transform="translate(1796.955078 0)"/>
     <use xlink:href="#DejaVuSans-61" transform="translate(1838.068359 0)"/>
     <use xlink:href="#DejaVuSans-74" transform="translate(1899.347656 0)"/>
     <use xlink:href="#DejaVuSans-69" transform="translate(1938.556641 0)"/>
     <use xlink:href="#DejaVuSans-6f" transform="translate(1966.339844 0)"/>
     <use xlink:href="#DejaVuSans-6e" transform="translate(2027.521484 0)"/>
     <use xlink:href="#DejaVuSans-20" transform="translate(2090.900391 0)"/>
     <use xlink:href="#DejaVuSans-41" transform="translate(2122.6875 0)"/>
     <use xlink:href="#DejaVuSans-63" transform="translate(2189.345703 0)"/>
     <use xlink:href="#DejaVuSans-63" transform="translate(2244.326172 0)"/>
     <use xlink:href="#DejaVuSans-75" transform="translate(2299.306641 0)"/>
     <use xlink:href="#DejaVuSans-72" transform="translate(2362.685547 0)"/>
     <use xlink:href="#DejaVuSans-61" transform="translate(2403.798828 0)"/>
     <use xlink:href="#DejaVuSans-63" transform="translate(2465.078125 0)"/>
     <use xlink:href="#DejaVuSans-79" transform="translate(2520.058594 0)"/>
     <use xlink:href="#DejaVuSans-20" transform="translate(2579.238281 0)"/>
     <use xlink:href="#DejaVuSans-43" transform="translate(2611.025391 0)"/>
     <use xlink:href="#DejaVuSans-6f" transform="translate(2680.849609 0)"/>
     <use xlink:href="#DejaVuSans-6d" transform="translate(2742.03125 0)"/>
     <use xlink:href="#DejaVuSans-70" transform="translate(2839.443359 0)"/>
     <use xlink:href="#DejaVuSans-61" transform="translate(2902.919922 0)"/>
     <use xlink:href="#DejaVuSans-72" transform="translate(2964.199219 0)"/>
     <use xlink:href="#DejaVuSans-69" transform="translate(3005.3125 0)"/>
     <use xlink:href="#DejaVuSans-73" transform="translate(3033.095703 0)"/>
     <use xlink:href="#DejaVuSans-6f" transform="translate(3085.195312 0)"/>
     <use xlink:href="#DejaVuSans-6e" transform="translate(3146.376953 0)"/>
    </g>
   </g>
   <g id="legend_1">
    <g id="patch_100">
     <path d="M 1455.785156 73.710938 
L 1566.9 73.710938 
Q 1568.7 73.710938 1568.7 71.910937 
L 1568.7 33.18 
Q 1568.7 31.38 1566.9 31.38 
L 1455.785156 31.38 
Q 1453.985156 31.38 1453.985156 33.18 
L 1453.985156 71.910937 
Q 1453.985156 73.710938 1455.785156 73.710938 
z
" style="fill: #ffffff; opacity: 0.8; stroke: #cccccc; stroke-linejoin: miter"/>
    </g>
    <g id="patch_101">
     <path d="M 1457.585156 41.818594 
L 1475.585156 41.818594 
L 1475.585156 35.518594 
L 1457.585156 35.518594 
z
" style="fill: #4682b4; opacity: 0.85"/>
    </g>
    <g id="text_39">
     <!-- A: Clean -->
     <g transform="translate(1482.785156 41.818594) scale(0.09 -0.09)">
      <defs>
       <path id="DejaVuSans-3a" d="M 750 794 
L 1409 794 
L 1409 0 
L 750 0 
L 750 794 
z
M 750 3309 
L 1409 3309 
L 1409 2516 
L 750 2516 
L 750 3309 
z
" transform="scale(0.015625)"/>
      </defs>
      <use xlink:href="#DejaVuSans-41"/>
      <use xlink:href="#DejaVuSans-3a" transform="translate(66.658203 0)"/>
      <use xlink:href="#DejaVuSans-20" transform="translate(100.349609 0)"/>
      <use xlink:href="#DejaVuSans-43" transform="translate(132.136719 0)"/>
      <use xlink:href="#DejaVuSans-6c" transform="translate(201.960938 0)"/>
      <use xlink:href="#DejaVuSans-65" transform="translate(229.744141 0)"/>
      <use xlink:href="#DejaVuSans-61" transform="translate(291.267578 0)"/>
      <use xlink:href="#DejaVuSans-6e" transform="translate(352.546875 0)"/>
     </g>
    </g>
    <g id="patch_102">
     <path d="M 1457.585156 55.028906 
L 1475.585156 55.028906 
L 1475.585156 48.728906 
L 1457.585156 48.728906 
z
" style="fill: #ff6347; opacity: 0.85"/>
    </g>
    <g id="text_40">
     <!-- B: 46-GM1-correct -->
     <g transform="translate(1482.785156 55.028906) scale(0.09 -0.09)">
      <defs>
       <path id="DejaVuSans-42" d="M 1259 2228 
L 1259 519 
L 2272 519 
Q 2781 519 3026 730 
Q 3272 941 3272 1375 
Q 3272 1813 3026 2020 
Q 2781 2228 2272 2228 
L 1259 2228 
z
M 1259 4147 
L 1259 2741 
L 2194 2741 
Q 2656 2741 2882 2914 
Q 3109 3088 3109 3444 
Q 3109 3797 2882 3972 
Q 2656 4147 2194 4147 
L 1259 4147 
z
M 628 4666 
L 2241 4666 
Q 2963 4666 3353 4366 
Q 3744 4066 3744 3513 
Q 3744 3084 3544 2831 
Q 3344 2578 2956 2516 
Q 3422 2416 3680 2098 
Q 3938 1781 3938 1306 
Q 3938 681 3513 340 
Q 3088 0 2303 0 
L 628 0 
L 628 4666 
z
" transform="scale(0.015625)"/>
       <path id="DejaVuSans-4d" d="M 628 4666 
L 1569 4666 
L 2759 1491 
L 3956 4666 
L 4897 4666 
L 4897 0 
L 4281 0 
L 4281 4097 
L 3078 897 
L 2444 897 
L 1241 4097 
L 1241 0 
L 628 0 
L 628 4666 
z
" transform="scale(0.015625)"/>
      </defs>
      <use xlink:href="#DejaVuSans-42"/>
      <use xlink:href="#DejaVuSans-3a" transform="translate(68.603516 0)"/>
      <use xlink:href="#DejaVuSans-20" transform="translate(102.294922 0)"/>
      <use xlink:href="#DejaVuSans-34" transform="translate(134.082031 0)"/>
      <use xlink:href="#DejaVuSans-36" transform="translate(197.705078 0)"/>
      <use xlink:href="#DejaVuSans-2d" transform="translate(261.328125 0)"/>
      <use xlink:href="#DejaVuSans-47" transform="translate(301.037109 0)"/>
      <use xlink:href="#DejaVuSans-4d" transform="translate(378.527344 0)"/>
      <use xlink:href="#DejaVuSans-31" transform="translate(464.806641 0)"/>
      <use xlink:href="#DejaVuSans-2d" transform="translate(528.429688 0)"/>
      <use xlink:href="#DejaVuSans-63" transform="translate(564.513672 0)"/>
      <use xlink:href="#DejaVuSans-6f" transform="translate(619.494141 0)"/>
      <use xlink:href="#DejaVuSans-72" transform="translate(680.675781 0)"/>
      <use xlink:href="#DejaVuSans-72" transform="translate(720.039062 0)"/>
      <use xlink:href="#DejaVuSans-65" transform="translate(758.902344 0)"/>
      <use xlink:href="#DejaVuSans-63" transform="translate(820.425781 0)"/>
      <use xlink:href="#DejaVuSans-74" transform="translate(875.40625 0)"/>
     </g>
    </g>
    <g id="patch_103">
     <path d="M 1457.585156 68.239219 
L 1475.585156 68.239219 
L 1475.585156 61.939219 
L 1457.585156 61.939219 
z
" style="fill: #228b22; opacity: 0.85"/>
    </g>
    <g id="text_41">
     <!-- C: 46-GM1-wrong -->
     <g transform="translate(1482.785156 68.239219) scale(0.09 -0.09)">
      <defs>
       <path id="DejaVuSans-77" d="M 269 3500 
L 844 3500 
L 1563 769 
L 2278 3500 
L 2956 3500 
L 3675 769 
L 4391 3500 
L 4966 3500 
L 4050 0 
L 3372 0 
L 2619 2869 
L 1863 0 
L 1184 0 
L 269 3500 
z
" transform="scale(0.015625)"/>
      </defs>
      <use xlink:href="#DejaVuSans-43"/>
      <use xlink:href="#DejaVuSans-3a" transform="translate(69.824219 0)"/>
      <use xlink:href="#DejaVuSans-20" transform="translate(103.515625 0)"/>
      <use xlink:href="#DejaVuSans-34" transform="translate(135.302734 0)"/>
      <use xlink:href="#DejaVuSans-36" transform="translate(198.925781 0)"/>
      <use xlink:href="#DejaVuSans-2d" transform="translate(262.548828 0)"/>
      <use xlink:href="#DejaVuSans-47" transform="translate(302.257812 0)"/>
      <use xlink:href="#DejaVuSans-4d" transform="translate(379.748047 0)"/>
      <use xlink:href="#DejaVuSans-31" transform="translate(466.027344 0)"/>
      <use xlink:href="#DejaVuSans-2d" transform="translate(529.650391 0)"/>
      <use xlink:href="#DejaVuSans-77" transform="translate(565.734375 0)"/>
      <use xlink:href="#DejaVuSans-72" transform="translate(647.521484 0)"/>
      <use xlink:href="#DejaVuSans-6f" transform="translate(686.384766 0)"/>
      <use xlink:href="#DejaVuSans-6e" transform="translate(747.566406 0)"/>
      <use xlink:href="#DejaVuSans-67" transform="translate(810.945312 0)"/>
     </g>
    </g>
   </g>
  </g>
 </g>
 <defs>
  <clipPath id="p4258e75f7f">
   <rect x="55.772054" y="26.88" width="1517.427946" height="505.21185"/>
  </clipPath>
 </defs>
</svg>
