<?xml version="1.0" encoding="utf-8" standalone="no"?>
<!DOCTYPE svg PUBLIC "-//W3C//DTD SVG 1.1//EN"
  "http://www.w3.org/Graphics/SVG/1.1/DTD/svg11.dtd">
<svg xmlns:xlink="http://www.w3.org/1999/xlink" width="864pt" height="576pt" viewBox="0 0 864 576" xmlns="http://www.w3.org/2000/svg" version="1.1">
 <metadata>
  <rdf:RDF xmlns:dc="http://purl.org/dc/elements/1.1/" xmlns:cc="http://creativecommons.org/ns#" xmlns:rdf="http://www.w3.org/1999/02/22-rdf-syntax-ns#">
   <cc:Work>
    <dc:type rdf:resource="http://purl.org/dc/dcmitype/StillImage"/>
    <dc:date>2026-03-03T11:38:05.739419</dc:date>
    <dc:format>image/svg+xml</dc:format>
    <dc:creator>
     <cc:Agent>
      <dc:title>Matplotlib v3.10.8, https://matplotlib.org/</dc:title>
     </cc:Agent>
    </dc:creator>
   </cc:Work>
  </rdf:RDF>
 </metadata>
 <defs>
  <style type="text/css">*{stroke-linejoin: round; stroke-linecap: butt}</style>
 </defs>
 <g id="figure_1">
  <g id="patch_1">
   <path d="M 0 576 
L 864 576 
L 864 0 
L 0 0 
z
" style="fill: #ffffff"/>
  </g>
  <g id="axes_1">
   <g id="patch_2">
    <path d="M 56 258.48 
L 853.2 258.48 
L 853.2 26.88 
L 56 26.88 
z
" style="fill: #ffffff"/>
   </g>
   <g id="matplotlib.axis_1">
    <g id="xtick_1">
     <g id="line2d_1">
      <path d="M 92.236364 258.48 
L 92.236364 26.88 
" clip-path="url(#p54eb7f7870)" style="fill: none; stroke: #b0b0b0; stroke-width: 0.8; stroke-linecap: square"/>
     </g>
     <g id="line2d_2">
      <defs>
       <path id="m1d9261e401" d="M 0 0 
L 0 3.5 
" style="stroke: #000000; stroke-width: 0.8"/>
      </defs>
      <g>
       <use xlink:href="#m1d9261e401" x="92.236364" y="258.48" style="stroke: #000000; stroke-width: 0.8"/>
      </g>
     </g>
     <g id="text_1">
      <!-- 0 -->
      <g transform="translate(89.055114 273.078438) scale(0.1 -0.1)">
       <defs>
        <path id="DejaVuSans-30" d="M 2034 4250 
Q 1547 4250 1301 3770 
Q 1056 3291 1056 2328 
Q 1056 1369 1301 889 
Q 1547 409 2034 409 
Q 2525 409 2770 889 
Q 3016 1369 3016 2328 
Q 3016 3291 2770 3770 
Q 2525 4250 2034 4250 
z
M 2034 4750 
Q 2819 4750 3233 4129 
Q 3647 3509 3647 2328 
Q 3647 1150 3233 529 
Q 2819 -91 2034 -91 
Q 1250 -91 836 529 
Q 422 1150 422 2328 
Q 422 3509 836 4129 
Q 1250 4750 2034 4750 
z
" transform="scale(0.015625)"/>
       </defs>
       <use xlink:href="#DejaVuSans-30"/>
      </g>
     </g>
    </g>
    <g id="xtick_2">
     <g id="line2d_3">
      <path d="M 215.447393 258.48 
L 215.447393 26.88 
" clip-path="url(#p54eb7f7870)" style="fill: none; stroke: #b0b0b0; stroke-width: 0.8; stroke-linecap: square"/>
     </g>
     <g id="line2d_4">
      <g>
       <use xlink:href="#m1d9261e401" x="215.447393" y="258.48" style="stroke: #000000; stroke-width: 0.8"/>
      </g>
     </g>
     <g id="text_2">
      <!-- 50 -->
      <g transform="translate(209.084893 273.078438) scale(0.1 -0.1)">
       <defs>
        <path id="DejaVuSans-35" d="M 691 4666 
L 3169 4666 
L 3169 4134 
L 1269 4134 
L 1269 2991 
Q 1406 3038 1543 3061 
Q 1681 3084 1819 3084 
Q 2600 3084 3056 2656 
Q 3513 2228 3513 1497 
Q 3513 744 3044 326 
Q 2575 -91 1722 -91 
Q 1428 -91 1123 -41 
Q 819 9 494 109 
L 494 744 
Q 775 591 1075 516 
Q 1375 441 1709 441 
Q 2250 441 2565 725 
Q 2881 1009 2881 1497 
Q 2881 1984 2565 2268 
Q 2250 2553 1709 2553 
Q 1456 2553 1204 2497 
Q 953 2441 691 2322 
L 691 4666 
z
" transform="scale(0.015625)"/>
       </defs>
       <use xlink:href="#DejaVuSans-35"/>
       <use xlink:href="#DejaVuSans-30" transform="translate(63.623047 0)"/>
      </g>
     </g>
    </g>
    <g id="xtick_3">
     <g id="line2d_5">
      <path d="M 338.658422 258.48 
L 338.658422 26.88 
" clip-path="url(#p54eb7f7870)" style="fill: none; stroke: #b0b0b0; stroke-width: 0.8; stroke-linecap: square"/>
     </g>
     <g id="line2d_6">
      <g>
       <use xlink:href="#m1d9261e401" x="338.658422" y="258.48" style="stroke: #000000; stroke-width: 0.8"/>
      </g>
     </g>
     <g id="text_3">
      <!-- 100 -->
      <g transform="translate(329.114672 273.078438) scale(0.1 -0.1)">
       <defs>
        <path id="DejaVuSans-31" d="M 794 531 
L 1825 531 
L 1825 4091 
L 703 3866 
L 703 4441 
L 1819 4666 
L 2450 4666 
L 2450 531 
L 3481 531 
L 3481 0 
L 794 0 
L 794 531 
z
" transform="scale(0.015625)"/>
       </defs>
       <use xlink:href="#DejaVuSans-31"/>
       <use xlink:href="#DejaVuSans-30" transform="translate(63.623047 0)"/>
       <use xlink:href="#DejaVuSans-30" transform="translate(127.246094 0)"/>
      </g>
     </g>
    </g>
    <g id="xtick_4">
     <g id="line2d_7">
      <path d="M 461.869451 258.48 
L 461.869451 26.88 
" clip-path="url(#p54eb7f7870)" style="fill: none; stroke: #b0b0b0; stroke-width: 0.8; stroke-linecap: square"/>
     </g>
     <g id="line2d_8">
      <g>
       <use xlink:href="#m1d9261e401" x="461.869451" y="258.48" style="stroke: #000000; stroke-width: 0.8"/>
      </g>
     </g>
     <g id="text_4">
      <!-- 150 -->
      <g transform="translate(452.325701 273.078438) scale(0.1 -0.1)">
       <use xlink:href="#DejaVuSans-31"/>
       <use xlink:href="#DejaVuSans-35" transform="translate(63.623047 0)"/>
       <use xlink:href="#DejaVuSans-30" transform="translate(127.246094 0)"/>
      </g>
     </g>
    </g>
    <g id="xtick_5">
     <g id="line2d_9">
      <path d="M 585.08048 258.48 
L 585.08048 26.88 
" clip-path="url(#p54eb7f7870)" style="fill: none; stroke: #b0b0b0; stroke-width: 0.8; stroke-linecap: square"/>
     </g>
     <g id="line2d_10">
      <g>
       <use xlink:href="#m1d9261e401" x="585.08048" y="258.48" style="stroke: #000000; stroke-width: 0.8"/>
      </g>
     </g>
     <g id="text_5">
      <!-- 200 -->
      <g transform="translate(575.53673 273.078438) scale(0.1 -0.1)">
       <defs>
        <path id="DejaVuSans-32" d="M 1228 531 
L 3431 531 
L 3431 0 
L 469 0 
L 469 531 
Q 828 903 1448 1529 
Q 2069 2156 2228 2338 
Q 2531 2678 2651 2914 
Q 2772 3150 2772 3378 
Q 2772 3750 2511 3984 
Q 2250 4219 1831 4219 
Q 1534 4219 1204 4116 
Q 875 4013 500 3803 
L 500 4441 
Q 881 4594 1212 4672 
Q 1544 4750 1819 4750 
Q 2544 4750 2975 4387 
Q 3406 4025 3406 3419 
Q 3406 3131 3298 2873 
Q 3191 2616 2906 2266 
Q 2828 2175 2409 1742 
Q 1991 1309 1228 531 
z
" transform="scale(0.015625)"/>
       </defs>
       <use xlink:href="#DejaVuSans-32"/>
       <use xlink:href="#DejaVuSans-30" transform="translate(63.623047 0)"/>
       <use xlink:href="#DejaVuSans-30" transform="translate(127.246094 0)"/>
      </g>
     </g>
    </g>
    <g id="xtick_6">
     <g id="line2d_11">
      <path d="M 708.291509 258.48 
L 708.291509 26.88 
" clip-path="url(#p54eb7f7870)" style="fill: none; stroke: #b0b0b0; stroke-width: 0.8; stroke-linecap: square"/>
     </g>
     <g id="line2d_12">
      <g>
       <use xlink:href="#m1d9261e401" x="708.291509" y="258.48" style="stroke: #000000; stroke-width: 0.8"/>
      </g>
     </g>
     <g id="text_6">
      <!-- 250 -->
      <g transform="translate(698.747759 273.078438) scale(0.1 -0.1)">
       <use xlink:href="#DejaVuSans-32"/>
       <use xlink:href="#DejaVuSans-35" transform="translate(63.623047 0)"/>
       <use xlink:href="#DejaVuSans-30" transform="translate(127.246094 0)"/>
      </g>
     </g>
    </g>
    <g id="xtick_7">
     <g id="line2d_13">
      <path d="M 831.502538 258.48 
L 831.502538 26.88 
" clip-path="url(#p54eb7f7870)" style="fill: none; stroke: #b0b0b0; stroke-width: 0.8; stroke-linecap: square"/>
     </g>
     <g id="line2d_14">
      <g>
       <use xlink:href="#m1d9261e401" x="831.502538" y="258.48" style="stroke: #000000; stroke-width: 0.8"/>
      </g>
     </g>
     <g id="text_7">
      <!-- 300 -->
      <g transform="translate(821.958788 273.078438) scale(0.1 -0.1)">
       <defs>
        <path id="DejaVuSans-33" d="M 2597 2516 
Q 3050 2419 3304 2112 
Q 3559 1806 3559 1356 
Q 3559 666 3084 287 
Q 2609 -91 1734 -91 
Q 1441 -91 1130 -33 
Q 819 25 488 141 
L 488 750 
Q 750 597 1062 519 
Q 1375 441 1716 441 
Q 2309 441 2620 675 
Q 2931 909 2931 1356 
Q 2931 1769 2642 2001 
Q 2353 2234 1838 2234 
L 1294 2234 
L 1294 2753 
L 1863 2753 
Q 2328 2753 2575 2939 
Q 2822 3125 2822 3475 
Q 2822 3834 2567 4026 
Q 2313 4219 1838 4219 
Q 1578 4219 1281 4162 
Q 984 4106 628 3988 
L 628 4550 
Q 988 4650 1302 4700 
Q 1616 4750 1894 4750 
Q 2613 4750 3031 4423 
Q 3450 4097 3450 3541 
Q 3450 3153 3228 2886 
Q 3006 2619 2597 2516 
z
" transform="scale(0.015625)"/>
       </defs>
       <use xlink:href="#DejaVuSans-33"/>
       <use xlink:href="#DejaVuSans-30" transform="translate(63.623047 0)"/>
       <use xlink:href="#DejaVuSans-30" transform="translate(127.246094 0)"/>
      </g>
     </g>
    </g>
   </g>
   <g id="matplotlib.axis_2">
    <g id="ytick_1">
     <g id="line2d_15">
      <path d="M 56 248.212977 
L 853.2 248.212977 
" clip-path="url(#p54eb7f7870)" style="fill: none; stroke: #b0b0b0; stroke-width: 0.8; stroke-linecap: square"/>
     </g>
     <g id="line2d_16">
      <defs>
       <path id="m177f172fb8" d="M 0 0 
L -3.5 0 
" style="stroke: #000000; stroke-width: 0.8"/>
      </defs>
      <g>
       <use xlink:href="#m177f172fb8" x="56" y="248.212977" style="stroke: #000000; stroke-width: 0.8"/>
      </g>
     </g>
     <g id="text_8">
      <!-- 0.0 -->
      <g transform="translate(33.096875 252.012195) scale(0.1 -0.1)">
       <defs>
        <path id="DejaVuSans-2e" d="M 684 794 
L 1344 794 
L 1344 0 
L 684 0 
L 684 794 
z
" transform="scale(0.015625)"/>
       </defs>
       <use xlink:href="#DejaVuSans-30"/>
       <use xlink:href="#DejaVuSans-2e" transform="translate(63.623047 0)"/>
       <use xlink:href="#DejaVuSans-30" transform="translate(95.410156 0)"/>
      </g>
     </g>
    </g>
    <g id="ytick_2">
     <g id="line2d_17">
      <path d="M 56 204.615862 
L 853.2 204.615862 
" clip-path="url(#p54eb7f7870)" style="fill: none; stroke: #b0b0b0; stroke-width: 0.8; stroke-linecap: square"/>
     </g>
     <g id="line2d_18">
      <g>
       <use xlink:href="#m177f172fb8" x="56" y="204.615862" style="stroke: #000000; stroke-width: 0.8"/>
      </g>
     </g>
     <g id="text_9">
      <!-- 0.1 -->
      <g transform="translate(33.096875 208.415081) scale(0.1 -0.1)">
       <use xlink:href="#DejaVuSans-30"/>
       <use xlink:href="#DejaVuSans-2e" transform="translate(63.623047 0)"/>
       <use xlink:href="#DejaVuSans-31" transform="translate(95.410156 0)"/>
      </g>
     </g>
    </g>
    <g id="ytick_3">
     <g id="line2d_19">
      <path d="M 56 161.018748 
L 853.2 161.018748 
" clip-path="url(#p54eb7f7870)" style="fill: none; stroke: #b0b0b0; stroke-width: 0.8; stroke-linecap: square"/>
     </g>
     <g id="line2d_20">
      <g>
       <use xlink:href="#m177f172fb8" x="56" y="161.018748" style="stroke: #000000; stroke-width: 0.8"/>
      </g>
     </g>
     <g id="text_10">
      <!-- 0.2 -->
      <g transform="translate(33.096875 164.817967) scale(0.1 -0.1)">
       <use xlink:href="#DejaVuSans-30"/>
       <use xlink:href="#DejaVuSans-2e" transform="translate(63.623047 0)"/>
       <use xlink:href="#DejaVuSans-32" transform="translate(95.410156 0)"/>
      </g>
     </g>
    </g>
    <g id="ytick_4">
     <g id="line2d_21">
      <path d="M 56 117.421633 
L 853.2 117.421633 
" clip-path="url(#p54eb7f7870)" style="fill: none; stroke: #b0b0b0; stroke-width: 0.8; stroke-linecap: square"/>
     </g>
     <g id="line2d_22">
      <g>
       <use xlink:href="#m177f172fb8" x="56" y="117.421633" style="stroke: #000000; stroke-width: 0.8"/>
      </g>
     </g>
     <g id="text_11">
      <!-- 0.3 -->
      <g transform="translate(33.096875 121.220852) scale(0.1 -0.1)">
       <use xlink:href="#DejaVuSans-30"/>
       <use xlink:href="#DejaVuSans-2e" transform="translate(63.623047 0)"/>
       <use xlink:href="#DejaVuSans-33" transform="translate(95.410156 0)"/>
      </g>
     </g>
    </g>
    <g id="ytick_5">
     <g id="line2d_23">
      <path d="M 56 73.824519 
L 853.2 73.824519 
" clip-path="url(#p54eb7f7870)" style="fill: none; stroke: #b0b0b0; stroke-width: 0.8; stroke-linecap: square"/>
     </g>
     <g id="line2d_24">
      <g>
       <use xlink:href="#m177f172fb8" x="56" y="73.824519" style="stroke: #000000; stroke-width: 0.8"/>
      </g>
     </g>
     <g id="text_12">
      <!-- 0.4 -->
      <g transform="translate(33.096875 77.623738) scale(0.1 -0.1)">
       <defs>
        <path id="DejaVuSans-34" d="M 2419 4116 
L 825 1625 
L 2419 1625 
L 2419 4116 
z
M 2253 4666 
L 3047 4666 
L 3047 1625 
L 3713 1625 
L 3713 1100 
L 3047 1100 
L 3047 0 
L 2419 0 
L 2419 1100 
L 313 1100 
L 313 1709 
L 2253 4666 
z
" transform="scale(0.015625)"/>
       </defs>
       <use xlink:href="#DejaVuSans-30"/>
       <use xlink:href="#DejaVuSans-2e" transform="translate(63.623047 0)"/>
       <use xlink:href="#DejaVuSans-34" transform="translate(95.410156 0)"/>
      </g>
     </g>
    </g>
    <g id="ytick_6">
     <g id="line2d_25">
      <path d="M 56 30.227405 
L 853.2 30.227405 
" clip-path="url(#p54eb7f7870)" style="fill: none; stroke: #b0b0b0; stroke-width: 0.8; stroke-linecap: square"/>
     </g>
     <g id="line2d_26">
      <g>
       <use xlink:href="#m177f172fb8" x="56" y="30.227405" style="stroke: #000000; stroke-width: 0.8"/>
      </g>
     </g>
     <g id="text_13">
      <!-- 0.5 -->
      <g transform="translate(33.096875 34.026623) scale(0.1 -0.1)">
       <use xlink:href="#DejaVuSans-30"/>
       <use xlink:href="#DejaVuSans-2e" transform="translate(63.623047 0)"/>
       <use xlink:href="#DejaVuSans-35" transform="translate(95.410156 0)"/>
      </g>
     </g>
    </g>
    <g id="text_14">
     <!-- Std Dev -->
     <g transform="translate(27.017187 162.463594) rotate(-90) scale(0.1 -0.1)">
      <defs>
       <path id="DejaVuSans-53" d="M 3425 4513 
L 3425 3897 
Q 3066 4069 2747 4153 
Q 2428 4238 2131 4238 
Q 1616 4238 1336 4038 
Q 1056 3838 1056 3469 
Q 1056 3159 1242 3001 
Q 1428 2844 1947 2747 
L 2328 2669 
Q 3034 2534 3370 2195 
Q 3706 1856 3706 1288 
Q 3706 609 3251 259 
Q 2797 -91 1919 -91 
Q 1588 -91 1214 -16 
Q 841 59 441 206 
L 441 856 
Q 825 641 1194 531 
Q 1563 422 1919 422 
Q 2459 422 2753 634 
Q 3047 847 3047 1241 
Q 3047 1584 2836 1778 
Q 2625 1972 2144 2069 
L 1759 2144 
Q 1053 2284 737 2584 
Q 422 2884 422 3419 
Q 422 4038 858 4394 
Q 1294 4750 2059 4750 
Q 2388 4750 2728 4690 
Q 3069 4631 3425 4513 
z
" transform="scale(0.015625)"/>
       <path id="DejaVuSans-74" d="M 1172 4494 
L 1172 3500 
L 2356 3500 
L 2356 3053 
L 1172 3053 
L 1172 1153 
Q 1172 725 1289 603 
Q 1406 481 1766 481 
L 2356 481 
L 2356 0 
L 1766 0 
Q 1100 0 847 248 
Q 594 497 594 1153 
L 594 3053 
L 172 3053 
L 172 3500 
L 594 3500 
L 594 4494 
L 1172 4494 
z
" transform="scale(0.015625)"/>
       <path id="DejaVuSans-64" d="M 2906 2969 
L 2906 4863 
L 3481 4863 
L 3481 0 
L 2906 0 
L 2906 525 
Q 2725 213 2448 61 
Q 2172 -91 1784 -91 
Q 1150 -91 751 415 
Q 353 922 353 1747 
Q 353 2572 751 3078 
Q 1150 3584 1784 3584 
Q 2172 3584 2448 3432 
Q 2725 3281 2906 2969 
z
M 947 1747 
Q 947 1113 1208 752 
Q 1469 391 1925 391 
Q 2381 391 2643 752 
Q 2906 1113 2906 1747 
Q 2906 2381 2643 2742 
Q 2381 3103 1925 3103 
Q 1469 3103 1208 2742 
Q 947 2381 947 1747 
z
" transform="scale(0.015625)"/>
       <path id="DejaVuSans-20" transform="scale(0.015625)"/>
       <path id="DejaVuSans-44" d="M 1259 4147 
L 1259 519 
L 2022 519 
Q 2988 519 3436 956 
Q 3884 1394 3884 2338 
Q 3884 3275 3436 3711 
Q 2988 4147 2022 4147 
L 1259 4147 
z
M 628 4666 
L 1925 4666 
Q 3281 4666 3915 4102 
Q 4550 3538 4550 2338 
Q 4550 1131 3912 565 
Q 3275 0 1925 0 
L 628 0 
L 628 4666 
z
" transform="scale(0.015625)"/>
       <path id="DejaVuSans-65" d="M 3597 1894 
L 3597 1613 
L 953 1613 
Q 991 1019 1311 708 
Q 1631 397 2203 397 
Q 2534 397 2845 478 
Q 3156 559 3463 722 
L 3463 178 
Q 3153 47 2828 -22 
Q 2503 -91 2169 -91 
Q 1331 -91 842 396 
Q 353 884 353 1716 
Q 353 2575 817 3079 
Q 1281 3584 2069 3584 
Q 2775 3584 3186 3129 
Q 3597 2675 3597 1894 
z
M 3022 2063 
Q 3016 2534 2758 2815 
Q 2500 3097 2075 3097 
Q 1594 3097 1305 2825 
Q 1016 2553 972 2059 
L 3022 2063 
z
" transform="scale(0.015625)"/>
       <path id="DejaVuSans-76" d="M 191 3500 
L 800 3500 
L 1894 563 
L 2988 3500 
L 3597 3500 
L 2284 0 
L 1503 0 
L 191 3500 
z
" transform="scale(0.015625)"/>
      </defs>
      <use xlink:href="#DejaVuSans-53"/>
      <use xlink:href="#DejaVuSans-74" transform="translate(63.476562 0)"/>
      <use xlink:href="#DejaVuSans-64" transform="translate(102.685547 0)"/>
      <use xlink:href="#DejaVuSans-20" transform="translate(166.162109 0)"/>
      <use xlink:href="#DejaVuSans-44" transform="translate(197.949219 0)"/>
      <use xlink:href="#DejaVuSans-65" transform="translate(274.951172 0)"/>
      <use xlink:href="#DejaVuSans-76" transform="translate(336.474609 0)"/>
     </g>
    </g>
   </g>
   <g id="line2d_27">
    <path d="M 92.236364 247.777006 
L 93.369905 247.942217 
L 103.719632 247.952331 
L 108.993064 247.887851 
L 109.683045 246.976676 
L 109.978752 245.940715 
L 110.373027 243.673186 
L 110.865871 239.414113 
L 111.457284 232.243067 
L 111.654422 229.53757 
L 111.802275 247.899339 
L 114.660771 247.950026 
L 133.388847 247.887905 
L 134.571673 246.454358 
L 135.015233 245.09808 
L 135.557361 242.651229 
L 136.050206 239.901196 
L 136.198059 247.921045 
L 136.740187 247.943545 
L 145.414244 247.952403 
L 145.857803 247.555025 
L 147.730611 246.411633 
L 148.124886 246.191868 
L 148.27274 247.928235 
L 148.765584 247.950683 
L 157.538209 247.888382 
L 158.080338 247.455259 
L 160.199567 246.207747 
L 160.34742 247.92841 
L 160.840265 247.951 
L 169.61289 247.888001 
L 170.105734 247.490805 
L 172.274248 246.15713 
L 172.422101 247.927763 
L 172.914945 247.950204 
L 181.687571 247.888189 
L 182.180415 247.493391 
L 184.102507 246.404929 
L 184.348929 246.28287 
L 184.496782 247.928687 
L 184.989626 247.951715 
L 193.712967 247.888416 
L 193.910105 247.553316 
L 194.156527 240.523274 
L 194.452233 240.162163 
L 194.846509 239.293964 
L 195.290068 237.780647 
L 195.684344 235.602254 
L 196.078619 232.135563 
L 196.177188 230.805844 
L 196.374325 227.26132 
L 196.42361 226.669674 
L 196.571463 247.879706 
L 200.169225 247.950809 
L 205.836932 247.888103 
L 206.625483 246.853874 
L 206.970474 245.450859 
L 207.414034 242.604066 
L 208.005447 237.247121 
L 208.498291 231.744501 
L 208.646144 247.907044 
L 210.223245 247.947002 
L 217.911613 247.888064 
L 218.453742 247.442228 
L 218.897301 246.971095 
L 219.291577 246.19387 
L 219.784421 244.643775 
L 220.425118 241.777151 
L 220.572971 241.045498 
L 220.720825 247.921314 
L 221.262953 247.944004 
L 229.93701 247.952527 
L 230.331285 247.591851 
L 231.711248 246.782862 
L 232.647652 246.229036 
L 232.795506 247.928175 
L 233.28835 247.950928 
L 242.060975 247.888386 
L 242.603103 247.457086 
L 244.475911 246.403856 
L 244.722333 246.284779 
L 244.870186 247.928783 
L 245.363031 247.951824 
L 254.135656 247.888398 
L 254.6285 247.496479 
L 256.353454 246.556868 
L 256.797014 246.309255 
L 256.944867 247.928247 
L 257.437711 247.950752 
L 266.210337 247.888404 
L 266.703181 247.499234 
L 268.03386 246.82127 
L 268.871695 246.431057 
L 269.019548 247.928974 
L 269.512392 247.951802 
L 278.235733 247.88857 
L 278.432871 247.695762 
L 278.728577 246.5129 
L 279.172137 246.189207 
L 279.566412 245.594386 
L 279.960687 244.568917 
L 280.502816 242.438781 
L 280.699954 241.207226 
L 280.897091 239.718572 
L 280.946376 239.475527 
L 281.094229 247.921544 
L 281.636357 247.942767 
L 290.261129 247.952547 
L 290.556836 247.54317 
L 290.704689 247.056579 
L 291.788946 246.473363 
L 292.28179 245.905038 
L 292.774634 245.015015 
L 293.021057 244.400891 
L 293.16891 247.922863 
L 293.711038 247.943916 
L 302.385095 247.952561 
L 302.631517 247.60815 
L 302.77937 247.194418 
L 305.046453 246.229806 
L 305.194306 247.928661 
L 305.68715 247.95071 
L 314.50906 247.888378 
L 314.706198 247.622261 
L 314.854051 247.250424 
L 317.121134 246.127478 
L 317.268987 247.928066 
L 317.761831 247.950342 
L 326.583741 247.888407 
L 326.780878 247.630276 
L 326.928732 247.280992 
L 329.195815 246.178916 
L 329.343668 247.928193 
L 329.836512 247.950534 
L 333.779265 247.952227 
L 333.877834 247.788879 
L 333.927118 247.816115 
L 334.321393 247.920848 
L 336.095632 247.94861 
L 350.585249 247.88785 
L 351.324515 246.911852 
L 351.620222 245.802492 
L 352.014497 243.416602 
L 352.507341 239.000979 
L 353.148039 230.982472 
L 353.246608 229.618021 
L 353.394461 247.899405 
L 356.203672 247.949958 
L 374.981033 247.887904 
L 376.163859 246.465829 
L 376.607419 245.106067 
L 377.149547 242.656148 
L 377.642391 239.904662 
L 377.790245 247.921075 
L 378.332373 247.943551 
L 387.006429 247.952404 
L 387.449989 247.554986 
L 389.174944 246.512406 
L 389.717072 246.205674 
L 389.864925 247.928249 
L 390.357769 247.950678 
L 399.130395 247.888384 
L 399.672523 247.455572 
L 401.791753 246.210823 
L 401.939606 247.928418 
L 402.43245 247.950986 
L 411.205076 247.887999 
L 411.69792 247.49089 
L 413.866434 246.158895 
L 414.014287 247.927764 
L 414.507131 247.950197 
L 423.279756 247.888187 
L 423.772601 247.493607 
L 425.645408 246.436461 
L 425.941115 246.288152 
L 426.088968 247.928698 
L 426.581812 247.951702 
L 435.305153 247.888416 
L 435.502291 247.553211 
L 435.748713 240.520443 
L 436.044419 240.159173 
L 436.438694 239.290975 
L 436.882254 237.779248 
L 437.276529 235.604798 
L 437.670805 232.144414 
L 437.769373 230.816094 
L 437.966511 227.273536 
L 438.015795 226.682824 
L 438.163649 247.879685 
L 441.761411 247.950809 
L 447.429118 247.888102 
L 448.217669 246.853975 
L 448.56266 245.450853 
L 449.006219 242.603214 
L 449.597632 237.243718 
L 450.090476 231.737906 
L 450.23833 247.907062 
L 451.815431 247.947003 
L 459.503799 247.888065 
L 460.045927 247.443613 
L 460.489487 246.972374 
L 460.883762 246.194812 
L 461.376607 244.64391 
L 462.017304 241.775652 
L 462.165157 241.043525 
L 462.31301 247.921316 
L 462.855139 247.94401 
L 471.529195 247.952527 
L 471.923471 247.591861 
L 473.303434 246.780659 
L 474.239838 246.224934 
L 474.387691 247.928159 
L 474.880535 247.950952 
L 483.653161 247.888401 
L 484.195289 247.45757 
L 486.117381 246.374263 
L 486.314519 246.278745 
L 486.462372 247.928755 
L 486.955216 247.951808 
L 495.727841 247.888398 
L 496.220686 247.496372 
L 497.94564 246.556612 
L 498.3892 246.309245 
L 498.537053 247.928247 
L 499.029897 247.950744 
L 507.802522 247.888402 
L 508.295366 247.499389 
L 509.626046 246.821334 
L 510.463881 246.431279 
L 510.611734 247.928985 
L 511.104578 247.951827 
L 519.827919 247.888572 
L 520.025056 247.69576 
L 520.320763 246.51208 
L 520.764323 246.188447 
L 521.158598 245.593757 
L 521.552873 244.568521 
L 522.095002 242.438713 
L 522.292139 241.207203 
L 522.489277 239.718485 
L 522.538561 239.475449 
L 522.686415 247.921544 
L 523.228543 247.942766 
L 531.853315 247.952547 
L 532.149022 247.543107 
L 532.296875 247.056343 
L 533.381132 246.473525 
L 533.873976 245.905665 
L 534.36682 245.016288 
L 534.613242 244.402625 
L 534.761095 247.92286 
L 535.303224 247.943911 
L 543.97728 247.95256 
L 544.223703 247.60807 
L 544.371556 247.194124 
L 546.638639 246.229377 
L 546.786492 247.928659 
L 547.279336 247.950709 
L 556.101246 247.888378 
L 556.298383 247.622207 
L 556.446237 247.250235 
L 558.71332 246.127416 
L 558.861173 247.928066 
L 559.354017 247.950341 
L 568.175927 247.888407 
L 568.373064 247.63023 
L 568.520917 247.280803 
L 570.788 246.178823 
L 570.935854 247.928192 
L 571.428698 247.950533 
L 575.371451 247.952226 
L 575.470019 247.777138 
L 575.519304 247.812649 
L 575.913579 247.92076 
L 577.687818 247.94696 
L 592.177435 247.885614 
L 592.325288 247.7289 
L 592.57171 246.075817 
L 592.768848 242.988616 
L 593.064554 233.652142 
L 593.45883 212.765048 
L 593.951674 172.875077 
L 594.543087 104.482958 
L 594.838793 63.714265 
L 594.986646 247.817197 
L 595.380922 247.920842 
L 597.155161 247.94697 
L 616.573219 247.886639 
L 616.770356 247.550827 
L 616.91821 246.993068 
L 617.460338 246.513552 
L 617.805329 245.890506 
L 618.199604 244.713478 
L 618.741733 242.291681 
L 619.234577 239.223971 
L 619.38243 247.92098 
L 619.924559 247.943909 
L 628.598615 247.951854 
L 629.042175 247.547042 
L 630.914983 246.159936 
L 631.309258 245.79795 
L 631.457111 247.927972 
L 631.949955 247.95039 
L 640.72258 247.887523 
L 641.215425 247.485342 
L 643.383939 246.080282 
L 643.531792 247.927252 
L 644.024636 247.949678 
L 652.797261 247.887209 
L 653.290105 247.484403 
L 655.45862 246.021014 
L 655.606473 247.926793 
L 656.099317 247.949084 
L 664.871942 247.887898 
L 665.364786 247.492044 
L 667.040456 246.565936 
L 667.5333 246.301565 
L 667.681154 247.928499 
L 668.173998 247.951532 
L 676.897339 247.888009 
L 676.995907 247.778586 
L 677.045192 247.477672 
L 677.094476 244.015543 
L 677.340898 171.784269 
L 677.58732 169.087528 
L 677.932311 162.306248 
L 678.375871 149.023696 
L 678.770146 130.573378 
L 679.164422 100.901294 
L 679.361559 78.207135 
L 679.558697 43.153712 
L 679.607981 37.407273 
L 679.755834 247.814827 
L 680.15011 247.920827 
L 681.924349 247.948618 
L 689.021304 247.887994 
L 689.169157 247.735975 
L 689.514148 245.573338 
L 689.76057 240.740977 
L 690.105561 228.658637 
L 690.598405 201.866223 
L 691.239102 152.775033 
L 691.682662 112.068877 
L 691.830515 247.823555 
L 692.274075 247.92473 
L 694.442589 247.949569 
L 701.095985 247.888198 
L 701.638113 247.446456 
L 702.081673 246.976405 
L 702.475948 246.160719 
L 702.968792 244.503397 
L 703.60949 241.401444 
L 703.757343 240.601637 
L 703.905196 247.921373 
L 704.39804 247.943932 
L 713.121381 247.952479 
L 713.515656 247.591594 
L 715.832024 246.056361 
L 715.979877 247.928208 
L 716.472721 247.950952 
L 725.245346 247.888593 
L 725.73819 247.500461 
L 726.970301 246.888374 
L 727.906705 246.473296 
L 728.054558 247.929103 
L 728.547402 247.951766 
L 737.320027 247.888247 
L 737.812871 247.496238 
L 739.734963 246.443268 
L 739.981385 246.299354 
L 740.129239 247.928142 
L 740.622083 247.95088 
L 749.394708 247.888547 
L 749.887552 247.499542 
L 751.218231 246.820835 
L 752.056066 246.429729 
L 752.20392 247.929016 
L 752.696764 247.95199 
L 761.420104 247.888523 
L 761.617242 247.530993 
L 761.863664 239.95826 
L 762.060802 239.212802 
L 762.307224 237.297818 
L 762.652215 232.335404 
L 763.04649 222.976819 
L 763.588619 203.98284 
L 763.884325 188.291347 
L 764.081463 174.839916 
L 764.130747 172.629776 
L 764.2786 247.921026 
L 764.820729 247.942359 
L 773.445501 247.952534 
L 773.741207 247.540584 
L 773.889061 247.047641 
L 774.874749 246.492241 
L 775.318309 245.906523 
L 775.860437 244.731776 
L 776.205428 243.618648 
L 776.353281 247.922031 
L 776.89541 247.94325 
L 785.569466 247.952543 
L 785.815888 247.606684 
L 785.963741 247.18937 
L 788.230824 246.217968 
L 788.378678 247.928575 
L 788.871522 247.950568 
L 797.693431 247.888326 
L 797.890569 247.621152 
L 798.038422 247.246739 
L 800.305505 246.10841 
L 800.453358 247.927977 
L 800.946203 247.950229 
L 809.768112 247.888377 
L 809.96525 247.629414 
L 810.113103 247.277867 
L 812.380186 246.168939 
L 812.528039 247.928136 
L 813.020883 247.950453 
L 816.963636 247.952207 
L 816.963636 247.952207 
" clip-path="url(#p54eb7f7870)" style="fill: none; stroke: #0000ff; stroke-width: 1.5; stroke-linecap: square"/>
   </g>
   <g id="line2d_28">
    <path d="M 92.236364 247.777006 
L 93.369905 247.942216 
L 103.719632 247.952331 
L 108.993064 247.88785 
L 109.633761 247.078062 
L 109.929467 246.126301 
L 110.323743 243.981172 
L 110.816587 239.878769 
L 111.408 232.881427 
L 111.654422 229.50946 
L 111.802275 247.899314 
L 114.660771 247.950024 
L 133.388847 247.887904 
L 134.571673 246.446835 
L 135.015233 245.087266 
L 135.557361 242.633485 
L 136.050206 239.876679 
L 136.198059 247.921031 
L 136.740187 247.943544 
L 145.414244 247.952403 
L 145.857803 247.554943 
L 147.730611 246.410625 
L 148.124886 246.190122 
L 148.27274 247.928235 
L 148.765584 247.950674 
L 157.538209 247.888382 
L 158.080338 247.455186 
L 160.199567 246.207598 
L 160.34742 247.928412 
L 160.840265 247.950999 
L 169.61289 247.888 
L 170.105734 247.490843 
L 172.274248 246.157271 
L 172.422101 247.927763 
L 172.914945 247.9502 
L 181.687571 247.888188 
L 182.180415 247.493422 
L 184.102507 246.406143 
L 184.348929 246.284094 
L 184.496782 247.928688 
L 184.989626 247.951712 
L 193.712967 247.888415 
L 193.910105 247.553588 
L 194.156527 240.529011 
L 194.452233 240.168093 
L 194.895793 239.161803 
L 195.339353 237.566242 
L 195.733628 235.251249 
L 196.127903 231.60021 
L 196.42361 226.672921 
L 196.571463 247.879729 
L 200.169225 247.950809 
L 205.836932 247.888101 
L 206.625483 246.853736 
L 206.970474 245.450764 
L 207.414034 242.604017 
L 208.005447 237.247278 
L 208.498291 231.744904 
L 208.646144 247.907039 
L 210.223245 247.947003 
L 217.911613 247.888064 
L 218.453742 247.441794 
L 218.897301 246.970482 
L 219.291577 246.192974 
L 219.784421 244.642688 
L 220.425118 241.775687 
L 220.572971 241.044027 
L 220.720825 247.921313 
L 221.262953 247.944006 
L 229.93701 247.952527 
L 230.331285 247.591866 
L 231.711248 246.783213 
L 232.647652 246.228682 
L 232.795506 247.928176 
L 233.28835 247.950925 
L 242.060975 247.888394 
L 242.603103 247.457128 
L 244.475911 246.405932 
L 244.722333 246.287134 
L 244.870186 247.928789 
L 245.363031 247.951824 
L 254.135656 247.888398 
L 254.6285 247.496503 
L 256.353454 246.557093 
L 256.797014 246.309457 
L 256.944867 247.928247 
L 257.437711 247.950747 
L 266.210337 247.888403 
L 266.703181 247.499199 
L 268.03386 246.821189 
L 268.871695 246.430969 
L 269.019548 247.928974 
L 269.512392 247.951805 
L 278.235733 247.888571 
L 278.432871 247.695757 
L 278.728577 246.51309 
L 279.172137 246.189423 
L 279.566412 245.594658 
L 279.960687 244.56923 
L 280.502816 242.439131 
L 280.699954 241.207599 
L 280.897091 239.719145 
L 280.946376 239.476086 
L 281.094229 247.921544 
L 281.636357 247.942766 
L 290.261129 247.952547 
L 290.556836 247.543109 
L 290.704689 247.056598 
L 291.788946 246.473401 
L 292.28179 245.905126 
L 292.774634 245.015168 
L 293.021057 244.401102 
L 293.16891 247.922864 
L 293.711038 247.943918 
L 302.385095 247.952561 
L 302.631517 247.608159 
L 302.77937 247.194556 
L 305.046453 246.229846 
L 305.194306 247.928662 
L 305.68715 247.950709 
L 314.50906 247.888378 
L 314.706198 247.622318 
L 314.854051 247.25047 
L 317.121134 246.127535 
L 317.268987 247.928066 
L 317.761831 247.950343 
L 326.583741 247.888407 
L 326.780878 247.630309 
L 326.928732 247.281051 
L 329.195815 246.178965 
L 329.343668 247.928193 
L 329.836512 247.950535 
L 333.779265 247.952227 
L 333.877834 247.788879 
L 333.927118 247.816115 
L 334.321393 247.920847 
L 336.144917 247.948733 
L 350.585249 247.887849 
L 351.275231 247.018225 
L 351.570938 245.998378 
L 351.965213 243.737114 
L 352.458057 239.478772 
L 353.04947 232.303272 
L 353.246608 229.587438 
L 353.394461 247.899387 
L 356.252957 247.950024 
L 374.981033 247.887903 
L 376.163859 246.458841 
L 376.607419 245.096662 
L 377.149547 242.641021 
L 377.642391 239.883604 
L 377.790245 247.921062 
L 378.332373 247.943554 
L 387.006429 247.952404 
L 387.449989 247.554919 
L 389.174944 246.511098 
L 389.717072 246.202932 
L 389.864925 247.928247 
L 390.357769 247.950674 
L 399.130395 247.888384 
L 399.672523 247.455505 
L 401.791753 246.210034 
L 401.939606 247.928418 
L 402.43245 247.950988 
L 411.205076 247.887999 
L 411.69792 247.490912 
L 413.866434 246.158692 
L 414.014287 247.927764 
L 414.507131 247.950194 
L 423.279756 247.888186 
L 423.772601 247.493618 
L 425.645408 246.436858 
L 425.941115 246.288402 
L 426.088968 247.928697 
L 426.581812 247.951702 
L 435.305153 247.888415 
L 435.502291 247.553483 
L 435.748713 240.526211 
L 436.044419 240.165119 
L 436.487979 239.158857 
L 436.931538 237.565084 
L 437.325814 235.254197 
L 437.720089 231.609465 
L 438.015795 226.685353 
L 438.163649 247.879708 
L 441.761411 247.950809 
L 447.429118 247.888101 
L 448.217669 246.853884 
L 448.56266 245.45078 
L 449.006219 242.603154 
L 449.597632 237.243835 
L 450.090476 231.738383 
L 450.23833 247.90706 
L 451.815431 247.947003 
L 459.503799 247.888066 
L 460.045927 247.443188 
L 460.489487 246.971911 
L 460.883762 246.194305 
L 461.376607 244.643604 
L 462.017304 241.775491 
L 462.165157 241.043465 
L 462.31301 247.921316 
L 462.855139 247.944011 
L 471.529195 247.952527 
L 471.923471 247.591877 
L 473.303434 246.780833 
L 474.239838 246.224077 
L 474.387691 247.92816 
L 474.880535 247.95095 
L 483.653161 247.888408 
L 484.195289 247.45761 
L 486.117381 246.376408 
L 486.314519 246.281081 
L 486.462372 247.92876 
L 486.955216 247.951808 
L 495.727841 247.888398 
L 496.220686 247.496394 
L 497.94564 246.556842 
L 498.3892 246.309433 
L 498.537053 247.928247 
L 499.029897 247.95074 
L 507.802522 247.888402 
L 508.295366 247.499354 
L 509.626046 246.821215 
L 510.463881 246.431158 
L 510.611734 247.928986 
L 511.104578 247.951832 
L 519.827919 247.888573 
L 520.025056 247.695758 
L 520.320763 246.512305 
L 520.764323 246.188709 
L 521.158598 245.594071 
L 521.552873 244.568853 
L 522.095002 242.439035 
L 522.292139 241.207512 
L 522.489277 239.718958 
L 522.538561 239.475903 
L 522.686415 247.921544 
L 523.228543 247.942765 
L 531.853315 247.952547 
L 532.149022 247.543049 
L 532.296875 247.056374 
L 533.381132 246.473594 
L 533.873976 245.905792 
L 534.36682 245.016486 
L 534.613242 244.402887 
L 534.761095 247.922861 
L 535.303224 247.943913 
L 543.97728 247.95256 
L 544.223703 247.608081 
L 544.371556 247.194265 
L 546.638639 246.229438 
L 546.786492 247.92866 
L 547.279336 247.950708 
L 556.101246 247.888378 
L 556.298383 247.622267 
L 556.446237 247.25029 
L 558.71332 246.127506 
L 558.861173 247.928066 
L 559.354017 247.950342 
L 568.175927 247.888408 
L 568.373064 247.630263 
L 568.520917 247.280862 
L 570.788 246.178854 
L 570.935854 247.928192 
L 571.428698 247.950533 
L 575.371451 247.952226 
L 575.470019 247.777138 
L 575.519304 247.812647 
L 575.913579 247.920755 
L 577.687818 247.94695 
L 592.177435 247.885505 
L 592.325288 247.72893 
L 592.57171 245.91704 
L 592.768848 242.707926 
L 593.064554 233.330927 
L 593.45883 212.432294 
L 593.951674 172.535953 
L 594.543087 104.136083 
L 594.838793 63.421048 
L 594.986646 247.817197 
L 595.380922 247.920807 
L 597.155161 247.946945 
L 616.573219 247.886576 
L 616.721072 247.731866 
L 617.016778 246.673757 
L 617.460338 246.250468 
L 617.805329 245.622564 
L 618.199604 244.436284 
L 618.741733 241.980666 
L 619.234577 238.865129 
L 619.38243 247.920932 
L 619.924559 247.943902 
L 628.598615 247.95181 
L 629.042175 247.54678 
L 630.619276 246.370341 
L 631.309258 245.641911 
L 631.457111 247.927959 
L 631.949955 247.950362 
L 640.72258 247.887482 
L 641.215425 247.485411 
L 643.383939 246.080804 
L 643.531792 247.927227 
L 644.024636 247.949613 
L 652.797261 247.887188 
L 653.290105 247.484422 
L 655.45862 246.021711 
L 655.606473 247.926784 
L 656.099317 247.949069 
L 664.871942 247.887836 
L 665.364786 247.492015 
L 666.991172 246.592363 
L 667.5333 246.301324 
L 667.681154 247.928483 
L 668.173998 247.951491 
L 676.946623 247.83352 
L 676.995907 247.778833 
L 677.045192 247.502644 
L 677.094476 244.233499 
L 677.340898 175.733288 
L 677.58732 172.891374 
L 677.932311 165.80892 
L 678.375871 152.059832 
L 678.770146 133.137006 
L 679.164422 102.960595 
L 679.361559 80.23404 
L 679.558697 46.041144 
L 679.607981 40.217954 
L 679.755834 247.814918 
L 680.15011 247.92083 
L 681.924349 247.948617 
L 689.021304 247.887907 
L 689.169157 247.73651 
L 689.514148 245.607432 
L 689.76057 240.75249 
L 690.105561 228.661458 
L 690.598405 201.862308 
L 691.239102 152.759609 
L 691.682662 112.040812 
L 691.830515 247.823543 
L 692.274075 247.924732 
L 694.442589 247.949568 
L 701.095985 247.888198 
L 701.638113 247.443245 
L 702.081673 246.971588 
L 702.475948 246.155819 
L 702.968792 244.501429 
L 703.60949 241.40378 
L 703.757343 240.6044 
L 703.905196 247.921372 
L 704.39804 247.943926 
L 713.121381 247.952479 
L 713.515656 247.591584 
L 715.832024 245.9694 
L 715.979877 247.928205 
L 716.472721 247.950952 
L 725.245346 247.888596 
L 725.73819 247.500392 
L 726.970301 246.888288 
L 727.906705 246.473236 
L 728.054558 247.929101 
L 728.547402 247.951765 
L 737.320027 247.888244 
L 737.812871 247.496242 
L 739.734963 246.443098 
L 739.981385 246.299094 
L 740.129239 247.92814 
L 740.622083 247.950879 
L 749.394708 247.888546 
L 749.887552 247.499492 
L 751.218231 246.820746 
L 752.056066 246.429624 
L 752.20392 247.929016 
L 752.696764 247.95199 
L 761.420104 247.88853 
L 761.617242 247.531528 
L 761.863664 239.976821 
L 762.060802 239.233125 
L 762.307224 237.322212 
L 762.652215 232.370614 
L 763.04649 223.032238 
L 763.588619 204.079201 
L 763.884325 188.421227 
L 764.081463 174.999757 
L 764.130747 172.794283 
L 764.2786 247.921027 
L 764.820729 247.942358 
L 773.445501 247.952534 
L 773.741207 247.540526 
L 773.889061 247.047675 
L 774.874749 246.492303 
L 775.318309 245.90663 
L 775.860437 244.731978 
L 776.205428 243.618934 
L 776.353281 247.922031 
L 776.89541 247.943251 
L 785.569466 247.952543 
L 785.815888 247.606693 
L 785.963741 247.189507 
L 788.230824 246.218059 
L 788.378678 247.928576 
L 788.871522 247.950567 
L 797.693431 247.888326 
L 797.890569 247.621212 
L 798.038422 247.246794 
L 800.305505 246.108479 
L 800.453358 247.927977 
L 800.946203 247.95023 
L 809.768112 247.888377 
L 809.96525 247.629447 
L 810.113103 247.277926 
L 812.380186 246.168973 
L 812.528039 247.928136 
L 813.020883 247.950454 
L 816.963636 247.952207 
L 816.963636 247.952207 
" clip-path="url(#p54eb7f7870)" style="fill: none; stroke-dasharray: 5.55,2.4; stroke-dashoffset: 0; stroke: #ff0000; stroke-width: 1.5"/>
   </g>
   <g id="line2d_29">
    <path d="M 333.828549 258.48 
L 333.828549 26.88 
" clip-path="url(#p54eb7f7870)" style="fill: none; stroke-dasharray: 1.5,2.475; stroke-dashoffset: 0; stroke: #808080; stroke-opacity: 0.6; stroke-width: 1.5"/>
   </g>
   <g id="line2d_30">
    <path d="M 575.420735 258.48 
L 575.420735 26.88 
" clip-path="url(#p54eb7f7870)" style="fill: none; stroke-dasharray: 1.5,2.475; stroke-dashoffset: 0; stroke: #808080; stroke-opacity: 0.6; stroke-width: 1.5"/>
   </g>
   <g id="patch_3">
    <path d="M 56 258.48 
L 56 26.88 
" style="fill: none; stroke: #000000; stroke-width: 0.8; stroke-linejoin: miter; stroke-linecap: square"/>
   </g>
   <g id="patch_4">
    <path d="M 853.2 258.48 
L 853.2 26.88 
" style="fill: none; stroke: #000000; stroke-width: 0.8; stroke-linejoin: miter; stroke-linecap: square"/>
   </g>
   <g id="patch_5">
    <path d="M 56 258.48 
L 853.2 258.48 
" style="fill: none; stroke: #000000; stroke-width: 0.8; stroke-linejoin: miter; stroke-linecap: square"/>
   </g>
   <g id="patch_6">
    <path d="M 56 26.88 
L 853.2 26.88 
" style="fill: none; stroke: #000000; stroke-width: 0.8; stroke-linejoin: miter; stroke-linecap: square"/>
   </g>
   <g id="text_15">
    <!-- [03] dVE  —  Uncertainty (std dev) -->
    <g transform="translate(351.15625 20.88) scale(0.12 -0.12)">
     <defs>
      <path id="DejaVuSans-5b" d="M 550 4863 
L 1875 4863 
L 1875 4416 
L 1125 4416 
L 1125 -397 
L 1875 -397 
L 1875 -844 
L 550 -844 
L 550 4863 
z
" transform="scale(0.015625)"/>
      <path id="DejaVuSans-5d" d="M 1947 4863 
L 1947 -844 
L 622 -844 
L 622 -397 
L 1369 -397 
L 1369 4416 
L 622 4416 
L 622 4863 
L 1947 4863 
z
" transform="scale(0.015625)"/>
      <path id="DejaVuSans-56" d="M 1831 0 
L 50 4666 
L 709 4666 
L 2188 738 
L 3669 4666 
L 4325 4666 
L 2547 0 
L 1831 0 
z
" transform="scale(0.015625)"/>
      <path id="DejaVuSans-45" d="M 628 4666 
L 3578 4666 
L 3578 4134 
L 1259 4134 
L 1259 2753 
L 3481 2753 
L 3481 2222 
L 1259 2222 
L 1259 531 
L 3634 531 
L 3634 0 
L 628 0 
L 628 4666 
z
" transform="scale(0.015625)"/>
      <path id="DejaVuSans-2014" d="M 313 1978 
L 6088 1978 
L 6088 1528 
L 313 1528 
L 313 1978 
z
" transform="scale(0.015625)"/>
      <path id="DejaVuSans-55" d="M 556 4666 
L 1191 4666 
L 1191 1831 
Q 1191 1081 1462 751 
Q 1734 422 2344 422 
Q 2950 422 3222 751 
Q 3494 1081 3494 1831 
L 3494 4666 
L 4128 4666 
L 4128 1753 
Q 4128 841 3676 375 
Q 3225 -91 2344 -91 
Q 1459 -91 1007 375 
Q 556 841 556 1753 
L 556 4666 
z
" transform="scale(0.015625)"/>
      <path id="DejaVuSans-6e" d="M 3513 2113 
L 3513 0 
L 2938 0 
L 2938 2094 
Q 2938 2591 2744 2837 
Q 2550 3084 2163 3084 
Q 1697 3084 1428 2787 
Q 1159 2491 1159 1978 
L 1159 0 
L 581 0 
L 581 3500 
L 1159 3500 
L 1159 2956 
Q 1366 3272 1645 3428 
Q 1925 3584 2291 3584 
Q 2894 3584 3203 3211 
Q 3513 2838 3513 2113 
z
" transform="scale(0.015625)"/>
      <path id="DejaVuSans-63" d="M 3122 3366 
L 3122 2828 
Q 2878 2963 2633 3030 
Q 2388 3097 2138 3097 
Q 1578 3097 1268 2742 
Q 959 2388 959 1747 
Q 959 1106 1268 751 
Q 1578 397 2138 397 
Q 2388 397 2633 464 
Q 2878 531 3122 666 
L 3122 134 
Q 2881 22 2623 -34 
Q 2366 -91 2075 -91 
Q 1284 -91 818 406 
Q 353 903 353 1747 
Q 353 2603 823 3093 
Q 1294 3584 2113 3584 
Q 2378 3584 2631 3529 
Q 2884 3475 3122 3366 
z
" transform="scale(0.015625)"/>
      <path id="DejaVuSans-72" d="M 2631 2963 
Q 2534 3019 2420 3045 
Q 2306 3072 2169 3072 
Q 1681 3072 1420 2755 
Q 1159 2438 1159 1844 
L 1159 0 
L 581 0 
L 581 3500 
L 1159 3500 
L 1159 2956 
Q 1341 3275 1631 3429 
Q 1922 3584 2338 3584 
Q 2397 3584 2469 3576 
Q 2541 3569 2628 3553 
L 2631 2963 
z
" transform="scale(0.015625)"/>
      <path id="DejaVuSans-61" d="M 2194 1759 
Q 1497 1759 1228 1600 
Q 959 1441 959 1056 
Q 959 750 1161 570 
Q 1363 391 1709 391 
Q 2188 391 2477 730 
Q 2766 1069 2766 1631 
L 2766 1759 
L 2194 1759 
z
M 3341 1997 
L 3341 0 
L 2766 0 
L 2766 531 
Q 2569 213 2275 61 
Q 1981 -91 1556 -91 
Q 1019 -91 701 211 
Q 384 513 384 1019 
Q 384 1609 779 1909 
Q 1175 2209 1959 2209 
L 2766 2209 
L 2766 2266 
Q 2766 2663 2505 2880 
Q 2244 3097 1772 3097 
Q 1472 3097 1187 3025 
Q 903 2953 641 2809 
L 641 3341 
Q 956 3463 1253 3523 
Q 1550 3584 1831 3584 
Q 2591 3584 2966 3190 
Q 3341 2797 3341 1997 
z
" transform="scale(0.015625)"/>
      <path id="DejaVuSans-69" d="M 603 3500 
L 1178 3500 
L 1178 0 
L 603 0 
L 603 3500 
z
M 603 4863 
L 1178 4863 
L 1178 4134 
L 603 4134 
L 603 4863 
z
" transform="scale(0.015625)"/>
      <path id="DejaVuSans-79" d="M 2059 -325 
Q 1816 -950 1584 -1140 
Q 1353 -1331 966 -1331 
L 506 -1331 
L 506 -850 
L 844 -850 
Q 1081 -850 1212 -737 
Q 1344 -625 1503 -206 
L 1606 56 
L 191 3500 
L 800 3500 
L 1894 763 
L 2988 3500 
L 3597 3500 
L 2059 -325 
z
" transform="scale(0.015625)"/>
      <path id="DejaVuSans-28" d="M 1984 4856 
Q 1566 4138 1362 3434 
Q 1159 2731 1159 2009 
Q 1159 1288 1364 580 
Q 1569 -128 1984 -844 
L 1484 -844 
Q 1016 -109 783 600 
Q 550 1309 550 2009 
Q 550 2706 781 3412 
Q 1013 4119 1484 4856 
L 1984 4856 
z
" transform="scale(0.015625)"/>
      <path id="DejaVuSans-73" d="M 2834 3397 
L 2834 2853 
Q 2591 2978 2328 3040 
Q 2066 3103 1784 3103 
Q 1356 3103 1142 2972 
Q 928 2841 928 2578 
Q 928 2378 1081 2264 
Q 1234 2150 1697 2047 
L 1894 2003 
Q 2506 1872 2764 1633 
Q 3022 1394 3022 966 
Q 3022 478 2636 193 
Q 2250 -91 1575 -91 
Q 1294 -91 989 -36 
Q 684 19 347 128 
L 347 722 
Q 666 556 975 473 
Q 1284 391 1588 391 
Q 1994 391 2212 530 
Q 2431 669 2431 922 
Q 2431 1156 2273 1281 
Q 2116 1406 1581 1522 
L 1381 1569 
Q 847 1681 609 1914 
Q 372 2147 372 2553 
Q 372 3047 722 3315 
Q 1072 3584 1716 3584 
Q 2034 3584 2315 3537 
Q 2597 3491 2834 3397 
z
" transform="scale(0.015625)"/>
      <path id="DejaVuSans-29" d="M 513 4856 
L 1013 4856 
Q 1481 4119 1714 3412 
Q 1947 2706 1947 2009 
Q 1947 1309 1714 600 
Q 1481 -109 1013 -844 
L 513 -844 
Q 928 -128 1133 580 
Q 1338 1288 1338 2009 
Q 1338 2731 1133 3434 
Q 928 4138 513 4856 
z
" transform="scale(0.015625)"/>
     </defs>
     <use xlink:href="#DejaVuSans-5b"/>
     <use xlink:href="#DejaVuSans-30" transform="translate(39.013672 0)"/>
     <use xlink:href="#DejaVuSans-33" transform="translate(102.636719 0)"/>
     <use xlink:href="#DejaVuSans-5d" transform="translate(166.259766 0)"/>
     <use xlink:href="#DejaVuSans-20" transform="translate(205.273438 0)"/>
     <use xlink:href="#DejaVuSans-64" transform="translate(237.060547 0)"/>
     <use xlink:href="#DejaVuSans-56" transform="translate(300.537109 0)"/>
     <use xlink:href="#DejaVuSans-45" transform="translate(368.945312 0)"/>
     <use xlink:href="#DejaVuSans-20" transform="translate(432.128906 0)"/>
     <use xlink:href="#DejaVuSans-20" transform="translate(463.916016 0)"/>
     <use xlink:href="#DejaVuSans-2014" transform="translate(495.703125 0)"/>
     <use xlink:href="#DejaVuSans-20" transform="translate(595.703125 0)"/>
     <use xlink:href="#DejaVuSans-20" transform="translate(627.490234 0)"/>
     <use xlink:href="#DejaVuSans-55" transform="translate(659.277344 0)"/>
     <use xlink:href="#DejaVuSans-6e" transform="translate(732.470703 0)"/>
     <use xlink:href="#DejaVuSans-63" transform="translate(795.849609 0)"/>
     <use xlink:href="#DejaVuSans-65" transform="translate(850.830078 0)"/>
     <use xlink:href="#DejaVuSans-72" transform="translate(912.353516 0)"/>
     <use xlink:href="#DejaVuSans-74" transform="translate(953.466797 0)"/>
     <use xlink:href="#DejaVuSans-61" transform="translate(992.675781 0)"/>
     <use xlink:href="#DejaVuSans-69" transform="translate(1053.955078 0)"/>
     <use xlink:href="#DejaVuSans-6e" transform="translate(1081.738281 0)"/>
     <use xlink:href="#DejaVuSans-74" transform="translate(1145.117188 0)"/>
     <use xlink:href="#DejaVuSans-79" transform="translate(1184.326172 0)"/>
     <use xlink:href="#DejaVuSans-20" transform="translate(1243.505859 0)"/>
     <use xlink:href="#DejaVuSans-28" transform="translate(1275.292969 0)"/>
     <use xlink:href="#DejaVuSans-73" transform="translate(1314.306641 0)"/>
     <use xlink:href="#DejaVuSans-74" transform="translate(1366.40625 0)"/>
     <use xlink:href="#DejaVuSans-64" transform="translate(1405.615234 0)"/>
     <use xlink:href="#DejaVuSans-20" transform="translate(1469.091797 0)"/>
     <use xlink:href="#DejaVuSans-64" transform="translate(1500.878906 0)"/>
     <use xlink:href="#DejaVuSans-65" transform="translate(1564.355469 0)"/>
     <use xlink:href="#DejaVuSans-76" transform="translate(1625.878906 0)"/>
     <use xlink:href="#DejaVuSans-29" transform="translate(1685.058594 0)"/>
    </g>
   </g>
   <g id="legend_1">
    <g id="patch_7">
     <path d="M 738.401563 64.23625 
L 846.2 64.23625 
Q 848.2 64.23625 848.2 62.23625 
L 848.2 33.88 
Q 848.2 31.88 846.2 31.88 
L 738.401563 31.88 
Q 736.401563 31.88 736.401563 33.88 
L 736.401563 62.23625 
Q 736.401563 64.23625 738.401563 64.23625 
z
" style="fill: #ffffff; opacity: 0.8; stroke: #cccccc; stroke-linejoin: miter"/>
    </g>
    <g id="line2d_31">
     <path d="M 740.401563 39.978437 
L 750.401563 39.978437 
L 760.401563 39.978437 
" style="fill: none; stroke: #0000ff; stroke-width: 1.5; stroke-linecap: square"/>
    </g>
    <g id="text_16">
     <!-- No Noise -->
     <g transform="translate(768.401563 43.478437) scale(0.1 -0.1)">
      <defs>
       <path id="DejaVuSans-4e" d="M 628 4666 
L 1478 4666 
L 3547 763 
L 3547 4666 
L 4159 4666 
L 4159 0 
L 3309 0 
L 1241 3903 
L 1241 0 
L 628 0 
L 628 4666 
z
" transform="scale(0.015625)"/>
       <path id="DejaVuSans-6f" d="M 1959 3097 
Q 1497 3097 1228 2736 
Q 959 2375 959 1747 
Q 959 1119 1226 758 
Q 1494 397 1959 397 
Q 2419 397 2687 759 
Q 2956 1122 2956 1747 
Q 2956 2369 2687 2733 
Q 2419 3097 1959 3097 
z
M 1959 3584 
Q 2709 3584 3137 3096 
Q 3566 2609 3566 1747 
Q 3566 888 3137 398 
Q 2709 -91 1959 -91 
Q 1206 -91 779 398 
Q 353 888 353 1747 
Q 353 2609 779 3096 
Q 1206 3584 1959 3584 
z
" transform="scale(0.015625)"/>
      </defs>
      <use xlink:href="#DejaVuSans-4e"/>
      <use xlink:href="#DejaVuSans-6f" transform="translate(74.804688 0)"/>
      <use xlink:href="#DejaVuSans-20" transform="translate(135.986328 0)"/>
      <use xlink:href="#DejaVuSans-4e" transform="translate(167.773438 0)"/>
      <use xlink:href="#DejaVuSans-6f" transform="translate(242.578125 0)"/>
      <use xlink:href="#DejaVuSans-69" transform="translate(303.759766 0)"/>
      <use xlink:href="#DejaVuSans-73" transform="translate(331.542969 0)"/>
      <use xlink:href="#DejaVuSans-65" transform="translate(383.642578 0)"/>
     </g>
    </g>
    <g id="line2d_32">
     <path d="M 740.401563 54.656562 
L 750.401563 54.656562 
L 760.401563 54.656562 
" style="fill: none; stroke-dasharray: 5.55,2.4; stroke-dashoffset: 0; stroke: #ff0000; stroke-width: 1.5"/>
    </g>
    <g id="text_17">
     <!-- With ARW/VRW -->
     <g transform="translate(768.401563 58.156562) scale(0.1 -0.1)">
      <defs>
       <path id="DejaVuSans-57" d="M 213 4666 
L 850 4666 
L 1831 722 
L 2809 4666 
L 3519 4666 
L 4500 722 
L 5478 4666 
L 6119 4666 
L 4947 0 
L 4153 0 
L 3169 4050 
L 2175 0 
L 1381 0 
L 213 4666 
z
" transform="scale(0.015625)"/>
       <path id="DejaVuSans-68" d="M 3513 2113 
L 3513 0 
L 2938 0 
L 2938 2094 
Q 2938 2591 2744 2837 
Q 2550 3084 2163 3084 
Q 1697 3084 1428 2787 
Q 1159 2491 1159 1978 
L 1159 0 
L 581 0 
L 581 4863 
L 1159 4863 
L 1159 2956 
Q 1366 3272 1645 3428 
Q 1925 3584 2291 3584 
Q 2894 3584 3203 3211 
Q 3513 2838 3513 2113 
z
" transform="scale(0.015625)"/>
       <path id="DejaVuSans-41" d="M 2188 4044 
L 1331 1722 
L 3047 1722 
L 2188 4044 
z
M 1831 4666 
L 2547 4666 
L 4325 0 
L 3669 0 
L 3244 1197 
L 1141 1197 
L 716 0 
L 50 0 
L 1831 4666 
z
" transform="scale(0.015625)"/>
       <path id="DejaVuSans-52" d="M 2841 2188 
Q 3044 2119 3236 1894 
Q 3428 1669 3622 1275 
L 4263 0 
L 3584 0 
L 2988 1197 
Q 2756 1666 2539 1819 
Q 2322 1972 1947 1972 
L 1259 1972 
L 1259 0 
L 628 0 
L 628 4666 
L 2053 4666 
Q 2853 4666 3247 4331 
Q 3641 3997 3641 3322 
Q 3641 2881 3436 2590 
Q 3231 2300 2841 2188 
z
M 1259 4147 
L 1259 2491 
L 2053 2491 
Q 2509 2491 2742 2702 
Q 2975 2913 2975 3322 
Q 2975 3731 2742 3939 
Q 2509 4147 2053 4147 
L 1259 4147 
z
" transform="scale(0.015625)"/>
       <path id="DejaVuSans-2f" d="M 1625 4666 
L 2156 4666 
L 531 -594 
L 0 -594 
L 1625 4666 
z
" transform="scale(0.015625)"/>
      </defs>
      <use xlink:href="#DejaVuSans-57"/>
      <use xlink:href="#DejaVuSans-69" transform="translate(96.626953 0)"/>
      <use xlink:href="#DejaVuSans-74" transform="translate(124.410156 0)"/>
      <use xlink:href="#DejaVuSans-68" transform="translate(163.619141 0)"/>
      <use xlink:href="#DejaVuSans-20" transform="translate(226.998047 0)"/>
      <use xlink:href="#DejaVuSans-41" transform="translate(258.785156 0)"/>
      <use xlink:href="#DejaVuSans-52" transform="translate(327.193359 0)"/>
      <use xlink:href="#DejaVuSans-57" transform="translate(392.675781 0)"/>
      <use xlink:href="#DejaVuSans-2f" transform="translate(491.552734 0)"/>
      <use xlink:href="#DejaVuSans-56" transform="translate(525.244141 0)"/>
      <use xlink:href="#DejaVuSans-52" transform="translate(593.652344 0)"/>
      <use xlink:href="#DejaVuSans-57" transform="translate(659.134766 0)"/>
     </g>
    </g>
   </g>
  </g>
  <g id="axes_2">
   <g id="patch_8">
    <path d="M 56 534.04 
L 853.2 534.04 
L 853.2 302.44 
L 56 302.44 
z
" style="fill: #ffffff"/>
   </g>
   <g id="matplotlib.axis_3">
    <g id="xtick_8">
     <g id="line2d_33">
      <path d="M 92.236364 534.04 
L 92.236364 302.44 
" clip-path="url(#p74c84218ed)" style="fill: none; stroke: #b0b0b0; stroke-width: 0.8; stroke-linecap: square"/>
     </g>
     <g id="line2d_34">
      <g>
       <use xlink:href="#m1d9261e401" x="92.236364" y="534.04" style="stroke: #000000; stroke-width: 0.8"/>
      </g>
     </g>
     <g id="text_18">
      <!-- 0 -->
      <g transform="translate(89.055114 548.638438) scale(0.1 -0.1)">
       <use xlink:href="#DejaVuSans-30"/>
      </g>
     </g>
    </g>
    <g id="xtick_9">
     <g id="line2d_35">
      <path d="M 215.447393 534.04 
L 215.447393 302.44 
" clip-path="url(#p74c84218ed)" style="fill: none; stroke: #b0b0b0; stroke-width: 0.8; stroke-linecap: square"/>
     </g>
     <g id="line2d_36">
      <g>
       <use xlink:href="#m1d9261e401" x="215.447393" y="534.04" style="stroke: #000000; stroke-width: 0.8"/>
      </g>
     </g>
     <g id="text_19">
      <!-- 50 -->
      <g transform="translate(209.084893 548.638438) scale(0.1 -0.1)">
       <use xlink:href="#DejaVuSans-35"/>
       <use xlink:href="#DejaVuSans-30" transform="translate(63.623047 0)"/>
      </g>
     </g>
    </g>
    <g id="xtick_10">
     <g id="line2d_37">
      <path d="M 338.658422 534.04 
L 338.658422 302.44 
" clip-path="url(#p74c84218ed)" style="fill: none; stroke: #b0b0b0; stroke-width: 0.8; stroke-linecap: square"/>
     </g>
     <g id="line2d_38">
      <g>
       <use xlink:href="#m1d9261e401" x="338.658422" y="534.04" style="stroke: #000000; stroke-width: 0.8"/>
      </g>
     </g>
     <g id="text_20">
      <!-- 100 -->
      <g transform="translate(329.114672 548.638438) scale(0.1 -0.1)">
       <use xlink:href="#DejaVuSans-31"/>
       <use xlink:href="#DejaVuSans-30" transform="translate(63.623047 0)"/>
       <use xlink:href="#DejaVuSans-30" transform="translate(127.246094 0)"/>
      </g>
     </g>
    </g>
    <g id="xtick_11">
     <g id="line2d_39">
      <path d="M 461.869451 534.04 
L 461.869451 302.44 
" clip-path="url(#p74c84218ed)" style="fill: none; stroke: #b0b0b0; stroke-width: 0.8; stroke-linecap: square"/>
     </g>
     <g id="line2d_40">
      <g>
       <use xlink:href="#m1d9261e401" x="461.869451" y="534.04" style="stroke: #000000; stroke-width: 0.8"/>
      </g>
     </g>
     <g id="text_21">
      <!-- 150 -->
      <g transform="translate(452.325701 548.638438) scale(0.1 -0.1)">
       <use xlink:href="#DejaVuSans-31"/>
       <use xlink:href="#DejaVuSans-35" transform="translate(63.623047 0)"/>
       <use xlink:href="#DejaVuSans-30" transform="translate(127.246094 0)"/>
      </g>
     </g>
    </g>
    <g id="xtick_12">
     <g id="line2d_41">
      <path d="M 585.08048 534.04 
L 585.08048 302.44 
" clip-path="url(#p74c84218ed)" style="fill: none; stroke: #b0b0b0; stroke-width: 0.8; stroke-linecap: square"/>
     </g>
     <g id="line2d_42">
      <g>
       <use xlink:href="#m1d9261e401" x="585.08048" y="534.04" style="stroke: #000000; stroke-width: 0.8"/>
      </g>
     </g>
     <g id="text_22">
      <!-- 200 -->
      <g transform="translate(575.53673 548.638438) scale(0.1 -0.1)">
       <use xlink:href="#DejaVuSans-32"/>
       <use xlink:href="#DejaVuSans-30" transform="translate(63.623047 0)"/>
       <use xlink:href="#DejaVuSans-30" transform="translate(127.246094 0)"/>
      </g>
     </g>
    </g>
    <g id="xtick_13">
     <g id="line2d_43">
      <path d="M 708.291509 534.04 
L 708.291509 302.44 
" clip-path="url(#p74c84218ed)" style="fill: none; stroke: #b0b0b0; stroke-width: 0.8; stroke-linecap: square"/>
     </g>
     <g id="line2d_44">
      <g>
       <use xlink:href="#m1d9261e401" x="708.291509" y="534.04" style="stroke: #000000; stroke-width: 0.8"/>
      </g>
     </g>
     <g id="text_23">
      <!-- 250 -->
      <g transform="translate(698.747759 548.638438) scale(0.1 -0.1)">
       <use xlink:href="#DejaVuSans-32"/>
       <use xlink:href="#DejaVuSans-35" transform="translate(63.623047 0)"/>
       <use xlink:href="#DejaVuSans-30" transform="translate(127.246094 0)"/>
      </g>
     </g>
    </g>
    <g id="xtick_14">
     <g id="line2d_45">
      <path d="M 831.502538 534.04 
L 831.502538 302.44 
" clip-path="url(#p74c84218ed)" style="fill: none; stroke: #b0b0b0; stroke-width: 0.8; stroke-linecap: square"/>
     </g>
     <g id="line2d_46">
      <g>
       <use xlink:href="#m1d9261e401" x="831.502538" y="534.04" style="stroke: #000000; stroke-width: 0.8"/>
      </g>
     </g>
     <g id="text_24">
      <!-- 300 -->
      <g transform="translate(821.958788 548.638438) scale(0.1 -0.1)">
       <use xlink:href="#DejaVuSans-33"/>
       <use xlink:href="#DejaVuSans-30" transform="translate(63.623047 0)"/>
       <use xlink:href="#DejaVuSans-30" transform="translate(127.246094 0)"/>
      </g>
     </g>
    </g>
    <g id="text_25">
     <!-- Time (s) -->
     <g transform="translate(434.271094 562.316562) scale(0.1 -0.1)">
      <defs>
       <path id="DejaVuSans-54" d="M -19 4666 
L 3928 4666 
L 3928 4134 
L 2272 4134 
L 2272 0 
L 1638 0 
L 1638 4134 
L -19 4134 
L -19 4666 
z
" transform="scale(0.015625)"/>
       <path id="DejaVuSans-6d" d="M 3328 2828 
Q 3544 3216 3844 3400 
Q 4144 3584 4550 3584 
Q 5097 3584 5394 3201 
Q 5691 2819 5691 2113 
L 5691 0 
L 5113 0 
L 5113 2094 
Q 5113 2597 4934 2840 
Q 4756 3084 4391 3084 
Q 3944 3084 3684 2787 
Q 3425 2491 3425 1978 
L 3425 0 
L 2847 0 
L 2847 2094 
Q 2847 2600 2669 2842 
Q 2491 3084 2119 3084 
Q 1678 3084 1418 2786 
Q 1159 2488 1159 1978 
L 1159 0 
L 581 0 
L 581 3500 
L 1159 3500 
L 1159 2956 
Q 1356 3278 1631 3431 
Q 1906 3584 2284 3584 
Q 2666 3584 2933 3390 
Q 3200 3197 3328 2828 
z
" transform="scale(0.015625)"/>
      </defs>
      <use xlink:href="#DejaVuSans-54"/>
      <use xlink:href="#DejaVuSans-69" transform="translate(57.958984 0)"/>
      <use xlink:href="#DejaVuSans-6d" transform="translate(85.742188 0)"/>
      <use xlink:href="#DejaVuSans-65" transform="translate(183.154297 0)"/>
      <use xlink:href="#DejaVuSans-20" transform="translate(244.677734 0)"/>
      <use xlink:href="#DejaVuSans-28" transform="translate(276.464844 0)"/>
      <use xlink:href="#DejaVuSans-73" transform="translate(315.478516 0)"/>
      <use xlink:href="#DejaVuSans-29" transform="translate(367.578125 0)"/>
     </g>
    </g>
   </g>
   <g id="matplotlib.axis_4">
    <g id="ytick_7">
     <g id="line2d_47">
      <path d="M 56 526.294439 
L 853.2 526.294439 
" clip-path="url(#p74c84218ed)" style="fill: none; stroke: #b0b0b0; stroke-width: 0.8; stroke-linecap: square"/>
     </g>
     <g id="line2d_48">
      <g>
       <use xlink:href="#m177f172fb8" x="56" y="526.294439" style="stroke: #000000; stroke-width: 0.8"/>
      </g>
     </g>
     <g id="text_26">
      <!-- −0.4 -->
      <g transform="translate(24.717187 530.093658) scale(0.1 -0.1)">
       <defs>
        <path id="DejaVuSans-2212" d="M 678 2272 
L 4684 2272 
L 4684 1741 
L 678 1741 
L 678 2272 
z
" transform="scale(0.015625)"/>
       </defs>
       <use xlink:href="#DejaVuSans-2212"/>
       <use xlink:href="#DejaVuSans-30" transform="translate(83.789062 0)"/>
       <use xlink:href="#DejaVuSans-2e" transform="translate(147.412109 0)"/>
       <use xlink:href="#DejaVuSans-34" transform="translate(179.199219 0)"/>
      </g>
     </g>
    </g>
    <g id="ytick_8">
     <g id="line2d_49">
      <path d="M 56 484.102049 
L 853.2 484.102049 
" clip-path="url(#p74c84218ed)" style="fill: none; stroke: #b0b0b0; stroke-width: 0.8; stroke-linecap: square"/>
     </g>
     <g id="line2d_50">
      <g>
       <use xlink:href="#m177f172fb8" x="56" y="484.102049" style="stroke: #000000; stroke-width: 0.8"/>
      </g>
     </g>
     <g id="text_27">
      <!-- −0.2 -->
      <g transform="translate(24.717187 487.901268) scale(0.1 -0.1)">
       <use xlink:href="#DejaVuSans-2212"/>
       <use xlink:href="#DejaVuSans-30" transform="translate(83.789062 0)"/>
       <use xlink:href="#DejaVuSans-2e" transform="translate(147.412109 0)"/>
       <use xlink:href="#DejaVuSans-32" transform="translate(179.199219 0)"/>
      </g>
     </g>
    </g>
    <g id="ytick_9">
     <g id="line2d_51">
      <path d="M 56 441.909658 
L 853.2 441.909658 
" clip-path="url(#p74c84218ed)" style="fill: none; stroke: #b0b0b0; stroke-width: 0.8; stroke-linecap: square"/>
     </g>
     <g id="line2d_52">
      <g>
       <use xlink:href="#m177f172fb8" x="56" y="441.909658" style="stroke: #000000; stroke-width: 0.8"/>
      </g>
     </g>
     <g id="text_28">
      <!-- 0.0 -->
      <g transform="translate(33.096875 445.708877) scale(0.1 -0.1)">
       <use xlink:href="#DejaVuSans-30"/>
       <use xlink:href="#DejaVuSans-2e" transform="translate(63.623047 0)"/>
       <use xlink:href="#DejaVuSans-30" transform="translate(95.410156 0)"/>
      </g>
     </g>
    </g>
    <g id="ytick_10">
     <g id="line2d_53">
      <path d="M 56 399.717268 
L 853.2 399.717268 
" clip-path="url(#p74c84218ed)" style="fill: none; stroke: #b0b0b0; stroke-width: 0.8; stroke-linecap: square"/>
     </g>
     <g id="line2d_54">
      <g>
       <use xlink:href="#m177f172fb8" x="56" y="399.717268" style="stroke: #000000; stroke-width: 0.8"/>
      </g>
     </g>
     <g id="text_29">
      <!-- 0.2 -->
      <g transform="translate(33.096875 403.516487) scale(0.1 -0.1)">
       <use xlink:href="#DejaVuSans-30"/>
       <use xlink:href="#DejaVuSans-2e" transform="translate(63.623047 0)"/>
       <use xlink:href="#DejaVuSans-32" transform="translate(95.410156 0)"/>
      </g>
     </g>
    </g>
    <g id="ytick_11">
     <g id="line2d_55">
      <path d="M 56 357.524877 
L 853.2 357.524877 
" clip-path="url(#p74c84218ed)" style="fill: none; stroke: #b0b0b0; stroke-width: 0.8; stroke-linecap: square"/>
     </g>
     <g id="line2d_56">
      <g>
       <use xlink:href="#m177f172fb8" x="56" y="357.524877" style="stroke: #000000; stroke-width: 0.8"/>
      </g>
     </g>
     <g id="text_30">
      <!-- 0.4 -->
      <g transform="translate(33.096875 361.324096) scale(0.1 -0.1)">
       <use xlink:href="#DejaVuSans-30"/>
       <use xlink:href="#DejaVuSans-2e" transform="translate(63.623047 0)"/>
       <use xlink:href="#DejaVuSans-34" transform="translate(95.410156 0)"/>
      </g>
     </g>
    </g>
    <g id="ytick_12">
     <g id="line2d_57">
      <path d="M 56 315.332487 
L 853.2 315.332487 
" clip-path="url(#p74c84218ed)" style="fill: none; stroke: #b0b0b0; stroke-width: 0.8; stroke-linecap: square"/>
     </g>
     <g id="line2d_58">
      <g>
       <use xlink:href="#m177f172fb8" x="56" y="315.332487" style="stroke: #000000; stroke-width: 0.8"/>
      </g>
     </g>
     <g id="text_31">
      <!-- 0.6 -->
      <g transform="translate(33.096875 319.131706) scale(0.1 -0.1)">
       <defs>
        <path id="DejaVuSans-36" d="M 2113 2584 
Q 1688 2584 1439 2293 
Q 1191 2003 1191 1497 
Q 1191 994 1439 701 
Q 1688 409 2113 409 
Q 2538 409 2786 701 
Q 3034 994 3034 1497 
Q 3034 2003 2786 2293 
Q 2538 2584 2113 2584 
z
M 3366 4563 
L 3366 3988 
Q 3128 4100 2886 4159 
Q 2644 4219 2406 4219 
Q 1781 4219 1451 3797 
Q 1122 3375 1075 2522 
Q 1259 2794 1537 2939 
Q 1816 3084 2150 3084 
Q 2853 3084 3261 2657 
Q 3669 2231 3669 1497 
Q 3669 778 3244 343 
Q 2819 -91 2113 -91 
Q 1303 -91 875 529 
Q 447 1150 447 2328 
Q 447 3434 972 4092 
Q 1497 4750 2381 4750 
Q 2619 4750 2861 4703 
Q 3103 4656 3366 4563 
z
" transform="scale(0.015625)"/>
       </defs>
       <use xlink:href="#DejaVuSans-30"/>
       <use xlink:href="#DejaVuSans-2e" transform="translate(63.623047 0)"/>
       <use xlink:href="#DejaVuSans-36" transform="translate(95.410156 0)"/>
      </g>
     </g>
    </g>
    <g id="text_32">
     <!-- Estimated Value -->
     <g transform="translate(18.6375 458.818906) rotate(-90) scale(0.1 -0.1)">
      <defs>
       <path id="DejaVuSans-6c" d="M 603 4863 
L 1178 4863 
L 1178 0 
L 603 0 
L 603 4863 
z
" transform="scale(0.015625)"/>
       <path id="DejaVuSans-75" d="M 544 1381 
L 544 3500 
L 1119 3500 
L 1119 1403 
Q 1119 906 1312 657 
Q 1506 409 1894 409 
Q 2359 409 2629 706 
Q 2900 1003 2900 1516 
L 2900 3500 
L 3475 3500 
L 3475 0 
L 2900 0 
L 2900 538 
Q 2691 219 2414 64 
Q 2138 -91 1772 -91 
Q 1169 -91 856 284 
Q 544 659 544 1381 
z
M 1991 3584 
L 1991 3584 
z
" transform="scale(0.015625)"/>
      </defs>
      <use xlink:href="#DejaVuSans-45"/>
      <use xlink:href="#DejaVuSans-73" transform="translate(63.183594 0)"/>
      <use xlink:href="#DejaVuSans-74" transform="translate(115.283203 0)"/>
      <use xlink:href="#DejaVuSans-69" transform="translate(154.492188 0)"/>
      <use xlink:href="#DejaVuSans-6d" transform="translate(182.275391 0)"/>
      <use xlink:href="#DejaVuSans-61" transform="translate(279.6875 0)"/>
      <use xlink:href="#DejaVuSans-74" transform="translate(340.966797 0)"/>
      <use xlink:href="#DejaVuSans-65" transform="translate(380.175781 0)"/>
      <use xlink:href="#DejaVuSans-64" transform="translate(441.699219 0)"/>
      <use xlink:href="#DejaVuSans-20" transform="translate(505.175781 0)"/>
      <use xlink:href="#DejaVuSans-56" transform="translate(536.962891 0)"/>
      <use xlink:href="#DejaVuSans-61" transform="translate(597.621094 0)"/>
      <use xlink:href="#DejaVuSans-6c" transform="translate(658.900391 0)"/>
      <use xlink:href="#DejaVuSans-75" transform="translate(686.683594 0)"/>
      <use xlink:href="#DejaVuSans-65" transform="translate(750.0625 0)"/>
     </g>
    </g>
   </g>
   <g id="line2d_59">
    <path d="M 92.236364 441.909717 
L 94.404878 442.024418 
L 96.573392 442.366345 
L 98.741906 442.936311 
L 100.91042 443.73462 
L 103.128219 444.787446 
L 105.395302 446.110724 
L 107.711669 447.720562 
L 110.028036 449.328511 
L 111.654422 450.304464 
L 111.802275 446.957741 
L 118.652808 440.095595 
L 123.039121 435.282747 
L 127.524002 430.030503 
L 132.107453 424.317441 
L 135.409508 420.251093 
L 135.853068 420.11638 
L 136.050206 420.133745 
L 136.198059 422.448054 
L 139.992958 428.802139 
L 142.851454 433.094966 
L 146.449216 438.376766 
L 147.237767 440.491472 
L 151.62408 453.704813 
L 158.178906 474.578777 
L 159.361732 478.324611 
L 160.00243 479.703982 
L 161.086687 481.156938 
L 163.748045 484.345198 
L 166.310834 487.073086 
L 168.775055 489.378377 
L 170.450725 490.713681 
L 170.845 490.638749 
L 171.28856 490.276525 
L 171.879973 489.450528 
L 172.274248 488.686242 
L 172.422101 487.387691 
L 178.286946 472.570131 
L 183.116819 460.433037 
L 183.757516 459.431049 
L 184.792489 458.480519 
L 187.15814 456.855731 
L 189.474508 455.52819 
L 191.741591 454.480867 
L 193.910105 453.7043 
L 193.959389 453.746953 
L 194.255096 455.709939 
L 196.325041 469.964733 
L 196.42361 469.992114 
L 196.571463 470.355625 
L 197.852858 470.388439 
L 199.972087 470.637643 
L 202.091317 471.108187 
L 204.259831 471.818715 
L 206.773336 472.672491 
L 208.005447 472.695619 
L 208.498291 472.71013 
L 208.646144 468.072782 
L 212.884603 456.419714 
L 217.221631 445.120595 
L 218.552311 441.454139 
L 219.932274 437.574227 
L 222.297926 432.649583 
L 225.452128 426.253799 
L 228.704899 419.153293 
L 230.922698 414.387951 
L 231.415542 413.899846 
L 231.859102 413.765559 
L 232.302661 413.879105 
L 233.041928 414.321671 
L 236.097561 416.765329 
L 238.906773 418.726234 
L 241.6667 420.387874 
L 243.046663 421.025687 
L 243.440938 420.894592 
L 243.835214 420.518493 
L 244.328058 419.699944 
L 244.722333 418.809478 
L 244.870186 417.738473 
L 247.975104 408.420447 
L 251.819288 396.23464 
L 255.022775 385.424279 
L 257.191289 376.378107 
L 262.514006 355.301053 
L 266.80175 339.156383 
L 267.491731 337.203502 
L 268.03386 336.23504 
L 268.47742 335.82598 
L 268.871695 335.633338 
L 269.019548 336.315732 
L 272.814448 335.98222 
L 274.933677 336.100955 
L 277.052907 336.441785 
L 278.432871 336.732737 
L 278.53144 336.391151 
L 278.974999 339.478039 
L 280.305678 348.10776 
L 280.699954 350.784831 
L 280.749238 351.381999 
L 280.798522 351.345918 
L 280.946376 350.919521 
L 280.99566 352.366302 
L 281.094229 352.159626 
L 284.297716 345.653204 
L 287.353349 339.936132 
L 290.507552 334.454782 
L 290.60612 333.412675 
L 290.655405 333.623422 
L 292.380359 345.595798 
L 292.774634 348.207076 
L 292.922488 347.932426 
L 293.16891 347.816766 
L 295.337424 347.769608 
L 297.456654 347.954226 
L 299.575883 348.366182 
L 301.695113 349.005481 
L 302.582232 349.284305 
L 302.877939 347.073353 
L 304.800031 333.215617 
L 304.997169 331.260284 
L 305.046453 331.203934 
L 305.095737 331.45041 
L 305.145022 331.41099 
L 307.510674 329.459851 
L 309.827041 327.829448 
L 312.094124 326.500564 
L 314.311922 325.456689 
L 314.656913 325.373253 
L 314.755482 326.294058 
L 314.804766 326.100511 
L 316.973281 312.967273 
L 317.022565 313.000568 
L 317.121134 313.191617 
L 317.268987 313.90909 
L 320.472474 321.428334 
L 323.922383 330.09579 
L 326.731594 337.607071 
L 326.830163 338.101785 
L 326.879447 337.921812 
L 328.308695 330.609742 
L 328.949393 326.995037 
L 328.998677 327.286422 
L 329.14653 328.423555 
L 329.639374 330.008616 
L 333.237136 340.059666 
L 333.779265 341.628982 
L 333.927118 441.909671 
L 339.939816 442.023867 
L 345.90323 442.359756 
L 359.801434 443.292389 
L 365.863417 443.316312 
L 371.9254 443.116488 
L 376.50885 442.769488 
L 377.642391 442.486955 
L 377.790245 442.672756 
L 385.084337 441.738665 
L 392.723421 440.689583 
L 398.933257 440.14306 
L 403.122432 439.740665 
L 408.987277 438.925146 
L 415.295682 437.816475 
L 421.456233 436.544353 
L 428.306766 435.11372 
L 434.319465 434.151589 
L 438.015795 433.692556 
L 438.163649 433.779248 
L 444.373485 433.571768 
L 450.386183 433.592808 
L 456.103175 433.785388 
L 461.475175 434.178271 
L 462.165157 434.273026 
L 462.31301 434.152324 
L 467.685011 434.210861 
L 473.746994 434.066294 
L 482.470335 433.481164 
L 487.004501 432.937258 
L 493.066483 431.97607 
L 501.444833 430.602592 
L 507.309678 429.974477 
L 511.498853 429.716984 
L 517.61012 429.539716 
L 523.425681 429.587883 
L 529.290526 429.844379 
L 545.65295 430.973479 
L 548.018602 431.427004 
L 554.0313 432.641768 
L 560.881834 434.269492 
L 567.042385 436.003486 
L 572.217248 437.441961 
L 575.371451 438.31437 
L 575.519304 441.909513 
L 591.241031 442.005904 
L 606.667052 442.098493 
L 619.431715 441.922422 
L 659.253519 441.000675 
L 696.01969 439.784811 
L 728.892393 439.214975 
L 764.130747 437.849996 
L 764.2786 438.076743 
L 775.121171 437.872962 
L 776.205428 437.66083 
L 776.353281 437.937674 
L 788.970091 437.972712 
L 803.903267 438.154759 
L 816.963636 438.452666 
L 816.963636 438.452666 
" clip-path="url(#p74c84218ed)" style="fill: none; stroke: #0000ff; stroke-width: 1.5; stroke-linecap: square"/>
   </g>
   <g id="line2d_60">
    <path d="M 92.236364 441.91731 
L 94.454162 442.131158 
L 95.144144 442.195052 
L 96.77053 442.429261 
L 98.889759 443.194223 
L 101.255411 444.408287 
L 102.733943 445.380944 
L 105.001026 447.001157 
L 106.972403 448.692505 
L 110.225174 451.679955 
L 111.654422 452.789086 
L 111.802275 449.790479 
L 116.829285 446.706369 
L 119.293506 444.959078 
L 129.199672 436.642864 
L 131.318902 434.929758 
L 132.403159 434.111751 
L 133.684554 433.038829 
L 135.064517 431.658702 
L 135.65593 431.370862 
L 136.050206 431.37563 
L 136.198059 434.716584 
L 141.027931 445.283348 
L 144.576409 452.071057 
L 146.054941 454.865701 
L 146.744923 456.740889 
L 148.814868 463.49167 
L 153.891163 481.8065 
L 156.946796 493.039145 
L 159.953145 503.492555 
L 160.34742 504.121957 
L 161.6781 506.357989 
L 165.670137 512.829067 
L 168.72577 517.325866 
L 170.105734 519.289681 
L 170.549294 519.632541 
L 170.943569 519.655216 
L 171.337844 519.443773 
L 171.879973 518.861745 
L 172.274248 518.221063 
L 172.422101 517.600337 
L 174.689184 513.376081 
L 177.99124 507.040403 
L 182.968965 496.74084 
L 183.609663 495.915457 
L 184.053222 495.677659 
L 184.348929 495.589249 
L 184.496782 495.343088 
L 185.285333 495.204763 
L 186.221737 495.106902 
L 187.404562 494.965133 
L 192.135866 494.795807 
L 193.811536 495.097778 
L 193.959389 495.183352 
L 194.255096 497.27916 
L 196.325041 512.455131 
L 196.42361 512.529521 
L 196.571463 513.326893 
L 198.197849 514.390387 
L 200.760638 516.329338 
L 201.894179 517.395249 
L 202.781299 518.207342 
L 204.013409 519.364014 
L 205.344088 520.720268 
L 206.724052 522.074562 
L 208.498291 523.512727 
L 208.646144 518.619614 
L 211.652493 512.26822 
L 215.989521 503.727254 
L 218.650879 498.527395 
L 219.636568 496.575507 
L 220.178696 495.953062 
L 220.572971 495.739542 
L 220.720825 494.978814 
L 223.431467 492.238922 
L 224.762146 490.637008 
L 226.684239 488.240715 
L 228.162771 486.269538 
L 230.824129 482.546321 
L 231.218404 482.42199 
L 231.61268 482.527371 
L 232.056239 482.89241 
L 232.647652 483.59881 
L 232.696937 482.997606 
L 232.795506 483.115876 
L 236.097561 487.774343 
L 240.730296 494.116682 
L 243.391654 497.005154 
L 243.785929 496.96878 
L 244.180205 496.691111 
L 244.722333 495.962919 
L 244.870186 494.776958 
L 246.447288 491.184693 
L 250.488609 481.114173 
L 254.924206 468.352784 
L 256.008463 464.294409 
L 258.374115 455.549595 
L 262.908281 439.746111 
L 267.393162 425.636307 
L 267.935291 424.776024 
L 268.378851 424.461896 
L 268.871695 424.413181 
L 269.019548 425.406452 
L 269.70953 425.69684 
L 270.547365 425.994829 
L 272.272319 426.607683 
L 274.391549 427.541042 
L 277.940027 429.698955 
L 278.432871 430.031895 
L 278.53144 429.682192 
L 278.974999 432.95806 
L 280.305678 442.078549 
L 280.699954 444.902356 
L 280.749238 445.538581 
L 280.847807 445.40714 
L 280.946376 445.146914 
L 280.99566 447.020527 
L 281.094229 446.87429 
L 285.825532 439.851538 
L 288.881166 436.062961 
L 289.669717 435.189047 
L 290.507552 434.194403 
L 290.60612 433.161904 
L 290.655405 433.396027 
L 292.478928 447.099269 
L 292.774634 449.150581 
L 292.823919 448.968441 
L 293.021057 449.014717 
L 293.16891 449.47151 
L 294.056029 450.009284 
L 295.879552 451.442472 
L 297.358085 452.902195 
L 300.413718 456.132745 
L 302.582232 458.646005 
L 302.77937 457.339253 
L 304.405756 447.015835 
L 304.849315 443.557413 
L 304.997169 442.489172 
L 305.046453 442.464849 
L 305.194306 443.124095 
L 306.327848 443.271372 
L 308.003518 443.404804 
L 309.580619 443.568013 
L 312.143408 443.896755 
L 312.784106 443.993124 
L 314.558344 444.489454 
L 314.656913 444.590318 
L 314.755482 445.593458 
L 314.804766 445.438353 
L 316.973281 434.039479 
L 317.022565 434.118307 
L 317.811116 436.525806 
L 322.788841 451.792827 
L 325.79519 461.915316 
L 326.830163 465.650049 
L 326.879447 465.500103 
L 328.210126 459.623636 
L 328.949393 455.980084 
L 328.998677 456.309783 
L 329.14653 457.553904 
L 329.195815 457.71541 
L 329.392952 458.852098 
L 333.335705 472.869159 
L 333.779265 474.546383 
L 333.828549 441.917313 
L 333.927118 441.932516 
L 337.081321 441.966983 
L 337.623449 441.949423 
L 339.397688 442.035809 
L 346.888918 443.132185 
L 352.507341 444.359878 
L 353.246608 444.49887 
L 353.394461 444.716513 
L 356.105103 445.327316 
L 356.795085 445.482474 
L 357.435783 445.625366 
L 359.160737 445.90778 
L 361.378535 446.179689 
L 363.645618 446.187268 
L 364.532738 446.223211 
L 365.764848 446.177104 
L 367.194096 446.194949 
L 371.235418 446.558246 
L 376.213143 446.901715 
L 377.050978 446.585294 
L 377.642391 446.254656 
L 377.790245 447.392838 
L 380.402318 447.606999 
L 381.437291 447.690046 
L 384.394356 447.785748 
L 390.653476 448.090716 
L 391.294173 448.148562 
L 392.230577 448.28867 
L 396.025477 449.161804 
L 397.701147 449.58506 
L 399.130395 449.852409 
L 401.20034 450.144502 
L 406.030212 450.656085 
L 410.071534 451.44689 
L 411.303644 451.749277 
L 413.028599 451.883309 
L 413.866434 451.943417 
L 414.014287 452.477225 
L 415.640673 452.913411 
L 418.597737 453.908488 
L 419.337003 454.037156 
L 419.977701 454.104784 
L 421.604086 454.191249 
L 422.589775 454.21623 
L 424.019023 454.322888 
L 425.941115 454.5976 
L 426.088968 454.435623 
L 426.926803 454.64454 
L 428.45462 455.016159 
L 438.015795 456.559988 
L 438.163649 457.031393 
L 441.761411 458.180317 
L 442.402108 458.438526 
L 444.3242 459.175615 
L 446.049155 459.761127 
L 449.646917 461.250217 
L 450.090476 461.467616 
L 450.139761 461.170437 
L 450.23833 461.198962 
L 453.14611 462.224867 
L 456.546734 463.59643 
L 458.123835 464.291469 
L 459.010955 464.763176 
L 461.130185 465.987809 
L 462.165157 466.956934 
L 462.214442 466.59801 
L 462.31301 466.663277 
L 466.847176 468.995533 
L 470.740645 470.80133 
L 472.712021 471.682689 
L 474.239838 472.416006 
L 474.387691 471.827584 
L 476.408352 472.327603 
L 477.098334 472.504681 
L 477.886884 472.726011 
L 480.597527 473.687734 
L 481.435362 473.90136 
L 483.751729 474.406833 
L 486.314519 475.206383 
L 486.413088 474.787001 
L 486.462372 474.794408 
L 487.793051 475.01825 
L 489.222299 475.117808 
L 490.257272 475.227312 
L 492.179364 475.332922 
L 498.3892 474.769224 
L 498.537053 474.904131 
L 499.769163 474.960543 
L 500.459145 475.034301 
L 502.184099 475.301905 
L 505.387586 475.839021 
L 508.738926 476.545905 
L 510.463881 476.710868 
L 510.611734 477.245301 
L 511.400284 477.563053 
L 512.977386 477.988573 
L 519.581497 479.630587 
L 524.411369 481.061757 
L 525.791333 481.350767 
L 527.811993 481.855159 
L 528.896251 482.165058 
L 532.986857 483.461728 
L 534.071114 483.637513 
L 534.613242 483.615388 
L 534.761095 484.046079 
L 535.401793 484.170259 
L 535.993206 484.352068 
L 536.978894 484.637954 
L 537.668876 484.86381 
L 539.985243 485.808872 
L 544.962969 487.707834 
L 546.638639 488.360106 
L 546.786492 488.856745 
L 550.039263 490.986353 
L 553.587741 492.829804 
L 554.376291 493.150939 
L 557.185503 494.59605 
L 558.71332 495.490039 
L 558.762604 495.2973 
L 558.861173 495.344054 
L 561.128256 496.390914 
L 562.458935 496.929234 
L 563.543192 497.565219 
L 565.711706 498.975541 
L 567.239523 499.834044 
L 569.210899 500.969605 
L 570.886569 501.961388 
L 573.055083 503.266807 
L 575.371451 504.633736 
L 575.420735 441.917239 
L 575.519304 441.932563 
L 578.574937 441.948495 
L 579.560626 441.88284 
L 580.201323 441.912571 
L 581.679855 441.992235 
L 582.419122 442.011662 
L 584.242645 442.205999 
L 590.600334 442.968769 
L 593.754536 443.563677 
L 594.838793 443.815412 
L 594.986646 443.702287 
L 596.169472 443.897241 
L 597.303014 444.131784 
L 599.816519 444.551 
L 603.020006 444.876045 
L 610.806943 444.910872 
L 613.172594 445.219709 
L 613.665438 445.286373 
L 615.587531 445.562568 
L 616.819641 445.700196 
L 618.938871 445.741048 
L 619.234577 445.731725 
L 619.38243 446.249867 
L 622.093073 446.669014 
L 623.275899 446.851376 
L 623.768743 446.925817 
L 625.64155 447.151351 
L 626.282248 447.232936 
L 631.802102 448.007114 
L 634.217038 448.490122 
L 634.709882 448.569652 
L 636.58269 449.113491 
L 637.469809 449.447914 
L 640.229736 450.219364 
L 641.856122 450.634197 
L 643.383939 450.921694 
L 643.531792 450.893341 
L 645.108893 451.173287 
L 646.19315 451.357131 
L 648.263095 451.998515 
L 648.854508 452.209872 
L 649.889481 452.497947 
L 650.825885 452.741019 
L 651.713004 453.098098 
L 652.89583 453.551897 
L 655.360051 454.110035 
L 655.45862 454.12881 
L 655.606473 454.684809 
L 657.13429 455.299211 
L 660.436345 456.855679 
L 661.619171 457.213667 
L 662.703428 457.447044 
L 663.886254 457.66871 
L 666.991172 458.513743 
L 667.5333 458.680854 
L 667.681154 458.47347 
L 668.469704 458.753247 
L 669.356824 459.098692 
L 670.588934 459.472737 
L 672.56031 460.021048 
L 673.841705 460.25736 
L 677.094476 461.010162 
L 677.291614 459.874158 
L 677.833742 460.11714 
L 678.326587 460.58528 
L 679.065853 461.668463 
L 679.312275 462.019147 
L 679.361559 461.971308 
L 679.410844 461.86073 
L 679.460128 461.900837 
L 679.607981 462.100442 
L 679.657266 461.927664 
L 679.755834 461.964558 
L 689.415579 465.040281 
L 689.662001 465.750386 
L 690.006992 467.497961 
L 690.549121 471.621391 
L 691.682662 482.188164 
L 691.781231 465.533915 
L 691.830515 465.561094 
L 692.914772 465.808652 
L 694.689011 466.359582 
L 697.005379 467.026292 
L 697.646076 467.245123 
L 699.321746 467.854869 
L 699.962443 468.101051 
L 701.638113 468.705493 
L 703.16593 469.343398 
L 703.757343 469.630069 
L 703.905196 469.985452 
L 707.847949 471.874038 
L 709.375766 472.583606 
L 711.889271 473.718181 
L 712.677821 473.98417 
L 713.614225 474.353768 
L 715.832024 475.27709 
L 715.979877 474.903575 
L 718.345529 475.525054 
L 720.36619 476.212492 
L 721.15474 476.470759 
L 721.549015 476.620045 
L 723.421823 477.211639 
L 725.590337 477.795957 
L 727.216723 478.494618 
L 727.906705 478.840335 
L 728.005273 478.265374 
L 728.054558 478.272901 
L 729.779512 478.653249 
L 732.835146 479.219325 
L 733.377274 479.304822 
L 734.954375 479.337295 
L 735.595073 479.382397 
L 736.285055 479.333392 
L 737.665018 479.364216 
L 739.58711 479.520219 
L 741.114927 479.648689 
L 745.50124 480.477009 
L 747.029056 480.8855 
L 749.000433 481.487996 
L 749.690415 481.620089 
L 752.056066 481.975522 
L 752.20392 482.409558 
L 753.041755 482.743112 
L 755.604544 483.370944 
L 756.688801 483.622588 
L 758.906599 484.155176 
L 761.567958 484.73797 
L 761.617242 484.703572 
L 761.81438 483.833086 
L 762.159371 483.750008 
L 762.504362 483.399536 
L 762.898637 482.600164 
L 763.391481 480.997034 
L 763.835041 479.041204 
L 764.130747 476.806612 
L 764.2786 485.423145 
L 765.904986 485.768066 
L 770.19273 486.425096 
L 771.523409 486.682999 
L 771.8684 486.775746 
L 772.903372 487.029256 
L 774.579042 487.314635 
L 775.367593 487.249525 
L 776.205428 486.9783 
L 776.353281 487.809502 
L 776.993979 487.891159 
L 777.585391 488.032277 
L 778.57108 488.244852 
L 779.261061 488.415797 
L 781.429576 489.122589 
L 783.696659 489.793388 
L 785.224475 490.224403 
L 787.097283 490.707829 
L 788.230824 490.982276 
L 788.378678 491.364796 
L 791.286458 492.693873 
L 792.76499 493.207486 
L 794.342091 493.660747 
L 795.968477 493.974436 
L 798.777688 494.724959 
L 800.305505 495.319021 
L 800.35479 495.035141 
L 800.453358 495.054183 
L 802.474019 495.452873 
L 805.036809 495.938918 
L 806.367488 496.40365 
L 810.063819 497.422785 
L 812.725177 498.245537 
L 816.963636 499.573278 
L 816.963636 499.573278 
" clip-path="url(#p74c84218ed)" style="fill: none; stroke-dasharray: 5.55,2.4; stroke-dashoffset: 0; stroke: #ff0000; stroke-width: 1.5"/>
   </g>
   <g id="line2d_61">
    <path d="M 333.828549 534.04 
L 333.828549 302.44 
" clip-path="url(#p74c84218ed)" style="fill: none; stroke-dasharray: 1.5,2.475; stroke-dashoffset: 0; stroke: #808080; stroke-opacity: 0.6; stroke-width: 1.5"/>
   </g>
   <g id="line2d_62">
    <path d="M 575.420735 534.04 
L 575.420735 302.44 
" clip-path="url(#p74c84218ed)" style="fill: none; stroke-dasharray: 1.5,2.475; stroke-dashoffset: 0; stroke: #808080; stroke-opacity: 0.6; stroke-width: 1.5"/>
   </g>
   <g id="patch_9">
    <path d="M 56 534.04 
L 56 302.44 
" style="fill: none; stroke: #000000; stroke-width: 0.8; stroke-linejoin: miter; stroke-linecap: square"/>
   </g>
   <g id="patch_10">
    <path d="M 853.2 534.04 
L 853.2 302.44 
" style="fill: none; stroke: #000000; stroke-width: 0.8; stroke-linejoin: miter; stroke-linecap: square"/>
   </g>
   <g id="patch_11">
    <path d="M 56 534.04 
L 853.2 534.04 
" style="fill: none; stroke: #000000; stroke-width: 0.8; stroke-linejoin: miter; stroke-linecap: square"/>
   </g>
   <g id="patch_12">
    <path d="M 56 302.44 
L 853.2 302.44 
" style="fill: none; stroke: #000000; stroke-width: 0.8; stroke-linejoin: miter; stroke-linecap: square"/>
   </g>
   <g id="text_33">
    <!-- [03] dVE  —  State Estimate -->
    <g transform="translate(370.75375 296.44) scale(0.12 -0.12)">
     <use xlink:href="#DejaVuSans-5b"/>
     <use xlink:href="#DejaVuSans-30" transform="translate(39.013672 0)"/>
     <use xlink:href="#DejaVuSans-33" transform="translate(102.636719 0)"/>
     <use xlink:href="#DejaVuSans-5d" transform="translate(166.259766 0)"/>
     <use xlink:href="#DejaVuSans-20" transform="translate(205.273438 0)"/>
     <use xlink:href="#DejaVuSans-64" transform="translate(237.060547 0)"/>
     <use xlink:href="#DejaVuSans-56" transform="translate(300.537109 0)"/>
     <use xlink:href="#DejaVuSans-45" transform="translate(368.945312 0)"/>
     <use xlink:href="#DejaVuSans-20" transform="translate(432.128906 0)"/>
     <use xlink:href="#DejaVuSans-20" transform="translate(463.916016 0)"/>
     <use xlink:href="#DejaVuSans-2014" transform="translate(495.703125 0)"/>
     <use xlink:href="#DejaVuSans-20" transform="translate(595.703125 0)"/>
     <use xlink:href="#DejaVuSans-20" transform="translate(627.490234 0)"/>
     <use xlink:href="#DejaVuSans-53" transform="translate(659.277344 0)"/>
     <use xlink:href="#DejaVuSans-74" transform="translate(722.753906 0)"/>
     <use xlink:href="#DejaVuSans-61" transform="translate(761.962891 0)"/>
     <use xlink:href="#DejaVuSans-74" transform="translate(823.242188 0)"/>
     <use xlink:href="#DejaVuSans-65" transform="translate(862.451172 0)"/>
     <use xlink:href="#DejaVuSans-20" transform="translate(923.974609 0)"/>
     <use xlink:href="#DejaVuSans-45" transform="translate(955.761719 0)"/>
     <use xlink:href="#DejaVuSans-73" transform="translate(1018.945312 0)"/>
     <use xlink:href="#DejaVuSans-74" transform="translate(1071.044922 0)"/>
     <use xlink:href="#DejaVuSans-69" transform="translate(1110.253906 0)"/>
     <use xlink:href="#DejaVuSans-6d" transform="translate(1138.037109 0)"/>
     <use xlink:href="#DejaVuSans-61" transform="translate(1235.449219 0)"/>
     <use xlink:href="#DejaVuSans-74" transform="translate(1296.728516 0)"/>
     <use xlink:href="#DejaVuSans-65" transform="translate(1335.9375 0)"/>
    </g>
   </g>
   <g id="legend_2">
    <g id="patch_13">
     <path d="M 738.401563 339.79625 
L 846.2 339.79625 
Q 848.2 339.79625 848.2 337.79625 
L 848.2 309.44 
Q 848.2 307.44 846.2 307.44 
L 738.401563 307.44 
Q 736.401563 307.44 736.401563 309.44 
L 736.401563 337.79625 
Q 736.401563 339.79625 738.401563 339.79625 
z
" style="fill: #ffffff; opacity: 0.8; stroke: #cccccc; stroke-linejoin: miter"/>
    </g>
    <g id="line2d_63">
     <path d="M 740.401563 315.538437 
L 750.401563 315.538437 
L 760.401563 315.538437 
" style="fill: none; stroke: #0000ff; stroke-width: 1.5; stroke-linecap: square"/>
    </g>
    <g id="text_34">
     <!-- No Noise -->
     <g transform="translate(768.401563 319.038437) scale(0.1 -0.1)">
      <use xlink:href="#DejaVuSans-4e"/>
      <use xlink:href="#DejaVuSans-6f" transform="translate(74.804688 0)"/>
      <use xlink:href="#DejaVuSans-20" transform="translate(135.986328 0)"/>
      <use xlink:href="#DejaVuSans-4e" transform="translate(167.773438 0)"/>
      <use xlink:href="#DejaVuSans-6f" transform="translate(242.578125 0)"/>
      <use xlink:href="#DejaVuSans-69" transform="translate(303.759766 0)"/>
      <use xlink:href="#DejaVuSans-73" transform="translate(331.542969 0)"/>
      <use xlink:href="#DejaVuSans-65" transform="translate(383.642578 0)"/>
     </g>
    </g>
    <g id="line2d_64">
     <path d="M 740.401563 330.216562 
L 750.401563 330.216562 
L 760.401563 330.216562 
" style="fill: none; stroke-dasharray: 5.55,2.4; stroke-dashoffset: 0; stroke: #ff0000; stroke-width: 1.5"/>
    </g>
    <g id="text_35">
     <!-- With ARW/VRW -->
     <g transform="translate(768.401563 333.716562) scale(0.1 -0.1)">
      <use xlink:href="#DejaVuSans-57"/>
      <use xlink:href="#DejaVuSans-69" transform="translate(96.626953 0)"/>
      <use xlink:href="#DejaVuSans-74" transform="translate(124.410156 0)"/>
      <use xlink:href="#DejaVuSans-68" transform="translate(163.619141 0)"/>
      <use xlink:href="#DejaVuSans-20" transform="translate(226.998047 0)"/>
      <use xlink:href="#DejaVuSans-41" transform="translate(258.785156 0)"/>
      <use xlink:href="#DejaVuSans-52" transform="translate(327.193359 0)"/>
      <use xlink:href="#DejaVuSans-57" transform="translate(392.675781 0)"/>
      <use xlink:href="#DejaVuSans-2f" transform="translate(491.552734 0)"/>
      <use xlink:href="#DejaVuSans-56" transform="translate(525.244141 0)"/>
      <use xlink:href="#DejaVuSans-52" transform="translate(593.652344 0)"/>
      <use xlink:href="#DejaVuSans-57" transform="translate(659.134766 0)"/>
     </g>
    </g>
   </g>
  </g>
 </g>
 <defs>
  <clipPath id="p54eb7f7870">
   <rect x="56" y="26.88" width="797.2" height="231.6"/>
  </clipPath>
  <clipPath id="p74c84218ed">
   <rect x="56" y="302.44" width="797.2" height="231.6"/>
  </clipPath>
 </defs>
</svg>
