<?xml version="1.0" encoding="utf-8" standalone="no"?>
<!DOCTYPE svg PUBLIC "-//W3C//DTD SVG 1.1//EN"
  "http://www.w3.org/Graphics/SVG/1.1/DTD/svg11.dtd">
<svg xmlns:xlink="http://www.w3.org/1999/xlink" width="864pt" height="576pt" viewBox="0 0 864 576" xmlns="http://www.w3.org/2000/svg" version="1.1">
 <metadata>
  <rdf:RDF xmlns:dc="http://purl.org/dc/elements/1.1/" xmlns:cc="http://creativecommons.org/ns#" xmlns:rdf="http://www.w3.org/1999/02/22-rdf-syntax-ns#">
   <cc:Work>
    <dc:type rdf:resource="http://purl.org/dc/dcmitype/StillImage"/>
    <dc:date>2026-03-03T11:38:05.982164</dc:date>
    <dc:format>image/svg+xml</dc:format>
    <dc:creator>
     <cc:Agent>
      <dc:title>Matplotlib v3.10.8, https://matplotlib.org/</dc:title>
     </cc:Agent>
    </dc:creator>
   </cc:Work>
  </rdf:RDF>
 </metadata>
 <defs>
  <style type="text/css">*{stroke-linejoin: round; stroke-linecap: butt}</style>
 </defs>
 <g id="figure_1">
  <g id="patch_1">
   <path d="M 0 576 
L 864 576 
L 864 0 
L 0 0 
z
" style="fill: #ffffff"/>
  </g>
  <g id="axes_1">
   <g id="patch_2">
    <path d="M 56.09 258.48 
L 853.2 258.48 
L 853.2 26.88 
L 56.09 26.88 
z
" style="fill: #ffffff"/>
   </g>
   <g id="matplotlib.axis_1">
    <g id="xtick_1">
     <g id="line2d_1">
      <path d="M 92.322273 258.48 
L 92.322273 26.88 
" clip-path="url(#p236c6821f8)" style="fill: none; stroke: #b0b0b0; stroke-width: 0.8; stroke-linecap: square"/>
     </g>
     <g id="line2d_2">
      <defs>
       <path id="mb373dc98ad" d="M 0 0 
L 0 3.5 
" style="stroke: #000000; stroke-width: 0.8"/>
      </defs>
      <g>
       <use xlink:href="#mb373dc98ad" x="92.322273" y="258.48" style="stroke: #000000; stroke-width: 0.8"/>
      </g>
     </g>
     <g id="text_1">
      <!-- 0 -->
      <g transform="translate(89.141023 273.078438) scale(0.1 -0.1)">
       <defs>
        <path id="DejaVuSans-30" d="M 2034 4250 
Q 1547 4250 1301 3770 
Q 1056 3291 1056 2328 
Q 1056 1369 1301 889 
Q 1547 409 2034 409 
Q 2525 409 2770 889 
Q 3016 1369 3016 2328 
Q 3016 3291 2770 3770 
Q 2525 4250 2034 4250 
z
M 2034 4750 
Q 2819 4750 3233 4129 
Q 3647 3509 3647 2328 
Q 3647 1150 3233 529 
Q 2819 -91 2034 -91 
Q 1250 -91 836 529 
Q 422 1150 422 2328 
Q 422 3509 836 4129 
Q 1250 4750 2034 4750 
z
" transform="scale(0.015625)"/>
       </defs>
       <use xlink:href="#DejaVuSans-30"/>
      </g>
     </g>
    </g>
    <g id="xtick_2">
     <g id="line2d_3">
      <path d="M 215.519392 258.48 
L 215.519392 26.88 
" clip-path="url(#p236c6821f8)" style="fill: none; stroke: #b0b0b0; stroke-width: 0.8; stroke-linecap: square"/>
     </g>
     <g id="line2d_4">
      <g>
       <use xlink:href="#mb373dc98ad" x="215.519392" y="258.48" style="stroke: #000000; stroke-width: 0.8"/>
      </g>
     </g>
     <g id="text_2">
      <!-- 50 -->
      <g transform="translate(209.156892 273.078438) scale(0.1 -0.1)">
       <defs>
        <path id="DejaVuSans-35" d="M 691 4666 
L 3169 4666 
L 3169 4134 
L 1269 4134 
L 1269 2991 
Q 1406 3038 1543 3061 
Q 1681 3084 1819 3084 
Q 2600 3084 3056 2656 
Q 3513 2228 3513 1497 
Q 3513 744 3044 326 
Q 2575 -91 1722 -91 
Q 1428 -91 1123 -41 
Q 819 9 494 109 
L 494 744 
Q 775 591 1075 516 
Q 1375 441 1709 441 
Q 2250 441 2565 725 
Q 2881 1009 2881 1497 
Q 2881 1984 2565 2268 
Q 2250 2553 1709 2553 
Q 1456 2553 1204 2497 
Q 953 2441 691 2322 
L 691 4666 
z
" transform="scale(0.015625)"/>
       </defs>
       <use xlink:href="#DejaVuSans-35"/>
       <use xlink:href="#DejaVuSans-30" transform="translate(63.623047 0)"/>
      </g>
     </g>
    </g>
    <g id="xtick_3">
     <g id="line2d_5">
      <path d="M 338.716511 258.48 
L 338.716511 26.88 
" clip-path="url(#p236c6821f8)" style="fill: none; stroke: #b0b0b0; stroke-width: 0.8; stroke-linecap: square"/>
     </g>
     <g id="line2d_6">
      <g>
       <use xlink:href="#mb373dc98ad" x="338.716511" y="258.48" style="stroke: #000000; stroke-width: 0.8"/>
      </g>
     </g>
     <g id="text_3">
      <!-- 100 -->
      <g transform="translate(329.172761 273.078438) scale(0.1 -0.1)">
       <defs>
        <path id="DejaVuSans-31" d="M 794 531 
L 1825 531 
L 1825 4091 
L 703 3866 
L 703 4441 
L 1819 4666 
L 2450 4666 
L 2450 531 
L 3481 531 
L 3481 0 
L 794 0 
L 794 531 
z
" transform="scale(0.015625)"/>
       </defs>
       <use xlink:href="#DejaVuSans-31"/>
       <use xlink:href="#DejaVuSans-30" transform="translate(63.623047 0)"/>
       <use xlink:href="#DejaVuSans-30" transform="translate(127.246094 0)"/>
      </g>
     </g>
    </g>
    <g id="xtick_4">
     <g id="line2d_7">
      <path d="M 461.91363 258.48 
L 461.91363 26.88 
" clip-path="url(#p236c6821f8)" style="fill: none; stroke: #b0b0b0; stroke-width: 0.8; stroke-linecap: square"/>
     </g>
     <g id="line2d_8">
      <g>
       <use xlink:href="#mb373dc98ad" x="461.91363" y="258.48" style="stroke: #000000; stroke-width: 0.8"/>
      </g>
     </g>
     <g id="text_4">
      <!-- 150 -->
      <g transform="translate(452.36988 273.078438) scale(0.1 -0.1)">
       <use xlink:href="#DejaVuSans-31"/>
       <use xlink:href="#DejaVuSans-35" transform="translate(63.623047 0)"/>
       <use xlink:href="#DejaVuSans-30" transform="translate(127.246094 0)"/>
      </g>
     </g>
    </g>
    <g id="xtick_5">
     <g id="line2d_9">
      <path d="M 585.110749 258.48 
L 585.110749 26.88 
" clip-path="url(#p236c6821f8)" style="fill: none; stroke: #b0b0b0; stroke-width: 0.8; stroke-linecap: square"/>
     </g>
     <g id="line2d_10">
      <g>
       <use xlink:href="#mb373dc98ad" x="585.110749" y="258.48" style="stroke: #000000; stroke-width: 0.8"/>
      </g>
     </g>
     <g id="text_5">
      <!-- 200 -->
      <g transform="translate(575.566999 273.078438) scale(0.1 -0.1)">
       <defs>
        <path id="DejaVuSans-32" d="M 1228 531 
L 3431 531 
L 3431 0 
L 469 0 
L 469 531 
Q 828 903 1448 1529 
Q 2069 2156 2228 2338 
Q 2531 2678 2651 2914 
Q 2772 3150 2772 3378 
Q 2772 3750 2511 3984 
Q 2250 4219 1831 4219 
Q 1534 4219 1204 4116 
Q 875 4013 500 3803 
L 500 4441 
Q 881 4594 1212 4672 
Q 1544 4750 1819 4750 
Q 2544 4750 2975 4387 
Q 3406 4025 3406 3419 
Q 3406 3131 3298 2873 
Q 3191 2616 2906 2266 
Q 2828 2175 2409 1742 
Q 1991 1309 1228 531 
z
" transform="scale(0.015625)"/>
       </defs>
       <use xlink:href="#DejaVuSans-32"/>
       <use xlink:href="#DejaVuSans-30" transform="translate(63.623047 0)"/>
       <use xlink:href="#DejaVuSans-30" transform="translate(127.246094 0)"/>
      </g>
     </g>
    </g>
    <g id="xtick_6">
     <g id="line2d_11">
      <path d="M 708.307868 258.48 
L 708.307868 26.88 
" clip-path="url(#p236c6821f8)" style="fill: none; stroke: #b0b0b0; stroke-width: 0.8; stroke-linecap: square"/>
     </g>
     <g id="line2d_12">
      <g>
       <use xlink:href="#mb373dc98ad" x="708.307868" y="258.48" style="stroke: #000000; stroke-width: 0.8"/>
      </g>
     </g>
     <g id="text_6">
      <!-- 250 -->
      <g transform="translate(698.764118 273.078438) scale(0.1 -0.1)">
       <use xlink:href="#DejaVuSans-32"/>
       <use xlink:href="#DejaVuSans-35" transform="translate(63.623047 0)"/>
       <use xlink:href="#DejaVuSans-30" transform="translate(127.246094 0)"/>
      </g>
     </g>
    </g>
    <g id="xtick_7">
     <g id="line2d_13">
      <path d="M 831.504987 258.48 
L 831.504987 26.88 
" clip-path="url(#p236c6821f8)" style="fill: none; stroke: #b0b0b0; stroke-width: 0.8; stroke-linecap: square"/>
     </g>
     <g id="line2d_14">
      <g>
       <use xlink:href="#mb373dc98ad" x="831.504987" y="258.48" style="stroke: #000000; stroke-width: 0.8"/>
      </g>
     </g>
     <g id="text_7">
      <!-- 300 -->
      <g transform="translate(821.961237 273.078438) scale(0.1 -0.1)">
       <defs>
        <path id="DejaVuSans-33" d="M 2597 2516 
Q 3050 2419 3304 2112 
Q 3559 1806 3559 1356 
Q 3559 666 3084 287 
Q 2609 -91 1734 -91 
Q 1441 -91 1130 -33 
Q 819 25 488 141 
L 488 750 
Q 750 597 1062 519 
Q 1375 441 1716 441 
Q 2309 441 2620 675 
Q 2931 909 2931 1356 
Q 2931 1769 2642 2001 
Q 2353 2234 1838 2234 
L 1294 2234 
L 1294 2753 
L 1863 2753 
Q 2328 2753 2575 2939 
Q 2822 3125 2822 3475 
Q 2822 3834 2567 4026 
Q 2313 4219 1838 4219 
Q 1578 4219 1281 4162 
Q 984 4106 628 3988 
L 628 4550 
Q 988 4650 1302 4700 
Q 1616 4750 1894 4750 
Q 2613 4750 3031 4423 
Q 3450 4097 3450 3541 
Q 3450 3153 3228 2886 
Q 3006 2619 2597 2516 
z
" transform="scale(0.015625)"/>
       </defs>
       <use xlink:href="#DejaVuSans-33"/>
       <use xlink:href="#DejaVuSans-30" transform="translate(63.623047 0)"/>
       <use xlink:href="#DejaVuSans-30" transform="translate(127.246094 0)"/>
      </g>
     </g>
    </g>
   </g>
   <g id="matplotlib.axis_2">
    <g id="ytick_1">
     <g id="line2d_15">
      <path d="M 56.09 248.030557 
L 853.2 248.030557 
" clip-path="url(#p236c6821f8)" style="fill: none; stroke: #b0b0b0; stroke-width: 0.8; stroke-linecap: square"/>
     </g>
     <g id="line2d_16">
      <defs>
       <path id="ma59354c694" d="M 0 0 
L -3.5 0 
" style="stroke: #000000; stroke-width: 0.8"/>
      </defs>
      <g>
       <use xlink:href="#ma59354c694" x="56.09" y="248.030557" style="stroke: #000000; stroke-width: 0.8"/>
      </g>
     </g>
     <g id="text_8">
      <!-- 0.0 -->
      <g transform="translate(33.186875 251.829776) scale(0.1 -0.1)">
       <defs>
        <path id="DejaVuSans-2e" d="M 684 794 
L 1344 794 
L 1344 0 
L 684 0 
L 684 794 
z
" transform="scale(0.015625)"/>
       </defs>
       <use xlink:href="#DejaVuSans-30"/>
       <use xlink:href="#DejaVuSans-2e" transform="translate(63.623047 0)"/>
       <use xlink:href="#DejaVuSans-30" transform="translate(95.410156 0)"/>
      </g>
     </g>
    </g>
    <g id="ytick_2">
     <g id="line2d_17">
      <path d="M 56.09 221.95176 
L 853.2 221.95176 
" clip-path="url(#p236c6821f8)" style="fill: none; stroke: #b0b0b0; stroke-width: 0.8; stroke-linecap: square"/>
     </g>
     <g id="line2d_18">
      <g>
       <use xlink:href="#ma59354c694" x="56.09" y="221.95176" style="stroke: #000000; stroke-width: 0.8"/>
      </g>
     </g>
     <g id="text_9">
      <!-- 0.2 -->
      <g transform="translate(33.186875 225.750979) scale(0.1 -0.1)">
       <use xlink:href="#DejaVuSans-30"/>
       <use xlink:href="#DejaVuSans-2e" transform="translate(63.623047 0)"/>
       <use xlink:href="#DejaVuSans-32" transform="translate(95.410156 0)"/>
      </g>
     </g>
    </g>
    <g id="ytick_3">
     <g id="line2d_19">
      <path d="M 56.09 195.872964 
L 853.2 195.872964 
" clip-path="url(#p236c6821f8)" style="fill: none; stroke: #b0b0b0; stroke-width: 0.8; stroke-linecap: square"/>
     </g>
     <g id="line2d_20">
      <g>
       <use xlink:href="#ma59354c694" x="56.09" y="195.872964" style="stroke: #000000; stroke-width: 0.8"/>
      </g>
     </g>
     <g id="text_10">
      <!-- 0.4 -->
      <g transform="translate(33.186875 199.672182) scale(0.1 -0.1)">
       <defs>
        <path id="DejaVuSans-34" d="M 2419 4116 
L 825 1625 
L 2419 1625 
L 2419 4116 
z
M 2253 4666 
L 3047 4666 
L 3047 1625 
L 3713 1625 
L 3713 1100 
L 3047 1100 
L 3047 0 
L 2419 0 
L 2419 1100 
L 313 1100 
L 313 1709 
L 2253 4666 
z
" transform="scale(0.015625)"/>
       </defs>
       <use xlink:href="#DejaVuSans-30"/>
       <use xlink:href="#DejaVuSans-2e" transform="translate(63.623047 0)"/>
       <use xlink:href="#DejaVuSans-34" transform="translate(95.410156 0)"/>
      </g>
     </g>
    </g>
    <g id="ytick_4">
     <g id="line2d_21">
      <path d="M 56.09 169.794167 
L 853.2 169.794167 
" clip-path="url(#p236c6821f8)" style="fill: none; stroke: #b0b0b0; stroke-width: 0.8; stroke-linecap: square"/>
     </g>
     <g id="line2d_22">
      <g>
       <use xlink:href="#ma59354c694" x="56.09" y="169.794167" style="stroke: #000000; stroke-width: 0.8"/>
      </g>
     </g>
     <g id="text_11">
      <!-- 0.6 -->
      <g transform="translate(33.186875 173.593386) scale(0.1 -0.1)">
       <defs>
        <path id="DejaVuSans-36" d="M 2113 2584 
Q 1688 2584 1439 2293 
Q 1191 2003 1191 1497 
Q 1191 994 1439 701 
Q 1688 409 2113 409 
Q 2538 409 2786 701 
Q 3034 994 3034 1497 
Q 3034 2003 2786 2293 
Q 2538 2584 2113 2584 
z
M 3366 4563 
L 3366 3988 
Q 3128 4100 2886 4159 
Q 2644 4219 2406 4219 
Q 1781 4219 1451 3797 
Q 1122 3375 1075 2522 
Q 1259 2794 1537 2939 
Q 1816 3084 2150 3084 
Q 2853 3084 3261 2657 
Q 3669 2231 3669 1497 
Q 3669 778 3244 343 
Q 2819 -91 2113 -91 
Q 1303 -91 875 529 
Q 447 1150 447 2328 
Q 447 3434 972 4092 
Q 1497 4750 2381 4750 
Q 2619 4750 2861 4703 
Q 3103 4656 3366 4563 
z
" transform="scale(0.015625)"/>
       </defs>
       <use xlink:href="#DejaVuSans-30"/>
       <use xlink:href="#DejaVuSans-2e" transform="translate(63.623047 0)"/>
       <use xlink:href="#DejaVuSans-36" transform="translate(95.410156 0)"/>
      </g>
     </g>
    </g>
    <g id="ytick_5">
     <g id="line2d_23">
      <path d="M 56.09 143.71537 
L 853.2 143.71537 
" clip-path="url(#p236c6821f8)" style="fill: none; stroke: #b0b0b0; stroke-width: 0.8; stroke-linecap: square"/>
     </g>
     <g id="line2d_24">
      <g>
       <use xlink:href="#ma59354c694" x="56.09" y="143.71537" style="stroke: #000000; stroke-width: 0.8"/>
      </g>
     </g>
     <g id="text_12">
      <!-- 0.8 -->
      <g transform="translate(33.186875 147.514589) scale(0.1 -0.1)">
       <defs>
        <path id="DejaVuSans-38" d="M 2034 2216 
Q 1584 2216 1326 1975 
Q 1069 1734 1069 1313 
Q 1069 891 1326 650 
Q 1584 409 2034 409 
Q 2484 409 2743 651 
Q 3003 894 3003 1313 
Q 3003 1734 2745 1975 
Q 2488 2216 2034 2216 
z
M 1403 2484 
Q 997 2584 770 2862 
Q 544 3141 544 3541 
Q 544 4100 942 4425 
Q 1341 4750 2034 4750 
Q 2731 4750 3128 4425 
Q 3525 4100 3525 3541 
Q 3525 3141 3298 2862 
Q 3072 2584 2669 2484 
Q 3125 2378 3379 2068 
Q 3634 1759 3634 1313 
Q 3634 634 3220 271 
Q 2806 -91 2034 -91 
Q 1263 -91 848 271 
Q 434 634 434 1313 
Q 434 1759 690 2068 
Q 947 2378 1403 2484 
z
M 1172 3481 
Q 1172 3119 1398 2916 
Q 1625 2713 2034 2713 
Q 2441 2713 2670 2916 
Q 2900 3119 2900 3481 
Q 2900 3844 2670 4047 
Q 2441 4250 2034 4250 
Q 1625 4250 1398 4047 
Q 1172 3844 1172 3481 
z
" transform="scale(0.015625)"/>
       </defs>
       <use xlink:href="#DejaVuSans-30"/>
       <use xlink:href="#DejaVuSans-2e" transform="translate(63.623047 0)"/>
       <use xlink:href="#DejaVuSans-38" transform="translate(95.410156 0)"/>
      </g>
     </g>
    </g>
    <g id="ytick_6">
     <g id="line2d_25">
      <path d="M 56.09 117.636574 
L 853.2 117.636574 
" clip-path="url(#p236c6821f8)" style="fill: none; stroke: #b0b0b0; stroke-width: 0.8; stroke-linecap: square"/>
     </g>
     <g id="line2d_26">
      <g>
       <use xlink:href="#ma59354c694" x="56.09" y="117.636574" style="stroke: #000000; stroke-width: 0.8"/>
      </g>
     </g>
     <g id="text_13">
      <!-- 1.0 -->
      <g transform="translate(33.186875 121.435792) scale(0.1 -0.1)">
       <use xlink:href="#DejaVuSans-31"/>
       <use xlink:href="#DejaVuSans-2e" transform="translate(63.623047 0)"/>
       <use xlink:href="#DejaVuSans-30" transform="translate(95.410156 0)"/>
      </g>
     </g>
    </g>
    <g id="ytick_7">
     <g id="line2d_27">
      <path d="M 56.09 91.557777 
L 853.2 91.557777 
" clip-path="url(#p236c6821f8)" style="fill: none; stroke: #b0b0b0; stroke-width: 0.8; stroke-linecap: square"/>
     </g>
     <g id="line2d_28">
      <g>
       <use xlink:href="#ma59354c694" x="56.09" y="91.557777" style="stroke: #000000; stroke-width: 0.8"/>
      </g>
     </g>
     <g id="text_14">
      <!-- 1.2 -->
      <g transform="translate(33.186875 95.356996) scale(0.1 -0.1)">
       <use xlink:href="#DejaVuSans-31"/>
       <use xlink:href="#DejaVuSans-2e" transform="translate(63.623047 0)"/>
       <use xlink:href="#DejaVuSans-32" transform="translate(95.410156 0)"/>
      </g>
     </g>
    </g>
    <g id="ytick_8">
     <g id="line2d_29">
      <path d="M 56.09 65.47898 
L 853.2 65.47898 
" clip-path="url(#p236c6821f8)" style="fill: none; stroke: #b0b0b0; stroke-width: 0.8; stroke-linecap: square"/>
     </g>
     <g id="line2d_30">
      <g>
       <use xlink:href="#ma59354c694" x="56.09" y="65.47898" style="stroke: #000000; stroke-width: 0.8"/>
      </g>
     </g>
     <g id="text_15">
      <!-- 1.4 -->
      <g transform="translate(33.186875 69.278199) scale(0.1 -0.1)">
       <use xlink:href="#DejaVuSans-31"/>
       <use xlink:href="#DejaVuSans-2e" transform="translate(63.623047 0)"/>
       <use xlink:href="#DejaVuSans-34" transform="translate(95.410156 0)"/>
      </g>
     </g>
    </g>
    <g id="ytick_9">
     <g id="line2d_31">
      <path d="M 56.09 39.400184 
L 853.2 39.400184 
" clip-path="url(#p236c6821f8)" style="fill: none; stroke: #b0b0b0; stroke-width: 0.8; stroke-linecap: square"/>
     </g>
     <g id="line2d_32">
      <g>
       <use xlink:href="#ma59354c694" x="56.09" y="39.400184" style="stroke: #000000; stroke-width: 0.8"/>
      </g>
     </g>
     <g id="text_16">
      <!-- 1.6 -->
      <g transform="translate(33.186875 43.199402) scale(0.1 -0.1)">
       <use xlink:href="#DejaVuSans-31"/>
       <use xlink:href="#DejaVuSans-2e" transform="translate(63.623047 0)"/>
       <use xlink:href="#DejaVuSans-36" transform="translate(95.410156 0)"/>
      </g>
     </g>
    </g>
    <g id="text_17">
     <!-- Std Dev -->
     <g transform="translate(27.107187 162.463594) rotate(-90) scale(0.1 -0.1)">
      <defs>
       <path id="DejaVuSans-53" d="M 3425 4513 
L 3425 3897 
Q 3066 4069 2747 4153 
Q 2428 4238 2131 4238 
Q 1616 4238 1336 4038 
Q 1056 3838 1056 3469 
Q 1056 3159 1242 3001 
Q 1428 2844 1947 2747 
L 2328 2669 
Q 3034 2534 3370 2195 
Q 3706 1856 3706 1288 
Q 3706 609 3251 259 
Q 2797 -91 1919 -91 
Q 1588 -91 1214 -16 
Q 841 59 441 206 
L 441 856 
Q 825 641 1194 531 
Q 1563 422 1919 422 
Q 2459 422 2753 634 
Q 3047 847 3047 1241 
Q 3047 1584 2836 1778 
Q 2625 1972 2144 2069 
L 1759 2144 
Q 1053 2284 737 2584 
Q 422 2884 422 3419 
Q 422 4038 858 4394 
Q 1294 4750 2059 4750 
Q 2388 4750 2728 4690 
Q 3069 4631 3425 4513 
z
" transform="scale(0.015625)"/>
       <path id="DejaVuSans-74" d="M 1172 4494 
L 1172 3500 
L 2356 3500 
L 2356 3053 
L 1172 3053 
L 1172 1153 
Q 1172 725 1289 603 
Q 1406 481 1766 481 
L 2356 481 
L 2356 0 
L 1766 0 
Q 1100 0 847 248 
Q 594 497 594 1153 
L 594 3053 
L 172 3053 
L 172 3500 
L 594 3500 
L 594 4494 
L 1172 4494 
z
" transform="scale(0.015625)"/>
       <path id="DejaVuSans-64" d="M 2906 2969 
L 2906 4863 
L 3481 4863 
L 3481 0 
L 2906 0 
L 2906 525 
Q 2725 213 2448 61 
Q 2172 -91 1784 -91 
Q 1150 -91 751 415 
Q 353 922 353 1747 
Q 353 2572 751 3078 
Q 1150 3584 1784 3584 
Q 2172 3584 2448 3432 
Q 2725 3281 2906 2969 
z
M 947 1747 
Q 947 1113 1208 752 
Q 1469 391 1925 391 
Q 2381 391 2643 752 
Q 2906 1113 2906 1747 
Q 2906 2381 2643 2742 
Q 2381 3103 1925 3103 
Q 1469 3103 1208 2742 
Q 947 2381 947 1747 
z
" transform="scale(0.015625)"/>
       <path id="DejaVuSans-20" transform="scale(0.015625)"/>
       <path id="DejaVuSans-44" d="M 1259 4147 
L 1259 519 
L 2022 519 
Q 2988 519 3436 956 
Q 3884 1394 3884 2338 
Q 3884 3275 3436 3711 
Q 2988 4147 2022 4147 
L 1259 4147 
z
M 628 4666 
L 1925 4666 
Q 3281 4666 3915 4102 
Q 4550 3538 4550 2338 
Q 4550 1131 3912 565 
Q 3275 0 1925 0 
L 628 0 
L 628 4666 
z
" transform="scale(0.015625)"/>
       <path id="DejaVuSans-65" d="M 3597 1894 
L 3597 1613 
L 953 1613 
Q 991 1019 1311 708 
Q 1631 397 2203 397 
Q 2534 397 2845 478 
Q 3156 559 3463 722 
L 3463 178 
Q 3153 47 2828 -22 
Q 2503 -91 2169 -91 
Q 1331 -91 842 396 
Q 353 884 353 1716 
Q 353 2575 817 3079 
Q 1281 3584 2069 3584 
Q 2775 3584 3186 3129 
Q 3597 2675 3597 1894 
z
M 3022 2063 
Q 3016 2534 2758 2815 
Q 2500 3097 2075 3097 
Q 1594 3097 1305 2825 
Q 1016 2553 972 2059 
L 3022 2063 
z
" transform="scale(0.015625)"/>
       <path id="DejaVuSans-76" d="M 191 3500 
L 800 3500 
L 1894 563 
L 2988 3500 
L 3597 3500 
L 2284 0 
L 1503 0 
L 191 3500 
z
" transform="scale(0.015625)"/>
      </defs>
      <use xlink:href="#DejaVuSans-53"/>
      <use xlink:href="#DejaVuSans-74" transform="translate(63.476562 0)"/>
      <use xlink:href="#DejaVuSans-64" transform="translate(102.685547 0)"/>
      <use xlink:href="#DejaVuSans-20" transform="translate(166.162109 0)"/>
      <use xlink:href="#DejaVuSans-44" transform="translate(197.949219 0)"/>
      <use xlink:href="#DejaVuSans-65" transform="translate(274.951172 0)"/>
      <use xlink:href="#DejaVuSans-76" transform="translate(336.474609 0)"/>
     </g>
    </g>
   </g>
   <g id="line2d_33">
    <path d="M 92.322273 247.900163 
L 94.539821 247.951425 
L 109.224917 247.887646 
L 109.274196 247.850438 
L 109.471312 246.282063 
L 111.68886 227.033985 
L 111.738139 226.970471 
L 111.885975 247.923616 
L 114.793427 247.9519 
L 133.617947 247.861181 
L 133.864341 246.268873 
L 134.554245 245.868743 
L 135.096312 245.278961 
L 135.687659 244.250932 
L 136.131168 243.55358 
L 136.279005 247.933286 
L 144.114342 247.952581 
L 145.88838 247.843161 
L 146.824678 247.511544 
L 147.366746 247.061701 
L 148.105928 246.111626 
L 148.204486 245.994892 
L 148.352322 247.94227 
L 150.569871 247.9517 
L 157.813861 247.857156 
L 158.010977 247.744414 
L 160.277804 247.330608 
L 160.42564 247.945312 
L 161.854727 247.952102 
L 170.035015 247.843951 
L 172.351121 247.319596 
L 172.498958 247.945182 
L 173.928044 247.952038 
L 181.960497 247.864339 
L 182.157612 247.774667 
L 184.424439 247.363308 
L 184.572276 247.945297 
L 186.001362 247.952169 
L 194.033814 247.862648 
L 194.674439 247.445035 
L 195.06867 246.685693 
L 195.610737 245.092791 
L 196.399199 241.980775 
L 196.497757 241.559441 
L 196.645593 247.938534 
L 201.770593 247.952414 
L 206.254968 247.843798 
L 206.895593 247.604843 
L 207.339103 247.142431 
L 207.88117 246.173931 
L 208.32468 245.014551 
L 208.472517 244.147218 
L 208.571074 243.993258 
L 208.718911 247.934068 
L 218.131171 247.887073 
L 218.426844 247.512474 
L 219.067469 247.22606 
L 219.708094 246.653387 
L 220.644392 245.471743 
L 220.792229 247.943295 
L 222.516988 247.951535 
L 230.352325 247.855047 
L 231.584296 247.495261 
L 232.175642 247.008307 
L 232.71771 246.420532 
L 232.865546 247.943402 
L 234.541027 247.951508 
L 242.327085 247.858434 
L 242.5242 247.750986 
L 244.791027 247.395711 
L 244.938864 247.945377 
L 246.36795 247.952172 
L 254.548239 247.844476 
L 256.864345 247.370305 
L 257.012182 247.945252 
L 258.441268 247.952157 
L 266.47372 247.86503 
L 266.670836 247.778364 
L 268.937663 247.395607 
L 269.085499 247.945319 
L 270.514586 247.952215 
L 278.645596 247.844127 
L 279.581894 247.548691 
L 280.123961 247.109816 
L 280.813865 246.234562 
L 281.01098 245.945945 
L 281.158817 247.943336 
L 282.686461 247.951528 
L 290.669634 247.854639 
L 293.084298 247.430295 
L 293.232135 247.945348 
L 294.661221 247.952344 
L 302.84151 247.845303 
L 305.009779 247.529572 
L 305.108337 247.516154 
L 305.256173 247.945626 
L 306.68526 247.952418 
L 314.914828 247.845313 
L 317.181655 247.479756 
L 317.329491 247.94533 
L 318.758578 247.952231 
L 326.988145 247.845507 
L 329.254972 247.500455 
L 329.402809 247.945609 
L 330.831895 247.952529 
L 350.839107 247.850419 
L 351.036223 246.281229 
L 353.253771 227.02155 
L 353.30305 226.958018 
L 353.450886 247.923611 
L 356.358338 247.951901 
L 375.182858 247.861189 
L 375.429252 246.268424 
L 376.119156 245.867954 
L 376.661224 245.277644 
L 377.25257 244.248866 
L 377.696079 243.55036 
L 377.843916 247.933274 
L 385.728532 247.952584 
L 387.453291 247.843147 
L 388.389589 247.511337 
L 388.931657 247.061442 
L 389.670839 246.111362 
L 389.769397 245.994588 
L 389.917234 247.942267 
L 392.134782 247.951699 
L 399.378772 247.857154 
L 399.575888 247.744397 
L 401.842715 247.330824 
L 401.990551 247.945314 
L 403.419638 247.952104 
L 411.599927 247.843979 
L 413.916032 247.321141 
L 414.063869 247.945185 
L 415.492956 247.952038 
L 423.525408 247.864329 
L 423.722523 247.77463 
L 425.98935 247.363449 
L 426.137187 247.945296 
L 427.566273 247.952167 
L 435.648004 247.846676 
L 436.091514 247.629986 
L 436.436466 247.115325 
L 436.929254 245.887132 
L 437.569879 243.62395 
L 438.062668 241.558568 
L 438.210504 247.93854 
L 443.335504 247.952413 
L 447.81988 247.843798 
L 448.460505 247.604995 
L 448.904014 247.14293 
L 449.446082 246.175003 
L 449.889591 245.016131 
L 450.037428 244.148488 
L 450.135985 243.994782 
L 450.283822 247.934071 
L 459.696082 247.887071 
L 459.991755 247.512421 
L 460.63238 247.225932 
L 461.273005 246.653154 
L 462.209303 245.47156 
L 462.35714 247.943296 
L 464.081899 247.951534 
L 471.917236 247.85505 
L 473.149207 247.49471 
L 473.740553 247.007315 
L 474.282621 246.419262 
L 474.430457 247.943402 
L 476.105938 247.951508 
L 483.891996 247.858447 
L 484.089111 247.750996 
L 486.355938 247.396959 
L 486.503775 247.945383 
L 487.932862 247.952176 
L 496.11315 247.844495 
L 498.429256 247.371779 
L 498.577093 247.945253 
L 500.006179 247.952154 
L 508.038631 247.865008 
L 508.235747 247.778301 
L 510.502574 247.39518 
L 510.65041 247.945317 
L 512.079497 247.952212 
L 520.210507 247.844605 
L 521.146805 247.548784 
L 521.688872 247.109632 
L 522.378776 246.234078 
L 522.575891 245.945337 
L 522.723728 247.943336 
L 524.251372 247.951528 
L 532.234546 247.854775 
L 534.649209 247.429137 
L 534.797046 247.945341 
L 536.226132 247.95234 
L 544.406421 247.845395 
L 546.57469 247.529652 
L 546.673248 247.51624 
L 546.821085 247.945627 
L 548.250171 247.952421 
L 556.479739 247.84541 
L 558.746566 247.479368 
L 558.894402 247.945326 
L 560.323489 247.952228 
L 568.553056 247.845589 
L 570.819883 247.500476 
L 570.96772 247.945609 
L 572.396806 247.952529 
L 592.305461 247.89996 
L 592.35474 247.840429 
L 592.404019 247.098714 
L 592.748971 217.270598 
L 594.818682 38.037958 
L 594.867961 37.407273 
L 595.015798 247.911025 
L 595.853538 247.948665 
L 616.550654 247.952502 
L 616.69849 247.851538 
L 616.747769 247.098028 
L 616.994164 230.704176 
L 617.486952 228.37153 
L 617.881183 225.305542 
L 618.324692 219.878639 
L 618.86676 210.059443 
L 619.211712 204.767573 
L 619.260991 204.121092 
L 619.408827 247.913107 
L 620.345125 247.949179 
L 628.870366 247.876442 
L 629.264597 247.670604 
L 629.510991 247.197481 
L 629.806664 246.11646 
L 630.200895 243.710923 
L 630.742962 238.746666 
L 631.334308 232.191238 
L 631.482145 247.941597 
L 633.896808 247.951771 
L 640.943684 247.854965 
L 641.140799 247.737999 
L 643.407626 247.257758 
L 643.555462 247.944948 
L 645.033828 247.951809 
L 653.115559 247.854029 
L 655.480944 247.290525 
L 655.62878 247.945058 
L 657.057867 247.951939 
L 665.090319 247.863257 
L 665.287434 247.771134 
L 667.554261 247.312727 
L 667.702098 247.945134 
L 669.131184 247.952026 
L 677.114358 247.873908 
L 677.508588 246.648918 
L 677.754983 244.368744 
L 678.149213 238.117727 
L 678.642002 226.395288 
L 679.331906 204.315482 
L 679.627579 193.629989 
L 679.775415 247.913159 
L 680.760992 247.949391 
L 689.187675 247.887857 
L 689.384791 247.817501 
L 689.532627 247.62699 
L 689.779022 246.772256 
L 690.123973 244.485157 
L 690.518204 240.214661 
L 691.060272 231.535706 
L 691.454502 222.204485 
L 691.602339 213.414411 
L 691.700897 212.329516 
L 691.848733 247.911701 
L 692.735752 247.948938 
L 701.211714 247.902423 
L 701.260993 247.877977 
L 701.556666 246.729592 
L 701.852339 246.063496 
L 702.24657 244.542468 
L 703.774214 237.113328 
L 703.922051 247.942414 
L 705.991762 247.95163 
L 713.482147 247.854979 
L 714.024215 247.626463 
L 714.270609 247.239597 
L 714.566282 246.355356 
L 714.960513 244.39246 
L 715.601138 239.739511 
L 715.847532 237.914247 
L 715.995368 247.943093 
L 717.720128 247.951498 
L 725.456907 247.858176 
L 725.654023 247.749802 
L 727.92085 247.403166 
L 728.068686 247.945417 
L 729.497773 247.95221 
L 737.678061 247.844627 
L 739.994167 247.375769 
L 740.142004 247.945271 
L 741.57109 247.952162 
L 749.603543 247.864798 
L 749.800658 247.777546 
L 752.067485 247.392323 
L 752.215321 247.945315 
L 753.644408 247.952212 
L 761.67686 247.862238 
L 762.12037 247.760954 
L 762.711716 247.535106 
L 763.253783 247.070375 
L 763.894408 246.211636 
L 764.140803 245.823632 
L 764.288639 247.943317 
L 765.816283 247.951526 
L 773.799457 247.85545 
L 776.21412 247.461255 
L 776.361957 247.945411 
L 777.791043 247.952367 
L 785.971332 247.845778 
L 788.090323 247.536877 
L 788.238159 247.517422 
L 788.385996 247.945688 
L 789.815082 247.952559 
L 798.04465 247.845785 
L 800.311477 247.490471 
L 800.459313 247.945456 
L 801.8884 247.952356 
L 810.117967 247.845613 
L 812.384794 247.499953 
L 812.532631 247.945614 
L 813.961718 247.952551 
L 816.967727 247.952673 
L 816.967727 247.952673 
" clip-path="url(#p236c6821f8)" style="fill: none; stroke: #0000ff; stroke-width: 1.5; stroke-linecap: square"/>
   </g>
   <g id="line2d_34">
    <path d="M 92.322273 247.900163 
L 94.539821 247.951426 
L 109.224917 247.887646 
L 109.274196 247.850443 
L 109.471312 246.282321 
L 111.68886 227.036655 
L 111.738139 226.973162 
L 111.885975 247.923617 
L 114.793427 247.951901 
L 133.617947 247.861217 
L 133.864341 246.269449 
L 134.603524 245.828263 
L 135.145591 245.209711 
L 135.736937 244.149262 
L 136.131168 243.55482 
L 136.279005 247.93329 
L 144.16362 247.952582 
L 145.88838 247.843158 
L 146.824678 247.511596 
L 147.366746 247.061844 
L 148.105928 246.111914 
L 148.204486 245.995196 
L 148.352322 247.942271 
L 150.569871 247.9517 
L 157.813861 247.857147 
L 158.010977 247.74442 
L 160.277804 247.330392 
L 160.42564 247.945311 
L 161.854727 247.952103 
L 170.035015 247.843957 
L 172.351121 247.319743 
L 172.498958 247.945182 
L 173.928044 247.952038 
L 181.960497 247.864337 
L 182.157612 247.774665 
L 184.424439 247.363273 
L 184.572276 247.945297 
L 186.001362 247.95217 
L 194.033814 247.862119 
L 194.723718 247.370545 
L 195.117949 246.564681 
L 195.660016 244.921557 
L 196.497757 241.559529 
L 196.645593 247.938531 
L 201.770593 247.952413 
L 206.254968 247.84381 
L 206.895593 247.604804 
L 207.339103 247.142323 
L 207.88117 246.173771 
L 208.32468 245.014511 
L 208.472517 244.147943 
L 208.571074 243.993839 
L 208.718911 247.93407 
L 218.131171 247.887085 
L 218.426844 247.512489 
L 219.067469 247.226179 
L 219.708094 246.653475 
L 220.644392 245.471792 
L 220.792229 247.943294 
L 222.516988 247.951535 
L 230.352325 247.855034 
L 231.584296 247.495237 
L 232.175642 247.008325 
L 232.71771 246.420617 
L 232.865546 247.943402 
L 234.541027 247.951509 
L 242.327085 247.858433 
L 242.5242 247.750995 
L 244.791027 247.395495 
L 244.938864 247.945375 
L 246.36795 247.95217 
L 254.548239 247.844473 
L 256.864345 247.370252 
L 257.012182 247.945252 
L 258.441268 247.952157 
L 266.47372 247.86504 
L 266.670836 247.778382 
L 268.937663 247.395687 
L 269.085499 247.94532 
L 270.514586 247.952215 
L 278.645596 247.843996 
L 279.581894 247.548628 
L 280.123961 247.109809 
L 280.813865 246.234587 
L 281.01098 245.945987 
L 281.158817 247.943336 
L 282.686461 247.951528 
L 290.669634 247.854611 
L 293.084298 247.430412 
L 293.232135 247.945348 
L 294.661221 247.952345 
L 302.84151 247.845275 
L 305.009779 247.529581 
L 305.108337 247.516174 
L 305.256173 247.945627 
L 306.68526 247.952419 
L 314.914828 247.845279 
L 317.181655 247.479758 
L 317.329491 247.94533 
L 318.758578 247.95223 
L 326.988145 247.845483 
L 329.254972 247.500446 
L 329.402809 247.945609 
L 330.831895 247.952528 
L 350.839107 247.85042 
L 351.036223 246.281478 
L 353.253771 227.024102 
L 353.30305 226.960591 
L 353.450886 247.923611 
L 356.358338 247.951901 
L 375.182858 247.861223 
L 375.429252 246.269 
L 376.168435 245.827441 
L 376.710502 245.208351 
L 377.301849 244.147156 
L 377.696079 243.551641 
L 377.843916 247.933279 
L 385.728532 247.952583 
L 387.453291 247.843149 
L 388.389589 247.511381 
L 388.931657 247.061556 
L 389.670839 246.111588 
L 389.769397 245.99483 
L 389.917234 247.942268 
L 392.134782 247.9517 
L 399.378772 247.857148 
L 399.575888 247.744405 
L 401.842715 247.330697 
L 401.990551 247.945314 
L 403.419638 247.952106 
L 411.599927 247.843987 
L 413.916032 247.321219 
L 414.063869 247.945185 
L 415.492956 247.952038 
L 423.525408 247.864326 
L 423.722523 247.774626 
L 425.98935 247.363311 
L 426.137187 247.945296 
L 427.566273 247.952167 
L 435.648004 247.844108 
L 436.091514 247.628411 
L 436.436466 247.114564 
L 436.929254 245.88688 
L 437.569879 243.624098 
L 438.062668 241.558892 
L 438.210504 247.938537 
L 443.335504 247.952413 
L 447.81988 247.843805 
L 448.460505 247.604979 
L 448.904014 247.142875 
L 449.446082 246.174928 
L 449.889591 245.016168 
L 450.037428 244.149268 
L 450.135985 243.995421 
L 450.283822 247.934073 
L 459.696082 247.887083 
L 459.991755 247.512442 
L 460.63238 247.226054 
L 461.273005 246.653228 
L 462.209303 245.471571 
L 462.35714 247.943295 
L 464.081899 247.951534 
L 471.917236 247.855039 
L 473.149207 247.494711 
L 473.740553 247.007376 
L 474.282621 246.419393 
L 474.430457 247.943402 
L 476.105938 247.951508 
L 483.891996 247.858443 
L 484.089111 247.751 
L 486.355938 247.396505 
L 486.503775 247.945381 
L 487.932862 247.952175 
L 496.11315 247.844491 
L 498.429256 247.371739 
L 498.577093 247.945253 
L 500.006179 247.952155 
L 508.038631 247.865019 
L 508.235747 247.778322 
L 510.502574 247.39527 
L 510.65041 247.945318 
L 512.079497 247.952212 
L 520.210507 247.84445 
L 521.146805 247.54866 
L 521.688872 247.10952 
L 522.378776 246.233925 
L 522.575891 245.945177 
L 522.723728 247.943336 
L 524.251372 247.951529 
L 532.234546 247.854743 
L 534.649209 247.429082 
L 534.797046 247.94534 
L 536.226132 247.95234 
L 544.406421 247.845363 
L 546.57469 247.529663 
L 546.673248 247.516262 
L 546.821085 247.945628 
L 548.250171 247.952421 
L 556.479739 247.845373 
L 558.746566 247.479303 
L 558.894402 247.945326 
L 560.323489 247.952227 
L 568.553056 247.845564 
L 570.819883 247.500468 
L 570.96772 247.945609 
L 572.396806 247.952529 
L 592.305461 247.899929 
L 592.35474 247.840358 
L 592.404019 247.099343 
L 592.748971 217.292168 
L 594.818682 38.199758 
L 594.867961 37.568937 
L 595.015798 247.911023 
L 595.853538 247.948664 
L 616.550654 247.952477 
L 616.69849 247.852271 
L 616.747769 247.110354 
L 616.994164 230.934074 
L 617.486952 228.627448 
L 617.881183 225.587861 
L 618.324692 220.2017 
L 618.86676 210.450058 
L 619.260991 204.517785 
L 619.408827 247.913118 
L 620.345125 247.94918 
L 628.870366 247.876441 
L 629.264597 247.670623 
L 629.510991 247.197559 
L 629.806664 246.116706 
L 630.200895 243.711507 
L 630.742962 238.747954 
L 631.334308 232.193102 
L 631.482145 247.941596 
L 633.896808 247.951766 
L 640.943684 247.854958 
L 641.140799 247.738004 
L 643.407626 247.257924 
L 643.555462 247.944949 
L 645.033828 247.951809 
L 653.115559 247.854038 
L 655.480944 247.290584 
L 655.62878 247.945058 
L 657.057867 247.95194 
L 665.090319 247.863255 
L 665.287434 247.771134 
L 667.554261 247.312832 
L 667.702098 247.945135 
L 669.131184 247.952028 
L 677.114358 247.873256 
L 677.557867 246.281731 
L 677.85354 243.079155 
L 678.247771 236.086064 
L 678.789838 222.126628 
L 679.627579 193.583069 
L 679.775415 247.913154 
L 680.760992 247.949391 
L 689.187675 247.88803 
L 689.680464 247.208301 
L 689.976137 245.672991 
L 690.370368 242.131568 
L 690.863156 235.209357 
L 691.405223 224.997416 
L 691.700897 213.253628 
L 691.848733 247.911738 
L 692.735752 247.948941 
L 701.260993 247.878041 
L 701.556666 246.729916 
L 701.852339 246.06406 
L 702.24657 244.543226 
L 703.774214 237.115204 
L 703.922051 247.942414 
L 705.991762 247.951631 
L 713.482147 247.85498 
L 714.024215 247.626528 
L 714.270609 247.239787 
L 714.566282 246.355851 
L 714.960513 244.393566 
L 715.601138 239.742152 
L 715.847532 237.917452 
L 715.995368 247.943094 
L 717.720128 247.951498 
L 725.456907 247.858181 
L 725.654023 247.74982 
L 727.92085 247.403166 
L 728.068686 247.945417 
L 729.497773 247.95221 
L 737.678061 247.844628 
L 739.994167 247.375854 
L 740.142004 247.945271 
L 741.57109 247.952161 
L 749.603543 247.86481 
L 749.800658 247.777565 
L 752.067485 247.392369 
L 752.215321 247.945315 
L 753.644408 247.952212 
L 761.67686 247.861081 
L 762.021812 247.7755 
L 762.662437 247.558825 
L 763.204504 247.116099 
L 763.84513 246.275967 
L 764.140803 245.807045 
L 764.288639 247.943316 
L 765.816283 247.951526 
L 773.799457 247.855407 
L 776.21412 247.460979 
L 776.361957 247.94541 
L 777.791043 247.952367 
L 785.971332 247.845744 
L 788.090323 247.536849 
L 788.238159 247.517393 
L 788.385996 247.945688 
L 789.815082 247.952559 
L 798.04465 247.845756 
L 800.311477 247.490456 
L 800.459313 247.945456 
L 801.8884 247.952356 
L 810.117967 247.845589 
L 812.384794 247.499945 
L 812.532631 247.945614 
L 813.961718 247.952551 
L 816.967727 247.952672 
L 816.967727 247.952672 
" clip-path="url(#p236c6821f8)" style="fill: none; stroke-dasharray: 5.55,2.4; stroke-dashoffset: 0; stroke: #ff0000; stroke-width: 1.5"/>
   </g>
   <g id="line2d_35">
    <path d="M 333.887184 258.48 
L 333.887184 26.88 
" clip-path="url(#p236c6821f8)" style="fill: none; stroke-dasharray: 1.5,2.475; stroke-dashoffset: 0; stroke: #808080; stroke-opacity: 0.6; stroke-width: 1.5"/>
   </g>
   <g id="line2d_36">
    <path d="M 575.452095 258.48 
L 575.452095 26.88 
" clip-path="url(#p236c6821f8)" style="fill: none; stroke-dasharray: 1.5,2.475; stroke-dashoffset: 0; stroke: #808080; stroke-opacity: 0.6; stroke-width: 1.5"/>
   </g>
   <g id="patch_3">
    <path d="M 56.09 258.48 
L 56.09 26.88 
" style="fill: none; stroke: #000000; stroke-width: 0.8; stroke-linejoin: miter; stroke-linecap: square"/>
   </g>
   <g id="patch_4">
    <path d="M 853.2 258.48 
L 853.2 26.88 
" style="fill: none; stroke: #000000; stroke-width: 0.8; stroke-linejoin: miter; stroke-linecap: square"/>
   </g>
   <g id="patch_5">
    <path d="M 56.09 258.48 
L 853.2 258.48 
" style="fill: none; stroke: #000000; stroke-width: 0.8; stroke-linejoin: miter; stroke-linecap: square"/>
   </g>
   <g id="patch_6">
    <path d="M 56.09 26.88 
L 853.2 26.88 
" style="fill: none; stroke: #000000; stroke-width: 0.8; stroke-linejoin: miter; stroke-linecap: square"/>
   </g>
   <g id="text_18">
    <!-- [04] dVN  —  Uncertainty (std dev) -->
    <g transform="translate(350.50375 20.88) scale(0.12 -0.12)">
     <defs>
      <path id="DejaVuSans-5b" d="M 550 4863 
L 1875 4863 
L 1875 4416 
L 1125 4416 
L 1125 -397 
L 1875 -397 
L 1875 -844 
L 550 -844 
L 550 4863 
z
" transform="scale(0.015625)"/>
      <path id="DejaVuSans-5d" d="M 1947 4863 
L 1947 -844 
L 622 -844 
L 622 -397 
L 1369 -397 
L 1369 4416 
L 622 4416 
L 622 4863 
L 1947 4863 
z
" transform="scale(0.015625)"/>
      <path id="DejaVuSans-56" d="M 1831 0 
L 50 4666 
L 709 4666 
L 2188 738 
L 3669 4666 
L 4325 4666 
L 2547 0 
L 1831 0 
z
" transform="scale(0.015625)"/>
      <path id="DejaVuSans-4e" d="M 628 4666 
L 1478 4666 
L 3547 763 
L 3547 4666 
L 4159 4666 
L 4159 0 
L 3309 0 
L 1241 3903 
L 1241 0 
L 628 0 
L 628 4666 
z
" transform="scale(0.015625)"/>
      <path id="DejaVuSans-2014" d="M 313 1978 
L 6088 1978 
L 6088 1528 
L 313 1528 
L 313 1978 
z
" transform="scale(0.015625)"/>
      <path id="DejaVuSans-55" d="M 556 4666 
L 1191 4666 
L 1191 1831 
Q 1191 1081 1462 751 
Q 1734 422 2344 422 
Q 2950 422 3222 751 
Q 3494 1081 3494 1831 
L 3494 4666 
L 4128 4666 
L 4128 1753 
Q 4128 841 3676 375 
Q 3225 -91 2344 -91 
Q 1459 -91 1007 375 
Q 556 841 556 1753 
L 556 4666 
z
" transform="scale(0.015625)"/>
      <path id="DejaVuSans-6e" d="M 3513 2113 
L 3513 0 
L 2938 0 
L 2938 2094 
Q 2938 2591 2744 2837 
Q 2550 3084 2163 3084 
Q 1697 3084 1428 2787 
Q 1159 2491 1159 1978 
L 1159 0 
L 581 0 
L 581 3500 
L 1159 3500 
L 1159 2956 
Q 1366 3272 1645 3428 
Q 1925 3584 2291 3584 
Q 2894 3584 3203 3211 
Q 3513 2838 3513 2113 
z
" transform="scale(0.015625)"/>
      <path id="DejaVuSans-63" d="M 3122 3366 
L 3122 2828 
Q 2878 2963 2633 3030 
Q 2388 3097 2138 3097 
Q 1578 3097 1268 2742 
Q 959 2388 959 1747 
Q 959 1106 1268 751 
Q 1578 397 2138 397 
Q 2388 397 2633 464 
Q 2878 531 3122 666 
L 3122 134 
Q 2881 22 2623 -34 
Q 2366 -91 2075 -91 
Q 1284 -91 818 406 
Q 353 903 353 1747 
Q 353 2603 823 3093 
Q 1294 3584 2113 3584 
Q 2378 3584 2631 3529 
Q 2884 3475 3122 3366 
z
" transform="scale(0.015625)"/>
      <path id="DejaVuSans-72" d="M 2631 2963 
Q 2534 3019 2420 3045 
Q 2306 3072 2169 3072 
Q 1681 3072 1420 2755 
Q 1159 2438 1159 1844 
L 1159 0 
L 581 0 
L 581 3500 
L 1159 3500 
L 1159 2956 
Q 1341 3275 1631 3429 
Q 1922 3584 2338 3584 
Q 2397 3584 2469 3576 
Q 2541 3569 2628 3553 
L 2631 2963 
z
" transform="scale(0.015625)"/>
      <path id="DejaVuSans-61" d="M 2194 1759 
Q 1497 1759 1228 1600 
Q 959 1441 959 1056 
Q 959 750 1161 570 
Q 1363 391 1709 391 
Q 2188 391 2477 730 
Q 2766 1069 2766 1631 
L 2766 1759 
L 2194 1759 
z
M 3341 1997 
L 3341 0 
L 2766 0 
L 2766 531 
Q 2569 213 2275 61 
Q 1981 -91 1556 -91 
Q 1019 -91 701 211 
Q 384 513 384 1019 
Q 384 1609 779 1909 
Q 1175 2209 1959 2209 
L 2766 2209 
L 2766 2266 
Q 2766 2663 2505 2880 
Q 2244 3097 1772 3097 
Q 1472 3097 1187 3025 
Q 903 2953 641 2809 
L 641 3341 
Q 956 3463 1253 3523 
Q 1550 3584 1831 3584 
Q 2591 3584 2966 3190 
Q 3341 2797 3341 1997 
z
" transform="scale(0.015625)"/>
      <path id="DejaVuSans-69" d="M 603 3500 
L 1178 3500 
L 1178 0 
L 603 0 
L 603 3500 
z
M 603 4863 
L 1178 4863 
L 1178 4134 
L 603 4134 
L 603 4863 
z
" transform="scale(0.015625)"/>
      <path id="DejaVuSans-79" d="M 2059 -325 
Q 1816 -950 1584 -1140 
Q 1353 -1331 966 -1331 
L 506 -1331 
L 506 -850 
L 844 -850 
Q 1081 -850 1212 -737 
Q 1344 -625 1503 -206 
L 1606 56 
L 191 3500 
L 800 3500 
L 1894 763 
L 2988 3500 
L 3597 3500 
L 2059 -325 
z
" transform="scale(0.015625)"/>
      <path id="DejaVuSans-28" d="M 1984 4856 
Q 1566 4138 1362 3434 
Q 1159 2731 1159 2009 
Q 1159 1288 1364 580 
Q 1569 -128 1984 -844 
L 1484 -844 
Q 1016 -109 783 600 
Q 550 1309 550 2009 
Q 550 2706 781 3412 
Q 1013 4119 1484 4856 
L 1984 4856 
z
" transform="scale(0.015625)"/>
      <path id="DejaVuSans-73" d="M 2834 3397 
L 2834 2853 
Q 2591 2978 2328 3040 
Q 2066 3103 1784 3103 
Q 1356 3103 1142 2972 
Q 928 2841 928 2578 
Q 928 2378 1081 2264 
Q 1234 2150 1697 2047 
L 1894 2003 
Q 2506 1872 2764 1633 
Q 3022 1394 3022 966 
Q 3022 478 2636 193 
Q 2250 -91 1575 -91 
Q 1294 -91 989 -36 
Q 684 19 347 128 
L 347 722 
Q 666 556 975 473 
Q 1284 391 1588 391 
Q 1994 391 2212 530 
Q 2431 669 2431 922 
Q 2431 1156 2273 1281 
Q 2116 1406 1581 1522 
L 1381 1569 
Q 847 1681 609 1914 
Q 372 2147 372 2553 
Q 372 3047 722 3315 
Q 1072 3584 1716 3584 
Q 2034 3584 2315 3537 
Q 2597 3491 2834 3397 
z
" transform="scale(0.015625)"/>
      <path id="DejaVuSans-29" d="M 513 4856 
L 1013 4856 
Q 1481 4119 1714 3412 
Q 1947 2706 1947 2009 
Q 1947 1309 1714 600 
Q 1481 -109 1013 -844 
L 513 -844 
Q 928 -128 1133 580 
Q 1338 1288 1338 2009 
Q 1338 2731 1133 3434 
Q 928 4138 513 4856 
z
" transform="scale(0.015625)"/>
     </defs>
     <use xlink:href="#DejaVuSans-5b"/>
     <use xlink:href="#DejaVuSans-30" transform="translate(39.013672 0)"/>
     <use xlink:href="#DejaVuSans-34" transform="translate(102.636719 0)"/>
     <use xlink:href="#DejaVuSans-5d" transform="translate(166.259766 0)"/>
     <use xlink:href="#DejaVuSans-20" transform="translate(205.273438 0)"/>
     <use xlink:href="#DejaVuSans-64" transform="translate(237.060547 0)"/>
     <use xlink:href="#DejaVuSans-56" transform="translate(300.537109 0)"/>
     <use xlink:href="#DejaVuSans-4e" transform="translate(368.945312 0)"/>
     <use xlink:href="#DejaVuSans-20" transform="translate(443.75 0)"/>
     <use xlink:href="#DejaVuSans-20" transform="translate(475.537109 0)"/>
     <use xlink:href="#DejaVuSans-2014" transform="translate(507.324219 0)"/>
     <use xlink:href="#DejaVuSans-20" transform="translate(607.324219 0)"/>
     <use xlink:href="#DejaVuSans-20" transform="translate(639.111328 0)"/>
     <use xlink:href="#DejaVuSans-55" transform="translate(670.898438 0)"/>
     <use xlink:href="#DejaVuSans-6e" transform="translate(744.091797 0)"/>
     <use xlink:href="#DejaVuSans-63" transform="translate(807.470703 0)"/>
     <use xlink:href="#DejaVuSans-65" transform="translate(862.451172 0)"/>
     <use xlink:href="#DejaVuSans-72" transform="translate(923.974609 0)"/>
     <use xlink:href="#DejaVuSans-74" transform="translate(965.087891 0)"/>
     <use xlink:href="#DejaVuSans-61" transform="translate(1004.296875 0)"/>
     <use xlink:href="#DejaVuSans-69" transform="translate(1065.576172 0)"/>
     <use xlink:href="#DejaVuSans-6e" transform="translate(1093.359375 0)"/>
     <use xlink:href="#DejaVuSans-74" transform="translate(1156.738281 0)"/>
     <use xlink:href="#DejaVuSans-79" transform="translate(1195.947266 0)"/>
     <use xlink:href="#DejaVuSans-20" transform="translate(1255.126953 0)"/>
     <use xlink:href="#DejaVuSans-28" transform="translate(1286.914062 0)"/>
     <use xlink:href="#DejaVuSans-73" transform="translate(1325.927734 0)"/>
     <use xlink:href="#DejaVuSans-74" transform="translate(1378.027344 0)"/>
     <use xlink:href="#DejaVuSans-64" transform="translate(1417.236328 0)"/>
     <use xlink:href="#DejaVuSans-20" transform="translate(1480.712891 0)"/>
     <use xlink:href="#DejaVuSans-64" transform="translate(1512.5 0)"/>
     <use xlink:href="#DejaVuSans-65" transform="translate(1575.976562 0)"/>
     <use xlink:href="#DejaVuSans-76" transform="translate(1637.5 0)"/>
     <use xlink:href="#DejaVuSans-29" transform="translate(1696.679688 0)"/>
    </g>
   </g>
   <g id="legend_1">
    <g id="patch_7">
     <path d="M 738.401563 64.23625 
L 846.2 64.23625 
Q 848.2 64.23625 848.2 62.23625 
L 848.2 33.88 
Q 848.2 31.88 846.2 31.88 
L 738.401563 31.88 
Q 736.401563 31.88 736.401563 33.88 
L 736.401563 62.23625 
Q 736.401563 64.23625 738.401563 64.23625 
z
" style="fill: #ffffff; opacity: 0.8; stroke: #cccccc; stroke-linejoin: miter"/>
    </g>
    <g id="line2d_37">
     <path d="M 740.401563 39.978437 
L 750.401563 39.978437 
L 760.401563 39.978437 
" style="fill: none; stroke: #0000ff; stroke-width: 1.5; stroke-linecap: square"/>
    </g>
    <g id="text_19">
     <!-- No Noise -->
     <g transform="translate(768.401563 43.478437) scale(0.1 -0.1)">
      <defs>
       <path id="DejaVuSans-6f" d="M 1959 3097 
Q 1497 3097 1228 2736 
Q 959 2375 959 1747 
Q 959 1119 1226 758 
Q 1494 397 1959 397 
Q 2419 397 2687 759 
Q 2956 1122 2956 1747 
Q 2956 2369 2687 2733 
Q 2419 3097 1959 3097 
z
M 1959 3584 
Q 2709 3584 3137 3096 
Q 3566 2609 3566 1747 
Q 3566 888 3137 398 
Q 2709 -91 1959 -91 
Q 1206 -91 779 398 
Q 353 888 353 1747 
Q 353 2609 779 3096 
Q 1206 3584 1959 3584 
z
" transform="scale(0.015625)"/>
      </defs>
      <use xlink:href="#DejaVuSans-4e"/>
      <use xlink:href="#DejaVuSans-6f" transform="translate(74.804688 0)"/>
      <use xlink:href="#DejaVuSans-20" transform="translate(135.986328 0)"/>
      <use xlink:href="#DejaVuSans-4e" transform="translate(167.773438 0)"/>
      <use xlink:href="#DejaVuSans-6f" transform="translate(242.578125 0)"/>
      <use xlink:href="#DejaVuSans-69" transform="translate(303.759766 0)"/>
      <use xlink:href="#DejaVuSans-73" transform="translate(331.542969 0)"/>
      <use xlink:href="#DejaVuSans-65" transform="translate(383.642578 0)"/>
     </g>
    </g>
    <g id="line2d_38">
     <path d="M 740.401563 54.656562 
L 750.401563 54.656562 
L 760.401563 54.656562 
" style="fill: none; stroke-dasharray: 5.55,2.4; stroke-dashoffset: 0; stroke: #ff0000; stroke-width: 1.5"/>
    </g>
    <g id="text_20">
     <!-- With ARW/VRW -->
     <g transform="translate(768.401563 58.156562) scale(0.1 -0.1)">
      <defs>
       <path id="DejaVuSans-57" d="M 213 4666 
L 850 4666 
L 1831 722 
L 2809 4666 
L 3519 4666 
L 4500 722 
L 5478 4666 
L 6119 4666 
L 4947 0 
L 4153 0 
L 3169 4050 
L 2175 0 
L 1381 0 
L 213 4666 
z
" transform="scale(0.015625)"/>
       <path id="DejaVuSans-68" d="M 3513 2113 
L 3513 0 
L 2938 0 
L 2938 2094 
Q 2938 2591 2744 2837 
Q 2550 3084 2163 3084 
Q 1697 3084 1428 2787 
Q 1159 2491 1159 1978 
L 1159 0 
L 581 0 
L 581 4863 
L 1159 4863 
L 1159 2956 
Q 1366 3272 1645 3428 
Q 1925 3584 2291 3584 
Q 2894 3584 3203 3211 
Q 3513 2838 3513 2113 
z
" transform="scale(0.015625)"/>
       <path id="DejaVuSans-41" d="M 2188 4044 
L 1331 1722 
L 3047 1722 
L 2188 4044 
z
M 1831 4666 
L 2547 4666 
L 4325 0 
L 3669 0 
L 3244 1197 
L 1141 1197 
L 716 0 
L 50 0 
L 1831 4666 
z
" transform="scale(0.015625)"/>
       <path id="DejaVuSans-52" d="M 2841 2188 
Q 3044 2119 3236 1894 
Q 3428 1669 3622 1275 
L 4263 0 
L 3584 0 
L 2988 1197 
Q 2756 1666 2539 1819 
Q 2322 1972 1947 1972 
L 1259 1972 
L 1259 0 
L 628 0 
L 628 4666 
L 2053 4666 
Q 2853 4666 3247 4331 
Q 3641 3997 3641 3322 
Q 3641 2881 3436 2590 
Q 3231 2300 2841 2188 
z
M 1259 4147 
L 1259 2491 
L 2053 2491 
Q 2509 2491 2742 2702 
Q 2975 2913 2975 3322 
Q 2975 3731 2742 3939 
Q 2509 4147 2053 4147 
L 1259 4147 
z
" transform="scale(0.015625)"/>
       <path id="DejaVuSans-2f" d="M 1625 4666 
L 2156 4666 
L 531 -594 
L 0 -594 
L 1625 4666 
z
" transform="scale(0.015625)"/>
      </defs>
      <use xlink:href="#DejaVuSans-57"/>
      <use xlink:href="#DejaVuSans-69" transform="translate(96.626953 0)"/>
      <use xlink:href="#DejaVuSans-74" transform="translate(124.410156 0)"/>
      <use xlink:href="#DejaVuSans-68" transform="translate(163.619141 0)"/>
      <use xlink:href="#DejaVuSans-20" transform="translate(226.998047 0)"/>
      <use xlink:href="#DejaVuSans-41" transform="translate(258.785156 0)"/>
      <use xlink:href="#DejaVuSans-52" transform="translate(327.193359 0)"/>
      <use xlink:href="#DejaVuSans-57" transform="translate(392.675781 0)"/>
      <use xlink:href="#DejaVuSans-2f" transform="translate(491.552734 0)"/>
      <use xlink:href="#DejaVuSans-56" transform="translate(525.244141 0)"/>
      <use xlink:href="#DejaVuSans-52" transform="translate(593.652344 0)"/>
      <use xlink:href="#DejaVuSans-57" transform="translate(659.134766 0)"/>
     </g>
    </g>
   </g>
  </g>
  <g id="axes_2">
   <g id="patch_8">
    <path d="M 56.09 534.04 
L 853.2 534.04 
L 853.2 302.44 
L 56.09 302.44 
z
" style="fill: #ffffff"/>
   </g>
   <g id="matplotlib.axis_3">
    <g id="xtick_8">
     <g id="line2d_39">
      <path d="M 92.322273 534.04 
L 92.322273 302.44 
" clip-path="url(#p35c29b0f92)" style="fill: none; stroke: #b0b0b0; stroke-width: 0.8; stroke-linecap: square"/>
     </g>
     <g id="line2d_40">
      <g>
       <use xlink:href="#mb373dc98ad" x="92.322273" y="534.04" style="stroke: #000000; stroke-width: 0.8"/>
      </g>
     </g>
     <g id="text_21">
      <!-- 0 -->
      <g transform="translate(89.141023 548.638438) scale(0.1 -0.1)">
       <use xlink:href="#DejaVuSans-30"/>
      </g>
     </g>
    </g>
    <g id="xtick_9">
     <g id="line2d_41">
      <path d="M 215.519392 534.04 
L 215.519392 302.44 
" clip-path="url(#p35c29b0f92)" style="fill: none; stroke: #b0b0b0; stroke-width: 0.8; stroke-linecap: square"/>
     </g>
     <g id="line2d_42">
      <g>
       <use xlink:href="#mb373dc98ad" x="215.519392" y="534.04" style="stroke: #000000; stroke-width: 0.8"/>
      </g>
     </g>
     <g id="text_22">
      <!-- 50 -->
      <g transform="translate(209.156892 548.638438) scale(0.1 -0.1)">
       <use xlink:href="#DejaVuSans-35"/>
       <use xlink:href="#DejaVuSans-30" transform="translate(63.623047 0)"/>
      </g>
     </g>
    </g>
    <g id="xtick_10">
     <g id="line2d_43">
      <path d="M 338.716511 534.04 
L 338.716511 302.44 
" clip-path="url(#p35c29b0f92)" style="fill: none; stroke: #b0b0b0; stroke-width: 0.8; stroke-linecap: square"/>
     </g>
     <g id="line2d_44">
      <g>
       <use xlink:href="#mb373dc98ad" x="338.716511" y="534.04" style="stroke: #000000; stroke-width: 0.8"/>
      </g>
     </g>
     <g id="text_23">
      <!-- 100 -->
      <g transform="translate(329.172761 548.638438) scale(0.1 -0.1)">
       <use xlink:href="#DejaVuSans-31"/>
       <use xlink:href="#DejaVuSans-30" transform="translate(63.623047 0)"/>
       <use xlink:href="#DejaVuSans-30" transform="translate(127.246094 0)"/>
      </g>
     </g>
    </g>
    <g id="xtick_11">
     <g id="line2d_45">
      <path d="M 461.91363 534.04 
L 461.91363 302.44 
" clip-path="url(#p35c29b0f92)" style="fill: none; stroke: #b0b0b0; stroke-width: 0.8; stroke-linecap: square"/>
     </g>
     <g id="line2d_46">
      <g>
       <use xlink:href="#mb373dc98ad" x="461.91363" y="534.04" style="stroke: #000000; stroke-width: 0.8"/>
      </g>
     </g>
     <g id="text_24">
      <!-- 150 -->
      <g transform="translate(452.36988 548.638438) scale(0.1 -0.1)">
       <use xlink:href="#DejaVuSans-31"/>
       <use xlink:href="#DejaVuSans-35" transform="translate(63.623047 0)"/>
       <use xlink:href="#DejaVuSans-30" transform="translate(127.246094 0)"/>
      </g>
     </g>
    </g>
    <g id="xtick_12">
     <g id="line2d_47">
      <path d="M 585.110749 534.04 
L 585.110749 302.44 
" clip-path="url(#p35c29b0f92)" style="fill: none; stroke: #b0b0b0; stroke-width: 0.8; stroke-linecap: square"/>
     </g>
     <g id="line2d_48">
      <g>
       <use xlink:href="#mb373dc98ad" x="585.110749" y="534.04" style="stroke: #000000; stroke-width: 0.8"/>
      </g>
     </g>
     <g id="text_25">
      <!-- 200 -->
      <g transform="translate(575.566999 548.638438) scale(0.1 -0.1)">
       <use xlink:href="#DejaVuSans-32"/>
       <use xlink:href="#DejaVuSans-30" transform="translate(63.623047 0)"/>
       <use xlink:href="#DejaVuSans-30" transform="translate(127.246094 0)"/>
      </g>
     </g>
    </g>
    <g id="xtick_13">
     <g id="line2d_49">
      <path d="M 708.307868 534.04 
L 708.307868 302.44 
" clip-path="url(#p35c29b0f92)" style="fill: none; stroke: #b0b0b0; stroke-width: 0.8; stroke-linecap: square"/>
     </g>
     <g id="line2d_50">
      <g>
       <use xlink:href="#mb373dc98ad" x="708.307868" y="534.04" style="stroke: #000000; stroke-width: 0.8"/>
      </g>
     </g>
     <g id="text_26">
      <!-- 250 -->
      <g transform="translate(698.764118 548.638438) scale(0.1 -0.1)">
       <use xlink:href="#DejaVuSans-32"/>
       <use xlink:href="#DejaVuSans-35" transform="translate(63.623047 0)"/>
       <use xlink:href="#DejaVuSans-30" transform="translate(127.246094 0)"/>
      </g>
     </g>
    </g>
    <g id="xtick_14">
     <g id="line2d_51">
      <path d="M 831.504987 534.04 
L 831.504987 302.44 
" clip-path="url(#p35c29b0f92)" style="fill: none; stroke: #b0b0b0; stroke-width: 0.8; stroke-linecap: square"/>
     </g>
     <g id="line2d_52">
      <g>
       <use xlink:href="#mb373dc98ad" x="831.504987" y="534.04" style="stroke: #000000; stroke-width: 0.8"/>
      </g>
     </g>
     <g id="text_27">
      <!-- 300 -->
      <g transform="translate(821.961237 548.638438) scale(0.1 -0.1)">
       <use xlink:href="#DejaVuSans-33"/>
       <use xlink:href="#DejaVuSans-30" transform="translate(63.623047 0)"/>
       <use xlink:href="#DejaVuSans-30" transform="translate(127.246094 0)"/>
      </g>
     </g>
    </g>
    <g id="text_28">
     <!-- Time (s) -->
     <g transform="translate(434.316094 562.316562) scale(0.1 -0.1)">
      <defs>
       <path id="DejaVuSans-54" d="M -19 4666 
L 3928 4666 
L 3928 4134 
L 2272 4134 
L 2272 0 
L 1638 0 
L 1638 4134 
L -19 4134 
L -19 4666 
z
" transform="scale(0.015625)"/>
       <path id="DejaVuSans-6d" d="M 3328 2828 
Q 3544 3216 3844 3400 
Q 4144 3584 4550 3584 
Q 5097 3584 5394 3201 
Q 5691 2819 5691 2113 
L 5691 0 
L 5113 0 
L 5113 2094 
Q 5113 2597 4934 2840 
Q 4756 3084 4391 3084 
Q 3944 3084 3684 2787 
Q 3425 2491 3425 1978 
L 3425 0 
L 2847 0 
L 2847 2094 
Q 2847 2600 2669 2842 
Q 2491 3084 2119 3084 
Q 1678 3084 1418 2786 
Q 1159 2488 1159 1978 
L 1159 0 
L 581 0 
L 581 3500 
L 1159 3500 
L 1159 2956 
Q 1356 3278 1631 3431 
Q 1906 3584 2284 3584 
Q 2666 3584 2933 3390 
Q 3200 3197 3328 2828 
z
" transform="scale(0.015625)"/>
      </defs>
      <use xlink:href="#DejaVuSans-54"/>
      <use xlink:href="#DejaVuSans-69" transform="translate(57.958984 0)"/>
      <use xlink:href="#DejaVuSans-6d" transform="translate(85.742188 0)"/>
      <use xlink:href="#DejaVuSans-65" transform="translate(183.154297 0)"/>
      <use xlink:href="#DejaVuSans-20" transform="translate(244.677734 0)"/>
      <use xlink:href="#DejaVuSans-28" transform="translate(276.464844 0)"/>
      <use xlink:href="#DejaVuSans-73" transform="translate(315.478516 0)"/>
      <use xlink:href="#DejaVuSans-29" transform="translate(367.578125 0)"/>
     </g>
    </g>
   </g>
   <g id="matplotlib.axis_4">
    <g id="ytick_10">
     <g id="line2d_53">
      <path d="M 56.09 527.31134 
L 853.2 527.31134 
" clip-path="url(#p35c29b0f92)" style="fill: none; stroke: #b0b0b0; stroke-width: 0.8; stroke-linecap: square"/>
     </g>
     <g id="line2d_54">
      <g>
       <use xlink:href="#ma59354c694" x="56.09" y="527.31134" style="stroke: #000000; stroke-width: 0.8"/>
      </g>
     </g>
     <g id="text_29">
      <!-- −2.0 -->
      <g transform="translate(24.807187 531.110558) scale(0.1 -0.1)">
       <defs>
        <path id="DejaVuSans-2212" d="M 678 2272 
L 4684 2272 
L 4684 1741 
L 678 1741 
L 678 2272 
z
" transform="scale(0.015625)"/>
       </defs>
       <use xlink:href="#DejaVuSans-2212"/>
       <use xlink:href="#DejaVuSans-32" transform="translate(83.789062 0)"/>
       <use xlink:href="#DejaVuSans-2e" transform="translate(147.412109 0)"/>
       <use xlink:href="#DejaVuSans-30" transform="translate(179.199219 0)"/>
      </g>
     </g>
    </g>
    <g id="ytick_11">
     <g id="line2d_55">
      <path d="M 56.09 494.846477 
L 853.2 494.846477 
" clip-path="url(#p35c29b0f92)" style="fill: none; stroke: #b0b0b0; stroke-width: 0.8; stroke-linecap: square"/>
     </g>
     <g id="line2d_56">
      <g>
       <use xlink:href="#ma59354c694" x="56.09" y="494.846477" style="stroke: #000000; stroke-width: 0.8"/>
      </g>
     </g>
     <g id="text_30">
      <!-- −1.5 -->
      <g transform="translate(24.807187 498.645696) scale(0.1 -0.1)">
       <use xlink:href="#DejaVuSans-2212"/>
       <use xlink:href="#DejaVuSans-31" transform="translate(83.789062 0)"/>
       <use xlink:href="#DejaVuSans-2e" transform="translate(147.412109 0)"/>
       <use xlink:href="#DejaVuSans-35" transform="translate(179.199219 0)"/>
      </g>
     </g>
    </g>
    <g id="ytick_12">
     <g id="line2d_57">
      <path d="M 56.09 462.381615 
L 853.2 462.381615 
" clip-path="url(#p35c29b0f92)" style="fill: none; stroke: #b0b0b0; stroke-width: 0.8; stroke-linecap: square"/>
     </g>
     <g id="line2d_58">
      <g>
       <use xlink:href="#ma59354c694" x="56.09" y="462.381615" style="stroke: #000000; stroke-width: 0.8"/>
      </g>
     </g>
     <g id="text_31">
      <!-- −1.0 -->
      <g transform="translate(24.807187 466.180834) scale(0.1 -0.1)">
       <use xlink:href="#DejaVuSans-2212"/>
       <use xlink:href="#DejaVuSans-31" transform="translate(83.789062 0)"/>
       <use xlink:href="#DejaVuSans-2e" transform="translate(147.412109 0)"/>
       <use xlink:href="#DejaVuSans-30" transform="translate(179.199219 0)"/>
      </g>
     </g>
    </g>
    <g id="ytick_13">
     <g id="line2d_59">
      <path d="M 56.09 429.916753 
L 853.2 429.916753 
" clip-path="url(#p35c29b0f92)" style="fill: none; stroke: #b0b0b0; stroke-width: 0.8; stroke-linecap: square"/>
     </g>
     <g id="line2d_60">
      <g>
       <use xlink:href="#ma59354c694" x="56.09" y="429.916753" style="stroke: #000000; stroke-width: 0.8"/>
      </g>
     </g>
     <g id="text_32">
      <!-- −0.5 -->
      <g transform="translate(24.807187 433.715971) scale(0.1 -0.1)">
       <use xlink:href="#DejaVuSans-2212"/>
       <use xlink:href="#DejaVuSans-30" transform="translate(83.789062 0)"/>
       <use xlink:href="#DejaVuSans-2e" transform="translate(147.412109 0)"/>
       <use xlink:href="#DejaVuSans-35" transform="translate(179.199219 0)"/>
      </g>
     </g>
    </g>
    <g id="ytick_14">
     <g id="line2d_61">
      <path d="M 56.09 397.45189 
L 853.2 397.45189 
" clip-path="url(#p35c29b0f92)" style="fill: none; stroke: #b0b0b0; stroke-width: 0.8; stroke-linecap: square"/>
     </g>
     <g id="line2d_62">
      <g>
       <use xlink:href="#ma59354c694" x="56.09" y="397.45189" style="stroke: #000000; stroke-width: 0.8"/>
      </g>
     </g>
     <g id="text_33">
      <!-- 0.0 -->
      <g transform="translate(33.186875 401.251109) scale(0.1 -0.1)">
       <use xlink:href="#DejaVuSans-30"/>
       <use xlink:href="#DejaVuSans-2e" transform="translate(63.623047 0)"/>
       <use xlink:href="#DejaVuSans-30" transform="translate(95.410156 0)"/>
      </g>
     </g>
    </g>
    <g id="ytick_15">
     <g id="line2d_63">
      <path d="M 56.09 364.987028 
L 853.2 364.987028 
" clip-path="url(#p35c29b0f92)" style="fill: none; stroke: #b0b0b0; stroke-width: 0.8; stroke-linecap: square"/>
     </g>
     <g id="line2d_64">
      <g>
       <use xlink:href="#ma59354c694" x="56.09" y="364.987028" style="stroke: #000000; stroke-width: 0.8"/>
      </g>
     </g>
     <g id="text_34">
      <!-- 0.5 -->
      <g transform="translate(33.186875 368.786247) scale(0.1 -0.1)">
       <use xlink:href="#DejaVuSans-30"/>
       <use xlink:href="#DejaVuSans-2e" transform="translate(63.623047 0)"/>
       <use xlink:href="#DejaVuSans-35" transform="translate(95.410156 0)"/>
      </g>
     </g>
    </g>
    <g id="ytick_16">
     <g id="line2d_65">
      <path d="M 56.09 332.522165 
L 853.2 332.522165 
" clip-path="url(#p35c29b0f92)" style="fill: none; stroke: #b0b0b0; stroke-width: 0.8; stroke-linecap: square"/>
     </g>
     <g id="line2d_66">
      <g>
       <use xlink:href="#ma59354c694" x="56.09" y="332.522165" style="stroke: #000000; stroke-width: 0.8"/>
      </g>
     </g>
     <g id="text_35">
      <!-- 1.0 -->
      <g transform="translate(33.186875 336.321384) scale(0.1 -0.1)">
       <use xlink:href="#DejaVuSans-31"/>
       <use xlink:href="#DejaVuSans-2e" transform="translate(63.623047 0)"/>
       <use xlink:href="#DejaVuSans-30" transform="translate(95.410156 0)"/>
      </g>
     </g>
    </g>
    <g id="text_36">
     <!-- Estimated Value -->
     <g transform="translate(18.7275 458.818906) rotate(-90) scale(0.1 -0.1)">
      <defs>
       <path id="DejaVuSans-45" d="M 628 4666 
L 3578 4666 
L 3578 4134 
L 1259 4134 
L 1259 2753 
L 3481 2753 
L 3481 2222 
L 1259 2222 
L 1259 531 
L 3634 531 
L 3634 0 
L 628 0 
L 628 4666 
z
" transform="scale(0.015625)"/>
       <path id="DejaVuSans-6c" d="M 603 4863 
L 1178 4863 
L 1178 0 
L 603 0 
L 603 4863 
z
" transform="scale(0.015625)"/>
       <path id="DejaVuSans-75" d="M 544 1381 
L 544 3500 
L 1119 3500 
L 1119 1403 
Q 1119 906 1312 657 
Q 1506 409 1894 409 
Q 2359 409 2629 706 
Q 2900 1003 2900 1516 
L 2900 3500 
L 3475 3500 
L 3475 0 
L 2900 0 
L 2900 538 
Q 2691 219 2414 64 
Q 2138 -91 1772 -91 
Q 1169 -91 856 284 
Q 544 659 544 1381 
z
M 1991 3584 
L 1991 3584 
z
" transform="scale(0.015625)"/>
      </defs>
      <use xlink:href="#DejaVuSans-45"/>
      <use xlink:href="#DejaVuSans-73" transform="translate(63.183594 0)"/>
      <use xlink:href="#DejaVuSans-74" transform="translate(115.283203 0)"/>
      <use xlink:href="#DejaVuSans-69" transform="translate(154.492188 0)"/>
      <use xlink:href="#DejaVuSans-6d" transform="translate(182.275391 0)"/>
      <use xlink:href="#DejaVuSans-61" transform="translate(279.6875 0)"/>
      <use xlink:href="#DejaVuSans-74" transform="translate(340.966797 0)"/>
      <use xlink:href="#DejaVuSans-65" transform="translate(380.175781 0)"/>
      <use xlink:href="#DejaVuSans-64" transform="translate(441.699219 0)"/>
      <use xlink:href="#DejaVuSans-20" transform="translate(505.175781 0)"/>
      <use xlink:href="#DejaVuSans-56" transform="translate(536.962891 0)"/>
      <use xlink:href="#DejaVuSans-61" transform="translate(597.621094 0)"/>
      <use xlink:href="#DejaVuSans-6c" transform="translate(658.900391 0)"/>
      <use xlink:href="#DejaVuSans-75" transform="translate(686.683594 0)"/>
      <use xlink:href="#DejaVuSans-65" transform="translate(750.0625 0)"/>
     </g>
    </g>
   </g>
   <g id="line2d_67">
    <path d="M 92.322273 397.45189 
L 110.40761 397.341791 
L 111.738139 397.132878 
L 111.885975 391.873379 
L 120.756168 384.455273 
L 133.716505 373.565304 
L 134.751361 370.177037 
L 136.525399 364.198622 
L 145.789822 348.06387 
L 147.416024 342.206122 
L 148.155207 340.229257 
L 148.204486 340.211369 
L 148.352322 339.899555 
L 157.764582 334.707019 
L 157.86314 334.460057 
L 157.912419 334.507532 
L 158.848717 335.700142 
L 159.637179 336.320221 
L 160.080688 336.461489 
L 162.889583 331.587029 
L 169.936458 319.487161 
L 170.971314 320.08009 
L 171.661217 320.740373 
L 172.055448 321.242492 
L 172.104727 321.175847 
L 172.301842 320.841514 
L 181.911218 312.967273 
L 184.37516 317.681659 
L 196.497757 317.967985 
L 196.645593 319.958958 
L 205.072276 331.872683 
L 206.156411 333.316735 
L 207.536219 332.16533 
L 208.226122 331.269914 
L 208.373959 331.152029 
L 208.571074 331.295937 
L 208.718911 331.83935 
L 216.110738 338.186837 
L 218.131171 339.92812 
L 218.525402 338.725587 
L 219.85593 335.82875 
L 220.496555 334.612783 
L 222.122757 334.486222 
L 228.233335 334.199651 
L 230.303046 334.034354 
L 231.879969 330.287641 
L 232.471315 328.708499 
L 232.619152 328.241627 
L 233.801844 328.057766 
L 240.257373 326.801587 
L 242.277806 326.414126 
L 242.376364 325.931041 
L 242.425643 325.991825 
L 244.593912 330.579109 
L 244.791027 330.571003 
L 244.938864 330.775138 
L 249.866749 331.157571 
L 254.400403 331.657901 
L 255.090306 333.277875 
L 256.568672 337.024076 
L 256.617951 336.914559 
L 256.716508 336.646214 
L 256.765787 336.690154 
L 257.06146 337.146014 
L 263.91122 344.901404 
L 266.424441 347.849428 
L 266.769393 349.457432 
L 267.804249 353.13433 
L 268.986942 357.285415 
L 279.680451 376.935005 
L 281.01098 379.574834 
L 281.060259 379.089807 
L 281.109538 379.164002 
L 284.411221 384.407798 
L 288.994154 392.05331 
L 291.408817 395.992742 
L 292.098721 396.620911 
L 292.788625 396.95255 
L 293.724923 397.354302 
L 297.71651 399.160561 
L 301.757375 401.235114 
L 303.531414 402.326999 
L 304.221318 403.136421 
L 304.9605 404.380827 
L 305.108337 404.65885 
L 305.256173 405.312149 
L 311.662424 418.497469 
L 315.65401 427.218403 
L 317.181655 431.060244 
L 317.37877 431.982377 
L 328.023001 458.883389 
L 328.860741 460.243276 
L 332.556655 464.938994 
L 333.837905 466.493421 
L 333.985742 397.451786 
L 371.68406 397.53543 
L 386.172041 397.509707 
L 401.842715 397.331247 
L 402.532619 397.318788 
L 421.504975 397.334943 
L 469.059063 397.784045 
L 482.709304 397.919717 
L 492.318679 398.103977 
L 527.454497 399.028298 
L 534.994161 399.545227 
L 542.385988 400.258918 
L 549.285027 401.136149 
L 558.746566 402.554544 
L 558.894402 402.659856 
L 570.327095 404.488972 
L 574.663633 405.216047 
L 575.402816 405.334323 
L 575.550653 397.451816 
L 749.554264 397.254182 
L 757.83311 397.240627 
L 778.825899 397.296862 
L 794.447294 397.586834 
L 816.967727 398.214328 
L 816.967727 398.214328 
" clip-path="url(#p35c29b0f92)" style="fill: none; stroke: #0000ff; stroke-width: 1.5; stroke-linecap: square"/>
   </g>
   <g id="line2d_68">
    <path d="M 92.322273 397.45618 
L 101.43886 397.413748 
L 103.311456 397.42207 
L 106.613139 397.370971 
L 111.738139 397.003973 
L 111.885975 391.767685 
L 119.129966 385.426796 
L 125.585495 379.727189 
L 132.63237 373.602105 
L 133.716505 372.525963 
L 134.702082 369.319893 
L 136.131168 364.50674 
L 136.279005 363.469712 
L 140.664822 355.741521 
L 145.789822 346.701149 
L 147.465303 340.610259 
L 148.204486 338.648821 
L 148.401601 338.474603 
L 155.645592 334.509285 
L 157.764582 333.377353 
L 157.86314 333.101577 
L 157.912419 333.145695 
L 158.848717 334.319329 
L 159.637179 334.916873 
L 160.080688 335.047042 
L 168.507371 321.174777 
L 169.936458 318.953797 
L 170.971314 319.638694 
L 171.661217 320.36504 
L 172.055448 320.904128 
L 172.104727 320.831415 
L 172.301842 320.496044 
L 175.307852 318.406291 
L 181.911218 314.00027 
L 184.227324 319.161593 
L 185.015785 319.309769 
L 190.78141 320.657821 
L 194.871555 321.63264 
L 196.497757 321.997445 
L 196.645593 324.106269 
L 202.066266 333.139814 
L 206.20569 340.065883 
L 207.782613 339.170416 
L 208.423238 338.691363 
L 208.571074 338.848762 
L 208.718911 339.324535 
L 210.788622 341.600654 
L 215.470113 346.818369 
L 218.131171 349.856882 
L 218.525402 348.774655 
L 219.708094 346.557502 
L 220.496555 345.234228 
L 222.911219 345.760679 
L 225.42444 346.399031 
L 230.352325 347.617744 
L 232.422037 343.355513 
L 232.619152 342.608062 
L 234.984537 342.794013 
L 239.074681 343.233836 
L 242.277806 343.698231 
L 242.376364 343.219543 
L 242.425643 343.292969 
L 244.643191 348.622709 
L 244.791027 348.66893 
L 244.938864 349.060765 
L 248.881172 350.894586 
L 251.246556 352.158043 
L 254.203287 353.784955 
L 254.449681 354.037856 
L 256.470114 359.958067 
L 256.568672 360.240025 
L 256.617951 360.144318 
L 256.66723 359.884957 
L 256.716508 359.905788 
L 256.864345 360.115003 
L 257.06146 360.615264 
L 263.418432 370.764022 
L 266.424441 375.70987 
L 266.818672 377.69106 
L 267.902807 382.1638 
L 268.937663 386.324402 
L 268.986942 386.305652 
L 273.717711 396.981573 
L 279.089105 409.419303 
L 281.01098 414.544952 
L 281.060259 413.668004 
L 281.158817 413.864205 
L 284.904009 421.665024 
L 291.803048 436.083828 
L 292.542231 436.903418 
L 295.301846 439.18438 
L 297.273 440.899473 
L 303.186462 446.415098 
L 303.925644 447.434838 
L 304.714106 448.939863 
L 305.108337 449.864995 
L 305.305452 450.616658 
L 309.444875 460.855923 
L 316.541029 479.301001 
L 317.181655 481.149798 
L 317.37877 482.160663 
L 326.544636 509.351218 
L 327.973722 513.311355 
L 328.860741 515.132964 
L 333.837905 523.512727 
L 333.887184 397.456186 
L 333.985742 397.456965 
L 335.414828 397.45156 
L 339.357136 397.41677 
L 352.662425 397.292466 
L 365.179252 397.539989 
L 367.889589 397.564174 
L 385.482137 398.071838 
L 389.030214 398.1804 
L 389.769397 398.148697 
L 389.917234 398.315462 
L 392.824686 398.498184 
L 401.645599 399.203597 
L 401.842715 399.21344 
L 401.990551 399.361383 
L 407.460503 400.066122 
L 411.45209 400.641288 
L 417.119158 401.546509 
L 438.506177 405.833628 
L 440.920841 406.384669 
L 443.877572 407.061944 
L 449.840312 408.690079 
L 450.135985 408.785651 
L 450.283822 408.676797 
L 451.910024 409.045865 
L 461.322284 411.284381 
L 472.114351 414.214153 
L 480.984544 416.751612 
L 486.355938 418.410318 
L 486.503775 418.636843 
L 491.875169 420.522272 
L 501.68166 424.44933 
L 510.404016 428.228046 
L 510.502574 428.274746 
L 510.551853 428.104012 
L 510.65041 428.137754 
L 514.247766 429.483568 
L 521.146805 432.357442 
L 522.526613 433.306631 
L 522.575891 433.342886 
L 522.62517 432.821264 
L 522.723728 432.861765 
L 527.651613 435.052451 
L 532.776613 437.43098 
L 536.965315 439.405116 
L 541.794642 441.78049 
L 551.059065 446.726367 
L 554.065075 448.367927 
L 558.500171 450.747698 
L 558.746566 450.883478 
L 558.894402 451.108281 
L 564.709306 454.437042 
L 568.898008 456.858159 
L 573.431662 459.498467 
L 575.402816 460.76828 
L 575.452095 397.456203 
L 575.550653 397.457026 
L 576.979739 397.451965 
L 580.922047 397.417649 
L 592.551855 397.321061 
L 594.867961 397.760095 
L 595.015798 397.377311 
L 607.138394 397.46138 
L 611.819885 397.521365 
L 614.825894 397.539713 
L 623.055462 397.726405 
L 630.792241 398.073569 
L 631.334308 397.999611 
L 631.482145 398.264014 
L 634.340318 398.476974 
L 637.740558 398.794498 
L 639.760991 399.027232 
L 642.471328 399.255395 
L 643.407626 399.308038 
L 643.555462 399.448274 
L 649.419645 400.243447 
L 656.318684 401.250428 
L 659.47253 401.760672 
L 661.591521 402.129973 
L 666.026617 402.998091 
L 674.601136 404.638215 
L 677.410031 405.163592 
L 677.705704 404.87878 
L 678.099935 404.139278 
L 678.691281 402.456356 
L 679.627579 399.303356 
L 679.775415 405.708723 
L 684.801858 406.799992 
L 689.8283 407.97044 
L 690.222531 407.768541 
L 690.616762 407.28915 
L 691.158829 406.224282 
L 691.700897 405.129994 
L 691.848733 408.504149 
L 693.376377 408.815826 
L 695.988156 409.296386 
L 698.698493 409.88806 
L 702.443685 410.944898 
L 703.429262 411.274012 
L 703.774214 411.302308 
L 703.823493 411.046492 
L 703.922051 411.067301 
L 707.765801 412.022791 
L 714.66484 413.661379 
L 715.847532 413.584203 
L 715.995368 414.089727 
L 720.873974 415.458427 
L 727.92085 417.45399 
L 728.068686 417.69791 
L 733.440081 419.410592 
L 744.330706 423.389955 
L 748.075898 424.833526 
L 750.58912 425.802468 
L 752.067485 426.432169 
L 752.215321 426.32123 
L 755.763399 427.544471 
L 763.253783 430.3688 
L 764.140803 430.7692 
L 764.190081 430.624737 
L 764.288639 430.663238 
L 776.21412 435.333541 
L 776.411236 435.470485 
L 784.443688 438.717303 
L 790.554265 441.302602 
L 794.003784 442.866236 
L 800.311477 445.423915 
L 800.459313 445.660512 
L 804.795852 447.591911 
L 812.680468 451.155327 
L 814.602343 452.063927 
L 816.967727 453.296106 
L 816.967727 453.296106 
" clip-path="url(#p35c29b0f92)" style="fill: none; stroke-dasharray: 5.55,2.4; stroke-dashoffset: 0; stroke: #ff0000; stroke-width: 1.5"/>
   </g>
   <g id="line2d_69">
    <path d="M 333.887184 534.04 
L 333.887184 302.44 
" clip-path="url(#p35c29b0f92)" style="fill: none; stroke-dasharray: 1.5,2.475; stroke-dashoffset: 0; stroke: #808080; stroke-opacity: 0.6; stroke-width: 1.5"/>
   </g>
   <g id="line2d_70">
    <path d="M 575.452095 534.04 
L 575.452095 302.44 
" clip-path="url(#p35c29b0f92)" style="fill: none; stroke-dasharray: 1.5,2.475; stroke-dashoffset: 0; stroke: #808080; stroke-opacity: 0.6; stroke-width: 1.5"/>
   </g>
   <g id="patch_9">
    <path d="M 56.09 534.04 
L 56.09 302.44 
" style="fill: none; stroke: #000000; stroke-width: 0.8; stroke-linejoin: miter; stroke-linecap: square"/>
   </g>
   <g id="patch_10">
    <path d="M 853.2 534.04 
L 853.2 302.44 
" style="fill: none; stroke: #000000; stroke-width: 0.8; stroke-linejoin: miter; stroke-linecap: square"/>
   </g>
   <g id="patch_11">
    <path d="M 56.09 534.04 
L 853.2 534.04 
" style="fill: none; stroke: #000000; stroke-width: 0.8; stroke-linejoin: miter; stroke-linecap: square"/>
   </g>
   <g id="patch_12">
    <path d="M 56.09 302.44 
L 853.2 302.44 
" style="fill: none; stroke: #000000; stroke-width: 0.8; stroke-linejoin: miter; stroke-linecap: square"/>
   </g>
   <g id="text_37">
    <!-- [04] dVN  —  State Estimate -->
    <g transform="translate(370.10125 296.44) scale(0.12 -0.12)">
     <use xlink:href="#DejaVuSans-5b"/>
     <use xlink:href="#DejaVuSans-30" transform="translate(39.013672 0)"/>
     <use xlink:href="#DejaVuSans-34" transform="translate(102.636719 0)"/>
     <use xlink:href="#DejaVuSans-5d" transform="translate(166.259766 0)"/>
     <use xlink:href="#DejaVuSans-20" transform="translate(205.273438 0)"/>
     <use xlink:href="#DejaVuSans-64" transform="translate(237.060547 0)"/>
     <use xlink:href="#DejaVuSans-56" transform="translate(300.537109 0)"/>
     <use xlink:href="#DejaVuSans-4e" transform="translate(368.945312 0)"/>
     <use xlink:href="#DejaVuSans-20" transform="translate(443.75 0)"/>
     <use xlink:href="#DejaVuSans-20" transform="translate(475.537109 0)"/>
     <use xlink:href="#DejaVuSans-2014" transform="translate(507.324219 0)"/>
     <use xlink:href="#DejaVuSans-20" transform="translate(607.324219 0)"/>
     <use xlink:href="#DejaVuSans-20" transform="translate(639.111328 0)"/>
     <use xlink:href="#DejaVuSans-53" transform="translate(670.898438 0)"/>
     <use xlink:href="#DejaVuSans-74" transform="translate(734.375 0)"/>
     <use xlink:href="#DejaVuSans-61" transform="translate(773.583984 0)"/>
     <use xlink:href="#DejaVuSans-74" transform="translate(834.863281 0)"/>
     <use xlink:href="#DejaVuSans-65" transform="translate(874.072266 0)"/>
     <use xlink:href="#DejaVuSans-20" transform="translate(935.595703 0)"/>
     <use xlink:href="#DejaVuSans-45" transform="translate(967.382812 0)"/>
     <use xlink:href="#DejaVuSans-73" transform="translate(1030.566406 0)"/>
     <use xlink:href="#DejaVuSans-74" transform="translate(1082.666016 0)"/>
     <use xlink:href="#DejaVuSans-69" transform="translate(1121.875 0)"/>
     <use xlink:href="#DejaVuSans-6d" transform="translate(1149.658203 0)"/>
     <use xlink:href="#DejaVuSans-61" transform="translate(1247.070312 0)"/>
     <use xlink:href="#DejaVuSans-74" transform="translate(1308.349609 0)"/>
     <use xlink:href="#DejaVuSans-65" transform="translate(1347.558594 0)"/>
    </g>
   </g>
   <g id="legend_2">
    <g id="patch_13">
     <path d="M 738.401563 339.79625 
L 846.2 339.79625 
Q 848.2 339.79625 848.2 337.79625 
L 848.2 309.44 
Q 848.2 307.44 846.2 307.44 
L 738.401563 307.44 
Q 736.401563 307.44 736.401563 309.44 
L 736.401563 337.79625 
Q 736.401563 339.79625 738.401563 339.79625 
z
" style="fill: #ffffff; opacity: 0.8; stroke: #cccccc; stroke-linejoin: miter"/>
    </g>
    <g id="line2d_71">
     <path d="M 740.401563 315.538437 
L 750.401563 315.538437 
L 760.401563 315.538437 
" style="fill: none; stroke: #0000ff; stroke-width: 1.5; stroke-linecap: square"/>
    </g>
    <g id="text_38">
     <!-- No Noise -->
     <g transform="translate(768.401563 319.038437) scale(0.1 -0.1)">
      <use xlink:href="#DejaVuSans-4e"/>
      <use xlink:href="#DejaVuSans-6f" transform="translate(74.804688 0)"/>
      <use xlink:href="#DejaVuSans-20" transform="translate(135.986328 0)"/>
      <use xlink:href="#DejaVuSans-4e" transform="translate(167.773438 0)"/>
      <use xlink:href="#DejaVuSans-6f" transform="translate(242.578125 0)"/>
      <use xlink:href="#DejaVuSans-69" transform="translate(303.759766 0)"/>
      <use xlink:href="#DejaVuSans-73" transform="translate(331.542969 0)"/>
      <use xlink:href="#DejaVuSans-65" transform="translate(383.642578 0)"/>
     </g>
    </g>
    <g id="line2d_72">
     <path d="M 740.401563 330.216562 
L 750.401563 330.216562 
L 760.401563 330.216562 
" style="fill: none; stroke-dasharray: 5.55,2.4; stroke-dashoffset: 0; stroke: #ff0000; stroke-width: 1.5"/>
    </g>
    <g id="text_39">
     <!-- With ARW/VRW -->
     <g transform="translate(768.401563 333.716562) scale(0.1 -0.1)">
      <use xlink:href="#DejaVuSans-57"/>
      <use xlink:href="#DejaVuSans-69" transform="translate(96.626953 0)"/>
      <use xlink:href="#DejaVuSans-74" transform="translate(124.410156 0)"/>
      <use xlink:href="#DejaVuSans-68" transform="translate(163.619141 0)"/>
      <use xlink:href="#DejaVuSans-20" transform="translate(226.998047 0)"/>
      <use xlink:href="#DejaVuSans-41" transform="translate(258.785156 0)"/>
      <use xlink:href="#DejaVuSans-52" transform="translate(327.193359 0)"/>
      <use xlink:href="#DejaVuSans-57" transform="translate(392.675781 0)"/>
      <use xlink:href="#DejaVuSans-2f" transform="translate(491.552734 0)"/>
      <use xlink:href="#DejaVuSans-56" transform="translate(525.244141 0)"/>
      <use xlink:href="#DejaVuSans-52" transform="translate(593.652344 0)"/>
      <use xlink:href="#DejaVuSans-57" transform="translate(659.134766 0)"/>
     </g>
    </g>
   </g>
  </g>
 </g>
 <defs>
  <clipPath id="p236c6821f8">
   <rect x="56.09" y="26.88" width="797.11" height="231.6"/>
  </clipPath>
  <clipPath id="p35c29b0f92">
   <rect x="56.09" y="302.44" width="797.11" height="231.6"/>
  </clipPath>
 </defs>
</svg>
