<?xml version="1.0" encoding="utf-8" standalone="no"?>
<!DOCTYPE svg PUBLIC "-//W3C//DTD SVG 1.1//EN"
  "http://www.w3.org/Graphics/SVG/1.1/DTD/svg11.dtd">
<svg xmlns:xlink="http://www.w3.org/1999/xlink" width="864pt" height="576pt" viewBox="0 0 864 576" xmlns="http://www.w3.org/2000/svg" version="1.1">
 <metadata>
  <rdf:RDF xmlns:dc="http://purl.org/dc/elements/1.1/" xmlns:cc="http://creativecommons.org/ns#" xmlns:rdf="http://www.w3.org/1999/02/22-rdf-syntax-ns#">
   <cc:Work>
    <dc:type rdf:resource="http://purl.org/dc/dcmitype/StillImage"/>
    <dc:date>2026-03-03T11:38:06.230335</dc:date>
    <dc:format>image/svg+xml</dc:format>
    <dc:creator>
     <cc:Agent>
      <dc:title>Matplotlib v3.10.8, https://matplotlib.org/</dc:title>
     </cc:Agent>
    </dc:creator>
   </cc:Work>
  </rdf:RDF>
 </metadata>
 <defs>
  <style type="text/css">*{stroke-linejoin: round; stroke-linecap: butt}</style>
 </defs>
 <g id="figure_1">
  <g id="patch_1">
   <path d="M 0 576 
L 864 576 
L 864 0 
L 0 0 
z
" style="fill: #ffffff"/>
  </g>
  <g id="axes_1">
   <g id="patch_2">
    <path d="M 56.09 258.48 
L 853.2 258.48 
L 853.2 26.88 
L 56.09 26.88 
z
" style="fill: #ffffff"/>
   </g>
   <g id="matplotlib.axis_1">
    <g id="xtick_1">
     <g id="line2d_1">
      <path d="M 92.322273 258.48 
L 92.322273 26.88 
" clip-path="url(#p4f092070b5)" style="fill: none; stroke: #b0b0b0; stroke-width: 0.8; stroke-linecap: square"/>
     </g>
     <g id="line2d_2">
      <defs>
       <path id="m0be4a802dd" d="M 0 0 
L 0 3.5 
" style="stroke: #000000; stroke-width: 0.8"/>
      </defs>
      <g>
       <use xlink:href="#m0be4a802dd" x="92.322273" y="258.48" style="stroke: #000000; stroke-width: 0.8"/>
      </g>
     </g>
     <g id="text_1">
      <!-- 0 -->
      <g transform="translate(89.141023 273.078438) scale(0.1 -0.1)">
       <defs>
        <path id="DejaVuSans-30" d="M 2034 4250 
Q 1547 4250 1301 3770 
Q 1056 3291 1056 2328 
Q 1056 1369 1301 889 
Q 1547 409 2034 409 
Q 2525 409 2770 889 
Q 3016 1369 3016 2328 
Q 3016 3291 2770 3770 
Q 2525 4250 2034 4250 
z
M 2034 4750 
Q 2819 4750 3233 4129 
Q 3647 3509 3647 2328 
Q 3647 1150 3233 529 
Q 2819 -91 2034 -91 
Q 1250 -91 836 529 
Q 422 1150 422 2328 
Q 422 3509 836 4129 
Q 1250 4750 2034 4750 
z
" transform="scale(0.015625)"/>
       </defs>
       <use xlink:href="#DejaVuSans-30"/>
      </g>
     </g>
    </g>
    <g id="xtick_2">
     <g id="line2d_3">
      <path d="M 215.519392 258.48 
L 215.519392 26.88 
" clip-path="url(#p4f092070b5)" style="fill: none; stroke: #b0b0b0; stroke-width: 0.8; stroke-linecap: square"/>
     </g>
     <g id="line2d_4">
      <g>
       <use xlink:href="#m0be4a802dd" x="215.519392" y="258.48" style="stroke: #000000; stroke-width: 0.8"/>
      </g>
     </g>
     <g id="text_2">
      <!-- 50 -->
      <g transform="translate(209.156892 273.078438) scale(0.1 -0.1)">
       <defs>
        <path id="DejaVuSans-35" d="M 691 4666 
L 3169 4666 
L 3169 4134 
L 1269 4134 
L 1269 2991 
Q 1406 3038 1543 3061 
Q 1681 3084 1819 3084 
Q 2600 3084 3056 2656 
Q 3513 2228 3513 1497 
Q 3513 744 3044 326 
Q 2575 -91 1722 -91 
Q 1428 -91 1123 -41 
Q 819 9 494 109 
L 494 744 
Q 775 591 1075 516 
Q 1375 441 1709 441 
Q 2250 441 2565 725 
Q 2881 1009 2881 1497 
Q 2881 1984 2565 2268 
Q 2250 2553 1709 2553 
Q 1456 2553 1204 2497 
Q 953 2441 691 2322 
L 691 4666 
z
" transform="scale(0.015625)"/>
       </defs>
       <use xlink:href="#DejaVuSans-35"/>
       <use xlink:href="#DejaVuSans-30" transform="translate(63.623047 0)"/>
      </g>
     </g>
    </g>
    <g id="xtick_3">
     <g id="line2d_5">
      <path d="M 338.716511 258.48 
L 338.716511 26.88 
" clip-path="url(#p4f092070b5)" style="fill: none; stroke: #b0b0b0; stroke-width: 0.8; stroke-linecap: square"/>
     </g>
     <g id="line2d_6">
      <g>
       <use xlink:href="#m0be4a802dd" x="338.716511" y="258.48" style="stroke: #000000; stroke-width: 0.8"/>
      </g>
     </g>
     <g id="text_3">
      <!-- 100 -->
      <g transform="translate(329.172761 273.078438) scale(0.1 -0.1)">
       <defs>
        <path id="DejaVuSans-31" d="M 794 531 
L 1825 531 
L 1825 4091 
L 703 3866 
L 703 4441 
L 1819 4666 
L 2450 4666 
L 2450 531 
L 3481 531 
L 3481 0 
L 794 0 
L 794 531 
z
" transform="scale(0.015625)"/>
       </defs>
       <use xlink:href="#DejaVuSans-31"/>
       <use xlink:href="#DejaVuSans-30" transform="translate(63.623047 0)"/>
       <use xlink:href="#DejaVuSans-30" transform="translate(127.246094 0)"/>
      </g>
     </g>
    </g>
    <g id="xtick_4">
     <g id="line2d_7">
      <path d="M 461.91363 258.48 
L 461.91363 26.88 
" clip-path="url(#p4f092070b5)" style="fill: none; stroke: #b0b0b0; stroke-width: 0.8; stroke-linecap: square"/>
     </g>
     <g id="line2d_8">
      <g>
       <use xlink:href="#m0be4a802dd" x="461.91363" y="258.48" style="stroke: #000000; stroke-width: 0.8"/>
      </g>
     </g>
     <g id="text_4">
      <!-- 150 -->
      <g transform="translate(452.36988 273.078438) scale(0.1 -0.1)">
       <use xlink:href="#DejaVuSans-31"/>
       <use xlink:href="#DejaVuSans-35" transform="translate(63.623047 0)"/>
       <use xlink:href="#DejaVuSans-30" transform="translate(127.246094 0)"/>
      </g>
     </g>
    </g>
    <g id="xtick_5">
     <g id="line2d_9">
      <path d="M 585.110749 258.48 
L 585.110749 26.88 
" clip-path="url(#p4f092070b5)" style="fill: none; stroke: #b0b0b0; stroke-width: 0.8; stroke-linecap: square"/>
     </g>
     <g id="line2d_10">
      <g>
       <use xlink:href="#m0be4a802dd" x="585.110749" y="258.48" style="stroke: #000000; stroke-width: 0.8"/>
      </g>
     </g>
     <g id="text_5">
      <!-- 200 -->
      <g transform="translate(575.566999 273.078438) scale(0.1 -0.1)">
       <defs>
        <path id="DejaVuSans-32" d="M 1228 531 
L 3431 531 
L 3431 0 
L 469 0 
L 469 531 
Q 828 903 1448 1529 
Q 2069 2156 2228 2338 
Q 2531 2678 2651 2914 
Q 2772 3150 2772 3378 
Q 2772 3750 2511 3984 
Q 2250 4219 1831 4219 
Q 1534 4219 1204 4116 
Q 875 4013 500 3803 
L 500 4441 
Q 881 4594 1212 4672 
Q 1544 4750 1819 4750 
Q 2544 4750 2975 4387 
Q 3406 4025 3406 3419 
Q 3406 3131 3298 2873 
Q 3191 2616 2906 2266 
Q 2828 2175 2409 1742 
Q 1991 1309 1228 531 
z
" transform="scale(0.015625)"/>
       </defs>
       <use xlink:href="#DejaVuSans-32"/>
       <use xlink:href="#DejaVuSans-30" transform="translate(63.623047 0)"/>
       <use xlink:href="#DejaVuSans-30" transform="translate(127.246094 0)"/>
      </g>
     </g>
    </g>
    <g id="xtick_6">
     <g id="line2d_11">
      <path d="M 708.307868 258.48 
L 708.307868 26.88 
" clip-path="url(#p4f092070b5)" style="fill: none; stroke: #b0b0b0; stroke-width: 0.8; stroke-linecap: square"/>
     </g>
     <g id="line2d_12">
      <g>
       <use xlink:href="#m0be4a802dd" x="708.307868" y="258.48" style="stroke: #000000; stroke-width: 0.8"/>
      </g>
     </g>
     <g id="text_6">
      <!-- 250 -->
      <g transform="translate(698.764118 273.078438) scale(0.1 -0.1)">
       <use xlink:href="#DejaVuSans-32"/>
       <use xlink:href="#DejaVuSans-35" transform="translate(63.623047 0)"/>
       <use xlink:href="#DejaVuSans-30" transform="translate(127.246094 0)"/>
      </g>
     </g>
    </g>
    <g id="xtick_7">
     <g id="line2d_13">
      <path d="M 831.504987 258.48 
L 831.504987 26.88 
" clip-path="url(#p4f092070b5)" style="fill: none; stroke: #b0b0b0; stroke-width: 0.8; stroke-linecap: square"/>
     </g>
     <g id="line2d_14">
      <g>
       <use xlink:href="#m0be4a802dd" x="831.504987" y="258.48" style="stroke: #000000; stroke-width: 0.8"/>
      </g>
     </g>
     <g id="text_7">
      <!-- 300 -->
      <g transform="translate(821.961237 273.078438) scale(0.1 -0.1)">
       <defs>
        <path id="DejaVuSans-33" d="M 2597 2516 
Q 3050 2419 3304 2112 
Q 3559 1806 3559 1356 
Q 3559 666 3084 287 
Q 2609 -91 1734 -91 
Q 1441 -91 1130 -33 
Q 819 25 488 141 
L 488 750 
Q 750 597 1062 519 
Q 1375 441 1716 441 
Q 2309 441 2620 675 
Q 2931 909 2931 1356 
Q 2931 1769 2642 2001 
Q 2353 2234 1838 2234 
L 1294 2234 
L 1294 2753 
L 1863 2753 
Q 2328 2753 2575 2939 
Q 2822 3125 2822 3475 
Q 2822 3834 2567 4026 
Q 2313 4219 1838 4219 
Q 1578 4219 1281 4162 
Q 984 4106 628 3988 
L 628 4550 
Q 988 4650 1302 4700 
Q 1616 4750 1894 4750 
Q 2613 4750 3031 4423 
Q 3450 4097 3450 3541 
Q 3450 3153 3228 2886 
Q 3006 2619 2597 2516 
z
" transform="scale(0.015625)"/>
       </defs>
       <use xlink:href="#DejaVuSans-33"/>
       <use xlink:href="#DejaVuSans-30" transform="translate(63.623047 0)"/>
       <use xlink:href="#DejaVuSans-30" transform="translate(127.246094 0)"/>
      </g>
     </g>
    </g>
   </g>
   <g id="matplotlib.axis_2">
    <g id="ytick_1">
     <g id="line2d_15">
      <path d="M 56.09 248.150618 
L 853.2 248.150618 
" clip-path="url(#p4f092070b5)" style="fill: none; stroke: #b0b0b0; stroke-width: 0.8; stroke-linecap: square"/>
     </g>
     <g id="line2d_16">
      <defs>
       <path id="mf2c3e24d1d" d="M 0 0 
L -3.5 0 
" style="stroke: #000000; stroke-width: 0.8"/>
      </defs>
      <g>
       <use xlink:href="#mf2c3e24d1d" x="56.09" y="248.150618" style="stroke: #000000; stroke-width: 0.8"/>
      </g>
     </g>
     <g id="text_8">
      <!-- 0.0 -->
      <g transform="translate(33.186875 251.949836) scale(0.1 -0.1)">
       <defs>
        <path id="DejaVuSans-2e" d="M 684 794 
L 1344 794 
L 1344 0 
L 684 0 
L 684 794 
z
" transform="scale(0.015625)"/>
       </defs>
       <use xlink:href="#DejaVuSans-30"/>
       <use xlink:href="#DejaVuSans-2e" transform="translate(63.623047 0)"/>
       <use xlink:href="#DejaVuSans-30" transform="translate(95.410156 0)"/>
      </g>
     </g>
    </g>
    <g id="ytick_2">
     <g id="line2d_17">
      <path d="M 56.09 214.829676 
L 853.2 214.829676 
" clip-path="url(#p4f092070b5)" style="fill: none; stroke: #b0b0b0; stroke-width: 0.8; stroke-linecap: square"/>
     </g>
     <g id="line2d_18">
      <g>
       <use xlink:href="#mf2c3e24d1d" x="56.09" y="214.829676" style="stroke: #000000; stroke-width: 0.8"/>
      </g>
     </g>
     <g id="text_9">
      <!-- 0.1 -->
      <g transform="translate(33.186875 218.628895) scale(0.1 -0.1)">
       <use xlink:href="#DejaVuSans-30"/>
       <use xlink:href="#DejaVuSans-2e" transform="translate(63.623047 0)"/>
       <use xlink:href="#DejaVuSans-31" transform="translate(95.410156 0)"/>
      </g>
     </g>
    </g>
    <g id="ytick_3">
     <g id="line2d_19">
      <path d="M 56.09 181.508735 
L 853.2 181.508735 
" clip-path="url(#p4f092070b5)" style="fill: none; stroke: #b0b0b0; stroke-width: 0.8; stroke-linecap: square"/>
     </g>
     <g id="line2d_20">
      <g>
       <use xlink:href="#mf2c3e24d1d" x="56.09" y="181.508735" style="stroke: #000000; stroke-width: 0.8"/>
      </g>
     </g>
     <g id="text_10">
      <!-- 0.2 -->
      <g transform="translate(33.186875 185.307954) scale(0.1 -0.1)">
       <use xlink:href="#DejaVuSans-30"/>
       <use xlink:href="#DejaVuSans-2e" transform="translate(63.623047 0)"/>
       <use xlink:href="#DejaVuSans-32" transform="translate(95.410156 0)"/>
      </g>
     </g>
    </g>
    <g id="ytick_4">
     <g id="line2d_21">
      <path d="M 56.09 148.187794 
L 853.2 148.187794 
" clip-path="url(#p4f092070b5)" style="fill: none; stroke: #b0b0b0; stroke-width: 0.8; stroke-linecap: square"/>
     </g>
     <g id="line2d_22">
      <g>
       <use xlink:href="#mf2c3e24d1d" x="56.09" y="148.187794" style="stroke: #000000; stroke-width: 0.8"/>
      </g>
     </g>
     <g id="text_11">
      <!-- 0.3 -->
      <g transform="translate(33.186875 151.987012) scale(0.1 -0.1)">
       <use xlink:href="#DejaVuSans-30"/>
       <use xlink:href="#DejaVuSans-2e" transform="translate(63.623047 0)"/>
       <use xlink:href="#DejaVuSans-33" transform="translate(95.410156 0)"/>
      </g>
     </g>
    </g>
    <g id="ytick_5">
     <g id="line2d_23">
      <path d="M 56.09 114.866852 
L 853.2 114.866852 
" clip-path="url(#p4f092070b5)" style="fill: none; stroke: #b0b0b0; stroke-width: 0.8; stroke-linecap: square"/>
     </g>
     <g id="line2d_24">
      <g>
       <use xlink:href="#mf2c3e24d1d" x="56.09" y="114.866852" style="stroke: #000000; stroke-width: 0.8"/>
      </g>
     </g>
     <g id="text_12">
      <!-- 0.4 -->
      <g transform="translate(33.186875 118.666071) scale(0.1 -0.1)">
       <defs>
        <path id="DejaVuSans-34" d="M 2419 4116 
L 825 1625 
L 2419 1625 
L 2419 4116 
z
M 2253 4666 
L 3047 4666 
L 3047 1625 
L 3713 1625 
L 3713 1100 
L 3047 1100 
L 3047 0 
L 2419 0 
L 2419 1100 
L 313 1100 
L 313 1709 
L 2253 4666 
z
" transform="scale(0.015625)"/>
       </defs>
       <use xlink:href="#DejaVuSans-30"/>
       <use xlink:href="#DejaVuSans-2e" transform="translate(63.623047 0)"/>
       <use xlink:href="#DejaVuSans-34" transform="translate(95.410156 0)"/>
      </g>
     </g>
    </g>
    <g id="ytick_6">
     <g id="line2d_25">
      <path d="M 56.09 81.545911 
L 853.2 81.545911 
" clip-path="url(#p4f092070b5)" style="fill: none; stroke: #b0b0b0; stroke-width: 0.8; stroke-linecap: square"/>
     </g>
     <g id="line2d_26">
      <g>
       <use xlink:href="#mf2c3e24d1d" x="56.09" y="81.545911" style="stroke: #000000; stroke-width: 0.8"/>
      </g>
     </g>
     <g id="text_13">
      <!-- 0.5 -->
      <g transform="translate(33.186875 85.34513) scale(0.1 -0.1)">
       <use xlink:href="#DejaVuSans-30"/>
       <use xlink:href="#DejaVuSans-2e" transform="translate(63.623047 0)"/>
       <use xlink:href="#DejaVuSans-35" transform="translate(95.410156 0)"/>
      </g>
     </g>
    </g>
    <g id="ytick_7">
     <g id="line2d_27">
      <path d="M 56.09 48.22497 
L 853.2 48.22497 
" clip-path="url(#p4f092070b5)" style="fill: none; stroke: #b0b0b0; stroke-width: 0.8; stroke-linecap: square"/>
     </g>
     <g id="line2d_28">
      <g>
       <use xlink:href="#mf2c3e24d1d" x="56.09" y="48.22497" style="stroke: #000000; stroke-width: 0.8"/>
      </g>
     </g>
     <g id="text_14">
      <!-- 0.6 -->
      <g transform="translate(33.186875 52.024189) scale(0.1 -0.1)">
       <defs>
        <path id="DejaVuSans-36" d="M 2113 2584 
Q 1688 2584 1439 2293 
Q 1191 2003 1191 1497 
Q 1191 994 1439 701 
Q 1688 409 2113 409 
Q 2538 409 2786 701 
Q 3034 994 3034 1497 
Q 3034 2003 2786 2293 
Q 2538 2584 2113 2584 
z
M 3366 4563 
L 3366 3988 
Q 3128 4100 2886 4159 
Q 2644 4219 2406 4219 
Q 1781 4219 1451 3797 
Q 1122 3375 1075 2522 
Q 1259 2794 1537 2939 
Q 1816 3084 2150 3084 
Q 2853 3084 3261 2657 
Q 3669 2231 3669 1497 
Q 3669 778 3244 343 
Q 2819 -91 2113 -91 
Q 1303 -91 875 529 
Q 447 1150 447 2328 
Q 447 3434 972 4092 
Q 1497 4750 2381 4750 
Q 2619 4750 2861 4703 
Q 3103 4656 3366 4563 
z
" transform="scale(0.015625)"/>
       </defs>
       <use xlink:href="#DejaVuSans-30"/>
       <use xlink:href="#DejaVuSans-2e" transform="translate(63.623047 0)"/>
       <use xlink:href="#DejaVuSans-36" transform="translate(95.410156 0)"/>
      </g>
     </g>
    </g>
    <g id="text_15">
     <!-- Std Dev -->
     <g transform="translate(27.107187 162.463594) rotate(-90) scale(0.1 -0.1)">
      <defs>
       <path id="DejaVuSans-53" d="M 3425 4513 
L 3425 3897 
Q 3066 4069 2747 4153 
Q 2428 4238 2131 4238 
Q 1616 4238 1336 4038 
Q 1056 3838 1056 3469 
Q 1056 3159 1242 3001 
Q 1428 2844 1947 2747 
L 2328 2669 
Q 3034 2534 3370 2195 
Q 3706 1856 3706 1288 
Q 3706 609 3251 259 
Q 2797 -91 1919 -91 
Q 1588 -91 1214 -16 
Q 841 59 441 206 
L 441 856 
Q 825 641 1194 531 
Q 1563 422 1919 422 
Q 2459 422 2753 634 
Q 3047 847 3047 1241 
Q 3047 1584 2836 1778 
Q 2625 1972 2144 2069 
L 1759 2144 
Q 1053 2284 737 2584 
Q 422 2884 422 3419 
Q 422 4038 858 4394 
Q 1294 4750 2059 4750 
Q 2388 4750 2728 4690 
Q 3069 4631 3425 4513 
z
" transform="scale(0.015625)"/>
       <path id="DejaVuSans-74" d="M 1172 4494 
L 1172 3500 
L 2356 3500 
L 2356 3053 
L 1172 3053 
L 1172 1153 
Q 1172 725 1289 603 
Q 1406 481 1766 481 
L 2356 481 
L 2356 0 
L 1766 0 
Q 1100 0 847 248 
Q 594 497 594 1153 
L 594 3053 
L 172 3053 
L 172 3500 
L 594 3500 
L 594 4494 
L 1172 4494 
z
" transform="scale(0.015625)"/>
       <path id="DejaVuSans-64" d="M 2906 2969 
L 2906 4863 
L 3481 4863 
L 3481 0 
L 2906 0 
L 2906 525 
Q 2725 213 2448 61 
Q 2172 -91 1784 -91 
Q 1150 -91 751 415 
Q 353 922 353 1747 
Q 353 2572 751 3078 
Q 1150 3584 1784 3584 
Q 2172 3584 2448 3432 
Q 2725 3281 2906 2969 
z
M 947 1747 
Q 947 1113 1208 752 
Q 1469 391 1925 391 
Q 2381 391 2643 752 
Q 2906 1113 2906 1747 
Q 2906 2381 2643 2742 
Q 2381 3103 1925 3103 
Q 1469 3103 1208 2742 
Q 947 2381 947 1747 
z
" transform="scale(0.015625)"/>
       <path id="DejaVuSans-20" transform="scale(0.015625)"/>
       <path id="DejaVuSans-44" d="M 1259 4147 
L 1259 519 
L 2022 519 
Q 2988 519 3436 956 
Q 3884 1394 3884 2338 
Q 3884 3275 3436 3711 
Q 2988 4147 2022 4147 
L 1259 4147 
z
M 628 4666 
L 1925 4666 
Q 3281 4666 3915 4102 
Q 4550 3538 4550 2338 
Q 4550 1131 3912 565 
Q 3275 0 1925 0 
L 628 0 
L 628 4666 
z
" transform="scale(0.015625)"/>
       <path id="DejaVuSans-65" d="M 3597 1894 
L 3597 1613 
L 953 1613 
Q 991 1019 1311 708 
Q 1631 397 2203 397 
Q 2534 397 2845 478 
Q 3156 559 3463 722 
L 3463 178 
Q 3153 47 2828 -22 
Q 2503 -91 2169 -91 
Q 1331 -91 842 396 
Q 353 884 353 1716 
Q 353 2575 817 3079 
Q 1281 3584 2069 3584 
Q 2775 3584 3186 3129 
Q 3597 2675 3597 1894 
z
M 3022 2063 
Q 3016 2534 2758 2815 
Q 2500 3097 2075 3097 
Q 1594 3097 1305 2825 
Q 1016 2553 972 2059 
L 3022 2063 
z
" transform="scale(0.015625)"/>
       <path id="DejaVuSans-76" d="M 191 3500 
L 800 3500 
L 1894 563 
L 2988 3500 
L 3597 3500 
L 2284 0 
L 1503 0 
L 191 3500 
z
" transform="scale(0.015625)"/>
      </defs>
      <use xlink:href="#DejaVuSans-53"/>
      <use xlink:href="#DejaVuSans-74" transform="translate(63.476562 0)"/>
      <use xlink:href="#DejaVuSans-64" transform="translate(102.685547 0)"/>
      <use xlink:href="#DejaVuSans-20" transform="translate(166.162109 0)"/>
      <use xlink:href="#DejaVuSans-44" transform="translate(197.949219 0)"/>
      <use xlink:href="#DejaVuSans-65" transform="translate(274.951172 0)"/>
      <use xlink:href="#DejaVuSans-76" transform="translate(336.474609 0)"/>
     </g>
    </g>
   </g>
   <g id="line2d_29">
    <path d="M 92.322273 247.817408 
L 92.716504 247.919566 
L 94.244148 247.947827 
L 109.077081 247.903955 
L 109.224917 247.673066 
L 109.471312 242.271771 
L 109.717706 242.005645 
L 110.013379 241.257491 
L 110.358331 239.610408 
L 110.851119 235.912661 
L 111.738139 227.280114 
L 111.885975 247.887141 
L 114.497754 247.949418 
L 133.519389 247.863754 
L 134.455687 247.088349 
L 134.899197 246.096738 
L 135.63838 243.753751 
L 135.835495 242.904886 
L 136.081889 239.190073 
L 136.131168 239.143254 
L 136.279005 247.922098 
L 137.363139 247.945998 
L 145.543428 247.903175 
L 145.740544 247.68137 
L 145.88838 247.346543 
L 146.430447 247.034676 
L 146.873957 246.499181 
L 147.711697 245.021792 
L 148.204486 244.171913 
L 148.352322 247.927338 
L 149.091505 247.94495 
L 157.616746 247.903207 
L 158.158813 247.588811 
L 160.277804 246.759457 
L 160.42564 247.934513 
L 161.016986 247.952045 
L 169.739342 247.863587 
L 169.887179 247.724548 
L 170.035015 247.500141 
L 171.858333 246.942524 
L 172.351121 246.851654 
L 172.498958 247.934753 
L 173.090304 247.952517 
L 181.81266 247.864155 
L 182.404006 247.562738 
L 184.424439 246.811443 
L 184.572276 247.93465 
L 185.163622 247.952403 
L 193.836699 247.863983 
L 193.984535 247.651569 
L 194.23093 242.313538 
L 194.575882 242.170211 
L 194.822276 241.740302 
L 195.117949 240.569713 
L 195.51218 237.804531 
L 196.152805 231.350458 
L 196.497757 226.996329 
L 196.645593 247.88971 
L 199.454487 247.949671 
L 205.959295 247.862015 
L 206.057853 247.671259 
L 206.304247 242.294948 
L 206.698478 242.052591 
L 207.191267 241.422085 
L 208.127565 240.143029 
L 208.32468 240.133376 
L 208.521795 240.165372 
L 208.571074 240.160078 
L 208.718911 247.933647 
L 209.260978 247.952518 
L 218.032613 247.864174 
L 218.673238 247.536565 
L 219.215305 247.160782 
L 219.658815 246.564961 
L 220.250161 245.345348 
L 220.397998 244.859828 
L 220.595113 244.163575 
L 220.644392 244.058979 
L 220.792229 247.927099 
L 221.531411 247.944878 
L 230.056652 247.903205 
L 230.253767 247.689985 
L 230.401604 247.378043 
L 231.091508 247.001857 
L 232.569873 245.898681 
L 232.71771 245.879228 
L 232.865546 247.934185 
L 233.456892 247.952005 
L 242.179248 247.863555 
L 242.770595 247.55782 
L 244.791027 246.809392 
L 244.938864 247.934556 
L 245.53021 247.952056 
L 254.252566 247.863597 
L 254.400403 247.726041 
L 254.548239 247.506739 
L 256.272999 246.981359 
L 256.864345 246.870562 
L 257.012182 247.93484 
L 257.603528 247.952691 
L 266.325884 247.864473 
L 266.91723 247.565328 
L 268.937663 246.854347 
L 269.085499 247.934573 
L 269.676845 247.952063 
L 278.349923 247.863601 
L 278.497759 247.760588 
L 278.793432 246.902617 
L 279.877567 246.78504 
L 280.715307 246.401441 
L 281.01098 245.817985 
L 281.158817 247.934139 
L 281.750163 247.952436 
L 290.42324 247.864039 
L 290.620356 247.645521 
L 290.768192 247.279813 
L 292.837904 246.719037 
L 292.98574 246.572069 
L 293.084298 246.555747 
L 293.232135 247.934426 
L 293.823481 247.952473 
L 302.545837 247.864089 
L 302.693673 247.697598 
L 302.84151 247.393391 
L 304.714106 246.942488 
L 305.108337 246.843953 
L 305.256173 247.934774 
L 305.84752 247.952606 
L 314.619154 247.864308 
L 314.766991 247.705776 
L 314.914828 247.424536 
L 316.541029 247.038823 
L 317.181655 246.886396 
L 317.329491 247.934787 
L 317.920837 247.952482 
L 326.692472 247.864101 
L 326.840309 247.714408 
L 326.988145 247.458534 
L 328.614347 247.042396 
L 329.254972 246.910266 
L 329.402809 247.934855 
L 329.994155 247.952591 
L 333.837905 247.952627 
L 333.887184 247.817408 
L 333.985742 247.854875 
L 334.577088 247.936219 
L 339.110742 247.951136 
L 350.691271 247.863321 
L 350.789829 247.673065 
L 351.036223 242.271773 
L 351.282617 242.005653 
L 351.57829 241.257572 
L 351.923242 239.61075 
L 352.416031 235.913785 
L 353.30305 227.283502 
L 353.450886 247.887144 
L 356.062665 247.949418 
L 375.0843 247.863754 
L 376.020599 247.089313 
L 376.464108 246.09835 
L 377.203291 243.756427 
L 377.400406 242.907935 
L 377.646801 239.194281 
L 377.696079 239.147456 
L 377.843916 247.922104 
L 378.928051 247.945998 
L 387.108339 247.903175 
L 387.305455 247.681372 
L 387.453291 247.346525 
L 387.995359 247.034587 
L 388.438868 246.499092 
L 389.276609 245.021802 
L 389.769397 244.171917 
L 389.917234 247.927338 
L 390.656416 247.94495 
L 399.181657 247.903207 
L 399.723724 247.58882 
L 401.842715 246.759353 
L 401.990551 247.934513 
L 402.581897 247.952045 
L 411.304254 247.863587 
L 411.45209 247.724557 
L 411.599927 247.500175 
L 413.423244 246.942336 
L 413.916032 246.851503 
L 414.063869 247.934753 
L 414.655215 247.952517 
L 423.377571 247.864155 
L 423.968917 247.562748 
L 425.98935 246.811639 
L 426.137187 247.934651 
L 426.728533 247.952403 
L 435.40161 247.863983 
L 435.549447 247.651568 
L 435.795841 242.313558 
L 436.140793 242.170446 
L 436.387187 241.740967 
L 436.68286 240.571301 
L 437.077091 237.807857 
L 437.717716 231.357184 
L 438.062668 227.004659 
L 438.210504 247.889708 
L 441.019399 247.949671 
L 447.524207 247.862015 
L 447.622764 247.671257 
L 447.869158 242.294941 
L 448.263389 242.052703 
L 448.756178 241.422219 
L 449.692476 240.142648 
L 449.889591 240.132989 
L 450.086707 240.165076 
L 450.135985 240.159747 
L 450.283822 247.933646 
L 450.825889 247.952518 
L 459.597524 247.864174 
L 460.238149 247.536557 
L 460.780217 247.160798 
L 461.223726 246.565017 
L 461.815072 245.345323 
L 461.962909 244.859822 
L 462.160024 244.16366 
L 462.209303 244.059053 
L 462.35714 247.927098 
L 463.096322 247.944877 
L 471.621563 247.903205 
L 471.818678 247.689986 
L 471.966515 247.378043 
L 472.656419 247.001783 
L 474.134784 245.898559 
L 474.282621 245.879135 
L 474.430457 247.934186 
L 475.021803 247.952005 
L 483.74416 247.863555 
L 484.335506 247.557816 
L 486.355938 246.809406 
L 486.503775 247.934556 
L 487.095121 247.952056 
L 495.817477 247.863597 
L 495.965314 247.726061 
L 496.11315 247.506813 
L 497.83791 246.981348 
L 498.429256 246.870535 
L 498.577093 247.93484 
L 499.168439 247.952691 
L 507.890795 247.864473 
L 508.482141 247.565327 
L 510.502574 246.854435 
L 510.65041 247.934573 
L 511.241757 247.952063 
L 519.914834 247.863601 
L 520.06267 247.760589 
L 520.358343 246.902756 
L 521.442478 246.78486 
L 522.280218 246.400789 
L 522.575891 245.816702 
L 522.723728 247.934138 
L 523.315074 247.952436 
L 531.988151 247.864039 
L 532.185267 247.645534 
L 532.333103 247.279861 
L 534.402815 246.718926 
L 534.550651 246.571974 
L 534.649209 246.555652 
L 534.797046 247.934426 
L 535.388392 247.952473 
L 544.110748 247.864089 
L 544.258584 247.697603 
L 544.406421 247.393417 
L 546.279017 246.942604 
L 546.673248 246.844026 
L 546.821085 247.934774 
L 547.412431 247.952606 
L 556.184066 247.864308 
L 556.331902 247.705773 
L 556.479739 247.424517 
L 558.105941 247.038803 
L 558.746566 246.88639 
L 558.894402 247.934787 
L 559.485748 247.952482 
L 568.257383 247.864101 
L 568.40522 247.714411 
L 568.553056 247.458552 
L 570.179258 247.042451 
L 570.819883 246.91028 
L 570.96772 247.934855 
L 571.559066 247.952591 
L 575.402816 247.952627 
L 575.501374 247.817833 
L 575.550653 247.844738 
L 575.994162 247.930199 
L 578.704499 247.950008 
L 592.256182 247.857574 
L 592.305461 247.611627 
L 592.35474 244.939634 
L 592.601134 189.562892 
L 592.798249 187.718484 
L 593.044644 182.687207 
L 593.340317 171.287171 
L 593.734547 146.422206 
L 594.375172 89.458247 
L 594.867961 40.12347 
L 595.015798 247.845492 
L 595.459307 247.930209 
L 598.169644 247.950008 
L 616.649212 247.863752 
L 616.944885 247.586481 
L 617.092721 246.947415 
L 617.339115 244.474513 
L 617.684067 238.379853 
L 618.226135 223.851407 
L 618.916039 200.452783 
L 618.965317 197.222089 
L 619.211712 159.382028 
L 619.260991 158.923604 
L 619.408827 247.865013 
L 620.197289 247.940712 
L 628.081904 247.951865 
L 628.722529 247.862056 
L 628.821087 247.775095 
L 629.067481 245.94783 
L 629.215318 245.615416 
L 629.412433 244.579558 
L 629.757385 241.152377 
L 630.348731 232.217952 
L 631.334308 217.098591 
L 631.482145 247.923446 
L 632.517001 247.945388 
L 640.746568 247.903163 
L 641.288635 247.586471 
L 643.407626 246.660923 
L 643.555462 247.934449 
L 644.146809 247.951994 
L 652.869165 247.863544 
L 653.017001 247.722381 
L 653.164838 247.489686 
L 655.135992 246.879664 
L 655.480944 246.820365 
L 655.62878 247.934721 
L 656.220126 247.952504 
L 664.942482 247.864134 
L 665.533828 247.562664 
L 667.554261 246.712759 
L 667.702098 247.934539 
L 668.293444 247.952394 
L 676.966521 247.863864 
L 677.0158 247.823252 
L 677.065079 247.592041 
L 677.114358 244.935581 
L 677.311473 190.098397 
L 677.607146 189.434995 
L 677.804262 187.565399 
L 678.001377 183.247127 
L 678.29705 170.442341 
L 678.691281 141.444064 
L 679.331906 75.66131 
L 679.627579 37.407273 
L 679.775415 247.845954 
L 680.218925 247.930214 
L 682.929262 247.950008 
L 689.089118 247.856345 
L 689.138396 247.612269 
L 689.187675 244.955525 
L 689.384791 190.281631 
L 689.779022 188.312039 
L 690.173252 184.417279 
L 691.257387 172.553673 
L 691.355945 172.209078 
L 691.405223 172.234496 
L 691.55306 173.224817 
L 691.602339 173.208607 
L 691.700897 173.16121 
L 691.848733 247.932155 
L 692.489358 247.947601 
L 701.162435 247.862387 
L 701.80306 247.325498 
L 702.049455 246.412929 
L 702.345128 244.258852 
L 702.69008 240.01681 
L 703.133589 231.660319 
L 703.774214 215.758889 
L 703.922051 247.925319 
L 704.710512 247.94451 
L 713.186474 247.903186 
L 713.38359 247.688526 
L 713.580705 247.280791 
L 713.77782 246.784024 
L 714.073493 245.257933 
L 714.615561 240.84983 
L 715.256186 236.058263 
L 715.551859 235.221327 
L 715.847532 235.183006 
L 715.995368 247.934147 
L 716.586715 247.951903 
L 725.309071 247.863469 
L 725.949696 247.536683 
L 727.92085 246.785296 
L 728.068686 247.934537 
L 728.660032 247.95203 
L 737.382388 247.863574 
L 737.530225 247.725296 
L 737.678061 247.503156 
L 739.4521 246.959799 
L 739.994167 246.861006 
L 740.142004 247.934831 
L 740.73335 247.952685 
L 749.455706 247.86446 
L 750.047052 247.565283 
L 752.067485 246.817907 
L 752.215321 247.934529 
L 752.806668 247.952048 
L 761.479745 247.863586 
L 761.627581 247.643887 
L 761.824697 242.176543 
L 761.873976 242.262064 
L 762.12037 243.13814 
L 762.563879 245.928509 
L 762.760995 246.839667 
L 762.810274 246.802673 
L 762.95811 246.064794 
L 763.697293 241.678299 
L 763.84513 241.031322 
L 764.091524 235.063166 
L 764.140803 235.031654 
L 764.288639 247.934072 
L 764.879985 247.952402 
L 773.553063 247.863994 
L 773.750178 247.641206 
L 773.898014 247.266977 
L 775.918447 246.668776 
L 776.21412 246.471752 
L 776.361957 247.934417 
L 776.953303 247.95247 
L 785.675659 247.864085 
L 785.823496 247.696768 
L 785.971332 247.39038 
L 787.843928 246.940618 
L 788.238159 246.842638 
L 788.385996 247.934771 
L 788.977342 247.952605 
L 797.748977 247.864305 
L 797.896813 247.705073 
L 798.04465 247.421865 
L 799.670852 247.037751 
L 800.311477 246.885497 
L 800.459313 247.934785 
L 801.050659 247.95248 
L 809.822294 247.864097 
L 809.970131 247.713883 
L 810.117967 247.456562 
L 811.744169 247.041349 
L 812.384794 246.909506 
L 812.532631 247.934853 
L 813.123977 247.952589 
L 816.967727 247.952626 
L 816.967727 247.952626 
" clip-path="url(#p4f092070b5)" style="fill: none; stroke: #0000ff; stroke-width: 1.5; stroke-linecap: square"/>
   </g>
   <g id="line2d_30">
    <path d="M 92.322273 247.817408 
L 92.716504 247.919566 
L 94.244148 247.947827 
L 109.077081 247.903956 
L 109.224917 247.673231 
L 109.471312 242.273035 
L 109.717706 242.006282 
L 110.013379 241.258371 
L 110.358331 239.610977 
L 110.851119 235.913188 
L 111.738139 227.280346 
L 111.885975 247.887143 
L 114.497754 247.949418 
L 133.519389 247.863754 
L 134.455687 247.088353 
L 134.899197 246.096836 
L 135.63838 243.754023 
L 135.835495 242.905379 
L 136.081889 239.19105 
L 136.131168 239.14419 
L 136.279005 247.922104 
L 137.313861 247.94572 
L 145.543428 247.903176 
L 145.740544 247.681363 
L 145.88838 247.34655 
L 146.430447 247.0347 
L 146.873957 246.499198 
L 147.711697 245.021811 
L 148.204486 244.171918 
L 148.352322 247.927338 
L 149.091505 247.94495 
L 157.616746 247.903207 
L 158.158813 247.588812 
L 160.277804 246.759476 
L 160.42564 247.934513 
L 161.016986 247.952045 
L 169.739342 247.863586 
L 169.887179 247.724557 
L 170.035015 247.500168 
L 171.858333 246.942528 
L 172.351121 246.851664 
L 172.498958 247.934753 
L 173.090304 247.952517 
L 181.81266 247.864154 
L 182.404006 247.562739 
L 184.424439 246.811459 
L 184.572276 247.934651 
L 185.163622 247.952402 
L 193.836699 247.863983 
L 193.984535 247.651753 
L 194.23093 242.317292 
L 194.575882 242.173479 
L 194.822276 241.743602 
L 195.117949 240.57246 
L 195.51218 237.806337 
L 196.152805 231.351312 
L 196.497757 226.997608 
L 196.645593 247.889725 
L 199.405209 247.949613 
L 205.959295 247.862011 
L 206.057853 247.671195 
L 206.304247 242.297746 
L 206.698478 242.055558 
L 207.141988 241.501728 
L 208.127565 240.146357 
L 208.32468 240.136577 
L 208.521795 240.168327 
L 208.571074 240.16304 
L 208.718911 247.933647 
L 209.260978 247.952518 
L 218.032613 247.864174 
L 218.673238 247.536576 
L 219.215305 247.160827 
L 219.658815 246.565006 
L 220.250161 245.345364 
L 220.397998 244.859888 
L 220.595113 244.163744 
L 220.644392 244.0591 
L 220.792229 247.9271 
L 221.531411 247.944881 
L 230.056652 247.903206 
L 230.253767 247.689993 
L 230.401604 247.378062 
L 231.042229 247.040766 
L 231.83069 246.28181 
L 232.372758 245.929049 
L 232.71771 245.879617 
L 232.865546 247.934186 
L 233.456892 247.952005 
L 242.179248 247.863555 
L 242.770595 247.557824 
L 244.791027 246.809391 
L 244.938864 247.934555 
L 245.53021 247.952055 
L 254.252566 247.863597 
L 254.400403 247.726035 
L 254.548239 247.506714 
L 256.272999 246.981318 
L 256.864345 246.870546 
L 257.012182 247.93484 
L 257.603528 247.952691 
L 266.325884 247.864473 
L 266.91723 247.565331 
L 268.937663 246.854347 
L 269.085499 247.934573 
L 269.676845 247.952063 
L 278.349923 247.863602 
L 278.497759 247.760581 
L 278.793432 246.902616 
L 279.877567 246.78503 
L 280.715307 246.401308 
L 281.01098 245.817746 
L 281.158817 247.93414 
L 281.750163 247.952436 
L 290.42324 247.864039 
L 290.620356 247.645456 
L 290.768192 247.279766 
L 292.837904 246.718956 
L 292.98574 246.571975 
L 293.084298 246.555662 
L 293.232135 247.934427 
L 293.823481 247.952473 
L 302.545837 247.864089 
L 302.693673 247.69759 
L 302.84151 247.393437 
L 304.714106 246.942489 
L 305.108337 246.843961 
L 305.256173 247.934775 
L 305.84752 247.952606 
L 314.619154 247.864308 
L 314.766991 247.70581 
L 314.914828 247.424527 
L 316.541029 247.038827 
L 317.181655 246.886412 
L 317.329491 247.934787 
L 317.920837 247.952482 
L 326.692472 247.864101 
L 326.840309 247.714421 
L 326.988145 247.458534 
L 328.614347 247.042408 
L 329.254972 246.910267 
L 329.402809 247.934855 
L 329.994155 247.952591 
L 333.837905 247.952627 
L 333.887184 247.817408 
L 333.985742 247.854875 
L 334.577088 247.936218 
L 339.110742 247.951136 
L 350.691271 247.863318 
L 350.789829 247.67323 
L 351.036223 242.273036 
L 351.282617 242.006284 
L 351.57829 241.258437 
L 351.923242 239.611295 
L 352.416031 235.914293 
L 353.30305 227.283782 
L 353.450886 247.887146 
L 356.062665 247.949418 
L 375.0843 247.863754 
L 376.020599 247.089357 
L 376.464108 246.098501 
L 377.203291 243.756773 
L 377.400406 242.90851 
L 377.646801 239.19535 
L 377.696079 239.148484 
L 377.843916 247.922109 
L 378.878772 247.94572 
L 387.108339 247.903176 
L 387.305455 247.681364 
L 387.453291 247.34653 
L 387.995359 247.034621 
L 388.438868 246.499134 
L 389.276609 245.021884 
L 389.769397 244.171999 
L 389.917234 247.927338 
L 390.656416 247.94495 
L 399.181657 247.903207 
L 399.723724 247.588822 
L 401.842715 246.759366 
L 401.990551 247.934513 
L 402.581897 247.952045 
L 411.304254 247.863586 
L 411.45209 247.724567 
L 411.599927 247.500203 
L 413.423244 246.942327 
L 413.916032 246.851501 
L 414.063869 247.934753 
L 414.655215 247.952517 
L 423.377571 247.864154 
L 423.968917 247.562749 
L 425.98935 246.811638 
L 426.137187 247.934651 
L 426.728533 247.952402 
L 435.40161 247.863983 
L 435.549447 247.651753 
L 435.795841 242.317324 
L 436.140793 242.173752 
L 436.387187 241.744331 
L 436.68286 240.57416 
L 437.077091 237.809875 
L 437.717716 231.358525 
L 438.062668 227.006601 
L 438.210504 247.889724 
L 440.97012 247.949613 
L 447.524207 247.862011 
L 447.622764 247.671193 
L 447.869158 242.297741 
L 448.263389 242.055668 
L 448.706899 241.501865 
L 449.692476 240.145954 
L 449.889591 240.136168 
L 450.086707 240.168011 
L 450.135985 240.162686 
L 450.283822 247.933646 
L 450.825889 247.952518 
L 459.597524 247.864174 
L 460.238149 247.536567 
L 460.780217 247.160838 
L 461.223726 246.565051 
L 461.815072 245.345308 
L 461.962909 244.859844 
L 462.160024 244.163776 
L 462.209303 244.05912 
L 462.35714 247.927099 
L 463.096322 247.94488 
L 471.621563 247.903206 
L 471.818678 247.689994 
L 471.966515 247.378062 
L 472.60714 247.040704 
L 473.395602 246.281622 
L 473.937669 245.928874 
L 474.282621 245.879523 
L 474.430457 247.934186 
L 475.021803 247.952005 
L 483.74416 247.863555 
L 484.335506 247.557819 
L 486.355938 246.8094 
L 486.503775 247.934555 
L 487.095121 247.952055 
L 495.817477 247.863597 
L 495.965314 247.726055 
L 496.11315 247.506787 
L 497.83791 246.981307 
L 498.429256 246.870518 
L 498.577093 247.93484 
L 499.168439 247.952691 
L 507.890795 247.864473 
L 508.482141 247.56533 
L 510.502574 246.854435 
L 510.65041 247.934574 
L 511.241757 247.952063 
L 519.914834 247.863602 
L 520.06267 247.760583 
L 520.358343 246.902761 
L 521.442478 246.784862 
L 522.280218 246.400706 
L 522.575891 245.816547 
L 522.723728 247.93414 
L 523.315074 247.952436 
L 531.988151 247.864039 
L 532.185267 247.645471 
L 532.333103 247.279819 
L 534.402815 246.718889 
L 534.550651 246.571934 
L 534.649209 246.555625 
L 534.797046 247.934427 
L 535.388392 247.952473 
L 544.110748 247.864089 
L 544.258584 247.697596 
L 544.406421 247.393466 
L 546.279017 246.942606 
L 546.673248 246.844036 
L 546.821085 247.934775 
L 547.412431 247.952606 
L 556.184066 247.864308 
L 556.331902 247.705806 
L 556.479739 247.424508 
L 558.105941 247.038806 
L 558.746566 246.886404 
L 558.894402 247.934787 
L 559.485748 247.952482 
L 568.257383 247.864101 
L 568.40522 247.714424 
L 568.553056 247.458554 
L 570.179258 247.042462 
L 570.819883 246.91028 
L 570.96772 247.934855 
L 571.559066 247.952591 
L 575.402816 247.952627 
L 575.501374 247.817833 
L 575.550653 247.844738 
L 575.994162 247.930173 
L 578.704499 247.949991 
L 592.256182 247.857418 
L 592.305461 247.614154 
L 592.35474 244.97421 
L 592.601134 190.159916 
L 592.798249 188.289252 
L 593.044644 183.215407 
L 593.340317 171.734767 
L 593.734547 146.766109 
L 594.375172 89.682088 
L 594.867961 40.288026 
L 595.015798 247.845496 
L 595.459307 247.930209 
L 598.169644 247.950007 
L 616.649212 247.863752 
L 616.944885 247.588358 
L 617.092721 246.956427 
L 617.339115 244.505985 
L 617.684067 238.459637 
L 618.226135 224.047226 
L 618.916039 200.826432 
L 618.965317 197.636949 
L 619.211712 160.340446 
L 619.260991 159.875681 
L 619.408827 247.865033 
L 620.197289 247.940707 
L 628.081904 247.95182 
L 628.722529 247.862051 
L 628.821087 247.775075 
L 629.067481 245.948113 
L 629.215318 245.615758 
L 629.412433 244.579975 
L 629.757385 241.152783 
L 630.348731 232.218656 
L 631.334308 217.099849 
L 631.482145 247.923449 
L 632.517001 247.945388 
L 640.746568 247.903163 
L 641.288635 247.586473 
L 643.407626 246.661006 
L 643.555462 247.934434 
L 644.146809 247.951983 
L 652.869165 247.863423 
L 653.017001 247.722395 
L 653.164838 247.489724 
L 655.135992 246.879783 
L 655.480944 246.82049 
L 655.62878 247.934721 
L 656.220126 247.952504 
L 664.942482 247.864134 
L 665.533828 247.562665 
L 667.554261 246.712745 
L 667.702098 247.934526 
L 668.293444 247.952371 
L 676.966521 247.863909 
L 677.0158 247.82345 
L 677.065079 247.611351 
L 677.114358 245.103123 
L 677.311473 193.14897 
L 677.607146 192.457202 
L 677.754983 191.176786 
L 677.952098 187.395387 
L 678.198492 178.03538 
L 678.543444 155.586889 
L 679.085512 103.833026 
L 679.627579 39.059471 
L 679.775415 247.845965 
L 680.218925 247.930181 
L 682.879983 247.94996 
L 689.089118 247.856724 
L 689.138396 247.6282 
L 689.187675 245.120604 
L 689.384791 193.350103 
L 689.779022 191.388948 
L 690.173252 187.489852 
L 691.257387 175.526181 
L 691.355945 175.175522 
L 691.405223 175.189385 
L 691.55306 176.098577 
L 691.602339 176.080714 
L 691.700897 176.031217 
L 691.848733 247.932158 
L 692.440079 247.947459 
L 701.113156 247.903322 
L 701.852339 247.199731 
L 702.098733 246.139607 
L 702.394407 243.772699 
L 702.788637 238.436978 
L 703.281426 228.227576 
L 703.774214 215.76121 
L 703.922051 247.925321 
L 704.710512 247.944509 
L 713.186474 247.903186 
L 713.38359 247.688532 
L 713.580705 247.281001 
L 713.77782 246.784426 
L 714.073493 245.258853 
L 714.615561 240.852278 
L 715.256186 236.06293 
L 715.551859 235.22685 
L 715.847532 235.189133 
L 715.995368 247.934147 
L 716.586715 247.951903 
L 725.309071 247.863469 
L 725.949696 247.536689 
L 727.92085 246.785296 
L 728.068686 247.934536 
L 728.660032 247.95203 
L 737.382388 247.863574 
L 737.530225 247.725291 
L 737.678061 247.503128 
L 739.4521 246.959769 
L 739.994167 246.860995 
L 740.142004 247.934831 
L 740.73335 247.952685 
L 749.455706 247.86446 
L 750.047052 247.565286 
L 752.067485 246.817913 
L 752.215321 247.934529 
L 752.806668 247.952048 
L 761.479745 247.863587 
L 761.627581 247.644183 
L 761.824697 242.188834 
L 761.873976 242.274185 
L 762.12037 243.14757 
L 762.563879 245.932028 
L 762.760995 246.839788 
L 762.810274 246.802662 
L 762.95811 246.066185 
L 763.697293 241.689326 
L 763.84513 241.043852 
L 764.091524 235.088282 
L 764.140803 235.056661 
L 764.288639 247.934073 
L 764.879985 247.952402 
L 773.553063 247.863994 
L 773.750178 247.64114 
L 773.898014 247.266933 
L 775.918447 246.668735 
L 776.21412 246.471706 
L 776.361957 247.934418 
L 776.953303 247.95247 
L 785.675659 247.864085 
L 785.823496 247.696761 
L 785.971332 247.390433 
L 787.843928 246.94062 
L 788.238159 246.842646 
L 788.385996 247.934773 
L 788.977342 247.952605 
L 797.748977 247.864306 
L 797.896813 247.705106 
L 798.04465 247.421854 
L 799.670852 247.037752 
L 800.311477 246.88551 
L 800.459313 247.934785 
L 801.050659 247.95248 
L 809.822294 247.864097 
L 809.970131 247.713897 
L 810.117967 247.456565 
L 811.744169 247.04136 
L 812.384794 246.909505 
L 812.532631 247.934853 
L 813.123977 247.95259 
L 816.967727 247.952626 
L 816.967727 247.952626 
" clip-path="url(#p4f092070b5)" style="fill: none; stroke-dasharray: 5.55,2.4; stroke-dashoffset: 0; stroke: #ff0000; stroke-width: 1.5"/>
   </g>
   <g id="line2d_31">
    <path d="M 333.887184 258.48 
L 333.887184 26.88 
" clip-path="url(#p4f092070b5)" style="fill: none; stroke-dasharray: 1.5,2.475; stroke-dashoffset: 0; stroke: #808080; stroke-opacity: 0.6; stroke-width: 1.5"/>
   </g>
   <g id="line2d_32">
    <path d="M 575.452095 258.48 
L 575.452095 26.88 
" clip-path="url(#p4f092070b5)" style="fill: none; stroke-dasharray: 1.5,2.475; stroke-dashoffset: 0; stroke: #808080; stroke-opacity: 0.6; stroke-width: 1.5"/>
   </g>
   <g id="patch_3">
    <path d="M 56.09 258.48 
L 56.09 26.88 
" style="fill: none; stroke: #000000; stroke-width: 0.8; stroke-linejoin: miter; stroke-linecap: square"/>
   </g>
   <g id="patch_4">
    <path d="M 853.2 258.48 
L 853.2 26.88 
" style="fill: none; stroke: #000000; stroke-width: 0.8; stroke-linejoin: miter; stroke-linecap: square"/>
   </g>
   <g id="patch_5">
    <path d="M 56.09 258.48 
L 853.2 258.48 
" style="fill: none; stroke: #000000; stroke-width: 0.8; stroke-linejoin: miter; stroke-linecap: square"/>
   </g>
   <g id="patch_6">
    <path d="M 56.09 26.88 
L 853.2 26.88 
" style="fill: none; stroke: #000000; stroke-width: 0.8; stroke-linejoin: miter; stroke-linecap: square"/>
   </g>
   <g id="text_16">
    <!-- [05] dVU  —  Uncertainty (std dev) -->
    <g transform="translate(350.60125 20.88) scale(0.12 -0.12)">
     <defs>
      <path id="DejaVuSans-5b" d="M 550 4863 
L 1875 4863 
L 1875 4416 
L 1125 4416 
L 1125 -397 
L 1875 -397 
L 1875 -844 
L 550 -844 
L 550 4863 
z
" transform="scale(0.015625)"/>
      <path id="DejaVuSans-5d" d="M 1947 4863 
L 1947 -844 
L 622 -844 
L 622 -397 
L 1369 -397 
L 1369 4416 
L 622 4416 
L 622 4863 
L 1947 4863 
z
" transform="scale(0.015625)"/>
      <path id="DejaVuSans-56" d="M 1831 0 
L 50 4666 
L 709 4666 
L 2188 738 
L 3669 4666 
L 4325 4666 
L 2547 0 
L 1831 0 
z
" transform="scale(0.015625)"/>
      <path id="DejaVuSans-55" d="M 556 4666 
L 1191 4666 
L 1191 1831 
Q 1191 1081 1462 751 
Q 1734 422 2344 422 
Q 2950 422 3222 751 
Q 3494 1081 3494 1831 
L 3494 4666 
L 4128 4666 
L 4128 1753 
Q 4128 841 3676 375 
Q 3225 -91 2344 -91 
Q 1459 -91 1007 375 
Q 556 841 556 1753 
L 556 4666 
z
" transform="scale(0.015625)"/>
      <path id="DejaVuSans-2014" d="M 313 1978 
L 6088 1978 
L 6088 1528 
L 313 1528 
L 313 1978 
z
" transform="scale(0.015625)"/>
      <path id="DejaVuSans-6e" d="M 3513 2113 
L 3513 0 
L 2938 0 
L 2938 2094 
Q 2938 2591 2744 2837 
Q 2550 3084 2163 3084 
Q 1697 3084 1428 2787 
Q 1159 2491 1159 1978 
L 1159 0 
L 581 0 
L 581 3500 
L 1159 3500 
L 1159 2956 
Q 1366 3272 1645 3428 
Q 1925 3584 2291 3584 
Q 2894 3584 3203 3211 
Q 3513 2838 3513 2113 
z
" transform="scale(0.015625)"/>
      <path id="DejaVuSans-63" d="M 3122 3366 
L 3122 2828 
Q 2878 2963 2633 3030 
Q 2388 3097 2138 3097 
Q 1578 3097 1268 2742 
Q 959 2388 959 1747 
Q 959 1106 1268 751 
Q 1578 397 2138 397 
Q 2388 397 2633 464 
Q 2878 531 3122 666 
L 3122 134 
Q 2881 22 2623 -34 
Q 2366 -91 2075 -91 
Q 1284 -91 818 406 
Q 353 903 353 1747 
Q 353 2603 823 3093 
Q 1294 3584 2113 3584 
Q 2378 3584 2631 3529 
Q 2884 3475 3122 3366 
z
" transform="scale(0.015625)"/>
      <path id="DejaVuSans-72" d="M 2631 2963 
Q 2534 3019 2420 3045 
Q 2306 3072 2169 3072 
Q 1681 3072 1420 2755 
Q 1159 2438 1159 1844 
L 1159 0 
L 581 0 
L 581 3500 
L 1159 3500 
L 1159 2956 
Q 1341 3275 1631 3429 
Q 1922 3584 2338 3584 
Q 2397 3584 2469 3576 
Q 2541 3569 2628 3553 
L 2631 2963 
z
" transform="scale(0.015625)"/>
      <path id="DejaVuSans-61" d="M 2194 1759 
Q 1497 1759 1228 1600 
Q 959 1441 959 1056 
Q 959 750 1161 570 
Q 1363 391 1709 391 
Q 2188 391 2477 730 
Q 2766 1069 2766 1631 
L 2766 1759 
L 2194 1759 
z
M 3341 1997 
L 3341 0 
L 2766 0 
L 2766 531 
Q 2569 213 2275 61 
Q 1981 -91 1556 -91 
Q 1019 -91 701 211 
Q 384 513 384 1019 
Q 384 1609 779 1909 
Q 1175 2209 1959 2209 
L 2766 2209 
L 2766 2266 
Q 2766 2663 2505 2880 
Q 2244 3097 1772 3097 
Q 1472 3097 1187 3025 
Q 903 2953 641 2809 
L 641 3341 
Q 956 3463 1253 3523 
Q 1550 3584 1831 3584 
Q 2591 3584 2966 3190 
Q 3341 2797 3341 1997 
z
" transform="scale(0.015625)"/>
      <path id="DejaVuSans-69" d="M 603 3500 
L 1178 3500 
L 1178 0 
L 603 0 
L 603 3500 
z
M 603 4863 
L 1178 4863 
L 1178 4134 
L 603 4134 
L 603 4863 
z
" transform="scale(0.015625)"/>
      <path id="DejaVuSans-79" d="M 2059 -325 
Q 1816 -950 1584 -1140 
Q 1353 -1331 966 -1331 
L 506 -1331 
L 506 -850 
L 844 -850 
Q 1081 -850 1212 -737 
Q 1344 -625 1503 -206 
L 1606 56 
L 191 3500 
L 800 3500 
L 1894 763 
L 2988 3500 
L 3597 3500 
L 2059 -325 
z
" transform="scale(0.015625)"/>
      <path id="DejaVuSans-28" d="M 1984 4856 
Q 1566 4138 1362 3434 
Q 1159 2731 1159 2009 
Q 1159 1288 1364 580 
Q 1569 -128 1984 -844 
L 1484 -844 
Q 1016 -109 783 600 
Q 550 1309 550 2009 
Q 550 2706 781 3412 
Q 1013 4119 1484 4856 
L 1984 4856 
z
" transform="scale(0.015625)"/>
      <path id="DejaVuSans-73" d="M 2834 3397 
L 2834 2853 
Q 2591 2978 2328 3040 
Q 2066 3103 1784 3103 
Q 1356 3103 1142 2972 
Q 928 2841 928 2578 
Q 928 2378 1081 2264 
Q 1234 2150 1697 2047 
L 1894 2003 
Q 2506 1872 2764 1633 
Q 3022 1394 3022 966 
Q 3022 478 2636 193 
Q 2250 -91 1575 -91 
Q 1294 -91 989 -36 
Q 684 19 347 128 
L 347 722 
Q 666 556 975 473 
Q 1284 391 1588 391 
Q 1994 391 2212 530 
Q 2431 669 2431 922 
Q 2431 1156 2273 1281 
Q 2116 1406 1581 1522 
L 1381 1569 
Q 847 1681 609 1914 
Q 372 2147 372 2553 
Q 372 3047 722 3315 
Q 1072 3584 1716 3584 
Q 2034 3584 2315 3537 
Q 2597 3491 2834 3397 
z
" transform="scale(0.015625)"/>
      <path id="DejaVuSans-29" d="M 513 4856 
L 1013 4856 
Q 1481 4119 1714 3412 
Q 1947 2706 1947 2009 
Q 1947 1309 1714 600 
Q 1481 -109 1013 -844 
L 513 -844 
Q 928 -128 1133 580 
Q 1338 1288 1338 2009 
Q 1338 2731 1133 3434 
Q 928 4138 513 4856 
z
" transform="scale(0.015625)"/>
     </defs>
     <use xlink:href="#DejaVuSans-5b"/>
     <use xlink:href="#DejaVuSans-30" transform="translate(39.013672 0)"/>
     <use xlink:href="#DejaVuSans-35" transform="translate(102.636719 0)"/>
     <use xlink:href="#DejaVuSans-5d" transform="translate(166.259766 0)"/>
     <use xlink:href="#DejaVuSans-20" transform="translate(205.273438 0)"/>
     <use xlink:href="#DejaVuSans-64" transform="translate(237.060547 0)"/>
     <use xlink:href="#DejaVuSans-56" transform="translate(300.537109 0)"/>
     <use xlink:href="#DejaVuSans-55" transform="translate(368.945312 0)"/>
     <use xlink:href="#DejaVuSans-20" transform="translate(442.138672 0)"/>
     <use xlink:href="#DejaVuSans-20" transform="translate(473.925781 0)"/>
     <use xlink:href="#DejaVuSans-2014" transform="translate(505.712891 0)"/>
     <use xlink:href="#DejaVuSans-20" transform="translate(605.712891 0)"/>
     <use xlink:href="#DejaVuSans-20" transform="translate(637.5 0)"/>
     <use xlink:href="#DejaVuSans-55" transform="translate(669.287109 0)"/>
     <use xlink:href="#DejaVuSans-6e" transform="translate(742.480469 0)"/>
     <use xlink:href="#DejaVuSans-63" transform="translate(805.859375 0)"/>
     <use xlink:href="#DejaVuSans-65" transform="translate(860.839844 0)"/>
     <use xlink:href="#DejaVuSans-72" transform="translate(922.363281 0)"/>
     <use xlink:href="#DejaVuSans-74" transform="translate(963.476562 0)"/>
     <use xlink:href="#DejaVuSans-61" transform="translate(1002.685547 0)"/>
     <use xlink:href="#DejaVuSans-69" transform="translate(1063.964844 0)"/>
     <use xlink:href="#DejaVuSans-6e" transform="translate(1091.748047 0)"/>
     <use xlink:href="#DejaVuSans-74" transform="translate(1155.126953 0)"/>
     <use xlink:href="#DejaVuSans-79" transform="translate(1194.335938 0)"/>
     <use xlink:href="#DejaVuSans-20" transform="translate(1253.515625 0)"/>
     <use xlink:href="#DejaVuSans-28" transform="translate(1285.302734 0)"/>
     <use xlink:href="#DejaVuSans-73" transform="translate(1324.316406 0)"/>
     <use xlink:href="#DejaVuSans-74" transform="translate(1376.416016 0)"/>
     <use xlink:href="#DejaVuSans-64" transform="translate(1415.625 0)"/>
     <use xlink:href="#DejaVuSans-20" transform="translate(1479.101562 0)"/>
     <use xlink:href="#DejaVuSans-64" transform="translate(1510.888672 0)"/>
     <use xlink:href="#DejaVuSans-65" transform="translate(1574.365234 0)"/>
     <use xlink:href="#DejaVuSans-76" transform="translate(1635.888672 0)"/>
     <use xlink:href="#DejaVuSans-29" transform="translate(1695.068359 0)"/>
    </g>
   </g>
   <g id="legend_1">
    <g id="patch_7">
     <path d="M 738.401563 64.23625 
L 846.2 64.23625 
Q 848.2 64.23625 848.2 62.23625 
L 848.2 33.88 
Q 848.2 31.88 846.2 31.88 
L 738.401563 31.88 
Q 736.401563 31.88 736.401563 33.88 
L 736.401563 62.23625 
Q 736.401563 64.23625 738.401563 64.23625 
z
" style="fill: #ffffff; opacity: 0.8; stroke: #cccccc; stroke-linejoin: miter"/>
    </g>
    <g id="line2d_33">
     <path d="M 740.401563 39.978437 
L 750.401563 39.978437 
L 760.401563 39.978437 
" style="fill: none; stroke: #0000ff; stroke-width: 1.5; stroke-linecap: square"/>
    </g>
    <g id="text_17">
     <!-- No Noise -->
     <g transform="translate(768.401563 43.478437) scale(0.1 -0.1)">
      <defs>
       <path id="DejaVuSans-4e" d="M 628 4666 
L 1478 4666 
L 3547 763 
L 3547 4666 
L 4159 4666 
L 4159 0 
L 3309 0 
L 1241 3903 
L 1241 0 
L 628 0 
L 628 4666 
z
" transform="scale(0.015625)"/>
       <path id="DejaVuSans-6f" d="M 1959 3097 
Q 1497 3097 1228 2736 
Q 959 2375 959 1747 
Q 959 1119 1226 758 
Q 1494 397 1959 397 
Q 2419 397 2687 759 
Q 2956 1122 2956 1747 
Q 2956 2369 2687 2733 
Q 2419 3097 1959 3097 
z
M 1959 3584 
Q 2709 3584 3137 3096 
Q 3566 2609 3566 1747 
Q 3566 888 3137 398 
Q 2709 -91 1959 -91 
Q 1206 -91 779 398 
Q 353 888 353 1747 
Q 353 2609 779 3096 
Q 1206 3584 1959 3584 
z
" transform="scale(0.015625)"/>
      </defs>
      <use xlink:href="#DejaVuSans-4e"/>
      <use xlink:href="#DejaVuSans-6f" transform="translate(74.804688 0)"/>
      <use xlink:href="#DejaVuSans-20" transform="translate(135.986328 0)"/>
      <use xlink:href="#DejaVuSans-4e" transform="translate(167.773438 0)"/>
      <use xlink:href="#DejaVuSans-6f" transform="translate(242.578125 0)"/>
      <use xlink:href="#DejaVuSans-69" transform="translate(303.759766 0)"/>
      <use xlink:href="#DejaVuSans-73" transform="translate(331.542969 0)"/>
      <use xlink:href="#DejaVuSans-65" transform="translate(383.642578 0)"/>
     </g>
    </g>
    <g id="line2d_34">
     <path d="M 740.401563 54.656562 
L 750.401563 54.656562 
L 760.401563 54.656562 
" style="fill: none; stroke-dasharray: 5.55,2.4; stroke-dashoffset: 0; stroke: #ff0000; stroke-width: 1.5"/>
    </g>
    <g id="text_18">
     <!-- With ARW/VRW -->
     <g transform="translate(768.401563 58.156562) scale(0.1 -0.1)">
      <defs>
       <path id="DejaVuSans-57" d="M 213 4666 
L 850 4666 
L 1831 722 
L 2809 4666 
L 3519 4666 
L 4500 722 
L 5478 4666 
L 6119 4666 
L 4947 0 
L 4153 0 
L 3169 4050 
L 2175 0 
L 1381 0 
L 213 4666 
z
" transform="scale(0.015625)"/>
       <path id="DejaVuSans-68" d="M 3513 2113 
L 3513 0 
L 2938 0 
L 2938 2094 
Q 2938 2591 2744 2837 
Q 2550 3084 2163 3084 
Q 1697 3084 1428 2787 
Q 1159 2491 1159 1978 
L 1159 0 
L 581 0 
L 581 4863 
L 1159 4863 
L 1159 2956 
Q 1366 3272 1645 3428 
Q 1925 3584 2291 3584 
Q 2894 3584 3203 3211 
Q 3513 2838 3513 2113 
z
" transform="scale(0.015625)"/>
       <path id="DejaVuSans-41" d="M 2188 4044 
L 1331 1722 
L 3047 1722 
L 2188 4044 
z
M 1831 4666 
L 2547 4666 
L 4325 0 
L 3669 0 
L 3244 1197 
L 1141 1197 
L 716 0 
L 50 0 
L 1831 4666 
z
" transform="scale(0.015625)"/>
       <path id="DejaVuSans-52" d="M 2841 2188 
Q 3044 2119 3236 1894 
Q 3428 1669 3622 1275 
L 4263 0 
L 3584 0 
L 2988 1197 
Q 2756 1666 2539 1819 
Q 2322 1972 1947 1972 
L 1259 1972 
L 1259 0 
L 628 0 
L 628 4666 
L 2053 4666 
Q 2853 4666 3247 4331 
Q 3641 3997 3641 3322 
Q 3641 2881 3436 2590 
Q 3231 2300 2841 2188 
z
M 1259 4147 
L 1259 2491 
L 2053 2491 
Q 2509 2491 2742 2702 
Q 2975 2913 2975 3322 
Q 2975 3731 2742 3939 
Q 2509 4147 2053 4147 
L 1259 4147 
z
" transform="scale(0.015625)"/>
       <path id="DejaVuSans-2f" d="M 1625 4666 
L 2156 4666 
L 531 -594 
L 0 -594 
L 1625 4666 
z
" transform="scale(0.015625)"/>
      </defs>
      <use xlink:href="#DejaVuSans-57"/>
      <use xlink:href="#DejaVuSans-69" transform="translate(96.626953 0)"/>
      <use xlink:href="#DejaVuSans-74" transform="translate(124.410156 0)"/>
      <use xlink:href="#DejaVuSans-68" transform="translate(163.619141 0)"/>
      <use xlink:href="#DejaVuSans-20" transform="translate(226.998047 0)"/>
      <use xlink:href="#DejaVuSans-41" transform="translate(258.785156 0)"/>
      <use xlink:href="#DejaVuSans-52" transform="translate(327.193359 0)"/>
      <use xlink:href="#DejaVuSans-57" transform="translate(392.675781 0)"/>
      <use xlink:href="#DejaVuSans-2f" transform="translate(491.552734 0)"/>
      <use xlink:href="#DejaVuSans-56" transform="translate(525.244141 0)"/>
      <use xlink:href="#DejaVuSans-52" transform="translate(593.652344 0)"/>
      <use xlink:href="#DejaVuSans-57" transform="translate(659.134766 0)"/>
     </g>
    </g>
   </g>
  </g>
  <g id="axes_2">
   <g id="patch_8">
    <path d="M 56.09 534.04 
L 853.2 534.04 
L 853.2 302.44 
L 56.09 302.44 
z
" style="fill: #ffffff"/>
   </g>
   <g id="matplotlib.axis_3">
    <g id="xtick_8">
     <g id="line2d_35">
      <path d="M 92.322273 534.04 
L 92.322273 302.44 
" clip-path="url(#pe704f61339)" style="fill: none; stroke: #b0b0b0; stroke-width: 0.8; stroke-linecap: square"/>
     </g>
     <g id="line2d_36">
      <g>
       <use xlink:href="#m0be4a802dd" x="92.322273" y="534.04" style="stroke: #000000; stroke-width: 0.8"/>
      </g>
     </g>
     <g id="text_19">
      <!-- 0 -->
      <g transform="translate(89.141023 548.638438) scale(0.1 -0.1)">
       <use xlink:href="#DejaVuSans-30"/>
      </g>
     </g>
    </g>
    <g id="xtick_9">
     <g id="line2d_37">
      <path d="M 215.519392 534.04 
L 215.519392 302.44 
" clip-path="url(#pe704f61339)" style="fill: none; stroke: #b0b0b0; stroke-width: 0.8; stroke-linecap: square"/>
     </g>
     <g id="line2d_38">
      <g>
       <use xlink:href="#m0be4a802dd" x="215.519392" y="534.04" style="stroke: #000000; stroke-width: 0.8"/>
      </g>
     </g>
     <g id="text_20">
      <!-- 50 -->
      <g transform="translate(209.156892 548.638438) scale(0.1 -0.1)">
       <use xlink:href="#DejaVuSans-35"/>
       <use xlink:href="#DejaVuSans-30" transform="translate(63.623047 0)"/>
      </g>
     </g>
    </g>
    <g id="xtick_10">
     <g id="line2d_39">
      <path d="M 338.716511 534.04 
L 338.716511 302.44 
" clip-path="url(#pe704f61339)" style="fill: none; stroke: #b0b0b0; stroke-width: 0.8; stroke-linecap: square"/>
     </g>
     <g id="line2d_40">
      <g>
       <use xlink:href="#m0be4a802dd" x="338.716511" y="534.04" style="stroke: #000000; stroke-width: 0.8"/>
      </g>
     </g>
     <g id="text_21">
      <!-- 100 -->
      <g transform="translate(329.172761 548.638438) scale(0.1 -0.1)">
       <use xlink:href="#DejaVuSans-31"/>
       <use xlink:href="#DejaVuSans-30" transform="translate(63.623047 0)"/>
       <use xlink:href="#DejaVuSans-30" transform="translate(127.246094 0)"/>
      </g>
     </g>
    </g>
    <g id="xtick_11">
     <g id="line2d_41">
      <path d="M 461.91363 534.04 
L 461.91363 302.44 
" clip-path="url(#pe704f61339)" style="fill: none; stroke: #b0b0b0; stroke-width: 0.8; stroke-linecap: square"/>
     </g>
     <g id="line2d_42">
      <g>
       <use xlink:href="#m0be4a802dd" x="461.91363" y="534.04" style="stroke: #000000; stroke-width: 0.8"/>
      </g>
     </g>
     <g id="text_22">
      <!-- 150 -->
      <g transform="translate(452.36988 548.638438) scale(0.1 -0.1)">
       <use xlink:href="#DejaVuSans-31"/>
       <use xlink:href="#DejaVuSans-35" transform="translate(63.623047 0)"/>
       <use xlink:href="#DejaVuSans-30" transform="translate(127.246094 0)"/>
      </g>
     </g>
    </g>
    <g id="xtick_12">
     <g id="line2d_43">
      <path d="M 585.110749 534.04 
L 585.110749 302.44 
" clip-path="url(#pe704f61339)" style="fill: none; stroke: #b0b0b0; stroke-width: 0.8; stroke-linecap: square"/>
     </g>
     <g id="line2d_44">
      <g>
       <use xlink:href="#m0be4a802dd" x="585.110749" y="534.04" style="stroke: #000000; stroke-width: 0.8"/>
      </g>
     </g>
     <g id="text_23">
      <!-- 200 -->
      <g transform="translate(575.566999 548.638438) scale(0.1 -0.1)">
       <use xlink:href="#DejaVuSans-32"/>
       <use xlink:href="#DejaVuSans-30" transform="translate(63.623047 0)"/>
       <use xlink:href="#DejaVuSans-30" transform="translate(127.246094 0)"/>
      </g>
     </g>
    </g>
    <g id="xtick_13">
     <g id="line2d_45">
      <path d="M 708.307868 534.04 
L 708.307868 302.44 
" clip-path="url(#pe704f61339)" style="fill: none; stroke: #b0b0b0; stroke-width: 0.8; stroke-linecap: square"/>
     </g>
     <g id="line2d_46">
      <g>
       <use xlink:href="#m0be4a802dd" x="708.307868" y="534.04" style="stroke: #000000; stroke-width: 0.8"/>
      </g>
     </g>
     <g id="text_24">
      <!-- 250 -->
      <g transform="translate(698.764118 548.638438) scale(0.1 -0.1)">
       <use xlink:href="#DejaVuSans-32"/>
       <use xlink:href="#DejaVuSans-35" transform="translate(63.623047 0)"/>
       <use xlink:href="#DejaVuSans-30" transform="translate(127.246094 0)"/>
      </g>
     </g>
    </g>
    <g id="xtick_14">
     <g id="line2d_47">
      <path d="M 831.504987 534.04 
L 831.504987 302.44 
" clip-path="url(#pe704f61339)" style="fill: none; stroke: #b0b0b0; stroke-width: 0.8; stroke-linecap: square"/>
     </g>
     <g id="line2d_48">
      <g>
       <use xlink:href="#m0be4a802dd" x="831.504987" y="534.04" style="stroke: #000000; stroke-width: 0.8"/>
      </g>
     </g>
     <g id="text_25">
      <!-- 300 -->
      <g transform="translate(821.961237 548.638438) scale(0.1 -0.1)">
       <use xlink:href="#DejaVuSans-33"/>
       <use xlink:href="#DejaVuSans-30" transform="translate(63.623047 0)"/>
       <use xlink:href="#DejaVuSans-30" transform="translate(127.246094 0)"/>
      </g>
     </g>
    </g>
    <g id="text_26">
     <!-- Time (s) -->
     <g transform="translate(434.316094 562.316562) scale(0.1 -0.1)">
      <defs>
       <path id="DejaVuSans-54" d="M -19 4666 
L 3928 4666 
L 3928 4134 
L 2272 4134 
L 2272 0 
L 1638 0 
L 1638 4134 
L -19 4134 
L -19 4666 
z
" transform="scale(0.015625)"/>
       <path id="DejaVuSans-6d" d="M 3328 2828 
Q 3544 3216 3844 3400 
Q 4144 3584 4550 3584 
Q 5097 3584 5394 3201 
Q 5691 2819 5691 2113 
L 5691 0 
L 5113 0 
L 5113 2094 
Q 5113 2597 4934 2840 
Q 4756 3084 4391 3084 
Q 3944 3084 3684 2787 
Q 3425 2491 3425 1978 
L 3425 0 
L 2847 0 
L 2847 2094 
Q 2847 2600 2669 2842 
Q 2491 3084 2119 3084 
Q 1678 3084 1418 2786 
Q 1159 2488 1159 1978 
L 1159 0 
L 581 0 
L 581 3500 
L 1159 3500 
L 1159 2956 
Q 1356 3278 1631 3431 
Q 1906 3584 2284 3584 
Q 2666 3584 2933 3390 
Q 3200 3197 3328 2828 
z
" transform="scale(0.015625)"/>
      </defs>
      <use xlink:href="#DejaVuSans-54"/>
      <use xlink:href="#DejaVuSans-69" transform="translate(57.958984 0)"/>
      <use xlink:href="#DejaVuSans-6d" transform="translate(85.742188 0)"/>
      <use xlink:href="#DejaVuSans-65" transform="translate(183.154297 0)"/>
      <use xlink:href="#DejaVuSans-20" transform="translate(244.677734 0)"/>
      <use xlink:href="#DejaVuSans-28" transform="translate(276.464844 0)"/>
      <use xlink:href="#DejaVuSans-73" transform="translate(315.478516 0)"/>
      <use xlink:href="#DejaVuSans-29" transform="translate(367.578125 0)"/>
     </g>
    </g>
   </g>
   <g id="matplotlib.axis_4">
    <g id="ytick_8">
     <g id="line2d_49">
      <path d="M 56.09 519.966868 
L 853.2 519.966868 
" clip-path="url(#pe704f61339)" style="fill: none; stroke: #b0b0b0; stroke-width: 0.8; stroke-linecap: square"/>
     </g>
     <g id="line2d_50">
      <g>
       <use xlink:href="#mf2c3e24d1d" x="56.09" y="519.966868" style="stroke: #000000; stroke-width: 0.8"/>
      </g>
     </g>
     <g id="text_27">
      <!-- −0.8 -->
      <g transform="translate(24.807187 523.766086) scale(0.1 -0.1)">
       <defs>
        <path id="DejaVuSans-2212" d="M 678 2272 
L 4684 2272 
L 4684 1741 
L 678 1741 
L 678 2272 
z
" transform="scale(0.015625)"/>
        <path id="DejaVuSans-38" d="M 2034 2216 
Q 1584 2216 1326 1975 
Q 1069 1734 1069 1313 
Q 1069 891 1326 650 
Q 1584 409 2034 409 
Q 2484 409 2743 651 
Q 3003 894 3003 1313 
Q 3003 1734 2745 1975 
Q 2488 2216 2034 2216 
z
M 1403 2484 
Q 997 2584 770 2862 
Q 544 3141 544 3541 
Q 544 4100 942 4425 
Q 1341 4750 2034 4750 
Q 2731 4750 3128 4425 
Q 3525 4100 3525 3541 
Q 3525 3141 3298 2862 
Q 3072 2584 2669 2484 
Q 3125 2378 3379 2068 
Q 3634 1759 3634 1313 
Q 3634 634 3220 271 
Q 2806 -91 2034 -91 
Q 1263 -91 848 271 
Q 434 634 434 1313 
Q 434 1759 690 2068 
Q 947 2378 1403 2484 
z
M 1172 3481 
Q 1172 3119 1398 2916 
Q 1625 2713 2034 2713 
Q 2441 2713 2670 2916 
Q 2900 3119 2900 3481 
Q 2900 3844 2670 4047 
Q 2441 4250 2034 4250 
Q 1625 4250 1398 4047 
Q 1172 3844 1172 3481 
z
" transform="scale(0.015625)"/>
       </defs>
       <use xlink:href="#DejaVuSans-2212"/>
       <use xlink:href="#DejaVuSans-30" transform="translate(83.789062 0)"/>
       <use xlink:href="#DejaVuSans-2e" transform="translate(147.412109 0)"/>
       <use xlink:href="#DejaVuSans-38" transform="translate(179.199219 0)"/>
      </g>
     </g>
    </g>
    <g id="ytick_9">
     <g id="line2d_51">
      <path d="M 56.09 468.984295 
L 853.2 468.984295 
" clip-path="url(#pe704f61339)" style="fill: none; stroke: #b0b0b0; stroke-width: 0.8; stroke-linecap: square"/>
     </g>
     <g id="line2d_52">
      <g>
       <use xlink:href="#mf2c3e24d1d" x="56.09" y="468.984295" style="stroke: #000000; stroke-width: 0.8"/>
      </g>
     </g>
     <g id="text_28">
      <!-- −0.6 -->
      <g transform="translate(24.807187 472.783514) scale(0.1 -0.1)">
       <use xlink:href="#DejaVuSans-2212"/>
       <use xlink:href="#DejaVuSans-30" transform="translate(83.789062 0)"/>
       <use xlink:href="#DejaVuSans-2e" transform="translate(147.412109 0)"/>
       <use xlink:href="#DejaVuSans-36" transform="translate(179.199219 0)"/>
      </g>
     </g>
    </g>
    <g id="ytick_10">
     <g id="line2d_53">
      <path d="M 56.09 418.001723 
L 853.2 418.001723 
" clip-path="url(#pe704f61339)" style="fill: none; stroke: #b0b0b0; stroke-width: 0.8; stroke-linecap: square"/>
     </g>
     <g id="line2d_54">
      <g>
       <use xlink:href="#mf2c3e24d1d" x="56.09" y="418.001723" style="stroke: #000000; stroke-width: 0.8"/>
      </g>
     </g>
     <g id="text_29">
      <!-- −0.4 -->
      <g transform="translate(24.807187 421.800942) scale(0.1 -0.1)">
       <use xlink:href="#DejaVuSans-2212"/>
       <use xlink:href="#DejaVuSans-30" transform="translate(83.789062 0)"/>
       <use xlink:href="#DejaVuSans-2e" transform="translate(147.412109 0)"/>
       <use xlink:href="#DejaVuSans-34" transform="translate(179.199219 0)"/>
      </g>
     </g>
    </g>
    <g id="ytick_11">
     <g id="line2d_55">
      <path d="M 56.09 367.019151 
L 853.2 367.019151 
" clip-path="url(#pe704f61339)" style="fill: none; stroke: #b0b0b0; stroke-width: 0.8; stroke-linecap: square"/>
     </g>
     <g id="line2d_56">
      <g>
       <use xlink:href="#mf2c3e24d1d" x="56.09" y="367.019151" style="stroke: #000000; stroke-width: 0.8"/>
      </g>
     </g>
     <g id="text_30">
      <!-- −0.2 -->
      <g transform="translate(24.807187 370.81837) scale(0.1 -0.1)">
       <use xlink:href="#DejaVuSans-2212"/>
       <use xlink:href="#DejaVuSans-30" transform="translate(83.789062 0)"/>
       <use xlink:href="#DejaVuSans-2e" transform="translate(147.412109 0)"/>
       <use xlink:href="#DejaVuSans-32" transform="translate(179.199219 0)"/>
      </g>
     </g>
    </g>
    <g id="ytick_12">
     <g id="line2d_57">
      <path d="M 56.09 316.036579 
L 853.2 316.036579 
" clip-path="url(#pe704f61339)" style="fill: none; stroke: #b0b0b0; stroke-width: 0.8; stroke-linecap: square"/>
     </g>
     <g id="line2d_58">
      <g>
       <use xlink:href="#mf2c3e24d1d" x="56.09" y="316.036579" style="stroke: #000000; stroke-width: 0.8"/>
      </g>
     </g>
     <g id="text_31">
      <!-- 0.0 -->
      <g transform="translate(33.186875 319.835798) scale(0.1 -0.1)">
       <use xlink:href="#DejaVuSans-30"/>
       <use xlink:href="#DejaVuSans-2e" transform="translate(63.623047 0)"/>
       <use xlink:href="#DejaVuSans-30" transform="translate(95.410156 0)"/>
      </g>
     </g>
    </g>
    <g id="text_32">
     <!-- Estimated Value -->
     <g transform="translate(18.7275 458.818906) rotate(-90) scale(0.1 -0.1)">
      <defs>
       <path id="DejaVuSans-45" d="M 628 4666 
L 3578 4666 
L 3578 4134 
L 1259 4134 
L 1259 2753 
L 3481 2753 
L 3481 2222 
L 1259 2222 
L 1259 531 
L 3634 531 
L 3634 0 
L 628 0 
L 628 4666 
z
" transform="scale(0.015625)"/>
       <path id="DejaVuSans-6c" d="M 603 4863 
L 1178 4863 
L 1178 0 
L 603 0 
L 603 4863 
z
" transform="scale(0.015625)"/>
       <path id="DejaVuSans-75" d="M 544 1381 
L 544 3500 
L 1119 3500 
L 1119 1403 
Q 1119 906 1312 657 
Q 1506 409 1894 409 
Q 2359 409 2629 706 
Q 2900 1003 2900 1516 
L 2900 3500 
L 3475 3500 
L 3475 0 
L 2900 0 
L 2900 538 
Q 2691 219 2414 64 
Q 2138 -91 1772 -91 
Q 1169 -91 856 284 
Q 544 659 544 1381 
z
M 1991 3584 
L 1991 3584 
z
" transform="scale(0.015625)"/>
      </defs>
      <use xlink:href="#DejaVuSans-45"/>
      <use xlink:href="#DejaVuSans-73" transform="translate(63.183594 0)"/>
      <use xlink:href="#DejaVuSans-74" transform="translate(115.283203 0)"/>
      <use xlink:href="#DejaVuSans-69" transform="translate(154.492188 0)"/>
      <use xlink:href="#DejaVuSans-6d" transform="translate(182.275391 0)"/>
      <use xlink:href="#DejaVuSans-61" transform="translate(279.6875 0)"/>
      <use xlink:href="#DejaVuSans-74" transform="translate(340.966797 0)"/>
      <use xlink:href="#DejaVuSans-65" transform="translate(380.175781 0)"/>
      <use xlink:href="#DejaVuSans-64" transform="translate(441.699219 0)"/>
      <use xlink:href="#DejaVuSans-20" transform="translate(505.175781 0)"/>
      <use xlink:href="#DejaVuSans-56" transform="translate(536.962891 0)"/>
      <use xlink:href="#DejaVuSans-61" transform="translate(597.621094 0)"/>
      <use xlink:href="#DejaVuSans-6c" transform="translate(658.900391 0)"/>
      <use xlink:href="#DejaVuSans-75" transform="translate(686.683594 0)"/>
      <use xlink:href="#DejaVuSans-65" transform="translate(750.0625 0)"/>
     </g>
    </g>
   </g>
   <g id="line2d_59">
    <path d="M 92.322273 316.095983 
L 93.110734 317.046007 
L 110.013379 337.261631 
L 110.604725 337.544175 
L 111.097514 337.546686 
L 111.68886 337.299856 
L 111.738139 337.274093 
L 111.885975 344.578933 
L 123.860735 388.342855 
L 134.603524 427.178729 
L 135.096312 428.08807 
L 135.391986 428.287394 
L 135.63838 428.231788 
L 136.131168 427.860179 
L 136.180447 430.031923 
L 136.279005 429.94335 
L 139.679245 426.895884 
L 145.691265 421.432313 
L 145.937659 419.950847 
L 146.282611 419.361114 
L 146.775399 418.015065 
L 148.45088 412.952069 
L 159.637179 379.612211 
L 159.982131 379.124462 
L 160.228525 377.646472 
L 169.8379 369.015364 
L 170.084294 370.172966 
L 170.379967 370.293745 
L 170.724919 370.757128 
L 171.168429 371.807613 
L 171.907612 374.288241 
L 182.995352 414.254697 
L 183.635977 415.628291 
L 184.128766 416.352961 
L 184.37516 417.906488 
L 194.280208 429.709371 
L 195.019391 430.146127 
L 195.561459 430.203201 
L 196.054247 430.033191 
L 196.497757 429.737954 
L 196.547035 430.609964 
L 196.645593 430.441655 
L 199.454487 424.57853 
L 206.353526 410.473886 
L 206.649199 410.369337 
L 206.895593 410.513703 
L 207.240545 411.047502 
L 207.733334 412.356745 
L 208.571074 415.301867 
L 208.718911 419.97043 
L 218.821075 456.476378 
L 219.412421 457.837069 
L 219.954488 458.573067 
L 220.348719 459.003619 
L 220.595113 461.860989 
L 220.644392 461.959382 
L 220.792229 462.993338 
L 230.204488 486.052155 
L 230.352325 483.833117 
L 230.401604 483.84495 
L 230.943671 484.076066 
L 231.288623 483.995911 
L 231.633575 483.686636 
L 232.027806 483.018181 
L 232.668431 481.376601 
L 243.016989 451.227028 
L 243.460498 450.687604 
L 243.854729 450.537057 
L 244.24896 450.640984 
L 244.495354 450.668551 
L 244.643191 448.498295 
L 244.69247 448.591288 
L 248.684056 458.375124 
L 254.351124 472.492673 
L 254.597518 475.379942 
L 255.188864 476.196243 
L 255.78021 477.452288 
L 256.420835 479.395082 
L 258.78622 488.015686 
L 267.705691 520.069068 
L 268.149201 520.91077 
L 268.494153 521.147718 
L 268.64199 521.271444 
L 268.789826 523.512727 
L 268.839105 523.438743 
L 272.830692 515.224244 
L 278.497759 503.387494 
L 278.694875 501.725545 
L 279.286221 501.119234 
L 280.715307 499.226836 
L 280.961701 498.07274 
L 281.01098 498.016084 
L 281.060259 498.265848 
L 281.109538 498.208078 
L 290.226125 487.952176 
L 290.571077 487.606958 
L 290.718913 488.222508 
L 290.768192 488.196753 
L 291.359538 487.939186 
L 291.852327 487.978344 
L 292.443673 488.287893 
L 292.788625 488.454442 
L 292.936461 487.088613 
L 292.98574 487.18753 
L 297.913625 498.980273 
L 302.644394 510.198014 
L 302.792231 508.762471 
L 302.890789 508.81879 
L 303.629971 509.254393 
L 304.12276 509.313361 
L 304.615548 509.141581 
L 304.861943 509.023566 
L 305.009779 509.630047 
L 305.059058 509.583112 
L 313.682856 499.928784 
L 314.717712 498.720674 
L 314.964106 497.7221 
L 316.09752 496.521951 
L 316.93526 495.708149 
L 317.181655 493.590395 
L 317.575885 492.724729 
L 326.79103 473.738356 
L 326.988145 475.218911 
L 327.037424 475.202302 
L 327.530213 475.136993 
L 328.023001 475.293084 
L 328.712905 475.773512 
L 329.008578 475.970719 
L 329.156414 475.351134 
L 329.205693 475.401877 
L 333.837905 481.002545 
L 333.887184 316.036631 
L 333.985742 316.03673 
L 353.056656 315.948329 
L 354.633579 315.949702 
L 389.769397 316.068976 
L 389.917234 315.862441 
L 396.964109 315.865711 
L 413.916032 315.776535 
L 414.211706 315.754524 
L 426.038629 315.661066 
L 428.946081 315.660436 
L 461.519399 315.585434 
L 466.447284 315.553983 
L 484.384785 315.521659 
L 489.509785 315.463507 
L 508.827093 315.43673 
L 515.036228 315.3773 
L 534.008584 315.31585 
L 537.063873 315.272474 
L 556.282623 315.230649 
L 556.726133 315.188278 
L 570.819883 315.234415 
L 571.016999 315.183583 
L 575.402816 315.187688 
L 575.550653 316.036987 
L 631.334308 316.260513 
L 631.482145 316.058525 
L 666.125175 316.091509 
L 671.348732 316.064071 
L 690.616762 316.0072 
L 692.538637 316.043842 
L 726.738157 316.023222 
L 730.138398 316.033052 
L 764.140803 316.106969 
L 764.288639 316.031068 
L 783.359553 316.05087 
L 812.384794 316.076577 
L 812.58191 316.028524 
L 816.967727 316.039994 
L 816.967727 316.039994 
" clip-path="url(#pe704f61339)" style="fill: none; stroke: #0000ff; stroke-width: 1.5; stroke-linecap: square"/>
   </g>
   <g id="line2d_60">
    <path d="M 92.322273 316.07174 
L 94.194869 318.319093 
L 98.974917 324.148959 
L 100.256167 325.656966 
L 101.685254 327.399246 
L 109.766985 337.102 
L 110.309052 337.427301 
L 110.801841 337.480872 
L 111.294629 337.312649 
L 111.738139 337.017942 
L 111.885975 344.669499 
L 114.349918 353.856247 
L 134.504966 427.232916 
L 134.997755 428.263475 
L 135.342707 428.573001 
L 135.589101 428.556292 
L 136.131168 428.141017 
L 136.180447 430.469377 
L 136.279005 430.379411 
L 137.412418 429.357707 
L 139.679245 427.418298 
L 141.354726 425.953228 
L 144.705688 422.921669 
L 145.641986 422.047563 
L 145.691265 421.932544 
L 145.937659 420.312162 
L 146.282611 419.768622 
L 146.775399 418.509421 
L 147.810255 414.99517 
L 148.204486 413.767609 
L 148.253765 413.992833 
L 148.303044 413.85174 
L 151.062659 405.454484 
L 153.378765 398.547047 
L 159.686457 379.965069 
L 159.982131 379.562614 
L 160.228525 377.960907 
L 160.86915 377.531949 
L 162.791025 375.829946 
L 163.727323 374.96053 
L 167.324679 371.713648 
L 169.147996 370.118467 
L 169.739342 369.582873 
L 169.8379 369.574024 
L 170.084294 370.858511 
L 170.379967 370.994638 
L 170.724919 371.46845 
L 171.168429 372.521492 
L 171.907612 374.997407 
L 182.847516 414.397042 
L 183.53742 416.011291 
L 184.128766 416.903599 
L 184.37516 418.549653 
L 184.424439 418.609363 
L 184.473718 418.451845 
L 184.522997 418.50002 
L 194.280208 430.108363 
L 194.970112 430.468516 
L 195.462901 430.494628 
L 195.955689 430.290023 
L 196.497757 429.829363 
L 196.547035 430.959599 
L 196.645593 430.776289 
L 198.271795 427.433842 
L 200.341507 422.972862 
L 202.559055 418.321555 
L 204.283815 414.640556 
L 205.663622 411.786843 
L 206.402805 410.503141 
L 206.698478 410.424749 
L 206.944872 410.589757 
L 207.289824 411.148696 
L 207.782613 412.482451 
L 208.571074 415.261526 
L 208.718911 420.029755 
L 218.968911 456.802133 
L 219.560257 457.999475 
L 220.102325 458.623305 
L 220.348719 458.932282 
L 220.595113 461.771955 
L 220.644392 461.871042 
L 220.792229 463.00441 
L 230.15521 485.839611 
L 230.204488 485.831465 
L 230.352325 483.562949 
L 230.401604 483.5762 
L 230.943671 483.843106 
L 231.288623 483.793536 
L 231.633575 483.514971 
L 232.027806 482.875307 
L 232.619152 481.396191 
L 232.71771 481.106743 
L 232.914825 480.106119 
L 240.208094 458.603652 
L 243.066268 450.953692 
L 243.509777 450.485936 
L 243.904008 450.395837 
L 244.298239 450.548228 
L 244.446075 450.635486 
L 244.495354 450.548035 
L 244.643191 448.260642 
L 244.69247 448.351371 
L 249.078287 458.910382 
L 250.211701 461.704077 
L 252.577085 467.587931 
L 254.351124 472.145647 
L 254.597518 475.116583 
L 255.188864 475.91021 
L 255.730932 477.007539 
L 256.371557 478.877635 
L 258.145595 485.305191 
L 261.250162 496.738106 
L 268.001365 520.440548 
L 268.346316 520.82936 
L 268.64199 520.994185 
L 268.789826 523.298887 
L 268.839105 523.224265 
L 274.555451 511.403926 
L 276.083096 508.179378 
L 278.497759 503.229932 
L 278.694875 501.514105 
L 279.236942 500.945189 
L 280.715307 498.957748 
L 280.961701 497.734812 
L 281.01098 497.678443 
L 281.060259 498.238627 
L 281.158817 498.131341 
L 284.657615 494.215604 
L 285.446077 493.356977 
L 288.550644 489.825789 
L 289.339106 488.979397 
L 290.571077 487.712278 
L 290.718913 488.276367 
L 290.768192 488.252277 
L 291.359538 488.004076 
L 291.852327 488.022578 
L 292.443673 488.292981 
L 292.788625 488.442445 
L 292.936461 487.013695 
L 292.98574 487.110671 
L 295.301846 492.742993 
L 296.780212 496.308675 
L 300.377567 504.71491 
L 302.644394 509.989604 
L 302.792231 508.508622 
L 302.890789 508.564453 
L 303.67925 509.037263 
L 304.221318 509.106015 
L 304.714106 508.929268 
L 304.861943 508.876506 
L 305.009779 509.409263 
L 305.059058 509.361887 
L 310.331895 503.427139 
L 311.662424 501.916108 
L 314.126366 498.990748 
L 314.717712 498.262323 
L 314.964106 497.368264 
L 315.900404 496.379524 
L 316.93526 495.331655 
L 317.181655 493.202174 
L 317.37877 492.604792 
L 319.49776 488.316577 
L 321.764587 483.531368 
L 325.904011 475.11277 
L 326.79103 473.381066 
L 326.988145 474.871689 
L 327.037424 474.853775 
L 327.579491 474.764631 
L 328.121559 474.912835 
L 328.860741 475.385059 
L 329.008578 475.454317 
L 329.156414 474.893086 
L 329.205693 474.944554 
L 329.944876 475.989688 
L 333.049443 479.861749 
L 333.837905 480.726225 
L 333.887184 316.012225 
L 333.985742 316.022306 
L 334.527809 316.03677 
L 349.410021 316.036052 
L 349.952088 316.061952 
L 350.691271 316.076287 
L 352.0218 315.973055 
L 353.30305 315.735777 
L 353.450886 315.922288 
L 353.845117 315.901922 
L 358.575887 316.235101 
L 359.167233 316.26121 
L 362.025406 316.337024 
L 364.440069 316.252119 
L 366.608339 316.266071 
L 367.938868 316.271217 
L 368.480935 316.226621 
L 376.562666 316.306604 
L 377.696079 316.338872 
L 377.843916 316.161629 
L 378.730935 316.188518 
L 379.420839 316.153646 
L 380.160022 316.202844 
L 382.82108 316.304291 
L 388.044637 316.275183 
L 389.769397 316.636316 
L 389.818676 316.124526 
L 389.917234 316.135222 
L 393.465311 316.021681 
L 394.992955 316.101985 
L 398.146801 316.098933 
L 401.596321 316.010234 
L 401.842715 315.987273 
L 401.990551 316.147435 
L 403.370359 316.201606 
L 404.898003 316.200911 
L 405.390792 316.188667 
L 413.916032 316.241583 
L 414.063869 316.029007 
L 415.887186 316.063962 
L 416.478533 316.053487 
L 417.907619 316.112347 
L 418.548244 316.230659 
L 419.238148 316.204228 
L 420.667235 316.161131 
L 422.096321 316.122319 
L 425.98935 316.033632 
L 426.137187 315.808961 
L 428.699687 315.75078 
L 430.128773 315.781667 
L 431.360744 315.702285 
L 433.085504 315.679677 
L 436.68286 315.702409 
L 438.062668 315.52519 
L 438.161225 315.755589 
L 438.210504 315.743207 
L 439.590312 315.799762 
L 440.280216 315.791119 
L 441.315072 315.662331 
L 442.004976 315.655115 
L 443.976129 315.621909 
L 444.912428 315.634753 
L 445.799447 315.556357 
L 446.440072 315.550372 
L 447.573485 315.555147 
L 448.65762 315.440414 
L 450.037428 315.337232 
L 460.681659 315.259623 
L 464.180457 315.190994 
L 466.545842 315.319764 
L 472.16363 315.342422 
L 474.282621 315.50865 
L 474.430457 315.004877 
L 475.760986 315.031456 
L 476.401611 315.00755 
L 476.8944 315.023771 
L 477.387188 315.045783 
L 482.462909 315.079796 
L 483.596323 315.191275 
L 486.109544 315.082632 
L 486.454496 315.004481 
L 487.932862 314.94305 
L 489.312669 314.836509 
L 490.692477 314.961458 
L 491.185266 314.982716 
L 492.121564 314.982202 
L 498.527814 315.090401 
L 500.006179 315.119097 
L 501.533824 315.136434 
L 502.96291 315.203129 
L 506.166035 315.170494 
L 507.003776 315.15429 
L 507.644401 315.168672 
L 515.184064 315.049288 
L 515.873968 315.082212 
L 517.598728 315.020334 
L 518.436468 315.041498 
L 518.879978 315.099589 
L 519.619161 315.162186 
L 522.280218 315.22582 
L 522.526613 315.101543 
L 522.575891 315.101987 
L 522.723728 315.220137 
L 525.18767 315.233938 
L 526.518199 315.28217 
L 530.115555 315.25417 
L 530.608344 315.27631 
L 531.692478 315.362201 
L 533.023007 315.389711 
L 534.649209 315.230527 
L 534.797046 315.329944 
L 543.026613 315.265735 
L 543.962911 315.303065 
L 545.342719 315.26095 
L 550.172046 315.249439 
L 551.551854 315.234878 
L 553.227335 315.221059 
L 555.444883 315.130542 
L 556.578296 315.038201 
L 558.746566 315.057037 
L 558.894402 314.893096 
L 566.631181 315.0539 
L 567.222527 315.099059 
L 575.205701 315.302191 
L 575.402816 315.272087 
L 575.550653 316.023116 
L 576.043441 316.028254 
L 576.437672 315.997126 
L 576.93046 315.994815 
L 577.37397 316.00578 
L 578.359547 316.008906 
L 580.577095 316.089535 
L 585.50498 316.041089 
L 586.145605 316.077077 
L 588.412432 316.106475 
L 589.200893 316.129945 
L 592.256182 316.103643 
L 592.404019 315.989591 
L 592.551855 315.815967 
L 593.389596 315.660036 
L 594.867961 315.079647 
L 595.015798 316.035845 
L 595.410028 316.009112 
L 600.140798 316.342168 
L 600.732144 316.368264 
L 603.590317 316.444028 
L 606.004981 316.359086 
L 608.17325 316.373009 
L 609.503779 316.378139 
L 610.045846 316.333535 
L 617.979741 316.416981 
L 619.260991 316.586473 
L 619.359548 316.279277 
L 619.408827 316.289337 
L 620.000173 316.329601 
L 623.055462 316.404001 
L 624.188875 316.449136 
L 625.223731 316.413128 
L 629.510991 316.396823 
L 630.496568 316.736648 
L 631.334308 317.115558 
L 631.383587 316.312065 
L 631.482145 316.332548 
L 637.050655 316.297531 
L 637.888395 316.315812 
L 638.676857 316.246687 
L 639.218924 316.285277 
L 640.992962 316.342304 
L 643.111953 316.227181 
L 643.407626 316.192049 
L 643.555462 316.425341 
L 644.885991 316.488774 
L 645.526616 316.512317 
L 647.547049 316.446325 
L 648.729741 316.385884 
L 650.010991 316.460804 
L 651.538636 316.53241 
L 652.573492 316.488395 
L 655.480944 316.508929 
L 655.62878 316.336042 
L 658.289838 316.359342 
L 659.078299 316.372225 
L 659.718924 316.470635 
L 660.359549 316.527447 
L 671.151617 316.171146 
L 671.940079 316.135731 
L 672.827098 316.096419 
L 675.882386 316.103925 
L 676.769406 316.140056 
L 677.114358 316.163767 
L 677.360752 316.600575 
L 678.395608 316.575525 
L 678.74056 316.322233 
L 679.13479 315.716554 
L 679.331906 315.186014 
L 679.5783 313.097096 
L 679.627579 312.967273 
L 679.676858 316.138826 
L 679.775415 316.118325 
L 682.288637 316.093488 
L 682.978541 316.050957 
L 689.187675 315.974189 
L 689.43407 316.84469 
L 689.680464 317.342814 
L 690.025416 318.655212 
L 691.257387 323.919381 
L 691.503781 324.129507 
L 691.700897 324.200922 
L 691.848733 315.799846 
L 701.852339 315.805434 
L 702.295849 316.137207 
L 702.739358 316.76327 
L 703.232147 317.878475 
L 703.774214 319.44651 
L 703.823493 315.696839 
L 703.922051 315.710467 
L 704.858349 315.651278 
L 706.780224 315.671302 
L 711.067484 315.782495 
L 712.693686 315.775156 
L 713.285032 315.756535 
L 713.77782 315.864159 
L 714.517003 316.257807 
L 715.354743 316.676298 
L 715.847532 316.715856 
L 715.94609 315.506877 
L 715.995368 315.510321 
L 718.360753 315.506235 
L 719.592724 315.588885 
L 720.676859 315.527342 
L 723.978542 315.567155 
L 725.111955 315.685995 
L 726.442484 315.608964 
L 727.970128 315.541683 
L 729.990561 315.479328 
L 732.208109 315.485948 
L 732.700898 315.518687 
L 734.672052 315.546985 
L 735.411234 315.588547 
L 739.156427 315.641605 
L 740.536235 315.640827 
L 741.029023 315.650624 
L 741.718927 315.726451 
L 742.655225 315.756318 
L 743.443687 315.740667 
L 744.478542 315.789781 
L 751.722533 315.644521 
L 752.855946 315.695967 
L 753.742966 315.67029 
L 754.482148 315.643608 
L 755.517004 315.655675 
L 761.233351 315.78371 
L 761.627581 315.867028 
L 761.824697 316.869374 
L 762.169649 316.653607 
L 762.711716 315.967931 
L 763.549456 314.941729 
L 763.84513 314.737933 
L 764.042245 313.595686 
L 764.140803 313.585403 
L 764.288639 315.871277 
L 766.654024 315.875473 
L 767.541043 315.903912 
L 768.378783 315.939174 
L 769.019409 315.913606 
L 769.660034 315.9001 
L 771.08912 315.932296 
L 771.926861 315.892923 
L 773.65162 316.032964 
L 774.686476 315.974004 
L 776.21412 315.780647 
L 776.361957 316.027286 
L 784.443688 316.000121 
L 786.119169 316.014015 
L 794.693688 315.984314 
L 798.783832 315.845855 
L 800.311477 315.848262 
L 800.459313 315.682406 
L 808.196092 315.835581 
L 808.787439 315.880162 
L 816.721333 316.072552 
L 816.967727 316.038906 
L 816.967727 316.038906 
" clip-path="url(#pe704f61339)" style="fill: none; stroke-dasharray: 5.55,2.4; stroke-dashoffset: 0; stroke: #ff0000; stroke-width: 1.5"/>
   </g>
   <g id="line2d_61">
    <path d="M 333.887184 534.04 
L 333.887184 302.44 
" clip-path="url(#pe704f61339)" style="fill: none; stroke-dasharray: 1.5,2.475; stroke-dashoffset: 0; stroke: #808080; stroke-opacity: 0.6; stroke-width: 1.5"/>
   </g>
   <g id="line2d_62">
    <path d="M 575.452095 534.04 
L 575.452095 302.44 
" clip-path="url(#pe704f61339)" style="fill: none; stroke-dasharray: 1.5,2.475; stroke-dashoffset: 0; stroke: #808080; stroke-opacity: 0.6; stroke-width: 1.5"/>
   </g>
   <g id="patch_9">
    <path d="M 56.09 534.04 
L 56.09 302.44 
" style="fill: none; stroke: #000000; stroke-width: 0.8; stroke-linejoin: miter; stroke-linecap: square"/>
   </g>
   <g id="patch_10">
    <path d="M 853.2 534.04 
L 853.2 302.44 
" style="fill: none; stroke: #000000; stroke-width: 0.8; stroke-linejoin: miter; stroke-linecap: square"/>
   </g>
   <g id="patch_11">
    <path d="M 56.09 534.04 
L 853.2 534.04 
" style="fill: none; stroke: #000000; stroke-width: 0.8; stroke-linejoin: miter; stroke-linecap: square"/>
   </g>
   <g id="patch_12">
    <path d="M 56.09 302.44 
L 853.2 302.44 
" style="fill: none; stroke: #000000; stroke-width: 0.8; stroke-linejoin: miter; stroke-linecap: square"/>
   </g>
   <g id="text_33">
    <!-- [05] dVU  —  State Estimate -->
    <g transform="translate(370.19875 296.44) scale(0.12 -0.12)">
     <use xlink:href="#DejaVuSans-5b"/>
     <use xlink:href="#DejaVuSans-30" transform="translate(39.013672 0)"/>
     <use xlink:href="#DejaVuSans-35" transform="translate(102.636719 0)"/>
     <use xlink:href="#DejaVuSans-5d" transform="translate(166.259766 0)"/>
     <use xlink:href="#DejaVuSans-20" transform="translate(205.273438 0)"/>
     <use xlink:href="#DejaVuSans-64" transform="translate(237.060547 0)"/>
     <use xlink:href="#DejaVuSans-56" transform="translate(300.537109 0)"/>
     <use xlink:href="#DejaVuSans-55" transform="translate(368.945312 0)"/>
     <use xlink:href="#DejaVuSans-20" transform="translate(442.138672 0)"/>
     <use xlink:href="#DejaVuSans-20" transform="translate(473.925781 0)"/>
     <use xlink:href="#DejaVuSans-2014" transform="translate(505.712891 0)"/>
     <use xlink:href="#DejaVuSans-20" transform="translate(605.712891 0)"/>
     <use xlink:href="#DejaVuSans-20" transform="translate(637.5 0)"/>
     <use xlink:href="#DejaVuSans-53" transform="translate(669.287109 0)"/>
     <use xlink:href="#DejaVuSans-74" transform="translate(732.763672 0)"/>
     <use xlink:href="#DejaVuSans-61" transform="translate(771.972656 0)"/>
     <use xlink:href="#DejaVuSans-74" transform="translate(833.251953 0)"/>
     <use xlink:href="#DejaVuSans-65" transform="translate(872.460938 0)"/>
     <use xlink:href="#DejaVuSans-20" transform="translate(933.984375 0)"/>
     <use xlink:href="#DejaVuSans-45" transform="translate(965.771484 0)"/>
     <use xlink:href="#DejaVuSans-73" transform="translate(1028.955078 0)"/>
     <use xlink:href="#DejaVuSans-74" transform="translate(1081.054688 0)"/>
     <use xlink:href="#DejaVuSans-69" transform="translate(1120.263672 0)"/>
     <use xlink:href="#DejaVuSans-6d" transform="translate(1148.046875 0)"/>
     <use xlink:href="#DejaVuSans-61" transform="translate(1245.458984 0)"/>
     <use xlink:href="#DejaVuSans-74" transform="translate(1306.738281 0)"/>
     <use xlink:href="#DejaVuSans-65" transform="translate(1345.947266 0)"/>
    </g>
   </g>
   <g id="legend_2">
    <g id="patch_13">
     <path d="M 63.09 529.04 
L 170.888438 529.04 
Q 172.888438 529.04 172.888438 527.04 
L 172.888438 498.68375 
Q 172.888438 496.68375 170.888438 496.68375 
L 63.09 496.68375 
Q 61.09 496.68375 61.09 498.68375 
L 61.09 527.04 
Q 61.09 529.04 63.09 529.04 
z
" style="fill: #ffffff; opacity: 0.8; stroke: #cccccc; stroke-linejoin: miter"/>
    </g>
    <g id="line2d_63">
     <path d="M 65.09 504.782187 
L 75.09 504.782187 
L 85.09 504.782187 
" style="fill: none; stroke: #0000ff; stroke-width: 1.5; stroke-linecap: square"/>
    </g>
    <g id="text_34">
     <!-- No Noise -->
     <g transform="translate(93.09 508.282187) scale(0.1 -0.1)">
      <use xlink:href="#DejaVuSans-4e"/>
      <use xlink:href="#DejaVuSans-6f" transform="translate(74.804688 0)"/>
      <use xlink:href="#DejaVuSans-20" transform="translate(135.986328 0)"/>
      <use xlink:href="#DejaVuSans-4e" transform="translate(167.773438 0)"/>
      <use xlink:href="#DejaVuSans-6f" transform="translate(242.578125 0)"/>
      <use xlink:href="#DejaVuSans-69" transform="translate(303.759766 0)"/>
      <use xlink:href="#DejaVuSans-73" transform="translate(331.542969 0)"/>
      <use xlink:href="#DejaVuSans-65" transform="translate(383.642578 0)"/>
     </g>
    </g>
    <g id="line2d_64">
     <path d="M 65.09 519.460312 
L 75.09 519.460312 
L 85.09 519.460312 
" style="fill: none; stroke-dasharray: 5.55,2.4; stroke-dashoffset: 0; stroke: #ff0000; stroke-width: 1.5"/>
    </g>
    <g id="text_35">
     <!-- With ARW/VRW -->
     <g transform="translate(93.09 522.960312) scale(0.1 -0.1)">
      <use xlink:href="#DejaVuSans-57"/>
      <use xlink:href="#DejaVuSans-69" transform="translate(96.626953 0)"/>
      <use xlink:href="#DejaVuSans-74" transform="translate(124.410156 0)"/>
      <use xlink:href="#DejaVuSans-68" transform="translate(163.619141 0)"/>
      <use xlink:href="#DejaVuSans-20" transform="translate(226.998047 0)"/>
      <use xlink:href="#DejaVuSans-41" transform="translate(258.785156 0)"/>
      <use xlink:href="#DejaVuSans-52" transform="translate(327.193359 0)"/>
      <use xlink:href="#DejaVuSans-57" transform="translate(392.675781 0)"/>
      <use xlink:href="#DejaVuSans-2f" transform="translate(491.552734 0)"/>
      <use xlink:href="#DejaVuSans-56" transform="translate(525.244141 0)"/>
      <use xlink:href="#DejaVuSans-52" transform="translate(593.652344 0)"/>
      <use xlink:href="#DejaVuSans-57" transform="translate(659.134766 0)"/>
     </g>
    </g>
   </g>
  </g>
 </g>
 <defs>
  <clipPath id="p4f092070b5">
   <rect x="56.09" y="26.88" width="797.11" height="231.6"/>
  </clipPath>
  <clipPath id="pe704f61339">
   <rect x="56.09" y="302.44" width="797.11" height="231.6"/>
  </clipPath>
 </defs>
</svg>
