<?xml version="1.0" encoding="utf-8" standalone="no"?>
<!DOCTYPE svg PUBLIC "-//W3C//DTD SVG 1.1//EN"
  "http://www.w3.org/Graphics/SVG/1.1/DTD/svg11.dtd">
<svg xmlns:xlink="http://www.w3.org/1999/xlink" width="864pt" height="576pt" viewBox="0 0 864 576" xmlns="http://www.w3.org/2000/svg" version="1.1">
 <metadata>
  <rdf:RDF xmlns:dc="http://purl.org/dc/elements/1.1/" xmlns:cc="http://creativecommons.org/ns#" xmlns:rdf="http://www.w3.org/1999/02/22-rdf-syntax-ns#">
   <cc:Work>
    <dc:type rdf:resource="http://purl.org/dc/dcmitype/StillImage"/>
    <dc:date>2026-03-09T19:21:56.772078</dc:date>
    <dc:format>image/svg+xml</dc:format>
    <dc:creator>
     <cc:Agent>
      <dc:title>Matplotlib v3.10.8, https://matplotlib.org/</dc:title>
     </cc:Agent>
    </dc:creator>
   </cc:Work>
  </rdf:RDF>
 </metadata>
 <defs>
  <style type="text/css">*{stroke-linejoin: round; stroke-linecap: butt}</style>
 </defs>
 <g id="figure_1">
  <g id="patch_1">
   <path d="M 0 576 
L 864 576 
L 864 0 
L 0 0 
z
" style="fill: #ffffff"/>
  </g>
  <g id="axes_1">
   <g id="patch_2">
    <path d="M 68.69 258.48 
L 853.2 258.48 
L 853.2 26.88 
L 68.69 26.88 
z
" style="fill: #ffffff"/>
   </g>
   <g id="matplotlib.axis_1">
    <g id="xtick_1">
     <g id="line2d_1">
      <path d="M 104.349545 258.48 
L 104.349545 26.88 
" clip-path="url(#pb4c6bbf608)" style="fill: none; stroke: #b0b0b0; stroke-width: 0.8; stroke-linecap: square"/>
     </g>
     <g id="line2d_2">
      <defs>
       <path id="mab8a801375" d="M 0 0 
L 0 3.5 
" style="stroke: #000000; stroke-width: 0.8"/>
      </defs>
      <g>
       <use xlink:href="#mab8a801375" x="104.349545" y="258.48" style="stroke: #000000; stroke-width: 0.8"/>
      </g>
     </g>
     <g id="text_1">
      <!-- 0 -->
      <g transform="translate(101.168295 273.078438) scale(0.1 -0.1)">
       <defs>
        <path id="DejaVuSans-30" d="M 2034 4250 
Q 1547 4250 1301 3770 
Q 1056 3291 1056 2328 
Q 1056 1369 1301 889 
Q 1547 409 2034 409 
Q 2525 409 2770 889 
Q 3016 1369 3016 2328 
Q 3016 3291 2770 3770 
Q 2525 4250 2034 4250 
z
M 2034 4750 
Q 2819 4750 3233 4129 
Q 3647 3509 3647 2328 
Q 3647 1150 3233 529 
Q 2819 -91 2034 -91 
Q 1250 -91 836 529 
Q 422 1150 422 2328 
Q 422 3509 836 4129 
Q 1250 4750 2034 4750 
z
" transform="scale(0.015625)"/>
       </defs>
       <use xlink:href="#DejaVuSans-30"/>
      </g>
     </g>
    </g>
    <g id="xtick_2">
     <g id="line2d_3">
      <path d="M 225.599275 258.48 
L 225.599275 26.88 
" clip-path="url(#pb4c6bbf608)" style="fill: none; stroke: #b0b0b0; stroke-width: 0.8; stroke-linecap: square"/>
     </g>
     <g id="line2d_4">
      <g>
       <use xlink:href="#mab8a801375" x="225.599275" y="258.48" style="stroke: #000000; stroke-width: 0.8"/>
      </g>
     </g>
     <g id="text_2">
      <!-- 50 -->
      <g transform="translate(219.236775 273.078438) scale(0.1 -0.1)">
       <defs>
        <path id="DejaVuSans-35" d="M 691 4666 
L 3169 4666 
L 3169 4134 
L 1269 4134 
L 1269 2991 
Q 1406 3038 1543 3061 
Q 1681 3084 1819 3084 
Q 2600 3084 3056 2656 
Q 3513 2228 3513 1497 
Q 3513 744 3044 326 
Q 2575 -91 1722 -91 
Q 1428 -91 1123 -41 
Q 819 9 494 109 
L 494 744 
Q 775 591 1075 516 
Q 1375 441 1709 441 
Q 2250 441 2565 725 
Q 2881 1009 2881 1497 
Q 2881 1984 2565 2268 
Q 2250 2553 1709 2553 
Q 1456 2553 1204 2497 
Q 953 2441 691 2322 
L 691 4666 
z
" transform="scale(0.015625)"/>
       </defs>
       <use xlink:href="#DejaVuSans-35"/>
       <use xlink:href="#DejaVuSans-30" transform="translate(63.623047 0)"/>
      </g>
     </g>
    </g>
    <g id="xtick_3">
     <g id="line2d_5">
      <path d="M 346.849005 258.48 
L 346.849005 26.88 
" clip-path="url(#pb4c6bbf608)" style="fill: none; stroke: #b0b0b0; stroke-width: 0.8; stroke-linecap: square"/>
     </g>
     <g id="line2d_6">
      <g>
       <use xlink:href="#mab8a801375" x="346.849005" y="258.48" style="stroke: #000000; stroke-width: 0.8"/>
      </g>
     </g>
     <g id="text_3">
      <!-- 100 -->
      <g transform="translate(337.305255 273.078438) scale(0.1 -0.1)">
       <defs>
        <path id="DejaVuSans-31" d="M 794 531 
L 1825 531 
L 1825 4091 
L 703 3866 
L 703 4441 
L 1819 4666 
L 2450 4666 
L 2450 531 
L 3481 531 
L 3481 0 
L 794 0 
L 794 531 
z
" transform="scale(0.015625)"/>
       </defs>
       <use xlink:href="#DejaVuSans-31"/>
       <use xlink:href="#DejaVuSans-30" transform="translate(63.623047 0)"/>
       <use xlink:href="#DejaVuSans-30" transform="translate(127.246094 0)"/>
      </g>
     </g>
    </g>
    <g id="xtick_4">
     <g id="line2d_7">
      <path d="M 468.098734 258.48 
L 468.098734 26.88 
" clip-path="url(#pb4c6bbf608)" style="fill: none; stroke: #b0b0b0; stroke-width: 0.8; stroke-linecap: square"/>
     </g>
     <g id="line2d_8">
      <g>
       <use xlink:href="#mab8a801375" x="468.098734" y="258.48" style="stroke: #000000; stroke-width: 0.8"/>
      </g>
     </g>
     <g id="text_4">
      <!-- 150 -->
      <g transform="translate(458.554984 273.078438) scale(0.1 -0.1)">
       <use xlink:href="#DejaVuSans-31"/>
       <use xlink:href="#DejaVuSans-35" transform="translate(63.623047 0)"/>
       <use xlink:href="#DejaVuSans-30" transform="translate(127.246094 0)"/>
      </g>
     </g>
    </g>
    <g id="xtick_5">
     <g id="line2d_9">
      <path d="M 589.348464 258.48 
L 589.348464 26.88 
" clip-path="url(#pb4c6bbf608)" style="fill: none; stroke: #b0b0b0; stroke-width: 0.8; stroke-linecap: square"/>
     </g>
     <g id="line2d_10">
      <g>
       <use xlink:href="#mab8a801375" x="589.348464" y="258.48" style="stroke: #000000; stroke-width: 0.8"/>
      </g>
     </g>
     <g id="text_5">
      <!-- 200 -->
      <g transform="translate(579.804714 273.078438) scale(0.1 -0.1)">
       <defs>
        <path id="DejaVuSans-32" d="M 1228 531 
L 3431 531 
L 3431 0 
L 469 0 
L 469 531 
Q 828 903 1448 1529 
Q 2069 2156 2228 2338 
Q 2531 2678 2651 2914 
Q 2772 3150 2772 3378 
Q 2772 3750 2511 3984 
Q 2250 4219 1831 4219 
Q 1534 4219 1204 4116 
Q 875 4013 500 3803 
L 500 4441 
Q 881 4594 1212 4672 
Q 1544 4750 1819 4750 
Q 2544 4750 2975 4387 
Q 3406 4025 3406 3419 
Q 3406 3131 3298 2873 
Q 3191 2616 2906 2266 
Q 2828 2175 2409 1742 
Q 1991 1309 1228 531 
z
" transform="scale(0.015625)"/>
       </defs>
       <use xlink:href="#DejaVuSans-32"/>
       <use xlink:href="#DejaVuSans-30" transform="translate(63.623047 0)"/>
       <use xlink:href="#DejaVuSans-30" transform="translate(127.246094 0)"/>
      </g>
     </g>
    </g>
    <g id="xtick_6">
     <g id="line2d_11">
      <path d="M 710.598193 258.48 
L 710.598193 26.88 
" clip-path="url(#pb4c6bbf608)" style="fill: none; stroke: #b0b0b0; stroke-width: 0.8; stroke-linecap: square"/>
     </g>
     <g id="line2d_12">
      <g>
       <use xlink:href="#mab8a801375" x="710.598193" y="258.48" style="stroke: #000000; stroke-width: 0.8"/>
      </g>
     </g>
     <g id="text_6">
      <!-- 250 -->
      <g transform="translate(701.054443 273.078438) scale(0.1 -0.1)">
       <use xlink:href="#DejaVuSans-32"/>
       <use xlink:href="#DejaVuSans-35" transform="translate(63.623047 0)"/>
       <use xlink:href="#DejaVuSans-30" transform="translate(127.246094 0)"/>
      </g>
     </g>
    </g>
    <g id="xtick_7">
     <g id="line2d_13">
      <path d="M 831.847923 258.48 
L 831.847923 26.88 
" clip-path="url(#pb4c6bbf608)" style="fill: none; stroke: #b0b0b0; stroke-width: 0.8; stroke-linecap: square"/>
     </g>
     <g id="line2d_14">
      <g>
       <use xlink:href="#mab8a801375" x="831.847923" y="258.48" style="stroke: #000000; stroke-width: 0.8"/>
      </g>
     </g>
     <g id="text_7">
      <!-- 300 -->
      <g transform="translate(822.304173 273.078438) scale(0.1 -0.1)">
       <defs>
        <path id="DejaVuSans-33" d="M 2597 2516 
Q 3050 2419 3304 2112 
Q 3559 1806 3559 1356 
Q 3559 666 3084 287 
Q 2609 -91 1734 -91 
Q 1441 -91 1130 -33 
Q 819 25 488 141 
L 488 750 
Q 750 597 1062 519 
Q 1375 441 1716 441 
Q 2309 441 2620 675 
Q 2931 909 2931 1356 
Q 2931 1769 2642 2001 
Q 2353 2234 1838 2234 
L 1294 2234 
L 1294 2753 
L 1863 2753 
Q 2328 2753 2575 2939 
Q 2822 3125 2822 3475 
Q 2822 3834 2567 4026 
Q 2313 4219 1838 4219 
Q 1578 4219 1281 4162 
Q 984 4106 628 3988 
L 628 4550 
Q 988 4650 1302 4700 
Q 1616 4750 1894 4750 
Q 2613 4750 3031 4423 
Q 3450 4097 3450 3541 
Q 3450 3153 3228 2886 
Q 3006 2619 2597 2516 
z
" transform="scale(0.015625)"/>
       </defs>
       <use xlink:href="#DejaVuSans-33"/>
       <use xlink:href="#DejaVuSans-30" transform="translate(63.623047 0)"/>
       <use xlink:href="#DejaVuSans-30" transform="translate(127.246094 0)"/>
      </g>
     </g>
    </g>
   </g>
   <g id="matplotlib.axis_2">
    <g id="ytick_1">
     <g id="line2d_15">
      <path d="M 68.69 248.218823 
L 853.2 248.218823 
" clip-path="url(#pb4c6bbf608)" style="fill: none; stroke: #b0b0b0; stroke-width: 0.8; stroke-linecap: square"/>
     </g>
     <g id="line2d_16">
      <defs>
       <path id="m5ec83dc983" d="M 0 0 
L -3.5 0 
" style="stroke: #000000; stroke-width: 0.8"/>
      </defs>
      <g>
       <use xlink:href="#m5ec83dc983" x="68.69" y="248.218823" style="stroke: #000000; stroke-width: 0.8"/>
      </g>
     </g>
     <g id="text_8">
      <!-- 0.00 -->
      <g transform="translate(39.424375 252.018042) scale(0.1 -0.1)">
       <defs>
        <path id="DejaVuSans-2e" d="M 684 794 
L 1344 794 
L 1344 0 
L 684 0 
L 684 794 
z
" transform="scale(0.015625)"/>
       </defs>
       <use xlink:href="#DejaVuSans-30"/>
       <use xlink:href="#DejaVuSans-2e" transform="translate(63.623047 0)"/>
       <use xlink:href="#DejaVuSans-30" transform="translate(95.410156 0)"/>
       <use xlink:href="#DejaVuSans-30" transform="translate(159.033203 0)"/>
      </g>
     </g>
    </g>
    <g id="ytick_2">
     <g id="line2d_17">
      <path d="M 68.69 205.109435 
L 853.2 205.109435 
" clip-path="url(#pb4c6bbf608)" style="fill: none; stroke: #b0b0b0; stroke-width: 0.8; stroke-linecap: square"/>
     </g>
     <g id="line2d_18">
      <g>
       <use xlink:href="#m5ec83dc983" x="68.69" y="205.109435" style="stroke: #000000; stroke-width: 0.8"/>
      </g>
     </g>
     <g id="text_9">
      <!-- 0.02 -->
      <g transform="translate(39.424375 208.908654) scale(0.1 -0.1)">
       <use xlink:href="#DejaVuSans-30"/>
       <use xlink:href="#DejaVuSans-2e" transform="translate(63.623047 0)"/>
       <use xlink:href="#DejaVuSans-30" transform="translate(95.410156 0)"/>
       <use xlink:href="#DejaVuSans-32" transform="translate(159.033203 0)"/>
      </g>
     </g>
    </g>
    <g id="ytick_3">
     <g id="line2d_19">
      <path d="M 68.69 162.000046 
L 853.2 162.000046 
" clip-path="url(#pb4c6bbf608)" style="fill: none; stroke: #b0b0b0; stroke-width: 0.8; stroke-linecap: square"/>
     </g>
     <g id="line2d_20">
      <g>
       <use xlink:href="#m5ec83dc983" x="68.69" y="162.000046" style="stroke: #000000; stroke-width: 0.8"/>
      </g>
     </g>
     <g id="text_10">
      <!-- 0.04 -->
      <g transform="translate(39.424375 165.799265) scale(0.1 -0.1)">
       <defs>
        <path id="DejaVuSans-34" d="M 2419 4116 
L 825 1625 
L 2419 1625 
L 2419 4116 
z
M 2253 4666 
L 3047 4666 
L 3047 1625 
L 3713 1625 
L 3713 1100 
L 3047 1100 
L 3047 0 
L 2419 0 
L 2419 1100 
L 313 1100 
L 313 1709 
L 2253 4666 
z
" transform="scale(0.015625)"/>
       </defs>
       <use xlink:href="#DejaVuSans-30"/>
       <use xlink:href="#DejaVuSans-2e" transform="translate(63.623047 0)"/>
       <use xlink:href="#DejaVuSans-30" transform="translate(95.410156 0)"/>
       <use xlink:href="#DejaVuSans-34" transform="translate(159.033203 0)"/>
      </g>
     </g>
    </g>
    <g id="ytick_4">
     <g id="line2d_21">
      <path d="M 68.69 118.890657 
L 853.2 118.890657 
" clip-path="url(#pb4c6bbf608)" style="fill: none; stroke: #b0b0b0; stroke-width: 0.8; stroke-linecap: square"/>
     </g>
     <g id="line2d_22">
      <g>
       <use xlink:href="#m5ec83dc983" x="68.69" y="118.890657" style="stroke: #000000; stroke-width: 0.8"/>
      </g>
     </g>
     <g id="text_11">
      <!-- 0.06 -->
      <g transform="translate(39.424375 122.689876) scale(0.1 -0.1)">
       <defs>
        <path id="DejaVuSans-36" d="M 2113 2584 
Q 1688 2584 1439 2293 
Q 1191 2003 1191 1497 
Q 1191 994 1439 701 
Q 1688 409 2113 409 
Q 2538 409 2786 701 
Q 3034 994 3034 1497 
Q 3034 2003 2786 2293 
Q 2538 2584 2113 2584 
z
M 3366 4563 
L 3366 3988 
Q 3128 4100 2886 4159 
Q 2644 4219 2406 4219 
Q 1781 4219 1451 3797 
Q 1122 3375 1075 2522 
Q 1259 2794 1537 2939 
Q 1816 3084 2150 3084 
Q 2853 3084 3261 2657 
Q 3669 2231 3669 1497 
Q 3669 778 3244 343 
Q 2819 -91 2113 -91 
Q 1303 -91 875 529 
Q 447 1150 447 2328 
Q 447 3434 972 4092 
Q 1497 4750 2381 4750 
Q 2619 4750 2861 4703 
Q 3103 4656 3366 4563 
z
" transform="scale(0.015625)"/>
       </defs>
       <use xlink:href="#DejaVuSans-30"/>
       <use xlink:href="#DejaVuSans-2e" transform="translate(63.623047 0)"/>
       <use xlink:href="#DejaVuSans-30" transform="translate(95.410156 0)"/>
       <use xlink:href="#DejaVuSans-36" transform="translate(159.033203 0)"/>
      </g>
     </g>
    </g>
    <g id="ytick_5">
     <g id="line2d_23">
      <path d="M 68.69 75.781269 
L 853.2 75.781269 
" clip-path="url(#pb4c6bbf608)" style="fill: none; stroke: #b0b0b0; stroke-width: 0.8; stroke-linecap: square"/>
     </g>
     <g id="line2d_24">
      <g>
       <use xlink:href="#m5ec83dc983" x="68.69" y="75.781269" style="stroke: #000000; stroke-width: 0.8"/>
      </g>
     </g>
     <g id="text_12">
      <!-- 0.08 -->
      <g transform="translate(39.424375 79.580488) scale(0.1 -0.1)">
       <defs>
        <path id="DejaVuSans-38" d="M 2034 2216 
Q 1584 2216 1326 1975 
Q 1069 1734 1069 1313 
Q 1069 891 1326 650 
Q 1584 409 2034 409 
Q 2484 409 2743 651 
Q 3003 894 3003 1313 
Q 3003 1734 2745 1975 
Q 2488 2216 2034 2216 
z
M 1403 2484 
Q 997 2584 770 2862 
Q 544 3141 544 3541 
Q 544 4100 942 4425 
Q 1341 4750 2034 4750 
Q 2731 4750 3128 4425 
Q 3525 4100 3525 3541 
Q 3525 3141 3298 2862 
Q 3072 2584 2669 2484 
Q 3125 2378 3379 2068 
Q 3634 1759 3634 1313 
Q 3634 634 3220 271 
Q 2806 -91 2034 -91 
Q 1263 -91 848 271 
Q 434 634 434 1313 
Q 434 1759 690 2068 
Q 947 2378 1403 2484 
z
M 1172 3481 
Q 1172 3119 1398 2916 
Q 1625 2713 2034 2713 
Q 2441 2713 2670 2916 
Q 2900 3119 2900 3481 
Q 2900 3844 2670 4047 
Q 2441 4250 2034 4250 
Q 1625 4250 1398 4047 
Q 1172 3844 1172 3481 
z
" transform="scale(0.015625)"/>
       </defs>
       <use xlink:href="#DejaVuSans-30"/>
       <use xlink:href="#DejaVuSans-2e" transform="translate(63.623047 0)"/>
       <use xlink:href="#DejaVuSans-30" transform="translate(95.410156 0)"/>
       <use xlink:href="#DejaVuSans-38" transform="translate(159.033203 0)"/>
      </g>
     </g>
    </g>
    <g id="ytick_6">
     <g id="line2d_25">
      <path d="M 68.69 32.67188 
L 853.2 32.67188 
" clip-path="url(#pb4c6bbf608)" style="fill: none; stroke: #b0b0b0; stroke-width: 0.8; stroke-linecap: square"/>
     </g>
     <g id="line2d_26">
      <g>
       <use xlink:href="#m5ec83dc983" x="68.69" y="32.67188" style="stroke: #000000; stroke-width: 0.8"/>
      </g>
     </g>
     <g id="text_13">
      <!-- 0.10 -->
      <g transform="translate(39.424375 36.471099) scale(0.1 -0.1)">
       <use xlink:href="#DejaVuSans-30"/>
       <use xlink:href="#DejaVuSans-2e" transform="translate(63.623047 0)"/>
       <use xlink:href="#DejaVuSans-31" transform="translate(95.410156 0)"/>
       <use xlink:href="#DejaVuSans-30" transform="translate(159.033203 0)"/>
      </g>
     </g>
    </g>
    <g id="text_14">
     <!-- Std Dev -->
     <g transform="translate(33.344687 162.463594) rotate(-90) scale(0.1 -0.1)">
      <defs>
       <path id="DejaVuSans-53" d="M 3425 4513 
L 3425 3897 
Q 3066 4069 2747 4153 
Q 2428 4238 2131 4238 
Q 1616 4238 1336 4038 
Q 1056 3838 1056 3469 
Q 1056 3159 1242 3001 
Q 1428 2844 1947 2747 
L 2328 2669 
Q 3034 2534 3370 2195 
Q 3706 1856 3706 1288 
Q 3706 609 3251 259 
Q 2797 -91 1919 -91 
Q 1588 -91 1214 -16 
Q 841 59 441 206 
L 441 856 
Q 825 641 1194 531 
Q 1563 422 1919 422 
Q 2459 422 2753 634 
Q 3047 847 3047 1241 
Q 3047 1584 2836 1778 
Q 2625 1972 2144 2069 
L 1759 2144 
Q 1053 2284 737 2584 
Q 422 2884 422 3419 
Q 422 4038 858 4394 
Q 1294 4750 2059 4750 
Q 2388 4750 2728 4690 
Q 3069 4631 3425 4513 
z
" transform="scale(0.015625)"/>
       <path id="DejaVuSans-74" d="M 1172 4494 
L 1172 3500 
L 2356 3500 
L 2356 3053 
L 1172 3053 
L 1172 1153 
Q 1172 725 1289 603 
Q 1406 481 1766 481 
L 2356 481 
L 2356 0 
L 1766 0 
Q 1100 0 847 248 
Q 594 497 594 1153 
L 594 3053 
L 172 3053 
L 172 3500 
L 594 3500 
L 594 4494 
L 1172 4494 
z
" transform="scale(0.015625)"/>
       <path id="DejaVuSans-64" d="M 2906 2969 
L 2906 4863 
L 3481 4863 
L 3481 0 
L 2906 0 
L 2906 525 
Q 2725 213 2448 61 
Q 2172 -91 1784 -91 
Q 1150 -91 751 415 
Q 353 922 353 1747 
Q 353 2572 751 3078 
Q 1150 3584 1784 3584 
Q 2172 3584 2448 3432 
Q 2725 3281 2906 2969 
z
M 947 1747 
Q 947 1113 1208 752 
Q 1469 391 1925 391 
Q 2381 391 2643 752 
Q 2906 1113 2906 1747 
Q 2906 2381 2643 2742 
Q 2381 3103 1925 3103 
Q 1469 3103 1208 2742 
Q 947 2381 947 1747 
z
" transform="scale(0.015625)"/>
       <path id="DejaVuSans-20" transform="scale(0.015625)"/>
       <path id="DejaVuSans-44" d="M 1259 4147 
L 1259 519 
L 2022 519 
Q 2988 519 3436 956 
Q 3884 1394 3884 2338 
Q 3884 3275 3436 3711 
Q 2988 4147 2022 4147 
L 1259 4147 
z
M 628 4666 
L 1925 4666 
Q 3281 4666 3915 4102 
Q 4550 3538 4550 2338 
Q 4550 1131 3912 565 
Q 3275 0 1925 0 
L 628 0 
L 628 4666 
z
" transform="scale(0.015625)"/>
       <path id="DejaVuSans-65" d="M 3597 1894 
L 3597 1613 
L 953 1613 
Q 991 1019 1311 708 
Q 1631 397 2203 397 
Q 2534 397 2845 478 
Q 3156 559 3463 722 
L 3463 178 
Q 3153 47 2828 -22 
Q 2503 -91 2169 -91 
Q 1331 -91 842 396 
Q 353 884 353 1716 
Q 353 2575 817 3079 
Q 1281 3584 2069 3584 
Q 2775 3584 3186 3129 
Q 3597 2675 3597 1894 
z
M 3022 2063 
Q 3016 2534 2758 2815 
Q 2500 3097 2075 3097 
Q 1594 3097 1305 2825 
Q 1016 2553 972 2059 
L 3022 2063 
z
" transform="scale(0.015625)"/>
       <path id="DejaVuSans-76" d="M 191 3500 
L 800 3500 
L 1894 563 
L 2988 3500 
L 3597 3500 
L 2284 0 
L 1503 0 
L 191 3500 
z
" transform="scale(0.015625)"/>
      </defs>
      <use xlink:href="#DejaVuSans-53"/>
      <use xlink:href="#DejaVuSans-74" transform="translate(63.476562 0)"/>
      <use xlink:href="#DejaVuSans-64" transform="translate(102.685547 0)"/>
      <use xlink:href="#DejaVuSans-20" transform="translate(166.162109 0)"/>
      <use xlink:href="#DejaVuSans-44" transform="translate(197.949219 0)"/>
      <use xlink:href="#DejaVuSans-65" transform="translate(274.951172 0)"/>
      <use xlink:href="#DejaVuSans-76" transform="translate(336.474609 0)"/>
     </g>
    </g>
   </g>
   <g id="line2d_27">
    <path d="M 104.349545 227.137668 
L 104.495045 229.872758 
L 104.834544 229.917404 
L 112.400527 229.925464 
L 123.458503 229.936927 
L 123.604003 242.151362 
L 123.798002 244.394166 
L 124.040502 244.916079 
L 124.428501 245.1156 
L 125.301499 245.22495 
L 128.308492 245.288597 
L 146.883951 245.316262 
L 147.465949 245.316262 
L 147.611449 245.965568 
L 148.629947 246.317196 
L 150.327443 246.408296 
L 157.068928 246.453689 
L 159.348423 246.453689 
L 159.493922 246.838124 
L 160.60942 247.034234 
L 163.567913 247.093618 
L 193.783346 247.188198 
L 225.162776 247.299296 
L 242.525737 247.353036 
L 242.671237 247.438396 
L 252.080216 247.476035 
L 301.938105 247.565304 
L 302.083604 247.813831 
L 304.314599 247.905237 
L 316.779072 247.933559 
L 342.047515 247.952396 
L 342.096015 227.137668 
L 342.193015 229.81183 
L 342.387014 229.909187 
L 344.27851 229.921734 
L 361.204972 229.936544 
L 361.350472 242.150827 
L 361.544472 244.39326 
L 361.786971 244.914994 
L 362.17497 245.11443 
L 363.047968 245.22373 
L 366.054962 245.287349 
L 384.63042 245.314959 
L 385.212419 245.314959 
L 385.357919 245.965033 
L 386.376416 246.31647 
L 388.073913 246.407575 
L 394.815398 246.452953 
L 397.094892 246.452953 
L 397.240392 246.838046 
L 398.35589 247.034576 
L 401.314383 247.094036 
L 431.481316 247.188215 
L 462.909246 247.299304 
L 480.272207 247.353173 
L 480.417707 247.438525 
L 489.778186 247.476128 
L 539.684574 247.565101 
L 539.830074 247.814489 
L 542.061069 247.906332 
L 554.428541 247.934498 
L 579.793985 247.952727 
L 579.842485 37.407273 
L 579.939485 65.245165 
L 580.860983 65.260459 
L 583.188977 65.4024 
L 586.874969 65.645066 
L 592.791956 65.718284 
L 598.951442 65.727148 
L 599.096942 218.242253 
L 599.242442 219.095208 
L 599.484941 219.214131 
L 600.503439 219.254713 
L 614.083408 219.267856 
L 622.958889 219.268323 
L 623.201388 240.119932 
L 623.395388 242.797639 
L 623.637887 243.649733 
L 623.977386 244.054997 
L 624.510885 244.295178 
L 625.529383 244.458514 
L 627.954377 244.565485 
L 634.841362 244.607352 
L 634.986862 245.263475 
L 635.56886 245.854464 
L 636.199359 246.006855 
L 637.848355 246.109948 
L 643.862342 246.174281 
L 646.723836 246.175115 
L 646.869335 246.348708 
L 670.488783 246.496198 
L 670.634282 246.659888 
L 706.475702 246.934363 
L 707.736699 247.003165 
L 715.836181 247.028185 
L 720.249672 247.138888 
L 740.086127 247.222025 
L 765.548571 247.303229 
L 765.74257 247.35116 
L 775.248549 247.379492 
L 777.431044 247.379492 
L 777.576544 247.790366 
L 779.41954 247.89298 
L 787.907021 247.923263 
L 817.540455 247.949268 
L 817.540455 247.949268 
" clip-path="url(#pb4c6bbf608)" style="fill: none; stroke: #0000ff; stroke-width: 1.5; stroke-linecap: square"/>
   </g>
   <g id="line2d_28">
    <path d="M 104.349545 227.137668 
L 104.495045 229.872809 
L 104.834544 229.917399 
L 112.352028 229.925269 
L 123.458503 229.936852 
L 123.604003 242.151354 
L 123.798002 244.394209 
L 124.040502 244.916058 
L 124.428501 245.115612 
L 125.301499 245.224942 
L 128.308492 245.288598 
L 146.883951 245.316318 
L 147.465949 245.316318 
L 147.611449 245.965566 
L 148.629947 246.317199 
L 150.327443 246.408299 
L 157.068928 246.45375 
L 159.348423 246.45375 
L 159.493922 246.838147 
L 160.60942 247.034232 
L 163.567913 247.093593 
L 193.783346 247.188165 
L 225.114276 247.299256 
L 242.525737 247.353024 
L 242.671237 247.438398 
L 252.080216 247.476029 
L 301.938105 247.5653 
L 302.083604 247.813839 
L 304.314599 247.905254 
L 316.779072 247.933575 
L 342.047515 247.952407 
L 342.096015 227.137668 
L 342.193015 229.811856 
L 342.387014 229.909184 
L 344.27851 229.921726 
L 361.204972 229.936521 
L 361.350472 242.150725 
L 361.544472 244.393182 
L 361.786971 244.914841 
L 362.17497 245.114305 
L 363.047968 245.223583 
L 366.054962 245.287209 
L 384.63042 245.314871 
L 385.212419 245.314871 
L 385.357919 245.964995 
L 386.376416 246.316426 
L 388.073913 246.40753 
L 394.815398 246.452963 
L 397.094892 246.452963 
L 397.240392 246.838042 
L 398.35589 247.034581 
L 401.314383 247.094032 
L 431.481316 247.188189 
L 462.909246 247.299286 
L 480.272207 247.353168 
L 480.417707 247.438514 
L 489.778186 247.476114 
L 539.684574 247.565088 
L 539.830074 247.814481 
L 542.061069 247.906328 
L 554.428541 247.934495 
L 579.793985 247.952725 
L 579.842485 37.407273 
L 579.939485 65.245446 
L 580.909482 65.262165 
L 583.431477 65.425004 
L 587.408468 65.643709 
L 595.31395 65.736039 
L 598.951442 65.739133 
L 599.096942 218.243528 
L 599.242442 219.096137 
L 599.484941 219.214682 
L 600.551939 219.256102 
L 614.083408 219.271053 
L 622.958889 219.272695 
L 623.201388 240.118783 
L 623.395388 242.797477 
L 623.637887 243.64918 
L 623.977386 244.054583 
L 624.510885 244.295025 
L 625.529383 244.45846 
L 627.954377 244.565805 
L 634.841362 244.607914 
L 634.986862 245.264763 
L 635.56886 245.85504 
L 636.247859 246.013621 
L 637.993855 246.11444 
L 644.444341 246.175479 
L 646.723836 246.175479 
L 646.869335 246.348917 
L 670.488783 246.496092 
L 670.634282 246.659676 
L 706.475702 246.93442 
L 707.736699 247.003183 
L 715.836181 247.02819 
L 720.249672 247.138867 
L 740.086127 247.222017 
L 765.548571 247.30322 
L 765.74257 247.35115 
L 775.248549 247.379471 
L 777.431044 247.379471 
L 777.576544 247.790356 
L 779.41954 247.892974 
L 787.907021 247.923259 
L 817.540455 247.949266 
L 817.540455 247.949266 
" clip-path="url(#pb4c6bbf608)" style="fill: none; stroke-dasharray: 5.55,2.4; stroke-dashoffset: 0; stroke: #ff0000; stroke-width: 1.5"/>
   </g>
   <g id="line2d_29">
    <path d="M 342.096015 258.48 
L 342.096015 26.88 
" clip-path="url(#pb4c6bbf608)" style="fill: none; stroke-dasharray: 1.5,2.475; stroke-dashoffset: 0; stroke: #808080; stroke-opacity: 0.6; stroke-width: 1.5"/>
   </g>
   <g id="line2d_30">
    <path d="M 579.842485 258.48 
L 579.842485 26.88 
" clip-path="url(#pb4c6bbf608)" style="fill: none; stroke-dasharray: 1.5,2.475; stroke-dashoffset: 0; stroke: #808080; stroke-opacity: 0.6; stroke-width: 1.5"/>
   </g>
   <g id="patch_3">
    <path d="M 68.69 258.48 
L 68.69 26.88 
" style="fill: none; stroke: #000000; stroke-width: 0.8; stroke-linejoin: miter; stroke-linecap: square"/>
   </g>
   <g id="patch_4">
    <path d="M 853.2 258.48 
L 853.2 26.88 
" style="fill: none; stroke: #000000; stroke-width: 0.8; stroke-linejoin: miter; stroke-linecap: square"/>
   </g>
   <g id="patch_5">
    <path d="M 68.69 258.48 
L 853.2 258.48 
" style="fill: none; stroke: #000000; stroke-width: 0.8; stroke-linejoin: miter; stroke-linecap: square"/>
   </g>
   <g id="patch_6">
    <path d="M 68.69 26.88 
L 853.2 26.88 
" style="fill: none; stroke: #000000; stroke-width: 0.8; stroke-linejoin: miter; stroke-linecap: square"/>
   </g>
   <g id="text_15">
    <!-- [11] db_z  —  Uncertainty (std dev) -->
    <g transform="translate(355.43875 20.88) scale(0.12 -0.12)">
     <defs>
      <path id="DejaVuSans-5b" d="M 550 4863 
L 1875 4863 
L 1875 4416 
L 1125 4416 
L 1125 -397 
L 1875 -397 
L 1875 -844 
L 550 -844 
L 550 4863 
z
" transform="scale(0.015625)"/>
      <path id="DejaVuSans-5d" d="M 1947 4863 
L 1947 -844 
L 622 -844 
L 622 -397 
L 1369 -397 
L 1369 4416 
L 622 4416 
L 622 4863 
L 1947 4863 
z
" transform="scale(0.015625)"/>
      <path id="DejaVuSans-62" d="M 3116 1747 
Q 3116 2381 2855 2742 
Q 2594 3103 2138 3103 
Q 1681 3103 1420 2742 
Q 1159 2381 1159 1747 
Q 1159 1113 1420 752 
Q 1681 391 2138 391 
Q 2594 391 2855 752 
Q 3116 1113 3116 1747 
z
M 1159 2969 
Q 1341 3281 1617 3432 
Q 1894 3584 2278 3584 
Q 2916 3584 3314 3078 
Q 3713 2572 3713 1747 
Q 3713 922 3314 415 
Q 2916 -91 2278 -91 
Q 1894 -91 1617 61 
Q 1341 213 1159 525 
L 1159 0 
L 581 0 
L 581 4863 
L 1159 4863 
L 1159 2969 
z
" transform="scale(0.015625)"/>
      <path id="DejaVuSans-5f" d="M 3263 -1063 
L 3263 -1509 
L -63 -1509 
L -63 -1063 
L 3263 -1063 
z
" transform="scale(0.015625)"/>
      <path id="DejaVuSans-7a" d="M 353 3500 
L 3084 3500 
L 3084 2975 
L 922 459 
L 3084 459 
L 3084 0 
L 275 0 
L 275 525 
L 2438 3041 
L 353 3041 
L 353 3500 
z
" transform="scale(0.015625)"/>
      <path id="DejaVuSans-2014" d="M 313 1978 
L 6088 1978 
L 6088 1528 
L 313 1528 
L 313 1978 
z
" transform="scale(0.015625)"/>
      <path id="DejaVuSans-55" d="M 556 4666 
L 1191 4666 
L 1191 1831 
Q 1191 1081 1462 751 
Q 1734 422 2344 422 
Q 2950 422 3222 751 
Q 3494 1081 3494 1831 
L 3494 4666 
L 4128 4666 
L 4128 1753 
Q 4128 841 3676 375 
Q 3225 -91 2344 -91 
Q 1459 -91 1007 375 
Q 556 841 556 1753 
L 556 4666 
z
" transform="scale(0.015625)"/>
      <path id="DejaVuSans-6e" d="M 3513 2113 
L 3513 0 
L 2938 0 
L 2938 2094 
Q 2938 2591 2744 2837 
Q 2550 3084 2163 3084 
Q 1697 3084 1428 2787 
Q 1159 2491 1159 1978 
L 1159 0 
L 581 0 
L 581 3500 
L 1159 3500 
L 1159 2956 
Q 1366 3272 1645 3428 
Q 1925 3584 2291 3584 
Q 2894 3584 3203 3211 
Q 3513 2838 3513 2113 
z
" transform="scale(0.015625)"/>
      <path id="DejaVuSans-63" d="M 3122 3366 
L 3122 2828 
Q 2878 2963 2633 3030 
Q 2388 3097 2138 3097 
Q 1578 3097 1268 2742 
Q 959 2388 959 1747 
Q 959 1106 1268 751 
Q 1578 397 2138 397 
Q 2388 397 2633 464 
Q 2878 531 3122 666 
L 3122 134 
Q 2881 22 2623 -34 
Q 2366 -91 2075 -91 
Q 1284 -91 818 406 
Q 353 903 353 1747 
Q 353 2603 823 3093 
Q 1294 3584 2113 3584 
Q 2378 3584 2631 3529 
Q 2884 3475 3122 3366 
z
" transform="scale(0.015625)"/>
      <path id="DejaVuSans-72" d="M 2631 2963 
Q 2534 3019 2420 3045 
Q 2306 3072 2169 3072 
Q 1681 3072 1420 2755 
Q 1159 2438 1159 1844 
L 1159 0 
L 581 0 
L 581 3500 
L 1159 3500 
L 1159 2956 
Q 1341 3275 1631 3429 
Q 1922 3584 2338 3584 
Q 2397 3584 2469 3576 
Q 2541 3569 2628 3553 
L 2631 2963 
z
" transform="scale(0.015625)"/>
      <path id="DejaVuSans-61" d="M 2194 1759 
Q 1497 1759 1228 1600 
Q 959 1441 959 1056 
Q 959 750 1161 570 
Q 1363 391 1709 391 
Q 2188 391 2477 730 
Q 2766 1069 2766 1631 
L 2766 1759 
L 2194 1759 
z
M 3341 1997 
L 3341 0 
L 2766 0 
L 2766 531 
Q 2569 213 2275 61 
Q 1981 -91 1556 -91 
Q 1019 -91 701 211 
Q 384 513 384 1019 
Q 384 1609 779 1909 
Q 1175 2209 1959 2209 
L 2766 2209 
L 2766 2266 
Q 2766 2663 2505 2880 
Q 2244 3097 1772 3097 
Q 1472 3097 1187 3025 
Q 903 2953 641 2809 
L 641 3341 
Q 956 3463 1253 3523 
Q 1550 3584 1831 3584 
Q 2591 3584 2966 3190 
Q 3341 2797 3341 1997 
z
" transform="scale(0.015625)"/>
      <path id="DejaVuSans-69" d="M 603 3500 
L 1178 3500 
L 1178 0 
L 603 0 
L 603 3500 
z
M 603 4863 
L 1178 4863 
L 1178 4134 
L 603 4134 
L 603 4863 
z
" transform="scale(0.015625)"/>
      <path id="DejaVuSans-79" d="M 2059 -325 
Q 1816 -950 1584 -1140 
Q 1353 -1331 966 -1331 
L 506 -1331 
L 506 -850 
L 844 -850 
Q 1081 -850 1212 -737 
Q 1344 -625 1503 -206 
L 1606 56 
L 191 3500 
L 800 3500 
L 1894 763 
L 2988 3500 
L 3597 3500 
L 2059 -325 
z
" transform="scale(0.015625)"/>
      <path id="DejaVuSans-28" d="M 1984 4856 
Q 1566 4138 1362 3434 
Q 1159 2731 1159 2009 
Q 1159 1288 1364 580 
Q 1569 -128 1984 -844 
L 1484 -844 
Q 1016 -109 783 600 
Q 550 1309 550 2009 
Q 550 2706 781 3412 
Q 1013 4119 1484 4856 
L 1984 4856 
z
" transform="scale(0.015625)"/>
      <path id="DejaVuSans-73" d="M 2834 3397 
L 2834 2853 
Q 2591 2978 2328 3040 
Q 2066 3103 1784 3103 
Q 1356 3103 1142 2972 
Q 928 2841 928 2578 
Q 928 2378 1081 2264 
Q 1234 2150 1697 2047 
L 1894 2003 
Q 2506 1872 2764 1633 
Q 3022 1394 3022 966 
Q 3022 478 2636 193 
Q 2250 -91 1575 -91 
Q 1294 -91 989 -36 
Q 684 19 347 128 
L 347 722 
Q 666 556 975 473 
Q 1284 391 1588 391 
Q 1994 391 2212 530 
Q 2431 669 2431 922 
Q 2431 1156 2273 1281 
Q 2116 1406 1581 1522 
L 1381 1569 
Q 847 1681 609 1914 
Q 372 2147 372 2553 
Q 372 3047 722 3315 
Q 1072 3584 1716 3584 
Q 2034 3584 2315 3537 
Q 2597 3491 2834 3397 
z
" transform="scale(0.015625)"/>
      <path id="DejaVuSans-29" d="M 513 4856 
L 1013 4856 
Q 1481 4119 1714 3412 
Q 1947 2706 1947 2009 
Q 1947 1309 1714 600 
Q 1481 -109 1013 -844 
L 513 -844 
Q 928 -128 1133 580 
Q 1338 1288 1338 2009 
Q 1338 2731 1133 3434 
Q 928 4138 513 4856 
z
" transform="scale(0.015625)"/>
     </defs>
     <use xlink:href="#DejaVuSans-5b"/>
     <use xlink:href="#DejaVuSans-31" transform="translate(39.013672 0)"/>
     <use xlink:href="#DejaVuSans-31" transform="translate(102.636719 0)"/>
     <use xlink:href="#DejaVuSans-5d" transform="translate(166.259766 0)"/>
     <use xlink:href="#DejaVuSans-20" transform="translate(205.273438 0)"/>
     <use xlink:href="#DejaVuSans-64" transform="translate(237.060547 0)"/>
     <use xlink:href="#DejaVuSans-62" transform="translate(300.537109 0)"/>
     <use xlink:href="#DejaVuSans-5f" transform="translate(364.013672 0)"/>
     <use xlink:href="#DejaVuSans-7a" transform="translate(414.013672 0)"/>
     <use xlink:href="#DejaVuSans-20" transform="translate(466.503906 0)"/>
     <use xlink:href="#DejaVuSans-20" transform="translate(498.291016 0)"/>
     <use xlink:href="#DejaVuSans-2014" transform="translate(530.078125 0)"/>
     <use xlink:href="#DejaVuSans-20" transform="translate(630.078125 0)"/>
     <use xlink:href="#DejaVuSans-20" transform="translate(661.865234 0)"/>
     <use xlink:href="#DejaVuSans-55" transform="translate(693.652344 0)"/>
     <use xlink:href="#DejaVuSans-6e" transform="translate(766.845703 0)"/>
     <use xlink:href="#DejaVuSans-63" transform="translate(830.224609 0)"/>
     <use xlink:href="#DejaVuSans-65" transform="translate(885.205078 0)"/>
     <use xlink:href="#DejaVuSans-72" transform="translate(946.728516 0)"/>
     <use xlink:href="#DejaVuSans-74" transform="translate(987.841797 0)"/>
     <use xlink:href="#DejaVuSans-61" transform="translate(1027.050781 0)"/>
     <use xlink:href="#DejaVuSans-69" transform="translate(1088.330078 0)"/>
     <use xlink:href="#DejaVuSans-6e" transform="translate(1116.113281 0)"/>
     <use xlink:href="#DejaVuSans-74" transform="translate(1179.492188 0)"/>
     <use xlink:href="#DejaVuSans-79" transform="translate(1218.701172 0)"/>
     <use xlink:href="#DejaVuSans-20" transform="translate(1277.880859 0)"/>
     <use xlink:href="#DejaVuSans-28" transform="translate(1309.667969 0)"/>
     <use xlink:href="#DejaVuSans-73" transform="translate(1348.681641 0)"/>
     <use xlink:href="#DejaVuSans-74" transform="translate(1400.78125 0)"/>
     <use xlink:href="#DejaVuSans-64" transform="translate(1439.990234 0)"/>
     <use xlink:href="#DejaVuSans-20" transform="translate(1503.466797 0)"/>
     <use xlink:href="#DejaVuSans-64" transform="translate(1535.253906 0)"/>
     <use xlink:href="#DejaVuSans-65" transform="translate(1598.730469 0)"/>
     <use xlink:href="#DejaVuSans-76" transform="translate(1660.253906 0)"/>
     <use xlink:href="#DejaVuSans-29" transform="translate(1719.433594 0)"/>
    </g>
   </g>
   <g id="legend_1">
    <g id="patch_7">
     <path d="M 734.342187 64.23625 
L 846.2 64.23625 
Q 848.2 64.23625 848.2 62.23625 
L 848.2 33.88 
Q 848.2 31.88 846.2 31.88 
L 734.342187 31.88 
Q 732.342187 31.88 732.342187 33.88 
L 732.342187 62.23625 
Q 732.342187 64.23625 734.342187 64.23625 
z
" style="fill: #ffffff; opacity: 0.8; stroke: #cccccc; stroke-linejoin: miter"/>
    </g>
    <g id="line2d_31">
     <path d="M 736.342187 39.978437 
L 746.342187 39.978437 
L 756.342187 39.978437 
" style="fill: none; stroke: #0000ff; stroke-width: 1.5; stroke-linecap: square"/>
    </g>
    <g id="text_16">
     <!-- Ideal (No Noise) -->
     <g transform="translate(764.342187 43.478437) scale(0.1 -0.1)">
      <defs>
       <path id="DejaVuSans-49" d="M 628 4666 
L 1259 4666 
L 1259 0 
L 628 0 
L 628 4666 
z
" transform="scale(0.015625)"/>
       <path id="DejaVuSans-6c" d="M 603 4863 
L 1178 4863 
L 1178 0 
L 603 0 
L 603 4863 
z
" transform="scale(0.015625)"/>
       <path id="DejaVuSans-4e" d="M 628 4666 
L 1478 4666 
L 3547 763 
L 3547 4666 
L 4159 4666 
L 4159 0 
L 3309 0 
L 1241 3903 
L 1241 0 
L 628 0 
L 628 4666 
z
" transform="scale(0.015625)"/>
       <path id="DejaVuSans-6f" d="M 1959 3097 
Q 1497 3097 1228 2736 
Q 959 2375 959 1747 
Q 959 1119 1226 758 
Q 1494 397 1959 397 
Q 2419 397 2687 759 
Q 2956 1122 2956 1747 
Q 2956 2369 2687 2733 
Q 2419 3097 1959 3097 
z
M 1959 3584 
Q 2709 3584 3137 3096 
Q 3566 2609 3566 1747 
Q 3566 888 3137 398 
Q 2709 -91 1959 -91 
Q 1206 -91 779 398 
Q 353 888 353 1747 
Q 353 2609 779 3096 
Q 1206 3584 1959 3584 
z
" transform="scale(0.015625)"/>
      </defs>
      <use xlink:href="#DejaVuSans-49"/>
      <use xlink:href="#DejaVuSans-64" transform="translate(29.492188 0)"/>
      <use xlink:href="#DejaVuSans-65" transform="translate(92.96875 0)"/>
      <use xlink:href="#DejaVuSans-61" transform="translate(154.492188 0)"/>
      <use xlink:href="#DejaVuSans-6c" transform="translate(215.771484 0)"/>
      <use xlink:href="#DejaVuSans-20" transform="translate(243.554688 0)"/>
      <use xlink:href="#DejaVuSans-28" transform="translate(275.341797 0)"/>
      <use xlink:href="#DejaVuSans-4e" transform="translate(314.355469 0)"/>
      <use xlink:href="#DejaVuSans-6f" transform="translate(389.160156 0)"/>
      <use xlink:href="#DejaVuSans-20" transform="translate(450.341797 0)"/>
      <use xlink:href="#DejaVuSans-4e" transform="translate(482.128906 0)"/>
      <use xlink:href="#DejaVuSans-6f" transform="translate(556.933594 0)"/>
      <use xlink:href="#DejaVuSans-69" transform="translate(618.115234 0)"/>
      <use xlink:href="#DejaVuSans-73" transform="translate(645.898438 0)"/>
      <use xlink:href="#DejaVuSans-65" transform="translate(697.998047 0)"/>
      <use xlink:href="#DejaVuSans-29" transform="translate(759.521484 0)"/>
     </g>
    </g>
    <g id="line2d_32">
     <path d="M 736.342187 54.656562 
L 746.342187 54.656562 
L 756.342187 54.656562 
" style="fill: none; stroke-dasharray: 5.55,2.4; stroke-dashoffset: 0; stroke: #ff0000; stroke-width: 1.5"/>
    </g>
    <g id="text_17">
     <!-- With Full Noise -->
     <g transform="translate(764.342187 58.156562) scale(0.1 -0.1)">
      <defs>
       <path id="DejaVuSans-57" d="M 213 4666 
L 850 4666 
L 1831 722 
L 2809 4666 
L 3519 4666 
L 4500 722 
L 5478 4666 
L 6119 4666 
L 4947 0 
L 4153 0 
L 3169 4050 
L 2175 0 
L 1381 0 
L 213 4666 
z
" transform="scale(0.015625)"/>
       <path id="DejaVuSans-68" d="M 3513 2113 
L 3513 0 
L 2938 0 
L 2938 2094 
Q 2938 2591 2744 2837 
Q 2550 3084 2163 3084 
Q 1697 3084 1428 2787 
Q 1159 2491 1159 1978 
L 1159 0 
L 581 0 
L 581 4863 
L 1159 4863 
L 1159 2956 
Q 1366 3272 1645 3428 
Q 1925 3584 2291 3584 
Q 2894 3584 3203 3211 
Q 3513 2838 3513 2113 
z
" transform="scale(0.015625)"/>
       <path id="DejaVuSans-46" d="M 628 4666 
L 3309 4666 
L 3309 4134 
L 1259 4134 
L 1259 2759 
L 3109 2759 
L 3109 2228 
L 1259 2228 
L 1259 0 
L 628 0 
L 628 4666 
z
" transform="scale(0.015625)"/>
       <path id="DejaVuSans-75" d="M 544 1381 
L 544 3500 
L 1119 3500 
L 1119 1403 
Q 1119 906 1312 657 
Q 1506 409 1894 409 
Q 2359 409 2629 706 
Q 2900 1003 2900 1516 
L 2900 3500 
L 3475 3500 
L 3475 0 
L 2900 0 
L 2900 538 
Q 2691 219 2414 64 
Q 2138 -91 1772 -91 
Q 1169 -91 856 284 
Q 544 659 544 1381 
z
M 1991 3584 
L 1991 3584 
z
" transform="scale(0.015625)"/>
      </defs>
      <use xlink:href="#DejaVuSans-57"/>
      <use xlink:href="#DejaVuSans-69" transform="translate(96.626953 0)"/>
      <use xlink:href="#DejaVuSans-74" transform="translate(124.410156 0)"/>
      <use xlink:href="#DejaVuSans-68" transform="translate(163.619141 0)"/>
      <use xlink:href="#DejaVuSans-20" transform="translate(226.998047 0)"/>
      <use xlink:href="#DejaVuSans-46" transform="translate(258.785156 0)"/>
      <use xlink:href="#DejaVuSans-75" transform="translate(310.804688 0)"/>
      <use xlink:href="#DejaVuSans-6c" transform="translate(374.183594 0)"/>
      <use xlink:href="#DejaVuSans-6c" transform="translate(401.966797 0)"/>
      <use xlink:href="#DejaVuSans-20" transform="translate(429.75 0)"/>
      <use xlink:href="#DejaVuSans-4e" transform="translate(461.537109 0)"/>
      <use xlink:href="#DejaVuSans-6f" transform="translate(536.341797 0)"/>
      <use xlink:href="#DejaVuSans-69" transform="translate(597.523438 0)"/>
      <use xlink:href="#DejaVuSans-73" transform="translate(625.306641 0)"/>
      <use xlink:href="#DejaVuSans-65" transform="translate(677.40625 0)"/>
     </g>
    </g>
   </g>
  </g>
  <g id="axes_2">
   <g id="patch_8">
    <path d="M 68.69 534.04 
L 853.2 534.04 
L 853.2 302.44 
L 68.69 302.44 
z
" style="fill: #ffffff"/>
   </g>
   <g id="matplotlib.axis_3">
    <g id="xtick_8">
     <g id="line2d_33">
      <path d="M 104.349545 534.04 
L 104.349545 302.44 
" clip-path="url(#p9ad07e9856)" style="fill: none; stroke: #b0b0b0; stroke-width: 0.8; stroke-linecap: square"/>
     </g>
     <g id="line2d_34">
      <g>
       <use xlink:href="#mab8a801375" x="104.349545" y="534.04" style="stroke: #000000; stroke-width: 0.8"/>
      </g>
     </g>
     <g id="text_18">
      <!-- 0 -->
      <g transform="translate(101.168295 548.638438) scale(0.1 -0.1)">
       <use xlink:href="#DejaVuSans-30"/>
      </g>
     </g>
    </g>
    <g id="xtick_9">
     <g id="line2d_35">
      <path d="M 225.599275 534.04 
L 225.599275 302.44 
" clip-path="url(#p9ad07e9856)" style="fill: none; stroke: #b0b0b0; stroke-width: 0.8; stroke-linecap: square"/>
     </g>
     <g id="line2d_36">
      <g>
       <use xlink:href="#mab8a801375" x="225.599275" y="534.04" style="stroke: #000000; stroke-width: 0.8"/>
      </g>
     </g>
     <g id="text_19">
      <!-- 50 -->
      <g transform="translate(219.236775 548.638438) scale(0.1 -0.1)">
       <use xlink:href="#DejaVuSans-35"/>
       <use xlink:href="#DejaVuSans-30" transform="translate(63.623047 0)"/>
      </g>
     </g>
    </g>
    <g id="xtick_10">
     <g id="line2d_37">
      <path d="M 346.849005 534.04 
L 346.849005 302.44 
" clip-path="url(#p9ad07e9856)" style="fill: none; stroke: #b0b0b0; stroke-width: 0.8; stroke-linecap: square"/>
     </g>
     <g id="line2d_38">
      <g>
       <use xlink:href="#mab8a801375" x="346.849005" y="534.04" style="stroke: #000000; stroke-width: 0.8"/>
      </g>
     </g>
     <g id="text_20">
      <!-- 100 -->
      <g transform="translate(337.305255 548.638438) scale(0.1 -0.1)">
       <use xlink:href="#DejaVuSans-31"/>
       <use xlink:href="#DejaVuSans-30" transform="translate(63.623047 0)"/>
       <use xlink:href="#DejaVuSans-30" transform="translate(127.246094 0)"/>
      </g>
     </g>
    </g>
    <g id="xtick_11">
     <g id="line2d_39">
      <path d="M 468.098734 534.04 
L 468.098734 302.44 
" clip-path="url(#p9ad07e9856)" style="fill: none; stroke: #b0b0b0; stroke-width: 0.8; stroke-linecap: square"/>
     </g>
     <g id="line2d_40">
      <g>
       <use xlink:href="#mab8a801375" x="468.098734" y="534.04" style="stroke: #000000; stroke-width: 0.8"/>
      </g>
     </g>
     <g id="text_21">
      <!-- 150 -->
      <g transform="translate(458.554984 548.638438) scale(0.1 -0.1)">
       <use xlink:href="#DejaVuSans-31"/>
       <use xlink:href="#DejaVuSans-35" transform="translate(63.623047 0)"/>
       <use xlink:href="#DejaVuSans-30" transform="translate(127.246094 0)"/>
      </g>
     </g>
    </g>
    <g id="xtick_12">
     <g id="line2d_41">
      <path d="M 589.348464 534.04 
L 589.348464 302.44 
" clip-path="url(#p9ad07e9856)" style="fill: none; stroke: #b0b0b0; stroke-width: 0.8; stroke-linecap: square"/>
     </g>
     <g id="line2d_42">
      <g>
       <use xlink:href="#mab8a801375" x="589.348464" y="534.04" style="stroke: #000000; stroke-width: 0.8"/>
      </g>
     </g>
     <g id="text_22">
      <!-- 200 -->
      <g transform="translate(579.804714 548.638438) scale(0.1 -0.1)">
       <use xlink:href="#DejaVuSans-32"/>
       <use xlink:href="#DejaVuSans-30" transform="translate(63.623047 0)"/>
       <use xlink:href="#DejaVuSans-30" transform="translate(127.246094 0)"/>
      </g>
     </g>
    </g>
    <g id="xtick_13">
     <g id="line2d_43">
      <path d="M 710.598193 534.04 
L 710.598193 302.44 
" clip-path="url(#p9ad07e9856)" style="fill: none; stroke: #b0b0b0; stroke-width: 0.8; stroke-linecap: square"/>
     </g>
     <g id="line2d_44">
      <g>
       <use xlink:href="#mab8a801375" x="710.598193" y="534.04" style="stroke: #000000; stroke-width: 0.8"/>
      </g>
     </g>
     <g id="text_23">
      <!-- 250 -->
      <g transform="translate(701.054443 548.638438) scale(0.1 -0.1)">
       <use xlink:href="#DejaVuSans-32"/>
       <use xlink:href="#DejaVuSans-35" transform="translate(63.623047 0)"/>
       <use xlink:href="#DejaVuSans-30" transform="translate(127.246094 0)"/>
      </g>
     </g>
    </g>
    <g id="xtick_14">
     <g id="line2d_45">
      <path d="M 831.847923 534.04 
L 831.847923 302.44 
" clip-path="url(#p9ad07e9856)" style="fill: none; stroke: #b0b0b0; stroke-width: 0.8; stroke-linecap: square"/>
     </g>
     <g id="line2d_46">
      <g>
       <use xlink:href="#mab8a801375" x="831.847923" y="534.04" style="stroke: #000000; stroke-width: 0.8"/>
      </g>
     </g>
     <g id="text_24">
      <!-- 300 -->
      <g transform="translate(822.304173 548.638438) scale(0.1 -0.1)">
       <use xlink:href="#DejaVuSans-33"/>
       <use xlink:href="#DejaVuSans-30" transform="translate(63.623047 0)"/>
       <use xlink:href="#DejaVuSans-30" transform="translate(127.246094 0)"/>
      </g>
     </g>
    </g>
    <g id="text_25">
     <!-- Time (s) -->
     <g transform="translate(440.616094 562.316562) scale(0.1 -0.1)">
      <defs>
       <path id="DejaVuSans-54" d="M -19 4666 
L 3928 4666 
L 3928 4134 
L 2272 4134 
L 2272 0 
L 1638 0 
L 1638 4134 
L -19 4134 
L -19 4666 
z
" transform="scale(0.015625)"/>
       <path id="DejaVuSans-6d" d="M 3328 2828 
Q 3544 3216 3844 3400 
Q 4144 3584 4550 3584 
Q 5097 3584 5394 3201 
Q 5691 2819 5691 2113 
L 5691 0 
L 5113 0 
L 5113 2094 
Q 5113 2597 4934 2840 
Q 4756 3084 4391 3084 
Q 3944 3084 3684 2787 
Q 3425 2491 3425 1978 
L 3425 0 
L 2847 0 
L 2847 2094 
Q 2847 2600 2669 2842 
Q 2491 3084 2119 3084 
Q 1678 3084 1418 2786 
Q 1159 2488 1159 1978 
L 1159 0 
L 581 0 
L 581 3500 
L 1159 3500 
L 1159 2956 
Q 1356 3278 1631 3431 
Q 1906 3584 2284 3584 
Q 2666 3584 2933 3390 
Q 3200 3197 3328 2828 
z
" transform="scale(0.015625)"/>
      </defs>
      <use xlink:href="#DejaVuSans-54"/>
      <use xlink:href="#DejaVuSans-69" transform="translate(57.958984 0)"/>
      <use xlink:href="#DejaVuSans-6d" transform="translate(85.742188 0)"/>
      <use xlink:href="#DejaVuSans-65" transform="translate(183.154297 0)"/>
      <use xlink:href="#DejaVuSans-20" transform="translate(244.677734 0)"/>
      <use xlink:href="#DejaVuSans-28" transform="translate(276.464844 0)"/>
      <use xlink:href="#DejaVuSans-73" transform="translate(315.478516 0)"/>
      <use xlink:href="#DejaVuSans-29" transform="translate(367.578125 0)"/>
     </g>
    </g>
   </g>
   <g id="matplotlib.axis_4">
    <g id="ytick_7">
     <g id="line2d_47">
      <path d="M 68.69 504.063065 
L 853.2 504.063065 
" clip-path="url(#p9ad07e9856)" style="fill: none; stroke: #b0b0b0; stroke-width: 0.8; stroke-linecap: square"/>
     </g>
     <g id="line2d_48">
      <g>
       <use xlink:href="#m5ec83dc983" x="68.69" y="504.063065" style="stroke: #000000; stroke-width: 0.8"/>
      </g>
     </g>
     <g id="text_26">
      <!-- −0.003 -->
      <g transform="translate(24.682187 507.862284) scale(0.1 -0.1)">
       <defs>
        <path id="DejaVuSans-2212" d="M 678 2272 
L 4684 2272 
L 4684 1741 
L 678 1741 
L 678 2272 
z
" transform="scale(0.015625)"/>
       </defs>
       <use xlink:href="#DejaVuSans-2212"/>
       <use xlink:href="#DejaVuSans-30" transform="translate(83.789062 0)"/>
       <use xlink:href="#DejaVuSans-2e" transform="translate(147.412109 0)"/>
       <use xlink:href="#DejaVuSans-30" transform="translate(179.199219 0)"/>
       <use xlink:href="#DejaVuSans-30" transform="translate(242.822266 0)"/>
       <use xlink:href="#DejaVuSans-33" transform="translate(306.445312 0)"/>
      </g>
     </g>
    </g>
    <g id="ytick_8">
     <g id="line2d_49">
      <path d="M 68.69 452.947917 
L 853.2 452.947917 
" clip-path="url(#p9ad07e9856)" style="fill: none; stroke: #b0b0b0; stroke-width: 0.8; stroke-linecap: square"/>
     </g>
     <g id="line2d_50">
      <g>
       <use xlink:href="#m5ec83dc983" x="68.69" y="452.947917" style="stroke: #000000; stroke-width: 0.8"/>
      </g>
     </g>
     <g id="text_27">
      <!-- −0.002 -->
      <g transform="translate(24.682187 456.747136) scale(0.1 -0.1)">
       <use xlink:href="#DejaVuSans-2212"/>
       <use xlink:href="#DejaVuSans-30" transform="translate(83.789062 0)"/>
       <use xlink:href="#DejaVuSans-2e" transform="translate(147.412109 0)"/>
       <use xlink:href="#DejaVuSans-30" transform="translate(179.199219 0)"/>
       <use xlink:href="#DejaVuSans-30" transform="translate(242.822266 0)"/>
       <use xlink:href="#DejaVuSans-32" transform="translate(306.445312 0)"/>
      </g>
     </g>
    </g>
    <g id="ytick_9">
     <g id="line2d_51">
      <path d="M 68.69 401.832769 
L 853.2 401.832769 
" clip-path="url(#p9ad07e9856)" style="fill: none; stroke: #b0b0b0; stroke-width: 0.8; stroke-linecap: square"/>
     </g>
     <g id="line2d_52">
      <g>
       <use xlink:href="#m5ec83dc983" x="68.69" y="401.832769" style="stroke: #000000; stroke-width: 0.8"/>
      </g>
     </g>
     <g id="text_28">
      <!-- −0.001 -->
      <g transform="translate(24.682187 405.631988) scale(0.1 -0.1)">
       <use xlink:href="#DejaVuSans-2212"/>
       <use xlink:href="#DejaVuSans-30" transform="translate(83.789062 0)"/>
       <use xlink:href="#DejaVuSans-2e" transform="translate(147.412109 0)"/>
       <use xlink:href="#DejaVuSans-30" transform="translate(179.199219 0)"/>
       <use xlink:href="#DejaVuSans-30" transform="translate(242.822266 0)"/>
       <use xlink:href="#DejaVuSans-31" transform="translate(306.445312 0)"/>
      </g>
     </g>
    </g>
    <g id="ytick_10">
     <g id="line2d_53">
      <path d="M 68.69 350.717622 
L 853.2 350.717622 
" clip-path="url(#p9ad07e9856)" style="fill: none; stroke: #b0b0b0; stroke-width: 0.8; stroke-linecap: square"/>
     </g>
     <g id="line2d_54">
      <g>
       <use xlink:href="#m5ec83dc983" x="68.69" y="350.717622" style="stroke: #000000; stroke-width: 0.8"/>
      </g>
     </g>
     <g id="text_29">
      <!-- 0.000 -->
      <g transform="translate(33.061875 354.516841) scale(0.1 -0.1)">
       <use xlink:href="#DejaVuSans-30"/>
       <use xlink:href="#DejaVuSans-2e" transform="translate(63.623047 0)"/>
       <use xlink:href="#DejaVuSans-30" transform="translate(95.410156 0)"/>
       <use xlink:href="#DejaVuSans-30" transform="translate(159.033203 0)"/>
       <use xlink:href="#DejaVuSans-30" transform="translate(222.65625 0)"/>
      </g>
     </g>
    </g>
    <g id="text_30">
     <!-- Estimated Value -->
     <g transform="translate(18.6025 458.818906) rotate(-90) scale(0.1 -0.1)">
      <defs>
       <path id="DejaVuSans-45" d="M 628 4666 
L 3578 4666 
L 3578 4134 
L 1259 4134 
L 1259 2753 
L 3481 2753 
L 3481 2222 
L 1259 2222 
L 1259 531 
L 3634 531 
L 3634 0 
L 628 0 
L 628 4666 
z
" transform="scale(0.015625)"/>
       <path id="DejaVuSans-56" d="M 1831 0 
L 50 4666 
L 709 4666 
L 2188 738 
L 3669 4666 
L 4325 4666 
L 2547 0 
L 1831 0 
z
" transform="scale(0.015625)"/>
      </defs>
      <use xlink:href="#DejaVuSans-45"/>
      <use xlink:href="#DejaVuSans-73" transform="translate(63.183594 0)"/>
      <use xlink:href="#DejaVuSans-74" transform="translate(115.283203 0)"/>
      <use xlink:href="#DejaVuSans-69" transform="translate(154.492188 0)"/>
      <use xlink:href="#DejaVuSans-6d" transform="translate(182.275391 0)"/>
      <use xlink:href="#DejaVuSans-61" transform="translate(279.6875 0)"/>
      <use xlink:href="#DejaVuSans-74" transform="translate(340.966797 0)"/>
      <use xlink:href="#DejaVuSans-65" transform="translate(380.175781 0)"/>
      <use xlink:href="#DejaVuSans-64" transform="translate(441.699219 0)"/>
      <use xlink:href="#DejaVuSans-20" transform="translate(505.175781 0)"/>
      <use xlink:href="#DejaVuSans-56" transform="translate(536.962891 0)"/>
      <use xlink:href="#DejaVuSans-61" transform="translate(597.621094 0)"/>
      <use xlink:href="#DejaVuSans-6c" transform="translate(658.900391 0)"/>
      <use xlink:href="#DejaVuSans-75" transform="translate(686.683594 0)"/>
      <use xlink:href="#DejaVuSans-65" transform="translate(750.0625 0)"/>
     </g>
    </g>
   </g>
   <g id="line2d_55">
    <path d="M 104.349545 350.717618 
L 104.495045 349.745558 
L 104.786044 349.69191 
L 106.92004 349.539263 
L 107.987037 349.21281 
L 108.957035 348.681623 
L 109.927033 347.88094 
L 110.897031 346.780702 
L 111.964028 345.208746 
L 113.128026 343.069541 
L 114.486023 340.066712 
L 116.135019 335.834622 
L 118.608514 328.779856 
L 120.888009 322.401087 
L 123.458503 322.401087 
L 123.604003 497.198864 
L 123.798002 515.188854 
L 124.040502 518.169301 
L 124.331501 519.047491 
L 124.7195 519.469191 
L 125.301499 519.725864 
L 126.368496 519.908209 
L 128.793491 520.045988 
L 145.428954 520.501677 
L 147.465949 520.501677 
L 147.514449 523.512727 
L 147.611449 523.133861 
L 148.290447 517.544494 
L 148.678447 516.538908 
L 149.163445 515.895758 
L 149.793944 515.453209 
L 150.666942 515.134881 
L 152.024939 514.903234 
L 154.401434 514.759071 
L 159.348423 514.714803 
L 159.493922 508.279582 
L 160.124421 506.523536 
L 160.56092 506.096121 
L 161.239919 505.780712 
L 162.355416 505.542634 
L 164.537911 505.343205 
L 168.999901 505.191569 
L 171.230896 505.191569 
L 171.376396 504.294499 
L 173.99539 504.149782 
L 180.251876 503.927215 
L 194.995843 503.624003 
L 195.141343 502.98945 
L 207.023816 502.896037 
L 207.266316 502.749508 
L 208.333313 502.714583 
L 218.80929 502.556337 
L 219.391289 501.526664 
L 220.118787 501.414313 
L 223.659279 501.233193 
L 230.061265 501.070438 
L 230.643264 501.070438 
L 230.740264 501.939704 
L 230.788763 501.933914 
L 232.825759 501.65681 
L 239.906743 501.051052 
L 242.525737 501.051052 
L 242.574237 502.014215 
L 242.671237 501.985116 
L 243.689735 501.682549 
L 245.193231 501.642217 
L 249.073223 501.806646 
L 253.826212 501.970387 
L 254.408211 501.970387 
L 254.55371 502.287571 
L 255.087209 502.032018 
L 256.105707 501.651384 
L 257.609204 501.346367 
L 260.082698 501.097216 
L 264.011189 500.941973 
L 266.290684 500.941973 
L 266.436184 501.130753 
L 269.103678 501.544933 
L 272.935169 501.763348 
L 277.930658 501.855876 
L 278.949156 501.964021 
L 280.404153 502.249272 
L 282.926147 502.487102 
L 287.533637 502.671709 
L 290.055631 502.671709 
L 290.201131 502.314465 
L 295.00262 502.098286 
L 303.9266 501.933905 
L 309.746587 502.439958 
L 312.365581 502.564885 
L 313.772078 502.564885 
L 313.917578 502.352179 
L 317.021571 501.913382 
L 320.465063 501.831454 
L 325.654552 501.848327 
L 325.800051 502.582036 
L 326.964049 502.800418 
L 329.340544 502.99867 
L 334.627032 503.17336 
L 337.537025 503.179623 
L 337.682525 503.583388 
L 339.91352 503.903232 
L 342.047515 504.050703 
L 342.193015 350.687991 
L 347.140004 350.505314 
L 349.419499 350.142426 
L 351.747494 349.537276 
L 354.560487 348.55973 
L 358.973977 347.000341 
L 361.204972 347.000341 
L 361.447472 350.17773 
L 361.641472 350.557313 
L 362.029471 350.675013 
L 363.484467 350.725481 
L 385.309419 350.894773 
L 385.454918 350.576879 
L 385.842918 349.667844 
L 386.230917 349.297087 
L 386.861415 349.041584 
L 388.025413 348.862235 
L 390.595907 348.744405 
L 397.094892 348.700176 
L 397.191892 348.872524 
L 397.240392 348.849633 
L 398.11339 348.325409 
L 399.180388 348.191876 
L 402.235881 348.102251 
L 408.977366 348.070288 
L 409.122866 347.848509 
L 432.742313 347.72361 
L 432.887813 347.340035 
L 447.58328 347.281882 
L 462.375747 347.157555 
L 468.923232 347.175342 
L 474.40372 347.082158 
L 486.771192 346.95097 
L 493.803677 346.917441 
L 497.150169 346.782576 
L 504.037154 346.726752 
L 504.231153 346.783433 
L 508.984143 346.886083 
L 515.919627 346.914633 
L 516.065127 346.732527 
L 521.788114 346.858135 
L 527.802101 346.876261 
L 527.947601 347.026153 
L 531.100094 347.049459 
L 539.684574 347.008924 
L 539.830074 347.170923 
L 553.507044 347.124184 
L 560.879027 347.050207 
L 563.401021 347.050207 
L 563.546521 347.180017 
L 567.475012 347.247442 
L 579.793985 347.388427 
L 579.842485 350.717621 
L 579.939485 350.692061 
L 581.588481 350.585196 
L 582.655479 350.267807 
L 585.759472 349.181818 
L 587.553968 348.904493 
L 590.318461 348.727884 
L 596.089949 348.627639 
L 598.951442 348.626247 
L 599.145442 350.759862 
L 603.898431 350.831533 
L 612.676912 350.877933 
L 622.958889 350.881252 
L 623.007388 350.635444 
L 623.201388 348.336562 
L 623.395388 348.175206 
L 624.122886 348.172711 
L 630.379372 348.217487 
L 634.841362 348.218205 
L 634.986862 348.362917 
L 636.247859 348.455212 
L 643.183343 348.48125 
L 646.723836 348.48076 
L 646.869335 348.628127 
L 658.606309 348.618308 
L 658.751809 348.827366 
L 670.488783 348.78862 
L 670.634282 348.554162 
L 718.018677 348.339759 
L 718.164176 348.233787 
L 722.674666 348.311316 
L 729.90115 348.359707 
L 730.04665 348.538919 
L 739.164629 348.287858 
L 744.402618 348.398578 
L 753.666097 348.435907 
L 753.811597 348.24345 
L 765.548571 348.315025 
L 765.69407 348.790622 
L 767.731066 348.889048 
L 777.431044 348.915005 
L 777.576544 350.267346 
L 778.643541 350.426755 
L 781.602035 350.487803 
L 817.540455 350.636338 
L 817.540455 350.636338 
" clip-path="url(#p9ad07e9856)" style="fill: none; stroke: #0000ff; stroke-width: 1.5; stroke-linecap: square"/>
   </g>
   <g id="line2d_56">
    <path d="M 104.349545 350.717633 
L 104.398045 346.124671 
L 104.446545 347.68174 
L 104.592045 349.931285 
L 104.737545 348.838397 
L 104.834544 349.143249 
L 104.883044 348.995487 
L 104.931544 349.145883 
L 105.416543 349.119408 
L 105.610543 348.976376 
L 106.047042 349.077169 
L 107.211039 349.301936 
L 107.502038 349.484458 
L 108.763036 349.218235 
L 110.509032 347.709676 
L 111.18803 346.286671 
L 111.33353 346.303644 
L 111.527529 346.2771 
L 111.721529 346.256534 
L 112.061028 346.003949 
L 113.031026 344.454545 
L 113.225026 344.158397 
L 113.952524 342.772619 
L 114.437523 341.361277 
L 114.825522 340.24551 
L 115.262021 338.92989 
L 115.74702 337.610365 
L 116.959517 331.544399 
L 118.026515 326.451194 
L 118.560014 323.665482 
L 119.239012 321.25211 
L 120.015011 318.544222 
L 120.985008 316.2823 
L 123.458503 316.2823 
L 123.604003 500.127051 
L 123.749502 515.143569 
L 123.798002 516.908173 
L 123.846502 515.909927 
L 123.992002 515.154348 
L 124.040502 515.162147 
L 124.380001 519.405135 
L 124.5255 520.017454 
L 124.6225 519.955039 
L 124.7195 519.593887 
L 124.8165 519.822559 
L 124.865 519.861914 
L 125.058999 520.807748 
L 125.107499 520.710154 
L 125.204499 520.507627 
L 125.737998 519.103537 
L 125.786498 519.127019 
L 125.883497 519.229932 
L 126.028997 518.849899 
L 126.222997 518.875032 
L 126.368496 518.745939 
L 126.901995 518.308051 
L 126.950495 518.367851 
L 127.192994 518.854463 
L 127.435494 518.72705 
L 128.356992 520.432808 
L 128.453992 520.376753 
L 128.938991 520.239731 
L 129.27849 520.714621 
L 129.860489 520.706739 
L 130.102988 520.827361 
L 130.248488 520.862996 
L 131.024486 520.922969 
L 131.412485 521.117292 
L 131.800484 521.188902 
L 132.285483 521.430466 
L 132.624982 521.370181 
L 133.158481 521.535125 
L 133.64348 521.514734 
L 134.419478 521.740688 
L 134.613478 521.771358 
L 134.904477 521.912899 
L 135.146977 521.905959 
L 136.068475 521.835371 
L 137.814471 521.716754 
L 138.34797 521.715188 
L 139.123968 521.786496 
L 141.257963 522.627945 
L 141.888462 522.730728 
L 144.264956 523.183851 
L 144.652956 523.242303 
L 147.465949 523.230869 
L 147.708449 518.746229 
L 148.096448 511.974656 
L 148.338947 510.773213 
L 148.678447 509.215943 
L 148.872446 508.100364 
L 149.648444 506.807434 
L 150.036444 507.712114 
L 150.084943 507.623515 
L 150.278943 507.835179 
L 150.424443 507.887776 
L 150.569942 507.969138 
L 150.666942 507.895622 
L 150.715442 507.961511 
L 150.909442 508.132381 
L 151.200441 508.317058 
L 151.44294 508.112616 
L 152.024939 508.312933 
L 152.218939 508.450506 
L 152.800937 508.589741 
L 153.091937 509.00688 
L 153.334436 509.30006 
L 153.479936 509.455882 
L 153.625436 509.495317 
L 153.964935 509.62395 
L 154.401434 509.823051 
L 154.595433 509.756473 
L 154.837933 509.653584 
L 154.983433 509.537969 
L 155.177432 509.489856 
L 155.759431 509.767925 
L 157.602427 509.607974 
L 159.348423 509.607974 
L 159.493922 507.512417 
L 159.542422 507.292824 
L 159.590922 507.418066 
L 159.687922 507.658154 
L 159.784922 507.282076 
L 159.833422 507.391864 
L 159.881922 507.627036 
L 159.930421 507.493127 
L 160.221421 506.782857 
L 160.318421 506.827078 
L 160.36692 506.772576 
L 160.41542 506.757417 
L 160.70642 506.141533 
L 160.900419 506.345039 
L 160.948919 506.279833 
L 161.239919 506.042133 
L 161.579418 505.845722 
L 161.676418 505.825943 
L 161.870417 505.664444 
L 162.355416 505.587049 
L 162.597916 505.731993 
L 162.985915 506.203115 
L 163.131414 506.252003 
L 163.567913 506.445659 
L 163.858913 506.523778 
L 164.295412 506.923 
L 164.489411 506.946253 
L 165.750408 506.444508 
L 166.283907 506.473772 
L 166.574907 506.429851 
L 167.108405 506.536262 
L 168.417903 506.23262 
L 168.708902 506.277584 
L 171.230896 506.277584 
L 171.327896 503.940319 
L 171.376396 503.949642 
L 172.394894 504.14834 
L 173.99539 504.454337 
L 176.032386 504.459781 
L 176.711384 504.580144 
L 177.099383 504.613487 
L 180.203376 504.612674 
L 181.221874 504.602675 
L 183.11337 504.602675 
L 183.21037 504.824127 
L 183.258869 504.804549 
L 184.180367 504.640199 
L 184.422867 504.599416 
L 185.344365 504.483926 
L 185.732364 504.482416 
L 186.023363 504.428013 
L 186.605362 504.29807 
L 191.649351 504.087962 
L 193.880346 504.179908 
L 194.995843 504.179908 
L 195.141343 507.249847 
L 196.40234 508.311241 
L 197.081339 508.640724 
L 197.857337 508.97336 
L 198.681835 509.154301 
L 199.215334 509.220596 
L 199.506333 509.287352 
L 199.991332 509.433275 
L 200.427831 509.575577 
L 201.785828 509.793106 
L 202.367827 509.988128 
L 202.852826 510.094529 
L 203.725824 510.215484 
L 204.647322 510.264503 
L 206.975317 510.222222 
L 207.169316 509.940458 
L 207.460315 509.927732 
L 214.3473 509.91408 
L 218.76079 509.92637 
L 218.80929 510.208057 
L 218.85779 510.041688 
L 219.100289 509.021993 
L 219.342789 508.958751 
L 219.536789 509.025595 
L 221.137285 508.498482 
L 221.525284 508.481879 
L 222.689281 508.338637 
L 223.028781 508.299427 
L 224.047278 508.224901 
L 224.677777 508.000656 
L 228.654768 507.713861 
L 230.643264 507.713861 
L 230.788763 509.013571 
L 231.273762 509.959167 
L 231.467762 509.859887 
L 231.904261 509.824929 
L 232.09826 509.780779 
L 232.971259 509.999195 
L 233.310758 510.068583 
L 234.038256 510.266088 
L 235.687252 510.383089 
L 236.560251 510.323183 
L 238.015247 510.186272 
L 238.597246 510.108562 
L 240.100743 510.066564 
L 242.525737 510.066564 
L 242.622737 512.658287 
L 242.671237 512.650986 
L 243.350235 512.642456 
L 243.835234 512.403027 
L 244.029234 512.305857 
L 244.465733 512.232201 
L 244.756732 512.348483 
L 245.193231 512.221872 
L 245.87223 512.179664 
L 247.084727 512.09356 
L 247.521226 512.100455 
L 247.909225 512.042622 
L 248.151725 512.036955 
L 248.539724 512.198427 
L 248.782223 512.17857 
L 249.121723 512.192313 
L 250.28572 512.23519 
L 250.625219 512.172238 
L 250.867719 512.158536 
L 251.207218 512.082927 
L 251.546717 512.063169 
L 252.322715 512.109315 
L 254.408211 512.109315 
L 254.456711 512.367043 
L 254.55371 512.314902 
L 256.154207 511.369835 
L 256.590706 511.360939 
L 257.318204 511.234794 
L 259.2582 510.976205 
L 260.179698 511.003123 
L 265.563186 510.863045 
L 266.290684 510.863045 
L 266.436184 510.492359 
L 267.939681 510.473731 
L 268.521679 510.424743 
L 269.685677 510.395016 
L 278.173158 510.086842 
L 278.318657 511.007515 
L 279.046156 511.172775 
L 279.725154 511.346499 
L 280.210153 511.462689 
L 280.743652 511.479808 
L 282.635148 511.760298 
L 283.750645 511.855961 
L 288.891634 512.213509 
L 290.055631 512.213509 
L 290.201131 510.61244 
L 290.44363 510.65604 
L 290.73463 510.898162 
L 291.898627 510.686738 
L 292.577626 510.571286 
L 292.868625 510.54214 
L 293.499124 510.366394 
L 294.90562 510.206788 
L 295.29362 510.212666 
L 297.379115 509.751897 
L 300.725607 509.536842 
L 301.938105 509.536842 
L 302.083604 514.621926 
L 302.180604 514.695831 
L 302.326104 514.571192 
L 302.568603 514.614891 
L 303.150602 514.115827 
L 303.587101 514.243682 
L 305.430097 514.880904 
L 305.866596 514.964787 
L 308.049091 515.733678 
L 308.38859 515.822671 
L 309.116089 515.943771 
L 310.377086 516.001915 
L 311.007584 515.984759 
L 313.772078 515.986676 
L 313.917578 515.602424 
L 314.499577 515.318457 
L 315.275575 514.881179 
L 315.954573 514.853282 
L 316.439572 514.79183 
L 317.70057 514.63811 
L 325.654552 514.20835 
L 325.800051 515.026959 
L 327.352048 515.218053 
L 331.765538 515.303886 
L 334.772531 515.29872 
L 337.537025 515.300481 
L 337.682525 515.095823 
L 340.689518 515.243528 
L 341.562516 515.317227 
L 342.047515 515.367341 
L 342.144515 346.77084 
L 342.193015 348.561663 
L 342.338515 350.921754 
L 342.484014 349.840551 
L 342.629514 350.001017 
L 342.775014 350.160225 
L 343.745011 350.03813 
L 343.890511 350.143437 
L 343.987511 350.103629 
L 344.036011 350.16648 
L 344.23001 350.234177 
L 345.927507 350.772386 
L 346.121506 350.906467 
L 346.364006 350.986711 
L 346.558005 350.913755 
L 347.237004 350.668653 
L 347.431003 350.697935 
L 347.625003 350.787621 
L 347.916002 350.747377 
L 348.207001 350.650779 
L 348.401001 350.420945 
L 348.9345 349.873794 
L 348.983 349.976768 
L 349.807498 350.65309 
L 350.049997 350.660584 
L 350.243997 350.647861 
L 350.825996 350.539803 
L 351.359494 350.6093 
L 351.456494 350.567615 
L 351.747494 350.267207 
L 351.892993 350.073645 
L 351.941493 350.107739 
L 351.989993 350.036228 
L 352.183993 349.834437 
L 352.426492 349.662867 
L 352.911491 349.045666 
L 353.105491 349.009955 
L 353.34799 349.132249 
L 353.44499 348.894349 
L 354.172488 346.585074 
L 354.414988 346.129221 
L 355.675985 342.922675 
L 355.772985 342.706857 
L 356.063984 341.93279 
L 356.403483 341.120008 
L 357.179481 340.046758 
L 357.470481 339.689452 
L 357.61598 339.686958 
L 357.71298 339.631937 
L 357.85848 339.539642 
L 358.05248 339.627722 
L 358.537478 339.107558 
L 361.204972 339.107558 
L 361.253472 335.93667 
L 361.301972 339.504525 
L 361.447472 347.568383 
L 361.641472 342.808206 
L 361.786971 341.574258 
L 362.12647 344.995802 
L 362.27197 345.452448 
L 362.32047 345.306173 
L 362.36897 345.312692 
L 362.46597 344.888035 
L 362.562969 345.063985 
L 362.611469 345.080161 
L 362.805469 345.948922 
L 362.853969 345.8356 
L 362.950969 345.604276 
L 363.532967 344.106524 
L 363.629967 344.196167 
L 363.775467 343.798191 
L 363.969466 343.802826 
L 364.163466 343.61187 
L 364.648465 343.183824 
L 364.793964 343.477568 
L 364.939464 343.712573 
L 364.987964 343.662712 
L 365.181964 343.573691 
L 366.103462 345.248851 
L 366.200461 345.190288 
L 366.68546 345.043538 
L 367.02496 345.511381 
L 367.606958 345.490294 
L 367.849458 345.606578 
L 367.994957 345.639906 
L 368.770956 345.688168 
L 369.158955 345.877645 
L 369.546954 345.943577 
L 370.031953 346.177488 
L 370.371452 346.114095 
L 370.904951 346.273417 
L 371.38995 346.245247 
L 372.165948 346.460401 
L 372.359948 346.488344 
L 372.650947 346.626217 
L 372.893446 346.617708 
L 373.766444 346.564436 
L 373.960444 346.55994 
L 375.56094 346.38975 
L 376.094439 346.379256 
L 376.870438 346.436357 
L 378.907433 347.221101 
L 379.925931 347.359232 
L 380.16843 347.349211 
L 380.604929 347.457604 
L 382.059926 347.726476 
L 383.029924 347.77114 
L 385.212419 347.77114 
L 385.357919 342.393131 
L 385.939917 335.535793 
L 385.988417 335.611611 
L 386.036917 335.649508 
L 386.861415 332.920061 
L 386.958415 332.888277 
L 387.394914 332.470984 
L 387.782913 333.471498 
L 387.831413 333.392806 
L 388.025413 333.639121 
L 388.219412 333.773007 
L 388.364912 333.774843 
L 388.461912 333.825928 
L 388.655911 334.017815 
L 388.946911 334.228077 
L 389.18941 334.041698 
L 389.771409 334.27344 
L 389.965408 334.418646 
L 390.547407 334.574983 
L 390.838406 334.998409 
L 391.080906 335.29554 
L 391.226406 335.453532 
L 391.371905 335.494689 
L 391.711404 335.626235 
L 392.147903 335.827109 
L 392.341903 335.76109 
L 392.584402 335.658187 
L 392.729902 335.542627 
L 392.923902 335.494603 
L 393.5059 335.77186 
L 395.300396 335.610563 
L 397.094892 335.610563 
L 397.191892 338.240296 
L 397.240392 338.214499 
L 397.288892 338.093904 
L 397.434392 338.795197 
L 397.482892 338.72853 
L 397.531391 338.610736 
L 397.628391 339.110978 
L 397.676891 339.04245 
L 397.919391 338.647677 
L 397.96789 338.601574 
L 398.01639 338.682989 
L 398.16189 338.689751 
L 398.40439 338.256127 
L 398.452889 338.19184 
L 398.501389 338.252122 
L 398.646889 338.453292 
L 398.695389 338.400217 
L 398.937888 338.223788 
L 399.180388 338.16029 
L 399.665387 337.933961 
L 399.810886 337.962736 
L 400.004886 337.877374 
L 400.392885 338.168164 
L 400.683884 338.583832 
L 400.974884 338.687465 
L 401.459883 338.853786 
L 401.605382 338.952615 
L 402.041881 339.371322 
L 402.235881 339.402842 
L 403.545378 338.954906 
L 403.836377 339.016681 
L 404.272876 338.93486 
L 404.951875 339.04856 
L 406.164372 338.797887 
L 406.455372 338.845034 
L 408.977366 338.845034 
L 409.074366 337.121042 
L 409.122866 337.133479 
L 409.704864 337.214594 
L 409.995864 337.334349 
L 411.256861 337.605628 
L 411.79036 337.700196 
L 418.919844 337.997779 
L 420.859839 337.997779 
L 420.956839 338.324549 
L 421.005339 338.308564 
L 422.072337 338.198846 
L 428.765322 337.748206 
L 429.78382 337.82376 
L 431.626815 337.873764 
L 432.742313 337.873764 
L 432.887813 341.072907 
L 434.10031 342.057293 
L 434.585309 342.314626 
L 436.767804 342.956964 
L 439.726297 343.603679 
L 440.405296 343.773144 
L 441.181294 343.85369 
L 442.781791 343.959059 
L 444.770286 343.89032 
L 444.964286 343.853514 
L 447.68028 343.932014 
L 452.14227 343.91186 
L 456.50726 343.927772 
L 456.55576 344.504014 
L 456.60426 344.447909 
L 456.749759 344.134098 
L 456.798259 344.170264 
L 457.234758 344.474338 
L 457.574258 344.415701 
L 458.495755 344.189619 
L 458.835255 344.08266 
L 461.16325 343.909616 
L 461.405749 343.90382 
L 461.648248 343.940415 
L 461.987748 343.806763 
L 462.618246 343.664733 
L 464.218743 343.602895 
L 468.098734 343.455552 
L 468.389733 343.455552 
L 468.535233 344.113606 
L 469.020232 345.128341 
L 469.214232 345.04959 
L 469.650731 345.049942 
L 469.84473 345.021322 
L 470.717728 345.307865 
L 471.057227 345.402354 
L 471.784726 345.651375 
L 473.433722 345.88045 
L 474.30672 345.87623 
L 475.761717 345.825172 
L 476.343716 345.777912 
L 478.138212 345.798335 
L 480.272207 345.798335 
L 480.417707 347.537889 
L 481.096705 347.723254 
L 481.581704 347.528041 
L 481.775704 347.440533 
L 482.212203 347.375595 
L 482.503202 347.493498 
L 482.939701 347.362422 
L 483.618699 347.306696 
L 484.831197 347.18323 
L 485.267696 347.176793 
L 485.704195 347.127471 
L 486.722692 347.175994 
L 487.353191 347.250996 
L 487.595691 347.30199 
L 489.778186 347.039332 
L 492.44568 346.950823 
L 493.561177 346.526996 
L 494.094676 346.49632 
L 494.531175 346.544546 
L 503.261156 346.396503 
L 504.037154 346.396503 
L 504.182654 345.895913 
L 505.73465 345.676542 
L 506.559148 345.588436 
L 508.159645 345.399454 
L 510.24514 345.207013 
L 512.233636 345.097149 
L 513.979632 345.046194 
L 515.919627 345.046194 
L 516.065127 345.797375 
L 516.647126 345.806869 
L 517.083625 345.830925 
L 518.005123 345.886207 
L 518.490122 345.857922 
L 520.527117 345.974192 
L 526.492604 346.276666 
L 527.802101 346.276666 
L 527.947601 345.210268 
L 528.1901 345.283943 
L 528.481099 345.556359 
L 529.499597 345.437858 
L 530.324095 345.313792 
L 530.615095 345.293869 
L 531.245593 345.136375 
L 532.65209 345.015214 
L 533.040089 345.030854 
L 535.222584 344.603913 
L 539.684574 344.411577 
L 539.830074 349.15401 
L 539.927074 349.225441 
L 540.072573 349.097427 
L 540.315073 349.131981 
L 540.897072 348.597048 
L 541.333571 348.693227 
L 543.176567 349.184462 
L 543.613066 349.235416 
L 545.795561 349.824089 
L 546.08656 349.881959 
L 551.518548 349.851729 
L 551.664048 349.629544 
L 552.585546 349.336506 
L 553.361544 349.129186 
L 554.283042 349.089241 
L 555.10754 348.999773 
L 556.320037 348.954483 
L 563.110022 348.630464 
L 563.401021 348.630464 
L 563.546521 348.882888 
L 567.960011 348.796058 
L 571.743003 348.689637 
L 575.283495 348.673516 
L 575.428995 348.13819 
L 577.56299 348.100858 
L 578.144989 348.003562 
L 579.599985 348.041537 
L 579.793985 348.061892 
L 579.842485 350.717637 
L 579.890985 346.185113 
L 579.939485 348.469706 
L 580.084984 350.93825 
L 580.278984 349.552909 
L 580.327484 349.788388 
L 580.375984 349.709951 
L 580.618483 353.472922 
L 580.909482 359.661128 
L 580.957982 359.494534 
L 581.103482 362.087035 
L 581.151982 361.90778 
L 581.394481 358.050901 
L 581.539981 360.059651 
L 581.685481 359.021749 
L 582.17048 369.540214 
L 582.461479 374.615283 
L 583.382977 401.21635 
L 583.431477 401.13258 
L 583.576976 398.85769 
L 583.625476 399.378197 
L 583.722476 398.037692 
L 583.770976 398.383049 
L 583.916476 402.743158 
L 583.964976 402.623863 
L 584.061975 402.786592 
L 584.207475 399.479232 
L 584.401475 394.080552 
L 584.449974 394.431678 
L 584.498474 394.229397 
L 585.031973 383.373377 
L 585.080473 383.7413 
L 585.128973 383.471826 
L 585.177473 383.775334 
L 585.274473 385.517441 
L 585.322973 385.264013 
L 585.371472 384.969733 
L 585.516972 382.519867 
L 585.565472 382.837403 
L 585.710972 383.487547 
L 585.759472 383.313245 
L 585.856471 380.533713 
L 585.904971 380.807451 
L 585.953471 380.652151 
L 586.098971 376.954313 
L 586.58397 363.021239 
L 586.63247 362.776695 
L 586.68097 363.043888 
L 586.874969 367.109998 
L 586.923469 367.454027 
L 587.311468 374.988365 
L 587.408468 374.619343 
L 587.553968 376.27071 
L 587.699467 374.562622 
L 587.747967 374.740933 
L 587.893467 375.80431 
L 588.184466 372.455919 
L 588.378466 369.701625 
L 588.475466 369.571539 
L 588.572465 370.600388 
L 588.620965 370.436709 
L 588.863465 368.861336 
L 588.911965 369.329669 
L 588.960464 369.7699 
L 589.008964 369.720253 
L 589.057464 369.513109 
L 589.154464 369.868683 
L 589.833462 361.093625 
L 590.172962 358.727646 
L 590.560961 352.654691 
L 590.609461 352.864371 
L 590.94896 355.273878 
L 590.99746 355.819018 
L 591.04596 355.336934 
L 591.09446 355.141998 
L 591.191459 352.914919 
L 591.627958 341.243089 
L 591.918958 334.614785 
L 592.064458 334.151063 
L 592.452457 329.043617 
L 592.743456 327.30353 
L 593.082955 323.085789 
L 593.131455 323.115451 
L 593.373955 320.923488 
L 594.004453 314.603225 
L 594.101453 315.136149 
L 594.295453 315.71304 
L 594.392452 315.793659 
L 594.537952 316.495157 
L 594.586452 316.412428 
L 594.683452 315.971428 
L 594.731952 316.022646 
L 594.877451 316.135288 
L 595.071451 315.495057 
L 595.119951 315.470179 
L 595.45945 317.337109 
L 595.50795 317.323944 
L 595.798949 319.400275 
L 595.944449 319.248152 
L 595.992949 319.003209 
L 596.089949 319.026943 
L 596.186948 319.586797 
L 596.235448 319.559801 
L 596.380948 319.440354 
L 598.951442 319.440354 
L 599.096942 351.144376 
L 599.193942 348.944134 
L 599.387941 342.153441 
L 599.533441 340.764133 
L 599.87294 344.316061 
L 600.01844 344.722257 
L 600.11544 344.57781 
L 600.212439 344.119946 
L 600.309439 344.25781 
L 600.406439 344.553416 
L 600.551939 345.326572 
L 600.600438 345.142805 
L 600.697438 344.931142 
L 601.085437 343.854698 
L 601.279437 343.210767 
L 601.376437 343.254041 
L 601.521936 342.844714 
L 601.909936 342.534358 
L 602.394934 341.531325 
L 602.491934 341.762879 
L 602.879933 342.397948 
L 602.976933 342.551835 
L 603.364932 343.56469 
L 603.413432 343.577715 
L 603.558932 343.8608 
L 603.849931 344.459525 
L 603.898431 344.359096 
L 604.23793 344.439988 
L 604.52893 344.613693 
L 604.722929 344.933105 
L 604.868429 344.900477 
L 605.013929 344.789051 
L 605.207928 344.819065 
L 605.304928 344.895476 
L 605.595927 345.137721 
L 605.692927 345.220175 
L 605.886927 345.063087 
L 605.983926 344.987055 
L 606.129426 345.026381 
L 607.002424 345.230483 
L 607.147924 345.211732 
L 607.487423 345.504577 
L 607.826922 345.607592 
L 607.972422 345.512244 
L 608.214921 345.682149 
L 608.360421 345.893226 
L 608.99092 345.657582 
L 609.427419 345.848368 
L 609.621418 346.049863 
L 610.057917 345.929901 
L 610.833916 346.064378 
L 610.979415 346.001019 
L 611.173415 346.015791 
L 611.464414 345.871858 
L 611.658414 345.812712 
L 612.288912 345.880601 
L 612.676912 345.687419 
L 612.919411 345.658637 
L 613.986409 345.436046 
L 614.180408 345.420978 
L 614.422908 345.397986 
L 614.762407 345.473532 
L 615.101906 345.604489 
L 615.295906 345.779414 
L 615.683905 345.852039 
L 615.780905 345.905002 
L 615.926404 345.995305 
L 616.071904 345.985085 
L 616.702403 346.303683 
L 618.642398 346.840654 
L 618.836398 346.890786 
L 619.030397 346.892982 
L 619.127397 346.897483 
L 619.224397 346.810137 
L 619.563896 346.968134 
L 619.806396 346.93425 
L 620.000395 346.832967 
L 620.242895 346.967011 
L 620.533894 346.944145 
L 622.958889 346.944145 
L 623.055888 324.461678 
L 623.201388 312.967273 
L 623.298388 313.449516 
L 623.395388 316.34075 
L 623.443888 314.752661 
L 623.540887 314.939848 
L 623.734887 318.194402 
L 623.880387 318.992184 
L 624.025886 318.836695 
L 624.122886 318.642633 
L 624.316886 316.124509 
L 624.365385 316.313701 
L 624.413885 316.427322 
L 624.462385 316.329481 
L 624.607885 316.185021 
L 624.753385 316.373624 
L 624.898884 316.137146 
L 625.044384 316.769125 
L 625.092884 316.593682 
L 625.141384 316.589458 
L 625.529383 319.673059 
L 625.577883 319.451498 
L 625.674883 319.648565 
L 625.820382 320.077867 
L 625.868882 320.009135 
L 625.917382 319.882796 
L 625.965882 319.932142 
L 626.014382 320.005161 
L 626.062882 319.960722 
L 626.159881 319.805239 
L 626.353881 320.216958 
L 626.402381 320.124311 
L 626.547881 320.314984 
L 626.64488 320.537773 
L 626.69338 320.483827 
L 626.79038 320.128226 
L 626.88738 320.172333 
L 626.93588 320.067446 
L 626.98438 320.112503 
L 627.178379 320.299727 
L 627.372379 320.228956 
L 627.614878 320.554756 
L 627.760378 320.467355 
L 628.002877 320.083401 
L 628.051377 320.062727 
L 629.021375 322.353098 
L 629.360874 322.16982 
L 629.700374 322.453708 
L 630.670371 320.850986 
L 631.25237 321.007339 
L 631.543369 320.852028 
L 631.979868 320.686232 
L 632.270868 320.462229 
L 634.841362 320.462229 
L 634.986862 323.221106 
L 635.035362 323.538756 
L 635.229361 327.202429 
L 635.277861 327.238189 
L 635.423361 329.151348 
L 635.471861 329.031577 
L 635.56886 328.738629 
L 635.61736 328.905426 
L 635.90836 329.594616 
L 636.102359 328.987198 
L 636.247859 329.270041 
L 636.393359 330.064125 
L 636.441859 330.050679 
L 636.781358 329.763517 
L 636.926857 329.872119 
L 637.169357 329.678501 
L 637.266357 329.4137 
L 637.314857 329.472651 
L 637.460356 329.583264 
L 637.508856 329.698451 
L 637.557356 329.611446 
L 637.702856 329.436092 
L 637.993855 329.890185 
L 638.575854 331.337333 
L 638.818353 331.592492 
L 639.157852 331.763988 
L 639.303352 331.872163 
L 639.691351 332.818005 
L 639.885351 333.04035 
L 639.933851 333.003699 
L 640.27335 332.875201 
L 640.661349 332.376645 
L 641.146348 332.091226 
L 641.291848 332.118953 
L 641.534347 332.294056 
L 642.164846 332.224854 
L 642.455845 332.444428 
L 642.601345 332.407461 
L 643.910842 331.83293 
L 644.104841 331.948299 
L 646.723836 331.948299 
L 646.869335 330.218355 
L 647.063335 330.041217 
L 647.111835 330.122143 
L 647.208835 330.254549 
L 647.257334 330.219896 
L 647.645334 329.790161 
L 648.178832 330.167498 
L 648.421332 330.219397 
L 648.857831 330.849844 
L 649.10033 330.885526 
L 649.29433 330.849866 
L 649.488329 330.84923 
L 649.779329 330.702087 
L 650.070328 330.583779 
L 650.215828 330.781444 
L 650.361327 330.85334 
L 650.652327 330.999109 
L 650.846326 331.148019 
L 651.234326 331.018478 
L 652.010324 331.604585 
L 652.252823 331.537107 
L 652.495323 331.561619 
L 652.689322 331.595485 
L 653.028822 331.562698 
L 653.271321 331.652591 
L 653.56232 331.76467 
L 654.338319 331.959528 
L 654.774818 332.053167 
L 654.968817 332.092392 
L 655.453816 332.092551 
L 656.569314 332.082895 
L 658.606309 332.082895 
L 658.751809 330.035364 
L 659.091308 330.221288 
L 659.285308 330.387968 
L 659.624807 330.306398 
L 659.915806 330.250955 
L 660.206806 330.249926 
L 660.449305 330.21622 
L 661.322303 330.190881 
L 661.516303 330.096631 
L 661.952802 329.921771 
L 662.340801 329.879865 
L 662.7773 329.917175 
L 663.795798 329.843326 
L 665.008295 329.663182 
L 666.317792 329.37352 
L 666.802791 329.359354 
L 670.488783 329.248079 
L 670.634282 333.604603 
L 670.925282 333.681846 
L 671.55578 333.820527 
L 672.137779 333.786978 
L 672.525778 333.789948 
L 674.077775 333.473519 
L 674.805273 333.232731 
L 675.338772 333.203834 
L 676.16327 333.116018 
L 676.890768 333.042415 
L 677.327267 333.081271 
L 677.666767 333.156713 
L 677.909266 333.197966 
L 678.345765 333.293515 
L 678.782264 333.309119 
L 679.218763 333.432227 
L 679.800762 333.509325 
L 682.371256 333.509325 
L 682.516756 327.441221 
L 682.710755 327.26007 
L 683.341254 327.239686 
L 684.89325 327.262918 
L 690.276738 327.289657 
L 691.780235 327.473133 
L 694.25373 327.473133 
L 694.350729 334.985489 
L 694.399229 334.969014 
L 695.223727 336.074131 
L 695.805726 336.529634 
L 696.484725 336.988722 
L 696.678724 337.028199 
L 697.357723 337.095656 
L 697.745722 337.191066 
L 698.61872 337.223786 
L 698.958219 337.292813 
L 699.152219 337.271712 
L 699.394718 337.226741 
L 699.685717 337.364853 
L 700.219216 337.538707 
L 701.189214 337.453165 
L 701.577213 337.440226 
L 702.450211 337.498595 
L 704.584207 337.548552 
L 706.136203 337.548552 
L 706.281703 339.984435 
L 706.766702 343.29533 
L 706.815202 343.20924 
L 706.863701 343.257275 
L 707.009201 343.330688 
L 707.979199 343.683102 
L 708.221698 343.974699 
L 708.367198 344.083337 
L 708.755197 344.385755 
L 708.900697 344.459201 
L 709.143196 344.677215 
L 709.725195 344.963578 
L 709.870695 345.015555 
L 710.064694 345.004014 
L 710.792193 345.343041 
L 718.018677 345.34295 
L 718.164176 348.07991 
L 718.503675 348.263001 
L 718.697675 348.409987 
L 718.794675 348.317022 
L 719.182674 347.73226 
L 719.328174 347.749274 
L 719.473673 347.760958 
L 719.813173 347.459012 
L 720.201172 347.840995 
L 720.249672 347.785539 
L 720.589171 347.567781 
L 721.462169 347.430056 
L 721.753168 347.381054 
L 722.044168 347.201432 
L 722.383667 347.156177 
L 722.965666 347.283719 
L 723.741664 347.209605 
L 724.081163 347.512551 
L 724.420662 347.397406 
L 724.614662 347.427058 
L 725.778659 347.483663 
L 726.069659 347.337165 
L 726.312158 347.361499 
L 726.748657 347.106385 
L 727.912654 347.138637 
L 730.289149 347.036284 
L 730.871148 346.811279 
L 731.162147 346.790596 
L 731.792646 346.819658 
L 732.229145 347.002937 
L 732.908143 347.048127 
L 733.393142 347.12043 
L 733.587142 347.123155 
L 734.072141 346.993209 
L 736.060636 347.227766 
L 737.079134 347.158069 
L 737.806632 347.286899 
L 738.82513 347.265436 
L 739.455629 347.242357 
L 741.783624 347.242357 
L 741.929123 346.348572 
L 743.38412 346.060475 
L 744.014619 345.879972 
L 744.790617 345.739553 
L 745.081616 345.708744 
L 745.518115 345.610645 
L 747.458111 345.280477 
L 749.446606 345.156843 
L 749.980105 345.103719 
L 750.998603 345.054812 
L 753.666097 345.054812 
L 753.811597 346.676499 
L 754.151096 346.63927 
L 754.975594 346.552898 
L 755.218094 346.55915 
L 755.654593 346.52909 
L 756.188091 346.390574 
L 757.934088 346.404873 
L 758.710086 346.31837 
L 759.825583 346.271678 
L 761.18358 346.329872 
L 762.929576 346.521196 
L 765.548571 346.521196 
L 765.69407 344.858813 
L 765.93657 344.940716 
L 766.227569 345.361983 
L 766.567068 345.239632 
L 766.761068 345.236177 
L 767.003567 345.205235 
L 767.391566 344.997721 
L 768.070565 344.805189 
L 768.313064 344.792115 
L 769.040563 344.473444 
L 770.932059 344.140874 
L 771.368558 343.913916 
L 771.950556 343.800911 
L 772.290055 343.691693 
L 772.678055 343.510229 
L 773.405553 343.503434 
L 773.745052 343.416101 
L 774.71505 343.245508 
L 777.431044 343.245508 
L 777.576544 351.821252 
L 777.625044 351.932293 
L 777.673543 351.910097 
L 777.819043 351.774116 
L 778.061543 351.823775 
L 778.595041 351.265909 
L 778.934541 351.267661 
L 779.516539 351.55612 
L 779.953038 351.661162 
L 780.244038 351.768829 
L 783.49353 352.519601 
L 783.78453 352.607817 
L 785.627526 352.68835 
L 789.265018 352.565195 
L 789.410517 352.37759 
L 790.380515 352.089697 
L 790.962514 351.901009 
L 791.447513 351.9431 
L 791.932512 351.915455 
L 793.387508 351.799796 
L 797.558499 351.56766 
L 799.352995 351.497771 
L 801.147491 351.497771 
L 801.292991 351.668109 
L 812.205466 351.281843 
L 813.029965 351.281843 
L 813.175464 350.657436 
L 815.06696 350.591008 
L 815.842958 350.492554 
L 816.327957 350.463057 
L 817.540455 350.52476 
L 817.540455 350.52476 
" clip-path="url(#p9ad07e9856)" style="fill: none; stroke-dasharray: 5.55,2.4; stroke-dashoffset: 0; stroke: #ff0000; stroke-width: 1.5"/>
   </g>
   <g id="line2d_57">
    <path d="M 342.096015 534.04 
L 342.096015 302.44 
" clip-path="url(#p9ad07e9856)" style="fill: none; stroke-dasharray: 1.5,2.475; stroke-dashoffset: 0; stroke: #808080; stroke-opacity: 0.6; stroke-width: 1.5"/>
   </g>
   <g id="line2d_58">
    <path d="M 579.842485 534.04 
L 579.842485 302.44 
" clip-path="url(#p9ad07e9856)" style="fill: none; stroke-dasharray: 1.5,2.475; stroke-dashoffset: 0; stroke: #808080; stroke-opacity: 0.6; stroke-width: 1.5"/>
   </g>
   <g id="patch_9">
    <path d="M 68.69 534.04 
L 68.69 302.44 
" style="fill: none; stroke: #000000; stroke-width: 0.8; stroke-linejoin: miter; stroke-linecap: square"/>
   </g>
   <g id="patch_10">
    <path d="M 853.2 534.04 
L 853.2 302.44 
" style="fill: none; stroke: #000000; stroke-width: 0.8; stroke-linejoin: miter; stroke-linecap: square"/>
   </g>
   <g id="patch_11">
    <path d="M 68.69 534.04 
L 853.2 534.04 
" style="fill: none; stroke: #000000; stroke-width: 0.8; stroke-linejoin: miter; stroke-linecap: square"/>
   </g>
   <g id="patch_12">
    <path d="M 68.69 302.44 
L 853.2 302.44 
" style="fill: none; stroke: #000000; stroke-width: 0.8; stroke-linejoin: miter; stroke-linecap: square"/>
   </g>
   <g id="text_31">
    <!-- [11] db_z  —  State Estimate -->
    <g transform="translate(375.03625 296.44) scale(0.12 -0.12)">
     <use xlink:href="#DejaVuSans-5b"/>
     <use xlink:href="#DejaVuSans-31" transform="translate(39.013672 0)"/>
     <use xlink:href="#DejaVuSans-31" transform="translate(102.636719 0)"/>
     <use xlink:href="#DejaVuSans-5d" transform="translate(166.259766 0)"/>
     <use xlink:href="#DejaVuSans-20" transform="translate(205.273438 0)"/>
     <use xlink:href="#DejaVuSans-64" transform="translate(237.060547 0)"/>
     <use xlink:href="#DejaVuSans-62" transform="translate(300.537109 0)"/>
     <use xlink:href="#DejaVuSans-5f" transform="translate(364.013672 0)"/>
     <use xlink:href="#DejaVuSans-7a" transform="translate(414.013672 0)"/>
     <use xlink:href="#DejaVuSans-20" transform="translate(466.503906 0)"/>
     <use xlink:href="#DejaVuSans-20" transform="translate(498.291016 0)"/>
     <use xlink:href="#DejaVuSans-2014" transform="translate(530.078125 0)"/>
     <use xlink:href="#DejaVuSans-20" transform="translate(630.078125 0)"/>
     <use xlink:href="#DejaVuSans-20" transform="translate(661.865234 0)"/>
     <use xlink:href="#DejaVuSans-53" transform="translate(693.652344 0)"/>
     <use xlink:href="#DejaVuSans-74" transform="translate(757.128906 0)"/>
     <use xlink:href="#DejaVuSans-61" transform="translate(796.337891 0)"/>
     <use xlink:href="#DejaVuSans-74" transform="translate(857.617188 0)"/>
     <use xlink:href="#DejaVuSans-65" transform="translate(896.826172 0)"/>
     <use xlink:href="#DejaVuSans-20" transform="translate(958.349609 0)"/>
     <use xlink:href="#DejaVuSans-45" transform="translate(990.136719 0)"/>
     <use xlink:href="#DejaVuSans-73" transform="translate(1053.320312 0)"/>
     <use xlink:href="#DejaVuSans-74" transform="translate(1105.419922 0)"/>
     <use xlink:href="#DejaVuSans-69" transform="translate(1144.628906 0)"/>
     <use xlink:href="#DejaVuSans-6d" transform="translate(1172.412109 0)"/>
     <use xlink:href="#DejaVuSans-61" transform="translate(1269.824219 0)"/>
     <use xlink:href="#DejaVuSans-74" transform="translate(1331.103516 0)"/>
     <use xlink:href="#DejaVuSans-65" transform="translate(1370.3125 0)"/>
    </g>
   </g>
   <g id="legend_2">
    <g id="patch_13">
     <path d="M 734.342187 339.79625 
L 846.2 339.79625 
Q 848.2 339.79625 848.2 337.79625 
L 848.2 309.44 
Q 848.2 307.44 846.2 307.44 
L 734.342187 307.44 
Q 732.342187 307.44 732.342187 309.44 
L 732.342187 337.79625 
Q 732.342187 339.79625 734.342187 339.79625 
z
" style="fill: #ffffff; opacity: 0.8; stroke: #cccccc; stroke-linejoin: miter"/>
    </g>
    <g id="line2d_59">
     <path d="M 736.342187 315.538437 
L 746.342187 315.538437 
L 756.342187 315.538437 
" style="fill: none; stroke: #0000ff; stroke-width: 1.5; stroke-linecap: square"/>
    </g>
    <g id="text_32">
     <!-- Ideal (No Noise) -->
     <g transform="translate(764.342187 319.038437) scale(0.1 -0.1)">
      <use xlink:href="#DejaVuSans-49"/>
      <use xlink:href="#DejaVuSans-64" transform="translate(29.492188 0)"/>
      <use xlink:href="#DejaVuSans-65" transform="translate(92.96875 0)"/>
      <use xlink:href="#DejaVuSans-61" transform="translate(154.492188 0)"/>
      <use xlink:href="#DejaVuSans-6c" transform="translate(215.771484 0)"/>
      <use xlink:href="#DejaVuSans-20" transform="translate(243.554688 0)"/>
      <use xlink:href="#DejaVuSans-28" transform="translate(275.341797 0)"/>
      <use xlink:href="#DejaVuSans-4e" transform="translate(314.355469 0)"/>
      <use xlink:href="#DejaVuSans-6f" transform="translate(389.160156 0)"/>
      <use xlink:href="#DejaVuSans-20" transform="translate(450.341797 0)"/>
      <use xlink:href="#DejaVuSans-4e" transform="translate(482.128906 0)"/>
      <use xlink:href="#DejaVuSans-6f" transform="translate(556.933594 0)"/>
      <use xlink:href="#DejaVuSans-69" transform="translate(618.115234 0)"/>
      <use xlink:href="#DejaVuSans-73" transform="translate(645.898438 0)"/>
      <use xlink:href="#DejaVuSans-65" transform="translate(697.998047 0)"/>
      <use xlink:href="#DejaVuSans-29" transform="translate(759.521484 0)"/>
     </g>
    </g>
    <g id="line2d_60">
     <path d="M 736.342187 330.216562 
L 746.342187 330.216562 
L 756.342187 330.216562 
" style="fill: none; stroke-dasharray: 5.55,2.4; stroke-dashoffset: 0; stroke: #ff0000; stroke-width: 1.5"/>
    </g>
    <g id="text_33">
     <!-- With Full Noise -->
     <g transform="translate(764.342187 333.716562) scale(0.1 -0.1)">
      <use xlink:href="#DejaVuSans-57"/>
      <use xlink:href="#DejaVuSans-69" transform="translate(96.626953 0)"/>
      <use xlink:href="#DejaVuSans-74" transform="translate(124.410156 0)"/>
      <use xlink:href="#DejaVuSans-68" transform="translate(163.619141 0)"/>
      <use xlink:href="#DejaVuSans-20" transform="translate(226.998047 0)"/>
      <use xlink:href="#DejaVuSans-46" transform="translate(258.785156 0)"/>
      <use xlink:href="#DejaVuSans-75" transform="translate(310.804688 0)"/>
      <use xlink:href="#DejaVuSans-6c" transform="translate(374.183594 0)"/>
      <use xlink:href="#DejaVuSans-6c" transform="translate(401.966797 0)"/>
      <use xlink:href="#DejaVuSans-20" transform="translate(429.75 0)"/>
      <use xlink:href="#DejaVuSans-4e" transform="translate(461.537109 0)"/>
      <use xlink:href="#DejaVuSans-6f" transform="translate(536.341797 0)"/>
      <use xlink:href="#DejaVuSans-69" transform="translate(597.523438 0)"/>
      <use xlink:href="#DejaVuSans-73" transform="translate(625.306641 0)"/>
      <use xlink:href="#DejaVuSans-65" transform="translate(677.40625 0)"/>
     </g>
    </g>
   </g>
  </g>
 </g>
 <defs>
  <clipPath id="pb4c6bbf608">
   <rect x="68.69" y="26.88" width="784.51" height="231.6"/>
  </clipPath>
  <clipPath id="p9ad07e9856">
   <rect x="68.69" y="302.44" width="784.51" height="231.6"/>
  </clipPath>
 </defs>
</svg>
