<?xml version="1.0" encoding="utf-8" standalone="no"?>
<!DOCTYPE svg PUBLIC "-//W3C//DTD SVG 1.1//EN"
  "http://www.w3.org/Graphics/SVG/1.1/DTD/svg11.dtd">
<svg xmlns:xlink="http://www.w3.org/1999/xlink" width="864pt" height="576pt" viewBox="0 0 864 576" xmlns="http://www.w3.org/2000/svg" version="1.1">
 <metadata>
  <rdf:RDF xmlns:dc="http://purl.org/dc/elements/1.1/" xmlns:cc="http://creativecommons.org/ns#" xmlns:rdf="http://www.w3.org/1999/02/22-rdf-syntax-ns#">
   <cc:Work>
    <dc:type rdf:resource="http://purl.org/dc/dcmitype/StillImage"/>
    <dc:date>2026-03-03T11:38:08.002215</dc:date>
    <dc:format>image/svg+xml</dc:format>
    <dc:creator>
     <cc:Agent>
      <dc:title>Matplotlib v3.10.8, https://matplotlib.org/</dc:title>
     </cc:Agent>
    </dc:creator>
   </cc:Work>
  </rdf:RDF>
 </metadata>
 <defs>
  <style type="text/css">*{stroke-linejoin: round; stroke-linecap: butt}</style>
 </defs>
 <g id="figure_1">
  <g id="patch_1">
   <path d="M 0 576 
L 864 576 
L 864 0 
L 0 0 
z
" style="fill: #ffffff"/>
  </g>
  <g id="axes_1">
   <g id="patch_2">
    <path d="M 66.62 258.48 
L 853.2 258.48 
L 853.2 26.88 
L 66.62 26.88 
z
" style="fill: #ffffff"/>
   </g>
   <g id="matplotlib.axis_1">
    <g id="xtick_1">
     <g id="line2d_1">
      <path d="M 102.373636 258.48 
L 102.373636 26.88 
" clip-path="url(#p9d5407bb9d)" style="fill: none; stroke: #b0b0b0; stroke-width: 0.8; stroke-linecap: square"/>
     </g>
     <g id="line2d_2">
      <defs>
       <path id="m20e9c0ae44" d="M 0 0 
L 0 3.5 
" style="stroke: #000000; stroke-width: 0.8"/>
      </defs>
      <g>
       <use xlink:href="#m20e9c0ae44" x="102.373636" y="258.48" style="stroke: #000000; stroke-width: 0.8"/>
      </g>
     </g>
     <g id="text_1">
      <!-- 0 -->
      <g transform="translate(99.192386 273.078438) scale(0.1 -0.1)">
       <defs>
        <path id="DejaVuSans-30" d="M 2034 4250 
Q 1547 4250 1301 3770 
Q 1056 3291 1056 2328 
Q 1056 1369 1301 889 
Q 1547 409 2034 409 
Q 2525 409 2770 889 
Q 3016 1369 3016 2328 
Q 3016 3291 2770 3770 
Q 2525 4250 2034 4250 
z
M 2034 4750 
Q 2819 4750 3233 4129 
Q 3647 3509 3647 2328 
Q 3647 1150 3233 529 
Q 2819 -91 2034 -91 
Q 1250 -91 836 529 
Q 422 1150 422 2328 
Q 422 3509 836 4129 
Q 1250 4750 2034 4750 
z
" transform="scale(0.015625)"/>
       </defs>
       <use xlink:href="#DejaVuSans-30"/>
      </g>
     </g>
    </g>
    <g id="xtick_2">
     <g id="line2d_3">
      <path d="M 223.943294 258.48 
L 223.943294 26.88 
" clip-path="url(#p9d5407bb9d)" style="fill: none; stroke: #b0b0b0; stroke-width: 0.8; stroke-linecap: square"/>
     </g>
     <g id="line2d_4">
      <g>
       <use xlink:href="#m20e9c0ae44" x="223.943294" y="258.48" style="stroke: #000000; stroke-width: 0.8"/>
      </g>
     </g>
     <g id="text_2">
      <!-- 50 -->
      <g transform="translate(217.580794 273.078438) scale(0.1 -0.1)">
       <defs>
        <path id="DejaVuSans-35" d="M 691 4666 
L 3169 4666 
L 3169 4134 
L 1269 4134 
L 1269 2991 
Q 1406 3038 1543 3061 
Q 1681 3084 1819 3084 
Q 2600 3084 3056 2656 
Q 3513 2228 3513 1497 
Q 3513 744 3044 326 
Q 2575 -91 1722 -91 
Q 1428 -91 1123 -41 
Q 819 9 494 109 
L 494 744 
Q 775 591 1075 516 
Q 1375 441 1709 441 
Q 2250 441 2565 725 
Q 2881 1009 2881 1497 
Q 2881 1984 2565 2268 
Q 2250 2553 1709 2553 
Q 1456 2553 1204 2497 
Q 953 2441 691 2322 
L 691 4666 
z
" transform="scale(0.015625)"/>
       </defs>
       <use xlink:href="#DejaVuSans-35"/>
       <use xlink:href="#DejaVuSans-30" transform="translate(63.623047 0)"/>
      </g>
     </g>
    </g>
    <g id="xtick_3">
     <g id="line2d_5">
      <path d="M 345.512952 258.48 
L 345.512952 26.88 
" clip-path="url(#p9d5407bb9d)" style="fill: none; stroke: #b0b0b0; stroke-width: 0.8; stroke-linecap: square"/>
     </g>
     <g id="line2d_6">
      <g>
       <use xlink:href="#m20e9c0ae44" x="345.512952" y="258.48" style="stroke: #000000; stroke-width: 0.8"/>
      </g>
     </g>
     <g id="text_3">
      <!-- 100 -->
      <g transform="translate(335.969202 273.078438) scale(0.1 -0.1)">
       <defs>
        <path id="DejaVuSans-31" d="M 794 531 
L 1825 531 
L 1825 4091 
L 703 3866 
L 703 4441 
L 1819 4666 
L 2450 4666 
L 2450 531 
L 3481 531 
L 3481 0 
L 794 0 
L 794 531 
z
" transform="scale(0.015625)"/>
       </defs>
       <use xlink:href="#DejaVuSans-31"/>
       <use xlink:href="#DejaVuSans-30" transform="translate(63.623047 0)"/>
       <use xlink:href="#DejaVuSans-30" transform="translate(127.246094 0)"/>
      </g>
     </g>
    </g>
    <g id="xtick_4">
     <g id="line2d_7">
      <path d="M 467.08261 258.48 
L 467.08261 26.88 
" clip-path="url(#p9d5407bb9d)" style="fill: none; stroke: #b0b0b0; stroke-width: 0.8; stroke-linecap: square"/>
     </g>
     <g id="line2d_8">
      <g>
       <use xlink:href="#m20e9c0ae44" x="467.08261" y="258.48" style="stroke: #000000; stroke-width: 0.8"/>
      </g>
     </g>
     <g id="text_4">
      <!-- 150 -->
      <g transform="translate(457.53886 273.078438) scale(0.1 -0.1)">
       <use xlink:href="#DejaVuSans-31"/>
       <use xlink:href="#DejaVuSans-35" transform="translate(63.623047 0)"/>
       <use xlink:href="#DejaVuSans-30" transform="translate(127.246094 0)"/>
      </g>
     </g>
    </g>
    <g id="xtick_5">
     <g id="line2d_9">
      <path d="M 588.652268 258.48 
L 588.652268 26.88 
" clip-path="url(#p9d5407bb9d)" style="fill: none; stroke: #b0b0b0; stroke-width: 0.8; stroke-linecap: square"/>
     </g>
     <g id="line2d_10">
      <g>
       <use xlink:href="#m20e9c0ae44" x="588.652268" y="258.48" style="stroke: #000000; stroke-width: 0.8"/>
      </g>
     </g>
     <g id="text_5">
      <!-- 200 -->
      <g transform="translate(579.108518 273.078438) scale(0.1 -0.1)">
       <defs>
        <path id="DejaVuSans-32" d="M 1228 531 
L 3431 531 
L 3431 0 
L 469 0 
L 469 531 
Q 828 903 1448 1529 
Q 2069 2156 2228 2338 
Q 2531 2678 2651 2914 
Q 2772 3150 2772 3378 
Q 2772 3750 2511 3984 
Q 2250 4219 1831 4219 
Q 1534 4219 1204 4116 
Q 875 4013 500 3803 
L 500 4441 
Q 881 4594 1212 4672 
Q 1544 4750 1819 4750 
Q 2544 4750 2975 4387 
Q 3406 4025 3406 3419 
Q 3406 3131 3298 2873 
Q 3191 2616 2906 2266 
Q 2828 2175 2409 1742 
Q 1991 1309 1228 531 
z
" transform="scale(0.015625)"/>
       </defs>
       <use xlink:href="#DejaVuSans-32"/>
       <use xlink:href="#DejaVuSans-30" transform="translate(63.623047 0)"/>
       <use xlink:href="#DejaVuSans-30" transform="translate(127.246094 0)"/>
      </g>
     </g>
    </g>
    <g id="xtick_6">
     <g id="line2d_11">
      <path d="M 710.221925 258.48 
L 710.221925 26.88 
" clip-path="url(#p9d5407bb9d)" style="fill: none; stroke: #b0b0b0; stroke-width: 0.8; stroke-linecap: square"/>
     </g>
     <g id="line2d_12">
      <g>
       <use xlink:href="#m20e9c0ae44" x="710.221925" y="258.48" style="stroke: #000000; stroke-width: 0.8"/>
      </g>
     </g>
     <g id="text_6">
      <!-- 250 -->
      <g transform="translate(700.678175 273.078438) scale(0.1 -0.1)">
       <use xlink:href="#DejaVuSans-32"/>
       <use xlink:href="#DejaVuSans-35" transform="translate(63.623047 0)"/>
       <use xlink:href="#DejaVuSans-30" transform="translate(127.246094 0)"/>
      </g>
     </g>
    </g>
    <g id="xtick_7">
     <g id="line2d_13">
      <path d="M 831.791583 258.48 
L 831.791583 26.88 
" clip-path="url(#p9d5407bb9d)" style="fill: none; stroke: #b0b0b0; stroke-width: 0.8; stroke-linecap: square"/>
     </g>
     <g id="line2d_14">
      <g>
       <use xlink:href="#m20e9c0ae44" x="831.791583" y="258.48" style="stroke: #000000; stroke-width: 0.8"/>
      </g>
     </g>
     <g id="text_7">
      <!-- 300 -->
      <g transform="translate(822.247833 273.078438) scale(0.1 -0.1)">
       <defs>
        <path id="DejaVuSans-33" d="M 2597 2516 
Q 3050 2419 3304 2112 
Q 3559 1806 3559 1356 
Q 3559 666 3084 287 
Q 2609 -91 1734 -91 
Q 1441 -91 1130 -33 
Q 819 25 488 141 
L 488 750 
Q 750 597 1062 519 
Q 1375 441 1716 441 
Q 2309 441 2620 675 
Q 2931 909 2931 1356 
Q 2931 1769 2642 2001 
Q 2353 2234 1838 2234 
L 1294 2234 
L 1294 2753 
L 1863 2753 
Q 2328 2753 2575 2939 
Q 2822 3125 2822 3475 
Q 2822 3834 2567 4026 
Q 2313 4219 1838 4219 
Q 1578 4219 1281 4162 
Q 984 4106 628 3988 
L 628 4550 
Q 988 4650 1302 4700 
Q 1616 4750 1894 4750 
Q 2613 4750 3031 4423 
Q 3450 4097 3450 3541 
Q 3450 3153 3228 2886 
Q 3006 2619 2597 2516 
z
" transform="scale(0.015625)"/>
       </defs>
       <use xlink:href="#DejaVuSans-33"/>
       <use xlink:href="#DejaVuSans-30" transform="translate(63.623047 0)"/>
       <use xlink:href="#DejaVuSans-30" transform="translate(127.246094 0)"/>
      </g>
     </g>
    </g>
   </g>
   <g id="matplotlib.axis_2">
    <g id="ytick_1">
     <g id="line2d_15">
      <path d="M 66.62 249.887926 
L 853.2 249.887926 
" clip-path="url(#p9d5407bb9d)" style="fill: none; stroke: #b0b0b0; stroke-width: 0.8; stroke-linecap: square"/>
     </g>
     <g id="line2d_16">
      <defs>
       <path id="m42f02993e4" d="M 0 0 
L -3.5 0 
" style="stroke: #000000; stroke-width: 0.8"/>
      </defs>
      <g>
       <use xlink:href="#m42f02993e4" x="66.62" y="249.887926" style="stroke: #000000; stroke-width: 0.8"/>
      </g>
     </g>
     <g id="text_8">
      <!-- 0.0000 -->
      <g transform="translate(24.629375 253.687145) scale(0.1 -0.1)">
       <defs>
        <path id="DejaVuSans-2e" d="M 684 794 
L 1344 794 
L 1344 0 
L 684 0 
L 684 794 
z
" transform="scale(0.015625)"/>
       </defs>
       <use xlink:href="#DejaVuSans-30"/>
       <use xlink:href="#DejaVuSans-2e" transform="translate(63.623047 0)"/>
       <use xlink:href="#DejaVuSans-30" transform="translate(95.410156 0)"/>
       <use xlink:href="#DejaVuSans-30" transform="translate(159.033203 0)"/>
       <use xlink:href="#DejaVuSans-30" transform="translate(222.65625 0)"/>
       <use xlink:href="#DejaVuSans-30" transform="translate(286.279297 0)"/>
      </g>
     </g>
    </g>
    <g id="ytick_2">
     <g id="line2d_17">
      <path d="M 66.62 207.391796 
L 853.2 207.391796 
" clip-path="url(#p9d5407bb9d)" style="fill: none; stroke: #b0b0b0; stroke-width: 0.8; stroke-linecap: square"/>
     </g>
     <g id="line2d_18">
      <g>
       <use xlink:href="#m42f02993e4" x="66.62" y="207.391796" style="stroke: #000000; stroke-width: 0.8"/>
      </g>
     </g>
     <g id="text_9">
      <!-- 0.0002 -->
      <g transform="translate(24.629375 211.191014) scale(0.1 -0.1)">
       <use xlink:href="#DejaVuSans-30"/>
       <use xlink:href="#DejaVuSans-2e" transform="translate(63.623047 0)"/>
       <use xlink:href="#DejaVuSans-30" transform="translate(95.410156 0)"/>
       <use xlink:href="#DejaVuSans-30" transform="translate(159.033203 0)"/>
       <use xlink:href="#DejaVuSans-30" transform="translate(222.65625 0)"/>
       <use xlink:href="#DejaVuSans-32" transform="translate(286.279297 0)"/>
      </g>
     </g>
    </g>
    <g id="ytick_3">
     <g id="line2d_19">
      <path d="M 66.62 164.895665 
L 853.2 164.895665 
" clip-path="url(#p9d5407bb9d)" style="fill: none; stroke: #b0b0b0; stroke-width: 0.8; stroke-linecap: square"/>
     </g>
     <g id="line2d_20">
      <g>
       <use xlink:href="#m42f02993e4" x="66.62" y="164.895665" style="stroke: #000000; stroke-width: 0.8"/>
      </g>
     </g>
     <g id="text_10">
      <!-- 0.0004 -->
      <g transform="translate(24.629375 168.694884) scale(0.1 -0.1)">
       <defs>
        <path id="DejaVuSans-34" d="M 2419 4116 
L 825 1625 
L 2419 1625 
L 2419 4116 
z
M 2253 4666 
L 3047 4666 
L 3047 1625 
L 3713 1625 
L 3713 1100 
L 3047 1100 
L 3047 0 
L 2419 0 
L 2419 1100 
L 313 1100 
L 313 1709 
L 2253 4666 
z
" transform="scale(0.015625)"/>
       </defs>
       <use xlink:href="#DejaVuSans-30"/>
       <use xlink:href="#DejaVuSans-2e" transform="translate(63.623047 0)"/>
       <use xlink:href="#DejaVuSans-30" transform="translate(95.410156 0)"/>
       <use xlink:href="#DejaVuSans-30" transform="translate(159.033203 0)"/>
       <use xlink:href="#DejaVuSans-30" transform="translate(222.65625 0)"/>
       <use xlink:href="#DejaVuSans-34" transform="translate(286.279297 0)"/>
      </g>
     </g>
    </g>
    <g id="ytick_4">
     <g id="line2d_21">
      <path d="M 66.62 122.399534 
L 853.2 122.399534 
" clip-path="url(#p9d5407bb9d)" style="fill: none; stroke: #b0b0b0; stroke-width: 0.8; stroke-linecap: square"/>
     </g>
     <g id="line2d_22">
      <g>
       <use xlink:href="#m42f02993e4" x="66.62" y="122.399534" style="stroke: #000000; stroke-width: 0.8"/>
      </g>
     </g>
     <g id="text_11">
      <!-- 0.0006 -->
      <g transform="translate(24.629375 126.198753) scale(0.1 -0.1)">
       <defs>
        <path id="DejaVuSans-36" d="M 2113 2584 
Q 1688 2584 1439 2293 
Q 1191 2003 1191 1497 
Q 1191 994 1439 701 
Q 1688 409 2113 409 
Q 2538 409 2786 701 
Q 3034 994 3034 1497 
Q 3034 2003 2786 2293 
Q 2538 2584 2113 2584 
z
M 3366 4563 
L 3366 3988 
Q 3128 4100 2886 4159 
Q 2644 4219 2406 4219 
Q 1781 4219 1451 3797 
Q 1122 3375 1075 2522 
Q 1259 2794 1537 2939 
Q 1816 3084 2150 3084 
Q 2853 3084 3261 2657 
Q 3669 2231 3669 1497 
Q 3669 778 3244 343 
Q 2819 -91 2113 -91 
Q 1303 -91 875 529 
Q 447 1150 447 2328 
Q 447 3434 972 4092 
Q 1497 4750 2381 4750 
Q 2619 4750 2861 4703 
Q 3103 4656 3366 4563 
z
" transform="scale(0.015625)"/>
       </defs>
       <use xlink:href="#DejaVuSans-30"/>
       <use xlink:href="#DejaVuSans-2e" transform="translate(63.623047 0)"/>
       <use xlink:href="#DejaVuSans-30" transform="translate(95.410156 0)"/>
       <use xlink:href="#DejaVuSans-30" transform="translate(159.033203 0)"/>
       <use xlink:href="#DejaVuSans-30" transform="translate(222.65625 0)"/>
       <use xlink:href="#DejaVuSans-36" transform="translate(286.279297 0)"/>
      </g>
     </g>
    </g>
    <g id="ytick_5">
     <g id="line2d_23">
      <path d="M 66.62 79.903403 
L 853.2 79.903403 
" clip-path="url(#p9d5407bb9d)" style="fill: none; stroke: #b0b0b0; stroke-width: 0.8; stroke-linecap: square"/>
     </g>
     <g id="line2d_24">
      <g>
       <use xlink:href="#m42f02993e4" x="66.62" y="79.903403" style="stroke: #000000; stroke-width: 0.8"/>
      </g>
     </g>
     <g id="text_12">
      <!-- 0.0008 -->
      <g transform="translate(24.629375 83.702622) scale(0.1 -0.1)">
       <defs>
        <path id="DejaVuSans-38" d="M 2034 2216 
Q 1584 2216 1326 1975 
Q 1069 1734 1069 1313 
Q 1069 891 1326 650 
Q 1584 409 2034 409 
Q 2484 409 2743 651 
Q 3003 894 3003 1313 
Q 3003 1734 2745 1975 
Q 2488 2216 2034 2216 
z
M 1403 2484 
Q 997 2584 770 2862 
Q 544 3141 544 3541 
Q 544 4100 942 4425 
Q 1341 4750 2034 4750 
Q 2731 4750 3128 4425 
Q 3525 4100 3525 3541 
Q 3525 3141 3298 2862 
Q 3072 2584 2669 2484 
Q 3125 2378 3379 2068 
Q 3634 1759 3634 1313 
Q 3634 634 3220 271 
Q 2806 -91 2034 -91 
Q 1263 -91 848 271 
Q 434 634 434 1313 
Q 434 1759 690 2068 
Q 947 2378 1403 2484 
z
M 1172 3481 
Q 1172 3119 1398 2916 
Q 1625 2713 2034 2713 
Q 2441 2713 2670 2916 
Q 2900 3119 2900 3481 
Q 2900 3844 2670 4047 
Q 2441 4250 2034 4250 
Q 1625 4250 1398 4047 
Q 1172 3844 1172 3481 
z
" transform="scale(0.015625)"/>
       </defs>
       <use xlink:href="#DejaVuSans-30"/>
       <use xlink:href="#DejaVuSans-2e" transform="translate(63.623047 0)"/>
       <use xlink:href="#DejaVuSans-30" transform="translate(95.410156 0)"/>
       <use xlink:href="#DejaVuSans-30" transform="translate(159.033203 0)"/>
       <use xlink:href="#DejaVuSans-30" transform="translate(222.65625 0)"/>
       <use xlink:href="#DejaVuSans-38" transform="translate(286.279297 0)"/>
      </g>
     </g>
    </g>
    <g id="ytick_6">
     <g id="line2d_25">
      <path d="M 66.62 37.407273 
L 853.2 37.407273 
" clip-path="url(#p9d5407bb9d)" style="fill: none; stroke: #b0b0b0; stroke-width: 0.8; stroke-linecap: square"/>
     </g>
     <g id="line2d_26">
      <g>
       <use xlink:href="#m42f02993e4" x="66.62" y="37.407273" style="stroke: #000000; stroke-width: 0.8"/>
      </g>
     </g>
     <g id="text_13">
      <!-- 0.0010 -->
      <g transform="translate(24.629375 41.206491) scale(0.1 -0.1)">
       <use xlink:href="#DejaVuSans-30"/>
       <use xlink:href="#DejaVuSans-2e" transform="translate(63.623047 0)"/>
       <use xlink:href="#DejaVuSans-30" transform="translate(95.410156 0)"/>
       <use xlink:href="#DejaVuSans-30" transform="translate(159.033203 0)"/>
       <use xlink:href="#DejaVuSans-31" transform="translate(222.65625 0)"/>
       <use xlink:href="#DejaVuSans-30" transform="translate(286.279297 0)"/>
      </g>
     </g>
    </g>
    <g id="text_14">
     <!-- Std Dev -->
     <g transform="translate(18.549688 162.463594) rotate(-90) scale(0.1 -0.1)">
      <defs>
       <path id="DejaVuSans-53" d="M 3425 4513 
L 3425 3897 
Q 3066 4069 2747 4153 
Q 2428 4238 2131 4238 
Q 1616 4238 1336 4038 
Q 1056 3838 1056 3469 
Q 1056 3159 1242 3001 
Q 1428 2844 1947 2747 
L 2328 2669 
Q 3034 2534 3370 2195 
Q 3706 1856 3706 1288 
Q 3706 609 3251 259 
Q 2797 -91 1919 -91 
Q 1588 -91 1214 -16 
Q 841 59 441 206 
L 441 856 
Q 825 641 1194 531 
Q 1563 422 1919 422 
Q 2459 422 2753 634 
Q 3047 847 3047 1241 
Q 3047 1584 2836 1778 
Q 2625 1972 2144 2069 
L 1759 2144 
Q 1053 2284 737 2584 
Q 422 2884 422 3419 
Q 422 4038 858 4394 
Q 1294 4750 2059 4750 
Q 2388 4750 2728 4690 
Q 3069 4631 3425 4513 
z
" transform="scale(0.015625)"/>
       <path id="DejaVuSans-74" d="M 1172 4494 
L 1172 3500 
L 2356 3500 
L 2356 3053 
L 1172 3053 
L 1172 1153 
Q 1172 725 1289 603 
Q 1406 481 1766 481 
L 2356 481 
L 2356 0 
L 1766 0 
Q 1100 0 847 248 
Q 594 497 594 1153 
L 594 3053 
L 172 3053 
L 172 3500 
L 594 3500 
L 594 4494 
L 1172 4494 
z
" transform="scale(0.015625)"/>
       <path id="DejaVuSans-64" d="M 2906 2969 
L 2906 4863 
L 3481 4863 
L 3481 0 
L 2906 0 
L 2906 525 
Q 2725 213 2448 61 
Q 2172 -91 1784 -91 
Q 1150 -91 751 415 
Q 353 922 353 1747 
Q 353 2572 751 3078 
Q 1150 3584 1784 3584 
Q 2172 3584 2448 3432 
Q 2725 3281 2906 2969 
z
M 947 1747 
Q 947 1113 1208 752 
Q 1469 391 1925 391 
Q 2381 391 2643 752 
Q 2906 1113 2906 1747 
Q 2906 2381 2643 2742 
Q 2381 3103 1925 3103 
Q 1469 3103 1208 2742 
Q 947 2381 947 1747 
z
" transform="scale(0.015625)"/>
       <path id="DejaVuSans-20" transform="scale(0.015625)"/>
       <path id="DejaVuSans-44" d="M 1259 4147 
L 1259 519 
L 2022 519 
Q 2988 519 3436 956 
Q 3884 1394 3884 2338 
Q 3884 3275 3436 3711 
Q 2988 4147 2022 4147 
L 1259 4147 
z
M 628 4666 
L 1925 4666 
Q 3281 4666 3915 4102 
Q 4550 3538 4550 2338 
Q 4550 1131 3912 565 
Q 3275 0 1925 0 
L 628 0 
L 628 4666 
z
" transform="scale(0.015625)"/>
       <path id="DejaVuSans-65" d="M 3597 1894 
L 3597 1613 
L 953 1613 
Q 991 1019 1311 708 
Q 1631 397 2203 397 
Q 2534 397 2845 478 
Q 3156 559 3463 722 
L 3463 178 
Q 3153 47 2828 -22 
Q 2503 -91 2169 -91 
Q 1331 -91 842 396 
Q 353 884 353 1716 
Q 353 2575 817 3079 
Q 1281 3584 2069 3584 
Q 2775 3584 3186 3129 
Q 3597 2675 3597 1894 
z
M 3022 2063 
Q 3016 2534 2758 2815 
Q 2500 3097 2075 3097 
Q 1594 3097 1305 2825 
Q 1016 2553 972 2059 
L 3022 2063 
z
" transform="scale(0.015625)"/>
       <path id="DejaVuSans-76" d="M 191 3500 
L 800 3500 
L 1894 563 
L 2988 3500 
L 3597 3500 
L 2284 0 
L 1503 0 
L 191 3500 
z
" transform="scale(0.015625)"/>
      </defs>
      <use xlink:href="#DejaVuSans-53"/>
      <use xlink:href="#DejaVuSans-74" transform="translate(63.476562 0)"/>
      <use xlink:href="#DejaVuSans-64" transform="translate(102.685547 0)"/>
      <use xlink:href="#DejaVuSans-20" transform="translate(166.162109 0)"/>
      <use xlink:href="#DejaVuSans-44" transform="translate(197.949219 0)"/>
      <use xlink:href="#DejaVuSans-65" transform="translate(274.951172 0)"/>
      <use xlink:href="#DejaVuSans-76" transform="translate(336.474609 0)"/>
     </g>
    </g>
   </g>
   <g id="line2d_27">
    <path d="M 102.373636 228.639861 
L 217.086765 228.643305 
L 217.232649 229.799969 
L 217.475788 230.377521 
L 217.816183 230.526159 
L 219.03188 230.678796 
L 223.991922 231.012515 
L 228.173918 231.129447 
L 229.000592 231.129447 
L 229.146476 242.246668 
L 229.681382 243.035313 
L 230.167661 243.28456 
L 231.09159 243.460636 
L 233.13396 243.566783 
L 239.698722 243.598683 
L 240.914418 243.598683 
L 241.060302 244.187219 
L 242.616394 244.322007 
L 248.646249 244.424011 
L 253.557663 244.590312 
L 258.955356 244.678748 
L 264.742071 244.700904 
L 264.887955 244.847702 
L 269.410346 244.940516 
L 276.655898 244.963196 
L 276.801781 245.173307 
L 282.539869 245.263883 
L 288.569724 245.276367 
L 288.715608 245.44658 
L 291.876419 245.518004 
L 300.483551 245.545155 
L 300.629434 247.064205 
L 301.504736 247.489061 
L 302.623177 247.651145 
L 305.297709 247.761323 
L 314.974654 247.840126 
L 335.641496 247.861918 
L 340.698794 247.949179 
L 340.844677 228.639861 
L 455.460551 228.643317 
L 455.606434 229.801361 
L 455.849573 230.379841 
L 456.189968 230.528685 
L 457.405665 230.681498 
L 462.365707 231.015633 
L 466.547703 231.132702 
L 467.374377 231.132702 
L 467.520261 242.264619 
L 468.055167 243.049006 
L 468.590074 243.31217 
L 469.562631 243.482298 
L 471.750885 243.583298 
L 479.190948 243.610721 
L 479.288203 243.610721 
L 479.434087 244.193667 
L 480.990179 244.326731 
L 487.068662 244.428032 
L 491.980076 244.593424 
L 497.57228 244.680845 
L 503.115856 244.70077 
L 503.26174 244.846556 
L 507.784131 244.940409 
L 515.029683 244.963338 
L 515.175566 245.17389 
L 520.913654 245.264417 
L 526.943509 245.276883 
L 527.089393 245.446187 
L 530.250204 245.517455 
L 538.857336 245.544584 
L 539.003219 247.066143 
L 539.878521 247.491586 
L 540.996962 247.653723 
L 543.671494 247.763641 
L 553.397067 247.842742 
L 574.25842 247.8652 
L 579.072579 247.952727 
L 579.218462 37.407273 
L 637.280131 37.517758 
L 640.197803 37.817172 
L 644.963333 38.375231 
L 646.17903 38.375231 
L 646.324913 38.833441 
L 648.270028 38.936119 
L 654.494394 38.964423 
L 670.006683 39.046646 
L 670.201194 39.107658 
L 681.482858 39.199089 
L 681.969137 39.30449 
L 682.115021 39.853589 
L 682.844439 39.873958 
L 693.834336 39.963738 
L 694.077475 72.914918 
L 695.001404 114.452382 
L 695.633567 130.256806 
L 696.314357 141.829517 
L 697.092402 151.237328 
L 697.919076 158.584679 
L 698.843005 164.789292 
L 699.815563 169.831041 
L 700.885376 174.19328 
L 702.003817 177.835587 
L 703.07363 180.690153 
L 705.748162 180.690153 
L 705.894046 240.131645 
L 706.331696 241.059838 
L 706.720719 241.320773 
L 707.450137 241.494678 
L 709.103485 241.605676 
L 714.403922 241.660426 
L 717.661989 241.662163 
L 717.807872 242.262683 
L 725.734214 242.646928 
L 729.575815 242.674297 
L 729.721699 242.891646 
L 753.403468 243.299763 
L 753.549351 243.749311 
L 758.849789 243.840461 
L 765.317294 243.859483 
L 765.463178 244.167848 
L 767.845943 244.280853 
L 777.231121 244.360571 
L 777.377004 246.905414 
L 778.15505 247.392183 
L 779.07898 247.575657 
L 781.12135 247.703589 
L 786.81081 247.776698 
L 813.799274 247.88775 
L 817.446364 247.932366 
L 817.446364 247.932366 
" clip-path="url(#p9d5407bb9d)" style="fill: none; stroke: #0000ff; stroke-width: 1.5; stroke-linecap: square"/>
   </g>
   <g id="line2d_28">
    <path d="M 102.373636 228.639861 
L 217.086765 228.643294 
L 217.232649 229.800618 
L 217.475788 230.377764 
L 217.864811 230.536967 
L 219.226391 230.696188 
L 224.478201 231.03859 
L 228.319802 231.129645 
L 229.000592 231.129645 
L 229.146476 242.247985 
L 229.681382 243.036905 
L 230.167661 243.286322 
L 231.09159 243.462371 
L 233.085332 243.567436 
L 239.50421 243.600444 
L 240.914418 243.600444 
L 241.060302 244.187688 
L 242.616394 244.322633 
L 248.646249 244.424604 
L 253.606291 244.592299 
L 259.101239 244.680585 
L 264.742071 244.701689 
L 264.887955 244.848344 
L 269.410346 244.94089 
L 276.655898 244.963486 
L 276.801781 245.173512 
L 282.539869 245.264019 
L 288.569724 245.276496 
L 288.715608 245.446702 
L 291.876419 245.5181 
L 300.483551 245.545245 
L 300.629434 247.064095 
L 301.504736 247.488889 
L 302.623177 247.650945 
L 305.297709 247.761103 
L 314.926026 247.839602 
L 335.252473 247.861729 
L 340.698794 247.94903 
L 340.844677 228.639861 
L 455.460551 228.643308 
L 455.606434 229.802013 
L 455.849573 230.3801 
L 456.238596 230.539527 
L 457.600177 230.69893 
L 462.851986 231.04175 
L 466.693587 231.132906 
L 467.374377 231.132906 
L 467.520261 242.265382 
L 468.055167 243.049869 
L 468.590074 243.313136 
L 469.562631 243.483256 
L 471.750885 243.584199 
L 479.14232 243.611638 
L 479.288203 243.611638 
L 479.434087 244.193402 
L 480.990179 244.326581 
L 487.068662 244.427887 
L 491.980076 244.593186 
L 497.523652 244.680661 
L 503.115856 244.701141 
L 503.26174 244.846806 
L 507.784131 244.940395 
L 515.029683 244.963257 
L 515.175566 245.173777 
L 520.913654 245.264298 
L 526.943509 245.276766 
L 527.089393 245.4461 
L 530.250204 245.517363 
L 538.857336 245.544487 
L 539.003219 247.066107 
L 539.878521 247.491576 
L 540.996962 247.653722 
L 543.671494 247.763645 
L 553.397067 247.84275 
L 574.25842 247.865192 
L 579.072579 247.952711 
L 579.218462 37.407273 
L 637.280131 37.516263 
L 640.197803 37.811682 
L 645.011961 38.368147 
L 646.17903 38.368147 
L 646.324913 38.827214 
L 648.318656 38.929527 
L 654.883417 38.956304 
L 670.006683 39.040191 
L 670.201194 39.103156 
L 681.288347 39.196645 
L 681.969137 39.301728 
L 682.115021 39.845207 
L 682.844439 39.865382 
L 693.834336 39.956189 
L 694.077475 73.100698 
L 695.001404 114.543398 
L 695.584939 129.319178 
L 696.265729 141.178172 
L 696.995147 150.2562 
L 697.82182 157.850973 
L 698.697122 163.936882 
L 699.669679 169.168186 
L 700.690864 173.488543 
L 701.809305 177.26925 
L 703.025002 180.582076 
L 703.170885 180.700834 
L 705.748162 180.700834 
L 705.894046 240.131346 
L 706.331696 241.05971 
L 706.720719 241.32079 
L 707.450137 241.494785 
L 709.103485 241.605824 
L 714.403922 241.660596 
L 717.661989 241.662333 
L 717.807872 242.262599 
L 725.734214 242.646886 
L 729.575815 242.674274 
L 729.721699 242.891583 
L 753.403468 243.29968 
L 753.549351 243.749212 
L 758.849789 243.840334 
L 765.317294 243.859354 
L 765.463178 244.167743 
L 767.845943 244.280741 
L 777.231121 244.360449 
L 777.377004 246.905399 
L 778.15505 247.392184 
L 779.07898 247.575665 
L 781.12135 247.703597 
L 786.81081 247.776707 
L 813.799274 247.887752 
L 817.446364 247.932361 
L 817.446364 247.932361 
" clip-path="url(#p9d5407bb9d)" style="fill: none; stroke-dasharray: 5.55,2.4; stroke-dashoffset: 0; stroke: #ff0000; stroke-width: 1.5"/>
   </g>
   <g id="line2d_29">
    <path d="M 340.747421 258.48 
L 340.747421 26.88 
" clip-path="url(#p9d5407bb9d)" style="fill: none; stroke-dasharray: 1.5,2.475; stroke-dashoffset: 0; stroke: #808080; stroke-opacity: 0.6; stroke-width: 1.5"/>
   </g>
   <g id="line2d_30">
    <path d="M 579.121206 258.48 
L 579.121206 26.88 
" clip-path="url(#p9d5407bb9d)" style="fill: none; stroke-dasharray: 1.5,2.475; stroke-dashoffset: 0; stroke: #808080; stroke-opacity: 0.6; stroke-width: 1.5"/>
   </g>
   <g id="patch_3">
    <path d="M 66.62 258.48 
L 66.62 26.88 
" style="fill: none; stroke: #000000; stroke-width: 0.8; stroke-linejoin: miter; stroke-linecap: square"/>
   </g>
   <g id="patch_4">
    <path d="M 853.2 258.48 
L 853.2 26.88 
" style="fill: none; stroke: #000000; stroke-width: 0.8; stroke-linejoin: miter; stroke-linecap: square"/>
   </g>
   <g id="patch_5">
    <path d="M 66.62 258.48 
L 853.2 258.48 
" style="fill: none; stroke: #000000; stroke-width: 0.8; stroke-linejoin: miter; stroke-linecap: square"/>
   </g>
   <g id="patch_6">
    <path d="M 66.62 26.88 
L 853.2 26.88 
" style="fill: none; stroke: #000000; stroke-width: 0.8; stroke-linejoin: miter; stroke-linecap: square"/>
   </g>
   <g id="text_15">
    <!-- [12] dKg_xx  —  Uncertainty (std dev) -->
    <g transform="translate(346.515625 20.88) scale(0.12 -0.12)">
     <defs>
      <path id="DejaVuSans-5b" d="M 550 4863 
L 1875 4863 
L 1875 4416 
L 1125 4416 
L 1125 -397 
L 1875 -397 
L 1875 -844 
L 550 -844 
L 550 4863 
z
" transform="scale(0.015625)"/>
      <path id="DejaVuSans-5d" d="M 1947 4863 
L 1947 -844 
L 622 -844 
L 622 -397 
L 1369 -397 
L 1369 4416 
L 622 4416 
L 622 4863 
L 1947 4863 
z
" transform="scale(0.015625)"/>
      <path id="DejaVuSans-4b" d="M 628 4666 
L 1259 4666 
L 1259 2694 
L 3353 4666 
L 4166 4666 
L 1850 2491 
L 4331 0 
L 3500 0 
L 1259 2247 
L 1259 0 
L 628 0 
L 628 4666 
z
" transform="scale(0.015625)"/>
      <path id="DejaVuSans-67" d="M 2906 1791 
Q 2906 2416 2648 2759 
Q 2391 3103 1925 3103 
Q 1463 3103 1205 2759 
Q 947 2416 947 1791 
Q 947 1169 1205 825 
Q 1463 481 1925 481 
Q 2391 481 2648 825 
Q 2906 1169 2906 1791 
z
M 3481 434 
Q 3481 -459 3084 -895 
Q 2688 -1331 1869 -1331 
Q 1566 -1331 1297 -1286 
Q 1028 -1241 775 -1147 
L 775 -588 
Q 1028 -725 1275 -790 
Q 1522 -856 1778 -856 
Q 2344 -856 2625 -561 
Q 2906 -266 2906 331 
L 2906 616 
Q 2728 306 2450 153 
Q 2172 0 1784 0 
Q 1141 0 747 490 
Q 353 981 353 1791 
Q 353 2603 747 3093 
Q 1141 3584 1784 3584 
Q 2172 3584 2450 3431 
Q 2728 3278 2906 2969 
L 2906 3500 
L 3481 3500 
L 3481 434 
z
" transform="scale(0.015625)"/>
      <path id="DejaVuSans-5f" d="M 3263 -1063 
L 3263 -1509 
L -63 -1509 
L -63 -1063 
L 3263 -1063 
z
" transform="scale(0.015625)"/>
      <path id="DejaVuSans-78" d="M 3513 3500 
L 2247 1797 
L 3578 0 
L 2900 0 
L 1881 1375 
L 863 0 
L 184 0 
L 1544 1831 
L 300 3500 
L 978 3500 
L 1906 2253 
L 2834 3500 
L 3513 3500 
z
" transform="scale(0.015625)"/>
      <path id="DejaVuSans-2014" d="M 313 1978 
L 6088 1978 
L 6088 1528 
L 313 1528 
L 313 1978 
z
" transform="scale(0.015625)"/>
      <path id="DejaVuSans-55" d="M 556 4666 
L 1191 4666 
L 1191 1831 
Q 1191 1081 1462 751 
Q 1734 422 2344 422 
Q 2950 422 3222 751 
Q 3494 1081 3494 1831 
L 3494 4666 
L 4128 4666 
L 4128 1753 
Q 4128 841 3676 375 
Q 3225 -91 2344 -91 
Q 1459 -91 1007 375 
Q 556 841 556 1753 
L 556 4666 
z
" transform="scale(0.015625)"/>
      <path id="DejaVuSans-6e" d="M 3513 2113 
L 3513 0 
L 2938 0 
L 2938 2094 
Q 2938 2591 2744 2837 
Q 2550 3084 2163 3084 
Q 1697 3084 1428 2787 
Q 1159 2491 1159 1978 
L 1159 0 
L 581 0 
L 581 3500 
L 1159 3500 
L 1159 2956 
Q 1366 3272 1645 3428 
Q 1925 3584 2291 3584 
Q 2894 3584 3203 3211 
Q 3513 2838 3513 2113 
z
" transform="scale(0.015625)"/>
      <path id="DejaVuSans-63" d="M 3122 3366 
L 3122 2828 
Q 2878 2963 2633 3030 
Q 2388 3097 2138 3097 
Q 1578 3097 1268 2742 
Q 959 2388 959 1747 
Q 959 1106 1268 751 
Q 1578 397 2138 397 
Q 2388 397 2633 464 
Q 2878 531 3122 666 
L 3122 134 
Q 2881 22 2623 -34 
Q 2366 -91 2075 -91 
Q 1284 -91 818 406 
Q 353 903 353 1747 
Q 353 2603 823 3093 
Q 1294 3584 2113 3584 
Q 2378 3584 2631 3529 
Q 2884 3475 3122 3366 
z
" transform="scale(0.015625)"/>
      <path id="DejaVuSans-72" d="M 2631 2963 
Q 2534 3019 2420 3045 
Q 2306 3072 2169 3072 
Q 1681 3072 1420 2755 
Q 1159 2438 1159 1844 
L 1159 0 
L 581 0 
L 581 3500 
L 1159 3500 
L 1159 2956 
Q 1341 3275 1631 3429 
Q 1922 3584 2338 3584 
Q 2397 3584 2469 3576 
Q 2541 3569 2628 3553 
L 2631 2963 
z
" transform="scale(0.015625)"/>
      <path id="DejaVuSans-61" d="M 2194 1759 
Q 1497 1759 1228 1600 
Q 959 1441 959 1056 
Q 959 750 1161 570 
Q 1363 391 1709 391 
Q 2188 391 2477 730 
Q 2766 1069 2766 1631 
L 2766 1759 
L 2194 1759 
z
M 3341 1997 
L 3341 0 
L 2766 0 
L 2766 531 
Q 2569 213 2275 61 
Q 1981 -91 1556 -91 
Q 1019 -91 701 211 
Q 384 513 384 1019 
Q 384 1609 779 1909 
Q 1175 2209 1959 2209 
L 2766 2209 
L 2766 2266 
Q 2766 2663 2505 2880 
Q 2244 3097 1772 3097 
Q 1472 3097 1187 3025 
Q 903 2953 641 2809 
L 641 3341 
Q 956 3463 1253 3523 
Q 1550 3584 1831 3584 
Q 2591 3584 2966 3190 
Q 3341 2797 3341 1997 
z
" transform="scale(0.015625)"/>
      <path id="DejaVuSans-69" d="M 603 3500 
L 1178 3500 
L 1178 0 
L 603 0 
L 603 3500 
z
M 603 4863 
L 1178 4863 
L 1178 4134 
L 603 4134 
L 603 4863 
z
" transform="scale(0.015625)"/>
      <path id="DejaVuSans-79" d="M 2059 -325 
Q 1816 -950 1584 -1140 
Q 1353 -1331 966 -1331 
L 506 -1331 
L 506 -850 
L 844 -850 
Q 1081 -850 1212 -737 
Q 1344 -625 1503 -206 
L 1606 56 
L 191 3500 
L 800 3500 
L 1894 763 
L 2988 3500 
L 3597 3500 
L 2059 -325 
z
" transform="scale(0.015625)"/>
      <path id="DejaVuSans-28" d="M 1984 4856 
Q 1566 4138 1362 3434 
Q 1159 2731 1159 2009 
Q 1159 1288 1364 580 
Q 1569 -128 1984 -844 
L 1484 -844 
Q 1016 -109 783 600 
Q 550 1309 550 2009 
Q 550 2706 781 3412 
Q 1013 4119 1484 4856 
L 1984 4856 
z
" transform="scale(0.015625)"/>
      <path id="DejaVuSans-73" d="M 2834 3397 
L 2834 2853 
Q 2591 2978 2328 3040 
Q 2066 3103 1784 3103 
Q 1356 3103 1142 2972 
Q 928 2841 928 2578 
Q 928 2378 1081 2264 
Q 1234 2150 1697 2047 
L 1894 2003 
Q 2506 1872 2764 1633 
Q 3022 1394 3022 966 
Q 3022 478 2636 193 
Q 2250 -91 1575 -91 
Q 1294 -91 989 -36 
Q 684 19 347 128 
L 347 722 
Q 666 556 975 473 
Q 1284 391 1588 391 
Q 1994 391 2212 530 
Q 2431 669 2431 922 
Q 2431 1156 2273 1281 
Q 2116 1406 1581 1522 
L 1381 1569 
Q 847 1681 609 1914 
Q 372 2147 372 2553 
Q 372 3047 722 3315 
Q 1072 3584 1716 3584 
Q 2034 3584 2315 3537 
Q 2597 3491 2834 3397 
z
" transform="scale(0.015625)"/>
      <path id="DejaVuSans-29" d="M 513 4856 
L 1013 4856 
Q 1481 4119 1714 3412 
Q 1947 2706 1947 2009 
Q 1947 1309 1714 600 
Q 1481 -109 1013 -844 
L 513 -844 
Q 928 -128 1133 580 
Q 1338 1288 1338 2009 
Q 1338 2731 1133 3434 
Q 928 4138 513 4856 
z
" transform="scale(0.015625)"/>
     </defs>
     <use xlink:href="#DejaVuSans-5b"/>
     <use xlink:href="#DejaVuSans-31" transform="translate(39.013672 0)"/>
     <use xlink:href="#DejaVuSans-32" transform="translate(102.636719 0)"/>
     <use xlink:href="#DejaVuSans-5d" transform="translate(166.259766 0)"/>
     <use xlink:href="#DejaVuSans-20" transform="translate(205.273438 0)"/>
     <use xlink:href="#DejaVuSans-64" transform="translate(237.060547 0)"/>
     <use xlink:href="#DejaVuSans-4b" transform="translate(300.537109 0)"/>
     <use xlink:href="#DejaVuSans-67" transform="translate(366.113281 0)"/>
     <use xlink:href="#DejaVuSans-5f" transform="translate(429.589844 0)"/>
     <use xlink:href="#DejaVuSans-78" transform="translate(479.589844 0)"/>
     <use xlink:href="#DejaVuSans-78" transform="translate(538.769531 0)"/>
     <use xlink:href="#DejaVuSans-20" transform="translate(597.949219 0)"/>
     <use xlink:href="#DejaVuSans-20" transform="translate(629.736328 0)"/>
     <use xlink:href="#DejaVuSans-2014" transform="translate(661.523438 0)"/>
     <use xlink:href="#DejaVuSans-20" transform="translate(761.523438 0)"/>
     <use xlink:href="#DejaVuSans-20" transform="translate(793.310547 0)"/>
     <use xlink:href="#DejaVuSans-55" transform="translate(825.097656 0)"/>
     <use xlink:href="#DejaVuSans-6e" transform="translate(898.291016 0)"/>
     <use xlink:href="#DejaVuSans-63" transform="translate(961.669922 0)"/>
     <use xlink:href="#DejaVuSans-65" transform="translate(1016.650391 0)"/>
     <use xlink:href="#DejaVuSans-72" transform="translate(1078.173828 0)"/>
     <use xlink:href="#DejaVuSans-74" transform="translate(1119.287109 0)"/>
     <use xlink:href="#DejaVuSans-61" transform="translate(1158.496094 0)"/>
     <use xlink:href="#DejaVuSans-69" transform="translate(1219.775391 0)"/>
     <use xlink:href="#DejaVuSans-6e" transform="translate(1247.558594 0)"/>
     <use xlink:href="#DejaVuSans-74" transform="translate(1310.9375 0)"/>
     <use xlink:href="#DejaVuSans-79" transform="translate(1350.146484 0)"/>
     <use xlink:href="#DejaVuSans-20" transform="translate(1409.326172 0)"/>
     <use xlink:href="#DejaVuSans-28" transform="translate(1441.113281 0)"/>
     <use xlink:href="#DejaVuSans-73" transform="translate(1480.126953 0)"/>
     <use xlink:href="#DejaVuSans-74" transform="translate(1532.226562 0)"/>
     <use xlink:href="#DejaVuSans-64" transform="translate(1571.435547 0)"/>
     <use xlink:href="#DejaVuSans-20" transform="translate(1634.912109 0)"/>
     <use xlink:href="#DejaVuSans-64" transform="translate(1666.699219 0)"/>
     <use xlink:href="#DejaVuSans-65" transform="translate(1730.175781 0)"/>
     <use xlink:href="#DejaVuSans-76" transform="translate(1791.699219 0)"/>
     <use xlink:href="#DejaVuSans-29" transform="translate(1850.878906 0)"/>
    </g>
   </g>
   <g id="legend_1">
    <g id="patch_7">
     <path d="M 738.401563 64.23625 
L 846.2 64.23625 
Q 848.2 64.23625 848.2 62.23625 
L 848.2 33.88 
Q 848.2 31.88 846.2 31.88 
L 738.401563 31.88 
Q 736.401563 31.88 736.401563 33.88 
L 736.401563 62.23625 
Q 736.401563 64.23625 738.401563 64.23625 
z
" style="fill: #ffffff; opacity: 0.8; stroke: #cccccc; stroke-linejoin: miter"/>
    </g>
    <g id="line2d_31">
     <path d="M 740.401563 39.978437 
L 750.401563 39.978437 
L 760.401563 39.978437 
" style="fill: none; stroke: #0000ff; stroke-width: 1.5; stroke-linecap: square"/>
    </g>
    <g id="text_16">
     <!-- No Noise -->
     <g transform="translate(768.401563 43.478437) scale(0.1 -0.1)">
      <defs>
       <path id="DejaVuSans-4e" d="M 628 4666 
L 1478 4666 
L 3547 763 
L 3547 4666 
L 4159 4666 
L 4159 0 
L 3309 0 
L 1241 3903 
L 1241 0 
L 628 0 
L 628 4666 
z
" transform="scale(0.015625)"/>
       <path id="DejaVuSans-6f" d="M 1959 3097 
Q 1497 3097 1228 2736 
Q 959 2375 959 1747 
Q 959 1119 1226 758 
Q 1494 397 1959 397 
Q 2419 397 2687 759 
Q 2956 1122 2956 1747 
Q 2956 2369 2687 2733 
Q 2419 3097 1959 3097 
z
M 1959 3584 
Q 2709 3584 3137 3096 
Q 3566 2609 3566 1747 
Q 3566 888 3137 398 
Q 2709 -91 1959 -91 
Q 1206 -91 779 398 
Q 353 888 353 1747 
Q 353 2609 779 3096 
Q 1206 3584 1959 3584 
z
" transform="scale(0.015625)"/>
      </defs>
      <use xlink:href="#DejaVuSans-4e"/>
      <use xlink:href="#DejaVuSans-6f" transform="translate(74.804688 0)"/>
      <use xlink:href="#DejaVuSans-20" transform="translate(135.986328 0)"/>
      <use xlink:href="#DejaVuSans-4e" transform="translate(167.773438 0)"/>
      <use xlink:href="#DejaVuSans-6f" transform="translate(242.578125 0)"/>
      <use xlink:href="#DejaVuSans-69" transform="translate(303.759766 0)"/>
      <use xlink:href="#DejaVuSans-73" transform="translate(331.542969 0)"/>
      <use xlink:href="#DejaVuSans-65" transform="translate(383.642578 0)"/>
     </g>
    </g>
    <g id="line2d_32">
     <path d="M 740.401563 54.656562 
L 750.401563 54.656562 
L 760.401563 54.656562 
" style="fill: none; stroke-dasharray: 5.55,2.4; stroke-dashoffset: 0; stroke: #ff0000; stroke-width: 1.5"/>
    </g>
    <g id="text_17">
     <!-- With ARW/VRW -->
     <g transform="translate(768.401563 58.156562) scale(0.1 -0.1)">
      <defs>
       <path id="DejaVuSans-57" d="M 213 4666 
L 850 4666 
L 1831 722 
L 2809 4666 
L 3519 4666 
L 4500 722 
L 5478 4666 
L 6119 4666 
L 4947 0 
L 4153 0 
L 3169 4050 
L 2175 0 
L 1381 0 
L 213 4666 
z
" transform="scale(0.015625)"/>
       <path id="DejaVuSans-68" d="M 3513 2113 
L 3513 0 
L 2938 0 
L 2938 2094 
Q 2938 2591 2744 2837 
Q 2550 3084 2163 3084 
Q 1697 3084 1428 2787 
Q 1159 2491 1159 1978 
L 1159 0 
L 581 0 
L 581 4863 
L 1159 4863 
L 1159 2956 
Q 1366 3272 1645 3428 
Q 1925 3584 2291 3584 
Q 2894 3584 3203 3211 
Q 3513 2838 3513 2113 
z
" transform="scale(0.015625)"/>
       <path id="DejaVuSans-41" d="M 2188 4044 
L 1331 1722 
L 3047 1722 
L 2188 4044 
z
M 1831 4666 
L 2547 4666 
L 4325 0 
L 3669 0 
L 3244 1197 
L 1141 1197 
L 716 0 
L 50 0 
L 1831 4666 
z
" transform="scale(0.015625)"/>
       <path id="DejaVuSans-52" d="M 2841 2188 
Q 3044 2119 3236 1894 
Q 3428 1669 3622 1275 
L 4263 0 
L 3584 0 
L 2988 1197 
Q 2756 1666 2539 1819 
Q 2322 1972 1947 1972 
L 1259 1972 
L 1259 0 
L 628 0 
L 628 4666 
L 2053 4666 
Q 2853 4666 3247 4331 
Q 3641 3997 3641 3322 
Q 3641 2881 3436 2590 
Q 3231 2300 2841 2188 
z
M 1259 4147 
L 1259 2491 
L 2053 2491 
Q 2509 2491 2742 2702 
Q 2975 2913 2975 3322 
Q 2975 3731 2742 3939 
Q 2509 4147 2053 4147 
L 1259 4147 
z
" transform="scale(0.015625)"/>
       <path id="DejaVuSans-2f" d="M 1625 4666 
L 2156 4666 
L 531 -594 
L 0 -594 
L 1625 4666 
z
" transform="scale(0.015625)"/>
       <path id="DejaVuSans-56" d="M 1831 0 
L 50 4666 
L 709 4666 
L 2188 738 
L 3669 4666 
L 4325 4666 
L 2547 0 
L 1831 0 
z
" transform="scale(0.015625)"/>
      </defs>
      <use xlink:href="#DejaVuSans-57"/>
      <use xlink:href="#DejaVuSans-69" transform="translate(96.626953 0)"/>
      <use xlink:href="#DejaVuSans-74" transform="translate(124.410156 0)"/>
      <use xlink:href="#DejaVuSans-68" transform="translate(163.619141 0)"/>
      <use xlink:href="#DejaVuSans-20" transform="translate(226.998047 0)"/>
      <use xlink:href="#DejaVuSans-41" transform="translate(258.785156 0)"/>
      <use xlink:href="#DejaVuSans-52" transform="translate(327.193359 0)"/>
      <use xlink:href="#DejaVuSans-57" transform="translate(392.675781 0)"/>
      <use xlink:href="#DejaVuSans-2f" transform="translate(491.552734 0)"/>
      <use xlink:href="#DejaVuSans-56" transform="translate(525.244141 0)"/>
      <use xlink:href="#DejaVuSans-52" transform="translate(593.652344 0)"/>
      <use xlink:href="#DejaVuSans-57" transform="translate(659.134766 0)"/>
     </g>
    </g>
   </g>
  </g>
  <g id="axes_2">
   <g id="patch_8">
    <path d="M 66.62 534.04 
L 853.2 534.04 
L 853.2 302.44 
L 66.62 302.44 
z
" style="fill: #ffffff"/>
   </g>
   <g id="matplotlib.axis_3">
    <g id="xtick_8">
     <g id="line2d_33">
      <path d="M 102.373636 534.04 
L 102.373636 302.44 
" clip-path="url(#p800cfb7611)" style="fill: none; stroke: #b0b0b0; stroke-width: 0.8; stroke-linecap: square"/>
     </g>
     <g id="line2d_34">
      <g>
       <use xlink:href="#m20e9c0ae44" x="102.373636" y="534.04" style="stroke: #000000; stroke-width: 0.8"/>
      </g>
     </g>
     <g id="text_18">
      <!-- 0 -->
      <g transform="translate(99.192386 548.638438) scale(0.1 -0.1)">
       <use xlink:href="#DejaVuSans-30"/>
      </g>
     </g>
    </g>
    <g id="xtick_9">
     <g id="line2d_35">
      <path d="M 223.943294 534.04 
L 223.943294 302.44 
" clip-path="url(#p800cfb7611)" style="fill: none; stroke: #b0b0b0; stroke-width: 0.8; stroke-linecap: square"/>
     </g>
     <g id="line2d_36">
      <g>
       <use xlink:href="#m20e9c0ae44" x="223.943294" y="534.04" style="stroke: #000000; stroke-width: 0.8"/>
      </g>
     </g>
     <g id="text_19">
      <!-- 50 -->
      <g transform="translate(217.580794 548.638438) scale(0.1 -0.1)">
       <use xlink:href="#DejaVuSans-35"/>
       <use xlink:href="#DejaVuSans-30" transform="translate(63.623047 0)"/>
      </g>
     </g>
    </g>
    <g id="xtick_10">
     <g id="line2d_37">
      <path d="M 345.512952 534.04 
L 345.512952 302.44 
" clip-path="url(#p800cfb7611)" style="fill: none; stroke: #b0b0b0; stroke-width: 0.8; stroke-linecap: square"/>
     </g>
     <g id="line2d_38">
      <g>
       <use xlink:href="#m20e9c0ae44" x="345.512952" y="534.04" style="stroke: #000000; stroke-width: 0.8"/>
      </g>
     </g>
     <g id="text_20">
      <!-- 100 -->
      <g transform="translate(335.969202 548.638438) scale(0.1 -0.1)">
       <use xlink:href="#DejaVuSans-31"/>
       <use xlink:href="#DejaVuSans-30" transform="translate(63.623047 0)"/>
       <use xlink:href="#DejaVuSans-30" transform="translate(127.246094 0)"/>
      </g>
     </g>
    </g>
    <g id="xtick_11">
     <g id="line2d_39">
      <path d="M 467.08261 534.04 
L 467.08261 302.44 
" clip-path="url(#p800cfb7611)" style="fill: none; stroke: #b0b0b0; stroke-width: 0.8; stroke-linecap: square"/>
     </g>
     <g id="line2d_40">
      <g>
       <use xlink:href="#m20e9c0ae44" x="467.08261" y="534.04" style="stroke: #000000; stroke-width: 0.8"/>
      </g>
     </g>
     <g id="text_21">
      <!-- 150 -->
      <g transform="translate(457.53886 548.638438) scale(0.1 -0.1)">
       <use xlink:href="#DejaVuSans-31"/>
       <use xlink:href="#DejaVuSans-35" transform="translate(63.623047 0)"/>
       <use xlink:href="#DejaVuSans-30" transform="translate(127.246094 0)"/>
      </g>
     </g>
    </g>
    <g id="xtick_12">
     <g id="line2d_41">
      <path d="M 588.652268 534.04 
L 588.652268 302.44 
" clip-path="url(#p800cfb7611)" style="fill: none; stroke: #b0b0b0; stroke-width: 0.8; stroke-linecap: square"/>
     </g>
     <g id="line2d_42">
      <g>
       <use xlink:href="#m20e9c0ae44" x="588.652268" y="534.04" style="stroke: #000000; stroke-width: 0.8"/>
      </g>
     </g>
     <g id="text_22">
      <!-- 200 -->
      <g transform="translate(579.108518 548.638438) scale(0.1 -0.1)">
       <use xlink:href="#DejaVuSans-32"/>
       <use xlink:href="#DejaVuSans-30" transform="translate(63.623047 0)"/>
       <use xlink:href="#DejaVuSans-30" transform="translate(127.246094 0)"/>
      </g>
     </g>
    </g>
    <g id="xtick_13">
     <g id="line2d_43">
      <path d="M 710.221925 534.04 
L 710.221925 302.44 
" clip-path="url(#p800cfb7611)" style="fill: none; stroke: #b0b0b0; stroke-width: 0.8; stroke-linecap: square"/>
     </g>
     <g id="line2d_44">
      <g>
       <use xlink:href="#m20e9c0ae44" x="710.221925" y="534.04" style="stroke: #000000; stroke-width: 0.8"/>
      </g>
     </g>
     <g id="text_23">
      <!-- 250 -->
      <g transform="translate(700.678175 548.638438) scale(0.1 -0.1)">
       <use xlink:href="#DejaVuSans-32"/>
       <use xlink:href="#DejaVuSans-35" transform="translate(63.623047 0)"/>
       <use xlink:href="#DejaVuSans-30" transform="translate(127.246094 0)"/>
      </g>
     </g>
    </g>
    <g id="xtick_14">
     <g id="line2d_45">
      <path d="M 831.791583 534.04 
L 831.791583 302.44 
" clip-path="url(#p800cfb7611)" style="fill: none; stroke: #b0b0b0; stroke-width: 0.8; stroke-linecap: square"/>
     </g>
     <g id="line2d_46">
      <g>
       <use xlink:href="#m20e9c0ae44" x="831.791583" y="534.04" style="stroke: #000000; stroke-width: 0.8"/>
      </g>
     </g>
     <g id="text_24">
      <!-- 300 -->
      <g transform="translate(822.247833 548.638438) scale(0.1 -0.1)">
       <use xlink:href="#DejaVuSans-33"/>
       <use xlink:href="#DejaVuSans-30" transform="translate(63.623047 0)"/>
       <use xlink:href="#DejaVuSans-30" transform="translate(127.246094 0)"/>
      </g>
     </g>
    </g>
    <g id="text_25">
     <!-- Time (s) -->
     <g transform="translate(439.581094 562.316562) scale(0.1 -0.1)">
      <defs>
       <path id="DejaVuSans-54" d="M -19 4666 
L 3928 4666 
L 3928 4134 
L 2272 4134 
L 2272 0 
L 1638 0 
L 1638 4134 
L -19 4134 
L -19 4666 
z
" transform="scale(0.015625)"/>
       <path id="DejaVuSans-6d" d="M 3328 2828 
Q 3544 3216 3844 3400 
Q 4144 3584 4550 3584 
Q 5097 3584 5394 3201 
Q 5691 2819 5691 2113 
L 5691 0 
L 5113 0 
L 5113 2094 
Q 5113 2597 4934 2840 
Q 4756 3084 4391 3084 
Q 3944 3084 3684 2787 
Q 3425 2491 3425 1978 
L 3425 0 
L 2847 0 
L 2847 2094 
Q 2847 2600 2669 2842 
Q 2491 3084 2119 3084 
Q 1678 3084 1418 2786 
Q 1159 2488 1159 1978 
L 1159 0 
L 581 0 
L 581 3500 
L 1159 3500 
L 1159 2956 
Q 1356 3278 1631 3431 
Q 1906 3584 2284 3584 
Q 2666 3584 2933 3390 
Q 3200 3197 3328 2828 
z
" transform="scale(0.015625)"/>
      </defs>
      <use xlink:href="#DejaVuSans-54"/>
      <use xlink:href="#DejaVuSans-69" transform="translate(57.958984 0)"/>
      <use xlink:href="#DejaVuSans-6d" transform="translate(85.742188 0)"/>
      <use xlink:href="#DejaVuSans-65" transform="translate(183.154297 0)"/>
      <use xlink:href="#DejaVuSans-20" transform="translate(244.677734 0)"/>
      <use xlink:href="#DejaVuSans-28" transform="translate(276.464844 0)"/>
      <use xlink:href="#DejaVuSans-73" transform="translate(315.478516 0)"/>
      <use xlink:href="#DejaVuSans-29" transform="translate(367.578125 0)"/>
     </g>
    </g>
   </g>
   <g id="matplotlib.axis_4">
    <g id="ytick_7">
     <g id="line2d_47">
      <path d="M 66.62 512.184096 
L 853.2 512.184096 
" clip-path="url(#p800cfb7611)" style="fill: none; stroke: #b0b0b0; stroke-width: 0.8; stroke-linecap: square"/>
     </g>
     <g id="line2d_48">
      <g>
       <use xlink:href="#m42f02993e4" x="66.62" y="512.184096" style="stroke: #000000; stroke-width: 0.8"/>
      </g>
     </g>
     <g id="text_26">
      <!-- −4 -->
      <g transform="translate(44.877813 515.983315) scale(0.1 -0.1)">
       <defs>
        <path id="DejaVuSans-2212" d="M 678 2272 
L 4684 2272 
L 4684 1741 
L 678 1741 
L 678 2272 
z
" transform="scale(0.015625)"/>
       </defs>
       <use xlink:href="#DejaVuSans-2212"/>
       <use xlink:href="#DejaVuSans-34" transform="translate(83.789062 0)"/>
      </g>
     </g>
    </g>
    <g id="ytick_8">
     <g id="line2d_49">
      <path d="M 66.62 481.737879 
L 853.2 481.737879 
" clip-path="url(#p800cfb7611)" style="fill: none; stroke: #b0b0b0; stroke-width: 0.8; stroke-linecap: square"/>
     </g>
     <g id="line2d_50">
      <g>
       <use xlink:href="#m42f02993e4" x="66.62" y="481.737879" style="stroke: #000000; stroke-width: 0.8"/>
      </g>
     </g>
     <g id="text_27">
      <!-- −2 -->
      <g transform="translate(44.877813 485.537098) scale(0.1 -0.1)">
       <use xlink:href="#DejaVuSans-2212"/>
       <use xlink:href="#DejaVuSans-32" transform="translate(83.789062 0)"/>
      </g>
     </g>
    </g>
    <g id="ytick_9">
     <g id="line2d_51">
      <path d="M 66.62 451.291662 
L 853.2 451.291662 
" clip-path="url(#p800cfb7611)" style="fill: none; stroke: #b0b0b0; stroke-width: 0.8; stroke-linecap: square"/>
     </g>
     <g id="line2d_52">
      <g>
       <use xlink:href="#m42f02993e4" x="66.62" y="451.291662" style="stroke: #000000; stroke-width: 0.8"/>
      </g>
     </g>
     <g id="text_28">
      <!-- 0 -->
      <g transform="translate(53.2575 455.090881) scale(0.1 -0.1)">
       <use xlink:href="#DejaVuSans-30"/>
      </g>
     </g>
    </g>
    <g id="ytick_10">
     <g id="line2d_53">
      <path d="M 66.62 420.845446 
L 853.2 420.845446 
" clip-path="url(#p800cfb7611)" style="fill: none; stroke: #b0b0b0; stroke-width: 0.8; stroke-linecap: square"/>
     </g>
     <g id="line2d_54">
      <g>
       <use xlink:href="#m42f02993e4" x="66.62" y="420.845446" style="stroke: #000000; stroke-width: 0.8"/>
      </g>
     </g>
     <g id="text_29">
      <!-- 2 -->
      <g transform="translate(53.2575 424.644664) scale(0.1 -0.1)">
       <use xlink:href="#DejaVuSans-32"/>
      </g>
     </g>
    </g>
    <g id="ytick_11">
     <g id="line2d_55">
      <path d="M 66.62 390.399229 
L 853.2 390.399229 
" clip-path="url(#p800cfb7611)" style="fill: none; stroke: #b0b0b0; stroke-width: 0.8; stroke-linecap: square"/>
     </g>
     <g id="line2d_56">
      <g>
       <use xlink:href="#m42f02993e4" x="66.62" y="390.399229" style="stroke: #000000; stroke-width: 0.8"/>
      </g>
     </g>
     <g id="text_30">
      <!-- 4 -->
      <g transform="translate(53.2575 394.198447) scale(0.1 -0.1)">
       <use xlink:href="#DejaVuSans-34"/>
      </g>
     </g>
    </g>
    <g id="ytick_12">
     <g id="line2d_57">
      <path d="M 66.62 359.953012 
L 853.2 359.953012 
" clip-path="url(#p800cfb7611)" style="fill: none; stroke: #b0b0b0; stroke-width: 0.8; stroke-linecap: square"/>
     </g>
     <g id="line2d_58">
      <g>
       <use xlink:href="#m42f02993e4" x="66.62" y="359.953012" style="stroke: #000000; stroke-width: 0.8"/>
      </g>
     </g>
     <g id="text_31">
      <!-- 6 -->
      <g transform="translate(53.2575 363.752231) scale(0.1 -0.1)">
       <use xlink:href="#DejaVuSans-36"/>
      </g>
     </g>
    </g>
    <g id="ytick_13">
     <g id="line2d_59">
      <path d="M 66.62 329.506795 
L 853.2 329.506795 
" clip-path="url(#p800cfb7611)" style="fill: none; stroke: #b0b0b0; stroke-width: 0.8; stroke-linecap: square"/>
     </g>
     <g id="line2d_60">
      <g>
       <use xlink:href="#m42f02993e4" x="66.62" y="329.506795" style="stroke: #000000; stroke-width: 0.8"/>
      </g>
     </g>
     <g id="text_32">
      <!-- 8 -->
      <g transform="translate(53.2575 333.306014) scale(0.1 -0.1)">
       <use xlink:href="#DejaVuSans-38"/>
      </g>
     </g>
    </g>
    <g id="text_33">
     <!-- Estimated Value -->
     <g transform="translate(38.798125 458.818906) rotate(-90) scale(0.1 -0.1)">
      <defs>
       <path id="DejaVuSans-45" d="M 628 4666 
L 3578 4666 
L 3578 4134 
L 1259 4134 
L 1259 2753 
L 3481 2753 
L 3481 2222 
L 1259 2222 
L 1259 531 
L 3634 531 
L 3634 0 
L 628 0 
L 628 4666 
z
" transform="scale(0.015625)"/>
       <path id="DejaVuSans-6c" d="M 603 4863 
L 1178 4863 
L 1178 0 
L 603 0 
L 603 4863 
z
" transform="scale(0.015625)"/>
       <path id="DejaVuSans-75" d="M 544 1381 
L 544 3500 
L 1119 3500 
L 1119 1403 
Q 1119 906 1312 657 
Q 1506 409 1894 409 
Q 2359 409 2629 706 
Q 2900 1003 2900 1516 
L 2900 3500 
L 3475 3500 
L 3475 0 
L 2900 0 
L 2900 538 
Q 2691 219 2414 64 
Q 2138 -91 1772 -91 
Q 1169 -91 856 284 
Q 544 659 544 1381 
z
M 1991 3584 
L 1991 3584 
z
" transform="scale(0.015625)"/>
      </defs>
      <use xlink:href="#DejaVuSans-45"/>
      <use xlink:href="#DejaVuSans-73" transform="translate(63.183594 0)"/>
      <use xlink:href="#DejaVuSans-74" transform="translate(115.283203 0)"/>
      <use xlink:href="#DejaVuSans-69" transform="translate(154.492188 0)"/>
      <use xlink:href="#DejaVuSans-6d" transform="translate(182.275391 0)"/>
      <use xlink:href="#DejaVuSans-61" transform="translate(279.6875 0)"/>
      <use xlink:href="#DejaVuSans-74" transform="translate(340.966797 0)"/>
      <use xlink:href="#DejaVuSans-65" transform="translate(380.175781 0)"/>
      <use xlink:href="#DejaVuSans-64" transform="translate(441.699219 0)"/>
      <use xlink:href="#DejaVuSans-20" transform="translate(505.175781 0)"/>
      <use xlink:href="#DejaVuSans-56" transform="translate(536.962891 0)"/>
      <use xlink:href="#DejaVuSans-61" transform="translate(597.621094 0)"/>
      <use xlink:href="#DejaVuSans-6c" transform="translate(658.900391 0)"/>
      <use xlink:href="#DejaVuSans-75" transform="translate(686.683594 0)"/>
      <use xlink:href="#DejaVuSans-65" transform="translate(750.0625 0)"/>
     </g>
    </g>
    <g id="text_34">
     <!-- 1e−5 -->
     <g transform="translate(66.62 299.44) scale(0.1 -0.1)">
      <use xlink:href="#DejaVuSans-31"/>
      <use xlink:href="#DejaVuSans-65" transform="translate(63.623047 0)"/>
      <use xlink:href="#DejaVuSans-2212" transform="translate(125.146484 0)"/>
      <use xlink:href="#DejaVuSans-35" transform="translate(208.935547 0)"/>
     </g>
    </g>
   </g>
   <g id="line2d_61">
    <path d="M 102.373636 451.291662 
L 130.723681 451.182525 
L 139.039045 450.718118 
L 144.533994 450.509386 
L 163.790627 450.619805 
L 169.43146 450.782784 
L 177.357801 450.100117 
L 181.345286 450.065402 
L 181.49117 449.722348 
L 183.873935 449.092169 
L 186.49984 448.7798 
L 190.876347 448.493292 
L 217.086765 448.447345 
L 217.232649 433.305843 
L 217.475788 426.70371 
L 217.718928 425.480437 
L 218.059323 424.945182 
L 218.594229 424.592243 
L 219.664042 424.211417 
L 222.095435 423.615988 
L 224.478201 423.236288 
L 226.520571 423.132631 
L 229.000592 423.132631 
L 229.146476 432.284796 
L 229.632754 434.705839 
L 229.973149 435.254038 
L 230.362172 435.482094 
L 230.945706 435.533339 
L 231.918264 435.356404 
L 236.343399 434.338946 
L 237.996747 434.269889 
L 240.914418 434.278753 
L 240.963046 433.295474 
L 241.060302 433.395489 
L 241.643836 434.03192 
L 242.178743 434.164097 
L 243.394439 434.156419 
L 245.631321 434.176594 
L 247.236041 434.426993 
L 248.792132 434.901449 
L 250.639991 435.502087 
L 252.828245 435.502087 
L 252.974128 440.66687 
L 254.287081 443.789562 
L 255.113754 444.98055 
L 256.086312 445.986749 
L 257.25338 446.874205 
L 258.760844 447.728997 
L 260.705959 448.564272 
L 262.26205 449.043659 
L 264.742071 449.043659 
L 264.887955 452.329018 
L 266.103652 454.086507 
L 266.978953 454.834167 
L 268.097394 455.488428 
L 269.604858 456.099621 
L 271.695856 456.693874 
L 274.127249 457.17279 
L 276.655898 457.17279 
L 276.801781 458.944111 
L 278.066106 460.072013 
L 279.087291 460.572395 
L 280.497499 460.992743 
L 282.539869 461.345884 
L 285.603425 461.630066 
L 287.548539 461.645615 
L 288.569724 461.645615 
L 288.66698 461.278681 
L 288.715608 461.286239 
L 289.931304 461.425079 
L 295.231742 461.635326 
L 300.483551 461.698928 
L 300.629434 462.82967 
L 301.212969 462.923962 
L 302.136898 462.713722 
L 307.437335 461.319326 
L 310.06324 460.842349 
L 312.348749 460.842349 
L 312.494633 461.200056 
L 313.321307 461.807049 
L 314.342492 462.328552 
L 315.704072 462.754857 
L 317.551931 463.086411 
L 320.129207 463.311284 
L 323.338646 463.369235 
L 324.262576 463.369235 
L 324.408459 463.244024 
L 327.374759 462.980245 
L 333.599126 462.764824 
L 336.176402 462.764824 
L 336.322286 462.076296 
L 337.878377 461.566719 
L 339.823492 461.242556 
L 340.698794 461.143434 
L 340.844677 451.291662 
L 371.96651 451.180779 
L 387.381542 450.969151 
L 421.907325 450.870614 
L 429.493272 450.740571 
L 455.460551 450.690212 
L 455.606434 451.05026 
L 456.044085 451.083752 
L 461.004127 450.680528 
L 465.332007 450.481629 
L 467.374377 450.481629 
L 467.520261 452.465887 
L 468.103795 453.025815 
L 468.735957 453.149347 
L 470.243421 453.140791 
L 477.5376 452.943482 
L 479.725854 453.050089 
L 480.990179 453.103514 
L 486.533755 453.253604 
L 490.618496 453.421257 
L 491.20203 453.421257 
L 491.347914 454.419319 
L 493.2444 455.192668 
L 495.043631 455.54013 
L 498.009931 455.861109 
L 501.462509 456.034529 
L 503.115856 456.034529 
L 503.26174 456.809004 
L 504.915087 457.142598 
L 507.540992 457.372757 
L 512.792801 457.582797 
L 515.029683 457.582797 
L 515.175566 458.408546 
L 517.120681 458.615017 
L 521.108166 458.756432 
L 526.943509 458.803289 
L 527.089393 458.14939 
L 528.694112 458.004265 
L 534.626712 458.025679 
L 538.857336 458.035731 
L 539.003219 457.180827 
L 540.170288 456.9617 
L 542.990704 456.771377 
L 549.069187 456.593734 
L 551.062929 456.702408 
L 553.688834 456.912961 
L 558.843388 457.053936 
L 567.450519 457.063924 
L 575.328233 456.921304 
L 579.072579 456.810598 
L 579.218462 451.291662 
L 603.824161 451.180679 
L 611.653247 451.130356 
L 638.155432 450.987882 
L 644.768822 450.810933 
L 646.17903 450.810933 
L 646.324913 450.666279 
L 657.703833 450.645112 
L 673.896912 450.534829 
L 681.969137 450.410087 
L 682.115021 450.528967 
L 685.08132 450.477486 
L 687.804481 450.253441 
L 690.138618 449.840524 
L 691.743337 449.587993 
L 693.834336 449.587993 
L 694.077475 452.436001 
L 694.806893 454.028819 
L 695.390427 454.64638 
L 696.119845 455.07147 
L 697.14103 455.382652 
L 698.648494 455.587678 
L 701.274399 455.687849 
L 705.748162 455.694613 
L 705.894046 456.558378 
L 706.526208 456.749725 
L 708.082299 456.779077 
L 717.661989 456.733117 
L 717.807872 456.942458 
L 719.509847 456.838549 
L 724.421261 456.661144 
L 730.159349 456.659194 
L 732.007208 456.887315 
L 735.897437 457.098713 
L 741.343758 457.194965 
L 741.489641 457.194965 
L 741.635525 457.502593 
L 744.066918 457.669231 
L 750.339913 457.793838 
L 753.403468 457.798343 
L 753.549351 458.186134 
L 756.223884 458.282325 
L 765.317294 458.337719 
L 765.463178 457.03612 
L 766.581619 456.773143 
L 768.915756 456.677741 
L 777.231121 456.618129 
L 777.377004 452.512145 
L 778.009167 452.043454 
L 778.787212 451.849296 
L 780.489188 451.708324 
L 785.108835 451.608348 
L 795.417942 451.614911 
L 816.862829 451.595691 
L 817.446364 451.590825 
L 817.446364 451.590825 
" clip-path="url(#p800cfb7611)" style="fill: none; stroke: #0000ff; stroke-width: 1.5; stroke-linecap: square"/>
   </g>
   <g id="line2d_62">
    <path d="M 102.373636 451.291662 
L 129.556612 451.182207 
L 131.939377 450.947557 
L 133.68998 450.77788 
L 134.759793 450.720438 
L 138.358255 450.678894 
L 139.671207 450.726236 
L 140.400625 450.759107 
L 145.603807 450.813506 
L 145.74969 450.750274 
L 158.441563 450.856668 
L 159.122353 450.893007 
L 160.970211 451.050037 
L 163.49886 451.51442 
L 164.665929 451.696078 
L 169.43146 451.790888 
L 169.577343 451.693193 
L 170.501273 451.525506 
L 171.862853 451.293803 
L 181.880193 450.936552 
L 182.609611 450.764909 
L 185.624538 450.595665 
L 186.2567 450.507753 
L 187.812792 450.262135 
L 189.320256 449.970757 
L 190.487324 449.795806 
L 191.605765 449.784177 
L 193.30774 449.67488 
L 194.037158 449.707177 
L 195.350111 449.815596 
L 201.477221 449.93411 
L 203.32508 449.965354 
L 210.862399 449.85439 
L 217.086765 449.748658 
L 217.232649 438.057943 
L 217.573044 433.610021 
L 217.816183 431.530688 
L 217.864811 431.562532 
L 217.913439 431.462585 
L 218.205206 431.229753 
L 218.253834 431.237961 
L 218.35109 430.981339 
L 218.399718 431.006013 
L 218.740113 432.004458 
L 218.788741 432.083047 
L 218.837369 432.001272 
L 219.080508 431.552537 
L 219.275019 430.878377 
L 219.372275 431.010449 
L 219.420903 430.973214 
L 219.518159 430.848368 
L 219.566786 430.955564 
L 219.858554 431.782634 
L 219.955809 432.054645 
L 220.004437 431.92909 
L 220.101693 431.893027 
L 220.247577 432.173051 
L 220.296204 432.025484 
L 220.490716 432.440551 
L 220.587972 432.560799 
L 220.636599 432.450905 
L 220.879739 432.209711 
L 221.025622 431.981842 
L 221.511901 433.169807 
L 221.949552 432.43596 
L 221.99818 432.490662 
L 222.095435 432.501557 
L 222.144063 432.544605 
L 222.192691 432.478539 
L 222.387203 432.141175 
L 222.43583 432.209385 
L 222.484458 432.187014 
L 222.727598 432.757149 
L 223.067993 432.124113 
L 223.165248 432.44807 
L 223.457016 433.337456 
L 223.602899 433.167177 
L 223.846038 432.979941 
L 223.991922 432.943752 
L 224.235061 432.685588 
L 224.380945 432.788359 
L 224.867224 431.801619 
L 225.013107 432.038942 
L 225.207619 432.687411 
L 225.256246 432.638676 
L 225.304874 432.698956 
L 225.450758 432.874507 
L 225.499386 432.820589 
L 225.937037 432.910117 
L 226.08292 433.137485 
L 226.180176 432.873814 
L 226.228804 432.899312 
L 226.471943 432.948236 
L 229.000592 432.948236 
L 229.146476 444.364002 
L 229.195103 444.478532 
L 229.292359 444.246997 
L 229.389615 444.617922 
L 229.486871 444.882517 
L 229.535498 444.809815 
L 229.973149 442.895059 
L 230.070405 442.668031 
L 230.216289 442.816188 
L 230.313544 442.725228 
L 230.362172 442.768825 
L 230.459428 442.779577 
L 230.508056 442.620207 
L 230.556684 442.638302 
L 230.751195 442.896015 
L 230.848451 442.657809 
L 231.042962 442.301386 
L 231.140218 442.4127 
L 231.334729 442.700438 
L 231.529241 442.624175 
L 231.869636 442.3371 
L 231.966892 442.327921 
L 232.258659 441.793122 
L 232.307287 441.830219 
L 232.501798 441.964592 
L 232.988077 442.145639 
L 233.279844 442.221794 
L 233.620239 442.437303 
L 234.106518 442.065258 
L 234.301029 441.973125 
L 234.690052 441.640375 
L 237.559096 441.200071 
L 238.191258 441.252308 
L 238.628909 441.238609 
L 240.914418 441.238609 
L 241.060302 441.657883 
L 241.206186 441.559424 
L 241.400697 442.102741 
L 241.741092 442.463781 
L 241.886976 442.277025 
L 242.178743 442.112892 
L 242.324626 442.197546 
L 242.47051 442.482608 
L 242.519138 442.439692 
L 242.665021 442.505714 
L 242.859533 442.422841 
L 243.199928 442.115981 
L 243.248556 442.167586 
L 243.491695 442.292612 
L 243.734834 442.491607 
L 244.026602 442.288405 
L 244.415625 442.421149 
L 244.561508 442.400421 
L 244.901903 441.98138 
L 245.19367 441.782923 
L 245.825833 441.735672 
L 246.409367 441.868756 
L 246.749762 441.621736 
L 247.625064 441.484671 
L 248.84076 442.5526 
L 249.375667 443.333013 
L 249.764689 443.626805 
L 249.959201 443.748348 
L 250.250968 443.947649 
L 252.828245 443.947649 
L 252.974128 451.420972 
L 253.606291 452.761163 
L 253.654919 452.778608 
L 254.287081 454.261361 
L 255.454149 455.73329 
L 255.794545 456.048249 
L 256.037684 456.304466 
L 256.183567 456.407547 
L 256.475335 456.603947 
L 256.669846 456.683445 
L 257.010241 456.904315 
L 257.545148 457.504786 
L 257.934171 457.964718 
L 258.225938 458.162514 
L 258.760844 458.688623 
L 259.782029 460.021413 
L 260.365564 460.431753 
L 260.608703 460.467191 
L 261.338121 460.760331 
L 261.58126 460.687436 
L 261.727144 460.737299 
L 262.018911 460.820441 
L 262.456562 460.806745 
L 264.742071 460.806745 
L 264.887955 465.394822 
L 265.276978 466.037709 
L 265.617373 467.026992 
L 265.763256 467.059537 
L 265.957768 467.078264 
L 266.103652 467.101744 
L 266.395419 467.351168 
L 266.492674 467.386728 
L 266.784442 467.553231 
L 266.930325 467.614893 
L 267.416604 468.024644 
L 269.410346 469.218812 
L 269.847997 469.362529 
L 270.23702 469.6321 
L 270.674671 469.637553 
L 271.355461 469.963772 
L 272.182134 470.140696 
L 272.668413 470.222572 
L 275.683341 470.331063 
L 276.655898 470.331063 
L 276.801781 467.334564 
L 277.142176 466.890648 
L 277.28806 466.653207 
L 277.433944 466.452226 
L 277.482571 466.477884 
L 277.920222 466.364812 
L 278.503757 465.673674 
L 278.795524 465.482705 
L 278.941407 465.570831 
L 279.087291 465.580471 
L 279.524942 465.479052 
L 280.01122 465.522539 
L 280.302988 465.624738 
L 280.789266 465.716719 
L 281.032405 465.787514 
L 281.956335 465.99505 
L 282.637125 465.886962 
L 284.387728 466.179725 
L 287.791678 466.282313 
L 288.569724 466.282313 
L 288.715608 466.701488 
L 289.639537 466.624709 
L 289.931304 466.42933 
L 290.125816 466.368914 
L 290.271699 466.263375 
L 290.660722 466.060472 
L 291.001117 466.147234 
L 291.195629 466.168775 
L 291.487396 466.107722 
L 292.022303 466.107445 
L 292.31407 466.185537 
L 294.891346 466.099467 
L 295.474881 466.153292 
L 295.71802 466.134214 
L 296.301555 466.138708 
L 297.419995 466.412409 
L 298.343925 466.466878 
L 300.483551 466.466878 
L 300.580806 461.740023 
L 300.629434 461.750435 
L 300.775318 461.505366 
L 301.018457 462.022152 
L 301.115713 461.972227 
L 301.358852 462.549256 
L 301.650619 462.075148 
L 302.136898 461.113431 
L 302.234154 461.170105 
L 302.477293 461.1199 
L 302.623177 461.04692 
L 302.817688 460.874703 
L 303.0122 460.972441 
L 303.352595 460.536452 
L 303.887501 459.786398 
L 304.37378 459.344322 
L 306.853801 458.159229 
L 307.729102 457.944524 
L 308.166753 457.789259 
L 308.847543 457.621029 
L 309.38245 457.512471 
L 312.348749 457.509907 
L 312.494633 458.140377 
L 312.835028 458.754676 
L 313.46719 459.86667 
L 314.099352 460.579704 
L 314.39112 460.72363 
L 314.780142 460.73062 
L 315.315049 461.00233 
L 315.7527 461.068589 
L 316.530746 461.152389 
L 317.017024 461.26825 
L 317.989581 461.263117 
L 320.129207 461.16388 
L 321.344904 461.150051 
L 324.262576 461.138058 
L 324.408459 461.208798 
L 326.402202 461.19042 
L 328.639083 461.175093 
L 330.341059 461.015182 
L 332.82108 460.949003 
L 336.176402 460.941891 
L 336.322286 459.901119 
L 336.759937 459.59881 
L 337.100332 459.467333 
L 337.246215 459.430907 
L 337.635238 459.146706 
L 338.316028 458.741597 
L 338.802307 458.777925 
L 339.045446 458.743052 
L 339.774864 458.448157 
L 340.261143 458.420159 
L 340.698794 458.213933 
L 340.844677 451.291662 
L 367.784513 451.182171 
L 373.230834 450.763381 
L 377.315574 450.842084 
L 379.4552 450.895833 
L 385.193288 450.98525 
L 394.724349 450.997934 
L 398.371439 451.10686 
L 405.568363 451.685165 
L 411.355079 451.793386 
L 412.522147 451.861386 
L 413.59196 451.903705 
L 420.010838 452.167008 
L 421.032023 452.232939 
L 421.907325 452.332056 
L 422.977138 452.417456 
L 425.797554 452.304742 
L 427.499529 452.075485 
L 429.104249 451.910962 
L 431.827409 451.800928 
L 432.897222 451.883926 
L 434.98822 451.916094 
L 443.352213 451.830868 
L 455.460551 451.734293 
L 455.655062 457.46481 
L 455.849573 459.378258 
L 455.898201 459.453439 
L 456.141341 457.61203 
L 456.189968 457.654434 
L 456.335852 457.724953 
L 456.38448 457.678573 
L 456.530364 457.768781 
L 456.676247 457.692028 
L 456.724875 457.595969 
L 456.773503 457.644515 
L 457.113898 458.769435 
L 457.162526 458.862107 
L 457.211154 458.794481 
L 457.454293 458.408101 
L 457.648804 457.776926 
L 457.74606 457.928777 
L 457.794688 457.900831 
L 457.891944 457.793475 
L 457.940572 457.908993 
L 458.232339 458.786024 
L 458.329594 459.074524 
L 458.378222 458.956554 
L 458.475478 458.93622 
L 458.621362 459.238194 
L 458.669989 459.098294 
L 458.864501 459.541213 
L 458.961757 459.676476 
L 459.010385 459.573177 
L 459.253524 459.362954 
L 459.399407 459.152391 
L 459.885686 460.398106 
L 460.323337 459.709311 
L 460.371965 459.768408 
L 460.46922 459.789178 
L 460.517848 459.836706 
L 460.566476 459.775575 
L 460.760988 459.454486 
L 460.809615 459.527482 
L 460.858243 459.510183 
L 461.101383 460.096491 
L 461.441778 459.487483 
L 461.539033 459.818519 
L 461.830801 460.726905 
L 461.976684 460.563457 
L 462.219823 460.386783 
L 462.365707 460.354942 
L 462.608846 460.104143 
L 462.75473 460.211995 
L 463.241009 459.234625 
L 463.386892 459.47246 
L 463.581404 460.120001 
L 463.630032 460.069307 
L 463.678659 460.129382 
L 463.824543 460.30528 
L 463.873171 460.252484 
L 464.310822 460.333617 
L 464.456705 460.553567 
L 464.553961 460.285756 
L 464.602589 460.308809 
L 464.894356 460.35466 
L 467.374377 460.35466 
L 467.471633 464.673269 
L 467.520261 464.592509 
L 467.568888 464.507842 
L 467.714772 463.729539 
L 467.812028 463.927172 
L 467.860656 463.818428 
L 468.249679 461.995517 
L 468.44419 460.911973 
L 468.492818 461.017584 
L 468.784585 460.923734 
L 468.833213 460.920772 
L 468.930469 460.77028 
L 469.12498 461.021506 
L 469.222236 460.786105 
L 469.368119 460.473791 
L 469.465375 460.471276 
L 469.708514 460.876549 
L 469.757142 460.821815 
L 470.097537 460.617092 
L 470.340677 460.609748 
L 470.632444 460.129854 
L 471.264606 460.636717 
L 471.459117 460.675922 
L 471.994024 461.036272 
L 472.480303 460.750636 
L 472.626186 460.701664 
L 472.77207 460.594282 
L 473.063837 460.419805 
L 474.765812 460.235924 
L 475.203463 460.166763 
L 475.641114 460.207982 
L 475.981509 460.223121 
L 476.467787 460.279967 
L 477.197205 460.237259 
L 479.288203 460.237259 
L 479.336831 459.757657 
L 479.434087 459.776295 
L 479.579971 459.44033 
L 479.774482 459.708017 
L 480.163505 459.770493 
L 480.406644 459.424215 
L 480.698411 459.442636 
L 480.844295 459.719122 
L 480.892923 459.674246 
L 481.427829 459.410425 
L 481.573713 459.353298 
L 482.059992 459.724588 
L 482.157247 459.683123 
L 482.351759 459.552097 
L 482.497642 459.624393 
L 482.692154 459.71436 
L 482.983921 459.585933 
L 483.4702 459.122245 
L 483.713339 459.040418 
L 483.859223 459.045345 
L 484.053734 458.968953 
L 484.248245 459.032478 
L 484.734524 459.144949 
L 485.755709 458.499764 
L 486.047476 458.613928 
L 486.290616 458.775742 
L 486.728267 458.985374 
L 487.020034 459.260242 
L 487.214545 459.386258 
L 487.700824 459.973252 
L 488.089847 460.188836 
L 488.47887 460.370733 
L 488.770637 460.394419 
L 491.20203 460.394419 
L 491.347914 464.304368 
L 491.736936 464.439218 
L 491.88282 464.368701 
L 491.980076 464.423283 
L 492.028704 464.360687 
L 492.077331 464.419564 
L 492.369099 464.809261 
L 492.758122 464.978052 
L 492.855377 464.943175 
L 493.341656 465.339003 
L 493.536167 465.242685 
L 493.779307 465.331692 
L 493.973818 465.281276 
L 494.119702 465.36449 
L 494.362841 465.522791 
L 495.28677 465.517133 
L 496.599723 466.336424 
L 497.086001 466.626803 
L 498.301698 467.764196 
L 499.61465 468.115403 
L 500.052301 467.898233 
L 500.344068 467.967258 
L 500.684463 467.919111 
L 503.115856 467.919111 
L 503.26174 470.497644 
L 503.650763 470.652339 
L 503.94253 471.280292 
L 504.137042 471.157038 
L 504.428809 470.922409 
L 504.866459 470.922631 
L 505.109599 470.925313 
L 505.401366 470.942701 
L 505.741761 471.068516 
L 506.325295 471.189952 
L 506.860202 471.416669 
L 507.151969 471.395009 
L 507.978643 471.561176 
L 508.124526 471.579937 
L 508.610805 471.813947 
L 509.048456 471.726024 
L 509.680618 471.912046 
L 510.215524 471.935582 
L 510.410036 471.916017 
L 510.799059 471.955408 
L 511.23671 471.92773 
L 514.592032 471.882534 
L 515.029683 471.882534 
L 515.175566 468.171347 
L 515.807729 466.775277 
L 516.148124 466.606699 
L 516.634402 465.868126 
L 516.974797 465.334109 
L 517.217937 465.130305 
L 517.704215 465.073581 
L 517.995983 464.916616 
L 518.141866 464.88706 
L 518.336378 464.823209 
L 518.628145 464.931781 
L 518.919912 464.889345 
L 519.503446 464.967307 
L 520.33012 465.035503 
L 520.962282 464.862423 
L 521.302677 464.90681 
L 521.740328 464.989287 
L 523.539559 465.081114 
L 525.241534 465.03484 
L 526.943509 465.03484 
L 527.040765 464.688699 
L 527.089393 464.719855 
L 528.305089 464.119294 
L 528.499601 464.040352 
L 528.645485 463.922111 
L 529.034507 463.692012 
L 529.374902 463.758864 
L 529.520786 463.784939 
L 530.152948 463.696232 
L 530.34746 463.679419 
L 531.125506 463.692252 
L 531.417273 463.708238 
L 533.605527 463.663901 
L 533.848666 463.625086 
L 534.091805 463.600764 
L 534.67534 463.593983 
L 535.842408 463.857889 
L 536.766338 463.900001 
L 538.857336 463.900001 
L 538.954592 459.003477 
L 539.003219 459.00445 
L 539.149103 458.724621 
L 539.392242 459.215849 
L 539.489498 459.168583 
L 539.732637 459.772848 
L 539.781265 459.728402 
L 540.218916 458.801301 
L 540.462055 458.504043 
L 540.851078 458.590403 
L 540.996962 458.552659 
L 541.191473 458.424795 
L 541.385985 458.570456 
L 541.677752 458.253265 
L 542.16403 457.755101 
L 542.504426 457.331965 
L 543.233843 457.01547 
L 543.476983 457.071555 
L 543.866006 456.840463 
L 544.789935 456.733185 
L 545.616609 456.587957 
L 548.728792 456.468356 
L 550.722534 456.468356 
L 550.868418 456.809066 
L 551.208813 457.205174 
L 551.792347 457.89794 
L 552.716277 458.428496 
L 553.202555 458.336496 
L 553.54295 458.458537 
L 554.077857 458.415963 
L 555.390809 458.426944 
L 556.314739 458.304332 
L 557.19004 458.196829 
L 560.739874 457.860277 
L 562.636361 457.860277 
L 562.782244 458.163997 
L 565.067754 458.308084 
L 566.623846 458.380546 
L 568.812099 458.264428 
L 572.702329 458.275017 
L 574.550187 458.275017 
L 574.696071 457.868461 
L 575.133722 457.736446 
L 575.425489 457.691876 
L 575.62 457.730016 
L 576.009023 457.553424 
L 576.689813 457.29947 
L 577.176092 457.425793 
L 577.419231 457.429421 
L 578.148649 457.240508 
L 578.634928 457.275035 
L 579.072579 457.120882 
L 579.218462 451.291666 
L 599.05863 451.373813 
L 599.593537 451.697043 
L 599.690793 451.721818 
L 599.885304 451.800065 
L 600.128443 451.773245 
L 600.274327 451.807222 
L 600.468838 451.773934 
L 600.566094 451.828291 
L 600.760606 452.163469 
L 601.052373 452.143595 
L 601.246884 451.580602 
L 601.295512 451.646173 
L 601.538651 451.99138 
L 601.587279 451.948275 
L 601.684535 451.87222 
L 601.976302 452.474481 
L 602.02493 452.383322 
L 602.365325 451.936463 
L 603.240627 451.242285 
L 603.483766 451.230964 
L 604.164556 450.763704 
L 604.407695 450.909499 
L 604.553579 451.013276 
L 604.699462 451.031364 
L 605.185741 450.8858 
L 605.331625 450.963655 
L 605.42888 450.888426 
L 605.817903 450.043656 
L 606.061043 449.910621 
L 606.255554 449.900756 
L 606.450066 449.639953 
L 606.741833 449.611283 
L 607.71439 448.875749 
L 608.006157 448.947684 
L 608.541064 448.81074 
L 608.930087 449.06055 
L 609.464993 449.021603 
L 609.708132 448.997363 
L 609.951272 448.982103 
L 610.194411 449.083274 
L 611.11834 448.960778 
L 613.063455 449.333751 
L 613.695617 449.37223 
L 614.522291 449.563212 
L 616.759173 449.863399 
L 617.683102 450.018303 
L 618.41252 450.091935 
L 620.065867 450.212692 
L 622.49726 450.320122 
L 623.226678 450.637692 
L 624.199236 450.753461 
L 625.269049 450.67589 
L 634.265203 450.608297 
L 634.362459 451.032252 
L 634.411087 451.019008 
L 634.459715 451.015831 
L 635.335016 453.553816 
L 635.432272 453.365339 
L 635.626783 452.712506 
L 635.918551 452.036106 
L 635.967178 452.098609 
L 636.210318 453.116414 
L 636.307573 453.027038 
L 636.404829 453.217659 
L 636.988364 456.572501 
L 637.085619 456.410444 
L 637.231503 454.316607 
L 637.426014 452.821748 
L 637.960921 457.921555 
L 638.058177 458.002123 
L 638.155432 459.013505 
L 638.349944 460.837564 
L 638.495827 461.764393 
L 638.544455 461.547094 
L 638.593083 462.159938 
L 638.641711 462.064687 
L 638.787595 461.635823 
L 638.982106 463.62296 
L 639.857407 483.405286 
L 639.954663 483.999034 
L 640.24643 488.826986 
L 640.635453 494.97242 
L 640.781337 496.71456 
L 640.878593 496.521963 
L 641.024476 495.267562 
L 641.364871 500.696465 
L 641.462127 500.151736 
L 641.510755 500.202989 
L 641.85115 502.792344 
L 641.997033 501.097716 
L 642.142917 501.964098 
L 642.288801 500.747645 
L 642.337429 500.628858 
L 642.386056 500.7235 
L 642.677824 496.457782 
L 642.726451 496.364857 
L 642.920963 497.530151 
L 642.969591 497.231377 
L 643.261358 495.972465 
L 643.309986 495.760507 
L 643.407242 494.353209 
L 643.553125 495.180578 
L 646.17903 495.180578 
L 646.227658 490.35424 
L 646.324913 491.195156 
L 646.665308 496.237472 
L 646.762564 496.141301 
L 646.908448 495.883032 
L 647.248843 497.09472 
L 647.443354 496.454374 
L 647.491982 496.643477 
L 647.637866 496.683747 
L 647.881005 497.674004 
L 647.929633 497.498846 
L 647.978261 497.550013 
L 648.270028 498.883441 
L 648.318656 498.620933 
L 648.513167 497.906581 
L 648.610423 498.291228 
L 648.853562 499.34658 
L 649.096701 500.114537 
L 649.145329 500.094202 
L 649.193957 500.210469 
L 649.437097 501.385755 
L 649.728864 503.383244 
L 649.972003 504.752391 
L 650.215142 505.39095 
L 650.26377 505.380997 
L 650.895932 507.279371 
L 651.284955 509.051531 
L 651.430839 509.274682 
L 651.528095 509.375968 
L 651.576723 509.341515 
L 652.014373 509.170052 
L 652.354768 509.423518 
L 652.938303 509.811001 
L 653.181442 509.797564 
L 654.056744 509.821457 
L 654.397139 509.638711 
L 655.612835 508.800296 
L 658.092856 508.800296 
L 658.23874 514.942237 
L 658.335995 515.025857 
L 658.481879 515.673433 
L 658.627763 516.242704 
L 658.870902 515.46407 
L 658.91953 515.491696 
L 659.114041 515.67196 
L 659.357181 516.485861 
L 659.503064 516.694182 
L 659.648948 516.734418 
L 659.746204 516.60429 
L 659.989343 518.054825 
L 660.28111 519.716122 
L 660.572877 520.800555 
L 660.913272 521.562301 
L 661.107784 522.017151 
L 661.156412 522.019046 
L 661.253667 522.172525 
L 661.302295 522.129246 
L 661.545434 522.106063 
L 662.080341 523.06107 
L 662.226225 523.061648 
L 662.32348 523.127267 
L 662.420736 523.512727 
L 662.469364 523.439673 
L 662.712503 523.102842 
L 663.393293 520.675901 
L 663.539177 520.833751 
L 663.976828 518.588751 
L 666.65136 504.035005 
L 666.894499 502.820156 
L 667.234894 500.95045 
L 667.429406 500.578691 
L 670.006683 500.578691 
L 670.152566 490.707041 
L 670.249822 490.591118 
L 670.29845 490.726081 
L 670.347078 490.653059 
L 670.492961 490.373159 
L 670.590217 491.018199 
L 671.222379 495.262666 
L 671.319635 495.500229 
L 671.757286 497.314283 
L 671.805914 497.228284 
L 672.000425 496.897413 
L 672.146309 496.913687 
L 672.194936 496.760624 
L 672.243564 496.795699 
L 672.486704 497.881545 
L 672.583959 497.802369 
L 672.681215 497.796592 
L 672.729843 497.680511 
L 672.778471 497.742932 
L 672.875727 497.687595 
L 673.02161 497.396073 
L 673.070238 497.455897 
L 673.216122 497.009307 
L 673.264749 497.155645 
L 673.459261 497.02591 
L 673.605145 496.897578 
L 673.653772 496.930737 
L 673.7024 496.834991 
L 673.848284 496.584564 
L 674.285935 496.433795 
L 674.529074 495.794564 
L 674.577702 495.833616 
L 674.869469 496.130871 
L 674.966725 495.789667 
L 675.30712 493.919387 
L 675.404375 494.049445 
L 675.696143 492.99544 
L 675.842026 492.445505 
L 675.890654 492.488498 
L 676.036538 492.432675 
L 676.133793 492.314189 
L 676.328305 491.923611 
L 676.376933 491.986947 
L 676.425561 491.917708 
L 676.911839 489.617876 
L 677.154979 488.499143 
L 677.544001 489.196308 
L 677.738513 489.961491 
L 677.835769 490.000795 
L 678.273419 491.302662 
L 678.322047 491.26131 
L 678.370675 491.098481 
L 678.419303 491.169299 
L 678.613814 491.661652 
L 678.662442 491.605677 
L 678.905582 491.557343 
L 679.294604 490.673024 
L 681.920509 490.673024 
L 681.969137 480.219878 
L 682.115021 507.046223 
L 682.260904 506.996584 
L 682.504043 506.323156 
L 683.03895 507.152558 
L 683.087578 507.080043 
L 683.330717 507.182558 
L 683.476601 507.131901 
L 683.622484 506.967698 
L 683.671112 507.027421 
L 683.768368 507.003242 
L 683.914251 506.979 
L 684.060135 507.15135 
L 684.108763 507.095887 
L 684.254647 506.945009 
L 684.303274 507.00403 
L 684.40053 507.133578 
L 684.449158 507.096453 
L 684.935437 507.130782 
L 685.08132 507.059084 
L 685.421715 506.843086 
L 685.518971 506.544083 
L 685.567599 506.587175 
L 685.76211 507.2937 
L 686.00525 508.257109 
L 686.199761 508.388648 
L 686.297017 508.171741 
L 686.345645 508.202748 
L 686.880551 509.245291 
L 687.318202 507.530545 
L 688.04762 504.70478 
L 688.242131 504.027635 
L 688.436643 503.067216 
L 688.485271 503.136182 
L 688.825666 500.917658 
L 689.166061 498.011871 
L 689.360572 497.486358 
L 689.457828 497.446214 
L 689.603711 497.649687 
L 689.700967 497.812362 
L 689.749595 497.782399 
L 689.944107 497.360426 
L 690.138618 496.932177 
L 690.430385 495.534122 
L 690.527641 495.086969 
L 690.819408 492.820783 
L 691.01392 491.041654 
L 691.111175 490.606844 
L 691.257059 490.777233 
L 693.834336 490.777233 
L 693.980219 312.967273 
L 694.028847 317.923556 
L 694.41787 347.606015 
L 695.001404 441.076931 
L 695.147288 444.497142 
L 695.536311 496.674434 
L 695.828078 479.630626 
L 696.022589 454.864629 
L 696.119845 458.529666 
L 696.168473 458.339443 
L 696.217101 458.38216 
L 696.265729 457.447102 
L 696.654752 492.215269 
L 696.703379 491.969997 
L 696.849263 482.257415 
L 696.995147 488.494425 
L 697.043775 483.174024 
L 697.092402 488.270947 
L 697.189658 491.283015 
L 697.238286 490.766073 
L 697.286914 490.151904 
L 697.335542 491.583869 
L 697.578681 481.451916 
L 697.627309 480.589484 
L 697.773192 475.341813 
L 698.113588 500.597399 
L 698.259471 499.765654 
L 698.697122 485.193687 
L 698.843005 487.033124 
L 698.891633 487.795188 
L 699.134773 480.801325 
L 699.183401 482.466245 
L 699.232028 482.37721 
L 699.475168 495.44252 
L 699.815563 483.564141 
L 699.912818 489.475178 
L 700.204586 504.827818 
L 700.301841 503.976359 
L 700.544981 498.063856 
L 700.690864 499.222928 
L 700.982631 494.087335 
L 701.031259 494.673178 
L 701.079887 495.629611 
L 701.128515 495.154531 
L 701.566166 480.56656 
L 701.614794 479.515625 
L 701.663422 480.125484 
L 701.760677 482.870423 
L 701.955189 492.261064 
L 702.003817 491.36556 
L 702.052444 492.018541 
L 702.198328 493.983213 
L 702.295584 492.619152 
L 702.344212 492.904902 
L 702.441467 490.932527 
L 702.490095 492.06161 
L 702.635979 493.09552 
L 702.684607 492.803981 
L 702.83049 495.876215 
L 702.927746 492.055308 
L 702.976374 492.227791 
L 703.122257 492.489483 
L 705.748162 492.489483 
L 705.894046 468.727626 
L 706.47758 463.700982 
L 706.672091 461.7209 
L 706.817975 460.715166 
L 706.866603 460.75773 
L 707.061114 460.486551 
L 707.206998 460.505381 
L 707.304254 460.300346 
L 707.352882 460.344829 
L 707.498765 460.587868 
L 707.547393 460.531795 
L 707.693277 460.228297 
L 707.741904 460.253033 
L 707.83916 460.215639 
L 708.082299 460.452649 
L 708.179555 460.41033 
L 708.276811 460.562693 
L 708.325439 460.518136 
L 708.51995 460.319881 
L 708.76309 460.303904 
L 709.006229 460.177501 
L 709.687019 460.775652 
L 709.978786 460.719262 
L 710.221925 460.793939 
L 710.513693 460.906295 
L 710.80546 460.647679 
L 710.999971 460.49101 
L 711.437622 460.172931 
L 711.632133 460.167082 
L 711.778017 460.192365 
L 713.236853 460.009882 
L 713.52862 459.944993 
L 716.300408 459.82204 
L 717.661989 459.82204 
L 717.807872 464.636414 
L 717.953756 464.400909 
L 718.148267 464.761005 
L 718.391406 464.910201 
L 718.440034 464.981874 
L 718.488662 464.87787 
L 718.780429 464.457318 
L 718.829057 464.512885 
L 718.877685 464.461119 
L 719.072197 464.499525 
L 719.21808 464.763187 
L 719.412592 464.547068 
L 719.509847 464.485917 
L 719.801614 464.072511 
L 719.850242 463.903978 
L 719.89887 463.94463 
L 720.190637 464.109917 
L 720.385149 464.699504 
L 720.433777 464.675867 
L 720.482405 464.692698 
L 720.676916 464.346185 
L 720.725544 464.370504 
L 720.8228 464.430585 
L 721.065939 464.747346 
L 721.357706 464.612382 
L 721.843985 463.814715 
L 722.038496 463.719355 
L 722.18438 463.861491 
L 722.233008 463.816221 
L 722.378891 463.643836 
L 722.427519 463.672445 
L 722.524775 463.693485 
L 722.816542 463.90606 
L 722.913798 463.911738 
L 723.011053 463.976237 
L 723.059681 463.931385 
L 723.643216 463.24434 
L 723.691844 463.239156 
L 723.934983 462.890341 
L 724.080866 462.816404 
L 724.275378 462.742951 
L 724.567145 462.997732 
L 725.004796 463.040017 
L 725.491074 463.5529 
L 725.636958 463.725145 
L 725.880097 464.176813 
L 725.977353 464.191028 
L 726.366376 464.712634 
L 726.560887 464.65886 
L 726.755399 464.819124 
L 726.94991 464.902931 
L 729.575815 464.902931 
L 729.721699 465.455612 
L 730.159349 465.679429 
L 730.207977 465.637594 
L 730.256605 465.700751 
L 730.353861 465.786774 
L 730.402489 465.724285 
L 730.888767 466.193885 
L 731.375046 466.3214 
L 731.666813 466.622121 
L 731.764069 466.522674 
L 731.909952 466.342439 
L 731.95858 466.378053 
L 732.542115 466.508564 
L 732.736626 466.674156 
L 732.979765 466.741495 
L 733.5633 466.918425 
L 733.660555 466.899745 
L 734.487229 467.762539 
L 734.876252 467.951239 
L 735.508414 468.349975 
L 736.480972 469.480897 
L 737.015878 469.825285 
L 737.307645 469.969088 
L 737.550785 470.024711 
L 737.988435 470.202544 
L 738.426086 470.028277 
L 738.717853 470.171915 
L 739.00962 470.124123 
L 741.489641 470.124123 
L 741.635525 474.009347 
L 742.024548 474.39013 
L 742.316315 475.074691 
L 742.510827 475.065368 
L 742.753966 474.961066 
L 743.045733 475.179729 
L 743.532012 475.352851 
L 743.677895 475.38466 
L 744.115546 475.59987 
L 744.601825 475.690445 
L 745.574382 476.105484 
L 745.768893 476.191764 
L 746.060661 476.360014 
L 747.081846 476.624141 
L 747.422241 476.587309 
L 747.957147 476.773081 
L 748.929704 476.778991 
L 749.367355 476.776651 
L 753.403468 476.768571 
L 753.549351 471.346592 
L 753.889747 470.653002 
L 754.03563 470.348769 
L 754.230142 470.095187 
L 754.376025 470.128188 
L 754.521909 470.004143 
L 755.008187 469.340807 
L 755.348582 468.755455 
L 755.543094 468.605394 
L 755.688977 468.701484 
L 755.834861 468.706338 
L 756.32114 468.550528 
L 756.564279 468.488935 
L 756.710163 468.490416 
L 757.00193 468.63043 
L 757.245069 468.572152 
L 757.488208 468.624111 
L 758.460766 468.977411 
L 758.849789 468.885874 
L 759.0443 468.811507 
L 759.384695 468.700726 
L 761.281182 468.933266 
L 761.572949 468.976446 
L 762.0106 469.131281 
L 762.545506 469.129121 
L 762.885901 469.14735 
L 765.317294 469.14735 
L 765.41455 468.660687 
L 765.463178 468.687054 
L 765.949457 468.324624 
L 765.998084 468.396432 
L 766.046712 468.347785 
L 766.143968 468.267935 
L 766.77613 467.463542 
L 766.922014 467.451949 
L 767.311037 466.93558 
L 767.651432 466.925679 
L 767.991827 467.026813 
L 768.234966 466.961198 
L 768.672617 466.931704 
L 768.915756 466.886393 
L 769.158896 466.990871 
L 770.131453 466.787235 
L 770.471848 466.592058 
L 770.666359 466.594816 
L 771.298522 466.586561 
L 771.833428 466.571284 
L 772.125195 466.704674 
L 772.562846 466.541455 
L 773.000497 466.469092 
L 773.486775 466.753965 
L 773.729915 466.764431 
L 774.021682 466.837254 
L 774.50796 466.99706 
L 777.231121 466.99706 
L 777.377004 454.705092 
L 777.522888 454.202474 
L 777.766027 454.493195 
L 777.863283 454.362434 
L 778.106422 454.883557 
L 778.446817 454.203765 
L 778.884468 453.28519 
L 779.030352 453.332768 
L 779.419375 453.20682 
L 779.565258 453.130005 
L 779.75977 453.272439 
L 780.051537 452.918364 
L 780.537816 452.370986 
L 780.878211 451.913299 
L 781.607629 451.567256 
L 781.850768 451.623944 
L 782.239791 451.378695 
L 783.16372 451.263052 
L 783.941766 451.113144 
L 784.671184 451.00837 
L 785.254718 450.999389 
L 786.616298 451.00895 
L 789.096319 451.00895 
L 789.242203 451.281647 
L 789.582598 451.655462 
L 790.166132 452.313819 
L 791.090062 452.803085 
L 791.57634 452.696734 
L 791.916735 452.812375 
L 792.451642 452.760101 
L 793.618711 452.761355 
L 794.396757 452.712433 
L 795.272058 452.572664 
L 796.001476 452.446564 
L 797.022661 452.299618 
L 801.010146 452.220088 
L 801.156029 452.716892 
L 805.92156 453.145981 
L 807.96393 453.071673 
L 809.909045 453.116993 
L 812.875345 453.130654 
L 812.923972 453.130654 
L 813.069856 452.786157 
L 813.507507 452.652214 
L 813.799274 452.607211 
L 813.993785 452.649111 
L 814.382808 452.469313 
L 815.063598 452.211662 
L 815.549877 452.348762 
L 815.793016 452.354258 
L 816.522434 452.165874 
L 817.008713 452.207644 
L 817.446364 452.053746 
L 817.446364 452.053746 
" clip-path="url(#p800cfb7611)" style="fill: none; stroke-dasharray: 5.55,2.4; stroke-dashoffset: 0; stroke: #ff0000; stroke-width: 1.5"/>
   </g>
   <g id="line2d_63">
    <path d="M 340.747421 534.04 
L 340.747421 302.44 
" clip-path="url(#p800cfb7611)" style="fill: none; stroke-dasharray: 1.5,2.475; stroke-dashoffset: 0; stroke: #808080; stroke-opacity: 0.6; stroke-width: 1.5"/>
   </g>
   <g id="line2d_64">
    <path d="M 579.121206 534.04 
L 579.121206 302.44 
" clip-path="url(#p800cfb7611)" style="fill: none; stroke-dasharray: 1.5,2.475; stroke-dashoffset: 0; stroke: #808080; stroke-opacity: 0.6; stroke-width: 1.5"/>
   </g>
   <g id="patch_9">
    <path d="M 66.62 534.04 
L 66.62 302.44 
" style="fill: none; stroke: #000000; stroke-width: 0.8; stroke-linejoin: miter; stroke-linecap: square"/>
   </g>
   <g id="patch_10">
    <path d="M 853.2 534.04 
L 853.2 302.44 
" style="fill: none; stroke: #000000; stroke-width: 0.8; stroke-linejoin: miter; stroke-linecap: square"/>
   </g>
   <g id="patch_11">
    <path d="M 66.62 534.04 
L 853.2 534.04 
" style="fill: none; stroke: #000000; stroke-width: 0.8; stroke-linejoin: miter; stroke-linecap: square"/>
   </g>
   <g id="patch_12">
    <path d="M 66.62 302.44 
L 853.2 302.44 
" style="fill: none; stroke: #000000; stroke-width: 0.8; stroke-linejoin: miter; stroke-linecap: square"/>
   </g>
   <g id="text_35">
    <!-- [12] dKg_xx  —  State Estimate -->
    <g transform="translate(366.113125 296.44) scale(0.12 -0.12)">
     <use xlink:href="#DejaVuSans-5b"/>
     <use xlink:href="#DejaVuSans-31" transform="translate(39.013672 0)"/>
     <use xlink:href="#DejaVuSans-32" transform="translate(102.636719 0)"/>
     <use xlink:href="#DejaVuSans-5d" transform="translate(166.259766 0)"/>
     <use xlink:href="#DejaVuSans-20" transform="translate(205.273438 0)"/>
     <use xlink:href="#DejaVuSans-64" transform="translate(237.060547 0)"/>
     <use xlink:href="#DejaVuSans-4b" transform="translate(300.537109 0)"/>
     <use xlink:href="#DejaVuSans-67" transform="translate(366.113281 0)"/>
     <use xlink:href="#DejaVuSans-5f" transform="translate(429.589844 0)"/>
     <use xlink:href="#DejaVuSans-78" transform="translate(479.589844 0)"/>
     <use xlink:href="#DejaVuSans-78" transform="translate(538.769531 0)"/>
     <use xlink:href="#DejaVuSans-20" transform="translate(597.949219 0)"/>
     <use xlink:href="#DejaVuSans-20" transform="translate(629.736328 0)"/>
     <use xlink:href="#DejaVuSans-2014" transform="translate(661.523438 0)"/>
     <use xlink:href="#DejaVuSans-20" transform="translate(761.523438 0)"/>
     <use xlink:href="#DejaVuSans-20" transform="translate(793.310547 0)"/>
     <use xlink:href="#DejaVuSans-53" transform="translate(825.097656 0)"/>
     <use xlink:href="#DejaVuSans-74" transform="translate(888.574219 0)"/>
     <use xlink:href="#DejaVuSans-61" transform="translate(927.783203 0)"/>
     <use xlink:href="#DejaVuSans-74" transform="translate(989.0625 0)"/>
     <use xlink:href="#DejaVuSans-65" transform="translate(1028.271484 0)"/>
     <use xlink:href="#DejaVuSans-20" transform="translate(1089.794922 0)"/>
     <use xlink:href="#DejaVuSans-45" transform="translate(1121.582031 0)"/>
     <use xlink:href="#DejaVuSans-73" transform="translate(1184.765625 0)"/>
     <use xlink:href="#DejaVuSans-74" transform="translate(1236.865234 0)"/>
     <use xlink:href="#DejaVuSans-69" transform="translate(1276.074219 0)"/>
     <use xlink:href="#DejaVuSans-6d" transform="translate(1303.857422 0)"/>
     <use xlink:href="#DejaVuSans-61" transform="translate(1401.269531 0)"/>
     <use xlink:href="#DejaVuSans-74" transform="translate(1462.548828 0)"/>
     <use xlink:href="#DejaVuSans-65" transform="translate(1501.757812 0)"/>
    </g>
   </g>
   <g id="legend_2">
    <g id="patch_13">
     <path d="M 738.401563 339.79625 
L 846.2 339.79625 
Q 848.2 339.79625 848.2 337.79625 
L 848.2 309.44 
Q 848.2 307.44 846.2 307.44 
L 738.401563 307.44 
Q 736.401563 307.44 736.401563 309.44 
L 736.401563 337.79625 
Q 736.401563 339.79625 738.401563 339.79625 
z
" style="fill: #ffffff; opacity: 0.8; stroke: #cccccc; stroke-linejoin: miter"/>
    </g>
    <g id="line2d_65">
     <path d="M 740.401563 315.538437 
L 750.401563 315.538437 
L 760.401563 315.538437 
" style="fill: none; stroke: #0000ff; stroke-width: 1.5; stroke-linecap: square"/>
    </g>
    <g id="text_36">
     <!-- No Noise -->
     <g transform="translate(768.401563 319.038437) scale(0.1 -0.1)">
      <use xlink:href="#DejaVuSans-4e"/>
      <use xlink:href="#DejaVuSans-6f" transform="translate(74.804688 0)"/>
      <use xlink:href="#DejaVuSans-20" transform="translate(135.986328 0)"/>
      <use xlink:href="#DejaVuSans-4e" transform="translate(167.773438 0)"/>
      <use xlink:href="#DejaVuSans-6f" transform="translate(242.578125 0)"/>
      <use xlink:href="#DejaVuSans-69" transform="translate(303.759766 0)"/>
      <use xlink:href="#DejaVuSans-73" transform="translate(331.542969 0)"/>
      <use xlink:href="#DejaVuSans-65" transform="translate(383.642578 0)"/>
     </g>
    </g>
    <g id="line2d_66">
     <path d="M 740.401563 330.216562 
L 750.401563 330.216562 
L 760.401563 330.216562 
" style="fill: none; stroke-dasharray: 5.55,2.4; stroke-dashoffset: 0; stroke: #ff0000; stroke-width: 1.5"/>
    </g>
    <g id="text_37">
     <!-- With ARW/VRW -->
     <g transform="translate(768.401563 333.716562) scale(0.1 -0.1)">
      <use xlink:href="#DejaVuSans-57"/>
      <use xlink:href="#DejaVuSans-69" transform="translate(96.626953 0)"/>
      <use xlink:href="#DejaVuSans-74" transform="translate(124.410156 0)"/>
      <use xlink:href="#DejaVuSans-68" transform="translate(163.619141 0)"/>
      <use xlink:href="#DejaVuSans-20" transform="translate(226.998047 0)"/>
      <use xlink:href="#DejaVuSans-41" transform="translate(258.785156 0)"/>
      <use xlink:href="#DejaVuSans-52" transform="translate(327.193359 0)"/>
      <use xlink:href="#DejaVuSans-57" transform="translate(392.675781 0)"/>
      <use xlink:href="#DejaVuSans-2f" transform="translate(491.552734 0)"/>
      <use xlink:href="#DejaVuSans-56" transform="translate(525.244141 0)"/>
      <use xlink:href="#DejaVuSans-52" transform="translate(593.652344 0)"/>
      <use xlink:href="#DejaVuSans-57" transform="translate(659.134766 0)"/>
     </g>
    </g>
   </g>
  </g>
 </g>
 <defs>
  <clipPath id="p9d5407bb9d">
   <rect x="66.62" y="26.88" width="786.58" height="231.6"/>
  </clipPath>
  <clipPath id="p800cfb7611">
   <rect x="66.62" y="302.44" width="786.58" height="231.6"/>
  </clipPath>
 </defs>
</svg>
