<?xml version="1.0" encoding="utf-8" standalone="no"?>
<!DOCTYPE svg PUBLIC "-//W3C//DTD SVG 1.1//EN"
  "http://www.w3.org/Graphics/SVG/1.1/DTD/svg11.dtd">
<svg xmlns:xlink="http://www.w3.org/1999/xlink" width="864pt" height="576pt" viewBox="0 0 864 576" xmlns="http://www.w3.org/2000/svg" version="1.1">
 <metadata>
  <rdf:RDF xmlns:dc="http://purl.org/dc/elements/1.1/" xmlns:cc="http://creativecommons.org/ns#" xmlns:rdf="http://www.w3.org/1999/02/22-rdf-syntax-ns#">
   <cc:Work>
    <dc:type rdf:resource="http://purl.org/dc/dcmitype/StillImage"/>
    <dc:date>2026-03-09T19:21:57.031031</dc:date>
    <dc:format>image/svg+xml</dc:format>
    <dc:creator>
     <cc:Agent>
      <dc:title>Matplotlib v3.10.8, https://matplotlib.org/</dc:title>
     </cc:Agent>
    </dc:creator>
   </cc:Work>
  </rdf:RDF>
 </metadata>
 <defs>
  <style type="text/css">*{stroke-linejoin: round; stroke-linecap: butt}</style>
 </defs>
 <g id="figure_1">
  <g id="patch_1">
   <path d="M 0 576 
L 864 576 
L 864 0 
L 0 0 
z
" style="fill: #ffffff"/>
  </g>
  <g id="axes_1">
   <g id="patch_2">
    <path d="M 81.29 258.48 
L 853.2 258.48 
L 853.2 26.88 
L 81.29 26.88 
z
" style="fill: #ffffff"/>
   </g>
   <g id="matplotlib.axis_1">
    <g id="xtick_1">
     <g id="line2d_1">
      <path d="M 116.376818 258.48 
L 116.376818 26.88 
" clip-path="url(#pf59ebf438a)" style="fill: none; stroke: #b0b0b0; stroke-width: 0.8; stroke-linecap: square"/>
     </g>
     <g id="line2d_2">
      <defs>
       <path id="m72654010c1" d="M 0 0 
L 0 3.5 
" style="stroke: #000000; stroke-width: 0.8"/>
      </defs>
      <g>
       <use xlink:href="#m72654010c1" x="116.376818" y="258.48" style="stroke: #000000; stroke-width: 0.8"/>
      </g>
     </g>
     <g id="text_1">
      <!-- 0 -->
      <g transform="translate(113.195568 273.078438) scale(0.1 -0.1)">
       <defs>
        <path id="DejaVuSans-30" d="M 2034 4250 
Q 1547 4250 1301 3770 
Q 1056 3291 1056 2328 
Q 1056 1369 1301 889 
Q 1547 409 2034 409 
Q 2525 409 2770 889 
Q 3016 1369 3016 2328 
Q 3016 3291 2770 3770 
Q 2525 4250 2034 4250 
z
M 2034 4750 
Q 2819 4750 3233 4129 
Q 3647 3509 3647 2328 
Q 3647 1150 3233 529 
Q 2819 -91 2034 -91 
Q 1250 -91 836 529 
Q 422 1150 422 2328 
Q 422 3509 836 4129 
Q 1250 4750 2034 4750 
z
" transform="scale(0.015625)"/>
       </defs>
       <use xlink:href="#DejaVuSans-30"/>
      </g>
     </g>
    </g>
    <g id="xtick_2">
     <g id="line2d_3">
      <path d="M 235.679158 258.48 
L 235.679158 26.88 
" clip-path="url(#pf59ebf438a)" style="fill: none; stroke: #b0b0b0; stroke-width: 0.8; stroke-linecap: square"/>
     </g>
     <g id="line2d_4">
      <g>
       <use xlink:href="#m72654010c1" x="235.679158" y="258.48" style="stroke: #000000; stroke-width: 0.8"/>
      </g>
     </g>
     <g id="text_2">
      <!-- 50 -->
      <g transform="translate(229.316658 273.078438) scale(0.1 -0.1)">
       <defs>
        <path id="DejaVuSans-35" d="M 691 4666 
L 3169 4666 
L 3169 4134 
L 1269 4134 
L 1269 2991 
Q 1406 3038 1543 3061 
Q 1681 3084 1819 3084 
Q 2600 3084 3056 2656 
Q 3513 2228 3513 1497 
Q 3513 744 3044 326 
Q 2575 -91 1722 -91 
Q 1428 -91 1123 -41 
Q 819 9 494 109 
L 494 744 
Q 775 591 1075 516 
Q 1375 441 1709 441 
Q 2250 441 2565 725 
Q 2881 1009 2881 1497 
Q 2881 1984 2565 2268 
Q 2250 2553 1709 2553 
Q 1456 2553 1204 2497 
Q 953 2441 691 2322 
L 691 4666 
z
" transform="scale(0.015625)"/>
       </defs>
       <use xlink:href="#DejaVuSans-35"/>
       <use xlink:href="#DejaVuSans-30" transform="translate(63.623047 0)"/>
      </g>
     </g>
    </g>
    <g id="xtick_3">
     <g id="line2d_5">
      <path d="M 354.981498 258.48 
L 354.981498 26.88 
" clip-path="url(#pf59ebf438a)" style="fill: none; stroke: #b0b0b0; stroke-width: 0.8; stroke-linecap: square"/>
     </g>
     <g id="line2d_6">
      <g>
       <use xlink:href="#m72654010c1" x="354.981498" y="258.48" style="stroke: #000000; stroke-width: 0.8"/>
      </g>
     </g>
     <g id="text_3">
      <!-- 100 -->
      <g transform="translate(345.437748 273.078438) scale(0.1 -0.1)">
       <defs>
        <path id="DejaVuSans-31" d="M 794 531 
L 1825 531 
L 1825 4091 
L 703 3866 
L 703 4441 
L 1819 4666 
L 2450 4666 
L 2450 531 
L 3481 531 
L 3481 0 
L 794 0 
L 794 531 
z
" transform="scale(0.015625)"/>
       </defs>
       <use xlink:href="#DejaVuSans-31"/>
       <use xlink:href="#DejaVuSans-30" transform="translate(63.623047 0)"/>
       <use xlink:href="#DejaVuSans-30" transform="translate(127.246094 0)"/>
      </g>
     </g>
    </g>
    <g id="xtick_4">
     <g id="line2d_7">
      <path d="M 474.283838 258.48 
L 474.283838 26.88 
" clip-path="url(#pf59ebf438a)" style="fill: none; stroke: #b0b0b0; stroke-width: 0.8; stroke-linecap: square"/>
     </g>
     <g id="line2d_8">
      <g>
       <use xlink:href="#m72654010c1" x="474.283838" y="258.48" style="stroke: #000000; stroke-width: 0.8"/>
      </g>
     </g>
     <g id="text_4">
      <!-- 150 -->
      <g transform="translate(464.740088 273.078438) scale(0.1 -0.1)">
       <use xlink:href="#DejaVuSans-31"/>
       <use xlink:href="#DejaVuSans-35" transform="translate(63.623047 0)"/>
       <use xlink:href="#DejaVuSans-30" transform="translate(127.246094 0)"/>
      </g>
     </g>
    </g>
    <g id="xtick_5">
     <g id="line2d_9">
      <path d="M 593.586178 258.48 
L 593.586178 26.88 
" clip-path="url(#pf59ebf438a)" style="fill: none; stroke: #b0b0b0; stroke-width: 0.8; stroke-linecap: square"/>
     </g>
     <g id="line2d_10">
      <g>
       <use xlink:href="#m72654010c1" x="593.586178" y="258.48" style="stroke: #000000; stroke-width: 0.8"/>
      </g>
     </g>
     <g id="text_5">
      <!-- 200 -->
      <g transform="translate(584.042428 273.078438) scale(0.1 -0.1)">
       <defs>
        <path id="DejaVuSans-32" d="M 1228 531 
L 3431 531 
L 3431 0 
L 469 0 
L 469 531 
Q 828 903 1448 1529 
Q 2069 2156 2228 2338 
Q 2531 2678 2651 2914 
Q 2772 3150 2772 3378 
Q 2772 3750 2511 3984 
Q 2250 4219 1831 4219 
Q 1534 4219 1204 4116 
Q 875 4013 500 3803 
L 500 4441 
Q 881 4594 1212 4672 
Q 1544 4750 1819 4750 
Q 2544 4750 2975 4387 
Q 3406 4025 3406 3419 
Q 3406 3131 3298 2873 
Q 3191 2616 2906 2266 
Q 2828 2175 2409 1742 
Q 1991 1309 1228 531 
z
" transform="scale(0.015625)"/>
       </defs>
       <use xlink:href="#DejaVuSans-32"/>
       <use xlink:href="#DejaVuSans-30" transform="translate(63.623047 0)"/>
       <use xlink:href="#DejaVuSans-30" transform="translate(127.246094 0)"/>
      </g>
     </g>
    </g>
    <g id="xtick_6">
     <g id="line2d_11">
      <path d="M 712.888518 258.48 
L 712.888518 26.88 
" clip-path="url(#pf59ebf438a)" style="fill: none; stroke: #b0b0b0; stroke-width: 0.8; stroke-linecap: square"/>
     </g>
     <g id="line2d_12">
      <g>
       <use xlink:href="#m72654010c1" x="712.888518" y="258.48" style="stroke: #000000; stroke-width: 0.8"/>
      </g>
     </g>
     <g id="text_6">
      <!-- 250 -->
      <g transform="translate(703.344768 273.078438) scale(0.1 -0.1)">
       <use xlink:href="#DejaVuSans-32"/>
       <use xlink:href="#DejaVuSans-35" transform="translate(63.623047 0)"/>
       <use xlink:href="#DejaVuSans-30" transform="translate(127.246094 0)"/>
      </g>
     </g>
    </g>
    <g id="xtick_7">
     <g id="line2d_13">
      <path d="M 832.190858 258.48 
L 832.190858 26.88 
" clip-path="url(#pf59ebf438a)" style="fill: none; stroke: #b0b0b0; stroke-width: 0.8; stroke-linecap: square"/>
     </g>
     <g id="line2d_14">
      <g>
       <use xlink:href="#m72654010c1" x="832.190858" y="258.48" style="stroke: #000000; stroke-width: 0.8"/>
      </g>
     </g>
     <g id="text_7">
      <!-- 300 -->
      <g transform="translate(822.647108 273.078438) scale(0.1 -0.1)">
       <defs>
        <path id="DejaVuSans-33" d="M 2597 2516 
Q 3050 2419 3304 2112 
Q 3559 1806 3559 1356 
Q 3559 666 3084 287 
Q 2609 -91 1734 -91 
Q 1441 -91 1130 -33 
Q 819 25 488 141 
L 488 750 
Q 750 597 1062 519 
Q 1375 441 1716 441 
Q 2309 441 2620 675 
Q 2931 909 2931 1356 
Q 2931 1769 2642 2001 
Q 2353 2234 1838 2234 
L 1294 2234 
L 1294 2753 
L 1863 2753 
Q 2328 2753 2575 2939 
Q 2822 3125 2822 3475 
Q 2822 3834 2567 4026 
Q 2313 4219 1838 4219 
Q 1578 4219 1281 4162 
Q 984 4106 628 3988 
L 628 4550 
Q 988 4650 1302 4700 
Q 1616 4750 1894 4750 
Q 2613 4750 3031 4423 
Q 3450 4097 3450 3541 
Q 3450 3153 3228 2886 
Q 3006 2619 2597 2516 
z
" transform="scale(0.015625)"/>
       </defs>
       <use xlink:href="#DejaVuSans-33"/>
       <use xlink:href="#DejaVuSans-30" transform="translate(63.623047 0)"/>
       <use xlink:href="#DejaVuSans-30" transform="translate(127.246094 0)"/>
      </g>
     </g>
    </g>
   </g>
   <g id="matplotlib.axis_2">
    <g id="ytick_1">
     <g id="line2d_15">
      <path d="M 81.29 249.887995 
L 853.2 249.887995 
" clip-path="url(#pf59ebf438a)" style="fill: none; stroke: #b0b0b0; stroke-width: 0.8; stroke-linecap: square"/>
     </g>
     <g id="line2d_16">
      <defs>
       <path id="m8564351659" d="M 0 0 
L -3.5 0 
" style="stroke: #000000; stroke-width: 0.8"/>
      </defs>
      <g>
       <use xlink:href="#m8564351659" x="81.29" y="249.887995" style="stroke: #000000; stroke-width: 0.8"/>
      </g>
     </g>
     <g id="text_8">
      <!-- 0.0000 -->
      <g transform="translate(39.299375 253.687214) scale(0.1 -0.1)">
       <defs>
        <path id="DejaVuSans-2e" d="M 684 794 
L 1344 794 
L 1344 0 
L 684 0 
L 684 794 
z
" transform="scale(0.015625)"/>
       </defs>
       <use xlink:href="#DejaVuSans-30"/>
       <use xlink:href="#DejaVuSans-2e" transform="translate(63.623047 0)"/>
       <use xlink:href="#DejaVuSans-30" transform="translate(95.410156 0)"/>
       <use xlink:href="#DejaVuSans-30" transform="translate(159.033203 0)"/>
       <use xlink:href="#DejaVuSans-30" transform="translate(222.65625 0)"/>
       <use xlink:href="#DejaVuSans-30" transform="translate(286.279297 0)"/>
      </g>
     </g>
    </g>
    <g id="ytick_2">
     <g id="line2d_17">
      <path d="M 81.29 207.391851 
L 853.2 207.391851 
" clip-path="url(#pf59ebf438a)" style="fill: none; stroke: #b0b0b0; stroke-width: 0.8; stroke-linecap: square"/>
     </g>
     <g id="line2d_18">
      <g>
       <use xlink:href="#m8564351659" x="81.29" y="207.391851" style="stroke: #000000; stroke-width: 0.8"/>
      </g>
     </g>
     <g id="text_9">
      <!-- 0.0002 -->
      <g transform="translate(39.299375 211.191069) scale(0.1 -0.1)">
       <use xlink:href="#DejaVuSans-30"/>
       <use xlink:href="#DejaVuSans-2e" transform="translate(63.623047 0)"/>
       <use xlink:href="#DejaVuSans-30" transform="translate(95.410156 0)"/>
       <use xlink:href="#DejaVuSans-30" transform="translate(159.033203 0)"/>
       <use xlink:href="#DejaVuSans-30" transform="translate(222.65625 0)"/>
       <use xlink:href="#DejaVuSans-32" transform="translate(286.279297 0)"/>
      </g>
     </g>
    </g>
    <g id="ytick_3">
     <g id="line2d_19">
      <path d="M 81.29 164.895706 
L 853.2 164.895706 
" clip-path="url(#pf59ebf438a)" style="fill: none; stroke: #b0b0b0; stroke-width: 0.8; stroke-linecap: square"/>
     </g>
     <g id="line2d_20">
      <g>
       <use xlink:href="#m8564351659" x="81.29" y="164.895706" style="stroke: #000000; stroke-width: 0.8"/>
      </g>
     </g>
     <g id="text_10">
      <!-- 0.0004 -->
      <g transform="translate(39.299375 168.694925) scale(0.1 -0.1)">
       <defs>
        <path id="DejaVuSans-34" d="M 2419 4116 
L 825 1625 
L 2419 1625 
L 2419 4116 
z
M 2253 4666 
L 3047 4666 
L 3047 1625 
L 3713 1625 
L 3713 1100 
L 3047 1100 
L 3047 0 
L 2419 0 
L 2419 1100 
L 313 1100 
L 313 1709 
L 2253 4666 
z
" transform="scale(0.015625)"/>
       </defs>
       <use xlink:href="#DejaVuSans-30"/>
       <use xlink:href="#DejaVuSans-2e" transform="translate(63.623047 0)"/>
       <use xlink:href="#DejaVuSans-30" transform="translate(95.410156 0)"/>
       <use xlink:href="#DejaVuSans-30" transform="translate(159.033203 0)"/>
       <use xlink:href="#DejaVuSans-30" transform="translate(222.65625 0)"/>
       <use xlink:href="#DejaVuSans-34" transform="translate(286.279297 0)"/>
      </g>
     </g>
    </g>
    <g id="ytick_4">
     <g id="line2d_21">
      <path d="M 81.29 122.399562 
L 853.2 122.399562 
" clip-path="url(#pf59ebf438a)" style="fill: none; stroke: #b0b0b0; stroke-width: 0.8; stroke-linecap: square"/>
     </g>
     <g id="line2d_22">
      <g>
       <use xlink:href="#m8564351659" x="81.29" y="122.399562" style="stroke: #000000; stroke-width: 0.8"/>
      </g>
     </g>
     <g id="text_11">
      <!-- 0.0006 -->
      <g transform="translate(39.299375 126.19878) scale(0.1 -0.1)">
       <defs>
        <path id="DejaVuSans-36" d="M 2113 2584 
Q 1688 2584 1439 2293 
Q 1191 2003 1191 1497 
Q 1191 994 1439 701 
Q 1688 409 2113 409 
Q 2538 409 2786 701 
Q 3034 994 3034 1497 
Q 3034 2003 2786 2293 
Q 2538 2584 2113 2584 
z
M 3366 4563 
L 3366 3988 
Q 3128 4100 2886 4159 
Q 2644 4219 2406 4219 
Q 1781 4219 1451 3797 
Q 1122 3375 1075 2522 
Q 1259 2794 1537 2939 
Q 1816 3084 2150 3084 
Q 2853 3084 3261 2657 
Q 3669 2231 3669 1497 
Q 3669 778 3244 343 
Q 2819 -91 2113 -91 
Q 1303 -91 875 529 
Q 447 1150 447 2328 
Q 447 3434 972 4092 
Q 1497 4750 2381 4750 
Q 2619 4750 2861 4703 
Q 3103 4656 3366 4563 
z
" transform="scale(0.015625)"/>
       </defs>
       <use xlink:href="#DejaVuSans-30"/>
       <use xlink:href="#DejaVuSans-2e" transform="translate(63.623047 0)"/>
       <use xlink:href="#DejaVuSans-30" transform="translate(95.410156 0)"/>
       <use xlink:href="#DejaVuSans-30" transform="translate(159.033203 0)"/>
       <use xlink:href="#DejaVuSans-30" transform="translate(222.65625 0)"/>
       <use xlink:href="#DejaVuSans-36" transform="translate(286.279297 0)"/>
      </g>
     </g>
    </g>
    <g id="ytick_5">
     <g id="line2d_23">
      <path d="M 81.29 79.903417 
L 853.2 79.903417 
" clip-path="url(#pf59ebf438a)" style="fill: none; stroke: #b0b0b0; stroke-width: 0.8; stroke-linecap: square"/>
     </g>
     <g id="line2d_24">
      <g>
       <use xlink:href="#m8564351659" x="81.29" y="79.903417" style="stroke: #000000; stroke-width: 0.8"/>
      </g>
     </g>
     <g id="text_12">
      <!-- 0.0008 -->
      <g transform="translate(39.299375 83.702636) scale(0.1 -0.1)">
       <defs>
        <path id="DejaVuSans-38" d="M 2034 2216 
Q 1584 2216 1326 1975 
Q 1069 1734 1069 1313 
Q 1069 891 1326 650 
Q 1584 409 2034 409 
Q 2484 409 2743 651 
Q 3003 894 3003 1313 
Q 3003 1734 2745 1975 
Q 2488 2216 2034 2216 
z
M 1403 2484 
Q 997 2584 770 2862 
Q 544 3141 544 3541 
Q 544 4100 942 4425 
Q 1341 4750 2034 4750 
Q 2731 4750 3128 4425 
Q 3525 4100 3525 3541 
Q 3525 3141 3298 2862 
Q 3072 2584 2669 2484 
Q 3125 2378 3379 2068 
Q 3634 1759 3634 1313 
Q 3634 634 3220 271 
Q 2806 -91 2034 -91 
Q 1263 -91 848 271 
Q 434 634 434 1313 
Q 434 1759 690 2068 
Q 947 2378 1403 2484 
z
M 1172 3481 
Q 1172 3119 1398 2916 
Q 1625 2713 2034 2713 
Q 2441 2713 2670 2916 
Q 2900 3119 2900 3481 
Q 2900 3844 2670 4047 
Q 2441 4250 2034 4250 
Q 1625 4250 1398 4047 
Q 1172 3844 1172 3481 
z
" transform="scale(0.015625)"/>
       </defs>
       <use xlink:href="#DejaVuSans-30"/>
       <use xlink:href="#DejaVuSans-2e" transform="translate(63.623047 0)"/>
       <use xlink:href="#DejaVuSans-30" transform="translate(95.410156 0)"/>
       <use xlink:href="#DejaVuSans-30" transform="translate(159.033203 0)"/>
       <use xlink:href="#DejaVuSans-30" transform="translate(222.65625 0)"/>
       <use xlink:href="#DejaVuSans-38" transform="translate(286.279297 0)"/>
      </g>
     </g>
    </g>
    <g id="ytick_6">
     <g id="line2d_25">
      <path d="M 81.29 37.407273 
L 853.2 37.407273 
" clip-path="url(#pf59ebf438a)" style="fill: none; stroke: #b0b0b0; stroke-width: 0.8; stroke-linecap: square"/>
     </g>
     <g id="line2d_26">
      <g>
       <use xlink:href="#m8564351659" x="81.29" y="37.407273" style="stroke: #000000; stroke-width: 0.8"/>
      </g>
     </g>
     <g id="text_13">
      <!-- 0.0010 -->
      <g transform="translate(39.299375 41.206491) scale(0.1 -0.1)">
       <use xlink:href="#DejaVuSans-30"/>
       <use xlink:href="#DejaVuSans-2e" transform="translate(63.623047 0)"/>
       <use xlink:href="#DejaVuSans-30" transform="translate(95.410156 0)"/>
       <use xlink:href="#DejaVuSans-30" transform="translate(159.033203 0)"/>
       <use xlink:href="#DejaVuSans-31" transform="translate(222.65625 0)"/>
       <use xlink:href="#DejaVuSans-30" transform="translate(286.279297 0)"/>
      </g>
     </g>
    </g>
    <g id="text_14">
     <!-- Std Dev -->
     <g transform="translate(33.219687 162.463594) rotate(-90) scale(0.1 -0.1)">
      <defs>
       <path id="DejaVuSans-53" d="M 3425 4513 
L 3425 3897 
Q 3066 4069 2747 4153 
Q 2428 4238 2131 4238 
Q 1616 4238 1336 4038 
Q 1056 3838 1056 3469 
Q 1056 3159 1242 3001 
Q 1428 2844 1947 2747 
L 2328 2669 
Q 3034 2534 3370 2195 
Q 3706 1856 3706 1288 
Q 3706 609 3251 259 
Q 2797 -91 1919 -91 
Q 1588 -91 1214 -16 
Q 841 59 441 206 
L 441 856 
Q 825 641 1194 531 
Q 1563 422 1919 422 
Q 2459 422 2753 634 
Q 3047 847 3047 1241 
Q 3047 1584 2836 1778 
Q 2625 1972 2144 2069 
L 1759 2144 
Q 1053 2284 737 2584 
Q 422 2884 422 3419 
Q 422 4038 858 4394 
Q 1294 4750 2059 4750 
Q 2388 4750 2728 4690 
Q 3069 4631 3425 4513 
z
" transform="scale(0.015625)"/>
       <path id="DejaVuSans-74" d="M 1172 4494 
L 1172 3500 
L 2356 3500 
L 2356 3053 
L 1172 3053 
L 1172 1153 
Q 1172 725 1289 603 
Q 1406 481 1766 481 
L 2356 481 
L 2356 0 
L 1766 0 
Q 1100 0 847 248 
Q 594 497 594 1153 
L 594 3053 
L 172 3053 
L 172 3500 
L 594 3500 
L 594 4494 
L 1172 4494 
z
" transform="scale(0.015625)"/>
       <path id="DejaVuSans-64" d="M 2906 2969 
L 2906 4863 
L 3481 4863 
L 3481 0 
L 2906 0 
L 2906 525 
Q 2725 213 2448 61 
Q 2172 -91 1784 -91 
Q 1150 -91 751 415 
Q 353 922 353 1747 
Q 353 2572 751 3078 
Q 1150 3584 1784 3584 
Q 2172 3584 2448 3432 
Q 2725 3281 2906 2969 
z
M 947 1747 
Q 947 1113 1208 752 
Q 1469 391 1925 391 
Q 2381 391 2643 752 
Q 2906 1113 2906 1747 
Q 2906 2381 2643 2742 
Q 2381 3103 1925 3103 
Q 1469 3103 1208 2742 
Q 947 2381 947 1747 
z
" transform="scale(0.015625)"/>
       <path id="DejaVuSans-20" transform="scale(0.015625)"/>
       <path id="DejaVuSans-44" d="M 1259 4147 
L 1259 519 
L 2022 519 
Q 2988 519 3436 956 
Q 3884 1394 3884 2338 
Q 3884 3275 3436 3711 
Q 2988 4147 2022 4147 
L 1259 4147 
z
M 628 4666 
L 1925 4666 
Q 3281 4666 3915 4102 
Q 4550 3538 4550 2338 
Q 4550 1131 3912 565 
Q 3275 0 1925 0 
L 628 0 
L 628 4666 
z
" transform="scale(0.015625)"/>
       <path id="DejaVuSans-65" d="M 3597 1894 
L 3597 1613 
L 953 1613 
Q 991 1019 1311 708 
Q 1631 397 2203 397 
Q 2534 397 2845 478 
Q 3156 559 3463 722 
L 3463 178 
Q 3153 47 2828 -22 
Q 2503 -91 2169 -91 
Q 1331 -91 842 396 
Q 353 884 353 1716 
Q 353 2575 817 3079 
Q 1281 3584 2069 3584 
Q 2775 3584 3186 3129 
Q 3597 2675 3597 1894 
z
M 3022 2063 
Q 3016 2534 2758 2815 
Q 2500 3097 2075 3097 
Q 1594 3097 1305 2825 
Q 1016 2553 972 2059 
L 3022 2063 
z
" transform="scale(0.015625)"/>
       <path id="DejaVuSans-76" d="M 191 3500 
L 800 3500 
L 1894 563 
L 2988 3500 
L 3597 3500 
L 2284 0 
L 1503 0 
L 191 3500 
z
" transform="scale(0.015625)"/>
      </defs>
      <use xlink:href="#DejaVuSans-53"/>
      <use xlink:href="#DejaVuSans-74" transform="translate(63.476562 0)"/>
      <use xlink:href="#DejaVuSans-64" transform="translate(102.685547 0)"/>
      <use xlink:href="#DejaVuSans-20" transform="translate(166.162109 0)"/>
      <use xlink:href="#DejaVuSans-44" transform="translate(197.949219 0)"/>
      <use xlink:href="#DejaVuSans-65" transform="translate(274.951172 0)"/>
      <use xlink:href="#DejaVuSans-76" transform="translate(336.474609 0)"/>
     </g>
    </g>
   </g>
   <g id="line2d_27">
    <path d="M 116.376818 228.639923 
L 228.950506 228.643366 
L 229.093669 229.828636 
L 229.332274 230.432014 
L 229.66632 230.588713 
L 230.811623 230.740726 
L 235.488274 231.066177 
L 239.783159 231.196073 
L 240.642135 231.196073 
L 240.785298 242.459719 
L 241.35795 243.154173 
L 241.930601 243.387421 
L 243.028182 243.545119 
L 245.605113 243.635937 
L 252.333765 243.655253 
L 252.476928 244.273536 
L 254.338044 244.403142 
L 261.496185 244.507326 
L 264.263999 244.617087 
L 271.517581 244.716547 
L 275.717023 244.725785 
L 275.860186 244.867308 
L 280.63228 244.953938 
L 287.408653 244.973216 
L 287.551816 245.183635 
L 293.469212 245.269749 
L 299.100282 245.280524 
L 299.243445 245.448346 
L 302.58391 245.518475 
L 310.791911 245.543982 
L 310.935074 247.113284 
L 311.841772 247.509233 
L 313.082516 247.667604 
L 316.088935 247.77123 
L 328.06689 247.850556 
L 350.257125 247.94902 
L 350.400288 228.639923 
L 462.878534 228.643375 
L 463.021697 229.829773 
L 463.260302 230.433886 
L 463.594348 230.590712 
L 464.739651 230.742856 
L 469.416303 231.068719 
L 473.711187 231.198803 
L 474.570164 231.198803 
L 474.713326 242.471979 
L 475.285978 243.162433 
L 475.858629 243.394296 
L 476.95621 243.551179 
L 479.533141 243.641812 
L 486.261793 243.661343 
L 486.404956 244.275442 
L 488.266072 244.403616 
L 495.471934 244.506789 
L 498.239748 244.617448 
L 504.872958 244.711325 
L 509.645052 244.724271 
L 509.788214 244.865253 
L 514.512587 244.952952 
L 521.336681 244.972872 
L 521.479844 245.183986 
L 527.39724 245.270255 
L 533.02831 245.281043 
L 533.171473 245.448208 
L 536.511939 245.518186 
L 544.71994 245.54366 
L 544.863102 247.1152 
L 545.7698 247.511806 
L 547.010544 247.670343 
L 550.016963 247.77387 
L 562.09036 247.853431 
L 584.185154 247.952727 
L 584.328316 37.407273 
L 641.307114 37.516313 
L 644.17037 37.810418 
L 648.847022 38.363605 
L 650.040045 38.363605 
L 650.183208 38.823596 
L 651.853441 38.966324 
L 655.957441 39.014685 
L 673.423304 39.138253 
L 673.661909 39.174492 
L 685.162654 39.448629 
L 685.305817 39.836089 
L 686.021631 39.856079 
L 696.806563 39.935878 
L 697.045167 80.304924 
L 697.999586 119.451401 
L 698.619958 133.795628 
L 699.335772 145.142886 
L 700.099307 153.793744 
L 700.958284 160.988904 
L 701.864982 166.749577 
L 702.867121 171.686217 
L 703.916982 175.767025 
L 705.062284 179.334827 
L 705.921261 181.450936 
L 708.498192 181.450936 
L 708.641355 240.272026 
L 709.070843 241.090873 
L 709.500332 241.35848 
L 710.263866 241.523876 
L 712.077262 241.632115 
L 717.994658 241.680957 
L 720.189821 241.680957 
L 720.332984 242.281891 
L 730.211218 242.687676 
L 731.88145 242.687676 
L 732.024613 242.904527 
L 755.264709 243.305471 
L 755.407872 243.753652 
L 760.752617 243.842016 
L 766.956338 243.859809 
L 767.099501 244.174559 
L 769.628711 244.285443 
L 778.647968 244.361431 
L 778.791131 246.968356 
L 779.602386 247.419589 
L 780.604526 247.59478 
L 782.895131 247.716802 
L 789.289736 247.776884 
L 814.486391 247.887578 
L 818.113182 247.932292 
L 818.113182 247.932292 
" clip-path="url(#pf59ebf438a)" style="fill: none; stroke: #0000ff; stroke-width: 1.5; stroke-linecap: square"/>
   </g>
   <g id="line2d_28">
    <path d="M 116.376818 228.639923 
L 228.950506 228.643383 
L 229.093669 229.828963 
L 229.332274 230.43246 
L 229.66632 230.589189 
L 230.811623 230.741214 
L 235.488274 231.066954 
L 239.783159 231.197063 
L 240.642135 231.197063 
L 240.785298 242.46096 
L 241.35795 243.155615 
L 241.930601 243.388945 
L 243.028182 243.5469 
L 245.605113 243.637885 
L 252.333765 243.657246 
L 252.476928 244.275033 
L 254.338044 244.404727 
L 261.496185 244.508705 
L 264.31172 244.619417 
L 270.897209 244.713307 
L 275.717023 244.726617 
L 275.860186 244.867902 
L 280.63228 244.954378 
L 287.408653 244.97363 
L 287.551816 245.183888 
L 293.516933 245.270112 
L 299.100282 245.280638 
L 299.243445 245.448443 
L 302.58391 245.518535 
L 310.791911 245.544039 
L 310.935074 247.113225 
L 311.841772 247.509152 
L 313.082516 247.667512 
L 316.088935 247.771137 
L 328.06689 247.850466 
L 350.257125 247.948921 
L 350.400288 228.639923 
L 462.878534 228.643389 
L 463.021697 229.830075 
L 463.260302 230.434284 
L 463.594348 230.591142 
L 464.739651 230.743289 
L 469.416303 231.069405 
L 473.711187 231.199689 
L 474.570164 231.199689 
L 474.713326 242.472169 
L 475.285978 243.162725 
L 475.858629 243.394635 
L 476.95621 243.551726 
L 479.533141 243.642452 
L 486.261793 243.661974 
L 486.404956 244.275683 
L 488.266072 244.404046 
L 495.424213 244.507086 
L 498.239748 244.617498 
L 504.872958 244.7115 
L 509.645052 244.72451 
L 509.788214 244.865418 
L 514.512587 244.953069 
L 521.336681 244.972988 
L 521.479844 245.183979 
L 527.39724 245.270166 
L 533.02831 245.280946 
L 533.171473 245.448125 
L 536.511939 245.518074 
L 544.71994 245.543544 
L 544.863102 247.115128 
L 545.7698 247.511756 
L 547.010544 247.670298 
L 550.016963 247.77383 
L 562.09036 247.853396 
L 584.185154 247.952695 
L 584.328316 37.407273 
L 641.307114 37.517116 
L 644.17037 37.812384 
L 648.894743 38.36927 
L 650.040045 38.36927 
L 650.183208 38.831402 
L 651.901162 38.976674 
L 656.100604 39.023725 
L 670.703211 39.144999 
L 685.114933 39.267487 
L 685.353538 39.853254 
L 686.785166 39.866317 
L 696.806563 39.945402 
L 697.045167 80.457309 
L 697.999586 119.520617 
L 698.619958 133.850964 
L 699.335772 145.184994 
L 700.099307 153.828456 
L 700.958284 161.018971 
L 701.864982 166.775092 
L 702.867121 171.712232 
L 703.916982 175.794548 
L 705.062284 179.362731 
L 705.921261 181.479058 
L 708.498192 181.479058 
L 708.641355 240.271488 
L 709.070843 241.090695 
L 709.500332 241.358417 
L 710.263866 241.523859 
L 712.077262 241.632146 
L 717.994658 241.681016 
L 720.189821 241.681016 
L 720.332984 242.281747 
L 730.211218 242.687566 
L 731.88145 242.687566 
L 732.024613 242.904408 
L 755.264709 243.305484 
L 755.407872 243.753565 
L 760.752617 243.841894 
L 766.956338 243.859678 
L 767.099501 244.174439 
L 769.628711 244.285274 
L 778.647968 244.361241 
L 778.791131 246.968266 
L 779.602386 247.419528 
L 780.604526 247.594725 
L 782.895131 247.716752 
L 789.289736 247.776839 
L 814.486391 247.887545 
L 818.113182 247.932261 
L 818.113182 247.932261 
" clip-path="url(#pf59ebf438a)" style="fill: none; stroke-dasharray: 5.55,2.4; stroke-dashoffset: 0; stroke: #ff0000; stroke-width: 1.5"/>
   </g>
   <g id="line2d_29">
    <path d="M 350.304846 258.48 
L 350.304846 26.88 
" clip-path="url(#pf59ebf438a)" style="fill: none; stroke-dasharray: 1.5,2.475; stroke-dashoffset: 0; stroke: #808080; stroke-opacity: 0.6; stroke-width: 1.5"/>
   </g>
   <g id="line2d_30">
    <path d="M 584.232875 258.48 
L 584.232875 26.88 
" clip-path="url(#pf59ebf438a)" style="fill: none; stroke-dasharray: 1.5,2.475; stroke-dashoffset: 0; stroke: #808080; stroke-opacity: 0.6; stroke-width: 1.5"/>
   </g>
   <g id="patch_3">
    <path d="M 81.29 258.48 
L 81.29 26.88 
" style="fill: none; stroke: #000000; stroke-width: 0.8; stroke-linejoin: miter; stroke-linecap: square"/>
   </g>
   <g id="patch_4">
    <path d="M 853.2 258.48 
L 853.2 26.88 
" style="fill: none; stroke: #000000; stroke-width: 0.8; stroke-linejoin: miter; stroke-linecap: square"/>
   </g>
   <g id="patch_5">
    <path d="M 81.29 258.48 
L 853.2 258.48 
" style="fill: none; stroke: #000000; stroke-width: 0.8; stroke-linejoin: miter; stroke-linecap: square"/>
   </g>
   <g id="patch_6">
    <path d="M 81.29 26.88 
L 853.2 26.88 
" style="fill: none; stroke: #000000; stroke-width: 0.8; stroke-linejoin: miter; stroke-linecap: square"/>
   </g>
   <g id="text_15">
    <!-- [12] Kg_xx  —  Uncertainty (std dev) -->
    <g transform="translate(357.659688 20.88) scale(0.12 -0.12)">
     <defs>
      <path id="DejaVuSans-5b" d="M 550 4863 
L 1875 4863 
L 1875 4416 
L 1125 4416 
L 1125 -397 
L 1875 -397 
L 1875 -844 
L 550 -844 
L 550 4863 
z
" transform="scale(0.015625)"/>
      <path id="DejaVuSans-5d" d="M 1947 4863 
L 1947 -844 
L 622 -844 
L 622 -397 
L 1369 -397 
L 1369 4416 
L 622 4416 
L 622 4863 
L 1947 4863 
z
" transform="scale(0.015625)"/>
      <path id="DejaVuSans-4b" d="M 628 4666 
L 1259 4666 
L 1259 2694 
L 3353 4666 
L 4166 4666 
L 1850 2491 
L 4331 0 
L 3500 0 
L 1259 2247 
L 1259 0 
L 628 0 
L 628 4666 
z
" transform="scale(0.015625)"/>
      <path id="DejaVuSans-67" d="M 2906 1791 
Q 2906 2416 2648 2759 
Q 2391 3103 1925 3103 
Q 1463 3103 1205 2759 
Q 947 2416 947 1791 
Q 947 1169 1205 825 
Q 1463 481 1925 481 
Q 2391 481 2648 825 
Q 2906 1169 2906 1791 
z
M 3481 434 
Q 3481 -459 3084 -895 
Q 2688 -1331 1869 -1331 
Q 1566 -1331 1297 -1286 
Q 1028 -1241 775 -1147 
L 775 -588 
Q 1028 -725 1275 -790 
Q 1522 -856 1778 -856 
Q 2344 -856 2625 -561 
Q 2906 -266 2906 331 
L 2906 616 
Q 2728 306 2450 153 
Q 2172 0 1784 0 
Q 1141 0 747 490 
Q 353 981 353 1791 
Q 353 2603 747 3093 
Q 1141 3584 1784 3584 
Q 2172 3584 2450 3431 
Q 2728 3278 2906 2969 
L 2906 3500 
L 3481 3500 
L 3481 434 
z
" transform="scale(0.015625)"/>
      <path id="DejaVuSans-5f" d="M 3263 -1063 
L 3263 -1509 
L -63 -1509 
L -63 -1063 
L 3263 -1063 
z
" transform="scale(0.015625)"/>
      <path id="DejaVuSans-78" d="M 3513 3500 
L 2247 1797 
L 3578 0 
L 2900 0 
L 1881 1375 
L 863 0 
L 184 0 
L 1544 1831 
L 300 3500 
L 978 3500 
L 1906 2253 
L 2834 3500 
L 3513 3500 
z
" transform="scale(0.015625)"/>
      <path id="DejaVuSans-2014" d="M 313 1978 
L 6088 1978 
L 6088 1528 
L 313 1528 
L 313 1978 
z
" transform="scale(0.015625)"/>
      <path id="DejaVuSans-55" d="M 556 4666 
L 1191 4666 
L 1191 1831 
Q 1191 1081 1462 751 
Q 1734 422 2344 422 
Q 2950 422 3222 751 
Q 3494 1081 3494 1831 
L 3494 4666 
L 4128 4666 
L 4128 1753 
Q 4128 841 3676 375 
Q 3225 -91 2344 -91 
Q 1459 -91 1007 375 
Q 556 841 556 1753 
L 556 4666 
z
" transform="scale(0.015625)"/>
      <path id="DejaVuSans-6e" d="M 3513 2113 
L 3513 0 
L 2938 0 
L 2938 2094 
Q 2938 2591 2744 2837 
Q 2550 3084 2163 3084 
Q 1697 3084 1428 2787 
Q 1159 2491 1159 1978 
L 1159 0 
L 581 0 
L 581 3500 
L 1159 3500 
L 1159 2956 
Q 1366 3272 1645 3428 
Q 1925 3584 2291 3584 
Q 2894 3584 3203 3211 
Q 3513 2838 3513 2113 
z
" transform="scale(0.015625)"/>
      <path id="DejaVuSans-63" d="M 3122 3366 
L 3122 2828 
Q 2878 2963 2633 3030 
Q 2388 3097 2138 3097 
Q 1578 3097 1268 2742 
Q 959 2388 959 1747 
Q 959 1106 1268 751 
Q 1578 397 2138 397 
Q 2388 397 2633 464 
Q 2878 531 3122 666 
L 3122 134 
Q 2881 22 2623 -34 
Q 2366 -91 2075 -91 
Q 1284 -91 818 406 
Q 353 903 353 1747 
Q 353 2603 823 3093 
Q 1294 3584 2113 3584 
Q 2378 3584 2631 3529 
Q 2884 3475 3122 3366 
z
" transform="scale(0.015625)"/>
      <path id="DejaVuSans-72" d="M 2631 2963 
Q 2534 3019 2420 3045 
Q 2306 3072 2169 3072 
Q 1681 3072 1420 2755 
Q 1159 2438 1159 1844 
L 1159 0 
L 581 0 
L 581 3500 
L 1159 3500 
L 1159 2956 
Q 1341 3275 1631 3429 
Q 1922 3584 2338 3584 
Q 2397 3584 2469 3576 
Q 2541 3569 2628 3553 
L 2631 2963 
z
" transform="scale(0.015625)"/>
      <path id="DejaVuSans-61" d="M 2194 1759 
Q 1497 1759 1228 1600 
Q 959 1441 959 1056 
Q 959 750 1161 570 
Q 1363 391 1709 391 
Q 2188 391 2477 730 
Q 2766 1069 2766 1631 
L 2766 1759 
L 2194 1759 
z
M 3341 1997 
L 3341 0 
L 2766 0 
L 2766 531 
Q 2569 213 2275 61 
Q 1981 -91 1556 -91 
Q 1019 -91 701 211 
Q 384 513 384 1019 
Q 384 1609 779 1909 
Q 1175 2209 1959 2209 
L 2766 2209 
L 2766 2266 
Q 2766 2663 2505 2880 
Q 2244 3097 1772 3097 
Q 1472 3097 1187 3025 
Q 903 2953 641 2809 
L 641 3341 
Q 956 3463 1253 3523 
Q 1550 3584 1831 3584 
Q 2591 3584 2966 3190 
Q 3341 2797 3341 1997 
z
" transform="scale(0.015625)"/>
      <path id="DejaVuSans-69" d="M 603 3500 
L 1178 3500 
L 1178 0 
L 603 0 
L 603 3500 
z
M 603 4863 
L 1178 4863 
L 1178 4134 
L 603 4134 
L 603 4863 
z
" transform="scale(0.015625)"/>
      <path id="DejaVuSans-79" d="M 2059 -325 
Q 1816 -950 1584 -1140 
Q 1353 -1331 966 -1331 
L 506 -1331 
L 506 -850 
L 844 -850 
Q 1081 -850 1212 -737 
Q 1344 -625 1503 -206 
L 1606 56 
L 191 3500 
L 800 3500 
L 1894 763 
L 2988 3500 
L 3597 3500 
L 2059 -325 
z
" transform="scale(0.015625)"/>
      <path id="DejaVuSans-28" d="M 1984 4856 
Q 1566 4138 1362 3434 
Q 1159 2731 1159 2009 
Q 1159 1288 1364 580 
Q 1569 -128 1984 -844 
L 1484 -844 
Q 1016 -109 783 600 
Q 550 1309 550 2009 
Q 550 2706 781 3412 
Q 1013 4119 1484 4856 
L 1984 4856 
z
" transform="scale(0.015625)"/>
      <path id="DejaVuSans-73" d="M 2834 3397 
L 2834 2853 
Q 2591 2978 2328 3040 
Q 2066 3103 1784 3103 
Q 1356 3103 1142 2972 
Q 928 2841 928 2578 
Q 928 2378 1081 2264 
Q 1234 2150 1697 2047 
L 1894 2003 
Q 2506 1872 2764 1633 
Q 3022 1394 3022 966 
Q 3022 478 2636 193 
Q 2250 -91 1575 -91 
Q 1294 -91 989 -36 
Q 684 19 347 128 
L 347 722 
Q 666 556 975 473 
Q 1284 391 1588 391 
Q 1994 391 2212 530 
Q 2431 669 2431 922 
Q 2431 1156 2273 1281 
Q 2116 1406 1581 1522 
L 1381 1569 
Q 847 1681 609 1914 
Q 372 2147 372 2553 
Q 372 3047 722 3315 
Q 1072 3584 1716 3584 
Q 2034 3584 2315 3537 
Q 2597 3491 2834 3397 
z
" transform="scale(0.015625)"/>
      <path id="DejaVuSans-29" d="M 513 4856 
L 1013 4856 
Q 1481 4119 1714 3412 
Q 1947 2706 1947 2009 
Q 1947 1309 1714 600 
Q 1481 -109 1013 -844 
L 513 -844 
Q 928 -128 1133 580 
Q 1338 1288 1338 2009 
Q 1338 2731 1133 3434 
Q 928 4138 513 4856 
z
" transform="scale(0.015625)"/>
     </defs>
     <use xlink:href="#DejaVuSans-5b"/>
     <use xlink:href="#DejaVuSans-31" transform="translate(39.013672 0)"/>
     <use xlink:href="#DejaVuSans-32" transform="translate(102.636719 0)"/>
     <use xlink:href="#DejaVuSans-5d" transform="translate(166.259766 0)"/>
     <use xlink:href="#DejaVuSans-20" transform="translate(205.273438 0)"/>
     <use xlink:href="#DejaVuSans-4b" transform="translate(237.060547 0)"/>
     <use xlink:href="#DejaVuSans-67" transform="translate(302.636719 0)"/>
     <use xlink:href="#DejaVuSans-5f" transform="translate(366.113281 0)"/>
     <use xlink:href="#DejaVuSans-78" transform="translate(416.113281 0)"/>
     <use xlink:href="#DejaVuSans-78" transform="translate(475.292969 0)"/>
     <use xlink:href="#DejaVuSans-20" transform="translate(534.472656 0)"/>
     <use xlink:href="#DejaVuSans-20" transform="translate(566.259766 0)"/>
     <use xlink:href="#DejaVuSans-2014" transform="translate(598.046875 0)"/>
     <use xlink:href="#DejaVuSans-20" transform="translate(698.046875 0)"/>
     <use xlink:href="#DejaVuSans-20" transform="translate(729.833984 0)"/>
     <use xlink:href="#DejaVuSans-55" transform="translate(761.621094 0)"/>
     <use xlink:href="#DejaVuSans-6e" transform="translate(834.814453 0)"/>
     <use xlink:href="#DejaVuSans-63" transform="translate(898.193359 0)"/>
     <use xlink:href="#DejaVuSans-65" transform="translate(953.173828 0)"/>
     <use xlink:href="#DejaVuSans-72" transform="translate(1014.697266 0)"/>
     <use xlink:href="#DejaVuSans-74" transform="translate(1055.810547 0)"/>
     <use xlink:href="#DejaVuSans-61" transform="translate(1095.019531 0)"/>
     <use xlink:href="#DejaVuSans-69" transform="translate(1156.298828 0)"/>
     <use xlink:href="#DejaVuSans-6e" transform="translate(1184.082031 0)"/>
     <use xlink:href="#DejaVuSans-74" transform="translate(1247.460938 0)"/>
     <use xlink:href="#DejaVuSans-79" transform="translate(1286.669922 0)"/>
     <use xlink:href="#DejaVuSans-20" transform="translate(1345.849609 0)"/>
     <use xlink:href="#DejaVuSans-28" transform="translate(1377.636719 0)"/>
     <use xlink:href="#DejaVuSans-73" transform="translate(1416.650391 0)"/>
     <use xlink:href="#DejaVuSans-74" transform="translate(1468.75 0)"/>
     <use xlink:href="#DejaVuSans-64" transform="translate(1507.958984 0)"/>
     <use xlink:href="#DejaVuSans-20" transform="translate(1571.435547 0)"/>
     <use xlink:href="#DejaVuSans-64" transform="translate(1603.222656 0)"/>
     <use xlink:href="#DejaVuSans-65" transform="translate(1666.699219 0)"/>
     <use xlink:href="#DejaVuSans-76" transform="translate(1728.222656 0)"/>
     <use xlink:href="#DejaVuSans-29" transform="translate(1787.402344 0)"/>
    </g>
   </g>
   <g id="legend_1">
    <g id="patch_7">
     <path d="M 734.342188 64.23625 
L 846.2 64.23625 
Q 848.2 64.23625 848.2 62.23625 
L 848.2 33.88 
Q 848.2 31.88 846.2 31.88 
L 734.342188 31.88 
Q 732.342188 31.88 732.342188 33.88 
L 732.342188 62.23625 
Q 732.342188 64.23625 734.342188 64.23625 
z
" style="fill: #ffffff; opacity: 0.8; stroke: #cccccc; stroke-linejoin: miter"/>
    </g>
    <g id="line2d_31">
     <path d="M 736.342188 39.978437 
L 746.342188 39.978437 
L 756.342188 39.978437 
" style="fill: none; stroke: #0000ff; stroke-width: 1.5; stroke-linecap: square"/>
    </g>
    <g id="text_16">
     <!-- Ideal (No Noise) -->
     <g transform="translate(764.342188 43.478437) scale(0.1 -0.1)">
      <defs>
       <path id="DejaVuSans-49" d="M 628 4666 
L 1259 4666 
L 1259 0 
L 628 0 
L 628 4666 
z
" transform="scale(0.015625)"/>
       <path id="DejaVuSans-6c" d="M 603 4863 
L 1178 4863 
L 1178 0 
L 603 0 
L 603 4863 
z
" transform="scale(0.015625)"/>
       <path id="DejaVuSans-4e" d="M 628 4666 
L 1478 4666 
L 3547 763 
L 3547 4666 
L 4159 4666 
L 4159 0 
L 3309 0 
L 1241 3903 
L 1241 0 
L 628 0 
L 628 4666 
z
" transform="scale(0.015625)"/>
       <path id="DejaVuSans-6f" d="M 1959 3097 
Q 1497 3097 1228 2736 
Q 959 2375 959 1747 
Q 959 1119 1226 758 
Q 1494 397 1959 397 
Q 2419 397 2687 759 
Q 2956 1122 2956 1747 
Q 2956 2369 2687 2733 
Q 2419 3097 1959 3097 
z
M 1959 3584 
Q 2709 3584 3137 3096 
Q 3566 2609 3566 1747 
Q 3566 888 3137 398 
Q 2709 -91 1959 -91 
Q 1206 -91 779 398 
Q 353 888 353 1747 
Q 353 2609 779 3096 
Q 1206 3584 1959 3584 
z
" transform="scale(0.015625)"/>
      </defs>
      <use xlink:href="#DejaVuSans-49"/>
      <use xlink:href="#DejaVuSans-64" transform="translate(29.492188 0)"/>
      <use xlink:href="#DejaVuSans-65" transform="translate(92.96875 0)"/>
      <use xlink:href="#DejaVuSans-61" transform="translate(154.492188 0)"/>
      <use xlink:href="#DejaVuSans-6c" transform="translate(215.771484 0)"/>
      <use xlink:href="#DejaVuSans-20" transform="translate(243.554688 0)"/>
      <use xlink:href="#DejaVuSans-28" transform="translate(275.341797 0)"/>
      <use xlink:href="#DejaVuSans-4e" transform="translate(314.355469 0)"/>
      <use xlink:href="#DejaVuSans-6f" transform="translate(389.160156 0)"/>
      <use xlink:href="#DejaVuSans-20" transform="translate(450.341797 0)"/>
      <use xlink:href="#DejaVuSans-4e" transform="translate(482.128906 0)"/>
      <use xlink:href="#DejaVuSans-6f" transform="translate(556.933594 0)"/>
      <use xlink:href="#DejaVuSans-69" transform="translate(618.115234 0)"/>
      <use xlink:href="#DejaVuSans-73" transform="translate(645.898438 0)"/>
      <use xlink:href="#DejaVuSans-65" transform="translate(697.998047 0)"/>
      <use xlink:href="#DejaVuSans-29" transform="translate(759.521484 0)"/>
     </g>
    </g>
    <g id="line2d_32">
     <path d="M 736.342188 54.656562 
L 746.342188 54.656562 
L 756.342188 54.656562 
" style="fill: none; stroke-dasharray: 5.55,2.4; stroke-dashoffset: 0; stroke: #ff0000; stroke-width: 1.5"/>
    </g>
    <g id="text_17">
     <!-- With Full Noise -->
     <g transform="translate(764.342188 58.156562) scale(0.1 -0.1)">
      <defs>
       <path id="DejaVuSans-57" d="M 213 4666 
L 850 4666 
L 1831 722 
L 2809 4666 
L 3519 4666 
L 4500 722 
L 5478 4666 
L 6119 4666 
L 4947 0 
L 4153 0 
L 3169 4050 
L 2175 0 
L 1381 0 
L 213 4666 
z
" transform="scale(0.015625)"/>
       <path id="DejaVuSans-68" d="M 3513 2113 
L 3513 0 
L 2938 0 
L 2938 2094 
Q 2938 2591 2744 2837 
Q 2550 3084 2163 3084 
Q 1697 3084 1428 2787 
Q 1159 2491 1159 1978 
L 1159 0 
L 581 0 
L 581 4863 
L 1159 4863 
L 1159 2956 
Q 1366 3272 1645 3428 
Q 1925 3584 2291 3584 
Q 2894 3584 3203 3211 
Q 3513 2838 3513 2113 
z
" transform="scale(0.015625)"/>
       <path id="DejaVuSans-46" d="M 628 4666 
L 3309 4666 
L 3309 4134 
L 1259 4134 
L 1259 2759 
L 3109 2759 
L 3109 2228 
L 1259 2228 
L 1259 0 
L 628 0 
L 628 4666 
z
" transform="scale(0.015625)"/>
       <path id="DejaVuSans-75" d="M 544 1381 
L 544 3500 
L 1119 3500 
L 1119 1403 
Q 1119 906 1312 657 
Q 1506 409 1894 409 
Q 2359 409 2629 706 
Q 2900 1003 2900 1516 
L 2900 3500 
L 3475 3500 
L 3475 0 
L 2900 0 
L 2900 538 
Q 2691 219 2414 64 
Q 2138 -91 1772 -91 
Q 1169 -91 856 284 
Q 544 659 544 1381 
z
M 1991 3584 
L 1991 3584 
z
" transform="scale(0.015625)"/>
      </defs>
      <use xlink:href="#DejaVuSans-57"/>
      <use xlink:href="#DejaVuSans-69" transform="translate(96.626953 0)"/>
      <use xlink:href="#DejaVuSans-74" transform="translate(124.410156 0)"/>
      <use xlink:href="#DejaVuSans-68" transform="translate(163.619141 0)"/>
      <use xlink:href="#DejaVuSans-20" transform="translate(226.998047 0)"/>
      <use xlink:href="#DejaVuSans-46" transform="translate(258.785156 0)"/>
      <use xlink:href="#DejaVuSans-75" transform="translate(310.804688 0)"/>
      <use xlink:href="#DejaVuSans-6c" transform="translate(374.183594 0)"/>
      <use xlink:href="#DejaVuSans-6c" transform="translate(401.966797 0)"/>
      <use xlink:href="#DejaVuSans-20" transform="translate(429.75 0)"/>
      <use xlink:href="#DejaVuSans-4e" transform="translate(461.537109 0)"/>
      <use xlink:href="#DejaVuSans-6f" transform="translate(536.341797 0)"/>
      <use xlink:href="#DejaVuSans-69" transform="translate(597.523438 0)"/>
      <use xlink:href="#DejaVuSans-73" transform="translate(625.306641 0)"/>
      <use xlink:href="#DejaVuSans-65" transform="translate(677.40625 0)"/>
     </g>
    </g>
   </g>
  </g>
  <g id="axes_2">
   <g id="patch_8">
    <path d="M 81.29 534.04 
L 853.2 534.04 
L 853.2 302.44 
L 81.29 302.44 
z
" style="fill: #ffffff"/>
   </g>
   <g id="matplotlib.axis_3">
    <g id="xtick_8">
     <g id="line2d_33">
      <path d="M 116.376818 534.04 
L 116.376818 302.44 
" clip-path="url(#pd9952a6849)" style="fill: none; stroke: #b0b0b0; stroke-width: 0.8; stroke-linecap: square"/>
     </g>
     <g id="line2d_34">
      <g>
       <use xlink:href="#m72654010c1" x="116.376818" y="534.04" style="stroke: #000000; stroke-width: 0.8"/>
      </g>
     </g>
     <g id="text_18">
      <!-- 0 -->
      <g transform="translate(113.195568 548.638438) scale(0.1 -0.1)">
       <use xlink:href="#DejaVuSans-30"/>
      </g>
     </g>
    </g>
    <g id="xtick_9">
     <g id="line2d_35">
      <path d="M 235.679158 534.04 
L 235.679158 302.44 
" clip-path="url(#pd9952a6849)" style="fill: none; stroke: #b0b0b0; stroke-width: 0.8; stroke-linecap: square"/>
     </g>
     <g id="line2d_36">
      <g>
       <use xlink:href="#m72654010c1" x="235.679158" y="534.04" style="stroke: #000000; stroke-width: 0.8"/>
      </g>
     </g>
     <g id="text_19">
      <!-- 50 -->
      <g transform="translate(229.316658 548.638438) scale(0.1 -0.1)">
       <use xlink:href="#DejaVuSans-35"/>
       <use xlink:href="#DejaVuSans-30" transform="translate(63.623047 0)"/>
      </g>
     </g>
    </g>
    <g id="xtick_10">
     <g id="line2d_37">
      <path d="M 354.981498 534.04 
L 354.981498 302.44 
" clip-path="url(#pd9952a6849)" style="fill: none; stroke: #b0b0b0; stroke-width: 0.8; stroke-linecap: square"/>
     </g>
     <g id="line2d_38">
      <g>
       <use xlink:href="#m72654010c1" x="354.981498" y="534.04" style="stroke: #000000; stroke-width: 0.8"/>
      </g>
     </g>
     <g id="text_20">
      <!-- 100 -->
      <g transform="translate(345.437748 548.638438) scale(0.1 -0.1)">
       <use xlink:href="#DejaVuSans-31"/>
       <use xlink:href="#DejaVuSans-30" transform="translate(63.623047 0)"/>
       <use xlink:href="#DejaVuSans-30" transform="translate(127.246094 0)"/>
      </g>
     </g>
    </g>
    <g id="xtick_11">
     <g id="line2d_39">
      <path d="M 474.283838 534.04 
L 474.283838 302.44 
" clip-path="url(#pd9952a6849)" style="fill: none; stroke: #b0b0b0; stroke-width: 0.8; stroke-linecap: square"/>
     </g>
     <g id="line2d_40">
      <g>
       <use xlink:href="#m72654010c1" x="474.283838" y="534.04" style="stroke: #000000; stroke-width: 0.8"/>
      </g>
     </g>
     <g id="text_21">
      <!-- 150 -->
      <g transform="translate(464.740088 548.638438) scale(0.1 -0.1)">
       <use xlink:href="#DejaVuSans-31"/>
       <use xlink:href="#DejaVuSans-35" transform="translate(63.623047 0)"/>
       <use xlink:href="#DejaVuSans-30" transform="translate(127.246094 0)"/>
      </g>
     </g>
    </g>
    <g id="xtick_12">
     <g id="line2d_41">
      <path d="M 593.586178 534.04 
L 593.586178 302.44 
" clip-path="url(#pd9952a6849)" style="fill: none; stroke: #b0b0b0; stroke-width: 0.8; stroke-linecap: square"/>
     </g>
     <g id="line2d_42">
      <g>
       <use xlink:href="#m72654010c1" x="593.586178" y="534.04" style="stroke: #000000; stroke-width: 0.8"/>
      </g>
     </g>
     <g id="text_22">
      <!-- 200 -->
      <g transform="translate(584.042428 548.638438) scale(0.1 -0.1)">
       <use xlink:href="#DejaVuSans-32"/>
       <use xlink:href="#DejaVuSans-30" transform="translate(63.623047 0)"/>
       <use xlink:href="#DejaVuSans-30" transform="translate(127.246094 0)"/>
      </g>
     </g>
    </g>
    <g id="xtick_13">
     <g id="line2d_43">
      <path d="M 712.888518 534.04 
L 712.888518 302.44 
" clip-path="url(#pd9952a6849)" style="fill: none; stroke: #b0b0b0; stroke-width: 0.8; stroke-linecap: square"/>
     </g>
     <g id="line2d_44">
      <g>
       <use xlink:href="#m72654010c1" x="712.888518" y="534.04" style="stroke: #000000; stroke-width: 0.8"/>
      </g>
     </g>
     <g id="text_23">
      <!-- 250 -->
      <g transform="translate(703.344768 548.638438) scale(0.1 -0.1)">
       <use xlink:href="#DejaVuSans-32"/>
       <use xlink:href="#DejaVuSans-35" transform="translate(63.623047 0)"/>
       <use xlink:href="#DejaVuSans-30" transform="translate(127.246094 0)"/>
      </g>
     </g>
    </g>
    <g id="xtick_14">
     <g id="line2d_45">
      <path d="M 832.190858 534.04 
L 832.190858 302.44 
" clip-path="url(#pd9952a6849)" style="fill: none; stroke: #b0b0b0; stroke-width: 0.8; stroke-linecap: square"/>
     </g>
     <g id="line2d_46">
      <g>
       <use xlink:href="#m72654010c1" x="832.190858" y="534.04" style="stroke: #000000; stroke-width: 0.8"/>
      </g>
     </g>
     <g id="text_24">
      <!-- 300 -->
      <g transform="translate(822.647108 548.638438) scale(0.1 -0.1)">
       <use xlink:href="#DejaVuSans-33"/>
       <use xlink:href="#DejaVuSans-30" transform="translate(63.623047 0)"/>
       <use xlink:href="#DejaVuSans-30" transform="translate(127.246094 0)"/>
      </g>
     </g>
    </g>
    <g id="text_25">
     <!-- Time (s) -->
     <g transform="translate(446.916094 562.316562) scale(0.1 -0.1)">
      <defs>
       <path id="DejaVuSans-54" d="M -19 4666 
L 3928 4666 
L 3928 4134 
L 2272 4134 
L 2272 0 
L 1638 0 
L 1638 4134 
L -19 4134 
L -19 4666 
z
" transform="scale(0.015625)"/>
       <path id="DejaVuSans-6d" d="M 3328 2828 
Q 3544 3216 3844 3400 
Q 4144 3584 4550 3584 
Q 5097 3584 5394 3201 
Q 5691 2819 5691 2113 
L 5691 0 
L 5113 0 
L 5113 2094 
Q 5113 2597 4934 2840 
Q 4756 3084 4391 3084 
Q 3944 3084 3684 2787 
Q 3425 2491 3425 1978 
L 3425 0 
L 2847 0 
L 2847 2094 
Q 2847 2600 2669 2842 
Q 2491 3084 2119 3084 
Q 1678 3084 1418 2786 
Q 1159 2488 1159 1978 
L 1159 0 
L 581 0 
L 581 3500 
L 1159 3500 
L 1159 2956 
Q 1356 3278 1631 3431 
Q 1906 3584 2284 3584 
Q 2666 3584 2933 3390 
Q 3200 3197 3328 2828 
z
" transform="scale(0.015625)"/>
      </defs>
      <use xlink:href="#DejaVuSans-54"/>
      <use xlink:href="#DejaVuSans-69" transform="translate(57.958984 0)"/>
      <use xlink:href="#DejaVuSans-6d" transform="translate(85.742188 0)"/>
      <use xlink:href="#DejaVuSans-65" transform="translate(183.154297 0)"/>
      <use xlink:href="#DejaVuSans-20" transform="translate(244.677734 0)"/>
      <use xlink:href="#DejaVuSans-28" transform="translate(276.464844 0)"/>
      <use xlink:href="#DejaVuSans-73" transform="translate(315.478516 0)"/>
      <use xlink:href="#DejaVuSans-29" transform="translate(367.578125 0)"/>
     </g>
    </g>
   </g>
   <g id="matplotlib.axis_4">
    <g id="ytick_7">
     <g id="line2d_47">
      <path d="M 81.29 532.30658 
L 853.2 532.30658 
" clip-path="url(#pd9952a6849)" style="fill: none; stroke: #b0b0b0; stroke-width: 0.8; stroke-linecap: square"/>
     </g>
     <g id="line2d_48">
      <g>
       <use xlink:href="#m8564351659" x="81.29" y="532.30658" style="stroke: #000000; stroke-width: 0.8"/>
      </g>
     </g>
     <g id="text_26">
      <!-- −0.00035 -->
      <g transform="translate(24.557187 536.105798) scale(0.1 -0.1)">
       <defs>
        <path id="DejaVuSans-2212" d="M 678 2272 
L 4684 2272 
L 4684 1741 
L 678 1741 
L 678 2272 
z
" transform="scale(0.015625)"/>
       </defs>
       <use xlink:href="#DejaVuSans-2212"/>
       <use xlink:href="#DejaVuSans-30" transform="translate(83.789062 0)"/>
       <use xlink:href="#DejaVuSans-2e" transform="translate(147.412109 0)"/>
       <use xlink:href="#DejaVuSans-30" transform="translate(179.199219 0)"/>
       <use xlink:href="#DejaVuSans-30" transform="translate(242.822266 0)"/>
       <use xlink:href="#DejaVuSans-30" transform="translate(306.445312 0)"/>
       <use xlink:href="#DejaVuSans-33" transform="translate(370.068359 0)"/>
       <use xlink:href="#DejaVuSans-35" transform="translate(433.691406 0)"/>
      </g>
     </g>
    </g>
    <g id="ytick_8">
     <g id="line2d_49">
      <path d="M 81.29 503.867823 
L 853.2 503.867823 
" clip-path="url(#pd9952a6849)" style="fill: none; stroke: #b0b0b0; stroke-width: 0.8; stroke-linecap: square"/>
     </g>
     <g id="line2d_50">
      <g>
       <use xlink:href="#m8564351659" x="81.29" y="503.867823" style="stroke: #000000; stroke-width: 0.8"/>
      </g>
     </g>
     <g id="text_27">
      <!-- −0.00030 -->
      <g transform="translate(24.557187 507.667042) scale(0.1 -0.1)">
       <use xlink:href="#DejaVuSans-2212"/>
       <use xlink:href="#DejaVuSans-30" transform="translate(83.789062 0)"/>
       <use xlink:href="#DejaVuSans-2e" transform="translate(147.412109 0)"/>
       <use xlink:href="#DejaVuSans-30" transform="translate(179.199219 0)"/>
       <use xlink:href="#DejaVuSans-30" transform="translate(242.822266 0)"/>
       <use xlink:href="#DejaVuSans-30" transform="translate(306.445312 0)"/>
       <use xlink:href="#DejaVuSans-33" transform="translate(370.068359 0)"/>
       <use xlink:href="#DejaVuSans-30" transform="translate(433.691406 0)"/>
      </g>
     </g>
    </g>
    <g id="ytick_9">
     <g id="line2d_51">
      <path d="M 81.29 475.429066 
L 853.2 475.429066 
" clip-path="url(#pd9952a6849)" style="fill: none; stroke: #b0b0b0; stroke-width: 0.8; stroke-linecap: square"/>
     </g>
     <g id="line2d_52">
      <g>
       <use xlink:href="#m8564351659" x="81.29" y="475.429066" style="stroke: #000000; stroke-width: 0.8"/>
      </g>
     </g>
     <g id="text_28">
      <!-- −0.00025 -->
      <g transform="translate(24.557187 479.228285) scale(0.1 -0.1)">
       <use xlink:href="#DejaVuSans-2212"/>
       <use xlink:href="#DejaVuSans-30" transform="translate(83.789062 0)"/>
       <use xlink:href="#DejaVuSans-2e" transform="translate(147.412109 0)"/>
       <use xlink:href="#DejaVuSans-30" transform="translate(179.199219 0)"/>
       <use xlink:href="#DejaVuSans-30" transform="translate(242.822266 0)"/>
       <use xlink:href="#DejaVuSans-30" transform="translate(306.445312 0)"/>
       <use xlink:href="#DejaVuSans-32" transform="translate(370.068359 0)"/>
       <use xlink:href="#DejaVuSans-35" transform="translate(433.691406 0)"/>
      </g>
     </g>
    </g>
    <g id="ytick_10">
     <g id="line2d_53">
      <path d="M 81.29 446.990309 
L 853.2 446.990309 
" clip-path="url(#pd9952a6849)" style="fill: none; stroke: #b0b0b0; stroke-width: 0.8; stroke-linecap: square"/>
     </g>
     <g id="line2d_54">
      <g>
       <use xlink:href="#m8564351659" x="81.29" y="446.990309" style="stroke: #000000; stroke-width: 0.8"/>
      </g>
     </g>
     <g id="text_29">
      <!-- −0.00020 -->
      <g transform="translate(24.557187 450.789528) scale(0.1 -0.1)">
       <use xlink:href="#DejaVuSans-2212"/>
       <use xlink:href="#DejaVuSans-30" transform="translate(83.789062 0)"/>
       <use xlink:href="#DejaVuSans-2e" transform="translate(147.412109 0)"/>
       <use xlink:href="#DejaVuSans-30" transform="translate(179.199219 0)"/>
       <use xlink:href="#DejaVuSans-30" transform="translate(242.822266 0)"/>
       <use xlink:href="#DejaVuSans-30" transform="translate(306.445312 0)"/>
       <use xlink:href="#DejaVuSans-32" transform="translate(370.068359 0)"/>
       <use xlink:href="#DejaVuSans-30" transform="translate(433.691406 0)"/>
      </g>
     </g>
    </g>
    <g id="ytick_11">
     <g id="line2d_55">
      <path d="M 81.29 418.551552 
L 853.2 418.551552 
" clip-path="url(#pd9952a6849)" style="fill: none; stroke: #b0b0b0; stroke-width: 0.8; stroke-linecap: square"/>
     </g>
     <g id="line2d_56">
      <g>
       <use xlink:href="#m8564351659" x="81.29" y="418.551552" style="stroke: #000000; stroke-width: 0.8"/>
      </g>
     </g>
     <g id="text_30">
      <!-- −0.00015 -->
      <g transform="translate(24.557187 422.350771) scale(0.1 -0.1)">
       <use xlink:href="#DejaVuSans-2212"/>
       <use xlink:href="#DejaVuSans-30" transform="translate(83.789062 0)"/>
       <use xlink:href="#DejaVuSans-2e" transform="translate(147.412109 0)"/>
       <use xlink:href="#DejaVuSans-30" transform="translate(179.199219 0)"/>
       <use xlink:href="#DejaVuSans-30" transform="translate(242.822266 0)"/>
       <use xlink:href="#DejaVuSans-30" transform="translate(306.445312 0)"/>
       <use xlink:href="#DejaVuSans-31" transform="translate(370.068359 0)"/>
       <use xlink:href="#DejaVuSans-35" transform="translate(433.691406 0)"/>
      </g>
     </g>
    </g>
    <g id="ytick_12">
     <g id="line2d_57">
      <path d="M 81.29 390.112796 
L 853.2 390.112796 
" clip-path="url(#pd9952a6849)" style="fill: none; stroke: #b0b0b0; stroke-width: 0.8; stroke-linecap: square"/>
     </g>
     <g id="line2d_58">
      <g>
       <use xlink:href="#m8564351659" x="81.29" y="390.112796" style="stroke: #000000; stroke-width: 0.8"/>
      </g>
     </g>
     <g id="text_31">
      <!-- −0.00010 -->
      <g transform="translate(24.557187 393.912014) scale(0.1 -0.1)">
       <use xlink:href="#DejaVuSans-2212"/>
       <use xlink:href="#DejaVuSans-30" transform="translate(83.789062 0)"/>
       <use xlink:href="#DejaVuSans-2e" transform="translate(147.412109 0)"/>
       <use xlink:href="#DejaVuSans-30" transform="translate(179.199219 0)"/>
       <use xlink:href="#DejaVuSans-30" transform="translate(242.822266 0)"/>
       <use xlink:href="#DejaVuSans-30" transform="translate(306.445312 0)"/>
       <use xlink:href="#DejaVuSans-31" transform="translate(370.068359 0)"/>
       <use xlink:href="#DejaVuSans-30" transform="translate(433.691406 0)"/>
      </g>
     </g>
    </g>
    <g id="ytick_13">
     <g id="line2d_59">
      <path d="M 81.29 361.674039 
L 853.2 361.674039 
" clip-path="url(#pd9952a6849)" style="fill: none; stroke: #b0b0b0; stroke-width: 0.8; stroke-linecap: square"/>
     </g>
     <g id="line2d_60">
      <g>
       <use xlink:href="#m8564351659" x="81.29" y="361.674039" style="stroke: #000000; stroke-width: 0.8"/>
      </g>
     </g>
     <g id="text_32">
      <!-- −0.00005 -->
      <g transform="translate(24.557187 365.473258) scale(0.1 -0.1)">
       <use xlink:href="#DejaVuSans-2212"/>
       <use xlink:href="#DejaVuSans-30" transform="translate(83.789062 0)"/>
       <use xlink:href="#DejaVuSans-2e" transform="translate(147.412109 0)"/>
       <use xlink:href="#DejaVuSans-30" transform="translate(179.199219 0)"/>
       <use xlink:href="#DejaVuSans-30" transform="translate(242.822266 0)"/>
       <use xlink:href="#DejaVuSans-30" transform="translate(306.445312 0)"/>
       <use xlink:href="#DejaVuSans-30" transform="translate(370.068359 0)"/>
       <use xlink:href="#DejaVuSans-35" transform="translate(433.691406 0)"/>
      </g>
     </g>
    </g>
    <g id="ytick_14">
     <g id="line2d_61">
      <path d="M 81.29 333.235282 
L 853.2 333.235282 
" clip-path="url(#pd9952a6849)" style="fill: none; stroke: #b0b0b0; stroke-width: 0.8; stroke-linecap: square"/>
     </g>
     <g id="line2d_62">
      <g>
       <use xlink:href="#m8564351659" x="81.29" y="333.235282" style="stroke: #000000; stroke-width: 0.8"/>
      </g>
     </g>
     <g id="text_33">
      <!-- 0.00000 -->
      <g transform="translate(32.936875 337.034501) scale(0.1 -0.1)">
       <use xlink:href="#DejaVuSans-30"/>
       <use xlink:href="#DejaVuSans-2e" transform="translate(63.623047 0)"/>
       <use xlink:href="#DejaVuSans-30" transform="translate(95.410156 0)"/>
       <use xlink:href="#DejaVuSans-30" transform="translate(159.033203 0)"/>
       <use xlink:href="#DejaVuSans-30" transform="translate(222.65625 0)"/>
       <use xlink:href="#DejaVuSans-30" transform="translate(286.279297 0)"/>
       <use xlink:href="#DejaVuSans-30" transform="translate(349.902344 0)"/>
      </g>
     </g>
    </g>
    <g id="ytick_15">
     <g id="line2d_63">
      <path d="M 81.29 304.796525 
L 853.2 304.796525 
" clip-path="url(#pd9952a6849)" style="fill: none; stroke: #b0b0b0; stroke-width: 0.8; stroke-linecap: square"/>
     </g>
     <g id="line2d_64">
      <g>
       <use xlink:href="#m8564351659" x="81.29" y="304.796525" style="stroke: #000000; stroke-width: 0.8"/>
      </g>
     </g>
     <g id="text_34">
      <!-- 0.00005 -->
      <g transform="translate(32.936875 308.595744) scale(0.1 -0.1)">
       <use xlink:href="#DejaVuSans-30"/>
       <use xlink:href="#DejaVuSans-2e" transform="translate(63.623047 0)"/>
       <use xlink:href="#DejaVuSans-30" transform="translate(95.410156 0)"/>
       <use xlink:href="#DejaVuSans-30" transform="translate(159.033203 0)"/>
       <use xlink:href="#DejaVuSans-30" transform="translate(222.65625 0)"/>
       <use xlink:href="#DejaVuSans-30" transform="translate(286.279297 0)"/>
       <use xlink:href="#DejaVuSans-35" transform="translate(349.902344 0)"/>
      </g>
     </g>
    </g>
    <g id="text_35">
     <!-- Estimated Value -->
     <g transform="translate(18.4775 458.818906) rotate(-90) scale(0.1 -0.1)">
      <defs>
       <path id="DejaVuSans-45" d="M 628 4666 
L 3578 4666 
L 3578 4134 
L 1259 4134 
L 1259 2753 
L 3481 2753 
L 3481 2222 
L 1259 2222 
L 1259 531 
L 3634 531 
L 3634 0 
L 628 0 
L 628 4666 
z
" transform="scale(0.015625)"/>
       <path id="DejaVuSans-56" d="M 1831 0 
L 50 4666 
L 709 4666 
L 2188 738 
L 3669 4666 
L 4325 4666 
L 2547 0 
L 1831 0 
z
" transform="scale(0.015625)"/>
      </defs>
      <use xlink:href="#DejaVuSans-45"/>
      <use xlink:href="#DejaVuSans-73" transform="translate(63.183594 0)"/>
      <use xlink:href="#DejaVuSans-74" transform="translate(115.283203 0)"/>
      <use xlink:href="#DejaVuSans-69" transform="translate(154.492188 0)"/>
      <use xlink:href="#DejaVuSans-6d" transform="translate(182.275391 0)"/>
      <use xlink:href="#DejaVuSans-61" transform="translate(279.6875 0)"/>
      <use xlink:href="#DejaVuSans-74" transform="translate(340.966797 0)"/>
      <use xlink:href="#DejaVuSans-65" transform="translate(380.175781 0)"/>
      <use xlink:href="#DejaVuSans-64" transform="translate(441.699219 0)"/>
      <use xlink:href="#DejaVuSans-20" transform="translate(505.175781 0)"/>
      <use xlink:href="#DejaVuSans-56" transform="translate(536.962891 0)"/>
      <use xlink:href="#DejaVuSans-61" transform="translate(597.621094 0)"/>
      <use xlink:href="#DejaVuSans-6c" transform="translate(658.900391 0)"/>
      <use xlink:href="#DejaVuSans-75" transform="translate(686.683594 0)"/>
      <use xlink:href="#DejaVuSans-65" transform="translate(750.0625 0)"/>
     </g>
    </g>
   </g>
   <g id="line2d_65">
    <path d="M 116.376818 333.235282 
L 147.634031 333.124538 
L 162.618405 332.906574 
L 186.860641 332.842493 
L 194.925479 332.531917 
L 197.597851 332.34754 
L 203.65841 332.18709 
L 228.950506 332.176689 
L 229.093669 325.754766 
L 229.332274 322.825715 
L 229.570878 322.254789 
L 229.952646 321.981557 
L 230.716181 321.783172 
L 233.102228 321.479118 
L 237.874321 321.075203 
L 240.069484 321.067611 
L 240.642135 321.067611 
L 240.785298 327.223984 
L 241.310229 328.058192 
L 241.739717 328.253373 
L 242.503252 328.311094 
L 244.221206 328.154777 
L 248.51609 327.749463 
L 251.713393 327.716429 
L 252.333765 327.716429 
L 252.381486 326.927776 
L 252.476928 326.955313 
L 253.335904 327.15441 
L 255.244742 327.153621 
L 258.537486 327.226267 
L 261.305301 327.519446 
L 262.164278 327.533519 
L 264.025394 327.533519 
L 264.168557 329.269277 
L 265.600185 330.356219 
L 266.793208 330.871622 
L 268.511162 331.355818 
L 271.183535 331.85831 
L 273.617302 332.133808 
L 275.717023 332.133808 
L 275.860186 333.814651 
L 277.100931 334.539185 
L 278.389396 334.959421 
L 280.345954 335.342017 
L 283.543257 335.71564 
L 285.881583 335.821072 
L 287.408653 335.821072 
L 287.551816 336.833551 
L 288.983444 337.332865 
L 290.653676 337.613515 
L 293.516933 337.843363 
L 297.764096 337.959234 
L 312.27126 337.853337 
L 316.947912 337.288196 
L 320.670145 337.024398 
L 322.43582 337.024398 
L 322.578983 337.191377 
L 325.537681 337.765394 
L 328.5441 337.957319 
L 333.316193 338.022996 
L 337.467915 337.912133 
L 345.819078 337.838917 
L 345.962241 337.546626 
L 348.157404 337.317853 
L 350.257125 337.21098 
L 350.400288 333.235282 
L 385.475176 333.124177 
L 399.839178 333.069077 
L 439.495276 332.977243 
L 439.972485 332.962347 
L 461.017418 332.944303 
L 462.878534 332.944303 
L 463.021697 332.744917 
L 463.451186 332.666295 
L 469.034535 332.424668 
L 474.474722 332.329197 
L 474.570164 332.329197 
L 474.713326 332.513986 
L 475.524582 332.763381 
L 477.003931 332.790348 
L 486.786723 332.737297 
L 489.459096 332.753559 
L 497.953422 332.855178 
L 498.096585 333.219951 
L 500.530353 333.584736 
L 504.252586 333.801463 
L 509.358726 333.899918 
L 509.645052 333.899918 
L 509.788214 334.328702 
L 511.935657 334.546466 
L 516.469145 334.708723 
L 521.336681 334.753411 
L 521.479844 335.126879 
L 524.295379 335.262205 
L 531.883008 335.336495 
L 533.02831 335.336495 
L 533.171473 335.181062 
L 536.60738 335.132734 
L 544.71994 335.140423 
L 544.863102 334.987489 
L 554.073243 334.783424 
L 557.795476 334.893352 
L 562.949337 335.005059 
L 577.265618 335.041083 
L 584.185154 334.955701 
L 584.328316 333.235282 
L 626.656787 333.12635 
L 628.804229 333.133507 
L 641.927486 333.033327 
L 648.75158 332.9346 
L 650.040045 332.9346 
L 650.183208 332.66039 
L 669.367024 332.724837 
L 673.423304 332.717564 
L 673.566467 332.821884 
L 685.162654 332.683618 
L 685.305817 332.543663 
L 687.214654 332.522799 
L 691.127771 332.360582 
L 696.806563 332.006573 
L 696.949725 329.631575 
L 696.997446 329.692059 
L 698.19047 331.740629 
L 698.858563 332.203629 
L 699.765261 332.553035 
L 701.053726 332.797879 
L 703.010284 332.924242 
L 706.589354 332.88778 
L 708.498192 332.88778 
L 708.641355 334.0156 
L 710.216146 334.044041 
L 720.237542 334.073896 
L 722.289542 334.050081 
L 733.026753 334.009965 
L 736.701265 334.160371 
L 743.620801 334.447252 
L 745.052429 334.525024 
L 750.969825 334.619067 
L 755.264709 334.631351 
L 755.407872 334.90501 
L 759.225547 334.970585 
L 766.956338 334.992654 
L 767.099501 334.648008 
L 769.485548 334.566689 
L 778.647968 334.543091 
L 778.791131 333.522172 
L 780.031875 333.382394 
L 784.088154 333.312899 
L 796.972807 333.328033 
L 818.113182 333.348507 
L 818.113182 333.348507 
" clip-path="url(#pd9952a6849)" style="fill: none; stroke: #0000ff; stroke-width: 1.5; stroke-linecap: square"/>
   </g>
   <g id="line2d_66">
    <path d="M 116.376818 333.235282 
L 144.150403 333.125046 
L 150.831334 332.749358 
L 176.552918 332.512734 
L 186.240268 332.466132 
L 191.012362 332.452453 
L 194.9732 332.382693 
L 197.597851 332.305864 
L 205.805852 332.3686 
L 209.337201 332.458873 
L 216.304458 332.642956 
L 228.950506 332.589102 
L 229.14139 325.128925 
L 229.284553 324.022096 
L 229.379995 324.036757 
L 229.427716 323.979459 
L 229.475436 324.043304 
L 229.570878 324.276344 
L 229.618599 324.255806 
L 229.952646 323.456894 
L 230.14353 323.406304 
L 230.238971 323.305066 
L 230.477576 322.905906 
L 230.907065 322.374168 
L 231.145669 322.007264 
L 231.288832 321.912422 
L 231.431995 322.020173 
L 231.575158 322.013998 
L 232.052367 321.987865 
L 232.338693 321.811938 
L 232.863623 321.740664 
L 233.054507 321.72802 
L 233.436274 321.870439 
L 233.674879 321.617956 
L 233.7226 321.698494 
L 233.961204 322.140841 
L 234.008925 322.11772 
L 234.104367 322.045313 
L 234.629298 320.902921 
L 234.867902 320.852858 
L 235.011065 320.783862 
L 235.297391 320.912617 
L 235.583716 320.729336 
L 236.394972 320.502664 
L 236.585856 320.395343 
L 236.77674 320.354203 
L 237.063065 320.259731 
L 237.778879 319.757933 
L 237.969763 319.682005 
L 238.590135 319.691335 
L 240.642135 319.691335 
L 240.785298 324.101941 
L 241.214787 325.448279 
L 241.35795 325.498091 
L 241.548833 326.053946 
L 241.596554 326.012582 
L 241.644275 325.991589 
L 241.88288 326.286857 
L 242.216926 326.767078 
L 243.457671 326.958501 
L 243.696275 326.993154 
L 244.507531 327.392645 
L 245.557392 327.509438 
L 247.036741 327.711574 
L 248.468369 327.719913 
L 250.04316 327.654913 
L 252.333765 327.654913 
L 252.429207 325.400195 
L 252.476928 325.40586 
L 252.858695 325.297011 
L 253.049579 325.250016 
L 253.574509 325.462774 
L 256.771812 325.579816 
L 257.296742 325.541891 
L 258.060277 325.478601 
L 258.489766 325.406615 
L 259.157859 325.377496 
L 259.969115 325.296589 
L 261.877952 325.437779 
L 264.025394 325.437779 
L 264.168557 327.816752 
L 265.027534 328.991346 
L 266.172836 329.631051 
L 266.697767 329.828015 
L 267.127255 330.096729 
L 269.322418 330.723511 
L 269.895069 330.795285 
L 270.992651 331.140879 
L 274.810326 331.442651 
L 275.717023 331.442651 
L 275.860186 332.649429 
L 276.528279 332.653253 
L 278.198512 332.434088 
L 278.58028 332.445089 
L 279.486977 332.311495 
L 280.202791 332.252308 
L 283.925024 331.693593 
L 284.640838 331.568891 
L 285.21349 331.538289 
L 287.408653 331.538289 
L 287.551816 331.765136 
L 289.031165 332.713261 
L 289.412932 333.046711 
L 290.749118 333.738775 
L 292.228467 334.251467 
L 292.562514 334.342257 
L 293.182886 334.438317 
L 294.328188 334.693291 
L 295.044003 334.815963 
L 299.100282 334.967033 
L 299.243445 336.107115 
L 299.52977 336.017905 
L 299.911538 335.906275 
L 300.818236 336.004746 
L 301.629492 336.091986 
L 302.05898 336.160219 
L 302.774794 336.241124 
L 303.299724 336.278099 
L 307.546888 336.740766 
L 310.791911 336.783138 
L 310.935074 332.905233 
L 311.030516 332.833298 
L 311.173679 332.897606 
L 311.412284 332.835611 
L 311.984935 333.121057 
L 312.462144 332.953514 
L 312.843912 332.772937 
L 313.321121 332.605904 
L 313.79833 332.457178 
L 314.705028 332.252922 
L 316.804749 331.591384 
L 317.281959 331.455914 
L 319.477122 331.323671 
L 321.481401 331.337445 
L 322.43582 331.337445 
L 322.578983 331.609995 
L 323.48568 332.045362 
L 324.249215 332.315085 
L 325.346797 332.502397 
L 326.587541 332.63987 
L 332.838984 333.023523 
L 334.17517 332.912918 
L 338.374612 332.881194 
L 341.190148 332.935374 
L 345.819078 332.958642 
L 345.962241 333.115712 
L 348.634614 333.060135 
L 350.161684 332.998157 
L 350.257125 332.988466 
L 350.400288 333.235282 
L 378.841966 333.12574 
L 386.954525 332.875786 
L 392.967363 332.780659 
L 413.72597 332.732302 
L 427.803646 332.809054 
L 427.99453 332.879627 
L 429.330716 332.930523 
L 434.293694 333.03785 
L 435.963926 333.095063 
L 438.68402 333.143582 
L 442.215369 333.252982 
L 447.703277 333.398657 
L 462.878534 333.405577 
L 462.926255 334.650669 
L 462.973976 334.590055 
L 463.117139 333.609393 
L 463.355744 335.098202 
L 463.546627 335.697474 
L 463.594348 335.585471 
L 464.071558 335.138135 
L 464.167 335.06275 
L 464.357883 334.704242 
L 464.501046 334.633851 
L 464.69193 334.455201 
L 465.21686 333.834992 
L 465.360023 333.958146 
L 465.503186 333.966283 
L 465.980395 333.985069 
L 466.266721 333.833507 
L 466.791651 333.803843 
L 466.982535 333.806107 
L 467.364302 333.976456 
L 467.602907 333.740936 
L 467.650628 333.824703 
L 467.889233 334.284027 
L 467.936954 334.263921 
L 468.032395 334.197832 
L 468.557326 333.087906 
L 468.79593 333.052892 
L 468.939093 332.99163 
L 469.225419 333.138036 
L 469.511744 332.969354 
L 470.323 332.781579 
L 470.513884 332.683887 
L 470.704768 332.651482 
L 470.943373 332.601241 
L 471.32514 332.44109 
L 471.468303 332.372109 
L 471.897791 332.020725 
L 472.470442 332.030903 
L 474.570164 332.030903 
L 474.713326 332.328079 
L 474.999652 332.772169 
L 475.190536 333.109502 
L 475.238257 332.986475 
L 475.285978 333.089138 
L 475.476861 333.572077 
L 475.524582 333.518008 
L 475.572303 333.486052 
L 475.810908 333.741786 
L 476.144955 334.200725 
L 477.815187 334.670795 
L 478.101513 334.923819 
L 478.292397 334.932466 
L 479.389978 335.121831 
L 480.105792 335.366838 
L 480.630723 335.466177 
L 481.919188 335.553851 
L 483.303095 335.550296 
L 486.261793 335.51367 
L 486.404956 333.967673 
L 487.168491 333.807117 
L 487.6457 333.883439 
L 488.17063 333.970619 
L 488.504677 333.887475 
L 489.17277 333.995314 
L 491.988305 333.922549 
L 492.465515 333.841225 
L 493.22905 333.750313 
L 493.563096 333.674638 
L 494.183468 333.663245 
L 494.517515 333.652323 
L 495.376492 333.677137 
L 497.953422 333.677137 
L 498.096585 334.721471 
L 498.907841 335.375026 
L 499.194167 335.50683 
L 499.814539 335.617451 
L 500.530353 335.573609 
L 501.293888 335.806596 
L 501.580213 335.829093 
L 502.009702 336.011328 
L 503.202725 336.057871 
L 503.775376 336.031632 
L 505.111563 336.240458 
L 506.49547 336.264629 
L 510.026819 336.269033 
L 510.933517 335.811126 
L 511.887936 335.361207 
L 512.221982 335.338807 
L 512.699192 335.196052 
L 513.319564 335.001323 
L 513.892215 334.899154 
L 514.703471 334.696624 
L 515.228401 334.49918 
L 516.18282 334.275553 
L 516.70775 334.154034 
L 518.043936 333.928354 
L 519.427843 333.748971 
L 521.336681 333.748971 
L 521.432123 333.446016 
L 521.479844 333.454927 
L 522.863751 333.932273 
L 523.531844 334.394945 
L 525.297519 335.088665 
L 528.303938 335.62392 
L 529.162914 335.709667 
L 530.021891 335.792424 
L 532.169333 335.829485 
L 533.02831 335.829485 
L 533.171473 336.720643 
L 533.457799 336.620752 
L 533.839566 336.50234 
L 534.746264 336.589574 
L 535.55752 336.667714 
L 535.987008 336.731459 
L 536.702822 336.805338 
L 537.227753 336.837246 
L 541.856683 337.301593 
L 544.71994 337.309876 
L 544.863102 333.726153 
L 544.958544 333.664185 
L 545.101707 333.746442 
L 545.340312 333.718848 
L 545.912963 334.086555 
L 546.390172 333.982643 
L 546.724219 333.852857 
L 547.440033 333.695112 
L 548.394452 333.571583 
L 548.728498 333.510255 
L 549.110266 333.417656 
L 552.546173 332.929801 
L 553.357429 332.986018 
L 556.363848 333.023743 
L 556.507011 333.167685 
L 557.556871 333.468503 
L 557.98636 333.581263 
L 558.988499 333.596109 
L 560.56329 333.709365 
L 562.758453 333.811864 
L 566.098919 333.947722 
L 577.074734 334.056709 
L 579.365339 334.061001 
L 579.747107 334.061001 
L 579.890269 334.455747 
L 583.99427 334.59972 
L 584.185154 334.586113 
L 584.328316 333.235285 
L 604.514272 333.125171 
L 604.89604 333.07242 
L 606.089063 333.89846 
L 606.327668 334.195853 
L 606.709435 334.032242 
L 607.138924 333.456671 
L 607.520691 333.261349 
L 607.711575 333.440245 
L 607.902459 333.463673 
L 608.236505 333.390169 
L 608.522831 333.223627 
L 608.665994 333.202195 
L 608.952319 333.284775 
L 609.381808 333.208607 
L 609.954459 333.185793 
L 610.383947 333.123989 
L 611.52925 332.973349 
L 612.435948 332.747788 
L 613.628971 332.647638 
L 615.680971 332.508881 
L 616.11046 332.494181 
L 616.539948 332.573915 
L 616.873995 332.582231 
L 618.448786 332.781255 
L 619.450925 332.898294 
L 632.526462 333.189672 
L 635.437439 333.357217 
L 638.491579 333.310139 
L 638.682463 333.102702 
L 638.968788 332.630144 
L 639.302835 332.195406 
L 639.684602 332.003673 
L 639.732323 331.998242 
L 639.970928 331.637474 
L 640.161812 331.83095 
L 640.352695 331.048623 
L 640.448137 330.908068 
L 640.495858 330.994158 
L 640.734463 332.019248 
L 640.877626 331.830288 
L 640.973067 331.906524 
L 641.020788 331.843904 
L 641.163951 331.766423 
L 641.259393 331.91885 
L 641.497998 331.513201 
L 641.545719 331.550269 
L 641.59344 331.549547 
L 641.736602 332.195901 
L 641.784323 332.146965 
L 641.927486 331.463267 
L 641.975207 331.546973 
L 642.070649 331.774603 
L 642.166091 332.125312 
L 642.213812 332.042293 
L 642.404696 331.70023 
L 642.452416 331.765946 
L 642.500137 331.940742 
L 642.881905 329.346201 
L 643.025068 329.682191 
L 643.12051 329.918641 
L 643.168231 329.759028 
L 643.311393 329.544817 
L 643.406835 329.530865 
L 643.549998 330.216415 
L 643.597719 330.156238 
L 643.979486 329.566158 
L 644.074928 329.278349 
L 644.122649 329.299236 
L 644.218091 329.491322 
L 644.265812 329.379837 
L 644.743021 327.901686 
L 644.933905 326.9513 
L 645.077068 327.29564 
L 645.124789 327.129397 
L 645.267952 326.686516 
L 645.315673 326.754638 
L 645.458835 327.273709 
L 645.506556 327.154205 
L 645.649719 327.667646 
L 645.69744 327.678013 
L 645.792882 327.476994 
L 645.888324 327.822277 
L 646.22237 326.171124 
L 646.270091 326.15955 
L 646.365533 325.672742 
L 646.556417 324.611128 
L 646.604138 324.647051 
L 646.651859 324.618953 
L 646.69958 324.743404 
L 646.938184 326.085241 
L 647.081347 326.431857 
L 647.176789 326.744126 
L 647.367673 327.940152 
L 647.558557 327.976778 
L 650.040045 327.976778 
L 650.183208 314.210217 
L 650.374092 313.292925 
L 650.517255 314.039195 
L 650.612697 313.80033 
L 651.137627 312.990571 
L 651.28079 313.181983 
L 651.757999 314.032438 
L 651.996604 314.475251 
L 652.235208 315.258118 
L 652.33065 315.166878 
L 652.473813 314.879936 
L 652.664697 315.161437 
L 652.712418 315.107889 
L 652.855581 315.031029 
L 652.951022 315.049366 
L 653.285069 315.541545 
L 653.380511 315.707879 
L 653.762278 316.660541 
L 653.85772 316.75248 
L 655.003023 317.617428 
L 655.193906 317.756275 
L 655.766558 317.923025 
L 656.38693 318.268028 
L 657.007302 318.432963 
L 658.152604 318.454664 
L 658.868418 318.286004 
L 659.631953 318.215551 
L 661.731675 318.215551 
L 661.874837 320.455426 
L 662.018 320.986527 
L 662.590651 322.649983 
L 662.638372 322.645099 
L 662.829256 322.909417 
L 663.115582 322.981572 
L 663.258745 322.801684 
L 663.497349 323.034495 
L 663.688233 323.173724 
L 663.926838 323.270672 
L 664.308605 323.816452 
L 664.356326 323.838643 
L 664.785815 325.232652 
L 664.976698 325.204621 
L 665.263024 325.699216 
L 665.453908 325.960293 
L 665.59707 326.101092 
L 665.644791 326.051756 
L 665.787954 326.06699 
L 665.978838 326.265763 
L 666.265164 326.811533 
L 666.360605 326.856243 
L 667.171861 328.451097 
L 667.315024 328.446191 
L 668.030838 328.739301 
L 668.174001 328.385234 
L 668.317164 328.234586 
L 668.460327 328.295765 
L 668.603489 328.368728 
L 668.794373 328.583467 
L 669.701071 330.669226 
L 670.17828 332.125377 
L 670.798652 333.662125 
L 673.423304 333.662125 
L 673.518746 337.161126 
L 673.566467 337.158906 
L 673.70963 337.277048 
L 673.852792 337.517165 
L 673.900513 337.481687 
L 674.139118 337.365391 
L 674.282281 337.3258 
L 674.711769 337.299372 
L 674.902653 337.448644 
L 675.379862 338.078459 
L 675.475304 338.265856 
L 675.618467 338.421235 
L 675.809351 338.487313 
L 676.047955 338.632107 
L 676.382002 339.318216 
L 676.477444 339.436826 
L 676.859211 339.822753 
L 677.145537 340.069276 
L 677.336421 340.23503 
L 677.527304 340.047002 
L 677.670467 340.367708 
L 678.290839 341.537691 
L 678.672607 341.89272 
L 678.863491 341.874721 
L 678.958932 341.941959 
L 679.579305 342.669359 
L 680.151956 343.586787 
L 680.486002 344.219605 
L 680.629165 344.38909 
L 680.676886 344.381848 
L 681.058654 344.998024 
L 681.201816 345.05706 
L 682.681165 346.716218 
L 685.114933 346.716218 
L 685.162654 361.201705 
L 685.210375 350.780198 
L 685.353538 346.976847 
L 685.544422 346.425473 
L 685.735305 346.343723 
L 685.878468 346.353098 
L 686.069352 346.370393 
L 686.355678 346.449501 
L 687.071492 346.439683 
L 687.691864 346.545759 
L 688.02591 346.530843 
L 688.312236 346.94213 
L 688.50312 346.744735 
L 688.694003 346.52914 
L 688.932608 346.66846 
L 689.075771 346.671096 
L 689.505259 346.599047 
L 689.791585 346.894891 
L 690.173352 346.569144 
L 690.459678 346.19897 
L 690.698283 346.275183 
L 691.08005 345.773585 
L 691.127771 345.815793 
L 691.366376 345.965107 
L 691.509539 346.043049 
L 691.843585 345.657148 
L 692.034469 345.223711 
L 692.225353 345.473849 
L 692.416236 345.404052 
L 692.559399 345.46542 
L 692.654841 345.448274 
L 692.941167 344.977145 
L 693.179771 344.529447 
L 693.227492 344.658319 
L 693.418376 345.105233 
L 693.466097 345.072149 
L 693.800144 344.673676 
L 694.181911 344.168064 
L 696.806563 344.168064 
L 696.949725 523.512727 
L 696.997446 521.246237 
L 697.331493 495.834778 
L 697.474656 492.325493 
L 698.285912 420.190536 
L 698.333632 419.947896 
L 698.7154 398.096759 
L 699.144888 377.871937 
L 699.24033 379.888277 
L 699.288051 379.006795 
L 699.335772 378.128284 
L 699.383493 378.586135 
L 699.431214 379.108264 
L 699.478935 379.056426 
L 699.526656 378.810127 
L 699.622098 379.487641 
L 699.71754 379.540686 
L 699.765261 378.403991 
L 700.099307 368.817757 
L 700.147028 368.724529 
L 700.194749 369.648166 
L 700.24247 369.443726 
L 700.290191 369.053417 
L 700.337912 369.391221 
L 700.481075 370.704225 
L 700.528796 370.531768 
L 700.815121 366.794623 
L 700.862842 366.898861 
L 700.910563 367.064227 
L 701.196889 371.504746 
L 701.24461 371.008656 
L 701.340051 369.531946 
L 701.530935 365.304168 
L 701.817261 375.647651 
L 701.912703 374.974804 
L 702.055866 369.07642 
L 702.580796 352.834088 
L 702.628517 352.830417 
L 702.723959 352.562666 
L 702.8194 351.580607 
L 702.867121 351.891973 
L 703.105726 355.032962 
L 703.153447 354.42839 
L 703.29661 351.566384 
L 703.392052 351.930142 
L 703.487494 352.374612 
L 703.535215 351.808055 
L 703.582935 352.090483 
L 703.726098 353.545882 
L 703.773819 353.344653 
L 704.060145 351.586886 
L 704.585075 348.494884 
L 704.632796 348.47399 
L 704.82368 347.387829 
L 704.871401 347.840287 
L 704.919122 347.37982 
L 705.157726 345.136194 
L 705.253168 345.68597 
L 705.300889 345.882829 
L 705.444052 344.063972 
L 705.587215 341.935025 
L 705.682657 340.284894 
L 705.730378 340.328434 
L 705.778099 340.615214 
L 705.825819 340.149004 
L 705.87354 340.334494 
L 708.498192 340.334494 
L 708.545913 334.630483 
L 708.641355 334.793237 
L 708.879959 335.347314 
L 708.975401 335.581542 
L 709.118564 335.981494 
L 709.166285 335.898786 
L 709.548052 336.785317 
L 709.786657 337.100081 
L 710.025262 337.555179 
L 711.647774 337.710954 
L 712.124983 338.057156 
L 713.461169 338.21828 
L 713.842937 338.380553 
L 714.51103 338.515034 
L 715.656332 338.642384 
L 716.706193 338.62405 
L 717.56517 338.589625 
L 720.189821 338.589625 
L 720.332984 336.450407 
L 720.714751 336.225796 
L 720.857914 336.184034 
L 721.001077 336.326728 
L 721.430566 336.668777 
L 721.66917 336.697163 
L 722.050938 336.809205 
L 722.384984 336.624961 
L 722.766752 336.792733 
L 723.959775 336.978277 
L 724.246101 337.062691 
L 725.820892 337.004793 
L 726.202659 336.776322 
L 726.918473 336.838327 
L 727.395683 336.712825 
L 728.445543 336.934686 
L 728.875032 337.084366 
L 729.30452 337.064271 
L 731.88145 337.064271 
L 732.024613 337.616673 
L 732.692706 337.976398 
L 733.217637 338.03824 
L 733.503962 338.02637 
L 733.694846 338.050716 
L 734.124334 337.846047 
L 734.601544 337.813651 
L 735.031032 337.867432 
L 735.603684 337.825211 
L 735.985451 337.930374 
L 738.46694 337.753992 
L 739.039591 337.768863 
L 739.898568 337.680297 
L 743.57308 337.7356 
L 743.716243 337.559739 
L 744.432057 337.146025 
L 744.766103 336.982431 
L 745.004708 336.833951 
L 745.62508 336.501528 
L 746.770383 336.292462 
L 747.199871 336.14476 
L 747.820243 336.068152 
L 748.67922 335.846295 
L 749.299592 335.640589 
L 751.017546 335.232475 
L 751.73336 335.143788 
L 753.308151 334.908878 
L 755.264709 334.908878 
L 755.407872 333.758296 
L 756.410012 334.012399 
L 756.8395 334.264202 
L 757.316709 334.65004 
L 757.698477 334.797434 
L 758.032523 334.949857 
L 759.273268 335.495194 
L 760.323128 335.714816 
L 760.704896 335.806973 
L 761.563873 335.933322 
L 762.661454 336.148294 
L 763.615873 336.215021 
L 764.665734 336.254142 
L 766.956338 336.254142 
L 767.099501 337.567751 
L 767.338106 337.517708 
L 767.624432 337.21443 
L 768.531129 337.422745 
L 769.342385 337.679081 
L 769.724153 337.69311 
L 770.201362 337.82166 
L 770.678571 337.898372 
L 771.155781 337.986302 
L 771.967037 338.08222 
L 772.301083 338.185908 
L 773.16006 338.398152 
L 773.68499 338.524896 
L 774.448525 338.616059 
L 774.925735 338.658109 
L 776.2142 338.798906 
L 778.647968 338.798906 
L 778.791131 332.457315 
L 778.886572 332.385173 
L 779.029735 332.477393 
L 779.26834 332.446234 
L 779.840991 332.852506 
L 780.318201 332.747895 
L 780.652247 332.614714 
L 781.224898 332.480602 
L 781.892991 332.37312 
L 783.420061 332.125311 
L 783.897271 332.091905 
L 784.183596 332.018025 
L 785.138015 331.747857 
L 787.476341 331.819565 
L 788.192155 331.841493 
L 790.387318 331.951776 
L 791.4849 332.211289 
L 791.914388 332.308195 
L 792.916528 332.290678 
L 794.58676 332.374216 
L 797.020528 332.443386 
L 798.738482 332.508874 
L 800.456436 332.541419 
L 801.983505 332.541419 
L 802.126668 332.408977 
L 803.892343 332.417139 
L 812.052623 332.62971 
L 813.675135 332.62971 
L 813.818298 333.08641 
L 817.540531 333.270699 
L 818.113182 333.249146 
L 818.113182 333.249146 
" clip-path="url(#pd9952a6849)" style="fill: none; stroke-dasharray: 5.55,2.4; stroke-dashoffset: 0; stroke: #ff0000; stroke-width: 1.5"/>
   </g>
   <g id="line2d_67">
    <path d="M 350.304846 534.04 
L 350.304846 302.44 
" clip-path="url(#pd9952a6849)" style="fill: none; stroke-dasharray: 1.5,2.475; stroke-dashoffset: 0; stroke: #808080; stroke-opacity: 0.6; stroke-width: 1.5"/>
   </g>
   <g id="line2d_68">
    <path d="M 584.232875 534.04 
L 584.232875 302.44 
" clip-path="url(#pd9952a6849)" style="fill: none; stroke-dasharray: 1.5,2.475; stroke-dashoffset: 0; stroke: #808080; stroke-opacity: 0.6; stroke-width: 1.5"/>
   </g>
   <g id="patch_9">
    <path d="M 81.29 534.04 
L 81.29 302.44 
" style="fill: none; stroke: #000000; stroke-width: 0.8; stroke-linejoin: miter; stroke-linecap: square"/>
   </g>
   <g id="patch_10">
    <path d="M 853.2 534.04 
L 853.2 302.44 
" style="fill: none; stroke: #000000; stroke-width: 0.8; stroke-linejoin: miter; stroke-linecap: square"/>
   </g>
   <g id="patch_11">
    <path d="M 81.29 534.04 
L 853.2 534.04 
" style="fill: none; stroke: #000000; stroke-width: 0.8; stroke-linejoin: miter; stroke-linecap: square"/>
   </g>
   <g id="patch_12">
    <path d="M 81.29 302.44 
L 853.2 302.44 
" style="fill: none; stroke: #000000; stroke-width: 0.8; stroke-linejoin: miter; stroke-linecap: square"/>
   </g>
   <g id="text_36">
    <!-- [12] Kg_xx  —  State Estimate -->
    <g transform="translate(377.257187 296.44) scale(0.12 -0.12)">
     <use xlink:href="#DejaVuSans-5b"/>
     <use xlink:href="#DejaVuSans-31" transform="translate(39.013672 0)"/>
     <use xlink:href="#DejaVuSans-32" transform="translate(102.636719 0)"/>
     <use xlink:href="#DejaVuSans-5d" transform="translate(166.259766 0)"/>
     <use xlink:href="#DejaVuSans-20" transform="translate(205.273438 0)"/>
     <use xlink:href="#DejaVuSans-4b" transform="translate(237.060547 0)"/>
     <use xlink:href="#DejaVuSans-67" transform="translate(302.636719 0)"/>
     <use xlink:href="#DejaVuSans-5f" transform="translate(366.113281 0)"/>
     <use xlink:href="#DejaVuSans-78" transform="translate(416.113281 0)"/>
     <use xlink:href="#DejaVuSans-78" transform="translate(475.292969 0)"/>
     <use xlink:href="#DejaVuSans-20" transform="translate(534.472656 0)"/>
     <use xlink:href="#DejaVuSans-20" transform="translate(566.259766 0)"/>
     <use xlink:href="#DejaVuSans-2014" transform="translate(598.046875 0)"/>
     <use xlink:href="#DejaVuSans-20" transform="translate(698.046875 0)"/>
     <use xlink:href="#DejaVuSans-20" transform="translate(729.833984 0)"/>
     <use xlink:href="#DejaVuSans-53" transform="translate(761.621094 0)"/>
     <use xlink:href="#DejaVuSans-74" transform="translate(825.097656 0)"/>
     <use xlink:href="#DejaVuSans-61" transform="translate(864.306641 0)"/>
     <use xlink:href="#DejaVuSans-74" transform="translate(925.585938 0)"/>
     <use xlink:href="#DejaVuSans-65" transform="translate(964.794922 0)"/>
     <use xlink:href="#DejaVuSans-20" transform="translate(1026.318359 0)"/>
     <use xlink:href="#DejaVuSans-45" transform="translate(1058.105469 0)"/>
     <use xlink:href="#DejaVuSans-73" transform="translate(1121.289062 0)"/>
     <use xlink:href="#DejaVuSans-74" transform="translate(1173.388672 0)"/>
     <use xlink:href="#DejaVuSans-69" transform="translate(1212.597656 0)"/>
     <use xlink:href="#DejaVuSans-6d" transform="translate(1240.380859 0)"/>
     <use xlink:href="#DejaVuSans-61" transform="translate(1337.792969 0)"/>
     <use xlink:href="#DejaVuSans-74" transform="translate(1399.072266 0)"/>
     <use xlink:href="#DejaVuSans-65" transform="translate(1438.28125 0)"/>
    </g>
   </g>
   <g id="legend_2">
    <g id="patch_13">
     <path d="M 88.29 529.04 
L 200.147812 529.04 
Q 202.147812 529.04 202.147812 527.04 
L 202.147812 498.68375 
Q 202.147812 496.68375 200.147812 496.68375 
L 88.29 496.68375 
Q 86.29 496.68375 86.29 498.68375 
L 86.29 527.04 
Q 86.29 529.04 88.29 529.04 
z
" style="fill: #ffffff; opacity: 0.8; stroke: #cccccc; stroke-linejoin: miter"/>
    </g>
    <g id="line2d_69">
     <path d="M 90.29 504.782187 
L 100.29 504.782187 
L 110.29 504.782187 
" style="fill: none; stroke: #0000ff; stroke-width: 1.5; stroke-linecap: square"/>
    </g>
    <g id="text_37">
     <!-- Ideal (No Noise) -->
     <g transform="translate(118.29 508.282187) scale(0.1 -0.1)">
      <use xlink:href="#DejaVuSans-49"/>
      <use xlink:href="#DejaVuSans-64" transform="translate(29.492188 0)"/>
      <use xlink:href="#DejaVuSans-65" transform="translate(92.96875 0)"/>
      <use xlink:href="#DejaVuSans-61" transform="translate(154.492188 0)"/>
      <use xlink:href="#DejaVuSans-6c" transform="translate(215.771484 0)"/>
      <use xlink:href="#DejaVuSans-20" transform="translate(243.554688 0)"/>
      <use xlink:href="#DejaVuSans-28" transform="translate(275.341797 0)"/>
      <use xlink:href="#DejaVuSans-4e" transform="translate(314.355469 0)"/>
      <use xlink:href="#DejaVuSans-6f" transform="translate(389.160156 0)"/>
      <use xlink:href="#DejaVuSans-20" transform="translate(450.341797 0)"/>
      <use xlink:href="#DejaVuSans-4e" transform="translate(482.128906 0)"/>
      <use xlink:href="#DejaVuSans-6f" transform="translate(556.933594 0)"/>
      <use xlink:href="#DejaVuSans-69" transform="translate(618.115234 0)"/>
      <use xlink:href="#DejaVuSans-73" transform="translate(645.898438 0)"/>
      <use xlink:href="#DejaVuSans-65" transform="translate(697.998047 0)"/>
      <use xlink:href="#DejaVuSans-29" transform="translate(759.521484 0)"/>
     </g>
    </g>
    <g id="line2d_70">
     <path d="M 90.29 519.460312 
L 100.29 519.460312 
L 110.29 519.460312 
" style="fill: none; stroke-dasharray: 5.55,2.4; stroke-dashoffset: 0; stroke: #ff0000; stroke-width: 1.5"/>
    </g>
    <g id="text_38">
     <!-- With Full Noise -->
     <g transform="translate(118.29 522.960312) scale(0.1 -0.1)">
      <use xlink:href="#DejaVuSans-57"/>
      <use xlink:href="#DejaVuSans-69" transform="translate(96.626953 0)"/>
      <use xlink:href="#DejaVuSans-74" transform="translate(124.410156 0)"/>
      <use xlink:href="#DejaVuSans-68" transform="translate(163.619141 0)"/>
      <use xlink:href="#DejaVuSans-20" transform="translate(226.998047 0)"/>
      <use xlink:href="#DejaVuSans-46" transform="translate(258.785156 0)"/>
      <use xlink:href="#DejaVuSans-75" transform="translate(310.804688 0)"/>
      <use xlink:href="#DejaVuSans-6c" transform="translate(374.183594 0)"/>
      <use xlink:href="#DejaVuSans-6c" transform="translate(401.966797 0)"/>
      <use xlink:href="#DejaVuSans-20" transform="translate(429.75 0)"/>
      <use xlink:href="#DejaVuSans-4e" transform="translate(461.537109 0)"/>
      <use xlink:href="#DejaVuSans-6f" transform="translate(536.341797 0)"/>
      <use xlink:href="#DejaVuSans-69" transform="translate(597.523438 0)"/>
      <use xlink:href="#DejaVuSans-73" transform="translate(625.306641 0)"/>
      <use xlink:href="#DejaVuSans-65" transform="translate(677.40625 0)"/>
     </g>
    </g>
   </g>
  </g>
 </g>
 <defs>
  <clipPath id="pf59ebf438a">
   <rect x="81.29" y="26.88" width="771.91" height="231.6"/>
  </clipPath>
  <clipPath id="pd9952a6849">
   <rect x="81.29" y="302.44" width="771.91" height="231.6"/>
  </clipPath>
 </defs>
</svg>
