<?xml version="1.0" encoding="utf-8" standalone="no"?>
<!DOCTYPE svg PUBLIC "-//W3C//DTD SVG 1.1//EN"
  "http://www.w3.org/Graphics/SVG/1.1/DTD/svg11.dtd">
<svg xmlns:xlink="http://www.w3.org/1999/xlink" width="864pt" height="576pt" viewBox="0 0 864 576" xmlns="http://www.w3.org/2000/svg" version="1.1">
 <metadata>
  <rdf:RDF xmlns:dc="http://purl.org/dc/elements/1.1/" xmlns:cc="http://creativecommons.org/ns#" xmlns:rdf="http://www.w3.org/1999/02/22-rdf-syntax-ns#">
   <cc:Work>
    <dc:type rdf:resource="http://purl.org/dc/dcmitype/StillImage"/>
    <dc:date>2026-03-03T11:38:08.330269</dc:date>
    <dc:format>image/svg+xml</dc:format>
    <dc:creator>
     <cc:Agent>
      <dc:title>Matplotlib v3.10.8, https://matplotlib.org/</dc:title>
     </cc:Agent>
    </dc:creator>
   </cc:Work>
  </rdf:RDF>
 </metadata>
 <defs>
  <style type="text/css">*{stroke-linejoin: round; stroke-linecap: butt}</style>
 </defs>
 <g id="figure_1">
  <g id="patch_1">
   <path d="M 0 576 
L 864 576 
L 864 0 
L 0 0 
z
" style="fill: #ffffff"/>
  </g>
  <g id="axes_1">
   <g id="patch_2">
    <path d="M 66.62 258.48 
L 853.2 258.48 
L 853.2 26.88 
L 66.62 26.88 
z
" style="fill: #ffffff"/>
   </g>
   <g id="matplotlib.axis_1">
    <g id="xtick_1">
     <g id="line2d_1">
      <path d="M 102.373636 258.48 
L 102.373636 26.88 
" clip-path="url(#pe4373d190f)" style="fill: none; stroke: #b0b0b0; stroke-width: 0.8; stroke-linecap: square"/>
     </g>
     <g id="line2d_2">
      <defs>
       <path id="mef99bf4628" d="M 0 0 
L 0 3.5 
" style="stroke: #000000; stroke-width: 0.8"/>
      </defs>
      <g>
       <use xlink:href="#mef99bf4628" x="102.373636" y="258.48" style="stroke: #000000; stroke-width: 0.8"/>
      </g>
     </g>
     <g id="text_1">
      <!-- 0 -->
      <g transform="translate(99.192386 273.078438) scale(0.1 -0.1)">
       <defs>
        <path id="DejaVuSans-30" d="M 2034 4250 
Q 1547 4250 1301 3770 
Q 1056 3291 1056 2328 
Q 1056 1369 1301 889 
Q 1547 409 2034 409 
Q 2525 409 2770 889 
Q 3016 1369 3016 2328 
Q 3016 3291 2770 3770 
Q 2525 4250 2034 4250 
z
M 2034 4750 
Q 2819 4750 3233 4129 
Q 3647 3509 3647 2328 
Q 3647 1150 3233 529 
Q 2819 -91 2034 -91 
Q 1250 -91 836 529 
Q 422 1150 422 2328 
Q 422 3509 836 4129 
Q 1250 4750 2034 4750 
z
" transform="scale(0.015625)"/>
       </defs>
       <use xlink:href="#DejaVuSans-30"/>
      </g>
     </g>
    </g>
    <g id="xtick_2">
     <g id="line2d_3">
      <path d="M 223.943294 258.48 
L 223.943294 26.88 
" clip-path="url(#pe4373d190f)" style="fill: none; stroke: #b0b0b0; stroke-width: 0.8; stroke-linecap: square"/>
     </g>
     <g id="line2d_4">
      <g>
       <use xlink:href="#mef99bf4628" x="223.943294" y="258.48" style="stroke: #000000; stroke-width: 0.8"/>
      </g>
     </g>
     <g id="text_2">
      <!-- 50 -->
      <g transform="translate(217.580794 273.078438) scale(0.1 -0.1)">
       <defs>
        <path id="DejaVuSans-35" d="M 691 4666 
L 3169 4666 
L 3169 4134 
L 1269 4134 
L 1269 2991 
Q 1406 3038 1543 3061 
Q 1681 3084 1819 3084 
Q 2600 3084 3056 2656 
Q 3513 2228 3513 1497 
Q 3513 744 3044 326 
Q 2575 -91 1722 -91 
Q 1428 -91 1123 -41 
Q 819 9 494 109 
L 494 744 
Q 775 591 1075 516 
Q 1375 441 1709 441 
Q 2250 441 2565 725 
Q 2881 1009 2881 1497 
Q 2881 1984 2565 2268 
Q 2250 2553 1709 2553 
Q 1456 2553 1204 2497 
Q 953 2441 691 2322 
L 691 4666 
z
" transform="scale(0.015625)"/>
       </defs>
       <use xlink:href="#DejaVuSans-35"/>
       <use xlink:href="#DejaVuSans-30" transform="translate(63.623047 0)"/>
      </g>
     </g>
    </g>
    <g id="xtick_3">
     <g id="line2d_5">
      <path d="M 345.512952 258.48 
L 345.512952 26.88 
" clip-path="url(#pe4373d190f)" style="fill: none; stroke: #b0b0b0; stroke-width: 0.8; stroke-linecap: square"/>
     </g>
     <g id="line2d_6">
      <g>
       <use xlink:href="#mef99bf4628" x="345.512952" y="258.48" style="stroke: #000000; stroke-width: 0.8"/>
      </g>
     </g>
     <g id="text_3">
      <!-- 100 -->
      <g transform="translate(335.969202 273.078438) scale(0.1 -0.1)">
       <defs>
        <path id="DejaVuSans-31" d="M 794 531 
L 1825 531 
L 1825 4091 
L 703 3866 
L 703 4441 
L 1819 4666 
L 2450 4666 
L 2450 531 
L 3481 531 
L 3481 0 
L 794 0 
L 794 531 
z
" transform="scale(0.015625)"/>
       </defs>
       <use xlink:href="#DejaVuSans-31"/>
       <use xlink:href="#DejaVuSans-30" transform="translate(63.623047 0)"/>
       <use xlink:href="#DejaVuSans-30" transform="translate(127.246094 0)"/>
      </g>
     </g>
    </g>
    <g id="xtick_4">
     <g id="line2d_7">
      <path d="M 467.08261 258.48 
L 467.08261 26.88 
" clip-path="url(#pe4373d190f)" style="fill: none; stroke: #b0b0b0; stroke-width: 0.8; stroke-linecap: square"/>
     </g>
     <g id="line2d_8">
      <g>
       <use xlink:href="#mef99bf4628" x="467.08261" y="258.48" style="stroke: #000000; stroke-width: 0.8"/>
      </g>
     </g>
     <g id="text_4">
      <!-- 150 -->
      <g transform="translate(457.53886 273.078438) scale(0.1 -0.1)">
       <use xlink:href="#DejaVuSans-31"/>
       <use xlink:href="#DejaVuSans-35" transform="translate(63.623047 0)"/>
       <use xlink:href="#DejaVuSans-30" transform="translate(127.246094 0)"/>
      </g>
     </g>
    </g>
    <g id="xtick_5">
     <g id="line2d_9">
      <path d="M 588.652268 258.48 
L 588.652268 26.88 
" clip-path="url(#pe4373d190f)" style="fill: none; stroke: #b0b0b0; stroke-width: 0.8; stroke-linecap: square"/>
     </g>
     <g id="line2d_10">
      <g>
       <use xlink:href="#mef99bf4628" x="588.652268" y="258.48" style="stroke: #000000; stroke-width: 0.8"/>
      </g>
     </g>
     <g id="text_5">
      <!-- 200 -->
      <g transform="translate(579.108518 273.078438) scale(0.1 -0.1)">
       <defs>
        <path id="DejaVuSans-32" d="M 1228 531 
L 3431 531 
L 3431 0 
L 469 0 
L 469 531 
Q 828 903 1448 1529 
Q 2069 2156 2228 2338 
Q 2531 2678 2651 2914 
Q 2772 3150 2772 3378 
Q 2772 3750 2511 3984 
Q 2250 4219 1831 4219 
Q 1534 4219 1204 4116 
Q 875 4013 500 3803 
L 500 4441 
Q 881 4594 1212 4672 
Q 1544 4750 1819 4750 
Q 2544 4750 2975 4387 
Q 3406 4025 3406 3419 
Q 3406 3131 3298 2873 
Q 3191 2616 2906 2266 
Q 2828 2175 2409 1742 
Q 1991 1309 1228 531 
z
" transform="scale(0.015625)"/>
       </defs>
       <use xlink:href="#DejaVuSans-32"/>
       <use xlink:href="#DejaVuSans-30" transform="translate(63.623047 0)"/>
       <use xlink:href="#DejaVuSans-30" transform="translate(127.246094 0)"/>
      </g>
     </g>
    </g>
    <g id="xtick_6">
     <g id="line2d_11">
      <path d="M 710.221925 258.48 
L 710.221925 26.88 
" clip-path="url(#pe4373d190f)" style="fill: none; stroke: #b0b0b0; stroke-width: 0.8; stroke-linecap: square"/>
     </g>
     <g id="line2d_12">
      <g>
       <use xlink:href="#mef99bf4628" x="710.221925" y="258.48" style="stroke: #000000; stroke-width: 0.8"/>
      </g>
     </g>
     <g id="text_6">
      <!-- 250 -->
      <g transform="translate(700.678175 273.078438) scale(0.1 -0.1)">
       <use xlink:href="#DejaVuSans-32"/>
       <use xlink:href="#DejaVuSans-35" transform="translate(63.623047 0)"/>
       <use xlink:href="#DejaVuSans-30" transform="translate(127.246094 0)"/>
      </g>
     </g>
    </g>
    <g id="xtick_7">
     <g id="line2d_13">
      <path d="M 831.791583 258.48 
L 831.791583 26.88 
" clip-path="url(#pe4373d190f)" style="fill: none; stroke: #b0b0b0; stroke-width: 0.8; stroke-linecap: square"/>
     </g>
     <g id="line2d_14">
      <g>
       <use xlink:href="#mef99bf4628" x="831.791583" y="258.48" style="stroke: #000000; stroke-width: 0.8"/>
      </g>
     </g>
     <g id="text_7">
      <!-- 300 -->
      <g transform="translate(822.247833 273.078438) scale(0.1 -0.1)">
       <defs>
        <path id="DejaVuSans-33" d="M 2597 2516 
Q 3050 2419 3304 2112 
Q 3559 1806 3559 1356 
Q 3559 666 3084 287 
Q 2609 -91 1734 -91 
Q 1441 -91 1130 -33 
Q 819 25 488 141 
L 488 750 
Q 750 597 1062 519 
Q 1375 441 1716 441 
Q 2309 441 2620 675 
Q 2931 909 2931 1356 
Q 2931 1769 2642 2001 
Q 2353 2234 1838 2234 
L 1294 2234 
L 1294 2753 
L 1863 2753 
Q 2328 2753 2575 2939 
Q 2822 3125 2822 3475 
Q 2822 3834 2567 4026 
Q 2313 4219 1838 4219 
Q 1578 4219 1281 4162 
Q 984 4106 628 3988 
L 628 4550 
Q 988 4650 1302 4700 
Q 1616 4750 1894 4750 
Q 2613 4750 3031 4423 
Q 3450 4097 3450 3541 
Q 3450 3153 3228 2886 
Q 3006 2619 2597 2516 
z
" transform="scale(0.015625)"/>
       </defs>
       <use xlink:href="#DejaVuSans-33"/>
       <use xlink:href="#DejaVuSans-30" transform="translate(63.623047 0)"/>
       <use xlink:href="#DejaVuSans-30" transform="translate(127.246094 0)"/>
      </g>
     </g>
    </g>
   </g>
   <g id="matplotlib.axis_2">
    <g id="ytick_1">
     <g id="line2d_15">
      <path d="M 66.62 248.452294 
L 853.2 248.452294 
" clip-path="url(#pe4373d190f)" style="fill: none; stroke: #b0b0b0; stroke-width: 0.8; stroke-linecap: square"/>
     </g>
     <g id="line2d_16">
      <defs>
       <path id="m5e13c92363" d="M 0 0 
L -3.5 0 
" style="stroke: #000000; stroke-width: 0.8"/>
      </defs>
      <g>
       <use xlink:href="#m5e13c92363" x="66.62" y="248.452294" style="stroke: #000000; stroke-width: 0.8"/>
      </g>
     </g>
     <g id="text_8">
      <!-- 0.000 -->
      <g transform="translate(30.991875 252.251513) scale(0.1 -0.1)">
       <defs>
        <path id="DejaVuSans-2e" d="M 684 794 
L 1344 794 
L 1344 0 
L 684 0 
L 684 794 
z
" transform="scale(0.015625)"/>
       </defs>
       <use xlink:href="#DejaVuSans-30"/>
       <use xlink:href="#DejaVuSans-2e" transform="translate(63.623047 0)"/>
       <use xlink:href="#DejaVuSans-30" transform="translate(95.410156 0)"/>
       <use xlink:href="#DejaVuSans-30" transform="translate(159.033203 0)"/>
       <use xlink:href="#DejaVuSans-30" transform="translate(222.65625 0)"/>
      </g>
     </g>
    </g>
    <g id="ytick_2">
     <g id="line2d_17">
      <path d="M 66.62 204.921134 
L 853.2 204.921134 
" clip-path="url(#pe4373d190f)" style="fill: none; stroke: #b0b0b0; stroke-width: 0.8; stroke-linecap: square"/>
     </g>
     <g id="line2d_18">
      <g>
       <use xlink:href="#m5e13c92363" x="66.62" y="204.921134" style="stroke: #000000; stroke-width: 0.8"/>
      </g>
     </g>
     <g id="text_9">
      <!-- 0.001 -->
      <g transform="translate(30.991875 208.720353) scale(0.1 -0.1)">
       <use xlink:href="#DejaVuSans-30"/>
       <use xlink:href="#DejaVuSans-2e" transform="translate(63.623047 0)"/>
       <use xlink:href="#DejaVuSans-30" transform="translate(95.410156 0)"/>
       <use xlink:href="#DejaVuSans-30" transform="translate(159.033203 0)"/>
       <use xlink:href="#DejaVuSans-31" transform="translate(222.65625 0)"/>
      </g>
     </g>
    </g>
    <g id="ytick_3">
     <g id="line2d_19">
      <path d="M 66.62 161.389973 
L 853.2 161.389973 
" clip-path="url(#pe4373d190f)" style="fill: none; stroke: #b0b0b0; stroke-width: 0.8; stroke-linecap: square"/>
     </g>
     <g id="line2d_20">
      <g>
       <use xlink:href="#m5e13c92363" x="66.62" y="161.389973" style="stroke: #000000; stroke-width: 0.8"/>
      </g>
     </g>
     <g id="text_10">
      <!-- 0.002 -->
      <g transform="translate(30.991875 165.189192) scale(0.1 -0.1)">
       <use xlink:href="#DejaVuSans-30"/>
       <use xlink:href="#DejaVuSans-2e" transform="translate(63.623047 0)"/>
       <use xlink:href="#DejaVuSans-30" transform="translate(95.410156 0)"/>
       <use xlink:href="#DejaVuSans-30" transform="translate(159.033203 0)"/>
       <use xlink:href="#DejaVuSans-32" transform="translate(222.65625 0)"/>
      </g>
     </g>
    </g>
    <g id="ytick_4">
     <g id="line2d_21">
      <path d="M 66.62 117.858813 
L 853.2 117.858813 
" clip-path="url(#pe4373d190f)" style="fill: none; stroke: #b0b0b0; stroke-width: 0.8; stroke-linecap: square"/>
     </g>
     <g id="line2d_22">
      <g>
       <use xlink:href="#m5e13c92363" x="66.62" y="117.858813" style="stroke: #000000; stroke-width: 0.8"/>
      </g>
     </g>
     <g id="text_11">
      <!-- 0.003 -->
      <g transform="translate(30.991875 121.658032) scale(0.1 -0.1)">
       <use xlink:href="#DejaVuSans-30"/>
       <use xlink:href="#DejaVuSans-2e" transform="translate(63.623047 0)"/>
       <use xlink:href="#DejaVuSans-30" transform="translate(95.410156 0)"/>
       <use xlink:href="#DejaVuSans-30" transform="translate(159.033203 0)"/>
       <use xlink:href="#DejaVuSans-33" transform="translate(222.65625 0)"/>
      </g>
     </g>
    </g>
    <g id="ytick_5">
     <g id="line2d_23">
      <path d="M 66.62 74.327652 
L 853.2 74.327652 
" clip-path="url(#pe4373d190f)" style="fill: none; stroke: #b0b0b0; stroke-width: 0.8; stroke-linecap: square"/>
     </g>
     <g id="line2d_24">
      <g>
       <use xlink:href="#m5e13c92363" x="66.62" y="74.327652" style="stroke: #000000; stroke-width: 0.8"/>
      </g>
     </g>
     <g id="text_12">
      <!-- 0.004 -->
      <g transform="translate(30.991875 78.126871) scale(0.1 -0.1)">
       <defs>
        <path id="DejaVuSans-34" d="M 2419 4116 
L 825 1625 
L 2419 1625 
L 2419 4116 
z
M 2253 4666 
L 3047 4666 
L 3047 1625 
L 3713 1625 
L 3713 1100 
L 3047 1100 
L 3047 0 
L 2419 0 
L 2419 1100 
L 313 1100 
L 313 1709 
L 2253 4666 
z
" transform="scale(0.015625)"/>
       </defs>
       <use xlink:href="#DejaVuSans-30"/>
       <use xlink:href="#DejaVuSans-2e" transform="translate(63.623047 0)"/>
       <use xlink:href="#DejaVuSans-30" transform="translate(95.410156 0)"/>
       <use xlink:href="#DejaVuSans-30" transform="translate(159.033203 0)"/>
       <use xlink:href="#DejaVuSans-34" transform="translate(222.65625 0)"/>
      </g>
     </g>
    </g>
    <g id="ytick_6">
     <g id="line2d_25">
      <path d="M 66.62 30.796492 
L 853.2 30.796492 
" clip-path="url(#pe4373d190f)" style="fill: none; stroke: #b0b0b0; stroke-width: 0.8; stroke-linecap: square"/>
     </g>
     <g id="line2d_26">
      <g>
       <use xlink:href="#m5e13c92363" x="66.62" y="30.796492" style="stroke: #000000; stroke-width: 0.8"/>
      </g>
     </g>
     <g id="text_13">
      <!-- 0.005 -->
      <g transform="translate(30.991875 34.595711) scale(0.1 -0.1)">
       <use xlink:href="#DejaVuSans-30"/>
       <use xlink:href="#DejaVuSans-2e" transform="translate(63.623047 0)"/>
       <use xlink:href="#DejaVuSans-30" transform="translate(95.410156 0)"/>
       <use xlink:href="#DejaVuSans-30" transform="translate(159.033203 0)"/>
       <use xlink:href="#DejaVuSans-35" transform="translate(222.65625 0)"/>
      </g>
     </g>
    </g>
    <g id="text_14">
     <!-- Std Dev -->
     <g transform="translate(24.912188 162.463594) rotate(-90) scale(0.1 -0.1)">
      <defs>
       <path id="DejaVuSans-53" d="M 3425 4513 
L 3425 3897 
Q 3066 4069 2747 4153 
Q 2428 4238 2131 4238 
Q 1616 4238 1336 4038 
Q 1056 3838 1056 3469 
Q 1056 3159 1242 3001 
Q 1428 2844 1947 2747 
L 2328 2669 
Q 3034 2534 3370 2195 
Q 3706 1856 3706 1288 
Q 3706 609 3251 259 
Q 2797 -91 1919 -91 
Q 1588 -91 1214 -16 
Q 841 59 441 206 
L 441 856 
Q 825 641 1194 531 
Q 1563 422 1919 422 
Q 2459 422 2753 634 
Q 3047 847 3047 1241 
Q 3047 1584 2836 1778 
Q 2625 1972 2144 2069 
L 1759 2144 
Q 1053 2284 737 2584 
Q 422 2884 422 3419 
Q 422 4038 858 4394 
Q 1294 4750 2059 4750 
Q 2388 4750 2728 4690 
Q 3069 4631 3425 4513 
z
" transform="scale(0.015625)"/>
       <path id="DejaVuSans-74" d="M 1172 4494 
L 1172 3500 
L 2356 3500 
L 2356 3053 
L 1172 3053 
L 1172 1153 
Q 1172 725 1289 603 
Q 1406 481 1766 481 
L 2356 481 
L 2356 0 
L 1766 0 
Q 1100 0 847 248 
Q 594 497 594 1153 
L 594 3053 
L 172 3053 
L 172 3500 
L 594 3500 
L 594 4494 
L 1172 4494 
z
" transform="scale(0.015625)"/>
       <path id="DejaVuSans-64" d="M 2906 2969 
L 2906 4863 
L 3481 4863 
L 3481 0 
L 2906 0 
L 2906 525 
Q 2725 213 2448 61 
Q 2172 -91 1784 -91 
Q 1150 -91 751 415 
Q 353 922 353 1747 
Q 353 2572 751 3078 
Q 1150 3584 1784 3584 
Q 2172 3584 2448 3432 
Q 2725 3281 2906 2969 
z
M 947 1747 
Q 947 1113 1208 752 
Q 1469 391 1925 391 
Q 2381 391 2643 752 
Q 2906 1113 2906 1747 
Q 2906 2381 2643 2742 
Q 2381 3103 1925 3103 
Q 1469 3103 1208 2742 
Q 947 2381 947 1747 
z
" transform="scale(0.015625)"/>
       <path id="DejaVuSans-20" transform="scale(0.015625)"/>
       <path id="DejaVuSans-44" d="M 1259 4147 
L 1259 519 
L 2022 519 
Q 2988 519 3436 956 
Q 3884 1394 3884 2338 
Q 3884 3275 3436 3711 
Q 2988 4147 2022 4147 
L 1259 4147 
z
M 628 4666 
L 1925 4666 
Q 3281 4666 3915 4102 
Q 4550 3538 4550 2338 
Q 4550 1131 3912 565 
Q 3275 0 1925 0 
L 628 0 
L 628 4666 
z
" transform="scale(0.015625)"/>
       <path id="DejaVuSans-65" d="M 3597 1894 
L 3597 1613 
L 953 1613 
Q 991 1019 1311 708 
Q 1631 397 2203 397 
Q 2534 397 2845 478 
Q 3156 559 3463 722 
L 3463 178 
Q 3153 47 2828 -22 
Q 2503 -91 2169 -91 
Q 1331 -91 842 396 
Q 353 884 353 1716 
Q 353 2575 817 3079 
Q 1281 3584 2069 3584 
Q 2775 3584 3186 3129 
Q 3597 2675 3597 1894 
z
M 3022 2063 
Q 3016 2534 2758 2815 
Q 2500 3097 2075 3097 
Q 1594 3097 1305 2825 
Q 1016 2553 972 2059 
L 3022 2063 
z
" transform="scale(0.015625)"/>
       <path id="DejaVuSans-76" d="M 191 3500 
L 800 3500 
L 1894 563 
L 2988 3500 
L 3597 3500 
L 2284 0 
L 1503 0 
L 191 3500 
z
" transform="scale(0.015625)"/>
      </defs>
      <use xlink:href="#DejaVuSans-53"/>
      <use xlink:href="#DejaVuSans-74" transform="translate(63.476562 0)"/>
      <use xlink:href="#DejaVuSans-64" transform="translate(102.685547 0)"/>
      <use xlink:href="#DejaVuSans-20" transform="translate(166.162109 0)"/>
      <use xlink:href="#DejaVuSans-44" transform="translate(197.949219 0)"/>
      <use xlink:href="#DejaVuSans-65" transform="translate(274.951172 0)"/>
      <use xlink:href="#DejaVuSans-76" transform="translate(336.474609 0)"/>
     </g>
    </g>
   </g>
   <g id="line2d_27">
    <path d="M 102.373636 227.347792 
L 217.086765 227.438692 
L 217.281277 232.761731 
L 217.621672 238.045599 
L 217.962067 239.7031 
L 218.35109 240.508917 
L 218.837369 241.016256 
L 219.518159 241.390006 
L 220.539344 241.678358 
L 222.289947 241.912737 
L 225.548014 242.090739 
L 229.000592 242.113956 
L 229.146476 246.89324 
L 229.924521 247.283581 
L 230.994334 247.471455 
L 233.328472 247.603418 
L 239.406955 247.670216 
L 264.985211 247.780429 
L 271.355461 247.863188 
L 325.429645 247.949917 
L 340.698794 247.952118 
L 340.844677 227.347792 
L 455.460551 227.438844 
L 455.655062 232.76393 
L 455.995457 238.050127 
L 456.335852 239.710397 
L 456.724875 240.517948 
L 457.211154 241.026458 
L 457.891944 241.401009 
L 458.913129 241.68977 
L 460.663732 241.923988 
L 463.921799 242.100769 
L 467.374377 242.123637 
L 467.520261 246.871734 
L 468.298306 247.264549 
L 469.319492 247.448233 
L 471.556373 247.5814 
L 477.391717 247.652712 
L 503.115856 247.756622 
L 503.650763 247.783515 
L 508.9512 247.857399 
L 550.236256 247.949627 
L 579.072579 247.952726 
L 579.218462 37.407273 
L 584.178504 37.518107 
L 590.840521 37.579843 
L 600.566094 37.711092 
L 601.635907 38.017925 
L 602.608464 38.533026 
L 603.581022 39.310011 
L 604.650835 40.473134 
L 605.866531 42.141795 
L 607.568506 44.898154 
L 611.701875 51.724097 
L 613.452478 54.117315 
L 615.154453 56.070117 
L 616.856428 57.682974 
L 618.607031 59.038896 
L 619.7741 59.740189 
L 622.691772 59.848806 
L 625.269049 59.890369 
L 634.313831 60.014709 
L 634.411087 60.180354 
L 634.897365 61.467775 
L 635.335016 61.800516 
L 636.210318 62.105287 
L 638.593083 62.885637 
L 640.003291 63.617693 
L 641.462127 64.640749 
L 643.115474 66.086 
L 643.650381 66.459698 
L 646.17903 66.459698 
L 646.324913 70.719542 
L 646.908448 71.01081 
L 647.783749 71.169971 
L 649.631608 71.223562 
L 653.084186 71.352203 
L 657.655205 71.636471 
L 658.092856 71.636471 
L 658.23874 74.652241 
L 659.648948 76.533105 
L 660.572877 77.188188 
L 661.885829 77.831372 
L 663.9282 78.557595 
L 667.33215 79.509199 
L 670.006683 79.509199 
L 670.152566 80.275688 
L 670.736101 80.418767 
L 676.133793 82.111277 
L 678.613814 83.233446 
L 679.440488 83.529665 
L 681.920509 83.529665 
L 681.969137 84.22209 
L 682.115021 89.300167 
L 682.406788 89.358212 
L 686.831923 89.371095 
L 693.834336 89.391615 
L 693.931591 170.7676 
L 694.126103 227.395797 
L 694.369242 235.472649 
L 694.661009 238.077368 
L 695.001404 239.303301 
L 695.439055 240.067009 
L 695.973962 240.55837 
L 696.703379 240.922798 
L 697.82182 241.212075 
L 699.669679 241.431399 
L 703.07363 241.577627 
L 705.748162 241.577627 
L 705.894046 246.96479 
L 706.672091 247.323086 
L 707.790532 247.503937 
L 710.270553 247.630949 
L 716.786687 247.69095 
L 742.219059 247.801058 
L 748.540682 247.864228 
L 813.312995 247.95162 
L 817.446364 247.952546 
L 817.446364 247.952546 
" clip-path="url(#pe4373d190f)" style="fill: none; stroke: #0000ff; stroke-width: 1.5; stroke-linecap: square"/>
   </g>
   <g id="line2d_28">
    <path d="M 102.373636 227.347792 
L 217.086765 227.438218 
L 217.281277 232.761887 
L 217.621672 238.045037 
L 217.962067 239.702363 
L 218.35109 240.508176 
L 218.837369 241.015406 
L 219.518159 241.389068 
L 220.539344 241.677018 
L 222.289947 241.911353 
L 225.548014 242.089701 
L 229.000592 242.112983 
L 229.146476 246.89372 
L 229.924521 247.283947 
L 230.994334 247.471735 
L 233.328472 247.603696 
L 239.358327 247.670498 
L 264.985211 247.780405 
L 271.355461 247.86318 
L 325.381017 247.949906 
L 340.698794 247.952127 
L 340.844677 227.347792 
L 455.460551 227.438392 
L 455.655062 232.764284 
L 455.995457 238.050102 
L 456.335852 239.710366 
L 456.724875 240.518008 
L 457.211154 241.02647 
L 457.891944 241.400958 
L 458.913129 241.689325 
L 460.663732 241.923436 
L 463.921799 242.100401 
L 467.374377 242.1233 
L 467.520261 246.872859 
L 468.298306 247.265479 
L 469.368119 247.454321 
L 471.653629 247.585212 
L 477.586228 247.653568 
L 503.115856 247.756884 
L 503.650763 247.783779 
L 508.9512 247.857495 
L 550.382139 247.949628 
L 579.072579 247.952727 
L 579.218462 37.407273 
L 583.886737 37.517823 
L 589.722081 37.580198 
L 600.517466 37.697013 
L 601.587279 37.987246 
L 602.559836 38.484687 
L 603.532394 39.246059 
L 604.602207 40.395025 
L 605.769275 41.989792 
L 607.471251 44.748298 
L 611.653247 51.650031 
L 613.355222 53.950163 
L 615.008569 55.833089 
L 616.710545 57.441482 
L 618.461148 58.803444 
L 619.7741 59.594768 
L 622.7404 59.705415 
L 625.512188 59.74539 
L 634.313831 59.870494 
L 634.411087 60.032525 
L 634.897365 61.294035 
L 635.335016 61.619947 
L 636.258946 61.933906 
L 638.593083 62.695591 
L 640.003291 63.418506 
L 641.413499 64.391643 
L 643.018219 65.793575 
L 643.650381 66.266756 
L 646.17903 66.266756 
L 646.324913 70.52595 
L 646.908448 70.816006 
L 647.783749 70.974274 
L 649.631608 71.026208 
L 653.035558 71.156936 
L 657.655205 71.442479 
L 658.092856 71.442479 
L 658.23874 74.454973 
L 659.648948 76.319938 
L 660.572877 76.964547 
L 661.934457 77.616045 
L 664.122711 78.38638 
L 667.429406 79.312611 
L 670.006683 79.312611 
L 670.152566 80.094229 
L 670.784728 80.245294 
L 675.647515 81.706396 
L 677.884396 82.69489 
L 679.489116 83.36614 
L 681.920509 83.36614 
L 681.969137 84.055836 
L 682.115021 89.108587 
L 682.406788 89.16583 
L 686.637412 89.178397 
L 693.834336 89.200383 
L 693.931591 170.752069 
L 694.126103 227.397358 
L 694.369242 235.473634 
L 694.661009 238.077708 
L 695.001404 239.303541 
L 695.439055 240.06731 
L 695.973962 240.558595 
L 696.703379 240.923055 
L 697.82182 241.212373 
L 699.669679 241.431689 
L 703.07363 241.577913 
L 705.748162 241.577913 
L 705.894046 246.964811 
L 706.672091 247.323089 
L 707.790532 247.503933 
L 710.270553 247.63094 
L 716.786687 247.690943 
L 742.219059 247.801071 
L 748.492054 247.864082 
L 812.194554 247.950988 
L 817.446364 247.952548 
L 817.446364 247.952548 
" clip-path="url(#pe4373d190f)" style="fill: none; stroke-dasharray: 5.55,2.4; stroke-dashoffset: 0; stroke: #ff0000; stroke-width: 1.5"/>
   </g>
   <g id="line2d_29">
    <path d="M 340.747421 258.48 
L 340.747421 26.88 
" clip-path="url(#pe4373d190f)" style="fill: none; stroke-dasharray: 1.5,2.475; stroke-dashoffset: 0; stroke: #808080; stroke-opacity: 0.6; stroke-width: 1.5"/>
   </g>
   <g id="line2d_30">
    <path d="M 579.121206 258.48 
L 579.121206 26.88 
" clip-path="url(#pe4373d190f)" style="fill: none; stroke-dasharray: 1.5,2.475; stroke-dashoffset: 0; stroke: #808080; stroke-opacity: 0.6; stroke-width: 1.5"/>
   </g>
   <g id="patch_3">
    <path d="M 66.62 258.48 
L 66.62 26.88 
" style="fill: none; stroke: #000000; stroke-width: 0.8; stroke-linejoin: miter; stroke-linecap: square"/>
   </g>
   <g id="patch_4">
    <path d="M 853.2 258.48 
L 853.2 26.88 
" style="fill: none; stroke: #000000; stroke-width: 0.8; stroke-linejoin: miter; stroke-linecap: square"/>
   </g>
   <g id="patch_5">
    <path d="M 66.62 258.48 
L 853.2 258.48 
" style="fill: none; stroke: #000000; stroke-width: 0.8; stroke-linejoin: miter; stroke-linecap: square"/>
   </g>
   <g id="patch_6">
    <path d="M 66.62 26.88 
L 853.2 26.88 
" style="fill: none; stroke: #000000; stroke-width: 0.8; stroke-linejoin: miter; stroke-linecap: square"/>
   </g>
   <g id="text_15">
    <!-- [13] dKg_yx  —  Uncertainty (std dev) -->
    <g transform="translate(346.515625 20.88) scale(0.12 -0.12)">
     <defs>
      <path id="DejaVuSans-5b" d="M 550 4863 
L 1875 4863 
L 1875 4416 
L 1125 4416 
L 1125 -397 
L 1875 -397 
L 1875 -844 
L 550 -844 
L 550 4863 
z
" transform="scale(0.015625)"/>
      <path id="DejaVuSans-5d" d="M 1947 4863 
L 1947 -844 
L 622 -844 
L 622 -397 
L 1369 -397 
L 1369 4416 
L 622 4416 
L 622 4863 
L 1947 4863 
z
" transform="scale(0.015625)"/>
      <path id="DejaVuSans-4b" d="M 628 4666 
L 1259 4666 
L 1259 2694 
L 3353 4666 
L 4166 4666 
L 1850 2491 
L 4331 0 
L 3500 0 
L 1259 2247 
L 1259 0 
L 628 0 
L 628 4666 
z
" transform="scale(0.015625)"/>
      <path id="DejaVuSans-67" d="M 2906 1791 
Q 2906 2416 2648 2759 
Q 2391 3103 1925 3103 
Q 1463 3103 1205 2759 
Q 947 2416 947 1791 
Q 947 1169 1205 825 
Q 1463 481 1925 481 
Q 2391 481 2648 825 
Q 2906 1169 2906 1791 
z
M 3481 434 
Q 3481 -459 3084 -895 
Q 2688 -1331 1869 -1331 
Q 1566 -1331 1297 -1286 
Q 1028 -1241 775 -1147 
L 775 -588 
Q 1028 -725 1275 -790 
Q 1522 -856 1778 -856 
Q 2344 -856 2625 -561 
Q 2906 -266 2906 331 
L 2906 616 
Q 2728 306 2450 153 
Q 2172 0 1784 0 
Q 1141 0 747 490 
Q 353 981 353 1791 
Q 353 2603 747 3093 
Q 1141 3584 1784 3584 
Q 2172 3584 2450 3431 
Q 2728 3278 2906 2969 
L 2906 3500 
L 3481 3500 
L 3481 434 
z
" transform="scale(0.015625)"/>
      <path id="DejaVuSans-5f" d="M 3263 -1063 
L 3263 -1509 
L -63 -1509 
L -63 -1063 
L 3263 -1063 
z
" transform="scale(0.015625)"/>
      <path id="DejaVuSans-79" d="M 2059 -325 
Q 1816 -950 1584 -1140 
Q 1353 -1331 966 -1331 
L 506 -1331 
L 506 -850 
L 844 -850 
Q 1081 -850 1212 -737 
Q 1344 -625 1503 -206 
L 1606 56 
L 191 3500 
L 800 3500 
L 1894 763 
L 2988 3500 
L 3597 3500 
L 2059 -325 
z
" transform="scale(0.015625)"/>
      <path id="DejaVuSans-78" d="M 3513 3500 
L 2247 1797 
L 3578 0 
L 2900 0 
L 1881 1375 
L 863 0 
L 184 0 
L 1544 1831 
L 300 3500 
L 978 3500 
L 1906 2253 
L 2834 3500 
L 3513 3500 
z
" transform="scale(0.015625)"/>
      <path id="DejaVuSans-2014" d="M 313 1978 
L 6088 1978 
L 6088 1528 
L 313 1528 
L 313 1978 
z
" transform="scale(0.015625)"/>
      <path id="DejaVuSans-55" d="M 556 4666 
L 1191 4666 
L 1191 1831 
Q 1191 1081 1462 751 
Q 1734 422 2344 422 
Q 2950 422 3222 751 
Q 3494 1081 3494 1831 
L 3494 4666 
L 4128 4666 
L 4128 1753 
Q 4128 841 3676 375 
Q 3225 -91 2344 -91 
Q 1459 -91 1007 375 
Q 556 841 556 1753 
L 556 4666 
z
" transform="scale(0.015625)"/>
      <path id="DejaVuSans-6e" d="M 3513 2113 
L 3513 0 
L 2938 0 
L 2938 2094 
Q 2938 2591 2744 2837 
Q 2550 3084 2163 3084 
Q 1697 3084 1428 2787 
Q 1159 2491 1159 1978 
L 1159 0 
L 581 0 
L 581 3500 
L 1159 3500 
L 1159 2956 
Q 1366 3272 1645 3428 
Q 1925 3584 2291 3584 
Q 2894 3584 3203 3211 
Q 3513 2838 3513 2113 
z
" transform="scale(0.015625)"/>
      <path id="DejaVuSans-63" d="M 3122 3366 
L 3122 2828 
Q 2878 2963 2633 3030 
Q 2388 3097 2138 3097 
Q 1578 3097 1268 2742 
Q 959 2388 959 1747 
Q 959 1106 1268 751 
Q 1578 397 2138 397 
Q 2388 397 2633 464 
Q 2878 531 3122 666 
L 3122 134 
Q 2881 22 2623 -34 
Q 2366 -91 2075 -91 
Q 1284 -91 818 406 
Q 353 903 353 1747 
Q 353 2603 823 3093 
Q 1294 3584 2113 3584 
Q 2378 3584 2631 3529 
Q 2884 3475 3122 3366 
z
" transform="scale(0.015625)"/>
      <path id="DejaVuSans-72" d="M 2631 2963 
Q 2534 3019 2420 3045 
Q 2306 3072 2169 3072 
Q 1681 3072 1420 2755 
Q 1159 2438 1159 1844 
L 1159 0 
L 581 0 
L 581 3500 
L 1159 3500 
L 1159 2956 
Q 1341 3275 1631 3429 
Q 1922 3584 2338 3584 
Q 2397 3584 2469 3576 
Q 2541 3569 2628 3553 
L 2631 2963 
z
" transform="scale(0.015625)"/>
      <path id="DejaVuSans-61" d="M 2194 1759 
Q 1497 1759 1228 1600 
Q 959 1441 959 1056 
Q 959 750 1161 570 
Q 1363 391 1709 391 
Q 2188 391 2477 730 
Q 2766 1069 2766 1631 
L 2766 1759 
L 2194 1759 
z
M 3341 1997 
L 3341 0 
L 2766 0 
L 2766 531 
Q 2569 213 2275 61 
Q 1981 -91 1556 -91 
Q 1019 -91 701 211 
Q 384 513 384 1019 
Q 384 1609 779 1909 
Q 1175 2209 1959 2209 
L 2766 2209 
L 2766 2266 
Q 2766 2663 2505 2880 
Q 2244 3097 1772 3097 
Q 1472 3097 1187 3025 
Q 903 2953 641 2809 
L 641 3341 
Q 956 3463 1253 3523 
Q 1550 3584 1831 3584 
Q 2591 3584 2966 3190 
Q 3341 2797 3341 1997 
z
" transform="scale(0.015625)"/>
      <path id="DejaVuSans-69" d="M 603 3500 
L 1178 3500 
L 1178 0 
L 603 0 
L 603 3500 
z
M 603 4863 
L 1178 4863 
L 1178 4134 
L 603 4134 
L 603 4863 
z
" transform="scale(0.015625)"/>
      <path id="DejaVuSans-28" d="M 1984 4856 
Q 1566 4138 1362 3434 
Q 1159 2731 1159 2009 
Q 1159 1288 1364 580 
Q 1569 -128 1984 -844 
L 1484 -844 
Q 1016 -109 783 600 
Q 550 1309 550 2009 
Q 550 2706 781 3412 
Q 1013 4119 1484 4856 
L 1984 4856 
z
" transform="scale(0.015625)"/>
      <path id="DejaVuSans-73" d="M 2834 3397 
L 2834 2853 
Q 2591 2978 2328 3040 
Q 2066 3103 1784 3103 
Q 1356 3103 1142 2972 
Q 928 2841 928 2578 
Q 928 2378 1081 2264 
Q 1234 2150 1697 2047 
L 1894 2003 
Q 2506 1872 2764 1633 
Q 3022 1394 3022 966 
Q 3022 478 2636 193 
Q 2250 -91 1575 -91 
Q 1294 -91 989 -36 
Q 684 19 347 128 
L 347 722 
Q 666 556 975 473 
Q 1284 391 1588 391 
Q 1994 391 2212 530 
Q 2431 669 2431 922 
Q 2431 1156 2273 1281 
Q 2116 1406 1581 1522 
L 1381 1569 
Q 847 1681 609 1914 
Q 372 2147 372 2553 
Q 372 3047 722 3315 
Q 1072 3584 1716 3584 
Q 2034 3584 2315 3537 
Q 2597 3491 2834 3397 
z
" transform="scale(0.015625)"/>
      <path id="DejaVuSans-29" d="M 513 4856 
L 1013 4856 
Q 1481 4119 1714 3412 
Q 1947 2706 1947 2009 
Q 1947 1309 1714 600 
Q 1481 -109 1013 -844 
L 513 -844 
Q 928 -128 1133 580 
Q 1338 1288 1338 2009 
Q 1338 2731 1133 3434 
Q 928 4138 513 4856 
z
" transform="scale(0.015625)"/>
     </defs>
     <use xlink:href="#DejaVuSans-5b"/>
     <use xlink:href="#DejaVuSans-31" transform="translate(39.013672 0)"/>
     <use xlink:href="#DejaVuSans-33" transform="translate(102.636719 0)"/>
     <use xlink:href="#DejaVuSans-5d" transform="translate(166.259766 0)"/>
     <use xlink:href="#DejaVuSans-20" transform="translate(205.273438 0)"/>
     <use xlink:href="#DejaVuSans-64" transform="translate(237.060547 0)"/>
     <use xlink:href="#DejaVuSans-4b" transform="translate(300.537109 0)"/>
     <use xlink:href="#DejaVuSans-67" transform="translate(366.113281 0)"/>
     <use xlink:href="#DejaVuSans-5f" transform="translate(429.589844 0)"/>
     <use xlink:href="#DejaVuSans-79" transform="translate(479.589844 0)"/>
     <use xlink:href="#DejaVuSans-78" transform="translate(538.769531 0)"/>
     <use xlink:href="#DejaVuSans-20" transform="translate(597.949219 0)"/>
     <use xlink:href="#DejaVuSans-20" transform="translate(629.736328 0)"/>
     <use xlink:href="#DejaVuSans-2014" transform="translate(661.523438 0)"/>
     <use xlink:href="#DejaVuSans-20" transform="translate(761.523438 0)"/>
     <use xlink:href="#DejaVuSans-20" transform="translate(793.310547 0)"/>
     <use xlink:href="#DejaVuSans-55" transform="translate(825.097656 0)"/>
     <use xlink:href="#DejaVuSans-6e" transform="translate(898.291016 0)"/>
     <use xlink:href="#DejaVuSans-63" transform="translate(961.669922 0)"/>
     <use xlink:href="#DejaVuSans-65" transform="translate(1016.650391 0)"/>
     <use xlink:href="#DejaVuSans-72" transform="translate(1078.173828 0)"/>
     <use xlink:href="#DejaVuSans-74" transform="translate(1119.287109 0)"/>
     <use xlink:href="#DejaVuSans-61" transform="translate(1158.496094 0)"/>
     <use xlink:href="#DejaVuSans-69" transform="translate(1219.775391 0)"/>
     <use xlink:href="#DejaVuSans-6e" transform="translate(1247.558594 0)"/>
     <use xlink:href="#DejaVuSans-74" transform="translate(1310.9375 0)"/>
     <use xlink:href="#DejaVuSans-79" transform="translate(1350.146484 0)"/>
     <use xlink:href="#DejaVuSans-20" transform="translate(1409.326172 0)"/>
     <use xlink:href="#DejaVuSans-28" transform="translate(1441.113281 0)"/>
     <use xlink:href="#DejaVuSans-73" transform="translate(1480.126953 0)"/>
     <use xlink:href="#DejaVuSans-74" transform="translate(1532.226562 0)"/>
     <use xlink:href="#DejaVuSans-64" transform="translate(1571.435547 0)"/>
     <use xlink:href="#DejaVuSans-20" transform="translate(1634.912109 0)"/>
     <use xlink:href="#DejaVuSans-64" transform="translate(1666.699219 0)"/>
     <use xlink:href="#DejaVuSans-65" transform="translate(1730.175781 0)"/>
     <use xlink:href="#DejaVuSans-76" transform="translate(1791.699219 0)"/>
     <use xlink:href="#DejaVuSans-29" transform="translate(1850.878906 0)"/>
    </g>
   </g>
   <g id="legend_1">
    <g id="patch_7">
     <path d="M 738.401563 64.23625 
L 846.2 64.23625 
Q 848.2 64.23625 848.2 62.23625 
L 848.2 33.88 
Q 848.2 31.88 846.2 31.88 
L 738.401563 31.88 
Q 736.401563 31.88 736.401563 33.88 
L 736.401563 62.23625 
Q 736.401563 64.23625 738.401563 64.23625 
z
" style="fill: #ffffff; opacity: 0.8; stroke: #cccccc; stroke-linejoin: miter"/>
    </g>
    <g id="line2d_31">
     <path d="M 740.401563 39.978437 
L 750.401563 39.978437 
L 760.401563 39.978437 
" style="fill: none; stroke: #0000ff; stroke-width: 1.5; stroke-linecap: square"/>
    </g>
    <g id="text_16">
     <!-- No Noise -->
     <g transform="translate(768.401563 43.478437) scale(0.1 -0.1)">
      <defs>
       <path id="DejaVuSans-4e" d="M 628 4666 
L 1478 4666 
L 3547 763 
L 3547 4666 
L 4159 4666 
L 4159 0 
L 3309 0 
L 1241 3903 
L 1241 0 
L 628 0 
L 628 4666 
z
" transform="scale(0.015625)"/>
       <path id="DejaVuSans-6f" d="M 1959 3097 
Q 1497 3097 1228 2736 
Q 959 2375 959 1747 
Q 959 1119 1226 758 
Q 1494 397 1959 397 
Q 2419 397 2687 759 
Q 2956 1122 2956 1747 
Q 2956 2369 2687 2733 
Q 2419 3097 1959 3097 
z
M 1959 3584 
Q 2709 3584 3137 3096 
Q 3566 2609 3566 1747 
Q 3566 888 3137 398 
Q 2709 -91 1959 -91 
Q 1206 -91 779 398 
Q 353 888 353 1747 
Q 353 2609 779 3096 
Q 1206 3584 1959 3584 
z
" transform="scale(0.015625)"/>
      </defs>
      <use xlink:href="#DejaVuSans-4e"/>
      <use xlink:href="#DejaVuSans-6f" transform="translate(74.804688 0)"/>
      <use xlink:href="#DejaVuSans-20" transform="translate(135.986328 0)"/>
      <use xlink:href="#DejaVuSans-4e" transform="translate(167.773438 0)"/>
      <use xlink:href="#DejaVuSans-6f" transform="translate(242.578125 0)"/>
      <use xlink:href="#DejaVuSans-69" transform="translate(303.759766 0)"/>
      <use xlink:href="#DejaVuSans-73" transform="translate(331.542969 0)"/>
      <use xlink:href="#DejaVuSans-65" transform="translate(383.642578 0)"/>
     </g>
    </g>
    <g id="line2d_32">
     <path d="M 740.401563 54.656562 
L 750.401563 54.656562 
L 760.401563 54.656562 
" style="fill: none; stroke-dasharray: 5.55,2.4; stroke-dashoffset: 0; stroke: #ff0000; stroke-width: 1.5"/>
    </g>
    <g id="text_17">
     <!-- With ARW/VRW -->
     <g transform="translate(768.401563 58.156562) scale(0.1 -0.1)">
      <defs>
       <path id="DejaVuSans-57" d="M 213 4666 
L 850 4666 
L 1831 722 
L 2809 4666 
L 3519 4666 
L 4500 722 
L 5478 4666 
L 6119 4666 
L 4947 0 
L 4153 0 
L 3169 4050 
L 2175 0 
L 1381 0 
L 213 4666 
z
" transform="scale(0.015625)"/>
       <path id="DejaVuSans-68" d="M 3513 2113 
L 3513 0 
L 2938 0 
L 2938 2094 
Q 2938 2591 2744 2837 
Q 2550 3084 2163 3084 
Q 1697 3084 1428 2787 
Q 1159 2491 1159 1978 
L 1159 0 
L 581 0 
L 581 4863 
L 1159 4863 
L 1159 2956 
Q 1366 3272 1645 3428 
Q 1925 3584 2291 3584 
Q 2894 3584 3203 3211 
Q 3513 2838 3513 2113 
z
" transform="scale(0.015625)"/>
       <path id="DejaVuSans-41" d="M 2188 4044 
L 1331 1722 
L 3047 1722 
L 2188 4044 
z
M 1831 4666 
L 2547 4666 
L 4325 0 
L 3669 0 
L 3244 1197 
L 1141 1197 
L 716 0 
L 50 0 
L 1831 4666 
z
" transform="scale(0.015625)"/>
       <path id="DejaVuSans-52" d="M 2841 2188 
Q 3044 2119 3236 1894 
Q 3428 1669 3622 1275 
L 4263 0 
L 3584 0 
L 2988 1197 
Q 2756 1666 2539 1819 
Q 2322 1972 1947 1972 
L 1259 1972 
L 1259 0 
L 628 0 
L 628 4666 
L 2053 4666 
Q 2853 4666 3247 4331 
Q 3641 3997 3641 3322 
Q 3641 2881 3436 2590 
Q 3231 2300 2841 2188 
z
M 1259 4147 
L 1259 2491 
L 2053 2491 
Q 2509 2491 2742 2702 
Q 2975 2913 2975 3322 
Q 2975 3731 2742 3939 
Q 2509 4147 2053 4147 
L 1259 4147 
z
" transform="scale(0.015625)"/>
       <path id="DejaVuSans-2f" d="M 1625 4666 
L 2156 4666 
L 531 -594 
L 0 -594 
L 1625 4666 
z
" transform="scale(0.015625)"/>
       <path id="DejaVuSans-56" d="M 1831 0 
L 50 4666 
L 709 4666 
L 2188 738 
L 3669 4666 
L 4325 4666 
L 2547 0 
L 1831 0 
z
" transform="scale(0.015625)"/>
      </defs>
      <use xlink:href="#DejaVuSans-57"/>
      <use xlink:href="#DejaVuSans-69" transform="translate(96.626953 0)"/>
      <use xlink:href="#DejaVuSans-74" transform="translate(124.410156 0)"/>
      <use xlink:href="#DejaVuSans-68" transform="translate(163.619141 0)"/>
      <use xlink:href="#DejaVuSans-20" transform="translate(226.998047 0)"/>
      <use xlink:href="#DejaVuSans-41" transform="translate(258.785156 0)"/>
      <use xlink:href="#DejaVuSans-52" transform="translate(327.193359 0)"/>
      <use xlink:href="#DejaVuSans-57" transform="translate(392.675781 0)"/>
      <use xlink:href="#DejaVuSans-2f" transform="translate(491.552734 0)"/>
      <use xlink:href="#DejaVuSans-56" transform="translate(525.244141 0)"/>
      <use xlink:href="#DejaVuSans-52" transform="translate(593.652344 0)"/>
      <use xlink:href="#DejaVuSans-57" transform="translate(659.134766 0)"/>
     </g>
    </g>
   </g>
  </g>
  <g id="axes_2">
   <g id="patch_8">
    <path d="M 66.62 534.04 
L 853.2 534.04 
L 853.2 302.44 
L 66.62 302.44 
z
" style="fill: #ffffff"/>
   </g>
   <g id="matplotlib.axis_3">
    <g id="xtick_8">
     <g id="line2d_33">
      <path d="M 102.373636 534.04 
L 102.373636 302.44 
" clip-path="url(#p719e355f17)" style="fill: none; stroke: #b0b0b0; stroke-width: 0.8; stroke-linecap: square"/>
     </g>
     <g id="line2d_34">
      <g>
       <use xlink:href="#mef99bf4628" x="102.373636" y="534.04" style="stroke: #000000; stroke-width: 0.8"/>
      </g>
     </g>
     <g id="text_18">
      <!-- 0 -->
      <g transform="translate(99.192386 548.638438) scale(0.1 -0.1)">
       <use xlink:href="#DejaVuSans-30"/>
      </g>
     </g>
    </g>
    <g id="xtick_9">
     <g id="line2d_35">
      <path d="M 223.943294 534.04 
L 223.943294 302.44 
" clip-path="url(#p719e355f17)" style="fill: none; stroke: #b0b0b0; stroke-width: 0.8; stroke-linecap: square"/>
     </g>
     <g id="line2d_36">
      <g>
       <use xlink:href="#mef99bf4628" x="223.943294" y="534.04" style="stroke: #000000; stroke-width: 0.8"/>
      </g>
     </g>
     <g id="text_19">
      <!-- 50 -->
      <g transform="translate(217.580794 548.638438) scale(0.1 -0.1)">
       <use xlink:href="#DejaVuSans-35"/>
       <use xlink:href="#DejaVuSans-30" transform="translate(63.623047 0)"/>
      </g>
     </g>
    </g>
    <g id="xtick_10">
     <g id="line2d_37">
      <path d="M 345.512952 534.04 
L 345.512952 302.44 
" clip-path="url(#p719e355f17)" style="fill: none; stroke: #b0b0b0; stroke-width: 0.8; stroke-linecap: square"/>
     </g>
     <g id="line2d_38">
      <g>
       <use xlink:href="#mef99bf4628" x="345.512952" y="534.04" style="stroke: #000000; stroke-width: 0.8"/>
      </g>
     </g>
     <g id="text_20">
      <!-- 100 -->
      <g transform="translate(335.969202 548.638438) scale(0.1 -0.1)">
       <use xlink:href="#DejaVuSans-31"/>
       <use xlink:href="#DejaVuSans-30" transform="translate(63.623047 0)"/>
       <use xlink:href="#DejaVuSans-30" transform="translate(127.246094 0)"/>
      </g>
     </g>
    </g>
    <g id="xtick_11">
     <g id="line2d_39">
      <path d="M 467.08261 534.04 
L 467.08261 302.44 
" clip-path="url(#p719e355f17)" style="fill: none; stroke: #b0b0b0; stroke-width: 0.8; stroke-linecap: square"/>
     </g>
     <g id="line2d_40">
      <g>
       <use xlink:href="#mef99bf4628" x="467.08261" y="534.04" style="stroke: #000000; stroke-width: 0.8"/>
      </g>
     </g>
     <g id="text_21">
      <!-- 150 -->
      <g transform="translate(457.53886 548.638438) scale(0.1 -0.1)">
       <use xlink:href="#DejaVuSans-31"/>
       <use xlink:href="#DejaVuSans-35" transform="translate(63.623047 0)"/>
       <use xlink:href="#DejaVuSans-30" transform="translate(127.246094 0)"/>
      </g>
     </g>
    </g>
    <g id="xtick_12">
     <g id="line2d_41">
      <path d="M 588.652268 534.04 
L 588.652268 302.44 
" clip-path="url(#p719e355f17)" style="fill: none; stroke: #b0b0b0; stroke-width: 0.8; stroke-linecap: square"/>
     </g>
     <g id="line2d_42">
      <g>
       <use xlink:href="#mef99bf4628" x="588.652268" y="534.04" style="stroke: #000000; stroke-width: 0.8"/>
      </g>
     </g>
     <g id="text_22">
      <!-- 200 -->
      <g transform="translate(579.108518 548.638438) scale(0.1 -0.1)">
       <use xlink:href="#DejaVuSans-32"/>
       <use xlink:href="#DejaVuSans-30" transform="translate(63.623047 0)"/>
       <use xlink:href="#DejaVuSans-30" transform="translate(127.246094 0)"/>
      </g>
     </g>
    </g>
    <g id="xtick_13">
     <g id="line2d_43">
      <path d="M 710.221925 534.04 
L 710.221925 302.44 
" clip-path="url(#p719e355f17)" style="fill: none; stroke: #b0b0b0; stroke-width: 0.8; stroke-linecap: square"/>
     </g>
     <g id="line2d_44">
      <g>
       <use xlink:href="#mef99bf4628" x="710.221925" y="534.04" style="stroke: #000000; stroke-width: 0.8"/>
      </g>
     </g>
     <g id="text_23">
      <!-- 250 -->
      <g transform="translate(700.678175 548.638438) scale(0.1 -0.1)">
       <use xlink:href="#DejaVuSans-32"/>
       <use xlink:href="#DejaVuSans-35" transform="translate(63.623047 0)"/>
       <use xlink:href="#DejaVuSans-30" transform="translate(127.246094 0)"/>
      </g>
     </g>
    </g>
    <g id="xtick_14">
     <g id="line2d_45">
      <path d="M 831.791583 534.04 
L 831.791583 302.44 
" clip-path="url(#p719e355f17)" style="fill: none; stroke: #b0b0b0; stroke-width: 0.8; stroke-linecap: square"/>
     </g>
     <g id="line2d_46">
      <g>
       <use xlink:href="#mef99bf4628" x="831.791583" y="534.04" style="stroke: #000000; stroke-width: 0.8"/>
      </g>
     </g>
     <g id="text_24">
      <!-- 300 -->
      <g transform="translate(822.247833 548.638438) scale(0.1 -0.1)">
       <use xlink:href="#DejaVuSans-33"/>
       <use xlink:href="#DejaVuSans-30" transform="translate(63.623047 0)"/>
       <use xlink:href="#DejaVuSans-30" transform="translate(127.246094 0)"/>
      </g>
     </g>
    </g>
    <g id="text_25">
     <!-- Time (s) -->
     <g transform="translate(439.581094 562.316562) scale(0.1 -0.1)">
      <defs>
       <path id="DejaVuSans-54" d="M -19 4666 
L 3928 4666 
L 3928 4134 
L 2272 4134 
L 2272 0 
L 1638 0 
L 1638 4134 
L -19 4134 
L -19 4666 
z
" transform="scale(0.015625)"/>
       <path id="DejaVuSans-6d" d="M 3328 2828 
Q 3544 3216 3844 3400 
Q 4144 3584 4550 3584 
Q 5097 3584 5394 3201 
Q 5691 2819 5691 2113 
L 5691 0 
L 5113 0 
L 5113 2094 
Q 5113 2597 4934 2840 
Q 4756 3084 4391 3084 
Q 3944 3084 3684 2787 
Q 3425 2491 3425 1978 
L 3425 0 
L 2847 0 
L 2847 2094 
Q 2847 2600 2669 2842 
Q 2491 3084 2119 3084 
Q 1678 3084 1418 2786 
Q 1159 2488 1159 1978 
L 1159 0 
L 581 0 
L 581 3500 
L 1159 3500 
L 1159 2956 
Q 1356 3278 1631 3431 
Q 1906 3584 2284 3584 
Q 2666 3584 2933 3390 
Q 3200 3197 3328 2828 
z
" transform="scale(0.015625)"/>
      </defs>
      <use xlink:href="#DejaVuSans-54"/>
      <use xlink:href="#DejaVuSans-69" transform="translate(57.958984 0)"/>
      <use xlink:href="#DejaVuSans-6d" transform="translate(85.742188 0)"/>
      <use xlink:href="#DejaVuSans-65" transform="translate(183.154297 0)"/>
      <use xlink:href="#DejaVuSans-20" transform="translate(244.677734 0)"/>
      <use xlink:href="#DejaVuSans-28" transform="translate(276.464844 0)"/>
      <use xlink:href="#DejaVuSans-73" transform="translate(315.478516 0)"/>
      <use xlink:href="#DejaVuSans-29" transform="translate(367.578125 0)"/>
     </g>
    </g>
   </g>
   <g id="matplotlib.axis_4">
    <g id="ytick_7">
     <g id="line2d_47">
      <path d="M 66.62 502.325778 
L 853.2 502.325778 
" clip-path="url(#p719e355f17)" style="fill: none; stroke: #b0b0b0; stroke-width: 0.8; stroke-linecap: square"/>
     </g>
     <g id="line2d_48">
      <g>
       <use xlink:href="#m5e13c92363" x="66.62" y="502.325778" style="stroke: #000000; stroke-width: 0.8"/>
      </g>
     </g>
     <g id="text_26">
      <!-- 0.0000 -->
      <g transform="translate(24.629375 506.124997) scale(0.1 -0.1)">
       <use xlink:href="#DejaVuSans-30"/>
       <use xlink:href="#DejaVuSans-2e" transform="translate(63.623047 0)"/>
       <use xlink:href="#DejaVuSans-30" transform="translate(95.410156 0)"/>
       <use xlink:href="#DejaVuSans-30" transform="translate(159.033203 0)"/>
       <use xlink:href="#DejaVuSans-30" transform="translate(222.65625 0)"/>
       <use xlink:href="#DejaVuSans-30" transform="translate(286.279297 0)"/>
      </g>
     </g>
    </g>
    <g id="ytick_8">
     <g id="line2d_49">
      <path d="M 66.62 462.061001 
L 853.2 462.061001 
" clip-path="url(#p719e355f17)" style="fill: none; stroke: #b0b0b0; stroke-width: 0.8; stroke-linecap: square"/>
     </g>
     <g id="line2d_50">
      <g>
       <use xlink:href="#m5e13c92363" x="66.62" y="462.061001" style="stroke: #000000; stroke-width: 0.8"/>
      </g>
     </g>
     <g id="text_27">
      <!-- 0.0002 -->
      <g transform="translate(24.629375 465.86022) scale(0.1 -0.1)">
       <use xlink:href="#DejaVuSans-30"/>
       <use xlink:href="#DejaVuSans-2e" transform="translate(63.623047 0)"/>
       <use xlink:href="#DejaVuSans-30" transform="translate(95.410156 0)"/>
       <use xlink:href="#DejaVuSans-30" transform="translate(159.033203 0)"/>
       <use xlink:href="#DejaVuSans-30" transform="translate(222.65625 0)"/>
       <use xlink:href="#DejaVuSans-32" transform="translate(286.279297 0)"/>
      </g>
     </g>
    </g>
    <g id="ytick_9">
     <g id="line2d_51">
      <path d="M 66.62 421.796224 
L 853.2 421.796224 
" clip-path="url(#p719e355f17)" style="fill: none; stroke: #b0b0b0; stroke-width: 0.8; stroke-linecap: square"/>
     </g>
     <g id="line2d_52">
      <g>
       <use xlink:href="#m5e13c92363" x="66.62" y="421.796224" style="stroke: #000000; stroke-width: 0.8"/>
      </g>
     </g>
     <g id="text_28">
      <!-- 0.0004 -->
      <g transform="translate(24.629375 425.595443) scale(0.1 -0.1)">
       <use xlink:href="#DejaVuSans-30"/>
       <use xlink:href="#DejaVuSans-2e" transform="translate(63.623047 0)"/>
       <use xlink:href="#DejaVuSans-30" transform="translate(95.410156 0)"/>
       <use xlink:href="#DejaVuSans-30" transform="translate(159.033203 0)"/>
       <use xlink:href="#DejaVuSans-30" transform="translate(222.65625 0)"/>
       <use xlink:href="#DejaVuSans-34" transform="translate(286.279297 0)"/>
      </g>
     </g>
    </g>
    <g id="ytick_10">
     <g id="line2d_53">
      <path d="M 66.62 381.531447 
L 853.2 381.531447 
" clip-path="url(#p719e355f17)" style="fill: none; stroke: #b0b0b0; stroke-width: 0.8; stroke-linecap: square"/>
     </g>
     <g id="line2d_54">
      <g>
       <use xlink:href="#m5e13c92363" x="66.62" y="381.531447" style="stroke: #000000; stroke-width: 0.8"/>
      </g>
     </g>
     <g id="text_29">
      <!-- 0.0006 -->
      <g transform="translate(24.629375 385.330666) scale(0.1 -0.1)">
       <defs>
        <path id="DejaVuSans-36" d="M 2113 2584 
Q 1688 2584 1439 2293 
Q 1191 2003 1191 1497 
Q 1191 994 1439 701 
Q 1688 409 2113 409 
Q 2538 409 2786 701 
Q 3034 994 3034 1497 
Q 3034 2003 2786 2293 
Q 2538 2584 2113 2584 
z
M 3366 4563 
L 3366 3988 
Q 3128 4100 2886 4159 
Q 2644 4219 2406 4219 
Q 1781 4219 1451 3797 
Q 1122 3375 1075 2522 
Q 1259 2794 1537 2939 
Q 1816 3084 2150 3084 
Q 2853 3084 3261 2657 
Q 3669 2231 3669 1497 
Q 3669 778 3244 343 
Q 2819 -91 2113 -91 
Q 1303 -91 875 529 
Q 447 1150 447 2328 
Q 447 3434 972 4092 
Q 1497 4750 2381 4750 
Q 2619 4750 2861 4703 
Q 3103 4656 3366 4563 
z
" transform="scale(0.015625)"/>
       </defs>
       <use xlink:href="#DejaVuSans-30"/>
       <use xlink:href="#DejaVuSans-2e" transform="translate(63.623047 0)"/>
       <use xlink:href="#DejaVuSans-30" transform="translate(95.410156 0)"/>
       <use xlink:href="#DejaVuSans-30" transform="translate(159.033203 0)"/>
       <use xlink:href="#DejaVuSans-30" transform="translate(222.65625 0)"/>
       <use xlink:href="#DejaVuSans-36" transform="translate(286.279297 0)"/>
      </g>
     </g>
    </g>
    <g id="ytick_11">
     <g id="line2d_55">
      <path d="M 66.62 341.26667 
L 853.2 341.26667 
" clip-path="url(#p719e355f17)" style="fill: none; stroke: #b0b0b0; stroke-width: 0.8; stroke-linecap: square"/>
     </g>
     <g id="line2d_56">
      <g>
       <use xlink:href="#m5e13c92363" x="66.62" y="341.26667" style="stroke: #000000; stroke-width: 0.8"/>
      </g>
     </g>
     <g id="text_30">
      <!-- 0.0008 -->
      <g transform="translate(24.629375 345.065889) scale(0.1 -0.1)">
       <defs>
        <path id="DejaVuSans-38" d="M 2034 2216 
Q 1584 2216 1326 1975 
Q 1069 1734 1069 1313 
Q 1069 891 1326 650 
Q 1584 409 2034 409 
Q 2484 409 2743 651 
Q 3003 894 3003 1313 
Q 3003 1734 2745 1975 
Q 2488 2216 2034 2216 
z
M 1403 2484 
Q 997 2584 770 2862 
Q 544 3141 544 3541 
Q 544 4100 942 4425 
Q 1341 4750 2034 4750 
Q 2731 4750 3128 4425 
Q 3525 4100 3525 3541 
Q 3525 3141 3298 2862 
Q 3072 2584 2669 2484 
Q 3125 2378 3379 2068 
Q 3634 1759 3634 1313 
Q 3634 634 3220 271 
Q 2806 -91 2034 -91 
Q 1263 -91 848 271 
Q 434 634 434 1313 
Q 434 1759 690 2068 
Q 947 2378 1403 2484 
z
M 1172 3481 
Q 1172 3119 1398 2916 
Q 1625 2713 2034 2713 
Q 2441 2713 2670 2916 
Q 2900 3119 2900 3481 
Q 2900 3844 2670 4047 
Q 2441 4250 2034 4250 
Q 1625 4250 1398 4047 
Q 1172 3844 1172 3481 
z
" transform="scale(0.015625)"/>
       </defs>
       <use xlink:href="#DejaVuSans-30"/>
       <use xlink:href="#DejaVuSans-2e" transform="translate(63.623047 0)"/>
       <use xlink:href="#DejaVuSans-30" transform="translate(95.410156 0)"/>
       <use xlink:href="#DejaVuSans-30" transform="translate(159.033203 0)"/>
       <use xlink:href="#DejaVuSans-30" transform="translate(222.65625 0)"/>
       <use xlink:href="#DejaVuSans-38" transform="translate(286.279297 0)"/>
      </g>
     </g>
    </g>
    <g id="text_31">
     <!-- Estimated Value -->
     <g transform="translate(18.549688 458.818906) rotate(-90) scale(0.1 -0.1)">
      <defs>
       <path id="DejaVuSans-45" d="M 628 4666 
L 3578 4666 
L 3578 4134 
L 1259 4134 
L 1259 2753 
L 3481 2753 
L 3481 2222 
L 1259 2222 
L 1259 531 
L 3634 531 
L 3634 0 
L 628 0 
L 628 4666 
z
" transform="scale(0.015625)"/>
       <path id="DejaVuSans-6c" d="M 603 4863 
L 1178 4863 
L 1178 0 
L 603 0 
L 603 4863 
z
" transform="scale(0.015625)"/>
       <path id="DejaVuSans-75" d="M 544 1381 
L 544 3500 
L 1119 3500 
L 1119 1403 
Q 1119 906 1312 657 
Q 1506 409 1894 409 
Q 2359 409 2629 706 
Q 2900 1003 2900 1516 
L 2900 3500 
L 3475 3500 
L 3475 0 
L 2900 0 
L 2900 538 
Q 2691 219 2414 64 
Q 2138 -91 1772 -91 
Q 1169 -91 856 284 
Q 544 659 544 1381 
z
M 1991 3584 
L 1991 3584 
z
" transform="scale(0.015625)"/>
      </defs>
      <use xlink:href="#DejaVuSans-45"/>
      <use xlink:href="#DejaVuSans-73" transform="translate(63.183594 0)"/>
      <use xlink:href="#DejaVuSans-74" transform="translate(115.283203 0)"/>
      <use xlink:href="#DejaVuSans-69" transform="translate(154.492188 0)"/>
      <use xlink:href="#DejaVuSans-6d" transform="translate(182.275391 0)"/>
      <use xlink:href="#DejaVuSans-61" transform="translate(279.6875 0)"/>
      <use xlink:href="#DejaVuSans-74" transform="translate(340.966797 0)"/>
      <use xlink:href="#DejaVuSans-65" transform="translate(380.175781 0)"/>
      <use xlink:href="#DejaVuSans-64" transform="translate(441.699219 0)"/>
      <use xlink:href="#DejaVuSans-20" transform="translate(505.175781 0)"/>
      <use xlink:href="#DejaVuSans-56" transform="translate(536.962891 0)"/>
      <use xlink:href="#DejaVuSans-61" transform="translate(597.621094 0)"/>
      <use xlink:href="#DejaVuSans-6c" transform="translate(658.900391 0)"/>
      <use xlink:href="#DejaVuSans-75" transform="translate(686.683594 0)"/>
      <use xlink:href="#DejaVuSans-65" transform="translate(750.0625 0)"/>
     </g>
    </g>
   </g>
   <g id="line2d_57">
    <path d="M 102.373636 502.325778 
L 118.080436 502.214932 
L 129.60524 502.177843 
L 145.603807 502.449164 
L 145.74969 501.976377 
L 146.43048 501.8643 
L 150.417965 501.79759 
L 157.566261 501.799685 
L 160.09491 502.029124 
L 176.628383 502.333277 
L 181.345286 502.318871 
L 181.49117 502.029798 
L 183.484912 502.020603 
L 197.586992 502.02409 
L 205.172939 501.979417 
L 205.318823 501.799702 
L 205.707846 501.765343 
L 217.086765 501.691543 
L 217.232649 474.04986 
L 217.378533 473.869444 
L 217.864811 474.420529 
L 219.664042 476.192399 
L 225.693897 481.81457 
L 226.471943 482.363051 
L 229.000592 482.363051 
L 229.146476 478.65365 
L 230.119033 478.19603 
L 231.577869 477.933126 
L 235.711237 477.478605 
L 239.261071 477.246808 
L 241.886976 477.13847 
L 243.734834 477.057101 
L 252.828245 477.09058 
L 252.974128 476.236551 
L 255.016499 475.43443 
L 256.81573 475.064771 
L 259.393006 474.777253 
L 262.748329 474.625072 
L 266.055024 474.732561 
L 268.243277 474.80253 
L 273.057436 474.680931 
L 276.655898 474.649144 
L 276.801781 473.952171 
L 278.163362 473.841509 
L 283.755566 473.599123 
L 289.882677 473.522571 
L 309.528333 473.610596 
L 334.085404 473.688576 
L 340.698794 473.751109 
L 340.844677 502.325778 
L 384.512498 502.216501 
L 387.235659 502.188389 
L 400.559693 502.265633 
L 455.460551 502.346607 
L 455.509178 502.774706 
L 455.606434 502.69224 
L 455.946829 502.372171 
L 456.433108 502.360804 
L 458.280967 502.660611 
L 465.283379 503.837987 
L 467.374377 503.837987 
L 467.520261 502.805055 
L 468.930469 502.633717 
L 473.355604 502.52826 
L 485.026291 502.452474 
L 491.20203 502.449677 
L 491.347914 502.262381 
L 494.897748 502.047418 
L 501.316625 501.959821 
L 515.029683 501.868377 
L 515.175566 501.721898 
L 519.843841 501.655877 
L 536.960849 501.631533 
L 579.072579 501.627891 
L 579.218462 502.325778 
L 622.7404 502.21704 
L 624.150608 502.146122 
L 631.931066 502.114545 
L 634.411087 502.038201 
L 634.897365 501.657118 
L 635.675411 501.525304 
L 638.787595 501.343184 
L 644.622938 501.186237 
L 646.17903 501.186237 
L 646.276285 502.664217 
L 646.324913 502.661725 
L 648.707679 502.336325 
L 652.208885 502.373276 
L 658.092856 502.453652 
L 658.23874 504.60068 
L 658.579135 504.444689 
L 659.454436 504.060911 
L 660.767389 503.767867 
L 663.052898 503.517026 
L 667.33215 503.301186 
L 670.006683 503.301186 
L 670.152566 503.854757 
L 671.173751 504.000718 
L 673.896912 504.244037 
L 678.565187 504.430092 
L 681.969137 504.480731 
L 682.115021 504.921283 
L 684.303274 504.9237 
L 689.214689 504.787193 
L 693.542568 504.651855 
L 693.834336 504.651855 
L 693.882963 505.308601 
L 694.028847 502.714118 
L 694.223358 502.603227 
L 695.244544 502.626619 
L 704.921488 502.954245 
L 705.748162 502.954245 
L 705.894046 502.602025 
L 708.471322 502.534835 
L 768.13771 502.325031 
L 817.446364 502.324873 
L 817.446364 502.324873 
" clip-path="url(#p719e355f17)" style="fill: none; stroke: #0000ff; stroke-width: 1.5; stroke-linecap: square"/>
   </g>
   <g id="line2d_58">
    <path d="M 102.373636 502.325778 
L 112.488232 502.218968 
L 113.460789 502.209347 
L 114.384719 502.251744 
L 115.649043 502.257854 
L 121.776154 502.208578 
L 131.161331 501.908308 
L 131.64761 501.973166 
L 131.939377 501.952839 
L 133.155074 501.861959 
L 133.592724 501.698863 
L 134.127631 501.788904 
L 134.662537 501.96219 
L 135.05156 501.968624 
L 135.683723 501.935792 
L 138.358255 502.505186 
L 138.747278 502.630196 
L 139.525324 502.664445 
L 140.157486 502.623185 
L 140.98416 502.556767 
L 141.859461 502.702066 
L 145.603807 502.66121 
L 145.74969 501.966445 
L 146.284597 501.683671 
L 146.770875 501.686809 
L 147.597549 501.656004 
L 148.521478 501.607599 
L 149.639919 501.575244 
L 150.806988 501.588097 
L 153.967799 501.563044 
L 155.523891 501.545735 
L 157.614889 501.639346 
L 157.906656 501.665434 
L 158.149795 501.752416 
L 158.587446 501.865396 
L 159.025097 501.877055 
L 159.803143 501.864802 
L 161.018839 501.872967 
L 161.942769 501.918911 
L 162.81807 501.806692 
L 164.17965 501.629058 
L 165.200836 501.39367 
L 165.589858 501.325645 
L 165.978881 501.232269 
L 167.243206 501.149153 
L 169.43146 501.149153 
L 169.577343 499.982504 
L 169.966366 499.94272 
L 170.209505 499.907777 
L 171.230691 499.622987 
L 174.342874 499.498947 
L 181.977448 499.692356 
L 182.998633 500.151097 
L 183.436284 500.064065 
L 184.21433 500.07347 
L 184.603353 500.199321 
L 187.277885 500.400809 
L 187.666908 500.497984 
L 188.54221 500.713972 
L 189.320256 500.830987 
L 191.313998 501.06557 
L 193.259113 501.06557 
L 193.404996 500.808097 
L 197.003458 500.849138 
L 197.684248 500.901686 
L 198.608177 500.923099 
L 199.094456 500.837604 
L 200.796431 500.702387 
L 201.671733 500.665383 
L 202.206639 500.58229 
L 202.449779 500.579815 
L 205.172939 500.579815 
L 205.318823 500.376991 
L 205.707846 500.409891 
L 207.069426 500.417285 
L 214.071838 500.30094 
L 215.530674 500.283491 
L 217.086765 500.283491 
L 217.184021 470.838325 
L 217.232649 472.084238 
L 217.621672 476.761057 
L 217.6703 477.20307 
L 217.718928 476.942098 
L 217.767556 476.829503 
L 218.059323 474.191835 
L 218.107951 474.333242 
L 218.399718 476.33888 
L 218.496974 476.500033 
L 218.691485 476.948717 
L 218.788741 477.063155 
L 219.080508 478.005035 
L 219.129136 477.977128 
L 219.518159 479.486834 
L 219.566786 479.475051 
L 219.907182 480.581999 
L 220.198949 481.453764 
L 220.296204 481.766562 
L 220.539344 482.414994 
L 220.782483 482.812682 
L 220.879739 482.805848 
L 220.976995 482.966447 
L 221.025622 482.936329 
L 221.122878 482.919485 
L 221.268762 482.798513 
L 221.609157 483.358848 
L 221.657785 483.328458 
L 221.75504 483.291856 
L 221.99818 483.469657 
L 222.484458 483.52899 
L 222.776225 484.065478 
L 223.213876 485.006617 
L 224.235061 486.323064 
L 224.429573 486.619038 
L 224.72134 486.923737 
L 224.915851 487.150635 
L 225.985664 488.730123 
L 226.180176 488.884125 
L 226.423315 489.077088 
L 229.000592 489.077088 
L 229.097848 483.957966 
L 229.146476 483.961898 
L 229.778638 482.932404 
L 230.167661 482.856492 
L 230.508056 482.595957 
L 231.09159 482.350502 
L 231.480613 482.337276 
L 232.744937 481.909952 
L 233.474355 481.714922 
L 234.690052 481.523855 
L 235.273586 481.423791 
L 235.711237 481.341521 
L 236.343399 481.244868 
L 237.170073 481.084388 
L 238.434397 480.845059 
L 240.914418 480.845059 
L 241.060302 481.032806 
L 242.324626 480.966054 
L 243.686207 480.935067 
L 245.096415 480.903568 
L 246.166228 480.882525 
L 247.236041 480.872413 
L 252.828245 480.85185 
L 252.974128 479.675822 
L 256.426707 478.172958 
L 258.080054 477.868505 
L 260.754587 477.405074 
L 262.553818 477.275936 
L 265.90914 477.386572 
L 267.027581 477.350353 
L 267.562487 477.349481 
L 270.869182 477.261758 
L 272.376646 477.106883 
L 275.488829 477.010153 
L 276.655898 477.010153 
L 276.801781 476.05596 
L 277.239432 475.952893 
L 281.081033 475.874867 
L 282.588497 475.851357 
L 287.159516 475.81469 
L 336.759937 475.924387 
L 340.698794 475.979696 
L 340.844677 502.325777 
L 355.822059 502.426688 
L 357.135011 502.402719 
L 360.101311 502.41412 
L 360.684845 502.448719 
L 365.158609 502.200093 
L 365.499004 502.184273 
L 366.617445 502.156064 
L 367.006467 502.213011 
L 367.541374 502.104792 
L 368.173536 502.074727 
L 368.805698 502.024014 
L 369.535116 502.033396 
L 370.021395 502.082621 
L 370.313162 502.052998 
L 371.528859 501.9217 
L 371.96651 501.743504 
L 372.501416 501.816154 
L 373.036323 501.972889 
L 373.425345 501.966927 
L 374.057508 501.913771 
L 376.683412 502.377243 
L 377.072435 502.53528 
L 377.41283 502.564692 
L 377.996365 502.511832 
L 378.33676 502.513593 
L 378.871666 502.392835 
L 379.260689 502.386797 
L 383.977592 502.457644 
L 384.123475 502.214536 
L 384.755638 501.992006 
L 388.597239 501.962594 
L 398.80909 502.045106 
L 399.48988 502.080227 
L 400.365182 502.079208 
L 400.948716 501.942556 
L 401.434995 501.923513 
L 402.942458 501.66752 
L 403.185598 501.563713 
L 403.525993 501.511034 
L 404.012271 501.409951 
L 405.568363 501.239087 
L 407.805245 501.239087 
L 407.951128 500.089897 
L 408.340151 500.02659 
L 408.58329 499.977659 
L 409.555848 499.663988 
L 412.181752 499.514684 
L 416.266493 499.598473 
L 416.995911 499.678096 
L 418.017096 499.683641 
L 419.719071 499.683641 
L 419.864955 499.85699 
L 420.20535 499.926085 
L 421.323791 500.459736 
L 421.664186 500.458997 
L 422.004581 500.339495 
L 422.831254 500.470102 
L 423.171649 500.484263 
L 423.6093 500.490966 
L 425.457159 500.594879 
L 425.846182 500.75234 
L 426.672856 500.906117 
L 427.25639 501.077286 
L 428.228947 501.118956 
L 428.569342 501.199614 
L 430.563085 501.331081 
L 431.632898 501.331081 
L 431.778781 501.075136 
L 434.550569 501.129762 
L 435.036848 501.136268 
L 435.863522 501.201079 
L 436.884707 501.267402 
L 437.95452 501.095661 
L 438.343543 501.089638 
L 438.781193 501.096358 
L 439.3161 501.049219 
L 441.552982 500.961547 
L 455.460551 500.927947 
L 455.557806 499.031082 
L 455.752318 502.204317 
L 455.800946 501.979074 
L 455.849573 502.124457 
L 456.044085 503.80478 
L 456.092713 503.452258 
L 456.189968 502.778836 
L 456.433108 500.242005 
L 456.481736 500.332879 
L 456.773503 502.069779 
L 456.870759 502.149495 
L 457.06527 502.443476 
L 457.162526 502.483751 
L 457.405665 503.22357 
L 457.502921 503.148658 
L 457.891944 504.386296 
L 457.940572 504.341182 
L 457.989199 504.428247 
L 458.475478 505.809554 
L 458.621362 505.954668 
L 458.864501 506.598438 
L 458.961757 506.742579 
L 459.10764 506.885373 
L 459.545291 506.623547 
L 459.642547 506.538961 
L 459.691175 506.588858 
L 459.982942 506.87928 
L 460.03157 506.817536 
L 460.128825 506.718156 
L 460.177453 506.752071 
L 460.274709 506.84703 
L 460.323337 506.795717 
L 460.566476 506.682977 
L 460.71236 506.602061 
L 460.955499 506.509927 
L 461.101383 506.734827 
L 461.539033 507.434127 
L 461.976684 507.906101 
L 462.122568 507.967947 
L 462.317079 508.107188 
L 462.462963 508.149751 
L 462.706102 508.256619 
L 462.997869 508.504326 
L 463.192381 508.488107 
L 463.532776 508.794953 
L 463.775915 509.099681 
L 464.505333 509.531515 
L 464.894356 509.670107 
L 467.374377 509.670107 
L 467.471633 506.483323 
L 467.520261 506.494551 
L 467.909283 506.001391 
L 468.249679 505.58733 
L 468.395562 505.61386 
L 469.12498 505.168955 
L 469.319492 505.152081 
L 469.80577 505.161138 
L 471.118722 504.843869 
L 471.84814 504.716171 
L 473.015209 504.638447 
L 474.81444 504.488939 
L 475.543858 504.397684 
L 476.905438 504.242943 
L 479.288203 504.242943 
L 479.434087 504.476594 
L 480.892923 504.530265 
L 483.616083 504.499005 
L 484.880408 504.481277 
L 491.20203 504.433022 
L 491.347914 503.769872 
L 492.709494 503.461346 
L 498.544837 502.696032 
L 505.30411 502.34461 
L 505.839017 502.288542 
L 506.325295 502.220668 
L 510.31278 502.062406 
L 511.820244 501.950048 
L 515.029683 501.946664 
L 515.175566 501.462495 
L 515.661845 501.385143 
L 516.828914 501.331907 
L 517.801471 501.38513 
L 521.059538 501.467813 
L 532.730225 501.498773 
L 579.072579 501.564644 
L 579.218462 502.325749 
L 579.558857 502.375593 
L 579.753369 502.491998 
L 580.093764 502.277426 
L 580.434159 502.669524 
L 580.482787 502.577171 
L 580.920437 501.916732 
L 581.114949 502.597597 
L 581.163577 502.514566 
L 581.260832 502.533642 
L 581.358088 502.327201 
L 581.795739 500.172472 
L 581.844367 500.314477 
L 582.087506 501.244212 
L 582.476529 503.825402 
L 582.67104 505.048911 
L 582.768296 505.629446 
L 582.816924 505.510008 
L 582.865552 505.255371 
L 582.91418 505.406776 
L 583.108691 505.318394 
L 583.303203 504.598414 
L 583.449086 504.923542 
L 583.546342 504.426423 
L 583.692226 503.789199 
L 583.740853 503.803813 
L 584.032621 503.956847 
L 584.081248 504.159549 
L 584.129876 504.107602 
L 584.178504 504.044402 
L 584.324388 504.199422 
L 584.373016 504.21318 
L 584.470271 503.743027 
L 584.518899 503.769666 
L 584.616155 503.866744 
L 584.859294 504.332247 
L 585.248317 502.976563 
L 585.442829 502.603297 
L 585.685968 502.186234 
L 585.783224 502.315766 
L 585.929107 502.567573 
L 586.026363 502.475161 
L 586.269502 501.773902 
L 586.512642 501.410027 
L 586.609897 501.423578 
L 586.99892 501.984828 
L 587.24206 502.384775 
L 587.436571 502.355382 
L 587.533827 502.188861 
L 587.631083 502.057424 
L 587.67971 502.083761 
L 587.874222 501.875957 
L 587.92285 501.964335 
L 588.165989 502.410656 
L 588.263245 502.301717 
L 588.506384 502.131378 
L 588.798151 502.24286 
L 589.089918 501.955173 
L 589.235802 501.860408 
L 589.478941 501.757875 
L 589.673453 501.76807 
L 590.305615 502.060222 
L 590.548754 502.415302 
L 590.791894 502.448355 
L 590.986405 502.363325 
L 591.813079 502.530569 
L 592.153474 502.642957 
L 593.126031 502.491885 
L 594.341728 502.883562 
L 595.071146 502.811262 
L 595.508796 502.766751 
L 596.675865 502.758487 
L 598.815491 502.799093 
L 599.350398 503.790211 
L 599.593537 505.099581 
L 599.690793 505.513927 
L 599.73942 505.48667 
L 599.836676 505.67553 
L 599.933932 505.038844 
L 599.98256 505.296034 
L 600.079815 505.626855 
L 600.128443 505.507151 
L 600.322955 505.755484 
L 600.566094 506.85774 
L 600.760606 508.927094 
L 600.809233 508.162401 
L 601.101001 504.066255 
L 601.295512 502.805673 
L 601.927674 490.476819 
L 602.170814 494.814184 
L 602.219441 494.633777 
L 602.365325 493.715003 
L 602.900232 483.960183 
L 602.948859 484.079348 
L 603.046115 485.350367 
L 603.094743 485.232841 
L 603.191999 484.444622 
L 603.629649 474.198075 
L 603.726905 474.886525 
L 603.824161 476.678932 
L 603.872789 476.658869 
L 603.970045 475.05628 
L 604.018672 473.61663 
L 604.0673 473.619675 
L 604.115928 474.548129 
L 604.164556 474.421871 
L 604.213184 474.226191 
L 604.261812 474.3982 
L 604.359067 475.349161 
L 604.456323 476.411995 
L 604.796718 472.599203 
L 604.845346 472.418801 
L 604.893974 472.519531 
L 605.282997 481.268657 
L 605.331625 481.564571 
L 605.380253 481.498895 
L 605.720648 471.80378 
L 605.769275 471.914517 
L 605.817903 471.713682 
L 605.866531 470.450136 
L 605.915159 471.127142 
L 606.061043 472.297328 
L 606.10967 471.391078 
L 606.158298 472.139146 
L 606.255554 473.319792 
L 606.304182 472.652997 
L 606.498693 470.336403 
L 606.693205 464.92512 
L 606.790461 466.12097 
L 606.936344 468.706165 
L 606.984972 468.166033 
L 607.228111 465.437097 
L 607.373995 462.813229 
L 607.519879 466.531962 
L 607.665762 465.251583 
L 608.200669 477.395569 
L 608.492436 471.799882 
L 608.589692 471.704947 
L 608.686947 472.65656 
L 608.735575 472.643129 
L 609.124598 464.384992 
L 609.319109 465.684697 
L 609.367737 464.860773 
L 609.416365 465.288821 
L 609.610877 468.877064 
L 609.708132 468.217551 
L 609.75676 468.984563 
L 609.902644 464.324167 
L 610.194411 453.400366 
L 610.388922 450.188814 
L 610.486178 449.620938 
L 610.826573 455.655737 
L 611.069713 464.134576 
L 611.36148 469.989184 
L 611.507363 475.018306 
L 611.701875 473.547452 
L 611.750503 473.802571 
L 611.896386 472.056557 
L 612.090898 475.232636 
L 612.188153 473.953956 
L 612.334037 469.832488 
L 612.820316 473.086738 
L 612.868943 472.431828 
L 612.917571 471.62816 
L 613.112083 476.886624 
L 613.160711 476.674475 
L 613.257966 479.38058 
L 613.355222 482.037023 
L 613.40385 481.51231 
L 613.501106 481.888442 
L 613.549734 481.187648 
L 613.744245 484.081746 
L 613.841501 484.089132 
L 614.08464 488.406406 
L 614.279151 493.36967 
L 614.327779 493.565158 
L 614.473663 492.313595 
L 614.619547 494.185838 
L 615.397592 520.574367 
L 615.44622 520.376838 
L 615.494848 519.581047 
L 615.543476 520.079068 
L 615.737987 523.512727 
L 615.883871 522.387861 
L 615.932499 522.414113 
L 616.175638 520.747878 
L 616.224266 520.927268 
L 616.321522 519.750553 
L 616.516033 516.587344 
L 616.710545 519.016324 
L 616.759173 518.935493 
L 617.391335 509.262265 
L 617.439963 510.083869 
L 617.48859 510.11219 
L 617.634474 510.582208 
L 617.73173 511.131804 
L 617.828986 512.153432 
L 617.877613 511.922186 
L 617.974869 511.697805 
L 618.023497 511.901852 
L 618.218008 515.621954 
L 618.266636 515.20717 
L 618.607031 519.596293 
L 618.947426 518.428243 
L 618.996054 518.609346 
L 619.190566 516.323423 
L 619.336449 518.100663 
L 619.530961 514.224145 
L 619.579589 514.342286 
L 619.725472 515.611073 
L 622.351377 515.611073 
L 622.49726 512.305388 
L 622.789028 510.167037 
L 623.17805 508.759487 
L 623.858841 507.328176 
L 624.004724 507.101756 
L 624.053352 507.149747 
L 624.345119 507.731366 
L 624.539631 507.991715 
L 625.317676 509.718098 
L 625.901211 510.068013 
L 626.047094 510.081879 
L 626.338862 510.575918 
L 626.387489 510.509758 
L 626.630629 510.624265 
L 627.165535 511.811654 
L 627.360047 512.14301 
L 627.603186 512.2673 
L 627.992209 512.854149 
L 628.138092 512.930343 
L 628.332604 513.000247 
L 628.478488 512.959156 
L 628.575743 512.881291 
L 628.770255 513.407454 
L 629.11065 514.93657 
L 629.256533 515.189872 
L 629.353789 515.04029 
L 629.499673 514.980191 
L 629.888696 514.514122 
L 630.034579 514.564375 
L 630.083207 514.60786 
L 630.131835 514.533952 
L 630.374974 514.157827 
L 630.423602 514.148334 
L 630.47223 514.299691 
L 630.520858 514.257987 
L 630.763997 513.369455 
L 630.909881 513.060575 
L 631.104392 512.768959 
L 631.201648 512.849755 
L 631.298904 513.025306 
L 631.347531 512.995716 
L 631.444787 513.14975 
L 631.639299 513.354042 
L 634.265203 513.354042 
L 634.411087 516.071486 
L 634.508343 511.542409 
L 634.80011 499.977589 
L 634.897365 501.826359 
L 634.994621 503.823163 
L 635.043249 503.734451 
L 635.140505 502.883384 
L 635.237761 502.044815 
L 635.335016 503.09927 
L 635.383644 503.680175 
L 635.4809 503.632265 
L 635.578156 502.662712 
L 635.626783 502.061814 
L 635.724039 502.193687 
L 635.772667 501.834418 
L 635.869923 501.851834 
L 636.064434 500.818782 
L 636.258946 497.258336 
L 636.307573 497.206663 
L 636.356201 497.495206 
L 636.404829 497.319486 
L 636.453457 497.367815 
L 636.502085 497.291464 
L 637.426014 491.398106 
L 637.474642 491.564613 
L 637.620526 494.352381 
L 637.717782 493.572658 
L 637.766409 493.738352 
L 637.960921 495.666601 
L 638.009549 494.853451 
L 638.20406 493.217643 
L 638.252688 493.292014 
L 638.349944 493.594746 
L 638.447199 494.144386 
L 638.495827 493.876642 
L 638.641711 494.301197 
L 638.690339 494.15076 
L 639.273873 480.535255 
L 639.371129 481.582057 
L 639.419757 482.235428 
L 639.517012 482.12999 
L 639.760152 479.13291 
L 640.197803 470.338276 
L 640.48957 467.286386 
L 640.538198 467.495392 
L 640.586825 467.24443 
L 640.684081 467.99604 
L 641.267616 457.366505 
L 641.413499 456.647558 
L 641.802522 444.193749 
L 641.85115 444.435256 
L 641.997033 446.500117 
L 642.240173 444.346942 
L 642.483312 438.516523 
L 642.580568 437.895822 
L 643.164102 429.189513 
L 643.21273 429.575463 
L 643.261358 428.904983 
L 643.309986 429.532467 
L 643.358614 430.646796 
L 643.407242 430.556309 
L 643.553125 429.68485 
L 646.17903 429.68485 
L 646.324913 371.087545 
L 646.568053 368.112054 
L 646.61668 367.877033 
L 646.811192 370.310577 
L 646.85982 369.95054 
L 647.054331 367.171413 
L 647.443354 360.287447 
L 647.735121 358.687187 
L 647.929633 359.294498 
L 648.026889 359.108837 
L 648.172772 358.156895 
L 648.318656 357.437675 
L 648.367284 357.481318 
L 648.561795 357.8794 
L 648.610423 357.808615 
L 648.853562 356.861505 
L 648.999446 356.699488 
L 649.193957 356.432274 
L 649.388469 356.005131 
L 649.485724 355.960376 
L 649.923375 355.108345 
L 650.50691 355.603481 
L 650.750049 356.166274 
L 650.798677 355.959967 
L 650.847305 355.939262 
L 650.993188 356.362706 
L 651.041816 356.267945 
L 651.139072 355.978561 
L 651.1877 356.048066 
L 651.479467 356.482983 
L 652.111629 359.351775 
L 652.30614 358.763549 
L 652.354768 358.957836 
L 652.452024 359.4324 
L 652.54928 359.356966 
L 652.938303 360.341935 
L 653.035558 360.715811 
L 653.084186 360.675409 
L 653.570465 358.014814 
L 653.667721 358.487321 
L 654.008116 356.237649 
L 654.056744 356.253566 
L 654.299883 356.795825 
L 654.445766 357.323583 
L 654.543022 356.900171 
L 654.59165 357.068145 
L 654.834789 360.403566 
L 654.932045 360.576157 
L 655.029301 360.850379 
L 655.223812 362.340266 
L 655.27244 362.299583 
L 655.369696 362.471416 
L 655.515579 362.772163 
L 658.092856 362.772163 
L 658.287368 361.291803 
L 658.335995 360.332078 
L 658.384623 360.525591 
L 658.579135 361.597541 
L 658.725018 366.980393 
L 659.259925 380.546561 
L 659.405808 378.871334 
L 659.746204 385.136341 
L 659.843459 385.160281 
L 659.940715 383.397971 
L 660.378366 371.71515 
L 660.767389 369.412113 
L 661.107784 373.704529 
L 661.302295 376.312644 
L 661.350923 376.233416 
L 661.399551 376.290719 
L 661.448179 376.379084 
L 661.788574 373.777141 
L 661.837202 373.854799 
L 662.031713 374.928004 
L 662.32348 371.577366 
L 662.420736 371.871388 
L 662.517992 372.65027 
L 663.150154 378.879955 
L 663.198782 379.201557 
L 663.24741 378.808607 
L 663.296038 378.535617 
L 663.344665 378.826138 
L 663.393293 379.169076 
L 663.490549 379.103479 
L 663.539177 378.960762 
L 663.587805 379.098097 
L 663.68506 380.03481 
L 664.025455 388.581012 
L 664.268595 393.211278 
L 664.900757 401.253371 
L 665.435664 410.975079 
L 665.581547 413.041202 
L 665.776059 415.571665 
L 665.824686 415.081157 
L 665.873314 415.325184 
L 665.921942 415.423223 
L 666.116454 417.555472 
L 666.262337 419.761011 
L 666.359593 419.701674 
L 666.408221 419.882976 
L 666.456849 419.797942 
L 666.505476 419.790248 
L 666.65136 419.496804 
L 666.991755 424.720065 
L 667.478034 431.23711 
L 670.006683 431.23711 
L 670.152566 425.488126 
L 670.201194 425.558958 
L 670.444333 427.204987 
L 670.492961 427.04391 
L 670.541589 427.103722 
L 670.736101 428.129919 
L 671.125123 432.278271 
L 671.319635 432.358495 
L 671.465519 431.779068 
L 671.514146 431.866042 
L 671.562774 432.219183 
L 671.611402 431.948344 
L 671.66003 431.891617 
L 671.903169 429.878859 
L 671.951797 429.79123 
L 672.049053 428.652203 
L 672.292192 425.018363 
L 672.34082 424.956144 
L 672.583959 423.197971 
L 672.632587 423.222674 
L 672.827099 425.745657 
L 672.875727 425.414476 
L 672.924354 425.755471 
L 673.02161 426.982181 
L 673.070238 426.827557 
L 673.264749 425.852873 
L 673.362005 425.388792 
L 673.459261 424.388915 
L 673.507889 424.579949 
L 673.605145 424.961968 
L 673.653772 424.869424 
L 673.7024 424.753098 
L 673.896912 425.672183 
L 673.994167 424.629268 
L 674.042795 424.924249 
L 674.674957 429.173866 
L 674.772213 428.541361 
L 674.966725 428.247734 
L 675.06398 428.784526 
L 675.112608 428.534197 
L 675.161236 428.244607 
L 675.550259 422.512905 
L 675.598887 422.560134 
L 675.74477 421.526838 
L 676.522816 412.092061 
L 676.571444 412.689341 
L 676.814583 414.777709 
L 676.911839 414.582605 
L 676.960467 414.667231 
L 677.106351 413.84543 
L 677.300862 411.217347 
L 677.446746 410.064435 
L 677.495374 410.318173 
L 677.592629 410.275946 
L 677.787141 408.607446 
L 677.835769 409.343366 
L 677.884396 408.721091 
L 677.933024 408.194479 
L 678.03028 408.253978 
L 678.127536 408.816693 
L 678.176164 408.771922 
L 678.224792 408.740197 
L 678.467931 405.886063 
L 678.954209 400.60229 
L 679.100093 398.839039 
L 679.294604 400.356885 
L 681.920509 400.356885 
L 681.969137 400.038197 
L 682.115021 418.499597 
L 682.455416 419.674703 
L 682.552671 419.700953 
L 682.990322 420.021994 
L 683.184834 419.885469 
L 683.379345 419.955712 
L 684.060135 419.912979 
L 684.303274 419.726414 
L 684.935437 419.874587 
L 685.129948 419.868254 
L 685.616227 419.837248 
L 686.053877 420.175364 
L 686.199761 419.991087 
L 686.394273 419.682384 
L 686.637412 419.633839 
L 686.734668 419.669393 
L 687.026435 419.38671 
L 687.318202 419.118841 
L 687.512713 419.052216 
L 687.804481 418.635595 
L 688.388015 418.245829 
L 688.485271 418.312697 
L 688.533898 418.243874 
L 689.068805 417.394962 
L 689.457828 416.482293 
L 689.944107 416.197891 
L 690.187246 416.246324 
L 690.77078 415.594662 
L 691.208431 414.587804 
L 693.834336 414.587804 
L 693.882963 312.967273 
L 693.931591 432.423992 
L 694.077475 495.990453 
L 694.223358 497.247278 
L 694.41787 499.998962 
L 694.466498 499.472203 
L 694.563754 498.560447 
L 694.806893 495.256774 
L 694.855521 495.412822 
L 695.147288 497.737476 
L 695.195916 497.740455 
L 695.439055 498.289874 
L 695.487683 498.255763 
L 695.584939 498.610399 
L 695.77945 499.236444 
L 695.828078 499.216161 
L 695.876706 499.12215 
L 696.265729 500.584987 
L 696.314357 500.537348 
L 696.606124 501.446023 
L 697.189658 503.153307 
L 697.530053 503.545206 
L 697.627309 503.457715 
L 697.675937 503.54797 
L 697.82182 503.485599 
L 698.016332 503.186806 
L 698.06496 503.250767 
L 698.356727 503.575549 
L 698.405355 503.500122 
L 698.50261 503.3728 
L 698.551238 503.408198 
L 698.648494 503.503881 
L 698.697122 503.442949 
L 698.891633 503.308124 
L 699.037517 503.269276 
L 699.232028 503.072768 
L 699.280656 503.110293 
L 699.377912 503.138331 
L 700.204586 504.49468 
L 700.350469 504.580171 
L 700.496353 504.636265 
L 700.690864 504.762074 
L 700.836748 504.788558 
L 701.031259 504.825457 
L 701.323026 505.114616 
L 701.857933 505.319374 
L 702.198328 505.7686 
L 702.733235 506.148831 
L 702.927746 506.164954 
L 703.219513 506.276828 
L 705.748162 506.276828 
L 705.79679 508.170136 
L 705.894046 508.124741 
L 706.526208 506.89115 
L 706.915231 506.758088 
L 707.255626 506.488147 
L 707.83916 506.251183 
L 708.325439 506.242768 
L 709.20074 506.087509 
L 710.270553 505.766716 
L 711.291738 505.698765 
L 712.556063 505.575299 
L 716.154525 505.317816 
L 718.196895 505.424388 
L 718.731801 505.470278 
L 719.558475 505.465164 
L 729.575815 505.473275 
L 729.721699 504.952876 
L 734.584485 504.314165 
L 737.064506 504.111841 
L 742.316315 503.918223 
L 745.039475 503.369903 
L 746.012033 503.304805 
L 748.297542 503.087171 
L 753.403468 502.888137 
L 753.549351 502.476185 
L 754.230142 502.298637 
L 754.813676 502.230949 
L 756.272512 502.220137 
L 762.0106 502.282907 
L 766.581619 502.256416 
L 784.428045 502.234818 
L 817.446364 502.31781 
L 817.446364 502.31781 
" clip-path="url(#p719e355f17)" style="fill: none; stroke-dasharray: 5.55,2.4; stroke-dashoffset: 0; stroke: #ff0000; stroke-width: 1.5"/>
   </g>
   <g id="line2d_59">
    <path d="M 340.747421 534.04 
L 340.747421 302.44 
" clip-path="url(#p719e355f17)" style="fill: none; stroke-dasharray: 1.5,2.475; stroke-dashoffset: 0; stroke: #808080; stroke-opacity: 0.6; stroke-width: 1.5"/>
   </g>
   <g id="line2d_60">
    <path d="M 579.121206 534.04 
L 579.121206 302.44 
" clip-path="url(#p719e355f17)" style="fill: none; stroke-dasharray: 1.5,2.475; stroke-dashoffset: 0; stroke: #808080; stroke-opacity: 0.6; stroke-width: 1.5"/>
   </g>
   <g id="patch_9">
    <path d="M 66.62 534.04 
L 66.62 302.44 
" style="fill: none; stroke: #000000; stroke-width: 0.8; stroke-linejoin: miter; stroke-linecap: square"/>
   </g>
   <g id="patch_10">
    <path d="M 853.2 534.04 
L 853.2 302.44 
" style="fill: none; stroke: #000000; stroke-width: 0.8; stroke-linejoin: miter; stroke-linecap: square"/>
   </g>
   <g id="patch_11">
    <path d="M 66.62 534.04 
L 853.2 534.04 
" style="fill: none; stroke: #000000; stroke-width: 0.8; stroke-linejoin: miter; stroke-linecap: square"/>
   </g>
   <g id="patch_12">
    <path d="M 66.62 302.44 
L 853.2 302.44 
" style="fill: none; stroke: #000000; stroke-width: 0.8; stroke-linejoin: miter; stroke-linecap: square"/>
   </g>
   <g id="text_32">
    <!-- [13] dKg_yx  —  State Estimate -->
    <g transform="translate(366.113125 296.44) scale(0.12 -0.12)">
     <use xlink:href="#DejaVuSans-5b"/>
     <use xlink:href="#DejaVuSans-31" transform="translate(39.013672 0)"/>
     <use xlink:href="#DejaVuSans-33" transform="translate(102.636719 0)"/>
     <use xlink:href="#DejaVuSans-5d" transform="translate(166.259766 0)"/>
     <use xlink:href="#DejaVuSans-20" transform="translate(205.273438 0)"/>
     <use xlink:href="#DejaVuSans-64" transform="translate(237.060547 0)"/>
     <use xlink:href="#DejaVuSans-4b" transform="translate(300.537109 0)"/>
     <use xlink:href="#DejaVuSans-67" transform="translate(366.113281 0)"/>
     <use xlink:href="#DejaVuSans-5f" transform="translate(429.589844 0)"/>
     <use xlink:href="#DejaVuSans-79" transform="translate(479.589844 0)"/>
     <use xlink:href="#DejaVuSans-78" transform="translate(538.769531 0)"/>
     <use xlink:href="#DejaVuSans-20" transform="translate(597.949219 0)"/>
     <use xlink:href="#DejaVuSans-20" transform="translate(629.736328 0)"/>
     <use xlink:href="#DejaVuSans-2014" transform="translate(661.523438 0)"/>
     <use xlink:href="#DejaVuSans-20" transform="translate(761.523438 0)"/>
     <use xlink:href="#DejaVuSans-20" transform="translate(793.310547 0)"/>
     <use xlink:href="#DejaVuSans-53" transform="translate(825.097656 0)"/>
     <use xlink:href="#DejaVuSans-74" transform="translate(888.574219 0)"/>
     <use xlink:href="#DejaVuSans-61" transform="translate(927.783203 0)"/>
     <use xlink:href="#DejaVuSans-74" transform="translate(989.0625 0)"/>
     <use xlink:href="#DejaVuSans-65" transform="translate(1028.271484 0)"/>
     <use xlink:href="#DejaVuSans-20" transform="translate(1089.794922 0)"/>
     <use xlink:href="#DejaVuSans-45" transform="translate(1121.582031 0)"/>
     <use xlink:href="#DejaVuSans-73" transform="translate(1184.765625 0)"/>
     <use xlink:href="#DejaVuSans-74" transform="translate(1236.865234 0)"/>
     <use xlink:href="#DejaVuSans-69" transform="translate(1276.074219 0)"/>
     <use xlink:href="#DejaVuSans-6d" transform="translate(1303.857422 0)"/>
     <use xlink:href="#DejaVuSans-61" transform="translate(1401.269531 0)"/>
     <use xlink:href="#DejaVuSans-74" transform="translate(1462.548828 0)"/>
     <use xlink:href="#DejaVuSans-65" transform="translate(1501.757812 0)"/>
    </g>
   </g>
   <g id="legend_2">
    <g id="patch_13">
     <path d="M 738.401563 339.79625 
L 846.2 339.79625 
Q 848.2 339.79625 848.2 337.79625 
L 848.2 309.44 
Q 848.2 307.44 846.2 307.44 
L 738.401563 307.44 
Q 736.401563 307.44 736.401563 309.44 
L 736.401563 337.79625 
Q 736.401563 339.79625 738.401563 339.79625 
z
" style="fill: #ffffff; opacity: 0.8; stroke: #cccccc; stroke-linejoin: miter"/>
    </g>
    <g id="line2d_61">
     <path d="M 740.401563 315.538437 
L 750.401563 315.538437 
L 760.401563 315.538437 
" style="fill: none; stroke: #0000ff; stroke-width: 1.5; stroke-linecap: square"/>
    </g>
    <g id="text_33">
     <!-- No Noise -->
     <g transform="translate(768.401563 319.038437) scale(0.1 -0.1)">
      <use xlink:href="#DejaVuSans-4e"/>
      <use xlink:href="#DejaVuSans-6f" transform="translate(74.804688 0)"/>
      <use xlink:href="#DejaVuSans-20" transform="translate(135.986328 0)"/>
      <use xlink:href="#DejaVuSans-4e" transform="translate(167.773438 0)"/>
      <use xlink:href="#DejaVuSans-6f" transform="translate(242.578125 0)"/>
      <use xlink:href="#DejaVuSans-69" transform="translate(303.759766 0)"/>
      <use xlink:href="#DejaVuSans-73" transform="translate(331.542969 0)"/>
      <use xlink:href="#DejaVuSans-65" transform="translate(383.642578 0)"/>
     </g>
    </g>
    <g id="line2d_62">
     <path d="M 740.401563 330.216562 
L 750.401563 330.216562 
L 760.401563 330.216562 
" style="fill: none; stroke-dasharray: 5.55,2.4; stroke-dashoffset: 0; stroke: #ff0000; stroke-width: 1.5"/>
    </g>
    <g id="text_34">
     <!-- With ARW/VRW -->
     <g transform="translate(768.401563 333.716562) scale(0.1 -0.1)">
      <use xlink:href="#DejaVuSans-57"/>
      <use xlink:href="#DejaVuSans-69" transform="translate(96.626953 0)"/>
      <use xlink:href="#DejaVuSans-74" transform="translate(124.410156 0)"/>
      <use xlink:href="#DejaVuSans-68" transform="translate(163.619141 0)"/>
      <use xlink:href="#DejaVuSans-20" transform="translate(226.998047 0)"/>
      <use xlink:href="#DejaVuSans-41" transform="translate(258.785156 0)"/>
      <use xlink:href="#DejaVuSans-52" transform="translate(327.193359 0)"/>
      <use xlink:href="#DejaVuSans-57" transform="translate(392.675781 0)"/>
      <use xlink:href="#DejaVuSans-2f" transform="translate(491.552734 0)"/>
      <use xlink:href="#DejaVuSans-56" transform="translate(525.244141 0)"/>
      <use xlink:href="#DejaVuSans-52" transform="translate(593.652344 0)"/>
      <use xlink:href="#DejaVuSans-57" transform="translate(659.134766 0)"/>
     </g>
    </g>
   </g>
  </g>
 </g>
 <defs>
  <clipPath id="pe4373d190f">
   <rect x="66.62" y="26.88" width="786.58" height="231.6"/>
  </clipPath>
  <clipPath id="p719e355f17">
   <rect x="66.62" y="302.44" width="786.58" height="231.6"/>
  </clipPath>
 </defs>
</svg>
