<?xml version="1.0" encoding="utf-8" standalone="no"?>
<!DOCTYPE svg PUBLIC "-//W3C//DTD SVG 1.1//EN"
  "http://www.w3.org/Graphics/SVG/1.1/DTD/svg11.dtd">
<svg xmlns:xlink="http://www.w3.org/1999/xlink" width="864pt" height="576pt" viewBox="0 0 864 576" xmlns="http://www.w3.org/2000/svg" version="1.1">
 <metadata>
  <rdf:RDF xmlns:dc="http://purl.org/dc/elements/1.1/" xmlns:cc="http://creativecommons.org/ns#" xmlns:rdf="http://www.w3.org/1999/02/22-rdf-syntax-ns#">
   <cc:Work>
    <dc:type rdf:resource="http://purl.org/dc/dcmitype/StillImage"/>
    <dc:date>2026-03-03T11:38:08.577445</dc:date>
    <dc:format>image/svg+xml</dc:format>
    <dc:creator>
     <cc:Agent>
      <dc:title>Matplotlib v3.10.8, https://matplotlib.org/</dc:title>
     </cc:Agent>
    </dc:creator>
   </cc:Work>
  </rdf:RDF>
 </metadata>
 <defs>
  <style type="text/css">*{stroke-linejoin: round; stroke-linecap: butt}</style>
 </defs>
 <g id="figure_1">
  <g id="patch_1">
   <path d="M 0 576 
L 864 576 
L 864 0 
L 0 0 
z
" style="fill: #ffffff"/>
  </g>
  <g id="axes_1">
   <g id="patch_2">
    <path d="M 81.29 258.48 
L 853.2 258.48 
L 853.2 26.88 
L 81.29 26.88 
z
" style="fill: #ffffff"/>
   </g>
   <g id="matplotlib.axis_1">
    <g id="xtick_1">
     <g id="line2d_1">
      <path d="M 116.376818 258.48 
L 116.376818 26.88 
" clip-path="url(#p7abec756cc)" style="fill: none; stroke: #b0b0b0; stroke-width: 0.8; stroke-linecap: square"/>
     </g>
     <g id="line2d_2">
      <defs>
       <path id="m957a99c3a2" d="M 0 0 
L 0 3.5 
" style="stroke: #000000; stroke-width: 0.8"/>
      </defs>
      <g>
       <use xlink:href="#m957a99c3a2" x="116.376818" y="258.48" style="stroke: #000000; stroke-width: 0.8"/>
      </g>
     </g>
     <g id="text_1">
      <!-- 0 -->
      <g transform="translate(113.195568 273.078438) scale(0.1 -0.1)">
       <defs>
        <path id="DejaVuSans-30" d="M 2034 4250 
Q 1547 4250 1301 3770 
Q 1056 3291 1056 2328 
Q 1056 1369 1301 889 
Q 1547 409 2034 409 
Q 2525 409 2770 889 
Q 3016 1369 3016 2328 
Q 3016 3291 2770 3770 
Q 2525 4250 2034 4250 
z
M 2034 4750 
Q 2819 4750 3233 4129 
Q 3647 3509 3647 2328 
Q 3647 1150 3233 529 
Q 2819 -91 2034 -91 
Q 1250 -91 836 529 
Q 422 1150 422 2328 
Q 422 3509 836 4129 
Q 1250 4750 2034 4750 
z
" transform="scale(0.015625)"/>
       </defs>
       <use xlink:href="#DejaVuSans-30"/>
      </g>
     </g>
    </g>
    <g id="xtick_2">
     <g id="line2d_3">
      <path d="M 235.679158 258.48 
L 235.679158 26.88 
" clip-path="url(#p7abec756cc)" style="fill: none; stroke: #b0b0b0; stroke-width: 0.8; stroke-linecap: square"/>
     </g>
     <g id="line2d_4">
      <g>
       <use xlink:href="#m957a99c3a2" x="235.679158" y="258.48" style="stroke: #000000; stroke-width: 0.8"/>
      </g>
     </g>
     <g id="text_2">
      <!-- 50 -->
      <g transform="translate(229.316658 273.078438) scale(0.1 -0.1)">
       <defs>
        <path id="DejaVuSans-35" d="M 691 4666 
L 3169 4666 
L 3169 4134 
L 1269 4134 
L 1269 2991 
Q 1406 3038 1543 3061 
Q 1681 3084 1819 3084 
Q 2600 3084 3056 2656 
Q 3513 2228 3513 1497 
Q 3513 744 3044 326 
Q 2575 -91 1722 -91 
Q 1428 -91 1123 -41 
Q 819 9 494 109 
L 494 744 
Q 775 591 1075 516 
Q 1375 441 1709 441 
Q 2250 441 2565 725 
Q 2881 1009 2881 1497 
Q 2881 1984 2565 2268 
Q 2250 2553 1709 2553 
Q 1456 2553 1204 2497 
Q 953 2441 691 2322 
L 691 4666 
z
" transform="scale(0.015625)"/>
       </defs>
       <use xlink:href="#DejaVuSans-35"/>
       <use xlink:href="#DejaVuSans-30" transform="translate(63.623047 0)"/>
      </g>
     </g>
    </g>
    <g id="xtick_3">
     <g id="line2d_5">
      <path d="M 354.981498 258.48 
L 354.981498 26.88 
" clip-path="url(#p7abec756cc)" style="fill: none; stroke: #b0b0b0; stroke-width: 0.8; stroke-linecap: square"/>
     </g>
     <g id="line2d_6">
      <g>
       <use xlink:href="#m957a99c3a2" x="354.981498" y="258.48" style="stroke: #000000; stroke-width: 0.8"/>
      </g>
     </g>
     <g id="text_3">
      <!-- 100 -->
      <g transform="translate(345.437748 273.078438) scale(0.1 -0.1)">
       <defs>
        <path id="DejaVuSans-31" d="M 794 531 
L 1825 531 
L 1825 4091 
L 703 3866 
L 703 4441 
L 1819 4666 
L 2450 4666 
L 2450 531 
L 3481 531 
L 3481 0 
L 794 0 
L 794 531 
z
" transform="scale(0.015625)"/>
       </defs>
       <use xlink:href="#DejaVuSans-31"/>
       <use xlink:href="#DejaVuSans-30" transform="translate(63.623047 0)"/>
       <use xlink:href="#DejaVuSans-30" transform="translate(127.246094 0)"/>
      </g>
     </g>
    </g>
    <g id="xtick_4">
     <g id="line2d_7">
      <path d="M 474.283838 258.48 
L 474.283838 26.88 
" clip-path="url(#p7abec756cc)" style="fill: none; stroke: #b0b0b0; stroke-width: 0.8; stroke-linecap: square"/>
     </g>
     <g id="line2d_8">
      <g>
       <use xlink:href="#m957a99c3a2" x="474.283838" y="258.48" style="stroke: #000000; stroke-width: 0.8"/>
      </g>
     </g>
     <g id="text_4">
      <!-- 150 -->
      <g transform="translate(464.740088 273.078438) scale(0.1 -0.1)">
       <use xlink:href="#DejaVuSans-31"/>
       <use xlink:href="#DejaVuSans-35" transform="translate(63.623047 0)"/>
       <use xlink:href="#DejaVuSans-30" transform="translate(127.246094 0)"/>
      </g>
     </g>
    </g>
    <g id="xtick_5">
     <g id="line2d_9">
      <path d="M 593.586178 258.48 
L 593.586178 26.88 
" clip-path="url(#p7abec756cc)" style="fill: none; stroke: #b0b0b0; stroke-width: 0.8; stroke-linecap: square"/>
     </g>
     <g id="line2d_10">
      <g>
       <use xlink:href="#m957a99c3a2" x="593.586178" y="258.48" style="stroke: #000000; stroke-width: 0.8"/>
      </g>
     </g>
     <g id="text_5">
      <!-- 200 -->
      <g transform="translate(584.042428 273.078438) scale(0.1 -0.1)">
       <defs>
        <path id="DejaVuSans-32" d="M 1228 531 
L 3431 531 
L 3431 0 
L 469 0 
L 469 531 
Q 828 903 1448 1529 
Q 2069 2156 2228 2338 
Q 2531 2678 2651 2914 
Q 2772 3150 2772 3378 
Q 2772 3750 2511 3984 
Q 2250 4219 1831 4219 
Q 1534 4219 1204 4116 
Q 875 4013 500 3803 
L 500 4441 
Q 881 4594 1212 4672 
Q 1544 4750 1819 4750 
Q 2544 4750 2975 4387 
Q 3406 4025 3406 3419 
Q 3406 3131 3298 2873 
Q 3191 2616 2906 2266 
Q 2828 2175 2409 1742 
Q 1991 1309 1228 531 
z
" transform="scale(0.015625)"/>
       </defs>
       <use xlink:href="#DejaVuSans-32"/>
       <use xlink:href="#DejaVuSans-30" transform="translate(63.623047 0)"/>
       <use xlink:href="#DejaVuSans-30" transform="translate(127.246094 0)"/>
      </g>
     </g>
    </g>
    <g id="xtick_6">
     <g id="line2d_11">
      <path d="M 712.888518 258.48 
L 712.888518 26.88 
" clip-path="url(#p7abec756cc)" style="fill: none; stroke: #b0b0b0; stroke-width: 0.8; stroke-linecap: square"/>
     </g>
     <g id="line2d_12">
      <g>
       <use xlink:href="#m957a99c3a2" x="712.888518" y="258.48" style="stroke: #000000; stroke-width: 0.8"/>
      </g>
     </g>
     <g id="text_6">
      <!-- 250 -->
      <g transform="translate(703.344768 273.078438) scale(0.1 -0.1)">
       <use xlink:href="#DejaVuSans-32"/>
       <use xlink:href="#DejaVuSans-35" transform="translate(63.623047 0)"/>
       <use xlink:href="#DejaVuSans-30" transform="translate(127.246094 0)"/>
      </g>
     </g>
    </g>
    <g id="xtick_7">
     <g id="line2d_13">
      <path d="M 832.190858 258.48 
L 832.190858 26.88 
" clip-path="url(#p7abec756cc)" style="fill: none; stroke: #b0b0b0; stroke-width: 0.8; stroke-linecap: square"/>
     </g>
     <g id="line2d_14">
      <g>
       <use xlink:href="#m957a99c3a2" x="832.190858" y="258.48" style="stroke: #000000; stroke-width: 0.8"/>
      </g>
     </g>
     <g id="text_7">
      <!-- 300 -->
      <g transform="translate(822.647108 273.078438) scale(0.1 -0.1)">
       <defs>
        <path id="DejaVuSans-33" d="M 2597 2516 
Q 3050 2419 3304 2112 
Q 3559 1806 3559 1356 
Q 3559 666 3084 287 
Q 2609 -91 1734 -91 
Q 1441 -91 1130 -33 
Q 819 25 488 141 
L 488 750 
Q 750 597 1062 519 
Q 1375 441 1716 441 
Q 2309 441 2620 675 
Q 2931 909 2931 1356 
Q 2931 1769 2642 2001 
Q 2353 2234 1838 2234 
L 1294 2234 
L 1294 2753 
L 1863 2753 
Q 2328 2753 2575 2939 
Q 2822 3125 2822 3475 
Q 2822 3834 2567 4026 
Q 2313 4219 1838 4219 
Q 1578 4219 1281 4162 
Q 984 4106 628 3988 
L 628 4550 
Q 988 4650 1302 4700 
Q 1616 4750 1894 4750 
Q 2613 4750 3031 4423 
Q 3450 4097 3450 3541 
Q 3450 3153 3228 2886 
Q 3006 2619 2597 2516 
z
" transform="scale(0.015625)"/>
       </defs>
       <use xlink:href="#DejaVuSans-33"/>
       <use xlink:href="#DejaVuSans-30" transform="translate(63.623047 0)"/>
       <use xlink:href="#DejaVuSans-30" transform="translate(127.246094 0)"/>
      </g>
     </g>
    </g>
   </g>
   <g id="matplotlib.axis_2">
    <g id="ytick_1">
     <g id="line2d_15">
      <path d="M 81.29 248.466073 
L 853.2 248.466073 
" clip-path="url(#p7abec756cc)" style="fill: none; stroke: #b0b0b0; stroke-width: 0.8; stroke-linecap: square"/>
     </g>
     <g id="line2d_16">
      <defs>
       <path id="m1b8e03449b" d="M 0 0 
L -3.5 0 
" style="stroke: #000000; stroke-width: 0.8"/>
      </defs>
      <g>
       <use xlink:href="#m1b8e03449b" x="81.29" y="248.466073" style="stroke: #000000; stroke-width: 0.8"/>
      </g>
     </g>
     <g id="text_8">
      <!-- 0.000 -->
      <g transform="translate(45.661875 252.265292) scale(0.1 -0.1)">
       <defs>
        <path id="DejaVuSans-2e" d="M 684 794 
L 1344 794 
L 1344 0 
L 684 0 
L 684 794 
z
" transform="scale(0.015625)"/>
       </defs>
       <use xlink:href="#DejaVuSans-30"/>
       <use xlink:href="#DejaVuSans-2e" transform="translate(63.623047 0)"/>
       <use xlink:href="#DejaVuSans-30" transform="translate(95.410156 0)"/>
       <use xlink:href="#DejaVuSans-30" transform="translate(159.033203 0)"/>
       <use xlink:href="#DejaVuSans-30" transform="translate(222.65625 0)"/>
      </g>
     </g>
    </g>
    <g id="ytick_2">
     <g id="line2d_17">
      <path d="M 81.29 204.93207 
L 853.2 204.93207 
" clip-path="url(#p7abec756cc)" style="fill: none; stroke: #b0b0b0; stroke-width: 0.8; stroke-linecap: square"/>
     </g>
     <g id="line2d_18">
      <g>
       <use xlink:href="#m1b8e03449b" x="81.29" y="204.93207" style="stroke: #000000; stroke-width: 0.8"/>
      </g>
     </g>
     <g id="text_9">
      <!-- 0.001 -->
      <g transform="translate(45.661875 208.731289) scale(0.1 -0.1)">
       <use xlink:href="#DejaVuSans-30"/>
       <use xlink:href="#DejaVuSans-2e" transform="translate(63.623047 0)"/>
       <use xlink:href="#DejaVuSans-30" transform="translate(95.410156 0)"/>
       <use xlink:href="#DejaVuSans-30" transform="translate(159.033203 0)"/>
       <use xlink:href="#DejaVuSans-31" transform="translate(222.65625 0)"/>
      </g>
     </g>
    </g>
    <g id="ytick_3">
     <g id="line2d_19">
      <path d="M 81.29 161.398068 
L 853.2 161.398068 
" clip-path="url(#p7abec756cc)" style="fill: none; stroke: #b0b0b0; stroke-width: 0.8; stroke-linecap: square"/>
     </g>
     <g id="line2d_20">
      <g>
       <use xlink:href="#m1b8e03449b" x="81.29" y="161.398068" style="stroke: #000000; stroke-width: 0.8"/>
      </g>
     </g>
     <g id="text_10">
      <!-- 0.002 -->
      <g transform="translate(45.661875 165.197287) scale(0.1 -0.1)">
       <use xlink:href="#DejaVuSans-30"/>
       <use xlink:href="#DejaVuSans-2e" transform="translate(63.623047 0)"/>
       <use xlink:href="#DejaVuSans-30" transform="translate(95.410156 0)"/>
       <use xlink:href="#DejaVuSans-30" transform="translate(159.033203 0)"/>
       <use xlink:href="#DejaVuSans-32" transform="translate(222.65625 0)"/>
      </g>
     </g>
    </g>
    <g id="ytick_4">
     <g id="line2d_21">
      <path d="M 81.29 117.864065 
L 853.2 117.864065 
" clip-path="url(#p7abec756cc)" style="fill: none; stroke: #b0b0b0; stroke-width: 0.8; stroke-linecap: square"/>
     </g>
     <g id="line2d_22">
      <g>
       <use xlink:href="#m1b8e03449b" x="81.29" y="117.864065" style="stroke: #000000; stroke-width: 0.8"/>
      </g>
     </g>
     <g id="text_11">
      <!-- 0.003 -->
      <g transform="translate(45.661875 121.663284) scale(0.1 -0.1)">
       <use xlink:href="#DejaVuSans-30"/>
       <use xlink:href="#DejaVuSans-2e" transform="translate(63.623047 0)"/>
       <use xlink:href="#DejaVuSans-30" transform="translate(95.410156 0)"/>
       <use xlink:href="#DejaVuSans-30" transform="translate(159.033203 0)"/>
       <use xlink:href="#DejaVuSans-33" transform="translate(222.65625 0)"/>
      </g>
     </g>
    </g>
    <g id="ytick_5">
     <g id="line2d_23">
      <path d="M 81.29 74.330063 
L 853.2 74.330063 
" clip-path="url(#p7abec756cc)" style="fill: none; stroke: #b0b0b0; stroke-width: 0.8; stroke-linecap: square"/>
     </g>
     <g id="line2d_24">
      <g>
       <use xlink:href="#m1b8e03449b" x="81.29" y="74.330063" style="stroke: #000000; stroke-width: 0.8"/>
      </g>
     </g>
     <g id="text_12">
      <!-- 0.004 -->
      <g transform="translate(45.661875 78.129282) scale(0.1 -0.1)">
       <defs>
        <path id="DejaVuSans-34" d="M 2419 4116 
L 825 1625 
L 2419 1625 
L 2419 4116 
z
M 2253 4666 
L 3047 4666 
L 3047 1625 
L 3713 1625 
L 3713 1100 
L 3047 1100 
L 3047 0 
L 2419 0 
L 2419 1100 
L 313 1100 
L 313 1709 
L 2253 4666 
z
" transform="scale(0.015625)"/>
       </defs>
       <use xlink:href="#DejaVuSans-30"/>
       <use xlink:href="#DejaVuSans-2e" transform="translate(63.623047 0)"/>
       <use xlink:href="#DejaVuSans-30" transform="translate(95.410156 0)"/>
       <use xlink:href="#DejaVuSans-30" transform="translate(159.033203 0)"/>
       <use xlink:href="#DejaVuSans-34" transform="translate(222.65625 0)"/>
      </g>
     </g>
    </g>
    <g id="ytick_6">
     <g id="line2d_25">
      <path d="M 81.29 30.79606 
L 853.2 30.79606 
" clip-path="url(#p7abec756cc)" style="fill: none; stroke: #b0b0b0; stroke-width: 0.8; stroke-linecap: square"/>
     </g>
     <g id="line2d_26">
      <g>
       <use xlink:href="#m1b8e03449b" x="81.29" y="30.79606" style="stroke: #000000; stroke-width: 0.8"/>
      </g>
     </g>
     <g id="text_13">
      <!-- 0.005 -->
      <g transform="translate(45.661875 34.595279) scale(0.1 -0.1)">
       <use xlink:href="#DejaVuSans-30"/>
       <use xlink:href="#DejaVuSans-2e" transform="translate(63.623047 0)"/>
       <use xlink:href="#DejaVuSans-30" transform="translate(95.410156 0)"/>
       <use xlink:href="#DejaVuSans-30" transform="translate(159.033203 0)"/>
       <use xlink:href="#DejaVuSans-35" transform="translate(222.65625 0)"/>
      </g>
     </g>
    </g>
    <g id="text_14">
     <!-- Std Dev -->
     <g transform="translate(39.582187 162.463594) rotate(-90) scale(0.1 -0.1)">
      <defs>
       <path id="DejaVuSans-53" d="M 3425 4513 
L 3425 3897 
Q 3066 4069 2747 4153 
Q 2428 4238 2131 4238 
Q 1616 4238 1336 4038 
Q 1056 3838 1056 3469 
Q 1056 3159 1242 3001 
Q 1428 2844 1947 2747 
L 2328 2669 
Q 3034 2534 3370 2195 
Q 3706 1856 3706 1288 
Q 3706 609 3251 259 
Q 2797 -91 1919 -91 
Q 1588 -91 1214 -16 
Q 841 59 441 206 
L 441 856 
Q 825 641 1194 531 
Q 1563 422 1919 422 
Q 2459 422 2753 634 
Q 3047 847 3047 1241 
Q 3047 1584 2836 1778 
Q 2625 1972 2144 2069 
L 1759 2144 
Q 1053 2284 737 2584 
Q 422 2884 422 3419 
Q 422 4038 858 4394 
Q 1294 4750 2059 4750 
Q 2388 4750 2728 4690 
Q 3069 4631 3425 4513 
z
" transform="scale(0.015625)"/>
       <path id="DejaVuSans-74" d="M 1172 4494 
L 1172 3500 
L 2356 3500 
L 2356 3053 
L 1172 3053 
L 1172 1153 
Q 1172 725 1289 603 
Q 1406 481 1766 481 
L 2356 481 
L 2356 0 
L 1766 0 
Q 1100 0 847 248 
Q 594 497 594 1153 
L 594 3053 
L 172 3053 
L 172 3500 
L 594 3500 
L 594 4494 
L 1172 4494 
z
" transform="scale(0.015625)"/>
       <path id="DejaVuSans-64" d="M 2906 2969 
L 2906 4863 
L 3481 4863 
L 3481 0 
L 2906 0 
L 2906 525 
Q 2725 213 2448 61 
Q 2172 -91 1784 -91 
Q 1150 -91 751 415 
Q 353 922 353 1747 
Q 353 2572 751 3078 
Q 1150 3584 1784 3584 
Q 2172 3584 2448 3432 
Q 2725 3281 2906 2969 
z
M 947 1747 
Q 947 1113 1208 752 
Q 1469 391 1925 391 
Q 2381 391 2643 752 
Q 2906 1113 2906 1747 
Q 2906 2381 2643 2742 
Q 2381 3103 1925 3103 
Q 1469 3103 1208 2742 
Q 947 2381 947 1747 
z
" transform="scale(0.015625)"/>
       <path id="DejaVuSans-20" transform="scale(0.015625)"/>
       <path id="DejaVuSans-44" d="M 1259 4147 
L 1259 519 
L 2022 519 
Q 2988 519 3436 956 
Q 3884 1394 3884 2338 
Q 3884 3275 3436 3711 
Q 2988 4147 2022 4147 
L 1259 4147 
z
M 628 4666 
L 1925 4666 
Q 3281 4666 3915 4102 
Q 4550 3538 4550 2338 
Q 4550 1131 3912 565 
Q 3275 0 1925 0 
L 628 0 
L 628 4666 
z
" transform="scale(0.015625)"/>
       <path id="DejaVuSans-65" d="M 3597 1894 
L 3597 1613 
L 953 1613 
Q 991 1019 1311 708 
Q 1631 397 2203 397 
Q 2534 397 2845 478 
Q 3156 559 3463 722 
L 3463 178 
Q 3153 47 2828 -22 
Q 2503 -91 2169 -91 
Q 1331 -91 842 396 
Q 353 884 353 1716 
Q 353 2575 817 3079 
Q 1281 3584 2069 3584 
Q 2775 3584 3186 3129 
Q 3597 2675 3597 1894 
z
M 3022 2063 
Q 3016 2534 2758 2815 
Q 2500 3097 2075 3097 
Q 1594 3097 1305 2825 
Q 1016 2553 972 2059 
L 3022 2063 
z
" transform="scale(0.015625)"/>
       <path id="DejaVuSans-76" d="M 191 3500 
L 800 3500 
L 1894 563 
L 2988 3500 
L 3597 3500 
L 2284 0 
L 1503 0 
L 191 3500 
z
" transform="scale(0.015625)"/>
      </defs>
      <use xlink:href="#DejaVuSans-53"/>
      <use xlink:href="#DejaVuSans-74" transform="translate(63.476562 0)"/>
      <use xlink:href="#DejaVuSans-64" transform="translate(102.685547 0)"/>
      <use xlink:href="#DejaVuSans-20" transform="translate(166.162109 0)"/>
      <use xlink:href="#DejaVuSans-44" transform="translate(197.949219 0)"/>
      <use xlink:href="#DejaVuSans-65" transform="translate(274.951172 0)"/>
      <use xlink:href="#DejaVuSans-76" transform="translate(336.474609 0)"/>
     </g>
    </g>
   </g>
   <g id="line2d_27">
    <path d="M 116.376818 227.360193 
L 228.950506 227.400842 
L 229.093669 237.706157 
L 229.475436 240.638079 
L 229.809483 241.342943 
L 230.238971 241.69159 
L 230.954785 241.932116 
L 232.290972 242.104196 
L 235.440553 242.236167 
L 240.642135 242.281056 
L 240.785298 246.670502 
L 241.596554 247.092117 
L 242.646415 247.274429 
L 244.93702 247.396458 
L 251.188462 247.447231 
L 252.524649 247.557151 
L 256.724091 247.680866 
L 273.283256 247.765653 
L 277.291814 247.875849 
L 284.449955 247.931936 
L 350.257125 247.952644 
L 350.400288 227.360193 
L 462.878534 227.400819 
L 463.021697 237.698543 
L 463.403465 240.632309 
L 463.737511 241.338377 
L 464.167 241.687738 
L 464.882814 241.928805 
L 466.219 242.1013 
L 469.368582 242.2336 
L 474.570164 242.278585 
L 474.713326 246.668656 
L 475.524582 247.091215 
L 476.574443 247.274069 
L 478.865048 247.3965 
L 485.116491 247.447428 
L 486.500398 247.558237 
L 490.556677 247.678572 
L 506.113702 247.762422 
L 511.840215 247.88794 
L 520.382262 247.934074 
L 584.185154 247.952727 
L 584.328316 37.407273 
L 589.195852 37.518345 
L 595.685899 37.580312 
L 628.422461 37.759701 
L 629.615485 38.077769 
L 630.713066 38.606066 
L 631.810648 39.398639 
L 632.95595 40.509881 
L 634.339857 42.184715 
L 635.914648 44.104697 
L 638.348416 44.104697 
L 638.491579 46.877902 
L 639.255114 47.42096 
L 640.209532 47.816308 
L 641.59344 48.128977 
L 643.64544 48.344961 
L 647.033626 48.449887 
L 650.326371 48.59142 
L 652.044325 49.507207 
L 654.287209 50.867644 
L 656.625534 52.562883 
L 659.345628 54.53987 
L 661.731675 54.53987 
L 661.874837 58.921466 
L 662.590651 59.78618 
L 663.306465 60.269612 
L 664.260884 60.621008 
L 665.59707 60.85925 
L 667.792233 60.997331 
L 672.898374 61.029019 
L 673.423304 61.029019 
L 673.566467 61.190785 
L 674.75949 61.457275 
L 676.525165 62.056837 
L 678.290839 62.895118 
L 680.247398 64.077049 
L 682.776607 65.638372 
L 685.114933 65.638372 
L 685.162654 65.958892 
L 685.305817 67.632907 
L 685.639864 67.682731 
L 696.567958 67.787493 
L 696.806563 67.787493 
L 696.997446 227.220304 
L 697.18833 236.968896 
L 697.426935 239.426691 
L 697.71326 240.382291 
L 698.095028 240.909677 
L 698.619958 241.239148 
L 699.478935 241.480986 
L 701.053726 241.65626 
L 704.489633 241.771134 
L 708.498192 241.788335 
L 708.641355 246.67904 
L 709.452611 247.08494 
L 710.502471 247.264766 
L 712.793076 247.385153 
L 719.09224 247.431719 
L 720.428426 247.540953 
L 724.436984 247.656622 
L 742.093731 247.756539 
L 744.861545 247.867201 
L 751.351592 247.931375 
L 797.831784 247.951597 
L 818.113182 247.952553 
L 818.113182 247.952553 
" clip-path="url(#p7abec756cc)" style="fill: none; stroke: #0000ff; stroke-width: 1.5; stroke-linecap: square"/>
   </g>
   <g id="line2d_28">
    <path d="M 116.376818 227.360193 
L 228.950506 227.400836 
L 229.093669 237.706143 
L 229.475436 240.637593 
L 229.809483 241.342538 
L 230.238971 241.691242 
L 230.954785 241.93172 
L 232.290972 242.103535 
L 235.440553 242.235557 
L 240.642135 242.28055 
L 240.785298 246.670207 
L 241.596554 247.091982 
L 242.646415 247.274399 
L 244.93702 247.396513 
L 251.188462 247.447322 
L 252.524649 247.557108 
L 256.724091 247.680872 
L 273.283256 247.765667 
L 277.291814 247.875868 
L 284.449955 247.931861 
L 350.257125 247.952631 
L 350.400288 227.360193 
L 462.878534 227.400833 
L 463.021697 237.698508 
L 463.403465 240.632473 
L 463.737511 241.338839 
L 464.167 241.688361 
L 464.882814 241.929437 
L 466.219 242.101664 
L 469.368582 242.233896 
L 474.570164 242.278868 
L 474.713326 246.668297 
L 475.524582 247.091039 
L 476.574443 247.274016 
L 478.865048 247.396545 
L 485.116491 247.447511 
L 486.500398 247.558141 
L 490.556677 247.67855 
L 506.113702 247.76243 
L 511.840215 247.88793 
L 520.382262 247.934089 
L 584.185154 247.952726 
L 584.328316 37.407273 
L 588.909526 37.518042 
L 594.636039 37.580751 
L 628.327019 37.734142 
L 629.520043 38.030166 
L 630.617624 38.530576 
L 631.715206 39.284798 
L 632.860508 40.363121 
L 634.196695 41.95904 
L 635.914648 44.058876 
L 638.348416 44.058876 
L 638.491579 46.790387 
L 639.255114 47.324249 
L 640.257253 47.727109 
L 641.641161 48.027601 
L 643.740882 48.238902 
L 647.129068 48.337929 
L 650.27865 48.464238 
L 651.423952 49.067927 
L 653.809999 50.487684 
L 656.291488 52.269709 
L 659.297907 54.481511 
L 661.731675 54.481511 
L 661.874837 58.836236 
L 662.638372 59.735686 
L 663.354186 60.197896 
L 664.356326 60.547336 
L 665.787954 60.780258 
L 668.12628 60.905919 
L 673.852792 61.139798 
L 675.713909 61.636061 
L 677.336421 62.290486 
L 679.197537 63.30335 
L 681.249537 64.711219 
L 682.633445 65.619685 
L 685.114933 65.619685 
L 685.162654 65.944566 
L 685.305817 67.6201 
L 685.639864 67.670061 
L 696.567958 67.779551 
L 696.806563 67.779551 
L 696.997446 227.220822 
L 697.18833 236.969788 
L 697.426935 239.426924 
L 697.71326 240.382508 
L 698.095028 240.909773 
L 698.619958 241.239327 
L 699.478935 241.481146 
L 701.053726 241.656477 
L 704.489633 241.771328 
L 708.498192 241.788536 
L 708.641355 246.679006 
L 709.452611 247.084921 
L 710.502471 247.264754 
L 712.793076 247.385148 
L 719.09224 247.431716 
L 720.428426 247.54096 
L 724.484705 247.65718 
L 742.523219 247.756539 
L 744.861545 247.867201 
L 751.351592 247.931375 
L 797.831784 247.951596 
L 818.113182 247.952552 
L 818.113182 247.952552 
" clip-path="url(#p7abec756cc)" style="fill: none; stroke-dasharray: 5.55,2.4; stroke-dashoffset: 0; stroke: #ff0000; stroke-width: 1.5"/>
   </g>
   <g id="line2d_29">
    <path d="M 350.304846 258.48 
L 350.304846 26.88 
" clip-path="url(#p7abec756cc)" style="fill: none; stroke-dasharray: 1.5,2.475; stroke-dashoffset: 0; stroke: #808080; stroke-opacity: 0.6; stroke-width: 1.5"/>
   </g>
   <g id="line2d_30">
    <path d="M 584.232875 258.48 
L 584.232875 26.88 
" clip-path="url(#p7abec756cc)" style="fill: none; stroke-dasharray: 1.5,2.475; stroke-dashoffset: 0; stroke: #808080; stroke-opacity: 0.6; stroke-width: 1.5"/>
   </g>
   <g id="patch_3">
    <path d="M 81.29 258.48 
L 81.29 26.88 
" style="fill: none; stroke: #000000; stroke-width: 0.8; stroke-linejoin: miter; stroke-linecap: square"/>
   </g>
   <g id="patch_4">
    <path d="M 853.2 258.48 
L 853.2 26.88 
" style="fill: none; stroke: #000000; stroke-width: 0.8; stroke-linejoin: miter; stroke-linecap: square"/>
   </g>
   <g id="patch_5">
    <path d="M 81.29 258.48 
L 853.2 258.48 
" style="fill: none; stroke: #000000; stroke-width: 0.8; stroke-linejoin: miter; stroke-linecap: square"/>
   </g>
   <g id="patch_6">
    <path d="M 81.29 26.88 
L 853.2 26.88 
" style="fill: none; stroke: #000000; stroke-width: 0.8; stroke-linejoin: miter; stroke-linecap: square"/>
   </g>
   <g id="text_15">
    <!-- [14] dKg_zx  —  Uncertainty (std dev) -->
    <g transform="translate(354.252813 20.88) scale(0.12 -0.12)">
     <defs>
      <path id="DejaVuSans-5b" d="M 550 4863 
L 1875 4863 
L 1875 4416 
L 1125 4416 
L 1125 -397 
L 1875 -397 
L 1875 -844 
L 550 -844 
L 550 4863 
z
" transform="scale(0.015625)"/>
      <path id="DejaVuSans-5d" d="M 1947 4863 
L 1947 -844 
L 622 -844 
L 622 -397 
L 1369 -397 
L 1369 4416 
L 622 4416 
L 622 4863 
L 1947 4863 
z
" transform="scale(0.015625)"/>
      <path id="DejaVuSans-4b" d="M 628 4666 
L 1259 4666 
L 1259 2694 
L 3353 4666 
L 4166 4666 
L 1850 2491 
L 4331 0 
L 3500 0 
L 1259 2247 
L 1259 0 
L 628 0 
L 628 4666 
z
" transform="scale(0.015625)"/>
      <path id="DejaVuSans-67" d="M 2906 1791 
Q 2906 2416 2648 2759 
Q 2391 3103 1925 3103 
Q 1463 3103 1205 2759 
Q 947 2416 947 1791 
Q 947 1169 1205 825 
Q 1463 481 1925 481 
Q 2391 481 2648 825 
Q 2906 1169 2906 1791 
z
M 3481 434 
Q 3481 -459 3084 -895 
Q 2688 -1331 1869 -1331 
Q 1566 -1331 1297 -1286 
Q 1028 -1241 775 -1147 
L 775 -588 
Q 1028 -725 1275 -790 
Q 1522 -856 1778 -856 
Q 2344 -856 2625 -561 
Q 2906 -266 2906 331 
L 2906 616 
Q 2728 306 2450 153 
Q 2172 0 1784 0 
Q 1141 0 747 490 
Q 353 981 353 1791 
Q 353 2603 747 3093 
Q 1141 3584 1784 3584 
Q 2172 3584 2450 3431 
Q 2728 3278 2906 2969 
L 2906 3500 
L 3481 3500 
L 3481 434 
z
" transform="scale(0.015625)"/>
      <path id="DejaVuSans-5f" d="M 3263 -1063 
L 3263 -1509 
L -63 -1509 
L -63 -1063 
L 3263 -1063 
z
" transform="scale(0.015625)"/>
      <path id="DejaVuSans-7a" d="M 353 3500 
L 3084 3500 
L 3084 2975 
L 922 459 
L 3084 459 
L 3084 0 
L 275 0 
L 275 525 
L 2438 3041 
L 353 3041 
L 353 3500 
z
" transform="scale(0.015625)"/>
      <path id="DejaVuSans-78" d="M 3513 3500 
L 2247 1797 
L 3578 0 
L 2900 0 
L 1881 1375 
L 863 0 
L 184 0 
L 1544 1831 
L 300 3500 
L 978 3500 
L 1906 2253 
L 2834 3500 
L 3513 3500 
z
" transform="scale(0.015625)"/>
      <path id="DejaVuSans-2014" d="M 313 1978 
L 6088 1978 
L 6088 1528 
L 313 1528 
L 313 1978 
z
" transform="scale(0.015625)"/>
      <path id="DejaVuSans-55" d="M 556 4666 
L 1191 4666 
L 1191 1831 
Q 1191 1081 1462 751 
Q 1734 422 2344 422 
Q 2950 422 3222 751 
Q 3494 1081 3494 1831 
L 3494 4666 
L 4128 4666 
L 4128 1753 
Q 4128 841 3676 375 
Q 3225 -91 2344 -91 
Q 1459 -91 1007 375 
Q 556 841 556 1753 
L 556 4666 
z
" transform="scale(0.015625)"/>
      <path id="DejaVuSans-6e" d="M 3513 2113 
L 3513 0 
L 2938 0 
L 2938 2094 
Q 2938 2591 2744 2837 
Q 2550 3084 2163 3084 
Q 1697 3084 1428 2787 
Q 1159 2491 1159 1978 
L 1159 0 
L 581 0 
L 581 3500 
L 1159 3500 
L 1159 2956 
Q 1366 3272 1645 3428 
Q 1925 3584 2291 3584 
Q 2894 3584 3203 3211 
Q 3513 2838 3513 2113 
z
" transform="scale(0.015625)"/>
      <path id="DejaVuSans-63" d="M 3122 3366 
L 3122 2828 
Q 2878 2963 2633 3030 
Q 2388 3097 2138 3097 
Q 1578 3097 1268 2742 
Q 959 2388 959 1747 
Q 959 1106 1268 751 
Q 1578 397 2138 397 
Q 2388 397 2633 464 
Q 2878 531 3122 666 
L 3122 134 
Q 2881 22 2623 -34 
Q 2366 -91 2075 -91 
Q 1284 -91 818 406 
Q 353 903 353 1747 
Q 353 2603 823 3093 
Q 1294 3584 2113 3584 
Q 2378 3584 2631 3529 
Q 2884 3475 3122 3366 
z
" transform="scale(0.015625)"/>
      <path id="DejaVuSans-72" d="M 2631 2963 
Q 2534 3019 2420 3045 
Q 2306 3072 2169 3072 
Q 1681 3072 1420 2755 
Q 1159 2438 1159 1844 
L 1159 0 
L 581 0 
L 581 3500 
L 1159 3500 
L 1159 2956 
Q 1341 3275 1631 3429 
Q 1922 3584 2338 3584 
Q 2397 3584 2469 3576 
Q 2541 3569 2628 3553 
L 2631 2963 
z
" transform="scale(0.015625)"/>
      <path id="DejaVuSans-61" d="M 2194 1759 
Q 1497 1759 1228 1600 
Q 959 1441 959 1056 
Q 959 750 1161 570 
Q 1363 391 1709 391 
Q 2188 391 2477 730 
Q 2766 1069 2766 1631 
L 2766 1759 
L 2194 1759 
z
M 3341 1997 
L 3341 0 
L 2766 0 
L 2766 531 
Q 2569 213 2275 61 
Q 1981 -91 1556 -91 
Q 1019 -91 701 211 
Q 384 513 384 1019 
Q 384 1609 779 1909 
Q 1175 2209 1959 2209 
L 2766 2209 
L 2766 2266 
Q 2766 2663 2505 2880 
Q 2244 3097 1772 3097 
Q 1472 3097 1187 3025 
Q 903 2953 641 2809 
L 641 3341 
Q 956 3463 1253 3523 
Q 1550 3584 1831 3584 
Q 2591 3584 2966 3190 
Q 3341 2797 3341 1997 
z
" transform="scale(0.015625)"/>
      <path id="DejaVuSans-69" d="M 603 3500 
L 1178 3500 
L 1178 0 
L 603 0 
L 603 3500 
z
M 603 4863 
L 1178 4863 
L 1178 4134 
L 603 4134 
L 603 4863 
z
" transform="scale(0.015625)"/>
      <path id="DejaVuSans-79" d="M 2059 -325 
Q 1816 -950 1584 -1140 
Q 1353 -1331 966 -1331 
L 506 -1331 
L 506 -850 
L 844 -850 
Q 1081 -850 1212 -737 
Q 1344 -625 1503 -206 
L 1606 56 
L 191 3500 
L 800 3500 
L 1894 763 
L 2988 3500 
L 3597 3500 
L 2059 -325 
z
" transform="scale(0.015625)"/>
      <path id="DejaVuSans-28" d="M 1984 4856 
Q 1566 4138 1362 3434 
Q 1159 2731 1159 2009 
Q 1159 1288 1364 580 
Q 1569 -128 1984 -844 
L 1484 -844 
Q 1016 -109 783 600 
Q 550 1309 550 2009 
Q 550 2706 781 3412 
Q 1013 4119 1484 4856 
L 1984 4856 
z
" transform="scale(0.015625)"/>
      <path id="DejaVuSans-73" d="M 2834 3397 
L 2834 2853 
Q 2591 2978 2328 3040 
Q 2066 3103 1784 3103 
Q 1356 3103 1142 2972 
Q 928 2841 928 2578 
Q 928 2378 1081 2264 
Q 1234 2150 1697 2047 
L 1894 2003 
Q 2506 1872 2764 1633 
Q 3022 1394 3022 966 
Q 3022 478 2636 193 
Q 2250 -91 1575 -91 
Q 1294 -91 989 -36 
Q 684 19 347 128 
L 347 722 
Q 666 556 975 473 
Q 1284 391 1588 391 
Q 1994 391 2212 530 
Q 2431 669 2431 922 
Q 2431 1156 2273 1281 
Q 2116 1406 1581 1522 
L 1381 1569 
Q 847 1681 609 1914 
Q 372 2147 372 2553 
Q 372 3047 722 3315 
Q 1072 3584 1716 3584 
Q 2034 3584 2315 3537 
Q 2597 3491 2834 3397 
z
" transform="scale(0.015625)"/>
      <path id="DejaVuSans-29" d="M 513 4856 
L 1013 4856 
Q 1481 4119 1714 3412 
Q 1947 2706 1947 2009 
Q 1947 1309 1714 600 
Q 1481 -109 1013 -844 
L 513 -844 
Q 928 -128 1133 580 
Q 1338 1288 1338 2009 
Q 1338 2731 1133 3434 
Q 928 4138 513 4856 
z
" transform="scale(0.015625)"/>
     </defs>
     <use xlink:href="#DejaVuSans-5b"/>
     <use xlink:href="#DejaVuSans-31" transform="translate(39.013672 0)"/>
     <use xlink:href="#DejaVuSans-34" transform="translate(102.636719 0)"/>
     <use xlink:href="#DejaVuSans-5d" transform="translate(166.259766 0)"/>
     <use xlink:href="#DejaVuSans-20" transform="translate(205.273438 0)"/>
     <use xlink:href="#DejaVuSans-64" transform="translate(237.060547 0)"/>
     <use xlink:href="#DejaVuSans-4b" transform="translate(300.537109 0)"/>
     <use xlink:href="#DejaVuSans-67" transform="translate(366.113281 0)"/>
     <use xlink:href="#DejaVuSans-5f" transform="translate(429.589844 0)"/>
     <use xlink:href="#DejaVuSans-7a" transform="translate(479.589844 0)"/>
     <use xlink:href="#DejaVuSans-78" transform="translate(532.080078 0)"/>
     <use xlink:href="#DejaVuSans-20" transform="translate(591.259766 0)"/>
     <use xlink:href="#DejaVuSans-20" transform="translate(623.046875 0)"/>
     <use xlink:href="#DejaVuSans-2014" transform="translate(654.833984 0)"/>
     <use xlink:href="#DejaVuSans-20" transform="translate(754.833984 0)"/>
     <use xlink:href="#DejaVuSans-20" transform="translate(786.621094 0)"/>
     <use xlink:href="#DejaVuSans-55" transform="translate(818.408203 0)"/>
     <use xlink:href="#DejaVuSans-6e" transform="translate(891.601562 0)"/>
     <use xlink:href="#DejaVuSans-63" transform="translate(954.980469 0)"/>
     <use xlink:href="#DejaVuSans-65" transform="translate(1009.960938 0)"/>
     <use xlink:href="#DejaVuSans-72" transform="translate(1071.484375 0)"/>
     <use xlink:href="#DejaVuSans-74" transform="translate(1112.597656 0)"/>
     <use xlink:href="#DejaVuSans-61" transform="translate(1151.806641 0)"/>
     <use xlink:href="#DejaVuSans-69" transform="translate(1213.085938 0)"/>
     <use xlink:href="#DejaVuSans-6e" transform="translate(1240.869141 0)"/>
     <use xlink:href="#DejaVuSans-74" transform="translate(1304.248047 0)"/>
     <use xlink:href="#DejaVuSans-79" transform="translate(1343.457031 0)"/>
     <use xlink:href="#DejaVuSans-20" transform="translate(1402.636719 0)"/>
     <use xlink:href="#DejaVuSans-28" transform="translate(1434.423828 0)"/>
     <use xlink:href="#DejaVuSans-73" transform="translate(1473.4375 0)"/>
     <use xlink:href="#DejaVuSans-74" transform="translate(1525.537109 0)"/>
     <use xlink:href="#DejaVuSans-64" transform="translate(1564.746094 0)"/>
     <use xlink:href="#DejaVuSans-20" transform="translate(1628.222656 0)"/>
     <use xlink:href="#DejaVuSans-64" transform="translate(1660.009766 0)"/>
     <use xlink:href="#DejaVuSans-65" transform="translate(1723.486328 0)"/>
     <use xlink:href="#DejaVuSans-76" transform="translate(1785.009766 0)"/>
     <use xlink:href="#DejaVuSans-29" transform="translate(1844.189453 0)"/>
    </g>
   </g>
   <g id="legend_1">
    <g id="patch_7">
     <path d="M 738.401563 64.23625 
L 846.2 64.23625 
Q 848.2 64.23625 848.2 62.23625 
L 848.2 33.88 
Q 848.2 31.88 846.2 31.88 
L 738.401563 31.88 
Q 736.401563 31.88 736.401563 33.88 
L 736.401563 62.23625 
Q 736.401563 64.23625 738.401563 64.23625 
z
" style="fill: #ffffff; opacity: 0.8; stroke: #cccccc; stroke-linejoin: miter"/>
    </g>
    <g id="line2d_31">
     <path d="M 740.401563 39.978437 
L 750.401563 39.978437 
L 760.401563 39.978437 
" style="fill: none; stroke: #0000ff; stroke-width: 1.5; stroke-linecap: square"/>
    </g>
    <g id="text_16">
     <!-- No Noise -->
     <g transform="translate(768.401563 43.478437) scale(0.1 -0.1)">
      <defs>
       <path id="DejaVuSans-4e" d="M 628 4666 
L 1478 4666 
L 3547 763 
L 3547 4666 
L 4159 4666 
L 4159 0 
L 3309 0 
L 1241 3903 
L 1241 0 
L 628 0 
L 628 4666 
z
" transform="scale(0.015625)"/>
       <path id="DejaVuSans-6f" d="M 1959 3097 
Q 1497 3097 1228 2736 
Q 959 2375 959 1747 
Q 959 1119 1226 758 
Q 1494 397 1959 397 
Q 2419 397 2687 759 
Q 2956 1122 2956 1747 
Q 2956 2369 2687 2733 
Q 2419 3097 1959 3097 
z
M 1959 3584 
Q 2709 3584 3137 3096 
Q 3566 2609 3566 1747 
Q 3566 888 3137 398 
Q 2709 -91 1959 -91 
Q 1206 -91 779 398 
Q 353 888 353 1747 
Q 353 2609 779 3096 
Q 1206 3584 1959 3584 
z
" transform="scale(0.015625)"/>
      </defs>
      <use xlink:href="#DejaVuSans-4e"/>
      <use xlink:href="#DejaVuSans-6f" transform="translate(74.804688 0)"/>
      <use xlink:href="#DejaVuSans-20" transform="translate(135.986328 0)"/>
      <use xlink:href="#DejaVuSans-4e" transform="translate(167.773438 0)"/>
      <use xlink:href="#DejaVuSans-6f" transform="translate(242.578125 0)"/>
      <use xlink:href="#DejaVuSans-69" transform="translate(303.759766 0)"/>
      <use xlink:href="#DejaVuSans-73" transform="translate(331.542969 0)"/>
      <use xlink:href="#DejaVuSans-65" transform="translate(383.642578 0)"/>
     </g>
    </g>
    <g id="line2d_32">
     <path d="M 740.401563 54.656562 
L 750.401563 54.656562 
L 760.401563 54.656562 
" style="fill: none; stroke-dasharray: 5.55,2.4; stroke-dashoffset: 0; stroke: #ff0000; stroke-width: 1.5"/>
    </g>
    <g id="text_17">
     <!-- With ARW/VRW -->
     <g transform="translate(768.401563 58.156562) scale(0.1 -0.1)">
      <defs>
       <path id="DejaVuSans-57" d="M 213 4666 
L 850 4666 
L 1831 722 
L 2809 4666 
L 3519 4666 
L 4500 722 
L 5478 4666 
L 6119 4666 
L 4947 0 
L 4153 0 
L 3169 4050 
L 2175 0 
L 1381 0 
L 213 4666 
z
" transform="scale(0.015625)"/>
       <path id="DejaVuSans-68" d="M 3513 2113 
L 3513 0 
L 2938 0 
L 2938 2094 
Q 2938 2591 2744 2837 
Q 2550 3084 2163 3084 
Q 1697 3084 1428 2787 
Q 1159 2491 1159 1978 
L 1159 0 
L 581 0 
L 581 4863 
L 1159 4863 
L 1159 2956 
Q 1366 3272 1645 3428 
Q 1925 3584 2291 3584 
Q 2894 3584 3203 3211 
Q 3513 2838 3513 2113 
z
" transform="scale(0.015625)"/>
       <path id="DejaVuSans-41" d="M 2188 4044 
L 1331 1722 
L 3047 1722 
L 2188 4044 
z
M 1831 4666 
L 2547 4666 
L 4325 0 
L 3669 0 
L 3244 1197 
L 1141 1197 
L 716 0 
L 50 0 
L 1831 4666 
z
" transform="scale(0.015625)"/>
       <path id="DejaVuSans-52" d="M 2841 2188 
Q 3044 2119 3236 1894 
Q 3428 1669 3622 1275 
L 4263 0 
L 3584 0 
L 2988 1197 
Q 2756 1666 2539 1819 
Q 2322 1972 1947 1972 
L 1259 1972 
L 1259 0 
L 628 0 
L 628 4666 
L 2053 4666 
Q 2853 4666 3247 4331 
Q 3641 3997 3641 3322 
Q 3641 2881 3436 2590 
Q 3231 2300 2841 2188 
z
M 1259 4147 
L 1259 2491 
L 2053 2491 
Q 2509 2491 2742 2702 
Q 2975 2913 2975 3322 
Q 2975 3731 2742 3939 
Q 2509 4147 2053 4147 
L 1259 4147 
z
" transform="scale(0.015625)"/>
       <path id="DejaVuSans-2f" d="M 1625 4666 
L 2156 4666 
L 531 -594 
L 0 -594 
L 1625 4666 
z
" transform="scale(0.015625)"/>
       <path id="DejaVuSans-56" d="M 1831 0 
L 50 4666 
L 709 4666 
L 2188 738 
L 3669 4666 
L 4325 4666 
L 2547 0 
L 1831 0 
z
" transform="scale(0.015625)"/>
      </defs>
      <use xlink:href="#DejaVuSans-57"/>
      <use xlink:href="#DejaVuSans-69" transform="translate(96.626953 0)"/>
      <use xlink:href="#DejaVuSans-74" transform="translate(124.410156 0)"/>
      <use xlink:href="#DejaVuSans-68" transform="translate(163.619141 0)"/>
      <use xlink:href="#DejaVuSans-20" transform="translate(226.998047 0)"/>
      <use xlink:href="#DejaVuSans-41" transform="translate(258.785156 0)"/>
      <use xlink:href="#DejaVuSans-52" transform="translate(327.193359 0)"/>
      <use xlink:href="#DejaVuSans-57" transform="translate(392.675781 0)"/>
      <use xlink:href="#DejaVuSans-2f" transform="translate(491.552734 0)"/>
      <use xlink:href="#DejaVuSans-56" transform="translate(525.244141 0)"/>
      <use xlink:href="#DejaVuSans-52" transform="translate(593.652344 0)"/>
      <use xlink:href="#DejaVuSans-57" transform="translate(659.134766 0)"/>
     </g>
    </g>
   </g>
  </g>
  <g id="axes_2">
   <g id="patch_8">
    <path d="M 81.29 534.04 
L 853.2 534.04 
L 853.2 302.44 
L 81.29 302.44 
z
" style="fill: #ffffff"/>
   </g>
   <g id="matplotlib.axis_3">
    <g id="xtick_8">
     <g id="line2d_33">
      <path d="M 116.376818 534.04 
L 116.376818 302.44 
" clip-path="url(#p936058d517)" style="fill: none; stroke: #b0b0b0; stroke-width: 0.8; stroke-linecap: square"/>
     </g>
     <g id="line2d_34">
      <g>
       <use xlink:href="#m957a99c3a2" x="116.376818" y="534.04" style="stroke: #000000; stroke-width: 0.8"/>
      </g>
     </g>
     <g id="text_18">
      <!-- 0 -->
      <g transform="translate(113.195568 548.638438) scale(0.1 -0.1)">
       <use xlink:href="#DejaVuSans-30"/>
      </g>
     </g>
    </g>
    <g id="xtick_9">
     <g id="line2d_35">
      <path d="M 235.679158 534.04 
L 235.679158 302.44 
" clip-path="url(#p936058d517)" style="fill: none; stroke: #b0b0b0; stroke-width: 0.8; stroke-linecap: square"/>
     </g>
     <g id="line2d_36">
      <g>
       <use xlink:href="#m957a99c3a2" x="235.679158" y="534.04" style="stroke: #000000; stroke-width: 0.8"/>
      </g>
     </g>
     <g id="text_19">
      <!-- 50 -->
      <g transform="translate(229.316658 548.638438) scale(0.1 -0.1)">
       <use xlink:href="#DejaVuSans-35"/>
       <use xlink:href="#DejaVuSans-30" transform="translate(63.623047 0)"/>
      </g>
     </g>
    </g>
    <g id="xtick_10">
     <g id="line2d_37">
      <path d="M 354.981498 534.04 
L 354.981498 302.44 
" clip-path="url(#p936058d517)" style="fill: none; stroke: #b0b0b0; stroke-width: 0.8; stroke-linecap: square"/>
     </g>
     <g id="line2d_38">
      <g>
       <use xlink:href="#m957a99c3a2" x="354.981498" y="534.04" style="stroke: #000000; stroke-width: 0.8"/>
      </g>
     </g>
     <g id="text_20">
      <!-- 100 -->
      <g transform="translate(345.437748 548.638438) scale(0.1 -0.1)">
       <use xlink:href="#DejaVuSans-31"/>
       <use xlink:href="#DejaVuSans-30" transform="translate(63.623047 0)"/>
       <use xlink:href="#DejaVuSans-30" transform="translate(127.246094 0)"/>
      </g>
     </g>
    </g>
    <g id="xtick_11">
     <g id="line2d_39">
      <path d="M 474.283838 534.04 
L 474.283838 302.44 
" clip-path="url(#p936058d517)" style="fill: none; stroke: #b0b0b0; stroke-width: 0.8; stroke-linecap: square"/>
     </g>
     <g id="line2d_40">
      <g>
       <use xlink:href="#m957a99c3a2" x="474.283838" y="534.04" style="stroke: #000000; stroke-width: 0.8"/>
      </g>
     </g>
     <g id="text_21">
      <!-- 150 -->
      <g transform="translate(464.740088 548.638438) scale(0.1 -0.1)">
       <use xlink:href="#DejaVuSans-31"/>
       <use xlink:href="#DejaVuSans-35" transform="translate(63.623047 0)"/>
       <use xlink:href="#DejaVuSans-30" transform="translate(127.246094 0)"/>
      </g>
     </g>
    </g>
    <g id="xtick_12">
     <g id="line2d_41">
      <path d="M 593.586178 534.04 
L 593.586178 302.44 
" clip-path="url(#p936058d517)" style="fill: none; stroke: #b0b0b0; stroke-width: 0.8; stroke-linecap: square"/>
     </g>
     <g id="line2d_42">
      <g>
       <use xlink:href="#m957a99c3a2" x="593.586178" y="534.04" style="stroke: #000000; stroke-width: 0.8"/>
      </g>
     </g>
     <g id="text_22">
      <!-- 200 -->
      <g transform="translate(584.042428 548.638438) scale(0.1 -0.1)">
       <use xlink:href="#DejaVuSans-32"/>
       <use xlink:href="#DejaVuSans-30" transform="translate(63.623047 0)"/>
       <use xlink:href="#DejaVuSans-30" transform="translate(127.246094 0)"/>
      </g>
     </g>
    </g>
    <g id="xtick_13">
     <g id="line2d_43">
      <path d="M 712.888518 534.04 
L 712.888518 302.44 
" clip-path="url(#p936058d517)" style="fill: none; stroke: #b0b0b0; stroke-width: 0.8; stroke-linecap: square"/>
     </g>
     <g id="line2d_44">
      <g>
       <use xlink:href="#m957a99c3a2" x="712.888518" y="534.04" style="stroke: #000000; stroke-width: 0.8"/>
      </g>
     </g>
     <g id="text_23">
      <!-- 250 -->
      <g transform="translate(703.344768 548.638438) scale(0.1 -0.1)">
       <use xlink:href="#DejaVuSans-32"/>
       <use xlink:href="#DejaVuSans-35" transform="translate(63.623047 0)"/>
       <use xlink:href="#DejaVuSans-30" transform="translate(127.246094 0)"/>
      </g>
     </g>
    </g>
    <g id="xtick_14">
     <g id="line2d_45">
      <path d="M 832.190858 534.04 
L 832.190858 302.44 
" clip-path="url(#p936058d517)" style="fill: none; stroke: #b0b0b0; stroke-width: 0.8; stroke-linecap: square"/>
     </g>
     <g id="line2d_46">
      <g>
       <use xlink:href="#m957a99c3a2" x="832.190858" y="534.04" style="stroke: #000000; stroke-width: 0.8"/>
      </g>
     </g>
     <g id="text_24">
      <!-- 300 -->
      <g transform="translate(822.647108 548.638438) scale(0.1 -0.1)">
       <use xlink:href="#DejaVuSans-33"/>
       <use xlink:href="#DejaVuSans-30" transform="translate(63.623047 0)"/>
       <use xlink:href="#DejaVuSans-30" transform="translate(127.246094 0)"/>
      </g>
     </g>
    </g>
    <g id="text_25">
     <!-- Time (s) -->
     <g transform="translate(446.916094 562.316562) scale(0.1 -0.1)">
      <defs>
       <path id="DejaVuSans-54" d="M -19 4666 
L 3928 4666 
L 3928 4134 
L 2272 4134 
L 2272 0 
L 1638 0 
L 1638 4134 
L -19 4134 
L -19 4666 
z
" transform="scale(0.015625)"/>
       <path id="DejaVuSans-6d" d="M 3328 2828 
Q 3544 3216 3844 3400 
Q 4144 3584 4550 3584 
Q 5097 3584 5394 3201 
Q 5691 2819 5691 2113 
L 5691 0 
L 5113 0 
L 5113 2094 
Q 5113 2597 4934 2840 
Q 4756 3084 4391 3084 
Q 3944 3084 3684 2787 
Q 3425 2491 3425 1978 
L 3425 0 
L 2847 0 
L 2847 2094 
Q 2847 2600 2669 2842 
Q 2491 3084 2119 3084 
Q 1678 3084 1418 2786 
Q 1159 2488 1159 1978 
L 1159 0 
L 581 0 
L 581 3500 
L 1159 3500 
L 1159 2956 
Q 1356 3278 1631 3431 
Q 1906 3584 2284 3584 
Q 2666 3584 2933 3390 
Q 3200 3197 3328 2828 
z
" transform="scale(0.015625)"/>
      </defs>
      <use xlink:href="#DejaVuSans-54"/>
      <use xlink:href="#DejaVuSans-69" transform="translate(57.958984 0)"/>
      <use xlink:href="#DejaVuSans-6d" transform="translate(85.742188 0)"/>
      <use xlink:href="#DejaVuSans-65" transform="translate(183.154297 0)"/>
      <use xlink:href="#DejaVuSans-20" transform="translate(244.677734 0)"/>
      <use xlink:href="#DejaVuSans-28" transform="translate(276.464844 0)"/>
      <use xlink:href="#DejaVuSans-73" transform="translate(315.478516 0)"/>
      <use xlink:href="#DejaVuSans-29" transform="translate(367.578125 0)"/>
     </g>
    </g>
   </g>
   <g id="matplotlib.axis_4">
    <g id="ytick_7">
     <g id="line2d_47">
      <path d="M 81.29 529.103396 
L 853.2 529.103396 
" clip-path="url(#p936058d517)" style="fill: none; stroke: #b0b0b0; stroke-width: 0.8; stroke-linecap: square"/>
     </g>
     <g id="line2d_48">
      <g>
       <use xlink:href="#m1b8e03449b" x="81.29" y="529.103396" style="stroke: #000000; stroke-width: 0.8"/>
      </g>
     </g>
     <g id="text_26">
      <!-- −0.00175 -->
      <g transform="translate(24.557187 532.902615) scale(0.1 -0.1)">
       <defs>
        <path id="DejaVuSans-2212" d="M 678 2272 
L 4684 2272 
L 4684 1741 
L 678 1741 
L 678 2272 
z
" transform="scale(0.015625)"/>
        <path id="DejaVuSans-37" d="M 525 4666 
L 3525 4666 
L 3525 4397 
L 1831 0 
L 1172 0 
L 2766 4134 
L 525 4134 
L 525 4666 
z
" transform="scale(0.015625)"/>
       </defs>
       <use xlink:href="#DejaVuSans-2212"/>
       <use xlink:href="#DejaVuSans-30" transform="translate(83.789062 0)"/>
       <use xlink:href="#DejaVuSans-2e" transform="translate(147.412109 0)"/>
       <use xlink:href="#DejaVuSans-30" transform="translate(179.199219 0)"/>
       <use xlink:href="#DejaVuSans-30" transform="translate(242.822266 0)"/>
       <use xlink:href="#DejaVuSans-31" transform="translate(306.445312 0)"/>
       <use xlink:href="#DejaVuSans-37" transform="translate(370.068359 0)"/>
       <use xlink:href="#DejaVuSans-35" transform="translate(433.691406 0)"/>
      </g>
     </g>
    </g>
    <g id="ytick_8">
     <g id="line2d_49">
      <path d="M 81.29 502.499458 
L 853.2 502.499458 
" clip-path="url(#p936058d517)" style="fill: none; stroke: #b0b0b0; stroke-width: 0.8; stroke-linecap: square"/>
     </g>
     <g id="line2d_50">
      <g>
       <use xlink:href="#m1b8e03449b" x="81.29" y="502.499458" style="stroke: #000000; stroke-width: 0.8"/>
      </g>
     </g>
     <g id="text_27">
      <!-- −0.00150 -->
      <g transform="translate(24.557187 506.298677) scale(0.1 -0.1)">
       <use xlink:href="#DejaVuSans-2212"/>
       <use xlink:href="#DejaVuSans-30" transform="translate(83.789062 0)"/>
       <use xlink:href="#DejaVuSans-2e" transform="translate(147.412109 0)"/>
       <use xlink:href="#DejaVuSans-30" transform="translate(179.199219 0)"/>
       <use xlink:href="#DejaVuSans-30" transform="translate(242.822266 0)"/>
       <use xlink:href="#DejaVuSans-31" transform="translate(306.445312 0)"/>
       <use xlink:href="#DejaVuSans-35" transform="translate(370.068359 0)"/>
       <use xlink:href="#DejaVuSans-30" transform="translate(433.691406 0)"/>
      </g>
     </g>
    </g>
    <g id="ytick_9">
     <g id="line2d_51">
      <path d="M 81.29 475.895521 
L 853.2 475.895521 
" clip-path="url(#p936058d517)" style="fill: none; stroke: #b0b0b0; stroke-width: 0.8; stroke-linecap: square"/>
     </g>
     <g id="line2d_52">
      <g>
       <use xlink:href="#m1b8e03449b" x="81.29" y="475.895521" style="stroke: #000000; stroke-width: 0.8"/>
      </g>
     </g>
     <g id="text_28">
      <!-- −0.00125 -->
      <g transform="translate(24.557187 479.694739) scale(0.1 -0.1)">
       <use xlink:href="#DejaVuSans-2212"/>
       <use xlink:href="#DejaVuSans-30" transform="translate(83.789062 0)"/>
       <use xlink:href="#DejaVuSans-2e" transform="translate(147.412109 0)"/>
       <use xlink:href="#DejaVuSans-30" transform="translate(179.199219 0)"/>
       <use xlink:href="#DejaVuSans-30" transform="translate(242.822266 0)"/>
       <use xlink:href="#DejaVuSans-31" transform="translate(306.445312 0)"/>
       <use xlink:href="#DejaVuSans-32" transform="translate(370.068359 0)"/>
       <use xlink:href="#DejaVuSans-35" transform="translate(433.691406 0)"/>
      </g>
     </g>
    </g>
    <g id="ytick_10">
     <g id="line2d_53">
      <path d="M 81.29 449.291583 
L 853.2 449.291583 
" clip-path="url(#p936058d517)" style="fill: none; stroke: #b0b0b0; stroke-width: 0.8; stroke-linecap: square"/>
     </g>
     <g id="line2d_54">
      <g>
       <use xlink:href="#m1b8e03449b" x="81.29" y="449.291583" style="stroke: #000000; stroke-width: 0.8"/>
      </g>
     </g>
     <g id="text_29">
      <!-- −0.00100 -->
      <g transform="translate(24.557187 453.090802) scale(0.1 -0.1)">
       <use xlink:href="#DejaVuSans-2212"/>
       <use xlink:href="#DejaVuSans-30" transform="translate(83.789062 0)"/>
       <use xlink:href="#DejaVuSans-2e" transform="translate(147.412109 0)"/>
       <use xlink:href="#DejaVuSans-30" transform="translate(179.199219 0)"/>
       <use xlink:href="#DejaVuSans-30" transform="translate(242.822266 0)"/>
       <use xlink:href="#DejaVuSans-31" transform="translate(306.445312 0)"/>
       <use xlink:href="#DejaVuSans-30" transform="translate(370.068359 0)"/>
       <use xlink:href="#DejaVuSans-30" transform="translate(433.691406 0)"/>
      </g>
     </g>
    </g>
    <g id="ytick_11">
     <g id="line2d_55">
      <path d="M 81.29 422.687645 
L 853.2 422.687645 
" clip-path="url(#p936058d517)" style="fill: none; stroke: #b0b0b0; stroke-width: 0.8; stroke-linecap: square"/>
     </g>
     <g id="line2d_56">
      <g>
       <use xlink:href="#m1b8e03449b" x="81.29" y="422.687645" style="stroke: #000000; stroke-width: 0.8"/>
      </g>
     </g>
     <g id="text_30">
      <!-- −0.00075 -->
      <g transform="translate(24.557187 426.486864) scale(0.1 -0.1)">
       <use xlink:href="#DejaVuSans-2212"/>
       <use xlink:href="#DejaVuSans-30" transform="translate(83.789062 0)"/>
       <use xlink:href="#DejaVuSans-2e" transform="translate(147.412109 0)"/>
       <use xlink:href="#DejaVuSans-30" transform="translate(179.199219 0)"/>
       <use xlink:href="#DejaVuSans-30" transform="translate(242.822266 0)"/>
       <use xlink:href="#DejaVuSans-30" transform="translate(306.445312 0)"/>
       <use xlink:href="#DejaVuSans-37" transform="translate(370.068359 0)"/>
       <use xlink:href="#DejaVuSans-35" transform="translate(433.691406 0)"/>
      </g>
     </g>
    </g>
    <g id="ytick_12">
     <g id="line2d_57">
      <path d="M 81.29 396.083708 
L 853.2 396.083708 
" clip-path="url(#p936058d517)" style="fill: none; stroke: #b0b0b0; stroke-width: 0.8; stroke-linecap: square"/>
     </g>
     <g id="line2d_58">
      <g>
       <use xlink:href="#m1b8e03449b" x="81.29" y="396.083708" style="stroke: #000000; stroke-width: 0.8"/>
      </g>
     </g>
     <g id="text_31">
      <!-- −0.00050 -->
      <g transform="translate(24.557187 399.882926) scale(0.1 -0.1)">
       <use xlink:href="#DejaVuSans-2212"/>
       <use xlink:href="#DejaVuSans-30" transform="translate(83.789062 0)"/>
       <use xlink:href="#DejaVuSans-2e" transform="translate(147.412109 0)"/>
       <use xlink:href="#DejaVuSans-30" transform="translate(179.199219 0)"/>
       <use xlink:href="#DejaVuSans-30" transform="translate(242.822266 0)"/>
       <use xlink:href="#DejaVuSans-30" transform="translate(306.445312 0)"/>
       <use xlink:href="#DejaVuSans-35" transform="translate(370.068359 0)"/>
       <use xlink:href="#DejaVuSans-30" transform="translate(433.691406 0)"/>
      </g>
     </g>
    </g>
    <g id="ytick_13">
     <g id="line2d_59">
      <path d="M 81.29 369.47977 
L 853.2 369.47977 
" clip-path="url(#p936058d517)" style="fill: none; stroke: #b0b0b0; stroke-width: 0.8; stroke-linecap: square"/>
     </g>
     <g id="line2d_60">
      <g>
       <use xlink:href="#m1b8e03449b" x="81.29" y="369.47977" style="stroke: #000000; stroke-width: 0.8"/>
      </g>
     </g>
     <g id="text_32">
      <!-- −0.00025 -->
      <g transform="translate(24.557187 373.278989) scale(0.1 -0.1)">
       <use xlink:href="#DejaVuSans-2212"/>
       <use xlink:href="#DejaVuSans-30" transform="translate(83.789062 0)"/>
       <use xlink:href="#DejaVuSans-2e" transform="translate(147.412109 0)"/>
       <use xlink:href="#DejaVuSans-30" transform="translate(179.199219 0)"/>
       <use xlink:href="#DejaVuSans-30" transform="translate(242.822266 0)"/>
       <use xlink:href="#DejaVuSans-30" transform="translate(306.445312 0)"/>
       <use xlink:href="#DejaVuSans-32" transform="translate(370.068359 0)"/>
       <use xlink:href="#DejaVuSans-35" transform="translate(433.691406 0)"/>
      </g>
     </g>
    </g>
    <g id="ytick_14">
     <g id="line2d_61">
      <path d="M 81.29 342.875832 
L 853.2 342.875832 
" clip-path="url(#p936058d517)" style="fill: none; stroke: #b0b0b0; stroke-width: 0.8; stroke-linecap: square"/>
     </g>
     <g id="line2d_62">
      <g>
       <use xlink:href="#m1b8e03449b" x="81.29" y="342.875832" style="stroke: #000000; stroke-width: 0.8"/>
      </g>
     </g>
     <g id="text_33">
      <!-- 0.00000 -->
      <g transform="translate(32.936875 346.675051) scale(0.1 -0.1)">
       <use xlink:href="#DejaVuSans-30"/>
       <use xlink:href="#DejaVuSans-2e" transform="translate(63.623047 0)"/>
       <use xlink:href="#DejaVuSans-30" transform="translate(95.410156 0)"/>
       <use xlink:href="#DejaVuSans-30" transform="translate(159.033203 0)"/>
       <use xlink:href="#DejaVuSans-30" transform="translate(222.65625 0)"/>
       <use xlink:href="#DejaVuSans-30" transform="translate(286.279297 0)"/>
       <use xlink:href="#DejaVuSans-30" transform="translate(349.902344 0)"/>
      </g>
     </g>
    </g>
    <g id="ytick_15">
     <g id="line2d_63">
      <path d="M 81.29 316.271895 
L 853.2 316.271895 
" clip-path="url(#p936058d517)" style="fill: none; stroke: #b0b0b0; stroke-width: 0.8; stroke-linecap: square"/>
     </g>
     <g id="line2d_64">
      <g>
       <use xlink:href="#m1b8e03449b" x="81.29" y="316.271895" style="stroke: #000000; stroke-width: 0.8"/>
      </g>
     </g>
     <g id="text_34">
      <!-- 0.00025 -->
      <g transform="translate(32.936875 320.071114) scale(0.1 -0.1)">
       <use xlink:href="#DejaVuSans-30"/>
       <use xlink:href="#DejaVuSans-2e" transform="translate(63.623047 0)"/>
       <use xlink:href="#DejaVuSans-30" transform="translate(95.410156 0)"/>
       <use xlink:href="#DejaVuSans-30" transform="translate(159.033203 0)"/>
       <use xlink:href="#DejaVuSans-30" transform="translate(222.65625 0)"/>
       <use xlink:href="#DejaVuSans-32" transform="translate(286.279297 0)"/>
       <use xlink:href="#DejaVuSans-35" transform="translate(349.902344 0)"/>
      </g>
     </g>
    </g>
    <g id="text_35">
     <!-- Estimated Value -->
     <g transform="translate(18.4775 458.818906) rotate(-90) scale(0.1 -0.1)">
      <defs>
       <path id="DejaVuSans-45" d="M 628 4666 
L 3578 4666 
L 3578 4134 
L 1259 4134 
L 1259 2753 
L 3481 2753 
L 3481 2222 
L 1259 2222 
L 1259 531 
L 3634 531 
L 3634 0 
L 628 0 
L 628 4666 
z
" transform="scale(0.015625)"/>
       <path id="DejaVuSans-6c" d="M 603 4863 
L 1178 4863 
L 1178 0 
L 603 0 
L 603 4863 
z
" transform="scale(0.015625)"/>
       <path id="DejaVuSans-75" d="M 544 1381 
L 544 3500 
L 1119 3500 
L 1119 1403 
Q 1119 906 1312 657 
Q 1506 409 1894 409 
Q 2359 409 2629 706 
Q 2900 1003 2900 1516 
L 2900 3500 
L 3475 3500 
L 3475 0 
L 2900 0 
L 2900 538 
Q 2691 219 2414 64 
Q 2138 -91 1772 -91 
Q 1169 -91 856 284 
Q 544 659 544 1381 
z
M 1991 3584 
L 1991 3584 
z
" transform="scale(0.015625)"/>
      </defs>
      <use xlink:href="#DejaVuSans-45"/>
      <use xlink:href="#DejaVuSans-73" transform="translate(63.183594 0)"/>
      <use xlink:href="#DejaVuSans-74" transform="translate(115.283203 0)"/>
      <use xlink:href="#DejaVuSans-69" transform="translate(154.492188 0)"/>
      <use xlink:href="#DejaVuSans-6d" transform="translate(182.275391 0)"/>
      <use xlink:href="#DejaVuSans-61" transform="translate(279.6875 0)"/>
      <use xlink:href="#DejaVuSans-74" transform="translate(340.966797 0)"/>
      <use xlink:href="#DejaVuSans-65" transform="translate(380.175781 0)"/>
      <use xlink:href="#DejaVuSans-64" transform="translate(441.699219 0)"/>
      <use xlink:href="#DejaVuSans-20" transform="translate(505.175781 0)"/>
      <use xlink:href="#DejaVuSans-56" transform="translate(536.962891 0)"/>
      <use xlink:href="#DejaVuSans-61" transform="translate(597.621094 0)"/>
      <use xlink:href="#DejaVuSans-6c" transform="translate(658.900391 0)"/>
      <use xlink:href="#DejaVuSans-75" transform="translate(686.683594 0)"/>
      <use xlink:href="#DejaVuSans-65" transform="translate(750.0625 0)"/>
     </g>
    </g>
   </g>
   <g id="line2d_65">
    <path d="M 116.376818 342.875832 
L 121.5784 342.984607 
L 124.680261 343.288689 
L 128.163889 343.867087 
L 133.365471 344.750241 
L 158.80073 344.741026 
L 158.943893 344.892002 
L 161.425382 344.961615 
L 164.622684 344.825405 
L 167.533662 344.477308 
L 168.583522 344.423418 
L 170.49236 344.423418 
L 170.635522 344.237066 
L 175.5985 344.376909 
L 182.804361 344.396288 
L 186.956083 343.920051 
L 192.730316 343.205484 
L 193.875618 343.205484 
L 194.018781 341.993182 
L 195.307246 341.436258 
L 196.738874 341.138216 
L 199.029479 340.915677 
L 203.038038 340.777715 
L 211.675527 340.887941 
L 216.972551 341.125247 
L 228.950506 341.049747 
L 228.998227 318.20685 
L 229.093669 318.325471 
L 229.284553 318.356797 
L 231.909204 317.519041 
L 238.685577 315.551324 
L 240.642135 315.551324 
L 240.785298 317.442769 
L 241.978322 317.743304 
L 244.45981 317.953985 
L 250.04316 318.19983 
L 253.335904 318.0933 
L 255.006137 317.995782 
L 258.155719 318.076587 
L 264.025394 318.229766 
L 264.31172 318.159512 
L 266.793208 317.661026 
L 269.751906 317.360656 
L 273.808186 317.171452 
L 277.530419 317.060582 
L 281.252652 317.052517 
L 289.31749 317.045647 
L 299.052561 316.950932 
L 350.257125 316.867385 
L 350.400288 342.875832 
L 361.376104 342.986791 
L 371.731547 343.12208 
L 422.124855 343.027347 
L 427.803646 342.968798 
L 427.946809 342.786217 
L 431.04867 342.631971 
L 438.636299 342.570834 
L 462.878534 342.555664 
L 463.021697 342.926844 
L 463.498907 343.028838 
L 465.407744 342.946356 
L 474.522443 342.53 
L 474.570164 342.53 
L 474.713326 343.057754 
L 476.669885 343.170878 
L 485.402816 343.233911 
L 502.296027 343.123335 
L 511.363005 343.093131 
L 584.185154 343.092233 
L 584.328316 342.875833 
L 596.73576 342.98701 
L 628.37474 342.908671 
L 638.348416 342.517269 
L 638.491579 342.601215 
L 641.832044 342.418653 
L 649.371952 342.374364 
L 658.391209 342.263876 
L 661.731675 342.24928 
L 661.874837 341.842528 
L 664.642652 341.861901 
L 676.238839 341.773849 
L 683.969631 341.544789 
L 692.60712 341.436432 
L 696.090749 341.316682 
L 696.806563 341.316682 
L 696.997446 342.731672 
L 697.331493 342.770289 
L 710.025262 342.862839 
L 722.67131 342.860008 
L 818.113182 342.876016 
L 818.113182 342.876016 
" clip-path="url(#p936058d517)" style="fill: none; stroke: #0000ff; stroke-width: 1.5; stroke-linecap: square"/>
   </g>
   <g id="line2d_66">
    <path d="M 116.376818 342.875832 
L 121.435237 342.985232 
L 123.678121 343.25728 
L 126.064168 343.784243 
L 127.209471 343.982111 
L 133.174588 345.376212 
L 158.80073 345.368472 
L 158.943893 345.577473 
L 163.477382 345.511688 
L 168.440359 344.88345 
L 170.49236 344.88345 
L 170.635522 344.729741 
L 171.399057 344.879777 
L 171.923988 344.917679 
L 174.787244 345.124083 
L 176.075709 345.241616 
L 177.841384 345.324615 
L 181.038686 345.333372 
L 183.186129 345.227386 
L 185.953943 344.930043 
L 188.817199 344.688195 
L 189.485292 344.579225 
L 192.157665 344.525621 
L 193.875618 344.525621 
L 194.018781 344.061688 
L 194.925479 343.737021 
L 196.595712 343.605828 
L 197.502409 343.560427 
L 203.562968 343.090874 
L 208.144178 343.201838 
L 211.866411 343.242149 
L 212.963993 343.241184 
L 213.679807 343.418831 
L 216.304458 343.491017 
L 228.950506 343.384767 
L 229.093669 318.43776 
L 229.523157 316.902888 
L 229.714041 317.327116 
L 229.904925 317.815084 
L 230.000367 317.635217 
L 230.191251 317.197771 
L 232.768181 315.110696 
L 233.197669 315.091122 
L 233.531716 315.003363 
L 234.008925 314.9068 
L 234.438414 314.821176 
L 235.24967 314.228702 
L 235.726879 314.047287 
L 237.8266 313.060448 
L 238.256089 312.967273 
L 240.642135 312.967273 
L 240.737577 315.575407 
L 240.785298 315.573267 
L 241.40567 316.174918 
L 241.88288 316.266219 
L 242.646415 316.52039 
L 243.553113 316.545665 
L 245.939159 316.965086 
L 246.798136 317.025623 
L 247.800276 317.10697 
L 252.333765 317.294014 
L 252.476928 318.098602 
L 253.62223 318.036166 
L 254.385765 317.989782 
L 259.396463 317.963238 
L 262.355161 318.09764 
L 264.359441 317.995314 
L 267.556743 317.143761 
L 269.656465 316.843535 
L 271.374418 316.602623 
L 275.717023 316.388108 
L 275.955628 316.413657 
L 277.291814 316.277907 
L 278.771163 316.337738 
L 279.773303 316.343445 
L 305.781213 316.403522 
L 350.257125 316.360416 
L 350.400288 342.875838 
L 357.940196 342.97747 
L 358.608289 343.033547 
L 361.137499 343.171443 
L 367.341221 343.540115 
L 404.420388 343.44642 
L 404.658992 343.441166 
L 405.470248 343.541142 
L 409.860574 343.735631 
L 414.012296 343.803935 
L 420.550064 343.911974 
L 421.88625 344.015572 
L 423.651925 344.14744 
L 425.322158 344.361095 
L 427.803646 344.361095 
L 427.946809 344.979711 
L 429.044391 345.049488 
L 431.144112 345.253089 
L 433.482438 345.207591 
L 437.490996 345.001315 
L 445.651276 344.891191 
L 448.037323 344.921242 
L 451.139184 344.883153 
L 462.878534 344.832182 
L 463.021697 342.867174 
L 463.260302 342.328932 
L 463.451186 341.817347 
L 463.546627 341.981605 
L 463.832953 342.900051 
L 463.880674 342.871836 
L 464.167 342.339446 
L 464.357883 342.248053 
L 464.69193 342.065488 
L 465.264581 341.626629 
L 465.407744 341.558114 
L 465.884953 341.181057 
L 466.314442 340.90241 
L 466.505325 340.86431 
L 467.125698 340.92825 
L 467.412023 340.912616 
L 468.557326 340.795687 
L 469.368582 340.491439 
L 472.040954 339.862135 
L 474.570164 339.862135 
L 474.665606 341.489714 
L 474.713326 341.483593 
L 475.333699 342.023632 
L 475.810908 342.078725 
L 476.574443 342.283721 
L 477.481141 342.256159 
L 479.914909 342.54846 
L 481.01249 342.579749 
L 484.543839 342.736844 
L 486.261793 342.736844 
L 486.404956 343.472258 
L 487.6457 343.542028 
L 489.125049 343.571945 
L 489.936305 343.545361 
L 493.22905 343.462332 
L 495.853701 343.546018 
L 499.051004 343.441423 
L 502.152865 343.105735 
L 504.300307 342.958294 
L 507.688493 342.729601 
L 509.788214 342.83624 
L 510.742633 342.822966 
L 518.473425 343.090085 
L 549.492033 343.097856 
L 584.185154 343.122024 
L 584.328316 342.876199 
L 585.473619 342.951175 
L 585.664503 342.985653 
L 585.950828 342.681513 
L 586.093991 342.859701 
L 586.284875 343.260213 
L 586.332596 343.231915 
L 586.618921 343.324013 
L 587.096131 342.005767 
L 587.143852 342.097152 
L 587.191573 342.016573 
L 587.287014 341.789346 
L 587.477898 341.082362 
L 587.525619 341.11425 
L 587.57334 341.161244 
L 587.716503 341.018825 
L 587.955108 341.1941 
L 588.050549 341.035056 
L 588.09827 341.055696 
L 588.145991 341.120535 
L 588.193712 341.062525 
L 588.384596 340.923385 
L 588.57548 340.910564 
L 589.10041 342.353154 
L 589.339015 342.665272 
L 589.434457 342.635446 
L 589.529898 342.591779 
L 589.911666 343.191709 
L 590.150271 343.708245 
L 590.197992 343.581383 
L 590.388875 343.148672 
L 590.436596 343.183586 
L 590.913806 343.405018 
L 591.104689 343.302446 
L 591.725062 343.778224 
L 591.820503 343.734815 
L 592.345434 344.259077 
L 592.965806 344.265395 
L 593.252131 344.533482 
L 593.395294 344.640335 
L 593.586178 344.732193 
L 593.824783 344.786902 
L 594.445155 344.519254 
L 594.636039 344.507388 
L 595.304132 344.223202 
L 596.019946 344.194217 
L 596.449434 344.288736 
L 596.831202 344.268492 
L 597.356132 344.291917 
L 597.881062 344.295711 
L 598.215109 344.279862 
L 600.028504 344.307945 
L 600.935202 344.321175 
L 607.234366 344.425729 
L 608.045622 344.547067 
L 611.195203 344.715168 
L 611.52925 344.716993 
L 612.340506 344.749048 
L 613.008599 344.692042 
L 613.915297 344.769945 
L 614.487948 344.804433 
L 614.726553 344.888779 
L 615.10832 344.920047 
L 616.683111 344.663458 
L 616.969437 344.690914 
L 618.16246 344.552815 
L 620.739391 344.117328 
L 621.407484 344.159095 
L 623.841251 344.158263 
L 624.175298 344.156406 
L 626.656787 344.156406 
L 626.752229 344.726802 
L 626.799949 344.637317 
L 627.945252 341.532192 
L 628.136136 340.454546 
L 628.231578 339.914284 
L 628.327019 340.087883 
L 628.613345 341.342659 
L 628.708787 341.3304 
L 628.947392 342.007191 
L 628.995113 341.947129 
L 629.138275 341.569253 
L 629.233717 341.716024 
L 629.472322 343.532966 
L 629.663206 343.724523 
L 629.710927 344.376727 
L 629.806368 344.352787 
L 629.854089 344.461711 
L 629.90181 344.412271 
L 630.092694 343.093896 
L 630.37902 342.25547 
L 630.426741 342.204235 
L 630.569903 342.568306 
L 630.760787 340.62617 
L 630.856229 341.082436 
L 631.094834 343.092073 
L 631.142555 343.003596 
L 631.237997 342.594008 
L 631.285717 342.778505 
L 631.333438 342.734718 
L 631.715206 339.738105 
L 632.192415 342.020852 
L 632.240136 341.899609 
L 632.287857 341.80247 
L 632.478741 342.435761 
L 632.621904 340.925852 
L 632.669625 341.318608 
L 632.717346 341.505314 
L 633.146834 338.31847 
L 633.814927 344.865594 
L 634.053532 342.402074 
L 634.292136 338.369596 
L 634.339857 338.325869 
L 634.387578 338.654589 
L 634.435299 338.305885 
L 634.530741 338.127447 
L 634.673904 341.935146 
L 634.769346 340.979772 
L 634.864788 340.57637 
L 634.912509 340.870298 
L 635.00795 340.775094 
L 635.055671 340.435583 
L 635.103392 340.824451 
L 635.437439 343.613698 
L 635.48516 343.375768 
L 635.580602 344.333655 
L 635.628323 344.181423 
L 635.771485 344.457537 
L 638.348416 344.457537 
L 638.443858 351.966983 
L 638.491579 351.924339 
L 638.5393 351.957059 
L 638.968788 356.015016 
L 639.016509 355.850085 
L 639.159672 356.295555 
L 639.398277 358.222034 
L 639.445997 358.205086 
L 639.780044 356.544334 
L 639.827765 356.66098 
L 639.875486 356.610489 
L 639.970928 356.211402 
L 640.018649 356.282908 
L 640.257253 357.241526 
L 640.304974 357.035095 
L 640.543579 357.854062 
L 641.020788 359.726347 
L 641.11623 359.615755 
L 641.259393 358.388371 
L 641.450277 357.542841 
L 641.927486 359.92317 
L 642.213812 360.76653 
L 642.500137 361.459365 
L 642.547858 361.385829 
L 642.595579 361.592749 
L 642.6433 361.565903 
L 642.786463 361.394019 
L 642.929626 361.720573 
L 643.215951 363.54173 
L 643.788603 366.785323 
L 644.17037 367.719368 
L 644.599859 368.999287 
L 644.838463 369.227238 
L 644.981626 369.000435 
L 645.315673 369.722457 
L 645.411114 369.622205 
L 645.601998 369.630187 
L 645.792882 369.821503 
L 645.936045 369.654216 
L 645.983766 369.693781 
L 646.365533 369.433487 
L 646.651859 369.081841 
L 646.985905 369.067211 
L 647.272231 368.931858 
L 647.415394 368.938804 
L 650.040045 368.938804 
L 650.087766 368.231423 
L 650.135487 368.238864 
L 650.27865 369.508277 
L 650.517255 372.131017 
L 650.660417 371.831562 
L 650.994464 372.95501 
L 651.137627 372.784503 
L 651.28079 372.197589 
L 651.423952 372.479021 
L 651.471673 372.462992 
L 651.710278 373.768412 
L 651.757999 373.517441 
L 651.80572 373.591449 
L 652.092046 375.642372 
L 652.139766 375.212533 
L 652.33065 373.971744 
L 652.426092 374.695377 
L 652.712418 377.242447 
L 652.80786 377.9496 
L 653.094185 380.331879 
L 653.523674 387.404942 
L 653.762278 391.771017 
L 654.000883 394.070946 
L 654.048604 394.040256 
L 654.478092 399.293851 
L 654.764418 406.49734 
L 655.050744 413.136174 
L 655.146185 413.920885 
L 655.241627 415.545724 
L 655.337069 415.316166 
L 655.432511 414.560363 
L 655.575674 413.680616 
L 655.623395 413.711075 
L 656.005162 416.29101 
L 656.196046 419.348091 
L 656.530093 424.739329 
L 656.577814 424.842801 
L 656.816418 423.855089 
L 656.864139 423.866891 
L 657.007302 425.20896 
L 657.102744 426.467782 
L 657.150465 426.434057 
L 657.198186 426.400276 
L 657.293628 426.813906 
L 657.389069 427.886561 
L 657.770837 435.913167 
L 657.866279 437.224167 
L 658.391209 447.145415 
L 658.868418 452.640578 
L 659.107023 455.631369 
L 661.731675 455.631369 
L 661.874837 502.896746 
L 661.922558 502.846967 
L 662.018 503.668643 
L 662.256605 507.486316 
L 662.304326 507.093862 
L 662.49521 505.654363 
L 662.542931 505.825 
L 662.781535 507.144577 
L 663.115582 509.759344 
L 663.258745 510.00193 
L 663.354186 509.768407 
L 663.592791 513.218669 
L 663.831396 516.494162 
L 663.926838 517.368511 
L 664.117721 518.932647 
L 664.308605 519.448936 
L 664.833535 521.768384 
L 665.07214 521.581494 
L 665.215303 521.951335 
L 665.358466 522.620133 
L 665.406187 522.595328 
L 665.501629 522.681563 
L 665.644791 523.015098 
L 665.787954 522.997532 
L 665.883396 523.05306 
L 665.978838 523.512727 
L 666.026559 523.430861 
L 666.265164 523.090058 
L 666.885536 520.843561 
L 666.980978 520.886692 
L 667.076419 520.951662 
L 667.553629 519.116903 
L 667.744513 518.401479 
L 668.221722 516.954173 
L 668.603489 515.588354 
L 668.698931 515.474912 
L 669.176141 514.42564 
L 669.605629 513.535542 
L 669.987397 513.125383 
L 670.226001 512.949213 
L 670.65549 512.443484 
L 670.941815 512.326076 
L 673.423304 512.326076 
L 673.566467 507.101803 
L 673.661909 507.009593 
L 673.70963 507.148418 
L 673.75735 507.073586 
L 673.900513 506.790357 
L 673.995955 507.513121 
L 674.664048 512.814799 
L 675.141258 515.550883 
L 675.236699 515.155083 
L 675.427583 514.880519 
L 675.475304 514.908349 
L 675.570746 514.524349 
L 675.618467 514.55946 
L 675.857072 516.280539 
L 675.952514 516.120089 
L 676.047955 516.153317 
L 676.095676 515.98205 
L 676.143397 516.119292 
L 676.191118 516.123572 
L 676.28656 515.647348 
L 676.334281 515.504552 
L 676.382002 515.556 
L 676.429723 515.661082 
L 676.572886 514.759532 
L 676.620607 515.048028 
L 676.716048 514.94258 
L 676.859211 514.4036 
L 676.954653 514.46452 
L 677.002374 514.528939 
L 677.240979 513.830646 
L 677.336421 513.872704 
L 677.384142 513.645215 
L 677.479583 513.679957 
L 677.527304 513.850388 
L 677.575025 513.825577 
L 677.861351 512.140055 
L 677.909072 512.285653 
L 678.195398 513.022212 
L 678.290839 512.177148 
L 678.624886 507.404975 
L 678.672607 507.595331 
L 678.720328 507.565375 
L 679.531584 501.172259 
L 679.722467 500.659524 
L 680.438282 490.461652 
L 680.533723 490.862169 
L 680.629165 491.416487 
L 680.676886 491.188216 
L 680.724607 491.024104 
L 680.820049 492.315339 
L 681.010933 494.587676 
L 681.058654 494.530432 
L 681.201816 495.836189 
L 681.535863 498.903018 
L 681.583584 498.727871 
L 681.631305 498.098673 
L 681.679026 498.251379 
L 681.822189 499.80208 
L 681.86991 499.7637 
L 682.013072 499.407037 
L 682.060793 499.510011 
L 682.108514 499.375244 
L 682.203956 498.473252 
L 682.442561 495.831061 
L 685.114933 495.831061 
L 685.162654 491.00208 
L 685.305817 505.908688 
L 685.496701 505.869765 
L 685.687584 505.647481 
L 685.735305 505.687868 
L 686.117073 506.024146 
L 686.451119 506.047785 
L 686.689724 506.021701 
L 686.97605 505.97209 
L 687.644143 505.989756 
L 687.930468 505.995612 
L 688.455399 505.893037 
L 688.789445 505.857088 
L 689.362097 506.395898 
L 689.505259 506.454832 
L 689.982469 506.818901 
L 690.411957 506.256788 
L 690.889166 505.609055 
L 691.127771 505.379263 
L 691.318655 505.138563 
L 691.509539 504.779436 
L 691.604981 504.7191 
L 691.795864 504.338309 
L 692.368516 503.040409 
L 692.511678 503.03084 
L 692.845725 503.100002 
L 693.179771 502.878678 
L 693.466097 502.418038 
L 693.561539 502.280715 
L 693.847865 501.522349 
L 694.038748 500.965377 
L 694.13419 500.846261 
L 694.277353 500.930876 
L 696.806563 500.930876 
L 696.949725 350.187904 
L 697.092888 344.840907 
L 697.140609 344.959177 
L 697.18833 344.826679 
L 697.379214 343.894462 
L 697.426935 344.065115 
L 697.522377 344.353181 
L 697.760981 345.448142 
L 697.856423 345.207773 
L 698.047307 344.644671 
L 698.763121 344.089225 
L 698.810842 344.126103 
L 698.858563 344.049357 
L 699.478935 343.392694 
L 700.194749 342.718552 
L 700.433354 342.631892 
L 700.958284 342.723813 
L 701.340051 342.683575 
L 702.389912 342.666966 
L 702.867121 342.412699 
L 704.871401 341.931011 
L 705.539494 341.764674 
L 706.207587 341.724293 
L 708.498192 341.724293 
L 708.545913 340.781422 
L 708.641355 340.80687 
L 709.309448 341.572507 
L 709.691215 341.688449 
L 711.027401 341.968509 
L 712.029541 342.118661 
L 712.649913 342.238719 
L 714.701914 342.319065 
L 716.228983 342.370999 
L 718.805914 342.471246 
L 720.189821 342.471246 
L 720.332984 343.038609 
L 722.003217 343.166466 
L 728.588706 343.187681 
L 731.929171 343.173771 
L 736.367218 342.664792 
L 737.798847 342.543529 
L 740.328056 342.314526 
L 741.950568 342.274203 
L 744.670661 342.383903 
L 747.581638 342.692052 
L 754.262569 342.925725 
L 818.113182 342.875849 
L 818.113182 342.875849 
" clip-path="url(#p936058d517)" style="fill: none; stroke-dasharray: 5.55,2.4; stroke-dashoffset: 0; stroke: #ff0000; stroke-width: 1.5"/>
   </g>
   <g id="line2d_67">
    <path d="M 350.304846 534.04 
L 350.304846 302.44 
" clip-path="url(#p936058d517)" style="fill: none; stroke-dasharray: 1.5,2.475; stroke-dashoffset: 0; stroke: #808080; stroke-opacity: 0.6; stroke-width: 1.5"/>
   </g>
   <g id="line2d_68">
    <path d="M 584.232875 534.04 
L 584.232875 302.44 
" clip-path="url(#p936058d517)" style="fill: none; stroke-dasharray: 1.5,2.475; stroke-dashoffset: 0; stroke: #808080; stroke-opacity: 0.6; stroke-width: 1.5"/>
   </g>
   <g id="patch_9">
    <path d="M 81.29 534.04 
L 81.29 302.44 
" style="fill: none; stroke: #000000; stroke-width: 0.8; stroke-linejoin: miter; stroke-linecap: square"/>
   </g>
   <g id="patch_10">
    <path d="M 853.2 534.04 
L 853.2 302.44 
" style="fill: none; stroke: #000000; stroke-width: 0.8; stroke-linejoin: miter; stroke-linecap: square"/>
   </g>
   <g id="patch_11">
    <path d="M 81.29 534.04 
L 853.2 534.04 
" style="fill: none; stroke: #000000; stroke-width: 0.8; stroke-linejoin: miter; stroke-linecap: square"/>
   </g>
   <g id="patch_12">
    <path d="M 81.29 302.44 
L 853.2 302.44 
" style="fill: none; stroke: #000000; stroke-width: 0.8; stroke-linejoin: miter; stroke-linecap: square"/>
   </g>
   <g id="text_36">
    <!-- [14] dKg_zx  —  State Estimate -->
    <g transform="translate(373.850312 296.44) scale(0.12 -0.12)">
     <use xlink:href="#DejaVuSans-5b"/>
     <use xlink:href="#DejaVuSans-31" transform="translate(39.013672 0)"/>
     <use xlink:href="#DejaVuSans-34" transform="translate(102.636719 0)"/>
     <use xlink:href="#DejaVuSans-5d" transform="translate(166.259766 0)"/>
     <use xlink:href="#DejaVuSans-20" transform="translate(205.273438 0)"/>
     <use xlink:href="#DejaVuSans-64" transform="translate(237.060547 0)"/>
     <use xlink:href="#DejaVuSans-4b" transform="translate(300.537109 0)"/>
     <use xlink:href="#DejaVuSans-67" transform="translate(366.113281 0)"/>
     <use xlink:href="#DejaVuSans-5f" transform="translate(429.589844 0)"/>
     <use xlink:href="#DejaVuSans-7a" transform="translate(479.589844 0)"/>
     <use xlink:href="#DejaVuSans-78" transform="translate(532.080078 0)"/>
     <use xlink:href="#DejaVuSans-20" transform="translate(591.259766 0)"/>
     <use xlink:href="#DejaVuSans-20" transform="translate(623.046875 0)"/>
     <use xlink:href="#DejaVuSans-2014" transform="translate(654.833984 0)"/>
     <use xlink:href="#DejaVuSans-20" transform="translate(754.833984 0)"/>
     <use xlink:href="#DejaVuSans-20" transform="translate(786.621094 0)"/>
     <use xlink:href="#DejaVuSans-53" transform="translate(818.408203 0)"/>
     <use xlink:href="#DejaVuSans-74" transform="translate(881.884766 0)"/>
     <use xlink:href="#DejaVuSans-61" transform="translate(921.09375 0)"/>
     <use xlink:href="#DejaVuSans-74" transform="translate(982.373047 0)"/>
     <use xlink:href="#DejaVuSans-65" transform="translate(1021.582031 0)"/>
     <use xlink:href="#DejaVuSans-20" transform="translate(1083.105469 0)"/>
     <use xlink:href="#DejaVuSans-45" transform="translate(1114.892578 0)"/>
     <use xlink:href="#DejaVuSans-73" transform="translate(1178.076172 0)"/>
     <use xlink:href="#DejaVuSans-74" transform="translate(1230.175781 0)"/>
     <use xlink:href="#DejaVuSans-69" transform="translate(1269.384766 0)"/>
     <use xlink:href="#DejaVuSans-6d" transform="translate(1297.167969 0)"/>
     <use xlink:href="#DejaVuSans-61" transform="translate(1394.580078 0)"/>
     <use xlink:href="#DejaVuSans-74" transform="translate(1455.859375 0)"/>
     <use xlink:href="#DejaVuSans-65" transform="translate(1495.068359 0)"/>
    </g>
   </g>
   <g id="legend_2">
    <g id="patch_13">
     <path d="M 738.401563 339.79625 
L 846.2 339.79625 
Q 848.2 339.79625 848.2 337.79625 
L 848.2 309.44 
Q 848.2 307.44 846.2 307.44 
L 738.401563 307.44 
Q 736.401563 307.44 736.401563 309.44 
L 736.401563 337.79625 
Q 736.401563 339.79625 738.401563 339.79625 
z
" style="fill: #ffffff; opacity: 0.8; stroke: #cccccc; stroke-linejoin: miter"/>
    </g>
    <g id="line2d_69">
     <path d="M 740.401563 315.538437 
L 750.401563 315.538437 
L 760.401563 315.538437 
" style="fill: none; stroke: #0000ff; stroke-width: 1.5; stroke-linecap: square"/>
    </g>
    <g id="text_37">
     <!-- No Noise -->
     <g transform="translate(768.401563 319.038437) scale(0.1 -0.1)">
      <use xlink:href="#DejaVuSans-4e"/>
      <use xlink:href="#DejaVuSans-6f" transform="translate(74.804688 0)"/>
      <use xlink:href="#DejaVuSans-20" transform="translate(135.986328 0)"/>
      <use xlink:href="#DejaVuSans-4e" transform="translate(167.773438 0)"/>
      <use xlink:href="#DejaVuSans-6f" transform="translate(242.578125 0)"/>
      <use xlink:href="#DejaVuSans-69" transform="translate(303.759766 0)"/>
      <use xlink:href="#DejaVuSans-73" transform="translate(331.542969 0)"/>
      <use xlink:href="#DejaVuSans-65" transform="translate(383.642578 0)"/>
     </g>
    </g>
    <g id="line2d_70">
     <path d="M 740.401563 330.216562 
L 750.401563 330.216562 
L 760.401563 330.216562 
" style="fill: none; stroke-dasharray: 5.55,2.4; stroke-dashoffset: 0; stroke: #ff0000; stroke-width: 1.5"/>
    </g>
    <g id="text_38">
     <!-- With ARW/VRW -->
     <g transform="translate(768.401563 333.716562) scale(0.1 -0.1)">
      <use xlink:href="#DejaVuSans-57"/>
      <use xlink:href="#DejaVuSans-69" transform="translate(96.626953 0)"/>
      <use xlink:href="#DejaVuSans-74" transform="translate(124.410156 0)"/>
      <use xlink:href="#DejaVuSans-68" transform="translate(163.619141 0)"/>
      <use xlink:href="#DejaVuSans-20" transform="translate(226.998047 0)"/>
      <use xlink:href="#DejaVuSans-41" transform="translate(258.785156 0)"/>
      <use xlink:href="#DejaVuSans-52" transform="translate(327.193359 0)"/>
      <use xlink:href="#DejaVuSans-57" transform="translate(392.675781 0)"/>
      <use xlink:href="#DejaVuSans-2f" transform="translate(491.552734 0)"/>
      <use xlink:href="#DejaVuSans-56" transform="translate(525.244141 0)"/>
      <use xlink:href="#DejaVuSans-52" transform="translate(593.652344 0)"/>
      <use xlink:href="#DejaVuSans-57" transform="translate(659.134766 0)"/>
     </g>
    </g>
   </g>
  </g>
 </g>
 <defs>
  <clipPath id="p7abec756cc">
   <rect x="81.29" y="26.88" width="771.91" height="231.6"/>
  </clipPath>
  <clipPath id="p936058d517">
   <rect x="81.29" y="302.44" width="771.91" height="231.6"/>
  </clipPath>
 </defs>
</svg>
