<?xml version="1.0" encoding="utf-8" standalone="no"?>
<!DOCTYPE svg PUBLIC "-//W3C//DTD SVG 1.1//EN"
  "http://www.w3.org/Graphics/SVG/1.1/DTD/svg11.dtd">
<svg xmlns:xlink="http://www.w3.org/1999/xlink" width="864pt" height="576pt" viewBox="0 0 864 576" xmlns="http://www.w3.org/2000/svg" version="1.1">
 <metadata>
  <rdf:RDF xmlns:dc="http://purl.org/dc/elements/1.1/" xmlns:cc="http://creativecommons.org/ns#" xmlns:rdf="http://www.w3.org/1999/02/22-rdf-syntax-ns#">
   <cc:Work>
    <dc:type rdf:resource="http://purl.org/dc/dcmitype/StillImage"/>
    <dc:date>2026-03-09T19:21:57.566312</dc:date>
    <dc:format>image/svg+xml</dc:format>
    <dc:creator>
     <cc:Agent>
      <dc:title>Matplotlib v3.10.8, https://matplotlib.org/</dc:title>
     </cc:Agent>
    </dc:creator>
   </cc:Work>
  </rdf:RDF>
 </metadata>
 <defs>
  <style type="text/css">*{stroke-linejoin: round; stroke-linecap: butt}</style>
 </defs>
 <g id="figure_1">
  <g id="patch_1">
   <path d="M 0 576 
L 864 576 
L 864 0 
L 0 0 
z
" style="fill: #ffffff"/>
  </g>
  <g id="axes_1">
   <g id="patch_2">
    <path d="M 74.99 258.48 
L 853.2 258.48 
L 853.2 26.88 
L 74.99 26.88 
z
" style="fill: #ffffff"/>
   </g>
   <g id="matplotlib.axis_1">
    <g id="xtick_1">
     <g id="line2d_1">
      <path d="M 110.363182 258.48 
L 110.363182 26.88 
" clip-path="url(#p9edec25e1f)" style="fill: none; stroke: #b0b0b0; stroke-width: 0.8; stroke-linecap: square"/>
     </g>
     <g id="line2d_2">
      <defs>
       <path id="m3a3a88ea3d" d="M 0 0 
L 0 3.5 
" style="stroke: #000000; stroke-width: 0.8"/>
      </defs>
      <g>
       <use xlink:href="#m3a3a88ea3d" x="110.363182" y="258.48" style="stroke: #000000; stroke-width: 0.8"/>
      </g>
     </g>
     <g id="text_1">
      <!-- 0 -->
      <g transform="translate(107.181932 273.078438) scale(0.1 -0.1)">
       <defs>
        <path id="DejaVuSans-30" d="M 2034 4250 
Q 1547 4250 1301 3770 
Q 1056 3291 1056 2328 
Q 1056 1369 1301 889 
Q 1547 409 2034 409 
Q 2525 409 2770 889 
Q 3016 1369 3016 2328 
Q 3016 3291 2770 3770 
Q 2525 4250 2034 4250 
z
M 2034 4750 
Q 2819 4750 3233 4129 
Q 3647 3509 3647 2328 
Q 3647 1150 3233 529 
Q 2819 -91 2034 -91 
Q 1250 -91 836 529 
Q 422 1150 422 2328 
Q 422 3509 836 4129 
Q 1250 4750 2034 4750 
z
" transform="scale(0.015625)"/>
       </defs>
       <use xlink:href="#DejaVuSans-30"/>
      </g>
     </g>
    </g>
    <g id="xtick_2">
     <g id="line2d_3">
      <path d="M 230.639217 258.48 
L 230.639217 26.88 
" clip-path="url(#p9edec25e1f)" style="fill: none; stroke: #b0b0b0; stroke-width: 0.8; stroke-linecap: square"/>
     </g>
     <g id="line2d_4">
      <g>
       <use xlink:href="#m3a3a88ea3d" x="230.639217" y="258.48" style="stroke: #000000; stroke-width: 0.8"/>
      </g>
     </g>
     <g id="text_2">
      <!-- 50 -->
      <g transform="translate(224.276717 273.078438) scale(0.1 -0.1)">
       <defs>
        <path id="DejaVuSans-35" d="M 691 4666 
L 3169 4666 
L 3169 4134 
L 1269 4134 
L 1269 2991 
Q 1406 3038 1543 3061 
Q 1681 3084 1819 3084 
Q 2600 3084 3056 2656 
Q 3513 2228 3513 1497 
Q 3513 744 3044 326 
Q 2575 -91 1722 -91 
Q 1428 -91 1123 -41 
Q 819 9 494 109 
L 494 744 
Q 775 591 1075 516 
Q 1375 441 1709 441 
Q 2250 441 2565 725 
Q 2881 1009 2881 1497 
Q 2881 1984 2565 2268 
Q 2250 2553 1709 2553 
Q 1456 2553 1204 2497 
Q 953 2441 691 2322 
L 691 4666 
z
" transform="scale(0.015625)"/>
       </defs>
       <use xlink:href="#DejaVuSans-35"/>
       <use xlink:href="#DejaVuSans-30" transform="translate(63.623047 0)"/>
      </g>
     </g>
    </g>
    <g id="xtick_3">
     <g id="line2d_5">
      <path d="M 350.915251 258.48 
L 350.915251 26.88 
" clip-path="url(#p9edec25e1f)" style="fill: none; stroke: #b0b0b0; stroke-width: 0.8; stroke-linecap: square"/>
     </g>
     <g id="line2d_6">
      <g>
       <use xlink:href="#m3a3a88ea3d" x="350.915251" y="258.48" style="stroke: #000000; stroke-width: 0.8"/>
      </g>
     </g>
     <g id="text_3">
      <!-- 100 -->
      <g transform="translate(341.371501 273.078438) scale(0.1 -0.1)">
       <defs>
        <path id="DejaVuSans-31" d="M 794 531 
L 1825 531 
L 1825 4091 
L 703 3866 
L 703 4441 
L 1819 4666 
L 2450 4666 
L 2450 531 
L 3481 531 
L 3481 0 
L 794 0 
L 794 531 
z
" transform="scale(0.015625)"/>
       </defs>
       <use xlink:href="#DejaVuSans-31"/>
       <use xlink:href="#DejaVuSans-30" transform="translate(63.623047 0)"/>
       <use xlink:href="#DejaVuSans-30" transform="translate(127.246094 0)"/>
      </g>
     </g>
    </g>
    <g id="xtick_4">
     <g id="line2d_7">
      <path d="M 471.191286 258.48 
L 471.191286 26.88 
" clip-path="url(#p9edec25e1f)" style="fill: none; stroke: #b0b0b0; stroke-width: 0.8; stroke-linecap: square"/>
     </g>
     <g id="line2d_8">
      <g>
       <use xlink:href="#m3a3a88ea3d" x="471.191286" y="258.48" style="stroke: #000000; stroke-width: 0.8"/>
      </g>
     </g>
     <g id="text_4">
      <!-- 150 -->
      <g transform="translate(461.647536 273.078438) scale(0.1 -0.1)">
       <use xlink:href="#DejaVuSans-31"/>
       <use xlink:href="#DejaVuSans-35" transform="translate(63.623047 0)"/>
       <use xlink:href="#DejaVuSans-30" transform="translate(127.246094 0)"/>
      </g>
     </g>
    </g>
    <g id="xtick_5">
     <g id="line2d_9">
      <path d="M 591.467321 258.48 
L 591.467321 26.88 
" clip-path="url(#p9edec25e1f)" style="fill: none; stroke: #b0b0b0; stroke-width: 0.8; stroke-linecap: square"/>
     </g>
     <g id="line2d_10">
      <g>
       <use xlink:href="#m3a3a88ea3d" x="591.467321" y="258.48" style="stroke: #000000; stroke-width: 0.8"/>
      </g>
     </g>
     <g id="text_5">
      <!-- 200 -->
      <g transform="translate(581.923571 273.078438) scale(0.1 -0.1)">
       <defs>
        <path id="DejaVuSans-32" d="M 1228 531 
L 3431 531 
L 3431 0 
L 469 0 
L 469 531 
Q 828 903 1448 1529 
Q 2069 2156 2228 2338 
Q 2531 2678 2651 2914 
Q 2772 3150 2772 3378 
Q 2772 3750 2511 3984 
Q 2250 4219 1831 4219 
Q 1534 4219 1204 4116 
Q 875 4013 500 3803 
L 500 4441 
Q 881 4594 1212 4672 
Q 1544 4750 1819 4750 
Q 2544 4750 2975 4387 
Q 3406 4025 3406 3419 
Q 3406 3131 3298 2873 
Q 3191 2616 2906 2266 
Q 2828 2175 2409 1742 
Q 1991 1309 1228 531 
z
" transform="scale(0.015625)"/>
       </defs>
       <use xlink:href="#DejaVuSans-32"/>
       <use xlink:href="#DejaVuSans-30" transform="translate(63.623047 0)"/>
       <use xlink:href="#DejaVuSans-30" transform="translate(127.246094 0)"/>
      </g>
     </g>
    </g>
    <g id="xtick_6">
     <g id="line2d_11">
      <path d="M 711.743356 258.48 
L 711.743356 26.88 
" clip-path="url(#p9edec25e1f)" style="fill: none; stroke: #b0b0b0; stroke-width: 0.8; stroke-linecap: square"/>
     </g>
     <g id="line2d_12">
      <g>
       <use xlink:href="#m3a3a88ea3d" x="711.743356" y="258.48" style="stroke: #000000; stroke-width: 0.8"/>
      </g>
     </g>
     <g id="text_6">
      <!-- 250 -->
      <g transform="translate(702.199606 273.078438) scale(0.1 -0.1)">
       <use xlink:href="#DejaVuSans-32"/>
       <use xlink:href="#DejaVuSans-35" transform="translate(63.623047 0)"/>
       <use xlink:href="#DejaVuSans-30" transform="translate(127.246094 0)"/>
      </g>
     </g>
    </g>
    <g id="xtick_7">
     <g id="line2d_13">
      <path d="M 832.01939 258.48 
L 832.01939 26.88 
" clip-path="url(#p9edec25e1f)" style="fill: none; stroke: #b0b0b0; stroke-width: 0.8; stroke-linecap: square"/>
     </g>
     <g id="line2d_14">
      <g>
       <use xlink:href="#m3a3a88ea3d" x="832.01939" y="258.48" style="stroke: #000000; stroke-width: 0.8"/>
      </g>
     </g>
     <g id="text_7">
      <!-- 300 -->
      <g transform="translate(822.47564 273.078438) scale(0.1 -0.1)">
       <defs>
        <path id="DejaVuSans-33" d="M 2597 2516 
Q 3050 2419 3304 2112 
Q 3559 1806 3559 1356 
Q 3559 666 3084 287 
Q 2609 -91 1734 -91 
Q 1441 -91 1130 -33 
Q 819 25 488 141 
L 488 750 
Q 750 597 1062 519 
Q 1375 441 1716 441 
Q 2309 441 2620 675 
Q 2931 909 2931 1356 
Q 2931 1769 2642 2001 
Q 2353 2234 1838 2234 
L 1294 2234 
L 1294 2753 
L 1863 2753 
Q 2328 2753 2575 2939 
Q 2822 3125 2822 3475 
Q 2822 3834 2567 4026 
Q 2313 4219 1838 4219 
Q 1578 4219 1281 4162 
Q 984 4106 628 3988 
L 628 4550 
Q 988 4650 1302 4700 
Q 1616 4750 1894 4750 
Q 2613 4750 3031 4423 
Q 3450 4097 3450 3541 
Q 3450 3153 3228 2886 
Q 3006 2619 2597 2516 
z
" transform="scale(0.015625)"/>
       </defs>
       <use xlink:href="#DejaVuSans-33"/>
       <use xlink:href="#DejaVuSans-30" transform="translate(63.623047 0)"/>
       <use xlink:href="#DejaVuSans-30" transform="translate(127.246094 0)"/>
      </g>
     </g>
    </g>
   </g>
   <g id="matplotlib.axis_2">
    <g id="ytick_1">
     <g id="line2d_15">
      <path d="M 74.99 248.829546 
L 853.2 248.829546 
" clip-path="url(#p9edec25e1f)" style="fill: none; stroke: #b0b0b0; stroke-width: 0.8; stroke-linecap: square"/>
     </g>
     <g id="line2d_16">
      <defs>
       <path id="mbb1b344a23" d="M 0 0 
L -3.5 0 
" style="stroke: #000000; stroke-width: 0.8"/>
      </defs>
      <g>
       <use xlink:href="#mbb1b344a23" x="74.99" y="248.829546" style="stroke: #000000; stroke-width: 0.8"/>
      </g>
     </g>
     <g id="text_8">
      <!-- 0.000 -->
      <g transform="translate(39.361875 252.628765) scale(0.1 -0.1)">
       <defs>
        <path id="DejaVuSans-2e" d="M 684 794 
L 1344 794 
L 1344 0 
L 684 0 
L 684 794 
z
" transform="scale(0.015625)"/>
       </defs>
       <use xlink:href="#DejaVuSans-30"/>
       <use xlink:href="#DejaVuSans-2e" transform="translate(63.623047 0)"/>
       <use xlink:href="#DejaVuSans-30" transform="translate(95.410156 0)"/>
       <use xlink:href="#DejaVuSans-30" transform="translate(159.033203 0)"/>
       <use xlink:href="#DejaVuSans-30" transform="translate(222.65625 0)"/>
      </g>
     </g>
    </g>
    <g id="ytick_2">
     <g id="line2d_17">
      <path d="M 74.99 205.220572 
L 853.2 205.220572 
" clip-path="url(#p9edec25e1f)" style="fill: none; stroke: #b0b0b0; stroke-width: 0.8; stroke-linecap: square"/>
     </g>
     <g id="line2d_18">
      <g>
       <use xlink:href="#mbb1b344a23" x="74.99" y="205.220572" style="stroke: #000000; stroke-width: 0.8"/>
      </g>
     </g>
     <g id="text_9">
      <!-- 0.001 -->
      <g transform="translate(39.361875 209.01979) scale(0.1 -0.1)">
       <use xlink:href="#DejaVuSans-30"/>
       <use xlink:href="#DejaVuSans-2e" transform="translate(63.623047 0)"/>
       <use xlink:href="#DejaVuSans-30" transform="translate(95.410156 0)"/>
       <use xlink:href="#DejaVuSans-30" transform="translate(159.033203 0)"/>
       <use xlink:href="#DejaVuSans-31" transform="translate(222.65625 0)"/>
      </g>
     </g>
    </g>
    <g id="ytick_3">
     <g id="line2d_19">
      <path d="M 74.99 161.611598 
L 853.2 161.611598 
" clip-path="url(#p9edec25e1f)" style="fill: none; stroke: #b0b0b0; stroke-width: 0.8; stroke-linecap: square"/>
     </g>
     <g id="line2d_20">
      <g>
       <use xlink:href="#mbb1b344a23" x="74.99" y="161.611598" style="stroke: #000000; stroke-width: 0.8"/>
      </g>
     </g>
     <g id="text_10">
      <!-- 0.002 -->
      <g transform="translate(39.361875 165.410816) scale(0.1 -0.1)">
       <use xlink:href="#DejaVuSans-30"/>
       <use xlink:href="#DejaVuSans-2e" transform="translate(63.623047 0)"/>
       <use xlink:href="#DejaVuSans-30" transform="translate(95.410156 0)"/>
       <use xlink:href="#DejaVuSans-30" transform="translate(159.033203 0)"/>
       <use xlink:href="#DejaVuSans-32" transform="translate(222.65625 0)"/>
      </g>
     </g>
    </g>
    <g id="ytick_4">
     <g id="line2d_21">
      <path d="M 74.99 118.002623 
L 853.2 118.002623 
" clip-path="url(#p9edec25e1f)" style="fill: none; stroke: #b0b0b0; stroke-width: 0.8; stroke-linecap: square"/>
     </g>
     <g id="line2d_22">
      <g>
       <use xlink:href="#mbb1b344a23" x="74.99" y="118.002623" style="stroke: #000000; stroke-width: 0.8"/>
      </g>
     </g>
     <g id="text_11">
      <!-- 0.003 -->
      <g transform="translate(39.361875 121.801842) scale(0.1 -0.1)">
       <use xlink:href="#DejaVuSans-30"/>
       <use xlink:href="#DejaVuSans-2e" transform="translate(63.623047 0)"/>
       <use xlink:href="#DejaVuSans-30" transform="translate(95.410156 0)"/>
       <use xlink:href="#DejaVuSans-30" transform="translate(159.033203 0)"/>
       <use xlink:href="#DejaVuSans-33" transform="translate(222.65625 0)"/>
      </g>
     </g>
    </g>
    <g id="ytick_5">
     <g id="line2d_23">
      <path d="M 74.99 74.393649 
L 853.2 74.393649 
" clip-path="url(#p9edec25e1f)" style="fill: none; stroke: #b0b0b0; stroke-width: 0.8; stroke-linecap: square"/>
     </g>
     <g id="line2d_24">
      <g>
       <use xlink:href="#mbb1b344a23" x="74.99" y="74.393649" style="stroke: #000000; stroke-width: 0.8"/>
      </g>
     </g>
     <g id="text_12">
      <!-- 0.004 -->
      <g transform="translate(39.361875 78.192868) scale(0.1 -0.1)">
       <defs>
        <path id="DejaVuSans-34" d="M 2419 4116 
L 825 1625 
L 2419 1625 
L 2419 4116 
z
M 2253 4666 
L 3047 4666 
L 3047 1625 
L 3713 1625 
L 3713 1100 
L 3047 1100 
L 3047 0 
L 2419 0 
L 2419 1100 
L 313 1100 
L 313 1709 
L 2253 4666 
z
" transform="scale(0.015625)"/>
       </defs>
       <use xlink:href="#DejaVuSans-30"/>
       <use xlink:href="#DejaVuSans-2e" transform="translate(63.623047 0)"/>
       <use xlink:href="#DejaVuSans-30" transform="translate(95.410156 0)"/>
       <use xlink:href="#DejaVuSans-30" transform="translate(159.033203 0)"/>
       <use xlink:href="#DejaVuSans-34" transform="translate(222.65625 0)"/>
      </g>
     </g>
    </g>
    <g id="ytick_6">
     <g id="line2d_25">
      <path d="M 74.99 30.784675 
L 853.2 30.784675 
" clip-path="url(#p9edec25e1f)" style="fill: none; stroke: #b0b0b0; stroke-width: 0.8; stroke-linecap: square"/>
     </g>
     <g id="line2d_26">
      <g>
       <use xlink:href="#mbb1b344a23" x="74.99" y="30.784675" style="stroke: #000000; stroke-width: 0.8"/>
      </g>
     </g>
     <g id="text_13">
      <!-- 0.005 -->
      <g transform="translate(39.361875 34.583894) scale(0.1 -0.1)">
       <use xlink:href="#DejaVuSans-30"/>
       <use xlink:href="#DejaVuSans-2e" transform="translate(63.623047 0)"/>
       <use xlink:href="#DejaVuSans-30" transform="translate(95.410156 0)"/>
       <use xlink:href="#DejaVuSans-30" transform="translate(159.033203 0)"/>
       <use xlink:href="#DejaVuSans-35" transform="translate(222.65625 0)"/>
      </g>
     </g>
    </g>
    <g id="text_14">
     <!-- Std Dev -->
     <g transform="translate(33.282187 162.463594) rotate(-90) scale(0.1 -0.1)">
      <defs>
       <path id="DejaVuSans-53" d="M 3425 4513 
L 3425 3897 
Q 3066 4069 2747 4153 
Q 2428 4238 2131 4238 
Q 1616 4238 1336 4038 
Q 1056 3838 1056 3469 
Q 1056 3159 1242 3001 
Q 1428 2844 1947 2747 
L 2328 2669 
Q 3034 2534 3370 2195 
Q 3706 1856 3706 1288 
Q 3706 609 3251 259 
Q 2797 -91 1919 -91 
Q 1588 -91 1214 -16 
Q 841 59 441 206 
L 441 856 
Q 825 641 1194 531 
Q 1563 422 1919 422 
Q 2459 422 2753 634 
Q 3047 847 3047 1241 
Q 3047 1584 2836 1778 
Q 2625 1972 2144 2069 
L 1759 2144 
Q 1053 2284 737 2584 
Q 422 2884 422 3419 
Q 422 4038 858 4394 
Q 1294 4750 2059 4750 
Q 2388 4750 2728 4690 
Q 3069 4631 3425 4513 
z
" transform="scale(0.015625)"/>
       <path id="DejaVuSans-74" d="M 1172 4494 
L 1172 3500 
L 2356 3500 
L 2356 3053 
L 1172 3053 
L 1172 1153 
Q 1172 725 1289 603 
Q 1406 481 1766 481 
L 2356 481 
L 2356 0 
L 1766 0 
Q 1100 0 847 248 
Q 594 497 594 1153 
L 594 3053 
L 172 3053 
L 172 3500 
L 594 3500 
L 594 4494 
L 1172 4494 
z
" transform="scale(0.015625)"/>
       <path id="DejaVuSans-64" d="M 2906 2969 
L 2906 4863 
L 3481 4863 
L 3481 0 
L 2906 0 
L 2906 525 
Q 2725 213 2448 61 
Q 2172 -91 1784 -91 
Q 1150 -91 751 415 
Q 353 922 353 1747 
Q 353 2572 751 3078 
Q 1150 3584 1784 3584 
Q 2172 3584 2448 3432 
Q 2725 3281 2906 2969 
z
M 947 1747 
Q 947 1113 1208 752 
Q 1469 391 1925 391 
Q 2381 391 2643 752 
Q 2906 1113 2906 1747 
Q 2906 2381 2643 2742 
Q 2381 3103 1925 3103 
Q 1469 3103 1208 2742 
Q 947 2381 947 1747 
z
" transform="scale(0.015625)"/>
       <path id="DejaVuSans-20" transform="scale(0.015625)"/>
       <path id="DejaVuSans-44" d="M 1259 4147 
L 1259 519 
L 2022 519 
Q 2988 519 3436 956 
Q 3884 1394 3884 2338 
Q 3884 3275 3436 3711 
Q 2988 4147 2022 4147 
L 1259 4147 
z
M 628 4666 
L 1925 4666 
Q 3281 4666 3915 4102 
Q 4550 3538 4550 2338 
Q 4550 1131 3912 565 
Q 3275 0 1925 0 
L 628 0 
L 628 4666 
z
" transform="scale(0.015625)"/>
       <path id="DejaVuSans-65" d="M 3597 1894 
L 3597 1613 
L 953 1613 
Q 991 1019 1311 708 
Q 1631 397 2203 397 
Q 2534 397 2845 478 
Q 3156 559 3463 722 
L 3463 178 
Q 3153 47 2828 -22 
Q 2503 -91 2169 -91 
Q 1331 -91 842 396 
Q 353 884 353 1716 
Q 353 2575 817 3079 
Q 1281 3584 2069 3584 
Q 2775 3584 3186 3129 
Q 3597 2675 3597 1894 
z
M 3022 2063 
Q 3016 2534 2758 2815 
Q 2500 3097 2075 3097 
Q 1594 3097 1305 2825 
Q 1016 2553 972 2059 
L 3022 2063 
z
" transform="scale(0.015625)"/>
       <path id="DejaVuSans-76" d="M 191 3500 
L 800 3500 
L 1894 563 
L 2988 3500 
L 3597 3500 
L 2284 0 
L 1503 0 
L 191 3500 
z
" transform="scale(0.015625)"/>
      </defs>
      <use xlink:href="#DejaVuSans-53"/>
      <use xlink:href="#DejaVuSans-74" transform="translate(63.476562 0)"/>
      <use xlink:href="#DejaVuSans-64" transform="translate(102.685547 0)"/>
      <use xlink:href="#DejaVuSans-20" transform="translate(166.162109 0)"/>
      <use xlink:href="#DejaVuSans-44" transform="translate(197.949219 0)"/>
      <use xlink:href="#DejaVuSans-65" transform="translate(274.951172 0)"/>
      <use xlink:href="#DejaVuSans-76" transform="translate(336.474609 0)"/>
     </g>
    </g>
   </g>
   <g id="line2d_27">
    <path d="M 110.363182 227.687319 
L 223.855648 227.728053 
L 223.999979 237.585456 
L 224.336752 240.553391 
L 224.625415 241.312263 
L 225.010298 241.703494 
L 225.587623 241.950677 
L 226.694163 242.13856 
L 229.147794 242.27777 
L 235.065375 242.353851 
L 235.6427 242.353851 
L 235.787031 246.247294 
L 236.653018 246.558421 
L 238.00011 246.683804 
L 241.897053 246.755552 
L 247.429751 246.765826 
L 247.574082 246.96352 
L 251.519136 247.068831 
L 268.838885 247.153116 
L 285.052095 247.264195 
L 306.365008 247.335847 
L 306.509339 247.761667 
L 308.193204 247.883133 
L 314.73622 247.921257 
L 346.15232 247.951879 
L 346.296652 227.687319 
L 459.692897 227.728028 
L 459.837228 237.582935 
L 460.174001 240.555197 
L 460.462664 241.315841 
L 460.847547 241.708092 
L 461.424872 241.955931 
L 462.531412 242.144253 
L 464.985043 242.283564 
L 470.902624 242.35928 
L 471.479949 242.35928 
L 471.62428 246.244076 
L 472.490267 246.557526 
L 473.837359 246.683881 
L 477.686192 246.755922 
L 483.267 246.76661 
L 483.411331 246.962454 
L 487.404496 247.069465 
L 504.579913 247.154167 
L 520.889344 247.265227 
L 542.202257 247.335951 
L 542.346588 247.763658 
L 543.982342 247.884541 
L 550.284806 247.923739 
L 581.989569 247.952727 
L 582.1339 37.407273 
L 587.041163 37.518423 
L 593.584179 37.580486 
L 626.587923 37.756715 
L 627.838794 38.079651 
L 628.945333 38.602833 
L 630.003762 39.349705 
L 631.158412 40.444141 
L 632.505504 42.043252 
L 634.141258 44.023492 
L 636.594889 44.023492 
L 636.73922 46.964551 
L 637.508987 47.514262 
L 638.471195 47.905805 
L 639.866397 48.209405 
L 641.983255 48.418834 
L 645.543426 48.516298 
L 648.670603 48.62944 
L 651.316676 49.99916 
L 653.433534 51.295303 
L 655.790944 53.017214 
L 657.715361 54.390886 
L 660.168992 54.390886 
L 660.313323 58.879052 
L 661.1312 59.900064 
L 661.852856 60.410356 
L 662.815065 60.797094 
L 664.114046 61.063313 
L 666.134683 61.22673 
L 670.079737 61.277663 
L 672.244706 61.38757 
L 673.736129 61.726374 
L 675.419993 62.319405 
L 677.151968 63.16493 
L 679.124495 64.387907 
L 681.337574 65.782144 
L 683.743095 65.782144 
L 684.031757 67.158112 
L 685.138297 67.17797 
L 695.530146 67.250831 
L 695.722588 227.361192 
L 695.915029 237.045556 
L 696.155581 239.430197 
L 696.444244 240.343373 
L 696.829127 240.841963 
L 697.358342 241.150673 
L 698.224329 241.37527 
L 699.908194 241.541709 
L 703.708916 241.643947 
L 707.317197 241.653166 
L 707.461529 245.656512 
L 708.327516 245.979919 
L 709.674608 246.101787 
L 713.667772 246.170601 
L 719.104249 246.180004 
L 719.24858 246.399412 
L 727.37924 246.575997 
L 778.039506 247.011391 
L 778.183837 247.731236 
L 779.579039 247.867028 
L 784.29386 247.913637 
L 817.826818 247.948553 
L 817.826818 247.948553 
" clip-path="url(#p9edec25e1f)" style="fill: none; stroke: #0000ff; stroke-width: 1.5; stroke-linecap: square"/>
   </g>
   <g id="line2d_28">
    <path d="M 110.363182 227.687319 
L 223.855648 227.727663 
L 223.999979 237.58572 
L 224.336752 240.553017 
L 224.625415 241.311578 
L 225.010298 241.702694 
L 225.587623 241.94987 
L 226.694163 242.137647 
L 229.147794 242.276859 
L 235.065375 242.353417 
L 235.6427 242.353417 
L 235.787031 246.247677 
L 236.653018 246.558553 
L 238.00011 246.68376 
L 241.897053 246.75537 
L 247.429751 246.765621 
L 247.574082 246.963562 
L 251.519136 247.068825 
L 268.838885 247.153082 
L 285.052095 247.264152 
L 306.365008 247.335819 
L 306.509339 247.761655 
L 308.145093 247.881987 
L 314.447558 247.920888 
L 346.15232 247.951881 
L 346.296652 227.687319 
L 459.692897 227.727622 
L 459.837228 237.582772 
L 460.174001 240.554547 
L 460.462664 241.314957 
L 460.847547 241.707138 
L 461.424872 241.955002 
L 462.531412 242.143251 
L 464.985043 242.2826 
L 470.902624 242.358809 
L 471.479949 242.358809 
L 471.62428 246.244226 
L 472.490267 246.557587 
L 473.837359 246.683843 
L 477.686192 246.7558 
L 483.267 246.766471 
L 483.411331 246.96244 
L 487.356385 247.068863 
L 504.387472 247.15412 
L 520.889344 247.265157 
L 542.202257 247.335907 
L 542.346588 247.763627 
L 543.982342 247.884521 
L 550.236696 247.923656 
L 581.989569 247.952724 
L 582.1339 37.407273 
L 587.233604 37.517599 
L 595.219933 37.581686 
L 626.636033 37.764412 
L 627.838794 38.083419 
L 628.945333 38.6163 
L 630.003762 39.369675 
L 631.158412 40.469716 
L 632.601725 42.157426 
L 634.141258 43.967053 
L 636.594889 43.967053 
L 636.73922 46.833862 
L 637.508987 47.371468 
L 638.471195 47.754915 
L 639.866397 48.052321 
L 642.079476 48.262004 
L 645.880199 48.3522 
L 648.670603 48.456884 
L 651.220455 49.732198 
L 653.241092 50.932279 
L 655.406061 52.488561 
L 657.763471 54.173305 
L 660.168992 54.173305 
L 660.313323 58.717576 
L 661.179311 59.78718 
L 661.949077 60.306902 
L 662.959396 60.684804 
L 664.306487 60.936187 
L 666.375235 61.084115 
L 670.657062 61.12614 
L 672.244706 61.233484 
L 673.688018 61.56069 
L 675.419993 62.163741 
L 677.055747 62.95058 
L 678.883943 64.056027 
L 681.337574 65.590738 
L 683.743095 65.590738 
L 684.031757 66.931217 
L 685.186407 66.950786 
L 695.530146 67.024596 
L 695.722588 227.358921 
L 695.915029 237.045087 
L 696.155581 239.430107 
L 696.444244 240.343079 
L 696.829127 240.84183 
L 697.358342 241.150461 
L 698.27244 241.383039 
L 700.004415 241.54684 
L 703.949468 241.646256 
L 707.317197 241.652833 
L 707.461529 245.656424 
L 708.327516 245.979874 
L 709.674608 246.10174 
L 713.667772 246.170548 
L 719.104249 246.179942 
L 719.24858 246.399322 
L 727.37924 246.575907 
L 778.039506 247.011322 
L 778.183837 247.731206 
L 779.579039 247.867011 
L 784.29386 247.913624 
L 817.826818 247.948545 
L 817.826818 247.948545 
" clip-path="url(#p9edec25e1f)" style="fill: none; stroke-dasharray: 5.55,2.4; stroke-dashoffset: 0; stroke: #ff0000; stroke-width: 1.5"/>
   </g>
   <g id="line2d_29">
    <path d="M 346.200431 258.48 
L 346.200431 26.88 
" clip-path="url(#p9edec25e1f)" style="fill: none; stroke-dasharray: 1.5,2.475; stroke-dashoffset: 0; stroke: #808080; stroke-opacity: 0.6; stroke-width: 1.5"/>
   </g>
   <g id="line2d_30">
    <path d="M 582.03768 258.48 
L 582.03768 26.88 
" clip-path="url(#p9edec25e1f)" style="fill: none; stroke-dasharray: 1.5,2.475; stroke-dashoffset: 0; stroke: #808080; stroke-opacity: 0.6; stroke-width: 1.5"/>
   </g>
   <g id="patch_3">
    <path d="M 74.99 258.48 
L 74.99 26.88 
" style="fill: none; stroke: #000000; stroke-width: 0.8; stroke-linejoin: miter; stroke-linecap: square"/>
   </g>
   <g id="patch_4">
    <path d="M 853.2 258.48 
L 853.2 26.88 
" style="fill: none; stroke: #000000; stroke-width: 0.8; stroke-linejoin: miter; stroke-linecap: square"/>
   </g>
   <g id="patch_5">
    <path d="M 74.99 258.48 
L 853.2 258.48 
" style="fill: none; stroke: #000000; stroke-width: 0.8; stroke-linejoin: miter; stroke-linecap: square"/>
   </g>
   <g id="patch_6">
    <path d="M 74.99 26.88 
L 853.2 26.88 
" style="fill: none; stroke: #000000; stroke-width: 0.8; stroke-linejoin: miter; stroke-linecap: square"/>
   </g>
   <g id="text_15">
    <!-- [14] Kg_zx  —  Uncertainty (std dev) -->
    <g transform="translate(354.911875 20.88) scale(0.12 -0.12)">
     <defs>
      <path id="DejaVuSans-5b" d="M 550 4863 
L 1875 4863 
L 1875 4416 
L 1125 4416 
L 1125 -397 
L 1875 -397 
L 1875 -844 
L 550 -844 
L 550 4863 
z
" transform="scale(0.015625)"/>
      <path id="DejaVuSans-5d" d="M 1947 4863 
L 1947 -844 
L 622 -844 
L 622 -397 
L 1369 -397 
L 1369 4416 
L 622 4416 
L 622 4863 
L 1947 4863 
z
" transform="scale(0.015625)"/>
      <path id="DejaVuSans-4b" d="M 628 4666 
L 1259 4666 
L 1259 2694 
L 3353 4666 
L 4166 4666 
L 1850 2491 
L 4331 0 
L 3500 0 
L 1259 2247 
L 1259 0 
L 628 0 
L 628 4666 
z
" transform="scale(0.015625)"/>
      <path id="DejaVuSans-67" d="M 2906 1791 
Q 2906 2416 2648 2759 
Q 2391 3103 1925 3103 
Q 1463 3103 1205 2759 
Q 947 2416 947 1791 
Q 947 1169 1205 825 
Q 1463 481 1925 481 
Q 2391 481 2648 825 
Q 2906 1169 2906 1791 
z
M 3481 434 
Q 3481 -459 3084 -895 
Q 2688 -1331 1869 -1331 
Q 1566 -1331 1297 -1286 
Q 1028 -1241 775 -1147 
L 775 -588 
Q 1028 -725 1275 -790 
Q 1522 -856 1778 -856 
Q 2344 -856 2625 -561 
Q 2906 -266 2906 331 
L 2906 616 
Q 2728 306 2450 153 
Q 2172 0 1784 0 
Q 1141 0 747 490 
Q 353 981 353 1791 
Q 353 2603 747 3093 
Q 1141 3584 1784 3584 
Q 2172 3584 2450 3431 
Q 2728 3278 2906 2969 
L 2906 3500 
L 3481 3500 
L 3481 434 
z
" transform="scale(0.015625)"/>
      <path id="DejaVuSans-5f" d="M 3263 -1063 
L 3263 -1509 
L -63 -1509 
L -63 -1063 
L 3263 -1063 
z
" transform="scale(0.015625)"/>
      <path id="DejaVuSans-7a" d="M 353 3500 
L 3084 3500 
L 3084 2975 
L 922 459 
L 3084 459 
L 3084 0 
L 275 0 
L 275 525 
L 2438 3041 
L 353 3041 
L 353 3500 
z
" transform="scale(0.015625)"/>
      <path id="DejaVuSans-78" d="M 3513 3500 
L 2247 1797 
L 3578 0 
L 2900 0 
L 1881 1375 
L 863 0 
L 184 0 
L 1544 1831 
L 300 3500 
L 978 3500 
L 1906 2253 
L 2834 3500 
L 3513 3500 
z
" transform="scale(0.015625)"/>
      <path id="DejaVuSans-2014" d="M 313 1978 
L 6088 1978 
L 6088 1528 
L 313 1528 
L 313 1978 
z
" transform="scale(0.015625)"/>
      <path id="DejaVuSans-55" d="M 556 4666 
L 1191 4666 
L 1191 1831 
Q 1191 1081 1462 751 
Q 1734 422 2344 422 
Q 2950 422 3222 751 
Q 3494 1081 3494 1831 
L 3494 4666 
L 4128 4666 
L 4128 1753 
Q 4128 841 3676 375 
Q 3225 -91 2344 -91 
Q 1459 -91 1007 375 
Q 556 841 556 1753 
L 556 4666 
z
" transform="scale(0.015625)"/>
      <path id="DejaVuSans-6e" d="M 3513 2113 
L 3513 0 
L 2938 0 
L 2938 2094 
Q 2938 2591 2744 2837 
Q 2550 3084 2163 3084 
Q 1697 3084 1428 2787 
Q 1159 2491 1159 1978 
L 1159 0 
L 581 0 
L 581 3500 
L 1159 3500 
L 1159 2956 
Q 1366 3272 1645 3428 
Q 1925 3584 2291 3584 
Q 2894 3584 3203 3211 
Q 3513 2838 3513 2113 
z
" transform="scale(0.015625)"/>
      <path id="DejaVuSans-63" d="M 3122 3366 
L 3122 2828 
Q 2878 2963 2633 3030 
Q 2388 3097 2138 3097 
Q 1578 3097 1268 2742 
Q 959 2388 959 1747 
Q 959 1106 1268 751 
Q 1578 397 2138 397 
Q 2388 397 2633 464 
Q 2878 531 3122 666 
L 3122 134 
Q 2881 22 2623 -34 
Q 2366 -91 2075 -91 
Q 1284 -91 818 406 
Q 353 903 353 1747 
Q 353 2603 823 3093 
Q 1294 3584 2113 3584 
Q 2378 3584 2631 3529 
Q 2884 3475 3122 3366 
z
" transform="scale(0.015625)"/>
      <path id="DejaVuSans-72" d="M 2631 2963 
Q 2534 3019 2420 3045 
Q 2306 3072 2169 3072 
Q 1681 3072 1420 2755 
Q 1159 2438 1159 1844 
L 1159 0 
L 581 0 
L 581 3500 
L 1159 3500 
L 1159 2956 
Q 1341 3275 1631 3429 
Q 1922 3584 2338 3584 
Q 2397 3584 2469 3576 
Q 2541 3569 2628 3553 
L 2631 2963 
z
" transform="scale(0.015625)"/>
      <path id="DejaVuSans-61" d="M 2194 1759 
Q 1497 1759 1228 1600 
Q 959 1441 959 1056 
Q 959 750 1161 570 
Q 1363 391 1709 391 
Q 2188 391 2477 730 
Q 2766 1069 2766 1631 
L 2766 1759 
L 2194 1759 
z
M 3341 1997 
L 3341 0 
L 2766 0 
L 2766 531 
Q 2569 213 2275 61 
Q 1981 -91 1556 -91 
Q 1019 -91 701 211 
Q 384 513 384 1019 
Q 384 1609 779 1909 
Q 1175 2209 1959 2209 
L 2766 2209 
L 2766 2266 
Q 2766 2663 2505 2880 
Q 2244 3097 1772 3097 
Q 1472 3097 1187 3025 
Q 903 2953 641 2809 
L 641 3341 
Q 956 3463 1253 3523 
Q 1550 3584 1831 3584 
Q 2591 3584 2966 3190 
Q 3341 2797 3341 1997 
z
" transform="scale(0.015625)"/>
      <path id="DejaVuSans-69" d="M 603 3500 
L 1178 3500 
L 1178 0 
L 603 0 
L 603 3500 
z
M 603 4863 
L 1178 4863 
L 1178 4134 
L 603 4134 
L 603 4863 
z
" transform="scale(0.015625)"/>
      <path id="DejaVuSans-79" d="M 2059 -325 
Q 1816 -950 1584 -1140 
Q 1353 -1331 966 -1331 
L 506 -1331 
L 506 -850 
L 844 -850 
Q 1081 -850 1212 -737 
Q 1344 -625 1503 -206 
L 1606 56 
L 191 3500 
L 800 3500 
L 1894 763 
L 2988 3500 
L 3597 3500 
L 2059 -325 
z
" transform="scale(0.015625)"/>
      <path id="DejaVuSans-28" d="M 1984 4856 
Q 1566 4138 1362 3434 
Q 1159 2731 1159 2009 
Q 1159 1288 1364 580 
Q 1569 -128 1984 -844 
L 1484 -844 
Q 1016 -109 783 600 
Q 550 1309 550 2009 
Q 550 2706 781 3412 
Q 1013 4119 1484 4856 
L 1984 4856 
z
" transform="scale(0.015625)"/>
      <path id="DejaVuSans-73" d="M 2834 3397 
L 2834 2853 
Q 2591 2978 2328 3040 
Q 2066 3103 1784 3103 
Q 1356 3103 1142 2972 
Q 928 2841 928 2578 
Q 928 2378 1081 2264 
Q 1234 2150 1697 2047 
L 1894 2003 
Q 2506 1872 2764 1633 
Q 3022 1394 3022 966 
Q 3022 478 2636 193 
Q 2250 -91 1575 -91 
Q 1294 -91 989 -36 
Q 684 19 347 128 
L 347 722 
Q 666 556 975 473 
Q 1284 391 1588 391 
Q 1994 391 2212 530 
Q 2431 669 2431 922 
Q 2431 1156 2273 1281 
Q 2116 1406 1581 1522 
L 1381 1569 
Q 847 1681 609 1914 
Q 372 2147 372 2553 
Q 372 3047 722 3315 
Q 1072 3584 1716 3584 
Q 2034 3584 2315 3537 
Q 2597 3491 2834 3397 
z
" transform="scale(0.015625)"/>
      <path id="DejaVuSans-29" d="M 513 4856 
L 1013 4856 
Q 1481 4119 1714 3412 
Q 1947 2706 1947 2009 
Q 1947 1309 1714 600 
Q 1481 -109 1013 -844 
L 513 -844 
Q 928 -128 1133 580 
Q 1338 1288 1338 2009 
Q 1338 2731 1133 3434 
Q 928 4138 513 4856 
z
" transform="scale(0.015625)"/>
     </defs>
     <use xlink:href="#DejaVuSans-5b"/>
     <use xlink:href="#DejaVuSans-31" transform="translate(39.013672 0)"/>
     <use xlink:href="#DejaVuSans-34" transform="translate(102.636719 0)"/>
     <use xlink:href="#DejaVuSans-5d" transform="translate(166.259766 0)"/>
     <use xlink:href="#DejaVuSans-20" transform="translate(205.273438 0)"/>
     <use xlink:href="#DejaVuSans-4b" transform="translate(237.060547 0)"/>
     <use xlink:href="#DejaVuSans-67" transform="translate(302.636719 0)"/>
     <use xlink:href="#DejaVuSans-5f" transform="translate(366.113281 0)"/>
     <use xlink:href="#DejaVuSans-7a" transform="translate(416.113281 0)"/>
     <use xlink:href="#DejaVuSans-78" transform="translate(468.603516 0)"/>
     <use xlink:href="#DejaVuSans-20" transform="translate(527.783203 0)"/>
     <use xlink:href="#DejaVuSans-20" transform="translate(559.570312 0)"/>
     <use xlink:href="#DejaVuSans-2014" transform="translate(591.357422 0)"/>
     <use xlink:href="#DejaVuSans-20" transform="translate(691.357422 0)"/>
     <use xlink:href="#DejaVuSans-20" transform="translate(723.144531 0)"/>
     <use xlink:href="#DejaVuSans-55" transform="translate(754.931641 0)"/>
     <use xlink:href="#DejaVuSans-6e" transform="translate(828.125 0)"/>
     <use xlink:href="#DejaVuSans-63" transform="translate(891.503906 0)"/>
     <use xlink:href="#DejaVuSans-65" transform="translate(946.484375 0)"/>
     <use xlink:href="#DejaVuSans-72" transform="translate(1008.007812 0)"/>
     <use xlink:href="#DejaVuSans-74" transform="translate(1049.121094 0)"/>
     <use xlink:href="#DejaVuSans-61" transform="translate(1088.330078 0)"/>
     <use xlink:href="#DejaVuSans-69" transform="translate(1149.609375 0)"/>
     <use xlink:href="#DejaVuSans-6e" transform="translate(1177.392578 0)"/>
     <use xlink:href="#DejaVuSans-74" transform="translate(1240.771484 0)"/>
     <use xlink:href="#DejaVuSans-79" transform="translate(1279.980469 0)"/>
     <use xlink:href="#DejaVuSans-20" transform="translate(1339.160156 0)"/>
     <use xlink:href="#DejaVuSans-28" transform="translate(1370.947266 0)"/>
     <use xlink:href="#DejaVuSans-73" transform="translate(1409.960938 0)"/>
     <use xlink:href="#DejaVuSans-74" transform="translate(1462.060547 0)"/>
     <use xlink:href="#DejaVuSans-64" transform="translate(1501.269531 0)"/>
     <use xlink:href="#DejaVuSans-20" transform="translate(1564.746094 0)"/>
     <use xlink:href="#DejaVuSans-64" transform="translate(1596.533203 0)"/>
     <use xlink:href="#DejaVuSans-65" transform="translate(1660.009766 0)"/>
     <use xlink:href="#DejaVuSans-76" transform="translate(1721.533203 0)"/>
     <use xlink:href="#DejaVuSans-29" transform="translate(1780.712891 0)"/>
    </g>
   </g>
   <g id="legend_1">
    <g id="patch_7">
     <path d="M 734.342188 64.23625 
L 846.2 64.23625 
Q 848.2 64.23625 848.2 62.23625 
L 848.2 33.88 
Q 848.2 31.88 846.2 31.88 
L 734.342188 31.88 
Q 732.342188 31.88 732.342188 33.88 
L 732.342188 62.23625 
Q 732.342188 64.23625 734.342188 64.23625 
z
" style="fill: #ffffff; opacity: 0.8; stroke: #cccccc; stroke-linejoin: miter"/>
    </g>
    <g id="line2d_31">
     <path d="M 736.342188 39.978437 
L 746.342188 39.978437 
L 756.342188 39.978437 
" style="fill: none; stroke: #0000ff; stroke-width: 1.5; stroke-linecap: square"/>
    </g>
    <g id="text_16">
     <!-- Ideal (No Noise) -->
     <g transform="translate(764.342188 43.478437) scale(0.1 -0.1)">
      <defs>
       <path id="DejaVuSans-49" d="M 628 4666 
L 1259 4666 
L 1259 0 
L 628 0 
L 628 4666 
z
" transform="scale(0.015625)"/>
       <path id="DejaVuSans-6c" d="M 603 4863 
L 1178 4863 
L 1178 0 
L 603 0 
L 603 4863 
z
" transform="scale(0.015625)"/>
       <path id="DejaVuSans-4e" d="M 628 4666 
L 1478 4666 
L 3547 763 
L 3547 4666 
L 4159 4666 
L 4159 0 
L 3309 0 
L 1241 3903 
L 1241 0 
L 628 0 
L 628 4666 
z
" transform="scale(0.015625)"/>
       <path id="DejaVuSans-6f" d="M 1959 3097 
Q 1497 3097 1228 2736 
Q 959 2375 959 1747 
Q 959 1119 1226 758 
Q 1494 397 1959 397 
Q 2419 397 2687 759 
Q 2956 1122 2956 1747 
Q 2956 2369 2687 2733 
Q 2419 3097 1959 3097 
z
M 1959 3584 
Q 2709 3584 3137 3096 
Q 3566 2609 3566 1747 
Q 3566 888 3137 398 
Q 2709 -91 1959 -91 
Q 1206 -91 779 398 
Q 353 888 353 1747 
Q 353 2609 779 3096 
Q 1206 3584 1959 3584 
z
" transform="scale(0.015625)"/>
      </defs>
      <use xlink:href="#DejaVuSans-49"/>
      <use xlink:href="#DejaVuSans-64" transform="translate(29.492188 0)"/>
      <use xlink:href="#DejaVuSans-65" transform="translate(92.96875 0)"/>
      <use xlink:href="#DejaVuSans-61" transform="translate(154.492188 0)"/>
      <use xlink:href="#DejaVuSans-6c" transform="translate(215.771484 0)"/>
      <use xlink:href="#DejaVuSans-20" transform="translate(243.554688 0)"/>
      <use xlink:href="#DejaVuSans-28" transform="translate(275.341797 0)"/>
      <use xlink:href="#DejaVuSans-4e" transform="translate(314.355469 0)"/>
      <use xlink:href="#DejaVuSans-6f" transform="translate(389.160156 0)"/>
      <use xlink:href="#DejaVuSans-20" transform="translate(450.341797 0)"/>
      <use xlink:href="#DejaVuSans-4e" transform="translate(482.128906 0)"/>
      <use xlink:href="#DejaVuSans-6f" transform="translate(556.933594 0)"/>
      <use xlink:href="#DejaVuSans-69" transform="translate(618.115234 0)"/>
      <use xlink:href="#DejaVuSans-73" transform="translate(645.898438 0)"/>
      <use xlink:href="#DejaVuSans-65" transform="translate(697.998047 0)"/>
      <use xlink:href="#DejaVuSans-29" transform="translate(759.521484 0)"/>
     </g>
    </g>
    <g id="line2d_32">
     <path d="M 736.342188 54.656562 
L 746.342188 54.656562 
L 756.342188 54.656562 
" style="fill: none; stroke-dasharray: 5.55,2.4; stroke-dashoffset: 0; stroke: #ff0000; stroke-width: 1.5"/>
    </g>
    <g id="text_17">
     <!-- With Full Noise -->
     <g transform="translate(764.342188 58.156562) scale(0.1 -0.1)">
      <defs>
       <path id="DejaVuSans-57" d="M 213 4666 
L 850 4666 
L 1831 722 
L 2809 4666 
L 3519 4666 
L 4500 722 
L 5478 4666 
L 6119 4666 
L 4947 0 
L 4153 0 
L 3169 4050 
L 2175 0 
L 1381 0 
L 213 4666 
z
" transform="scale(0.015625)"/>
       <path id="DejaVuSans-68" d="M 3513 2113 
L 3513 0 
L 2938 0 
L 2938 2094 
Q 2938 2591 2744 2837 
Q 2550 3084 2163 3084 
Q 1697 3084 1428 2787 
Q 1159 2491 1159 1978 
L 1159 0 
L 581 0 
L 581 4863 
L 1159 4863 
L 1159 2956 
Q 1366 3272 1645 3428 
Q 1925 3584 2291 3584 
Q 2894 3584 3203 3211 
Q 3513 2838 3513 2113 
z
" transform="scale(0.015625)"/>
       <path id="DejaVuSans-46" d="M 628 4666 
L 3309 4666 
L 3309 4134 
L 1259 4134 
L 1259 2759 
L 3109 2759 
L 3109 2228 
L 1259 2228 
L 1259 0 
L 628 0 
L 628 4666 
z
" transform="scale(0.015625)"/>
       <path id="DejaVuSans-75" d="M 544 1381 
L 544 3500 
L 1119 3500 
L 1119 1403 
Q 1119 906 1312 657 
Q 1506 409 1894 409 
Q 2359 409 2629 706 
Q 2900 1003 2900 1516 
L 2900 3500 
L 3475 3500 
L 3475 0 
L 2900 0 
L 2900 538 
Q 2691 219 2414 64 
Q 2138 -91 1772 -91 
Q 1169 -91 856 284 
Q 544 659 544 1381 
z
M 1991 3584 
L 1991 3584 
z
" transform="scale(0.015625)"/>
      </defs>
      <use xlink:href="#DejaVuSans-57"/>
      <use xlink:href="#DejaVuSans-69" transform="translate(96.626953 0)"/>
      <use xlink:href="#DejaVuSans-74" transform="translate(124.410156 0)"/>
      <use xlink:href="#DejaVuSans-68" transform="translate(163.619141 0)"/>
      <use xlink:href="#DejaVuSans-20" transform="translate(226.998047 0)"/>
      <use xlink:href="#DejaVuSans-46" transform="translate(258.785156 0)"/>
      <use xlink:href="#DejaVuSans-75" transform="translate(310.804688 0)"/>
      <use xlink:href="#DejaVuSans-6c" transform="translate(374.183594 0)"/>
      <use xlink:href="#DejaVuSans-6c" transform="translate(401.966797 0)"/>
      <use xlink:href="#DejaVuSans-20" transform="translate(429.75 0)"/>
      <use xlink:href="#DejaVuSans-4e" transform="translate(461.537109 0)"/>
      <use xlink:href="#DejaVuSans-6f" transform="translate(536.341797 0)"/>
      <use xlink:href="#DejaVuSans-69" transform="translate(597.523438 0)"/>
      <use xlink:href="#DejaVuSans-73" transform="translate(625.306641 0)"/>
      <use xlink:href="#DejaVuSans-65" transform="translate(677.40625 0)"/>
     </g>
    </g>
   </g>
  </g>
  <g id="axes_2">
   <g id="patch_8">
    <path d="M 74.99 534.04 
L 853.2 534.04 
L 853.2 302.44 
L 74.99 302.44 
z
" style="fill: #ffffff"/>
   </g>
   <g id="matplotlib.axis_3">
    <g id="xtick_8">
     <g id="line2d_33">
      <path d="M 110.363182 534.04 
L 110.363182 302.44 
" clip-path="url(#p49bc19eca0)" style="fill: none; stroke: #b0b0b0; stroke-width: 0.8; stroke-linecap: square"/>
     </g>
     <g id="line2d_34">
      <g>
       <use xlink:href="#m3a3a88ea3d" x="110.363182" y="534.04" style="stroke: #000000; stroke-width: 0.8"/>
      </g>
     </g>
     <g id="text_18">
      <!-- 0 -->
      <g transform="translate(107.181932 548.638438) scale(0.1 -0.1)">
       <use xlink:href="#DejaVuSans-30"/>
      </g>
     </g>
    </g>
    <g id="xtick_9">
     <g id="line2d_35">
      <path d="M 230.639217 534.04 
L 230.639217 302.44 
" clip-path="url(#p49bc19eca0)" style="fill: none; stroke: #b0b0b0; stroke-width: 0.8; stroke-linecap: square"/>
     </g>
     <g id="line2d_36">
      <g>
       <use xlink:href="#m3a3a88ea3d" x="230.639217" y="534.04" style="stroke: #000000; stroke-width: 0.8"/>
      </g>
     </g>
     <g id="text_19">
      <!-- 50 -->
      <g transform="translate(224.276717 548.638438) scale(0.1 -0.1)">
       <use xlink:href="#DejaVuSans-35"/>
       <use xlink:href="#DejaVuSans-30" transform="translate(63.623047 0)"/>
      </g>
     </g>
    </g>
    <g id="xtick_10">
     <g id="line2d_37">
      <path d="M 350.915251 534.04 
L 350.915251 302.44 
" clip-path="url(#p49bc19eca0)" style="fill: none; stroke: #b0b0b0; stroke-width: 0.8; stroke-linecap: square"/>
     </g>
     <g id="line2d_38">
      <g>
       <use xlink:href="#m3a3a88ea3d" x="350.915251" y="534.04" style="stroke: #000000; stroke-width: 0.8"/>
      </g>
     </g>
     <g id="text_20">
      <!-- 100 -->
      <g transform="translate(341.371501 548.638438) scale(0.1 -0.1)">
       <use xlink:href="#DejaVuSans-31"/>
       <use xlink:href="#DejaVuSans-30" transform="translate(63.623047 0)"/>
       <use xlink:href="#DejaVuSans-30" transform="translate(127.246094 0)"/>
      </g>
     </g>
    </g>
    <g id="xtick_11">
     <g id="line2d_39">
      <path d="M 471.191286 534.04 
L 471.191286 302.44 
" clip-path="url(#p49bc19eca0)" style="fill: none; stroke: #b0b0b0; stroke-width: 0.8; stroke-linecap: square"/>
     </g>
     <g id="line2d_40">
      <g>
       <use xlink:href="#m3a3a88ea3d" x="471.191286" y="534.04" style="stroke: #000000; stroke-width: 0.8"/>
      </g>
     </g>
     <g id="text_21">
      <!-- 150 -->
      <g transform="translate(461.647536 548.638438) scale(0.1 -0.1)">
       <use xlink:href="#DejaVuSans-31"/>
       <use xlink:href="#DejaVuSans-35" transform="translate(63.623047 0)"/>
       <use xlink:href="#DejaVuSans-30" transform="translate(127.246094 0)"/>
      </g>
     </g>
    </g>
    <g id="xtick_12">
     <g id="line2d_41">
      <path d="M 591.467321 534.04 
L 591.467321 302.44 
" clip-path="url(#p49bc19eca0)" style="fill: none; stroke: #b0b0b0; stroke-width: 0.8; stroke-linecap: square"/>
     </g>
     <g id="line2d_42">
      <g>
       <use xlink:href="#m3a3a88ea3d" x="591.467321" y="534.04" style="stroke: #000000; stroke-width: 0.8"/>
      </g>
     </g>
     <g id="text_22">
      <!-- 200 -->
      <g transform="translate(581.923571 548.638438) scale(0.1 -0.1)">
       <use xlink:href="#DejaVuSans-32"/>
       <use xlink:href="#DejaVuSans-30" transform="translate(63.623047 0)"/>
       <use xlink:href="#DejaVuSans-30" transform="translate(127.246094 0)"/>
      </g>
     </g>
    </g>
    <g id="xtick_13">
     <g id="line2d_43">
      <path d="M 711.743356 534.04 
L 711.743356 302.44 
" clip-path="url(#p49bc19eca0)" style="fill: none; stroke: #b0b0b0; stroke-width: 0.8; stroke-linecap: square"/>
     </g>
     <g id="line2d_44">
      <g>
       <use xlink:href="#m3a3a88ea3d" x="711.743356" y="534.04" style="stroke: #000000; stroke-width: 0.8"/>
      </g>
     </g>
     <g id="text_23">
      <!-- 250 -->
      <g transform="translate(702.199606 548.638438) scale(0.1 -0.1)">
       <use xlink:href="#DejaVuSans-32"/>
       <use xlink:href="#DejaVuSans-35" transform="translate(63.623047 0)"/>
       <use xlink:href="#DejaVuSans-30" transform="translate(127.246094 0)"/>
      </g>
     </g>
    </g>
    <g id="xtick_14">
     <g id="line2d_45">
      <path d="M 832.01939 534.04 
L 832.01939 302.44 
" clip-path="url(#p49bc19eca0)" style="fill: none; stroke: #b0b0b0; stroke-width: 0.8; stroke-linecap: square"/>
     </g>
     <g id="line2d_46">
      <g>
       <use xlink:href="#m3a3a88ea3d" x="832.01939" y="534.04" style="stroke: #000000; stroke-width: 0.8"/>
      </g>
     </g>
     <g id="text_24">
      <!-- 300 -->
      <g transform="translate(822.47564 548.638438) scale(0.1 -0.1)">
       <use xlink:href="#DejaVuSans-33"/>
       <use xlink:href="#DejaVuSans-30" transform="translate(63.623047 0)"/>
       <use xlink:href="#DejaVuSans-30" transform="translate(127.246094 0)"/>
      </g>
     </g>
    </g>
    <g id="text_25">
     <!-- Time (s) -->
     <g transform="translate(443.766094 562.316562) scale(0.1 -0.1)">
      <defs>
       <path id="DejaVuSans-54" d="M -19 4666 
L 3928 4666 
L 3928 4134 
L 2272 4134 
L 2272 0 
L 1638 0 
L 1638 4134 
L -19 4134 
L -19 4666 
z
" transform="scale(0.015625)"/>
       <path id="DejaVuSans-6d" d="M 3328 2828 
Q 3544 3216 3844 3400 
Q 4144 3584 4550 3584 
Q 5097 3584 5394 3201 
Q 5691 2819 5691 2113 
L 5691 0 
L 5113 0 
L 5113 2094 
Q 5113 2597 4934 2840 
Q 4756 3084 4391 3084 
Q 3944 3084 3684 2787 
Q 3425 2491 3425 1978 
L 3425 0 
L 2847 0 
L 2847 2094 
Q 2847 2600 2669 2842 
Q 2491 3084 2119 3084 
Q 1678 3084 1418 2786 
Q 1159 2488 1159 1978 
L 1159 0 
L 581 0 
L 581 3500 
L 1159 3500 
L 1159 2956 
Q 1356 3278 1631 3431 
Q 1906 3584 2284 3584 
Q 2666 3584 2933 3390 
Q 3200 3197 3328 2828 
z
" transform="scale(0.015625)"/>
      </defs>
      <use xlink:href="#DejaVuSans-54"/>
      <use xlink:href="#DejaVuSans-69" transform="translate(57.958984 0)"/>
      <use xlink:href="#DejaVuSans-6d" transform="translate(85.742188 0)"/>
      <use xlink:href="#DejaVuSans-65" transform="translate(183.154297 0)"/>
      <use xlink:href="#DejaVuSans-20" transform="translate(244.677734 0)"/>
      <use xlink:href="#DejaVuSans-28" transform="translate(276.464844 0)"/>
      <use xlink:href="#DejaVuSans-73" transform="translate(315.478516 0)"/>
      <use xlink:href="#DejaVuSans-29" transform="translate(367.578125 0)"/>
     </g>
    </g>
   </g>
   <g id="matplotlib.axis_4">
    <g id="ytick_7">
     <g id="line2d_47">
      <path d="M 74.99 520.205888 
L 853.2 520.205888 
" clip-path="url(#p49bc19eca0)" style="fill: none; stroke: #b0b0b0; stroke-width: 0.8; stroke-linecap: square"/>
     </g>
     <g id="line2d_48">
      <g>
       <use xlink:href="#mbb1b344a23" x="74.99" y="520.205888" style="stroke: #000000; stroke-width: 0.8"/>
      </g>
     </g>
     <g id="text_26">
      <!-- −0.0030 -->
      <g transform="translate(24.619687 524.005107) scale(0.1 -0.1)">
       <defs>
        <path id="DejaVuSans-2212" d="M 678 2272 
L 4684 2272 
L 4684 1741 
L 678 1741 
L 678 2272 
z
" transform="scale(0.015625)"/>
       </defs>
       <use xlink:href="#DejaVuSans-2212"/>
       <use xlink:href="#DejaVuSans-30" transform="translate(83.789062 0)"/>
       <use xlink:href="#DejaVuSans-2e" transform="translate(147.412109 0)"/>
       <use xlink:href="#DejaVuSans-30" transform="translate(179.199219 0)"/>
       <use xlink:href="#DejaVuSans-30" transform="translate(242.822266 0)"/>
       <use xlink:href="#DejaVuSans-33" transform="translate(306.445312 0)"/>
       <use xlink:href="#DejaVuSans-30" transform="translate(370.068359 0)"/>
      </g>
     </g>
    </g>
    <g id="ytick_8">
     <g id="line2d_49">
      <path d="M 74.99 488.668561 
L 853.2 488.668561 
" clip-path="url(#p49bc19eca0)" style="fill: none; stroke: #b0b0b0; stroke-width: 0.8; stroke-linecap: square"/>
     </g>
     <g id="line2d_50">
      <g>
       <use xlink:href="#mbb1b344a23" x="74.99" y="488.668561" style="stroke: #000000; stroke-width: 0.8"/>
      </g>
     </g>
     <g id="text_27">
      <!-- −0.0025 -->
      <g transform="translate(24.619687 492.46778) scale(0.1 -0.1)">
       <use xlink:href="#DejaVuSans-2212"/>
       <use xlink:href="#DejaVuSans-30" transform="translate(83.789062 0)"/>
       <use xlink:href="#DejaVuSans-2e" transform="translate(147.412109 0)"/>
       <use xlink:href="#DejaVuSans-30" transform="translate(179.199219 0)"/>
       <use xlink:href="#DejaVuSans-30" transform="translate(242.822266 0)"/>
       <use xlink:href="#DejaVuSans-32" transform="translate(306.445312 0)"/>
       <use xlink:href="#DejaVuSans-35" transform="translate(370.068359 0)"/>
      </g>
     </g>
    </g>
    <g id="ytick_9">
     <g id="line2d_51">
      <path d="M 74.99 457.131233 
L 853.2 457.131233 
" clip-path="url(#p49bc19eca0)" style="fill: none; stroke: #b0b0b0; stroke-width: 0.8; stroke-linecap: square"/>
     </g>
     <g id="line2d_52">
      <g>
       <use xlink:href="#mbb1b344a23" x="74.99" y="457.131233" style="stroke: #000000; stroke-width: 0.8"/>
      </g>
     </g>
     <g id="text_28">
      <!-- −0.0020 -->
      <g transform="translate(24.619687 460.930452) scale(0.1 -0.1)">
       <use xlink:href="#DejaVuSans-2212"/>
       <use xlink:href="#DejaVuSans-30" transform="translate(83.789062 0)"/>
       <use xlink:href="#DejaVuSans-2e" transform="translate(147.412109 0)"/>
       <use xlink:href="#DejaVuSans-30" transform="translate(179.199219 0)"/>
       <use xlink:href="#DejaVuSans-30" transform="translate(242.822266 0)"/>
       <use xlink:href="#DejaVuSans-32" transform="translate(306.445312 0)"/>
       <use xlink:href="#DejaVuSans-30" transform="translate(370.068359 0)"/>
      </g>
     </g>
    </g>
    <g id="ytick_10">
     <g id="line2d_53">
      <path d="M 74.99 425.593906 
L 853.2 425.593906 
" clip-path="url(#p49bc19eca0)" style="fill: none; stroke: #b0b0b0; stroke-width: 0.8; stroke-linecap: square"/>
     </g>
     <g id="line2d_54">
      <g>
       <use xlink:href="#mbb1b344a23" x="74.99" y="425.593906" style="stroke: #000000; stroke-width: 0.8"/>
      </g>
     </g>
     <g id="text_29">
      <!-- −0.0015 -->
      <g transform="translate(24.619687 429.393124) scale(0.1 -0.1)">
       <use xlink:href="#DejaVuSans-2212"/>
       <use xlink:href="#DejaVuSans-30" transform="translate(83.789062 0)"/>
       <use xlink:href="#DejaVuSans-2e" transform="translate(147.412109 0)"/>
       <use xlink:href="#DejaVuSans-30" transform="translate(179.199219 0)"/>
       <use xlink:href="#DejaVuSans-30" transform="translate(242.822266 0)"/>
       <use xlink:href="#DejaVuSans-31" transform="translate(306.445312 0)"/>
       <use xlink:href="#DejaVuSans-35" transform="translate(370.068359 0)"/>
      </g>
     </g>
    </g>
    <g id="ytick_11">
     <g id="line2d_55">
      <path d="M 74.99 394.056578 
L 853.2 394.056578 
" clip-path="url(#p49bc19eca0)" style="fill: none; stroke: #b0b0b0; stroke-width: 0.8; stroke-linecap: square"/>
     </g>
     <g id="line2d_56">
      <g>
       <use xlink:href="#mbb1b344a23" x="74.99" y="394.056578" style="stroke: #000000; stroke-width: 0.8"/>
      </g>
     </g>
     <g id="text_30">
      <!-- −0.0010 -->
      <g transform="translate(24.619687 397.855797) scale(0.1 -0.1)">
       <use xlink:href="#DejaVuSans-2212"/>
       <use xlink:href="#DejaVuSans-30" transform="translate(83.789062 0)"/>
       <use xlink:href="#DejaVuSans-2e" transform="translate(147.412109 0)"/>
       <use xlink:href="#DejaVuSans-30" transform="translate(179.199219 0)"/>
       <use xlink:href="#DejaVuSans-30" transform="translate(242.822266 0)"/>
       <use xlink:href="#DejaVuSans-31" transform="translate(306.445312 0)"/>
       <use xlink:href="#DejaVuSans-30" transform="translate(370.068359 0)"/>
      </g>
     </g>
    </g>
    <g id="ytick_12">
     <g id="line2d_57">
      <path d="M 74.99 362.51925 
L 853.2 362.51925 
" clip-path="url(#p49bc19eca0)" style="fill: none; stroke: #b0b0b0; stroke-width: 0.8; stroke-linecap: square"/>
     </g>
     <g id="line2d_58">
      <g>
       <use xlink:href="#mbb1b344a23" x="74.99" y="362.51925" style="stroke: #000000; stroke-width: 0.8"/>
      </g>
     </g>
     <g id="text_31">
      <!-- −0.0005 -->
      <g transform="translate(24.619687 366.318469) scale(0.1 -0.1)">
       <use xlink:href="#DejaVuSans-2212"/>
       <use xlink:href="#DejaVuSans-30" transform="translate(83.789062 0)"/>
       <use xlink:href="#DejaVuSans-2e" transform="translate(147.412109 0)"/>
       <use xlink:href="#DejaVuSans-30" transform="translate(179.199219 0)"/>
       <use xlink:href="#DejaVuSans-30" transform="translate(242.822266 0)"/>
       <use xlink:href="#DejaVuSans-30" transform="translate(306.445312 0)"/>
       <use xlink:href="#DejaVuSans-35" transform="translate(370.068359 0)"/>
      </g>
     </g>
    </g>
    <g id="ytick_13">
     <g id="line2d_59">
      <path d="M 74.99 330.981923 
L 853.2 330.981923 
" clip-path="url(#p49bc19eca0)" style="fill: none; stroke: #b0b0b0; stroke-width: 0.8; stroke-linecap: square"/>
     </g>
     <g id="line2d_60">
      <g>
       <use xlink:href="#mbb1b344a23" x="74.99" y="330.981923" style="stroke: #000000; stroke-width: 0.8"/>
      </g>
     </g>
     <g id="text_32">
      <!-- 0.0000 -->
      <g transform="translate(32.999375 334.781141) scale(0.1 -0.1)">
       <use xlink:href="#DejaVuSans-30"/>
       <use xlink:href="#DejaVuSans-2e" transform="translate(63.623047 0)"/>
       <use xlink:href="#DejaVuSans-30" transform="translate(95.410156 0)"/>
       <use xlink:href="#DejaVuSans-30" transform="translate(159.033203 0)"/>
       <use xlink:href="#DejaVuSans-30" transform="translate(222.65625 0)"/>
       <use xlink:href="#DejaVuSans-30" transform="translate(286.279297 0)"/>
      </g>
     </g>
    </g>
    <g id="text_33">
     <!-- Estimated Value -->
     <g transform="translate(18.54 458.818906) rotate(-90) scale(0.1 -0.1)">
      <defs>
       <path id="DejaVuSans-45" d="M 628 4666 
L 3578 4666 
L 3578 4134 
L 1259 4134 
L 1259 2753 
L 3481 2753 
L 3481 2222 
L 1259 2222 
L 1259 531 
L 3634 531 
L 3634 0 
L 628 0 
L 628 4666 
z
" transform="scale(0.015625)"/>
       <path id="DejaVuSans-56" d="M 1831 0 
L 50 4666 
L 709 4666 
L 2188 738 
L 3669 4666 
L 4325 4666 
L 2547 0 
L 1831 0 
z
" transform="scale(0.015625)"/>
      </defs>
      <use xlink:href="#DejaVuSans-45"/>
      <use xlink:href="#DejaVuSans-73" transform="translate(63.183594 0)"/>
      <use xlink:href="#DejaVuSans-74" transform="translate(115.283203 0)"/>
      <use xlink:href="#DejaVuSans-69" transform="translate(154.492188 0)"/>
      <use xlink:href="#DejaVuSans-6d" transform="translate(182.275391 0)"/>
      <use xlink:href="#DejaVuSans-61" transform="translate(279.6875 0)"/>
      <use xlink:href="#DejaVuSans-74" transform="translate(340.966797 0)"/>
      <use xlink:href="#DejaVuSans-65" transform="translate(380.175781 0)"/>
      <use xlink:href="#DejaVuSans-64" transform="translate(441.699219 0)"/>
      <use xlink:href="#DejaVuSans-20" transform="translate(505.175781 0)"/>
      <use xlink:href="#DejaVuSans-56" transform="translate(536.962891 0)"/>
      <use xlink:href="#DejaVuSans-61" transform="translate(597.621094 0)"/>
      <use xlink:href="#DejaVuSans-6c" transform="translate(658.900391 0)"/>
      <use xlink:href="#DejaVuSans-75" transform="translate(686.683594 0)"/>
      <use xlink:href="#DejaVuSans-65" transform="translate(750.0625 0)"/>
     </g>
    </g>
   </g>
   <g id="line2d_61">
    <path d="M 110.363182 330.981923 
L 116.665646 331.092214 
L 120.803142 331.413251 
L 128.548918 332.09015 
L 153.999327 332.200125 
L 157.655719 332.184375 
L 161.504552 331.966752 
L 163.5733 331.896221 
L 164.920391 331.896221 
L 165.064722 331.776948 
L 180.075172 331.707697 
L 185.65598 331.194476 
L 186.85874 331.173669 
L 188.494494 331.173669 
L 188.638825 330.453897 
L 190.226469 330.075867 
L 192.343327 329.876515 
L 196.432712 329.747078 
L 204.467151 329.735471 
L 217.07208 329.913756 
L 223.855648 329.892441 
L 223.999979 318.095126 
L 224.384863 317.062657 
L 224.769746 316.780623 
L 225.635734 316.507317 
L 228.66669 315.889151 
L 233.622062 315.032814 
L 235.6427 315.032814 
L 235.787031 315.806433 
L 237.278454 316.032864 
L 241.608391 316.258445 
L 247.044868 316.365774 
L 247.718413 316.254892 
L 251.471026 316.161815 
L 259.986569 316.150525 
L 263.835402 315.881998 
L 269.41621 315.732233 
L 272.83205 315.621634 
L 277.450649 315.60582 
L 284.715322 315.545099 
L 291.643221 315.431008 
L 298.138127 315.485118 
L 314.158895 315.442026 
L 320.028366 315.481848 
L 329.891 315.484299 
L 330.035332 315.381766 
L 334.317159 315.312063 
L 346.15232 315.198607 
L 346.296652 330.981923 
L 360.10434 331.092734 
L 369.533981 331.133915 
L 424.331743 331.051072 
L 424.476074 330.921447 
L 428.373018 330.801594 
L 442.56559 330.734848 
L 459.692897 330.735741 
L 459.837228 331.376254 
L 460.655105 331.385886 
L 471.479949 330.992236 
L 471.62428 331.453268 
L 473.693028 331.55903 
L 483.267 331.620679 
L 484.036767 331.603658 
L 490.820335 331.619044 
L 498.662332 331.565061 
L 510.738046 331.546968 
L 535.466799 331.526157 
L 581.989569 331.484744 
L 582.1339 330.981923 
L 627.261469 330.874195 
L 635.921343 330.396097 
L 636.594889 330.396097 
L 636.73922 330.675541 
L 641.694593 330.446578 
L 660.168992 330.367852 
L 660.313323 329.881535 
L 673.303135 329.995095 
L 680.471587 329.686963 
L 695.530146 329.293902 
L 695.722588 331.104827 
L 696.155581 331.131185 
L 707.317197 331.016752 
L 707.461529 331.225007 
L 711.599024 331.270726 
L 758.410457 331.273817 
L 778.039506 331.198247 
L 778.183837 331.03516 
L 782.706216 331.008755 
L 817.826818 330.993385 
L 817.826818 330.993385 
" clip-path="url(#p49bc19eca0)" style="fill: none; stroke: #0000ff; stroke-width: 1.5; stroke-linecap: square"/>
   </g>
   <g id="line2d_62">
    <path d="M 110.363182 330.981923 
L 118.012738 331.090309 
L 121.909681 331.482276 
L 125.950956 332.181958 
L 128.212145 332.266242 
L 153.13334 332.314354 
L 153.277671 332.433352 
L 156.212406 332.493773 
L 159.868798 332.631995 
L 160.638564 332.646995 
L 163.861962 332.571029 
L 164.920391 332.571029 
L 165.064722 332.431365 
L 167.518354 332.35513 
L 176.37067 332.412582 
L 183.972115 332.302176 
L 185.463538 332.314873 
L 189.360481 332.109263 
L 190.707573 331.948753 
L 197.394921 331.924309 
L 204.130379 332.119361 
L 206.63212 332.359195 
L 208.123543 332.560497 
L 210.336622 332.747521 
L 223.855648 332.706056 
L 223.999979 318.778931 
L 224.384863 316.3764 
L 224.481084 316.651148 
L 224.673525 317.06181 
L 224.865967 317.024337 
L 225.106519 316.679299 
L 225.683844 316.410622 
L 227.367708 315.11995 
L 228.137475 314.662633 
L 228.618579 314.300688 
L 229.388346 313.821723 
L 231.408983 313.337187 
L 231.938198 313.195609 
L 232.371191 313.096172 
L 235.450258 312.967273 
L 235.6427 312.967273 
L 235.787031 316.760961 
L 236.412466 316.930744 
L 236.84546 317.013196 
L 237.278454 317.036554 
L 238.962318 316.94145 
L 242.66682 317.202921 
L 244.831789 317.342271 
L 247.429751 317.342271 
L 247.574082 317.150705 
L 248.776843 316.980367 
L 249.59472 316.897249 
L 259.842238 316.57882 
L 269.41621 315.733905 
L 271.003854 315.733905 
L 271.148185 315.604353 
L 273.120712 315.374616 
L 285.966193 315.122689 
L 288.131161 315.072315 
L 293.8563 315.02088 
L 294.577957 315.02088 
L 294.722288 315.195276 
L 306.365008 315.325907 
L 306.509339 314.689629 
L 306.942333 314.689502 
L 309.203522 314.681482 
L 312.186368 314.579001 
L 314.639999 314.524395 
L 323.684757 314.690975 
L 329.891 314.72119 
L 330.035332 314.597172 
L 334.846373 314.556121 
L 346.15232 314.536611 
L 346.296652 330.981925 
L 358.035593 331.088026 
L 361.307101 331.360172 
L 363.327738 331.380308 
L 390.654453 331.489139 
L 399.843542 331.839235 
L 401.383075 331.729382 
L 402.874498 331.648505 
L 407.252546 331.646582 
L 411.871146 331.665221 
L 416.537856 331.775222 
L 422.88843 332.162402 
L 424.331743 332.162402 
L 424.476074 332.57514 
L 426.159939 332.701471 
L 433.135949 332.893338 
L 439.919517 333.080711 
L 446.943637 333.539018 
L 459.692897 333.529732 
L 459.933449 331.66019 
L 460.125891 330.87457 
L 460.270222 331.101259 
L 460.510774 331.904412 
L 460.703216 331.956813 
L 460.943768 331.692691 
L 461.472982 331.612104 
L 462.002197 331.180027 
L 462.194639 331.132979 
L 463.445509 330.499633 
L 463.637951 330.38629 
L 464.552049 329.857756 
L 465.658588 329.420245 
L 466.187803 329.444561 
L 466.717018 329.423323 
L 471.479949 329.23408 
L 471.62428 332.981267 
L 472.249715 333.064433 
L 472.682709 333.112279 
L 473.115703 333.109403 
L 474.751457 332.93537 
L 480.90959 333.166449 
L 483.555662 333.057394 
L 485.720631 332.897239 
L 488.222373 332.819726 
L 500.73108 332.251895 
L 503.617705 332.11197 
L 506.071336 332.083093 
L 507.129765 331.974678 
L 509.390955 331.828071 
L 530.415206 331.645469 
L 530.559537 331.767613 
L 542.202257 331.868081 
L 542.346588 331.279415 
L 542.779582 331.280745 
L 545.136992 331.293602 
L 550.621579 331.197651 
L 565.728249 331.353172 
L 565.920691 331.309063 
L 577.515301 331.339174 
L 577.707742 331.394903 
L 580.786809 331.402191 
L 581.989569 331.393571 
L 582.1339 330.982053 
L 582.759336 330.883389 
L 583.384771 330.542325 
L 583.577213 330.65807 
L 583.769655 330.597917 
L 583.913986 330.567087 
L 584.39509 330.172363 
L 584.587532 330.053716 
L 585.59785 328.943639 
L 585.742182 329.037246 
L 586.271396 328.899996 
L 586.463838 329.114326 
L 586.70439 329.270997 
L 586.896831 329.45282 
L 587.041163 329.581415 
L 587.329825 329.649972 
L 587.474156 329.613333 
L 588.243923 329.916952 
L 588.725027 330.482231 
L 588.821248 330.482344 
L 589.01369 330.315216 
L 589.158021 330.176613 
L 589.446683 329.994204 
L 589.927788 329.981896 
L 590.16834 330.042829 
L 591.034327 330.216147 
L 591.32299 330.215315 
L 593.006854 330.8009 
L 593.199296 330.763078 
L 593.391737 330.967019 
L 594.065283 331.533255 
L 594.353946 331.688863 
L 594.690719 331.861576 
L 594.931271 331.985413 
L 595.171823 332.091236 
L 595.460485 332.161278 
L 596.230252 332.416609 
L 597.721675 332.350621 
L 598.106558 332.32867 
L 599.068766 332.315006 
L 605.659893 332.425943 
L 607.343757 332.68473 
L 608.161634 332.846821 
L 611.048259 333.519206 
L 611.336922 333.570738 
L 612.635903 333.915281 
L 613.45378 334.118847 
L 617.062061 334.556135 
L 618.12049 334.445498 
L 619.082698 334.412373 
L 621.728771 334.386007 
L 622.642869 334.369302 
L 625.000279 334.277267 
L 625.192721 333.953765 
L 625.433273 333.249505 
L 625.625715 332.951809 
L 625.721935 333.054208 
L 626.106819 333.609617 
L 626.20304 333.505898 
L 626.25115 333.559681 
L 626.29926 333.558334 
L 626.395481 333.283251 
L 626.443592 333.338915 
L 626.587923 333.680226 
L 626.636033 333.57603 
L 626.684144 333.580387 
L 626.924696 332.815112 
L 626.972806 333.033281 
L 627.213358 333.789548 
L 627.309579 333.74678 
L 627.502021 333.97264 
L 627.598242 334.031426 
L 627.742573 335.023178 
L 627.983125 336.101277 
L 628.368008 338.628077 
L 628.464229 338.531056 
L 628.60856 338.359309 
L 628.945333 337.972616 
L 629.282106 339.427307 
L 629.7151 344.251429 
L 629.76321 344.249733 
L 630.003762 346.609711 
L 631.158412 364.198668 
L 631.447075 366.796627 
L 631.880068 375.797068 
L 632.120621 377.947411 
L 632.168731 377.762445 
L 632.264952 377.536825 
L 632.409283 377.22154 
L 632.553614 376.820481 
L 633.130939 380.875155 
L 633.17905 380.446887 
L 633.27527 380.577271 
L 633.467712 379.871619 
L 634.141258 383.125952 
L 636.594889 383.125952 
L 636.73922 380.423718 
L 636.931662 379.293879 
L 637.172214 377.584305 
L 637.557097 375.960178 
L 637.797649 375.284888 
L 637.84576 375.35579 
L 637.89387 375.537308 
L 637.990091 375.488293 
L 638.182533 374.880761 
L 638.230643 374.848539 
L 638.278754 374.938611 
L 638.423085 375.160586 
L 638.471195 374.973968 
L 638.663637 373.830266 
L 638.759858 373.961842 
L 639.00041 375.203324 
L 639.144741 375.006057 
L 639.240962 375.08438 
L 639.289072 375.024036 
L 639.433403 374.954927 
L 639.529624 375.097784 
L 639.770176 374.752359 
L 639.818287 374.781912 
L 639.866397 374.778396 
L 640.010728 375.252327 
L 640.058839 375.218351 
L 640.20317 374.752004 
L 640.25128 374.807591 
L 640.443722 375.170964 
L 640.588053 375.012164 
L 640.732385 374.940609 
L 640.780495 375.035495 
L 640.828605 374.900109 
L 641.165378 373.731462 
L 641.35782 373.935803 
L 641.40593 373.976471 
L 641.454041 373.907334 
L 641.646482 373.804669 
L 641.742703 373.899998 
L 641.838924 374.070489 
L 641.887035 374.048081 
L 643.041684 373.399053 
L 643.234126 373.164805 
L 643.474678 373.138287 
L 643.66712 373.180288 
L 643.907672 373.27641 
L 644.196334 373.324459 
L 644.581218 373.058219 
L 645.062322 372.920546 
L 645.399095 373.072744 
L 646.409413 373.233323 
L 648.38194 373.233323 
L 648.526272 370.789358 
L 648.718713 370.043659 
L 648.863045 370.814273 
L 648.959265 370.577209 
L 649.151707 370.175505 
L 649.392259 369.687608 
L 649.48848 369.628523 
L 649.632811 369.872262 
L 650.017695 370.741499 
L 650.258247 371.553069 
L 650.402578 372.636933 
L 650.595019 373.715474 
L 650.69124 373.556418 
L 650.835572 372.933822 
L 651.028013 373.681714 
L 651.076124 373.566589 
L 651.124234 373.363343 
L 651.220455 373.401838 
L 651.268565 373.367819 
L 651.364786 373.805674 
L 651.557228 374.737063 
L 651.653449 375.087087 
L 651.749669 375.668881 
L 652.134553 379.358948 
L 652.182663 379.331862 
L 652.423215 380.746943 
L 652.567546 380.79428 
L 652.711878 380.706977 
L 652.856209 381.611971 
L 653.096761 383.448196 
L 653.144871 383.418285 
L 653.241092 383.451863 
L 653.625976 386.374582 
L 653.674086 386.338497 
L 654.15519 388.557538 
L 654.443853 390.769515 
L 654.540073 391.964405 
L 654.780625 394.291039 
L 655.165509 397.260685 
L 655.213619 397.15162 
L 655.26173 397.112984 
L 655.550392 398.815807 
L 655.646613 398.578473 
L 655.694723 398.62461 
L 655.790944 398.930547 
L 656.608821 406.018912 
L 656.656932 405.927802 
L 656.801263 407.276722 
L 657.138036 410.422401 
L 657.234257 411.284072 
L 657.61914 414.596005 
L 660.168992 414.596005 
L 660.313323 452.324866 
L 660.601986 456.440844 
L 660.842538 459.443493 
L 661.179311 461.144472 
L 661.371752 461.591842 
L 661.516083 461.440001 
L 661.564194 461.547715 
L 661.660415 460.98501 
L 661.708525 460.994279 
L 661.900967 461.451819 
L 662.141519 462.02465 
L 662.33396 462.189124 
L 662.430181 462.494745 
L 662.622623 463.097394 
L 662.670733 463.15926 
L 663.248058 466.842163 
L 663.4405 466.784227 
L 663.729162 467.774234 
L 663.921604 468.26705 
L 664.065935 468.520387 
L 664.162156 468.385055 
L 664.210267 468.412458 
L 664.402708 468.675701 
L 664.498929 469.020292 
L 664.691371 469.579649 
L 664.980033 470.255007 
L 665.268696 470.992127 
L 665.461137 471.676649 
L 665.653579 471.843582 
L 665.79791 471.837474 
L 666.423346 472.118813 
L 666.567677 472.070471 
L 666.808229 471.690556 
L 666.95256 471.735583 
L 667.096891 471.785012 
L 667.337444 472.014828 
L 667.481775 472.110815 
L 667.962879 472.795416 
L 668.10721 472.951548 
L 668.828866 473.767115 
L 669.646743 473.979944 
L 671.956043 473.979944 
L 672.052264 476.579633 
L 672.100374 476.576619 
L 672.196595 476.578728 
L 672.389037 477.194784 
L 672.437147 477.133985 
L 672.485258 477.034173 
L 672.533368 477.080482 
L 672.581479 477.148171 
L 672.77392 476.915705 
L 673.014472 476.519742 
L 673.110693 476.641763 
L 673.303135 476.870756 
L 673.447466 477.216695 
L 673.92857 478.803919 
L 674.024791 479.315467 
L 674.169122 479.740709 
L 674.313454 479.947684 
L 674.409674 480.002351 
L 674.602116 480.370731 
L 674.938889 482.44193 
L 674.986999 482.512565 
L 675.275662 483.650371 
L 675.852987 485.448485 
L 675.901097 485.482797 
L 676.045428 484.821319 
L 676.093539 484.833746 
L 676.18976 485.590467 
L 676.863305 490.394172 
L 677.200078 491.826407 
L 677.248189 491.775168 
L 677.296299 491.879007 
L 677.34441 491.838202 
L 677.488741 491.646061 
L 677.729293 492.652914 
L 677.873624 492.80441 
L 678.210397 495.433651 
L 678.739612 499.048611 
L 679.028274 501.326172 
L 679.172605 502.706697 
L 679.220716 502.669502 
L 679.268826 502.636695 
L 679.653709 505.520213 
L 679.74993 505.453505 
L 680.182924 508.265333 
L 680.231034 508.209201 
L 680.279145 508.101278 
L 680.808359 511.476964 
L 681.097022 513.937257 
L 683.743095 513.937257 
L 683.791205 523.512727 
L 683.839315 515.576705 
L 683.983647 512.575724 
L 684.176088 512.149582 
L 684.36853 512.096084 
L 684.609082 512.098732 
L 685.234517 512.212089 
L 686.437278 512.231846 
L 686.67783 512.252031 
L 687.014603 512.450616 
L 687.495707 512.293358 
L 687.928701 512.324925 
L 688.217363 512.318808 
L 688.650357 512.381802 
L 689.179571 512.11196 
L 689.372013 512.134955 
L 689.853117 511.914202 
L 690.093669 512.016616 
L 690.430442 511.886274 
L 690.622884 511.690878 
L 690.719105 511.624243 
L 690.767215 511.668661 
L 690.959657 511.7245 
L 691.152098 511.751542 
L 691.39265 511.705543 
L 691.873755 511.298571 
L 692.162417 511.55152 
L 692.643521 511.248894 
L 693.365177 511.096568 
L 695.530146 511.096568 
L 695.674477 332.753794 
L 695.818809 329.666346 
L 695.866919 329.790322 
L 695.96314 329.445041 
L 696.01125 329.62094 
L 696.155581 330.515594 
L 696.348023 331.398437 
L 696.492354 331.579409 
L 696.540465 331.489989 
L 696.781017 331.141672 
L 697.310231 331.071858 
L 697.839446 330.533081 
L 697.983777 330.503886 
L 698.512992 330.187073 
L 698.849765 329.928352 
L 700.870402 328.791493 
L 701.736389 328.645227 
L 703.035371 328.70009 
L 703.997579 328.675235 
L 704.671125 328.676951 
L 707.317197 328.676951 
L 707.461529 333.368899 
L 708.423737 333.181938 
L 709.049172 333.166223 
L 709.96327 332.990388 
L 719.104249 333.18543 
L 719.24858 333.013168 
L 721.172997 332.893985 
L 721.798432 332.898744 
L 722.616309 332.878237 
L 724.829388 332.780484 
L 726.801915 332.606008 
L 735.846673 332.22765 
L 737.434317 332.10879 
L 747.585614 331.737767 
L 749.317589 331.704547 
L 751.77122 331.677855 
L 754.465403 331.676996 
L 754.609734 331.489942 
L 757.255807 331.525231 
L 762.114959 331.53993 
L 766.252454 331.520799 
L 766.396786 331.714555 
L 778.039506 331.911962 
L 778.183837 330.863603 
L 778.56872 330.858922 
L 780.685579 330.875496 
L 784.101418 330.783301 
L 785.929614 330.767793 
L 792.809403 330.871805 
L 805.366221 330.903101 
L 812.582783 330.935459 
L 817.826818 331.005058 
L 817.826818 331.005058 
" clip-path="url(#p49bc19eca0)" style="fill: none; stroke-dasharray: 5.55,2.4; stroke-dashoffset: 0; stroke: #ff0000; stroke-width: 1.5"/>
   </g>
   <g id="line2d_63">
    <path d="M 346.200431 534.04 
L 346.200431 302.44 
" clip-path="url(#p49bc19eca0)" style="fill: none; stroke-dasharray: 1.5,2.475; stroke-dashoffset: 0; stroke: #808080; stroke-opacity: 0.6; stroke-width: 1.5"/>
   </g>
   <g id="line2d_64">
    <path d="M 582.03768 534.04 
L 582.03768 302.44 
" clip-path="url(#p49bc19eca0)" style="fill: none; stroke-dasharray: 1.5,2.475; stroke-dashoffset: 0; stroke: #808080; stroke-opacity: 0.6; stroke-width: 1.5"/>
   </g>
   <g id="patch_9">
    <path d="M 74.99 534.04 
L 74.99 302.44 
" style="fill: none; stroke: #000000; stroke-width: 0.8; stroke-linejoin: miter; stroke-linecap: square"/>
   </g>
   <g id="patch_10">
    <path d="M 853.2 534.04 
L 853.2 302.44 
" style="fill: none; stroke: #000000; stroke-width: 0.8; stroke-linejoin: miter; stroke-linecap: square"/>
   </g>
   <g id="patch_11">
    <path d="M 74.99 534.04 
L 853.2 534.04 
" style="fill: none; stroke: #000000; stroke-width: 0.8; stroke-linejoin: miter; stroke-linecap: square"/>
   </g>
   <g id="patch_12">
    <path d="M 74.99 302.44 
L 853.2 302.44 
" style="fill: none; stroke: #000000; stroke-width: 0.8; stroke-linejoin: miter; stroke-linecap: square"/>
   </g>
   <g id="text_34">
    <!-- [14] Kg_zx  —  State Estimate -->
    <g transform="translate(374.509375 296.44) scale(0.12 -0.12)">
     <use xlink:href="#DejaVuSans-5b"/>
     <use xlink:href="#DejaVuSans-31" transform="translate(39.013672 0)"/>
     <use xlink:href="#DejaVuSans-34" transform="translate(102.636719 0)"/>
     <use xlink:href="#DejaVuSans-5d" transform="translate(166.259766 0)"/>
     <use xlink:href="#DejaVuSans-20" transform="translate(205.273438 0)"/>
     <use xlink:href="#DejaVuSans-4b" transform="translate(237.060547 0)"/>
     <use xlink:href="#DejaVuSans-67" transform="translate(302.636719 0)"/>
     <use xlink:href="#DejaVuSans-5f" transform="translate(366.113281 0)"/>
     <use xlink:href="#DejaVuSans-7a" transform="translate(416.113281 0)"/>
     <use xlink:href="#DejaVuSans-78" transform="translate(468.603516 0)"/>
     <use xlink:href="#DejaVuSans-20" transform="translate(527.783203 0)"/>
     <use xlink:href="#DejaVuSans-20" transform="translate(559.570312 0)"/>
     <use xlink:href="#DejaVuSans-2014" transform="translate(591.357422 0)"/>
     <use xlink:href="#DejaVuSans-20" transform="translate(691.357422 0)"/>
     <use xlink:href="#DejaVuSans-20" transform="translate(723.144531 0)"/>
     <use xlink:href="#DejaVuSans-53" transform="translate(754.931641 0)"/>
     <use xlink:href="#DejaVuSans-74" transform="translate(818.408203 0)"/>
     <use xlink:href="#DejaVuSans-61" transform="translate(857.617188 0)"/>
     <use xlink:href="#DejaVuSans-74" transform="translate(918.896484 0)"/>
     <use xlink:href="#DejaVuSans-65" transform="translate(958.105469 0)"/>
     <use xlink:href="#DejaVuSans-20" transform="translate(1019.628906 0)"/>
     <use xlink:href="#DejaVuSans-45" transform="translate(1051.416016 0)"/>
     <use xlink:href="#DejaVuSans-73" transform="translate(1114.599609 0)"/>
     <use xlink:href="#DejaVuSans-74" transform="translate(1166.699219 0)"/>
     <use xlink:href="#DejaVuSans-69" transform="translate(1205.908203 0)"/>
     <use xlink:href="#DejaVuSans-6d" transform="translate(1233.691406 0)"/>
     <use xlink:href="#DejaVuSans-61" transform="translate(1331.103516 0)"/>
     <use xlink:href="#DejaVuSans-74" transform="translate(1392.382812 0)"/>
     <use xlink:href="#DejaVuSans-65" transform="translate(1431.591797 0)"/>
    </g>
   </g>
   <g id="legend_2">
    <g id="patch_13">
     <path d="M 81.99 529.04 
L 193.847813 529.04 
Q 195.847813 529.04 195.847813 527.04 
L 195.847813 498.68375 
Q 195.847813 496.68375 193.847813 496.68375 
L 81.99 496.68375 
Q 79.99 496.68375 79.99 498.68375 
L 79.99 527.04 
Q 79.99 529.04 81.99 529.04 
z
" style="fill: #ffffff; opacity: 0.8; stroke: #cccccc; stroke-linejoin: miter"/>
    </g>
    <g id="line2d_65">
     <path d="M 83.99 504.782187 
L 93.99 504.782187 
L 103.99 504.782187 
" style="fill: none; stroke: #0000ff; stroke-width: 1.5; stroke-linecap: square"/>
    </g>
    <g id="text_35">
     <!-- Ideal (No Noise) -->
     <g transform="translate(111.99 508.282187) scale(0.1 -0.1)">
      <use xlink:href="#DejaVuSans-49"/>
      <use xlink:href="#DejaVuSans-64" transform="translate(29.492188 0)"/>
      <use xlink:href="#DejaVuSans-65" transform="translate(92.96875 0)"/>
      <use xlink:href="#DejaVuSans-61" transform="translate(154.492188 0)"/>
      <use xlink:href="#DejaVuSans-6c" transform="translate(215.771484 0)"/>
      <use xlink:href="#DejaVuSans-20" transform="translate(243.554688 0)"/>
      <use xlink:href="#DejaVuSans-28" transform="translate(275.341797 0)"/>
      <use xlink:href="#DejaVuSans-4e" transform="translate(314.355469 0)"/>
      <use xlink:href="#DejaVuSans-6f" transform="translate(389.160156 0)"/>
      <use xlink:href="#DejaVuSans-20" transform="translate(450.341797 0)"/>
      <use xlink:href="#DejaVuSans-4e" transform="translate(482.128906 0)"/>
      <use xlink:href="#DejaVuSans-6f" transform="translate(556.933594 0)"/>
      <use xlink:href="#DejaVuSans-69" transform="translate(618.115234 0)"/>
      <use xlink:href="#DejaVuSans-73" transform="translate(645.898438 0)"/>
      <use xlink:href="#DejaVuSans-65" transform="translate(697.998047 0)"/>
      <use xlink:href="#DejaVuSans-29" transform="translate(759.521484 0)"/>
     </g>
    </g>
    <g id="line2d_66">
     <path d="M 83.99 519.460312 
L 93.99 519.460312 
L 103.99 519.460312 
" style="fill: none; stroke-dasharray: 5.55,2.4; stroke-dashoffset: 0; stroke: #ff0000; stroke-width: 1.5"/>
    </g>
    <g id="text_36">
     <!-- With Full Noise -->
     <g transform="translate(111.99 522.960312) scale(0.1 -0.1)">
      <use xlink:href="#DejaVuSans-57"/>
      <use xlink:href="#DejaVuSans-69" transform="translate(96.626953 0)"/>
      <use xlink:href="#DejaVuSans-74" transform="translate(124.410156 0)"/>
      <use xlink:href="#DejaVuSans-68" transform="translate(163.619141 0)"/>
      <use xlink:href="#DejaVuSans-20" transform="translate(226.998047 0)"/>
      <use xlink:href="#DejaVuSans-46" transform="translate(258.785156 0)"/>
      <use xlink:href="#DejaVuSans-75" transform="translate(310.804688 0)"/>
      <use xlink:href="#DejaVuSans-6c" transform="translate(374.183594 0)"/>
      <use xlink:href="#DejaVuSans-6c" transform="translate(401.966797 0)"/>
      <use xlink:href="#DejaVuSans-20" transform="translate(429.75 0)"/>
      <use xlink:href="#DejaVuSans-4e" transform="translate(461.537109 0)"/>
      <use xlink:href="#DejaVuSans-6f" transform="translate(536.341797 0)"/>
      <use xlink:href="#DejaVuSans-69" transform="translate(597.523438 0)"/>
      <use xlink:href="#DejaVuSans-73" transform="translate(625.306641 0)"/>
      <use xlink:href="#DejaVuSans-65" transform="translate(677.40625 0)"/>
     </g>
    </g>
   </g>
  </g>
 </g>
 <defs>
  <clipPath id="p9edec25e1f">
   <rect x="74.99" y="26.88" width="778.21" height="231.6"/>
  </clipPath>
  <clipPath id="p49bc19eca0">
   <rect x="74.99" y="302.44" width="778.21" height="231.6"/>
  </clipPath>
 </defs>
</svg>
