<?xml version="1.0" encoding="utf-8" standalone="no"?>
<!DOCTYPE svg PUBLIC "-//W3C//DTD SVG 1.1//EN"
  "http://www.w3.org/Graphics/SVG/1.1/DTD/svg11.dtd">
<svg xmlns:xlink="http://www.w3.org/1999/xlink" width="864pt" height="576pt" viewBox="0 0 864 576" xmlns="http://www.w3.org/2000/svg" version="1.1">
 <metadata>
  <rdf:RDF xmlns:dc="http://purl.org/dc/elements/1.1/" xmlns:cc="http://creativecommons.org/ns#" xmlns:rdf="http://www.w3.org/1999/02/22-rdf-syntax-ns#">
   <cc:Work>
    <dc:type rdf:resource="http://purl.org/dc/dcmitype/StillImage"/>
    <dc:date>2026-03-03T11:38:09.319698</dc:date>
    <dc:format>image/svg+xml</dc:format>
    <dc:creator>
     <cc:Agent>
      <dc:title>Matplotlib v3.10.8, https://matplotlib.org/</dc:title>
     </cc:Agent>
    </dc:creator>
   </cc:Work>
  </rdf:RDF>
 </metadata>
 <defs>
  <style type="text/css">*{stroke-linejoin: round; stroke-linecap: butt}</style>
 </defs>
 <g id="figure_1">
  <g id="patch_1">
   <path d="M 0 576 
L 864 576 
L 864 0 
L 0 0 
z
" style="fill: #ffffff"/>
  </g>
  <g id="axes_1">
   <g id="patch_2">
    <path d="M 81.2 258.48 
L 853.2 258.48 
L 853.2 26.88 
L 81.2 26.88 
z
" style="fill: #ffffff"/>
   </g>
   <g id="matplotlib.axis_1">
    <g id="xtick_1">
     <g id="line2d_1">
      <path d="M 116.290909 258.48 
L 116.290909 26.88 
" clip-path="url(#pa831334749)" style="fill: none; stroke: #b0b0b0; stroke-width: 0.8; stroke-linecap: square"/>
     </g>
     <g id="line2d_2">
      <defs>
       <path id="m9639d21fbc" d="M 0 0 
L 0 3.5 
" style="stroke: #000000; stroke-width: 0.8"/>
      </defs>
      <g>
       <use xlink:href="#m9639d21fbc" x="116.290909" y="258.48" style="stroke: #000000; stroke-width: 0.8"/>
      </g>
     </g>
     <g id="text_1">
      <!-- 0 -->
      <g transform="translate(113.109659 273.078438) scale(0.1 -0.1)">
       <defs>
        <path id="DejaVuSans-30" d="M 2034 4250 
Q 1547 4250 1301 3770 
Q 1056 3291 1056 2328 
Q 1056 1369 1301 889 
Q 1547 409 2034 409 
Q 2525 409 2770 889 
Q 3016 1369 3016 2328 
Q 3016 3291 2770 3770 
Q 2525 4250 2034 4250 
z
M 2034 4750 
Q 2819 4750 3233 4129 
Q 3647 3509 3647 2328 
Q 3647 1150 3233 529 
Q 2819 -91 2034 -91 
Q 1250 -91 836 529 
Q 422 1150 422 2328 
Q 422 3509 836 4129 
Q 1250 4750 2034 4750 
z
" transform="scale(0.015625)"/>
       </defs>
       <use xlink:href="#DejaVuSans-30"/>
      </g>
     </g>
    </g>
    <g id="xtick_2">
     <g id="line2d_3">
      <path d="M 235.607159 258.48 
L 235.607159 26.88 
" clip-path="url(#pa831334749)" style="fill: none; stroke: #b0b0b0; stroke-width: 0.8; stroke-linecap: square"/>
     </g>
     <g id="line2d_4">
      <g>
       <use xlink:href="#m9639d21fbc" x="235.607159" y="258.48" style="stroke: #000000; stroke-width: 0.8"/>
      </g>
     </g>
     <g id="text_2">
      <!-- 50 -->
      <g transform="translate(229.244659 273.078438) scale(0.1 -0.1)">
       <defs>
        <path id="DejaVuSans-35" d="M 691 4666 
L 3169 4666 
L 3169 4134 
L 1269 4134 
L 1269 2991 
Q 1406 3038 1543 3061 
Q 1681 3084 1819 3084 
Q 2600 3084 3056 2656 
Q 3513 2228 3513 1497 
Q 3513 744 3044 326 
Q 2575 -91 1722 -91 
Q 1428 -91 1123 -41 
Q 819 9 494 109 
L 494 744 
Q 775 591 1075 516 
Q 1375 441 1709 441 
Q 2250 441 2565 725 
Q 2881 1009 2881 1497 
Q 2881 1984 2565 2268 
Q 2250 2553 1709 2553 
Q 1456 2553 1204 2497 
Q 953 2441 691 2322 
L 691 4666 
z
" transform="scale(0.015625)"/>
       </defs>
       <use xlink:href="#DejaVuSans-35"/>
       <use xlink:href="#DejaVuSans-30" transform="translate(63.623047 0)"/>
      </g>
     </g>
    </g>
    <g id="xtick_3">
     <g id="line2d_5">
      <path d="M 354.923409 258.48 
L 354.923409 26.88 
" clip-path="url(#pa831334749)" style="fill: none; stroke: #b0b0b0; stroke-width: 0.8; stroke-linecap: square"/>
     </g>
     <g id="line2d_6">
      <g>
       <use xlink:href="#m9639d21fbc" x="354.923409" y="258.48" style="stroke: #000000; stroke-width: 0.8"/>
      </g>
     </g>
     <g id="text_3">
      <!-- 100 -->
      <g transform="translate(345.379659 273.078438) scale(0.1 -0.1)">
       <defs>
        <path id="DejaVuSans-31" d="M 794 531 
L 1825 531 
L 1825 4091 
L 703 3866 
L 703 4441 
L 1819 4666 
L 2450 4666 
L 2450 531 
L 3481 531 
L 3481 0 
L 794 0 
L 794 531 
z
" transform="scale(0.015625)"/>
       </defs>
       <use xlink:href="#DejaVuSans-31"/>
       <use xlink:href="#DejaVuSans-30" transform="translate(63.623047 0)"/>
       <use xlink:href="#DejaVuSans-30" transform="translate(127.246094 0)"/>
      </g>
     </g>
    </g>
    <g id="xtick_4">
     <g id="line2d_7">
      <path d="M 474.239659 258.48 
L 474.239659 26.88 
" clip-path="url(#pa831334749)" style="fill: none; stroke: #b0b0b0; stroke-width: 0.8; stroke-linecap: square"/>
     </g>
     <g id="line2d_8">
      <g>
       <use xlink:href="#m9639d21fbc" x="474.239659" y="258.48" style="stroke: #000000; stroke-width: 0.8"/>
      </g>
     </g>
     <g id="text_4">
      <!-- 150 -->
      <g transform="translate(464.695909 273.078438) scale(0.1 -0.1)">
       <use xlink:href="#DejaVuSans-31"/>
       <use xlink:href="#DejaVuSans-35" transform="translate(63.623047 0)"/>
       <use xlink:href="#DejaVuSans-30" transform="translate(127.246094 0)"/>
      </g>
     </g>
    </g>
    <g id="xtick_5">
     <g id="line2d_9">
      <path d="M 593.555909 258.48 
L 593.555909 26.88 
" clip-path="url(#pa831334749)" style="fill: none; stroke: #b0b0b0; stroke-width: 0.8; stroke-linecap: square"/>
     </g>
     <g id="line2d_10">
      <g>
       <use xlink:href="#m9639d21fbc" x="593.555909" y="258.48" style="stroke: #000000; stroke-width: 0.8"/>
      </g>
     </g>
     <g id="text_5">
      <!-- 200 -->
      <g transform="translate(584.012159 273.078438) scale(0.1 -0.1)">
       <defs>
        <path id="DejaVuSans-32" d="M 1228 531 
L 3431 531 
L 3431 0 
L 469 0 
L 469 531 
Q 828 903 1448 1529 
Q 2069 2156 2228 2338 
Q 2531 2678 2651 2914 
Q 2772 3150 2772 3378 
Q 2772 3750 2511 3984 
Q 2250 4219 1831 4219 
Q 1534 4219 1204 4116 
Q 875 4013 500 3803 
L 500 4441 
Q 881 4594 1212 4672 
Q 1544 4750 1819 4750 
Q 2544 4750 2975 4387 
Q 3406 4025 3406 3419 
Q 3406 3131 3298 2873 
Q 3191 2616 2906 2266 
Q 2828 2175 2409 1742 
Q 1991 1309 1228 531 
z
" transform="scale(0.015625)"/>
       </defs>
       <use xlink:href="#DejaVuSans-32"/>
       <use xlink:href="#DejaVuSans-30" transform="translate(63.623047 0)"/>
       <use xlink:href="#DejaVuSans-30" transform="translate(127.246094 0)"/>
      </g>
     </g>
    </g>
    <g id="xtick_6">
     <g id="line2d_11">
      <path d="M 712.872159 258.48 
L 712.872159 26.88 
" clip-path="url(#pa831334749)" style="fill: none; stroke: #b0b0b0; stroke-width: 0.8; stroke-linecap: square"/>
     </g>
     <g id="line2d_12">
      <g>
       <use xlink:href="#m9639d21fbc" x="712.872159" y="258.48" style="stroke: #000000; stroke-width: 0.8"/>
      </g>
     </g>
     <g id="text_6">
      <!-- 250 -->
      <g transform="translate(703.328409 273.078438) scale(0.1 -0.1)">
       <use xlink:href="#DejaVuSans-32"/>
       <use xlink:href="#DejaVuSans-35" transform="translate(63.623047 0)"/>
       <use xlink:href="#DejaVuSans-30" transform="translate(127.246094 0)"/>
      </g>
     </g>
    </g>
    <g id="xtick_7">
     <g id="line2d_13">
      <path d="M 832.188408 258.48 
L 832.188408 26.88 
" clip-path="url(#pa831334749)" style="fill: none; stroke: #b0b0b0; stroke-width: 0.8; stroke-linecap: square"/>
     </g>
     <g id="line2d_14">
      <g>
       <use xlink:href="#m9639d21fbc" x="832.188408" y="258.48" style="stroke: #000000; stroke-width: 0.8"/>
      </g>
     </g>
     <g id="text_7">
      <!-- 300 -->
      <g transform="translate(822.644658 273.078438) scale(0.1 -0.1)">
       <defs>
        <path id="DejaVuSans-33" d="M 2597 2516 
Q 3050 2419 3304 2112 
Q 3559 1806 3559 1356 
Q 3559 666 3084 287 
Q 2609 -91 1734 -91 
Q 1441 -91 1130 -33 
Q 819 25 488 141 
L 488 750 
Q 750 597 1062 519 
Q 1375 441 1716 441 
Q 2309 441 2620 675 
Q 2931 909 2931 1356 
Q 2931 1769 2642 2001 
Q 2353 2234 1838 2234 
L 1294 2234 
L 1294 2753 
L 1863 2753 
Q 2328 2753 2575 2939 
Q 2822 3125 2822 3475 
Q 2822 3834 2567 4026 
Q 2313 4219 1838 4219 
Q 1578 4219 1281 4162 
Q 984 4106 628 3988 
L 628 4550 
Q 988 4650 1302 4700 
Q 1616 4750 1894 4750 
Q 2613 4750 3031 4423 
Q 3450 4097 3450 3541 
Q 3450 3153 3228 2886 
Q 3006 2619 2597 2516 
z
" transform="scale(0.015625)"/>
       </defs>
       <use xlink:href="#DejaVuSans-33"/>
       <use xlink:href="#DejaVuSans-30" transform="translate(63.623047 0)"/>
       <use xlink:href="#DejaVuSans-30" transform="translate(127.246094 0)"/>
      </g>
     </g>
    </g>
   </g>
   <g id="matplotlib.axis_2">
    <g id="ytick_1">
     <g id="line2d_15">
      <path d="M 81.2 248.444171 
L 853.2 248.444171 
" clip-path="url(#pa831334749)" style="fill: none; stroke: #b0b0b0; stroke-width: 0.8; stroke-linecap: square"/>
     </g>
     <g id="line2d_16">
      <defs>
       <path id="m785ec628eb" d="M 0 0 
L -3.5 0 
" style="stroke: #000000; stroke-width: 0.8"/>
      </defs>
      <g>
       <use xlink:href="#m785ec628eb" x="81.2" y="248.444171" style="stroke: #000000; stroke-width: 0.8"/>
      </g>
     </g>
     <g id="text_8">
      <!-- 0.000 -->
      <g transform="translate(45.571875 252.24339) scale(0.1 -0.1)">
       <defs>
        <path id="DejaVuSans-2e" d="M 684 794 
L 1344 794 
L 1344 0 
L 684 0 
L 684 794 
z
" transform="scale(0.015625)"/>
       </defs>
       <use xlink:href="#DejaVuSans-30"/>
       <use xlink:href="#DejaVuSans-2e" transform="translate(63.623047 0)"/>
       <use xlink:href="#DejaVuSans-30" transform="translate(95.410156 0)"/>
       <use xlink:href="#DejaVuSans-30" transform="translate(159.033203 0)"/>
       <use xlink:href="#DejaVuSans-30" transform="translate(222.65625 0)"/>
      </g>
     </g>
    </g>
    <g id="ytick_2">
     <g id="line2d_17">
      <path d="M 81.2 204.914686 
L 853.2 204.914686 
" clip-path="url(#pa831334749)" style="fill: none; stroke: #b0b0b0; stroke-width: 0.8; stroke-linecap: square"/>
     </g>
     <g id="line2d_18">
      <g>
       <use xlink:href="#m785ec628eb" x="81.2" y="204.914686" style="stroke: #000000; stroke-width: 0.8"/>
      </g>
     </g>
     <g id="text_9">
      <!-- 0.001 -->
      <g transform="translate(45.571875 208.713905) scale(0.1 -0.1)">
       <use xlink:href="#DejaVuSans-30"/>
       <use xlink:href="#DejaVuSans-2e" transform="translate(63.623047 0)"/>
       <use xlink:href="#DejaVuSans-30" transform="translate(95.410156 0)"/>
       <use xlink:href="#DejaVuSans-30" transform="translate(159.033203 0)"/>
       <use xlink:href="#DejaVuSans-31" transform="translate(222.65625 0)"/>
      </g>
     </g>
    </g>
    <g id="ytick_3">
     <g id="line2d_19">
      <path d="M 81.2 161.385201 
L 853.2 161.385201 
" clip-path="url(#pa831334749)" style="fill: none; stroke: #b0b0b0; stroke-width: 0.8; stroke-linecap: square"/>
     </g>
     <g id="line2d_20">
      <g>
       <use xlink:href="#m785ec628eb" x="81.2" y="161.385201" style="stroke: #000000; stroke-width: 0.8"/>
      </g>
     </g>
     <g id="text_10">
      <!-- 0.002 -->
      <g transform="translate(45.571875 165.18442) scale(0.1 -0.1)">
       <use xlink:href="#DejaVuSans-30"/>
       <use xlink:href="#DejaVuSans-2e" transform="translate(63.623047 0)"/>
       <use xlink:href="#DejaVuSans-30" transform="translate(95.410156 0)"/>
       <use xlink:href="#DejaVuSans-30" transform="translate(159.033203 0)"/>
       <use xlink:href="#DejaVuSans-32" transform="translate(222.65625 0)"/>
      </g>
     </g>
    </g>
    <g id="ytick_4">
     <g id="line2d_21">
      <path d="M 81.2 117.855716 
L 853.2 117.855716 
" clip-path="url(#pa831334749)" style="fill: none; stroke: #b0b0b0; stroke-width: 0.8; stroke-linecap: square"/>
     </g>
     <g id="line2d_22">
      <g>
       <use xlink:href="#m785ec628eb" x="81.2" y="117.855716" style="stroke: #000000; stroke-width: 0.8"/>
      </g>
     </g>
     <g id="text_11">
      <!-- 0.003 -->
      <g transform="translate(45.571875 121.654935) scale(0.1 -0.1)">
       <use xlink:href="#DejaVuSans-30"/>
       <use xlink:href="#DejaVuSans-2e" transform="translate(63.623047 0)"/>
       <use xlink:href="#DejaVuSans-30" transform="translate(95.410156 0)"/>
       <use xlink:href="#DejaVuSans-30" transform="translate(159.033203 0)"/>
       <use xlink:href="#DejaVuSans-33" transform="translate(222.65625 0)"/>
      </g>
     </g>
    </g>
    <g id="ytick_5">
     <g id="line2d_23">
      <path d="M 81.2 74.326231 
L 853.2 74.326231 
" clip-path="url(#pa831334749)" style="fill: none; stroke: #b0b0b0; stroke-width: 0.8; stroke-linecap: square"/>
     </g>
     <g id="line2d_24">
      <g>
       <use xlink:href="#m785ec628eb" x="81.2" y="74.326231" style="stroke: #000000; stroke-width: 0.8"/>
      </g>
     </g>
     <g id="text_12">
      <!-- 0.004 -->
      <g transform="translate(45.571875 78.12545) scale(0.1 -0.1)">
       <defs>
        <path id="DejaVuSans-34" d="M 2419 4116 
L 825 1625 
L 2419 1625 
L 2419 4116 
z
M 2253 4666 
L 3047 4666 
L 3047 1625 
L 3713 1625 
L 3713 1100 
L 3047 1100 
L 3047 0 
L 2419 0 
L 2419 1100 
L 313 1100 
L 313 1709 
L 2253 4666 
z
" transform="scale(0.015625)"/>
       </defs>
       <use xlink:href="#DejaVuSans-30"/>
       <use xlink:href="#DejaVuSans-2e" transform="translate(63.623047 0)"/>
       <use xlink:href="#DejaVuSans-30" transform="translate(95.410156 0)"/>
       <use xlink:href="#DejaVuSans-30" transform="translate(159.033203 0)"/>
       <use xlink:href="#DejaVuSans-34" transform="translate(222.65625 0)"/>
      </g>
     </g>
    </g>
    <g id="ytick_6">
     <g id="line2d_25">
      <path d="M 81.2 30.796746 
L 853.2 30.796746 
" clip-path="url(#pa831334749)" style="fill: none; stroke: #b0b0b0; stroke-width: 0.8; stroke-linecap: square"/>
     </g>
     <g id="line2d_26">
      <g>
       <use xlink:href="#m785ec628eb" x="81.2" y="30.796746" style="stroke: #000000; stroke-width: 0.8"/>
      </g>
     </g>
     <g id="text_13">
      <!-- 0.005 -->
      <g transform="translate(45.571875 34.595965) scale(0.1 -0.1)">
       <use xlink:href="#DejaVuSans-30"/>
       <use xlink:href="#DejaVuSans-2e" transform="translate(63.623047 0)"/>
       <use xlink:href="#DejaVuSans-30" transform="translate(95.410156 0)"/>
       <use xlink:href="#DejaVuSans-30" transform="translate(159.033203 0)"/>
       <use xlink:href="#DejaVuSans-35" transform="translate(222.65625 0)"/>
      </g>
     </g>
    </g>
    <g id="text_14">
     <!-- Std Dev -->
     <g transform="translate(39.492188 162.463594) rotate(-90) scale(0.1 -0.1)">
      <defs>
       <path id="DejaVuSans-53" d="M 3425 4513 
L 3425 3897 
Q 3066 4069 2747 4153 
Q 2428 4238 2131 4238 
Q 1616 4238 1336 4038 
Q 1056 3838 1056 3469 
Q 1056 3159 1242 3001 
Q 1428 2844 1947 2747 
L 2328 2669 
Q 3034 2534 3370 2195 
Q 3706 1856 3706 1288 
Q 3706 609 3251 259 
Q 2797 -91 1919 -91 
Q 1588 -91 1214 -16 
Q 841 59 441 206 
L 441 856 
Q 825 641 1194 531 
Q 1563 422 1919 422 
Q 2459 422 2753 634 
Q 3047 847 3047 1241 
Q 3047 1584 2836 1778 
Q 2625 1972 2144 2069 
L 1759 2144 
Q 1053 2284 737 2584 
Q 422 2884 422 3419 
Q 422 4038 858 4394 
Q 1294 4750 2059 4750 
Q 2388 4750 2728 4690 
Q 3069 4631 3425 4513 
z
" transform="scale(0.015625)"/>
       <path id="DejaVuSans-74" d="M 1172 4494 
L 1172 3500 
L 2356 3500 
L 2356 3053 
L 1172 3053 
L 1172 1153 
Q 1172 725 1289 603 
Q 1406 481 1766 481 
L 2356 481 
L 2356 0 
L 1766 0 
Q 1100 0 847 248 
Q 594 497 594 1153 
L 594 3053 
L 172 3053 
L 172 3500 
L 594 3500 
L 594 4494 
L 1172 4494 
z
" transform="scale(0.015625)"/>
       <path id="DejaVuSans-64" d="M 2906 2969 
L 2906 4863 
L 3481 4863 
L 3481 0 
L 2906 0 
L 2906 525 
Q 2725 213 2448 61 
Q 2172 -91 1784 -91 
Q 1150 -91 751 415 
Q 353 922 353 1747 
Q 353 2572 751 3078 
Q 1150 3584 1784 3584 
Q 2172 3584 2448 3432 
Q 2725 3281 2906 2969 
z
M 947 1747 
Q 947 1113 1208 752 
Q 1469 391 1925 391 
Q 2381 391 2643 752 
Q 2906 1113 2906 1747 
Q 2906 2381 2643 2742 
Q 2381 3103 1925 3103 
Q 1469 3103 1208 2742 
Q 947 2381 947 1747 
z
" transform="scale(0.015625)"/>
       <path id="DejaVuSans-20" transform="scale(0.015625)"/>
       <path id="DejaVuSans-44" d="M 1259 4147 
L 1259 519 
L 2022 519 
Q 2988 519 3436 956 
Q 3884 1394 3884 2338 
Q 3884 3275 3436 3711 
Q 2988 4147 2022 4147 
L 1259 4147 
z
M 628 4666 
L 1925 4666 
Q 3281 4666 3915 4102 
Q 4550 3538 4550 2338 
Q 4550 1131 3912 565 
Q 3275 0 1925 0 
L 628 0 
L 628 4666 
z
" transform="scale(0.015625)"/>
       <path id="DejaVuSans-65" d="M 3597 1894 
L 3597 1613 
L 953 1613 
Q 991 1019 1311 708 
Q 1631 397 2203 397 
Q 2534 397 2845 478 
Q 3156 559 3463 722 
L 3463 178 
Q 3153 47 2828 -22 
Q 2503 -91 2169 -91 
Q 1331 -91 842 396 
Q 353 884 353 1716 
Q 353 2575 817 3079 
Q 1281 3584 2069 3584 
Q 2775 3584 3186 3129 
Q 3597 2675 3597 1894 
z
M 3022 2063 
Q 3016 2534 2758 2815 
Q 2500 3097 2075 3097 
Q 1594 3097 1305 2825 
Q 1016 2553 972 2059 
L 3022 2063 
z
" transform="scale(0.015625)"/>
       <path id="DejaVuSans-76" d="M 191 3500 
L 800 3500 
L 1894 563 
L 2988 3500 
L 3597 3500 
L 2284 0 
L 1503 0 
L 191 3500 
z
" transform="scale(0.015625)"/>
      </defs>
      <use xlink:href="#DejaVuSans-53"/>
      <use xlink:href="#DejaVuSans-74" transform="translate(63.476562 0)"/>
      <use xlink:href="#DejaVuSans-64" transform="translate(102.685547 0)"/>
      <use xlink:href="#DejaVuSans-20" transform="translate(166.162109 0)"/>
      <use xlink:href="#DejaVuSans-44" transform="translate(197.949219 0)"/>
      <use xlink:href="#DejaVuSans-65" transform="translate(274.951172 0)"/>
      <use xlink:href="#DejaVuSans-76" transform="translate(336.474609 0)"/>
     </g>
    </g>
   </g>
   <g id="line2d_27">
    <path d="M 116.290909 227.340481 
L 135.09515 227.340486 
L 135.23833 235.472265 
L 135.524689 239.062209 
L 135.811048 240.025414 
L 136.145133 240.424347 
L 136.670125 240.681846 
L 137.624655 240.860921 
L 139.772347 240.988768 
L 151.46534 241.260959 
L 158.719768 241.348283 
L 158.862947 246.691692 
L 159.626571 247.121158 
L 160.581101 247.301469 
L 162.633341 247.418048 
L 168.455974 247.457948 
L 171.701376 247.568204 
L 177.714915 247.643268 
L 194.371463 247.829195 
L 198.285036 247.915181 
L 215.371123 247.949893 
L 350.198485 247.952692 
L 350.341665 227.340481 
L 369.050453 227.340482 
L 369.193632 235.466425 
L 369.479991 239.056857 
L 369.76635 240.022033 
L 370.100436 240.422129 
L 370.625427 240.680619 
L 371.579957 240.860691 
L 373.72765 240.989547 
L 384.561565 241.235981 
L 392.67507 241.338404 
L 392.81825 246.692175 
L 393.581874 247.121503 
L 394.536404 247.301627 
L 396.588643 247.418061 
L 402.411276 247.457924 
L 405.656678 247.56882 
L 411.670217 247.643499 
L 428.279039 247.82811 
L 432.144886 247.914949 
L 448.896887 247.950538 
L 584.153788 247.952727 
L 584.296968 37.407273 
L 603.005756 37.407288 
L 603.196662 226.601283 
L 603.387568 236.583206 
L 603.6262 238.988435 
L 603.912559 239.882823 
L 604.294371 240.334056 
L 604.819363 240.557937 
L 605.67844 240.636677 
L 609.782919 240.80484 
L 615.366919 241.069336 
L 624.100869 241.217609 
L 626.630373 241.217609 
L 626.773553 246.561354 
L 627.537177 246.964306 
L 628.491707 247.123964 
L 630.591673 247.205793 
L 661.709351 247.610444 
L 661.85253 247.764769 
L 664.954753 247.893374 
L 674.500053 247.934582 
L 702.372329 247.949838 
L 818.109091 247.952564 
L 818.109091 247.952564 
" clip-path="url(#pa831334749)" style="fill: none; stroke: #0000ff; stroke-width: 1.5; stroke-linecap: square"/>
   </g>
   <g id="line2d_28">
    <path d="M 116.290909 227.340481 
L 135.09515 227.340488 
L 135.23833 235.470863 
L 135.524689 239.05039 
L 135.811048 240.01021 
L 136.145133 240.408305 
L 136.670125 240.665692 
L 137.624655 240.844183 
L 139.820074 240.970912 
L 152.801682 241.274858 
L 158.719768 241.334553 
L 158.862947 246.691202 
L 159.626571 247.120921 
L 160.581101 247.301403 
L 162.633341 247.41799 
L 168.408247 247.457939 
L 171.701376 247.568096 
L 177.714915 247.643248 
L 194.371463 247.82923 
L 198.285036 247.915208 
L 215.371123 247.949921 
L 350.198485 247.952695 
L 350.341665 227.340481 
L 369.050453 227.340484 
L 369.193632 235.464921 
L 369.479991 239.045834 
L 369.76635 240.008098 
L 370.100436 240.407558 
L 370.625427 240.666047 
L 371.579957 240.845572 
L 373.775376 240.973236 
L 385.897907 241.251231 
L 392.67507 241.325983 
L 392.81825 246.692605 
L 393.581874 247.121645 
L 394.536404 247.301735 
L 396.588643 247.418058 
L 402.411276 247.457919 
L 405.656678 247.568835 
L 411.670217 247.643492 
L 428.279039 247.828087 
L 432.144886 247.914947 
L 448.896887 247.950543 
L 584.153788 247.952727 
L 584.296968 37.407273 
L 603.005756 37.407724 
L 603.196662 226.601153 
L 603.387568 236.585869 
L 603.6262 238.989051 
L 603.912559 239.883889 
L 604.294371 240.334467 
L 604.819363 240.558603 
L 605.67844 240.637417 
L 609.782919 240.805706 
L 615.510099 241.074793 
L 624.100869 241.219014 
L 626.630373 241.219014 
L 626.773553 246.56122 
L 627.537177 246.964013 
L 628.491707 247.123661 
L 630.591673 247.205361 
L 661.709351 247.610219 
L 661.85253 247.764742 
L 665.002479 247.89426 
L 674.738685 247.93578 
L 704.94956 247.949848 
L 818.109091 247.952564 
L 818.109091 247.952564 
" clip-path="url(#pa831334749)" style="fill: none; stroke-dasharray: 5.55,2.4; stroke-dashoffset: 0; stroke: #ff0000; stroke-width: 1.5"/>
   </g>
   <g id="line2d_29">
    <path d="M 350.246212 258.48 
L 350.246212 26.88 
" clip-path="url(#pa831334749)" style="fill: none; stroke-dasharray: 1.5,2.475; stroke-dashoffset: 0; stroke: #808080; stroke-opacity: 0.6; stroke-width: 1.5"/>
   </g>
   <g id="line2d_30">
    <path d="M 584.201515 258.48 
L 584.201515 26.88 
" clip-path="url(#pa831334749)" style="fill: none; stroke-dasharray: 1.5,2.475; stroke-dashoffset: 0; stroke: #808080; stroke-opacity: 0.6; stroke-width: 1.5"/>
   </g>
   <g id="patch_3">
    <path d="M 81.2 258.48 
L 81.2 26.88 
" style="fill: none; stroke: #000000; stroke-width: 0.8; stroke-linejoin: miter; stroke-linecap: square"/>
   </g>
   <g id="patch_4">
    <path d="M 853.2 258.48 
L 853.2 26.88 
" style="fill: none; stroke: #000000; stroke-width: 0.8; stroke-linejoin: miter; stroke-linecap: square"/>
   </g>
   <g id="patch_5">
    <path d="M 81.2 258.48 
L 853.2 258.48 
" style="fill: none; stroke: #000000; stroke-width: 0.8; stroke-linejoin: miter; stroke-linecap: square"/>
   </g>
   <g id="patch_6">
    <path d="M 81.2 26.88 
L 853.2 26.88 
" style="fill: none; stroke: #000000; stroke-width: 0.8; stroke-linejoin: miter; stroke-linecap: square"/>
   </g>
   <g id="text_15">
    <!-- [17] dKg_zy  —  Uncertainty (std dev) -->
    <g transform="translate(354.207812 20.88) scale(0.12 -0.12)">
     <defs>
      <path id="DejaVuSans-5b" d="M 550 4863 
L 1875 4863 
L 1875 4416 
L 1125 4416 
L 1125 -397 
L 1875 -397 
L 1875 -844 
L 550 -844 
L 550 4863 
z
" transform="scale(0.015625)"/>
      <path id="DejaVuSans-37" d="M 525 4666 
L 3525 4666 
L 3525 4397 
L 1831 0 
L 1172 0 
L 2766 4134 
L 525 4134 
L 525 4666 
z
" transform="scale(0.015625)"/>
      <path id="DejaVuSans-5d" d="M 1947 4863 
L 1947 -844 
L 622 -844 
L 622 -397 
L 1369 -397 
L 1369 4416 
L 622 4416 
L 622 4863 
L 1947 4863 
z
" transform="scale(0.015625)"/>
      <path id="DejaVuSans-4b" d="M 628 4666 
L 1259 4666 
L 1259 2694 
L 3353 4666 
L 4166 4666 
L 1850 2491 
L 4331 0 
L 3500 0 
L 1259 2247 
L 1259 0 
L 628 0 
L 628 4666 
z
" transform="scale(0.015625)"/>
      <path id="DejaVuSans-67" d="M 2906 1791 
Q 2906 2416 2648 2759 
Q 2391 3103 1925 3103 
Q 1463 3103 1205 2759 
Q 947 2416 947 1791 
Q 947 1169 1205 825 
Q 1463 481 1925 481 
Q 2391 481 2648 825 
Q 2906 1169 2906 1791 
z
M 3481 434 
Q 3481 -459 3084 -895 
Q 2688 -1331 1869 -1331 
Q 1566 -1331 1297 -1286 
Q 1028 -1241 775 -1147 
L 775 -588 
Q 1028 -725 1275 -790 
Q 1522 -856 1778 -856 
Q 2344 -856 2625 -561 
Q 2906 -266 2906 331 
L 2906 616 
Q 2728 306 2450 153 
Q 2172 0 1784 0 
Q 1141 0 747 490 
Q 353 981 353 1791 
Q 353 2603 747 3093 
Q 1141 3584 1784 3584 
Q 2172 3584 2450 3431 
Q 2728 3278 2906 2969 
L 2906 3500 
L 3481 3500 
L 3481 434 
z
" transform="scale(0.015625)"/>
      <path id="DejaVuSans-5f" d="M 3263 -1063 
L 3263 -1509 
L -63 -1509 
L -63 -1063 
L 3263 -1063 
z
" transform="scale(0.015625)"/>
      <path id="DejaVuSans-7a" d="M 353 3500 
L 3084 3500 
L 3084 2975 
L 922 459 
L 3084 459 
L 3084 0 
L 275 0 
L 275 525 
L 2438 3041 
L 353 3041 
L 353 3500 
z
" transform="scale(0.015625)"/>
      <path id="DejaVuSans-79" d="M 2059 -325 
Q 1816 -950 1584 -1140 
Q 1353 -1331 966 -1331 
L 506 -1331 
L 506 -850 
L 844 -850 
Q 1081 -850 1212 -737 
Q 1344 -625 1503 -206 
L 1606 56 
L 191 3500 
L 800 3500 
L 1894 763 
L 2988 3500 
L 3597 3500 
L 2059 -325 
z
" transform="scale(0.015625)"/>
      <path id="DejaVuSans-2014" d="M 313 1978 
L 6088 1978 
L 6088 1528 
L 313 1528 
L 313 1978 
z
" transform="scale(0.015625)"/>
      <path id="DejaVuSans-55" d="M 556 4666 
L 1191 4666 
L 1191 1831 
Q 1191 1081 1462 751 
Q 1734 422 2344 422 
Q 2950 422 3222 751 
Q 3494 1081 3494 1831 
L 3494 4666 
L 4128 4666 
L 4128 1753 
Q 4128 841 3676 375 
Q 3225 -91 2344 -91 
Q 1459 -91 1007 375 
Q 556 841 556 1753 
L 556 4666 
z
" transform="scale(0.015625)"/>
      <path id="DejaVuSans-6e" d="M 3513 2113 
L 3513 0 
L 2938 0 
L 2938 2094 
Q 2938 2591 2744 2837 
Q 2550 3084 2163 3084 
Q 1697 3084 1428 2787 
Q 1159 2491 1159 1978 
L 1159 0 
L 581 0 
L 581 3500 
L 1159 3500 
L 1159 2956 
Q 1366 3272 1645 3428 
Q 1925 3584 2291 3584 
Q 2894 3584 3203 3211 
Q 3513 2838 3513 2113 
z
" transform="scale(0.015625)"/>
      <path id="DejaVuSans-63" d="M 3122 3366 
L 3122 2828 
Q 2878 2963 2633 3030 
Q 2388 3097 2138 3097 
Q 1578 3097 1268 2742 
Q 959 2388 959 1747 
Q 959 1106 1268 751 
Q 1578 397 2138 397 
Q 2388 397 2633 464 
Q 2878 531 3122 666 
L 3122 134 
Q 2881 22 2623 -34 
Q 2366 -91 2075 -91 
Q 1284 -91 818 406 
Q 353 903 353 1747 
Q 353 2603 823 3093 
Q 1294 3584 2113 3584 
Q 2378 3584 2631 3529 
Q 2884 3475 3122 3366 
z
" transform="scale(0.015625)"/>
      <path id="DejaVuSans-72" d="M 2631 2963 
Q 2534 3019 2420 3045 
Q 2306 3072 2169 3072 
Q 1681 3072 1420 2755 
Q 1159 2438 1159 1844 
L 1159 0 
L 581 0 
L 581 3500 
L 1159 3500 
L 1159 2956 
Q 1341 3275 1631 3429 
Q 1922 3584 2338 3584 
Q 2397 3584 2469 3576 
Q 2541 3569 2628 3553 
L 2631 2963 
z
" transform="scale(0.015625)"/>
      <path id="DejaVuSans-61" d="M 2194 1759 
Q 1497 1759 1228 1600 
Q 959 1441 959 1056 
Q 959 750 1161 570 
Q 1363 391 1709 391 
Q 2188 391 2477 730 
Q 2766 1069 2766 1631 
L 2766 1759 
L 2194 1759 
z
M 3341 1997 
L 3341 0 
L 2766 0 
L 2766 531 
Q 2569 213 2275 61 
Q 1981 -91 1556 -91 
Q 1019 -91 701 211 
Q 384 513 384 1019 
Q 384 1609 779 1909 
Q 1175 2209 1959 2209 
L 2766 2209 
L 2766 2266 
Q 2766 2663 2505 2880 
Q 2244 3097 1772 3097 
Q 1472 3097 1187 3025 
Q 903 2953 641 2809 
L 641 3341 
Q 956 3463 1253 3523 
Q 1550 3584 1831 3584 
Q 2591 3584 2966 3190 
Q 3341 2797 3341 1997 
z
" transform="scale(0.015625)"/>
      <path id="DejaVuSans-69" d="M 603 3500 
L 1178 3500 
L 1178 0 
L 603 0 
L 603 3500 
z
M 603 4863 
L 1178 4863 
L 1178 4134 
L 603 4134 
L 603 4863 
z
" transform="scale(0.015625)"/>
      <path id="DejaVuSans-28" d="M 1984 4856 
Q 1566 4138 1362 3434 
Q 1159 2731 1159 2009 
Q 1159 1288 1364 580 
Q 1569 -128 1984 -844 
L 1484 -844 
Q 1016 -109 783 600 
Q 550 1309 550 2009 
Q 550 2706 781 3412 
Q 1013 4119 1484 4856 
L 1984 4856 
z
" transform="scale(0.015625)"/>
      <path id="DejaVuSans-73" d="M 2834 3397 
L 2834 2853 
Q 2591 2978 2328 3040 
Q 2066 3103 1784 3103 
Q 1356 3103 1142 2972 
Q 928 2841 928 2578 
Q 928 2378 1081 2264 
Q 1234 2150 1697 2047 
L 1894 2003 
Q 2506 1872 2764 1633 
Q 3022 1394 3022 966 
Q 3022 478 2636 193 
Q 2250 -91 1575 -91 
Q 1294 -91 989 -36 
Q 684 19 347 128 
L 347 722 
Q 666 556 975 473 
Q 1284 391 1588 391 
Q 1994 391 2212 530 
Q 2431 669 2431 922 
Q 2431 1156 2273 1281 
Q 2116 1406 1581 1522 
L 1381 1569 
Q 847 1681 609 1914 
Q 372 2147 372 2553 
Q 372 3047 722 3315 
Q 1072 3584 1716 3584 
Q 2034 3584 2315 3537 
Q 2597 3491 2834 3397 
z
" transform="scale(0.015625)"/>
      <path id="DejaVuSans-29" d="M 513 4856 
L 1013 4856 
Q 1481 4119 1714 3412 
Q 1947 2706 1947 2009 
Q 1947 1309 1714 600 
Q 1481 -109 1013 -844 
L 513 -844 
Q 928 -128 1133 580 
Q 1338 1288 1338 2009 
Q 1338 2731 1133 3434 
Q 928 4138 513 4856 
z
" transform="scale(0.015625)"/>
     </defs>
     <use xlink:href="#DejaVuSans-5b"/>
     <use xlink:href="#DejaVuSans-31" transform="translate(39.013672 0)"/>
     <use xlink:href="#DejaVuSans-37" transform="translate(102.636719 0)"/>
     <use xlink:href="#DejaVuSans-5d" transform="translate(166.259766 0)"/>
     <use xlink:href="#DejaVuSans-20" transform="translate(205.273438 0)"/>
     <use xlink:href="#DejaVuSans-64" transform="translate(237.060547 0)"/>
     <use xlink:href="#DejaVuSans-4b" transform="translate(300.537109 0)"/>
     <use xlink:href="#DejaVuSans-67" transform="translate(366.113281 0)"/>
     <use xlink:href="#DejaVuSans-5f" transform="translate(429.589844 0)"/>
     <use xlink:href="#DejaVuSans-7a" transform="translate(479.589844 0)"/>
     <use xlink:href="#DejaVuSans-79" transform="translate(532.080078 0)"/>
     <use xlink:href="#DejaVuSans-20" transform="translate(591.259766 0)"/>
     <use xlink:href="#DejaVuSans-20" transform="translate(623.046875 0)"/>
     <use xlink:href="#DejaVuSans-2014" transform="translate(654.833984 0)"/>
     <use xlink:href="#DejaVuSans-20" transform="translate(754.833984 0)"/>
     <use xlink:href="#DejaVuSans-20" transform="translate(786.621094 0)"/>
     <use xlink:href="#DejaVuSans-55" transform="translate(818.408203 0)"/>
     <use xlink:href="#DejaVuSans-6e" transform="translate(891.601562 0)"/>
     <use xlink:href="#DejaVuSans-63" transform="translate(954.980469 0)"/>
     <use xlink:href="#DejaVuSans-65" transform="translate(1009.960938 0)"/>
     <use xlink:href="#DejaVuSans-72" transform="translate(1071.484375 0)"/>
     <use xlink:href="#DejaVuSans-74" transform="translate(1112.597656 0)"/>
     <use xlink:href="#DejaVuSans-61" transform="translate(1151.806641 0)"/>
     <use xlink:href="#DejaVuSans-69" transform="translate(1213.085938 0)"/>
     <use xlink:href="#DejaVuSans-6e" transform="translate(1240.869141 0)"/>
     <use xlink:href="#DejaVuSans-74" transform="translate(1304.248047 0)"/>
     <use xlink:href="#DejaVuSans-79" transform="translate(1343.457031 0)"/>
     <use xlink:href="#DejaVuSans-20" transform="translate(1402.636719 0)"/>
     <use xlink:href="#DejaVuSans-28" transform="translate(1434.423828 0)"/>
     <use xlink:href="#DejaVuSans-73" transform="translate(1473.4375 0)"/>
     <use xlink:href="#DejaVuSans-74" transform="translate(1525.537109 0)"/>
     <use xlink:href="#DejaVuSans-64" transform="translate(1564.746094 0)"/>
     <use xlink:href="#DejaVuSans-20" transform="translate(1628.222656 0)"/>
     <use xlink:href="#DejaVuSans-64" transform="translate(1660.009766 0)"/>
     <use xlink:href="#DejaVuSans-65" transform="translate(1723.486328 0)"/>
     <use xlink:href="#DejaVuSans-76" transform="translate(1785.009766 0)"/>
     <use xlink:href="#DejaVuSans-29" transform="translate(1844.189453 0)"/>
    </g>
   </g>
   <g id="legend_1">
    <g id="patch_7">
     <path d="M 738.401563 64.23625 
L 846.2 64.23625 
Q 848.2 64.23625 848.2 62.23625 
L 848.2 33.88 
Q 848.2 31.88 846.2 31.88 
L 738.401563 31.88 
Q 736.401563 31.88 736.401563 33.88 
L 736.401563 62.23625 
Q 736.401563 64.23625 738.401563 64.23625 
z
" style="fill: #ffffff; opacity: 0.8; stroke: #cccccc; stroke-linejoin: miter"/>
    </g>
    <g id="line2d_31">
     <path d="M 740.401563 39.978437 
L 750.401563 39.978437 
L 760.401563 39.978437 
" style="fill: none; stroke: #0000ff; stroke-width: 1.5; stroke-linecap: square"/>
    </g>
    <g id="text_16">
     <!-- No Noise -->
     <g transform="translate(768.401563 43.478437) scale(0.1 -0.1)">
      <defs>
       <path id="DejaVuSans-4e" d="M 628 4666 
L 1478 4666 
L 3547 763 
L 3547 4666 
L 4159 4666 
L 4159 0 
L 3309 0 
L 1241 3903 
L 1241 0 
L 628 0 
L 628 4666 
z
" transform="scale(0.015625)"/>
       <path id="DejaVuSans-6f" d="M 1959 3097 
Q 1497 3097 1228 2736 
Q 959 2375 959 1747 
Q 959 1119 1226 758 
Q 1494 397 1959 397 
Q 2419 397 2687 759 
Q 2956 1122 2956 1747 
Q 2956 2369 2687 2733 
Q 2419 3097 1959 3097 
z
M 1959 3584 
Q 2709 3584 3137 3096 
Q 3566 2609 3566 1747 
Q 3566 888 3137 398 
Q 2709 -91 1959 -91 
Q 1206 -91 779 398 
Q 353 888 353 1747 
Q 353 2609 779 3096 
Q 1206 3584 1959 3584 
z
" transform="scale(0.015625)"/>
      </defs>
      <use xlink:href="#DejaVuSans-4e"/>
      <use xlink:href="#DejaVuSans-6f" transform="translate(74.804688 0)"/>
      <use xlink:href="#DejaVuSans-20" transform="translate(135.986328 0)"/>
      <use xlink:href="#DejaVuSans-4e" transform="translate(167.773438 0)"/>
      <use xlink:href="#DejaVuSans-6f" transform="translate(242.578125 0)"/>
      <use xlink:href="#DejaVuSans-69" transform="translate(303.759766 0)"/>
      <use xlink:href="#DejaVuSans-73" transform="translate(331.542969 0)"/>
      <use xlink:href="#DejaVuSans-65" transform="translate(383.642578 0)"/>
     </g>
    </g>
    <g id="line2d_32">
     <path d="M 740.401563 54.656562 
L 750.401563 54.656562 
L 760.401563 54.656562 
" style="fill: none; stroke-dasharray: 5.55,2.4; stroke-dashoffset: 0; stroke: #ff0000; stroke-width: 1.5"/>
    </g>
    <g id="text_17">
     <!-- With ARW/VRW -->
     <g transform="translate(768.401563 58.156562) scale(0.1 -0.1)">
      <defs>
       <path id="DejaVuSans-57" d="M 213 4666 
L 850 4666 
L 1831 722 
L 2809 4666 
L 3519 4666 
L 4500 722 
L 5478 4666 
L 6119 4666 
L 4947 0 
L 4153 0 
L 3169 4050 
L 2175 0 
L 1381 0 
L 213 4666 
z
" transform="scale(0.015625)"/>
       <path id="DejaVuSans-68" d="M 3513 2113 
L 3513 0 
L 2938 0 
L 2938 2094 
Q 2938 2591 2744 2837 
Q 2550 3084 2163 3084 
Q 1697 3084 1428 2787 
Q 1159 2491 1159 1978 
L 1159 0 
L 581 0 
L 581 4863 
L 1159 4863 
L 1159 2956 
Q 1366 3272 1645 3428 
Q 1925 3584 2291 3584 
Q 2894 3584 3203 3211 
Q 3513 2838 3513 2113 
z
" transform="scale(0.015625)"/>
       <path id="DejaVuSans-41" d="M 2188 4044 
L 1331 1722 
L 3047 1722 
L 2188 4044 
z
M 1831 4666 
L 2547 4666 
L 4325 0 
L 3669 0 
L 3244 1197 
L 1141 1197 
L 716 0 
L 50 0 
L 1831 4666 
z
" transform="scale(0.015625)"/>
       <path id="DejaVuSans-52" d="M 2841 2188 
Q 3044 2119 3236 1894 
Q 3428 1669 3622 1275 
L 4263 0 
L 3584 0 
L 2988 1197 
Q 2756 1666 2539 1819 
Q 2322 1972 1947 1972 
L 1259 1972 
L 1259 0 
L 628 0 
L 628 4666 
L 2053 4666 
Q 2853 4666 3247 4331 
Q 3641 3997 3641 3322 
Q 3641 2881 3436 2590 
Q 3231 2300 2841 2188 
z
M 1259 4147 
L 1259 2491 
L 2053 2491 
Q 2509 2491 2742 2702 
Q 2975 2913 2975 3322 
Q 2975 3731 2742 3939 
Q 2509 4147 2053 4147 
L 1259 4147 
z
" transform="scale(0.015625)"/>
       <path id="DejaVuSans-2f" d="M 1625 4666 
L 2156 4666 
L 531 -594 
L 0 -594 
L 1625 4666 
z
" transform="scale(0.015625)"/>
       <path id="DejaVuSans-56" d="M 1831 0 
L 50 4666 
L 709 4666 
L 2188 738 
L 3669 4666 
L 4325 4666 
L 2547 0 
L 1831 0 
z
" transform="scale(0.015625)"/>
      </defs>
      <use xlink:href="#DejaVuSans-57"/>
      <use xlink:href="#DejaVuSans-69" transform="translate(96.626953 0)"/>
      <use xlink:href="#DejaVuSans-74" transform="translate(124.410156 0)"/>
      <use xlink:href="#DejaVuSans-68" transform="translate(163.619141 0)"/>
      <use xlink:href="#DejaVuSans-20" transform="translate(226.998047 0)"/>
      <use xlink:href="#DejaVuSans-41" transform="translate(258.785156 0)"/>
      <use xlink:href="#DejaVuSans-52" transform="translate(327.193359 0)"/>
      <use xlink:href="#DejaVuSans-57" transform="translate(392.675781 0)"/>
      <use xlink:href="#DejaVuSans-2f" transform="translate(491.552734 0)"/>
      <use xlink:href="#DejaVuSans-56" transform="translate(525.244141 0)"/>
      <use xlink:href="#DejaVuSans-52" transform="translate(593.652344 0)"/>
      <use xlink:href="#DejaVuSans-57" transform="translate(659.134766 0)"/>
     </g>
    </g>
   </g>
  </g>
  <g id="axes_2">
   <g id="patch_8">
    <path d="M 81.2 534.04 
L 853.2 534.04 
L 853.2 302.44 
L 81.2 302.44 
z
" style="fill: #ffffff"/>
   </g>
   <g id="matplotlib.axis_3">
    <g id="xtick_8">
     <g id="line2d_33">
      <path d="M 116.290909 534.04 
L 116.290909 302.44 
" clip-path="url(#pf71b7c9519)" style="fill: none; stroke: #b0b0b0; stroke-width: 0.8; stroke-linecap: square"/>
     </g>
     <g id="line2d_34">
      <g>
       <use xlink:href="#m9639d21fbc" x="116.290909" y="534.04" style="stroke: #000000; stroke-width: 0.8"/>
      </g>
     </g>
     <g id="text_18">
      <!-- 0 -->
      <g transform="translate(113.109659 548.638438) scale(0.1 -0.1)">
       <use xlink:href="#DejaVuSans-30"/>
      </g>
     </g>
    </g>
    <g id="xtick_9">
     <g id="line2d_35">
      <path d="M 235.607159 534.04 
L 235.607159 302.44 
" clip-path="url(#pf71b7c9519)" style="fill: none; stroke: #b0b0b0; stroke-width: 0.8; stroke-linecap: square"/>
     </g>
     <g id="line2d_36">
      <g>
       <use xlink:href="#m9639d21fbc" x="235.607159" y="534.04" style="stroke: #000000; stroke-width: 0.8"/>
      </g>
     </g>
     <g id="text_19">
      <!-- 50 -->
      <g transform="translate(229.244659 548.638438) scale(0.1 -0.1)">
       <use xlink:href="#DejaVuSans-35"/>
       <use xlink:href="#DejaVuSans-30" transform="translate(63.623047 0)"/>
      </g>
     </g>
    </g>
    <g id="xtick_10">
     <g id="line2d_37">
      <path d="M 354.923409 534.04 
L 354.923409 302.44 
" clip-path="url(#pf71b7c9519)" style="fill: none; stroke: #b0b0b0; stroke-width: 0.8; stroke-linecap: square"/>
     </g>
     <g id="line2d_38">
      <g>
       <use xlink:href="#m9639d21fbc" x="354.923409" y="534.04" style="stroke: #000000; stroke-width: 0.8"/>
      </g>
     </g>
     <g id="text_20">
      <!-- 100 -->
      <g transform="translate(345.379659 548.638438) scale(0.1 -0.1)">
       <use xlink:href="#DejaVuSans-31"/>
       <use xlink:href="#DejaVuSans-30" transform="translate(63.623047 0)"/>
       <use xlink:href="#DejaVuSans-30" transform="translate(127.246094 0)"/>
      </g>
     </g>
    </g>
    <g id="xtick_11">
     <g id="line2d_39">
      <path d="M 474.239659 534.04 
L 474.239659 302.44 
" clip-path="url(#pf71b7c9519)" style="fill: none; stroke: #b0b0b0; stroke-width: 0.8; stroke-linecap: square"/>
     </g>
     <g id="line2d_40">
      <g>
       <use xlink:href="#m9639d21fbc" x="474.239659" y="534.04" style="stroke: #000000; stroke-width: 0.8"/>
      </g>
     </g>
     <g id="text_21">
      <!-- 150 -->
      <g transform="translate(464.695909 548.638438) scale(0.1 -0.1)">
       <use xlink:href="#DejaVuSans-31"/>
       <use xlink:href="#DejaVuSans-35" transform="translate(63.623047 0)"/>
       <use xlink:href="#DejaVuSans-30" transform="translate(127.246094 0)"/>
      </g>
     </g>
    </g>
    <g id="xtick_12">
     <g id="line2d_41">
      <path d="M 593.555909 534.04 
L 593.555909 302.44 
" clip-path="url(#pf71b7c9519)" style="fill: none; stroke: #b0b0b0; stroke-width: 0.8; stroke-linecap: square"/>
     </g>
     <g id="line2d_42">
      <g>
       <use xlink:href="#m9639d21fbc" x="593.555909" y="534.04" style="stroke: #000000; stroke-width: 0.8"/>
      </g>
     </g>
     <g id="text_22">
      <!-- 200 -->
      <g transform="translate(584.012159 548.638438) scale(0.1 -0.1)">
       <use xlink:href="#DejaVuSans-32"/>
       <use xlink:href="#DejaVuSans-30" transform="translate(63.623047 0)"/>
       <use xlink:href="#DejaVuSans-30" transform="translate(127.246094 0)"/>
      </g>
     </g>
    </g>
    <g id="xtick_13">
     <g id="line2d_43">
      <path d="M 712.872159 534.04 
L 712.872159 302.44 
" clip-path="url(#pf71b7c9519)" style="fill: none; stroke: #b0b0b0; stroke-width: 0.8; stroke-linecap: square"/>
     </g>
     <g id="line2d_44">
      <g>
       <use xlink:href="#m9639d21fbc" x="712.872159" y="534.04" style="stroke: #000000; stroke-width: 0.8"/>
      </g>
     </g>
     <g id="text_23">
      <!-- 250 -->
      <g transform="translate(703.328409 548.638438) scale(0.1 -0.1)">
       <use xlink:href="#DejaVuSans-32"/>
       <use xlink:href="#DejaVuSans-35" transform="translate(63.623047 0)"/>
       <use xlink:href="#DejaVuSans-30" transform="translate(127.246094 0)"/>
      </g>
     </g>
    </g>
    <g id="xtick_14">
     <g id="line2d_45">
      <path d="M 832.188408 534.04 
L 832.188408 302.44 
" clip-path="url(#pf71b7c9519)" style="fill: none; stroke: #b0b0b0; stroke-width: 0.8; stroke-linecap: square"/>
     </g>
     <g id="line2d_46">
      <g>
       <use xlink:href="#m9639d21fbc" x="832.188408" y="534.04" style="stroke: #000000; stroke-width: 0.8"/>
      </g>
     </g>
     <g id="text_24">
      <!-- 300 -->
      <g transform="translate(822.644658 548.638438) scale(0.1 -0.1)">
       <use xlink:href="#DejaVuSans-33"/>
       <use xlink:href="#DejaVuSans-30" transform="translate(63.623047 0)"/>
       <use xlink:href="#DejaVuSans-30" transform="translate(127.246094 0)"/>
      </g>
     </g>
    </g>
    <g id="text_25">
     <!-- Time (s) -->
     <g transform="translate(446.871094 562.316562) scale(0.1 -0.1)">
      <defs>
       <path id="DejaVuSans-54" d="M -19 4666 
L 3928 4666 
L 3928 4134 
L 2272 4134 
L 2272 0 
L 1638 0 
L 1638 4134 
L -19 4134 
L -19 4666 
z
" transform="scale(0.015625)"/>
       <path id="DejaVuSans-6d" d="M 3328 2828 
Q 3544 3216 3844 3400 
Q 4144 3584 4550 3584 
Q 5097 3584 5394 3201 
Q 5691 2819 5691 2113 
L 5691 0 
L 5113 0 
L 5113 2094 
Q 5113 2597 4934 2840 
Q 4756 3084 4391 3084 
Q 3944 3084 3684 2787 
Q 3425 2491 3425 1978 
L 3425 0 
L 2847 0 
L 2847 2094 
Q 2847 2600 2669 2842 
Q 2491 3084 2119 3084 
Q 1678 3084 1418 2786 
Q 1159 2488 1159 1978 
L 1159 0 
L 581 0 
L 581 3500 
L 1159 3500 
L 1159 2956 
Q 1356 3278 1631 3431 
Q 1906 3584 2284 3584 
Q 2666 3584 2933 3390 
Q 3200 3197 3328 2828 
z
" transform="scale(0.015625)"/>
      </defs>
      <use xlink:href="#DejaVuSans-54"/>
      <use xlink:href="#DejaVuSans-69" transform="translate(57.958984 0)"/>
      <use xlink:href="#DejaVuSans-6d" transform="translate(85.742188 0)"/>
      <use xlink:href="#DejaVuSans-65" transform="translate(183.154297 0)"/>
      <use xlink:href="#DejaVuSans-20" transform="translate(244.677734 0)"/>
      <use xlink:href="#DejaVuSans-28" transform="translate(276.464844 0)"/>
      <use xlink:href="#DejaVuSans-73" transform="translate(315.478516 0)"/>
      <use xlink:href="#DejaVuSans-29" transform="translate(367.578125 0)"/>
     </g>
    </g>
   </g>
   <g id="matplotlib.axis_4">
    <g id="ytick_7">
     <g id="line2d_47">
      <path d="M 81.2 523.711628 
L 853.2 523.711628 
" clip-path="url(#pf71b7c9519)" style="fill: none; stroke: #b0b0b0; stroke-width: 0.8; stroke-linecap: square"/>
     </g>
     <g id="line2d_48">
      <g>
       <use xlink:href="#m785ec628eb" x="81.2" y="523.711628" style="stroke: #000000; stroke-width: 0.8"/>
      </g>
     </g>
     <g id="text_26">
      <!-- −0.00005 -->
      <g transform="translate(24.467188 527.510847) scale(0.1 -0.1)">
       <defs>
        <path id="DejaVuSans-2212" d="M 678 2272 
L 4684 2272 
L 4684 1741 
L 678 1741 
L 678 2272 
z
" transform="scale(0.015625)"/>
       </defs>
       <use xlink:href="#DejaVuSans-2212"/>
       <use xlink:href="#DejaVuSans-30" transform="translate(83.789062 0)"/>
       <use xlink:href="#DejaVuSans-2e" transform="translate(147.412109 0)"/>
       <use xlink:href="#DejaVuSans-30" transform="translate(179.199219 0)"/>
       <use xlink:href="#DejaVuSans-30" transform="translate(242.822266 0)"/>
       <use xlink:href="#DejaVuSans-30" transform="translate(306.445312 0)"/>
       <use xlink:href="#DejaVuSans-30" transform="translate(370.068359 0)"/>
       <use xlink:href="#DejaVuSans-35" transform="translate(433.691406 0)"/>
      </g>
     </g>
    </g>
    <g id="ytick_8">
     <g id="line2d_49">
      <path d="M 81.2 492.644274 
L 853.2 492.644274 
" clip-path="url(#pf71b7c9519)" style="fill: none; stroke: #b0b0b0; stroke-width: 0.8; stroke-linecap: square"/>
     </g>
     <g id="line2d_50">
      <g>
       <use xlink:href="#m785ec628eb" x="81.2" y="492.644274" style="stroke: #000000; stroke-width: 0.8"/>
      </g>
     </g>
     <g id="text_27">
      <!-- 0.00000 -->
      <g transform="translate(32.846875 496.443493) scale(0.1 -0.1)">
       <use xlink:href="#DejaVuSans-30"/>
       <use xlink:href="#DejaVuSans-2e" transform="translate(63.623047 0)"/>
       <use xlink:href="#DejaVuSans-30" transform="translate(95.410156 0)"/>
       <use xlink:href="#DejaVuSans-30" transform="translate(159.033203 0)"/>
       <use xlink:href="#DejaVuSans-30" transform="translate(222.65625 0)"/>
       <use xlink:href="#DejaVuSans-30" transform="translate(286.279297 0)"/>
       <use xlink:href="#DejaVuSans-30" transform="translate(349.902344 0)"/>
      </g>
     </g>
    </g>
    <g id="ytick_9">
     <g id="line2d_51">
      <path d="M 81.2 461.57692 
L 853.2 461.57692 
" clip-path="url(#pf71b7c9519)" style="fill: none; stroke: #b0b0b0; stroke-width: 0.8; stroke-linecap: square"/>
     </g>
     <g id="line2d_52">
      <g>
       <use xlink:href="#m785ec628eb" x="81.2" y="461.57692" style="stroke: #000000; stroke-width: 0.8"/>
      </g>
     </g>
     <g id="text_28">
      <!-- 0.00005 -->
      <g transform="translate(32.846875 465.376139) scale(0.1 -0.1)">
       <use xlink:href="#DejaVuSans-30"/>
       <use xlink:href="#DejaVuSans-2e" transform="translate(63.623047 0)"/>
       <use xlink:href="#DejaVuSans-30" transform="translate(95.410156 0)"/>
       <use xlink:href="#DejaVuSans-30" transform="translate(159.033203 0)"/>
       <use xlink:href="#DejaVuSans-30" transform="translate(222.65625 0)"/>
       <use xlink:href="#DejaVuSans-30" transform="translate(286.279297 0)"/>
       <use xlink:href="#DejaVuSans-35" transform="translate(349.902344 0)"/>
      </g>
     </g>
    </g>
    <g id="ytick_10">
     <g id="line2d_53">
      <path d="M 81.2 430.509567 
L 853.2 430.509567 
" clip-path="url(#pf71b7c9519)" style="fill: none; stroke: #b0b0b0; stroke-width: 0.8; stroke-linecap: square"/>
     </g>
     <g id="line2d_54">
      <g>
       <use xlink:href="#m785ec628eb" x="81.2" y="430.509567" style="stroke: #000000; stroke-width: 0.8"/>
      </g>
     </g>
     <g id="text_29">
      <!-- 0.00010 -->
      <g transform="translate(32.846875 434.308785) scale(0.1 -0.1)">
       <use xlink:href="#DejaVuSans-30"/>
       <use xlink:href="#DejaVuSans-2e" transform="translate(63.623047 0)"/>
       <use xlink:href="#DejaVuSans-30" transform="translate(95.410156 0)"/>
       <use xlink:href="#DejaVuSans-30" transform="translate(159.033203 0)"/>
       <use xlink:href="#DejaVuSans-30" transform="translate(222.65625 0)"/>
       <use xlink:href="#DejaVuSans-31" transform="translate(286.279297 0)"/>
       <use xlink:href="#DejaVuSans-30" transform="translate(349.902344 0)"/>
      </g>
     </g>
    </g>
    <g id="ytick_11">
     <g id="line2d_55">
      <path d="M 81.2 399.442213 
L 853.2 399.442213 
" clip-path="url(#pf71b7c9519)" style="fill: none; stroke: #b0b0b0; stroke-width: 0.8; stroke-linecap: square"/>
     </g>
     <g id="line2d_56">
      <g>
       <use xlink:href="#m785ec628eb" x="81.2" y="399.442213" style="stroke: #000000; stroke-width: 0.8"/>
      </g>
     </g>
     <g id="text_30">
      <!-- 0.00015 -->
      <g transform="translate(32.846875 403.241431) scale(0.1 -0.1)">
       <use xlink:href="#DejaVuSans-30"/>
       <use xlink:href="#DejaVuSans-2e" transform="translate(63.623047 0)"/>
       <use xlink:href="#DejaVuSans-30" transform="translate(95.410156 0)"/>
       <use xlink:href="#DejaVuSans-30" transform="translate(159.033203 0)"/>
       <use xlink:href="#DejaVuSans-30" transform="translate(222.65625 0)"/>
       <use xlink:href="#DejaVuSans-31" transform="translate(286.279297 0)"/>
       <use xlink:href="#DejaVuSans-35" transform="translate(349.902344 0)"/>
      </g>
     </g>
    </g>
    <g id="ytick_12">
     <g id="line2d_57">
      <path d="M 81.2 368.374859 
L 853.2 368.374859 
" clip-path="url(#pf71b7c9519)" style="fill: none; stroke: #b0b0b0; stroke-width: 0.8; stroke-linecap: square"/>
     </g>
     <g id="line2d_58">
      <g>
       <use xlink:href="#m785ec628eb" x="81.2" y="368.374859" style="stroke: #000000; stroke-width: 0.8"/>
      </g>
     </g>
     <g id="text_31">
      <!-- 0.00020 -->
      <g transform="translate(32.846875 372.174078) scale(0.1 -0.1)">
       <use xlink:href="#DejaVuSans-30"/>
       <use xlink:href="#DejaVuSans-2e" transform="translate(63.623047 0)"/>
       <use xlink:href="#DejaVuSans-30" transform="translate(95.410156 0)"/>
       <use xlink:href="#DejaVuSans-30" transform="translate(159.033203 0)"/>
       <use xlink:href="#DejaVuSans-30" transform="translate(222.65625 0)"/>
       <use xlink:href="#DejaVuSans-32" transform="translate(286.279297 0)"/>
       <use xlink:href="#DejaVuSans-30" transform="translate(349.902344 0)"/>
      </g>
     </g>
    </g>
    <g id="ytick_13">
     <g id="line2d_59">
      <path d="M 81.2 337.307505 
L 853.2 337.307505 
" clip-path="url(#pf71b7c9519)" style="fill: none; stroke: #b0b0b0; stroke-width: 0.8; stroke-linecap: square"/>
     </g>
     <g id="line2d_60">
      <g>
       <use xlink:href="#m785ec628eb" x="81.2" y="337.307505" style="stroke: #000000; stroke-width: 0.8"/>
      </g>
     </g>
     <g id="text_32">
      <!-- 0.00025 -->
      <g transform="translate(32.846875 341.106724) scale(0.1 -0.1)">
       <use xlink:href="#DejaVuSans-30"/>
       <use xlink:href="#DejaVuSans-2e" transform="translate(63.623047 0)"/>
       <use xlink:href="#DejaVuSans-30" transform="translate(95.410156 0)"/>
       <use xlink:href="#DejaVuSans-30" transform="translate(159.033203 0)"/>
       <use xlink:href="#DejaVuSans-30" transform="translate(222.65625 0)"/>
       <use xlink:href="#DejaVuSans-32" transform="translate(286.279297 0)"/>
       <use xlink:href="#DejaVuSans-35" transform="translate(349.902344 0)"/>
      </g>
     </g>
    </g>
    <g id="ytick_14">
     <g id="line2d_61">
      <path d="M 81.2 306.240151 
L 853.2 306.240151 
" clip-path="url(#pf71b7c9519)" style="fill: none; stroke: #b0b0b0; stroke-width: 0.8; stroke-linecap: square"/>
     </g>
     <g id="line2d_62">
      <g>
       <use xlink:href="#m785ec628eb" x="81.2" y="306.240151" style="stroke: #000000; stroke-width: 0.8"/>
      </g>
     </g>
     <g id="text_33">
      <!-- 0.00030 -->
      <g transform="translate(32.846875 310.03937) scale(0.1 -0.1)">
       <use xlink:href="#DejaVuSans-30"/>
       <use xlink:href="#DejaVuSans-2e" transform="translate(63.623047 0)"/>
       <use xlink:href="#DejaVuSans-30" transform="translate(95.410156 0)"/>
       <use xlink:href="#DejaVuSans-30" transform="translate(159.033203 0)"/>
       <use xlink:href="#DejaVuSans-30" transform="translate(222.65625 0)"/>
       <use xlink:href="#DejaVuSans-33" transform="translate(286.279297 0)"/>
       <use xlink:href="#DejaVuSans-30" transform="translate(349.902344 0)"/>
      </g>
     </g>
    </g>
    <g id="text_34">
     <!-- Estimated Value -->
     <g transform="translate(18.3875 458.818906) rotate(-90) scale(0.1 -0.1)">
      <defs>
       <path id="DejaVuSans-45" d="M 628 4666 
L 3578 4666 
L 3578 4134 
L 1259 4134 
L 1259 2753 
L 3481 2753 
L 3481 2222 
L 1259 2222 
L 1259 531 
L 3634 531 
L 3634 0 
L 628 0 
L 628 4666 
z
" transform="scale(0.015625)"/>
       <path id="DejaVuSans-6c" d="M 603 4863 
L 1178 4863 
L 1178 0 
L 603 0 
L 603 4863 
z
" transform="scale(0.015625)"/>
       <path id="DejaVuSans-75" d="M 544 1381 
L 544 3500 
L 1119 3500 
L 1119 1403 
Q 1119 906 1312 657 
Q 1506 409 1894 409 
Q 2359 409 2629 706 
Q 2900 1003 2900 1516 
L 2900 3500 
L 3475 3500 
L 3475 0 
L 2900 0 
L 2900 538 
Q 2691 219 2414 64 
Q 2138 -91 1772 -91 
Q 1169 -91 856 284 
Q 544 659 544 1381 
z
M 1991 3584 
L 1991 3584 
z
" transform="scale(0.015625)"/>
      </defs>
      <use xlink:href="#DejaVuSans-45"/>
      <use xlink:href="#DejaVuSans-73" transform="translate(63.183594 0)"/>
      <use xlink:href="#DejaVuSans-74" transform="translate(115.283203 0)"/>
      <use xlink:href="#DejaVuSans-69" transform="translate(154.492188 0)"/>
      <use xlink:href="#DejaVuSans-6d" transform="translate(182.275391 0)"/>
      <use xlink:href="#DejaVuSans-61" transform="translate(279.6875 0)"/>
      <use xlink:href="#DejaVuSans-74" transform="translate(340.966797 0)"/>
      <use xlink:href="#DejaVuSans-65" transform="translate(380.175781 0)"/>
      <use xlink:href="#DejaVuSans-64" transform="translate(441.699219 0)"/>
      <use xlink:href="#DejaVuSans-20" transform="translate(505.175781 0)"/>
      <use xlink:href="#DejaVuSans-56" transform="translate(536.962891 0)"/>
      <use xlink:href="#DejaVuSans-61" transform="translate(597.621094 0)"/>
      <use xlink:href="#DejaVuSans-6c" transform="translate(658.900391 0)"/>
      <use xlink:href="#DejaVuSans-75" transform="translate(686.683594 0)"/>
      <use xlink:href="#DejaVuSans-65" transform="translate(750.0625 0)"/>
     </g>
    </g>
   </g>
   <g id="line2d_63">
    <path d="M 116.290909 492.644274 
L 125.883936 492.534106 
L 135.09515 492.301535 
L 135.23833 420.807061 
L 135.524689 393.586393 
L 135.763321 388.404944 
L 136.04968 386.273624 
L 136.383766 385.305207 
L 136.765578 384.883333 
L 137.195116 384.765389 
L 137.767834 384.866787 
L 138.722364 385.300935 
L 143.208655 387.603448 
L 144.735903 388.028154 
L 146.263151 388.217601 
L 147.885852 388.184683 
L 149.699459 387.916742 
L 151.990331 387.337449 
L 155.665272 386.141378 
L 156.428896 385.994813 
L 158.719768 385.994813 
L 158.862947 332.290085 
L 159.483392 328.531116 
L 159.865204 327.712382 
L 160.294742 327.315737 
L 160.772007 327.175167 
L 161.440178 327.229468 
L 162.537888 327.583853 
L 166.73782 329.132149 
L 168.026435 329.337165 
L 170.41276 329.337165 
L 170.55594 330.434292 
L 171.033205 330.301548 
L 172.608179 329.870994 
L 175.376316 329.377471 
L 179.528522 328.870661 
L 182.392112 328.773618 
L 185.160249 326.784322 
L 187.5943 325.492336 
L 191.030608 323.928584 
L 191.41242 323.868141 
L 193.798745 323.868141 
L 193.941925 319.116118 
L 195.039634 316.83452 
L 195.803258 315.884925 
L 196.710062 315.124601 
L 197.807771 314.506498 
L 199.19184 313.994416 
L 201.005447 313.574551 
L 203.105413 313.310435 
L 210.837105 313.200014 
L 216.707465 313.004467 
L 263.9567 313.093684 
L 264.099879 313.212406 
L 267.393008 313.19669 
L 278.083744 313.159622 
L 310.680943 313.203563 
L 346.571271 313.092863 
L 350.198485 313.02446 
L 350.341665 492.644274 
L 369.050453 492.626124 
L 369.336812 495.526557 
L 369.575444 496.501561 
L 369.90953 496.945534 
L 370.529974 497.333302 
L 372.057222 497.952161 
L 374.920812 498.864543 
L 377.54577 499.480244 
L 380.027548 499.834822 
L 382.652505 499.979632 
L 385.802454 499.918659 
L 392.67507 499.622321 
L 392.81825 494.471625 
L 393.486421 493.732057 
L 394.106865 493.525745 
L 395.204575 493.440565 
L 397.877259 493.520019 
L 403.270353 493.655487 
L 404.368063 493.655487 
L 404.511242 493.880504 
L 406.611208 493.951249 
L 411.76567 493.829352 
L 427.754048 493.399694 
L 427.897227 492.677874 
L 429.567655 492.169374 
L 431.524441 491.907513 
L 434.960749 491.700333 
L 439.351587 491.641175 
L 584.153788 491.649799 
L 584.296968 492.644274 
L 603.053482 492.533391 
L 603.244388 492.496439 
L 606.346611 492.700235 
L 610.689722 492.540104 
L 617.991877 492.450375 
L 628.682613 492.511035 
L 638.084733 492.525616 
L 818.109091 492.538333 
L 818.109091 492.538333 
" clip-path="url(#pf71b7c9519)" style="fill: none; stroke: #0000ff; stroke-width: 1.5; stroke-linecap: square"/>
   </g>
   <g id="line2d_64">
    <path d="M 116.290909 492.644274 
L 124.308961 492.53362 
L 135.09515 492.133561 
L 135.23833 433.265335 
L 135.429236 421.526996 
L 135.572415 418.712816 
L 136.288313 402.5637 
L 136.336039 402.448392 
L 136.383766 402.585951 
L 136.431492 402.730109 
L 136.622398 401.261958 
L 136.861031 401.404156 
L 137.099663 400.812082 
L 137.14739 400.749073 
L 137.195116 400.9148 
L 137.242843 400.824943 
L 137.290569 400.829007 
L 137.672381 399.189698 
L 137.767834 399.221847 
L 138.006467 400.689453 
L 138.10192 400.507369 
L 138.197373 400.602968 
L 138.292826 400.369446 
L 138.436005 400.732563 
L 138.483732 400.596505 
L 138.722364 399.798734 
L 138.817817 399.919965 
L 139.008723 400.195406 
L 139.05645 400.157033 
L 139.581441 401.668382 
L 139.772347 401.545117 
L 140.297339 402.589612 
L 140.440518 402.729066 
L 140.535971 402.704965 
L 140.870057 403.289166 
L 141.204142 403.115961 
L 141.681407 403.517007 
L 142.063219 403.107429 
L 142.540484 404.938828 
L 142.779117 405.072482 
L 142.922296 405.069376 
L 143.256382 405.851552 
L 143.495014 406.175045 
L 143.590467 406.236795 
L 144.020006 407.236208 
L 144.115459 407.142139 
L 144.163185 407.201815 
L 144.306365 407.428288 
L 144.354091 407.380186 
L 144.64045 407.066383 
L 144.831356 406.903385 
L 145.117715 407.504772 
L 145.404074 407.578079 
L 145.59498 407.88746 
L 145.881339 408.230354 
L 146.263151 408.097469 
L 146.454057 408.274333 
L 146.740416 409.253575 
L 147.169955 409.647367 
L 147.551767 409.065337 
L 147.742673 408.653777 
L 147.790399 408.675832 
L 147.933579 408.328844 
L 148.076758 407.951695 
L 148.45857 408.181237 
L 148.649476 407.936032 
L 148.744929 408.029255 
L 148.888109 408.342352 
L 148.935835 408.31922 
L 149.4131 408.120695 
L 149.460827 408.181605 
L 149.699459 407.749193 
L 150.033545 407.308995 
L 150.081271 407.361528 
L 150.128998 407.263016 
L 150.606263 406.760233 
L 150.844895 406.341287 
L 150.988075 406.44558 
L 151.035801 406.39957 
L 151.131254 406.271412 
L 151.894878 404.102337 
L 152.038058 404.143029 
L 152.228964 403.858923 
L 152.372143 403.921773 
L 152.563049 403.986803 
L 152.706229 404.04043 
L 152.849408 404.157379 
L 152.992588 404.304832 
L 153.040314 404.245875 
L 153.278947 404.216209 
L 153.947118 404.926194 
L 154.32893 404.688705 
L 154.472109 404.696083 
L 154.663015 404.378759 
L 154.710742 404.421999 
L 154.758468 404.356594 
L 154.901648 404.243474 
L 155.044827 404.120242 
L 155.474366 404.30784 
L 155.617545 404.446474 
L 155.665272 404.372875 
L 155.760725 404.236034 
L 155.808451 404.327541 
L 155.999357 404.542154 
L 156.047084 404.46671 
L 156.190263 404.402474 
L 158.719768 404.402474 
L 158.815221 327.654636 
L 158.862947 327.660736 
L 158.910674 327.659131 
L 158.9584 327.373901 
L 159.006127 327.424861 
L 159.053853 327.522638 
L 159.10158 327.375639 
L 159.197033 327.313678 
L 159.387939 326.930619 
L 159.483392 327.071625 
L 159.531118 326.99004 
L 159.674298 326.993364 
L 159.722024 327.065869 
L 159.769751 327.030197 
L 160.008383 326.989475 
L 160.199289 327.414792 
L 160.294742 327.608296 
L 160.390195 327.495009 
L 160.676554 327.002285 
L 160.86746 326.981939 
L 161.106093 326.952061 
L 161.296999 327.01985 
L 161.535631 326.784972 
L 162.108349 327.061075 
L 162.537888 327.405613 
L 162.681067 327.546073 
L 162.967426 327.729748 
L 163.492418 328.014227 
L 164.399221 328.556875 
L 164.733307 328.761642 
L 165.067392 328.999434 
L 165.449204 329.173754 
L 165.878743 329.246778 
L 166.880999 329.696803 
L 167.787803 329.889011 
L 170.41276 329.889011 
L 170.460487 330.843709 
L 170.55594 330.79309 
L 170.651393 330.704507 
L 171.033205 330.022938 
L 171.224111 329.836377 
L 171.558196 329.426029 
L 171.844555 329.393401 
L 173.085444 328.472186 
L 173.27635 328.50604 
L 173.514983 328.56746 
L 174.087701 328.123161 
L 174.517239 327.850762 
L 175.424043 327.286472 
L 175.901308 326.840852 
L 176.28312 326.62264 
L 176.855838 326.329073 
L 177.333103 326.180161 
L 177.905821 326.065253 
L 179.433069 325.99275 
L 180.530778 325.987671 
L 182.535291 325.902502 
L 183.871633 324.334189 
L 185.351155 323.358524 
L 185.732967 323.375369 
L 186.210232 323.189611 
L 186.735223 323.112813 
L 187.117035 323.210842 
L 188.54883 322.674787 
L 188.882916 322.473341 
L 189.455634 322.273202 
L 189.980625 322.287105 
L 191.794232 322.158007 
L 193.798745 322.158007 
L 193.941925 320.332272 
L 194.228284 319.956324 
L 194.514643 319.320939 
L 194.848728 318.862146 
L 195.37372 318.388715 
L 195.564626 318.310433 
L 196.089617 318.420722 
L 197.616865 317.99078 
L 198.571395 317.584 
L 199.04866 317.340538 
L 199.335019 317.192738 
L 200.241823 316.668989 
L 201.387259 316.068761 
L 202.962233 315.557347 
L 206.303088 315.451782 
L 207.066712 315.248494 
L 208.116695 315.152075 
L 213.22343 315.051904 
L 214.32114 314.948973 
L 223.389175 314.914432 
L 227.302748 314.940914 
L 263.9567 314.993496 
L 264.099879 315.165966 
L 266.724837 315.10702 
L 271.067948 314.986705 
L 276.747402 314.948596 
L 299.035677 315.007497 
L 299.178857 314.922025 
L 323.901184 314.769393 
L 327.719304 314.76109 
L 338.362313 314.831509 
L 345.569015 314.790217 
L 346.332639 314.679381 
L 348.528058 314.60992 
L 350.198485 314.575246 
L 350.341665 492.644274 
L 369.050453 492.576897 
L 369.336812 511.207569 
L 369.575444 517.018406 
L 370.195889 508.307717 
L 370.243615 507.992923 
L 370.291342 508.018699 
L 370.386795 508.542225 
L 370.577701 507.464638 
L 370.816333 507.940558 
L 370.911786 507.516363 
L 371.007239 507.630481 
L 371.102692 507.55623 
L 371.150419 507.762055 
L 371.245872 507.737856 
L 371.627684 506.288651 
L 371.723137 506.352287 
L 371.961769 507.898001 
L 372.057222 507.737961 
L 372.152675 507.847539 
L 372.248128 507.623222 
L 372.391308 508.008028 
L 372.439034 507.874676 
L 372.677667 507.098713 
L 372.77312 507.236035 
L 372.964026 507.535671 
L 373.011752 507.499396 
L 373.536744 509.029503 
L 373.72765 508.914988 
L 374.252641 509.960482 
L 374.395821 510.101424 
L 374.491274 510.08223 
L 374.825359 510.671936 
L 375.159445 510.504205 
L 375.63671 510.919644 
L 376.018522 510.526929 
L 376.543513 512.43959 
L 376.686693 512.474402 
L 377.211684 513.362701 
L 377.450317 513.707741 
L 377.54577 513.785464 
L 377.975308 514.83813 
L 378.070761 514.764713 
L 378.118488 514.831218 
L 378.261667 515.074597 
L 378.309394 515.033366 
L 378.595753 514.763151 
L 378.786659 514.634911 
L 379.073018 515.278596 
L 379.359377 515.387983 
L 379.598009 515.814433 
L 379.836642 516.11426 
L 380.218454 516.051632 
L 380.40936 516.268115 
L 380.743445 517.34002 
L 380.982078 517.741848 
L 381.125257 517.766911 
L 381.507069 517.274231 
L 381.697975 516.908494 
L 381.793428 516.888588 
L 382.032061 516.277087 
L 382.413873 516.585961 
L 382.604779 516.38616 
L 382.700232 516.496216 
L 382.843411 516.828747 
L 382.891138 516.814436 
L 383.368403 516.716398 
L 383.416129 516.787722 
L 383.607035 516.401226 
L 383.654762 516.421535 
L 383.988847 516.058529 
L 384.036574 516.120489 
L 384.0843 516.034907 
L 384.561565 515.631657 
L 384.752471 515.266839 
L 384.847924 515.325877 
L 384.991104 515.358134 
L 385.086557 515.253487 
L 385.850181 513.254943 
L 386.041087 513.224272 
L 386.184266 513.077637 
L 386.327446 513.171277 
L 386.518352 513.271033 
L 386.661531 513.352832 
L 386.804711 513.502183 
L 386.94789 513.681242 
L 386.995617 513.6302 
L 387.234249 513.644296 
L 387.90242 514.477641 
L 388.284232 514.32189 
L 388.427412 514.35686 
L 388.618318 514.079132 
L 388.666044 514.130252 
L 388.713771 514.074065 
L 388.85695 513.985477 
L 389.00013 513.887306 
L 389.429668 514.153141 
L 389.572848 514.317662 
L 389.620574 514.254749 
L 389.716027 514.137667 
L 389.763754 514.237625 
L 389.95466 514.487624 
L 390.002386 514.421168 
L 390.193292 514.367922 
L 392.67507 514.367922 
L 392.770523 486.975805 
L 392.81825 487.218458 
L 393.200062 488.820702 
L 393.820506 489.881218 
L 393.963686 490.022389 
L 394.154592 490.541227 
L 394.250045 490.765111 
L 394.345498 490.673778 
L 394.631857 490.198806 
L 394.822763 490.162394 
L 395.061395 490.089375 
L 395.252301 490.107674 
L 395.490934 489.799472 
L 396.111378 489.898143 
L 396.49319 490.021635 
L 396.63637 490.100148 
L 396.875002 490.184381 
L 397.161361 490.087499 
L 397.829532 490.360279 
L 398.449977 490.347667 
L 398.927242 490.503264 
L 399.261327 490.572908 
L 399.834045 490.494983 
L 400.979481 490.681094 
L 404.606695 490.718987 
L 404.940781 490.320238 
L 405.513499 489.989572 
L 405.799858 490.086092 
L 407.183926 489.592809 
L 407.470285 489.762263 
L 408.043003 489.431358 
L 408.377089 489.267101 
L 408.711174 489.194887 
L 409.04526 489.06325 
L 409.713431 488.475968 
L 410.715687 488.0055 
L 410.95432 487.997009 
L 411.192952 487.905381 
L 411.527038 487.848001 
L 415.058799 487.807008 
L 416.299688 487.903085 
L 416.53832 488.013584 
L 416.967859 487.94076 
L 418.781466 487.750411 
L 419.783722 488.166775 
L 420.117808 488.223935 
L 420.49962 488.343913 
L 421.406423 488.786122 
L 421.740509 488.713612 
L 422.313227 488.886208 
L 422.599586 488.960327 
L 423.029124 488.933913 
L 425.12909 489.618301 
L 427.754048 489.618301 
L 427.897227 492.057625 
L 428.040407 492.092295 
L 428.326766 492.293173 
L 428.660851 492.185405 
L 429.281296 492.445761 
L 429.424475 492.461394 
L 430.379005 493.179928 
L 430.569911 493.289942 
L 430.951723 493.363328 
L 431.524441 493.45101 
L 431.8108 493.479976 
L 432.526698 493.379953 
L 433.003963 493.257936 
L 433.290322 493.174384 
L 434.578937 492.624971 
L 436.869809 491.994618 
L 440.258391 491.900091 
L 441.022015 491.732868 
L 442.024271 491.695237 
L 444.410596 491.763414 
L 445.078767 491.842704 
L 446.796921 491.953845 
L 447.703725 491.878471 
L 448.753708 491.885218 
L 505.548243 491.776196 
L 508.602739 491.724216 
L 584.153788 491.657583 
L 584.296968 492.644141 
L 586.778746 492.743725 
L 587.685549 493.468932 
L 588.115088 493.429814 
L 588.592353 493.468068 
L 589.30825 493.429494 
L 589.976421 493.551634 
L 590.167327 493.605192 
L 590.40596 493.470688 
L 591.312763 493.521225 
L 593.651362 493.65015 
L 593.842268 493.610722 
L 594.128627 493.428085 
L 598.85355 493.487731 
L 599.235362 493.513963 
L 599.80808 493.534666 
L 600.523978 493.596084 
L 603.005756 493.596084 
L 603.053482 491.485119 
L 603.101209 523.512727 
L 603.148935 502.061485 
L 603.196662 491.679757 
L 603.244388 500.004639 
L 603.387568 506.588443 
L 603.578474 503.254399 
L 603.912559 495.34029 
L 604.246645 489.517961 
L 604.294371 489.81779 
L 604.342098 490.118166 
L 604.533004 488.744683 
L 604.771636 489.181299 
L 604.819363 488.998239 
L 604.867089 488.729668 
L 604.914816 488.8623 
L 605.057995 488.759226 
L 605.201175 488.921048 
L 605.582987 487.944444 
L 605.726166 488.048139 
L 605.917072 488.399511 
L 605.964799 488.37462 
L 606.346611 488.354578 
L 606.680696 488.585813 
L 606.728423 488.513882 
L 606.919329 488.298163 
L 606.967055 488.319088 
L 607.110235 488.167465 
L 607.157961 488.172713 
L 607.492047 487.407392 
L 607.682953 487.535666 
L 607.921585 487.283351 
L 608.064765 487.287697 
L 608.446577 486.891244 
L 608.685209 486.204293 
L 609.257927 486.937808 
L 609.305654 486.881662 
L 609.639739 486.237349 
L 609.687466 486.397815 
L 609.973825 486.817059 
L 610.594269 483.639375 
L 610.641996 483.671201 
L 610.737449 483.877545 
L 610.785175 483.723068 
L 610.832902 483.650794 
L 611.023808 482.78534 
L 611.071534 482.81813 
L 611.166987 482.724199 
L 611.26244 482.779621 
L 611.596526 481.489578 
L 611.787432 480.690796 
L 611.930611 480.63339 
L 612.21697 479.976367 
L 612.312423 480.136189 
L 612.455603 480.476132 
L 612.503329 480.423144 
L 612.837415 480.009331 
L 612.980594 479.779213 
L 613.028321 479.813114 
L 613.076047 479.813005 
L 613.362406 480.553841 
L 613.457859 480.87533 
L 613.505586 480.815418 
L 613.839671 480.347174 
L 614.12603 480.778376 
L 614.412389 480.296952 
L 614.698748 480.811979 
L 615.032834 480.155522 
L 615.128287 480.2213 
L 615.366919 480.151609 
L 615.510099 480.390011 
L 615.557825 480.364032 
L 615.701005 480.640397 
L 616.03509 481.550304 
L 616.17827 481.787665 
L 616.225996 481.702242 
L 616.369176 481.666289 
L 616.607808 481.856685 
L 617.1328 483.413711 
L 617.228253 483.474925 
L 617.371432 483.560686 
L 617.610065 483.237378 
L 617.705518 483.314142 
L 617.94415 483.727897 
L 618.469142 484.770637 
L 618.89868 485.927109 
L 619.185039 486.245162 
L 620.187296 488.926036 
L 620.330475 489.031431 
L 620.569108 489.504598 
L 620.712287 489.50383 
L 620.855467 489.321406 
L 620.903193 489.424492 
L 621.189552 490.157455 
L 621.90545 491.149617 
L 622.096356 491.053018 
L 622.430441 491.517163 
L 622.7168 492.036984 
L 623.384971 493.153742 
L 623.719057 493.271552 
L 624.196322 493.339173 
L 626.630373 493.339173 
L 626.725826 480.996098 
L 626.773553 481.347543 
L 627.203091 484.095583 
L 627.680356 485.546188 
L 627.918989 485.833347 
L 628.109895 486.414608 
L 628.253074 486.641446 
L 628.300801 486.588108 
L 628.58716 486.156081 
L 628.778066 486.129596 
L 629.016698 486.059764 
L 629.207604 486.071893 
L 629.446237 485.779701 
L 630.209861 485.845804 
L 630.448493 485.873446 
L 630.639399 485.935285 
L 630.830305 485.955517 
L 631.212117 485.887489 
L 631.546203 485.946623 
L 631.832562 485.968143 
L 635.26887 486.003258 
L 637.750648 486.052042 
L 638.323366 486.052042 
L 638.466545 485.595581 
L 638.561998 485.537772 
L 638.848357 485.193436 
L 639.468802 484.956365 
L 639.755161 485.106527 
L 641.139229 484.761552 
L 641.425588 484.964718 
L 641.998306 484.688275 
L 642.332392 484.546792 
L 642.666477 484.503794 
L 643.000563 484.37576 
L 643.573281 483.87158 
L 644.050546 483.652407 
L 644.861896 483.392797 
L 645.195982 483.288049 
L 646.341418 483.246701 
L 646.818683 483.268851 
L 650.016358 483.295539 
L 650.111811 483.0406 
L 650.159538 483.087472 
L 650.350444 483.403323 
L 650.54135 483.58678 
L 651.49588 483.680071 
L 651.639059 483.770416 
L 652.259504 483.837052 
L 652.402683 483.878161 
L 652.736769 484.121993 
L 653.548119 485.02752 
L 653.977658 485.416885 
L 654.168564 485.506475 
L 654.550376 485.896274 
L 655.314 486.837762 
L 655.838991 486.815181 
L 656.220803 487.140688 
L 656.554889 487.390288 
L 656.936701 487.350594 
L 657.175333 487.471433 
L 657.366239 487.551664 
L 657.843504 488.039671 
L 658.416222 488.571909 
L 659.561658 488.969477 
L 661.709351 488.969477 
L 661.85253 492.223882 
L 661.99571 492.287447 
L 662.282069 492.592844 
L 662.616154 492.513024 
L 663.188872 492.885368 
L 663.427505 492.966992 
L 664.382035 493.767845 
L 665.002479 493.959525 
L 665.479744 494.07122 
L 665.766103 494.102656 
L 666.482001 493.998507 
L 666.911539 493.864687 
L 667.197898 493.815074 
L 667.818343 493.56745 
L 670.58648 492.661452 
L 671.493283 492.634338 
L 674.26142 492.52576 
L 675.168224 492.321163 
L 675.740942 492.315646 
L 676.218207 492.308497 
L 676.981831 492.343607 
L 681.181763 492.626154 
L 682.518105 492.622091 
L 739.360366 492.512125 
L 743.751204 492.469954 
L 749.048845 492.55903 
L 790.284541 492.513174 
L 790.475447 492.452344 
L 794.293567 492.404393 
L 801.977534 492.465088 
L 802.120713 492.537781 
L 811.952372 492.595117 
L 818.109091 492.520588 
L 818.109091 492.520588 
" clip-path="url(#pf71b7c9519)" style="fill: none; stroke-dasharray: 5.55,2.4; stroke-dashoffset: 0; stroke: #ff0000; stroke-width: 1.5"/>
   </g>
   <g id="line2d_65">
    <path d="M 350.246212 534.04 
L 350.246212 302.44 
" clip-path="url(#pf71b7c9519)" style="fill: none; stroke-dasharray: 1.5,2.475; stroke-dashoffset: 0; stroke: #808080; stroke-opacity: 0.6; stroke-width: 1.5"/>
   </g>
   <g id="line2d_66">
    <path d="M 584.201515 534.04 
L 584.201515 302.44 
" clip-path="url(#pf71b7c9519)" style="fill: none; stroke-dasharray: 1.5,2.475; stroke-dashoffset: 0; stroke: #808080; stroke-opacity: 0.6; stroke-width: 1.5"/>
   </g>
   <g id="patch_9">
    <path d="M 81.2 534.04 
L 81.2 302.44 
" style="fill: none; stroke: #000000; stroke-width: 0.8; stroke-linejoin: miter; stroke-linecap: square"/>
   </g>
   <g id="patch_10">
    <path d="M 853.2 534.04 
L 853.2 302.44 
" style="fill: none; stroke: #000000; stroke-width: 0.8; stroke-linejoin: miter; stroke-linecap: square"/>
   </g>
   <g id="patch_11">
    <path d="M 81.2 534.04 
L 853.2 534.04 
" style="fill: none; stroke: #000000; stroke-width: 0.8; stroke-linejoin: miter; stroke-linecap: square"/>
   </g>
   <g id="patch_12">
    <path d="M 81.2 302.44 
L 853.2 302.44 
" style="fill: none; stroke: #000000; stroke-width: 0.8; stroke-linejoin: miter; stroke-linecap: square"/>
   </g>
   <g id="text_35">
    <!-- [17] dKg_zy  —  State Estimate -->
    <g transform="translate(373.805313 296.44) scale(0.12 -0.12)">
     <use xlink:href="#DejaVuSans-5b"/>
     <use xlink:href="#DejaVuSans-31" transform="translate(39.013672 0)"/>
     <use xlink:href="#DejaVuSans-37" transform="translate(102.636719 0)"/>
     <use xlink:href="#DejaVuSans-5d" transform="translate(166.259766 0)"/>
     <use xlink:href="#DejaVuSans-20" transform="translate(205.273438 0)"/>
     <use xlink:href="#DejaVuSans-64" transform="translate(237.060547 0)"/>
     <use xlink:href="#DejaVuSans-4b" transform="translate(300.537109 0)"/>
     <use xlink:href="#DejaVuSans-67" transform="translate(366.113281 0)"/>
     <use xlink:href="#DejaVuSans-5f" transform="translate(429.589844 0)"/>
     <use xlink:href="#DejaVuSans-7a" transform="translate(479.589844 0)"/>
     <use xlink:href="#DejaVuSans-79" transform="translate(532.080078 0)"/>
     <use xlink:href="#DejaVuSans-20" transform="translate(591.259766 0)"/>
     <use xlink:href="#DejaVuSans-20" transform="translate(623.046875 0)"/>
     <use xlink:href="#DejaVuSans-2014" transform="translate(654.833984 0)"/>
     <use xlink:href="#DejaVuSans-20" transform="translate(754.833984 0)"/>
     <use xlink:href="#DejaVuSans-20" transform="translate(786.621094 0)"/>
     <use xlink:href="#DejaVuSans-53" transform="translate(818.408203 0)"/>
     <use xlink:href="#DejaVuSans-74" transform="translate(881.884766 0)"/>
     <use xlink:href="#DejaVuSans-61" transform="translate(921.09375 0)"/>
     <use xlink:href="#DejaVuSans-74" transform="translate(982.373047 0)"/>
     <use xlink:href="#DejaVuSans-65" transform="translate(1021.582031 0)"/>
     <use xlink:href="#DejaVuSans-20" transform="translate(1083.105469 0)"/>
     <use xlink:href="#DejaVuSans-45" transform="translate(1114.892578 0)"/>
     <use xlink:href="#DejaVuSans-73" transform="translate(1178.076172 0)"/>
     <use xlink:href="#DejaVuSans-74" transform="translate(1230.175781 0)"/>
     <use xlink:href="#DejaVuSans-69" transform="translate(1269.384766 0)"/>
     <use xlink:href="#DejaVuSans-6d" transform="translate(1297.167969 0)"/>
     <use xlink:href="#DejaVuSans-61" transform="translate(1394.580078 0)"/>
     <use xlink:href="#DejaVuSans-74" transform="translate(1455.859375 0)"/>
     <use xlink:href="#DejaVuSans-65" transform="translate(1495.068359 0)"/>
    </g>
   </g>
   <g id="legend_2">
    <g id="patch_13">
     <path d="M 738.401563 339.79625 
L 846.2 339.79625 
Q 848.2 339.79625 848.2 337.79625 
L 848.2 309.44 
Q 848.2 307.44 846.2 307.44 
L 738.401563 307.44 
Q 736.401563 307.44 736.401563 309.44 
L 736.401563 337.79625 
Q 736.401563 339.79625 738.401563 339.79625 
z
" style="fill: #ffffff; opacity: 0.8; stroke: #cccccc; stroke-linejoin: miter"/>
    </g>
    <g id="line2d_67">
     <path d="M 740.401563 315.538437 
L 750.401563 315.538437 
L 760.401563 315.538437 
" style="fill: none; stroke: #0000ff; stroke-width: 1.5; stroke-linecap: square"/>
    </g>
    <g id="text_36">
     <!-- No Noise -->
     <g transform="translate(768.401563 319.038437) scale(0.1 -0.1)">
      <use xlink:href="#DejaVuSans-4e"/>
      <use xlink:href="#DejaVuSans-6f" transform="translate(74.804688 0)"/>
      <use xlink:href="#DejaVuSans-20" transform="translate(135.986328 0)"/>
      <use xlink:href="#DejaVuSans-4e" transform="translate(167.773438 0)"/>
      <use xlink:href="#DejaVuSans-6f" transform="translate(242.578125 0)"/>
      <use xlink:href="#DejaVuSans-69" transform="translate(303.759766 0)"/>
      <use xlink:href="#DejaVuSans-73" transform="translate(331.542969 0)"/>
      <use xlink:href="#DejaVuSans-65" transform="translate(383.642578 0)"/>
     </g>
    </g>
    <g id="line2d_68">
     <path d="M 740.401563 330.216562 
L 750.401563 330.216562 
L 760.401563 330.216562 
" style="fill: none; stroke-dasharray: 5.55,2.4; stroke-dashoffset: 0; stroke: #ff0000; stroke-width: 1.5"/>
    </g>
    <g id="text_37">
     <!-- With ARW/VRW -->
     <g transform="translate(768.401563 333.716562) scale(0.1 -0.1)">
      <use xlink:href="#DejaVuSans-57"/>
      <use xlink:href="#DejaVuSans-69" transform="translate(96.626953 0)"/>
      <use xlink:href="#DejaVuSans-74" transform="translate(124.410156 0)"/>
      <use xlink:href="#DejaVuSans-68" transform="translate(163.619141 0)"/>
      <use xlink:href="#DejaVuSans-20" transform="translate(226.998047 0)"/>
      <use xlink:href="#DejaVuSans-41" transform="translate(258.785156 0)"/>
      <use xlink:href="#DejaVuSans-52" transform="translate(327.193359 0)"/>
      <use xlink:href="#DejaVuSans-57" transform="translate(392.675781 0)"/>
      <use xlink:href="#DejaVuSans-2f" transform="translate(491.552734 0)"/>
      <use xlink:href="#DejaVuSans-56" transform="translate(525.244141 0)"/>
      <use xlink:href="#DejaVuSans-52" transform="translate(593.652344 0)"/>
      <use xlink:href="#DejaVuSans-57" transform="translate(659.134766 0)"/>
     </g>
    </g>
   </g>
  </g>
 </g>
 <defs>
  <clipPath id="pa831334749">
   <rect x="81.2" y="26.88" width="772" height="231.6"/>
  </clipPath>
  <clipPath id="pf71b7c9519">
   <rect x="81.2" y="302.44" width="772" height="231.6"/>
  </clipPath>
 </defs>
</svg>
