<?xml version="1.0" encoding="utf-8" standalone="no"?>
<!DOCTYPE svg PUBLIC "-//W3C//DTD SVG 1.1//EN"
  "http://www.w3.org/Graphics/SVG/1.1/DTD/svg11.dtd">
<svg xmlns:xlink="http://www.w3.org/1999/xlink" width="864pt" height="576pt" viewBox="0 0 864 576" xmlns="http://www.w3.org/2000/svg" version="1.1">
 <metadata>
  <rdf:RDF xmlns:dc="http://purl.org/dc/elements/1.1/" xmlns:cc="http://creativecommons.org/ns#" xmlns:rdf="http://www.w3.org/1999/02/22-rdf-syntax-ns#">
   <cc:Work>
    <dc:type rdf:resource="http://purl.org/dc/dcmitype/StillImage"/>
    <dc:date>2026-03-09T19:21:58.354437</dc:date>
    <dc:format>image/svg+xml</dc:format>
    <dc:creator>
     <cc:Agent>
      <dc:title>Matplotlib v3.10.8, https://matplotlib.org/</dc:title>
     </cc:Agent>
    </dc:creator>
   </cc:Work>
  </rdf:RDF>
 </metadata>
 <defs>
  <style type="text/css">*{stroke-linejoin: round; stroke-linecap: butt}</style>
 </defs>
 <g id="figure_1">
  <g id="patch_1">
   <path d="M 0 576 
L 864 576 
L 864 0 
L 0 0 
z
" style="fill: #ffffff"/>
  </g>
  <g id="axes_1">
   <g id="patch_2">
    <path d="M 72.92 258.48 
L 853.2 258.48 
L 853.2 26.88 
L 72.92 26.88 
z
" style="fill: #ffffff"/>
   </g>
   <g id="matplotlib.axis_1">
    <g id="xtick_1">
     <g id="line2d_1">
      <path d="M 108.387273 258.48 
L 108.387273 26.88 
" clip-path="url(#p1150f46d43)" style="fill: none; stroke: #b0b0b0; stroke-width: 0.8; stroke-linecap: square"/>
     </g>
     <g id="line2d_2">
      <defs>
       <path id="m711773a90e" d="M 0 0 
L 0 3.5 
" style="stroke: #000000; stroke-width: 0.8"/>
      </defs>
      <g>
       <use xlink:href="#m711773a90e" x="108.387273" y="258.48" style="stroke: #000000; stroke-width: 0.8"/>
      </g>
     </g>
     <g id="text_1">
      <!-- 0 -->
      <g transform="translate(105.206023 273.078438) scale(0.1 -0.1)">
       <defs>
        <path id="DejaVuSans-30" d="M 2034 4250 
Q 1547 4250 1301 3770 
Q 1056 3291 1056 2328 
Q 1056 1369 1301 889 
Q 1547 409 2034 409 
Q 2525 409 2770 889 
Q 3016 1369 3016 2328 
Q 3016 3291 2770 3770 
Q 2525 4250 2034 4250 
z
M 2034 4750 
Q 2819 4750 3233 4129 
Q 3647 3509 3647 2328 
Q 3647 1150 3233 529 
Q 2819 -91 2034 -91 
Q 1250 -91 836 529 
Q 422 1150 422 2328 
Q 422 3509 836 4129 
Q 1250 4750 2034 4750 
z
" transform="scale(0.015625)"/>
       </defs>
       <use xlink:href="#DejaVuSans-30"/>
      </g>
     </g>
    </g>
    <g id="xtick_2">
     <g id="line2d_3">
      <path d="M 228.983236 258.48 
L 228.983236 26.88 
" clip-path="url(#p1150f46d43)" style="fill: none; stroke: #b0b0b0; stroke-width: 0.8; stroke-linecap: square"/>
     </g>
     <g id="line2d_4">
      <g>
       <use xlink:href="#m711773a90e" x="228.983236" y="258.48" style="stroke: #000000; stroke-width: 0.8"/>
      </g>
     </g>
     <g id="text_2">
      <!-- 50 -->
      <g transform="translate(222.620736 273.078438) scale(0.1 -0.1)">
       <defs>
        <path id="DejaVuSans-35" d="M 691 4666 
L 3169 4666 
L 3169 4134 
L 1269 4134 
L 1269 2991 
Q 1406 3038 1543 3061 
Q 1681 3084 1819 3084 
Q 2600 3084 3056 2656 
Q 3513 2228 3513 1497 
Q 3513 744 3044 326 
Q 2575 -91 1722 -91 
Q 1428 -91 1123 -41 
Q 819 9 494 109 
L 494 744 
Q 775 591 1075 516 
Q 1375 441 1709 441 
Q 2250 441 2565 725 
Q 2881 1009 2881 1497 
Q 2881 1984 2565 2268 
Q 2250 2553 1709 2553 
Q 1456 2553 1204 2497 
Q 953 2441 691 2322 
L 691 4666 
z
" transform="scale(0.015625)"/>
       </defs>
       <use xlink:href="#DejaVuSans-35"/>
       <use xlink:href="#DejaVuSans-30" transform="translate(63.623047 0)"/>
      </g>
     </g>
    </g>
    <g id="xtick_3">
     <g id="line2d_5">
      <path d="M 349.579199 258.48 
L 349.579199 26.88 
" clip-path="url(#p1150f46d43)" style="fill: none; stroke: #b0b0b0; stroke-width: 0.8; stroke-linecap: square"/>
     </g>
     <g id="line2d_6">
      <g>
       <use xlink:href="#m711773a90e" x="349.579199" y="258.48" style="stroke: #000000; stroke-width: 0.8"/>
      </g>
     </g>
     <g id="text_3">
      <!-- 100 -->
      <g transform="translate(340.035449 273.078438) scale(0.1 -0.1)">
       <defs>
        <path id="DejaVuSans-31" d="M 794 531 
L 1825 531 
L 1825 4091 
L 703 3866 
L 703 4441 
L 1819 4666 
L 2450 4666 
L 2450 531 
L 3481 531 
L 3481 0 
L 794 0 
L 794 531 
z
" transform="scale(0.015625)"/>
       </defs>
       <use xlink:href="#DejaVuSans-31"/>
       <use xlink:href="#DejaVuSans-30" transform="translate(63.623047 0)"/>
       <use xlink:href="#DejaVuSans-30" transform="translate(127.246094 0)"/>
      </g>
     </g>
    </g>
    <g id="xtick_4">
     <g id="line2d_7">
      <path d="M 470.175162 258.48 
L 470.175162 26.88 
" clip-path="url(#p1150f46d43)" style="fill: none; stroke: #b0b0b0; stroke-width: 0.8; stroke-linecap: square"/>
     </g>
     <g id="line2d_8">
      <g>
       <use xlink:href="#m711773a90e" x="470.175162" y="258.48" style="stroke: #000000; stroke-width: 0.8"/>
      </g>
     </g>
     <g id="text_4">
      <!-- 150 -->
      <g transform="translate(460.631412 273.078438) scale(0.1 -0.1)">
       <use xlink:href="#DejaVuSans-31"/>
       <use xlink:href="#DejaVuSans-35" transform="translate(63.623047 0)"/>
       <use xlink:href="#DejaVuSans-30" transform="translate(127.246094 0)"/>
      </g>
     </g>
    </g>
    <g id="xtick_5">
     <g id="line2d_9">
      <path d="M 590.771125 258.48 
L 590.771125 26.88 
" clip-path="url(#p1150f46d43)" style="fill: none; stroke: #b0b0b0; stroke-width: 0.8; stroke-linecap: square"/>
     </g>
     <g id="line2d_10">
      <g>
       <use xlink:href="#m711773a90e" x="590.771125" y="258.48" style="stroke: #000000; stroke-width: 0.8"/>
      </g>
     </g>
     <g id="text_5">
      <!-- 200 -->
      <g transform="translate(581.227375 273.078438) scale(0.1 -0.1)">
       <defs>
        <path id="DejaVuSans-32" d="M 1228 531 
L 3431 531 
L 3431 0 
L 469 0 
L 469 531 
Q 828 903 1448 1529 
Q 2069 2156 2228 2338 
Q 2531 2678 2651 2914 
Q 2772 3150 2772 3378 
Q 2772 3750 2511 3984 
Q 2250 4219 1831 4219 
Q 1534 4219 1204 4116 
Q 875 4013 500 3803 
L 500 4441 
Q 881 4594 1212 4672 
Q 1544 4750 1819 4750 
Q 2544 4750 2975 4387 
Q 3406 4025 3406 3419 
Q 3406 3131 3298 2873 
Q 3191 2616 2906 2266 
Q 2828 2175 2409 1742 
Q 1991 1309 1228 531 
z
" transform="scale(0.015625)"/>
       </defs>
       <use xlink:href="#DejaVuSans-32"/>
       <use xlink:href="#DejaVuSans-30" transform="translate(63.623047 0)"/>
       <use xlink:href="#DejaVuSans-30" transform="translate(127.246094 0)"/>
      </g>
     </g>
    </g>
    <g id="xtick_6">
     <g id="line2d_11">
      <path d="M 711.367088 258.48 
L 711.367088 26.88 
" clip-path="url(#p1150f46d43)" style="fill: none; stroke: #b0b0b0; stroke-width: 0.8; stroke-linecap: square"/>
     </g>
     <g id="line2d_12">
      <g>
       <use xlink:href="#m711773a90e" x="711.367088" y="258.48" style="stroke: #000000; stroke-width: 0.8"/>
      </g>
     </g>
     <g id="text_6">
      <!-- 250 -->
      <g transform="translate(701.823338 273.078438) scale(0.1 -0.1)">
       <use xlink:href="#DejaVuSans-32"/>
       <use xlink:href="#DejaVuSans-35" transform="translate(63.623047 0)"/>
       <use xlink:href="#DejaVuSans-30" transform="translate(127.246094 0)"/>
      </g>
     </g>
    </g>
    <g id="xtick_7">
     <g id="line2d_13">
      <path d="M 831.963051 258.48 
L 831.963051 26.88 
" clip-path="url(#p1150f46d43)" style="fill: none; stroke: #b0b0b0; stroke-width: 0.8; stroke-linecap: square"/>
     </g>
     <g id="line2d_14">
      <g>
       <use xlink:href="#m711773a90e" x="831.963051" y="258.48" style="stroke: #000000; stroke-width: 0.8"/>
      </g>
     </g>
     <g id="text_7">
      <!-- 300 -->
      <g transform="translate(822.419301 273.078438) scale(0.1 -0.1)">
       <defs>
        <path id="DejaVuSans-33" d="M 2597 2516 
Q 3050 2419 3304 2112 
Q 3559 1806 3559 1356 
Q 3559 666 3084 287 
Q 2609 -91 1734 -91 
Q 1441 -91 1130 -33 
Q 819 25 488 141 
L 488 750 
Q 750 597 1062 519 
Q 1375 441 1716 441 
Q 2309 441 2620 675 
Q 2931 909 2931 1356 
Q 2931 1769 2642 2001 
Q 2353 2234 1838 2234 
L 1294 2234 
L 1294 2753 
L 1863 2753 
Q 2328 2753 2575 2939 
Q 2822 3125 2822 3475 
Q 2822 3834 2567 4026 
Q 2313 4219 1838 4219 
Q 1578 4219 1281 4162 
Q 984 4106 628 3988 
L 628 4550 
Q 988 4650 1302 4700 
Q 1616 4750 1894 4750 
Q 2613 4750 3031 4423 
Q 3450 4097 3450 3541 
Q 3450 3153 3228 2886 
Q 3006 2619 2597 2516 
z
" transform="scale(0.015625)"/>
       </defs>
       <use xlink:href="#DejaVuSans-33"/>
       <use xlink:href="#DejaVuSans-30" transform="translate(63.623047 0)"/>
       <use xlink:href="#DejaVuSans-30" transform="translate(127.246094 0)"/>
      </g>
     </g>
    </g>
   </g>
   <g id="matplotlib.axis_2">
    <g id="ytick_1">
     <g id="line2d_15">
      <path d="M 72.92 248.851523 
L 853.2 248.851523 
" clip-path="url(#p1150f46d43)" style="fill: none; stroke: #b0b0b0; stroke-width: 0.8; stroke-linecap: square"/>
     </g>
     <g id="line2d_16">
      <defs>
       <path id="ma4ed0a2066" d="M 0 0 
L -3.5 0 
" style="stroke: #000000; stroke-width: 0.8"/>
      </defs>
      <g>
       <use xlink:href="#ma4ed0a2066" x="72.92" y="248.851523" style="stroke: #000000; stroke-width: 0.8"/>
      </g>
     </g>
     <g id="text_8">
      <!-- 0.000 -->
      <g transform="translate(37.291875 252.650741) scale(0.1 -0.1)">
       <defs>
        <path id="DejaVuSans-2e" d="M 684 794 
L 1344 794 
L 1344 0 
L 684 0 
L 684 794 
z
" transform="scale(0.015625)"/>
       </defs>
       <use xlink:href="#DejaVuSans-30"/>
       <use xlink:href="#DejaVuSans-2e" transform="translate(63.623047 0)"/>
       <use xlink:href="#DejaVuSans-30" transform="translate(95.410156 0)"/>
       <use xlink:href="#DejaVuSans-30" transform="translate(159.033203 0)"/>
       <use xlink:href="#DejaVuSans-30" transform="translate(222.65625 0)"/>
      </g>
     </g>
    </g>
    <g id="ytick_2">
     <g id="line2d_17">
      <path d="M 72.92 205.238015 
L 853.2 205.238015 
" clip-path="url(#p1150f46d43)" style="fill: none; stroke: #b0b0b0; stroke-width: 0.8; stroke-linecap: square"/>
     </g>
     <g id="line2d_18">
      <g>
       <use xlink:href="#ma4ed0a2066" x="72.92" y="205.238015" style="stroke: #000000; stroke-width: 0.8"/>
      </g>
     </g>
     <g id="text_9">
      <!-- 0.001 -->
      <g transform="translate(37.291875 209.037234) scale(0.1 -0.1)">
       <use xlink:href="#DejaVuSans-30"/>
       <use xlink:href="#DejaVuSans-2e" transform="translate(63.623047 0)"/>
       <use xlink:href="#DejaVuSans-30" transform="translate(95.410156 0)"/>
       <use xlink:href="#DejaVuSans-30" transform="translate(159.033203 0)"/>
       <use xlink:href="#DejaVuSans-31" transform="translate(222.65625 0)"/>
      </g>
     </g>
    </g>
    <g id="ytick_3">
     <g id="line2d_19">
      <path d="M 72.92 161.624508 
L 853.2 161.624508 
" clip-path="url(#p1150f46d43)" style="fill: none; stroke: #b0b0b0; stroke-width: 0.8; stroke-linecap: square"/>
     </g>
     <g id="line2d_20">
      <g>
       <use xlink:href="#ma4ed0a2066" x="72.92" y="161.624508" style="stroke: #000000; stroke-width: 0.8"/>
      </g>
     </g>
     <g id="text_10">
      <!-- 0.002 -->
      <g transform="translate(37.291875 165.423727) scale(0.1 -0.1)">
       <use xlink:href="#DejaVuSans-30"/>
       <use xlink:href="#DejaVuSans-2e" transform="translate(63.623047 0)"/>
       <use xlink:href="#DejaVuSans-30" transform="translate(95.410156 0)"/>
       <use xlink:href="#DejaVuSans-30" transform="translate(159.033203 0)"/>
       <use xlink:href="#DejaVuSans-32" transform="translate(222.65625 0)"/>
      </g>
     </g>
    </g>
    <g id="ytick_4">
     <g id="line2d_21">
      <path d="M 72.92 118.011001 
L 853.2 118.011001 
" clip-path="url(#p1150f46d43)" style="fill: none; stroke: #b0b0b0; stroke-width: 0.8; stroke-linecap: square"/>
     </g>
     <g id="line2d_22">
      <g>
       <use xlink:href="#ma4ed0a2066" x="72.92" y="118.011001" style="stroke: #000000; stroke-width: 0.8"/>
      </g>
     </g>
     <g id="text_11">
      <!-- 0.003 -->
      <g transform="translate(37.291875 121.81022) scale(0.1 -0.1)">
       <use xlink:href="#DejaVuSans-30"/>
       <use xlink:href="#DejaVuSans-2e" transform="translate(63.623047 0)"/>
       <use xlink:href="#DejaVuSans-30" transform="translate(95.410156 0)"/>
       <use xlink:href="#DejaVuSans-30" transform="translate(159.033203 0)"/>
       <use xlink:href="#DejaVuSans-33" transform="translate(222.65625 0)"/>
      </g>
     </g>
    </g>
    <g id="ytick_5">
     <g id="line2d_23">
      <path d="M 72.92 74.397494 
L 853.2 74.397494 
" clip-path="url(#p1150f46d43)" style="fill: none; stroke: #b0b0b0; stroke-width: 0.8; stroke-linecap: square"/>
     </g>
     <g id="line2d_24">
      <g>
       <use xlink:href="#ma4ed0a2066" x="72.92" y="74.397494" style="stroke: #000000; stroke-width: 0.8"/>
      </g>
     </g>
     <g id="text_12">
      <!-- 0.004 -->
      <g transform="translate(37.291875 78.196712) scale(0.1 -0.1)">
       <defs>
        <path id="DejaVuSans-34" d="M 2419 4116 
L 825 1625 
L 2419 1625 
L 2419 4116 
z
M 2253 4666 
L 3047 4666 
L 3047 1625 
L 3713 1625 
L 3713 1100 
L 3047 1100 
L 3047 0 
L 2419 0 
L 2419 1100 
L 313 1100 
L 313 1709 
L 2253 4666 
z
" transform="scale(0.015625)"/>
       </defs>
       <use xlink:href="#DejaVuSans-30"/>
       <use xlink:href="#DejaVuSans-2e" transform="translate(63.623047 0)"/>
       <use xlink:href="#DejaVuSans-30" transform="translate(95.410156 0)"/>
       <use xlink:href="#DejaVuSans-30" transform="translate(159.033203 0)"/>
       <use xlink:href="#DejaVuSans-34" transform="translate(222.65625 0)"/>
      </g>
     </g>
    </g>
    <g id="ytick_6">
     <g id="line2d_25">
      <path d="M 72.92 30.783986 
L 853.2 30.783986 
" clip-path="url(#p1150f46d43)" style="fill: none; stroke: #b0b0b0; stroke-width: 0.8; stroke-linecap: square"/>
     </g>
     <g id="line2d_26">
      <g>
       <use xlink:href="#ma4ed0a2066" x="72.92" y="30.783986" style="stroke: #000000; stroke-width: 0.8"/>
      </g>
     </g>
     <g id="text_13">
      <!-- 0.005 -->
      <g transform="translate(37.291875 34.583205) scale(0.1 -0.1)">
       <use xlink:href="#DejaVuSans-30"/>
       <use xlink:href="#DejaVuSans-2e" transform="translate(63.623047 0)"/>
       <use xlink:href="#DejaVuSans-30" transform="translate(95.410156 0)"/>
       <use xlink:href="#DejaVuSans-30" transform="translate(159.033203 0)"/>
       <use xlink:href="#DejaVuSans-35" transform="translate(222.65625 0)"/>
      </g>
     </g>
    </g>
    <g id="text_14">
     <!-- Std Dev -->
     <g transform="translate(31.212188 162.463594) rotate(-90) scale(0.1 -0.1)">
      <defs>
       <path id="DejaVuSans-53" d="M 3425 4513 
L 3425 3897 
Q 3066 4069 2747 4153 
Q 2428 4238 2131 4238 
Q 1616 4238 1336 4038 
Q 1056 3838 1056 3469 
Q 1056 3159 1242 3001 
Q 1428 2844 1947 2747 
L 2328 2669 
Q 3034 2534 3370 2195 
Q 3706 1856 3706 1288 
Q 3706 609 3251 259 
Q 2797 -91 1919 -91 
Q 1588 -91 1214 -16 
Q 841 59 441 206 
L 441 856 
Q 825 641 1194 531 
Q 1563 422 1919 422 
Q 2459 422 2753 634 
Q 3047 847 3047 1241 
Q 3047 1584 2836 1778 
Q 2625 1972 2144 2069 
L 1759 2144 
Q 1053 2284 737 2584 
Q 422 2884 422 3419 
Q 422 4038 858 4394 
Q 1294 4750 2059 4750 
Q 2388 4750 2728 4690 
Q 3069 4631 3425 4513 
z
" transform="scale(0.015625)"/>
       <path id="DejaVuSans-74" d="M 1172 4494 
L 1172 3500 
L 2356 3500 
L 2356 3053 
L 1172 3053 
L 1172 1153 
Q 1172 725 1289 603 
Q 1406 481 1766 481 
L 2356 481 
L 2356 0 
L 1766 0 
Q 1100 0 847 248 
Q 594 497 594 1153 
L 594 3053 
L 172 3053 
L 172 3500 
L 594 3500 
L 594 4494 
L 1172 4494 
z
" transform="scale(0.015625)"/>
       <path id="DejaVuSans-64" d="M 2906 2969 
L 2906 4863 
L 3481 4863 
L 3481 0 
L 2906 0 
L 2906 525 
Q 2725 213 2448 61 
Q 2172 -91 1784 -91 
Q 1150 -91 751 415 
Q 353 922 353 1747 
Q 353 2572 751 3078 
Q 1150 3584 1784 3584 
Q 2172 3584 2448 3432 
Q 2725 3281 2906 2969 
z
M 947 1747 
Q 947 1113 1208 752 
Q 1469 391 1925 391 
Q 2381 391 2643 752 
Q 2906 1113 2906 1747 
Q 2906 2381 2643 2742 
Q 2381 3103 1925 3103 
Q 1469 3103 1208 2742 
Q 947 2381 947 1747 
z
" transform="scale(0.015625)"/>
       <path id="DejaVuSans-20" transform="scale(0.015625)"/>
       <path id="DejaVuSans-44" d="M 1259 4147 
L 1259 519 
L 2022 519 
Q 2988 519 3436 956 
Q 3884 1394 3884 2338 
Q 3884 3275 3436 3711 
Q 2988 4147 2022 4147 
L 1259 4147 
z
M 628 4666 
L 1925 4666 
Q 3281 4666 3915 4102 
Q 4550 3538 4550 2338 
Q 4550 1131 3912 565 
Q 3275 0 1925 0 
L 628 0 
L 628 4666 
z
" transform="scale(0.015625)"/>
       <path id="DejaVuSans-65" d="M 3597 1894 
L 3597 1613 
L 953 1613 
Q 991 1019 1311 708 
Q 1631 397 2203 397 
Q 2534 397 2845 478 
Q 3156 559 3463 722 
L 3463 178 
Q 3153 47 2828 -22 
Q 2503 -91 2169 -91 
Q 1331 -91 842 396 
Q 353 884 353 1716 
Q 353 2575 817 3079 
Q 1281 3584 2069 3584 
Q 2775 3584 3186 3129 
Q 3597 2675 3597 1894 
z
M 3022 2063 
Q 3016 2534 2758 2815 
Q 2500 3097 2075 3097 
Q 1594 3097 1305 2825 
Q 1016 2553 972 2059 
L 3022 2063 
z
" transform="scale(0.015625)"/>
       <path id="DejaVuSans-76" d="M 191 3500 
L 800 3500 
L 1894 563 
L 2988 3500 
L 3597 3500 
L 2284 0 
L 1503 0 
L 191 3500 
z
" transform="scale(0.015625)"/>
      </defs>
      <use xlink:href="#DejaVuSans-53"/>
      <use xlink:href="#DejaVuSans-74" transform="translate(63.476562 0)"/>
      <use xlink:href="#DejaVuSans-64" transform="translate(102.685547 0)"/>
      <use xlink:href="#DejaVuSans-20" transform="translate(166.162109 0)"/>
      <use xlink:href="#DejaVuSans-44" transform="translate(197.949219 0)"/>
      <use xlink:href="#DejaVuSans-65" transform="translate(274.951172 0)"/>
      <use xlink:href="#DejaVuSans-76" transform="translate(336.474609 0)"/>
     </g>
    </g>
   </g>
   <g id="line2d_27">
    <path d="M 108.387273 227.707098 
L 127.393197 227.707103 
L 127.537912 232.782137 
L 127.87558 233.212338 
L 128.357964 233.320363 
L 130.142784 233.374306 
L 148.907516 233.437669 
L 151.271197 233.437669 
L 151.415912 233.852471 
L 154.599646 233.898374 
L 222.181623 233.982758 
L 222.326339 239.302336 
L 222.567531 240.73645 
L 222.856961 241.058931 
L 223.387583 241.201998 
L 224.97945 241.308123 
L 231.491632 241.432606 
L 234.000028 241.432606 
L 234.144743 244.399411 
L 235.205987 244.594874 
L 237.762622 244.665726 
L 245.818432 244.688903 
L 245.963147 246.737745 
L 247.120869 246.937571 
L 249.870457 247.020838 
L 265.789124 247.124831 
L 285.711577 247.243723 
L 304.910454 247.328938 
L 305.055169 247.756058 
L 306.695274 247.881079 
L 312.821549 247.920765 
L 344.803599 247.952401 
L 344.948314 227.707098 
L 363.857761 227.707099 
L 364.002476 232.780502 
L 364.340145 233.211656 
L 364.822529 233.320364 
L 366.607349 233.374784 
L 385.08265 233.437299 
L 387.735761 233.437299 
L 387.880477 233.852429 
L 391.06421 233.898551 
L 458.646188 233.982912 
L 458.790903 239.301148 
L 459.032095 240.734291 
L 459.321525 241.056431 
L 459.852147 241.199369 
L 461.444014 241.305543 
L 467.956196 241.430434 
L 470.464592 241.430434 
L 470.609307 244.39824 
L 471.670552 244.593562 
L 474.227186 244.6642 
L 482.282997 244.687 
L 482.427712 246.737435 
L 483.585433 246.937499 
L 486.335021 247.02096 
L 502.157211 247.124534 
L 521.934949 247.243493 
L 541.375018 247.328904 
L 541.519734 247.756923 
L 543.159839 247.882264 
L 549.286114 247.922129 
L 581.268163 247.952727 
L 581.412878 37.407273 
L 600.322325 37.40729 
L 600.46704 98.883836 
L 600.611755 99.508042 
L 600.901186 99.609088 
L 602.396576 99.638551 
L 612.671352 99.784856 
L 624.200326 99.897157 
L 624.345041 102.232231 
L 624.634471 105.298833 
L 625.020378 108.204015 
L 625.454524 109.850039 
L 625.936908 110.873173 
L 626.564007 111.666062 
L 627.384059 112.307965 
L 628.686496 112.996441 
L 632.159659 114.739859 
L 633.606811 115.47512 
L 636.01873 115.47512 
L 636.163445 121.697877 
L 636.356399 121.959985 
L 637.031736 122.987482 
L 637.755312 123.620497 
L 638.671841 124.114792 
L 640.022516 124.56799 
L 643.061534 125.27279 
L 645.811122 125.79633 
L 647.837135 125.79633 
L 647.98185 129.426789 
L 648.174803 130.172809 
L 648.898379 133.285204 
L 649.47724 134.780523 
L 650.152577 135.908303 
L 650.876153 136.693846 
L 651.744444 137.301225 
L 652.805688 137.758917 
L 654.25284 138.118483 
L 656.568282 138.433256 
L 658.015434 138.478573 
L 659.655539 138.478573 
L 659.800254 145.309338 
L 661.633313 145.373111 
L 671.473943 145.531975 
L 671.618658 146.808915 
L 672.969333 147.328578 
L 674.609438 147.651896 
L 677.407265 147.949818 
L 681.411051 148.160299 
L 683.292348 148.160299 
L 683.437063 157.25264 
L 683.630016 157.491619 
L 684.401831 157.523698 
L 695.110752 157.642016 
L 695.303706 187.993234 
L 695.930805 192.008561 
L 696.461427 193.980507 
L 697.040287 195.340623 
L 697.715625 196.390432 
L 698.535677 197.246559 
L 699.500445 197.931939 
L 700.754643 198.541714 
L 702.442987 199.102695 
L 704.42076 199.544631 
L 706.929156 199.544631 
L 707.073872 212.462959 
L 707.749209 216.421894 
L 708.135116 217.150779 
L 708.665738 217.662321 
L 709.389314 218.02256 
L 710.498797 218.300794 
L 712.380094 218.517262 
L 715.997973 218.676509 
L 718.747561 218.678894 
L 718.892276 246.096018 
L 720.001759 246.32641 
L 722.461916 246.436705 
L 730.083581 246.510799 
L 734.521513 246.621871 
L 754.202774 246.686162 
L 754.347489 246.813813 
L 766.889469 246.951405 
L 777.260722 246.988763 
L 777.839583 246.988763 
L 777.984298 247.720825 
L 779.334973 247.861894 
L 783.676427 247.910929 
L 817.732727 247.948244 
L 817.732727 247.948244 
" clip-path="url(#p1150f46d43)" style="fill: none; stroke: #0000ff; stroke-width: 1.5; stroke-linecap: square"/>
   </g>
   <g id="line2d_28">
    <path d="M 108.387273 227.707098 
L 127.393197 227.707102 
L 127.537912 232.781807 
L 127.87558 233.211258 
L 128.357964 233.318851 
L 130.191023 233.373451 
L 149.727569 233.437758 
L 151.271197 233.437758 
L 151.415912 233.852431 
L 154.599646 233.898317 
L 222.181623 233.982295 
L 222.326339 239.302533 
L 222.567531 240.736226 
L 222.856961 241.058649 
L 223.387583 241.201711 
L 224.97945 241.307855 
L 231.53987 241.432351 
L 234.000028 241.432351 
L 234.144743 244.399271 
L 235.205987 244.594725 
L 237.762622 244.665596 
L 245.818432 244.688796 
L 245.963147 246.737625 
L 247.120869 246.937501 
L 249.870457 247.020754 
L 265.837362 247.124868 
L 285.759815 247.243734 
L 304.910454 247.328888 
L 305.055169 247.755973 
L 306.695274 247.880986 
L 312.821549 247.92067 
L 344.803599 247.952357 
L 344.948314 227.707098 
L 363.857761 227.7071 
L 364.002476 232.779873 
L 364.340145 233.209979 
L 364.822529 233.318189 
L 366.655587 233.373237 
L 385.854464 233.436782 
L 387.735761 233.436782 
L 387.880477 233.85251 
L 391.06421 233.898549 
L 458.646188 233.98243 
L 458.790903 239.301487 
L 459.032095 240.734145 
L 459.321525 241.05622 
L 459.852147 241.199152 
L 461.444014 241.305339 
L 468.004434 241.430239 
L 470.464592 241.430239 
L 470.609307 244.398062 
L 471.670552 244.593375 
L 474.227186 244.664027 
L 482.282997 244.686827 
L 482.427712 246.737389 
L 483.585433 246.937466 
L 486.335021 247.020929 
L 502.157211 247.124439 
L 521.790234 247.243226 
L 541.375018 247.328863 
L 541.519734 247.756907 
L 543.159839 247.882254 
L 549.286114 247.92212 
L 581.268163 247.952712 
L 581.412878 37.407273 
L 600.322325 37.409263 
L 600.46704 98.888758 
L 600.611755 99.511791 
L 600.901186 99.610598 
L 602.396576 99.640897 
L 611.079485 99.768435 
L 622.511982 99.905579 
L 624.200326 99.905579 
L 624.345041 102.247221 
L 624.634471 105.307835 
L 625.020378 108.217611 
L 625.454524 109.864226 
L 625.936908 110.883211 
L 626.515768 111.62601 
L 627.287582 112.258343 
L 628.590019 112.961375 
L 632.690282 114.997089 
L 633.558573 115.415892 
L 636.01873 115.415892 
L 636.163445 121.710571 
L 636.356399 121.964424 
L 637.031736 122.97169 
L 637.755312 123.603624 
L 638.671841 124.09429 
L 639.974278 124.531919 
L 645.184023 125.768263 
L 647.837135 125.768263 
L 647.98185 129.413871 
L 648.174803 130.165805 
L 648.898379 133.279346 
L 649.47724 134.777352 
L 650.104339 135.837522 
L 650.827914 136.643544 
L 651.647967 137.231601 
L 652.709211 137.710169 
L 654.059886 138.057109 
L 656.278852 138.370312 
L 658.063672 138.442004 
L 659.655539 138.442004 
L 659.800254 145.214704 
L 662.115697 145.29128 
L 671.473943 145.444319 
L 671.618658 146.689298 
L 672.921095 147.186636 
L 674.609438 147.51785 
L 677.455503 147.816716 
L 681.555766 148.026589 
L 683.292348 148.026589 
L 683.437063 156.985817 
L 683.630016 157.221362 
L 684.401831 157.253031 
L 695.110752 157.375064 
L 695.303706 187.929475 
L 695.930805 191.946057 
L 696.461427 193.919312 
L 697.040287 195.280896 
L 697.715625 196.33169 
L 698.535677 197.18881 
L 699.548684 197.903292 
L 700.802882 198.504956 
L 702.539463 199.074724 
L 704.468999 199.491074 
L 706.929156 199.491074 
L 707.073872 212.437888 
L 707.749209 216.402059 
L 708.135116 217.131678 
L 708.665738 217.643751 
L 709.389314 218.004463 
L 710.498797 218.283002 
L 712.380094 218.499392 
L 716.046211 218.659701 
L 718.747561 218.6609 
L 718.892276 246.096002 
L 720.001759 246.326396 
L 722.461916 246.436691 
L 730.083581 246.510813 
L 734.521513 246.621851 
L 754.202774 246.686143 
L 754.347489 246.813771 
L 766.889469 246.951371 
L 777.212484 246.988714 
L 777.839583 246.988714 
L 777.984298 247.720802 
L 779.334973 247.861879 
L 783.676427 247.910914 
L 817.732727 247.948235 
L 817.732727 247.948235 
" clip-path="url(#p1150f46d43)" style="fill: none; stroke-dasharray: 5.55,2.4; stroke-dashoffset: 0; stroke: #ff0000; stroke-width: 1.5"/>
   </g>
   <g id="line2d_29">
    <path d="M 344.851837 258.48 
L 344.851837 26.88 
" clip-path="url(#p1150f46d43)" style="fill: none; stroke-dasharray: 1.5,2.475; stroke-dashoffset: 0; stroke: #808080; stroke-opacity: 0.6; stroke-width: 1.5"/>
   </g>
   <g id="line2d_30">
    <path d="M 581.316401 258.48 
L 581.316401 26.88 
" clip-path="url(#p1150f46d43)" style="fill: none; stroke-dasharray: 1.5,2.475; stroke-dashoffset: 0; stroke: #808080; stroke-opacity: 0.6; stroke-width: 1.5"/>
   </g>
   <g id="patch_3">
    <path d="M 72.92 258.48 
L 72.92 26.88 
" style="fill: none; stroke: #000000; stroke-width: 0.8; stroke-linejoin: miter; stroke-linecap: square"/>
   </g>
   <g id="patch_4">
    <path d="M 853.2 258.48 
L 853.2 26.88 
" style="fill: none; stroke: #000000; stroke-width: 0.8; stroke-linejoin: miter; stroke-linecap: square"/>
   </g>
   <g id="patch_5">
    <path d="M 72.92 258.48 
L 853.2 258.48 
" style="fill: none; stroke: #000000; stroke-width: 0.8; stroke-linejoin: miter; stroke-linecap: square"/>
   </g>
   <g id="patch_6">
    <path d="M 72.92 26.88 
L 853.2 26.88 
" style="fill: none; stroke: #000000; stroke-width: 0.8; stroke-linejoin: miter; stroke-linecap: square"/>
   </g>
   <g id="text_15">
    <!-- [17] Kg_zy  —  Uncertainty (std dev) -->
    <g transform="translate(353.876875 20.88) scale(0.12 -0.12)">
     <defs>
      <path id="DejaVuSans-5b" d="M 550 4863 
L 1875 4863 
L 1875 4416 
L 1125 4416 
L 1125 -397 
L 1875 -397 
L 1875 -844 
L 550 -844 
L 550 4863 
z
" transform="scale(0.015625)"/>
      <path id="DejaVuSans-37" d="M 525 4666 
L 3525 4666 
L 3525 4397 
L 1831 0 
L 1172 0 
L 2766 4134 
L 525 4134 
L 525 4666 
z
" transform="scale(0.015625)"/>
      <path id="DejaVuSans-5d" d="M 1947 4863 
L 1947 -844 
L 622 -844 
L 622 -397 
L 1369 -397 
L 1369 4416 
L 622 4416 
L 622 4863 
L 1947 4863 
z
" transform="scale(0.015625)"/>
      <path id="DejaVuSans-4b" d="M 628 4666 
L 1259 4666 
L 1259 2694 
L 3353 4666 
L 4166 4666 
L 1850 2491 
L 4331 0 
L 3500 0 
L 1259 2247 
L 1259 0 
L 628 0 
L 628 4666 
z
" transform="scale(0.015625)"/>
      <path id="DejaVuSans-67" d="M 2906 1791 
Q 2906 2416 2648 2759 
Q 2391 3103 1925 3103 
Q 1463 3103 1205 2759 
Q 947 2416 947 1791 
Q 947 1169 1205 825 
Q 1463 481 1925 481 
Q 2391 481 2648 825 
Q 2906 1169 2906 1791 
z
M 3481 434 
Q 3481 -459 3084 -895 
Q 2688 -1331 1869 -1331 
Q 1566 -1331 1297 -1286 
Q 1028 -1241 775 -1147 
L 775 -588 
Q 1028 -725 1275 -790 
Q 1522 -856 1778 -856 
Q 2344 -856 2625 -561 
Q 2906 -266 2906 331 
L 2906 616 
Q 2728 306 2450 153 
Q 2172 0 1784 0 
Q 1141 0 747 490 
Q 353 981 353 1791 
Q 353 2603 747 3093 
Q 1141 3584 1784 3584 
Q 2172 3584 2450 3431 
Q 2728 3278 2906 2969 
L 2906 3500 
L 3481 3500 
L 3481 434 
z
" transform="scale(0.015625)"/>
      <path id="DejaVuSans-5f" d="M 3263 -1063 
L 3263 -1509 
L -63 -1509 
L -63 -1063 
L 3263 -1063 
z
" transform="scale(0.015625)"/>
      <path id="DejaVuSans-7a" d="M 353 3500 
L 3084 3500 
L 3084 2975 
L 922 459 
L 3084 459 
L 3084 0 
L 275 0 
L 275 525 
L 2438 3041 
L 353 3041 
L 353 3500 
z
" transform="scale(0.015625)"/>
      <path id="DejaVuSans-79" d="M 2059 -325 
Q 1816 -950 1584 -1140 
Q 1353 -1331 966 -1331 
L 506 -1331 
L 506 -850 
L 844 -850 
Q 1081 -850 1212 -737 
Q 1344 -625 1503 -206 
L 1606 56 
L 191 3500 
L 800 3500 
L 1894 763 
L 2988 3500 
L 3597 3500 
L 2059 -325 
z
" transform="scale(0.015625)"/>
      <path id="DejaVuSans-2014" d="M 313 1978 
L 6088 1978 
L 6088 1528 
L 313 1528 
L 313 1978 
z
" transform="scale(0.015625)"/>
      <path id="DejaVuSans-55" d="M 556 4666 
L 1191 4666 
L 1191 1831 
Q 1191 1081 1462 751 
Q 1734 422 2344 422 
Q 2950 422 3222 751 
Q 3494 1081 3494 1831 
L 3494 4666 
L 4128 4666 
L 4128 1753 
Q 4128 841 3676 375 
Q 3225 -91 2344 -91 
Q 1459 -91 1007 375 
Q 556 841 556 1753 
L 556 4666 
z
" transform="scale(0.015625)"/>
      <path id="DejaVuSans-6e" d="M 3513 2113 
L 3513 0 
L 2938 0 
L 2938 2094 
Q 2938 2591 2744 2837 
Q 2550 3084 2163 3084 
Q 1697 3084 1428 2787 
Q 1159 2491 1159 1978 
L 1159 0 
L 581 0 
L 581 3500 
L 1159 3500 
L 1159 2956 
Q 1366 3272 1645 3428 
Q 1925 3584 2291 3584 
Q 2894 3584 3203 3211 
Q 3513 2838 3513 2113 
z
" transform="scale(0.015625)"/>
      <path id="DejaVuSans-63" d="M 3122 3366 
L 3122 2828 
Q 2878 2963 2633 3030 
Q 2388 3097 2138 3097 
Q 1578 3097 1268 2742 
Q 959 2388 959 1747 
Q 959 1106 1268 751 
Q 1578 397 2138 397 
Q 2388 397 2633 464 
Q 2878 531 3122 666 
L 3122 134 
Q 2881 22 2623 -34 
Q 2366 -91 2075 -91 
Q 1284 -91 818 406 
Q 353 903 353 1747 
Q 353 2603 823 3093 
Q 1294 3584 2113 3584 
Q 2378 3584 2631 3529 
Q 2884 3475 3122 3366 
z
" transform="scale(0.015625)"/>
      <path id="DejaVuSans-72" d="M 2631 2963 
Q 2534 3019 2420 3045 
Q 2306 3072 2169 3072 
Q 1681 3072 1420 2755 
Q 1159 2438 1159 1844 
L 1159 0 
L 581 0 
L 581 3500 
L 1159 3500 
L 1159 2956 
Q 1341 3275 1631 3429 
Q 1922 3584 2338 3584 
Q 2397 3584 2469 3576 
Q 2541 3569 2628 3553 
L 2631 2963 
z
" transform="scale(0.015625)"/>
      <path id="DejaVuSans-61" d="M 2194 1759 
Q 1497 1759 1228 1600 
Q 959 1441 959 1056 
Q 959 750 1161 570 
Q 1363 391 1709 391 
Q 2188 391 2477 730 
Q 2766 1069 2766 1631 
L 2766 1759 
L 2194 1759 
z
M 3341 1997 
L 3341 0 
L 2766 0 
L 2766 531 
Q 2569 213 2275 61 
Q 1981 -91 1556 -91 
Q 1019 -91 701 211 
Q 384 513 384 1019 
Q 384 1609 779 1909 
Q 1175 2209 1959 2209 
L 2766 2209 
L 2766 2266 
Q 2766 2663 2505 2880 
Q 2244 3097 1772 3097 
Q 1472 3097 1187 3025 
Q 903 2953 641 2809 
L 641 3341 
Q 956 3463 1253 3523 
Q 1550 3584 1831 3584 
Q 2591 3584 2966 3190 
Q 3341 2797 3341 1997 
z
" transform="scale(0.015625)"/>
      <path id="DejaVuSans-69" d="M 603 3500 
L 1178 3500 
L 1178 0 
L 603 0 
L 603 3500 
z
M 603 4863 
L 1178 4863 
L 1178 4134 
L 603 4134 
L 603 4863 
z
" transform="scale(0.015625)"/>
      <path id="DejaVuSans-28" d="M 1984 4856 
Q 1566 4138 1362 3434 
Q 1159 2731 1159 2009 
Q 1159 1288 1364 580 
Q 1569 -128 1984 -844 
L 1484 -844 
Q 1016 -109 783 600 
Q 550 1309 550 2009 
Q 550 2706 781 3412 
Q 1013 4119 1484 4856 
L 1984 4856 
z
" transform="scale(0.015625)"/>
      <path id="DejaVuSans-73" d="M 2834 3397 
L 2834 2853 
Q 2591 2978 2328 3040 
Q 2066 3103 1784 3103 
Q 1356 3103 1142 2972 
Q 928 2841 928 2578 
Q 928 2378 1081 2264 
Q 1234 2150 1697 2047 
L 1894 2003 
Q 2506 1872 2764 1633 
Q 3022 1394 3022 966 
Q 3022 478 2636 193 
Q 2250 -91 1575 -91 
Q 1294 -91 989 -36 
Q 684 19 347 128 
L 347 722 
Q 666 556 975 473 
Q 1284 391 1588 391 
Q 1994 391 2212 530 
Q 2431 669 2431 922 
Q 2431 1156 2273 1281 
Q 2116 1406 1581 1522 
L 1381 1569 
Q 847 1681 609 1914 
Q 372 2147 372 2553 
Q 372 3047 722 3315 
Q 1072 3584 1716 3584 
Q 2034 3584 2315 3537 
Q 2597 3491 2834 3397 
z
" transform="scale(0.015625)"/>
      <path id="DejaVuSans-29" d="M 513 4856 
L 1013 4856 
Q 1481 4119 1714 3412 
Q 1947 2706 1947 2009 
Q 1947 1309 1714 600 
Q 1481 -109 1013 -844 
L 513 -844 
Q 928 -128 1133 580 
Q 1338 1288 1338 2009 
Q 1338 2731 1133 3434 
Q 928 4138 513 4856 
z
" transform="scale(0.015625)"/>
     </defs>
     <use xlink:href="#DejaVuSans-5b"/>
     <use xlink:href="#DejaVuSans-31" transform="translate(39.013672 0)"/>
     <use xlink:href="#DejaVuSans-37" transform="translate(102.636719 0)"/>
     <use xlink:href="#DejaVuSans-5d" transform="translate(166.259766 0)"/>
     <use xlink:href="#DejaVuSans-20" transform="translate(205.273438 0)"/>
     <use xlink:href="#DejaVuSans-4b" transform="translate(237.060547 0)"/>
     <use xlink:href="#DejaVuSans-67" transform="translate(302.636719 0)"/>
     <use xlink:href="#DejaVuSans-5f" transform="translate(366.113281 0)"/>
     <use xlink:href="#DejaVuSans-7a" transform="translate(416.113281 0)"/>
     <use xlink:href="#DejaVuSans-79" transform="translate(468.603516 0)"/>
     <use xlink:href="#DejaVuSans-20" transform="translate(527.783203 0)"/>
     <use xlink:href="#DejaVuSans-20" transform="translate(559.570312 0)"/>
     <use xlink:href="#DejaVuSans-2014" transform="translate(591.357422 0)"/>
     <use xlink:href="#DejaVuSans-20" transform="translate(691.357422 0)"/>
     <use xlink:href="#DejaVuSans-20" transform="translate(723.144531 0)"/>
     <use xlink:href="#DejaVuSans-55" transform="translate(754.931641 0)"/>
     <use xlink:href="#DejaVuSans-6e" transform="translate(828.125 0)"/>
     <use xlink:href="#DejaVuSans-63" transform="translate(891.503906 0)"/>
     <use xlink:href="#DejaVuSans-65" transform="translate(946.484375 0)"/>
     <use xlink:href="#DejaVuSans-72" transform="translate(1008.007812 0)"/>
     <use xlink:href="#DejaVuSans-74" transform="translate(1049.121094 0)"/>
     <use xlink:href="#DejaVuSans-61" transform="translate(1088.330078 0)"/>
     <use xlink:href="#DejaVuSans-69" transform="translate(1149.609375 0)"/>
     <use xlink:href="#DejaVuSans-6e" transform="translate(1177.392578 0)"/>
     <use xlink:href="#DejaVuSans-74" transform="translate(1240.771484 0)"/>
     <use xlink:href="#DejaVuSans-79" transform="translate(1279.980469 0)"/>
     <use xlink:href="#DejaVuSans-20" transform="translate(1339.160156 0)"/>
     <use xlink:href="#DejaVuSans-28" transform="translate(1370.947266 0)"/>
     <use xlink:href="#DejaVuSans-73" transform="translate(1409.960938 0)"/>
     <use xlink:href="#DejaVuSans-74" transform="translate(1462.060547 0)"/>
     <use xlink:href="#DejaVuSans-64" transform="translate(1501.269531 0)"/>
     <use xlink:href="#DejaVuSans-20" transform="translate(1564.746094 0)"/>
     <use xlink:href="#DejaVuSans-64" transform="translate(1596.533203 0)"/>
     <use xlink:href="#DejaVuSans-65" transform="translate(1660.009766 0)"/>
     <use xlink:href="#DejaVuSans-76" transform="translate(1721.533203 0)"/>
     <use xlink:href="#DejaVuSans-29" transform="translate(1780.712891 0)"/>
    </g>
   </g>
   <g id="legend_1">
    <g id="patch_7">
     <path d="M 734.342188 64.23625 
L 846.2 64.23625 
Q 848.2 64.23625 848.2 62.23625 
L 848.2 33.88 
Q 848.2 31.88 846.2 31.88 
L 734.342188 31.88 
Q 732.342188 31.88 732.342188 33.88 
L 732.342188 62.23625 
Q 732.342188 64.23625 734.342188 64.23625 
z
" style="fill: #ffffff; opacity: 0.8; stroke: #cccccc; stroke-linejoin: miter"/>
    </g>
    <g id="line2d_31">
     <path d="M 736.342188 39.978437 
L 746.342188 39.978437 
L 756.342188 39.978437 
" style="fill: none; stroke: #0000ff; stroke-width: 1.5; stroke-linecap: square"/>
    </g>
    <g id="text_16">
     <!-- Ideal (No Noise) -->
     <g transform="translate(764.342188 43.478437) scale(0.1 -0.1)">
      <defs>
       <path id="DejaVuSans-49" d="M 628 4666 
L 1259 4666 
L 1259 0 
L 628 0 
L 628 4666 
z
" transform="scale(0.015625)"/>
       <path id="DejaVuSans-6c" d="M 603 4863 
L 1178 4863 
L 1178 0 
L 603 0 
L 603 4863 
z
" transform="scale(0.015625)"/>
       <path id="DejaVuSans-4e" d="M 628 4666 
L 1478 4666 
L 3547 763 
L 3547 4666 
L 4159 4666 
L 4159 0 
L 3309 0 
L 1241 3903 
L 1241 0 
L 628 0 
L 628 4666 
z
" transform="scale(0.015625)"/>
       <path id="DejaVuSans-6f" d="M 1959 3097 
Q 1497 3097 1228 2736 
Q 959 2375 959 1747 
Q 959 1119 1226 758 
Q 1494 397 1959 397 
Q 2419 397 2687 759 
Q 2956 1122 2956 1747 
Q 2956 2369 2687 2733 
Q 2419 3097 1959 3097 
z
M 1959 3584 
Q 2709 3584 3137 3096 
Q 3566 2609 3566 1747 
Q 3566 888 3137 398 
Q 2709 -91 1959 -91 
Q 1206 -91 779 398 
Q 353 888 353 1747 
Q 353 2609 779 3096 
Q 1206 3584 1959 3584 
z
" transform="scale(0.015625)"/>
      </defs>
      <use xlink:href="#DejaVuSans-49"/>
      <use xlink:href="#DejaVuSans-64" transform="translate(29.492188 0)"/>
      <use xlink:href="#DejaVuSans-65" transform="translate(92.96875 0)"/>
      <use xlink:href="#DejaVuSans-61" transform="translate(154.492188 0)"/>
      <use xlink:href="#DejaVuSans-6c" transform="translate(215.771484 0)"/>
      <use xlink:href="#DejaVuSans-20" transform="translate(243.554688 0)"/>
      <use xlink:href="#DejaVuSans-28" transform="translate(275.341797 0)"/>
      <use xlink:href="#DejaVuSans-4e" transform="translate(314.355469 0)"/>
      <use xlink:href="#DejaVuSans-6f" transform="translate(389.160156 0)"/>
      <use xlink:href="#DejaVuSans-20" transform="translate(450.341797 0)"/>
      <use xlink:href="#DejaVuSans-4e" transform="translate(482.128906 0)"/>
      <use xlink:href="#DejaVuSans-6f" transform="translate(556.933594 0)"/>
      <use xlink:href="#DejaVuSans-69" transform="translate(618.115234 0)"/>
      <use xlink:href="#DejaVuSans-73" transform="translate(645.898438 0)"/>
      <use xlink:href="#DejaVuSans-65" transform="translate(697.998047 0)"/>
      <use xlink:href="#DejaVuSans-29" transform="translate(759.521484 0)"/>
     </g>
    </g>
    <g id="line2d_32">
     <path d="M 736.342188 54.656562 
L 746.342188 54.656562 
L 756.342188 54.656562 
" style="fill: none; stroke-dasharray: 5.55,2.4; stroke-dashoffset: 0; stroke: #ff0000; stroke-width: 1.5"/>
    </g>
    <g id="text_17">
     <!-- With Full Noise -->
     <g transform="translate(764.342188 58.156562) scale(0.1 -0.1)">
      <defs>
       <path id="DejaVuSans-57" d="M 213 4666 
L 850 4666 
L 1831 722 
L 2809 4666 
L 3519 4666 
L 4500 722 
L 5478 4666 
L 6119 4666 
L 4947 0 
L 4153 0 
L 3169 4050 
L 2175 0 
L 1381 0 
L 213 4666 
z
" transform="scale(0.015625)"/>
       <path id="DejaVuSans-68" d="M 3513 2113 
L 3513 0 
L 2938 0 
L 2938 2094 
Q 2938 2591 2744 2837 
Q 2550 3084 2163 3084 
Q 1697 3084 1428 2787 
Q 1159 2491 1159 1978 
L 1159 0 
L 581 0 
L 581 4863 
L 1159 4863 
L 1159 2956 
Q 1366 3272 1645 3428 
Q 1925 3584 2291 3584 
Q 2894 3584 3203 3211 
Q 3513 2838 3513 2113 
z
" transform="scale(0.015625)"/>
       <path id="DejaVuSans-46" d="M 628 4666 
L 3309 4666 
L 3309 4134 
L 1259 4134 
L 1259 2759 
L 3109 2759 
L 3109 2228 
L 1259 2228 
L 1259 0 
L 628 0 
L 628 4666 
z
" transform="scale(0.015625)"/>
       <path id="DejaVuSans-75" d="M 544 1381 
L 544 3500 
L 1119 3500 
L 1119 1403 
Q 1119 906 1312 657 
Q 1506 409 1894 409 
Q 2359 409 2629 706 
Q 2900 1003 2900 1516 
L 2900 3500 
L 3475 3500 
L 3475 0 
L 2900 0 
L 2900 538 
Q 2691 219 2414 64 
Q 2138 -91 1772 -91 
Q 1169 -91 856 284 
Q 544 659 544 1381 
z
M 1991 3584 
L 1991 3584 
z
" transform="scale(0.015625)"/>
      </defs>
      <use xlink:href="#DejaVuSans-57"/>
      <use xlink:href="#DejaVuSans-69" transform="translate(96.626953 0)"/>
      <use xlink:href="#DejaVuSans-74" transform="translate(124.410156 0)"/>
      <use xlink:href="#DejaVuSans-68" transform="translate(163.619141 0)"/>
      <use xlink:href="#DejaVuSans-20" transform="translate(226.998047 0)"/>
      <use xlink:href="#DejaVuSans-46" transform="translate(258.785156 0)"/>
      <use xlink:href="#DejaVuSans-75" transform="translate(310.804688 0)"/>
      <use xlink:href="#DejaVuSans-6c" transform="translate(374.183594 0)"/>
      <use xlink:href="#DejaVuSans-6c" transform="translate(401.966797 0)"/>
      <use xlink:href="#DejaVuSans-20" transform="translate(429.75 0)"/>
      <use xlink:href="#DejaVuSans-4e" transform="translate(461.537109 0)"/>
      <use xlink:href="#DejaVuSans-6f" transform="translate(536.341797 0)"/>
      <use xlink:href="#DejaVuSans-69" transform="translate(597.523438 0)"/>
      <use xlink:href="#DejaVuSans-73" transform="translate(625.306641 0)"/>
      <use xlink:href="#DejaVuSans-65" transform="translate(677.40625 0)"/>
     </g>
    </g>
   </g>
  </g>
  <g id="axes_2">
   <g id="patch_8">
    <path d="M 72.92 534.04 
L 853.2 534.04 
L 853.2 302.44 
L 72.92 302.44 
z
" style="fill: #ffffff"/>
   </g>
   <g id="matplotlib.axis_3">
    <g id="xtick_8">
     <g id="line2d_33">
      <path d="M 108.387273 534.04 
L 108.387273 302.44 
" clip-path="url(#p90acf7bd0f)" style="fill: none; stroke: #b0b0b0; stroke-width: 0.8; stroke-linecap: square"/>
     </g>
     <g id="line2d_34">
      <g>
       <use xlink:href="#m711773a90e" x="108.387273" y="534.04" style="stroke: #000000; stroke-width: 0.8"/>
      </g>
     </g>
     <g id="text_18">
      <!-- 0 -->
      <g transform="translate(105.206023 548.638438) scale(0.1 -0.1)">
       <use xlink:href="#DejaVuSans-30"/>
      </g>
     </g>
    </g>
    <g id="xtick_9">
     <g id="line2d_35">
      <path d="M 228.983236 534.04 
L 228.983236 302.44 
" clip-path="url(#p90acf7bd0f)" style="fill: none; stroke: #b0b0b0; stroke-width: 0.8; stroke-linecap: square"/>
     </g>
     <g id="line2d_36">
      <g>
       <use xlink:href="#m711773a90e" x="228.983236" y="534.04" style="stroke: #000000; stroke-width: 0.8"/>
      </g>
     </g>
     <g id="text_19">
      <!-- 50 -->
      <g transform="translate(222.620736 548.638438) scale(0.1 -0.1)">
       <use xlink:href="#DejaVuSans-35"/>
       <use xlink:href="#DejaVuSans-30" transform="translate(63.623047 0)"/>
      </g>
     </g>
    </g>
    <g id="xtick_10">
     <g id="line2d_37">
      <path d="M 349.579199 534.04 
L 349.579199 302.44 
" clip-path="url(#p90acf7bd0f)" style="fill: none; stroke: #b0b0b0; stroke-width: 0.8; stroke-linecap: square"/>
     </g>
     <g id="line2d_38">
      <g>
       <use xlink:href="#m711773a90e" x="349.579199" y="534.04" style="stroke: #000000; stroke-width: 0.8"/>
      </g>
     </g>
     <g id="text_20">
      <!-- 100 -->
      <g transform="translate(340.035449 548.638438) scale(0.1 -0.1)">
       <use xlink:href="#DejaVuSans-31"/>
       <use xlink:href="#DejaVuSans-30" transform="translate(63.623047 0)"/>
       <use xlink:href="#DejaVuSans-30" transform="translate(127.246094 0)"/>
      </g>
     </g>
    </g>
    <g id="xtick_11">
     <g id="line2d_39">
      <path d="M 470.175162 534.04 
L 470.175162 302.44 
" clip-path="url(#p90acf7bd0f)" style="fill: none; stroke: #b0b0b0; stroke-width: 0.8; stroke-linecap: square"/>
     </g>
     <g id="line2d_40">
      <g>
       <use xlink:href="#m711773a90e" x="470.175162" y="534.04" style="stroke: #000000; stroke-width: 0.8"/>
      </g>
     </g>
     <g id="text_21">
      <!-- 150 -->
      <g transform="translate(460.631412 548.638438) scale(0.1 -0.1)">
       <use xlink:href="#DejaVuSans-31"/>
       <use xlink:href="#DejaVuSans-35" transform="translate(63.623047 0)"/>
       <use xlink:href="#DejaVuSans-30" transform="translate(127.246094 0)"/>
      </g>
     </g>
    </g>
    <g id="xtick_12">
     <g id="line2d_41">
      <path d="M 590.771125 534.04 
L 590.771125 302.44 
" clip-path="url(#p90acf7bd0f)" style="fill: none; stroke: #b0b0b0; stroke-width: 0.8; stroke-linecap: square"/>
     </g>
     <g id="line2d_42">
      <g>
       <use xlink:href="#m711773a90e" x="590.771125" y="534.04" style="stroke: #000000; stroke-width: 0.8"/>
      </g>
     </g>
     <g id="text_22">
      <!-- 200 -->
      <g transform="translate(581.227375 548.638438) scale(0.1 -0.1)">
       <use xlink:href="#DejaVuSans-32"/>
       <use xlink:href="#DejaVuSans-30" transform="translate(63.623047 0)"/>
       <use xlink:href="#DejaVuSans-30" transform="translate(127.246094 0)"/>
      </g>
     </g>
    </g>
    <g id="xtick_13">
     <g id="line2d_43">
      <path d="M 711.367088 534.04 
L 711.367088 302.44 
" clip-path="url(#p90acf7bd0f)" style="fill: none; stroke: #b0b0b0; stroke-width: 0.8; stroke-linecap: square"/>
     </g>
     <g id="line2d_44">
      <g>
       <use xlink:href="#m711773a90e" x="711.367088" y="534.04" style="stroke: #000000; stroke-width: 0.8"/>
      </g>
     </g>
     <g id="text_23">
      <!-- 250 -->
      <g transform="translate(701.823338 548.638438) scale(0.1 -0.1)">
       <use xlink:href="#DejaVuSans-32"/>
       <use xlink:href="#DejaVuSans-35" transform="translate(63.623047 0)"/>
       <use xlink:href="#DejaVuSans-30" transform="translate(127.246094 0)"/>
      </g>
     </g>
    </g>
    <g id="xtick_14">
     <g id="line2d_45">
      <path d="M 831.963051 534.04 
L 831.963051 302.44 
" clip-path="url(#p90acf7bd0f)" style="fill: none; stroke: #b0b0b0; stroke-width: 0.8; stroke-linecap: square"/>
     </g>
     <g id="line2d_46">
      <g>
       <use xlink:href="#m711773a90e" x="831.963051" y="534.04" style="stroke: #000000; stroke-width: 0.8"/>
      </g>
     </g>
     <g id="text_24">
      <!-- 300 -->
      <g transform="translate(822.419301 548.638438) scale(0.1 -0.1)">
       <use xlink:href="#DejaVuSans-33"/>
       <use xlink:href="#DejaVuSans-30" transform="translate(63.623047 0)"/>
       <use xlink:href="#DejaVuSans-30" transform="translate(127.246094 0)"/>
      </g>
     </g>
    </g>
    <g id="text_25">
     <!-- Time (s) -->
     <g transform="translate(442.731094 562.316562) scale(0.1 -0.1)">
      <defs>
       <path id="DejaVuSans-54" d="M -19 4666 
L 3928 4666 
L 3928 4134 
L 2272 4134 
L 2272 0 
L 1638 0 
L 1638 4134 
L -19 4134 
L -19 4666 
z
" transform="scale(0.015625)"/>
       <path id="DejaVuSans-6d" d="M 3328 2828 
Q 3544 3216 3844 3400 
Q 4144 3584 4550 3584 
Q 5097 3584 5394 3201 
Q 5691 2819 5691 2113 
L 5691 0 
L 5113 0 
L 5113 2094 
Q 5113 2597 4934 2840 
Q 4756 3084 4391 3084 
Q 3944 3084 3684 2787 
Q 3425 2491 3425 1978 
L 3425 0 
L 2847 0 
L 2847 2094 
Q 2847 2600 2669 2842 
Q 2491 3084 2119 3084 
Q 1678 3084 1418 2786 
Q 1159 2488 1159 1978 
L 1159 0 
L 581 0 
L 581 3500 
L 1159 3500 
L 1159 2956 
Q 1356 3278 1631 3431 
Q 1906 3584 2284 3584 
Q 2666 3584 2933 3390 
Q 3200 3197 3328 2828 
z
" transform="scale(0.015625)"/>
      </defs>
      <use xlink:href="#DejaVuSans-54"/>
      <use xlink:href="#DejaVuSans-69" transform="translate(57.958984 0)"/>
      <use xlink:href="#DejaVuSans-6d" transform="translate(85.742188 0)"/>
      <use xlink:href="#DejaVuSans-65" transform="translate(183.154297 0)"/>
      <use xlink:href="#DejaVuSans-20" transform="translate(244.677734 0)"/>
      <use xlink:href="#DejaVuSans-28" transform="translate(276.464844 0)"/>
      <use xlink:href="#DejaVuSans-73" transform="translate(315.478516 0)"/>
      <use xlink:href="#DejaVuSans-29" transform="translate(367.578125 0)"/>
     </g>
    </g>
   </g>
   <g id="matplotlib.axis_4">
    <g id="ytick_7">
     <g id="line2d_47">
      <path d="M 72.92 509.556271 
L 853.2 509.556271 
" clip-path="url(#p90acf7bd0f)" style="fill: none; stroke: #b0b0b0; stroke-width: 0.8; stroke-linecap: square"/>
     </g>
     <g id="line2d_48">
      <g>
       <use xlink:href="#ma4ed0a2066" x="72.92" y="509.556271" style="stroke: #000000; stroke-width: 0.8"/>
      </g>
     </g>
     <g id="text_26">
      <!-- 0.00000 -->
      <g transform="translate(24.566875 513.35549) scale(0.1 -0.1)">
       <use xlink:href="#DejaVuSans-30"/>
       <use xlink:href="#DejaVuSans-2e" transform="translate(63.623047 0)"/>
       <use xlink:href="#DejaVuSans-30" transform="translate(95.410156 0)"/>
       <use xlink:href="#DejaVuSans-30" transform="translate(159.033203 0)"/>
       <use xlink:href="#DejaVuSans-30" transform="translate(222.65625 0)"/>
       <use xlink:href="#DejaVuSans-30" transform="translate(286.279297 0)"/>
       <use xlink:href="#DejaVuSans-30" transform="translate(349.902344 0)"/>
      </g>
     </g>
    </g>
    <g id="ytick_8">
     <g id="line2d_49">
      <path d="M 72.92 482.015642 
L 853.2 482.015642 
" clip-path="url(#p90acf7bd0f)" style="fill: none; stroke: #b0b0b0; stroke-width: 0.8; stroke-linecap: square"/>
     </g>
     <g id="line2d_50">
      <g>
       <use xlink:href="#ma4ed0a2066" x="72.92" y="482.015642" style="stroke: #000000; stroke-width: 0.8"/>
      </g>
     </g>
     <g id="text_27">
      <!-- 0.00025 -->
      <g transform="translate(24.566875 485.81486) scale(0.1 -0.1)">
       <use xlink:href="#DejaVuSans-30"/>
       <use xlink:href="#DejaVuSans-2e" transform="translate(63.623047 0)"/>
       <use xlink:href="#DejaVuSans-30" transform="translate(95.410156 0)"/>
       <use xlink:href="#DejaVuSans-30" transform="translate(159.033203 0)"/>
       <use xlink:href="#DejaVuSans-30" transform="translate(222.65625 0)"/>
       <use xlink:href="#DejaVuSans-32" transform="translate(286.279297 0)"/>
       <use xlink:href="#DejaVuSans-35" transform="translate(349.902344 0)"/>
      </g>
     </g>
    </g>
    <g id="ytick_9">
     <g id="line2d_51">
      <path d="M 72.92 454.475012 
L 853.2 454.475012 
" clip-path="url(#p90acf7bd0f)" style="fill: none; stroke: #b0b0b0; stroke-width: 0.8; stroke-linecap: square"/>
     </g>
     <g id="line2d_52">
      <g>
       <use xlink:href="#ma4ed0a2066" x="72.92" y="454.475012" style="stroke: #000000; stroke-width: 0.8"/>
      </g>
     </g>
     <g id="text_28">
      <!-- 0.00050 -->
      <g transform="translate(24.566875 458.274231) scale(0.1 -0.1)">
       <use xlink:href="#DejaVuSans-30"/>
       <use xlink:href="#DejaVuSans-2e" transform="translate(63.623047 0)"/>
       <use xlink:href="#DejaVuSans-30" transform="translate(95.410156 0)"/>
       <use xlink:href="#DejaVuSans-30" transform="translate(159.033203 0)"/>
       <use xlink:href="#DejaVuSans-30" transform="translate(222.65625 0)"/>
       <use xlink:href="#DejaVuSans-35" transform="translate(286.279297 0)"/>
       <use xlink:href="#DejaVuSans-30" transform="translate(349.902344 0)"/>
      </g>
     </g>
    </g>
    <g id="ytick_10">
     <g id="line2d_53">
      <path d="M 72.92 426.934383 
L 853.2 426.934383 
" clip-path="url(#p90acf7bd0f)" style="fill: none; stroke: #b0b0b0; stroke-width: 0.8; stroke-linecap: square"/>
     </g>
     <g id="line2d_54">
      <g>
       <use xlink:href="#ma4ed0a2066" x="72.92" y="426.934383" style="stroke: #000000; stroke-width: 0.8"/>
      </g>
     </g>
     <g id="text_29">
      <!-- 0.00075 -->
      <g transform="translate(24.566875 430.733602) scale(0.1 -0.1)">
       <use xlink:href="#DejaVuSans-30"/>
       <use xlink:href="#DejaVuSans-2e" transform="translate(63.623047 0)"/>
       <use xlink:href="#DejaVuSans-30" transform="translate(95.410156 0)"/>
       <use xlink:href="#DejaVuSans-30" transform="translate(159.033203 0)"/>
       <use xlink:href="#DejaVuSans-30" transform="translate(222.65625 0)"/>
       <use xlink:href="#DejaVuSans-37" transform="translate(286.279297 0)"/>
       <use xlink:href="#DejaVuSans-35" transform="translate(349.902344 0)"/>
      </g>
     </g>
    </g>
    <g id="ytick_11">
     <g id="line2d_55">
      <path d="M 72.92 399.393753 
L 853.2 399.393753 
" clip-path="url(#p90acf7bd0f)" style="fill: none; stroke: #b0b0b0; stroke-width: 0.8; stroke-linecap: square"/>
     </g>
     <g id="line2d_56">
      <g>
       <use xlink:href="#ma4ed0a2066" x="72.92" y="399.393753" style="stroke: #000000; stroke-width: 0.8"/>
      </g>
     </g>
     <g id="text_30">
      <!-- 0.00100 -->
      <g transform="translate(24.566875 403.192972) scale(0.1 -0.1)">
       <use xlink:href="#DejaVuSans-30"/>
       <use xlink:href="#DejaVuSans-2e" transform="translate(63.623047 0)"/>
       <use xlink:href="#DejaVuSans-30" transform="translate(95.410156 0)"/>
       <use xlink:href="#DejaVuSans-30" transform="translate(159.033203 0)"/>
       <use xlink:href="#DejaVuSans-31" transform="translate(222.65625 0)"/>
       <use xlink:href="#DejaVuSans-30" transform="translate(286.279297 0)"/>
       <use xlink:href="#DejaVuSans-30" transform="translate(349.902344 0)"/>
      </g>
     </g>
    </g>
    <g id="ytick_12">
     <g id="line2d_57">
      <path d="M 72.92 371.853124 
L 853.2 371.853124 
" clip-path="url(#p90acf7bd0f)" style="fill: none; stroke: #b0b0b0; stroke-width: 0.8; stroke-linecap: square"/>
     </g>
     <g id="line2d_58">
      <g>
       <use xlink:href="#ma4ed0a2066" x="72.92" y="371.853124" style="stroke: #000000; stroke-width: 0.8"/>
      </g>
     </g>
     <g id="text_31">
      <!-- 0.00125 -->
      <g transform="translate(24.566875 375.652343) scale(0.1 -0.1)">
       <use xlink:href="#DejaVuSans-30"/>
       <use xlink:href="#DejaVuSans-2e" transform="translate(63.623047 0)"/>
       <use xlink:href="#DejaVuSans-30" transform="translate(95.410156 0)"/>
       <use xlink:href="#DejaVuSans-30" transform="translate(159.033203 0)"/>
       <use xlink:href="#DejaVuSans-31" transform="translate(222.65625 0)"/>
       <use xlink:href="#DejaVuSans-32" transform="translate(286.279297 0)"/>
       <use xlink:href="#DejaVuSans-35" transform="translate(349.902344 0)"/>
      </g>
     </g>
    </g>
    <g id="ytick_13">
     <g id="line2d_59">
      <path d="M 72.92 344.312494 
L 853.2 344.312494 
" clip-path="url(#p90acf7bd0f)" style="fill: none; stroke: #b0b0b0; stroke-width: 0.8; stroke-linecap: square"/>
     </g>
     <g id="line2d_60">
      <g>
       <use xlink:href="#ma4ed0a2066" x="72.92" y="344.312494" style="stroke: #000000; stroke-width: 0.8"/>
      </g>
     </g>
     <g id="text_32">
      <!-- 0.00150 -->
      <g transform="translate(24.566875 348.111713) scale(0.1 -0.1)">
       <use xlink:href="#DejaVuSans-30"/>
       <use xlink:href="#DejaVuSans-2e" transform="translate(63.623047 0)"/>
       <use xlink:href="#DejaVuSans-30" transform="translate(95.410156 0)"/>
       <use xlink:href="#DejaVuSans-30" transform="translate(159.033203 0)"/>
       <use xlink:href="#DejaVuSans-31" transform="translate(222.65625 0)"/>
       <use xlink:href="#DejaVuSans-35" transform="translate(286.279297 0)"/>
       <use xlink:href="#DejaVuSans-30" transform="translate(349.902344 0)"/>
      </g>
     </g>
    </g>
    <g id="ytick_14">
     <g id="line2d_61">
      <path d="M 72.92 316.771865 
L 853.2 316.771865 
" clip-path="url(#p90acf7bd0f)" style="fill: none; stroke: #b0b0b0; stroke-width: 0.8; stroke-linecap: square"/>
     </g>
     <g id="line2d_62">
      <g>
       <use xlink:href="#ma4ed0a2066" x="72.92" y="316.771865" style="stroke: #000000; stroke-width: 0.8"/>
      </g>
     </g>
     <g id="text_33">
      <!-- 0.00175 -->
      <g transform="translate(24.566875 320.571084) scale(0.1 -0.1)">
       <use xlink:href="#DejaVuSans-30"/>
       <use xlink:href="#DejaVuSans-2e" transform="translate(63.623047 0)"/>
       <use xlink:href="#DejaVuSans-30" transform="translate(95.410156 0)"/>
       <use xlink:href="#DejaVuSans-30" transform="translate(159.033203 0)"/>
       <use xlink:href="#DejaVuSans-31" transform="translate(222.65625 0)"/>
       <use xlink:href="#DejaVuSans-37" transform="translate(286.279297 0)"/>
       <use xlink:href="#DejaVuSans-35" transform="translate(349.902344 0)"/>
      </g>
     </g>
    </g>
    <g id="text_34">
     <!-- Estimated Value -->
     <g transform="translate(18.487187 458.818906) rotate(-90) scale(0.1 -0.1)">
      <defs>
       <path id="DejaVuSans-45" d="M 628 4666 
L 3578 4666 
L 3578 4134 
L 1259 4134 
L 1259 2753 
L 3481 2753 
L 3481 2222 
L 1259 2222 
L 1259 531 
L 3634 531 
L 3634 0 
L 628 0 
L 628 4666 
z
" transform="scale(0.015625)"/>
       <path id="DejaVuSans-56" d="M 1831 0 
L 50 4666 
L 709 4666 
L 2188 738 
L 3669 4666 
L 4325 4666 
L 2547 0 
L 1831 0 
z
" transform="scale(0.015625)"/>
      </defs>
      <use xlink:href="#DejaVuSans-45"/>
      <use xlink:href="#DejaVuSans-73" transform="translate(63.183594 0)"/>
      <use xlink:href="#DejaVuSans-74" transform="translate(115.283203 0)"/>
      <use xlink:href="#DejaVuSans-69" transform="translate(154.492188 0)"/>
      <use xlink:href="#DejaVuSans-6d" transform="translate(182.275391 0)"/>
      <use xlink:href="#DejaVuSans-61" transform="translate(279.6875 0)"/>
      <use xlink:href="#DejaVuSans-74" transform="translate(340.966797 0)"/>
      <use xlink:href="#DejaVuSans-65" transform="translate(380.175781 0)"/>
      <use xlink:href="#DejaVuSans-64" transform="translate(441.699219 0)"/>
      <use xlink:href="#DejaVuSans-20" transform="translate(505.175781 0)"/>
      <use xlink:href="#DejaVuSans-56" transform="translate(536.962891 0)"/>
      <use xlink:href="#DejaVuSans-61" transform="translate(597.621094 0)"/>
      <use xlink:href="#DejaVuSans-6c" transform="translate(658.900391 0)"/>
      <use xlink:href="#DejaVuSans-75" transform="translate(686.683594 0)"/>
      <use xlink:href="#DejaVuSans-65" transform="translate(750.0625 0)"/>
     </g>
    </g>
   </g>
   <g id="line2d_63">
    <path d="M 108.387273 509.556271 
L 127.393197 509.495656 
L 127.537912 490.618237 
L 127.827342 489.384189 
L 128.116772 489.090389 
L 128.599156 488.971371 
L 129.853354 488.962101 
L 141.527043 489.267967 
L 151.271197 489.10384 
L 151.415912 484.730157 
L 152.139488 484.10831 
L 152.814826 483.967823 
L 154.1655 483.956348 
L 163.089602 484.298247 
L 163.234317 484.158981 
L 175.535105 483.62649 
L 177.030495 483.178466 
L 179.249461 482.762585 
L 182.384956 482.410628 
L 185.134544 482.291657 
L 186.72641 482.291657 
L 186.871125 482.602691 
L 189.331283 482.626876 
L 201.487356 482.494605 
L 210.363219 482.316044 
L 210.556173 482.423015 
L 211.424464 482.455402 
L 217.020116 482.383838 
L 222.181623 482.251289 
L 222.229862 486.243339 
L 222.2781 485.664335 
L 222.567531 481.755379 
L 222.808722 481.170302 
L 223.19463 480.86632 
L 223.966444 480.611247 
L 225.944217 480.24827 
L 229.610335 479.805478 
L 232.311684 479.670937 
L 234.000028 479.670937 
L 234.096505 479.116129 
L 234.144743 479.12229 
L 235.881325 479.33479 
L 243.213559 479.769789 
L 245.818432 479.769789 
L 245.914909 478.040007 
L 245.963147 478.049815 
L 247.024392 478.261563 
L 248.953927 478.230669 
L 257.636837 477.956843 
L 257.781552 478.142413 
L 260.241709 478.580063 
L 263.232489 478.747418 
L 268.779904 478.812707 
L 269.455241 478.812707 
L 269.599956 478.426834 
L 271.818922 478.095188 
L 275.099132 477.929065 
L 281.177169 477.860005 
L 284.167948 477.970103 
L 292.079044 478.035457 
L 294.973347 477.924571 
L 309.493101 477.896745 
L 316.921812 477.922093 
L 320.87736 477.797032 
L 328.499024 477.778848 
L 328.64374 477.931199 
L 331.972188 478.014257 
L 344.803599 478.220004 
L 344.948314 509.556271 
L 363.954238 509.647698 
L 364.581337 509.865436 
L 366.945017 509.983456 
L 375.386735 510.199845 
L 384.696743 510.184478 
L 387.735761 510.181178 
L 387.880477 509.769545 
L 389.134675 509.603613 
L 392.607838 509.596351 
L 406.8864 509.594323 
L 424.396934 509.596536 
L 458.646188 509.572447 
L 458.790903 509.249729 
L 459.225048 509.177803 
L 464.483032 509.030522 
L 472.394128 508.971905 
L 482.282997 509.0606 
L 482.427712 508.814127 
L 484.646677 508.850955 
L 494.969692 508.874066 
L 498.877001 508.964011 
L 505.919805 508.98553 
L 506.06452 508.886597 
L 510.791882 508.792971 
L 529.556614 508.758652 
L 529.797806 508.79513 
L 538.528954 508.791494 
L 573.984167 508.852034 
L 581.268163 508.876427 
L 581.412878 509.556271 
L 624.200326 509.463256 
L 624.248564 509.067127 
L 624.345041 509.13113 
L 625.309809 510.454839 
L 625.985146 510.735737 
L 627.142867 510.951037 
L 629.313595 511.100284 
L 633.317381 511.126513 
L 636.01873 511.125954 
L 636.163445 511.598163 
L 637.079975 511.778948 
L 638.864795 511.961178 
L 642.241482 512.052907 
L 647.837135 512.042999 
L 647.98185 511.377136 
L 648.367757 511.552347 
L 649.187809 511.859879 
L 650.490246 512.069743 
L 652.998642 512.210209 
L 659.124917 512.281619 
L 659.655539 512.281619 
L 659.800254 513.3127 
L 665.202953 513.357172 
L 671.473943 513.37304 
L 671.618658 512.813587 
L 673.548194 513.007338 
L 677.117834 513.11135 
L 683.340586 513.175491 
L 683.485301 512.954641 
L 684.691261 512.935593 
L 693.470647 512.993146 
L 695.110752 512.993146 
L 695.255467 511.707341 
L 697.185003 511.135951 
L 699.211015 511.008622 
L 702.34651 511.040866 
L 706.929156 511.154736 
L 706.977395 510.582461 
L 707.073872 510.603742 
L 707.845686 510.840516 
L 709.244599 510.821992 
L 718.747561 510.379403 
L 718.892276 509.015317 
L 726.658656 509.012378 
L 732.929646 509.105776 
L 742.38437 509.127119 
L 742.577323 509.076911 
L 750.681372 509.031182 
L 766.600039 509.11905 
L 773.73932 509.135663 
L 777.839583 509.136175 
L 777.984298 509.434091 
L 780.782124 509.479714 
L 817.732727 509.520076 
L 817.732727 509.520076 
" clip-path="url(#p90acf7bd0f)" style="fill: none; stroke: #0000ff; stroke-width: 1.5; stroke-linecap: square"/>
   </g>
   <g id="line2d_64">
    <path d="M 108.387273 509.556271 
L 127.393197 509.520873 
L 127.537912 489.814197 
L 127.634388 489.51974 
L 128.020296 487.781338 
L 128.068534 487.791813 
L 128.261487 487.765526 
L 128.502679 488.117194 
L 128.79211 488.084971 
L 129.226255 488.259687 
L 129.901593 487.923411 
L 130.57693 487.673868 
L 130.86636 487.638749 
L 131.252267 487.74797 
L 131.975843 488.01521 
L 132.892372 488.273005 
L 133.471233 488.358683 
L 134.918385 488.71379 
L 135.834914 488.98472 
L 136.172583 489.094123 
L 136.944397 489.452714 
L 138.488025 489.888353 
L 139.935177 490.443936 
L 141.382328 490.742461 
L 142.443573 490.996031 
L 142.82948 490.98975 
L 144.083678 491.13208 
L 144.759015 491.04869 
L 145.241399 491.053944 
L 145.675544 491.040896 
L 146.977981 491.114083 
L 149.486377 490.998955 
L 151.271197 490.998955 
L 151.415912 483.821608 
L 151.560627 483.800792 
L 151.801819 483.653492 
L 151.994773 483.674978 
L 152.766587 483.308067 
L 153.104256 483.274733 
L 156.86685 482.888289 
L 157.397472 482.799014 
L 158.024571 482.694941 
L 158.65167 482.610605 
L 159.375246 482.573823 
L 159.85763 482.552536 
L 160.725921 482.547665 
L 163.089602 482.547665 
L 163.234317 482.421719 
L 165.742713 482.556118 
L 174.908006 482.424473 
L 175.100959 482.230484 
L 176.017489 481.808377 
L 176.355157 481.735324 
L 176.837541 481.666274 
L 177.271687 481.57464 
L 177.898786 481.389677 
L 179.201222 481.267159 
L 181.082519 480.992877 
L 181.66138 481.008816 
L 182.963816 480.991954 
L 185.182782 481.013942 
L 198.544815 480.905353 
L 198.68953 479.922792 
L 199.123675 479.640966 
L 199.557821 479.474051 
L 199.991966 479.299102 
L 200.860257 478.956533 
L 201.583833 478.671195 
L 202.403886 478.397824 
L 206.74534 477.368306 
L 210.459696 477.343805 
L 210.990318 477.4085 
L 220.734472 477.272308 
L 222.181623 477.272308 
L 222.229862 484.248607 
L 222.2781 483.496625 
L 222.471054 479.44456 
L 222.664007 479.352738 
L 222.856961 479.40619 
L 223.098153 479.033406 
L 223.628775 478.802305 
L 224.06292 478.682078 
L 224.497066 478.685717 
L 225.172403 478.583425 
L 225.461834 478.586229 
L 225.847741 478.492133 
L 227.729038 478.029587 
L 228.211422 478.014592 
L 229.562096 477.611427 
L 230.816294 477.506275 
L 231.298678 477.538758 
L 231.684585 477.522494 
L 234.000028 477.522494 
L 234.048266 478.260077 
L 234.144743 478.221284 
L 234.578888 477.620469 
L 234.771842 477.648533 
L 235.061272 477.719558 
L 235.833086 477.734196 
L 236.267232 477.625391 
L 238.582674 477.384618 
L 242.731176 477.657142 
L 245.818432 477.654385 
L 245.866671 475.82446 
L 245.963147 475.848845 
L 246.879677 475.706831 
L 247.169107 475.741359 
L 247.506776 475.748711 
L 249.629265 475.611752 
L 250.256364 475.586012 
L 254.211911 475.478954 
L 255.321394 475.418628 
L 257.636837 475.418628 
L 257.781552 475.647304 
L 259.711087 476.250254 
L 262.31596 476.571364 
L 269.455241 476.757412 
L 269.599956 476.493308 
L 270.998869 476.502286 
L 271.963637 476.515132 
L 272.880166 476.540044 
L 275.677993 476.64892 
L 280.453593 476.732767 
L 281.273645 476.732767 
L 281.41836 476.995816 
L 283.444373 477.067639 
L 286.579868 477.117393 
L 288.31645 477.144052 
L 293.09205 477.201499 
L 293.236765 476.811508 
L 304.910454 476.594917 
L 305.055169 477.704868 
L 305.296361 477.693634 
L 305.730507 477.648486 
L 307.081181 477.669744 
L 312.821549 477.999982 
L 315.812329 477.991565 
L 317.066527 477.881155 
L 322.276273 477.624896 
L 328.499024 477.549868 
L 328.64374 477.696029 
L 332.840479 477.745485 
L 338.773801 477.737655 
L 344.803599 477.746436 
L 344.948314 509.556271 
L 363.857761 509.563191 
L 363.905999 509.219012 
L 364.002476 509.233964 
L 364.147191 509.56067 
L 364.48486 508.751538 
L 365.160197 509.259777 
L 365.353151 509.353605 
L 365.739058 509.439123 
L 366.607349 509.078373 
L 366.848541 509.02554 
L 367.234448 508.832295 
L 367.668593 508.894362 
L 368.343931 509.16219 
L 370.997042 509.67472 
L 373.071292 510.335595 
L 373.601915 510.52883 
L 374.277252 510.709952 
L 378.136323 511.873116 
L 378.666945 511.981091 
L 379.052852 512.029157 
L 379.486998 512.112405 
L 379.969381 512.193531 
L 380.934149 512.136288 
L 382.140109 512.152536 
L 383.442545 512.255748 
L 386.240372 512.179493 
L 387.735761 512.179493 
L 387.832238 508.877775 
L 387.880477 508.884798 
L 388.07343 508.997507 
L 388.314622 509.125057 
L 388.555814 509.198438 
L 389.761774 509.026727 
L 390.581826 508.905586 
L 391.546594 508.711821 
L 392.511362 508.599773 
L 396.322194 508.003225 
L 397.286962 507.983753 
L 400.277742 508.094225 
L 401.194271 508.201154 
L 403.509713 508.209537 
L 405.439249 508.258272 
L 406.741685 508.255818 
L 411.37257 508.20385 
L 411.565524 508.045451 
L 412.047908 507.989506 
L 412.337338 507.91589 
L 412.626768 507.935009 
L 414.07392 507.932514 
L 414.604542 507.891069 
L 416.14817 507.96549 
L 417.402368 507.882686 
L 418.704805 507.982442 
L 420.151956 508.04042 
L 423.190975 508.114157 
L 423.33569 507.933616 
L 426.519423 507.925154 
L 430.764401 507.92889 
L 435.009379 507.782226 
L 435.154094 506.834747 
L 435.58824 506.552362 
L 436.022385 506.389815 
L 436.456531 506.221398 
L 437.324821 505.897317 
L 438.048397 505.630435 
L 438.86845 505.379906 
L 443.258143 504.466957 
L 453.774111 504.33837 
L 455.221262 504.393829 
L 456.378984 504.417767 
L 458.646188 504.417767 
L 458.694426 508.383485 
L 458.790903 507.771328 
L 458.88738 507.245704 
L 459.128572 508.661949 
L 459.321525 509.05076 
L 459.514479 508.882971 
L 460.479246 508.819565 
L 461.202822 508.916559 
L 461.492252 508.872328 
L 462.022875 508.954345 
L 462.698212 508.860744 
L 462.987642 508.773761 
L 463.277073 508.73231 
L 463.470026 508.702802 
L 463.807695 508.527798 
L 464.145364 508.621574 
L 464.579509 508.668425 
L 465.4478 508.480336 
L 466.026661 508.364959 
L 467.329097 508.348715 
L 468.14915 508.375427 
L 470.464592 508.375427 
L 470.512831 509.062053 
L 470.609307 509.012231 
L 471.043453 508.342569 
L 471.236406 508.351868 
L 471.525837 508.400828 
L 472.297651 508.369709 
L 472.731796 508.238869 
L 474.999 507.888498 
L 477.459158 507.933499 
L 478.086257 507.962908 
L 482.282997 507.972278 
L 482.331235 507.346728 
L 482.427712 507.362498 
L 483.778386 507.112225 
L 485.032584 507.075869 
L 485.418492 507.053506 
L 486.190306 506.970717 
L 487.348027 507.014176 
L 490.676476 507.010556 
L 491.930674 506.971575 
L 494.294354 507.077055 
L 495.210884 507.30999 
L 496.127413 507.391477 
L 497.429849 507.507069 
L 501.433635 507.662114 
L 506.402189 507.731218 
L 510.598929 508.12383 
L 513.010848 508.277536 
L 517.73821 508.362668 
L 517.882925 508.569608 
L 519.957175 508.563043 
L 524.202153 508.570438 
L 528.591846 508.630782 
L 529.556614 508.630782 
L 529.701329 508.375171 
L 536.358226 508.288666 
L 539.493721 508.225485 
L 541.375018 508.225485 
L 541.519734 509.265954 
L 541.760925 509.254022 
L 542.195071 509.205251 
L 543.593984 509.210165 
L 546.247095 509.340099 
L 553.145184 509.420585 
L 553.338138 509.367521 
L 562.55167 509.134521 
L 576.781993 509.107748 
L 576.926708 509.006907 
L 581.268163 508.986783 
L 581.412878 509.556285 
L 587.876822 509.454825 
L 589.082781 509.453565 
L 591.784131 509.598575 
L 592.073561 509.641358 
L 592.893614 509.809033 
L 594.340765 510.289577 
L 596.752685 510.51064 
L 597.862167 510.46232 
L 600.322325 510.46232 
L 600.370564 509.536731 
L 600.418802 510.630325 
L 600.46704 509.906456 
L 600.515279 510.908858 
L 600.611755 510.631848 
L 600.901186 508.93358 
L 600.949424 508.894991 
L 600.997663 508.976228 
L 601.238854 509.227669 
L 601.528285 509.603843 
L 602.010669 509.940033 
L 602.541291 510.010599 
L 603.313105 509.888796 
L 603.650774 509.780097 
L 603.795489 509.767976 
L 604.036681 509.899544 
L 604.519065 509.31564 
L 604.95321 508.433346 
L 605.339117 508.036965 
L 605.725024 507.021641 
L 606.496838 506.281948 
L 606.689792 506.203562 
L 606.834507 505.992235 
L 607.702798 504.42544 
L 607.847513 504.301844 
L 608.378135 503.037538 
L 609.101711 502.04921 
L 609.584095 500.432339 
L 610.018241 499.3854 
L 610.259432 499.035948 
L 610.404148 498.899605 
L 610.452386 498.962147 
L 610.500624 498.854117 
L 611.706584 496.57595 
L 611.899538 495.925133 
L 612.140729 495.081365 
L 612.43016 494.55849 
L 612.71959 493.995212 
L 612.960782 493.582919 
L 613.00902 493.591142 
L 613.153736 493.413626 
L 613.298451 493.462195 
L 613.636119 493.375486 
L 614.600887 491.960883 
L 614.842079 492.000857 
L 614.986794 491.994131 
L 615.324463 491.449751 
L 615.372701 491.43376 
L 615.565655 491.656892 
L 616.433946 491.281977 
L 616.530423 491.349085 
L 616.723376 491.489396 
L 616.91633 491.444698 
L 617.20576 491.939102 
L 617.543429 492.344528 
L 618.170528 492.499445 
L 618.363481 492.676892 
L 618.508196 492.637179 
L 618.797627 492.646321 
L 618.99058 492.601558 
L 619.280011 492.216418 
L 619.472964 492.135207 
L 619.617679 492.213214 
L 619.762394 492.148266 
L 620.051825 492.429723 
L 620.437732 492.630482 
L 620.630685 492.76016 
L 620.920116 492.775436 
L 621.69193 492.915342 
L 624.200326 492.915342 
L 624.923902 522.277856 
L 624.97214 522.245277 
L 625.020378 523.512727 
L 625.068617 523.440561 
L 625.309809 518.560697 
L 625.358047 518.692768 
L 625.502762 517.354157 
L 625.551001 517.703856 
L 625.599239 517.959366 
L 625.647477 517.671923 
L 625.695716 517.731303 
L 625.792193 519.21806 
L 625.840431 518.912636 
L 625.985146 517.350596 
L 626.033384 517.936148 
L 626.081623 517.92958 
L 626.322815 520.483206 
L 626.660483 517.323417 
L 626.949914 515.381471 
L 627.094629 513.449662 
L 627.335821 510.115652 
L 627.480536 508.258617 
L 627.866443 503.685728 
L 628.011158 503.746641 
L 628.059397 503.640324 
L 628.107635 503.711439 
L 628.25235 504.212445 
L 628.300589 504.118474 
L 628.397065 503.976085 
L 628.638257 502.641098 
L 629.072403 496.110498 
L 629.506548 492.699534 
L 629.699502 491.37561 
L 629.844217 489.043564 
L 630.085409 486.811956 
L 630.230124 485.162996 
L 630.326601 485.187403 
L 630.423077 484.618547 
L 631.339607 474.289343 
L 631.387845 474.390186 
L 631.53256 473.091275 
L 631.580799 472.613154 
L 631.629037 472.864412 
L 631.773752 473.523563 
L 631.821991 473.357041 
L 632.545566 467.520256 
L 632.593805 467.633535 
L 632.883235 468.271737 
L 632.931474 467.876243 
L 632.979712 467.956234 
L 633.220904 469.05271 
L 633.365619 468.297805 
L 636.01873 468.297805 
L 636.066969 460.924066 
L 636.163445 461.51634 
L 636.30816 463.781291 
L 636.645829 469.462869 
L 636.983498 472.61559 
L 637.22469 473.789313 
L 637.272928 473.708164 
L 637.321167 473.452972 
L 637.369405 473.582975 
L 637.465882 474.525331 
L 637.658835 475.623619 
L 637.851789 474.920836 
L 638.092981 477.457218 
L 638.189458 477.159864 
L 638.430649 474.57888 
L 638.575365 474.856873 
L 638.72008 474.831361 
L 638.864795 474.799813 
L 638.961272 474.494381 
L 639.00951 474.60771 
L 639.29894 475.38412 
L 639.347179 475.294352 
L 639.443656 474.733462 
L 639.491894 474.769794 
L 639.588371 475.504563 
L 639.636609 475.431412 
L 639.877801 474.587564 
L 639.926039 474.844856 
L 640.118993 476.059352 
L 640.167231 476.026032 
L 640.21547 475.837375 
L 640.5049 478.311779 
L 640.697854 479.267215 
L 640.890807 479.407223 
L 641.035522 479.744105 
L 641.276714 479.112839 
L 641.324953 479.193708 
L 641.421429 479.445057 
L 641.566144 478.779458 
L 641.614383 479.064236 
L 641.855575 479.610141 
L 642.00029 479.247518 
L 642.048528 479.402546 
L 642.145005 479.842972 
L 642.193243 479.785537 
L 642.723866 480.975723 
L 642.772104 480.766042 
L 642.820342 480.809181 
L 642.916819 480.97883 
L 643.20625 480.30458 
L 643.254488 480.348747 
L 643.302726 480.169383 
L 643.350965 480.214528 
L 643.592157 480.859099 
L 643.640395 480.77473 
L 643.978064 481.21858 
L 644.122779 481.547127 
L 644.412209 480.834451 
L 644.942831 478.584036 
L 645.039308 478.099741 
L 645.232262 479.136962 
L 647.837135 479.136962 
L 647.885373 495.22384 
L 647.98185 493.697312 
L 648.174803 490.824187 
L 648.319518 493.942541 
L 648.367757 493.373511 
L 648.512472 490.703318 
L 648.56071 490.966704 
L 648.850141 486.692455 
L 648.946617 487.253002 
L 649.091333 488.77715 
L 649.187809 489.715821 
L 649.284286 489.344882 
L 649.332524 489.196359 
L 649.573716 492.216001 
L 650.0561 497.247979 
L 650.297292 494.21169 
L 650.393769 494.765316 
L 650.490246 494.799112 
L 650.731438 493.107645 
L 650.779676 493.106456 
L 650.876153 494.074537 
L 650.97263 493.884923 
L 651.455013 497.665053 
L 651.696205 498.973291 
L 651.840921 499.644145 
L 651.985636 500.217563 
L 652.130351 500.392576 
L 652.178589 500.309955 
L 652.516258 501.999456 
L 652.564496 501.914055 
L 652.709211 501.316408 
L 652.950403 502.71072 
L 652.998642 502.600332 
L 653.384549 502.236754 
L 653.577502 501.737 
L 653.673979 501.682534 
L 653.818694 501.249171 
L 653.915171 501.295326 
L 654.011648 501.77249 
L 654.204601 502.820913 
L 654.638747 504.576775 
L 654.686985 504.567934 
L 654.928177 505.33286 
L 654.976416 505.219848 
L 655.024654 505.34984 
L 655.507038 507.005434 
L 655.651753 507.042277 
L 656.03766 507.974374 
L 656.085898 507.887848 
L 656.278852 507.276377 
L 656.375329 507.628509 
L 656.616521 508.086639 
L 656.761236 508.337093 
L 657.098905 510.049507 
L 659.655539 510.049507 
L 659.800254 455.116531 
L 659.896731 454.929767 
L 659.944969 455.00477 
L 660.089684 455.30613 
L 660.379115 456.265589 
L 660.572068 456.444138 
L 660.765022 456.671302 
L 661.054452 456.742448 
L 661.199167 456.577626 
L 661.392121 456.700727 
L 661.681551 456.824124 
L 661.874505 456.866248 
L 662.163935 457.099795 
L 662.405127 457.357188 
L 662.742796 458.184633 
L 662.935749 458.190319 
L 663.321656 458.610953 
L 663.369895 458.57193 
L 663.80404 458.456342 
L 663.996994 458.628187 
L 664.189947 458.891152 
L 664.624093 459.080346 
L 664.913523 459.471336 
L 665.058238 459.515057 
L 665.251192 459.49141 
L 665.58886 459.637838 
L 665.733575 459.444968 
L 665.781814 459.480872 
L 665.926529 459.495455 
L 666.119483 459.379295 
L 666.457151 459.137512 
L 666.601866 459.094215 
L 667.325442 459.61017 
L 667.663111 459.115584 
L 668.386687 458.239655 
L 668.676117 457.448318 
L 668.917309 457.009667 
L 671.473943 457.009667 
L 671.618658 423.392266 
L 671.811612 421.292091 
L 672.101042 417.850368 
L 672.631665 415.617105 
L 673.017572 413.068948 
L 673.114048 412.611274 
L 673.258764 411.792455 
L 673.307002 411.924839 
L 673.35524 411.852878 
L 673.451717 411.529579 
L 673.934101 408.740037 
L 674.030578 408.301962 
L 674.464723 405.662744 
L 674.802392 403.834016 
L 675.525968 401.408568 
L 675.670683 401.039273 
L 676.05659 399.763258 
L 676.635451 396.927068 
L 676.924881 395.827466 
L 677.021358 395.810822 
L 677.359026 394.746825 
L 678.564986 392.057019 
L 678.709701 391.773393 
L 678.806178 391.816153 
L 678.950893 391.745188 
L 679.143847 391.837073 
L 679.192085 391.882158 
L 679.240323 391.789062 
L 679.385038 391.681067 
L 679.433277 391.727177 
L 679.481515 391.640851 
L 679.529754 391.659616 
L 679.722707 392.009872 
L 679.770946 392.075944 
L 679.819184 392.008031 
L 679.963899 391.78877 
L 680.108614 391.875118 
L 680.446283 392.217873 
L 680.494521 392.16523 
L 680.54276 392.128555 
L 680.687475 392.251971 
L 683.292348 392.251971 
L 683.437063 316.162396 
L 683.630016 313.950098 
L 683.774732 313.654785 
L 683.82297 313.727443 
L 683.919447 313.626343 
L 683.967685 313.67471 
L 684.498307 313.894686 
L 684.691261 313.943127 
L 685.125406 313.958573 
L 685.60779 314.043518 
L 685.945459 314.003972 
L 686.234889 314.079937 
L 687.730279 313.331121 
L 688.019709 313.038777 
L 688.357378 313.226336 
L 688.453855 313.278053 
L 688.791524 313.007022 
L 688.936239 312.983849 
L 689.418623 313.238554 
L 689.466861 313.185818 
L 689.515099 313.25276 
L 689.80453 313.406832 
L 689.949245 313.382851 
L 690.286914 313.547241 
L 690.479867 313.214699 
L 690.528105 313.245378 
L 691.251681 314.522421 
L 691.541112 315.083845 
L 691.734065 315.408437 
L 692.023495 316.104485 
L 692.264687 316.460989 
L 692.505879 316.680656 
L 695.110752 316.680656 
L 695.255467 410.309941 
L 695.834328 422.185275 
L 695.930805 424.173705 
L 696.123758 429.079291 
L 696.220235 430.011989 
L 697.377956 444.708191 
L 697.474433 445.039579 
L 697.57091 444.689711 
L 697.667386 445.076349 
L 697.715625 444.979366 
L 697.763863 444.888007 
L 697.812102 444.916139 
L 697.86034 445.009256 
L 697.908578 444.906474 
L 698.053294 444.966215 
L 698.487439 447.495128 
L 698.583916 447.415495 
L 698.632154 447.536134 
L 698.680393 447.477775 
L 698.825108 447.212515 
L 699.018061 447.552466 
L 699.162776 448.235207 
L 699.307492 448.160335 
L 699.548684 447.637665 
L 699.741637 448.520971 
L 699.886352 449.229615 
L 700.127544 447.401377 
L 700.224021 447.609122 
L 700.320498 447.952257 
L 700.802882 452.329725 
L 700.995835 452.78535 
L 701.188789 453.011834 
L 701.478219 452.079902 
L 701.526457 452.125897 
L 701.671172 452.502196 
L 701.719411 452.433229 
L 702.298271 451.417333 
L 702.732417 452.211759 
L 702.877132 452.232018 
L 703.070086 452.504913 
L 703.552469 453.023412 
L 703.745423 452.908882 
L 704.083092 453.925029 
L 704.13133 453.891125 
L 704.276045 453.776765 
L 706.929156 453.776765 
L 707.073872 479.51112 
L 707.508017 491.145998 
L 707.556255 491.462039 
L 707.604494 490.980837 
L 707.652732 491.560143 
L 707.845686 493.848655 
L 707.942163 493.668647 
L 708.183354 494.953593 
L 708.569262 496.923189 
L 708.6175 496.841584 
L 708.713977 497.151509 
L 709.244599 499.025834 
L 709.389314 499.114375 
L 709.630506 499.694198 
L 710.11289 500.873533 
L 710.595274 502.790653 
L 710.643512 502.752238 
L 710.788227 502.628363 
L 711.125896 503.350732 
L 711.367088 503.884216 
L 711.415326 503.846366 
L 711.560041 503.72554 
L 711.752995 504.096423 
L 712.235379 504.80774 
L 712.428332 505.036151 
L 712.814239 505.945354 
L 712.958955 505.96653 
L 713.10367 505.928367 
L 713.344862 505.844126 
L 714.020199 506.333815 
L 714.550821 506.454658 
L 714.743775 506.50499 
L 714.88849 506.363128 
L 715.660304 506.494252 
L 715.901496 506.702789 
L 716.239165 506.658667 
L 718.747561 506.658667 
L 718.892276 507.397181 
L 720.194712 507.01849 
L 721.111242 506.963951 
L 723.040777 506.836648 
L 723.812591 506.909898 
L 726.996325 506.972928 
L 727.7199 506.9011 
L 729.794151 506.902519 
L 730.855396 507.005309 
L 732.929646 507.280411 
L 740.503073 507.600076 
L 743.059707 507.704046 
L 744.506859 507.934706 
L 749.282459 508.237972 
L 752.128523 508.337147 
L 754.202774 508.337147 
L 754.347489 508.738403 
L 755.842879 508.701322 
L 759.123089 508.622841 
L 766.021178 508.659565 
L 766.165893 508.274551 
L 766.600039 508.362634 
L 767.034184 508.362292 
L 768.529574 508.274863 
L 769.25315 508.231956 
L 772.436884 508.067435 
L 776.585385 507.943437 
L 777.839583 507.943437 
L 777.984298 509.817347 
L 778.177251 509.8146 
L 779.527926 509.722773 
L 780.396217 509.792365 
L 781.5057 509.835335 
L 783.917619 509.978448 
L 784.978864 510.003082 
L 789.609749 509.982641 
L 789.802702 509.936681 
L 799.450379 509.728806 
L 813.246557 509.646939 
L 813.391273 509.529938 
L 817.732727 509.499154 
L 817.732727 509.499154 
" clip-path="url(#p90acf7bd0f)" style="fill: none; stroke-dasharray: 5.55,2.4; stroke-dashoffset: 0; stroke: #ff0000; stroke-width: 1.5"/>
   </g>
   <g id="line2d_65">
    <path d="M 344.851837 534.04 
L 344.851837 302.44 
" clip-path="url(#p90acf7bd0f)" style="fill: none; stroke-dasharray: 1.5,2.475; stroke-dashoffset: 0; stroke: #808080; stroke-opacity: 0.6; stroke-width: 1.5"/>
   </g>
   <g id="line2d_66">
    <path d="M 581.316401 534.04 
L 581.316401 302.44 
" clip-path="url(#p90acf7bd0f)" style="fill: none; stroke-dasharray: 1.5,2.475; stroke-dashoffset: 0; stroke: #808080; stroke-opacity: 0.6; stroke-width: 1.5"/>
   </g>
   <g id="patch_9">
    <path d="M 72.92 534.04 
L 72.92 302.44 
" style="fill: none; stroke: #000000; stroke-width: 0.8; stroke-linejoin: miter; stroke-linecap: square"/>
   </g>
   <g id="patch_10">
    <path d="M 853.2 534.04 
L 853.2 302.44 
" style="fill: none; stroke: #000000; stroke-width: 0.8; stroke-linejoin: miter; stroke-linecap: square"/>
   </g>
   <g id="patch_11">
    <path d="M 72.92 534.04 
L 853.2 534.04 
" style="fill: none; stroke: #000000; stroke-width: 0.8; stroke-linejoin: miter; stroke-linecap: square"/>
   </g>
   <g id="patch_12">
    <path d="M 72.92 302.44 
L 853.2 302.44 
" style="fill: none; stroke: #000000; stroke-width: 0.8; stroke-linejoin: miter; stroke-linecap: square"/>
   </g>
   <g id="text_35">
    <!-- [17] Kg_zy  —  State Estimate -->
    <g transform="translate(373.474375 296.44) scale(0.12 -0.12)">
     <use xlink:href="#DejaVuSans-5b"/>
     <use xlink:href="#DejaVuSans-31" transform="translate(39.013672 0)"/>
     <use xlink:href="#DejaVuSans-37" transform="translate(102.636719 0)"/>
     <use xlink:href="#DejaVuSans-5d" transform="translate(166.259766 0)"/>
     <use xlink:href="#DejaVuSans-20" transform="translate(205.273438 0)"/>
     <use xlink:href="#DejaVuSans-4b" transform="translate(237.060547 0)"/>
     <use xlink:href="#DejaVuSans-67" transform="translate(302.636719 0)"/>
     <use xlink:href="#DejaVuSans-5f" transform="translate(366.113281 0)"/>
     <use xlink:href="#DejaVuSans-7a" transform="translate(416.113281 0)"/>
     <use xlink:href="#DejaVuSans-79" transform="translate(468.603516 0)"/>
     <use xlink:href="#DejaVuSans-20" transform="translate(527.783203 0)"/>
     <use xlink:href="#DejaVuSans-20" transform="translate(559.570312 0)"/>
     <use xlink:href="#DejaVuSans-2014" transform="translate(591.357422 0)"/>
     <use xlink:href="#DejaVuSans-20" transform="translate(691.357422 0)"/>
     <use xlink:href="#DejaVuSans-20" transform="translate(723.144531 0)"/>
     <use xlink:href="#DejaVuSans-53" transform="translate(754.931641 0)"/>
     <use xlink:href="#DejaVuSans-74" transform="translate(818.408203 0)"/>
     <use xlink:href="#DejaVuSans-61" transform="translate(857.617188 0)"/>
     <use xlink:href="#DejaVuSans-74" transform="translate(918.896484 0)"/>
     <use xlink:href="#DejaVuSans-65" transform="translate(958.105469 0)"/>
     <use xlink:href="#DejaVuSans-20" transform="translate(1019.628906 0)"/>
     <use xlink:href="#DejaVuSans-45" transform="translate(1051.416016 0)"/>
     <use xlink:href="#DejaVuSans-73" transform="translate(1114.599609 0)"/>
     <use xlink:href="#DejaVuSans-74" transform="translate(1166.699219 0)"/>
     <use xlink:href="#DejaVuSans-69" transform="translate(1205.908203 0)"/>
     <use xlink:href="#DejaVuSans-6d" transform="translate(1233.691406 0)"/>
     <use xlink:href="#DejaVuSans-61" transform="translate(1331.103516 0)"/>
     <use xlink:href="#DejaVuSans-74" transform="translate(1392.382812 0)"/>
     <use xlink:href="#DejaVuSans-65" transform="translate(1431.591797 0)"/>
    </g>
   </g>
   <g id="legend_2">
    <g id="patch_13">
     <path d="M 734.342188 339.79625 
L 846.2 339.79625 
Q 848.2 339.79625 848.2 337.79625 
L 848.2 309.44 
Q 848.2 307.44 846.2 307.44 
L 734.342188 307.44 
Q 732.342188 307.44 732.342188 309.44 
L 732.342188 337.79625 
Q 732.342188 339.79625 734.342188 339.79625 
z
" style="fill: #ffffff; opacity: 0.8; stroke: #cccccc; stroke-linejoin: miter"/>
    </g>
    <g id="line2d_67">
     <path d="M 736.342188 315.538437 
L 746.342188 315.538437 
L 756.342188 315.538437 
" style="fill: none; stroke: #0000ff; stroke-width: 1.5; stroke-linecap: square"/>
    </g>
    <g id="text_36">
     <!-- Ideal (No Noise) -->
     <g transform="translate(764.342188 319.038437) scale(0.1 -0.1)">
      <use xlink:href="#DejaVuSans-49"/>
      <use xlink:href="#DejaVuSans-64" transform="translate(29.492188 0)"/>
      <use xlink:href="#DejaVuSans-65" transform="translate(92.96875 0)"/>
      <use xlink:href="#DejaVuSans-61" transform="translate(154.492188 0)"/>
      <use xlink:href="#DejaVuSans-6c" transform="translate(215.771484 0)"/>
      <use xlink:href="#DejaVuSans-20" transform="translate(243.554688 0)"/>
      <use xlink:href="#DejaVuSans-28" transform="translate(275.341797 0)"/>
      <use xlink:href="#DejaVuSans-4e" transform="translate(314.355469 0)"/>
      <use xlink:href="#DejaVuSans-6f" transform="translate(389.160156 0)"/>
      <use xlink:href="#DejaVuSans-20" transform="translate(450.341797 0)"/>
      <use xlink:href="#DejaVuSans-4e" transform="translate(482.128906 0)"/>
      <use xlink:href="#DejaVuSans-6f" transform="translate(556.933594 0)"/>
      <use xlink:href="#DejaVuSans-69" transform="translate(618.115234 0)"/>
      <use xlink:href="#DejaVuSans-73" transform="translate(645.898438 0)"/>
      <use xlink:href="#DejaVuSans-65" transform="translate(697.998047 0)"/>
      <use xlink:href="#DejaVuSans-29" transform="translate(759.521484 0)"/>
     </g>
    </g>
    <g id="line2d_68">
     <path d="M 736.342188 330.216562 
L 746.342188 330.216562 
L 756.342188 330.216562 
" style="fill: none; stroke-dasharray: 5.55,2.4; stroke-dashoffset: 0; stroke: #ff0000; stroke-width: 1.5"/>
    </g>
    <g id="text_37">
     <!-- With Full Noise -->
     <g transform="translate(764.342188 333.716562) scale(0.1 -0.1)">
      <use xlink:href="#DejaVuSans-57"/>
      <use xlink:href="#DejaVuSans-69" transform="translate(96.626953 0)"/>
      <use xlink:href="#DejaVuSans-74" transform="translate(124.410156 0)"/>
      <use xlink:href="#DejaVuSans-68" transform="translate(163.619141 0)"/>
      <use xlink:href="#DejaVuSans-20" transform="translate(226.998047 0)"/>
      <use xlink:href="#DejaVuSans-46" transform="translate(258.785156 0)"/>
      <use xlink:href="#DejaVuSans-75" transform="translate(310.804688 0)"/>
      <use xlink:href="#DejaVuSans-6c" transform="translate(374.183594 0)"/>
      <use xlink:href="#DejaVuSans-6c" transform="translate(401.966797 0)"/>
      <use xlink:href="#DejaVuSans-20" transform="translate(429.75 0)"/>
      <use xlink:href="#DejaVuSans-4e" transform="translate(461.537109 0)"/>
      <use xlink:href="#DejaVuSans-6f" transform="translate(536.341797 0)"/>
      <use xlink:href="#DejaVuSans-69" transform="translate(597.523438 0)"/>
      <use xlink:href="#DejaVuSans-73" transform="translate(625.306641 0)"/>
      <use xlink:href="#DejaVuSans-65" transform="translate(677.40625 0)"/>
     </g>
    </g>
   </g>
  </g>
 </g>
 <defs>
  <clipPath id="p1150f46d43">
   <rect x="72.92" y="26.88" width="780.28" height="231.6"/>
  </clipPath>
  <clipPath id="p90acf7bd0f">
   <rect x="72.92" y="302.44" width="780.28" height="231.6"/>
  </clipPath>
 </defs>
</svg>
