<?xml version="1.0" encoding="utf-8" standalone="no"?>
<!DOCTYPE svg PUBLIC "-//W3C//DTD SVG 1.1//EN"
  "http://www.w3.org/Graphics/SVG/1.1/DTD/svg11.dtd">
<svg xmlns:xlink="http://www.w3.org/1999/xlink" width="864pt" height="576pt" viewBox="0 0 864 576" xmlns="http://www.w3.org/2000/svg" version="1.1">
 <metadata>
  <rdf:RDF xmlns:dc="http://purl.org/dc/elements/1.1/" xmlns:cc="http://creativecommons.org/ns#" xmlns:rdf="http://www.w3.org/1999/02/22-rdf-syntax-ns#">
   <cc:Work>
    <dc:type rdf:resource="http://purl.org/dc/dcmitype/StillImage"/>
    <dc:date>2026-03-03T11:38:09.563458</dc:date>
    <dc:format>image/svg+xml</dc:format>
    <dc:creator>
     <cc:Agent>
      <dc:title>Matplotlib v3.10.8, https://matplotlib.org/</dc:title>
     </cc:Agent>
    </dc:creator>
   </cc:Work>
  </rdf:RDF>
 </metadata>
 <defs>
  <style type="text/css">*{stroke-linejoin: round; stroke-linecap: butt}</style>
 </defs>
 <g id="figure_1">
  <g id="patch_1">
   <path d="M 0 576 
L 864 576 
L 864 0 
L 0 0 
z
" style="fill: #ffffff"/>
  </g>
  <g id="axes_1">
   <g id="patch_2">
    <path d="M 66.62 258.48 
L 853.2 258.48 
L 853.2 26.88 
L 66.62 26.88 
z
" style="fill: #ffffff"/>
   </g>
   <g id="matplotlib.axis_1">
    <g id="xtick_1">
     <g id="line2d_1">
      <path d="M 102.373636 258.48 
L 102.373636 26.88 
" clip-path="url(#p08acd674e5)" style="fill: none; stroke: #b0b0b0; stroke-width: 0.8; stroke-linecap: square"/>
     </g>
     <g id="line2d_2">
      <defs>
       <path id="mfe4c892462" d="M 0 0 
L 0 3.5 
" style="stroke: #000000; stroke-width: 0.8"/>
      </defs>
      <g>
       <use xlink:href="#mfe4c892462" x="102.373636" y="258.48" style="stroke: #000000; stroke-width: 0.8"/>
      </g>
     </g>
     <g id="text_1">
      <!-- 0 -->
      <g transform="translate(99.192386 273.078438) scale(0.1 -0.1)">
       <defs>
        <path id="DejaVuSans-30" d="M 2034 4250 
Q 1547 4250 1301 3770 
Q 1056 3291 1056 2328 
Q 1056 1369 1301 889 
Q 1547 409 2034 409 
Q 2525 409 2770 889 
Q 3016 1369 3016 2328 
Q 3016 3291 2770 3770 
Q 2525 4250 2034 4250 
z
M 2034 4750 
Q 2819 4750 3233 4129 
Q 3647 3509 3647 2328 
Q 3647 1150 3233 529 
Q 2819 -91 2034 -91 
Q 1250 -91 836 529 
Q 422 1150 422 2328 
Q 422 3509 836 4129 
Q 1250 4750 2034 4750 
z
" transform="scale(0.015625)"/>
       </defs>
       <use xlink:href="#DejaVuSans-30"/>
      </g>
     </g>
    </g>
    <g id="xtick_2">
     <g id="line2d_3">
      <path d="M 223.943294 258.48 
L 223.943294 26.88 
" clip-path="url(#p08acd674e5)" style="fill: none; stroke: #b0b0b0; stroke-width: 0.8; stroke-linecap: square"/>
     </g>
     <g id="line2d_4">
      <g>
       <use xlink:href="#mfe4c892462" x="223.943294" y="258.48" style="stroke: #000000; stroke-width: 0.8"/>
      </g>
     </g>
     <g id="text_2">
      <!-- 50 -->
      <g transform="translate(217.580794 273.078438) scale(0.1 -0.1)">
       <defs>
        <path id="DejaVuSans-35" d="M 691 4666 
L 3169 4666 
L 3169 4134 
L 1269 4134 
L 1269 2991 
Q 1406 3038 1543 3061 
Q 1681 3084 1819 3084 
Q 2600 3084 3056 2656 
Q 3513 2228 3513 1497 
Q 3513 744 3044 326 
Q 2575 -91 1722 -91 
Q 1428 -91 1123 -41 
Q 819 9 494 109 
L 494 744 
Q 775 591 1075 516 
Q 1375 441 1709 441 
Q 2250 441 2565 725 
Q 2881 1009 2881 1497 
Q 2881 1984 2565 2268 
Q 2250 2553 1709 2553 
Q 1456 2553 1204 2497 
Q 953 2441 691 2322 
L 691 4666 
z
" transform="scale(0.015625)"/>
       </defs>
       <use xlink:href="#DejaVuSans-35"/>
       <use xlink:href="#DejaVuSans-30" transform="translate(63.623047 0)"/>
      </g>
     </g>
    </g>
    <g id="xtick_3">
     <g id="line2d_5">
      <path d="M 345.512952 258.48 
L 345.512952 26.88 
" clip-path="url(#p08acd674e5)" style="fill: none; stroke: #b0b0b0; stroke-width: 0.8; stroke-linecap: square"/>
     </g>
     <g id="line2d_6">
      <g>
       <use xlink:href="#mfe4c892462" x="345.512952" y="258.48" style="stroke: #000000; stroke-width: 0.8"/>
      </g>
     </g>
     <g id="text_3">
      <!-- 100 -->
      <g transform="translate(335.969202 273.078438) scale(0.1 -0.1)">
       <defs>
        <path id="DejaVuSans-31" d="M 794 531 
L 1825 531 
L 1825 4091 
L 703 3866 
L 703 4441 
L 1819 4666 
L 2450 4666 
L 2450 531 
L 3481 531 
L 3481 0 
L 794 0 
L 794 531 
z
" transform="scale(0.015625)"/>
       </defs>
       <use xlink:href="#DejaVuSans-31"/>
       <use xlink:href="#DejaVuSans-30" transform="translate(63.623047 0)"/>
       <use xlink:href="#DejaVuSans-30" transform="translate(127.246094 0)"/>
      </g>
     </g>
    </g>
    <g id="xtick_4">
     <g id="line2d_7">
      <path d="M 467.08261 258.48 
L 467.08261 26.88 
" clip-path="url(#p08acd674e5)" style="fill: none; stroke: #b0b0b0; stroke-width: 0.8; stroke-linecap: square"/>
     </g>
     <g id="line2d_8">
      <g>
       <use xlink:href="#mfe4c892462" x="467.08261" y="258.48" style="stroke: #000000; stroke-width: 0.8"/>
      </g>
     </g>
     <g id="text_4">
      <!-- 150 -->
      <g transform="translate(457.53886 273.078438) scale(0.1 -0.1)">
       <use xlink:href="#DejaVuSans-31"/>
       <use xlink:href="#DejaVuSans-35" transform="translate(63.623047 0)"/>
       <use xlink:href="#DejaVuSans-30" transform="translate(127.246094 0)"/>
      </g>
     </g>
    </g>
    <g id="xtick_5">
     <g id="line2d_9">
      <path d="M 588.652268 258.48 
L 588.652268 26.88 
" clip-path="url(#p08acd674e5)" style="fill: none; stroke: #b0b0b0; stroke-width: 0.8; stroke-linecap: square"/>
     </g>
     <g id="line2d_10">
      <g>
       <use xlink:href="#mfe4c892462" x="588.652268" y="258.48" style="stroke: #000000; stroke-width: 0.8"/>
      </g>
     </g>
     <g id="text_5">
      <!-- 200 -->
      <g transform="translate(579.108518 273.078438) scale(0.1 -0.1)">
       <defs>
        <path id="DejaVuSans-32" d="M 1228 531 
L 3431 531 
L 3431 0 
L 469 0 
L 469 531 
Q 828 903 1448 1529 
Q 2069 2156 2228 2338 
Q 2531 2678 2651 2914 
Q 2772 3150 2772 3378 
Q 2772 3750 2511 3984 
Q 2250 4219 1831 4219 
Q 1534 4219 1204 4116 
Q 875 4013 500 3803 
L 500 4441 
Q 881 4594 1212 4672 
Q 1544 4750 1819 4750 
Q 2544 4750 2975 4387 
Q 3406 4025 3406 3419 
Q 3406 3131 3298 2873 
Q 3191 2616 2906 2266 
Q 2828 2175 2409 1742 
Q 1991 1309 1228 531 
z
" transform="scale(0.015625)"/>
       </defs>
       <use xlink:href="#DejaVuSans-32"/>
       <use xlink:href="#DejaVuSans-30" transform="translate(63.623047 0)"/>
       <use xlink:href="#DejaVuSans-30" transform="translate(127.246094 0)"/>
      </g>
     </g>
    </g>
    <g id="xtick_6">
     <g id="line2d_11">
      <path d="M 710.221925 258.48 
L 710.221925 26.88 
" clip-path="url(#p08acd674e5)" style="fill: none; stroke: #b0b0b0; stroke-width: 0.8; stroke-linecap: square"/>
     </g>
     <g id="line2d_12">
      <g>
       <use xlink:href="#mfe4c892462" x="710.221925" y="258.48" style="stroke: #000000; stroke-width: 0.8"/>
      </g>
     </g>
     <g id="text_6">
      <!-- 250 -->
      <g transform="translate(700.678175 273.078438) scale(0.1 -0.1)">
       <use xlink:href="#DejaVuSans-32"/>
       <use xlink:href="#DejaVuSans-35" transform="translate(63.623047 0)"/>
       <use xlink:href="#DejaVuSans-30" transform="translate(127.246094 0)"/>
      </g>
     </g>
    </g>
    <g id="xtick_7">
     <g id="line2d_13">
      <path d="M 831.791583 258.48 
L 831.791583 26.88 
" clip-path="url(#p08acd674e5)" style="fill: none; stroke: #b0b0b0; stroke-width: 0.8; stroke-linecap: square"/>
     </g>
     <g id="line2d_14">
      <g>
       <use xlink:href="#mfe4c892462" x="831.791583" y="258.48" style="stroke: #000000; stroke-width: 0.8"/>
      </g>
     </g>
     <g id="text_7">
      <!-- 300 -->
      <g transform="translate(822.247833 273.078438) scale(0.1 -0.1)">
       <defs>
        <path id="DejaVuSans-33" d="M 2597 2516 
Q 3050 2419 3304 2112 
Q 3559 1806 3559 1356 
Q 3559 666 3084 287 
Q 2609 -91 1734 -91 
Q 1441 -91 1130 -33 
Q 819 25 488 141 
L 488 750 
Q 750 597 1062 519 
Q 1375 441 1716 441 
Q 2309 441 2620 675 
Q 2931 909 2931 1356 
Q 2931 1769 2642 2001 
Q 2353 2234 1838 2234 
L 1294 2234 
L 1294 2753 
L 1863 2753 
Q 2328 2753 2575 2939 
Q 2822 3125 2822 3475 
Q 2822 3834 2567 4026 
Q 2313 4219 1838 4219 
Q 1578 4219 1281 4162 
Q 984 4106 628 3988 
L 628 4550 
Q 988 4650 1302 4700 
Q 1616 4750 1894 4750 
Q 2613 4750 3031 4423 
Q 3450 4097 3450 3541 
Q 3450 3153 3228 2886 
Q 3006 2619 2597 2516 
z
" transform="scale(0.015625)"/>
       </defs>
       <use xlink:href="#DejaVuSans-33"/>
       <use xlink:href="#DejaVuSans-30" transform="translate(63.623047 0)"/>
       <use xlink:href="#DejaVuSans-30" transform="translate(127.246094 0)"/>
      </g>
     </g>
    </g>
   </g>
   <g id="matplotlib.axis_2">
    <g id="ytick_1">
     <g id="line2d_15">
      <path d="M 66.62 248.845434 
L 853.2 248.845434 
" clip-path="url(#p08acd674e5)" style="fill: none; stroke: #b0b0b0; stroke-width: 0.8; stroke-linecap: square"/>
     </g>
     <g id="line2d_16">
      <defs>
       <path id="m5c5197a54f" d="M 0 0 
L -3.5 0 
" style="stroke: #000000; stroke-width: 0.8"/>
      </defs>
      <g>
       <use xlink:href="#m5c5197a54f" x="66.62" y="248.845434" style="stroke: #000000; stroke-width: 0.8"/>
      </g>
     </g>
     <g id="text_8">
      <!-- 0.000 -->
      <g transform="translate(30.991875 252.644653) scale(0.1 -0.1)">
       <defs>
        <path id="DejaVuSans-2e" d="M 684 794 
L 1344 794 
L 1344 0 
L 684 0 
L 684 794 
z
" transform="scale(0.015625)"/>
       </defs>
       <use xlink:href="#DejaVuSans-30"/>
       <use xlink:href="#DejaVuSans-2e" transform="translate(63.623047 0)"/>
       <use xlink:href="#DejaVuSans-30" transform="translate(95.410156 0)"/>
       <use xlink:href="#DejaVuSans-30" transform="translate(159.033203 0)"/>
       <use xlink:href="#DejaVuSans-30" transform="translate(222.65625 0)"/>
      </g>
     </g>
    </g>
    <g id="ytick_2">
     <g id="line2d_17">
      <path d="M 66.62 205.233183 
L 853.2 205.233183 
" clip-path="url(#p08acd674e5)" style="fill: none; stroke: #b0b0b0; stroke-width: 0.8; stroke-linecap: square"/>
     </g>
     <g id="line2d_18">
      <g>
       <use xlink:href="#m5c5197a54f" x="66.62" y="205.233183" style="stroke: #000000; stroke-width: 0.8"/>
      </g>
     </g>
     <g id="text_9">
      <!-- 0.001 -->
      <g transform="translate(30.991875 209.032402) scale(0.1 -0.1)">
       <use xlink:href="#DejaVuSans-30"/>
       <use xlink:href="#DejaVuSans-2e" transform="translate(63.623047 0)"/>
       <use xlink:href="#DejaVuSans-30" transform="translate(95.410156 0)"/>
       <use xlink:href="#DejaVuSans-30" transform="translate(159.033203 0)"/>
       <use xlink:href="#DejaVuSans-31" transform="translate(222.65625 0)"/>
      </g>
     </g>
    </g>
    <g id="ytick_3">
     <g id="line2d_19">
      <path d="M 66.62 161.620931 
L 853.2 161.620931 
" clip-path="url(#p08acd674e5)" style="fill: none; stroke: #b0b0b0; stroke-width: 0.8; stroke-linecap: square"/>
     </g>
     <g id="line2d_20">
      <g>
       <use xlink:href="#m5c5197a54f" x="66.62" y="161.620931" style="stroke: #000000; stroke-width: 0.8"/>
      </g>
     </g>
     <g id="text_10">
      <!-- 0.002 -->
      <g transform="translate(30.991875 165.42015) scale(0.1 -0.1)">
       <use xlink:href="#DejaVuSans-30"/>
       <use xlink:href="#DejaVuSans-2e" transform="translate(63.623047 0)"/>
       <use xlink:href="#DejaVuSans-30" transform="translate(95.410156 0)"/>
       <use xlink:href="#DejaVuSans-30" transform="translate(159.033203 0)"/>
       <use xlink:href="#DejaVuSans-32" transform="translate(222.65625 0)"/>
      </g>
     </g>
    </g>
    <g id="ytick_4">
     <g id="line2d_21">
      <path d="M 66.62 118.00868 
L 853.2 118.00868 
" clip-path="url(#p08acd674e5)" style="fill: none; stroke: #b0b0b0; stroke-width: 0.8; stroke-linecap: square"/>
     </g>
     <g id="line2d_22">
      <g>
       <use xlink:href="#m5c5197a54f" x="66.62" y="118.00868" style="stroke: #000000; stroke-width: 0.8"/>
      </g>
     </g>
     <g id="text_11">
      <!-- 0.003 -->
      <g transform="translate(30.991875 121.807899) scale(0.1 -0.1)">
       <use xlink:href="#DejaVuSans-30"/>
       <use xlink:href="#DejaVuSans-2e" transform="translate(63.623047 0)"/>
       <use xlink:href="#DejaVuSans-30" transform="translate(95.410156 0)"/>
       <use xlink:href="#DejaVuSans-30" transform="translate(159.033203 0)"/>
       <use xlink:href="#DejaVuSans-33" transform="translate(222.65625 0)"/>
      </g>
     </g>
    </g>
    <g id="ytick_5">
     <g id="line2d_23">
      <path d="M 66.62 74.396429 
L 853.2 74.396429 
" clip-path="url(#p08acd674e5)" style="fill: none; stroke: #b0b0b0; stroke-width: 0.8; stroke-linecap: square"/>
     </g>
     <g id="line2d_24">
      <g>
       <use xlink:href="#m5c5197a54f" x="66.62" y="74.396429" style="stroke: #000000; stroke-width: 0.8"/>
      </g>
     </g>
     <g id="text_12">
      <!-- 0.004 -->
      <g transform="translate(30.991875 78.195647) scale(0.1 -0.1)">
       <defs>
        <path id="DejaVuSans-34" d="M 2419 4116 
L 825 1625 
L 2419 1625 
L 2419 4116 
z
M 2253 4666 
L 3047 4666 
L 3047 1625 
L 3713 1625 
L 3713 1100 
L 3047 1100 
L 3047 0 
L 2419 0 
L 2419 1100 
L 313 1100 
L 313 1709 
L 2253 4666 
z
" transform="scale(0.015625)"/>
       </defs>
       <use xlink:href="#DejaVuSans-30"/>
       <use xlink:href="#DejaVuSans-2e" transform="translate(63.623047 0)"/>
       <use xlink:href="#DejaVuSans-30" transform="translate(95.410156 0)"/>
       <use xlink:href="#DejaVuSans-30" transform="translate(159.033203 0)"/>
       <use xlink:href="#DejaVuSans-34" transform="translate(222.65625 0)"/>
      </g>
     </g>
    </g>
    <g id="ytick_6">
     <g id="line2d_25">
      <path d="M 66.62 30.784177 
L 853.2 30.784177 
" clip-path="url(#p08acd674e5)" style="fill: none; stroke: #b0b0b0; stroke-width: 0.8; stroke-linecap: square"/>
     </g>
     <g id="line2d_26">
      <g>
       <use xlink:href="#m5c5197a54f" x="66.62" y="30.784177" style="stroke: #000000; stroke-width: 0.8"/>
      </g>
     </g>
     <g id="text_13">
      <!-- 0.005 -->
      <g transform="translate(30.991875 34.583396) scale(0.1 -0.1)">
       <use xlink:href="#DejaVuSans-30"/>
       <use xlink:href="#DejaVuSans-2e" transform="translate(63.623047 0)"/>
       <use xlink:href="#DejaVuSans-30" transform="translate(95.410156 0)"/>
       <use xlink:href="#DejaVuSans-30" transform="translate(159.033203 0)"/>
       <use xlink:href="#DejaVuSans-35" transform="translate(222.65625 0)"/>
      </g>
     </g>
    </g>
    <g id="text_14">
     <!-- Std Dev -->
     <g transform="translate(24.912188 162.463594) rotate(-90) scale(0.1 -0.1)">
      <defs>
       <path id="DejaVuSans-53" d="M 3425 4513 
L 3425 3897 
Q 3066 4069 2747 4153 
Q 2428 4238 2131 4238 
Q 1616 4238 1336 4038 
Q 1056 3838 1056 3469 
Q 1056 3159 1242 3001 
Q 1428 2844 1947 2747 
L 2328 2669 
Q 3034 2534 3370 2195 
Q 3706 1856 3706 1288 
Q 3706 609 3251 259 
Q 2797 -91 1919 -91 
Q 1588 -91 1214 -16 
Q 841 59 441 206 
L 441 856 
Q 825 641 1194 531 
Q 1563 422 1919 422 
Q 2459 422 2753 634 
Q 3047 847 3047 1241 
Q 3047 1584 2836 1778 
Q 2625 1972 2144 2069 
L 1759 2144 
Q 1053 2284 737 2584 
Q 422 2884 422 3419 
Q 422 4038 858 4394 
Q 1294 4750 2059 4750 
Q 2388 4750 2728 4690 
Q 3069 4631 3425 4513 
z
" transform="scale(0.015625)"/>
       <path id="DejaVuSans-74" d="M 1172 4494 
L 1172 3500 
L 2356 3500 
L 2356 3053 
L 1172 3053 
L 1172 1153 
Q 1172 725 1289 603 
Q 1406 481 1766 481 
L 2356 481 
L 2356 0 
L 1766 0 
Q 1100 0 847 248 
Q 594 497 594 1153 
L 594 3053 
L 172 3053 
L 172 3500 
L 594 3500 
L 594 4494 
L 1172 4494 
z
" transform="scale(0.015625)"/>
       <path id="DejaVuSans-64" d="M 2906 2969 
L 2906 4863 
L 3481 4863 
L 3481 0 
L 2906 0 
L 2906 525 
Q 2725 213 2448 61 
Q 2172 -91 1784 -91 
Q 1150 -91 751 415 
Q 353 922 353 1747 
Q 353 2572 751 3078 
Q 1150 3584 1784 3584 
Q 2172 3584 2448 3432 
Q 2725 3281 2906 2969 
z
M 947 1747 
Q 947 1113 1208 752 
Q 1469 391 1925 391 
Q 2381 391 2643 752 
Q 2906 1113 2906 1747 
Q 2906 2381 2643 2742 
Q 2381 3103 1925 3103 
Q 1469 3103 1208 2742 
Q 947 2381 947 1747 
z
" transform="scale(0.015625)"/>
       <path id="DejaVuSans-20" transform="scale(0.015625)"/>
       <path id="DejaVuSans-44" d="M 1259 4147 
L 1259 519 
L 2022 519 
Q 2988 519 3436 956 
Q 3884 1394 3884 2338 
Q 3884 3275 3436 3711 
Q 2988 4147 2022 4147 
L 1259 4147 
z
M 628 4666 
L 1925 4666 
Q 3281 4666 3915 4102 
Q 4550 3538 4550 2338 
Q 4550 1131 3912 565 
Q 3275 0 1925 0 
L 628 0 
L 628 4666 
z
" transform="scale(0.015625)"/>
       <path id="DejaVuSans-65" d="M 3597 1894 
L 3597 1613 
L 953 1613 
Q 991 1019 1311 708 
Q 1631 397 2203 397 
Q 2534 397 2845 478 
Q 3156 559 3463 722 
L 3463 178 
Q 3153 47 2828 -22 
Q 2503 -91 2169 -91 
Q 1331 -91 842 396 
Q 353 884 353 1716 
Q 353 2575 817 3079 
Q 1281 3584 2069 3584 
Q 2775 3584 3186 3129 
Q 3597 2675 3597 1894 
z
M 3022 2063 
Q 3016 2534 2758 2815 
Q 2500 3097 2075 3097 
Q 1594 3097 1305 2825 
Q 1016 2553 972 2059 
L 3022 2063 
z
" transform="scale(0.015625)"/>
       <path id="DejaVuSans-76" d="M 191 3500 
L 800 3500 
L 1894 563 
L 2988 3500 
L 3597 3500 
L 2284 0 
L 1503 0 
L 191 3500 
z
" transform="scale(0.015625)"/>
      </defs>
      <use xlink:href="#DejaVuSans-53"/>
      <use xlink:href="#DejaVuSans-74" transform="translate(63.476562 0)"/>
      <use xlink:href="#DejaVuSans-64" transform="translate(102.685547 0)"/>
      <use xlink:href="#DejaVuSans-20" transform="translate(166.162109 0)"/>
      <use xlink:href="#DejaVuSans-44" transform="translate(197.949219 0)"/>
      <use xlink:href="#DejaVuSans-65" transform="translate(274.951172 0)"/>
      <use xlink:href="#DejaVuSans-76" transform="translate(336.474609 0)"/>
     </g>
    </g>
   </g>
   <g id="line2d_27">
    <path d="M 102.373636 227.701618 
L 205.172939 227.744721 
L 205.464706 234.546555 
L 205.756473 238.301427 
L 206.096868 239.786873 
L 206.485891 240.529043 
L 206.97217 241.003216 
L 207.65296 241.355286 
L 208.722773 241.636718 
L 210.570632 241.859395 
L 214.02321 242.017888 
L 222.192691 242.11514 
L 240.914418 242.198235 
L 241.060302 242.270345 
L 257.593775 242.306868 
L 288.569724 242.367275 
L 288.715608 246.684753 
L 289.542282 246.965648 
L 290.903862 247.091905 
L 294.842719 247.16772 
L 300.483551 247.180251 
L 300.629434 247.559411 
L 302.428665 247.692019 
L 308.555776 247.744971 
L 336.90582 247.921302 
L 340.698794 247.952727 
L 340.844677 227.701618 
L 443.546724 227.745597 
L 443.838491 234.54524 
L 444.130258 238.298781 
L 444.470653 239.78329 
L 444.859676 240.524937 
L 445.345955 240.998813 
L 446.026745 241.350761 
L 447.096558 241.63228 
L 448.944417 241.855362 
L 452.396995 242.014681 
L 460.46922 242.111411 
L 479.288203 242.194695 
L 479.434087 242.268842 
L 495.432654 242.305577 
L 526.943509 242.36665 
L 527.089393 246.681826 
L 527.916067 246.963343 
L 529.277647 247.08972 
L 533.216504 247.165106 
L 538.857336 247.177299 
L 539.003219 247.552292 
L 540.80245 247.684813 
L 546.880933 247.739831 
L 575.62 247.925236 
L 579.072579 247.95243 
L 579.218462 37.407273 
L 603.337882 37.517998 
L 609.854016 37.581673 
L 634.459715 37.74302 
L 635.189133 38.057108 
L 636.258946 38.730215 
L 637.280131 39.640113 
L 638.301316 40.856481 
L 639.419757 42.56014 
L 640.684081 44.928915 
L 642.240173 48.359045 
L 643.650381 51.402033 
L 646.17903 51.402033 
L 646.324913 58.437812 
L 646.85982 59.144549 
L 647.54061 59.686276 
L 648.367284 60.048565 
L 649.485724 60.280458 
L 651.236327 60.390336 
L 665.532919 60.793232 
L 668.69373 60.974006 
L 670.006683 60.974006 
L 670.152566 62.365771 
L 671.611402 63.017317 
L 673.313377 63.499049 
L 675.696143 63.925224 
L 679.002837 64.278234 
L 680.558929 64.293537 
L 681.920509 64.293537 
L 681.969137 80.861653 
L 682.115021 215.543576 
L 682.309532 232.248777 
L 682.552671 236.678345 
L 682.844439 238.494921 
L 683.233461 239.540105 
L 683.71974 240.170832 
L 684.351902 240.595893 
L 685.275832 240.915867 
L 686.734668 241.155249 
L 689.311944 241.320139 
L 693.785708 241.366275 
L 717.661989 241.435051 
L 717.807872 241.552802 
L 765.317294 241.772082 
L 765.463178 246.424252 
L 766.289852 246.681171 
L 767.748688 246.801863 
L 772.271079 246.882535 
L 777.231121 246.895972 
L 777.377004 247.538944 
L 778.884468 247.680982 
L 783.747254 247.736496 
L 817.446364 247.948117 
L 817.446364 247.948117 
" clip-path="url(#p08acd674e5)" style="fill: none; stroke: #0000ff; stroke-width: 1.5; stroke-linecap: square"/>
   </g>
   <g id="line2d_28">
    <path d="M 102.373636 227.701618 
L 205.172939 227.744434 
L 205.464706 234.54675 
L 205.756473 238.302045 
L 206.096868 239.787408 
L 206.485891 240.529583 
L 206.97217 241.003758 
L 207.65296 241.355831 
L 208.722773 241.637415 
L 210.522004 241.855895 
L 213.925954 242.015785 
L 221.949552 242.115303 
L 240.914418 242.198617 
L 241.060302 242.270791 
L 257.593775 242.307101 
L 288.569724 242.367433 
L 288.715608 246.685047 
L 289.542282 246.965893 
L 290.903862 247.092077 
L 294.842719 247.167905 
L 300.483551 247.180474 
L 300.629434 247.559702 
L 302.428665 247.692256 
L 308.555776 247.745092 
L 336.857192 247.920522 
L 340.698794 247.95272 
L 340.844677 227.701618 
L 443.546724 227.745335 
L 443.838491 234.545172 
L 444.130258 238.29901 
L 444.470653 239.783385 
L 444.859676 240.525022 
L 445.345955 240.998905 
L 446.026745 241.350883 
L 447.096558 241.632614 
L 448.895789 241.851581 
L 452.299739 242.012447 
L 460.226081 242.111409 
L 479.288203 242.194863 
L 479.434087 242.269066 
L 495.481282 242.305671 
L 526.943509 242.366616 
L 527.089393 246.681795 
L 527.916067 246.963314 
L 529.277647 247.089622 
L 533.216504 247.164962 
L 538.857336 247.177151 
L 539.003219 247.552207 
L 540.80245 247.684746 
L 546.880933 247.739761 
L 575.62 247.925236 
L 579.072579 247.952424 
L 579.218462 37.407273 
L 603.435138 37.517339 
L 610.388922 37.577515 
L 634.459715 37.738109 
L 635.189133 38.047014 
L 636.307573 38.752236 
L 637.328759 39.663047 
L 638.349944 40.885059 
L 639.468385 42.581955 
L 640.732709 44.930389 
L 642.288801 48.340613 
L 643.650381 51.235373 
L 646.17903 51.235373 
L 646.324913 58.248909 
L 646.85982 58.956283 
L 647.54061 59.498953 
L 648.367284 59.862435 
L 649.485724 60.095035 
L 651.236327 60.205166 
L 657.752461 60.235381 
L 661.399551 60.34606 
L 666.019198 60.659408 
L 668.645102 60.787923 
L 670.006683 60.787923 
L 670.152566 62.174862 
L 671.611402 62.825396 
L 673.362005 63.317912 
L 675.696143 63.732695 
L 679.051465 64.086356 
L 680.558929 64.097733 
L 681.920509 64.097733 
L 681.969137 80.690745 
L 682.115021 215.543215 
L 682.309532 232.248768 
L 682.552671 236.678259 
L 682.844439 238.494841 
L 683.233461 239.540004 
L 683.71974 240.170703 
L 684.351902 240.595732 
L 685.275832 240.915663 
L 686.734668 241.154983 
L 689.311944 241.319815 
L 693.785708 241.365909 
L 717.661989 241.434726 
L 717.807872 241.552494 
L 765.317294 241.772176 
L 765.463178 246.424236 
L 766.289852 246.681147 
L 767.748688 246.801821 
L 772.271079 246.882476 
L 777.231121 246.895913 
L 777.377004 247.538933 
L 778.884468 247.680979 
L 783.747254 247.736492 
L 817.446364 247.948114 
L 817.446364 247.948114 
" clip-path="url(#p08acd674e5)" style="fill: none; stroke-dasharray: 5.55,2.4; stroke-dashoffset: 0; stroke: #ff0000; stroke-width: 1.5"/>
   </g>
   <g id="line2d_29">
    <path d="M 340.747421 258.48 
L 340.747421 26.88 
" clip-path="url(#p08acd674e5)" style="fill: none; stroke-dasharray: 1.5,2.475; stroke-dashoffset: 0; stroke: #808080; stroke-opacity: 0.6; stroke-width: 1.5"/>
   </g>
   <g id="line2d_30">
    <path d="M 579.121206 258.48 
L 579.121206 26.88 
" clip-path="url(#p08acd674e5)" style="fill: none; stroke-dasharray: 1.5,2.475; stroke-dashoffset: 0; stroke: #808080; stroke-opacity: 0.6; stroke-width: 1.5"/>
   </g>
   <g id="patch_3">
    <path d="M 66.62 258.48 
L 66.62 26.88 
" style="fill: none; stroke: #000000; stroke-width: 0.8; stroke-linejoin: miter; stroke-linecap: square"/>
   </g>
   <g id="patch_4">
    <path d="M 853.2 258.48 
L 853.2 26.88 
" style="fill: none; stroke: #000000; stroke-width: 0.8; stroke-linejoin: miter; stroke-linecap: square"/>
   </g>
   <g id="patch_5">
    <path d="M 66.62 258.48 
L 853.2 258.48 
" style="fill: none; stroke: #000000; stroke-width: 0.8; stroke-linejoin: miter; stroke-linecap: square"/>
   </g>
   <g id="patch_6">
    <path d="M 66.62 26.88 
L 853.2 26.88 
" style="fill: none; stroke: #000000; stroke-width: 0.8; stroke-linejoin: miter; stroke-linecap: square"/>
   </g>
   <g id="text_15">
    <!-- [18] dKg_xz  —  Uncertainty (std dev) -->
    <g transform="translate(346.917813 20.88) scale(0.12 -0.12)">
     <defs>
      <path id="DejaVuSans-5b" d="M 550 4863 
L 1875 4863 
L 1875 4416 
L 1125 4416 
L 1125 -397 
L 1875 -397 
L 1875 -844 
L 550 -844 
L 550 4863 
z
" transform="scale(0.015625)"/>
      <path id="DejaVuSans-38" d="M 2034 2216 
Q 1584 2216 1326 1975 
Q 1069 1734 1069 1313 
Q 1069 891 1326 650 
Q 1584 409 2034 409 
Q 2484 409 2743 651 
Q 3003 894 3003 1313 
Q 3003 1734 2745 1975 
Q 2488 2216 2034 2216 
z
M 1403 2484 
Q 997 2584 770 2862 
Q 544 3141 544 3541 
Q 544 4100 942 4425 
Q 1341 4750 2034 4750 
Q 2731 4750 3128 4425 
Q 3525 4100 3525 3541 
Q 3525 3141 3298 2862 
Q 3072 2584 2669 2484 
Q 3125 2378 3379 2068 
Q 3634 1759 3634 1313 
Q 3634 634 3220 271 
Q 2806 -91 2034 -91 
Q 1263 -91 848 271 
Q 434 634 434 1313 
Q 434 1759 690 2068 
Q 947 2378 1403 2484 
z
M 1172 3481 
Q 1172 3119 1398 2916 
Q 1625 2713 2034 2713 
Q 2441 2713 2670 2916 
Q 2900 3119 2900 3481 
Q 2900 3844 2670 4047 
Q 2441 4250 2034 4250 
Q 1625 4250 1398 4047 
Q 1172 3844 1172 3481 
z
" transform="scale(0.015625)"/>
      <path id="DejaVuSans-5d" d="M 1947 4863 
L 1947 -844 
L 622 -844 
L 622 -397 
L 1369 -397 
L 1369 4416 
L 622 4416 
L 622 4863 
L 1947 4863 
z
" transform="scale(0.015625)"/>
      <path id="DejaVuSans-4b" d="M 628 4666 
L 1259 4666 
L 1259 2694 
L 3353 4666 
L 4166 4666 
L 1850 2491 
L 4331 0 
L 3500 0 
L 1259 2247 
L 1259 0 
L 628 0 
L 628 4666 
z
" transform="scale(0.015625)"/>
      <path id="DejaVuSans-67" d="M 2906 1791 
Q 2906 2416 2648 2759 
Q 2391 3103 1925 3103 
Q 1463 3103 1205 2759 
Q 947 2416 947 1791 
Q 947 1169 1205 825 
Q 1463 481 1925 481 
Q 2391 481 2648 825 
Q 2906 1169 2906 1791 
z
M 3481 434 
Q 3481 -459 3084 -895 
Q 2688 -1331 1869 -1331 
Q 1566 -1331 1297 -1286 
Q 1028 -1241 775 -1147 
L 775 -588 
Q 1028 -725 1275 -790 
Q 1522 -856 1778 -856 
Q 2344 -856 2625 -561 
Q 2906 -266 2906 331 
L 2906 616 
Q 2728 306 2450 153 
Q 2172 0 1784 0 
Q 1141 0 747 490 
Q 353 981 353 1791 
Q 353 2603 747 3093 
Q 1141 3584 1784 3584 
Q 2172 3584 2450 3431 
Q 2728 3278 2906 2969 
L 2906 3500 
L 3481 3500 
L 3481 434 
z
" transform="scale(0.015625)"/>
      <path id="DejaVuSans-5f" d="M 3263 -1063 
L 3263 -1509 
L -63 -1509 
L -63 -1063 
L 3263 -1063 
z
" transform="scale(0.015625)"/>
      <path id="DejaVuSans-78" d="M 3513 3500 
L 2247 1797 
L 3578 0 
L 2900 0 
L 1881 1375 
L 863 0 
L 184 0 
L 1544 1831 
L 300 3500 
L 978 3500 
L 1906 2253 
L 2834 3500 
L 3513 3500 
z
" transform="scale(0.015625)"/>
      <path id="DejaVuSans-7a" d="M 353 3500 
L 3084 3500 
L 3084 2975 
L 922 459 
L 3084 459 
L 3084 0 
L 275 0 
L 275 525 
L 2438 3041 
L 353 3041 
L 353 3500 
z
" transform="scale(0.015625)"/>
      <path id="DejaVuSans-2014" d="M 313 1978 
L 6088 1978 
L 6088 1528 
L 313 1528 
L 313 1978 
z
" transform="scale(0.015625)"/>
      <path id="DejaVuSans-55" d="M 556 4666 
L 1191 4666 
L 1191 1831 
Q 1191 1081 1462 751 
Q 1734 422 2344 422 
Q 2950 422 3222 751 
Q 3494 1081 3494 1831 
L 3494 4666 
L 4128 4666 
L 4128 1753 
Q 4128 841 3676 375 
Q 3225 -91 2344 -91 
Q 1459 -91 1007 375 
Q 556 841 556 1753 
L 556 4666 
z
" transform="scale(0.015625)"/>
      <path id="DejaVuSans-6e" d="M 3513 2113 
L 3513 0 
L 2938 0 
L 2938 2094 
Q 2938 2591 2744 2837 
Q 2550 3084 2163 3084 
Q 1697 3084 1428 2787 
Q 1159 2491 1159 1978 
L 1159 0 
L 581 0 
L 581 3500 
L 1159 3500 
L 1159 2956 
Q 1366 3272 1645 3428 
Q 1925 3584 2291 3584 
Q 2894 3584 3203 3211 
Q 3513 2838 3513 2113 
z
" transform="scale(0.015625)"/>
      <path id="DejaVuSans-63" d="M 3122 3366 
L 3122 2828 
Q 2878 2963 2633 3030 
Q 2388 3097 2138 3097 
Q 1578 3097 1268 2742 
Q 959 2388 959 1747 
Q 959 1106 1268 751 
Q 1578 397 2138 397 
Q 2388 397 2633 464 
Q 2878 531 3122 666 
L 3122 134 
Q 2881 22 2623 -34 
Q 2366 -91 2075 -91 
Q 1284 -91 818 406 
Q 353 903 353 1747 
Q 353 2603 823 3093 
Q 1294 3584 2113 3584 
Q 2378 3584 2631 3529 
Q 2884 3475 3122 3366 
z
" transform="scale(0.015625)"/>
      <path id="DejaVuSans-72" d="M 2631 2963 
Q 2534 3019 2420 3045 
Q 2306 3072 2169 3072 
Q 1681 3072 1420 2755 
Q 1159 2438 1159 1844 
L 1159 0 
L 581 0 
L 581 3500 
L 1159 3500 
L 1159 2956 
Q 1341 3275 1631 3429 
Q 1922 3584 2338 3584 
Q 2397 3584 2469 3576 
Q 2541 3569 2628 3553 
L 2631 2963 
z
" transform="scale(0.015625)"/>
      <path id="DejaVuSans-61" d="M 2194 1759 
Q 1497 1759 1228 1600 
Q 959 1441 959 1056 
Q 959 750 1161 570 
Q 1363 391 1709 391 
Q 2188 391 2477 730 
Q 2766 1069 2766 1631 
L 2766 1759 
L 2194 1759 
z
M 3341 1997 
L 3341 0 
L 2766 0 
L 2766 531 
Q 2569 213 2275 61 
Q 1981 -91 1556 -91 
Q 1019 -91 701 211 
Q 384 513 384 1019 
Q 384 1609 779 1909 
Q 1175 2209 1959 2209 
L 2766 2209 
L 2766 2266 
Q 2766 2663 2505 2880 
Q 2244 3097 1772 3097 
Q 1472 3097 1187 3025 
Q 903 2953 641 2809 
L 641 3341 
Q 956 3463 1253 3523 
Q 1550 3584 1831 3584 
Q 2591 3584 2966 3190 
Q 3341 2797 3341 1997 
z
" transform="scale(0.015625)"/>
      <path id="DejaVuSans-69" d="M 603 3500 
L 1178 3500 
L 1178 0 
L 603 0 
L 603 3500 
z
M 603 4863 
L 1178 4863 
L 1178 4134 
L 603 4134 
L 603 4863 
z
" transform="scale(0.015625)"/>
      <path id="DejaVuSans-79" d="M 2059 -325 
Q 1816 -950 1584 -1140 
Q 1353 -1331 966 -1331 
L 506 -1331 
L 506 -850 
L 844 -850 
Q 1081 -850 1212 -737 
Q 1344 -625 1503 -206 
L 1606 56 
L 191 3500 
L 800 3500 
L 1894 763 
L 2988 3500 
L 3597 3500 
L 2059 -325 
z
" transform="scale(0.015625)"/>
      <path id="DejaVuSans-28" d="M 1984 4856 
Q 1566 4138 1362 3434 
Q 1159 2731 1159 2009 
Q 1159 1288 1364 580 
Q 1569 -128 1984 -844 
L 1484 -844 
Q 1016 -109 783 600 
Q 550 1309 550 2009 
Q 550 2706 781 3412 
Q 1013 4119 1484 4856 
L 1984 4856 
z
" transform="scale(0.015625)"/>
      <path id="DejaVuSans-73" d="M 2834 3397 
L 2834 2853 
Q 2591 2978 2328 3040 
Q 2066 3103 1784 3103 
Q 1356 3103 1142 2972 
Q 928 2841 928 2578 
Q 928 2378 1081 2264 
Q 1234 2150 1697 2047 
L 1894 2003 
Q 2506 1872 2764 1633 
Q 3022 1394 3022 966 
Q 3022 478 2636 193 
Q 2250 -91 1575 -91 
Q 1294 -91 989 -36 
Q 684 19 347 128 
L 347 722 
Q 666 556 975 473 
Q 1284 391 1588 391 
Q 1994 391 2212 530 
Q 2431 669 2431 922 
Q 2431 1156 2273 1281 
Q 2116 1406 1581 1522 
L 1381 1569 
Q 847 1681 609 1914 
Q 372 2147 372 2553 
Q 372 3047 722 3315 
Q 1072 3584 1716 3584 
Q 2034 3584 2315 3537 
Q 2597 3491 2834 3397 
z
" transform="scale(0.015625)"/>
      <path id="DejaVuSans-29" d="M 513 4856 
L 1013 4856 
Q 1481 4119 1714 3412 
Q 1947 2706 1947 2009 
Q 1947 1309 1714 600 
Q 1481 -109 1013 -844 
L 513 -844 
Q 928 -128 1133 580 
Q 1338 1288 1338 2009 
Q 1338 2731 1133 3434 
Q 928 4138 513 4856 
z
" transform="scale(0.015625)"/>
     </defs>
     <use xlink:href="#DejaVuSans-5b"/>
     <use xlink:href="#DejaVuSans-31" transform="translate(39.013672 0)"/>
     <use xlink:href="#DejaVuSans-38" transform="translate(102.636719 0)"/>
     <use xlink:href="#DejaVuSans-5d" transform="translate(166.259766 0)"/>
     <use xlink:href="#DejaVuSans-20" transform="translate(205.273438 0)"/>
     <use xlink:href="#DejaVuSans-64" transform="translate(237.060547 0)"/>
     <use xlink:href="#DejaVuSans-4b" transform="translate(300.537109 0)"/>
     <use xlink:href="#DejaVuSans-67" transform="translate(366.113281 0)"/>
     <use xlink:href="#DejaVuSans-5f" transform="translate(429.589844 0)"/>
     <use xlink:href="#DejaVuSans-78" transform="translate(479.589844 0)"/>
     <use xlink:href="#DejaVuSans-7a" transform="translate(538.769531 0)"/>
     <use xlink:href="#DejaVuSans-20" transform="translate(591.259766 0)"/>
     <use xlink:href="#DejaVuSans-20" transform="translate(623.046875 0)"/>
     <use xlink:href="#DejaVuSans-2014" transform="translate(654.833984 0)"/>
     <use xlink:href="#DejaVuSans-20" transform="translate(754.833984 0)"/>
     <use xlink:href="#DejaVuSans-20" transform="translate(786.621094 0)"/>
     <use xlink:href="#DejaVuSans-55" transform="translate(818.408203 0)"/>
     <use xlink:href="#DejaVuSans-6e" transform="translate(891.601562 0)"/>
     <use xlink:href="#DejaVuSans-63" transform="translate(954.980469 0)"/>
     <use xlink:href="#DejaVuSans-65" transform="translate(1009.960938 0)"/>
     <use xlink:href="#DejaVuSans-72" transform="translate(1071.484375 0)"/>
     <use xlink:href="#DejaVuSans-74" transform="translate(1112.597656 0)"/>
     <use xlink:href="#DejaVuSans-61" transform="translate(1151.806641 0)"/>
     <use xlink:href="#DejaVuSans-69" transform="translate(1213.085938 0)"/>
     <use xlink:href="#DejaVuSans-6e" transform="translate(1240.869141 0)"/>
     <use xlink:href="#DejaVuSans-74" transform="translate(1304.248047 0)"/>
     <use xlink:href="#DejaVuSans-79" transform="translate(1343.457031 0)"/>
     <use xlink:href="#DejaVuSans-20" transform="translate(1402.636719 0)"/>
     <use xlink:href="#DejaVuSans-28" transform="translate(1434.423828 0)"/>
     <use xlink:href="#DejaVuSans-73" transform="translate(1473.4375 0)"/>
     <use xlink:href="#DejaVuSans-74" transform="translate(1525.537109 0)"/>
     <use xlink:href="#DejaVuSans-64" transform="translate(1564.746094 0)"/>
     <use xlink:href="#DejaVuSans-20" transform="translate(1628.222656 0)"/>
     <use xlink:href="#DejaVuSans-64" transform="translate(1660.009766 0)"/>
     <use xlink:href="#DejaVuSans-65" transform="translate(1723.486328 0)"/>
     <use xlink:href="#DejaVuSans-76" transform="translate(1785.009766 0)"/>
     <use xlink:href="#DejaVuSans-29" transform="translate(1844.189453 0)"/>
    </g>
   </g>
   <g id="legend_1">
    <g id="patch_7">
     <path d="M 738.401563 64.23625 
L 846.2 64.23625 
Q 848.2 64.23625 848.2 62.23625 
L 848.2 33.88 
Q 848.2 31.88 846.2 31.88 
L 738.401563 31.88 
Q 736.401563 31.88 736.401563 33.88 
L 736.401563 62.23625 
Q 736.401563 64.23625 738.401563 64.23625 
z
" style="fill: #ffffff; opacity: 0.8; stroke: #cccccc; stroke-linejoin: miter"/>
    </g>
    <g id="line2d_31">
     <path d="M 740.401563 39.978437 
L 750.401563 39.978437 
L 760.401563 39.978437 
" style="fill: none; stroke: #0000ff; stroke-width: 1.5; stroke-linecap: square"/>
    </g>
    <g id="text_16">
     <!-- No Noise -->
     <g transform="translate(768.401563 43.478437) scale(0.1 -0.1)">
      <defs>
       <path id="DejaVuSans-4e" d="M 628 4666 
L 1478 4666 
L 3547 763 
L 3547 4666 
L 4159 4666 
L 4159 0 
L 3309 0 
L 1241 3903 
L 1241 0 
L 628 0 
L 628 4666 
z
" transform="scale(0.015625)"/>
       <path id="DejaVuSans-6f" d="M 1959 3097 
Q 1497 3097 1228 2736 
Q 959 2375 959 1747 
Q 959 1119 1226 758 
Q 1494 397 1959 397 
Q 2419 397 2687 759 
Q 2956 1122 2956 1747 
Q 2956 2369 2687 2733 
Q 2419 3097 1959 3097 
z
M 1959 3584 
Q 2709 3584 3137 3096 
Q 3566 2609 3566 1747 
Q 3566 888 3137 398 
Q 2709 -91 1959 -91 
Q 1206 -91 779 398 
Q 353 888 353 1747 
Q 353 2609 779 3096 
Q 1206 3584 1959 3584 
z
" transform="scale(0.015625)"/>
      </defs>
      <use xlink:href="#DejaVuSans-4e"/>
      <use xlink:href="#DejaVuSans-6f" transform="translate(74.804688 0)"/>
      <use xlink:href="#DejaVuSans-20" transform="translate(135.986328 0)"/>
      <use xlink:href="#DejaVuSans-4e" transform="translate(167.773438 0)"/>
      <use xlink:href="#DejaVuSans-6f" transform="translate(242.578125 0)"/>
      <use xlink:href="#DejaVuSans-69" transform="translate(303.759766 0)"/>
      <use xlink:href="#DejaVuSans-73" transform="translate(331.542969 0)"/>
      <use xlink:href="#DejaVuSans-65" transform="translate(383.642578 0)"/>
     </g>
    </g>
    <g id="line2d_32">
     <path d="M 740.401563 54.656562 
L 750.401563 54.656562 
L 760.401563 54.656562 
" style="fill: none; stroke-dasharray: 5.55,2.4; stroke-dashoffset: 0; stroke: #ff0000; stroke-width: 1.5"/>
    </g>
    <g id="text_17">
     <!-- With ARW/VRW -->
     <g transform="translate(768.401563 58.156562) scale(0.1 -0.1)">
      <defs>
       <path id="DejaVuSans-57" d="M 213 4666 
L 850 4666 
L 1831 722 
L 2809 4666 
L 3519 4666 
L 4500 722 
L 5478 4666 
L 6119 4666 
L 4947 0 
L 4153 0 
L 3169 4050 
L 2175 0 
L 1381 0 
L 213 4666 
z
" transform="scale(0.015625)"/>
       <path id="DejaVuSans-68" d="M 3513 2113 
L 3513 0 
L 2938 0 
L 2938 2094 
Q 2938 2591 2744 2837 
Q 2550 3084 2163 3084 
Q 1697 3084 1428 2787 
Q 1159 2491 1159 1978 
L 1159 0 
L 581 0 
L 581 4863 
L 1159 4863 
L 1159 2956 
Q 1366 3272 1645 3428 
Q 1925 3584 2291 3584 
Q 2894 3584 3203 3211 
Q 3513 2838 3513 2113 
z
" transform="scale(0.015625)"/>
       <path id="DejaVuSans-41" d="M 2188 4044 
L 1331 1722 
L 3047 1722 
L 2188 4044 
z
M 1831 4666 
L 2547 4666 
L 4325 0 
L 3669 0 
L 3244 1197 
L 1141 1197 
L 716 0 
L 50 0 
L 1831 4666 
z
" transform="scale(0.015625)"/>
       <path id="DejaVuSans-52" d="M 2841 2188 
Q 3044 2119 3236 1894 
Q 3428 1669 3622 1275 
L 4263 0 
L 3584 0 
L 2988 1197 
Q 2756 1666 2539 1819 
Q 2322 1972 1947 1972 
L 1259 1972 
L 1259 0 
L 628 0 
L 628 4666 
L 2053 4666 
Q 2853 4666 3247 4331 
Q 3641 3997 3641 3322 
Q 3641 2881 3436 2590 
Q 3231 2300 2841 2188 
z
M 1259 4147 
L 1259 2491 
L 2053 2491 
Q 2509 2491 2742 2702 
Q 2975 2913 2975 3322 
Q 2975 3731 2742 3939 
Q 2509 4147 2053 4147 
L 1259 4147 
z
" transform="scale(0.015625)"/>
       <path id="DejaVuSans-2f" d="M 1625 4666 
L 2156 4666 
L 531 -594 
L 0 -594 
L 1625 4666 
z
" transform="scale(0.015625)"/>
       <path id="DejaVuSans-56" d="M 1831 0 
L 50 4666 
L 709 4666 
L 2188 738 
L 3669 4666 
L 4325 4666 
L 2547 0 
L 1831 0 
z
" transform="scale(0.015625)"/>
      </defs>
      <use xlink:href="#DejaVuSans-57"/>
      <use xlink:href="#DejaVuSans-69" transform="translate(96.626953 0)"/>
      <use xlink:href="#DejaVuSans-74" transform="translate(124.410156 0)"/>
      <use xlink:href="#DejaVuSans-68" transform="translate(163.619141 0)"/>
      <use xlink:href="#DejaVuSans-20" transform="translate(226.998047 0)"/>
      <use xlink:href="#DejaVuSans-41" transform="translate(258.785156 0)"/>
      <use xlink:href="#DejaVuSans-52" transform="translate(327.193359 0)"/>
      <use xlink:href="#DejaVuSans-57" transform="translate(392.675781 0)"/>
      <use xlink:href="#DejaVuSans-2f" transform="translate(491.552734 0)"/>
      <use xlink:href="#DejaVuSans-56" transform="translate(525.244141 0)"/>
      <use xlink:href="#DejaVuSans-52" transform="translate(593.652344 0)"/>
      <use xlink:href="#DejaVuSans-57" transform="translate(659.134766 0)"/>
     </g>
    </g>
   </g>
  </g>
  <g id="axes_2">
   <g id="patch_8">
    <path d="M 66.62 534.04 
L 853.2 534.04 
L 853.2 302.44 
L 66.62 302.44 
z
" style="fill: #ffffff"/>
   </g>
   <g id="matplotlib.axis_3">
    <g id="xtick_8">
     <g id="line2d_33">
      <path d="M 102.373636 534.04 
L 102.373636 302.44 
" clip-path="url(#pe4aa3fd2f0)" style="fill: none; stroke: #b0b0b0; stroke-width: 0.8; stroke-linecap: square"/>
     </g>
     <g id="line2d_34">
      <g>
       <use xlink:href="#mfe4c892462" x="102.373636" y="534.04" style="stroke: #000000; stroke-width: 0.8"/>
      </g>
     </g>
     <g id="text_18">
      <!-- 0 -->
      <g transform="translate(99.192386 548.638438) scale(0.1 -0.1)">
       <use xlink:href="#DejaVuSans-30"/>
      </g>
     </g>
    </g>
    <g id="xtick_9">
     <g id="line2d_35">
      <path d="M 223.943294 534.04 
L 223.943294 302.44 
" clip-path="url(#pe4aa3fd2f0)" style="fill: none; stroke: #b0b0b0; stroke-width: 0.8; stroke-linecap: square"/>
     </g>
     <g id="line2d_36">
      <g>
       <use xlink:href="#mfe4c892462" x="223.943294" y="534.04" style="stroke: #000000; stroke-width: 0.8"/>
      </g>
     </g>
     <g id="text_19">
      <!-- 50 -->
      <g transform="translate(217.580794 548.638438) scale(0.1 -0.1)">
       <use xlink:href="#DejaVuSans-35"/>
       <use xlink:href="#DejaVuSans-30" transform="translate(63.623047 0)"/>
      </g>
     </g>
    </g>
    <g id="xtick_10">
     <g id="line2d_37">
      <path d="M 345.512952 534.04 
L 345.512952 302.44 
" clip-path="url(#pe4aa3fd2f0)" style="fill: none; stroke: #b0b0b0; stroke-width: 0.8; stroke-linecap: square"/>
     </g>
     <g id="line2d_38">
      <g>
       <use xlink:href="#mfe4c892462" x="345.512952" y="534.04" style="stroke: #000000; stroke-width: 0.8"/>
      </g>
     </g>
     <g id="text_20">
      <!-- 100 -->
      <g transform="translate(335.969202 548.638438) scale(0.1 -0.1)">
       <use xlink:href="#DejaVuSans-31"/>
       <use xlink:href="#DejaVuSans-30" transform="translate(63.623047 0)"/>
       <use xlink:href="#DejaVuSans-30" transform="translate(127.246094 0)"/>
      </g>
     </g>
    </g>
    <g id="xtick_11">
     <g id="line2d_39">
      <path d="M 467.08261 534.04 
L 467.08261 302.44 
" clip-path="url(#pe4aa3fd2f0)" style="fill: none; stroke: #b0b0b0; stroke-width: 0.8; stroke-linecap: square"/>
     </g>
     <g id="line2d_40">
      <g>
       <use xlink:href="#mfe4c892462" x="467.08261" y="534.04" style="stroke: #000000; stroke-width: 0.8"/>
      </g>
     </g>
     <g id="text_21">
      <!-- 150 -->
      <g transform="translate(457.53886 548.638438) scale(0.1 -0.1)">
       <use xlink:href="#DejaVuSans-31"/>
       <use xlink:href="#DejaVuSans-35" transform="translate(63.623047 0)"/>
       <use xlink:href="#DejaVuSans-30" transform="translate(127.246094 0)"/>
      </g>
     </g>
    </g>
    <g id="xtick_12">
     <g id="line2d_41">
      <path d="M 588.652268 534.04 
L 588.652268 302.44 
" clip-path="url(#pe4aa3fd2f0)" style="fill: none; stroke: #b0b0b0; stroke-width: 0.8; stroke-linecap: square"/>
     </g>
     <g id="line2d_42">
      <g>
       <use xlink:href="#mfe4c892462" x="588.652268" y="534.04" style="stroke: #000000; stroke-width: 0.8"/>
      </g>
     </g>
     <g id="text_22">
      <!-- 200 -->
      <g transform="translate(579.108518 548.638438) scale(0.1 -0.1)">
       <use xlink:href="#DejaVuSans-32"/>
       <use xlink:href="#DejaVuSans-30" transform="translate(63.623047 0)"/>
       <use xlink:href="#DejaVuSans-30" transform="translate(127.246094 0)"/>
      </g>
     </g>
    </g>
    <g id="xtick_13">
     <g id="line2d_43">
      <path d="M 710.221925 534.04 
L 710.221925 302.44 
" clip-path="url(#pe4aa3fd2f0)" style="fill: none; stroke: #b0b0b0; stroke-width: 0.8; stroke-linecap: square"/>
     </g>
     <g id="line2d_44">
      <g>
       <use xlink:href="#mfe4c892462" x="710.221925" y="534.04" style="stroke: #000000; stroke-width: 0.8"/>
      </g>
     </g>
     <g id="text_23">
      <!-- 250 -->
      <g transform="translate(700.678175 548.638438) scale(0.1 -0.1)">
       <use xlink:href="#DejaVuSans-32"/>
       <use xlink:href="#DejaVuSans-35" transform="translate(63.623047 0)"/>
       <use xlink:href="#DejaVuSans-30" transform="translate(127.246094 0)"/>
      </g>
     </g>
    </g>
    <g id="xtick_14">
     <g id="line2d_45">
      <path d="M 831.791583 534.04 
L 831.791583 302.44 
" clip-path="url(#pe4aa3fd2f0)" style="fill: none; stroke: #b0b0b0; stroke-width: 0.8; stroke-linecap: square"/>
     </g>
     <g id="line2d_46">
      <g>
       <use xlink:href="#mfe4c892462" x="831.791583" y="534.04" style="stroke: #000000; stroke-width: 0.8"/>
      </g>
     </g>
     <g id="text_24">
      <!-- 300 -->
      <g transform="translate(822.247833 548.638438) scale(0.1 -0.1)">
       <use xlink:href="#DejaVuSans-33"/>
       <use xlink:href="#DejaVuSans-30" transform="translate(63.623047 0)"/>
       <use xlink:href="#DejaVuSans-30" transform="translate(127.246094 0)"/>
      </g>
     </g>
    </g>
    <g id="text_25">
     <!-- Time (s) -->
     <g transform="translate(439.581094 562.316562) scale(0.1 -0.1)">
      <defs>
       <path id="DejaVuSans-54" d="M -19 4666 
L 3928 4666 
L 3928 4134 
L 2272 4134 
L 2272 0 
L 1638 0 
L 1638 4134 
L -19 4134 
L -19 4666 
z
" transform="scale(0.015625)"/>
       <path id="DejaVuSans-6d" d="M 3328 2828 
Q 3544 3216 3844 3400 
Q 4144 3584 4550 3584 
Q 5097 3584 5394 3201 
Q 5691 2819 5691 2113 
L 5691 0 
L 5113 0 
L 5113 2094 
Q 5113 2597 4934 2840 
Q 4756 3084 4391 3084 
Q 3944 3084 3684 2787 
Q 3425 2491 3425 1978 
L 3425 0 
L 2847 0 
L 2847 2094 
Q 2847 2600 2669 2842 
Q 2491 3084 2119 3084 
Q 1678 3084 1418 2786 
Q 1159 2488 1159 1978 
L 1159 0 
L 581 0 
L 581 3500 
L 1159 3500 
L 1159 2956 
Q 1356 3278 1631 3431 
Q 1906 3584 2284 3584 
Q 2666 3584 2933 3390 
Q 3200 3197 3328 2828 
z
" transform="scale(0.015625)"/>
      </defs>
      <use xlink:href="#DejaVuSans-54"/>
      <use xlink:href="#DejaVuSans-69" transform="translate(57.958984 0)"/>
      <use xlink:href="#DejaVuSans-6d" transform="translate(85.742188 0)"/>
      <use xlink:href="#DejaVuSans-65" transform="translate(183.154297 0)"/>
      <use xlink:href="#DejaVuSans-20" transform="translate(244.677734 0)"/>
      <use xlink:href="#DejaVuSans-28" transform="translate(276.464844 0)"/>
      <use xlink:href="#DejaVuSans-73" transform="translate(315.478516 0)"/>
      <use xlink:href="#DejaVuSans-29" transform="translate(367.578125 0)"/>
     </g>
    </g>
   </g>
   <g id="matplotlib.axis_4">
    <g id="ytick_7">
     <g id="line2d_47">
      <path d="M 66.62 516.152057 
L 853.2 516.152057 
" clip-path="url(#pe4aa3fd2f0)" style="fill: none; stroke: #b0b0b0; stroke-width: 0.8; stroke-linecap: square"/>
     </g>
     <g id="line2d_48">
      <g>
       <use xlink:href="#m5c5197a54f" x="66.62" y="516.152057" style="stroke: #000000; stroke-width: 0.8"/>
      </g>
     </g>
     <g id="text_26">
      <!-- 0.0000 -->
      <g transform="translate(24.629375 519.951276) scale(0.1 -0.1)">
       <use xlink:href="#DejaVuSans-30"/>
       <use xlink:href="#DejaVuSans-2e" transform="translate(63.623047 0)"/>
       <use xlink:href="#DejaVuSans-30" transform="translate(95.410156 0)"/>
       <use xlink:href="#DejaVuSans-30" transform="translate(159.033203 0)"/>
       <use xlink:href="#DejaVuSans-30" transform="translate(222.65625 0)"/>
       <use xlink:href="#DejaVuSans-30" transform="translate(286.279297 0)"/>
      </g>
     </g>
    </g>
    <g id="ytick_8">
     <g id="line2d_49">
      <path d="M 66.62 465.182759 
L 853.2 465.182759 
" clip-path="url(#pe4aa3fd2f0)" style="fill: none; stroke: #b0b0b0; stroke-width: 0.8; stroke-linecap: square"/>
     </g>
     <g id="line2d_50">
      <g>
       <use xlink:href="#m5c5197a54f" x="66.62" y="465.182759" style="stroke: #000000; stroke-width: 0.8"/>
      </g>
     </g>
     <g id="text_27">
      <!-- 0.0002 -->
      <g transform="translate(24.629375 468.981978) scale(0.1 -0.1)">
       <use xlink:href="#DejaVuSans-30"/>
       <use xlink:href="#DejaVuSans-2e" transform="translate(63.623047 0)"/>
       <use xlink:href="#DejaVuSans-30" transform="translate(95.410156 0)"/>
       <use xlink:href="#DejaVuSans-30" transform="translate(159.033203 0)"/>
       <use xlink:href="#DejaVuSans-30" transform="translate(222.65625 0)"/>
       <use xlink:href="#DejaVuSans-32" transform="translate(286.279297 0)"/>
      </g>
     </g>
    </g>
    <g id="ytick_9">
     <g id="line2d_51">
      <path d="M 66.62 414.213461 
L 853.2 414.213461 
" clip-path="url(#pe4aa3fd2f0)" style="fill: none; stroke: #b0b0b0; stroke-width: 0.8; stroke-linecap: square"/>
     </g>
     <g id="line2d_52">
      <g>
       <use xlink:href="#m5c5197a54f" x="66.62" y="414.213461" style="stroke: #000000; stroke-width: 0.8"/>
      </g>
     </g>
     <g id="text_28">
      <!-- 0.0004 -->
      <g transform="translate(24.629375 418.01268) scale(0.1 -0.1)">
       <use xlink:href="#DejaVuSans-30"/>
       <use xlink:href="#DejaVuSans-2e" transform="translate(63.623047 0)"/>
       <use xlink:href="#DejaVuSans-30" transform="translate(95.410156 0)"/>
       <use xlink:href="#DejaVuSans-30" transform="translate(159.033203 0)"/>
       <use xlink:href="#DejaVuSans-30" transform="translate(222.65625 0)"/>
       <use xlink:href="#DejaVuSans-34" transform="translate(286.279297 0)"/>
      </g>
     </g>
    </g>
    <g id="ytick_10">
     <g id="line2d_53">
      <path d="M 66.62 363.244163 
L 853.2 363.244163 
" clip-path="url(#pe4aa3fd2f0)" style="fill: none; stroke: #b0b0b0; stroke-width: 0.8; stroke-linecap: square"/>
     </g>
     <g id="line2d_54">
      <g>
       <use xlink:href="#m5c5197a54f" x="66.62" y="363.244163" style="stroke: #000000; stroke-width: 0.8"/>
      </g>
     </g>
     <g id="text_29">
      <!-- 0.0006 -->
      <g transform="translate(24.629375 367.043382) scale(0.1 -0.1)">
       <defs>
        <path id="DejaVuSans-36" d="M 2113 2584 
Q 1688 2584 1439 2293 
Q 1191 2003 1191 1497 
Q 1191 994 1439 701 
Q 1688 409 2113 409 
Q 2538 409 2786 701 
Q 3034 994 3034 1497 
Q 3034 2003 2786 2293 
Q 2538 2584 2113 2584 
z
M 3366 4563 
L 3366 3988 
Q 3128 4100 2886 4159 
Q 2644 4219 2406 4219 
Q 1781 4219 1451 3797 
Q 1122 3375 1075 2522 
Q 1259 2794 1537 2939 
Q 1816 3084 2150 3084 
Q 2853 3084 3261 2657 
Q 3669 2231 3669 1497 
Q 3669 778 3244 343 
Q 2819 -91 2113 -91 
Q 1303 -91 875 529 
Q 447 1150 447 2328 
Q 447 3434 972 4092 
Q 1497 4750 2381 4750 
Q 2619 4750 2861 4703 
Q 3103 4656 3366 4563 
z
" transform="scale(0.015625)"/>
       </defs>
       <use xlink:href="#DejaVuSans-30"/>
       <use xlink:href="#DejaVuSans-2e" transform="translate(63.623047 0)"/>
       <use xlink:href="#DejaVuSans-30" transform="translate(95.410156 0)"/>
       <use xlink:href="#DejaVuSans-30" transform="translate(159.033203 0)"/>
       <use xlink:href="#DejaVuSans-30" transform="translate(222.65625 0)"/>
       <use xlink:href="#DejaVuSans-36" transform="translate(286.279297 0)"/>
      </g>
     </g>
    </g>
    <g id="ytick_11">
     <g id="line2d_55">
      <path d="M 66.62 312.274865 
L 853.2 312.274865 
" clip-path="url(#pe4aa3fd2f0)" style="fill: none; stroke: #b0b0b0; stroke-width: 0.8; stroke-linecap: square"/>
     </g>
     <g id="line2d_56">
      <g>
       <use xlink:href="#m5c5197a54f" x="66.62" y="312.274865" style="stroke: #000000; stroke-width: 0.8"/>
      </g>
     </g>
     <g id="text_30">
      <!-- 0.0008 -->
      <g transform="translate(24.629375 316.074084) scale(0.1 -0.1)">
       <use xlink:href="#DejaVuSans-30"/>
       <use xlink:href="#DejaVuSans-2e" transform="translate(63.623047 0)"/>
       <use xlink:href="#DejaVuSans-30" transform="translate(95.410156 0)"/>
       <use xlink:href="#DejaVuSans-30" transform="translate(159.033203 0)"/>
       <use xlink:href="#DejaVuSans-30" transform="translate(222.65625 0)"/>
       <use xlink:href="#DejaVuSans-38" transform="translate(286.279297 0)"/>
      </g>
     </g>
    </g>
    <g id="text_31">
     <!-- Estimated Value -->
     <g transform="translate(18.549688 458.818906) rotate(-90) scale(0.1 -0.1)">
      <defs>
       <path id="DejaVuSans-45" d="M 628 4666 
L 3578 4666 
L 3578 4134 
L 1259 4134 
L 1259 2753 
L 3481 2753 
L 3481 2222 
L 1259 2222 
L 1259 531 
L 3634 531 
L 3634 0 
L 628 0 
L 628 4666 
z
" transform="scale(0.015625)"/>
       <path id="DejaVuSans-6c" d="M 603 4863 
L 1178 4863 
L 1178 0 
L 603 0 
L 603 4863 
z
" transform="scale(0.015625)"/>
       <path id="DejaVuSans-75" d="M 544 1381 
L 544 3500 
L 1119 3500 
L 1119 1403 
Q 1119 906 1312 657 
Q 1506 409 1894 409 
Q 2359 409 2629 706 
Q 2900 1003 2900 1516 
L 2900 3500 
L 3475 3500 
L 3475 0 
L 2900 0 
L 2900 538 
Q 2691 219 2414 64 
Q 2138 -91 1772 -91 
Q 1169 -91 856 284 
Q 544 659 544 1381 
z
M 1991 3584 
L 1991 3584 
z
" transform="scale(0.015625)"/>
      </defs>
      <use xlink:href="#DejaVuSans-45"/>
      <use xlink:href="#DejaVuSans-73" transform="translate(63.183594 0)"/>
      <use xlink:href="#DejaVuSans-74" transform="translate(115.283203 0)"/>
      <use xlink:href="#DejaVuSans-69" transform="translate(154.492188 0)"/>
      <use xlink:href="#DejaVuSans-6d" transform="translate(182.275391 0)"/>
      <use xlink:href="#DejaVuSans-61" transform="translate(279.6875 0)"/>
      <use xlink:href="#DejaVuSans-74" transform="translate(340.966797 0)"/>
      <use xlink:href="#DejaVuSans-65" transform="translate(380.175781 0)"/>
      <use xlink:href="#DejaVuSans-64" transform="translate(441.699219 0)"/>
      <use xlink:href="#DejaVuSans-20" transform="translate(505.175781 0)"/>
      <use xlink:href="#DejaVuSans-56" transform="translate(536.962891 0)"/>
      <use xlink:href="#DejaVuSans-61" transform="translate(597.621094 0)"/>
      <use xlink:href="#DejaVuSans-6c" transform="translate(658.900391 0)"/>
      <use xlink:href="#DejaVuSans-75" transform="translate(686.683594 0)"/>
      <use xlink:href="#DejaVuSans-65" transform="translate(750.0625 0)"/>
     </g>
    </g>
   </g>
   <g id="line2d_57">
    <path d="M 102.373636 516.152057 
L 118.469459 516.262741 
L 129.702495 516.510848 
L 133.544097 516.985373 
L 143.853204 518.388594 
L 145.603807 518.388594 
L 145.74969 518.545519 
L 147.11127 518.69921 
L 150.75836 518.667635 
L 157.517633 518.569291 
L 157.663517 518.735123 
L 158.927841 518.610235 
L 164.714557 517.894621 
L 167.583601 517.55259 
L 169.723227 517.663643 
L 171.47383 518.537287 
L 173.175805 519.067798 
L 175.315431 519.495973 
L 177.941336 519.787561 
L 180.080962 519.834183 
L 181.345286 519.834183 
L 181.49117 520.373715 
L 183.825307 521.749135 
L 185.57591 522.29062 
L 188.250443 522.864424 
L 190.973603 523.247604 
L 193.259113 523.247604 
L 193.404996 523.481196 
L 195.252855 523.500403 
L 198.656805 523.289544 
L 204.103126 522.951176 
L 205.172939 522.951176 
L 205.318823 494.028081 
L 205.61059 488.38129 
L 205.902357 486.689686 
L 206.340008 485.587597 
L 207.020798 484.540344 
L 208.33375 482.982165 
L 210.862399 480.360475 
L 213.585559 477.83828 
L 214.558117 477.142777 
L 217.086765 477.142777 
L 217.135393 478.140092 
L 217.232649 477.900081 
L 217.475788 477.492216 
L 217.913439 477.393619 
L 220.587972 477.276603 
L 223.700155 477.004745 
L 227.930779 476.56007 
L 229.000592 476.56007 
L 229.146476 476.787923 
L 230.167661 476.64146 
L 232.69631 476.730832 
L 240.622651 477.026332 
L 240.914418 477.026332 
L 241.011674 476.680906 
L 241.060302 476.689069 
L 242.373254 476.880478 
L 244.999159 476.879763 
L 248.305854 476.665808 
L 251.56392 476.457061 
L 252.828245 476.457061 
L 252.974128 474.922752 
L 253.363151 474.983642 
L 254.578848 475.17687 
L 257.204753 475.300058 
L 264.742071 475.43073 
L 264.887955 475.317812 
L 271.501344 475.238899 
L 275.829224 474.998343 
L 276.655898 474.998343 
L 276.801781 474.087343 
L 278.406501 473.113873 
L 279.768081 472.678006 
L 281.761823 472.290594 
L 284.776751 471.948912 
L 287.062261 471.866177 
L 288.569724 471.866177 
L 288.618352 490.591458 
L 288.715608 490.505336 
L 289.736793 488.657776 
L 290.466211 488.111243 
L 291.584652 487.576219 
L 293.432511 486.958333 
L 296.058415 486.321559 
L 298.100785 486.016718 
L 300.483551 486.016718 
L 300.629434 486.476975 
L 301.212969 486.968636 
L 302.08827 487.522738 
L 303.352595 488.040322 
L 305.103198 488.501222 
L 307.534591 488.899518 
L 310.160496 489.121512 
L 312.348749 489.121512 
L 312.494633 487.815089 
L 313.321307 487.610744 
L 315.50956 487.281829 
L 318.573116 487.063059 
L 322.852368 486.99399 
L 324.262576 486.99399 
L 324.408459 488.653418 
L 324.991994 488.945273 
L 326.159062 489.269184 
L 328.006921 489.528715 
L 331.264988 489.732063 
L 335.884635 489.802009 
L 336.176402 489.802009 
L 336.322286 490.665259 
L 336.954448 490.560524 
L 338.850935 490.321307 
L 340.698794 490.208141 
L 340.844677 516.152057 
L 367.39549 516.261943 
L 373.960252 516.595371 
L 382.616012 517.010863 
L 407.805245 516.90692 
L 407.951128 516.779449 
L 411.889985 516.854036 
L 420.934768 517.140017 
L 424.095579 517.35407 
L 430.368573 517.551452 
L 432.313688 517.661597 
L 437.079218 517.695771 
L 443.546724 517.666184 
L 443.692608 517.75538 
L 444.32477 517.464576 
L 446.610279 517.018238 
L 452.883274 515.9869 
L 467.374377 515.885166 
L 467.617516 515.84177 
L 469.80577 515.832614 
L 483.22706 515.840519 
L 491.20203 515.765952 
L 491.347914 515.469125 
L 493.536167 515.533423 
L 504.380181 515.576786 
L 515.029683 515.445309 
L 515.175566 515.344735 
L 517.801471 515.152149 
L 523.588187 515.029864 
L 526.943509 515.023287 
L 526.992137 517.933686 
L 527.089393 517.912078 
L 528.353717 517.482546 
L 530.298832 517.279132 
L 535.258874 517.020206 
L 540.218916 516.951248 
L 543.720122 517.170565 
L 549.45821 517.302171 
L 550.722534 517.302171 
L 550.868418 517.049544 
L 553.591578 516.919826 
L 559.864573 516.856199 
L 562.636361 516.856294 
L 562.782244 517.193004 
L 564.386964 517.31058 
L 569.152495 517.401878 
L 574.550187 517.418001 
L 574.696071 517.59158 
L 579.072579 517.515094 
L 579.218462 516.152057 
L 601.246884 516.260403 
L 605.817903 516.546064 
L 612.72306 516.609118 
L 634.265203 516.589473 
L 634.411087 516.526126 
L 635.4809 516.685642 
L 640.003291 517.312412 
L 643.601753 517.606004 
L 646.17903 517.606004 
L 646.324913 518.052094 
L 650.94456 518.116034 
L 658.092856 518.131551 
L 658.23874 518.320612 
L 670.006683 518.265701 
L 670.152566 517.952999 
L 671.611402 518.17265 
L 674.480446 518.417676 
L 679.39186 518.594473 
L 681.920509 518.594473 
L 682.017765 517.984395 
L 682.066393 518.031326 
L 682.504043 518.031344 
L 692.3755 517.576286 
L 729.867582 517.682066 
L 732.298975 517.92413 
L 737.113134 518.098009 
L 751.652865 518.329724 
L 765.317294 518.262209 
L 765.463178 517.376135 
L 767.505548 517.235553 
L 775.723657 517.082275 
L 777.231121 517.082275 
L 777.377004 516.08273 
L 778.446817 515.983912 
L 783.455487 516.021255 
L 789.339459 515.96299 
L 794.396757 515.782216 
L 801.010146 515.726137 
L 801.156029 515.821321 
L 804.949003 516.011955 
L 812.729461 516.075771 
L 817.446364 516.154053 
L 817.446364 516.154053 
" clip-path="url(#pe4aa3fd2f0)" style="fill: none; stroke: #0000ff; stroke-width: 1.5; stroke-linecap: square"/>
   </g>
   <g id="line2d_58">
    <path d="M 102.373636 516.152057 
L 116.427089 516.262993 
L 128.875822 516.483621 
L 130.96682 517.079228 
L 131.598982 517.215067 
L 132.036633 517.278047 
L 132.911934 517.464375 
L 134.127631 517.826708 
L 135.197444 517.937542 
L 135.635095 517.938317 
L 136.267257 518.001101 
L 136.607652 518.054979 
L 138.406883 517.933886 
L 139.087673 517.792401 
L 139.817091 517.806254 
L 140.789648 517.718748 
L 141.324555 517.720358 
L 143.366925 517.586507 
L 145.603807 517.586507 
L 145.74969 517.788075 
L 151.293267 517.75467 
L 157.517633 517.641565 
L 157.663517 517.779566 
L 157.906656 517.667946 
L 158.636074 517.343711 
L 159.41412 517.200488 
L 162.283164 516.276148 
L 163.06121 515.611039 
L 165.395347 514.628484 
L 165.978881 514.660733 
L 166.562416 514.562052 
L 166.854183 514.540031 
L 169.43146 514.540031 
L 169.577343 514.873302 
L 169.966366 515.03846 
L 170.598528 515.52617 
L 171.862853 516.217814 
L 177.892708 516.721653 
L 181.345286 516.731966 
L 181.49117 516.935774 
L 182.609611 517.478894 
L 184.117074 517.681984 
L 184.506097 517.697168 
L 185.430027 517.851349 
L 186.93749 518.312128 
L 188.347698 518.992607 
L 188.882605 519.198104 
L 190.535952 519.88043 
L 190.924975 519.896742 
L 193.259113 519.896742 
L 193.404996 520.262172 
L 193.891275 520.212708 
L 194.474809 519.92529 
L 198.31641 519.551242 
L 198.705433 519.575383 
L 199.580735 519.589514 
L 200.067013 519.618037 
L 200.699176 519.620363 
L 202.498407 519.318817 
L 205.172939 519.318817 
L 205.318823 490.130948 
L 205.805101 471.267771 
L 205.853729 471.414778 
L 205.902357 471.858246 
L 205.950985 471.588669 
L 205.999613 471.108614 
L 206.048241 471.296007 
L 206.29138 472.388273 
L 206.388636 471.805287 
L 206.437263 471.893144 
L 206.485891 471.95854 
L 206.874914 470.550063 
L 206.923542 470.703224 
L 206.97217 470.73775 
L 207.069426 470.295265 
L 207.166681 470.321668 
L 207.312565 470.578804 
L 207.507076 469.967312 
L 207.555704 470.049772 
L 207.65296 470.221789 
L 207.701588 470.155535 
L 207.993355 470.072541 
L 208.187867 470.264426 
L 208.528262 469.722101 
L 208.820029 469.189535 
L 209.111796 470.071824 
L 209.209052 470.357452 
L 209.25768 470.313839 
L 209.452191 469.974265 
L 209.646702 469.485224 
L 209.889842 469.462029 
L 209.93847 469.558828 
L 209.987097 469.489555 
L 210.132981 469.338337 
L 211.591817 466.329365 
L 211.786328 466.209605 
L 212.126723 465.463964 
L 212.515746 464.536173 
L 213.245164 463.858049 
L 213.34242 463.859034 
L 214.460861 462.291372 
L 217.086765 462.291372 
L 217.135393 463.583051 
L 217.232649 463.420464 
L 217.621672 463.172191 
L 218.107951 462.905092 
L 219.226391 462.825397 
L 219.71267 462.771031 
L 220.247577 462.759089 
L 220.879739 462.761905 
L 222.095435 462.676951 
L 223.262504 462.449154 
L 224.089178 462.264522 
L 225.061735 462.094404 
L 225.937037 461.81109 
L 226.715082 461.713922 
L 229.000592 461.713922 
L 229.146476 461.986296 
L 229.924521 461.96478 
L 230.167661 461.954368 
L 230.459428 461.963915 
L 231.140218 462.071363 
L 231.431985 462.05281 
L 232.69631 462.271733 
L 233.13396 462.254113 
L 233.81475 462.19616 
L 237.121445 462.40383 
L 239.163815 462.391661 
L 240.914418 462.391661 
L 241.060302 463.43502 
L 241.254813 463.459309 
L 241.595208 463.562079 
L 241.984231 463.553293 
L 242.324626 463.5792 
L 242.616394 463.640242 
L 243.054044 463.581568 
L 243.345812 463.591318 
L 244.707392 463.604192 
L 245.971716 463.570028 
L 247.381924 463.428551 
L 248.500365 463.317113 
L 252.828245 463.21174 
L 252.974128 461.123354 
L 253.752174 461.114251 
L 253.995314 461.159952 
L 254.870615 461.145162 
L 255.113754 461.105767 
L 255.940428 461.06568 
L 259.490262 461.204017 
L 260.462819 461.214219 
L 262.067539 461.142929 
L 264.742071 461.142929 
L 264.887955 461.002935 
L 265.325606 461.078139 
L 266.006396 461.117049 
L 266.930325 461.098227 
L 267.51386 461.0562 
L 270.771926 460.885192 
L 271.793111 460.639746 
L 272.717041 460.422483 
L 273.88411 460.257456 
L 274.370388 460.256746 
L 277.190804 460.351198 
L 277.482571 460.567181 
L 277.774339 460.511077 
L 278.163362 460.698608 
L 278.455129 460.848966 
L 279.427686 461.140423 
L 279.816709 461.169581 
L 280.25436 461.057811 
L 281.61594 460.958131 
L 282.734381 460.881235 
L 283.366543 460.780742 
L 284.436356 460.800478 
L 286.819121 460.946604 
L 288.569724 460.946604 
L 288.618352 493.958535 
L 288.715608 493.682123 
L 289.639537 489.959312 
L 290.174444 488.980835 
L 290.320327 488.944461 
L 290.660722 488.64502 
L 290.903862 488.631258 
L 291.049745 488.607751 
L 291.536024 488.199953 
L 292.022303 488.032058 
L 292.508581 487.973673 
L 292.800348 487.992599 
L 293.189371 487.863254 
L 293.67565 487.782491 
L 294.016045 487.718348 
L 296.301555 487.335544 
L 296.787833 487.397482 
L 297.274112 487.312835 
L 298.052158 487.19436 
L 300.483551 487.19436 
L 300.532179 485.876181 
L 300.629434 485.909822 
L 300.775318 485.926167 
L 301.456108 486.574262 
L 301.699247 486.587569 
L 302.33141 486.702928 
L 302.76906 486.764679 
L 304.179268 486.830329 
L 305.492221 486.937735 
L 306.513406 487.059303 
L 308.555776 487.221644 
L 310.598146 487.318101 
L 312.348749 487.318101 
L 312.494633 486.435378 
L 314.439747 486.364155 
L 315.217793 486.223171 
L 316.093095 486.189937 
L 317.308791 486.084895 
L 318.47586 486.052834 
L 324.262576 486.030178 
L 324.408459 487.771426 
L 324.748854 487.746167 
L 324.991994 487.709648 
L 329.903408 488.080409 
L 330.827337 488.074132 
L 331.556755 488.10123 
L 332.57794 488.089219 
L 333.161475 488.123106 
L 335.592868 488.135591 
L 336.176402 488.135591 
L 336.273658 488.713246 
L 336.322286 488.7 
L 337.343471 488.413632 
L 340.698794 488.603926 
L 340.844677 516.152057 
L 365.547632 516.261816 
L 366.666072 516.314919 
L 367.200979 516.360068 
L 370.215906 517.113328 
L 370.556302 517.120577 
L 372.744555 517.640675 
L 375.953994 517.668309 
L 376.391645 517.638143 
L 377.850481 517.338231 
L 378.33676 517.330313 
L 379.114805 517.235133 
L 380.038735 517.139537 
L 380.622269 517.019752 
L 381.448943 517.018521 
L 396.280441 516.915271 
L 397.009859 516.73349 
L 397.739277 516.722034 
L 398.517323 516.549268 
L 398.760462 516.540528 
L 399.052229 516.6364 
L 400.024787 516.294581 
L 400.705577 516.103616 
L 401.53225 515.539502 
L 402.115785 515.247288 
L 402.553435 515.110537 
L 402.796575 515.027772 
L 403.088342 514.935627 
L 404.158155 514.878752 
L 404.401294 514.882365 
L 404.887573 514.843975 
L 407.805245 514.839029 
L 407.999756 514.716597 
L 408.340151 514.617461 
L 409.166825 514.687098 
L 410.431149 514.701549 
L 412.035869 514.431626 
L 412.813915 514.229299 
L 413.397449 514.210472 
L 415.245308 514.129047 
L 418.211607 513.995878 
L 419.719071 513.995878 
L 419.864955 513.699092 
L 420.20535 513.610112 
L 420.594373 513.634354 
L 421.129279 513.526672 
L 421.664186 513.380176 
L 422.344976 513.204779 
L 423.706556 513.024884 
L 425.359903 513.240104 
L 428.131691 514.15719 
L 430.563085 514.380088 
L 431.632898 514.380088 
L 431.778781 514.726881 
L 432.26506 514.698881 
L 432.848594 514.446225 
L 436.058033 514.386639 
L 438.586682 514.710493 
L 438.975705 514.72937 
L 439.510611 514.65617 
L 440.337285 514.569093 
L 443.352213 514.605903 
L 443.546724 514.605903 
L 443.595352 513.829671 
L 443.64398 514.294527 
L 443.692608 515.039222 
L 443.741236 514.325601 
L 444.130258 503.455925 
L 444.227514 503.901922 
L 444.276142 504.528948 
L 444.32477 504.421379 
L 444.373398 504.08625 
L 444.422026 504.40334 
L 444.665165 506.005237 
L 444.762421 505.585045 
L 444.956932 505.891916 
L 445.00556 505.927587 
L 445.054188 505.827898 
L 445.443211 504.924905 
L 445.68635 505.453612 
L 445.734978 505.320131 
L 445.880861 505.027164 
L 446.124001 505.407006 
L 446.172629 505.360124 
L 446.221257 505.465199 
L 446.318512 505.534483 
L 446.415768 505.72231 
L 446.658907 505.977262 
L 446.853419 505.760314 
L 447.145186 505.327844 
L 447.242442 505.505253 
L 447.436953 506.212706 
L 447.631465 506.827448 
L 447.777348 506.720318 
L 448.117743 506.297793 
L 448.214999 506.386547 
L 448.40951 506.577998 
L 448.798533 506.073762 
L 449.041673 505.739722 
L 449.187556 505.438911 
L 449.430695 505.120062 
L 450.500508 504.039707 
L 450.840904 503.389748 
L 451.618949 503.163207 
L 451.764833 503.181589 
L 452.98053 502.308399 
L 455.460551 502.308399 
L 455.606434 502.730152 
L 455.849573 502.957213 
L 456.044085 502.909372 
L 456.38448 502.749541 
L 457.308409 502.652106 
L 459.156268 502.67303 
L 459.78843 502.656814 
L 463.532776 502.296189 
L 463.873171 502.231578 
L 464.7971 502.11532 
L 468.298306 502.212256 
L 468.541446 502.199864 
L 468.881841 502.216588 
L 469.222236 502.232553 
L 469.465375 502.304786 
L 469.903026 502.290164 
L 471.556373 502.393344 
L 472.383047 502.335821 
L 474.230906 502.404744 
L 476.565043 502.36859 
L 477.78074 502.36403 
L 479.288203 502.36403 
L 479.434087 503.088874 
L 479.677226 503.077447 
L 480.795667 503.092894 
L 481.233318 503.075324 
L 481.914108 503.072591 
L 482.157247 503.076687 
L 482.449015 503.038782 
L 482.886665 503.085073 
L 484.15099 502.993918 
L 484.977663 502.993576 
L 485.901593 502.935166 
L 486.387871 502.893753 
L 486.922778 502.907529 
L 489.937705 502.930573 
L 491.20203 502.930573 
L 491.347914 501.890878 
L 497.037373 501.603897 
L 498.447582 501.719967 
L 505.30411 501.54252 
L 505.887645 501.475572 
L 509.777874 501.159755 
L 511.285337 500.881057 
L 512.257895 500.817684 
L 512.646918 500.823213 
L 515.029683 500.823213 
L 515.175566 501.537039 
L 515.661845 502.089877 
L 515.856357 502.28291 
L 516.148124 502.358683 
L 516.585774 502.759477 
L 516.92617 502.993491 
L 517.120681 503.115256 
L 517.36382 503.212483 
L 518.093238 503.541055 
L 518.433633 503.557397 
L 519.552074 503.602877 
L 522.956025 503.768102 
L 523.831326 503.92275 
L 526.70037 503.99144 
L 526.943509 503.99144 
L 526.992137 522.600859 
L 527.089393 522.383744 
L 528.013322 519.905892 
L 528.548229 519.247753 
L 528.694112 519.278938 
L 528.98588 519.123565 
L 529.277647 519.188995 
L 529.472158 519.171789 
L 529.715298 519.017777 
L 531.271389 519.052323 
L 531.465901 519.036664 
L 531.757668 518.986275 
L 532.730225 518.968023 
L 533.265132 518.919053 
L 534.286317 518.946227 
L 534.723967 518.99275 
L 535.35613 519.11731 
L 538.857336 519.001473 
L 538.954592 517.586312 
L 539.003219 517.591352 
L 539.197731 517.556049 
L 539.392242 517.608772 
L 539.586754 517.666056 
L 539.829893 517.772325 
L 540.024405 517.708147 
L 540.462055 517.514676 
L 541.094217 517.501394 
L 541.288729 517.503714 
L 541.531868 517.506679 
L 542.261286 517.327253 
L 542.698937 517.217308 
L 547.367212 517.184919 
L 548.388397 517.210555 
L 551.451952 517.315384 
L 552.18137 517.327919 
L 553.153928 517.256299 
L 553.883345 517.236095 
L 562.636361 517.169103 
L 562.782244 517.806021 
L 564.630103 517.354555 
L 565.602661 517.412853 
L 566.429334 517.420326 
L 571.048981 517.382724 
L 572.799584 517.392996 
L 574.890582 517.289102 
L 575.765884 517.242886 
L 576.835697 517.306484 
L 577.370603 517.414927 
L 579.072579 517.67799 
L 579.218462 516.152083 
L 582.330645 516.061752 
L 582.67104 515.957741 
L 583.254575 515.961958 
L 589.478941 516.282618 
L 590.597382 516.193164 
L 592.493869 516.19345 
L 593.515054 516.171238 
L 595.557424 516.169473 
L 598.815491 516.17373 
L 599.204514 515.711921 
L 599.836676 514.739897 
L 600.079815 514.937689 
L 600.128443 514.83732 
L 600.177071 514.675184 
L 600.225699 514.761944 
L 600.371583 514.690704 
L 600.517466 514.858697 
L 600.906489 513.529191 
L 600.955117 513.556155 
L 601.003745 513.555352 
L 601.246884 515.452378 
L 601.34414 515.100351 
L 601.441396 515.028719 
L 601.538651 514.437934 
L 601.587279 514.577623 
L 601.684535 514.822847 
L 601.976302 513.154191 
L 602.02493 513.395495 
L 602.268069 514.361746 
L 602.316697 514.301978 
L 602.462581 514.728775 
L 602.511209 514.715012 
L 602.851604 516.37987 
L 602.997487 516.115534 
L 603.094743 516.285928 
L 603.289254 516.594179 
L 603.337882 516.535649 
L 603.532394 516.839734 
L 603.678277 517.146714 
L 603.775533 517.117699 
L 603.970045 517.725063 
L 604.0673 518.067949 
L 604.164556 518.007324 
L 604.31044 517.545746 
L 604.359067 517.593692 
L 604.456323 517.571678 
L 604.602207 517.212847 
L 604.650835 517.241662 
L 605.039858 517.932038 
L 605.088485 517.760457 
L 605.380253 517.34205 
L 606.012415 520.240506 
L 606.061043 520.212654 
L 606.158298 520.054348 
L 606.206926 520.172456 
L 606.255554 520.222319 
L 606.450066 520.905737 
L 606.547321 520.986566 
L 606.741833 521.075788 
L 606.984972 521.720191 
L 607.276739 522.500946 
L 607.422623 522.661128 
L 607.665762 523.023062 
L 607.811646 522.803766 
L 607.908901 522.652068 
L 607.957529 522.674474 
L 608.249296 522.817701 
L 608.541064 523.040427 
L 608.832831 522.623276 
L 608.930087 522.448964 
L 608.978714 522.483321 
L 609.319109 522.779916 
L 609.610877 522.517219 
L 609.659504 522.569507 
L 609.902644 522.837199 
L 609.951272 522.778727 
L 610.194411 522.614761 
L 610.583434 523.003134 
L 610.729317 523.00334 
L 610.826573 523.00865 
L 611.264224 522.514474 
L 611.604619 521.975799 
L 611.701875 521.891321 
L 611.750503 521.940526 
L 611.896386 521.976528 
L 612.188153 521.735502 
L 612.674432 520.906224 
L 613.257966 520.912543 
L 613.452478 520.636568 
L 613.646989 520.5964 
L 613.841501 520.182481 
L 614.911314 518.546271 
L 615.203081 517.977712 
L 615.543476 517.267526 
L 615.786615 516.913519 
L 615.981127 516.735053 
L 616.224266 516.513253 
L 616.516033 516.626871 
L 616.759173 516.147213 
L 617.245451 515.671752 
L 617.342707 515.653702 
L 617.585846 515.488028 
L 617.73173 515.526106 
L 618.023497 515.275384 
L 619.239194 514.246742 
L 620.746657 514.201074 
L 622.351377 514.201074 
L 622.448632 514.888398 
L 622.49726 514.86871 
L 623.518445 514.574678 
L 624.247863 514.511681 
L 624.880026 514.787588 
L 625.560816 515.193181 
L 625.998467 515.179102 
L 626.192978 515.21862 
L 626.387489 515.258614 
L 626.679257 515.31236 
L 627.457302 515.621104 
L 627.603186 515.644477 
L 628.040837 515.899528 
L 628.818883 515.952418 
L 629.645556 516.502217 
L 630.326346 516.005234 
L 630.423602 516.03622 
L 630.520858 516.230099 
L 630.569486 516.149529 
L 630.812625 515.909302 
L 631.055764 515.818146 
L 631.785182 516.148752 
L 634.265203 516.148752 
L 634.362459 512.038815 
L 634.411087 512.142557 
L 634.459715 512.278277 
L 634.605598 509.437094 
L 634.897365 505.849987 
L 634.945993 506.233271 
L 635.091877 505.372496 
L 635.335016 501.00903 
L 635.383644 501.12624 
L 635.724039 505.958913 
L 635.772667 505.568995 
L 635.821295 505.717596 
L 635.918551 507.019778 
L 635.967178 506.796387 
L 636.210318 503.167336 
L 636.307573 503.486185 
L 636.356201 503.352954 
L 636.453457 501.978578 
L 636.891108 493.000682 
L 636.988364 491.601108 
L 637.036991 491.85221 
L 637.085619 492.140069 
L 637.231503 499.025433 
L 637.426014 503.866237 
L 637.960921 487.628632 
L 638.009549 487.670105 
L 638.106804 486.568369 
L 638.398572 476.771382 
L 638.495827 475.497215 
L 638.544455 476.164779 
L 638.593083 474.273011 
L 638.641711 474.565617 
L 638.787595 475.848223 
L 638.982106 469.770296 
L 639.857407 409.955101 
L 639.954663 408.155166 
L 640.24643 393.717503 
L 640.635453 375.565205 
L 640.781337 370.432206 
L 640.878593 370.986117 
L 641.024476 374.656635 
L 641.364871 358.765775 
L 641.462127 360.329178 
L 641.510755 360.154617 
L 641.85115 352.525539 
L 641.997033 357.438912 
L 642.142917 354.912414 
L 642.288801 358.3668 
L 642.337429 358.687485 
L 642.386056 358.389216 
L 642.677824 370.529617 
L 642.726451 370.77786 
L 642.920963 367.410955 
L 642.969591 368.242637 
L 643.261358 371.807782 
L 643.309986 372.417014 
L 643.407242 376.428232 
L 643.553125 374.069447 
L 646.17903 374.069447 
L 646.227658 389.242402 
L 646.324913 386.692734 
L 646.665308 371.191843 
L 646.762564 371.46204 
L 646.908448 372.268875 
L 647.248843 368.697795 
L 647.443354 370.751666 
L 647.491982 370.185921 
L 647.589238 370.044425 
L 647.637866 370.09379 
L 647.881005 367.081867 
L 647.929633 367.605208 
L 647.978261 367.45314 
L 648.270028 363.516599 
L 648.318656 364.318299 
L 648.513167 366.443405 
L 648.610423 365.293578 
L 648.853562 362.276413 
L 649.096701 360.038518 
L 649.145329 360.120091 
L 649.193957 359.797383 
L 649.437097 356.368641 
L 650.215142 344.92736 
L 650.26377 344.964525 
L 650.94456 339.314628 
L 651.236327 335.797404 
L 651.479467 334.747913 
L 651.62535 335.012576 
L 651.86849 335.642805 
L 652.063001 335.575568 
L 652.160257 335.478156 
L 652.792419 334.713462 
L 652.986931 334.813447 
L 653.132814 334.782101 
L 653.570465 334.621664 
L 654.105371 335.69263 
L 654.59165 337.614712 
L 654.834789 338.909405 
L 654.980673 339.255011 
L 655.418324 341.286291 
L 658.092856 341.286291 
L 658.141484 342.086972 
L 658.23874 341.976314 
L 658.335995 341.839503 
L 658.481879 341.483022 
L 658.627763 341.169433 
L 658.91953 342.353871 
L 659.065413 342.572562 
L 659.114041 342.507316 
L 659.259925 342.079011 
L 659.405808 341.37631 
L 659.503064 341.441695 
L 659.648948 341.500455 
L 659.746204 341.745712 
L 659.989343 339.651645 
L 660.378366 335.862233 
L 660.621505 334.971962 
L 660.864644 334.216633 
L 661.059156 333.073326 
L 661.253667 332.756863 
L 661.302295 332.85645 
L 661.496807 333.005728 
L 661.545434 332.887012 
L 662.031713 331.069027 
L 662.177597 330.894742 
L 662.274852 330.842397 
L 662.32348 330.726158 
L 662.420736 329.913056 
L 662.469364 330.07067 
L 662.517992 330.171408 
L 663.344665 336.079499 
L 663.393293 336.142642 
L 663.539177 335.788209 
L 663.782316 338.905251 
L 664.317223 345.01338 
L 664.706246 350.430943 
L 665.095268 357.216757 
L 665.143896 357.353848 
L 665.28978 359.744298 
L 665.532919 362.805756 
L 665.581547 362.84158 
L 665.727431 365.03337 
L 666.116454 371.343159 
L 666.554104 375.7344 
L 666.748616 377.64205 
L 667.186267 384.133703 
L 667.429406 385.53444 
L 670.006683 385.53444 
L 670.152566 421.299156 
L 670.249822 421.716456 
L 670.29845 421.116561 
L 670.347078 421.425091 
L 670.492961 422.534946 
L 670.590217 419.885991 
L 671.222379 402.478871 
L 671.319635 401.552716 
L 671.757286 394.642525 
L 671.805914 395.015875 
L 672.000425 396.323879 
L 672.097681 396.234336 
L 672.194936 397.086359 
L 672.243564 396.992003 
L 672.486704 393.080369 
L 672.583959 393.409057 
L 672.632587 393.330357 
L 672.681215 393.366168 
L 672.729843 393.733314 
L 672.778471 393.469134 
L 672.827099 393.469596 
L 672.875727 393.672901 
L 672.972982 394.693382 
L 673.02161 394.615317 
L 673.070238 394.411624 
L 673.216122 396.062885 
L 673.264749 395.546488 
L 673.362005 395.716425 
L 673.507889 396.606649 
L 673.605145 396.515052 
L 673.653772 396.405879 
L 673.896912 397.576232 
L 673.994167 397.471198 
L 674.042795 397.830383 
L 674.140051 397.80255 
L 674.188679 397.548874 
L 674.237307 397.609189 
L 674.529074 400.07704 
L 674.577702 399.902859 
L 674.869469 398.908713 
L 674.966725 400.018476 
L 675.30712 406.088248 
L 675.404375 405.808612 
L 676.085166 411.451627 
L 676.522816 414.253247 
L 677.106351 422.998013 
L 677.154979 423.228236 
L 677.203606 423.03248 
L 677.34949 422.221778 
L 677.398118 422.411006 
L 677.446746 422.554209 
L 677.544001 421.399835 
L 677.738513 419.316099 
L 677.787141 419.363885 
L 677.884396 418.829694 
L 678.224792 415.880057 
L 678.273419 415.625802 
L 678.322047 415.757253 
L 678.370675 416.241681 
L 678.419303 416.085835 
L 678.565187 414.807888 
L 678.662442 414.992283 
L 678.759698 415.033724 
L 678.808326 414.917041 
L 678.856954 415.016734 
L 678.954209 415.653226 
L 679.197349 417.655047 
L 681.920509 417.655047 
L 681.969137 312.967273 
L 682.115021 514.363925 
L 682.260904 512.447023 
L 682.504043 505.254099 
L 683.03895 510.725322 
L 683.136206 510.302055 
L 683.330717 510.841234 
L 683.379345 510.911739 
L 683.427973 510.815397 
L 683.622484 509.859655 
L 683.671112 510.125888 
L 683.71974 510.245745 
L 683.816996 509.869291 
L 683.865624 509.971799 
L 683.962879 510.219514 
L 684.060135 510.526763 
L 684.254647 510.028506 
L 684.497786 510.473246 
L 684.546414 510.418213 
L 684.886809 511.029968 
L 685.08132 511.081155 
L 685.32446 510.629222 
L 685.421715 510.624281 
L 685.518971 510.340679 
L 685.567599 510.371602 
L 686.00525 511.96099 
L 686.102505 511.930341 
L 686.491528 511.274554 
L 686.588784 511.351959 
L 686.783295 511.526934 
L 687.172318 510.924169 
L 687.415458 510.537992 
L 687.561341 510.201727 
L 687.853108 509.772706 
L 688.388015 509.18122 
L 688.533898 509.152507 
L 688.874294 508.600394 
L 689.214689 507.898248 
L 689.992734 507.538475 
L 690.138618 507.546655 
L 691.402942 506.628934 
L 693.834336 506.628934 
L 693.882963 506.019257 
L 693.931591 506.202263 
L 694.077475 506.353156 
L 695.050032 506.095439 
L 695.487683 506.000871 
L 695.828078 506.030056 
L 696.168473 506.077588 
L 697.870448 506.015149 
L 698.356727 505.97305 
L 702.1497 506.317953 
L 702.733235 506.356089 
L 704.483838 506.404381 
L 705.748162 506.404381 
L 705.894046 506.179648 
L 706.672091 506.203803 
L 707.109742 506.204217 
L 709.978786 506.618123 
L 710.56232 506.576169 
L 712.701946 506.804744 
L 713.042342 506.880386 
L 714.014899 506.85876 
L 714.598433 506.87225 
L 714.987456 506.878817 
L 717.661989 506.878817 
L 717.807872 507.049391 
L 718.002384 507.039729 
L 718.440034 507.187217 
L 718.926313 507.043093 
L 720.287893 507.037927 
L 720.482405 507.128692 
L 720.8228 507.100254 
L 721.163195 507.184896 
L 721.454962 507.127336 
L 722.622031 506.927423 
L 723.059681 506.967482 
L 723.934983 506.660421 
L 725.102052 506.950815 
L 725.442447 507.112589 
L 725.782842 507.358535 
L 726.074609 507.514957 
L 726.658143 507.656892 
L 727.19305 507.764097 
L 729.575815 507.764097 
L 729.721699 510.037739 
L 730.159349 510.237852 
L 730.256605 510.252042 
L 730.888767 510.855166 
L 731.812697 511.367428 
L 731.95858 511.434051 
L 732.298975 511.539147 
L 732.444859 511.558797 
L 732.785254 511.759209 
L 733.466044 511.830487 
L 734.292718 512.226661 
L 734.681741 512.491631 
L 735.119391 512.674452 
L 735.459786 512.884263 
L 736.675483 513.858194 
L 738.134319 514.176293 
L 738.426086 514.145425 
L 738.766481 514.208635 
L 739.25276 514.196468 
L 741.489641 514.196468 
L 741.635525 515.224726 
L 742.121804 515.409878 
L 742.510827 515.554884 
L 742.948477 515.581112 
L 746.98459 516.22173 
L 747.811264 516.282198 
L 748.589309 516.353671 
L 749.2701 516.400376 
L 750.63168 516.462991 
L 751.458353 516.456304 
L 753.403468 516.456304 
L 753.500724 515.994227 
L 753.549351 516.00842 
L 754.132886 516.595469 
L 754.327397 516.655619 
L 754.570537 516.723494 
L 755.105443 517.050675 
L 755.737605 517.213636 
L 756.418395 517.374663 
L 757.342325 517.360591 
L 758.412138 517.374013 
L 759.0443 517.376356 
L 760.065485 517.31714 
L 760.989415 517.328913 
L 762.788645 517.509939 
L 765.317294 517.509939 
L 765.365922 521.125274 
L 765.463178 520.930663 
L 766.338479 519.279773 
L 766.922014 518.665034 
L 767.067897 518.692711 
L 767.359665 518.547769 
L 767.602804 518.614578 
L 767.845943 518.654127 
L 768.089083 518.49541 
L 771.249894 518.29625 
L 771.638917 518.25521 
L 772.173823 518.220731 
L 772.611474 518.235943 
L 773.14638 518.286502 
L 773.632659 518.388568 
L 774.07031 518.314496 
L 774.799728 518.227593 
L 777.231121 518.227593 
L 777.377004 515.229266 
L 777.571516 515.146976 
L 777.766027 515.17613 
L 777.960539 515.217358 
L 778.203678 515.30578 
L 778.446817 515.192562 
L 778.981724 515.065673 
L 781.80214 514.783243 
L 783.552743 514.77437 
L 784.671184 514.80541 
L 786.13002 514.866345 
L 788.707297 514.896023 
L 790.068877 514.794228 
L 790.944178 514.60124 
L 791.381829 514.439299 
L 792.013991 514.248526 
L 792.694781 514.186948 
L 795.709709 513.819517 
L 797.119917 513.896701 
L 798.335613 513.835971 
L 801.010146 513.834288 
L 801.156029 514.473768 
L 802.031331 514.637747 
L 802.323098 514.731144 
L 803.1984 514.801837 
L 804.803119 515.153269 
L 808.547465 515.375564 
L 812.923972 515.455227 
L 813.069856 515.328914 
L 813.799274 515.250676 
L 817.446364 516.013788 
L 817.446364 516.013788 
" clip-path="url(#pe4aa3fd2f0)" style="fill: none; stroke-dasharray: 5.55,2.4; stroke-dashoffset: 0; stroke: #ff0000; stroke-width: 1.5"/>
   </g>
   <g id="line2d_59">
    <path d="M 340.747421 534.04 
L 340.747421 302.44 
" clip-path="url(#pe4aa3fd2f0)" style="fill: none; stroke-dasharray: 1.5,2.475; stroke-dashoffset: 0; stroke: #808080; stroke-opacity: 0.6; stroke-width: 1.5"/>
   </g>
   <g id="line2d_60">
    <path d="M 579.121206 534.04 
L 579.121206 302.44 
" clip-path="url(#pe4aa3fd2f0)" style="fill: none; stroke-dasharray: 1.5,2.475; stroke-dashoffset: 0; stroke: #808080; stroke-opacity: 0.6; stroke-width: 1.5"/>
   </g>
   <g id="patch_9">
    <path d="M 66.62 534.04 
L 66.62 302.44 
" style="fill: none; stroke: #000000; stroke-width: 0.8; stroke-linejoin: miter; stroke-linecap: square"/>
   </g>
   <g id="patch_10">
    <path d="M 853.2 534.04 
L 853.2 302.44 
" style="fill: none; stroke: #000000; stroke-width: 0.8; stroke-linejoin: miter; stroke-linecap: square"/>
   </g>
   <g id="patch_11">
    <path d="M 66.62 534.04 
L 853.2 534.04 
" style="fill: none; stroke: #000000; stroke-width: 0.8; stroke-linejoin: miter; stroke-linecap: square"/>
   </g>
   <g id="patch_12">
    <path d="M 66.62 302.44 
L 853.2 302.44 
" style="fill: none; stroke: #000000; stroke-width: 0.8; stroke-linejoin: miter; stroke-linecap: square"/>
   </g>
   <g id="text_32">
    <!-- [18] dKg_xz  —  State Estimate -->
    <g transform="translate(366.515313 296.44) scale(0.12 -0.12)">
     <use xlink:href="#DejaVuSans-5b"/>
     <use xlink:href="#DejaVuSans-31" transform="translate(39.013672 0)"/>
     <use xlink:href="#DejaVuSans-38" transform="translate(102.636719 0)"/>
     <use xlink:href="#DejaVuSans-5d" transform="translate(166.259766 0)"/>
     <use xlink:href="#DejaVuSans-20" transform="translate(205.273438 0)"/>
     <use xlink:href="#DejaVuSans-64" transform="translate(237.060547 0)"/>
     <use xlink:href="#DejaVuSans-4b" transform="translate(300.537109 0)"/>
     <use xlink:href="#DejaVuSans-67" transform="translate(366.113281 0)"/>
     <use xlink:href="#DejaVuSans-5f" transform="translate(429.589844 0)"/>
     <use xlink:href="#DejaVuSans-78" transform="translate(479.589844 0)"/>
     <use xlink:href="#DejaVuSans-7a" transform="translate(538.769531 0)"/>
     <use xlink:href="#DejaVuSans-20" transform="translate(591.259766 0)"/>
     <use xlink:href="#DejaVuSans-20" transform="translate(623.046875 0)"/>
     <use xlink:href="#DejaVuSans-2014" transform="translate(654.833984 0)"/>
     <use xlink:href="#DejaVuSans-20" transform="translate(754.833984 0)"/>
     <use xlink:href="#DejaVuSans-20" transform="translate(786.621094 0)"/>
     <use xlink:href="#DejaVuSans-53" transform="translate(818.408203 0)"/>
     <use xlink:href="#DejaVuSans-74" transform="translate(881.884766 0)"/>
     <use xlink:href="#DejaVuSans-61" transform="translate(921.09375 0)"/>
     <use xlink:href="#DejaVuSans-74" transform="translate(982.373047 0)"/>
     <use xlink:href="#DejaVuSans-65" transform="translate(1021.582031 0)"/>
     <use xlink:href="#DejaVuSans-20" transform="translate(1083.105469 0)"/>
     <use xlink:href="#DejaVuSans-45" transform="translate(1114.892578 0)"/>
     <use xlink:href="#DejaVuSans-73" transform="translate(1178.076172 0)"/>
     <use xlink:href="#DejaVuSans-74" transform="translate(1230.175781 0)"/>
     <use xlink:href="#DejaVuSans-69" transform="translate(1269.384766 0)"/>
     <use xlink:href="#DejaVuSans-6d" transform="translate(1297.167969 0)"/>
     <use xlink:href="#DejaVuSans-61" transform="translate(1394.580078 0)"/>
     <use xlink:href="#DejaVuSans-74" transform="translate(1455.859375 0)"/>
     <use xlink:href="#DejaVuSans-65" transform="translate(1495.068359 0)"/>
    </g>
   </g>
   <g id="legend_2">
    <g id="patch_13">
     <path d="M 738.401563 339.79625 
L 846.2 339.79625 
Q 848.2 339.79625 848.2 337.79625 
L 848.2 309.44 
Q 848.2 307.44 846.2 307.44 
L 738.401563 307.44 
Q 736.401563 307.44 736.401563 309.44 
L 736.401563 337.79625 
Q 736.401563 339.79625 738.401563 339.79625 
z
" style="fill: #ffffff; opacity: 0.8; stroke: #cccccc; stroke-linejoin: miter"/>
    </g>
    <g id="line2d_61">
     <path d="M 740.401563 315.538437 
L 750.401563 315.538437 
L 760.401563 315.538437 
" style="fill: none; stroke: #0000ff; stroke-width: 1.5; stroke-linecap: square"/>
    </g>
    <g id="text_33">
     <!-- No Noise -->
     <g transform="translate(768.401563 319.038437) scale(0.1 -0.1)">
      <use xlink:href="#DejaVuSans-4e"/>
      <use xlink:href="#DejaVuSans-6f" transform="translate(74.804688 0)"/>
      <use xlink:href="#DejaVuSans-20" transform="translate(135.986328 0)"/>
      <use xlink:href="#DejaVuSans-4e" transform="translate(167.773438 0)"/>
      <use xlink:href="#DejaVuSans-6f" transform="translate(242.578125 0)"/>
      <use xlink:href="#DejaVuSans-69" transform="translate(303.759766 0)"/>
      <use xlink:href="#DejaVuSans-73" transform="translate(331.542969 0)"/>
      <use xlink:href="#DejaVuSans-65" transform="translate(383.642578 0)"/>
     </g>
    </g>
    <g id="line2d_62">
     <path d="M 740.401563 330.216562 
L 750.401563 330.216562 
L 760.401563 330.216562 
" style="fill: none; stroke-dasharray: 5.55,2.4; stroke-dashoffset: 0; stroke: #ff0000; stroke-width: 1.5"/>
    </g>
    <g id="text_34">
     <!-- With ARW/VRW -->
     <g transform="translate(768.401563 333.716562) scale(0.1 -0.1)">
      <use xlink:href="#DejaVuSans-57"/>
      <use xlink:href="#DejaVuSans-69" transform="translate(96.626953 0)"/>
      <use xlink:href="#DejaVuSans-74" transform="translate(124.410156 0)"/>
      <use xlink:href="#DejaVuSans-68" transform="translate(163.619141 0)"/>
      <use xlink:href="#DejaVuSans-20" transform="translate(226.998047 0)"/>
      <use xlink:href="#DejaVuSans-41" transform="translate(258.785156 0)"/>
      <use xlink:href="#DejaVuSans-52" transform="translate(327.193359 0)"/>
      <use xlink:href="#DejaVuSans-57" transform="translate(392.675781 0)"/>
      <use xlink:href="#DejaVuSans-2f" transform="translate(491.552734 0)"/>
      <use xlink:href="#DejaVuSans-56" transform="translate(525.244141 0)"/>
      <use xlink:href="#DejaVuSans-52" transform="translate(593.652344 0)"/>
      <use xlink:href="#DejaVuSans-57" transform="translate(659.134766 0)"/>
     </g>
    </g>
   </g>
  </g>
 </g>
 <defs>
  <clipPath id="p08acd674e5">
   <rect x="66.62" y="26.88" width="786.58" height="231.6"/>
  </clipPath>
  <clipPath id="pe4aa3fd2f0">
   <rect x="66.62" y="302.44" width="786.58" height="231.6"/>
  </clipPath>
 </defs>
</svg>
