<?xml version="1.0" encoding="utf-8" standalone="no"?>
<!DOCTYPE svg PUBLIC "-//W3C//DTD SVG 1.1//EN"
  "http://www.w3.org/Graphics/SVG/1.1/DTD/svg11.dtd">
<svg xmlns:xlink="http://www.w3.org/1999/xlink" width="864pt" height="576pt" viewBox="0 0 864 576" xmlns="http://www.w3.org/2000/svg" version="1.1">
 <metadata>
  <rdf:RDF xmlns:dc="http://purl.org/dc/elements/1.1/" xmlns:cc="http://creativecommons.org/ns#" xmlns:rdf="http://www.w3.org/1999/02/22-rdf-syntax-ns#">
   <cc:Work>
    <dc:type rdf:resource="http://purl.org/dc/dcmitype/StillImage"/>
    <dc:date>2026-03-09T19:21:58.907127</dc:date>
    <dc:format>image/svg+xml</dc:format>
    <dc:creator>
     <cc:Agent>
      <dc:title>Matplotlib v3.10.8, https://matplotlib.org/</dc:title>
     </cc:Agent>
    </dc:creator>
   </cc:Work>
  </rdf:RDF>
 </metadata>
 <defs>
  <style type="text/css">*{stroke-linejoin: round; stroke-linecap: butt}</style>
 </defs>
 <g id="figure_1">
  <g id="patch_1">
   <path d="M 0 576 
L 864 576 
L 864 0 
L 0 0 
z
" style="fill: #ffffff"/>
  </g>
  <g id="axes_1">
   <g id="patch_2">
    <path d="M 66.62 258.48 
L 853.2 258.48 
L 853.2 26.88 
L 66.62 26.88 
z
" style="fill: #ffffff"/>
   </g>
   <g id="matplotlib.axis_1">
    <g id="xtick_1">
     <g id="line2d_1">
      <path d="M 102.373636 258.48 
L 102.373636 26.88 
" clip-path="url(#p4bc728e035)" style="fill: none; stroke: #b0b0b0; stroke-width: 0.8; stroke-linecap: square"/>
     </g>
     <g id="line2d_2">
      <defs>
       <path id="mba72239b14" d="M 0 0 
L 0 3.5 
" style="stroke: #000000; stroke-width: 0.8"/>
      </defs>
      <g>
       <use xlink:href="#mba72239b14" x="102.373636" y="258.48" style="stroke: #000000; stroke-width: 0.8"/>
      </g>
     </g>
     <g id="text_1">
      <!-- 0 -->
      <g transform="translate(99.192386 273.078438) scale(0.1 -0.1)">
       <defs>
        <path id="DejaVuSans-30" d="M 2034 4250 
Q 1547 4250 1301 3770 
Q 1056 3291 1056 2328 
Q 1056 1369 1301 889 
Q 1547 409 2034 409 
Q 2525 409 2770 889 
Q 3016 1369 3016 2328 
Q 3016 3291 2770 3770 
Q 2525 4250 2034 4250 
z
M 2034 4750 
Q 2819 4750 3233 4129 
Q 3647 3509 3647 2328 
Q 3647 1150 3233 529 
Q 2819 -91 2034 -91 
Q 1250 -91 836 529 
Q 422 1150 422 2328 
Q 422 3509 836 4129 
Q 1250 4750 2034 4750 
z
" transform="scale(0.015625)"/>
       </defs>
       <use xlink:href="#DejaVuSans-30"/>
      </g>
     </g>
    </g>
    <g id="xtick_2">
     <g id="line2d_3">
      <path d="M 223.943294 258.48 
L 223.943294 26.88 
" clip-path="url(#p4bc728e035)" style="fill: none; stroke: #b0b0b0; stroke-width: 0.8; stroke-linecap: square"/>
     </g>
     <g id="line2d_4">
      <g>
       <use xlink:href="#mba72239b14" x="223.943294" y="258.48" style="stroke: #000000; stroke-width: 0.8"/>
      </g>
     </g>
     <g id="text_2">
      <!-- 50 -->
      <g transform="translate(217.580794 273.078438) scale(0.1 -0.1)">
       <defs>
        <path id="DejaVuSans-35" d="M 691 4666 
L 3169 4666 
L 3169 4134 
L 1269 4134 
L 1269 2991 
Q 1406 3038 1543 3061 
Q 1681 3084 1819 3084 
Q 2600 3084 3056 2656 
Q 3513 2228 3513 1497 
Q 3513 744 3044 326 
Q 2575 -91 1722 -91 
Q 1428 -91 1123 -41 
Q 819 9 494 109 
L 494 744 
Q 775 591 1075 516 
Q 1375 441 1709 441 
Q 2250 441 2565 725 
Q 2881 1009 2881 1497 
Q 2881 1984 2565 2268 
Q 2250 2553 1709 2553 
Q 1456 2553 1204 2497 
Q 953 2441 691 2322 
L 691 4666 
z
" transform="scale(0.015625)"/>
       </defs>
       <use xlink:href="#DejaVuSans-35"/>
       <use xlink:href="#DejaVuSans-30" transform="translate(63.623047 0)"/>
      </g>
     </g>
    </g>
    <g id="xtick_3">
     <g id="line2d_5">
      <path d="M 345.512952 258.48 
L 345.512952 26.88 
" clip-path="url(#p4bc728e035)" style="fill: none; stroke: #b0b0b0; stroke-width: 0.8; stroke-linecap: square"/>
     </g>
     <g id="line2d_6">
      <g>
       <use xlink:href="#mba72239b14" x="345.512952" y="258.48" style="stroke: #000000; stroke-width: 0.8"/>
      </g>
     </g>
     <g id="text_3">
      <!-- 100 -->
      <g transform="translate(335.969202 273.078438) scale(0.1 -0.1)">
       <defs>
        <path id="DejaVuSans-31" d="M 794 531 
L 1825 531 
L 1825 4091 
L 703 3866 
L 703 4441 
L 1819 4666 
L 2450 4666 
L 2450 531 
L 3481 531 
L 3481 0 
L 794 0 
L 794 531 
z
" transform="scale(0.015625)"/>
       </defs>
       <use xlink:href="#DejaVuSans-31"/>
       <use xlink:href="#DejaVuSans-30" transform="translate(63.623047 0)"/>
       <use xlink:href="#DejaVuSans-30" transform="translate(127.246094 0)"/>
      </g>
     </g>
    </g>
    <g id="xtick_4">
     <g id="line2d_7">
      <path d="M 467.08261 258.48 
L 467.08261 26.88 
" clip-path="url(#p4bc728e035)" style="fill: none; stroke: #b0b0b0; stroke-width: 0.8; stroke-linecap: square"/>
     </g>
     <g id="line2d_8">
      <g>
       <use xlink:href="#mba72239b14" x="467.08261" y="258.48" style="stroke: #000000; stroke-width: 0.8"/>
      </g>
     </g>
     <g id="text_4">
      <!-- 150 -->
      <g transform="translate(457.53886 273.078438) scale(0.1 -0.1)">
       <use xlink:href="#DejaVuSans-31"/>
       <use xlink:href="#DejaVuSans-35" transform="translate(63.623047 0)"/>
       <use xlink:href="#DejaVuSans-30" transform="translate(127.246094 0)"/>
      </g>
     </g>
    </g>
    <g id="xtick_5">
     <g id="line2d_9">
      <path d="M 588.652268 258.48 
L 588.652268 26.88 
" clip-path="url(#p4bc728e035)" style="fill: none; stroke: #b0b0b0; stroke-width: 0.8; stroke-linecap: square"/>
     </g>
     <g id="line2d_10">
      <g>
       <use xlink:href="#mba72239b14" x="588.652268" y="258.48" style="stroke: #000000; stroke-width: 0.8"/>
      </g>
     </g>
     <g id="text_5">
      <!-- 200 -->
      <g transform="translate(579.108518 273.078438) scale(0.1 -0.1)">
       <defs>
        <path id="DejaVuSans-32" d="M 1228 531 
L 3431 531 
L 3431 0 
L 469 0 
L 469 531 
Q 828 903 1448 1529 
Q 2069 2156 2228 2338 
Q 2531 2678 2651 2914 
Q 2772 3150 2772 3378 
Q 2772 3750 2511 3984 
Q 2250 4219 1831 4219 
Q 1534 4219 1204 4116 
Q 875 4013 500 3803 
L 500 4441 
Q 881 4594 1212 4672 
Q 1544 4750 1819 4750 
Q 2544 4750 2975 4387 
Q 3406 4025 3406 3419 
Q 3406 3131 3298 2873 
Q 3191 2616 2906 2266 
Q 2828 2175 2409 1742 
Q 1991 1309 1228 531 
z
" transform="scale(0.015625)"/>
       </defs>
       <use xlink:href="#DejaVuSans-32"/>
       <use xlink:href="#DejaVuSans-30" transform="translate(63.623047 0)"/>
       <use xlink:href="#DejaVuSans-30" transform="translate(127.246094 0)"/>
      </g>
     </g>
    </g>
    <g id="xtick_6">
     <g id="line2d_11">
      <path d="M 710.221925 258.48 
L 710.221925 26.88 
" clip-path="url(#p4bc728e035)" style="fill: none; stroke: #b0b0b0; stroke-width: 0.8; stroke-linecap: square"/>
     </g>
     <g id="line2d_12">
      <g>
       <use xlink:href="#mba72239b14" x="710.221925" y="258.48" style="stroke: #000000; stroke-width: 0.8"/>
      </g>
     </g>
     <g id="text_6">
      <!-- 250 -->
      <g transform="translate(700.678175 273.078438) scale(0.1 -0.1)">
       <use xlink:href="#DejaVuSans-32"/>
       <use xlink:href="#DejaVuSans-35" transform="translate(63.623047 0)"/>
       <use xlink:href="#DejaVuSans-30" transform="translate(127.246094 0)"/>
      </g>
     </g>
    </g>
    <g id="xtick_7">
     <g id="line2d_13">
      <path d="M 831.791583 258.48 
L 831.791583 26.88 
" clip-path="url(#p4bc728e035)" style="fill: none; stroke: #b0b0b0; stroke-width: 0.8; stroke-linecap: square"/>
     </g>
     <g id="line2d_14">
      <g>
       <use xlink:href="#mba72239b14" x="831.791583" y="258.48" style="stroke: #000000; stroke-width: 0.8"/>
      </g>
     </g>
     <g id="text_7">
      <!-- 300 -->
      <g transform="translate(822.247833 273.078438) scale(0.1 -0.1)">
       <defs>
        <path id="DejaVuSans-33" d="M 2597 2516 
Q 3050 2419 3304 2112 
Q 3559 1806 3559 1356 
Q 3559 666 3084 287 
Q 2609 -91 1734 -91 
Q 1441 -91 1130 -33 
Q 819 25 488 141 
L 488 750 
Q 750 597 1062 519 
Q 1375 441 1716 441 
Q 2309 441 2620 675 
Q 2931 909 2931 1356 
Q 2931 1769 2642 2001 
Q 2353 2234 1838 2234 
L 1294 2234 
L 1294 2753 
L 1863 2753 
Q 2328 2753 2575 2939 
Q 2822 3125 2822 3475 
Q 2822 3834 2567 4026 
Q 2313 4219 1838 4219 
Q 1578 4219 1281 4162 
Q 984 4106 628 3988 
L 628 4550 
Q 988 4650 1302 4700 
Q 1616 4750 1894 4750 
Q 2613 4750 3031 4423 
Q 3450 4097 3450 3541 
Q 3450 3153 3228 2886 
Q 3006 2619 2597 2516 
z
" transform="scale(0.015625)"/>
       </defs>
       <use xlink:href="#DejaVuSans-33"/>
       <use xlink:href="#DejaVuSans-30" transform="translate(63.623047 0)"/>
       <use xlink:href="#DejaVuSans-30" transform="translate(127.246094 0)"/>
      </g>
     </g>
    </g>
   </g>
   <g id="matplotlib.axis_2">
    <g id="ytick_1">
     <g id="line2d_15">
      <path d="M 66.62 248.451038 
L 853.2 248.451038 
" clip-path="url(#p4bc728e035)" style="fill: none; stroke: #b0b0b0; stroke-width: 0.8; stroke-linecap: square"/>
     </g>
     <g id="line2d_16">
      <defs>
       <path id="mfade887d5b" d="M 0 0 
L -3.5 0 
" style="stroke: #000000; stroke-width: 0.8"/>
      </defs>
      <g>
       <use xlink:href="#mfade887d5b" x="66.62" y="248.451038" style="stroke: #000000; stroke-width: 0.8"/>
      </g>
     </g>
     <g id="text_8">
      <!-- 0.000 -->
      <g transform="translate(30.991875 252.250257) scale(0.1 -0.1)">
       <defs>
        <path id="DejaVuSans-2e" d="M 684 794 
L 1344 794 
L 1344 0 
L 684 0 
L 684 794 
z
" transform="scale(0.015625)"/>
       </defs>
       <use xlink:href="#DejaVuSans-30"/>
       <use xlink:href="#DejaVuSans-2e" transform="translate(63.623047 0)"/>
       <use xlink:href="#DejaVuSans-30" transform="translate(95.410156 0)"/>
       <use xlink:href="#DejaVuSans-30" transform="translate(159.033203 0)"/>
       <use xlink:href="#DejaVuSans-30" transform="translate(222.65625 0)"/>
      </g>
     </g>
    </g>
    <g id="ytick_2">
     <g id="line2d_17">
      <path d="M 66.62 204.920137 
L 853.2 204.920137 
" clip-path="url(#p4bc728e035)" style="fill: none; stroke: #b0b0b0; stroke-width: 0.8; stroke-linecap: square"/>
     </g>
     <g id="line2d_18">
      <g>
       <use xlink:href="#mfade887d5b" x="66.62" y="204.920137" style="stroke: #000000; stroke-width: 0.8"/>
      </g>
     </g>
     <g id="text_9">
      <!-- 0.001 -->
      <g transform="translate(30.991875 208.719356) scale(0.1 -0.1)">
       <use xlink:href="#DejaVuSans-30"/>
       <use xlink:href="#DejaVuSans-2e" transform="translate(63.623047 0)"/>
       <use xlink:href="#DejaVuSans-30" transform="translate(95.410156 0)"/>
       <use xlink:href="#DejaVuSans-30" transform="translate(159.033203 0)"/>
       <use xlink:href="#DejaVuSans-31" transform="translate(222.65625 0)"/>
      </g>
     </g>
    </g>
    <g id="ytick_3">
     <g id="line2d_19">
      <path d="M 66.62 161.389235 
L 853.2 161.389235 
" clip-path="url(#p4bc728e035)" style="fill: none; stroke: #b0b0b0; stroke-width: 0.8; stroke-linecap: square"/>
     </g>
     <g id="line2d_20">
      <g>
       <use xlink:href="#mfade887d5b" x="66.62" y="161.389235" style="stroke: #000000; stroke-width: 0.8"/>
      </g>
     </g>
     <g id="text_10">
      <!-- 0.002 -->
      <g transform="translate(30.991875 165.188454) scale(0.1 -0.1)">
       <use xlink:href="#DejaVuSans-30"/>
       <use xlink:href="#DejaVuSans-2e" transform="translate(63.623047 0)"/>
       <use xlink:href="#DejaVuSans-30" transform="translate(95.410156 0)"/>
       <use xlink:href="#DejaVuSans-30" transform="translate(159.033203 0)"/>
       <use xlink:href="#DejaVuSans-32" transform="translate(222.65625 0)"/>
      </g>
     </g>
    </g>
    <g id="ytick_4">
     <g id="line2d_21">
      <path d="M 66.62 117.858334 
L 853.2 117.858334 
" clip-path="url(#p4bc728e035)" style="fill: none; stroke: #b0b0b0; stroke-width: 0.8; stroke-linecap: square"/>
     </g>
     <g id="line2d_22">
      <g>
       <use xlink:href="#mfade887d5b" x="66.62" y="117.858334" style="stroke: #000000; stroke-width: 0.8"/>
      </g>
     </g>
     <g id="text_11">
      <!-- 0.003 -->
      <g transform="translate(30.991875 121.657553) scale(0.1 -0.1)">
       <use xlink:href="#DejaVuSans-30"/>
       <use xlink:href="#DejaVuSans-2e" transform="translate(63.623047 0)"/>
       <use xlink:href="#DejaVuSans-30" transform="translate(95.410156 0)"/>
       <use xlink:href="#DejaVuSans-30" transform="translate(159.033203 0)"/>
       <use xlink:href="#DejaVuSans-33" transform="translate(222.65625 0)"/>
      </g>
     </g>
    </g>
    <g id="ytick_5">
     <g id="line2d_23">
      <path d="M 66.62 74.327433 
L 853.2 74.327433 
" clip-path="url(#p4bc728e035)" style="fill: none; stroke: #b0b0b0; stroke-width: 0.8; stroke-linecap: square"/>
     </g>
     <g id="line2d_24">
      <g>
       <use xlink:href="#mfade887d5b" x="66.62" y="74.327433" style="stroke: #000000; stroke-width: 0.8"/>
      </g>
     </g>
     <g id="text_12">
      <!-- 0.004 -->
      <g transform="translate(30.991875 78.126651) scale(0.1 -0.1)">
       <defs>
        <path id="DejaVuSans-34" d="M 2419 4116 
L 825 1625 
L 2419 1625 
L 2419 4116 
z
M 2253 4666 
L 3047 4666 
L 3047 1625 
L 3713 1625 
L 3713 1100 
L 3047 1100 
L 3047 0 
L 2419 0 
L 2419 1100 
L 313 1100 
L 313 1709 
L 2253 4666 
z
" transform="scale(0.015625)"/>
       </defs>
       <use xlink:href="#DejaVuSans-30"/>
       <use xlink:href="#DejaVuSans-2e" transform="translate(63.623047 0)"/>
       <use xlink:href="#DejaVuSans-30" transform="translate(95.410156 0)"/>
       <use xlink:href="#DejaVuSans-30" transform="translate(159.033203 0)"/>
       <use xlink:href="#DejaVuSans-34" transform="translate(222.65625 0)"/>
      </g>
     </g>
    </g>
    <g id="ytick_6">
     <g id="line2d_25">
      <path d="M 66.62 30.796531 
L 853.2 30.796531 
" clip-path="url(#p4bc728e035)" style="fill: none; stroke: #b0b0b0; stroke-width: 0.8; stroke-linecap: square"/>
     </g>
     <g id="line2d_26">
      <g>
       <use xlink:href="#mfade887d5b" x="66.62" y="30.796531" style="stroke: #000000; stroke-width: 0.8"/>
      </g>
     </g>
     <g id="text_13">
      <!-- 0.005 -->
      <g transform="translate(30.991875 34.59575) scale(0.1 -0.1)">
       <use xlink:href="#DejaVuSans-30"/>
       <use xlink:href="#DejaVuSans-2e" transform="translate(63.623047 0)"/>
       <use xlink:href="#DejaVuSans-30" transform="translate(95.410156 0)"/>
       <use xlink:href="#DejaVuSans-30" transform="translate(159.033203 0)"/>
       <use xlink:href="#DejaVuSans-35" transform="translate(222.65625 0)"/>
      </g>
     </g>
    </g>
    <g id="text_14">
     <!-- Std Dev -->
     <g transform="translate(24.912188 162.463594) rotate(-90) scale(0.1 -0.1)">
      <defs>
       <path id="DejaVuSans-53" d="M 3425 4513 
L 3425 3897 
Q 3066 4069 2747 4153 
Q 2428 4238 2131 4238 
Q 1616 4238 1336 4038 
Q 1056 3838 1056 3469 
Q 1056 3159 1242 3001 
Q 1428 2844 1947 2747 
L 2328 2669 
Q 3034 2534 3370 2195 
Q 3706 1856 3706 1288 
Q 3706 609 3251 259 
Q 2797 -91 1919 -91 
Q 1588 -91 1214 -16 
Q 841 59 441 206 
L 441 856 
Q 825 641 1194 531 
Q 1563 422 1919 422 
Q 2459 422 2753 634 
Q 3047 847 3047 1241 
Q 3047 1584 2836 1778 
Q 2625 1972 2144 2069 
L 1759 2144 
Q 1053 2284 737 2584 
Q 422 2884 422 3419 
Q 422 4038 858 4394 
Q 1294 4750 2059 4750 
Q 2388 4750 2728 4690 
Q 3069 4631 3425 4513 
z
" transform="scale(0.015625)"/>
       <path id="DejaVuSans-74" d="M 1172 4494 
L 1172 3500 
L 2356 3500 
L 2356 3053 
L 1172 3053 
L 1172 1153 
Q 1172 725 1289 603 
Q 1406 481 1766 481 
L 2356 481 
L 2356 0 
L 1766 0 
Q 1100 0 847 248 
Q 594 497 594 1153 
L 594 3053 
L 172 3053 
L 172 3500 
L 594 3500 
L 594 4494 
L 1172 4494 
z
" transform="scale(0.015625)"/>
       <path id="DejaVuSans-64" d="M 2906 2969 
L 2906 4863 
L 3481 4863 
L 3481 0 
L 2906 0 
L 2906 525 
Q 2725 213 2448 61 
Q 2172 -91 1784 -91 
Q 1150 -91 751 415 
Q 353 922 353 1747 
Q 353 2572 751 3078 
Q 1150 3584 1784 3584 
Q 2172 3584 2448 3432 
Q 2725 3281 2906 2969 
z
M 947 1747 
Q 947 1113 1208 752 
Q 1469 391 1925 391 
Q 2381 391 2643 752 
Q 2906 1113 2906 1747 
Q 2906 2381 2643 2742 
Q 2381 3103 1925 3103 
Q 1469 3103 1208 2742 
Q 947 2381 947 1747 
z
" transform="scale(0.015625)"/>
       <path id="DejaVuSans-20" transform="scale(0.015625)"/>
       <path id="DejaVuSans-44" d="M 1259 4147 
L 1259 519 
L 2022 519 
Q 2988 519 3436 956 
Q 3884 1394 3884 2338 
Q 3884 3275 3436 3711 
Q 2988 4147 2022 4147 
L 1259 4147 
z
M 628 4666 
L 1925 4666 
Q 3281 4666 3915 4102 
Q 4550 3538 4550 2338 
Q 4550 1131 3912 565 
Q 3275 0 1925 0 
L 628 0 
L 628 4666 
z
" transform="scale(0.015625)"/>
       <path id="DejaVuSans-65" d="M 3597 1894 
L 3597 1613 
L 953 1613 
Q 991 1019 1311 708 
Q 1631 397 2203 397 
Q 2534 397 2845 478 
Q 3156 559 3463 722 
L 3463 178 
Q 3153 47 2828 -22 
Q 2503 -91 2169 -91 
Q 1331 -91 842 396 
Q 353 884 353 1716 
Q 353 2575 817 3079 
Q 1281 3584 2069 3584 
Q 2775 3584 3186 3129 
Q 3597 2675 3597 1894 
z
M 3022 2063 
Q 3016 2534 2758 2815 
Q 2500 3097 2075 3097 
Q 1594 3097 1305 2825 
Q 1016 2553 972 2059 
L 3022 2063 
z
" transform="scale(0.015625)"/>
       <path id="DejaVuSans-76" d="M 191 3500 
L 800 3500 
L 1894 563 
L 2988 3500 
L 3597 3500 
L 2284 0 
L 1503 0 
L 191 3500 
z
" transform="scale(0.015625)"/>
      </defs>
      <use xlink:href="#DejaVuSans-53"/>
      <use xlink:href="#DejaVuSans-74" transform="translate(63.476562 0)"/>
      <use xlink:href="#DejaVuSans-64" transform="translate(102.685547 0)"/>
      <use xlink:href="#DejaVuSans-20" transform="translate(166.162109 0)"/>
      <use xlink:href="#DejaVuSans-44" transform="translate(197.949219 0)"/>
      <use xlink:href="#DejaVuSans-65" transform="translate(274.951172 0)"/>
      <use xlink:href="#DejaVuSans-76" transform="translate(336.474609 0)"/>
     </g>
    </g>
   </g>
   <g id="line2d_27">
    <path d="M 102.373636 227.346662 
L 193.259113 227.445631 
L 193.648135 227.466071 
L 205.172939 227.511043 
L 205.318823 237.701815 
L 205.707846 240.587893 
L 205.999613 241.211004 
L 206.437263 241.58336 
L 207.118054 241.818951 
L 208.431006 241.991913 
L 211.445933 242.116809 
L 218.934624 242.170328 
L 288.569724 242.255087 
L 288.715608 246.776034 
L 289.542282 247.188008 
L 290.612095 247.371329 
L 292.946232 247.49877 
L 299.073343 247.555565 
L 301.942387 247.666343 
L 309.042055 247.713355 
L 324.554343 247.836084 
L 328.882223 247.924599 
L 340.698794 247.952649 
L 340.844677 227.346662 
L 431.632898 227.445364 
L 432.02192 227.465926 
L 443.546724 227.51108 
L 443.692608 237.70361 
L 444.081631 240.581819 
L 444.373398 241.2025 
L 444.811048 241.573312 
L 445.491839 241.807986 
L 446.804791 241.98052 
L 449.868346 242.10686 
L 457.357037 242.159844 
L 526.943509 242.250225 
L 527.089393 246.778253 
L 527.916067 247.189349 
L 528.98588 247.372288 
L 531.320017 247.499775 
L 537.447128 247.557205 
L 540.267544 247.66792 
L 547.269956 247.715385 
L 562.976756 247.839382 
L 567.256008 247.924756 
L 579.072579 247.952727 
L 579.218462 37.407273 
L 582.427901 37.516754 
L 586.658525 37.718534 
L 594.925262 37.770203 
L 605.963787 37.895629 
L 620.552146 38.378457 
L 623.129423 38.488943 
L 624.685514 38.802011 
L 625.658071 39.229871 
L 626.582001 39.883487 
L 627.50593 40.820288 
L 628.478488 42.133782 
L 629.548301 43.959279 
L 630.861253 46.676937 
L 631.687926 48.365835 
L 634.265203 48.365835 
L 634.411087 48.935896 
L 634.945993 50.240532 
L 635.383644 50.530911 
L 636.16169 50.703241 
L 638.301316 51.095124 
L 639.419757 51.557976 
L 640.538198 52.266819 
L 641.753894 53.318918 
L 643.164102 54.858871 
L 643.650381 55.271825 
L 646.17903 55.271825 
L 646.324913 66.197955 
L 647.589238 73.888745 
L 648.270028 76.128133 
L 649.048074 77.96224 
L 649.972003 79.585054 
L 651.090444 81.093345 
L 652.452024 82.543912 
L 654.105371 83.975007 
L 655.515579 84.948296 
L 658.092856 84.948296 
L 658.23874 86.890537 
L 659.60032 86.928093 
L 663.052898 87.06107 
L 665.484291 87.392828 
L 668.25608 87.792108 
L 670.006683 87.792108 
L 670.152566 92.680569 
L 671.66003 96.7978 
L 672.535332 98.203973 
L 673.605145 99.484616 
L 674.918097 100.704594 
L 676.620072 101.97665 
L 678.856954 103.358725 
L 679.39186 103.549543 
L 681.920509 103.549543 
L 682.115021 227.341149 
L 682.309532 237.021548 
L 682.552671 239.450166 
L 682.844439 240.390793 
L 683.233461 240.907677 
L 683.768368 241.228707 
L 684.643669 241.462025 
L 686.297017 241.630005 
L 689.944107 241.728436 
L 705.067372 241.775547 
L 754.132886 241.886658 
L 765.317294 241.890449 
L 765.463178 246.776578 
L 766.289852 247.186257 
L 767.359665 247.369279 
L 769.693802 247.497128 
L 775.820913 247.556302 
L 777.814655 247.66595 
L 782.580186 247.750051 
L 817.446364 247.952409 
L 817.446364 247.952409 
" clip-path="url(#p4bc728e035)" style="fill: none; stroke: #0000ff; stroke-width: 1.5; stroke-linecap: square"/>
   </g>
   <g id="line2d_28">
    <path d="M 102.373636 227.346662 
L 193.259113 227.445255 
L 193.648135 227.465443 
L 205.172939 227.510019 
L 205.318823 237.701068 
L 205.707846 240.586679 
L 205.999613 241.209717 
L 206.437263 241.582426 
L 207.118054 241.818117 
L 208.431006 241.991056 
L 211.494561 242.116949 
L 219.03188 242.169692 
L 288.569724 242.254405 
L 288.715608 246.776085 
L 289.542282 247.188026 
L 290.612095 247.371333 
L 292.946232 247.498759 
L 299.073343 247.555557 
L 301.942387 247.666305 
L 309.042055 247.713323 
L 324.554343 247.836051 
L 328.882223 247.924601 
L 340.698794 247.952651 
L 340.844677 227.346662 
L 431.632898 227.444973 
L 432.02192 227.465288 
L 443.546724 227.510033 
L 443.692608 237.703168 
L 444.081631 240.580987 
L 444.373398 241.201601 
L 444.811048 241.572777 
L 445.491839 241.807546 
L 446.804791 241.980036 
L 449.868346 242.106259 
L 457.357037 242.159502 
L 526.943509 242.249747 
L 527.089393 246.778341 
L 527.916067 247.189382 
L 528.98588 247.3723 
L 531.320017 247.499779 
L 537.447128 247.557228 
L 540.267544 247.667977 
L 547.269956 247.715473 
L 562.976756 247.839359 
L 567.256008 247.924756 
L 579.072579 247.952727 
L 579.218462 37.407273 
L 582.379273 37.517889 
L 586.512642 37.722956 
L 593.61231 37.765496 
L 605.915159 37.892481 
L 619.190566 38.322944 
L 623.615701 38.51033 
L 624.831398 38.809799 
L 625.803955 39.268913 
L 626.727884 39.958458 
L 627.700442 40.976541 
L 628.672999 42.316269 
L 629.79144 44.27361 
L 631.055764 46.96969 
L 631.687926 48.225233 
L 634.265203 48.225233 
L 634.411087 48.794219 
L 634.945993 50.07967 
L 635.383644 50.36645 
L 636.16169 50.536023 
L 638.301316 50.927932 
L 639.419757 51.397005 
L 640.538198 52.118528 
L 641.753894 53.178678 
L 643.21273 54.78666 
L 643.650381 55.143042 
L 646.17903 55.143042 
L 646.324913 66.098864 
L 647.589238 73.797398 
L 648.270028 76.041072 
L 649.048074 77.87717 
L 649.972003 79.50813 
L 651.090444 81.015272 
L 652.403396 82.418713 
L 654.008116 83.828555 
L 655.515579 84.8823 
L 658.092856 84.8823 
L 658.23874 86.815782 
L 659.60032 86.85527 
L 663.101526 86.988382 
L 665.532919 87.313313 
L 668.25608 87.687734 
L 670.006683 87.687734 
L 670.152566 92.553187 
L 671.708658 96.79039 
L 672.583959 98.181449 
L 673.653772 99.450452 
L 675.015353 100.705579 
L 676.765956 101.998945 
L 679.002837 103.361073 
L 679.39186 103.468889 
L 681.920509 103.468889 
L 682.115021 227.343579 
L 682.309532 237.022234 
L 682.552671 239.450529 
L 682.844439 240.391143 
L 683.233461 240.907816 
L 683.768368 241.228886 
L 684.643669 241.462223 
L 686.297017 241.630279 
L 689.944107 241.728755 
L 705.116 241.775606 
L 754.132886 241.886618 
L 765.317294 241.890468 
L 765.463178 246.776576 
L 766.289852 247.186251 
L 767.359665 247.369272 
L 769.693802 247.49712 
L 775.869541 247.556296 
L 777.814655 247.665949 
L 782.580186 247.750052 
L 817.446364 247.95241 
L 817.446364 247.95241 
" clip-path="url(#p4bc728e035)" style="fill: none; stroke-dasharray: 5.55,2.4; stroke-dashoffset: 0; stroke: #ff0000; stroke-width: 1.5"/>
   </g>
   <g id="line2d_29">
    <path d="M 340.747421 258.48 
L 340.747421 26.88 
" clip-path="url(#p4bc728e035)" style="fill: none; stroke-dasharray: 1.5,2.475; stroke-dashoffset: 0; stroke: #808080; stroke-opacity: 0.6; stroke-width: 1.5"/>
   </g>
   <g id="line2d_30">
    <path d="M 579.121206 258.48 
L 579.121206 26.88 
" clip-path="url(#p4bc728e035)" style="fill: none; stroke-dasharray: 1.5,2.475; stroke-dashoffset: 0; stroke: #808080; stroke-opacity: 0.6; stroke-width: 1.5"/>
   </g>
   <g id="patch_3">
    <path d="M 66.62 258.48 
L 66.62 26.88 
" style="fill: none; stroke: #000000; stroke-width: 0.8; stroke-linejoin: miter; stroke-linecap: square"/>
   </g>
   <g id="patch_4">
    <path d="M 853.2 258.48 
L 853.2 26.88 
" style="fill: none; stroke: #000000; stroke-width: 0.8; stroke-linejoin: miter; stroke-linecap: square"/>
   </g>
   <g id="patch_5">
    <path d="M 66.62 258.48 
L 853.2 258.48 
" style="fill: none; stroke: #000000; stroke-width: 0.8; stroke-linejoin: miter; stroke-linecap: square"/>
   </g>
   <g id="patch_6">
    <path d="M 66.62 26.88 
L 853.2 26.88 
" style="fill: none; stroke: #000000; stroke-width: 0.8; stroke-linejoin: miter; stroke-linecap: square"/>
   </g>
   <g id="text_15">
    <!-- [19] Kg_yz  —  Uncertainty (std dev) -->
    <g transform="translate(350.726875 20.88) scale(0.12 -0.12)">
     <defs>
      <path id="DejaVuSans-5b" d="M 550 4863 
L 1875 4863 
L 1875 4416 
L 1125 4416 
L 1125 -397 
L 1875 -397 
L 1875 -844 
L 550 -844 
L 550 4863 
z
" transform="scale(0.015625)"/>
      <path id="DejaVuSans-39" d="M 703 97 
L 703 672 
Q 941 559 1184 500 
Q 1428 441 1663 441 
Q 2288 441 2617 861 
Q 2947 1281 2994 2138 
Q 2813 1869 2534 1725 
Q 2256 1581 1919 1581 
Q 1219 1581 811 2004 
Q 403 2428 403 3163 
Q 403 3881 828 4315 
Q 1253 4750 1959 4750 
Q 2769 4750 3195 4129 
Q 3622 3509 3622 2328 
Q 3622 1225 3098 567 
Q 2575 -91 1691 -91 
Q 1453 -91 1209 -44 
Q 966 3 703 97 
z
M 1959 2075 
Q 2384 2075 2632 2365 
Q 2881 2656 2881 3163 
Q 2881 3666 2632 3958 
Q 2384 4250 1959 4250 
Q 1534 4250 1286 3958 
Q 1038 3666 1038 3163 
Q 1038 2656 1286 2365 
Q 1534 2075 1959 2075 
z
" transform="scale(0.015625)"/>
      <path id="DejaVuSans-5d" d="M 1947 4863 
L 1947 -844 
L 622 -844 
L 622 -397 
L 1369 -397 
L 1369 4416 
L 622 4416 
L 622 4863 
L 1947 4863 
z
" transform="scale(0.015625)"/>
      <path id="DejaVuSans-4b" d="M 628 4666 
L 1259 4666 
L 1259 2694 
L 3353 4666 
L 4166 4666 
L 1850 2491 
L 4331 0 
L 3500 0 
L 1259 2247 
L 1259 0 
L 628 0 
L 628 4666 
z
" transform="scale(0.015625)"/>
      <path id="DejaVuSans-67" d="M 2906 1791 
Q 2906 2416 2648 2759 
Q 2391 3103 1925 3103 
Q 1463 3103 1205 2759 
Q 947 2416 947 1791 
Q 947 1169 1205 825 
Q 1463 481 1925 481 
Q 2391 481 2648 825 
Q 2906 1169 2906 1791 
z
M 3481 434 
Q 3481 -459 3084 -895 
Q 2688 -1331 1869 -1331 
Q 1566 -1331 1297 -1286 
Q 1028 -1241 775 -1147 
L 775 -588 
Q 1028 -725 1275 -790 
Q 1522 -856 1778 -856 
Q 2344 -856 2625 -561 
Q 2906 -266 2906 331 
L 2906 616 
Q 2728 306 2450 153 
Q 2172 0 1784 0 
Q 1141 0 747 490 
Q 353 981 353 1791 
Q 353 2603 747 3093 
Q 1141 3584 1784 3584 
Q 2172 3584 2450 3431 
Q 2728 3278 2906 2969 
L 2906 3500 
L 3481 3500 
L 3481 434 
z
" transform="scale(0.015625)"/>
      <path id="DejaVuSans-5f" d="M 3263 -1063 
L 3263 -1509 
L -63 -1509 
L -63 -1063 
L 3263 -1063 
z
" transform="scale(0.015625)"/>
      <path id="DejaVuSans-79" d="M 2059 -325 
Q 1816 -950 1584 -1140 
Q 1353 -1331 966 -1331 
L 506 -1331 
L 506 -850 
L 844 -850 
Q 1081 -850 1212 -737 
Q 1344 -625 1503 -206 
L 1606 56 
L 191 3500 
L 800 3500 
L 1894 763 
L 2988 3500 
L 3597 3500 
L 2059 -325 
z
" transform="scale(0.015625)"/>
      <path id="DejaVuSans-7a" d="M 353 3500 
L 3084 3500 
L 3084 2975 
L 922 459 
L 3084 459 
L 3084 0 
L 275 0 
L 275 525 
L 2438 3041 
L 353 3041 
L 353 3500 
z
" transform="scale(0.015625)"/>
      <path id="DejaVuSans-2014" d="M 313 1978 
L 6088 1978 
L 6088 1528 
L 313 1528 
L 313 1978 
z
" transform="scale(0.015625)"/>
      <path id="DejaVuSans-55" d="M 556 4666 
L 1191 4666 
L 1191 1831 
Q 1191 1081 1462 751 
Q 1734 422 2344 422 
Q 2950 422 3222 751 
Q 3494 1081 3494 1831 
L 3494 4666 
L 4128 4666 
L 4128 1753 
Q 4128 841 3676 375 
Q 3225 -91 2344 -91 
Q 1459 -91 1007 375 
Q 556 841 556 1753 
L 556 4666 
z
" transform="scale(0.015625)"/>
      <path id="DejaVuSans-6e" d="M 3513 2113 
L 3513 0 
L 2938 0 
L 2938 2094 
Q 2938 2591 2744 2837 
Q 2550 3084 2163 3084 
Q 1697 3084 1428 2787 
Q 1159 2491 1159 1978 
L 1159 0 
L 581 0 
L 581 3500 
L 1159 3500 
L 1159 2956 
Q 1366 3272 1645 3428 
Q 1925 3584 2291 3584 
Q 2894 3584 3203 3211 
Q 3513 2838 3513 2113 
z
" transform="scale(0.015625)"/>
      <path id="DejaVuSans-63" d="M 3122 3366 
L 3122 2828 
Q 2878 2963 2633 3030 
Q 2388 3097 2138 3097 
Q 1578 3097 1268 2742 
Q 959 2388 959 1747 
Q 959 1106 1268 751 
Q 1578 397 2138 397 
Q 2388 397 2633 464 
Q 2878 531 3122 666 
L 3122 134 
Q 2881 22 2623 -34 
Q 2366 -91 2075 -91 
Q 1284 -91 818 406 
Q 353 903 353 1747 
Q 353 2603 823 3093 
Q 1294 3584 2113 3584 
Q 2378 3584 2631 3529 
Q 2884 3475 3122 3366 
z
" transform="scale(0.015625)"/>
      <path id="DejaVuSans-72" d="M 2631 2963 
Q 2534 3019 2420 3045 
Q 2306 3072 2169 3072 
Q 1681 3072 1420 2755 
Q 1159 2438 1159 1844 
L 1159 0 
L 581 0 
L 581 3500 
L 1159 3500 
L 1159 2956 
Q 1341 3275 1631 3429 
Q 1922 3584 2338 3584 
Q 2397 3584 2469 3576 
Q 2541 3569 2628 3553 
L 2631 2963 
z
" transform="scale(0.015625)"/>
      <path id="DejaVuSans-61" d="M 2194 1759 
Q 1497 1759 1228 1600 
Q 959 1441 959 1056 
Q 959 750 1161 570 
Q 1363 391 1709 391 
Q 2188 391 2477 730 
Q 2766 1069 2766 1631 
L 2766 1759 
L 2194 1759 
z
M 3341 1997 
L 3341 0 
L 2766 0 
L 2766 531 
Q 2569 213 2275 61 
Q 1981 -91 1556 -91 
Q 1019 -91 701 211 
Q 384 513 384 1019 
Q 384 1609 779 1909 
Q 1175 2209 1959 2209 
L 2766 2209 
L 2766 2266 
Q 2766 2663 2505 2880 
Q 2244 3097 1772 3097 
Q 1472 3097 1187 3025 
Q 903 2953 641 2809 
L 641 3341 
Q 956 3463 1253 3523 
Q 1550 3584 1831 3584 
Q 2591 3584 2966 3190 
Q 3341 2797 3341 1997 
z
" transform="scale(0.015625)"/>
      <path id="DejaVuSans-69" d="M 603 3500 
L 1178 3500 
L 1178 0 
L 603 0 
L 603 3500 
z
M 603 4863 
L 1178 4863 
L 1178 4134 
L 603 4134 
L 603 4863 
z
" transform="scale(0.015625)"/>
      <path id="DejaVuSans-28" d="M 1984 4856 
Q 1566 4138 1362 3434 
Q 1159 2731 1159 2009 
Q 1159 1288 1364 580 
Q 1569 -128 1984 -844 
L 1484 -844 
Q 1016 -109 783 600 
Q 550 1309 550 2009 
Q 550 2706 781 3412 
Q 1013 4119 1484 4856 
L 1984 4856 
z
" transform="scale(0.015625)"/>
      <path id="DejaVuSans-73" d="M 2834 3397 
L 2834 2853 
Q 2591 2978 2328 3040 
Q 2066 3103 1784 3103 
Q 1356 3103 1142 2972 
Q 928 2841 928 2578 
Q 928 2378 1081 2264 
Q 1234 2150 1697 2047 
L 1894 2003 
Q 2506 1872 2764 1633 
Q 3022 1394 3022 966 
Q 3022 478 2636 193 
Q 2250 -91 1575 -91 
Q 1294 -91 989 -36 
Q 684 19 347 128 
L 347 722 
Q 666 556 975 473 
Q 1284 391 1588 391 
Q 1994 391 2212 530 
Q 2431 669 2431 922 
Q 2431 1156 2273 1281 
Q 2116 1406 1581 1522 
L 1381 1569 
Q 847 1681 609 1914 
Q 372 2147 372 2553 
Q 372 3047 722 3315 
Q 1072 3584 1716 3584 
Q 2034 3584 2315 3537 
Q 2597 3491 2834 3397 
z
" transform="scale(0.015625)"/>
      <path id="DejaVuSans-29" d="M 513 4856 
L 1013 4856 
Q 1481 4119 1714 3412 
Q 1947 2706 1947 2009 
Q 1947 1309 1714 600 
Q 1481 -109 1013 -844 
L 513 -844 
Q 928 -128 1133 580 
Q 1338 1288 1338 2009 
Q 1338 2731 1133 3434 
Q 928 4138 513 4856 
z
" transform="scale(0.015625)"/>
     </defs>
     <use xlink:href="#DejaVuSans-5b"/>
     <use xlink:href="#DejaVuSans-31" transform="translate(39.013672 0)"/>
     <use xlink:href="#DejaVuSans-39" transform="translate(102.636719 0)"/>
     <use xlink:href="#DejaVuSans-5d" transform="translate(166.259766 0)"/>
     <use xlink:href="#DejaVuSans-20" transform="translate(205.273438 0)"/>
     <use xlink:href="#DejaVuSans-4b" transform="translate(237.060547 0)"/>
     <use xlink:href="#DejaVuSans-67" transform="translate(302.636719 0)"/>
     <use xlink:href="#DejaVuSans-5f" transform="translate(366.113281 0)"/>
     <use xlink:href="#DejaVuSans-79" transform="translate(416.113281 0)"/>
     <use xlink:href="#DejaVuSans-7a" transform="translate(475.292969 0)"/>
     <use xlink:href="#DejaVuSans-20" transform="translate(527.783203 0)"/>
     <use xlink:href="#DejaVuSans-20" transform="translate(559.570312 0)"/>
     <use xlink:href="#DejaVuSans-2014" transform="translate(591.357422 0)"/>
     <use xlink:href="#DejaVuSans-20" transform="translate(691.357422 0)"/>
     <use xlink:href="#DejaVuSans-20" transform="translate(723.144531 0)"/>
     <use xlink:href="#DejaVuSans-55" transform="translate(754.931641 0)"/>
     <use xlink:href="#DejaVuSans-6e" transform="translate(828.125 0)"/>
     <use xlink:href="#DejaVuSans-63" transform="translate(891.503906 0)"/>
     <use xlink:href="#DejaVuSans-65" transform="translate(946.484375 0)"/>
     <use xlink:href="#DejaVuSans-72" transform="translate(1008.007812 0)"/>
     <use xlink:href="#DejaVuSans-74" transform="translate(1049.121094 0)"/>
     <use xlink:href="#DejaVuSans-61" transform="translate(1088.330078 0)"/>
     <use xlink:href="#DejaVuSans-69" transform="translate(1149.609375 0)"/>
     <use xlink:href="#DejaVuSans-6e" transform="translate(1177.392578 0)"/>
     <use xlink:href="#DejaVuSans-74" transform="translate(1240.771484 0)"/>
     <use xlink:href="#DejaVuSans-79" transform="translate(1279.980469 0)"/>
     <use xlink:href="#DejaVuSans-20" transform="translate(1339.160156 0)"/>
     <use xlink:href="#DejaVuSans-28" transform="translate(1370.947266 0)"/>
     <use xlink:href="#DejaVuSans-73" transform="translate(1409.960938 0)"/>
     <use xlink:href="#DejaVuSans-74" transform="translate(1462.060547 0)"/>
     <use xlink:href="#DejaVuSans-64" transform="translate(1501.269531 0)"/>
     <use xlink:href="#DejaVuSans-20" transform="translate(1564.746094 0)"/>
     <use xlink:href="#DejaVuSans-64" transform="translate(1596.533203 0)"/>
     <use xlink:href="#DejaVuSans-65" transform="translate(1660.009766 0)"/>
     <use xlink:href="#DejaVuSans-76" transform="translate(1721.533203 0)"/>
     <use xlink:href="#DejaVuSans-29" transform="translate(1780.712891 0)"/>
    </g>
   </g>
   <g id="legend_1">
    <g id="patch_7">
     <path d="M 734.342188 64.23625 
L 846.2 64.23625 
Q 848.2 64.23625 848.2 62.23625 
L 848.2 33.88 
Q 848.2 31.88 846.2 31.88 
L 734.342188 31.88 
Q 732.342188 31.88 732.342188 33.88 
L 732.342188 62.23625 
Q 732.342188 64.23625 734.342188 64.23625 
z
" style="fill: #ffffff; opacity: 0.8; stroke: #cccccc; stroke-linejoin: miter"/>
    </g>
    <g id="line2d_31">
     <path d="M 736.342188 39.978437 
L 746.342188 39.978437 
L 756.342188 39.978437 
" style="fill: none; stroke: #0000ff; stroke-width: 1.5; stroke-linecap: square"/>
    </g>
    <g id="text_16">
     <!-- Ideal (No Noise) -->
     <g transform="translate(764.342188 43.478437) scale(0.1 -0.1)">
      <defs>
       <path id="DejaVuSans-49" d="M 628 4666 
L 1259 4666 
L 1259 0 
L 628 0 
L 628 4666 
z
" transform="scale(0.015625)"/>
       <path id="DejaVuSans-6c" d="M 603 4863 
L 1178 4863 
L 1178 0 
L 603 0 
L 603 4863 
z
" transform="scale(0.015625)"/>
       <path id="DejaVuSans-4e" d="M 628 4666 
L 1478 4666 
L 3547 763 
L 3547 4666 
L 4159 4666 
L 4159 0 
L 3309 0 
L 1241 3903 
L 1241 0 
L 628 0 
L 628 4666 
z
" transform="scale(0.015625)"/>
       <path id="DejaVuSans-6f" d="M 1959 3097 
Q 1497 3097 1228 2736 
Q 959 2375 959 1747 
Q 959 1119 1226 758 
Q 1494 397 1959 397 
Q 2419 397 2687 759 
Q 2956 1122 2956 1747 
Q 2956 2369 2687 2733 
Q 2419 3097 1959 3097 
z
M 1959 3584 
Q 2709 3584 3137 3096 
Q 3566 2609 3566 1747 
Q 3566 888 3137 398 
Q 2709 -91 1959 -91 
Q 1206 -91 779 398 
Q 353 888 353 1747 
Q 353 2609 779 3096 
Q 1206 3584 1959 3584 
z
" transform="scale(0.015625)"/>
      </defs>
      <use xlink:href="#DejaVuSans-49"/>
      <use xlink:href="#DejaVuSans-64" transform="translate(29.492188 0)"/>
      <use xlink:href="#DejaVuSans-65" transform="translate(92.96875 0)"/>
      <use xlink:href="#DejaVuSans-61" transform="translate(154.492188 0)"/>
      <use xlink:href="#DejaVuSans-6c" transform="translate(215.771484 0)"/>
      <use xlink:href="#DejaVuSans-20" transform="translate(243.554688 0)"/>
      <use xlink:href="#DejaVuSans-28" transform="translate(275.341797 0)"/>
      <use xlink:href="#DejaVuSans-4e" transform="translate(314.355469 0)"/>
      <use xlink:href="#DejaVuSans-6f" transform="translate(389.160156 0)"/>
      <use xlink:href="#DejaVuSans-20" transform="translate(450.341797 0)"/>
      <use xlink:href="#DejaVuSans-4e" transform="translate(482.128906 0)"/>
      <use xlink:href="#DejaVuSans-6f" transform="translate(556.933594 0)"/>
      <use xlink:href="#DejaVuSans-69" transform="translate(618.115234 0)"/>
      <use xlink:href="#DejaVuSans-73" transform="translate(645.898438 0)"/>
      <use xlink:href="#DejaVuSans-65" transform="translate(697.998047 0)"/>
      <use xlink:href="#DejaVuSans-29" transform="translate(759.521484 0)"/>
     </g>
    </g>
    <g id="line2d_32">
     <path d="M 736.342188 54.656562 
L 746.342188 54.656562 
L 756.342188 54.656562 
" style="fill: none; stroke-dasharray: 5.55,2.4; stroke-dashoffset: 0; stroke: #ff0000; stroke-width: 1.5"/>
    </g>
    <g id="text_17">
     <!-- With Full Noise -->
     <g transform="translate(764.342188 58.156562) scale(0.1 -0.1)">
      <defs>
       <path id="DejaVuSans-57" d="M 213 4666 
L 850 4666 
L 1831 722 
L 2809 4666 
L 3519 4666 
L 4500 722 
L 5478 4666 
L 6119 4666 
L 4947 0 
L 4153 0 
L 3169 4050 
L 2175 0 
L 1381 0 
L 213 4666 
z
" transform="scale(0.015625)"/>
       <path id="DejaVuSans-68" d="M 3513 2113 
L 3513 0 
L 2938 0 
L 2938 2094 
Q 2938 2591 2744 2837 
Q 2550 3084 2163 3084 
Q 1697 3084 1428 2787 
Q 1159 2491 1159 1978 
L 1159 0 
L 581 0 
L 581 4863 
L 1159 4863 
L 1159 2956 
Q 1366 3272 1645 3428 
Q 1925 3584 2291 3584 
Q 2894 3584 3203 3211 
Q 3513 2838 3513 2113 
z
" transform="scale(0.015625)"/>
       <path id="DejaVuSans-46" d="M 628 4666 
L 3309 4666 
L 3309 4134 
L 1259 4134 
L 1259 2759 
L 3109 2759 
L 3109 2228 
L 1259 2228 
L 1259 0 
L 628 0 
L 628 4666 
z
" transform="scale(0.015625)"/>
       <path id="DejaVuSans-75" d="M 544 1381 
L 544 3500 
L 1119 3500 
L 1119 1403 
Q 1119 906 1312 657 
Q 1506 409 1894 409 
Q 2359 409 2629 706 
Q 2900 1003 2900 1516 
L 2900 3500 
L 3475 3500 
L 3475 0 
L 2900 0 
L 2900 538 
Q 2691 219 2414 64 
Q 2138 -91 1772 -91 
Q 1169 -91 856 284 
Q 544 659 544 1381 
z
M 1991 3584 
L 1991 3584 
z
" transform="scale(0.015625)"/>
      </defs>
      <use xlink:href="#DejaVuSans-57"/>
      <use xlink:href="#DejaVuSans-69" transform="translate(96.626953 0)"/>
      <use xlink:href="#DejaVuSans-74" transform="translate(124.410156 0)"/>
      <use xlink:href="#DejaVuSans-68" transform="translate(163.619141 0)"/>
      <use xlink:href="#DejaVuSans-20" transform="translate(226.998047 0)"/>
      <use xlink:href="#DejaVuSans-46" transform="translate(258.785156 0)"/>
      <use xlink:href="#DejaVuSans-75" transform="translate(310.804688 0)"/>
      <use xlink:href="#DejaVuSans-6c" transform="translate(374.183594 0)"/>
      <use xlink:href="#DejaVuSans-6c" transform="translate(401.966797 0)"/>
      <use xlink:href="#DejaVuSans-20" transform="translate(429.75 0)"/>
      <use xlink:href="#DejaVuSans-4e" transform="translate(461.537109 0)"/>
      <use xlink:href="#DejaVuSans-6f" transform="translate(536.341797 0)"/>
      <use xlink:href="#DejaVuSans-69" transform="translate(597.523438 0)"/>
      <use xlink:href="#DejaVuSans-73" transform="translate(625.306641 0)"/>
      <use xlink:href="#DejaVuSans-65" transform="translate(677.40625 0)"/>
     </g>
    </g>
   </g>
  </g>
  <g id="axes_2">
   <g id="patch_8">
    <path d="M 66.62 534.04 
L 853.2 534.04 
L 853.2 302.44 
L 66.62 302.44 
z
" style="fill: #ffffff"/>
   </g>
   <g id="matplotlib.axis_3">
    <g id="xtick_8">
     <g id="line2d_33">
      <path d="M 102.373636 534.04 
L 102.373636 302.44 
" clip-path="url(#p23fceb3e39)" style="fill: none; stroke: #b0b0b0; stroke-width: 0.8; stroke-linecap: square"/>
     </g>
     <g id="line2d_34">
      <g>
       <use xlink:href="#mba72239b14" x="102.373636" y="534.04" style="stroke: #000000; stroke-width: 0.8"/>
      </g>
     </g>
     <g id="text_18">
      <!-- 0 -->
      <g transform="translate(99.192386 548.638438) scale(0.1 -0.1)">
       <use xlink:href="#DejaVuSans-30"/>
      </g>
     </g>
    </g>
    <g id="xtick_9">
     <g id="line2d_35">
      <path d="M 223.943294 534.04 
L 223.943294 302.44 
" clip-path="url(#p23fceb3e39)" style="fill: none; stroke: #b0b0b0; stroke-width: 0.8; stroke-linecap: square"/>
     </g>
     <g id="line2d_36">
      <g>
       <use xlink:href="#mba72239b14" x="223.943294" y="534.04" style="stroke: #000000; stroke-width: 0.8"/>
      </g>
     </g>
     <g id="text_19">
      <!-- 50 -->
      <g transform="translate(217.580794 548.638438) scale(0.1 -0.1)">
       <use xlink:href="#DejaVuSans-35"/>
       <use xlink:href="#DejaVuSans-30" transform="translate(63.623047 0)"/>
      </g>
     </g>
    </g>
    <g id="xtick_10">
     <g id="line2d_37">
      <path d="M 345.512952 534.04 
L 345.512952 302.44 
" clip-path="url(#p23fceb3e39)" style="fill: none; stroke: #b0b0b0; stroke-width: 0.8; stroke-linecap: square"/>
     </g>
     <g id="line2d_38">
      <g>
       <use xlink:href="#mba72239b14" x="345.512952" y="534.04" style="stroke: #000000; stroke-width: 0.8"/>
      </g>
     </g>
     <g id="text_20">
      <!-- 100 -->
      <g transform="translate(335.969202 548.638438) scale(0.1 -0.1)">
       <use xlink:href="#DejaVuSans-31"/>
       <use xlink:href="#DejaVuSans-30" transform="translate(63.623047 0)"/>
       <use xlink:href="#DejaVuSans-30" transform="translate(127.246094 0)"/>
      </g>
     </g>
    </g>
    <g id="xtick_11">
     <g id="line2d_39">
      <path d="M 467.08261 534.04 
L 467.08261 302.44 
" clip-path="url(#p23fceb3e39)" style="fill: none; stroke: #b0b0b0; stroke-width: 0.8; stroke-linecap: square"/>
     </g>
     <g id="line2d_40">
      <g>
       <use xlink:href="#mba72239b14" x="467.08261" y="534.04" style="stroke: #000000; stroke-width: 0.8"/>
      </g>
     </g>
     <g id="text_21">
      <!-- 150 -->
      <g transform="translate(457.53886 548.638438) scale(0.1 -0.1)">
       <use xlink:href="#DejaVuSans-31"/>
       <use xlink:href="#DejaVuSans-35" transform="translate(63.623047 0)"/>
       <use xlink:href="#DejaVuSans-30" transform="translate(127.246094 0)"/>
      </g>
     </g>
    </g>
    <g id="xtick_12">
     <g id="line2d_41">
      <path d="M 588.652268 534.04 
L 588.652268 302.44 
" clip-path="url(#p23fceb3e39)" style="fill: none; stroke: #b0b0b0; stroke-width: 0.8; stroke-linecap: square"/>
     </g>
     <g id="line2d_42">
      <g>
       <use xlink:href="#mba72239b14" x="588.652268" y="534.04" style="stroke: #000000; stroke-width: 0.8"/>
      </g>
     </g>
     <g id="text_22">
      <!-- 200 -->
      <g transform="translate(579.108518 548.638438) scale(0.1 -0.1)">
       <use xlink:href="#DejaVuSans-32"/>
       <use xlink:href="#DejaVuSans-30" transform="translate(63.623047 0)"/>
       <use xlink:href="#DejaVuSans-30" transform="translate(127.246094 0)"/>
      </g>
     </g>
    </g>
    <g id="xtick_13">
     <g id="line2d_43">
      <path d="M 710.221925 534.04 
L 710.221925 302.44 
" clip-path="url(#p23fceb3e39)" style="fill: none; stroke: #b0b0b0; stroke-width: 0.8; stroke-linecap: square"/>
     </g>
     <g id="line2d_44">
      <g>
       <use xlink:href="#mba72239b14" x="710.221925" y="534.04" style="stroke: #000000; stroke-width: 0.8"/>
      </g>
     </g>
     <g id="text_23">
      <!-- 250 -->
      <g transform="translate(700.678175 548.638438) scale(0.1 -0.1)">
       <use xlink:href="#DejaVuSans-32"/>
       <use xlink:href="#DejaVuSans-35" transform="translate(63.623047 0)"/>
       <use xlink:href="#DejaVuSans-30" transform="translate(127.246094 0)"/>
      </g>
     </g>
    </g>
    <g id="xtick_14">
     <g id="line2d_45">
      <path d="M 831.791583 534.04 
L 831.791583 302.44 
" clip-path="url(#p23fceb3e39)" style="fill: none; stroke: #b0b0b0; stroke-width: 0.8; stroke-linecap: square"/>
     </g>
     <g id="line2d_46">
      <g>
       <use xlink:href="#mba72239b14" x="831.791583" y="534.04" style="stroke: #000000; stroke-width: 0.8"/>
      </g>
     </g>
     <g id="text_24">
      <!-- 300 -->
      <g transform="translate(822.247833 548.638438) scale(0.1 -0.1)">
       <use xlink:href="#DejaVuSans-33"/>
       <use xlink:href="#DejaVuSans-30" transform="translate(63.623047 0)"/>
       <use xlink:href="#DejaVuSans-30" transform="translate(127.246094 0)"/>
      </g>
     </g>
    </g>
    <g id="text_25">
     <!-- Time (s) -->
     <g transform="translate(439.581094 562.316562) scale(0.1 -0.1)">
      <defs>
       <path id="DejaVuSans-54" d="M -19 4666 
L 3928 4666 
L 3928 4134 
L 2272 4134 
L 2272 0 
L 1638 0 
L 1638 4134 
L -19 4134 
L -19 4666 
z
" transform="scale(0.015625)"/>
       <path id="DejaVuSans-6d" d="M 3328 2828 
Q 3544 3216 3844 3400 
Q 4144 3584 4550 3584 
Q 5097 3584 5394 3201 
Q 5691 2819 5691 2113 
L 5691 0 
L 5113 0 
L 5113 2094 
Q 5113 2597 4934 2840 
Q 4756 3084 4391 3084 
Q 3944 3084 3684 2787 
Q 3425 2491 3425 1978 
L 3425 0 
L 2847 0 
L 2847 2094 
Q 2847 2600 2669 2842 
Q 2491 3084 2119 3084 
Q 1678 3084 1418 2786 
Q 1159 2488 1159 1978 
L 1159 0 
L 581 0 
L 581 3500 
L 1159 3500 
L 1159 2956 
Q 1356 3278 1631 3431 
Q 1906 3584 2284 3584 
Q 2666 3584 2933 3390 
Q 3200 3197 3328 2828 
z
" transform="scale(0.015625)"/>
      </defs>
      <use xlink:href="#DejaVuSans-54"/>
      <use xlink:href="#DejaVuSans-69" transform="translate(57.958984 0)"/>
      <use xlink:href="#DejaVuSans-6d" transform="translate(85.742188 0)"/>
      <use xlink:href="#DejaVuSans-65" transform="translate(183.154297 0)"/>
      <use xlink:href="#DejaVuSans-20" transform="translate(244.677734 0)"/>
      <use xlink:href="#DejaVuSans-28" transform="translate(276.464844 0)"/>
      <use xlink:href="#DejaVuSans-73" transform="translate(315.478516 0)"/>
      <use xlink:href="#DejaVuSans-29" transform="translate(367.578125 0)"/>
     </g>
    </g>
   </g>
   <g id="matplotlib.axis_4">
    <g id="ytick_7">
     <g id="line2d_47">
      <path d="M 66.62 519.234034 
L 853.2 519.234034 
" clip-path="url(#p23fceb3e39)" style="fill: none; stroke: #b0b0b0; stroke-width: 0.8; stroke-linecap: square"/>
     </g>
     <g id="line2d_48">
      <g>
       <use xlink:href="#mfade887d5b" x="66.62" y="519.234034" style="stroke: #000000; stroke-width: 0.8"/>
      </g>
     </g>
     <g id="text_26">
      <!-- 0.0000 -->
      <g transform="translate(24.629375 523.033253) scale(0.1 -0.1)">
       <use xlink:href="#DejaVuSans-30"/>
       <use xlink:href="#DejaVuSans-2e" transform="translate(63.623047 0)"/>
       <use xlink:href="#DejaVuSans-30" transform="translate(95.410156 0)"/>
       <use xlink:href="#DejaVuSans-30" transform="translate(159.033203 0)"/>
       <use xlink:href="#DejaVuSans-30" transform="translate(222.65625 0)"/>
       <use xlink:href="#DejaVuSans-30" transform="translate(286.279297 0)"/>
      </g>
     </g>
    </g>
    <g id="ytick_8">
     <g id="line2d_49">
      <path d="M 66.62 478.320134 
L 853.2 478.320134 
" clip-path="url(#p23fceb3e39)" style="fill: none; stroke: #b0b0b0; stroke-width: 0.8; stroke-linecap: square"/>
     </g>
     <g id="line2d_50">
      <g>
       <use xlink:href="#mfade887d5b" x="66.62" y="478.320134" style="stroke: #000000; stroke-width: 0.8"/>
      </g>
     </g>
     <g id="text_27">
      <!-- 0.0005 -->
      <g transform="translate(24.629375 482.119352) scale(0.1 -0.1)">
       <use xlink:href="#DejaVuSans-30"/>
       <use xlink:href="#DejaVuSans-2e" transform="translate(63.623047 0)"/>
       <use xlink:href="#DejaVuSans-30" transform="translate(95.410156 0)"/>
       <use xlink:href="#DejaVuSans-30" transform="translate(159.033203 0)"/>
       <use xlink:href="#DejaVuSans-30" transform="translate(222.65625 0)"/>
       <use xlink:href="#DejaVuSans-35" transform="translate(286.279297 0)"/>
      </g>
     </g>
    </g>
    <g id="ytick_9">
     <g id="line2d_51">
      <path d="M 66.62 437.406233 
L 853.2 437.406233 
" clip-path="url(#p23fceb3e39)" style="fill: none; stroke: #b0b0b0; stroke-width: 0.8; stroke-linecap: square"/>
     </g>
     <g id="line2d_52">
      <g>
       <use xlink:href="#mfade887d5b" x="66.62" y="437.406233" style="stroke: #000000; stroke-width: 0.8"/>
      </g>
     </g>
     <g id="text_28">
      <!-- 0.0010 -->
      <g transform="translate(24.629375 441.205452) scale(0.1 -0.1)">
       <use xlink:href="#DejaVuSans-30"/>
       <use xlink:href="#DejaVuSans-2e" transform="translate(63.623047 0)"/>
       <use xlink:href="#DejaVuSans-30" transform="translate(95.410156 0)"/>
       <use xlink:href="#DejaVuSans-30" transform="translate(159.033203 0)"/>
       <use xlink:href="#DejaVuSans-31" transform="translate(222.65625 0)"/>
       <use xlink:href="#DejaVuSans-30" transform="translate(286.279297 0)"/>
      </g>
     </g>
    </g>
    <g id="ytick_10">
     <g id="line2d_53">
      <path d="M 66.62 396.492333 
L 853.2 396.492333 
" clip-path="url(#p23fceb3e39)" style="fill: none; stroke: #b0b0b0; stroke-width: 0.8; stroke-linecap: square"/>
     </g>
     <g id="line2d_54">
      <g>
       <use xlink:href="#mfade887d5b" x="66.62" y="396.492333" style="stroke: #000000; stroke-width: 0.8"/>
      </g>
     </g>
     <g id="text_29">
      <!-- 0.0015 -->
      <g transform="translate(24.629375 400.291551) scale(0.1 -0.1)">
       <use xlink:href="#DejaVuSans-30"/>
       <use xlink:href="#DejaVuSans-2e" transform="translate(63.623047 0)"/>
       <use xlink:href="#DejaVuSans-30" transform="translate(95.410156 0)"/>
       <use xlink:href="#DejaVuSans-30" transform="translate(159.033203 0)"/>
       <use xlink:href="#DejaVuSans-31" transform="translate(222.65625 0)"/>
       <use xlink:href="#DejaVuSans-35" transform="translate(286.279297 0)"/>
      </g>
     </g>
    </g>
    <g id="ytick_11">
     <g id="line2d_55">
      <path d="M 66.62 355.578432 
L 853.2 355.578432 
" clip-path="url(#p23fceb3e39)" style="fill: none; stroke: #b0b0b0; stroke-width: 0.8; stroke-linecap: square"/>
     </g>
     <g id="line2d_56">
      <g>
       <use xlink:href="#mfade887d5b" x="66.62" y="355.578432" style="stroke: #000000; stroke-width: 0.8"/>
      </g>
     </g>
     <g id="text_30">
      <!-- 0.0020 -->
      <g transform="translate(24.629375 359.377651) scale(0.1 -0.1)">
       <use xlink:href="#DejaVuSans-30"/>
       <use xlink:href="#DejaVuSans-2e" transform="translate(63.623047 0)"/>
       <use xlink:href="#DejaVuSans-30" transform="translate(95.410156 0)"/>
       <use xlink:href="#DejaVuSans-30" transform="translate(159.033203 0)"/>
       <use xlink:href="#DejaVuSans-32" transform="translate(222.65625 0)"/>
       <use xlink:href="#DejaVuSans-30" transform="translate(286.279297 0)"/>
      </g>
     </g>
    </g>
    <g id="ytick_12">
     <g id="line2d_57">
      <path d="M 66.62 314.664532 
L 853.2 314.664532 
" clip-path="url(#p23fceb3e39)" style="fill: none; stroke: #b0b0b0; stroke-width: 0.8; stroke-linecap: square"/>
     </g>
     <g id="line2d_58">
      <g>
       <use xlink:href="#mfade887d5b" x="66.62" y="314.664532" style="stroke: #000000; stroke-width: 0.8"/>
      </g>
     </g>
     <g id="text_31">
      <!-- 0.0025 -->
      <g transform="translate(24.629375 318.463751) scale(0.1 -0.1)">
       <use xlink:href="#DejaVuSans-30"/>
       <use xlink:href="#DejaVuSans-2e" transform="translate(63.623047 0)"/>
       <use xlink:href="#DejaVuSans-30" transform="translate(95.410156 0)"/>
       <use xlink:href="#DejaVuSans-30" transform="translate(159.033203 0)"/>
       <use xlink:href="#DejaVuSans-32" transform="translate(222.65625 0)"/>
       <use xlink:href="#DejaVuSans-35" transform="translate(286.279297 0)"/>
      </g>
     </g>
    </g>
    <g id="text_32">
     <!-- Estimated Value -->
     <g transform="translate(18.549688 458.818906) rotate(-90) scale(0.1 -0.1)">
      <defs>
       <path id="DejaVuSans-45" d="M 628 4666 
L 3578 4666 
L 3578 4134 
L 1259 4134 
L 1259 2753 
L 3481 2753 
L 3481 2222 
L 1259 2222 
L 1259 531 
L 3634 531 
L 3634 0 
L 628 0 
L 628 4666 
z
" transform="scale(0.015625)"/>
       <path id="DejaVuSans-56" d="M 1831 0 
L 50 4666 
L 709 4666 
L 2188 738 
L 3669 4666 
L 4325 4666 
L 2547 0 
L 1831 0 
z
" transform="scale(0.015625)"/>
      </defs>
      <use xlink:href="#DejaVuSans-45"/>
      <use xlink:href="#DejaVuSans-73" transform="translate(63.183594 0)"/>
      <use xlink:href="#DejaVuSans-74" transform="translate(115.283203 0)"/>
      <use xlink:href="#DejaVuSans-69" transform="translate(154.492188 0)"/>
      <use xlink:href="#DejaVuSans-6d" transform="translate(182.275391 0)"/>
      <use xlink:href="#DejaVuSans-61" transform="translate(279.6875 0)"/>
      <use xlink:href="#DejaVuSans-74" transform="translate(340.966797 0)"/>
      <use xlink:href="#DejaVuSans-65" transform="translate(380.175781 0)"/>
      <use xlink:href="#DejaVuSans-64" transform="translate(441.699219 0)"/>
      <use xlink:href="#DejaVuSans-20" transform="translate(505.175781 0)"/>
      <use xlink:href="#DejaVuSans-56" transform="translate(536.962891 0)"/>
      <use xlink:href="#DejaVuSans-61" transform="translate(597.621094 0)"/>
      <use xlink:href="#DejaVuSans-6c" transform="translate(658.900391 0)"/>
      <use xlink:href="#DejaVuSans-75" transform="translate(686.683594 0)"/>
      <use xlink:href="#DejaVuSans-65" transform="translate(750.0625 0)"/>
     </g>
    </g>
   </g>
   <g id="line2d_59">
    <path d="M 102.373636 519.234034 
L 121.533014 519.1651 
L 121.727526 519.10147 
L 122.651455 519.066808 
L 145.603807 519.093211 
L 145.74969 519.436961 
L 148.083828 519.380125 
L 157.517633 519.409257 
L 157.663517 519.255987 
L 161.748257 519.180505 
L 171.230691 518.990261 
L 179.20566 518.952232 
L 181.345286 518.952232 
L 181.49117 518.831505 
L 199.823874 518.833219 
L 205.172939 518.817493 
L 205.221567 503.541121 
L 205.318823 503.718851 
L 205.659218 504.518826 
L 206.048241 504.776196 
L 207.020798 505.057049 
L 210.716515 505.789414 
L 214.849884 506.448446 
L 223.700155 506.558274 
L 229.000592 506.733817 
L 229.146476 506.634305 
L 231.431985 506.728317 
L 252.828245 506.920547 
L 252.974128 507.64549 
L 254.092569 507.717237 
L 259.052611 507.809899 
L 272.036251 507.997811 
L 276.899037 508.27841 
L 278.89278 508.557834 
L 282.393986 508.766618 
L 287.791678 508.869947 
L 288.569724 508.869947 
L 288.618352 502.620224 
L 288.715608 502.651208 
L 289.882677 503.393036 
L 291.147001 503.688409 
L 293.918789 504.067078 
L 298.00353 504.410163 
L 300.483551 504.410163 
L 300.629434 504.592426 
L 303.984757 505.290906 
L 307.145568 505.55567 
L 310.987169 505.663749 
L 313.224051 505.558989 
L 315.704072 505.227181 
L 320.031952 504.899025 
L 323.435902 504.812827 
L 324.262576 504.812827 
L 324.408459 503.825668 
L 325.381017 503.621585 
L 327.472015 503.42787 
L 331.799895 503.290587 
L 340.698794 503.242075 
L 340.844677 519.234034 
L 443.546724 519.227358 
L 443.595352 518.95482 
L 443.692608 518.998951 
L 444.130258 519.237814 
L 445.200071 519.33962 
L 452.883274 519.675576 
L 485.318058 519.78663 
L 491.20203 519.818969 
L 491.347914 520.019595 
L 494.897748 520.057828 
L 517.655587 520.272547 
L 526.943509 520.32849 
L 526.992137 519.194286 
L 527.089393 519.203073 
L 528.937252 519.429067 
L 534.189061 519.608437 
L 551.986859 519.926657 
L 557.773575 519.769222 
L 562.636361 519.735302 
L 562.782244 519.488827 
L 565.213638 519.399524 
L 574.063909 519.351256 
L 579.072579 519.345578 
L 579.218462 519.234034 
L 630.277718 519.124148 
L 634.265203 519.089159 
L 634.411087 518.849469 
L 635.821295 518.85287 
L 646.17903 518.799468 
L 646.324913 516.586329 
L 646.61668 516.788395 
L 647.346098 517.283168 
L 648.318656 517.635582 
L 649.826119 517.922747 
L 652.403396 518.161675 
L 656.293625 518.290964 
L 658.092856 518.290964 
L 658.23874 518.641127 
L 663.24741 518.6559 
L 670.006683 518.727406 
L 670.152566 518.197138 
L 671.027868 518.357064 
L 672.827099 518.520627 
L 676.571444 518.597234 
L 681.920509 518.586626 
L 681.969137 518.460719 
L 682.115021 519.127209 
L 682.601299 519.169397 
L 692.570011 519.314129 
L 729.575815 519.281826 
L 729.721699 519.192923 
L 735.216647 519.071374 
L 757.099185 518.958537 
L 765.317294 518.961293 
L 765.463178 519.244222 
L 777.182493 519.344744 
L 779.857025 519.455393 
L 790.360644 519.507238 
L 815.695761 519.238044 
L 817.446364 519.241337 
L 817.446364 519.241337 
" clip-path="url(#p23fceb3e39)" style="fill: none; stroke: #0000ff; stroke-width: 1.5; stroke-linecap: square"/>
   </g>
   <g id="line2d_60">
    <path d="M 102.373636 519.234034 
L 108.743886 519.343382 
L 109.813699 519.411175 
L 113.558045 519.417611 
L 116.232577 519.214547 
L 118.955738 519.038527 
L 124.693826 518.927853 
L 129.313473 518.95159 
L 145.603807 519.028979 
L 145.74969 519.586975 
L 146.868131 519.552066 
L 149.980314 519.415712 
L 155.183496 518.908575 
L 157.517633 518.908575 
L 157.663517 518.779787 
L 169.43146 518.731213 
L 169.577343 518.509136 
L 170.987551 518.143636 
L 175.315431 517.34162 
L 175.704454 517.272577 
L 177.84408 517.225762 
L 178.233103 517.216599 
L 178.913893 517.283376 
L 189.514767 517.174212 
L 191.751649 516.98021 
L 193.259113 516.98021 
L 193.404996 515.45174 
L 193.842647 515.06561 
L 194.328926 514.764863 
L 195.787761 514.137147 
L 196.565807 513.797479 
L 197.538365 513.487856 
L 198.170527 513.307579 
L 198.9972 513.003296 
L 200.942315 512.628237 
L 203.081941 512.545425 
L 205.172939 512.545425 
L 205.221567 502.017167 
L 205.318823 502.162607 
L 205.36745 502.12352 
L 205.805101 503.4312 
L 205.853729 503.355675 
L 205.902357 503.338706 
L 205.999613 503.503174 
L 206.048241 503.472264 
L 206.437263 503.152512 
L 207.215309 503.193653 
L 207.458449 503.062231 
L 207.944727 503.247284 
L 208.139239 503.229949 
L 208.431006 503.085607 
L 209.25768 503.420209 
L 210.327493 503.689901 
L 210.716515 503.864122 
L 211.154166 503.996483 
L 211.445933 504.029717 
L 212.029468 504.126133 
L 212.418491 504.242612 
L 213.439676 504.355822 
L 214.02321 504.356568 
L 214.801256 504.437106 
L 223.262504 504.54673 
L 225.256246 504.725714 
L 226.520571 504.845574 
L 229.000592 504.845574 
L 229.097848 504.514137 
L 229.146476 504.522312 
L 230.216289 504.671413 
L 231.334729 504.680328 
L 234.252401 504.731908 
L 238.969304 504.807156 
L 241.984231 504.696611 
L 252.828245 504.467664 
L 252.974128 505.226008 
L 253.84943 505.304224 
L 258.760844 505.444569 
L 264.742071 505.458319 
L 264.887955 505.647211 
L 269.896625 505.400039 
L 276.655898 505.275315 
L 276.801781 505.473823 
L 279.33043 506.017188 
L 281.275545 506.344702 
L 288.569724 506.64055 
L 288.715608 503.951458 
L 289.834049 503.842537 
L 290.174444 503.87826 
L 291.098373 503.903429 
L 291.63328 503.958574 
L 292.751721 504.031373 
L 295.863904 504.160945 
L 298.44118 504.379189 
L 300.483551 504.379189 
L 300.629434 504.725137 
L 301.893759 505.079647 
L 303.158083 505.344052 
L 305.151826 505.597193 
L 310.695402 505.850451 
L 313.029539 505.747312 
L 314.926026 505.515224 
L 317.406047 505.289049 
L 320.129207 505.193326 
L 324.262576 505.136445 
L 324.408459 504.259645 
L 326.839853 503.961612 
L 329.076734 503.904376 
L 333.50187 503.774055 
L 334.960706 503.770278 
L 340.698794 503.673902 
L 340.844677 519.234031 
L 347.069044 519.342177 
L 348.236112 519.423365 
L 351.834574 519.445378 
L 353.828317 519.312431 
L 355.822059 519.168867 
L 357.961685 519.087469 
L 383.977592 519.166736 
L 384.123475 519.424539 
L 385.047405 519.437621 
L 392.147073 518.853207 
L 392.536096 518.809266 
L 394.383954 518.787818 
L 407.805245 518.78931 
L 407.951128 518.598788 
L 409.312708 518.306933 
L 409.847615 518.285535 
L 410.625661 518.087794 
L 411.355079 517.930579 
L 413.105682 517.735037 
L 414.661773 517.518498 
L 416.898655 517.511046 
L 417.773957 517.548221 
L 428.083064 517.444216 
L 429.687783 517.283343 
L 431.632898 517.283343 
L 431.778781 515.758367 
L 432.216432 515.380859 
L 432.702711 515.089685 
L 433.918407 514.571711 
L 434.745081 514.223857 
L 436.884707 513.527578 
L 437.565497 513.325447 
L 439.218844 513.022463 
L 443.546724 512.949242 
L 443.692608 517.112557 
L 443.741236 516.983621 
L 443.789863 517.052155 
L 444.033003 517.810569 
L 444.081631 517.675014 
L 444.130258 517.768184 
L 444.178886 517.851506 
L 444.227514 517.757156 
L 444.276142 517.723025 
L 444.32477 517.808944 
L 444.422026 517.813213 
L 444.811048 517.409254 
L 445.637722 517.253958 
L 445.880861 517.17556 
L 446.124001 517.260541 
L 446.950674 517.114778 
L 447.242442 517.265513 
L 447.825976 517.308574 
L 448.555394 517.352504 
L 448.798533 517.428368 
L 449.0903 517.498833 
L 449.527951 517.572831 
L 449.819718 517.567221 
L 450.403253 517.586739 
L 450.792276 517.653026 
L 451.813461 517.634571 
L 452.396995 517.561145 
L 453.564064 517.593975 
L 455.800946 517.488545 
L 456.335852 517.503054 
L 463.532776 517.718991 
L 465.137495 517.789921 
L 467.374377 517.789921 
L 467.520261 517.507552 
L 468.735957 517.613834 
L 480.455272 517.572541 
L 486.290616 517.421799 
L 489.84045 517.268139 
L 491.20203 517.268139 
L 491.347914 517.49809 
L 493.098517 517.56193 
L 504.671948 517.599497 
L 506.714318 517.508146 
L 509.291595 517.43283 
L 512.890057 517.247013 
L 516.00224 517.357379 
L 519.211679 517.831688 
L 520.865026 517.881475 
L 523.199164 517.975739 
L 524.220349 518.032453 
L 526.943509 518.032453 
L 526.992137 520.074393 
L 527.089393 520.016108 
L 528.596857 519.351562 
L 529.812553 519.20357 
L 530.930994 519.234255 
L 532.730225 519.00668 
L 538.857336 519.182362 
L 539.003219 519.390023 
L 540.024405 519.480415 
L 540.705195 519.535566 
L 542.844821 519.629078 
L 547.221328 519.733476 
L 579.072579 519.331611 
L 579.218462 519.233521 
L 580.191019 519.2758 
L 580.434159 519.396719 
L 580.62867 519.342979 
L 580.774554 519.27936 
L 580.920437 519.077794 
L 581.017693 519.203802 
L 581.163577 518.904726 
L 581.212205 518.95339 
L 581.358088 519.027274 
L 581.406716 518.995452 
L 581.455344 519.080777 
L 581.5526 519.191845 
L 581.601227 519.121153 
L 581.844367 518.957378 
L 581.892995 519.040975 
L 581.941623 519.039014 
L 582.136134 518.313258 
L 582.184762 518.330566 
L 582.525157 519.069872 
L 582.622413 519.026899 
L 583.011436 519.565032 
L 583.303203 519.142925 
L 583.789481 519.597925 
L 584.27576 520.245949 
L 584.470271 520.190748 
L 584.664783 519.941492 
L 584.810666 520.290744 
L 585.296945 521.652512 
L 585.831852 523.35344 
L 586.074991 523.363993 
L 586.220874 523.183109 
L 586.464014 523.375699 
L 586.658525 523.250445 
L 587.047548 523.497305 
L 587.387943 523.33316 
L 587.582455 523.17314 
L 587.971478 522.923568 
L 588.895407 522.488171 
L 589.527569 522.428877 
L 590.500126 521.79606 
L 590.694638 521.769697 
L 590.889149 521.594298 
L 591.3268 521.100008 
L 591.667195 520.947252 
L 593.028775 520.088723 
L 593.320542 519.846747 
L 594.633495 519.176208 
L 595.217029 518.892004 
L 597.064888 518.886731 
L 599.885304 518.986372 
L 600.420211 519.279116 
L 600.614722 519.407 
L 601.538651 519.334574 
L 601.733163 519.197396 
L 601.879046 519.371582 
L 602.073558 519.404999 
L 602.316697 519.127308 
L 602.511209 518.869842 
L 603.046115 517.474862 
L 603.289254 517.296052 
L 603.726905 515.886989 
L 604.115928 515.164138 
L 604.31044 514.872008 
L 604.407695 515.004856 
L 604.456323 514.955224 
L 604.699462 514.880092 
L 604.796718 514.763088 
L 606.790461 510.522936 
L 606.887716 510.512289 
L 607.179483 509.649967 
L 607.519879 508.495213 
L 608.103413 506.653143 
L 608.200669 506.519147 
L 608.39518 506.176952 
L 608.443808 506.155478 
L 608.492436 506.265657 
L 608.541064 506.171912 
L 608.686947 505.836178 
L 609.027342 505.070825 
L 609.124598 504.888985 
L 609.951272 502.777629 
L 610.243039 501.633827 
L 610.388922 501.374927 
L 610.486178 501.242244 
L 610.777945 500.554314 
L 611.021085 500.01194 
L 611.069713 500.019312 
L 611.215596 499.777036 
L 611.36148 499.806521 
L 611.701875 499.773946 
L 612.285409 498.47634 
L 613.014827 497.659687 
L 613.063455 497.633276 
L 613.40385 496.827389 
L 613.452478 496.793128 
L 613.646989 497.042575 
L 614.036012 496.577205 
L 614.230524 496.291278 
L 614.376407 496.292484 
L 615.105825 496.321592 
L 615.543476 497.080031 
L 616.175638 497.101482 
L 616.516033 497.397106 
L 616.661917 497.314507 
L 616.8078 497.273818 
L 617.148195 497.14877 
L 617.537218 496.596773 
L 618.023497 496.866846 
L 619.044682 497.546038 
L 620.163123 497.725026 
L 622.545888 497.614275 
L 622.643144 497.581612 
L 622.789028 497.488653 
L 622.934911 497.680414 
L 623.080795 497.548066 
L 623.323934 496.51011 
L 623.469818 496.036141 
L 623.664329 496.570931 
L 623.761585 496.462343 
L 623.810213 496.515747 
L 623.956096 496.650862 
L 624.053352 496.470106 
L 624.150608 496.614214 
L 624.296491 496.974042 
L 624.345119 497.021931 
L 624.393747 496.966034 
L 624.588258 496.392952 
L 624.685514 496.289772 
L 624.977281 494.899544 
L 625.46356 490.250261 
L 625.560816 490.156195 
L 626.095722 485.44088 
L 626.192978 485.4227 
L 626.290234 485.11652 
L 626.338862 485.526176 
L 626.436117 485.447157 
L 626.533373 485.335053 
L 626.582001 485.410383 
L 626.630629 485.378008 
L 626.727884 484.727789 
L 627.50593 477.42039 
L 627.554558 477.132089 
L 627.603186 477.355255 
L 627.74907 478.17393 
L 627.992209 476.540789 
L 628.138092 473.851764 
L 628.283976 474.522599 
L 628.332604 474.497843 
L 628.42986 473.742848 
L 628.527115 474.650459 
L 628.575743 474.560745 
L 628.770255 472.912414 
L 629.11065 466.877894 
L 629.548301 463.215577 
L 629.596928 463.608773 
L 629.645556 463.234696 
L 629.79144 460.926952 
L 629.840068 461.348843 
L 629.985951 462.380591 
L 630.034579 462.076127 
L 630.763997 452.658837 
L 631.007136 453.069774 
L 631.104392 453.797582 
L 631.15302 453.145188 
L 631.201648 453.311319 
L 631.444787 455.434689 
L 631.590671 454.281279 
L 634.265203 454.281279 
L 634.313831 450.929061 
L 634.362459 451.382906 
L 634.848738 457.312583 
L 635.043249 457.130616 
L 635.189133 457.755758 
L 635.335016 457.893525 
L 635.432272 457.366429 
L 635.4809 457.43344 
L 635.626783 457.805021 
L 635.821295 459.118109 
L 635.869923 459.0582 
L 635.967178 458.966189 
L 636.453457 458.496041 
L 636.599341 458.591086 
L 636.84248 458.062963 
L 636.939736 458.237471 
L 637.182875 457.680857 
L 637.377386 457.493948 
L 637.571898 458.122984 
L 637.669154 458.691611 
L 637.717782 458.632795 
L 637.863665 458.256802 
L 637.960921 457.93576 
L 638.009549 457.987075 
L 638.106804 457.845666 
L 638.155432 457.922533 
L 638.641711 460.408015 
L 638.787595 460.954337 
L 638.933478 461.95819 
L 639.079362 462.535206 
L 639.322501 463.108305 
L 639.468385 462.53806 
L 639.662896 463.369049 
L 639.711524 463.319372 
L 639.857407 461.781323 
L 639.906035 462.162487 
L 639.954663 462.43254 
L 640.003291 462.278337 
L 640.051919 462.231024 
L 640.149175 462.730105 
L 640.197803 462.656082 
L 640.295058 462.091789 
L 640.343686 462.280037 
L 640.440942 462.883846 
L 640.48957 462.656382 
L 640.586825 462.718502 
L 640.781337 462.58158 
L 640.878593 462.317771 
L 641.024476 463.306253 
L 641.17036 463.221082 
L 641.218988 463.159987 
L 641.462127 462.17169 
L 641.608011 461.953268 
L 641.656638 462.058481 
L 641.899778 463.462038 
L 642.094289 462.947244 
L 642.191545 463.015488 
L 642.386056 463.84348 
L 642.434684 463.789062 
L 643.358614 457.283574 
L 643.601753 459.543158 
L 646.17903 459.543158 
L 646.324913 451.992185 
L 646.422169 451.089977 
L 646.470797 451.306472 
L 646.519425 451.811567 
L 646.61668 451.795741 
L 646.665308 451.912626 
L 646.811192 448.666637 
L 646.908448 449.507376 
L 646.957076 449.520469 
L 647.200215 444.874948 
L 647.491982 448.382361 
L 647.686493 446.206379 
L 647.735121 446.955072 
L 647.783749 446.853357 
L 647.832377 446.233816 
L 647.881005 447.00313 
L 647.978261 447.981052 
L 648.026889 447.331364 
L 648.415911 446.129555 
L 648.707679 442.627126 
L 648.756306 442.575965 
L 649.193957 437.774344 
L 649.242585 437.54918 
L 649.437097 435.556434 
L 649.485724 435.553635 
L 649.534352 435.771606 
L 649.680236 433.56821 
L 649.777492 432.716245 
L 649.826119 432.882616 
L 649.874747 433.097948 
L 650.069259 431.927961 
L 650.117887 431.952121 
L 650.166514 431.738397 
L 650.215142 431.915685 
L 650.458282 432.734131 
L 650.50691 432.637009 
L 650.555537 432.636661 
L 650.604165 432.748576 
L 650.798677 431.146266 
L 650.847305 431.166907 
L 650.94456 430.742889 
L 651.139072 429.327783 
L 651.236327 429.081981 
L 651.528095 426.959025 
L 651.576723 426.900164 
L 651.771234 425.18482 
L 652.257513 418.675219 
L 652.354768 418.757244 
L 652.403396 418.638017 
L 652.500652 419.296161 
L 652.54928 419.064757 
L 652.646536 419.397589 
L 652.889675 420.696863 
L 652.938303 420.640704 
L 652.986931 420.409329 
L 653.084186 420.48184 
L 653.278698 421.705929 
L 653.327326 421.567223 
L 653.375953 421.009612 
L 653.424581 421.180515 
L 653.764976 424.142893 
L 653.959488 423.412518 
L 654.008116 423.243285 
L 654.056744 423.325395 
L 654.348511 424.701275 
L 654.397139 424.571634 
L 654.445766 424.536704 
L 654.59165 423.338661 
L 654.688906 422.60887 
L 654.737534 422.695319 
L 654.932045 424.00196 
L 655.175184 424.49554 
L 655.466952 428.541846 
L 658.092856 428.541846 
L 658.23874 457.744842 
L 658.384623 457.999287 
L 658.433251 457.914575 
L 658.579135 457.878059 
L 658.725018 457.922413 
L 659.016786 457.767202 
L 659.211297 457.612296 
L 659.794831 457.682571 
L 660.621505 457.02562 
L 660.913272 456.436611 
L 661.107784 456.248927 
L 661.302295 456.146967 
L 661.545434 456.183073 
L 662.080341 455.249128 
L 662.56662 454.753104 
L 662.615247 454.814702 
L 662.663875 454.757557 
L 662.955642 454.33652 
L 663.150154 453.968928 
L 663.198782 454.009471 
L 663.24741 453.907166 
L 663.490549 453.360252 
L 663.587805 453.315389 
L 663.68506 453.160054 
L 663.733688 453.220593 
L 663.879572 453.516584 
L 663.9282 453.481973 
L 664.025455 453.383339 
L 664.219967 452.738995 
L 664.317223 452.85001 
L 664.463106 452.473852 
L 664.511734 452.367909 
L 664.560362 452.455448 
L 664.706246 452.899133 
L 664.949385 452.397232 
L 665.192524 452.082332 
L 665.241152 452.042715 
L 665.435664 452.704494 
L 665.484291 452.633008 
L 666.067826 449.867734 
L 666.310965 447.885706 
L 666.602732 445.516495 
L 666.797244 444.632752 
L 667.429406 438.735091 
L 670.006683 438.735091 
L 670.152566 380.694622 
L 670.347078 376.024661 
L 670.687473 366.218129 
L 670.736101 366.080507 
L 671.125123 359.968535 
L 671.465519 354.682484 
L 671.708658 352.552867 
L 671.805914 351.950851 
L 671.854541 352.319822 
L 672.000425 352.003332 
L 672.486704 346.0405 
L 672.535332 345.84495 
L 672.875727 341.659692 
L 672.924354 341.724109 
L 673.410633 336.324693 
L 673.605145 335.471232 
L 674.237307 330.168617 
L 674.334562 330.269361 
L 674.38319 330.160877 
L 674.577702 329.342429 
L 674.772213 327.821414 
L 675.793398 318.647047 
L 675.842026 318.697238 
L 676.133793 316.82786 
L 676.231049 316.67332 
L 676.279677 316.829825 
L 676.474188 315.945691 
L 676.522816 316.097943 
L 676.571444 316.263212 
L 676.620072 316.184479 
L 676.6687 316.147052 
L 676.960467 314.738182 
L 677.203606 312.967273 
L 677.34949 313.168967 
L 677.398118 313.128289 
L 677.446746 312.986515 
L 677.495374 313.162001 
L 677.738513 313.943551 
L 677.787141 314.149523 
L 677.835769 313.882113 
L 677.933024 313.608376 
L 677.981652 313.714053 
L 678.078908 313.674695 
L 678.176164 314.440004 
L 678.322047 315.183894 
L 678.370675 315.353708 
L 678.419303 315.150891 
L 678.516559 314.682189 
L 678.565187 314.721979 
L 678.856954 315.677244 
L 679.051465 316.603971 
L 679.100093 316.506003 
L 679.148721 316.499273 
L 679.294604 316.905709 
L 681.920509 316.905709 
L 682.066393 511.309239 
L 682.260904 518.165893 
L 682.406788 519.062747 
L 682.455416 518.847444 
L 682.552671 519.169239 
L 682.601299 519.02807 
L 682.649927 518.985345 
L 682.747183 519.201469 
L 682.795811 519.138399 
L 683.184834 518.576588 
L 683.962879 518.476666 
L 684.206019 518.257813 
L 684.595042 518.384951 
L 684.838181 518.377909 
L 685.275832 518.175099 
L 685.664855 518.393628 
L 685.907994 518.349772 
L 686.491528 518.499675 
L 687.12369 518.555021 
L 687.561341 518.661431 
L 688.388015 518.680937 
L 688.777038 518.725649 
L 689.166061 518.791622 
L 690.138618 518.749256 
L 690.722152 518.643229 
L 693.104918 518.657146 
L 693.882963 518.59125 
L 694.028847 518.049337 
L 694.758265 517.98021 
L 697.578681 517.867044 
L 701.906561 517.698251 
L 704.337954 517.6466 
L 705.942673 517.544569 
L 706.526208 517.430163 
L 708.130927 517.422625 
L 724.275378 517.764128 
L 729.575815 517.991839 
L 729.721699 517.792879 
L 731.131907 517.416442 
L 731.909952 517.401698 
L 732.63937 517.299986 
L 733.514672 517.173488 
L 734.24409 517.126547 
L 736.28646 517.00524 
L 737.307645 516.990804 
L 738.32883 516.932412 
L 740.954735 516.891472 
L 741.830036 516.993752 
L 743.726523 517.286979 
L 745.866149 517.426751 
L 758.898416 518.000619 
L 763.615319 518.049261 
L 765.317294 518.049261 
L 765.365922 519.971028 
L 765.463178 519.90764 
L 766.922014 519.175613 
L 770.374592 518.769095 
L 771.882056 518.719914 
L 777.231121 518.804656 
L 777.377004 518.924324 
L 778.349562 518.965496 
L 779.127607 518.99179 
L 780.343304 519.01918 
L 785.643741 519.066186 
L 788.221018 519.043566 
L 801.010146 519.14084 
L 801.204657 519.204728 
L 802.95526 519.320828 
L 804.900375 519.337718 
L 806.699606 519.356222 
L 808.790604 519.337594 
L 817.446364 519.245648 
L 817.446364 519.245648 
" clip-path="url(#p23fceb3e39)" style="fill: none; stroke-dasharray: 5.55,2.4; stroke-dashoffset: 0; stroke: #ff0000; stroke-width: 1.5"/>
   </g>
   <g id="line2d_61">
    <path d="M 340.747421 534.04 
L 340.747421 302.44 
" clip-path="url(#p23fceb3e39)" style="fill: none; stroke-dasharray: 1.5,2.475; stroke-dashoffset: 0; stroke: #808080; stroke-opacity: 0.6; stroke-width: 1.5"/>
   </g>
   <g id="line2d_62">
    <path d="M 579.121206 534.04 
L 579.121206 302.44 
" clip-path="url(#p23fceb3e39)" style="fill: none; stroke-dasharray: 1.5,2.475; stroke-dashoffset: 0; stroke: #808080; stroke-opacity: 0.6; stroke-width: 1.5"/>
   </g>
   <g id="patch_9">
    <path d="M 66.62 534.04 
L 66.62 302.44 
" style="fill: none; stroke: #000000; stroke-width: 0.8; stroke-linejoin: miter; stroke-linecap: square"/>
   </g>
   <g id="patch_10">
    <path d="M 853.2 534.04 
L 853.2 302.44 
" style="fill: none; stroke: #000000; stroke-width: 0.8; stroke-linejoin: miter; stroke-linecap: square"/>
   </g>
   <g id="patch_11">
    <path d="M 66.62 534.04 
L 853.2 534.04 
" style="fill: none; stroke: #000000; stroke-width: 0.8; stroke-linejoin: miter; stroke-linecap: square"/>
   </g>
   <g id="patch_12">
    <path d="M 66.62 302.44 
L 853.2 302.44 
" style="fill: none; stroke: #000000; stroke-width: 0.8; stroke-linejoin: miter; stroke-linecap: square"/>
   </g>
   <g id="text_33">
    <!-- [19] Kg_yz  —  State Estimate -->
    <g transform="translate(370.324375 296.44) scale(0.12 -0.12)">
     <use xlink:href="#DejaVuSans-5b"/>
     <use xlink:href="#DejaVuSans-31" transform="translate(39.013672 0)"/>
     <use xlink:href="#DejaVuSans-39" transform="translate(102.636719 0)"/>
     <use xlink:href="#DejaVuSans-5d" transform="translate(166.259766 0)"/>
     <use xlink:href="#DejaVuSans-20" transform="translate(205.273438 0)"/>
     <use xlink:href="#DejaVuSans-4b" transform="translate(237.060547 0)"/>
     <use xlink:href="#DejaVuSans-67" transform="translate(302.636719 0)"/>
     <use xlink:href="#DejaVuSans-5f" transform="translate(366.113281 0)"/>
     <use xlink:href="#DejaVuSans-79" transform="translate(416.113281 0)"/>
     <use xlink:href="#DejaVuSans-7a" transform="translate(475.292969 0)"/>
     <use xlink:href="#DejaVuSans-20" transform="translate(527.783203 0)"/>
     <use xlink:href="#DejaVuSans-20" transform="translate(559.570312 0)"/>
     <use xlink:href="#DejaVuSans-2014" transform="translate(591.357422 0)"/>
     <use xlink:href="#DejaVuSans-20" transform="translate(691.357422 0)"/>
     <use xlink:href="#DejaVuSans-20" transform="translate(723.144531 0)"/>
     <use xlink:href="#DejaVuSans-53" transform="translate(754.931641 0)"/>
     <use xlink:href="#DejaVuSans-74" transform="translate(818.408203 0)"/>
     <use xlink:href="#DejaVuSans-61" transform="translate(857.617188 0)"/>
     <use xlink:href="#DejaVuSans-74" transform="translate(918.896484 0)"/>
     <use xlink:href="#DejaVuSans-65" transform="translate(958.105469 0)"/>
     <use xlink:href="#DejaVuSans-20" transform="translate(1019.628906 0)"/>
     <use xlink:href="#DejaVuSans-45" transform="translate(1051.416016 0)"/>
     <use xlink:href="#DejaVuSans-73" transform="translate(1114.599609 0)"/>
     <use xlink:href="#DejaVuSans-74" transform="translate(1166.699219 0)"/>
     <use xlink:href="#DejaVuSans-69" transform="translate(1205.908203 0)"/>
     <use xlink:href="#DejaVuSans-6d" transform="translate(1233.691406 0)"/>
     <use xlink:href="#DejaVuSans-61" transform="translate(1331.103516 0)"/>
     <use xlink:href="#DejaVuSans-74" transform="translate(1392.382812 0)"/>
     <use xlink:href="#DejaVuSans-65" transform="translate(1431.591797 0)"/>
    </g>
   </g>
   <g id="legend_2">
    <g id="patch_13">
     <path d="M 734.342188 339.79625 
L 846.2 339.79625 
Q 848.2 339.79625 848.2 337.79625 
L 848.2 309.44 
Q 848.2 307.44 846.2 307.44 
L 734.342188 307.44 
Q 732.342188 307.44 732.342188 309.44 
L 732.342188 337.79625 
Q 732.342188 339.79625 734.342188 339.79625 
z
" style="fill: #ffffff; opacity: 0.8; stroke: #cccccc; stroke-linejoin: miter"/>
    </g>
    <g id="line2d_63">
     <path d="M 736.342188 315.538437 
L 746.342188 315.538437 
L 756.342188 315.538437 
" style="fill: none; stroke: #0000ff; stroke-width: 1.5; stroke-linecap: square"/>
    </g>
    <g id="text_34">
     <!-- Ideal (No Noise) -->
     <g transform="translate(764.342188 319.038437) scale(0.1 -0.1)">
      <use xlink:href="#DejaVuSans-49"/>
      <use xlink:href="#DejaVuSans-64" transform="translate(29.492188 0)"/>
      <use xlink:href="#DejaVuSans-65" transform="translate(92.96875 0)"/>
      <use xlink:href="#DejaVuSans-61" transform="translate(154.492188 0)"/>
      <use xlink:href="#DejaVuSans-6c" transform="translate(215.771484 0)"/>
      <use xlink:href="#DejaVuSans-20" transform="translate(243.554688 0)"/>
      <use xlink:href="#DejaVuSans-28" transform="translate(275.341797 0)"/>
      <use xlink:href="#DejaVuSans-4e" transform="translate(314.355469 0)"/>
      <use xlink:href="#DejaVuSans-6f" transform="translate(389.160156 0)"/>
      <use xlink:href="#DejaVuSans-20" transform="translate(450.341797 0)"/>
      <use xlink:href="#DejaVuSans-4e" transform="translate(482.128906 0)"/>
      <use xlink:href="#DejaVuSans-6f" transform="translate(556.933594 0)"/>
      <use xlink:href="#DejaVuSans-69" transform="translate(618.115234 0)"/>
      <use xlink:href="#DejaVuSans-73" transform="translate(645.898438 0)"/>
      <use xlink:href="#DejaVuSans-65" transform="translate(697.998047 0)"/>
      <use xlink:href="#DejaVuSans-29" transform="translate(759.521484 0)"/>
     </g>
    </g>
    <g id="line2d_64">
     <path d="M 736.342188 330.216562 
L 746.342188 330.216562 
L 756.342188 330.216562 
" style="fill: none; stroke-dasharray: 5.55,2.4; stroke-dashoffset: 0; stroke: #ff0000; stroke-width: 1.5"/>
    </g>
    <g id="text_35">
     <!-- With Full Noise -->
     <g transform="translate(764.342188 333.716562) scale(0.1 -0.1)">
      <use xlink:href="#DejaVuSans-57"/>
      <use xlink:href="#DejaVuSans-69" transform="translate(96.626953 0)"/>
      <use xlink:href="#DejaVuSans-74" transform="translate(124.410156 0)"/>
      <use xlink:href="#DejaVuSans-68" transform="translate(163.619141 0)"/>
      <use xlink:href="#DejaVuSans-20" transform="translate(226.998047 0)"/>
      <use xlink:href="#DejaVuSans-46" transform="translate(258.785156 0)"/>
      <use xlink:href="#DejaVuSans-75" transform="translate(310.804688 0)"/>
      <use xlink:href="#DejaVuSans-6c" transform="translate(374.183594 0)"/>
      <use xlink:href="#DejaVuSans-6c" transform="translate(401.966797 0)"/>
      <use xlink:href="#DejaVuSans-20" transform="translate(429.75 0)"/>
      <use xlink:href="#DejaVuSans-4e" transform="translate(461.537109 0)"/>
      <use xlink:href="#DejaVuSans-6f" transform="translate(536.341797 0)"/>
      <use xlink:href="#DejaVuSans-69" transform="translate(597.523438 0)"/>
      <use xlink:href="#DejaVuSans-73" transform="translate(625.306641 0)"/>
      <use xlink:href="#DejaVuSans-65" transform="translate(677.40625 0)"/>
     </g>
    </g>
   </g>
  </g>
 </g>
 <defs>
  <clipPath id="p4bc728e035">
   <rect x="66.62" y="26.88" width="786.58" height="231.6"/>
  </clipPath>
  <clipPath id="p23fceb3e39">
   <rect x="66.62" y="302.44" width="786.58" height="231.6"/>
  </clipPath>
 </defs>
</svg>
