<?xml version="1.0" encoding="utf-8" standalone="no"?>
<!DOCTYPE svg PUBLIC "-//W3C//DTD SVG 1.1//EN"
  "http://www.w3.org/Graphics/SVG/1.1/DTD/svg11.dtd">
<svg xmlns:xlink="http://www.w3.org/1999/xlink" width="864pt" height="576pt" viewBox="0 0 864 576" xmlns="http://www.w3.org/2000/svg" version="1.1">
 <metadata>
  <rdf:RDF xmlns:dc="http://purl.org/dc/elements/1.1/" xmlns:cc="http://creativecommons.org/ns#" xmlns:rdf="http://www.w3.org/1999/02/22-rdf-syntax-ns#">
   <cc:Work>
    <dc:type rdf:resource="http://purl.org/dc/dcmitype/StillImage"/>
    <dc:date>2026-03-03T11:38:10.092264</dc:date>
    <dc:format>image/svg+xml</dc:format>
    <dc:creator>
     <cc:Agent>
      <dc:title>Matplotlib v3.10.8, https://matplotlib.org/</dc:title>
     </cc:Agent>
    </dc:creator>
   </cc:Work>
  </rdf:RDF>
 </metadata>
 <defs>
  <style type="text/css">*{stroke-linejoin: round; stroke-linecap: butt}</style>
 </defs>
 <g id="figure_1">
  <g id="patch_1">
   <path d="M 0 576 
L 864 576 
L 864 0 
L 0 0 
z
" style="fill: #ffffff"/>
  </g>
  <g id="axes_1">
   <g id="patch_2">
    <path d="M 81.29 258.48 
L 853.2 258.48 
L 853.2 26.88 
L 81.29 26.88 
z
" style="fill: #ffffff"/>
   </g>
   <g id="matplotlib.axis_1">
    <g id="xtick_1">
     <g id="line2d_1">
      <path d="M 116.376818 258.48 
L 116.376818 26.88 
" clip-path="url(#p92cd42df48)" style="fill: none; stroke: #b0b0b0; stroke-width: 0.8; stroke-linecap: square"/>
     </g>
     <g id="line2d_2">
      <defs>
       <path id="m5a41e7de15" d="M 0 0 
L 0 3.5 
" style="stroke: #000000; stroke-width: 0.8"/>
      </defs>
      <g>
       <use xlink:href="#m5a41e7de15" x="116.376818" y="258.48" style="stroke: #000000; stroke-width: 0.8"/>
      </g>
     </g>
     <g id="text_1">
      <!-- 0 -->
      <g transform="translate(113.195568 273.078438) scale(0.1 -0.1)">
       <defs>
        <path id="DejaVuSans-30" d="M 2034 4250 
Q 1547 4250 1301 3770 
Q 1056 3291 1056 2328 
Q 1056 1369 1301 889 
Q 1547 409 2034 409 
Q 2525 409 2770 889 
Q 3016 1369 3016 2328 
Q 3016 3291 2770 3770 
Q 2525 4250 2034 4250 
z
M 2034 4750 
Q 2819 4750 3233 4129 
Q 3647 3509 3647 2328 
Q 3647 1150 3233 529 
Q 2819 -91 2034 -91 
Q 1250 -91 836 529 
Q 422 1150 422 2328 
Q 422 3509 836 4129 
Q 1250 4750 2034 4750 
z
" transform="scale(0.015625)"/>
       </defs>
       <use xlink:href="#DejaVuSans-30"/>
      </g>
     </g>
    </g>
    <g id="xtick_2">
     <g id="line2d_3">
      <path d="M 235.679158 258.48 
L 235.679158 26.88 
" clip-path="url(#p92cd42df48)" style="fill: none; stroke: #b0b0b0; stroke-width: 0.8; stroke-linecap: square"/>
     </g>
     <g id="line2d_4">
      <g>
       <use xlink:href="#m5a41e7de15" x="235.679158" y="258.48" style="stroke: #000000; stroke-width: 0.8"/>
      </g>
     </g>
     <g id="text_2">
      <!-- 50 -->
      <g transform="translate(229.316658 273.078438) scale(0.1 -0.1)">
       <defs>
        <path id="DejaVuSans-35" d="M 691 4666 
L 3169 4666 
L 3169 4134 
L 1269 4134 
L 1269 2991 
Q 1406 3038 1543 3061 
Q 1681 3084 1819 3084 
Q 2600 3084 3056 2656 
Q 3513 2228 3513 1497 
Q 3513 744 3044 326 
Q 2575 -91 1722 -91 
Q 1428 -91 1123 -41 
Q 819 9 494 109 
L 494 744 
Q 775 591 1075 516 
Q 1375 441 1709 441 
Q 2250 441 2565 725 
Q 2881 1009 2881 1497 
Q 2881 1984 2565 2268 
Q 2250 2553 1709 2553 
Q 1456 2553 1204 2497 
Q 953 2441 691 2322 
L 691 4666 
z
" transform="scale(0.015625)"/>
       </defs>
       <use xlink:href="#DejaVuSans-35"/>
       <use xlink:href="#DejaVuSans-30" transform="translate(63.623047 0)"/>
      </g>
     </g>
    </g>
    <g id="xtick_3">
     <g id="line2d_5">
      <path d="M 354.981498 258.48 
L 354.981498 26.88 
" clip-path="url(#p92cd42df48)" style="fill: none; stroke: #b0b0b0; stroke-width: 0.8; stroke-linecap: square"/>
     </g>
     <g id="line2d_6">
      <g>
       <use xlink:href="#m5a41e7de15" x="354.981498" y="258.48" style="stroke: #000000; stroke-width: 0.8"/>
      </g>
     </g>
     <g id="text_3">
      <!-- 100 -->
      <g transform="translate(345.437748 273.078438) scale(0.1 -0.1)">
       <defs>
        <path id="DejaVuSans-31" d="M 794 531 
L 1825 531 
L 1825 4091 
L 703 3866 
L 703 4441 
L 1819 4666 
L 2450 4666 
L 2450 531 
L 3481 531 
L 3481 0 
L 794 0 
L 794 531 
z
" transform="scale(0.015625)"/>
       </defs>
       <use xlink:href="#DejaVuSans-31"/>
       <use xlink:href="#DejaVuSans-30" transform="translate(63.623047 0)"/>
       <use xlink:href="#DejaVuSans-30" transform="translate(127.246094 0)"/>
      </g>
     </g>
    </g>
    <g id="xtick_4">
     <g id="line2d_7">
      <path d="M 474.283838 258.48 
L 474.283838 26.88 
" clip-path="url(#p92cd42df48)" style="fill: none; stroke: #b0b0b0; stroke-width: 0.8; stroke-linecap: square"/>
     </g>
     <g id="line2d_8">
      <g>
       <use xlink:href="#m5a41e7de15" x="474.283838" y="258.48" style="stroke: #000000; stroke-width: 0.8"/>
      </g>
     </g>
     <g id="text_4">
      <!-- 150 -->
      <g transform="translate(464.740088 273.078438) scale(0.1 -0.1)">
       <use xlink:href="#DejaVuSans-31"/>
       <use xlink:href="#DejaVuSans-35" transform="translate(63.623047 0)"/>
       <use xlink:href="#DejaVuSans-30" transform="translate(127.246094 0)"/>
      </g>
     </g>
    </g>
    <g id="xtick_5">
     <g id="line2d_9">
      <path d="M 593.586178 258.48 
L 593.586178 26.88 
" clip-path="url(#p92cd42df48)" style="fill: none; stroke: #b0b0b0; stroke-width: 0.8; stroke-linecap: square"/>
     </g>
     <g id="line2d_10">
      <g>
       <use xlink:href="#m5a41e7de15" x="593.586178" y="258.48" style="stroke: #000000; stroke-width: 0.8"/>
      </g>
     </g>
     <g id="text_5">
      <!-- 200 -->
      <g transform="translate(584.042428 273.078438) scale(0.1 -0.1)">
       <defs>
        <path id="DejaVuSans-32" d="M 1228 531 
L 3431 531 
L 3431 0 
L 469 0 
L 469 531 
Q 828 903 1448 1529 
Q 2069 2156 2228 2338 
Q 2531 2678 2651 2914 
Q 2772 3150 2772 3378 
Q 2772 3750 2511 3984 
Q 2250 4219 1831 4219 
Q 1534 4219 1204 4116 
Q 875 4013 500 3803 
L 500 4441 
Q 881 4594 1212 4672 
Q 1544 4750 1819 4750 
Q 2544 4750 2975 4387 
Q 3406 4025 3406 3419 
Q 3406 3131 3298 2873 
Q 3191 2616 2906 2266 
Q 2828 2175 2409 1742 
Q 1991 1309 1228 531 
z
" transform="scale(0.015625)"/>
       </defs>
       <use xlink:href="#DejaVuSans-32"/>
       <use xlink:href="#DejaVuSans-30" transform="translate(63.623047 0)"/>
       <use xlink:href="#DejaVuSans-30" transform="translate(127.246094 0)"/>
      </g>
     </g>
    </g>
    <g id="xtick_6">
     <g id="line2d_11">
      <path d="M 712.888518 258.48 
L 712.888518 26.88 
" clip-path="url(#p92cd42df48)" style="fill: none; stroke: #b0b0b0; stroke-width: 0.8; stroke-linecap: square"/>
     </g>
     <g id="line2d_12">
      <g>
       <use xlink:href="#m5a41e7de15" x="712.888518" y="258.48" style="stroke: #000000; stroke-width: 0.8"/>
      </g>
     </g>
     <g id="text_6">
      <!-- 250 -->
      <g transform="translate(703.344768 273.078438) scale(0.1 -0.1)">
       <use xlink:href="#DejaVuSans-32"/>
       <use xlink:href="#DejaVuSans-35" transform="translate(63.623047 0)"/>
       <use xlink:href="#DejaVuSans-30" transform="translate(127.246094 0)"/>
      </g>
     </g>
    </g>
    <g id="xtick_7">
     <g id="line2d_13">
      <path d="M 832.190858 258.48 
L 832.190858 26.88 
" clip-path="url(#p92cd42df48)" style="fill: none; stroke: #b0b0b0; stroke-width: 0.8; stroke-linecap: square"/>
     </g>
     <g id="line2d_14">
      <g>
       <use xlink:href="#m5a41e7de15" x="832.190858" y="258.48" style="stroke: #000000; stroke-width: 0.8"/>
      </g>
     </g>
     <g id="text_7">
      <!-- 300 -->
      <g transform="translate(822.647108 273.078438) scale(0.1 -0.1)">
       <defs>
        <path id="DejaVuSans-33" d="M 2597 2516 
Q 3050 2419 3304 2112 
Q 3559 1806 3559 1356 
Q 3559 666 3084 287 
Q 2609 -91 1734 -91 
Q 1441 -91 1130 -33 
Q 819 25 488 141 
L 488 750 
Q 750 597 1062 519 
Q 1375 441 1716 441 
Q 2309 441 2620 675 
Q 2931 909 2931 1356 
Q 2931 1769 2642 2001 
Q 2353 2234 1838 2234 
L 1294 2234 
L 1294 2753 
L 1863 2753 
Q 2328 2753 2575 2939 
Q 2822 3125 2822 3475 
Q 2822 3834 2567 4026 
Q 2313 4219 1838 4219 
Q 1578 4219 1281 4162 
Q 984 4106 628 3988 
L 628 4550 
Q 988 4650 1302 4700 
Q 1616 4750 1894 4750 
Q 2613 4750 3031 4423 
Q 3450 4097 3450 3541 
Q 3450 3153 3228 2886 
Q 3006 2619 2597 2516 
z
" transform="scale(0.015625)"/>
       </defs>
       <use xlink:href="#DejaVuSans-33"/>
       <use xlink:href="#DejaVuSans-30" transform="translate(63.623047 0)"/>
       <use xlink:href="#DejaVuSans-30" transform="translate(127.246094 0)"/>
      </g>
     </g>
    </g>
   </g>
   <g id="matplotlib.axis_2">
    <g id="ytick_1">
     <g id="line2d_15">
      <path d="M 81.29 249.922534 
L 853.2 249.922534 
" clip-path="url(#p92cd42df48)" style="fill: none; stroke: #b0b0b0; stroke-width: 0.8; stroke-linecap: square"/>
     </g>
     <g id="line2d_16">
      <defs>
       <path id="m654f01db3c" d="M 0 0 
L -3.5 0 
" style="stroke: #000000; stroke-width: 0.8"/>
      </defs>
      <g>
       <use xlink:href="#m654f01db3c" x="81.29" y="249.922534" style="stroke: #000000; stroke-width: 0.8"/>
      </g>
     </g>
     <g id="text_8">
      <!-- 0.0000 -->
      <g transform="translate(39.299375 253.721752) scale(0.1 -0.1)">
       <defs>
        <path id="DejaVuSans-2e" d="M 684 794 
L 1344 794 
L 1344 0 
L 684 0 
L 684 794 
z
" transform="scale(0.015625)"/>
       </defs>
       <use xlink:href="#DejaVuSans-30"/>
       <use xlink:href="#DejaVuSans-2e" transform="translate(63.623047 0)"/>
       <use xlink:href="#DejaVuSans-30" transform="translate(95.410156 0)"/>
       <use xlink:href="#DejaVuSans-30" transform="translate(159.033203 0)"/>
       <use xlink:href="#DejaVuSans-30" transform="translate(222.65625 0)"/>
       <use xlink:href="#DejaVuSans-30" transform="translate(286.279297 0)"/>
      </g>
     </g>
    </g>
    <g id="ytick_2">
     <g id="line2d_17">
      <path d="M 81.29 207.419481 
L 853.2 207.419481 
" clip-path="url(#p92cd42df48)" style="fill: none; stroke: #b0b0b0; stroke-width: 0.8; stroke-linecap: square"/>
     </g>
     <g id="line2d_18">
      <g>
       <use xlink:href="#m654f01db3c" x="81.29" y="207.419481" style="stroke: #000000; stroke-width: 0.8"/>
      </g>
     </g>
     <g id="text_9">
      <!-- 0.0002 -->
      <g transform="translate(39.299375 211.2187) scale(0.1 -0.1)">
       <use xlink:href="#DejaVuSans-30"/>
       <use xlink:href="#DejaVuSans-2e" transform="translate(63.623047 0)"/>
       <use xlink:href="#DejaVuSans-30" transform="translate(95.410156 0)"/>
       <use xlink:href="#DejaVuSans-30" transform="translate(159.033203 0)"/>
       <use xlink:href="#DejaVuSans-30" transform="translate(222.65625 0)"/>
       <use xlink:href="#DejaVuSans-32" transform="translate(286.279297 0)"/>
      </g>
     </g>
    </g>
    <g id="ytick_3">
     <g id="line2d_19">
      <path d="M 81.29 164.916429 
L 853.2 164.916429 
" clip-path="url(#p92cd42df48)" style="fill: none; stroke: #b0b0b0; stroke-width: 0.8; stroke-linecap: square"/>
     </g>
     <g id="line2d_20">
      <g>
       <use xlink:href="#m654f01db3c" x="81.29" y="164.916429" style="stroke: #000000; stroke-width: 0.8"/>
      </g>
     </g>
     <g id="text_10">
      <!-- 0.0004 -->
      <g transform="translate(39.299375 168.715648) scale(0.1 -0.1)">
       <defs>
        <path id="DejaVuSans-34" d="M 2419 4116 
L 825 1625 
L 2419 1625 
L 2419 4116 
z
M 2253 4666 
L 3047 4666 
L 3047 1625 
L 3713 1625 
L 3713 1100 
L 3047 1100 
L 3047 0 
L 2419 0 
L 2419 1100 
L 313 1100 
L 313 1709 
L 2253 4666 
z
" transform="scale(0.015625)"/>
       </defs>
       <use xlink:href="#DejaVuSans-30"/>
       <use xlink:href="#DejaVuSans-2e" transform="translate(63.623047 0)"/>
       <use xlink:href="#DejaVuSans-30" transform="translate(95.410156 0)"/>
       <use xlink:href="#DejaVuSans-30" transform="translate(159.033203 0)"/>
       <use xlink:href="#DejaVuSans-30" transform="translate(222.65625 0)"/>
       <use xlink:href="#DejaVuSans-34" transform="translate(286.279297 0)"/>
      </g>
     </g>
    </g>
    <g id="ytick_4">
     <g id="line2d_21">
      <path d="M 81.29 122.413377 
L 853.2 122.413377 
" clip-path="url(#p92cd42df48)" style="fill: none; stroke: #b0b0b0; stroke-width: 0.8; stroke-linecap: square"/>
     </g>
     <g id="line2d_22">
      <g>
       <use xlink:href="#m654f01db3c" x="81.29" y="122.413377" style="stroke: #000000; stroke-width: 0.8"/>
      </g>
     </g>
     <g id="text_11">
      <!-- 0.0006 -->
      <g transform="translate(39.299375 126.212596) scale(0.1 -0.1)">
       <defs>
        <path id="DejaVuSans-36" d="M 2113 2584 
Q 1688 2584 1439 2293 
Q 1191 2003 1191 1497 
Q 1191 994 1439 701 
Q 1688 409 2113 409 
Q 2538 409 2786 701 
Q 3034 994 3034 1497 
Q 3034 2003 2786 2293 
Q 2538 2584 2113 2584 
z
M 3366 4563 
L 3366 3988 
Q 3128 4100 2886 4159 
Q 2644 4219 2406 4219 
Q 1781 4219 1451 3797 
Q 1122 3375 1075 2522 
Q 1259 2794 1537 2939 
Q 1816 3084 2150 3084 
Q 2853 3084 3261 2657 
Q 3669 2231 3669 1497 
Q 3669 778 3244 343 
Q 2819 -91 2113 -91 
Q 1303 -91 875 529 
Q 447 1150 447 2328 
Q 447 3434 972 4092 
Q 1497 4750 2381 4750 
Q 2619 4750 2861 4703 
Q 3103 4656 3366 4563 
z
" transform="scale(0.015625)"/>
       </defs>
       <use xlink:href="#DejaVuSans-30"/>
       <use xlink:href="#DejaVuSans-2e" transform="translate(63.623047 0)"/>
       <use xlink:href="#DejaVuSans-30" transform="translate(95.410156 0)"/>
       <use xlink:href="#DejaVuSans-30" transform="translate(159.033203 0)"/>
       <use xlink:href="#DejaVuSans-30" transform="translate(222.65625 0)"/>
       <use xlink:href="#DejaVuSans-36" transform="translate(286.279297 0)"/>
      </g>
     </g>
    </g>
    <g id="ytick_5">
     <g id="line2d_23">
      <path d="M 81.29 79.910325 
L 853.2 79.910325 
" clip-path="url(#p92cd42df48)" style="fill: none; stroke: #b0b0b0; stroke-width: 0.8; stroke-linecap: square"/>
     </g>
     <g id="line2d_24">
      <g>
       <use xlink:href="#m654f01db3c" x="81.29" y="79.910325" style="stroke: #000000; stroke-width: 0.8"/>
      </g>
     </g>
     <g id="text_12">
      <!-- 0.0008 -->
      <g transform="translate(39.299375 83.709544) scale(0.1 -0.1)">
       <defs>
        <path id="DejaVuSans-38" d="M 2034 2216 
Q 1584 2216 1326 1975 
Q 1069 1734 1069 1313 
Q 1069 891 1326 650 
Q 1584 409 2034 409 
Q 2484 409 2743 651 
Q 3003 894 3003 1313 
Q 3003 1734 2745 1975 
Q 2488 2216 2034 2216 
z
M 1403 2484 
Q 997 2584 770 2862 
Q 544 3141 544 3541 
Q 544 4100 942 4425 
Q 1341 4750 2034 4750 
Q 2731 4750 3128 4425 
Q 3525 4100 3525 3541 
Q 3525 3141 3298 2862 
Q 3072 2584 2669 2484 
Q 3125 2378 3379 2068 
Q 3634 1759 3634 1313 
Q 3634 634 3220 271 
Q 2806 -91 2034 -91 
Q 1263 -91 848 271 
Q 434 634 434 1313 
Q 434 1759 690 2068 
Q 947 2378 1403 2484 
z
M 1172 3481 
Q 1172 3119 1398 2916 
Q 1625 2713 2034 2713 
Q 2441 2713 2670 2916 
Q 2900 3119 2900 3481 
Q 2900 3844 2670 4047 
Q 2441 4250 2034 4250 
Q 1625 4250 1398 4047 
Q 1172 3844 1172 3481 
z
" transform="scale(0.015625)"/>
       </defs>
       <use xlink:href="#DejaVuSans-30"/>
       <use xlink:href="#DejaVuSans-2e" transform="translate(63.623047 0)"/>
       <use xlink:href="#DejaVuSans-30" transform="translate(95.410156 0)"/>
       <use xlink:href="#DejaVuSans-30" transform="translate(159.033203 0)"/>
       <use xlink:href="#DejaVuSans-30" transform="translate(222.65625 0)"/>
       <use xlink:href="#DejaVuSans-38" transform="translate(286.279297 0)"/>
      </g>
     </g>
    </g>
    <g id="ytick_6">
     <g id="line2d_25">
      <path d="M 81.29 37.407273 
L 853.2 37.407273 
" clip-path="url(#p92cd42df48)" style="fill: none; stroke: #b0b0b0; stroke-width: 0.8; stroke-linecap: square"/>
     </g>
     <g id="line2d_26">
      <g>
       <use xlink:href="#m654f01db3c" x="81.29" y="37.407273" style="stroke: #000000; stroke-width: 0.8"/>
      </g>
     </g>
     <g id="text_13">
      <!-- 0.0010 -->
      <g transform="translate(39.299375 41.206491) scale(0.1 -0.1)">
       <use xlink:href="#DejaVuSans-30"/>
       <use xlink:href="#DejaVuSans-2e" transform="translate(63.623047 0)"/>
       <use xlink:href="#DejaVuSans-30" transform="translate(95.410156 0)"/>
       <use xlink:href="#DejaVuSans-30" transform="translate(159.033203 0)"/>
       <use xlink:href="#DejaVuSans-31" transform="translate(222.65625 0)"/>
       <use xlink:href="#DejaVuSans-30" transform="translate(286.279297 0)"/>
      </g>
     </g>
    </g>
    <g id="text_14">
     <!-- Std Dev -->
     <g transform="translate(33.219687 162.463594) rotate(-90) scale(0.1 -0.1)">
      <defs>
       <path id="DejaVuSans-53" d="M 3425 4513 
L 3425 3897 
Q 3066 4069 2747 4153 
Q 2428 4238 2131 4238 
Q 1616 4238 1336 4038 
Q 1056 3838 1056 3469 
Q 1056 3159 1242 3001 
Q 1428 2844 1947 2747 
L 2328 2669 
Q 3034 2534 3370 2195 
Q 3706 1856 3706 1288 
Q 3706 609 3251 259 
Q 2797 -91 1919 -91 
Q 1588 -91 1214 -16 
Q 841 59 441 206 
L 441 856 
Q 825 641 1194 531 
Q 1563 422 1919 422 
Q 2459 422 2753 634 
Q 3047 847 3047 1241 
Q 3047 1584 2836 1778 
Q 2625 1972 2144 2069 
L 1759 2144 
Q 1053 2284 737 2584 
Q 422 2884 422 3419 
Q 422 4038 858 4394 
Q 1294 4750 2059 4750 
Q 2388 4750 2728 4690 
Q 3069 4631 3425 4513 
z
" transform="scale(0.015625)"/>
       <path id="DejaVuSans-74" d="M 1172 4494 
L 1172 3500 
L 2356 3500 
L 2356 3053 
L 1172 3053 
L 1172 1153 
Q 1172 725 1289 603 
Q 1406 481 1766 481 
L 2356 481 
L 2356 0 
L 1766 0 
Q 1100 0 847 248 
Q 594 497 594 1153 
L 594 3053 
L 172 3053 
L 172 3500 
L 594 3500 
L 594 4494 
L 1172 4494 
z
" transform="scale(0.015625)"/>
       <path id="DejaVuSans-64" d="M 2906 2969 
L 2906 4863 
L 3481 4863 
L 3481 0 
L 2906 0 
L 2906 525 
Q 2725 213 2448 61 
Q 2172 -91 1784 -91 
Q 1150 -91 751 415 
Q 353 922 353 1747 
Q 353 2572 751 3078 
Q 1150 3584 1784 3584 
Q 2172 3584 2448 3432 
Q 2725 3281 2906 2969 
z
M 947 1747 
Q 947 1113 1208 752 
Q 1469 391 1925 391 
Q 2381 391 2643 752 
Q 2906 1113 2906 1747 
Q 2906 2381 2643 2742 
Q 2381 3103 1925 3103 
Q 1469 3103 1208 2742 
Q 947 2381 947 1747 
z
" transform="scale(0.015625)"/>
       <path id="DejaVuSans-20" transform="scale(0.015625)"/>
       <path id="DejaVuSans-44" d="M 1259 4147 
L 1259 519 
L 2022 519 
Q 2988 519 3436 956 
Q 3884 1394 3884 2338 
Q 3884 3275 3436 3711 
Q 2988 4147 2022 4147 
L 1259 4147 
z
M 628 4666 
L 1925 4666 
Q 3281 4666 3915 4102 
Q 4550 3538 4550 2338 
Q 4550 1131 3912 565 
Q 3275 0 1925 0 
L 628 0 
L 628 4666 
z
" transform="scale(0.015625)"/>
       <path id="DejaVuSans-65" d="M 3597 1894 
L 3597 1613 
L 953 1613 
Q 991 1019 1311 708 
Q 1631 397 2203 397 
Q 2534 397 2845 478 
Q 3156 559 3463 722 
L 3463 178 
Q 3153 47 2828 -22 
Q 2503 -91 2169 -91 
Q 1331 -91 842 396 
Q 353 884 353 1716 
Q 353 2575 817 3079 
Q 1281 3584 2069 3584 
Q 2775 3584 3186 3129 
Q 3597 2675 3597 1894 
z
M 3022 2063 
Q 3016 2534 2758 2815 
Q 2500 3097 2075 3097 
Q 1594 3097 1305 2825 
Q 1016 2553 972 2059 
L 3022 2063 
z
" transform="scale(0.015625)"/>
       <path id="DejaVuSans-76" d="M 191 3500 
L 800 3500 
L 1894 563 
L 2988 3500 
L 3597 3500 
L 2284 0 
L 1503 0 
L 191 3500 
z
" transform="scale(0.015625)"/>
      </defs>
      <use xlink:href="#DejaVuSans-53"/>
      <use xlink:href="#DejaVuSans-74" transform="translate(63.476562 0)"/>
      <use xlink:href="#DejaVuSans-64" transform="translate(102.685547 0)"/>
      <use xlink:href="#DejaVuSans-20" transform="translate(166.162109 0)"/>
      <use xlink:href="#DejaVuSans-44" transform="translate(197.949219 0)"/>
      <use xlink:href="#DejaVuSans-65" transform="translate(274.951172 0)"/>
      <use xlink:href="#DejaVuSans-76" transform="translate(336.474609 0)"/>
     </g>
    </g>
   </g>
   <g id="line2d_27">
    <path d="M 116.376818 228.671008 
L 217.258877 228.675168 
L 217.497482 230.041658 
L 217.736086 230.403781 
L 218.165575 230.509586 
L 219.835807 230.561234 
L 263.595906 230.844808 
L 299.100282 230.861992 
L 299.243445 243.317917 
L 299.863817 244.006852 
L 300.484189 244.2531 
L 301.629492 244.426376 
L 304.206422 244.541658 
L 310.791911 244.582826 
L 310.935074 246.343114 
L 311.74633 246.805346 
L 312.74847 246.976859 
L 314.991354 247.080314 
L 322.244936 247.110106 
L 325.871727 247.220699 
L 334.366054 247.441897 
L 336.752101 247.660028 
L 341.285589 247.771942 
L 350.257125 247.952559 
L 350.400288 228.671008 
L 451.186905 228.675159 
L 451.42551 230.041528 
L 451.664114 230.403469 
L 452.093603 230.509191 
L 453.763836 230.560788 
L 497.571655 230.844206 
L 533.02831 230.861606 
L 533.171473 243.320498 
L 533.791845 244.009428 
L 534.412217 244.255624 
L 535.55752 244.428824 
L 538.13445 244.543963 
L 544.71994 244.58493 
L 544.863102 246.343193 
L 545.674358 246.805512 
L 546.676498 246.977019 
L 548.919382 247.08044 
L 556.172964 247.110188 
L 559.799755 247.220797 
L 568.294082 247.442008 
L 570.680129 247.660137 
L 575.213618 247.772059 
L 584.185154 247.952691 
L 584.328316 37.407273 
L 630.808508 37.516249 
L 634.339857 37.819064 
L 636.773625 37.981997 
L 638.348416 37.981997 
L 638.491579 38.336305 
L 640.5913 38.506152 
L 645.315673 38.603733 
L 652.044325 38.766567 
L 661.111302 39.206289 
L 661.731675 39.206289 
L 661.874837 39.457048 
L 664.499489 39.549747 
L 677.956793 39.823841 
L 684.780887 40.090936 
L 685.114933 40.090936 
L 685.162654 44.601994 
L 685.305817 63.518547 
L 685.496701 63.735197 
L 686.164794 63.779977 
L 696.806563 63.978976 
L 696.854283 64.069269 
L 696.997446 67.526691 
L 697.236051 67.71444 
L 697.999586 67.881613 
L 699.860702 68.005586 
L 706.303029 68.120401 
L 708.498192 68.120401 
L 708.641355 69.768696 
L 709.309448 70.413509 
L 710.025262 70.589855 
L 711.790936 70.7239 
L 720.189821 71.012931 
L 720.332984 72.850571 
L 723.387124 73.035923 
L 727.443403 73.372985 
L 730.449822 73.614336 
L 731.88145 73.614336 
L 732.024613 74.50485 
L 733.838009 75.016853 
L 736.510381 75.461785 
L 741.377917 76.036847 
L 743.57308 76.036847 
L 743.716243 76.687254 
L 745.577359 77.019012 
L 748.870104 77.285974 
L 754.262569 77.525176 
L 755.264709 77.525176 
L 755.407872 77.677799 
L 760.943501 77.841956 
L 766.956338 78.148328 
L 767.099501 242.266704 
L 767.672152 242.85133 
L 768.292525 243.071814 
L 769.533269 243.231651 
L 772.587409 243.346051 
L 778.647968 243.38776 
L 778.791131 246.164171 
L 779.506945 246.656952 
L 780.318201 246.836413 
L 782.083875 246.953031 
L 787.142294 246.996663 
L 792.343876 247.11041 
L 800.408715 247.195957 
L 801.983505 247.195957 
L 802.126668 247.379359 
L 805.085366 247.649101 
L 810.143786 247.755634 
L 818.113182 247.932455 
L 818.113182 247.932455 
" clip-path="url(#p92cd42df48)" style="fill: none; stroke: #0000ff; stroke-width: 1.5; stroke-linecap: square"/>
   </g>
   <g id="line2d_28">
    <path d="M 116.376818 228.671008 
L 217.258877 228.675145 
L 217.497482 230.041538 
L 217.736086 230.403855 
L 218.165575 230.509606 
L 219.835807 230.561332 
L 263.786789 230.84515 
L 299.100282 230.862432 
L 299.243445 243.317658 
L 299.863817 244.006532 
L 300.484189 244.252752 
L 301.629492 244.426054 
L 304.206422 244.541361 
L 310.791911 244.582546 
L 310.935074 246.343109 
L 311.74633 246.805371 
L 312.74847 246.976885 
L 314.991354 247.080341 
L 322.244936 247.110128 
L 325.871727 247.22072 
L 334.366054 247.441911 
L 336.752101 247.660037 
L 341.285589 247.771948 
L 350.257125 247.952559 
L 350.400288 228.671008 
L 451.186905 228.675134 
L 451.42551 230.041415 
L 451.664114 230.403558 
L 452.093603 230.509227 
L 453.763836 230.560901 
L 497.762539 230.844558 
L 533.02831 230.86205 
L 533.171473 243.320515 
L 533.791845 244.009422 
L 534.412217 244.255611 
L 535.55752 244.428825 
L 538.13445 244.543969 
L 544.71994 244.584936 
L 544.863102 246.343225 
L 545.674358 246.805568 
L 546.676498 246.977077 
L 548.919382 247.080503 
L 556.172964 247.110257 
L 559.799755 247.220854 
L 568.294082 247.44204 
L 570.680129 247.660157 
L 575.213618 247.772078 
L 584.185154 247.952727 
L 584.328316 37.407273 
L 630.808508 37.51627 
L 634.339857 37.819134 
L 636.773625 37.981682 
L 638.348416 37.981682 
L 638.491579 38.336126 
L 640.5913 38.506336 
L 645.267952 38.603975 
L 652.044325 38.767415 
L 660.96814 39.199528 
L 661.731675 39.199528 
L 661.874837 39.447246 
L 664.499489 39.53948 
L 678.004514 39.813672 
L 684.590003 40.076352 
L 685.114933 40.076352 
L 685.162654 44.791537 
L 685.305817 63.645176 
L 685.496701 63.871164 
L 686.069352 63.915938 
L 690.507399 63.982414 
L 696.854283 64.230003 
L 696.997446 67.737727 
L 697.236051 67.944234 
L 697.951865 68.114573 
L 699.574377 68.242856 
L 705.87354 68.390326 
L 708.498192 68.390326 
L 708.641355 70.029625 
L 709.309448 70.66996 
L 710.025262 70.8445 
L 711.790936 70.980032 
L 720.189821 71.287059 
L 720.332984 73.120435 
L 722.337263 73.25918 
L 725.630008 73.472854 
L 730.354381 73.911431 
L 731.88145 73.911431 
L 732.024613 74.805983 
L 734.506102 75.465917 
L 742.666382 76.378057 
L 743.57308 76.378057 
L 743.716243 77.023495 
L 746.62722 77.454151 
L 753.212709 77.859389 
L 755.264709 77.859389 
L 755.407872 78.007603 
L 760.561733 78.162416 
L 766.431408 78.510521 
L 766.956338 78.510521 
L 767.099501 242.266722 
L 767.672152 242.851312 
L 768.292525 243.071787 
L 769.533269 243.231641 
L 772.587409 243.346051 
L 778.647968 243.387762 
L 778.791131 246.16424 
L 779.506945 246.657034 
L 780.318201 246.836495 
L 782.083875 246.953106 
L 787.142294 246.996737 
L 792.343876 247.110477 
L 800.360994 247.196008 
L 801.983505 247.196008 
L 802.126668 247.379399 
L 805.085366 247.649124 
L 810.143786 247.755657 
L 818.113182 247.932489 
L 818.113182 247.932489 
" clip-path="url(#p92cd42df48)" style="fill: none; stroke-dasharray: 5.55,2.4; stroke-dashoffset: 0; stroke: #ff0000; stroke-width: 1.5"/>
   </g>
   <g id="line2d_29">
    <path d="M 350.304846 258.48 
L 350.304846 26.88 
" clip-path="url(#p92cd42df48)" style="fill: none; stroke-dasharray: 1.5,2.475; stroke-dashoffset: 0; stroke: #808080; stroke-opacity: 0.6; stroke-width: 1.5"/>
   </g>
   <g id="line2d_30">
    <path d="M 584.232875 258.48 
L 584.232875 26.88 
" clip-path="url(#p92cd42df48)" style="fill: none; stroke-dasharray: 1.5,2.475; stroke-dashoffset: 0; stroke: #808080; stroke-opacity: 0.6; stroke-width: 1.5"/>
   </g>
   <g id="patch_3">
    <path d="M 81.29 258.48 
L 81.29 26.88 
" style="fill: none; stroke: #000000; stroke-width: 0.8; stroke-linejoin: miter; stroke-linecap: square"/>
   </g>
   <g id="patch_4">
    <path d="M 853.2 258.48 
L 853.2 26.88 
" style="fill: none; stroke: #000000; stroke-width: 0.8; stroke-linejoin: miter; stroke-linecap: square"/>
   </g>
   <g id="patch_5">
    <path d="M 81.29 258.48 
L 853.2 258.48 
" style="fill: none; stroke: #000000; stroke-width: 0.8; stroke-linejoin: miter; stroke-linecap: square"/>
   </g>
   <g id="patch_6">
    <path d="M 81.29 26.88 
L 853.2 26.88 
" style="fill: none; stroke: #000000; stroke-width: 0.8; stroke-linejoin: miter; stroke-linecap: square"/>
   </g>
   <g id="text_15">
    <!-- [20] dKg_zz  —  Uncertainty (std dev) -->
    <g transform="translate(354.655 20.88) scale(0.12 -0.12)">
     <defs>
      <path id="DejaVuSans-5b" d="M 550 4863 
L 1875 4863 
L 1875 4416 
L 1125 4416 
L 1125 -397 
L 1875 -397 
L 1875 -844 
L 550 -844 
L 550 4863 
z
" transform="scale(0.015625)"/>
      <path id="DejaVuSans-5d" d="M 1947 4863 
L 1947 -844 
L 622 -844 
L 622 -397 
L 1369 -397 
L 1369 4416 
L 622 4416 
L 622 4863 
L 1947 4863 
z
" transform="scale(0.015625)"/>
      <path id="DejaVuSans-4b" d="M 628 4666 
L 1259 4666 
L 1259 2694 
L 3353 4666 
L 4166 4666 
L 1850 2491 
L 4331 0 
L 3500 0 
L 1259 2247 
L 1259 0 
L 628 0 
L 628 4666 
z
" transform="scale(0.015625)"/>
      <path id="DejaVuSans-67" d="M 2906 1791 
Q 2906 2416 2648 2759 
Q 2391 3103 1925 3103 
Q 1463 3103 1205 2759 
Q 947 2416 947 1791 
Q 947 1169 1205 825 
Q 1463 481 1925 481 
Q 2391 481 2648 825 
Q 2906 1169 2906 1791 
z
M 3481 434 
Q 3481 -459 3084 -895 
Q 2688 -1331 1869 -1331 
Q 1566 -1331 1297 -1286 
Q 1028 -1241 775 -1147 
L 775 -588 
Q 1028 -725 1275 -790 
Q 1522 -856 1778 -856 
Q 2344 -856 2625 -561 
Q 2906 -266 2906 331 
L 2906 616 
Q 2728 306 2450 153 
Q 2172 0 1784 0 
Q 1141 0 747 490 
Q 353 981 353 1791 
Q 353 2603 747 3093 
Q 1141 3584 1784 3584 
Q 2172 3584 2450 3431 
Q 2728 3278 2906 2969 
L 2906 3500 
L 3481 3500 
L 3481 434 
z
" transform="scale(0.015625)"/>
      <path id="DejaVuSans-5f" d="M 3263 -1063 
L 3263 -1509 
L -63 -1509 
L -63 -1063 
L 3263 -1063 
z
" transform="scale(0.015625)"/>
      <path id="DejaVuSans-7a" d="M 353 3500 
L 3084 3500 
L 3084 2975 
L 922 459 
L 3084 459 
L 3084 0 
L 275 0 
L 275 525 
L 2438 3041 
L 353 3041 
L 353 3500 
z
" transform="scale(0.015625)"/>
      <path id="DejaVuSans-2014" d="M 313 1978 
L 6088 1978 
L 6088 1528 
L 313 1528 
L 313 1978 
z
" transform="scale(0.015625)"/>
      <path id="DejaVuSans-55" d="M 556 4666 
L 1191 4666 
L 1191 1831 
Q 1191 1081 1462 751 
Q 1734 422 2344 422 
Q 2950 422 3222 751 
Q 3494 1081 3494 1831 
L 3494 4666 
L 4128 4666 
L 4128 1753 
Q 4128 841 3676 375 
Q 3225 -91 2344 -91 
Q 1459 -91 1007 375 
Q 556 841 556 1753 
L 556 4666 
z
" transform="scale(0.015625)"/>
      <path id="DejaVuSans-6e" d="M 3513 2113 
L 3513 0 
L 2938 0 
L 2938 2094 
Q 2938 2591 2744 2837 
Q 2550 3084 2163 3084 
Q 1697 3084 1428 2787 
Q 1159 2491 1159 1978 
L 1159 0 
L 581 0 
L 581 3500 
L 1159 3500 
L 1159 2956 
Q 1366 3272 1645 3428 
Q 1925 3584 2291 3584 
Q 2894 3584 3203 3211 
Q 3513 2838 3513 2113 
z
" transform="scale(0.015625)"/>
      <path id="DejaVuSans-63" d="M 3122 3366 
L 3122 2828 
Q 2878 2963 2633 3030 
Q 2388 3097 2138 3097 
Q 1578 3097 1268 2742 
Q 959 2388 959 1747 
Q 959 1106 1268 751 
Q 1578 397 2138 397 
Q 2388 397 2633 464 
Q 2878 531 3122 666 
L 3122 134 
Q 2881 22 2623 -34 
Q 2366 -91 2075 -91 
Q 1284 -91 818 406 
Q 353 903 353 1747 
Q 353 2603 823 3093 
Q 1294 3584 2113 3584 
Q 2378 3584 2631 3529 
Q 2884 3475 3122 3366 
z
" transform="scale(0.015625)"/>
      <path id="DejaVuSans-72" d="M 2631 2963 
Q 2534 3019 2420 3045 
Q 2306 3072 2169 3072 
Q 1681 3072 1420 2755 
Q 1159 2438 1159 1844 
L 1159 0 
L 581 0 
L 581 3500 
L 1159 3500 
L 1159 2956 
Q 1341 3275 1631 3429 
Q 1922 3584 2338 3584 
Q 2397 3584 2469 3576 
Q 2541 3569 2628 3553 
L 2631 2963 
z
" transform="scale(0.015625)"/>
      <path id="DejaVuSans-61" d="M 2194 1759 
Q 1497 1759 1228 1600 
Q 959 1441 959 1056 
Q 959 750 1161 570 
Q 1363 391 1709 391 
Q 2188 391 2477 730 
Q 2766 1069 2766 1631 
L 2766 1759 
L 2194 1759 
z
M 3341 1997 
L 3341 0 
L 2766 0 
L 2766 531 
Q 2569 213 2275 61 
Q 1981 -91 1556 -91 
Q 1019 -91 701 211 
Q 384 513 384 1019 
Q 384 1609 779 1909 
Q 1175 2209 1959 2209 
L 2766 2209 
L 2766 2266 
Q 2766 2663 2505 2880 
Q 2244 3097 1772 3097 
Q 1472 3097 1187 3025 
Q 903 2953 641 2809 
L 641 3341 
Q 956 3463 1253 3523 
Q 1550 3584 1831 3584 
Q 2591 3584 2966 3190 
Q 3341 2797 3341 1997 
z
" transform="scale(0.015625)"/>
      <path id="DejaVuSans-69" d="M 603 3500 
L 1178 3500 
L 1178 0 
L 603 0 
L 603 3500 
z
M 603 4863 
L 1178 4863 
L 1178 4134 
L 603 4134 
L 603 4863 
z
" transform="scale(0.015625)"/>
      <path id="DejaVuSans-79" d="M 2059 -325 
Q 1816 -950 1584 -1140 
Q 1353 -1331 966 -1331 
L 506 -1331 
L 506 -850 
L 844 -850 
Q 1081 -850 1212 -737 
Q 1344 -625 1503 -206 
L 1606 56 
L 191 3500 
L 800 3500 
L 1894 763 
L 2988 3500 
L 3597 3500 
L 2059 -325 
z
" transform="scale(0.015625)"/>
      <path id="DejaVuSans-28" d="M 1984 4856 
Q 1566 4138 1362 3434 
Q 1159 2731 1159 2009 
Q 1159 1288 1364 580 
Q 1569 -128 1984 -844 
L 1484 -844 
Q 1016 -109 783 600 
Q 550 1309 550 2009 
Q 550 2706 781 3412 
Q 1013 4119 1484 4856 
L 1984 4856 
z
" transform="scale(0.015625)"/>
      <path id="DejaVuSans-73" d="M 2834 3397 
L 2834 2853 
Q 2591 2978 2328 3040 
Q 2066 3103 1784 3103 
Q 1356 3103 1142 2972 
Q 928 2841 928 2578 
Q 928 2378 1081 2264 
Q 1234 2150 1697 2047 
L 1894 2003 
Q 2506 1872 2764 1633 
Q 3022 1394 3022 966 
Q 3022 478 2636 193 
Q 2250 -91 1575 -91 
Q 1294 -91 989 -36 
Q 684 19 347 128 
L 347 722 
Q 666 556 975 473 
Q 1284 391 1588 391 
Q 1994 391 2212 530 
Q 2431 669 2431 922 
Q 2431 1156 2273 1281 
Q 2116 1406 1581 1522 
L 1381 1569 
Q 847 1681 609 1914 
Q 372 2147 372 2553 
Q 372 3047 722 3315 
Q 1072 3584 1716 3584 
Q 2034 3584 2315 3537 
Q 2597 3491 2834 3397 
z
" transform="scale(0.015625)"/>
      <path id="DejaVuSans-29" d="M 513 4856 
L 1013 4856 
Q 1481 4119 1714 3412 
Q 1947 2706 1947 2009 
Q 1947 1309 1714 600 
Q 1481 -109 1013 -844 
L 513 -844 
Q 928 -128 1133 580 
Q 1338 1288 1338 2009 
Q 1338 2731 1133 3434 
Q 928 4138 513 4856 
z
" transform="scale(0.015625)"/>
     </defs>
     <use xlink:href="#DejaVuSans-5b"/>
     <use xlink:href="#DejaVuSans-32" transform="translate(39.013672 0)"/>
     <use xlink:href="#DejaVuSans-30" transform="translate(102.636719 0)"/>
     <use xlink:href="#DejaVuSans-5d" transform="translate(166.259766 0)"/>
     <use xlink:href="#DejaVuSans-20" transform="translate(205.273438 0)"/>
     <use xlink:href="#DejaVuSans-64" transform="translate(237.060547 0)"/>
     <use xlink:href="#DejaVuSans-4b" transform="translate(300.537109 0)"/>
     <use xlink:href="#DejaVuSans-67" transform="translate(366.113281 0)"/>
     <use xlink:href="#DejaVuSans-5f" transform="translate(429.589844 0)"/>
     <use xlink:href="#DejaVuSans-7a" transform="translate(479.589844 0)"/>
     <use xlink:href="#DejaVuSans-7a" transform="translate(532.080078 0)"/>
     <use xlink:href="#DejaVuSans-20" transform="translate(584.570312 0)"/>
     <use xlink:href="#DejaVuSans-20" transform="translate(616.357422 0)"/>
     <use xlink:href="#DejaVuSans-2014" transform="translate(648.144531 0)"/>
     <use xlink:href="#DejaVuSans-20" transform="translate(748.144531 0)"/>
     <use xlink:href="#DejaVuSans-20" transform="translate(779.931641 0)"/>
     <use xlink:href="#DejaVuSans-55" transform="translate(811.71875 0)"/>
     <use xlink:href="#DejaVuSans-6e" transform="translate(884.912109 0)"/>
     <use xlink:href="#DejaVuSans-63" transform="translate(948.291016 0)"/>
     <use xlink:href="#DejaVuSans-65" transform="translate(1003.271484 0)"/>
     <use xlink:href="#DejaVuSans-72" transform="translate(1064.794922 0)"/>
     <use xlink:href="#DejaVuSans-74" transform="translate(1105.908203 0)"/>
     <use xlink:href="#DejaVuSans-61" transform="translate(1145.117188 0)"/>
     <use xlink:href="#DejaVuSans-69" transform="translate(1206.396484 0)"/>
     <use xlink:href="#DejaVuSans-6e" transform="translate(1234.179688 0)"/>
     <use xlink:href="#DejaVuSans-74" transform="translate(1297.558594 0)"/>
     <use xlink:href="#DejaVuSans-79" transform="translate(1336.767578 0)"/>
     <use xlink:href="#DejaVuSans-20" transform="translate(1395.947266 0)"/>
     <use xlink:href="#DejaVuSans-28" transform="translate(1427.734375 0)"/>
     <use xlink:href="#DejaVuSans-73" transform="translate(1466.748047 0)"/>
     <use xlink:href="#DejaVuSans-74" transform="translate(1518.847656 0)"/>
     <use xlink:href="#DejaVuSans-64" transform="translate(1558.056641 0)"/>
     <use xlink:href="#DejaVuSans-20" transform="translate(1621.533203 0)"/>
     <use xlink:href="#DejaVuSans-64" transform="translate(1653.320312 0)"/>
     <use xlink:href="#DejaVuSans-65" transform="translate(1716.796875 0)"/>
     <use xlink:href="#DejaVuSans-76" transform="translate(1778.320312 0)"/>
     <use xlink:href="#DejaVuSans-29" transform="translate(1837.5 0)"/>
    </g>
   </g>
   <g id="legend_1">
    <g id="patch_7">
     <path d="M 738.401563 64.23625 
L 846.2 64.23625 
Q 848.2 64.23625 848.2 62.23625 
L 848.2 33.88 
Q 848.2 31.88 846.2 31.88 
L 738.401563 31.88 
Q 736.401563 31.88 736.401563 33.88 
L 736.401563 62.23625 
Q 736.401563 64.23625 738.401563 64.23625 
z
" style="fill: #ffffff; opacity: 0.8; stroke: #cccccc; stroke-linejoin: miter"/>
    </g>
    <g id="line2d_31">
     <path d="M 740.401563 39.978437 
L 750.401563 39.978437 
L 760.401563 39.978437 
" style="fill: none; stroke: #0000ff; stroke-width: 1.5; stroke-linecap: square"/>
    </g>
    <g id="text_16">
     <!-- No Noise -->
     <g transform="translate(768.401563 43.478437) scale(0.1 -0.1)">
      <defs>
       <path id="DejaVuSans-4e" d="M 628 4666 
L 1478 4666 
L 3547 763 
L 3547 4666 
L 4159 4666 
L 4159 0 
L 3309 0 
L 1241 3903 
L 1241 0 
L 628 0 
L 628 4666 
z
" transform="scale(0.015625)"/>
       <path id="DejaVuSans-6f" d="M 1959 3097 
Q 1497 3097 1228 2736 
Q 959 2375 959 1747 
Q 959 1119 1226 758 
Q 1494 397 1959 397 
Q 2419 397 2687 759 
Q 2956 1122 2956 1747 
Q 2956 2369 2687 2733 
Q 2419 3097 1959 3097 
z
M 1959 3584 
Q 2709 3584 3137 3096 
Q 3566 2609 3566 1747 
Q 3566 888 3137 398 
Q 2709 -91 1959 -91 
Q 1206 -91 779 398 
Q 353 888 353 1747 
Q 353 2609 779 3096 
Q 1206 3584 1959 3584 
z
" transform="scale(0.015625)"/>
      </defs>
      <use xlink:href="#DejaVuSans-4e"/>
      <use xlink:href="#DejaVuSans-6f" transform="translate(74.804688 0)"/>
      <use xlink:href="#DejaVuSans-20" transform="translate(135.986328 0)"/>
      <use xlink:href="#DejaVuSans-4e" transform="translate(167.773438 0)"/>
      <use xlink:href="#DejaVuSans-6f" transform="translate(242.578125 0)"/>
      <use xlink:href="#DejaVuSans-69" transform="translate(303.759766 0)"/>
      <use xlink:href="#DejaVuSans-73" transform="translate(331.542969 0)"/>
      <use xlink:href="#DejaVuSans-65" transform="translate(383.642578 0)"/>
     </g>
    </g>
    <g id="line2d_32">
     <path d="M 740.401563 54.656562 
L 750.401563 54.656562 
L 760.401563 54.656562 
" style="fill: none; stroke-dasharray: 5.55,2.4; stroke-dashoffset: 0; stroke: #ff0000; stroke-width: 1.5"/>
    </g>
    <g id="text_17">
     <!-- With ARW/VRW -->
     <g transform="translate(768.401563 58.156562) scale(0.1 -0.1)">
      <defs>
       <path id="DejaVuSans-57" d="M 213 4666 
L 850 4666 
L 1831 722 
L 2809 4666 
L 3519 4666 
L 4500 722 
L 5478 4666 
L 6119 4666 
L 4947 0 
L 4153 0 
L 3169 4050 
L 2175 0 
L 1381 0 
L 213 4666 
z
" transform="scale(0.015625)"/>
       <path id="DejaVuSans-68" d="M 3513 2113 
L 3513 0 
L 2938 0 
L 2938 2094 
Q 2938 2591 2744 2837 
Q 2550 3084 2163 3084 
Q 1697 3084 1428 2787 
Q 1159 2491 1159 1978 
L 1159 0 
L 581 0 
L 581 4863 
L 1159 4863 
L 1159 2956 
Q 1366 3272 1645 3428 
Q 1925 3584 2291 3584 
Q 2894 3584 3203 3211 
Q 3513 2838 3513 2113 
z
" transform="scale(0.015625)"/>
       <path id="DejaVuSans-41" d="M 2188 4044 
L 1331 1722 
L 3047 1722 
L 2188 4044 
z
M 1831 4666 
L 2547 4666 
L 4325 0 
L 3669 0 
L 3244 1197 
L 1141 1197 
L 716 0 
L 50 0 
L 1831 4666 
z
" transform="scale(0.015625)"/>
       <path id="DejaVuSans-52" d="M 2841 2188 
Q 3044 2119 3236 1894 
Q 3428 1669 3622 1275 
L 4263 0 
L 3584 0 
L 2988 1197 
Q 2756 1666 2539 1819 
Q 2322 1972 1947 1972 
L 1259 1972 
L 1259 0 
L 628 0 
L 628 4666 
L 2053 4666 
Q 2853 4666 3247 4331 
Q 3641 3997 3641 3322 
Q 3641 2881 3436 2590 
Q 3231 2300 2841 2188 
z
M 1259 4147 
L 1259 2491 
L 2053 2491 
Q 2509 2491 2742 2702 
Q 2975 2913 2975 3322 
Q 2975 3731 2742 3939 
Q 2509 4147 2053 4147 
L 1259 4147 
z
" transform="scale(0.015625)"/>
       <path id="DejaVuSans-2f" d="M 1625 4666 
L 2156 4666 
L 531 -594 
L 0 -594 
L 1625 4666 
z
" transform="scale(0.015625)"/>
       <path id="DejaVuSans-56" d="M 1831 0 
L 50 4666 
L 709 4666 
L 2188 738 
L 3669 4666 
L 4325 4666 
L 2547 0 
L 1831 0 
z
" transform="scale(0.015625)"/>
      </defs>
      <use xlink:href="#DejaVuSans-57"/>
      <use xlink:href="#DejaVuSans-69" transform="translate(96.626953 0)"/>
      <use xlink:href="#DejaVuSans-74" transform="translate(124.410156 0)"/>
      <use xlink:href="#DejaVuSans-68" transform="translate(163.619141 0)"/>
      <use xlink:href="#DejaVuSans-20" transform="translate(226.998047 0)"/>
      <use xlink:href="#DejaVuSans-41" transform="translate(258.785156 0)"/>
      <use xlink:href="#DejaVuSans-52" transform="translate(327.193359 0)"/>
      <use xlink:href="#DejaVuSans-57" transform="translate(392.675781 0)"/>
      <use xlink:href="#DejaVuSans-2f" transform="translate(491.552734 0)"/>
      <use xlink:href="#DejaVuSans-56" transform="translate(525.244141 0)"/>
      <use xlink:href="#DejaVuSans-52" transform="translate(593.652344 0)"/>
      <use xlink:href="#DejaVuSans-57" transform="translate(659.134766 0)"/>
     </g>
    </g>
   </g>
  </g>
  <g id="axes_2">
   <g id="patch_8">
    <path d="M 81.29 534.04 
L 853.2 534.04 
L 853.2 302.44 
L 81.29 302.44 
z
" style="fill: #ffffff"/>
   </g>
   <g id="matplotlib.axis_3">
    <g id="xtick_8">
     <g id="line2d_33">
      <path d="M 116.376818 534.04 
L 116.376818 302.44 
" clip-path="url(#p244599bca4)" style="fill: none; stroke: #b0b0b0; stroke-width: 0.8; stroke-linecap: square"/>
     </g>
     <g id="line2d_34">
      <g>
       <use xlink:href="#m5a41e7de15" x="116.376818" y="534.04" style="stroke: #000000; stroke-width: 0.8"/>
      </g>
     </g>
     <g id="text_18">
      <!-- 0 -->
      <g transform="translate(113.195568 548.638438) scale(0.1 -0.1)">
       <use xlink:href="#DejaVuSans-30"/>
      </g>
     </g>
    </g>
    <g id="xtick_9">
     <g id="line2d_35">
      <path d="M 235.679158 534.04 
L 235.679158 302.44 
" clip-path="url(#p244599bca4)" style="fill: none; stroke: #b0b0b0; stroke-width: 0.8; stroke-linecap: square"/>
     </g>
     <g id="line2d_36">
      <g>
       <use xlink:href="#m5a41e7de15" x="235.679158" y="534.04" style="stroke: #000000; stroke-width: 0.8"/>
      </g>
     </g>
     <g id="text_19">
      <!-- 50 -->
      <g transform="translate(229.316658 548.638438) scale(0.1 -0.1)">
       <use xlink:href="#DejaVuSans-35"/>
       <use xlink:href="#DejaVuSans-30" transform="translate(63.623047 0)"/>
      </g>
     </g>
    </g>
    <g id="xtick_10">
     <g id="line2d_37">
      <path d="M 354.981498 534.04 
L 354.981498 302.44 
" clip-path="url(#p244599bca4)" style="fill: none; stroke: #b0b0b0; stroke-width: 0.8; stroke-linecap: square"/>
     </g>
     <g id="line2d_38">
      <g>
       <use xlink:href="#m5a41e7de15" x="354.981498" y="534.04" style="stroke: #000000; stroke-width: 0.8"/>
      </g>
     </g>
     <g id="text_20">
      <!-- 100 -->
      <g transform="translate(345.437748 548.638438) scale(0.1 -0.1)">
       <use xlink:href="#DejaVuSans-31"/>
       <use xlink:href="#DejaVuSans-30" transform="translate(63.623047 0)"/>
       <use xlink:href="#DejaVuSans-30" transform="translate(127.246094 0)"/>
      </g>
     </g>
    </g>
    <g id="xtick_11">
     <g id="line2d_39">
      <path d="M 474.283838 534.04 
L 474.283838 302.44 
" clip-path="url(#p244599bca4)" style="fill: none; stroke: #b0b0b0; stroke-width: 0.8; stroke-linecap: square"/>
     </g>
     <g id="line2d_40">
      <g>
       <use xlink:href="#m5a41e7de15" x="474.283838" y="534.04" style="stroke: #000000; stroke-width: 0.8"/>
      </g>
     </g>
     <g id="text_21">
      <!-- 150 -->
      <g transform="translate(464.740088 548.638438) scale(0.1 -0.1)">
       <use xlink:href="#DejaVuSans-31"/>
       <use xlink:href="#DejaVuSans-35" transform="translate(63.623047 0)"/>
       <use xlink:href="#DejaVuSans-30" transform="translate(127.246094 0)"/>
      </g>
     </g>
    </g>
    <g id="xtick_12">
     <g id="line2d_41">
      <path d="M 593.586178 534.04 
L 593.586178 302.44 
" clip-path="url(#p244599bca4)" style="fill: none; stroke: #b0b0b0; stroke-width: 0.8; stroke-linecap: square"/>
     </g>
     <g id="line2d_42">
      <g>
       <use xlink:href="#m5a41e7de15" x="593.586178" y="534.04" style="stroke: #000000; stroke-width: 0.8"/>
      </g>
     </g>
     <g id="text_22">
      <!-- 200 -->
      <g transform="translate(584.042428 548.638438) scale(0.1 -0.1)">
       <use xlink:href="#DejaVuSans-32"/>
       <use xlink:href="#DejaVuSans-30" transform="translate(63.623047 0)"/>
       <use xlink:href="#DejaVuSans-30" transform="translate(127.246094 0)"/>
      </g>
     </g>
    </g>
    <g id="xtick_13">
     <g id="line2d_43">
      <path d="M 712.888518 534.04 
L 712.888518 302.44 
" clip-path="url(#p244599bca4)" style="fill: none; stroke: #b0b0b0; stroke-width: 0.8; stroke-linecap: square"/>
     </g>
     <g id="line2d_44">
      <g>
       <use xlink:href="#m5a41e7de15" x="712.888518" y="534.04" style="stroke: #000000; stroke-width: 0.8"/>
      </g>
     </g>
     <g id="text_23">
      <!-- 250 -->
      <g transform="translate(703.344768 548.638438) scale(0.1 -0.1)">
       <use xlink:href="#DejaVuSans-32"/>
       <use xlink:href="#DejaVuSans-35" transform="translate(63.623047 0)"/>
       <use xlink:href="#DejaVuSans-30" transform="translate(127.246094 0)"/>
      </g>
     </g>
    </g>
    <g id="xtick_14">
     <g id="line2d_45">
      <path d="M 832.190858 534.04 
L 832.190858 302.44 
" clip-path="url(#p244599bca4)" style="fill: none; stroke: #b0b0b0; stroke-width: 0.8; stroke-linecap: square"/>
     </g>
     <g id="line2d_46">
      <g>
       <use xlink:href="#m5a41e7de15" x="832.190858" y="534.04" style="stroke: #000000; stroke-width: 0.8"/>
      </g>
     </g>
     <g id="text_24">
      <!-- 300 -->
      <g transform="translate(822.647108 548.638438) scale(0.1 -0.1)">
       <use xlink:href="#DejaVuSans-33"/>
       <use xlink:href="#DejaVuSans-30" transform="translate(63.623047 0)"/>
       <use xlink:href="#DejaVuSans-30" transform="translate(127.246094 0)"/>
      </g>
     </g>
    </g>
    <g id="text_25">
     <!-- Time (s) -->
     <g transform="translate(446.916094 562.316562) scale(0.1 -0.1)">
      <defs>
       <path id="DejaVuSans-54" d="M -19 4666 
L 3928 4666 
L 3928 4134 
L 2272 4134 
L 2272 0 
L 1638 0 
L 1638 4134 
L -19 4134 
L -19 4666 
z
" transform="scale(0.015625)"/>
       <path id="DejaVuSans-6d" d="M 3328 2828 
Q 3544 3216 3844 3400 
Q 4144 3584 4550 3584 
Q 5097 3584 5394 3201 
Q 5691 2819 5691 2113 
L 5691 0 
L 5113 0 
L 5113 2094 
Q 5113 2597 4934 2840 
Q 4756 3084 4391 3084 
Q 3944 3084 3684 2787 
Q 3425 2491 3425 1978 
L 3425 0 
L 2847 0 
L 2847 2094 
Q 2847 2600 2669 2842 
Q 2491 3084 2119 3084 
Q 1678 3084 1418 2786 
Q 1159 2488 1159 1978 
L 1159 0 
L 581 0 
L 581 3500 
L 1159 3500 
L 1159 2956 
Q 1356 3278 1631 3431 
Q 1906 3584 2284 3584 
Q 2666 3584 2933 3390 
Q 3200 3197 3328 2828 
z
" transform="scale(0.015625)"/>
      </defs>
      <use xlink:href="#DejaVuSans-54"/>
      <use xlink:href="#DejaVuSans-69" transform="translate(57.958984 0)"/>
      <use xlink:href="#DejaVuSans-6d" transform="translate(85.742188 0)"/>
      <use xlink:href="#DejaVuSans-65" transform="translate(183.154297 0)"/>
      <use xlink:href="#DejaVuSans-20" transform="translate(244.677734 0)"/>
      <use xlink:href="#DejaVuSans-28" transform="translate(276.464844 0)"/>
      <use xlink:href="#DejaVuSans-73" transform="translate(315.478516 0)"/>
      <use xlink:href="#DejaVuSans-29" transform="translate(367.578125 0)"/>
     </g>
    </g>
   </g>
   <g id="matplotlib.axis_4">
    <g id="ytick_7">
     <g id="line2d_47">
      <path d="M 81.29 520.90137 
L 853.2 520.90137 
" clip-path="url(#p244599bca4)" style="fill: none; stroke: #b0b0b0; stroke-width: 0.8; stroke-linecap: square"/>
     </g>
     <g id="line2d_48">
      <g>
       <use xlink:href="#m654f01db3c" x="81.29" y="520.90137" style="stroke: #000000; stroke-width: 0.8"/>
      </g>
     </g>
     <g id="text_26">
      <!-- −0.00010 -->
      <g transform="translate(24.557187 524.700589) scale(0.1 -0.1)">
       <defs>
        <path id="DejaVuSans-2212" d="M 678 2272 
L 4684 2272 
L 4684 1741 
L 678 1741 
L 678 2272 
z
" transform="scale(0.015625)"/>
       </defs>
       <use xlink:href="#DejaVuSans-2212"/>
       <use xlink:href="#DejaVuSans-30" transform="translate(83.789062 0)"/>
       <use xlink:href="#DejaVuSans-2e" transform="translate(147.412109 0)"/>
       <use xlink:href="#DejaVuSans-30" transform="translate(179.199219 0)"/>
       <use xlink:href="#DejaVuSans-30" transform="translate(242.822266 0)"/>
       <use xlink:href="#DejaVuSans-30" transform="translate(306.445312 0)"/>
       <use xlink:href="#DejaVuSans-31" transform="translate(370.068359 0)"/>
       <use xlink:href="#DejaVuSans-30" transform="translate(433.691406 0)"/>
      </g>
     </g>
    </g>
    <g id="ytick_8">
     <g id="line2d_49">
      <path d="M 81.29 491.496413 
L 853.2 491.496413 
" clip-path="url(#p244599bca4)" style="fill: none; stroke: #b0b0b0; stroke-width: 0.8; stroke-linecap: square"/>
     </g>
     <g id="line2d_50">
      <g>
       <use xlink:href="#m654f01db3c" x="81.29" y="491.496413" style="stroke: #000000; stroke-width: 0.8"/>
      </g>
     </g>
     <g id="text_27">
      <!-- −0.00005 -->
      <g transform="translate(24.557187 495.295632) scale(0.1 -0.1)">
       <use xlink:href="#DejaVuSans-2212"/>
       <use xlink:href="#DejaVuSans-30" transform="translate(83.789062 0)"/>
       <use xlink:href="#DejaVuSans-2e" transform="translate(147.412109 0)"/>
       <use xlink:href="#DejaVuSans-30" transform="translate(179.199219 0)"/>
       <use xlink:href="#DejaVuSans-30" transform="translate(242.822266 0)"/>
       <use xlink:href="#DejaVuSans-30" transform="translate(306.445312 0)"/>
       <use xlink:href="#DejaVuSans-30" transform="translate(370.068359 0)"/>
       <use xlink:href="#DejaVuSans-35" transform="translate(433.691406 0)"/>
      </g>
     </g>
    </g>
    <g id="ytick_9">
     <g id="line2d_51">
      <path d="M 81.29 462.091456 
L 853.2 462.091456 
" clip-path="url(#p244599bca4)" style="fill: none; stroke: #b0b0b0; stroke-width: 0.8; stroke-linecap: square"/>
     </g>
     <g id="line2d_52">
      <g>
       <use xlink:href="#m654f01db3c" x="81.29" y="462.091456" style="stroke: #000000; stroke-width: 0.8"/>
      </g>
     </g>
     <g id="text_28">
      <!-- 0.00000 -->
      <g transform="translate(32.936875 465.890675) scale(0.1 -0.1)">
       <use xlink:href="#DejaVuSans-30"/>
       <use xlink:href="#DejaVuSans-2e" transform="translate(63.623047 0)"/>
       <use xlink:href="#DejaVuSans-30" transform="translate(95.410156 0)"/>
       <use xlink:href="#DejaVuSans-30" transform="translate(159.033203 0)"/>
       <use xlink:href="#DejaVuSans-30" transform="translate(222.65625 0)"/>
       <use xlink:href="#DejaVuSans-30" transform="translate(286.279297 0)"/>
       <use xlink:href="#DejaVuSans-30" transform="translate(349.902344 0)"/>
      </g>
     </g>
    </g>
    <g id="ytick_10">
     <g id="line2d_53">
      <path d="M 81.29 432.686499 
L 853.2 432.686499 
" clip-path="url(#p244599bca4)" style="fill: none; stroke: #b0b0b0; stroke-width: 0.8; stroke-linecap: square"/>
     </g>
     <g id="line2d_54">
      <g>
       <use xlink:href="#m654f01db3c" x="81.29" y="432.686499" style="stroke: #000000; stroke-width: 0.8"/>
      </g>
     </g>
     <g id="text_29">
      <!-- 0.00005 -->
      <g transform="translate(32.936875 436.485718) scale(0.1 -0.1)">
       <use xlink:href="#DejaVuSans-30"/>
       <use xlink:href="#DejaVuSans-2e" transform="translate(63.623047 0)"/>
       <use xlink:href="#DejaVuSans-30" transform="translate(95.410156 0)"/>
       <use xlink:href="#DejaVuSans-30" transform="translate(159.033203 0)"/>
       <use xlink:href="#DejaVuSans-30" transform="translate(222.65625 0)"/>
       <use xlink:href="#DejaVuSans-30" transform="translate(286.279297 0)"/>
       <use xlink:href="#DejaVuSans-35" transform="translate(349.902344 0)"/>
      </g>
     </g>
    </g>
    <g id="ytick_11">
     <g id="line2d_55">
      <path d="M 81.29 403.281542 
L 853.2 403.281542 
" clip-path="url(#p244599bca4)" style="fill: none; stroke: #b0b0b0; stroke-width: 0.8; stroke-linecap: square"/>
     </g>
     <g id="line2d_56">
      <g>
       <use xlink:href="#m654f01db3c" x="81.29" y="403.281542" style="stroke: #000000; stroke-width: 0.8"/>
      </g>
     </g>
     <g id="text_30">
      <!-- 0.00010 -->
      <g transform="translate(32.936875 407.080761) scale(0.1 -0.1)">
       <use xlink:href="#DejaVuSans-30"/>
       <use xlink:href="#DejaVuSans-2e" transform="translate(63.623047 0)"/>
       <use xlink:href="#DejaVuSans-30" transform="translate(95.410156 0)"/>
       <use xlink:href="#DejaVuSans-30" transform="translate(159.033203 0)"/>
       <use xlink:href="#DejaVuSans-30" transform="translate(222.65625 0)"/>
       <use xlink:href="#DejaVuSans-31" transform="translate(286.279297 0)"/>
       <use xlink:href="#DejaVuSans-30" transform="translate(349.902344 0)"/>
      </g>
     </g>
    </g>
    <g id="ytick_12">
     <g id="line2d_57">
      <path d="M 81.29 373.876585 
L 853.2 373.876585 
" clip-path="url(#p244599bca4)" style="fill: none; stroke: #b0b0b0; stroke-width: 0.8; stroke-linecap: square"/>
     </g>
     <g id="line2d_58">
      <g>
       <use xlink:href="#m654f01db3c" x="81.29" y="373.876585" style="stroke: #000000; stroke-width: 0.8"/>
      </g>
     </g>
     <g id="text_31">
      <!-- 0.00015 -->
      <g transform="translate(32.936875 377.675804) scale(0.1 -0.1)">
       <use xlink:href="#DejaVuSans-30"/>
       <use xlink:href="#DejaVuSans-2e" transform="translate(63.623047 0)"/>
       <use xlink:href="#DejaVuSans-30" transform="translate(95.410156 0)"/>
       <use xlink:href="#DejaVuSans-30" transform="translate(159.033203 0)"/>
       <use xlink:href="#DejaVuSans-30" transform="translate(222.65625 0)"/>
       <use xlink:href="#DejaVuSans-31" transform="translate(286.279297 0)"/>
       <use xlink:href="#DejaVuSans-35" transform="translate(349.902344 0)"/>
      </g>
     </g>
    </g>
    <g id="ytick_13">
     <g id="line2d_59">
      <path d="M 81.29 344.471628 
L 853.2 344.471628 
" clip-path="url(#p244599bca4)" style="fill: none; stroke: #b0b0b0; stroke-width: 0.8; stroke-linecap: square"/>
     </g>
     <g id="line2d_60">
      <g>
       <use xlink:href="#m654f01db3c" x="81.29" y="344.471628" style="stroke: #000000; stroke-width: 0.8"/>
      </g>
     </g>
     <g id="text_32">
      <!-- 0.00020 -->
      <g transform="translate(32.936875 348.270847) scale(0.1 -0.1)">
       <use xlink:href="#DejaVuSans-30"/>
       <use xlink:href="#DejaVuSans-2e" transform="translate(63.623047 0)"/>
       <use xlink:href="#DejaVuSans-30" transform="translate(95.410156 0)"/>
       <use xlink:href="#DejaVuSans-30" transform="translate(159.033203 0)"/>
       <use xlink:href="#DejaVuSans-30" transform="translate(222.65625 0)"/>
       <use xlink:href="#DejaVuSans-32" transform="translate(286.279297 0)"/>
       <use xlink:href="#DejaVuSans-30" transform="translate(349.902344 0)"/>
      </g>
     </g>
    </g>
    <g id="ytick_14">
     <g id="line2d_61">
      <path d="M 81.29 315.066671 
L 853.2 315.066671 
" clip-path="url(#p244599bca4)" style="fill: none; stroke: #b0b0b0; stroke-width: 0.8; stroke-linecap: square"/>
     </g>
     <g id="line2d_62">
      <g>
       <use xlink:href="#m654f01db3c" x="81.29" y="315.066671" style="stroke: #000000; stroke-width: 0.8"/>
      </g>
     </g>
     <g id="text_33">
      <!-- 0.00025 -->
      <g transform="translate(32.936875 318.86589) scale(0.1 -0.1)">
       <use xlink:href="#DejaVuSans-30"/>
       <use xlink:href="#DejaVuSans-2e" transform="translate(63.623047 0)"/>
       <use xlink:href="#DejaVuSans-30" transform="translate(95.410156 0)"/>
       <use xlink:href="#DejaVuSans-30" transform="translate(159.033203 0)"/>
       <use xlink:href="#DejaVuSans-30" transform="translate(222.65625 0)"/>
       <use xlink:href="#DejaVuSans-32" transform="translate(286.279297 0)"/>
       <use xlink:href="#DejaVuSans-35" transform="translate(349.902344 0)"/>
      </g>
     </g>
    </g>
    <g id="text_34">
     <!-- Estimated Value -->
     <g transform="translate(18.4775 458.818906) rotate(-90) scale(0.1 -0.1)">
      <defs>
       <path id="DejaVuSans-45" d="M 628 4666 
L 3578 4666 
L 3578 4134 
L 1259 4134 
L 1259 2753 
L 3481 2753 
L 3481 2222 
L 1259 2222 
L 1259 531 
L 3634 531 
L 3634 0 
L 628 0 
L 628 4666 
z
" transform="scale(0.015625)"/>
       <path id="DejaVuSans-6c" d="M 603 4863 
L 1178 4863 
L 1178 0 
L 603 0 
L 603 4863 
z
" transform="scale(0.015625)"/>
       <path id="DejaVuSans-75" d="M 544 1381 
L 544 3500 
L 1119 3500 
L 1119 1403 
Q 1119 906 1312 657 
Q 1506 409 1894 409 
Q 2359 409 2629 706 
Q 2900 1003 2900 1516 
L 2900 3500 
L 3475 3500 
L 3475 0 
L 2900 0 
L 2900 538 
Q 2691 219 2414 64 
Q 2138 -91 1772 -91 
Q 1169 -91 856 284 
Q 544 659 544 1381 
z
M 1991 3584 
L 1991 3584 
z
" transform="scale(0.015625)"/>
      </defs>
      <use xlink:href="#DejaVuSans-45"/>
      <use xlink:href="#DejaVuSans-73" transform="translate(63.183594 0)"/>
      <use xlink:href="#DejaVuSans-74" transform="translate(115.283203 0)"/>
      <use xlink:href="#DejaVuSans-69" transform="translate(154.492188 0)"/>
      <use xlink:href="#DejaVuSans-6d" transform="translate(182.275391 0)"/>
      <use xlink:href="#DejaVuSans-61" transform="translate(279.6875 0)"/>
      <use xlink:href="#DejaVuSans-74" transform="translate(340.966797 0)"/>
      <use xlink:href="#DejaVuSans-65" transform="translate(380.175781 0)"/>
      <use xlink:href="#DejaVuSans-64" transform="translate(441.699219 0)"/>
      <use xlink:href="#DejaVuSans-20" transform="translate(505.175781 0)"/>
      <use xlink:href="#DejaVuSans-56" transform="translate(536.962891 0)"/>
      <use xlink:href="#DejaVuSans-61" transform="translate(597.621094 0)"/>
      <use xlink:href="#DejaVuSans-6c" transform="translate(658.900391 0)"/>
      <use xlink:href="#DejaVuSans-75" transform="translate(686.683594 0)"/>
      <use xlink:href="#DejaVuSans-65" transform="translate(750.0625 0)"/>
     </g>
    </g>
   </g>
   <g id="line2d_63">
    <path d="M 116.376818 462.091456 
L 124.059889 462.20217 
L 130.311331 462.561434 
L 134.176727 462.712466 
L 167.43822 462.602989 
L 169.967429 462.579798 
L 185.047245 462.470617 
L 193.875618 462.116437 
L 194.018781 461.743478 
L 196.118502 461.514084 
L 200.031619 461.393494 
L 209.623527 461.361388 
L 217.258877 461.488501 
L 217.306598 461.179404 
L 217.354319 461.189211 
L 217.783807 462.636828 
L 218.213296 462.809079 
L 219.45404 462.959183 
L 223.844366 463.210057 
L 228.568739 463.280121 
L 228.950506 463.280121 
L 229.14139 464.724921 
L 229.379995 465.222703 
L 229.761762 465.358057 
L 231.097948 465.464403 
L 238.446972 465.722674 
L 240.642135 465.722674 
L 240.785298 466.808943 
L 241.501112 467.030916 
L 242.980461 467.063642 
L 248.945578 466.891175 
L 252.333765 466.86165 
L 252.429207 466.414929 
L 252.476928 466.425165 
L 253.62223 466.668989 
L 255.483347 466.677162 
L 259.301021 466.444793 
L 262.927813 466.265395 
L 264.025394 466.265395 
L 264.168557 466.123351 
L 270.038232 465.154121 
L 273.760465 464.868475 
L 276.098791 464.978112 
L 278.293954 465.215417 
L 283.543257 465.503567 
L 288.983444 465.615025 
L 299.100282 465.598818 
L 299.243445 484.372727 
L 299.863817 484.765376 
L 300.818236 485.00607 
L 303.156562 485.310355 
L 307.069678 485.597066 
L 310.362423 485.637244 
L 310.791911 485.637244 
L 310.935074 485.052035 
L 311.74633 484.998293 
L 314.705028 485.306906 
L 318.999912 485.619398 
L 322.197215 485.654186 
L 322.43582 485.654186 
L 322.578983 485.205843 
L 325.108192 484.264392 
L 327.351076 483.84553 
L 331.025588 483.412116 
L 332.695821 483.362749 
L 334.127449 483.362749 
L 334.270612 482.226221 
L 335.893124 481.298607 
L 337.277031 480.891959 
L 339.376752 480.530065 
L 342.669497 480.209389 
L 344.721497 480.169458 
L 345.819078 480.169458 
L 345.962241 479.878562 
L 348.825497 479.431564 
L 350.257125 479.328414 
L 350.400288 462.091456 
L 440.73602 461.980378 
L 451.186905 461.987023 
L 451.377789 462.307785 
L 451.664114 462.432553 
L 452.95258 462.474421 
L 465.980395 462.52583 
L 486.261793 462.575574 
L 486.404956 462.391243 
L 489.411375 462.41175 
L 503.250446 462.175712 
L 510.217703 462.166675 
L 517.23268 462.257918 
L 527.874449 462.226901 
L 533.02831 462.226077 
L 533.123752 463.118333 
L 533.171473 463.107786 
L 534.269055 462.851689 
L 536.464218 462.798833 
L 544.71994 462.818083 
L 544.863102 463.251858 
L 546.676498 463.377605 
L 553.071103 463.488465 
L 556.793336 463.408228 
L 560.611011 463.260573 
L 568.341803 462.974251 
L 570.680129 462.789552 
L 575.929432 462.668151 
L 584.185154 462.572326 
L 584.328316 462.091456 
L 634.912509 461.981081 
L 645.936045 461.900587 
L 661.731675 461.843413 
L 661.874837 461.717804 
L 673.423304 461.720671 
L 673.70963 461.74201 
L 685.162654 461.512471 
L 685.305817 461.005547 
L 687.119213 460.994203 
L 691.032329 460.854334 
L 694.086469 460.518221 
L 694.897725 460.504036 
L 696.854283 460.495098 
L 696.997446 460.007761 
L 697.665539 460.037124 
L 701.721819 460.139969 
L 712.50675 460.267244 
L 717.708333 460.121487 
L 720.189821 460.121487 
L 720.237542 459.497911 
L 720.332984 459.512929 
L 722.003217 459.601524 
L 724.19838 459.488237 
L 726.393543 459.154897 
L 728.540985 458.60358 
L 729.638567 458.370401 
L 731.88145 458.370401 
L 732.024613 456.507603 
L 733.456241 454.797792 
L 734.41066 454.117333 
L 735.603684 453.54819 
L 737.035312 453.116862 
L 738.800986 452.822105 
L 740.996149 452.69026 
L 743.57308 452.69026 
L 743.716243 454.067658 
L 745.195592 454.983641 
L 746.579499 455.479216 
L 748.631499 455.962123 
L 751.590197 456.41523 
L 753.451314 456.533361 
L 755.264709 456.533361 
L 755.407872 457.327244 
L 756.982663 457.413883 
L 761.038942 457.435867 
L 766.956338 457.311752 
L 767.004059 460.455247 
L 767.099501 460.436301 
L 768.05392 460.089696 
L 769.58099 459.995496 
L 775.21206 459.964067 
L 778.647968 459.964427 
L 778.791131 461.828895 
L 779.602386 462.069091 
L 781.177177 462.168204 
L 786.951411 462.221497 
L 810.955041 462.164583 
L 818.113182 462.16833 
L 818.113182 462.16833 
" clip-path="url(#p244599bca4)" style="fill: none; stroke: #0000ff; stroke-width: 1.5; stroke-linecap: square"/>
   </g>
   <g id="line2d_64">
    <path d="M 116.376818 462.091456 
L 123.487238 462.200521 
L 128.259331 462.528732 
L 131.695239 462.83269 
L 136.228728 462.90897 
L 158.80073 462.90777 
L 158.991614 462.965617 
L 163.429661 462.942292 
L 172.926127 462.792498 
L 177.984547 462.947495 
L 184.235989 462.83039 
L 185.858501 462.770923 
L 193.875618 462.625366 
L 194.018781 462.482952 
L 195.641293 462.349387 
L 198.456828 462.311694 
L 201.701852 462.201463 
L 205.519527 462.177565 
L 213.441202 462.286058 
L 215.111435 462.332199 
L 217.354319 462.416276 
L 217.592923 463.342568 
L 217.688365 463.083434 
L 217.736086 463.098919 
L 218.070133 463.228166 
L 218.308737 463.204621 
L 218.499621 463.339755 
L 218.690505 463.316205 
L 219.310877 463.366325 
L 219.597203 463.564795 
L 220.169854 463.610567 
L 220.933389 463.610797 
L 222.269575 463.950985 
L 223.080831 463.92326 
L 224.369296 463.890603 
L 225.896366 463.932782 
L 228.043808 463.933785 
L 228.950506 463.933785 
L 229.093669 465.041924 
L 229.427716 465.498581 
L 229.857204 465.88131 
L 230.954785 466.052971 
L 232.815902 466.034258 
L 236.060926 466.253773 
L 240.642135 466.333914 
L 240.785298 467.550732 
L 241.35795 467.543291 
L 242.264647 467.374023 
L 243.696275 467.380277 
L 244.984741 467.35633 
L 245.795997 467.307854 
L 251.713393 466.998964 
L 252.333765 466.998964 
L 252.429207 466.065017 
L 252.476928 466.069723 
L 252.763253 466.10681 
L 253.431346 466.163475 
L 253.765393 466.200188 
L 254.338044 466.274314 
L 257.773952 466.064808 
L 258.537486 466.082965 
L 259.587347 465.921225 
L 261.066696 465.610841 
L 262.355161 465.549561 
L 264.025394 465.549561 
L 264.168557 465.349227 
L 265.122976 465.07896 
L 271.326697 463.669252 
L 272.233395 463.436968 
L 273.330977 463.233036 
L 275.717023 463.233036 
L 275.860186 463.356375 
L 283.925024 463.9985 
L 285.595257 464.012199 
L 287.408653 464.012199 
L 287.551816 464.357148 
L 288.553955 464.412704 
L 291.226328 464.432312 
L 299.100282 464.417761 
L 299.243445 488.371749 
L 299.625212 488.705331 
L 299.672933 488.648754 
L 299.720654 488.732668 
L 299.959259 489.025399 
L 300.197864 488.894127 
L 300.579631 488.582732 
L 300.865957 488.499246 
L 301.438608 488.157903 
L 301.629492 488.134426 
L 301.915817 487.910562 
L 302.488469 488.01186 
L 303.252003 487.892286 
L 304.158701 488.114295 
L 305.208562 488.217086 
L 305.494887 488.243858 
L 305.924376 488.273889 
L 306.258422 488.297607 
L 306.449306 488.323302 
L 306.831074 488.449751 
L 309.551167 488.430293 
L 310.791911 488.430293 
L 310.839632 490.593337 
L 310.935074 490.583048 
L 311.078237 490.69127 
L 311.364563 490.468964 
L 311.460004 490.397279 
L 311.698609 490.217388 
L 312.605307 490.820352 
L 313.034795 490.915261 
L 314.036935 491.300229 
L 314.466423 491.530404 
L 315.134517 491.680974 
L 315.420842 491.73108 
L 315.898052 491.811029 
L 316.518424 491.893506 
L 320.670145 492.136082 
L 322.43582 492.136082 
L 322.578983 491.268589 
L 323.056192 490.682293 
L 323.48568 490.215712 
L 324.392378 489.599515 
L 324.965029 489.487142 
L 325.48996 489.378442 
L 328.782704 489.121051 
L 334.127449 489.215022 
L 334.270612 488.818417 
L 335.463635 488.520095 
L 335.797682 488.646563 
L 336.370333 488.659724 
L 336.942984 488.798366 
L 337.324752 488.754569 
L 338.23145 488.74283 
L 338.899543 488.430025 
L 339.376752 488.217616 
L 340.044845 488.072678 
L 340.999264 487.870488 
L 343.051264 487.749357 
L 345.819078 487.755452 
L 345.962241 487.141607 
L 348.252846 486.553838 
L 348.873218 486.491242 
L 349.541311 486.456917 
L 350.257125 486.375827 
L 350.400288 462.091458 
L 362.091918 462.199866 
L 365.241499 462.279168 
L 371.731547 462.317826 
L 410.528668 462.428283 
L 414.823552 462.447561 
L 422.36346 462.555861 
L 424.94039 462.64768 
L 426.94467 462.657308 
L 427.803646 462.657308 
L 427.946809 462.844407 
L 430.666903 462.926669 
L 434.341415 462.893188 
L 439.256671 462.847603 
L 451.186905 462.805499 
L 451.330068 463.488096 
L 451.520952 463.42051 
L 451.711835 462.975325 
L 452.141324 462.898659 
L 452.236766 462.883538 
L 452.427649 462.990692 
L 452.666254 462.934622 
L 453.143463 462.8969 
L 454.050161 463.144082 
L 454.336487 463.102305 
L 454.813696 463.074595 
L 455.243185 463.124013 
L 456.770255 463.271909 
L 457.724673 463.217072 
L 458.249604 463.180749 
L 459.299464 463.217155 
L 460.11072 463.163531 
L 463.021697 463.063633 
L 463.212581 462.754767 
L 463.355744 462.730421 
L 463.880674 463.020213 
L 464.739651 463.102563 
L 467.936954 463.027455 
L 469.034535 463.105269 
L 470.418442 463.144199 
L 472.279559 463.18714 
L 474.570164 463.18714 
L 474.713326 463.371339 
L 475.38142 463.177541 
L 475.715466 463.03421 
L 477.051652 463.049781 
L 485.450537 462.832984 
L 486.261793 462.832984 
L 486.404956 461.639673 
L 486.739002 461.566663 
L 488.886444 461.487873 
L 489.602259 461.402651 
L 490.508956 461.399186 
L 492.465515 461.45884 
L 493.563096 461.347014 
L 494.803841 461.136945 
L 495.80598 461.1045 
L 499.003283 460.99728 
L 508.595191 460.041129 
L 509.645052 460.041129 
L 509.788214 460.181438 
L 517.519006 460.48515 
L 521.336681 460.477112 
L 521.479844 460.697208 
L 522.481983 460.747762 
L 525.202077 460.758235 
L 527.254077 460.741613 
L 533.02831 460.75089 
L 533.171473 461.183269 
L 533.314636 461.109588 
L 533.410078 460.970088 
L 533.457799 460.988475 
L 534.03045 461.024213 
L 534.459938 460.421044 
L 534.937148 460.08642 
L 535.414357 459.787359 
L 535.55752 459.72025 
L 535.843845 459.450588 
L 536.416497 459.470499 
L 537.180032 459.255841 
L 538.086729 459.382778 
L 539.088869 459.390739 
L 540.043288 459.427317 
L 540.472776 459.458099 
L 541.093148 459.504341 
L 542.381614 459.444496 
L 544.71994 459.444496 
L 544.815381 461.734043 
L 544.863102 461.731852 
L 545.006265 461.860385 
L 545.292591 461.656539 
L 545.388033 461.5844 
L 545.626637 461.396684 
L 546.485614 461.926381 
L 547.392312 462.013658 
L 547.8218 462.205152 
L 549.014824 462.576327 
L 549.34887 462.590765 
L 549.778359 462.635932 
L 551.925801 462.74665 
L 552.975661 462.775014 
L 556.363848 462.766727 
L 556.507011 462.289117 
L 556.98422 461.914656 
L 557.365988 461.638483 
L 558.51129 461.339494 
L 558.893058 461.30684 
L 559.417988 461.305136 
L 560.754174 461.307426 
L 561.660872 461.359064 
L 562.424407 461.472511 
L 563.235663 461.636015 
L 563.808314 461.75007 
L 564.571849 461.774665 
L 565.192221 461.825996 
L 566.385245 461.86407 
L 568.055477 461.86407 
L 568.19864 462.423896 
L 569.439384 462.841193 
L 569.72571 463.043981 
L 570.393803 463.289366 
L 570.871012 463.515339 
L 571.25278 463.552078 
L 572.016315 463.682112 
L 572.588966 463.537665 
L 575.786269 463.119949 
L 576.311199 463.157419 
L 577.217897 463.182963 
L 579.747107 463.182963 
L 579.890269 462.893411 
L 583.230735 462.6499 
L 583.99427 462.662052 
L 584.185154 462.643605 
L 584.328316 462.091595 
L 586.189433 462.186962 
L 586.5712 462.245366 
L 586.762084 462.088932 
L 587.716503 461.489984 
L 588.145991 461.522543 
L 588.57548 461.456194 
L 589.195852 461.994533 
L 589.911666 462.200582 
L 590.245712 462.279108 
L 590.436596 462.195645 
L 591.056968 462.240656 
L 591.391015 462.30568 
L 592.440876 462.555841 
L 593.013527 462.584572 
L 593.538457 462.735007 
L 595.113248 462.519477 
L 595.685899 462.412949 
L 596.783481 462.491771 
L 598.167388 462.485764 
L 598.644597 462.500118 
L 601.937342 462.523969 
L 626.656787 462.522427 
L 626.752229 462.640486 
L 626.799949 462.608069 
L 628.088415 461.235843 
L 628.279298 460.962083 
L 628.565624 461.359457 
L 628.756508 461.467339 
L 628.899671 461.56252 
L 628.995113 461.629064 
L 629.185996 461.522754 
L 629.233717 461.541761 
L 629.472322 462.148519 
L 629.663206 462.210082 
L 629.806368 462.42109 
L 629.90181 462.439875 
L 630.092694 461.990067 
L 630.426741 461.684037 
L 630.569903 461.802991 
L 630.760787 461.140783 
L 630.856229 461.294846 
L 631.094834 461.968704 
L 631.142555 461.93826 
L 631.237997 461.796741 
L 631.285717 461.857748 
L 631.333438 461.838364 
L 631.715206 460.809863 
L 632.192415 461.569592 
L 632.240136 461.527467 
L 632.335578 461.553946 
L 632.478741 461.707479 
L 632.621904 461.198568 
L 632.669625 461.331359 
L 632.717346 461.395891 
L 633.146834 460.297991 
L 633.814927 462.492577 
L 634.053532 461.669111 
L 634.292136 460.31545 
L 634.339857 460.302759 
L 634.387578 460.414784 
L 634.435299 460.298363 
L 634.530741 460.24044 
L 634.673904 461.518414 
L 634.769346 461.204371 
L 634.864788 461.074831 
L 635.00795 461.147167 
L 635.055671 461.033961 
L 635.103392 461.166767 
L 635.437439 462.100839 
L 635.48516 462.021586 
L 635.676044 462.356606 
L 635.962369 462.378505 
L 638.348416 462.378505 
L 638.443858 465.530589 
L 638.491579 465.507063 
L 638.5393 465.503341 
L 638.968788 467.31017 
L 639.016509 467.232753 
L 639.159672 467.432186 
L 639.398277 468.316377 
L 639.445997 468.30373 
L 639.780044 467.504795 
L 639.827765 467.561667 
L 639.923207 467.421271 
L 639.970928 467.348502 
L 640.018649 467.381314 
L 640.352695 467.803194 
L 640.448137 467.879768 
L 641.020788 469.050443 
L 641.068509 469.025895 
L 641.163951 468.86771 
L 641.402556 467.980128 
L 641.450277 467.972327 
L 641.927486 469.155114 
L 642.213812 469.608736 
L 642.500137 469.976726 
L 642.547858 469.938318 
L 642.6433 470.032332 
L 642.691021 469.992628 
L 642.929626 470.146863 
L 643.215951 471.172407 
L 643.788603 472.968159 
L 644.218091 473.662766 
L 644.599859 474.307511 
L 644.838463 474.457779 
L 644.981626 474.33691 
L 645.411114 474.76707 
L 645.649719 474.888911 
L 645.792882 474.976477 
L 645.840603 474.904708 
L 646.031487 474.874557 
L 646.079208 474.917627 
L 646.126929 474.862531 
L 646.460975 474.644174 
L 646.651859 474.558232 
L 647.033626 474.565687 
L 647.22451 474.530495 
L 647.367673 474.498528 
L 650.040045 474.4981 
L 650.087766 474.098259 
L 650.135487 474.107107 
L 650.374092 475.245574 
L 650.517255 475.848164 
L 650.755859 475.709215 
L 651.089906 476.223614 
L 651.28079 475.929843 
L 651.328511 476.020461 
L 651.471673 476.044971 
L 651.710278 476.561552 
L 651.757999 476.463002 
L 651.80572 476.491983 
L 652.092046 477.285945 
L 652.139766 477.123198 
L 652.33065 476.653044 
L 652.426092 476.924199 
L 652.712418 477.869851 
L 652.855581 478.241256 
L 653.046464 478.777435 
L 653.475953 481.031733 
L 653.809999 483.298243 
L 654.000883 483.823448 
L 654.048604 483.81265 
L 654.478092 485.635044 
L 654.85986 489.041336 
L 655.098464 490.483458 
L 655.289348 491.204348 
L 655.337069 491.130904 
L 655.432511 490.870328 
L 655.623395 490.573476 
L 656.052883 491.611972 
L 656.577814 494.299705 
L 656.625534 494.204186 
L 656.673255 494.242909 
L 656.816418 493.966033 
L 656.959581 494.066194 
L 657.102744 494.845502 
L 657.150465 494.83606 
L 657.245907 494.868585 
L 657.389069 495.31966 
L 657.770837 498.001862 
L 657.866279 498.435884 
L 658.391209 501.697337 
L 658.96386 503.91179 
L 659.154744 504.4653 
L 661.731675 504.4653 
L 661.874837 517.781836 
L 661.970279 517.83832 
L 662.256605 519.037228 
L 662.352047 518.833966 
L 662.49521 518.538314 
L 662.590651 518.637036 
L 662.638372 518.621943 
L 663.211024 519.7372 
L 663.401907 519.817883 
L 664.308605 522.34801 
L 664.881256 523.002489 
L 665.167582 523.025667 
L 665.692512 523.359494 
L 666.265164 523.398704 
L 666.933257 522.730777 
L 667.12414 522.722926 
L 669.271582 520.717462 
L 669.987397 520.337363 
L 670.512327 520.147613 
L 670.941815 520.064578 
L 673.423304 520.064578 
L 673.566467 517.194494 
L 673.661909 517.14676 
L 673.70963 517.233693 
L 673.75735 517.189288 
L 673.900513 517.032294 
L 673.995955 517.436083 
L 674.616327 520.263374 
L 674.711769 520.423092 
L 675.141258 521.658183 
L 675.236699 521.460718 
L 675.427583 521.321922 
L 675.523025 521.276944 
L 675.618467 521.155779 
L 675.857072 521.944748 
L 675.952514 521.86972 
L 676.191118 521.881164 
L 676.477444 521.54498 
L 676.572886 521.291391 
L 676.668328 521.405643 
L 676.716048 521.368091 
L 676.954653 521.167735 
L 677.050095 521.107663 
L 677.193258 520.915639 
L 677.622746 520.808278 
L 677.861351 520.241586 
L 677.909072 520.300338 
L 678.195398 520.590019 
L 678.290839 520.260614 
L 678.624886 518.408256 
L 678.672607 518.47963 
L 678.720328 518.465904 
L 679.388421 516.543195 
L 679.86563 515.179695 
L 680.438282 512.232014 
L 680.533723 512.372397 
L 680.629165 512.566391 
L 680.676886 512.485887 
L 680.724607 512.428332 
L 680.772328 512.540214 
L 681.010933 513.668551 
L 681.106375 513.741091 
L 681.440421 514.786616 
L 681.535863 515.154749 
L 681.583584 515.094394 
L 681.631305 514.87824 
L 681.679026 514.929984 
L 681.86991 515.446411 
L 681.917631 515.362569 
L 682.156235 515.216267 
L 682.490282 514.107603 
L 685.114933 514.107603 
L 685.162654 509.399131 
L 685.305817 480.315747 
L 685.687584 478.907836 
L 686.117073 478.778217 
L 686.355678 478.924532 
L 686.546561 478.889631 
L 687.071492 478.770247 
L 687.357817 479.070427 
L 687.405538 478.999413 
L 687.453259 479.092386 
L 687.930468 479.283817 
L 688.216794 479.189539 
L 688.407678 479.225725 
L 688.694003 479.012941 
L 688.884887 479.363744 
L 689.123492 479.888684 
L 689.505259 480.012834 
L 689.791585 480.539859 
L 689.839306 480.500596 
L 689.887027 480.601796 
L 690.03019 480.546482 
L 690.268794 480.045177 
L 690.746004 478.813141 
L 691.700422 476.820437 
L 691.939027 475.790634 
L 692.273074 474.422767 
L 692.60712 474.24382 
L 692.702562 474.459784 
L 692.750283 474.44234 
L 692.845725 474.297751 
L 693.227492 473.657168 
L 693.418376 473.238396 
L 693.943306 471.087529 
L 694.13419 470.498759 
L 694.325074 470.540628 
L 696.806563 470.540628 
L 696.854283 469.659649 
L 696.997446 504.065625 
L 697.092888 505.526391 
L 697.18833 505.479129 
L 697.331493 506.145589 
L 697.570098 508.322907 
L 697.617818 508.266656 
L 698.476795 511.445997 
L 698.619958 511.275619 
L 698.667679 511.305661 
L 698.954005 510.433237 
L 699.049447 510.566527 
L 699.192609 510.617214 
L 699.574377 511.624753 
L 699.622098 511.585074 
L 699.765261 511.193317 
L 699.908423 511.325608 
L 699.956144 511.150181 
L 700.003865 511.278886 
L 700.147028 511.285127 
L 700.385633 510.895881 
L 700.433354 510.930143 
L 700.481075 510.858227 
L 700.528796 510.838643 
L 700.671958 510.654147 
L 701.006005 511.312861 
L 701.053726 511.206724 
L 701.578656 510.980922 
L 701.76954 511.129904 
L 701.912703 511.09731 
L 702.055866 511.287914 
L 702.29447 511.817736 
L 702.342191 512.033466 
L 702.437633 511.998324 
L 702.628517 511.786445 
L 702.676238 511.753188 
L 702.723959 511.839339 
L 702.914842 512.188404 
L 703.010284 512.294855 
L 703.153447 512.55602 
L 703.29661 512.447801 
L 703.630656 512.890799 
L 704.203308 512.665239 
L 704.441912 512.814304 
L 704.537354 512.687857 
L 704.585075 512.732776 
L 704.775959 513.059857 
L 705.253168 512.459453 
L 705.444052 512.8477 
L 705.491773 512.810396 
L 705.730378 513.28184 
L 707.209727 513.173584 
L 708.498192 513.173584 
L 708.641355 502.930568 
L 709.357169 495.351741 
L 709.40489 495.402946 
L 709.500332 494.681814 
L 709.595773 494.714235 
L 709.643494 494.793426 
L 709.92982 493.643856 
L 710.025262 493.1679 
L 710.072983 493.2152 
L 710.168425 492.848028 
L 710.502471 490.768076 
L 710.597913 491.091136 
L 710.788797 491.709371 
L 711.170564 490.800122 
L 711.218285 490.842668 
L 711.266006 490.830299 
L 711.886378 488.205518 
L 711.98182 487.862434 
L 712.220425 486.437772 
L 712.745355 485.860543 
L 712.936239 486.249621 
L 713.079402 485.983297 
L 713.222565 485.649154 
L 713.270285 485.655274 
L 713.604332 485.018513 
L 713.747495 485.09 
L 713.9861 485.146197 
L 714.224704 484.395063 
L 714.415588 483.870314 
L 714.606472 484.031564 
L 714.654193 483.93175 
L 714.701914 483.989873 
L 714.749634 484.054364 
L 714.797355 483.999633 
L 714.845076 483.985212 
L 715.513169 482.266634 
L 715.608611 482.290049 
L 715.799495 482.34848 
L 715.847216 482.376816 
L 716.085821 481.717634 
L 716.181263 482.088832 
L 716.228983 482.064881 
L 716.419867 480.834142 
L 716.658472 479.665743 
L 716.849356 479.242713 
L 717.374286 476.263275 
L 717.612891 475.862262 
L 720.189821 475.862262 
L 720.332984 459.257623 
L 720.61931 458.208638 
L 720.714751 458.146505 
L 720.953356 457.30858 
L 721.048798 457.259479 
L 721.239682 457.401488 
L 721.335124 457.270597 
L 721.382845 457.319644 
L 721.526007 457.423802 
L 721.812333 458.188766 
L 721.907775 458.152758 
L 722.098659 457.82084 
L 722.14638 457.824248 
L 722.1941 457.959128 
L 722.241821 457.761673 
L 722.289542 457.639446 
L 722.337263 457.768042 
L 722.480426 457.802494 
L 722.575868 457.861124 
L 722.766752 457.30174 
L 723.100798 456.106481 
L 723.387124 455.431568 
L 723.434845 455.493711 
L 723.482566 455.592418 
L 723.530287 455.527439 
L 723.816612 454.742334 
L 723.864333 454.835982 
L 723.912054 454.77445 
L 724.007496 454.70612 
L 724.055217 454.599601 
L 724.102938 454.639349 
L 724.246101 454.763786 
L 724.436984 454.749769 
L 724.675589 455.373482 
L 724.771031 455.256889 
L 724.961915 454.906686 
L 725.009636 454.835718 
L 725.152799 455.103914 
L 725.200519 455.031562 
L 725.295961 454.634133 
L 725.343682 454.694998 
L 725.439124 454.898845 
L 725.72545 455.822047 
L 725.773171 455.624597 
L 725.820892 455.647679 
L 725.964054 455.894482 
L 726.011775 455.818809 
L 726.154938 455.974814 
L 726.25038 456.059414 
L 726.345822 455.880408 
L 726.441264 455.652659 
L 726.488985 455.7803 
L 726.536706 455.716833 
L 727.204799 451.385693 
L 727.300241 451.258253 
L 727.538845 449.683965 
L 728.540985 442.582848 
L 728.77959 441.63779 
L 728.922752 441.814959 
L 729.113636 441.09547 
L 729.30452 439.83939 
L 731.88145 439.83939 
L 732.024613 394.810191 
L 732.167776 393.349905 
L 732.35866 391.292953 
L 732.501823 391.942062 
L 732.549544 391.751648 
L 732.788148 387.690326 
L 733.122195 381.765052 
L 733.88573 371.765132 
L 734.076614 369.843995 
L 734.41066 364.765666 
L 734.506102 363.874162 
L 735.031032 360.070998 
L 735.4128 357.42701 
L 735.460521 357.473361 
L 735.555963 357.399206 
L 735.794567 355.822432 
L 735.842288 355.903375 
L 736.176335 353.946315 
L 736.271777 353.257235 
L 736.46266 352.207744 
L 736.558102 351.656109 
L 736.605823 351.381717 
L 736.653544 351.400555 
L 736.701265 351.557162 
L 736.748986 351.527939 
L 737.130753 348.177405 
L 737.226195 347.537898 
L 737.751126 341.0905 
L 738.085172 338.519175 
L 738.132893 338.550454 
L 738.276056 337.700189 
L 739.087312 328.926133 
L 739.278196 328.634789 
L 739.5168 326.430985 
L 739.946289 321.195074 
L 740.996149 312.967273 
L 743.57308 312.967273 
L 743.716243 323.635702 
L 744.193452 327.298495 
L 744.527499 330.935354 
L 744.670661 330.930236 
L 744.766103 331.348211 
L 744.813824 331.320367 
L 745.052429 331.626166 
L 745.195592 332.356711 
L 745.243313 332.228192 
L 745.481917 333.167639 
L 745.768243 334.769123 
L 745.959127 335.871818 
L 746.293173 337.445588 
L 746.531778 338.404968 
L 746.722662 339.567474 
L 747.438476 341.945711 
L 747.772522 342.59216 
L 748.106569 344.158022 
L 748.15429 344.10898 
L 748.392894 343.832463 
L 748.440615 344.009144 
L 748.583778 344.793733 
L 748.917825 346.67506 
L 749.20415 346.653573 
L 749.347313 346.464937 
L 749.633639 347.260932 
L 749.68136 347.297351 
L 750.301732 349.468446 
L 750.540336 349.358609 
L 750.635778 348.972497 
L 750.683499 349.105183 
L 750.922104 349.855467 
L 751.065267 350.041659 
L 751.160709 349.735874 
L 751.20843 349.844053 
L 751.351592 350.138721 
L 751.494755 349.751915 
L 751.590197 349.825367 
L 751.685639 349.947669 
L 751.73336 349.865999 
L 752.019685 349.069864 
L 752.115127 349.148729 
L 752.210569 349.181662 
L 752.401453 349.572198 
L 752.544616 349.861683 
L 752.78322 349.49337 
L 755.264709 349.49337 
L 755.407872 339.852458 
L 755.551035 339.767192 
L 755.83736 340.102308 
L 755.980523 340.288457 
L 756.266849 340.729058 
L 756.648616 341.320006 
L 757.412151 342.395627 
L 757.459872 342.387947 
L 757.555314 342.251752 
L 757.603035 342.29845 
L 757.793919 342.557034 
L 757.889361 342.596063 
L 758.127965 342.810345 
L 758.271128 342.636212 
L 758.462012 343.063487 
L 758.509733 342.999959 
L 758.748337 342.043089 
L 758.796058 342.069873 
L 759.034663 342.761255 
L 759.130105 342.748461 
L 759.36871 341.866027 
L 759.416431 341.88338 
L 759.511872 342.007139 
L 759.559593 341.907934 
L 759.798198 341.512279 
L 759.989082 341.542565 
L 760.179966 341.097454 
L 760.323128 341.273611 
L 760.466291 341.310526 
L 760.657175 341.556132 
L 760.848059 341.943615 
L 760.991221 341.986523 
L 761.134384 342.244937 
L 761.229826 342.054348 
L 761.277547 342.153231 
L 761.325268 342.14859 
L 761.993361 340.177902 
L 762.279687 339.187995 
L 762.327408 339.20502 
L 762.42285 339.334032 
L 762.566012 339.673829 
L 762.661454 339.547091 
L 762.756896 339.953899 
L 762.804617 339.845193 
L 762.900059 339.615483 
L 762.94778 339.642927 
L 763.138664 340.172018 
L 763.520431 341.060141 
L 763.568152 341.077565 
L 763.99764 342.773216 
L 764.331687 345.047516 
L 766.956338 345.047516 
L 767.099501 456.481593 
L 767.242664 456.361119 
L 767.385827 456.183141 
L 767.958478 456.182083 
L 768.387967 455.580193 
L 769.533269 454.769303 
L 769.819595 454.570944 
L 770.630851 454.495215 
L 771.251223 454.3774 
L 772.1102 454.495874 
L 772.921455 454.490009 
L 773.303223 454.520998 
L 774.257642 454.509354 
L 774.591688 454.597646 
L 775.021177 454.571589 
L 776.548247 454.454496 
L 778.647968 454.454496 
L 778.791131 459.898667 
L 778.934293 460.122673 
L 778.982014 460.085248 
L 779.172898 459.992314 
L 779.26834 460.050633 
L 779.316061 459.990111 
L 779.506945 459.81876 
L 779.888712 460.17246 
L 780.175038 460.498426 
L 780.461363 460.502156 
L 780.890852 460.575618 
L 781.892991 460.895295 
L 782.32248 461.091757 
L 782.990573 461.191885 
L 783.276899 461.22112 
L 783.754108 461.266257 
L 784.37448 461.307256 
L 790.291876 461.396902 
L 790.435039 460.93992 
L 790.912248 460.550513 
L 791.294016 460.264226 
L 792.439318 459.988528 
L 792.773365 459.987232 
L 793.155132 459.943094 
L 794.491319 460.053106 
L 795.016249 460.024248 
L 795.5889 460.101802 
L 796.304714 460.2423 
L 797.020528 460.387026 
L 797.6409 460.558211 
L 798.356714 460.627638 
L 799.358854 460.727637 
L 799.979226 460.736573 
L 801.983505 460.736573 
L 802.126668 461.531794 
L 803.367413 462.072142 
L 803.653738 462.299301 
L 804.321831 462.581982 
L 804.799041 462.830439 
L 805.180808 462.878679 
L 805.944343 463.030622 
L 806.469273 462.913208 
L 807.185087 462.681612 
L 808.091785 462.582657 
L 808.807599 462.50777 
L 809.571134 462.510981 
L 810.143786 462.541155 
L 811.193646 462.586578 
L 813.675135 462.586578 
L 813.818298 462.326915 
L 817.254205 462.19246 
L 817.779135 462.214702 
L 818.113182 462.18566 
L 818.113182 462.18566 
" clip-path="url(#p244599bca4)" style="fill: none; stroke-dasharray: 5.55,2.4; stroke-dashoffset: 0; stroke: #ff0000; stroke-width: 1.5"/>
   </g>
   <g id="line2d_65">
    <path d="M 350.304846 534.04 
L 350.304846 302.44 
" clip-path="url(#p244599bca4)" style="fill: none; stroke-dasharray: 1.5,2.475; stroke-dashoffset: 0; stroke: #808080; stroke-opacity: 0.6; stroke-width: 1.5"/>
   </g>
   <g id="line2d_66">
    <path d="M 584.232875 534.04 
L 584.232875 302.44 
" clip-path="url(#p244599bca4)" style="fill: none; stroke-dasharray: 1.5,2.475; stroke-dashoffset: 0; stroke: #808080; stroke-opacity: 0.6; stroke-width: 1.5"/>
   </g>
   <g id="patch_9">
    <path d="M 81.29 534.04 
L 81.29 302.44 
" style="fill: none; stroke: #000000; stroke-width: 0.8; stroke-linejoin: miter; stroke-linecap: square"/>
   </g>
   <g id="patch_10">
    <path d="M 853.2 534.04 
L 853.2 302.44 
" style="fill: none; stroke: #000000; stroke-width: 0.8; stroke-linejoin: miter; stroke-linecap: square"/>
   </g>
   <g id="patch_11">
    <path d="M 81.29 534.04 
L 853.2 534.04 
" style="fill: none; stroke: #000000; stroke-width: 0.8; stroke-linejoin: miter; stroke-linecap: square"/>
   </g>
   <g id="patch_12">
    <path d="M 81.29 302.44 
L 853.2 302.44 
" style="fill: none; stroke: #000000; stroke-width: 0.8; stroke-linejoin: miter; stroke-linecap: square"/>
   </g>
   <g id="text_35">
    <!-- [20] dKg_zz  —  State Estimate -->
    <g transform="translate(374.2525 296.44) scale(0.12 -0.12)">
     <use xlink:href="#DejaVuSans-5b"/>
     <use xlink:href="#DejaVuSans-32" transform="translate(39.013672 0)"/>
     <use xlink:href="#DejaVuSans-30" transform="translate(102.636719 0)"/>
     <use xlink:href="#DejaVuSans-5d" transform="translate(166.259766 0)"/>
     <use xlink:href="#DejaVuSans-20" transform="translate(205.273438 0)"/>
     <use xlink:href="#DejaVuSans-64" transform="translate(237.060547 0)"/>
     <use xlink:href="#DejaVuSans-4b" transform="translate(300.537109 0)"/>
     <use xlink:href="#DejaVuSans-67" transform="translate(366.113281 0)"/>
     <use xlink:href="#DejaVuSans-5f" transform="translate(429.589844 0)"/>
     <use xlink:href="#DejaVuSans-7a" transform="translate(479.589844 0)"/>
     <use xlink:href="#DejaVuSans-7a" transform="translate(532.080078 0)"/>
     <use xlink:href="#DejaVuSans-20" transform="translate(584.570312 0)"/>
     <use xlink:href="#DejaVuSans-20" transform="translate(616.357422 0)"/>
     <use xlink:href="#DejaVuSans-2014" transform="translate(648.144531 0)"/>
     <use xlink:href="#DejaVuSans-20" transform="translate(748.144531 0)"/>
     <use xlink:href="#DejaVuSans-20" transform="translate(779.931641 0)"/>
     <use xlink:href="#DejaVuSans-53" transform="translate(811.71875 0)"/>
     <use xlink:href="#DejaVuSans-74" transform="translate(875.195312 0)"/>
     <use xlink:href="#DejaVuSans-61" transform="translate(914.404297 0)"/>
     <use xlink:href="#DejaVuSans-74" transform="translate(975.683594 0)"/>
     <use xlink:href="#DejaVuSans-65" transform="translate(1014.892578 0)"/>
     <use xlink:href="#DejaVuSans-20" transform="translate(1076.416016 0)"/>
     <use xlink:href="#DejaVuSans-45" transform="translate(1108.203125 0)"/>
     <use xlink:href="#DejaVuSans-73" transform="translate(1171.386719 0)"/>
     <use xlink:href="#DejaVuSans-74" transform="translate(1223.486328 0)"/>
     <use xlink:href="#DejaVuSans-69" transform="translate(1262.695312 0)"/>
     <use xlink:href="#DejaVuSans-6d" transform="translate(1290.478516 0)"/>
     <use xlink:href="#DejaVuSans-61" transform="translate(1387.890625 0)"/>
     <use xlink:href="#DejaVuSans-74" transform="translate(1449.169922 0)"/>
     <use xlink:href="#DejaVuSans-65" transform="translate(1488.378906 0)"/>
    </g>
   </g>
   <g id="legend_2">
    <g id="patch_13">
     <path d="M 88.29 339.79625 
L 196.088437 339.79625 
Q 198.088437 339.79625 198.088437 337.79625 
L 198.088437 309.44 
Q 198.088437 307.44 196.088437 307.44 
L 88.29 307.44 
Q 86.29 307.44 86.29 309.44 
L 86.29 337.79625 
Q 86.29 339.79625 88.29 339.79625 
z
" style="fill: #ffffff; opacity: 0.8; stroke: #cccccc; stroke-linejoin: miter"/>
    </g>
    <g id="line2d_67">
     <path d="M 90.29 315.538437 
L 100.29 315.538437 
L 110.29 315.538437 
" style="fill: none; stroke: #0000ff; stroke-width: 1.5; stroke-linecap: square"/>
    </g>
    <g id="text_36">
     <!-- No Noise -->
     <g transform="translate(118.29 319.038437) scale(0.1 -0.1)">
      <use xlink:href="#DejaVuSans-4e"/>
      <use xlink:href="#DejaVuSans-6f" transform="translate(74.804688 0)"/>
      <use xlink:href="#DejaVuSans-20" transform="translate(135.986328 0)"/>
      <use xlink:href="#DejaVuSans-4e" transform="translate(167.773438 0)"/>
      <use xlink:href="#DejaVuSans-6f" transform="translate(242.578125 0)"/>
      <use xlink:href="#DejaVuSans-69" transform="translate(303.759766 0)"/>
      <use xlink:href="#DejaVuSans-73" transform="translate(331.542969 0)"/>
      <use xlink:href="#DejaVuSans-65" transform="translate(383.642578 0)"/>
     </g>
    </g>
    <g id="line2d_68">
     <path d="M 90.29 330.216562 
L 100.29 330.216562 
L 110.29 330.216562 
" style="fill: none; stroke-dasharray: 5.55,2.4; stroke-dashoffset: 0; stroke: #ff0000; stroke-width: 1.5"/>
    </g>
    <g id="text_37">
     <!-- With ARW/VRW -->
     <g transform="translate(118.29 333.716562) scale(0.1 -0.1)">
      <use xlink:href="#DejaVuSans-57"/>
      <use xlink:href="#DejaVuSans-69" transform="translate(96.626953 0)"/>
      <use xlink:href="#DejaVuSans-74" transform="translate(124.410156 0)"/>
      <use xlink:href="#DejaVuSans-68" transform="translate(163.619141 0)"/>
      <use xlink:href="#DejaVuSans-20" transform="translate(226.998047 0)"/>
      <use xlink:href="#DejaVuSans-41" transform="translate(258.785156 0)"/>
      <use xlink:href="#DejaVuSans-52" transform="translate(327.193359 0)"/>
      <use xlink:href="#DejaVuSans-57" transform="translate(392.675781 0)"/>
      <use xlink:href="#DejaVuSans-2f" transform="translate(491.552734 0)"/>
      <use xlink:href="#DejaVuSans-56" transform="translate(525.244141 0)"/>
      <use xlink:href="#DejaVuSans-52" transform="translate(593.652344 0)"/>
      <use xlink:href="#DejaVuSans-57" transform="translate(659.134766 0)"/>
     </g>
    </g>
   </g>
  </g>
 </g>
 <defs>
  <clipPath id="p92cd42df48">
   <rect x="81.29" y="26.88" width="771.91" height="231.6"/>
  </clipPath>
  <clipPath id="p244599bca4">
   <rect x="81.29" y="302.44" width="771.91" height="231.6"/>
  </clipPath>
 </defs>
</svg>
