<?xml version="1.0" encoding="utf-8" standalone="no"?>
<!DOCTYPE svg PUBLIC "-//W3C//DTD SVG 1.1//EN"
  "http://www.w3.org/Graphics/SVG/1.1/DTD/svg11.dtd">
<svg xmlns:xlink="http://www.w3.org/1999/xlink" width="864pt" height="576pt" viewBox="0 0 864 576" xmlns="http://www.w3.org/2000/svg" version="1.1">
 <metadata>
  <rdf:RDF xmlns:dc="http://purl.org/dc/elements/1.1/" xmlns:cc="http://creativecommons.org/ns#" xmlns:rdf="http://www.w3.org/1999/02/22-rdf-syntax-ns#">
   <cc:Work>
    <dc:type rdf:resource="http://purl.org/dc/dcmitype/StillImage"/>
    <dc:date>2026-03-09T19:21:59.160509</dc:date>
    <dc:format>image/svg+xml</dc:format>
    <dc:creator>
     <cc:Agent>
      <dc:title>Matplotlib v3.10.8, https://matplotlib.org/</dc:title>
     </cc:Agent>
    </dc:creator>
   </cc:Work>
  </rdf:RDF>
 </metadata>
 <defs>
  <style type="text/css">*{stroke-linejoin: round; stroke-linecap: butt}</style>
 </defs>
 <g id="figure_1">
  <g id="patch_1">
   <path d="M 0 576 
L 864 576 
L 864 0 
L 0 0 
z
" style="fill: #ffffff"/>
  </g>
  <g id="axes_1">
   <g id="patch_2">
    <path d="M 74.99 258.48 
L 853.2 258.48 
L 853.2 26.88 
L 74.99 26.88 
z
" style="fill: #ffffff"/>
   </g>
   <g id="matplotlib.axis_1">
    <g id="xtick_1">
     <g id="line2d_1">
      <path d="M 110.363182 258.48 
L 110.363182 26.88 
" clip-path="url(#p6817e46570)" style="fill: none; stroke: #b0b0b0; stroke-width: 0.8; stroke-linecap: square"/>
     </g>
     <g id="line2d_2">
      <defs>
       <path id="mbd18ff5806" d="M 0 0 
L 0 3.5 
" style="stroke: #000000; stroke-width: 0.8"/>
      </defs>
      <g>
       <use xlink:href="#mbd18ff5806" x="110.363182" y="258.48" style="stroke: #000000; stroke-width: 0.8"/>
      </g>
     </g>
     <g id="text_1">
      <!-- 0 -->
      <g transform="translate(107.181932 273.078438) scale(0.1 -0.1)">
       <defs>
        <path id="DejaVuSans-30" d="M 2034 4250 
Q 1547 4250 1301 3770 
Q 1056 3291 1056 2328 
Q 1056 1369 1301 889 
Q 1547 409 2034 409 
Q 2525 409 2770 889 
Q 3016 1369 3016 2328 
Q 3016 3291 2770 3770 
Q 2525 4250 2034 4250 
z
M 2034 4750 
Q 2819 4750 3233 4129 
Q 3647 3509 3647 2328 
Q 3647 1150 3233 529 
Q 2819 -91 2034 -91 
Q 1250 -91 836 529 
Q 422 1150 422 2328 
Q 422 3509 836 4129 
Q 1250 4750 2034 4750 
z
" transform="scale(0.015625)"/>
       </defs>
       <use xlink:href="#DejaVuSans-30"/>
      </g>
     </g>
    </g>
    <g id="xtick_2">
     <g id="line2d_3">
      <path d="M 230.639217 258.48 
L 230.639217 26.88 
" clip-path="url(#p6817e46570)" style="fill: none; stroke: #b0b0b0; stroke-width: 0.8; stroke-linecap: square"/>
     </g>
     <g id="line2d_4">
      <g>
       <use xlink:href="#mbd18ff5806" x="230.639217" y="258.48" style="stroke: #000000; stroke-width: 0.8"/>
      </g>
     </g>
     <g id="text_2">
      <!-- 50 -->
      <g transform="translate(224.276717 273.078438) scale(0.1 -0.1)">
       <defs>
        <path id="DejaVuSans-35" d="M 691 4666 
L 3169 4666 
L 3169 4134 
L 1269 4134 
L 1269 2991 
Q 1406 3038 1543 3061 
Q 1681 3084 1819 3084 
Q 2600 3084 3056 2656 
Q 3513 2228 3513 1497 
Q 3513 744 3044 326 
Q 2575 -91 1722 -91 
Q 1428 -91 1123 -41 
Q 819 9 494 109 
L 494 744 
Q 775 591 1075 516 
Q 1375 441 1709 441 
Q 2250 441 2565 725 
Q 2881 1009 2881 1497 
Q 2881 1984 2565 2268 
Q 2250 2553 1709 2553 
Q 1456 2553 1204 2497 
Q 953 2441 691 2322 
L 691 4666 
z
" transform="scale(0.015625)"/>
       </defs>
       <use xlink:href="#DejaVuSans-35"/>
       <use xlink:href="#DejaVuSans-30" transform="translate(63.623047 0)"/>
      </g>
     </g>
    </g>
    <g id="xtick_3">
     <g id="line2d_5">
      <path d="M 350.915251 258.48 
L 350.915251 26.88 
" clip-path="url(#p6817e46570)" style="fill: none; stroke: #b0b0b0; stroke-width: 0.8; stroke-linecap: square"/>
     </g>
     <g id="line2d_6">
      <g>
       <use xlink:href="#mbd18ff5806" x="350.915251" y="258.48" style="stroke: #000000; stroke-width: 0.8"/>
      </g>
     </g>
     <g id="text_3">
      <!-- 100 -->
      <g transform="translate(341.371501 273.078438) scale(0.1 -0.1)">
       <defs>
        <path id="DejaVuSans-31" d="M 794 531 
L 1825 531 
L 1825 4091 
L 703 3866 
L 703 4441 
L 1819 4666 
L 2450 4666 
L 2450 531 
L 3481 531 
L 3481 0 
L 794 0 
L 794 531 
z
" transform="scale(0.015625)"/>
       </defs>
       <use xlink:href="#DejaVuSans-31"/>
       <use xlink:href="#DejaVuSans-30" transform="translate(63.623047 0)"/>
       <use xlink:href="#DejaVuSans-30" transform="translate(127.246094 0)"/>
      </g>
     </g>
    </g>
    <g id="xtick_4">
     <g id="line2d_7">
      <path d="M 471.191286 258.48 
L 471.191286 26.88 
" clip-path="url(#p6817e46570)" style="fill: none; stroke: #b0b0b0; stroke-width: 0.8; stroke-linecap: square"/>
     </g>
     <g id="line2d_8">
      <g>
       <use xlink:href="#mbd18ff5806" x="471.191286" y="258.48" style="stroke: #000000; stroke-width: 0.8"/>
      </g>
     </g>
     <g id="text_4">
      <!-- 150 -->
      <g transform="translate(461.647536 273.078438) scale(0.1 -0.1)">
       <use xlink:href="#DejaVuSans-31"/>
       <use xlink:href="#DejaVuSans-35" transform="translate(63.623047 0)"/>
       <use xlink:href="#DejaVuSans-30" transform="translate(127.246094 0)"/>
      </g>
     </g>
    </g>
    <g id="xtick_5">
     <g id="line2d_9">
      <path d="M 591.467321 258.48 
L 591.467321 26.88 
" clip-path="url(#p6817e46570)" style="fill: none; stroke: #b0b0b0; stroke-width: 0.8; stroke-linecap: square"/>
     </g>
     <g id="line2d_10">
      <g>
       <use xlink:href="#mbd18ff5806" x="591.467321" y="258.48" style="stroke: #000000; stroke-width: 0.8"/>
      </g>
     </g>
     <g id="text_5">
      <!-- 200 -->
      <g transform="translate(581.923571 273.078438) scale(0.1 -0.1)">
       <defs>
        <path id="DejaVuSans-32" d="M 1228 531 
L 3431 531 
L 3431 0 
L 469 0 
L 469 531 
Q 828 903 1448 1529 
Q 2069 2156 2228 2338 
Q 2531 2678 2651 2914 
Q 2772 3150 2772 3378 
Q 2772 3750 2511 3984 
Q 2250 4219 1831 4219 
Q 1534 4219 1204 4116 
Q 875 4013 500 3803 
L 500 4441 
Q 881 4594 1212 4672 
Q 1544 4750 1819 4750 
Q 2544 4750 2975 4387 
Q 3406 4025 3406 3419 
Q 3406 3131 3298 2873 
Q 3191 2616 2906 2266 
Q 2828 2175 2409 1742 
Q 1991 1309 1228 531 
z
" transform="scale(0.015625)"/>
       </defs>
       <use xlink:href="#DejaVuSans-32"/>
       <use xlink:href="#DejaVuSans-30" transform="translate(63.623047 0)"/>
       <use xlink:href="#DejaVuSans-30" transform="translate(127.246094 0)"/>
      </g>
     </g>
    </g>
    <g id="xtick_6">
     <g id="line2d_11">
      <path d="M 711.743356 258.48 
L 711.743356 26.88 
" clip-path="url(#p6817e46570)" style="fill: none; stroke: #b0b0b0; stroke-width: 0.8; stroke-linecap: square"/>
     </g>
     <g id="line2d_12">
      <g>
       <use xlink:href="#mbd18ff5806" x="711.743356" y="258.48" style="stroke: #000000; stroke-width: 0.8"/>
      </g>
     </g>
     <g id="text_6">
      <!-- 250 -->
      <g transform="translate(702.199606 273.078438) scale(0.1 -0.1)">
       <use xlink:href="#DejaVuSans-32"/>
       <use xlink:href="#DejaVuSans-35" transform="translate(63.623047 0)"/>
       <use xlink:href="#DejaVuSans-30" transform="translate(127.246094 0)"/>
      </g>
     </g>
    </g>
    <g id="xtick_7">
     <g id="line2d_13">
      <path d="M 832.01939 258.48 
L 832.01939 26.88 
" clip-path="url(#p6817e46570)" style="fill: none; stroke: #b0b0b0; stroke-width: 0.8; stroke-linecap: square"/>
     </g>
     <g id="line2d_14">
      <g>
       <use xlink:href="#mbd18ff5806" x="832.01939" y="258.48" style="stroke: #000000; stroke-width: 0.8"/>
      </g>
     </g>
     <g id="text_7">
      <!-- 300 -->
      <g transform="translate(822.47564 273.078438) scale(0.1 -0.1)">
       <defs>
        <path id="DejaVuSans-33" d="M 2597 2516 
Q 3050 2419 3304 2112 
Q 3559 1806 3559 1356 
Q 3559 666 3084 287 
Q 2609 -91 1734 -91 
Q 1441 -91 1130 -33 
Q 819 25 488 141 
L 488 750 
Q 750 597 1062 519 
Q 1375 441 1716 441 
Q 2309 441 2620 675 
Q 2931 909 2931 1356 
Q 2931 1769 2642 2001 
Q 2353 2234 1838 2234 
L 1294 2234 
L 1294 2753 
L 1863 2753 
Q 2328 2753 2575 2939 
Q 2822 3125 2822 3475 
Q 2822 3834 2567 4026 
Q 2313 4219 1838 4219 
Q 1578 4219 1281 4162 
Q 984 4106 628 3988 
L 628 4550 
Q 988 4650 1302 4700 
Q 1616 4750 1894 4750 
Q 2613 4750 3031 4423 
Q 3450 4097 3450 3541 
Q 3450 3153 3228 2886 
Q 3006 2619 2597 2516 
z
" transform="scale(0.015625)"/>
       </defs>
       <use xlink:href="#DejaVuSans-33"/>
       <use xlink:href="#DejaVuSans-30" transform="translate(63.623047 0)"/>
       <use xlink:href="#DejaVuSans-30" transform="translate(127.246094 0)"/>
      </g>
     </g>
    </g>
   </g>
   <g id="matplotlib.axis_2">
    <g id="ytick_1">
     <g id="line2d_15">
      <path d="M 74.99 249.922823 
L 853.2 249.922823 
" clip-path="url(#p6817e46570)" style="fill: none; stroke: #b0b0b0; stroke-width: 0.8; stroke-linecap: square"/>
     </g>
     <g id="line2d_16">
      <defs>
       <path id="m694e768729" d="M 0 0 
L -3.5 0 
" style="stroke: #000000; stroke-width: 0.8"/>
      </defs>
      <g>
       <use xlink:href="#m694e768729" x="74.99" y="249.922823" style="stroke: #000000; stroke-width: 0.8"/>
      </g>
     </g>
     <g id="text_8">
      <!-- 0.0000 -->
      <g transform="translate(32.999375 253.722041) scale(0.1 -0.1)">
       <defs>
        <path id="DejaVuSans-2e" d="M 684 794 
L 1344 794 
L 1344 0 
L 684 0 
L 684 794 
z
" transform="scale(0.015625)"/>
       </defs>
       <use xlink:href="#DejaVuSans-30"/>
       <use xlink:href="#DejaVuSans-2e" transform="translate(63.623047 0)"/>
       <use xlink:href="#DejaVuSans-30" transform="translate(95.410156 0)"/>
       <use xlink:href="#DejaVuSans-30" transform="translate(159.033203 0)"/>
       <use xlink:href="#DejaVuSans-30" transform="translate(222.65625 0)"/>
       <use xlink:href="#DejaVuSans-30" transform="translate(286.279297 0)"/>
      </g>
     </g>
    </g>
    <g id="ytick_2">
     <g id="line2d_17">
      <path d="M 74.99 207.419713 
L 853.2 207.419713 
" clip-path="url(#p6817e46570)" style="fill: none; stroke: #b0b0b0; stroke-width: 0.8; stroke-linecap: square"/>
     </g>
     <g id="line2d_18">
      <g>
       <use xlink:href="#m694e768729" x="74.99" y="207.419713" style="stroke: #000000; stroke-width: 0.8"/>
      </g>
     </g>
     <g id="text_9">
      <!-- 0.0002 -->
      <g transform="translate(32.999375 211.218931) scale(0.1 -0.1)">
       <use xlink:href="#DejaVuSans-30"/>
       <use xlink:href="#DejaVuSans-2e" transform="translate(63.623047 0)"/>
       <use xlink:href="#DejaVuSans-30" transform="translate(95.410156 0)"/>
       <use xlink:href="#DejaVuSans-30" transform="translate(159.033203 0)"/>
       <use xlink:href="#DejaVuSans-30" transform="translate(222.65625 0)"/>
       <use xlink:href="#DejaVuSans-32" transform="translate(286.279297 0)"/>
      </g>
     </g>
    </g>
    <g id="ytick_3">
     <g id="line2d_19">
      <path d="M 74.99 164.916603 
L 853.2 164.916603 
" clip-path="url(#p6817e46570)" style="fill: none; stroke: #b0b0b0; stroke-width: 0.8; stroke-linecap: square"/>
     </g>
     <g id="line2d_20">
      <g>
       <use xlink:href="#m694e768729" x="74.99" y="164.916603" style="stroke: #000000; stroke-width: 0.8"/>
      </g>
     </g>
     <g id="text_10">
      <!-- 0.0004 -->
      <g transform="translate(32.999375 168.715821) scale(0.1 -0.1)">
       <defs>
        <path id="DejaVuSans-34" d="M 2419 4116 
L 825 1625 
L 2419 1625 
L 2419 4116 
z
M 2253 4666 
L 3047 4666 
L 3047 1625 
L 3713 1625 
L 3713 1100 
L 3047 1100 
L 3047 0 
L 2419 0 
L 2419 1100 
L 313 1100 
L 313 1709 
L 2253 4666 
z
" transform="scale(0.015625)"/>
       </defs>
       <use xlink:href="#DejaVuSans-30"/>
       <use xlink:href="#DejaVuSans-2e" transform="translate(63.623047 0)"/>
       <use xlink:href="#DejaVuSans-30" transform="translate(95.410156 0)"/>
       <use xlink:href="#DejaVuSans-30" transform="translate(159.033203 0)"/>
       <use xlink:href="#DejaVuSans-30" transform="translate(222.65625 0)"/>
       <use xlink:href="#DejaVuSans-34" transform="translate(286.279297 0)"/>
      </g>
     </g>
    </g>
    <g id="ytick_4">
     <g id="line2d_21">
      <path d="M 74.99 122.413493 
L 853.2 122.413493 
" clip-path="url(#p6817e46570)" style="fill: none; stroke: #b0b0b0; stroke-width: 0.8; stroke-linecap: square"/>
     </g>
     <g id="line2d_22">
      <g>
       <use xlink:href="#m694e768729" x="74.99" y="122.413493" style="stroke: #000000; stroke-width: 0.8"/>
      </g>
     </g>
     <g id="text_11">
      <!-- 0.0006 -->
      <g transform="translate(32.999375 126.212711) scale(0.1 -0.1)">
       <defs>
        <path id="DejaVuSans-36" d="M 2113 2584 
Q 1688 2584 1439 2293 
Q 1191 2003 1191 1497 
Q 1191 994 1439 701 
Q 1688 409 2113 409 
Q 2538 409 2786 701 
Q 3034 994 3034 1497 
Q 3034 2003 2786 2293 
Q 2538 2584 2113 2584 
z
M 3366 4563 
L 3366 3988 
Q 3128 4100 2886 4159 
Q 2644 4219 2406 4219 
Q 1781 4219 1451 3797 
Q 1122 3375 1075 2522 
Q 1259 2794 1537 2939 
Q 1816 3084 2150 3084 
Q 2853 3084 3261 2657 
Q 3669 2231 3669 1497 
Q 3669 778 3244 343 
Q 2819 -91 2113 -91 
Q 1303 -91 875 529 
Q 447 1150 447 2328 
Q 447 3434 972 4092 
Q 1497 4750 2381 4750 
Q 2619 4750 2861 4703 
Q 3103 4656 3366 4563 
z
" transform="scale(0.015625)"/>
       </defs>
       <use xlink:href="#DejaVuSans-30"/>
       <use xlink:href="#DejaVuSans-2e" transform="translate(63.623047 0)"/>
       <use xlink:href="#DejaVuSans-30" transform="translate(95.410156 0)"/>
       <use xlink:href="#DejaVuSans-30" transform="translate(159.033203 0)"/>
       <use xlink:href="#DejaVuSans-30" transform="translate(222.65625 0)"/>
       <use xlink:href="#DejaVuSans-36" transform="translate(286.279297 0)"/>
      </g>
     </g>
    </g>
    <g id="ytick_5">
     <g id="line2d_23">
      <path d="M 74.99 79.910383 
L 853.2 79.910383 
" clip-path="url(#p6817e46570)" style="fill: none; stroke: #b0b0b0; stroke-width: 0.8; stroke-linecap: square"/>
     </g>
     <g id="line2d_24">
      <g>
       <use xlink:href="#m694e768729" x="74.99" y="79.910383" style="stroke: #000000; stroke-width: 0.8"/>
      </g>
     </g>
     <g id="text_12">
      <!-- 0.0008 -->
      <g transform="translate(32.999375 83.709601) scale(0.1 -0.1)">
       <defs>
        <path id="DejaVuSans-38" d="M 2034 2216 
Q 1584 2216 1326 1975 
Q 1069 1734 1069 1313 
Q 1069 891 1326 650 
Q 1584 409 2034 409 
Q 2484 409 2743 651 
Q 3003 894 3003 1313 
Q 3003 1734 2745 1975 
Q 2488 2216 2034 2216 
z
M 1403 2484 
Q 997 2584 770 2862 
Q 544 3141 544 3541 
Q 544 4100 942 4425 
Q 1341 4750 2034 4750 
Q 2731 4750 3128 4425 
Q 3525 4100 3525 3541 
Q 3525 3141 3298 2862 
Q 3072 2584 2669 2484 
Q 3125 2378 3379 2068 
Q 3634 1759 3634 1313 
Q 3634 634 3220 271 
Q 2806 -91 2034 -91 
Q 1263 -91 848 271 
Q 434 634 434 1313 
Q 434 1759 690 2068 
Q 947 2378 1403 2484 
z
M 1172 3481 
Q 1172 3119 1398 2916 
Q 1625 2713 2034 2713 
Q 2441 2713 2670 2916 
Q 2900 3119 2900 3481 
Q 2900 3844 2670 4047 
Q 2441 4250 2034 4250 
Q 1625 4250 1398 4047 
Q 1172 3844 1172 3481 
z
" transform="scale(0.015625)"/>
       </defs>
       <use xlink:href="#DejaVuSans-30"/>
       <use xlink:href="#DejaVuSans-2e" transform="translate(63.623047 0)"/>
       <use xlink:href="#DejaVuSans-30" transform="translate(95.410156 0)"/>
       <use xlink:href="#DejaVuSans-30" transform="translate(159.033203 0)"/>
       <use xlink:href="#DejaVuSans-30" transform="translate(222.65625 0)"/>
       <use xlink:href="#DejaVuSans-38" transform="translate(286.279297 0)"/>
      </g>
     </g>
    </g>
    <g id="ytick_6">
     <g id="line2d_25">
      <path d="M 74.99 37.407273 
L 853.2 37.407273 
" clip-path="url(#p6817e46570)" style="fill: none; stroke: #b0b0b0; stroke-width: 0.8; stroke-linecap: square"/>
     </g>
     <g id="line2d_26">
      <g>
       <use xlink:href="#m694e768729" x="74.99" y="37.407273" style="stroke: #000000; stroke-width: 0.8"/>
      </g>
     </g>
     <g id="text_13">
      <!-- 0.0010 -->
      <g transform="translate(32.999375 41.206491) scale(0.1 -0.1)">
       <use xlink:href="#DejaVuSans-30"/>
       <use xlink:href="#DejaVuSans-2e" transform="translate(63.623047 0)"/>
       <use xlink:href="#DejaVuSans-30" transform="translate(95.410156 0)"/>
       <use xlink:href="#DejaVuSans-30" transform="translate(159.033203 0)"/>
       <use xlink:href="#DejaVuSans-31" transform="translate(222.65625 0)"/>
       <use xlink:href="#DejaVuSans-30" transform="translate(286.279297 0)"/>
      </g>
     </g>
    </g>
    <g id="text_14">
     <!-- Std Dev -->
     <g transform="translate(26.919687 162.463594) rotate(-90) scale(0.1 -0.1)">
      <defs>
       <path id="DejaVuSans-53" d="M 3425 4513 
L 3425 3897 
Q 3066 4069 2747 4153 
Q 2428 4238 2131 4238 
Q 1616 4238 1336 4038 
Q 1056 3838 1056 3469 
Q 1056 3159 1242 3001 
Q 1428 2844 1947 2747 
L 2328 2669 
Q 3034 2534 3370 2195 
Q 3706 1856 3706 1288 
Q 3706 609 3251 259 
Q 2797 -91 1919 -91 
Q 1588 -91 1214 -16 
Q 841 59 441 206 
L 441 856 
Q 825 641 1194 531 
Q 1563 422 1919 422 
Q 2459 422 2753 634 
Q 3047 847 3047 1241 
Q 3047 1584 2836 1778 
Q 2625 1972 2144 2069 
L 1759 2144 
Q 1053 2284 737 2584 
Q 422 2884 422 3419 
Q 422 4038 858 4394 
Q 1294 4750 2059 4750 
Q 2388 4750 2728 4690 
Q 3069 4631 3425 4513 
z
" transform="scale(0.015625)"/>
       <path id="DejaVuSans-74" d="M 1172 4494 
L 1172 3500 
L 2356 3500 
L 2356 3053 
L 1172 3053 
L 1172 1153 
Q 1172 725 1289 603 
Q 1406 481 1766 481 
L 2356 481 
L 2356 0 
L 1766 0 
Q 1100 0 847 248 
Q 594 497 594 1153 
L 594 3053 
L 172 3053 
L 172 3500 
L 594 3500 
L 594 4494 
L 1172 4494 
z
" transform="scale(0.015625)"/>
       <path id="DejaVuSans-64" d="M 2906 2969 
L 2906 4863 
L 3481 4863 
L 3481 0 
L 2906 0 
L 2906 525 
Q 2725 213 2448 61 
Q 2172 -91 1784 -91 
Q 1150 -91 751 415 
Q 353 922 353 1747 
Q 353 2572 751 3078 
Q 1150 3584 1784 3584 
Q 2172 3584 2448 3432 
Q 2725 3281 2906 2969 
z
M 947 1747 
Q 947 1113 1208 752 
Q 1469 391 1925 391 
Q 2381 391 2643 752 
Q 2906 1113 2906 1747 
Q 2906 2381 2643 2742 
Q 2381 3103 1925 3103 
Q 1469 3103 1208 2742 
Q 947 2381 947 1747 
z
" transform="scale(0.015625)"/>
       <path id="DejaVuSans-20" transform="scale(0.015625)"/>
       <path id="DejaVuSans-44" d="M 1259 4147 
L 1259 519 
L 2022 519 
Q 2988 519 3436 956 
Q 3884 1394 3884 2338 
Q 3884 3275 3436 3711 
Q 2988 4147 2022 4147 
L 1259 4147 
z
M 628 4666 
L 1925 4666 
Q 3281 4666 3915 4102 
Q 4550 3538 4550 2338 
Q 4550 1131 3912 565 
Q 3275 0 1925 0 
L 628 0 
L 628 4666 
z
" transform="scale(0.015625)"/>
       <path id="DejaVuSans-65" d="M 3597 1894 
L 3597 1613 
L 953 1613 
Q 991 1019 1311 708 
Q 1631 397 2203 397 
Q 2534 397 2845 478 
Q 3156 559 3463 722 
L 3463 178 
Q 3153 47 2828 -22 
Q 2503 -91 2169 -91 
Q 1331 -91 842 396 
Q 353 884 353 1716 
Q 353 2575 817 3079 
Q 1281 3584 2069 3584 
Q 2775 3584 3186 3129 
Q 3597 2675 3597 1894 
z
M 3022 2063 
Q 3016 2534 2758 2815 
Q 2500 3097 2075 3097 
Q 1594 3097 1305 2825 
Q 1016 2553 972 2059 
L 3022 2063 
z
" transform="scale(0.015625)"/>
       <path id="DejaVuSans-76" d="M 191 3500 
L 800 3500 
L 1894 563 
L 2988 3500 
L 3597 3500 
L 2284 0 
L 1503 0 
L 191 3500 
z
" transform="scale(0.015625)"/>
      </defs>
      <use xlink:href="#DejaVuSans-53"/>
      <use xlink:href="#DejaVuSans-74" transform="translate(63.476562 0)"/>
      <use xlink:href="#DejaVuSans-64" transform="translate(102.685547 0)"/>
      <use xlink:href="#DejaVuSans-20" transform="translate(166.162109 0)"/>
      <use xlink:href="#DejaVuSans-44" transform="translate(197.949219 0)"/>
      <use xlink:href="#DejaVuSans-65" transform="translate(274.951172 0)"/>
      <use xlink:href="#DejaVuSans-76" transform="translate(336.474609 0)"/>
     </g>
    </g>
   </g>
   <g id="line2d_27">
    <path d="M 110.363182 228.671268 
L 212.068597 228.675429 
L 212.261038 229.522981 
L 212.501591 229.759057 
L 213.175136 229.81658 
L 219.044607 229.835196 
L 223.855648 229.836065 
L 224.04809 230.200788 
L 224.336752 230.419373 
L 224.962188 230.497168 
L 228.281806 230.532855 
L 235.6427 230.539398 
L 235.787031 230.694547 
L 240.982956 230.713414 
L 294.577957 230.812248 
L 294.722288 243.379726 
L 295.347723 244.020111 
L 295.973159 244.256723 
L 297.175919 244.430232 
L 299.870102 244.542945 
L 306.365008 244.580837 
L 306.509339 246.400251 
L 307.375327 246.830666 
L 308.481866 246.993516 
L 311.031718 247.089228 
L 330.323994 247.478727 
L 332.488963 247.659758 
L 337.107563 247.772236 
L 346.15232 247.952578 
L 346.296652 228.671268 
L 447.905846 228.675419 
L 448.098287 229.522992 
L 448.338839 229.759041 
L 449.012385 229.816547 
L 454.881856 229.835152 
L 459.692897 229.836012 
L 459.885339 230.200818 
L 460.174001 230.418745 
L 460.847547 230.498428 
L 464.455828 230.532842 
L 471.479949 230.538651 
L 471.62428 230.694663 
L 476.820204 230.713393 
L 530.415206 230.812054 
L 530.559537 243.381979 
L 531.184972 244.022277 
L 531.810408 244.258815 
L 533.013168 244.432231 
L 535.707351 244.544801 
L 542.202257 244.582539 
L 542.346588 246.400593 
L 543.212576 246.831042 
L 544.319115 246.993878 
L 546.868967 247.089557 
L 566.161243 247.478889 
L 568.326212 247.659919 
L 572.944811 247.772393 
L 581.989569 247.952712 
L 582.1339 37.407273 
L 629.089664 37.517002 
L 632.649835 37.820263 
L 635.007245 37.97194 
L 636.594889 37.97194 
L 636.73922 38.340561 
L 638.856078 38.512019 
L 643.619009 38.607003 
L 650.450688 38.767346 
L 659.784109 39.191977 
L 660.168992 39.191977 
L 660.313323 39.457536 
L 663.007506 39.566855 
L 677.584962 39.892539 
L 683.117659 40.103372 
L 683.743095 40.103372 
L 683.983647 51.614189 
L 684.560972 51.645489 
L 690.863436 51.810792 
L 695.097152 51.964536 
L 695.530146 51.964536 
L 695.578256 52.959885 
L 695.722588 64.61576 
L 695.915029 65.091997 
L 696.299913 65.229251 
L 697.550783 65.340281 
L 703.805137 65.51674 
L 707.317197 65.549649 
L 707.461529 67.761305 
L 708.231295 68.319204 
L 709.097283 68.450807 
L 711.454693 68.511353 
L 719.104249 68.563711 
L 719.24858 70.129017 
L 720.35512 70.359513 
L 722.808751 70.688858 
L 729.68854 71.340859 
L 730.8913 71.340859 
L 731.035632 73.93925 
L 731.853509 74.482171 
L 733.056269 75.024051 
L 734.643913 75.482866 
L 736.905102 75.8854 
L 740.17661 76.227509 
L 742.678352 76.227509 
L 742.822683 76.689419 
L 743.544339 77.241901 
L 744.458437 77.738692 
L 745.709308 78.156149 
L 747.585614 78.526994 
L 750.809012 78.903842 
L 752.92587 78.997135 
L 754.465403 78.997135 
L 754.609734 79.535547 
L 761.970628 79.93209 
L 764.56859 80.182492 
L 766.252454 80.182492 
L 766.396786 242.321732 
L 766.974111 242.861748 
L 767.647656 243.083057 
L 768.994748 243.239335 
L 772.362477 243.349811 
L 778.039506 243.383666 
L 778.183837 246.231602 
L 778.953604 246.688492 
L 779.867702 246.859092 
L 781.936449 246.966972 
L 788.383245 246.999081 
L 791.702863 247.10997 
L 799.641082 247.198027 
L 801.565498 247.198027 
L 801.70983 247.392404 
L 804.644565 247.648994 
L 809.744269 247.755611 
L 817.826818 247.932685 
L 817.826818 247.932685 
" clip-path="url(#p6817e46570)" style="fill: none; stroke: #0000ff; stroke-width: 1.5; stroke-linecap: square"/>
   </g>
   <g id="line2d_28">
    <path d="M 110.363182 228.671268 
L 212.068597 228.675385 
L 212.261038 229.522999 
L 212.501591 229.759121 
L 213.127026 229.815523 
L 218.371061 229.835006 
L 223.855648 229.836248 
L 224.04809 230.200958 
L 224.336752 230.419459 
L 224.962188 230.497317 
L 228.233696 230.532862 
L 235.6427 230.539568 
L 235.787031 230.694787 
L 240.982956 230.713721 
L 294.577957 230.812766 
L 294.722288 243.379728 
L 295.347723 244.020181 
L 295.973159 244.256817 
L 297.175919 244.430345 
L 299.870102 244.543087 
L 306.365008 244.58096 
L 306.509339 246.400227 
L 307.375327 246.830637 
L 308.481866 246.993483 
L 311.031718 247.089192 
L 330.323994 247.478707 
L 332.488963 247.659737 
L 337.107563 247.772209 
L 346.15232 247.952572 
L 346.296652 228.671268 
L 447.905846 228.675374 
L 448.098287 229.523011 
L 448.338839 229.759106 
L 448.964275 229.815489 
L 454.20831 229.834961 
L 459.692897 229.836193 
L 459.885339 230.200987 
L 460.174001 230.418851 
L 460.847547 230.49865 
L 464.359607 230.532809 
L 471.479949 230.538857 
L 471.62428 230.694888 
L 476.868315 230.713714 
L 530.415206 230.812572 
L 530.559537 243.38194 
L 531.184972 244.022302 
L 531.810408 244.258852 
L 533.013168 244.432285 
L 535.707351 244.544879 
L 542.202257 244.582611 
L 542.346588 246.400627 
L 543.212576 246.831081 
L 544.319115 246.993914 
L 546.868967 247.089584 
L 566.161243 247.478913 
L 568.326212 247.659945 
L 572.944811 247.772412 
L 581.989569 247.952727 
L 582.1339 37.407273 
L 629.089664 37.516071 
L 632.697946 37.816695 
L 634.959135 37.962424 
L 636.594889 37.962424 
L 636.73922 38.332085 
L 638.856078 38.504909 
L 643.619009 38.600826 
L 650.450688 38.760125 
L 659.735998 39.180158 
L 660.168992 39.180158 
L 660.313323 39.443067 
L 663.055617 39.552211 
L 677.44063 39.868742 
L 683.117659 40.085332 
L 683.743095 40.085332 
L 683.983647 51.78997 
L 684.560972 51.828263 
L 690.767215 52.001078 
L 694.471717 52.167112 
L 695.530146 52.167112 
L 695.578256 53.202163 
L 695.722588 64.882388 
L 695.915029 65.36149 
L 696.396134 65.521977 
L 697.695115 65.63592 
L 702.650487 65.789273 
L 707.317197 65.868072 
L 707.461529 68.082535 
L 708.231295 68.634249 
L 709.001062 68.757377 
L 711.406583 68.829304 
L 719.104249 68.896172 
L 719.24858 70.443054 
L 721.172997 70.817652 
L 723.674738 71.110194 
L 729.977202 71.666253 
L 730.8913 71.666253 
L 731.035632 74.249184 
L 732.094061 74.918049 
L 733.489263 75.481191 
L 735.46179 75.973176 
L 737.578648 76.301275 
L 741.235039 76.566525 
L 742.678352 76.566525 
L 742.822683 77.032315 
L 744.84332 78.230555 
L 747.15262 78.798644 
L 749.51003 79.127433 
L 753.166422 79.357177 
L 754.465403 79.357177 
L 754.609734 79.887163 
L 761.970628 80.306612 
L 764.664811 80.561689 
L 766.252454 80.561689 
L 766.396786 242.321718 
L 766.974111 242.861796 
L 767.647656 243.083131 
L 768.994748 243.239424 
L 772.362477 243.349914 
L 778.039506 243.383758 
L 778.183837 246.231624 
L 778.953604 246.68852 
L 779.867702 246.859121 
L 781.936449 246.966995 
L 788.383245 246.9991 
L 791.702863 247.109993 
L 799.641082 247.198053 
L 801.565498 247.198053 
L 801.70983 247.39243 
L 804.644565 247.649019 
L 809.744269 247.755631 
L 817.826818 247.932711 
L 817.826818 247.932711 
" clip-path="url(#p6817e46570)" style="fill: none; stroke-dasharray: 5.55,2.4; stroke-dashoffset: 0; stroke: #ff0000; stroke-width: 1.5"/>
   </g>
   <g id="line2d_29">
    <path d="M 346.200431 258.48 
L 346.200431 26.88 
" clip-path="url(#p6817e46570)" style="fill: none; stroke-dasharray: 1.5,2.475; stroke-dashoffset: 0; stroke: #808080; stroke-opacity: 0.6; stroke-width: 1.5"/>
   </g>
   <g id="line2d_30">
    <path d="M 582.03768 258.48 
L 582.03768 26.88 
" clip-path="url(#p6817e46570)" style="fill: none; stroke-dasharray: 1.5,2.475; stroke-dashoffset: 0; stroke: #808080; stroke-opacity: 0.6; stroke-width: 1.5"/>
   </g>
   <g id="patch_3">
    <path d="M 74.99 258.48 
L 74.99 26.88 
" style="fill: none; stroke: #000000; stroke-width: 0.8; stroke-linejoin: miter; stroke-linecap: square"/>
   </g>
   <g id="patch_4">
    <path d="M 853.2 258.48 
L 853.2 26.88 
" style="fill: none; stroke: #000000; stroke-width: 0.8; stroke-linejoin: miter; stroke-linecap: square"/>
   </g>
   <g id="patch_5">
    <path d="M 74.99 258.48 
L 853.2 258.48 
" style="fill: none; stroke: #000000; stroke-width: 0.8; stroke-linejoin: miter; stroke-linecap: square"/>
   </g>
   <g id="patch_6">
    <path d="M 74.99 26.88 
L 853.2 26.88 
" style="fill: none; stroke: #000000; stroke-width: 0.8; stroke-linejoin: miter; stroke-linecap: square"/>
   </g>
   <g id="text_15">
    <!-- [20] Kg_zz  —  Uncertainty (std dev) -->
    <g transform="translate(355.314063 20.88) scale(0.12 -0.12)">
     <defs>
      <path id="DejaVuSans-5b" d="M 550 4863 
L 1875 4863 
L 1875 4416 
L 1125 4416 
L 1125 -397 
L 1875 -397 
L 1875 -844 
L 550 -844 
L 550 4863 
z
" transform="scale(0.015625)"/>
      <path id="DejaVuSans-5d" d="M 1947 4863 
L 1947 -844 
L 622 -844 
L 622 -397 
L 1369 -397 
L 1369 4416 
L 622 4416 
L 622 4863 
L 1947 4863 
z
" transform="scale(0.015625)"/>
      <path id="DejaVuSans-4b" d="M 628 4666 
L 1259 4666 
L 1259 2694 
L 3353 4666 
L 4166 4666 
L 1850 2491 
L 4331 0 
L 3500 0 
L 1259 2247 
L 1259 0 
L 628 0 
L 628 4666 
z
" transform="scale(0.015625)"/>
      <path id="DejaVuSans-67" d="M 2906 1791 
Q 2906 2416 2648 2759 
Q 2391 3103 1925 3103 
Q 1463 3103 1205 2759 
Q 947 2416 947 1791 
Q 947 1169 1205 825 
Q 1463 481 1925 481 
Q 2391 481 2648 825 
Q 2906 1169 2906 1791 
z
M 3481 434 
Q 3481 -459 3084 -895 
Q 2688 -1331 1869 -1331 
Q 1566 -1331 1297 -1286 
Q 1028 -1241 775 -1147 
L 775 -588 
Q 1028 -725 1275 -790 
Q 1522 -856 1778 -856 
Q 2344 -856 2625 -561 
Q 2906 -266 2906 331 
L 2906 616 
Q 2728 306 2450 153 
Q 2172 0 1784 0 
Q 1141 0 747 490 
Q 353 981 353 1791 
Q 353 2603 747 3093 
Q 1141 3584 1784 3584 
Q 2172 3584 2450 3431 
Q 2728 3278 2906 2969 
L 2906 3500 
L 3481 3500 
L 3481 434 
z
" transform="scale(0.015625)"/>
      <path id="DejaVuSans-5f" d="M 3263 -1063 
L 3263 -1509 
L -63 -1509 
L -63 -1063 
L 3263 -1063 
z
" transform="scale(0.015625)"/>
      <path id="DejaVuSans-7a" d="M 353 3500 
L 3084 3500 
L 3084 2975 
L 922 459 
L 3084 459 
L 3084 0 
L 275 0 
L 275 525 
L 2438 3041 
L 353 3041 
L 353 3500 
z
" transform="scale(0.015625)"/>
      <path id="DejaVuSans-2014" d="M 313 1978 
L 6088 1978 
L 6088 1528 
L 313 1528 
L 313 1978 
z
" transform="scale(0.015625)"/>
      <path id="DejaVuSans-55" d="M 556 4666 
L 1191 4666 
L 1191 1831 
Q 1191 1081 1462 751 
Q 1734 422 2344 422 
Q 2950 422 3222 751 
Q 3494 1081 3494 1831 
L 3494 4666 
L 4128 4666 
L 4128 1753 
Q 4128 841 3676 375 
Q 3225 -91 2344 -91 
Q 1459 -91 1007 375 
Q 556 841 556 1753 
L 556 4666 
z
" transform="scale(0.015625)"/>
      <path id="DejaVuSans-6e" d="M 3513 2113 
L 3513 0 
L 2938 0 
L 2938 2094 
Q 2938 2591 2744 2837 
Q 2550 3084 2163 3084 
Q 1697 3084 1428 2787 
Q 1159 2491 1159 1978 
L 1159 0 
L 581 0 
L 581 3500 
L 1159 3500 
L 1159 2956 
Q 1366 3272 1645 3428 
Q 1925 3584 2291 3584 
Q 2894 3584 3203 3211 
Q 3513 2838 3513 2113 
z
" transform="scale(0.015625)"/>
      <path id="DejaVuSans-63" d="M 3122 3366 
L 3122 2828 
Q 2878 2963 2633 3030 
Q 2388 3097 2138 3097 
Q 1578 3097 1268 2742 
Q 959 2388 959 1747 
Q 959 1106 1268 751 
Q 1578 397 2138 397 
Q 2388 397 2633 464 
Q 2878 531 3122 666 
L 3122 134 
Q 2881 22 2623 -34 
Q 2366 -91 2075 -91 
Q 1284 -91 818 406 
Q 353 903 353 1747 
Q 353 2603 823 3093 
Q 1294 3584 2113 3584 
Q 2378 3584 2631 3529 
Q 2884 3475 3122 3366 
z
" transform="scale(0.015625)"/>
      <path id="DejaVuSans-72" d="M 2631 2963 
Q 2534 3019 2420 3045 
Q 2306 3072 2169 3072 
Q 1681 3072 1420 2755 
Q 1159 2438 1159 1844 
L 1159 0 
L 581 0 
L 581 3500 
L 1159 3500 
L 1159 2956 
Q 1341 3275 1631 3429 
Q 1922 3584 2338 3584 
Q 2397 3584 2469 3576 
Q 2541 3569 2628 3553 
L 2631 2963 
z
" transform="scale(0.015625)"/>
      <path id="DejaVuSans-61" d="M 2194 1759 
Q 1497 1759 1228 1600 
Q 959 1441 959 1056 
Q 959 750 1161 570 
Q 1363 391 1709 391 
Q 2188 391 2477 730 
Q 2766 1069 2766 1631 
L 2766 1759 
L 2194 1759 
z
M 3341 1997 
L 3341 0 
L 2766 0 
L 2766 531 
Q 2569 213 2275 61 
Q 1981 -91 1556 -91 
Q 1019 -91 701 211 
Q 384 513 384 1019 
Q 384 1609 779 1909 
Q 1175 2209 1959 2209 
L 2766 2209 
L 2766 2266 
Q 2766 2663 2505 2880 
Q 2244 3097 1772 3097 
Q 1472 3097 1187 3025 
Q 903 2953 641 2809 
L 641 3341 
Q 956 3463 1253 3523 
Q 1550 3584 1831 3584 
Q 2591 3584 2966 3190 
Q 3341 2797 3341 1997 
z
" transform="scale(0.015625)"/>
      <path id="DejaVuSans-69" d="M 603 3500 
L 1178 3500 
L 1178 0 
L 603 0 
L 603 3500 
z
M 603 4863 
L 1178 4863 
L 1178 4134 
L 603 4134 
L 603 4863 
z
" transform="scale(0.015625)"/>
      <path id="DejaVuSans-79" d="M 2059 -325 
Q 1816 -950 1584 -1140 
Q 1353 -1331 966 -1331 
L 506 -1331 
L 506 -850 
L 844 -850 
Q 1081 -850 1212 -737 
Q 1344 -625 1503 -206 
L 1606 56 
L 191 3500 
L 800 3500 
L 1894 763 
L 2988 3500 
L 3597 3500 
L 2059 -325 
z
" transform="scale(0.015625)"/>
      <path id="DejaVuSans-28" d="M 1984 4856 
Q 1566 4138 1362 3434 
Q 1159 2731 1159 2009 
Q 1159 1288 1364 580 
Q 1569 -128 1984 -844 
L 1484 -844 
Q 1016 -109 783 600 
Q 550 1309 550 2009 
Q 550 2706 781 3412 
Q 1013 4119 1484 4856 
L 1984 4856 
z
" transform="scale(0.015625)"/>
      <path id="DejaVuSans-73" d="M 2834 3397 
L 2834 2853 
Q 2591 2978 2328 3040 
Q 2066 3103 1784 3103 
Q 1356 3103 1142 2972 
Q 928 2841 928 2578 
Q 928 2378 1081 2264 
Q 1234 2150 1697 2047 
L 1894 2003 
Q 2506 1872 2764 1633 
Q 3022 1394 3022 966 
Q 3022 478 2636 193 
Q 2250 -91 1575 -91 
Q 1294 -91 989 -36 
Q 684 19 347 128 
L 347 722 
Q 666 556 975 473 
Q 1284 391 1588 391 
Q 1994 391 2212 530 
Q 2431 669 2431 922 
Q 2431 1156 2273 1281 
Q 2116 1406 1581 1522 
L 1381 1569 
Q 847 1681 609 1914 
Q 372 2147 372 2553 
Q 372 3047 722 3315 
Q 1072 3584 1716 3584 
Q 2034 3584 2315 3537 
Q 2597 3491 2834 3397 
z
" transform="scale(0.015625)"/>
      <path id="DejaVuSans-29" d="M 513 4856 
L 1013 4856 
Q 1481 4119 1714 3412 
Q 1947 2706 1947 2009 
Q 1947 1309 1714 600 
Q 1481 -109 1013 -844 
L 513 -844 
Q 928 -128 1133 580 
Q 1338 1288 1338 2009 
Q 1338 2731 1133 3434 
Q 928 4138 513 4856 
z
" transform="scale(0.015625)"/>
     </defs>
     <use xlink:href="#DejaVuSans-5b"/>
     <use xlink:href="#DejaVuSans-32" transform="translate(39.013672 0)"/>
     <use xlink:href="#DejaVuSans-30" transform="translate(102.636719 0)"/>
     <use xlink:href="#DejaVuSans-5d" transform="translate(166.259766 0)"/>
     <use xlink:href="#DejaVuSans-20" transform="translate(205.273438 0)"/>
     <use xlink:href="#DejaVuSans-4b" transform="translate(237.060547 0)"/>
     <use xlink:href="#DejaVuSans-67" transform="translate(302.636719 0)"/>
     <use xlink:href="#DejaVuSans-5f" transform="translate(366.113281 0)"/>
     <use xlink:href="#DejaVuSans-7a" transform="translate(416.113281 0)"/>
     <use xlink:href="#DejaVuSans-7a" transform="translate(468.603516 0)"/>
     <use xlink:href="#DejaVuSans-20" transform="translate(521.09375 0)"/>
     <use xlink:href="#DejaVuSans-20" transform="translate(552.880859 0)"/>
     <use xlink:href="#DejaVuSans-2014" transform="translate(584.667969 0)"/>
     <use xlink:href="#DejaVuSans-20" transform="translate(684.667969 0)"/>
     <use xlink:href="#DejaVuSans-20" transform="translate(716.455078 0)"/>
     <use xlink:href="#DejaVuSans-55" transform="translate(748.242188 0)"/>
     <use xlink:href="#DejaVuSans-6e" transform="translate(821.435547 0)"/>
     <use xlink:href="#DejaVuSans-63" transform="translate(884.814453 0)"/>
     <use xlink:href="#DejaVuSans-65" transform="translate(939.794922 0)"/>
     <use xlink:href="#DejaVuSans-72" transform="translate(1001.318359 0)"/>
     <use xlink:href="#DejaVuSans-74" transform="translate(1042.431641 0)"/>
     <use xlink:href="#DejaVuSans-61" transform="translate(1081.640625 0)"/>
     <use xlink:href="#DejaVuSans-69" transform="translate(1142.919922 0)"/>
     <use xlink:href="#DejaVuSans-6e" transform="translate(1170.703125 0)"/>
     <use xlink:href="#DejaVuSans-74" transform="translate(1234.082031 0)"/>
     <use xlink:href="#DejaVuSans-79" transform="translate(1273.291016 0)"/>
     <use xlink:href="#DejaVuSans-20" transform="translate(1332.470703 0)"/>
     <use xlink:href="#DejaVuSans-28" transform="translate(1364.257812 0)"/>
     <use xlink:href="#DejaVuSans-73" transform="translate(1403.271484 0)"/>
     <use xlink:href="#DejaVuSans-74" transform="translate(1455.371094 0)"/>
     <use xlink:href="#DejaVuSans-64" transform="translate(1494.580078 0)"/>
     <use xlink:href="#DejaVuSans-20" transform="translate(1558.056641 0)"/>
     <use xlink:href="#DejaVuSans-64" transform="translate(1589.84375 0)"/>
     <use xlink:href="#DejaVuSans-65" transform="translate(1653.320312 0)"/>
     <use xlink:href="#DejaVuSans-76" transform="translate(1714.84375 0)"/>
     <use xlink:href="#DejaVuSans-29" transform="translate(1774.023438 0)"/>
    </g>
   </g>
   <g id="legend_1">
    <g id="patch_7">
     <path d="M 734.342188 64.23625 
L 846.2 64.23625 
Q 848.2 64.23625 848.2 62.23625 
L 848.2 33.88 
Q 848.2 31.88 846.2 31.88 
L 734.342188 31.88 
Q 732.342188 31.88 732.342188 33.88 
L 732.342188 62.23625 
Q 732.342188 64.23625 734.342188 64.23625 
z
" style="fill: #ffffff; opacity: 0.8; stroke: #cccccc; stroke-linejoin: miter"/>
    </g>
    <g id="line2d_31">
     <path d="M 736.342188 39.978437 
L 746.342188 39.978437 
L 756.342188 39.978437 
" style="fill: none; stroke: #0000ff; stroke-width: 1.5; stroke-linecap: square"/>
    </g>
    <g id="text_16">
     <!-- Ideal (No Noise) -->
     <g transform="translate(764.342188 43.478437) scale(0.1 -0.1)">
      <defs>
       <path id="DejaVuSans-49" d="M 628 4666 
L 1259 4666 
L 1259 0 
L 628 0 
L 628 4666 
z
" transform="scale(0.015625)"/>
       <path id="DejaVuSans-6c" d="M 603 4863 
L 1178 4863 
L 1178 0 
L 603 0 
L 603 4863 
z
" transform="scale(0.015625)"/>
       <path id="DejaVuSans-4e" d="M 628 4666 
L 1478 4666 
L 3547 763 
L 3547 4666 
L 4159 4666 
L 4159 0 
L 3309 0 
L 1241 3903 
L 1241 0 
L 628 0 
L 628 4666 
z
" transform="scale(0.015625)"/>
       <path id="DejaVuSans-6f" d="M 1959 3097 
Q 1497 3097 1228 2736 
Q 959 2375 959 1747 
Q 959 1119 1226 758 
Q 1494 397 1959 397 
Q 2419 397 2687 759 
Q 2956 1122 2956 1747 
Q 2956 2369 2687 2733 
Q 2419 3097 1959 3097 
z
M 1959 3584 
Q 2709 3584 3137 3096 
Q 3566 2609 3566 1747 
Q 3566 888 3137 398 
Q 2709 -91 1959 -91 
Q 1206 -91 779 398 
Q 353 888 353 1747 
Q 353 2609 779 3096 
Q 1206 3584 1959 3584 
z
" transform="scale(0.015625)"/>
      </defs>
      <use xlink:href="#DejaVuSans-49"/>
      <use xlink:href="#DejaVuSans-64" transform="translate(29.492188 0)"/>
      <use xlink:href="#DejaVuSans-65" transform="translate(92.96875 0)"/>
      <use xlink:href="#DejaVuSans-61" transform="translate(154.492188 0)"/>
      <use xlink:href="#DejaVuSans-6c" transform="translate(215.771484 0)"/>
      <use xlink:href="#DejaVuSans-20" transform="translate(243.554688 0)"/>
      <use xlink:href="#DejaVuSans-28" transform="translate(275.341797 0)"/>
      <use xlink:href="#DejaVuSans-4e" transform="translate(314.355469 0)"/>
      <use xlink:href="#DejaVuSans-6f" transform="translate(389.160156 0)"/>
      <use xlink:href="#DejaVuSans-20" transform="translate(450.341797 0)"/>
      <use xlink:href="#DejaVuSans-4e" transform="translate(482.128906 0)"/>
      <use xlink:href="#DejaVuSans-6f" transform="translate(556.933594 0)"/>
      <use xlink:href="#DejaVuSans-69" transform="translate(618.115234 0)"/>
      <use xlink:href="#DejaVuSans-73" transform="translate(645.898438 0)"/>
      <use xlink:href="#DejaVuSans-65" transform="translate(697.998047 0)"/>
      <use xlink:href="#DejaVuSans-29" transform="translate(759.521484 0)"/>
     </g>
    </g>
    <g id="line2d_32">
     <path d="M 736.342188 54.656562 
L 746.342188 54.656562 
L 756.342188 54.656562 
" style="fill: none; stroke-dasharray: 5.55,2.4; stroke-dashoffset: 0; stroke: #ff0000; stroke-width: 1.5"/>
    </g>
    <g id="text_17">
     <!-- With Full Noise -->
     <g transform="translate(764.342188 58.156562) scale(0.1 -0.1)">
      <defs>
       <path id="DejaVuSans-57" d="M 213 4666 
L 850 4666 
L 1831 722 
L 2809 4666 
L 3519 4666 
L 4500 722 
L 5478 4666 
L 6119 4666 
L 4947 0 
L 4153 0 
L 3169 4050 
L 2175 0 
L 1381 0 
L 213 4666 
z
" transform="scale(0.015625)"/>
       <path id="DejaVuSans-68" d="M 3513 2113 
L 3513 0 
L 2938 0 
L 2938 2094 
Q 2938 2591 2744 2837 
Q 2550 3084 2163 3084 
Q 1697 3084 1428 2787 
Q 1159 2491 1159 1978 
L 1159 0 
L 581 0 
L 581 4863 
L 1159 4863 
L 1159 2956 
Q 1366 3272 1645 3428 
Q 1925 3584 2291 3584 
Q 2894 3584 3203 3211 
Q 3513 2838 3513 2113 
z
" transform="scale(0.015625)"/>
       <path id="DejaVuSans-46" d="M 628 4666 
L 3309 4666 
L 3309 4134 
L 1259 4134 
L 1259 2759 
L 3109 2759 
L 3109 2228 
L 1259 2228 
L 1259 0 
L 628 0 
L 628 4666 
z
" transform="scale(0.015625)"/>
       <path id="DejaVuSans-75" d="M 544 1381 
L 544 3500 
L 1119 3500 
L 1119 1403 
Q 1119 906 1312 657 
Q 1506 409 1894 409 
Q 2359 409 2629 706 
Q 2900 1003 2900 1516 
L 2900 3500 
L 3475 3500 
L 3475 0 
L 2900 0 
L 2900 538 
Q 2691 219 2414 64 
Q 2138 -91 1772 -91 
Q 1169 -91 856 284 
Q 544 659 544 1381 
z
M 1991 3584 
L 1991 3584 
z
" transform="scale(0.015625)"/>
      </defs>
      <use xlink:href="#DejaVuSans-57"/>
      <use xlink:href="#DejaVuSans-69" transform="translate(96.626953 0)"/>
      <use xlink:href="#DejaVuSans-74" transform="translate(124.410156 0)"/>
      <use xlink:href="#DejaVuSans-68" transform="translate(163.619141 0)"/>
      <use xlink:href="#DejaVuSans-20" transform="translate(226.998047 0)"/>
      <use xlink:href="#DejaVuSans-46" transform="translate(258.785156 0)"/>
      <use xlink:href="#DejaVuSans-75" transform="translate(310.804688 0)"/>
      <use xlink:href="#DejaVuSans-6c" transform="translate(374.183594 0)"/>
      <use xlink:href="#DejaVuSans-6c" transform="translate(401.966797 0)"/>
      <use xlink:href="#DejaVuSans-20" transform="translate(429.75 0)"/>
      <use xlink:href="#DejaVuSans-4e" transform="translate(461.537109 0)"/>
      <use xlink:href="#DejaVuSans-6f" transform="translate(536.341797 0)"/>
      <use xlink:href="#DejaVuSans-69" transform="translate(597.523438 0)"/>
      <use xlink:href="#DejaVuSans-73" transform="translate(625.306641 0)"/>
      <use xlink:href="#DejaVuSans-65" transform="translate(677.40625 0)"/>
     </g>
    </g>
   </g>
  </g>
  <g id="axes_2">
   <g id="patch_8">
    <path d="M 74.99 534.04 
L 853.2 534.04 
L 853.2 302.44 
L 74.99 302.44 
z
" style="fill: #ffffff"/>
   </g>
   <g id="matplotlib.axis_3">
    <g id="xtick_8">
     <g id="line2d_33">
      <path d="M 110.363182 534.04 
L 110.363182 302.44 
" clip-path="url(#p578ae9b12c)" style="fill: none; stroke: #b0b0b0; stroke-width: 0.8; stroke-linecap: square"/>
     </g>
     <g id="line2d_34">
      <g>
       <use xlink:href="#mbd18ff5806" x="110.363182" y="534.04" style="stroke: #000000; stroke-width: 0.8"/>
      </g>
     </g>
     <g id="text_18">
      <!-- 0 -->
      <g transform="translate(107.181932 548.638438) scale(0.1 -0.1)">
       <use xlink:href="#DejaVuSans-30"/>
      </g>
     </g>
    </g>
    <g id="xtick_9">
     <g id="line2d_35">
      <path d="M 230.639217 534.04 
L 230.639217 302.44 
" clip-path="url(#p578ae9b12c)" style="fill: none; stroke: #b0b0b0; stroke-width: 0.8; stroke-linecap: square"/>
     </g>
     <g id="line2d_36">
      <g>
       <use xlink:href="#mbd18ff5806" x="230.639217" y="534.04" style="stroke: #000000; stroke-width: 0.8"/>
      </g>
     </g>
     <g id="text_19">
      <!-- 50 -->
      <g transform="translate(224.276717 548.638438) scale(0.1 -0.1)">
       <use xlink:href="#DejaVuSans-35"/>
       <use xlink:href="#DejaVuSans-30" transform="translate(63.623047 0)"/>
      </g>
     </g>
    </g>
    <g id="xtick_10">
     <g id="line2d_37">
      <path d="M 350.915251 534.04 
L 350.915251 302.44 
" clip-path="url(#p578ae9b12c)" style="fill: none; stroke: #b0b0b0; stroke-width: 0.8; stroke-linecap: square"/>
     </g>
     <g id="line2d_38">
      <g>
       <use xlink:href="#mbd18ff5806" x="350.915251" y="534.04" style="stroke: #000000; stroke-width: 0.8"/>
      </g>
     </g>
     <g id="text_20">
      <!-- 100 -->
      <g transform="translate(341.371501 548.638438) scale(0.1 -0.1)">
       <use xlink:href="#DejaVuSans-31"/>
       <use xlink:href="#DejaVuSans-30" transform="translate(63.623047 0)"/>
       <use xlink:href="#DejaVuSans-30" transform="translate(127.246094 0)"/>
      </g>
     </g>
    </g>
    <g id="xtick_11">
     <g id="line2d_39">
      <path d="M 471.191286 534.04 
L 471.191286 302.44 
" clip-path="url(#p578ae9b12c)" style="fill: none; stroke: #b0b0b0; stroke-width: 0.8; stroke-linecap: square"/>
     </g>
     <g id="line2d_40">
      <g>
       <use xlink:href="#mbd18ff5806" x="471.191286" y="534.04" style="stroke: #000000; stroke-width: 0.8"/>
      </g>
     </g>
     <g id="text_21">
      <!-- 150 -->
      <g transform="translate(461.647536 548.638438) scale(0.1 -0.1)">
       <use xlink:href="#DejaVuSans-31"/>
       <use xlink:href="#DejaVuSans-35" transform="translate(63.623047 0)"/>
       <use xlink:href="#DejaVuSans-30" transform="translate(127.246094 0)"/>
      </g>
     </g>
    </g>
    <g id="xtick_12">
     <g id="line2d_41">
      <path d="M 591.467321 534.04 
L 591.467321 302.44 
" clip-path="url(#p578ae9b12c)" style="fill: none; stroke: #b0b0b0; stroke-width: 0.8; stroke-linecap: square"/>
     </g>
     <g id="line2d_42">
      <g>
       <use xlink:href="#mbd18ff5806" x="591.467321" y="534.04" style="stroke: #000000; stroke-width: 0.8"/>
      </g>
     </g>
     <g id="text_22">
      <!-- 200 -->
      <g transform="translate(581.923571 548.638438) scale(0.1 -0.1)">
       <use xlink:href="#DejaVuSans-32"/>
       <use xlink:href="#DejaVuSans-30" transform="translate(63.623047 0)"/>
       <use xlink:href="#DejaVuSans-30" transform="translate(127.246094 0)"/>
      </g>
     </g>
    </g>
    <g id="xtick_13">
     <g id="line2d_43">
      <path d="M 711.743356 534.04 
L 711.743356 302.44 
" clip-path="url(#p578ae9b12c)" style="fill: none; stroke: #b0b0b0; stroke-width: 0.8; stroke-linecap: square"/>
     </g>
     <g id="line2d_44">
      <g>
       <use xlink:href="#mbd18ff5806" x="711.743356" y="534.04" style="stroke: #000000; stroke-width: 0.8"/>
      </g>
     </g>
     <g id="text_23">
      <!-- 250 -->
      <g transform="translate(702.199606 548.638438) scale(0.1 -0.1)">
       <use xlink:href="#DejaVuSans-32"/>
       <use xlink:href="#DejaVuSans-35" transform="translate(63.623047 0)"/>
       <use xlink:href="#DejaVuSans-30" transform="translate(127.246094 0)"/>
      </g>
     </g>
    </g>
    <g id="xtick_14">
     <g id="line2d_45">
      <path d="M 832.01939 534.04 
L 832.01939 302.44 
" clip-path="url(#p578ae9b12c)" style="fill: none; stroke: #b0b0b0; stroke-width: 0.8; stroke-linecap: square"/>
     </g>
     <g id="line2d_46">
      <g>
       <use xlink:href="#mbd18ff5806" x="832.01939" y="534.04" style="stroke: #000000; stroke-width: 0.8"/>
      </g>
     </g>
     <g id="text_24">
      <!-- 300 -->
      <g transform="translate(822.47564 548.638438) scale(0.1 -0.1)">
       <use xlink:href="#DejaVuSans-33"/>
       <use xlink:href="#DejaVuSans-30" transform="translate(63.623047 0)"/>
       <use xlink:href="#DejaVuSans-30" transform="translate(127.246094 0)"/>
      </g>
     </g>
    </g>
    <g id="text_25">
     <!-- Time (s) -->
     <g transform="translate(443.766094 562.316562) scale(0.1 -0.1)">
      <defs>
       <path id="DejaVuSans-54" d="M -19 4666 
L 3928 4666 
L 3928 4134 
L 2272 4134 
L 2272 0 
L 1638 0 
L 1638 4134 
L -19 4134 
L -19 4666 
z
" transform="scale(0.015625)"/>
       <path id="DejaVuSans-6d" d="M 3328 2828 
Q 3544 3216 3844 3400 
Q 4144 3584 4550 3584 
Q 5097 3584 5394 3201 
Q 5691 2819 5691 2113 
L 5691 0 
L 5113 0 
L 5113 2094 
Q 5113 2597 4934 2840 
Q 4756 3084 4391 3084 
Q 3944 3084 3684 2787 
Q 3425 2491 3425 1978 
L 3425 0 
L 2847 0 
L 2847 2094 
Q 2847 2600 2669 2842 
Q 2491 3084 2119 3084 
Q 1678 3084 1418 2786 
Q 1159 2488 1159 1978 
L 1159 0 
L 581 0 
L 581 3500 
L 1159 3500 
L 1159 2956 
Q 1356 3278 1631 3431 
Q 1906 3584 2284 3584 
Q 2666 3584 2933 3390 
Q 3200 3197 3328 2828 
z
" transform="scale(0.015625)"/>
      </defs>
      <use xlink:href="#DejaVuSans-54"/>
      <use xlink:href="#DejaVuSans-69" transform="translate(57.958984 0)"/>
      <use xlink:href="#DejaVuSans-6d" transform="translate(85.742188 0)"/>
      <use xlink:href="#DejaVuSans-65" transform="translate(183.154297 0)"/>
      <use xlink:href="#DejaVuSans-20" transform="translate(244.677734 0)"/>
      <use xlink:href="#DejaVuSans-28" transform="translate(276.464844 0)"/>
      <use xlink:href="#DejaVuSans-73" transform="translate(315.478516 0)"/>
      <use xlink:href="#DejaVuSans-29" transform="translate(367.578125 0)"/>
     </g>
    </g>
   </g>
   <g id="matplotlib.axis_4">
    <g id="ytick_7">
     <g id="line2d_47">
      <path d="M 74.99 516.541891 
L 853.2 516.541891 
" clip-path="url(#p578ae9b12c)" style="fill: none; stroke: #b0b0b0; stroke-width: 0.8; stroke-linecap: square"/>
     </g>
     <g id="line2d_48">
      <g>
       <use xlink:href="#m694e768729" x="74.99" y="516.541891" style="stroke: #000000; stroke-width: 0.8"/>
      </g>
     </g>
     <g id="text_26">
      <!-- −0.0003 -->
      <g transform="translate(24.619687 520.34111) scale(0.1 -0.1)">
       <defs>
        <path id="DejaVuSans-2212" d="M 678 2272 
L 4684 2272 
L 4684 1741 
L 678 1741 
L 678 2272 
z
" transform="scale(0.015625)"/>
       </defs>
       <use xlink:href="#DejaVuSans-2212"/>
       <use xlink:href="#DejaVuSans-30" transform="translate(83.789062 0)"/>
       <use xlink:href="#DejaVuSans-2e" transform="translate(147.412109 0)"/>
       <use xlink:href="#DejaVuSans-30" transform="translate(179.199219 0)"/>
       <use xlink:href="#DejaVuSans-30" transform="translate(242.822266 0)"/>
       <use xlink:href="#DejaVuSans-30" transform="translate(306.445312 0)"/>
       <use xlink:href="#DejaVuSans-33" transform="translate(370.068359 0)"/>
      </g>
     </g>
    </g>
    <g id="ytick_8">
     <g id="line2d_49">
      <path d="M 74.99 467.610391 
L 853.2 467.610391 
" clip-path="url(#p578ae9b12c)" style="fill: none; stroke: #b0b0b0; stroke-width: 0.8; stroke-linecap: square"/>
     </g>
     <g id="line2d_50">
      <g>
       <use xlink:href="#m694e768729" x="74.99" y="467.610391" style="stroke: #000000; stroke-width: 0.8"/>
      </g>
     </g>
     <g id="text_27">
      <!-- −0.0002 -->
      <g transform="translate(24.619687 471.40961) scale(0.1 -0.1)">
       <use xlink:href="#DejaVuSans-2212"/>
       <use xlink:href="#DejaVuSans-30" transform="translate(83.789062 0)"/>
       <use xlink:href="#DejaVuSans-2e" transform="translate(147.412109 0)"/>
       <use xlink:href="#DejaVuSans-30" transform="translate(179.199219 0)"/>
       <use xlink:href="#DejaVuSans-30" transform="translate(242.822266 0)"/>
       <use xlink:href="#DejaVuSans-30" transform="translate(306.445312 0)"/>
       <use xlink:href="#DejaVuSans-32" transform="translate(370.068359 0)"/>
      </g>
     </g>
    </g>
    <g id="ytick_9">
     <g id="line2d_51">
      <path d="M 74.99 418.678891 
L 853.2 418.678891 
" clip-path="url(#p578ae9b12c)" style="fill: none; stroke: #b0b0b0; stroke-width: 0.8; stroke-linecap: square"/>
     </g>
     <g id="line2d_52">
      <g>
       <use xlink:href="#m694e768729" x="74.99" y="418.678891" style="stroke: #000000; stroke-width: 0.8"/>
      </g>
     </g>
     <g id="text_28">
      <!-- −0.0001 -->
      <g transform="translate(24.619687 422.47811) scale(0.1 -0.1)">
       <use xlink:href="#DejaVuSans-2212"/>
       <use xlink:href="#DejaVuSans-30" transform="translate(83.789062 0)"/>
       <use xlink:href="#DejaVuSans-2e" transform="translate(147.412109 0)"/>
       <use xlink:href="#DejaVuSans-30" transform="translate(179.199219 0)"/>
       <use xlink:href="#DejaVuSans-30" transform="translate(242.822266 0)"/>
       <use xlink:href="#DejaVuSans-30" transform="translate(306.445312 0)"/>
       <use xlink:href="#DejaVuSans-31" transform="translate(370.068359 0)"/>
      </g>
     </g>
    </g>
    <g id="ytick_10">
     <g id="line2d_53">
      <path d="M 74.99 369.747391 
L 853.2 369.747391 
" clip-path="url(#p578ae9b12c)" style="fill: none; stroke: #b0b0b0; stroke-width: 0.8; stroke-linecap: square"/>
     </g>
     <g id="line2d_54">
      <g>
       <use xlink:href="#m694e768729" x="74.99" y="369.747391" style="stroke: #000000; stroke-width: 0.8"/>
      </g>
     </g>
     <g id="text_29">
      <!-- 0.0000 -->
      <g transform="translate(32.999375 373.54661) scale(0.1 -0.1)">
       <use xlink:href="#DejaVuSans-30"/>
       <use xlink:href="#DejaVuSans-2e" transform="translate(63.623047 0)"/>
       <use xlink:href="#DejaVuSans-30" transform="translate(95.410156 0)"/>
       <use xlink:href="#DejaVuSans-30" transform="translate(159.033203 0)"/>
       <use xlink:href="#DejaVuSans-30" transform="translate(222.65625 0)"/>
       <use xlink:href="#DejaVuSans-30" transform="translate(286.279297 0)"/>
      </g>
     </g>
    </g>
    <g id="ytick_11">
     <g id="line2d_55">
      <path d="M 74.99 320.815891 
L 853.2 320.815891 
" clip-path="url(#p578ae9b12c)" style="fill: none; stroke: #b0b0b0; stroke-width: 0.8; stroke-linecap: square"/>
     </g>
     <g id="line2d_56">
      <g>
       <use xlink:href="#m694e768729" x="74.99" y="320.815891" style="stroke: #000000; stroke-width: 0.8"/>
      </g>
     </g>
     <g id="text_30">
      <!-- 0.0001 -->
      <g transform="translate(32.999375 324.61511) scale(0.1 -0.1)">
       <use xlink:href="#DejaVuSans-30"/>
       <use xlink:href="#DejaVuSans-2e" transform="translate(63.623047 0)"/>
       <use xlink:href="#DejaVuSans-30" transform="translate(95.410156 0)"/>
       <use xlink:href="#DejaVuSans-30" transform="translate(159.033203 0)"/>
       <use xlink:href="#DejaVuSans-30" transform="translate(222.65625 0)"/>
       <use xlink:href="#DejaVuSans-31" transform="translate(286.279297 0)"/>
      </g>
     </g>
    </g>
    <g id="text_31">
     <!-- Estimated Value -->
     <g transform="translate(18.54 458.818906) rotate(-90) scale(0.1 -0.1)">
      <defs>
       <path id="DejaVuSans-45" d="M 628 4666 
L 3578 4666 
L 3578 4134 
L 1259 4134 
L 1259 2753 
L 3481 2753 
L 3481 2222 
L 1259 2222 
L 1259 531 
L 3634 531 
L 3634 0 
L 628 0 
L 628 4666 
z
" transform="scale(0.015625)"/>
       <path id="DejaVuSans-56" d="M 1831 0 
L 50 4666 
L 709 4666 
L 2188 738 
L 3669 4666 
L 4325 4666 
L 2547 0 
L 1831 0 
z
" transform="scale(0.015625)"/>
      </defs>
      <use xlink:href="#DejaVuSans-45"/>
      <use xlink:href="#DejaVuSans-73" transform="translate(63.183594 0)"/>
      <use xlink:href="#DejaVuSans-74" transform="translate(115.283203 0)"/>
      <use xlink:href="#DejaVuSans-69" transform="translate(154.492188 0)"/>
      <use xlink:href="#DejaVuSans-6d" transform="translate(182.275391 0)"/>
      <use xlink:href="#DejaVuSans-61" transform="translate(279.6875 0)"/>
      <use xlink:href="#DejaVuSans-74" transform="translate(340.966797 0)"/>
      <use xlink:href="#DejaVuSans-65" transform="translate(380.175781 0)"/>
      <use xlink:href="#DejaVuSans-64" transform="translate(441.699219 0)"/>
      <use xlink:href="#DejaVuSans-20" transform="translate(505.175781 0)"/>
      <use xlink:href="#DejaVuSans-56" transform="translate(536.962891 0)"/>
      <use xlink:href="#DejaVuSans-61" transform="translate(597.621094 0)"/>
      <use xlink:href="#DejaVuSans-6c" transform="translate(658.900391 0)"/>
      <use xlink:href="#DejaVuSans-75" transform="translate(686.683594 0)"/>
      <use xlink:href="#DejaVuSans-65" transform="translate(750.0625 0)"/>
     </g>
    </g>
   </g>
   <g id="line2d_57">
    <path d="M 110.363182 369.747391 
L 118.638173 369.857411 
L 126.38395 370.246973 
L 128.69325 370.262801 
L 164.920391 370.152786 
L 165.064722 370.084321 
L 180.796828 370.009785 
L 188.494494 369.765247 
L 188.638825 369.455396 
L 190.996236 369.251964 
L 195.807277 369.151124 
L 206.295347 369.166873 
L 212.261038 369.346805 
L 212.501591 369.528645 
L 213.271357 369.605981 
L 218.804055 369.774748 
L 223.855648 369.805467 
L 223.903759 367.439608 
L 223.999979 367.888516 
L 224.288642 369.183489 
L 224.577304 369.497338 
L 225.154629 369.724117 
L 226.790383 370.039303 
L 233.044737 370.939931 
L 235.6427 370.939931 
L 235.787031 371.409571 
L 236.653018 371.534747 
L 239.443422 371.491134 
L 247.429751 371.325966 
L 247.525972 370.652885 
L 247.574082 370.658434 
L 249.209836 370.849056 
L 251.807799 370.785091 
L 259.216802 370.427439 
L 259.361134 369.83866 
L 262.151538 368.96448 
L 264.557058 368.576627 
L 268.117229 368.245194 
L 269.945425 368.22902 
L 271.051964 368.339539 
L 274.804577 368.680574 
L 280.770268 368.971399 
L 282.790905 368.971399 
L 282.935236 368.574687 
L 286.351076 368.545317 
L 294.577957 368.528766 
L 294.722288 388.100822 
L 295.395834 388.248038 
L 298.186238 388.525661 
L 303.0935 388.813371 
L 309.155412 389.122193 
L 313.341018 389.48246 
L 316.901189 389.58719 
L 318.103949 389.58719 
L 318.24828 389.193071 
L 320.798132 388.400316 
L 323.299874 388.011319 
L 327.341148 387.624359 
L 329.891 387.624359 
L 330.035332 386.50722 
L 331.526755 385.801275 
L 333.018177 385.429763 
L 335.327477 385.103068 
L 339.080089 384.813707 
L 341.678052 384.813707 
L 341.822383 384.574338 
L 344.94956 384.223336 
L 346.15232 384.158873 
L 346.296652 369.747391 
L 437.513996 369.636427 
L 447.953956 369.701418 
L 448.771833 369.773722 
L 461.954087 370.010305 
L 471.479949 370.250289 
L 471.62428 370.037829 
L 475.761775 370.029741 
L 495.054051 369.826455 
L 495.198383 369.684707 
L 499.672651 369.437734 
L 506.456219 369.355833 
L 508.621188 369.466313 
L 517.136731 369.58654 
L 518.628154 369.58654 
L 518.772485 369.440984 
L 529.597329 369.436295 
L 530.415206 369.436295 
L 530.511426 370.717015 
L 530.559537 370.712398 
L 532.14718 370.570709 
L 538.016651 370.592096 
L 542.202257 370.599704 
L 542.346588 370.772577 
L 551.343236 370.953284 
L 554.710965 370.842948 
L 558.607908 370.687405 
L 565.728249 370.602207 
L 565.872581 370.376456 
L 568.711095 370.185729 
L 575.013559 370.072556 
L 581.989569 370.007454 
L 582.1339 369.747391 
L 629.089664 369.636921 
L 636.594889 369.472456 
L 636.73922 369.632237 
L 642.945464 369.470745 
L 660.168992 369.40127 
L 660.313323 369.199515 
L 675.179441 369.193677 
L 682.588445 369.076215 
L 683.839315 368.976637 
L 684.32042 368.95744 
L 688.698467 368.833616 
L 691.39265 368.524403 
L 693.798171 368.24929 
L 695.578256 368.295329 
L 695.722588 367.641067 
L 696.107471 367.662103 
L 698.32055 367.820924 
L 702.361825 368.151773 
L 706.114437 368.505665 
L 707.317197 368.505665 
L 707.365308 367.216926 
L 707.461529 367.232793 
L 708.423737 367.577476 
L 709.818939 367.597576 
L 715.592189 367.570732 
L 719.008028 367.618909 
L 719.104249 367.618909 
L 719.152359 366.552347 
L 719.24858 366.562801 
L 720.836224 366.757769 
L 722.327647 366.645278 
L 724.107732 366.286461 
L 726.032148 365.669364 
L 728.052786 364.784628 
L 728.48578 364.688485 
L 730.8913 364.688485 
L 731.035632 357.85381 
L 731.709177 356.459483 
L 732.478944 355.335499 
L 733.344931 354.463738 
L 734.30714 353.809832 
L 735.413679 353.327978 
L 736.71266 353.007768 
L 738.300304 352.85364 
L 740.802046 352.879435 
L 742.678352 352.879435 
L 742.822683 354.941705 
L 743.544339 356.148017 
L 744.410327 357.25456 
L 745.468756 358.233855 
L 746.815847 359.166904 
L 748.547822 360.082198 
L 750.66468 360.942772 
L 752.059882 361.328234 
L 754.465403 361.328234 
L 754.609734 360.59416 
L 755.716274 360.64684 
L 762.644173 360.944603 
L 766.252454 360.941214 
L 766.300565 368.955778 
L 766.396786 368.946546 
L 767.647656 368.742636 
L 770.822944 368.693368 
L 778.039506 368.690638 
L 778.183837 369.720723 
L 779.434708 369.859108 
L 783.524093 369.923068 
L 800.940063 369.916365 
L 817.826818 369.841682 
L 817.826818 369.841682 
" clip-path="url(#p578ae9b12c)" style="fill: none; stroke: #0000ff; stroke-width: 1.5; stroke-linecap: square"/>
   </g>
   <g id="line2d_58">
    <path d="M 110.363182 369.747391 
L 119.792823 369.856845 
L 124.748196 370.227274 
L 128.308366 370.341184 
L 159.339583 370.451422 
L 161.552662 370.452896 
L 170.116316 370.316065 
L 177.188547 370.325459 
L 183.009907 370.269571 
L 189.264261 370.185509 
L 192.006554 370.107603 
L 204.659593 370.245554 
L 207.161335 370.389686 
L 212.020486 370.552844 
L 212.068597 370.552844 
L 212.261038 371.562176 
L 212.309149 371.388548 
L 212.45348 371.499163 
L 212.501591 371.434201 
L 212.645922 371.299955 
L 212.790253 371.321425 
L 212.934584 371.332668 
L 213.415688 370.979416 
L 213.848682 370.964281 
L 214.137345 370.91398 
L 216.494755 371.166946 
L 217.023969 371.221205 
L 218.178619 371.241265 
L 219.573821 371.224618 
L 223.855648 371.113493 
L 223.903759 368.582905 
L 223.951869 368.949902 
L 224.192421 371.360177 
L 224.384863 371.7563 
L 224.769746 371.434811 
L 224.865967 371.476307 
L 225.154629 371.717001 
L 226.213058 372.220338 
L 226.549831 372.371299 
L 228.233696 373.126157 
L 229.003462 373.498069 
L 230.061892 373.786833 
L 230.831658 373.936372 
L 231.697646 374.098978 
L 233.670173 374.329569 
L 235.6427 374.329569 
L 235.787031 373.659128 
L 236.364356 373.598269 
L 236.701129 373.700846 
L 238.384993 373.800028 
L 239.010429 373.805061 
L 239.876416 373.787365 
L 240.790514 373.785293 
L 243.436587 373.653366 
L 245.553445 373.529092 
L 247.429751 373.529092 
L 247.477861 372.896292 
L 247.574082 372.905677 
L 256.522619 372.988921 
L 257.532938 372.983511 
L 259.216802 372.983511 
L 259.361134 372.3698 
L 262.103427 371.183555 
L 267.443683 369.831866 
L 269.271879 369.66051 
L 271.003854 369.66051 
L 271.148185 369.482091 
L 274.275362 369.037181 
L 275.526233 369.003123 
L 277.065766 368.8938 
L 278.893962 368.777345 
L 284.282328 368.563398 
L 294.577957 368.176107 
L 294.626067 391.539427 
L 294.722288 391.313037 
L 294.96284 390.587544 
L 295.251502 389.834244 
L 295.636386 389.544107 
L 295.973159 388.813826 
L 296.309932 388.713083 
L 296.694815 388.733879 
L 297.079698 388.363332 
L 297.608913 388.235443 
L 298.523011 387.937449 
L 299.244667 387.560822 
L 300.928531 387.150975 
L 303.0935 387.498654 
L 303.526494 387.519923 
L 306.365008 387.528524 
L 306.509339 391.435879 
L 306.60556 391.508777 
L 306.749891 391.438935 
L 306.990443 391.49783 
L 307.567768 391.192391 
L 308.048873 391.351043 
L 308.433756 391.52403 
L 308.91486 391.680514 
L 309.395964 391.816956 
L 310.358172 392.007511 
L 311.705264 392.283451 
L 314.062674 392.705281 
L 316.660637 392.699267 
L 318.103949 392.699267 
L 318.24828 391.918521 
L 319.306709 391.220368 
L 319.691593 390.970368 
L 320.846243 390.739802 
L 321.567899 390.557332 
L 324.02153 390.11484 
L 324.646965 390.024326 
L 326.282719 389.743844 
L 327.581701 389.44546 
L 329.891 389.44546 
L 330.035332 387.490767 
L 330.660767 387.137673 
L 332.777625 386.844365 
L 333.787944 386.900331 
L 337.732998 387.362214 
L 339.031979 387.445639 
L 339.849856 387.452513 
L 341.678052 387.452513 
L 341.822383 387.747646 
L 346.15232 387.411357 
L 346.296652 369.747392 
L 359.430795 369.856284 
L 366.021921 369.930203 
L 385.217976 369.929275 
L 394.98439 370.037761 
L 398.304009 370.110447 
L 402.682057 370.000856 
L 404.077259 369.997836 
L 406.242227 369.993158 
L 418.702824 370.124697 
L 421.156456 370.223541 
L 423.850639 370.252112 
L 424.331743 370.252112 
L 424.476074 370.426643 
L 427.891914 370.516877 
L 431.452084 370.542832 
L 442.854252 370.804575 
L 447.761514 370.929164 
L 447.905846 370.929164 
L 448.098287 371.998884 
L 448.194508 371.720177 
L 448.242619 371.742639 
L 448.38695 371.614559 
L 448.579392 371.424316 
L 448.771833 371.473812 
L 449.252937 371.094627 
L 449.685931 371.062548 
L 449.974594 371.002519 
L 452.283893 371.17834 
L 452.909329 371.227634 
L 454.015868 371.229428 
L 455.459181 371.18704 
L 458.682578 371.060693 
L 459.692897 371.060693 
L 459.789118 371.385339 
L 459.98156 372.332952 
L 460.07778 372.33693 
L 460.125891 372.392379 
L 460.174001 372.345917 
L 460.318333 371.981403 
L 460.510774 371.696537 
L 460.751326 371.733091 
L 461.13621 371.840896 
L 461.665424 372.015904 
L 462.002197 372.15832 
L 462.290859 372.222583 
L 463.060626 372.468286 
L 465.899141 373.274405 
L 466.668907 373.343564 
L 467.534895 373.416166 
L 470.46963 373.518612 
L 471.479949 373.518612 
L 471.62428 372.03851 
L 472.153494 371.884682 
L 473.693028 372.097646 
L 475.13634 372.121354 
L 483.267 371.975307 
L 483.411331 371.799143 
L 484.998975 371.71532 
L 487.067723 371.719022 
L 487.789379 371.739371 
L 488.559145 371.808068 
L 493.851291 371.992392 
L 495.054051 371.992392 
L 495.198383 371.839295 
L 499.432099 371.054692 
L 504.291251 370.389755 
L 506.841103 370.389755 
L 506.985434 370.147399 
L 510.01639 369.481839 
L 511.604034 369.350756 
L 513.432229 369.145068 
L 514.586879 369.024147 
L 516.366965 368.902894 
L 518.628154 368.902894 
L 518.772485 369.021874 
L 521.899662 368.909767 
L 526.470152 368.693589 
L 530.415206 368.633704 
L 530.463316 371.727728 
L 530.559537 371.419071 
L 531.377414 369.462823 
L 531.617966 368.937477 
L 531.906628 368.492562 
L 532.243401 368.425528 
L 532.483953 368.434604 
L 533.590493 367.768931 
L 536.332786 366.585253 
L 536.813891 366.521168 
L 538.209093 366.680167 
L 539.12319 366.803004 
L 539.604295 366.806582 
L 542.202257 366.806582 
L 542.346588 370.47678 
L 542.442809 370.542413 
L 542.58714 370.457952 
L 542.827692 370.48621 
L 543.405017 370.108188 
L 543.886121 370.211156 
L 544.222894 370.339609 
L 544.944551 370.492398 
L 545.906759 370.608185 
L 546.243532 370.663225 
L 546.676525 370.752075 
L 550.477248 371.110123 
L 551.776229 371.078295 
L 553.941198 371.078295 
L 554.085529 370.611412 
L 555.192069 370.198723 
L 555.528842 370.075937 
L 556.53916 370.079686 
L 559.185233 369.857295 
L 562.119968 369.593932 
L 563.51517 369.360533 
L 565.728249 369.360533 
L 565.872581 368.264845 
L 566.305574 368.23935 
L 567.219672 368.230689 
L 567.700776 368.392483 
L 568.229991 368.338351 
L 568.855426 368.43832 
L 569.625193 368.618321 
L 572.030714 369.147411 
L 576.649313 369.547837 
L 577.515301 369.547837 
L 577.659632 370.060341 
L 579.968932 370.072896 
L 581.989569 370.062716 
L 582.1339 369.747453 
L 582.903667 369.636575 
L 583.28855 369.529221 
L 584.058317 369.484531 
L 584.924305 369.123455 
L 585.453519 368.807168 
L 585.694071 368.802102 
L 586.030844 368.756839 
L 586.271396 368.738783 
L 586.896831 369.010191 
L 587.089273 369.083928 
L 587.474156 369.089417 
L 588.388254 369.317223 
L 588.821248 369.506873 
L 589.0618 369.418625 
L 589.591015 369.265597 
L 590.024008 369.256864 
L 592.958744 369.590608 
L 593.439848 369.638307 
L 594.546387 369.834084 
L 597.24057 370.021582 
L 598.39522 369.96792 
L 616.96584 370.078717 
L 624.952169 370.077946 
L 625.529494 369.440095 
L 625.818156 369.498929 
L 626.058708 369.670416 
L 626.29926 369.662458 
L 626.443592 369.557759 
L 626.684144 369.673446 
L 626.924696 369.309171 
L 626.972806 369.411886 
L 627.213358 369.766753 
L 627.35769 369.813225 
L 627.694462 370.100685 
L 627.886904 370.693374 
L 627.983125 370.841038 
L 628.416119 372.005218 
L 628.464229 371.971736 
L 628.656671 371.861844 
L 628.945333 371.71294 
L 629.282106 372.391626 
L 629.7151 374.6277 
L 629.76321 374.62887 
L 630.003762 375.717481 
L 631.158412 383.829053 
L 631.447075 385.052968 
L 631.880068 389.282403 
L 632.120621 390.298664 
L 632.168731 390.213789 
L 632.264952 390.104467 
L 632.409283 389.953784 
L 632.553614 389.768159 
L 633.130939 391.718545 
L 633.22716 391.524089 
L 633.27527 391.575666 
L 633.467712 391.238571 
L 633.515823 391.365597 
L 633.756375 391.797043 
L 634.045037 392.782945 
L 636.594889 392.782945 
L 636.73922 391.180871 
L 636.931662 390.398486 
L 637.172214 389.244222 
L 637.557097 388.144382 
L 637.797649 387.689701 
L 637.89387 387.853201 
L 638.038201 387.632166 
L 638.230643 387.342107 
L 638.326864 387.429004 
L 638.423085 387.557002 
L 638.711747 386.65389 
L 638.759858 386.73076 
L 639.00041 387.589637 
L 639.144741 387.440246 
L 639.289072 387.448207 
L 639.433403 387.397874 
L 639.529624 387.490787 
L 639.577735 387.42447 
L 639.818287 387.256815 
L 639.914508 387.34923 
L 640.010728 387.585381 
L 640.058839 387.55579 
L 640.20317 387.201763 
L 640.25128 387.241198 
L 640.588053 387.394473 
L 640.732385 387.351086 
L 640.780495 387.421279 
L 640.828605 387.321678 
L 641.165378 386.448172 
L 641.35782 386.607699 
L 641.454041 386.585541 
L 641.646482 386.504692 
L 641.742703 386.576767 
L 641.887035 386.698766 
L 642.849243 386.316427 
L 643.282237 385.997806 
L 643.426568 386.019259 
L 643.619009 385.943986 
L 643.859562 386.069073 
L 644.340666 386.012338 
L 644.581218 385.879466 
L 645.110432 385.768913 
L 645.447205 385.882625 
L 646.168861 386.054449 
L 648.38194 386.054449 
L 648.526272 383.318978 
L 648.718713 382.824389 
L 648.863045 383.310882 
L 648.959265 383.160334 
L 649.48848 382.580665 
L 649.584701 382.722141 
L 649.680922 382.783028 
L 649.825253 382.991944 
L 649.969584 383.064523 
L 650.258247 383.690528 
L 650.402578 384.294691 
L 650.595019 384.891908 
L 650.69124 384.805935 
L 650.835572 384.467576 
L 651.028013 384.871632 
L 651.076124 384.810567 
L 651.220455 384.722996 
L 651.316676 384.762909 
L 651.653449 385.60879 
L 651.749669 385.910732 
L 652.134553 387.813835 
L 652.182663 387.800549 
L 652.423215 388.519874 
L 652.663767 388.540153 
L 652.711878 388.497602 
L 652.759988 388.603286 
L 652.904319 389.185721 
L 653.096761 389.85551 
L 653.241092 389.862395 
L 653.625976 391.292142 
L 653.674086 391.276047 
L 654.15519 392.356158 
L 654.443853 393.419605 
L 654.540073 393.985325 
L 654.780625 395.083242 
L 655.165509 396.48697 
L 655.213619 396.435688 
L 655.26173 396.414554 
L 655.550392 397.214395 
L 655.694723 397.115426 
L 655.790944 397.252012 
L 656.608821 400.521033 
L 656.656932 400.482964 
L 656.801263 401.106851 
L 657.138036 402.535655 
L 657.234257 402.92678 
L 657.61914 404.406115 
L 660.168992 404.406115 
L 660.313323 419.442337 
L 660.601986 421.051965 
L 660.842538 422.225415 
L 661.179311 422.891151 
L 661.371752 423.069284 
L 661.516083 423.012115 
L 661.564194 423.054975 
L 661.708525 422.839072 
L 661.949077 423.104693 
L 662.141519 423.256041 
L 662.382071 423.356428 
L 662.766954 423.901408 
L 662.815065 423.923268 
L 663.199948 425.128561 
L 663.296169 425.187608 
L 663.4405 425.185586 
L 663.777273 425.700134 
L 664.017825 425.910146 
L 664.402708 425.983414 
L 665.220585 426.895722 
L 665.605469 427.329399 
L 666.230904 427.434293 
L 667.289333 427.414825 
L 668.492093 428.315874 
L 668.973198 428.608964 
L 669.742964 428.80159 
L 671.956043 428.80159 
L 672.100374 431.695834 
L 672.196595 431.70809 
L 672.389037 432.255575 
L 672.437147 432.207797 
L 672.485258 432.129467 
L 672.533368 432.170539 
L 672.581479 432.229185 
L 672.629589 432.119027 
L 673.014472 431.756559 
L 673.543687 432.520671 
L 674.217233 434.097602 
L 674.505895 434.24419 
L 674.890778 435.469218 
L 675.131331 436.086072 
L 675.227551 436.243693 
L 675.468103 436.722024 
L 675.901097 437.506126 
L 675.949208 437.314689 
L 676.093539 437.135199 
L 676.18976 437.564403 
L 676.863305 440.235772 
L 677.200078 441.020663 
L 677.248189 440.993205 
L 677.34441 441.028265 
L 677.488741 440.925058 
L 677.729293 441.462217 
L 677.921735 441.82446 
L 678.450949 444.150417 
L 678.49906 444.109019 
L 678.54717 444.071389 
L 679.172605 446.644686 
L 679.220716 446.625824 
L 679.268826 446.609283 
L 679.653709 448.060089 
L 679.74993 448.026878 
L 680.182924 449.431852 
L 680.231034 449.40374 
L 680.279145 449.350104 
L 680.808359 451.019242 
L 681.097022 452.222972 
L 683.743095 452.222972 
L 683.791205 455.95199 
L 683.935536 442.993273 
L 684.079868 442.071212 
L 684.41664 441.596824 
L 684.705303 441.580763 
L 685.186407 441.328849 
L 685.378849 441.368928 
L 685.763732 441.113377 
L 686.100505 441.277726 
L 686.148615 441.230876 
L 686.196726 441.328952 
L 686.389167 441.233936 
L 686.581609 441.144178 
L 686.67783 441.218159 
L 686.966492 442.023706 
L 687.014603 441.998516 
L 687.399486 441.534119 
L 687.543817 441.707648 
L 687.640038 441.914469 
L 687.688149 441.856646 
L 687.88059 441.85627 
L 688.169253 441.956182 
L 688.409805 442.816671 
L 688.506026 442.722501 
L 689.131461 441.78868 
L 689.275792 442.022596 
L 689.372013 441.920038 
L 689.756896 441.143472 
L 689.805007 441.172136 
L 689.901228 441.413576 
L 689.949338 441.31019 
L 689.997448 441.26555 
L 690.045559 441.319157 
L 690.093669 441.459499 
L 690.14178 441.394905 
L 690.382332 441.138698 
L 690.670994 440.208051 
L 690.767215 440.468744 
L 690.911546 440.844421 
L 691.103988 440.498784 
L 691.200209 440.517843 
L 691.440761 440.045743 
L 691.777534 438.487723 
L 691.873755 438.258334 
L 691.921865 438.33757 
L 692.114307 438.771915 
L 692.162417 438.619063 
L 692.402969 437.872269 
L 692.884073 436.651736 
L 695.530146 436.651736 
L 695.578256 427.657766 
L 695.722588 481.507924 
L 695.818809 482.227289 
L 696.540465 476.338725 
L 696.588575 476.397735 
L 696.829127 475.859077 
L 697.021569 474.883245 
L 697.069679 474.911629 
L 697.11779 474.89188 
L 697.454563 474.077026 
L 697.887556 473.501379 
L 698.224329 473.674615 
L 698.32055 473.711201 
L 698.36866 473.736448 
L 698.609213 473.452969 
L 698.801654 473.341032 
L 698.849765 473.291733 
L 698.897875 473.368128 
L 699.042206 473.40224 
L 699.378979 473.545659 
L 699.42709 473.762808 
L 699.52331 473.726531 
L 699.811973 474.036751 
L 700.100635 474.433455 
L 700.293077 474.315989 
L 700.67796 475.116067 
L 700.822292 475.1071 
L 700.870402 475.030724 
L 700.918512 475.138685 
L 701.110954 475.242285 
L 701.159064 475.105387 
L 701.207175 475.127533 
L 701.303396 475.356916 
L 701.351506 475.296423 
L 701.543948 475.493916 
L 702.073162 476.437393 
L 702.650487 478.889727 
L 703.083481 479.430112 
L 703.372144 479.58603 
L 704.0938 480.850637 
L 704.190021 480.861727 
L 704.719235 482.260493 
L 707.317197 482.260493 
L 707.365308 474.211937 
L 707.461529 474.999354 
L 707.894522 485.499347 
L 707.942633 485.742773 
L 707.990743 485.372349 
L 708.038854 485.751966 
L 708.231295 486.791541 
L 708.327516 486.715963 
L 708.664289 487.724737 
L 708.76051 488.133935 
L 708.80862 488.377202 
L 708.856731 488.309607 
L 708.904841 488.278444 
L 709.674608 489.865234 
L 709.770829 489.924893 
L 710.107601 490.652457 
L 710.588706 491.363114 
L 710.829258 491.703995 
L 711.021699 491.830808 
L 711.166031 491.714502 
L 711.214141 491.758955 
L 712.080128 492.234049 
L 712.465012 492.165292 
L 713.42722 491.173735 
L 714.870532 489.709714 
L 715.303526 488.890526 
L 715.495968 488.896532 
L 715.78463 488.720972 
L 716.410066 487.223041 
L 716.458176 487.243566 
L 719.104249 487.243566 
L 719.152359 487.840128 
L 719.24858 487.745516 
L 719.392911 487.596395 
L 719.489132 487.796398 
L 719.681574 488.694197 
L 719.729684 488.581824 
L 719.777795 488.660385 
L 720.114568 491.062871 
L 720.162678 490.939476 
L 720.258899 490.942576 
L 720.40323 491.098859 
L 720.643782 492.778953 
L 720.836224 492.620481 
L 720.980555 493.171425 
L 721.221107 494.405738 
L 721.413549 494.844582 
L 721.461659 494.80971 
L 721.50977 494.646818 
L 721.55788 494.717299 
L 721.60599 494.747914 
L 722.087095 496.257819 
L 722.183315 496.24357 
L 722.279536 496.03217 
L 722.327647 496.154434 
L 722.616309 497.034857 
L 722.71253 496.773947 
L 722.76064 496.862718 
L 722.856861 497.073993 
L 722.904972 497.049615 
L 723.289855 497.849998 
L 725.695376 509.481177 
L 725.791596 509.777378 
L 726.17648 511.997026 
L 727.090578 519.382605 
L 727.42735 521.307836 
L 727.571682 522.087765 
L 727.716013 522.081609 
L 728.100896 523.512727 
L 728.197117 523.351685 
L 728.341448 523.29015 
L 730.8913 523.29015 
L 731.035632 515.328806 
L 731.612956 504.965045 
L 731.949729 499.286831 
L 732.142171 496.876338 
L 732.527054 491.889762 
L 733.15249 487.937608 
L 734.162808 476.588649 
L 734.451471 471.71687 
L 734.692023 469.764003 
L 735.46179 462.883866 
L 735.55801 462.032233 
L 735.606121 462.105873 
L 735.654231 462.200091 
L 735.702342 462.130872 
L 736.183446 457.363922 
L 736.61644 452.543656 
L 736.856992 450.689724 
L 737.578648 446.24019 
L 737.674869 445.925928 
L 737.915421 444.200772 
L 738.348414 439.736167 
L 738.685187 437.850675 
L 739.214402 435.229567 
L 739.503064 433.480647 
L 740.080389 430.343771 
L 742.678352 430.343771 
L 742.822683 415.609271 
L 744.891431 380.469298 
L 744.939541 380.307186 
L 744.987652 380.54316 
L 745.035762 380.298266 
L 745.276314 379.132298 
L 745.324424 379.027529 
L 745.94986 372.510806 
L 746.238522 371.786542 
L 746.527185 370.751025 
L 746.671516 370.285126 
L 748.644043 355.626582 
L 750.472239 341.755785 
L 751.145785 338.417491 
L 751.338226 337.084145 
L 751.915551 332.833704 
L 754.465403 332.833704 
L 754.609734 334.002632 
L 754.898397 334.060024 
L 755.138949 334.049476 
L 755.331391 334.044794 
L 755.523832 334.009882 
L 756.101157 333.961175 
L 756.293599 333.746556 
L 756.534151 334.04169 
L 756.630372 334.089391 
L 756.870924 333.901616 
L 757.063365 333.876969 
L 757.303917 333.208173 
L 757.352028 333.157418 
L 757.400138 333.239059 
L 757.736911 333.588549 
L 757.881242 333.506454 
L 757.929353 333.453397 
L 758.169905 332.698444 
L 758.410457 332.568864 
L 758.506678 332.649394 
L 758.69912 332.090455 
L 758.939672 331.469531 
L 759.035892 331.371619 
L 759.565107 329.913237 
L 759.757549 329.741589 
L 760.142432 328.31845 
L 760.334874 328.162522 
L 760.431094 327.929895 
L 760.719757 326.007641 
L 761.537634 320.182146 
L 761.681965 319.712516 
L 761.730076 319.71624 
L 761.970628 318.894398 
L 762.403621 317.503457 
L 763.077167 315.10839 
L 763.125278 315.208991 
L 763.173388 315.184799 
L 763.654492 312.967273 
L 766.252454 312.967273 
L 766.300565 369.47242 
L 766.396786 369.096183 
L 767.118442 366.969176 
L 767.358994 366.561612 
L 767.743877 365.780012 
L 768.08065 365.654965 
L 768.273092 365.654536 
L 769.379631 364.833109 
L 769.956956 364.631677 
L 771.833262 363.501445 
L 773.180354 363.229211 
L 774.046342 363.346759 
L 774.479335 363.357254 
L 774.719887 363.390094 
L 775.152881 363.389957 
L 778.039506 363.390804 
L 778.183837 369.653377 
L 778.280058 369.727673 
L 778.424389 369.636794 
L 778.664941 369.668023 
L 779.242266 369.265601 
L 779.72337 369.366763 
L 780.060143 369.494265 
L 780.781799 369.63798 
L 781.744008 369.7394 
L 782.080781 369.789053 
L 782.513774 369.870983 
L 786.362607 370.169714 
L 787.85403 370.145663 
L 789.778447 370.145663 
L 789.922778 369.646503 
L 791.029318 369.251455 
L 791.366091 369.129919 
L 792.280188 369.195533 
L 793.242397 369.096521 
L 794.83004 369.037856 
L 795.503586 368.982283 
L 797.716665 368.812913 
L 799.544861 368.523921 
L 801.565498 368.523921 
L 801.70983 367.571466 
L 802.094713 367.592616 
L 803.441804 367.830927 
L 803.634246 367.841418 
L 803.971019 367.806883 
L 807.867963 368.781662 
L 812.1979 369.228658 
L 813.35255 369.228658 
L 813.496881 369.782029 
L 815.75807 369.814065 
L 817.826818 369.807624 
L 817.826818 369.807624 
" clip-path="url(#p578ae9b12c)" style="fill: none; stroke-dasharray: 5.55,2.4; stroke-dashoffset: 0; stroke: #ff0000; stroke-width: 1.5"/>
   </g>
   <g id="line2d_59">
    <path d="M 346.200431 534.04 
L 346.200431 302.44 
" clip-path="url(#p578ae9b12c)" style="fill: none; stroke-dasharray: 1.5,2.475; stroke-dashoffset: 0; stroke: #808080; stroke-opacity: 0.6; stroke-width: 1.5"/>
   </g>
   <g id="line2d_60">
    <path d="M 582.03768 534.04 
L 582.03768 302.44 
" clip-path="url(#p578ae9b12c)" style="fill: none; stroke-dasharray: 1.5,2.475; stroke-dashoffset: 0; stroke: #808080; stroke-opacity: 0.6; stroke-width: 1.5"/>
   </g>
   <g id="patch_9">
    <path d="M 74.99 534.04 
L 74.99 302.44 
" style="fill: none; stroke: #000000; stroke-width: 0.8; stroke-linejoin: miter; stroke-linecap: square"/>
   </g>
   <g id="patch_10">
    <path d="M 853.2 534.04 
L 853.2 302.44 
" style="fill: none; stroke: #000000; stroke-width: 0.8; stroke-linejoin: miter; stroke-linecap: square"/>
   </g>
   <g id="patch_11">
    <path d="M 74.99 534.04 
L 853.2 534.04 
" style="fill: none; stroke: #000000; stroke-width: 0.8; stroke-linejoin: miter; stroke-linecap: square"/>
   </g>
   <g id="patch_12">
    <path d="M 74.99 302.44 
L 853.2 302.44 
" style="fill: none; stroke: #000000; stroke-width: 0.8; stroke-linejoin: miter; stroke-linecap: square"/>
   </g>
   <g id="text_32">
    <!-- [20] Kg_zz  —  State Estimate -->
    <g transform="translate(374.911563 296.44) scale(0.12 -0.12)">
     <use xlink:href="#DejaVuSans-5b"/>
     <use xlink:href="#DejaVuSans-32" transform="translate(39.013672 0)"/>
     <use xlink:href="#DejaVuSans-30" transform="translate(102.636719 0)"/>
     <use xlink:href="#DejaVuSans-5d" transform="translate(166.259766 0)"/>
     <use xlink:href="#DejaVuSans-20" transform="translate(205.273438 0)"/>
     <use xlink:href="#DejaVuSans-4b" transform="translate(237.060547 0)"/>
     <use xlink:href="#DejaVuSans-67" transform="translate(302.636719 0)"/>
     <use xlink:href="#DejaVuSans-5f" transform="translate(366.113281 0)"/>
     <use xlink:href="#DejaVuSans-7a" transform="translate(416.113281 0)"/>
     <use xlink:href="#DejaVuSans-7a" transform="translate(468.603516 0)"/>
     <use xlink:href="#DejaVuSans-20" transform="translate(521.09375 0)"/>
     <use xlink:href="#DejaVuSans-20" transform="translate(552.880859 0)"/>
     <use xlink:href="#DejaVuSans-2014" transform="translate(584.667969 0)"/>
     <use xlink:href="#DejaVuSans-20" transform="translate(684.667969 0)"/>
     <use xlink:href="#DejaVuSans-20" transform="translate(716.455078 0)"/>
     <use xlink:href="#DejaVuSans-53" transform="translate(748.242188 0)"/>
     <use xlink:href="#DejaVuSans-74" transform="translate(811.71875 0)"/>
     <use xlink:href="#DejaVuSans-61" transform="translate(850.927734 0)"/>
     <use xlink:href="#DejaVuSans-74" transform="translate(912.207031 0)"/>
     <use xlink:href="#DejaVuSans-65" transform="translate(951.416016 0)"/>
     <use xlink:href="#DejaVuSans-20" transform="translate(1012.939453 0)"/>
     <use xlink:href="#DejaVuSans-45" transform="translate(1044.726562 0)"/>
     <use xlink:href="#DejaVuSans-73" transform="translate(1107.910156 0)"/>
     <use xlink:href="#DejaVuSans-74" transform="translate(1160.009766 0)"/>
     <use xlink:href="#DejaVuSans-69" transform="translate(1199.21875 0)"/>
     <use xlink:href="#DejaVuSans-6d" transform="translate(1227.001953 0)"/>
     <use xlink:href="#DejaVuSans-61" transform="translate(1324.414062 0)"/>
     <use xlink:href="#DejaVuSans-74" transform="translate(1385.693359 0)"/>
     <use xlink:href="#DejaVuSans-65" transform="translate(1424.902344 0)"/>
    </g>
   </g>
   <g id="legend_2">
    <g id="patch_13">
     <path d="M 81.99 339.79625 
L 193.847813 339.79625 
Q 195.847813 339.79625 195.847813 337.79625 
L 195.847813 309.44 
Q 195.847813 307.44 193.847813 307.44 
L 81.99 307.44 
Q 79.99 307.44 79.99 309.44 
L 79.99 337.79625 
Q 79.99 339.79625 81.99 339.79625 
z
" style="fill: #ffffff; opacity: 0.8; stroke: #cccccc; stroke-linejoin: miter"/>
    </g>
    <g id="line2d_61">
     <path d="M 83.99 315.538437 
L 93.99 315.538437 
L 103.99 315.538437 
" style="fill: none; stroke: #0000ff; stroke-width: 1.5; stroke-linecap: square"/>
    </g>
    <g id="text_33">
     <!-- Ideal (No Noise) -->
     <g transform="translate(111.99 319.038437) scale(0.1 -0.1)">
      <use xlink:href="#DejaVuSans-49"/>
      <use xlink:href="#DejaVuSans-64" transform="translate(29.492188 0)"/>
      <use xlink:href="#DejaVuSans-65" transform="translate(92.96875 0)"/>
      <use xlink:href="#DejaVuSans-61" transform="translate(154.492188 0)"/>
      <use xlink:href="#DejaVuSans-6c" transform="translate(215.771484 0)"/>
      <use xlink:href="#DejaVuSans-20" transform="translate(243.554688 0)"/>
      <use xlink:href="#DejaVuSans-28" transform="translate(275.341797 0)"/>
      <use xlink:href="#DejaVuSans-4e" transform="translate(314.355469 0)"/>
      <use xlink:href="#DejaVuSans-6f" transform="translate(389.160156 0)"/>
      <use xlink:href="#DejaVuSans-20" transform="translate(450.341797 0)"/>
      <use xlink:href="#DejaVuSans-4e" transform="translate(482.128906 0)"/>
      <use xlink:href="#DejaVuSans-6f" transform="translate(556.933594 0)"/>
      <use xlink:href="#DejaVuSans-69" transform="translate(618.115234 0)"/>
      <use xlink:href="#DejaVuSans-73" transform="translate(645.898438 0)"/>
      <use xlink:href="#DejaVuSans-65" transform="translate(697.998047 0)"/>
      <use xlink:href="#DejaVuSans-29" transform="translate(759.521484 0)"/>
     </g>
    </g>
    <g id="line2d_62">
     <path d="M 83.99 330.216562 
L 93.99 330.216562 
L 103.99 330.216562 
" style="fill: none; stroke-dasharray: 5.55,2.4; stroke-dashoffset: 0; stroke: #ff0000; stroke-width: 1.5"/>
    </g>
    <g id="text_34">
     <!-- With Full Noise -->
     <g transform="translate(111.99 333.716562) scale(0.1 -0.1)">
      <use xlink:href="#DejaVuSans-57"/>
      <use xlink:href="#DejaVuSans-69" transform="translate(96.626953 0)"/>
      <use xlink:href="#DejaVuSans-74" transform="translate(124.410156 0)"/>
      <use xlink:href="#DejaVuSans-68" transform="translate(163.619141 0)"/>
      <use xlink:href="#DejaVuSans-20" transform="translate(226.998047 0)"/>
      <use xlink:href="#DejaVuSans-46" transform="translate(258.785156 0)"/>
      <use xlink:href="#DejaVuSans-75" transform="translate(310.804688 0)"/>
      <use xlink:href="#DejaVuSans-6c" transform="translate(374.183594 0)"/>
      <use xlink:href="#DejaVuSans-6c" transform="translate(401.966797 0)"/>
      <use xlink:href="#DejaVuSans-20" transform="translate(429.75 0)"/>
      <use xlink:href="#DejaVuSans-4e" transform="translate(461.537109 0)"/>
      <use xlink:href="#DejaVuSans-6f" transform="translate(536.341797 0)"/>
      <use xlink:href="#DejaVuSans-69" transform="translate(597.523438 0)"/>
      <use xlink:href="#DejaVuSans-73" transform="translate(625.306641 0)"/>
      <use xlink:href="#DejaVuSans-65" transform="translate(677.40625 0)"/>
     </g>
    </g>
   </g>
  </g>
 </g>
 <defs>
  <clipPath id="p6817e46570">
   <rect x="74.99" y="26.88" width="778.21" height="231.6"/>
  </clipPath>
  <clipPath id="p578ae9b12c">
   <rect x="74.99" y="302.44" width="778.21" height="231.6"/>
  </clipPath>
 </defs>
</svg>
