<?xml version="1.0" encoding="utf-8" standalone="no"?>
<!DOCTYPE svg PUBLIC "-//W3C//DTD SVG 1.1//EN"
  "http://www.w3.org/Graphics/SVG/1.1/DTD/svg11.dtd">
<svg xmlns:xlink="http://www.w3.org/1999/xlink" width="864pt" height="576pt" viewBox="0 0 864 576" xmlns="http://www.w3.org/2000/svg" version="1.1">
 <metadata>
  <rdf:RDF xmlns:dc="http://purl.org/dc/elements/1.1/" xmlns:cc="http://creativecommons.org/ns#" xmlns:rdf="http://www.w3.org/1999/02/22-rdf-syntax-ns#">
   <cc:Work>
    <dc:type rdf:resource="http://purl.org/dc/dcmitype/StillImage"/>
    <dc:date>2026-03-09T19:22:00.447198</dc:date>
    <dc:format>image/svg+xml</dc:format>
    <dc:creator>
     <cc:Agent>
      <dc:title>Matplotlib v3.10.8, https://matplotlib.org/</dc:title>
     </cc:Agent>
    </dc:creator>
   </cc:Work>
  </rdf:RDF>
 </metadata>
 <defs>
  <style type="text/css">*{stroke-linejoin: round; stroke-linecap: butt}</style>
 </defs>
 <g id="figure_1">
  <g id="patch_1">
   <path d="M 0 576 
L 864 576 
L 864 0 
L 0 0 
z
" style="fill: #ffffff"/>
  </g>
  <g id="axes_1">
   <g id="patch_2">
    <path d="M 74.99 258.48 
L 853.2 258.48 
L 853.2 26.88 
L 74.99 26.88 
z
" style="fill: #ffffff"/>
   </g>
   <g id="matplotlib.axis_1">
    <g id="xtick_1">
     <g id="line2d_1">
      <path d="M 110.363182 258.48 
L 110.363182 26.88 
" clip-path="url(#pddfe84ab4e)" style="fill: none; stroke: #b0b0b0; stroke-width: 0.8; stroke-linecap: square"/>
     </g>
     <g id="line2d_2">
      <defs>
       <path id="m7580d7d2b0" d="M 0 0 
L 0 3.5 
" style="stroke: #000000; stroke-width: 0.8"/>
      </defs>
      <g>
       <use xlink:href="#m7580d7d2b0" x="110.363182" y="258.48" style="stroke: #000000; stroke-width: 0.8"/>
      </g>
     </g>
     <g id="text_1">
      <!-- 0 -->
      <g transform="translate(107.181932 273.078438) scale(0.1 -0.1)">
       <defs>
        <path id="DejaVuSans-30" d="M 2034 4250 
Q 1547 4250 1301 3770 
Q 1056 3291 1056 2328 
Q 1056 1369 1301 889 
Q 1547 409 2034 409 
Q 2525 409 2770 889 
Q 3016 1369 3016 2328 
Q 3016 3291 2770 3770 
Q 2525 4250 2034 4250 
z
M 2034 4750 
Q 2819 4750 3233 4129 
Q 3647 3509 3647 2328 
Q 3647 1150 3233 529 
Q 2819 -91 2034 -91 
Q 1250 -91 836 529 
Q 422 1150 422 2328 
Q 422 3509 836 4129 
Q 1250 4750 2034 4750 
z
" transform="scale(0.015625)"/>
       </defs>
       <use xlink:href="#DejaVuSans-30"/>
      </g>
     </g>
    </g>
    <g id="xtick_2">
     <g id="line2d_3">
      <path d="M 230.639217 258.48 
L 230.639217 26.88 
" clip-path="url(#pddfe84ab4e)" style="fill: none; stroke: #b0b0b0; stroke-width: 0.8; stroke-linecap: square"/>
     </g>
     <g id="line2d_4">
      <g>
       <use xlink:href="#m7580d7d2b0" x="230.639217" y="258.48" style="stroke: #000000; stroke-width: 0.8"/>
      </g>
     </g>
     <g id="text_2">
      <!-- 50 -->
      <g transform="translate(224.276717 273.078438) scale(0.1 -0.1)">
       <defs>
        <path id="DejaVuSans-35" d="M 691 4666 
L 3169 4666 
L 3169 4134 
L 1269 4134 
L 1269 2991 
Q 1406 3038 1543 3061 
Q 1681 3084 1819 3084 
Q 2600 3084 3056 2656 
Q 3513 2228 3513 1497 
Q 3513 744 3044 326 
Q 2575 -91 1722 -91 
Q 1428 -91 1123 -41 
Q 819 9 494 109 
L 494 744 
Q 775 591 1075 516 
Q 1375 441 1709 441 
Q 2250 441 2565 725 
Q 2881 1009 2881 1497 
Q 2881 1984 2565 2268 
Q 2250 2553 1709 2553 
Q 1456 2553 1204 2497 
Q 953 2441 691 2322 
L 691 4666 
z
" transform="scale(0.015625)"/>
       </defs>
       <use xlink:href="#DejaVuSans-35"/>
       <use xlink:href="#DejaVuSans-30" transform="translate(63.623047 0)"/>
      </g>
     </g>
    </g>
    <g id="xtick_3">
     <g id="line2d_5">
      <path d="M 350.915251 258.48 
L 350.915251 26.88 
" clip-path="url(#pddfe84ab4e)" style="fill: none; stroke: #b0b0b0; stroke-width: 0.8; stroke-linecap: square"/>
     </g>
     <g id="line2d_6">
      <g>
       <use xlink:href="#m7580d7d2b0" x="350.915251" y="258.48" style="stroke: #000000; stroke-width: 0.8"/>
      </g>
     </g>
     <g id="text_3">
      <!-- 100 -->
      <g transform="translate(341.371501 273.078438) scale(0.1 -0.1)">
       <defs>
        <path id="DejaVuSans-31" d="M 794 531 
L 1825 531 
L 1825 4091 
L 703 3866 
L 703 4441 
L 1819 4666 
L 2450 4666 
L 2450 531 
L 3481 531 
L 3481 0 
L 794 0 
L 794 531 
z
" transform="scale(0.015625)"/>
       </defs>
       <use xlink:href="#DejaVuSans-31"/>
       <use xlink:href="#DejaVuSans-30" transform="translate(63.623047 0)"/>
       <use xlink:href="#DejaVuSans-30" transform="translate(127.246094 0)"/>
      </g>
     </g>
    </g>
    <g id="xtick_4">
     <g id="line2d_7">
      <path d="M 471.191286 258.48 
L 471.191286 26.88 
" clip-path="url(#pddfe84ab4e)" style="fill: none; stroke: #b0b0b0; stroke-width: 0.8; stroke-linecap: square"/>
     </g>
     <g id="line2d_8">
      <g>
       <use xlink:href="#m7580d7d2b0" x="471.191286" y="258.48" style="stroke: #000000; stroke-width: 0.8"/>
      </g>
     </g>
     <g id="text_4">
      <!-- 150 -->
      <g transform="translate(461.647536 273.078438) scale(0.1 -0.1)">
       <use xlink:href="#DejaVuSans-31"/>
       <use xlink:href="#DejaVuSans-35" transform="translate(63.623047 0)"/>
       <use xlink:href="#DejaVuSans-30" transform="translate(127.246094 0)"/>
      </g>
     </g>
    </g>
    <g id="xtick_5">
     <g id="line2d_9">
      <path d="M 591.467321 258.48 
L 591.467321 26.88 
" clip-path="url(#pddfe84ab4e)" style="fill: none; stroke: #b0b0b0; stroke-width: 0.8; stroke-linecap: square"/>
     </g>
     <g id="line2d_10">
      <g>
       <use xlink:href="#m7580d7d2b0" x="591.467321" y="258.48" style="stroke: #000000; stroke-width: 0.8"/>
      </g>
     </g>
     <g id="text_5">
      <!-- 200 -->
      <g transform="translate(581.923571 273.078438) scale(0.1 -0.1)">
       <defs>
        <path id="DejaVuSans-32" d="M 1228 531 
L 3431 531 
L 3431 0 
L 469 0 
L 469 531 
Q 828 903 1448 1529 
Q 2069 2156 2228 2338 
Q 2531 2678 2651 2914 
Q 2772 3150 2772 3378 
Q 2772 3750 2511 3984 
Q 2250 4219 1831 4219 
Q 1534 4219 1204 4116 
Q 875 4013 500 3803 
L 500 4441 
Q 881 4594 1212 4672 
Q 1544 4750 1819 4750 
Q 2544 4750 2975 4387 
Q 3406 4025 3406 3419 
Q 3406 3131 3298 2873 
Q 3191 2616 2906 2266 
Q 2828 2175 2409 1742 
Q 1991 1309 1228 531 
z
" transform="scale(0.015625)"/>
       </defs>
       <use xlink:href="#DejaVuSans-32"/>
       <use xlink:href="#DejaVuSans-30" transform="translate(63.623047 0)"/>
       <use xlink:href="#DejaVuSans-30" transform="translate(127.246094 0)"/>
      </g>
     </g>
    </g>
    <g id="xtick_6">
     <g id="line2d_11">
      <path d="M 711.743356 258.48 
L 711.743356 26.88 
" clip-path="url(#pddfe84ab4e)" style="fill: none; stroke: #b0b0b0; stroke-width: 0.8; stroke-linecap: square"/>
     </g>
     <g id="line2d_12">
      <g>
       <use xlink:href="#m7580d7d2b0" x="711.743356" y="258.48" style="stroke: #000000; stroke-width: 0.8"/>
      </g>
     </g>
     <g id="text_6">
      <!-- 250 -->
      <g transform="translate(702.199606 273.078438) scale(0.1 -0.1)">
       <use xlink:href="#DejaVuSans-32"/>
       <use xlink:href="#DejaVuSans-35" transform="translate(63.623047 0)"/>
       <use xlink:href="#DejaVuSans-30" transform="translate(127.246094 0)"/>
      </g>
     </g>
    </g>
    <g id="xtick_7">
     <g id="line2d_13">
      <path d="M 832.01939 258.48 
L 832.01939 26.88 
" clip-path="url(#pddfe84ab4e)" style="fill: none; stroke: #b0b0b0; stroke-width: 0.8; stroke-linecap: square"/>
     </g>
     <g id="line2d_14">
      <g>
       <use xlink:href="#m7580d7d2b0" x="832.01939" y="258.48" style="stroke: #000000; stroke-width: 0.8"/>
      </g>
     </g>
     <g id="text_7">
      <!-- 300 -->
      <g transform="translate(822.47564 273.078438) scale(0.1 -0.1)">
       <defs>
        <path id="DejaVuSans-33" d="M 2597 2516 
Q 3050 2419 3304 2112 
Q 3559 1806 3559 1356 
Q 3559 666 3084 287 
Q 2609 -91 1734 -91 
Q 1441 -91 1130 -33 
Q 819 25 488 141 
L 488 750 
Q 750 597 1062 519 
Q 1375 441 1716 441 
Q 2309 441 2620 675 
Q 2931 909 2931 1356 
Q 2931 1769 2642 2001 
Q 2353 2234 1838 2234 
L 1294 2234 
L 1294 2753 
L 1863 2753 
Q 2328 2753 2575 2939 
Q 2822 3125 2822 3475 
Q 2822 3834 2567 4026 
Q 2313 4219 1838 4219 
Q 1578 4219 1281 4162 
Q 984 4106 628 3988 
L 628 4550 
Q 988 4650 1302 4700 
Q 1616 4750 1894 4750 
Q 2613 4750 3031 4423 
Q 3450 4097 3450 3541 
Q 3450 3153 3228 2886 
Q 3006 2619 2597 2516 
z
" transform="scale(0.015625)"/>
       </defs>
       <use xlink:href="#DejaVuSans-33"/>
       <use xlink:href="#DejaVuSans-30" transform="translate(63.623047 0)"/>
       <use xlink:href="#DejaVuSans-30" transform="translate(127.246094 0)"/>
      </g>
     </g>
    </g>
   </g>
   <g id="matplotlib.axis_2">
    <g id="ytick_1">
     <g id="line2d_15">
      <path d="M 74.99 248.708243 
L 853.2 248.708243 
" clip-path="url(#pddfe84ab4e)" style="fill: none; stroke: #b0b0b0; stroke-width: 0.8; stroke-linecap: square"/>
     </g>
     <g id="line2d_16">
      <defs>
       <path id="m14161aac16" d="M 0 0 
L -3.5 0 
" style="stroke: #000000; stroke-width: 0.8"/>
      </defs>
      <g>
       <use xlink:href="#m14161aac16" x="74.99" y="248.708243" style="stroke: #000000; stroke-width: 0.8"/>
      </g>
     </g>
     <g id="text_8">
      <!-- 0.000 -->
      <g transform="translate(39.361875 252.507462) scale(0.1 -0.1)">
       <defs>
        <path id="DejaVuSans-2e" d="M 684 794 
L 1344 794 
L 1344 0 
L 684 0 
L 684 794 
z
" transform="scale(0.015625)"/>
       </defs>
       <use xlink:href="#DejaVuSans-30"/>
       <use xlink:href="#DejaVuSans-2e" transform="translate(63.623047 0)"/>
       <use xlink:href="#DejaVuSans-30" transform="translate(95.410156 0)"/>
       <use xlink:href="#DejaVuSans-30" transform="translate(159.033203 0)"/>
       <use xlink:href="#DejaVuSans-30" transform="translate(222.65625 0)"/>
      </g>
     </g>
    </g>
    <g id="ytick_2">
     <g id="line2d_17">
      <path d="M 74.99 205.124289 
L 853.2 205.124289 
" clip-path="url(#pddfe84ab4e)" style="fill: none; stroke: #b0b0b0; stroke-width: 0.8; stroke-linecap: square"/>
     </g>
     <g id="line2d_18">
      <g>
       <use xlink:href="#m14161aac16" x="74.99" y="205.124289" style="stroke: #000000; stroke-width: 0.8"/>
      </g>
     </g>
     <g id="text_9">
      <!-- 0.001 -->
      <g transform="translate(39.361875 208.923508) scale(0.1 -0.1)">
       <use xlink:href="#DejaVuSans-30"/>
       <use xlink:href="#DejaVuSans-2e" transform="translate(63.623047 0)"/>
       <use xlink:href="#DejaVuSans-30" transform="translate(95.410156 0)"/>
       <use xlink:href="#DejaVuSans-30" transform="translate(159.033203 0)"/>
       <use xlink:href="#DejaVuSans-31" transform="translate(222.65625 0)"/>
      </g>
     </g>
    </g>
    <g id="ytick_3">
     <g id="line2d_19">
      <path d="M 74.99 161.540336 
L 853.2 161.540336 
" clip-path="url(#pddfe84ab4e)" style="fill: none; stroke: #b0b0b0; stroke-width: 0.8; stroke-linecap: square"/>
     </g>
     <g id="line2d_20">
      <g>
       <use xlink:href="#m14161aac16" x="74.99" y="161.540336" style="stroke: #000000; stroke-width: 0.8"/>
      </g>
     </g>
     <g id="text_10">
      <!-- 0.002 -->
      <g transform="translate(39.361875 165.339554) scale(0.1 -0.1)">
       <use xlink:href="#DejaVuSans-30"/>
       <use xlink:href="#DejaVuSans-2e" transform="translate(63.623047 0)"/>
       <use xlink:href="#DejaVuSans-30" transform="translate(95.410156 0)"/>
       <use xlink:href="#DejaVuSans-30" transform="translate(159.033203 0)"/>
       <use xlink:href="#DejaVuSans-32" transform="translate(222.65625 0)"/>
      </g>
     </g>
    </g>
    <g id="ytick_4">
     <g id="line2d_21">
      <path d="M 74.99 117.956382 
L 853.2 117.956382 
" clip-path="url(#pddfe84ab4e)" style="fill: none; stroke: #b0b0b0; stroke-width: 0.8; stroke-linecap: square"/>
     </g>
     <g id="line2d_22">
      <g>
       <use xlink:href="#m14161aac16" x="74.99" y="117.956382" style="stroke: #000000; stroke-width: 0.8"/>
      </g>
     </g>
     <g id="text_11">
      <!-- 0.003 -->
      <g transform="translate(39.361875 121.755601) scale(0.1 -0.1)">
       <use xlink:href="#DejaVuSans-30"/>
       <use xlink:href="#DejaVuSans-2e" transform="translate(63.623047 0)"/>
       <use xlink:href="#DejaVuSans-30" transform="translate(95.410156 0)"/>
       <use xlink:href="#DejaVuSans-30" transform="translate(159.033203 0)"/>
       <use xlink:href="#DejaVuSans-33" transform="translate(222.65625 0)"/>
      </g>
     </g>
    </g>
    <g id="ytick_5">
     <g id="line2d_23">
      <path d="M 74.99 74.372428 
L 853.2 74.372428 
" clip-path="url(#pddfe84ab4e)" style="fill: none; stroke: #b0b0b0; stroke-width: 0.8; stroke-linecap: square"/>
     </g>
     <g id="line2d_24">
      <g>
       <use xlink:href="#m14161aac16" x="74.99" y="74.372428" style="stroke: #000000; stroke-width: 0.8"/>
      </g>
     </g>
     <g id="text_12">
      <!-- 0.004 -->
      <g transform="translate(39.361875 78.171647) scale(0.1 -0.1)">
       <defs>
        <path id="DejaVuSans-34" d="M 2419 4116 
L 825 1625 
L 2419 1625 
L 2419 4116 
z
M 2253 4666 
L 3047 4666 
L 3047 1625 
L 3713 1625 
L 3713 1100 
L 3047 1100 
L 3047 0 
L 2419 0 
L 2419 1100 
L 313 1100 
L 313 1709 
L 2253 4666 
z
" transform="scale(0.015625)"/>
       </defs>
       <use xlink:href="#DejaVuSans-30"/>
       <use xlink:href="#DejaVuSans-2e" transform="translate(63.623047 0)"/>
       <use xlink:href="#DejaVuSans-30" transform="translate(95.410156 0)"/>
       <use xlink:href="#DejaVuSans-30" transform="translate(159.033203 0)"/>
       <use xlink:href="#DejaVuSans-34" transform="translate(222.65625 0)"/>
      </g>
     </g>
    </g>
    <g id="ytick_6">
     <g id="line2d_25">
      <path d="M 74.99 30.788475 
L 853.2 30.788475 
" clip-path="url(#pddfe84ab4e)" style="fill: none; stroke: #b0b0b0; stroke-width: 0.8; stroke-linecap: square"/>
     </g>
     <g id="line2d_26">
      <g>
       <use xlink:href="#m14161aac16" x="74.99" y="30.788475" style="stroke: #000000; stroke-width: 0.8"/>
      </g>
     </g>
     <g id="text_13">
      <!-- 0.005 -->
      <g transform="translate(39.361875 34.587693) scale(0.1 -0.1)">
       <use xlink:href="#DejaVuSans-30"/>
       <use xlink:href="#DejaVuSans-2e" transform="translate(63.623047 0)"/>
       <use xlink:href="#DejaVuSans-30" transform="translate(95.410156 0)"/>
       <use xlink:href="#DejaVuSans-30" transform="translate(159.033203 0)"/>
       <use xlink:href="#DejaVuSans-35" transform="translate(222.65625 0)"/>
      </g>
     </g>
    </g>
    <g id="text_14">
     <!-- Std Dev -->
     <g transform="translate(33.282187 162.463594) rotate(-90) scale(0.1 -0.1)">
      <defs>
       <path id="DejaVuSans-53" d="M 3425 4513 
L 3425 3897 
Q 3066 4069 2747 4153 
Q 2428 4238 2131 4238 
Q 1616 4238 1336 4038 
Q 1056 3838 1056 3469 
Q 1056 3159 1242 3001 
Q 1428 2844 1947 2747 
L 2328 2669 
Q 3034 2534 3370 2195 
Q 3706 1856 3706 1288 
Q 3706 609 3251 259 
Q 2797 -91 1919 -91 
Q 1588 -91 1214 -16 
Q 841 59 441 206 
L 441 856 
Q 825 641 1194 531 
Q 1563 422 1919 422 
Q 2459 422 2753 634 
Q 3047 847 3047 1241 
Q 3047 1584 2836 1778 
Q 2625 1972 2144 2069 
L 1759 2144 
Q 1053 2284 737 2584 
Q 422 2884 422 3419 
Q 422 4038 858 4394 
Q 1294 4750 2059 4750 
Q 2388 4750 2728 4690 
Q 3069 4631 3425 4513 
z
" transform="scale(0.015625)"/>
       <path id="DejaVuSans-74" d="M 1172 4494 
L 1172 3500 
L 2356 3500 
L 2356 3053 
L 1172 3053 
L 1172 1153 
Q 1172 725 1289 603 
Q 1406 481 1766 481 
L 2356 481 
L 2356 0 
L 1766 0 
Q 1100 0 847 248 
Q 594 497 594 1153 
L 594 3053 
L 172 3053 
L 172 3500 
L 594 3500 
L 594 4494 
L 1172 4494 
z
" transform="scale(0.015625)"/>
       <path id="DejaVuSans-64" d="M 2906 2969 
L 2906 4863 
L 3481 4863 
L 3481 0 
L 2906 0 
L 2906 525 
Q 2725 213 2448 61 
Q 2172 -91 1784 -91 
Q 1150 -91 751 415 
Q 353 922 353 1747 
Q 353 2572 751 3078 
Q 1150 3584 1784 3584 
Q 2172 3584 2448 3432 
Q 2725 3281 2906 2969 
z
M 947 1747 
Q 947 1113 1208 752 
Q 1469 391 1925 391 
Q 2381 391 2643 752 
Q 2906 1113 2906 1747 
Q 2906 2381 2643 2742 
Q 2381 3103 1925 3103 
Q 1469 3103 1208 2742 
Q 947 2381 947 1747 
z
" transform="scale(0.015625)"/>
       <path id="DejaVuSans-20" transform="scale(0.015625)"/>
       <path id="DejaVuSans-44" d="M 1259 4147 
L 1259 519 
L 2022 519 
Q 2988 519 3436 956 
Q 3884 1394 3884 2338 
Q 3884 3275 3436 3711 
Q 2988 4147 2022 4147 
L 1259 4147 
z
M 628 4666 
L 1925 4666 
Q 3281 4666 3915 4102 
Q 4550 3538 4550 2338 
Q 4550 1131 3912 565 
Q 3275 0 1925 0 
L 628 0 
L 628 4666 
z
" transform="scale(0.015625)"/>
       <path id="DejaVuSans-65" d="M 3597 1894 
L 3597 1613 
L 953 1613 
Q 991 1019 1311 708 
Q 1631 397 2203 397 
Q 2534 397 2845 478 
Q 3156 559 3463 722 
L 3463 178 
Q 3153 47 2828 -22 
Q 2503 -91 2169 -91 
Q 1331 -91 842 396 
Q 353 884 353 1716 
Q 353 2575 817 3079 
Q 1281 3584 2069 3584 
Q 2775 3584 3186 3129 
Q 3597 2675 3597 1894 
z
M 3022 2063 
Q 3016 2534 2758 2815 
Q 2500 3097 2075 3097 
Q 1594 3097 1305 2825 
Q 1016 2553 972 2059 
L 3022 2063 
z
" transform="scale(0.015625)"/>
       <path id="DejaVuSans-76" d="M 191 3500 
L 800 3500 
L 1894 563 
L 2988 3500 
L 3597 3500 
L 2284 0 
L 1503 0 
L 191 3500 
z
" transform="scale(0.015625)"/>
      </defs>
      <use xlink:href="#DejaVuSans-53"/>
      <use xlink:href="#DejaVuSans-74" transform="translate(63.476562 0)"/>
      <use xlink:href="#DejaVuSans-64" transform="translate(102.685547 0)"/>
      <use xlink:href="#DejaVuSans-20" transform="translate(166.162109 0)"/>
      <use xlink:href="#DejaVuSans-44" transform="translate(197.949219 0)"/>
      <use xlink:href="#DejaVuSans-65" transform="translate(274.951172 0)"/>
      <use xlink:href="#DejaVuSans-76" transform="translate(336.474609 0)"/>
     </g>
    </g>
   </g>
   <g id="line2d_27">
    <path d="M 110.363182 227.578146 
L 129.318685 227.57834 
L 129.463016 232.64082 
L 129.799789 233.045913 
L 130.329004 233.151719 
L 132.397751 233.20107 
L 153.13334 233.279229 
L 153.277671 233.765446 
L 174.879247 233.782091 
L 223.855648 233.85007 
L 223.999979 239.173442 
L 224.240532 240.608481 
L 224.529194 240.93123 
L 225.058409 241.074428 
L 226.646052 241.180673 
L 233.140958 241.30534 
L 235.6427 241.30534 
L 235.787031 244.281795 
L 236.84546 244.479027 
L 239.395312 244.550448 
L 247.429751 244.573641 
L 247.574082 246.65374 
L 248.728732 246.859684 
L 251.422915 246.945425 
L 266.577696 247.052433 
L 284.378549 247.172277 
L 306.365008 247.265549 
L 306.509339 247.726896 
L 308.048873 247.862801 
L 313.244797 247.909487 
L 346.15232 247.952505 
L 346.296652 227.578326 
L 365.155934 227.578333 
L 365.300265 232.636402 
L 365.637038 233.043053 
L 366.166253 233.149719 
L 368.235 233.199638 
L 388.970589 233.275398 
L 389.11492 233.765543 
L 410.812717 233.782251 
L 459.692897 233.850205 
L 459.837228 239.172802 
L 460.07778 240.607254 
L 460.366443 240.929764 
L 460.895657 241.072876 
L 462.483301 241.179184 
L 468.978207 241.304239 
L 471.479949 241.304239 
L 471.62428 244.281825 
L 472.682709 244.478764 
L 475.232561 244.549948 
L 483.267 244.572809 
L 483.411331 246.653881 
L 484.565981 246.860121 
L 487.260164 246.945999 
L 502.366834 247.052899 
L 520.215798 247.172887 
L 542.202257 247.266102 
L 542.346588 247.727716 
L 543.886121 247.863753 
L 549.082046 247.910562 
L 581.989569 247.952727 
L 582.03768 37.407273 
L 582.1339 37.409144 
L 600.993183 37.409174 
L 601.137514 98.196239 
L 601.281845 98.786164 
L 601.570508 98.881533 
L 603.158151 98.908912 
L 613.020786 99.046944 
L 624.807838 99.163616 
L 624.952169 102.772081 
L 625.240831 105.662691 
L 625.625715 108.415413 
L 626.058708 109.976242 
L 626.587923 111.021217 
L 627.213358 111.7485 
L 628.031235 112.349601 
L 629.426437 113.058302 
L 632.505504 114.590715 
L 634.237479 115.464937 
L 636.594889 115.464937 
L 636.73922 121.774855 
L 636.931662 122.031001 
L 637.605208 123.028677 
L 638.326864 123.640456 
L 639.289072 124.136954 
L 640.684274 124.579933 
L 645.735868 125.764523 
L 648.38194 125.764523 
L 648.526272 129.408852 
L 648.718713 130.142828 
L 649.44037 133.201131 
L 650.017695 134.667367 
L 650.69124 135.771026 
L 651.412897 136.538064 
L 652.278884 137.129722 
L 653.337313 137.574573 
L 654.780625 137.924034 
L 657.186146 138.243666 
L 658.533238 138.27873 
L 660.168992 138.27873 
L 660.313323 145.277222 
L 661.804746 145.324789 
L 671.956043 145.482132 
L 672.100374 146.756685 
L 673.447466 147.271831 
L 675.08322 147.592102 
L 677.921735 147.891459 
L 681.914899 148.097181 
L 683.743095 148.097181 
L 683.887426 157.182392 
L 684.079868 157.421066 
L 684.849634 157.453105 
L 695.530146 157.570838 
L 695.722588 187.898748 
L 696.348023 191.910433 
L 696.877238 193.880542 
L 697.454563 195.239383 
L 698.128108 196.288204 
L 698.945985 197.143524 
L 699.908194 197.828258 
L 701.159064 198.437462 
L 702.842929 198.997928 
L 704.815456 199.439475 
L 707.317197 199.439475 
L 707.461529 212.349035 
L 708.135074 216.305145 
L 708.519958 217.033525 
L 709.049172 217.54473 
L 709.770829 217.904755 
L 710.877368 218.182864 
L 712.753674 218.399316 
L 716.361955 218.558757 
L 719.104249 218.56115 
L 719.24858 246.000809 
L 720.35512 246.23497 
L 722.76064 246.346163 
L 730.217754 246.423148 
L 734.066588 246.534127 
L 754.465403 246.602794 
L 754.609734 246.73398 
L 767.070332 246.871953 
L 776.355641 246.911567 
L 778.039506 246.911567 
L 778.183837 247.687859 
L 779.482818 247.841187 
L 783.331651 247.897152 
L 817.826818 247.947838 
L 817.826818 247.947838 
" clip-path="url(#pddfe84ab4e)" style="fill: none; stroke: #0000ff; stroke-width: 1.5; stroke-linecap: square"/>
   </g>
   <g id="line2d_28">
    <path d="M 110.363182 227.578146 
L 129.318685 227.578342 
L 129.463016 232.640239 
L 129.799789 233.044564 
L 130.329004 233.149799 
L 132.445862 233.199881 
L 153.13334 233.279268 
L 153.277671 233.76547 
L 174.783026 233.782034 
L 223.855648 233.849625 
L 223.999979 239.173673 
L 224.240532 240.608275 
L 224.529194 240.930963 
L 225.058409 241.074156 
L 226.646052 241.180421 
L 233.140958 241.305118 
L 235.6427 241.305118 
L 235.787031 244.28164 
L 236.84546 244.478876 
L 239.347201 244.549805 
L 247.429751 244.57351 
L 247.574082 246.653687 
L 248.728732 246.859645 
L 251.422915 246.945378 
L 266.577696 247.052371 
L 284.378549 247.172229 
L 306.365008 247.265507 
L 306.509339 247.726883 
L 308.048873 247.862798 
L 313.244797 247.90949 
L 346.15232 247.952502 
L 346.296652 227.578325 
L 365.155934 227.578335 
L 365.300265 232.635291 
L 365.637038 233.040943 
L 366.166253 233.146985 
L 368.283111 233.197618 
L 388.970589 233.274684 
L 389.11492 233.765526 
L 410.764606 233.782175 
L 459.692897 233.849731 
L 459.837228 239.173146 
L 460.07778 240.607123 
L 460.366443 240.929574 
L 460.895657 241.072683 
L 462.483301 241.179003 
L 468.978207 241.304067 
L 471.479949 241.304067 
L 471.62428 244.281672 
L 472.682709 244.478601 
L 475.232561 244.549799 
L 483.267 244.572658 
L 483.411331 246.653864 
L 484.565981 246.860107 
L 487.260164 246.945983 
L 502.366834 247.052806 
L 520.167687 247.172725 
L 542.202257 247.266076 
L 542.346588 247.727706 
L 543.886121 247.863745 
L 549.082046 247.910554 
L 581.989569 247.95271 
L 582.03768 37.407273 
L 582.1339 37.409138 
L 600.993183 37.410874 
L 601.137514 98.193415 
L 601.281845 98.785036 
L 601.570508 98.882669 
L 603.206262 98.910296 
L 611.962357 99.042071 
L 622.113654 99.170153 
L 624.807838 99.170549 
L 624.952169 102.78775 
L 625.240831 105.672518 
L 625.625715 108.4297 
L 626.058708 109.991037 
L 626.539813 110.958694 
L 627.165248 111.712998 
L 628.031235 112.361384 
L 629.474548 113.085615 
L 632.505504 114.535716 
L 634.189368 115.406112 
L 636.594889 115.406112 
L 636.73922 121.788588 
L 636.931662 122.036569 
L 637.605208 123.014251 
L 638.326864 123.624931 
L 639.289072 124.118047 
L 640.780495 124.581747 
L 645.880199 125.737987 
L 648.38194 125.737987 
L 648.526272 129.397413 
L 648.718713 130.137287 
L 649.44037 133.196807 
L 650.017695 134.665702 
L 650.64313 135.703192 
L 651.364786 136.490377 
L 652.182663 137.063145 
L 653.241092 137.528298 
L 654.588184 137.865208 
L 656.849373 138.176861 
L 658.533238 138.243414 
L 660.168992 138.243414 
L 660.313323 145.183028 
L 662.093408 145.238587 
L 671.956043 145.394352 
L 672.100374 146.636999 
L 673.399356 147.129991 
L 675.131331 147.464985 
L 678.258507 147.780785 
L 682.01112 147.963571 
L 683.743095 147.963571 
L 683.887426 156.915732 
L 684.079868 157.150985 
L 684.849634 157.182616 
L 695.530146 157.304053 
L 695.722588 187.835346 
L 696.348023 191.848307 
L 696.877238 193.819728 
L 697.454563 195.180041 
L 698.128108 196.229851 
L 698.945985 197.086165 
L 699.956304 197.799977 
L 701.207175 198.40108 
L 702.93915 198.970326 
L 704.863566 199.386311 
L 707.317197 199.386311 
L 707.461529 212.324336 
L 708.135074 216.285635 
L 708.519958 217.014741 
L 709.049172 217.526471 
L 709.770829 217.886965 
L 710.877368 218.165375 
L 712.753674 218.381746 
L 716.410066 218.54225 
L 719.104249 218.543453 
L 719.24858 246.000824 
L 720.35512 246.234985 
L 722.76064 246.346177 
L 730.217754 246.423186 
L 734.114698 246.534267 
L 754.465403 246.602803 
L 754.609734 246.733966 
L 767.070332 246.871948 
L 776.355641 246.911545 
L 778.039506 246.911545 
L 778.183837 247.687846 
L 779.482818 247.841178 
L 783.331651 247.897143 
L 817.826818 247.947833 
L 817.826818 247.947833 
" clip-path="url(#pddfe84ab4e)" style="fill: none; stroke-dasharray: 5.55,2.4; stroke-dashoffset: 0; stroke: #ff0000; stroke-width: 1.5"/>
   </g>
   <g id="line2d_29">
    <path d="M 346.200431 258.48 
L 346.200431 26.88 
" clip-path="url(#pddfe84ab4e)" style="fill: none; stroke-dasharray: 1.5,2.475; stroke-dashoffset: 0; stroke: #808080; stroke-opacity: 0.6; stroke-width: 1.5"/>
   </g>
   <g id="line2d_30">
    <path d="M 582.03768 258.48 
L 582.03768 26.88 
" clip-path="url(#pddfe84ab4e)" style="fill: none; stroke-dasharray: 1.5,2.475; stroke-dashoffset: 0; stroke: #808080; stroke-opacity: 0.6; stroke-width: 1.5"/>
   </g>
   <g id="patch_3">
    <path d="M 74.99 258.48 
L 74.99 26.88 
" style="fill: none; stroke: #000000; stroke-width: 0.8; stroke-linejoin: miter; stroke-linecap: square"/>
   </g>
   <g id="patch_4">
    <path d="M 853.2 258.48 
L 853.2 26.88 
" style="fill: none; stroke: #000000; stroke-width: 0.8; stroke-linejoin: miter; stroke-linecap: square"/>
   </g>
   <g id="patch_5">
    <path d="M 74.99 258.48 
L 853.2 258.48 
" style="fill: none; stroke: #000000; stroke-width: 0.8; stroke-linejoin: miter; stroke-linecap: square"/>
   </g>
   <g id="patch_6">
    <path d="M 74.99 26.88 
L 853.2 26.88 
" style="fill: none; stroke: #000000; stroke-width: 0.8; stroke-linejoin: miter; stroke-linecap: square"/>
   </g>
   <g id="text_15">
    <!-- [25] Ka_yz  —  Uncertainty (std dev) -->
    <g transform="translate(355.149063 20.88) scale(0.12 -0.12)">
     <defs>
      <path id="DejaVuSans-5b" d="M 550 4863 
L 1875 4863 
L 1875 4416 
L 1125 4416 
L 1125 -397 
L 1875 -397 
L 1875 -844 
L 550 -844 
L 550 4863 
z
" transform="scale(0.015625)"/>
      <path id="DejaVuSans-5d" d="M 1947 4863 
L 1947 -844 
L 622 -844 
L 622 -397 
L 1369 -397 
L 1369 4416 
L 622 4416 
L 622 4863 
L 1947 4863 
z
" transform="scale(0.015625)"/>
      <path id="DejaVuSans-4b" d="M 628 4666 
L 1259 4666 
L 1259 2694 
L 3353 4666 
L 4166 4666 
L 1850 2491 
L 4331 0 
L 3500 0 
L 1259 2247 
L 1259 0 
L 628 0 
L 628 4666 
z
" transform="scale(0.015625)"/>
      <path id="DejaVuSans-61" d="M 2194 1759 
Q 1497 1759 1228 1600 
Q 959 1441 959 1056 
Q 959 750 1161 570 
Q 1363 391 1709 391 
Q 2188 391 2477 730 
Q 2766 1069 2766 1631 
L 2766 1759 
L 2194 1759 
z
M 3341 1997 
L 3341 0 
L 2766 0 
L 2766 531 
Q 2569 213 2275 61 
Q 1981 -91 1556 -91 
Q 1019 -91 701 211 
Q 384 513 384 1019 
Q 384 1609 779 1909 
Q 1175 2209 1959 2209 
L 2766 2209 
L 2766 2266 
Q 2766 2663 2505 2880 
Q 2244 3097 1772 3097 
Q 1472 3097 1187 3025 
Q 903 2953 641 2809 
L 641 3341 
Q 956 3463 1253 3523 
Q 1550 3584 1831 3584 
Q 2591 3584 2966 3190 
Q 3341 2797 3341 1997 
z
" transform="scale(0.015625)"/>
      <path id="DejaVuSans-5f" d="M 3263 -1063 
L 3263 -1509 
L -63 -1509 
L -63 -1063 
L 3263 -1063 
z
" transform="scale(0.015625)"/>
      <path id="DejaVuSans-79" d="M 2059 -325 
Q 1816 -950 1584 -1140 
Q 1353 -1331 966 -1331 
L 506 -1331 
L 506 -850 
L 844 -850 
Q 1081 -850 1212 -737 
Q 1344 -625 1503 -206 
L 1606 56 
L 191 3500 
L 800 3500 
L 1894 763 
L 2988 3500 
L 3597 3500 
L 2059 -325 
z
" transform="scale(0.015625)"/>
      <path id="DejaVuSans-7a" d="M 353 3500 
L 3084 3500 
L 3084 2975 
L 922 459 
L 3084 459 
L 3084 0 
L 275 0 
L 275 525 
L 2438 3041 
L 353 3041 
L 353 3500 
z
" transform="scale(0.015625)"/>
      <path id="DejaVuSans-2014" d="M 313 1978 
L 6088 1978 
L 6088 1528 
L 313 1528 
L 313 1978 
z
" transform="scale(0.015625)"/>
      <path id="DejaVuSans-55" d="M 556 4666 
L 1191 4666 
L 1191 1831 
Q 1191 1081 1462 751 
Q 1734 422 2344 422 
Q 2950 422 3222 751 
Q 3494 1081 3494 1831 
L 3494 4666 
L 4128 4666 
L 4128 1753 
Q 4128 841 3676 375 
Q 3225 -91 2344 -91 
Q 1459 -91 1007 375 
Q 556 841 556 1753 
L 556 4666 
z
" transform="scale(0.015625)"/>
      <path id="DejaVuSans-6e" d="M 3513 2113 
L 3513 0 
L 2938 0 
L 2938 2094 
Q 2938 2591 2744 2837 
Q 2550 3084 2163 3084 
Q 1697 3084 1428 2787 
Q 1159 2491 1159 1978 
L 1159 0 
L 581 0 
L 581 3500 
L 1159 3500 
L 1159 2956 
Q 1366 3272 1645 3428 
Q 1925 3584 2291 3584 
Q 2894 3584 3203 3211 
Q 3513 2838 3513 2113 
z
" transform="scale(0.015625)"/>
      <path id="DejaVuSans-63" d="M 3122 3366 
L 3122 2828 
Q 2878 2963 2633 3030 
Q 2388 3097 2138 3097 
Q 1578 3097 1268 2742 
Q 959 2388 959 1747 
Q 959 1106 1268 751 
Q 1578 397 2138 397 
Q 2388 397 2633 464 
Q 2878 531 3122 666 
L 3122 134 
Q 2881 22 2623 -34 
Q 2366 -91 2075 -91 
Q 1284 -91 818 406 
Q 353 903 353 1747 
Q 353 2603 823 3093 
Q 1294 3584 2113 3584 
Q 2378 3584 2631 3529 
Q 2884 3475 3122 3366 
z
" transform="scale(0.015625)"/>
      <path id="DejaVuSans-72" d="M 2631 2963 
Q 2534 3019 2420 3045 
Q 2306 3072 2169 3072 
Q 1681 3072 1420 2755 
Q 1159 2438 1159 1844 
L 1159 0 
L 581 0 
L 581 3500 
L 1159 3500 
L 1159 2956 
Q 1341 3275 1631 3429 
Q 1922 3584 2338 3584 
Q 2397 3584 2469 3576 
Q 2541 3569 2628 3553 
L 2631 2963 
z
" transform="scale(0.015625)"/>
      <path id="DejaVuSans-69" d="M 603 3500 
L 1178 3500 
L 1178 0 
L 603 0 
L 603 3500 
z
M 603 4863 
L 1178 4863 
L 1178 4134 
L 603 4134 
L 603 4863 
z
" transform="scale(0.015625)"/>
      <path id="DejaVuSans-28" d="M 1984 4856 
Q 1566 4138 1362 3434 
Q 1159 2731 1159 2009 
Q 1159 1288 1364 580 
Q 1569 -128 1984 -844 
L 1484 -844 
Q 1016 -109 783 600 
Q 550 1309 550 2009 
Q 550 2706 781 3412 
Q 1013 4119 1484 4856 
L 1984 4856 
z
" transform="scale(0.015625)"/>
      <path id="DejaVuSans-73" d="M 2834 3397 
L 2834 2853 
Q 2591 2978 2328 3040 
Q 2066 3103 1784 3103 
Q 1356 3103 1142 2972 
Q 928 2841 928 2578 
Q 928 2378 1081 2264 
Q 1234 2150 1697 2047 
L 1894 2003 
Q 2506 1872 2764 1633 
Q 3022 1394 3022 966 
Q 3022 478 2636 193 
Q 2250 -91 1575 -91 
Q 1294 -91 989 -36 
Q 684 19 347 128 
L 347 722 
Q 666 556 975 473 
Q 1284 391 1588 391 
Q 1994 391 2212 530 
Q 2431 669 2431 922 
Q 2431 1156 2273 1281 
Q 2116 1406 1581 1522 
L 1381 1569 
Q 847 1681 609 1914 
Q 372 2147 372 2553 
Q 372 3047 722 3315 
Q 1072 3584 1716 3584 
Q 2034 3584 2315 3537 
Q 2597 3491 2834 3397 
z
" transform="scale(0.015625)"/>
      <path id="DejaVuSans-29" d="M 513 4856 
L 1013 4856 
Q 1481 4119 1714 3412 
Q 1947 2706 1947 2009 
Q 1947 1309 1714 600 
Q 1481 -109 1013 -844 
L 513 -844 
Q 928 -128 1133 580 
Q 1338 1288 1338 2009 
Q 1338 2731 1133 3434 
Q 928 4138 513 4856 
z
" transform="scale(0.015625)"/>
     </defs>
     <use xlink:href="#DejaVuSans-5b"/>
     <use xlink:href="#DejaVuSans-32" transform="translate(39.013672 0)"/>
     <use xlink:href="#DejaVuSans-35" transform="translate(102.636719 0)"/>
     <use xlink:href="#DejaVuSans-5d" transform="translate(166.259766 0)"/>
     <use xlink:href="#DejaVuSans-20" transform="translate(205.273438 0)"/>
     <use xlink:href="#DejaVuSans-4b" transform="translate(237.060547 0)"/>
     <use xlink:href="#DejaVuSans-61" transform="translate(300.886719 0)"/>
     <use xlink:href="#DejaVuSans-5f" transform="translate(362.166016 0)"/>
     <use xlink:href="#DejaVuSans-79" transform="translate(412.166016 0)"/>
     <use xlink:href="#DejaVuSans-7a" transform="translate(471.345703 0)"/>
     <use xlink:href="#DejaVuSans-20" transform="translate(523.835938 0)"/>
     <use xlink:href="#DejaVuSans-20" transform="translate(555.623047 0)"/>
     <use xlink:href="#DejaVuSans-2014" transform="translate(587.410156 0)"/>
     <use xlink:href="#DejaVuSans-20" transform="translate(687.410156 0)"/>
     <use xlink:href="#DejaVuSans-20" transform="translate(719.197266 0)"/>
     <use xlink:href="#DejaVuSans-55" transform="translate(750.984375 0)"/>
     <use xlink:href="#DejaVuSans-6e" transform="translate(824.177734 0)"/>
     <use xlink:href="#DejaVuSans-63" transform="translate(887.556641 0)"/>
     <use xlink:href="#DejaVuSans-65" transform="translate(942.537109 0)"/>
     <use xlink:href="#DejaVuSans-72" transform="translate(1004.060547 0)"/>
     <use xlink:href="#DejaVuSans-74" transform="translate(1045.173828 0)"/>
     <use xlink:href="#DejaVuSans-61" transform="translate(1084.382812 0)"/>
     <use xlink:href="#DejaVuSans-69" transform="translate(1145.662109 0)"/>
     <use xlink:href="#DejaVuSans-6e" transform="translate(1173.445312 0)"/>
     <use xlink:href="#DejaVuSans-74" transform="translate(1236.824219 0)"/>
     <use xlink:href="#DejaVuSans-79" transform="translate(1276.033203 0)"/>
     <use xlink:href="#DejaVuSans-20" transform="translate(1335.212891 0)"/>
     <use xlink:href="#DejaVuSans-28" transform="translate(1367 0)"/>
     <use xlink:href="#DejaVuSans-73" transform="translate(1406.013672 0)"/>
     <use xlink:href="#DejaVuSans-74" transform="translate(1458.113281 0)"/>
     <use xlink:href="#DejaVuSans-64" transform="translate(1497.322266 0)"/>
     <use xlink:href="#DejaVuSans-20" transform="translate(1560.798828 0)"/>
     <use xlink:href="#DejaVuSans-64" transform="translate(1592.585938 0)"/>
     <use xlink:href="#DejaVuSans-65" transform="translate(1656.0625 0)"/>
     <use xlink:href="#DejaVuSans-76" transform="translate(1717.585938 0)"/>
     <use xlink:href="#DejaVuSans-29" transform="translate(1776.765625 0)"/>
    </g>
   </g>
   <g id="legend_1">
    <g id="patch_7">
     <path d="M 734.342188 64.23625 
L 846.2 64.23625 
Q 848.2 64.23625 848.2 62.23625 
L 848.2 33.88 
Q 848.2 31.88 846.2 31.88 
L 734.342188 31.88 
Q 732.342188 31.88 732.342188 33.88 
L 732.342188 62.23625 
Q 732.342188 64.23625 734.342188 64.23625 
z
" style="fill: #ffffff; opacity: 0.8; stroke: #cccccc; stroke-linejoin: miter"/>
    </g>
    <g id="line2d_31">
     <path d="M 736.342188 39.978437 
L 746.342188 39.978437 
L 756.342188 39.978437 
" style="fill: none; stroke: #0000ff; stroke-width: 1.5; stroke-linecap: square"/>
    </g>
    <g id="text_16">
     <!-- Ideal (No Noise) -->
     <g transform="translate(764.342188 43.478437) scale(0.1 -0.1)">
      <defs>
       <path id="DejaVuSans-49" d="M 628 4666 
L 1259 4666 
L 1259 0 
L 628 0 
L 628 4666 
z
" transform="scale(0.015625)"/>
       <path id="DejaVuSans-6c" d="M 603 4863 
L 1178 4863 
L 1178 0 
L 603 0 
L 603 4863 
z
" transform="scale(0.015625)"/>
       <path id="DejaVuSans-4e" d="M 628 4666 
L 1478 4666 
L 3547 763 
L 3547 4666 
L 4159 4666 
L 4159 0 
L 3309 0 
L 1241 3903 
L 1241 0 
L 628 0 
L 628 4666 
z
" transform="scale(0.015625)"/>
       <path id="DejaVuSans-6f" d="M 1959 3097 
Q 1497 3097 1228 2736 
Q 959 2375 959 1747 
Q 959 1119 1226 758 
Q 1494 397 1959 397 
Q 2419 397 2687 759 
Q 2956 1122 2956 1747 
Q 2956 2369 2687 2733 
Q 2419 3097 1959 3097 
z
M 1959 3584 
Q 2709 3584 3137 3096 
Q 3566 2609 3566 1747 
Q 3566 888 3137 398 
Q 2709 -91 1959 -91 
Q 1206 -91 779 398 
Q 353 888 353 1747 
Q 353 2609 779 3096 
Q 1206 3584 1959 3584 
z
" transform="scale(0.015625)"/>
      </defs>
      <use xlink:href="#DejaVuSans-49"/>
      <use xlink:href="#DejaVuSans-64" transform="translate(29.492188 0)"/>
      <use xlink:href="#DejaVuSans-65" transform="translate(92.96875 0)"/>
      <use xlink:href="#DejaVuSans-61" transform="translate(154.492188 0)"/>
      <use xlink:href="#DejaVuSans-6c" transform="translate(215.771484 0)"/>
      <use xlink:href="#DejaVuSans-20" transform="translate(243.554688 0)"/>
      <use xlink:href="#DejaVuSans-28" transform="translate(275.341797 0)"/>
      <use xlink:href="#DejaVuSans-4e" transform="translate(314.355469 0)"/>
      <use xlink:href="#DejaVuSans-6f" transform="translate(389.160156 0)"/>
      <use xlink:href="#DejaVuSans-20" transform="translate(450.341797 0)"/>
      <use xlink:href="#DejaVuSans-4e" transform="translate(482.128906 0)"/>
      <use xlink:href="#DejaVuSans-6f" transform="translate(556.933594 0)"/>
      <use xlink:href="#DejaVuSans-69" transform="translate(618.115234 0)"/>
      <use xlink:href="#DejaVuSans-73" transform="translate(645.898438 0)"/>
      <use xlink:href="#DejaVuSans-65" transform="translate(697.998047 0)"/>
      <use xlink:href="#DejaVuSans-29" transform="translate(759.521484 0)"/>
     </g>
    </g>
    <g id="line2d_32">
     <path d="M 736.342188 54.656562 
L 746.342188 54.656562 
L 756.342188 54.656562 
" style="fill: none; stroke-dasharray: 5.55,2.4; stroke-dashoffset: 0; stroke: #ff0000; stroke-width: 1.5"/>
    </g>
    <g id="text_17">
     <!-- With Full Noise -->
     <g transform="translate(764.342188 58.156562) scale(0.1 -0.1)">
      <defs>
       <path id="DejaVuSans-57" d="M 213 4666 
L 850 4666 
L 1831 722 
L 2809 4666 
L 3519 4666 
L 4500 722 
L 5478 4666 
L 6119 4666 
L 4947 0 
L 4153 0 
L 3169 4050 
L 2175 0 
L 1381 0 
L 213 4666 
z
" transform="scale(0.015625)"/>
       <path id="DejaVuSans-68" d="M 3513 2113 
L 3513 0 
L 2938 0 
L 2938 2094 
Q 2938 2591 2744 2837 
Q 2550 3084 2163 3084 
Q 1697 3084 1428 2787 
Q 1159 2491 1159 1978 
L 1159 0 
L 581 0 
L 581 4863 
L 1159 4863 
L 1159 2956 
Q 1366 3272 1645 3428 
Q 1925 3584 2291 3584 
Q 2894 3584 3203 3211 
Q 3513 2838 3513 2113 
z
" transform="scale(0.015625)"/>
       <path id="DejaVuSans-46" d="M 628 4666 
L 3309 4666 
L 3309 4134 
L 1259 4134 
L 1259 2759 
L 3109 2759 
L 3109 2228 
L 1259 2228 
L 1259 0 
L 628 0 
L 628 4666 
z
" transform="scale(0.015625)"/>
       <path id="DejaVuSans-75" d="M 544 1381 
L 544 3500 
L 1119 3500 
L 1119 1403 
Q 1119 906 1312 657 
Q 1506 409 1894 409 
Q 2359 409 2629 706 
Q 2900 1003 2900 1516 
L 2900 3500 
L 3475 3500 
L 3475 0 
L 2900 0 
L 2900 538 
Q 2691 219 2414 64 
Q 2138 -91 1772 -91 
Q 1169 -91 856 284 
Q 544 659 544 1381 
z
M 1991 3584 
L 1991 3584 
z
" transform="scale(0.015625)"/>
      </defs>
      <use xlink:href="#DejaVuSans-57"/>
      <use xlink:href="#DejaVuSans-69" transform="translate(96.626953 0)"/>
      <use xlink:href="#DejaVuSans-74" transform="translate(124.410156 0)"/>
      <use xlink:href="#DejaVuSans-68" transform="translate(163.619141 0)"/>
      <use xlink:href="#DejaVuSans-20" transform="translate(226.998047 0)"/>
      <use xlink:href="#DejaVuSans-46" transform="translate(258.785156 0)"/>
      <use xlink:href="#DejaVuSans-75" transform="translate(310.804688 0)"/>
      <use xlink:href="#DejaVuSans-6c" transform="translate(374.183594 0)"/>
      <use xlink:href="#DejaVuSans-6c" transform="translate(401.966797 0)"/>
      <use xlink:href="#DejaVuSans-20" transform="translate(429.75 0)"/>
      <use xlink:href="#DejaVuSans-4e" transform="translate(461.537109 0)"/>
      <use xlink:href="#DejaVuSans-6f" transform="translate(536.341797 0)"/>
      <use xlink:href="#DejaVuSans-69" transform="translate(597.523438 0)"/>
      <use xlink:href="#DejaVuSans-73" transform="translate(625.306641 0)"/>
      <use xlink:href="#DejaVuSans-65" transform="translate(677.40625 0)"/>
     </g>
    </g>
   </g>
  </g>
  <g id="axes_2">
   <g id="patch_8">
    <path d="M 74.99 534.04 
L 853.2 534.04 
L 853.2 302.44 
L 74.99 302.44 
z
" style="fill: #ffffff"/>
   </g>
   <g id="matplotlib.axis_3">
    <g id="xtick_8">
     <g id="line2d_33">
      <path d="M 110.363182 534.04 
L 110.363182 302.44 
" clip-path="url(#pd7aa2246ec)" style="fill: none; stroke: #b0b0b0; stroke-width: 0.8; stroke-linecap: square"/>
     </g>
     <g id="line2d_34">
      <g>
       <use xlink:href="#m7580d7d2b0" x="110.363182" y="534.04" style="stroke: #000000; stroke-width: 0.8"/>
      </g>
     </g>
     <g id="text_18">
      <!-- 0 -->
      <g transform="translate(107.181932 548.638438) scale(0.1 -0.1)">
       <use xlink:href="#DejaVuSans-30"/>
      </g>
     </g>
    </g>
    <g id="xtick_9">
     <g id="line2d_35">
      <path d="M 230.639217 534.04 
L 230.639217 302.44 
" clip-path="url(#pd7aa2246ec)" style="fill: none; stroke: #b0b0b0; stroke-width: 0.8; stroke-linecap: square"/>
     </g>
     <g id="line2d_36">
      <g>
       <use xlink:href="#m7580d7d2b0" x="230.639217" y="534.04" style="stroke: #000000; stroke-width: 0.8"/>
      </g>
     </g>
     <g id="text_19">
      <!-- 50 -->
      <g transform="translate(224.276717 548.638438) scale(0.1 -0.1)">
       <use xlink:href="#DejaVuSans-35"/>
       <use xlink:href="#DejaVuSans-30" transform="translate(63.623047 0)"/>
      </g>
     </g>
    </g>
    <g id="xtick_10">
     <g id="line2d_37">
      <path d="M 350.915251 534.04 
L 350.915251 302.44 
" clip-path="url(#pd7aa2246ec)" style="fill: none; stroke: #b0b0b0; stroke-width: 0.8; stroke-linecap: square"/>
     </g>
     <g id="line2d_38">
      <g>
       <use xlink:href="#m7580d7d2b0" x="350.915251" y="534.04" style="stroke: #000000; stroke-width: 0.8"/>
      </g>
     </g>
     <g id="text_20">
      <!-- 100 -->
      <g transform="translate(341.371501 548.638438) scale(0.1 -0.1)">
       <use xlink:href="#DejaVuSans-31"/>
       <use xlink:href="#DejaVuSans-30" transform="translate(63.623047 0)"/>
       <use xlink:href="#DejaVuSans-30" transform="translate(127.246094 0)"/>
      </g>
     </g>
    </g>
    <g id="xtick_11">
     <g id="line2d_39">
      <path d="M 471.191286 534.04 
L 471.191286 302.44 
" clip-path="url(#pd7aa2246ec)" style="fill: none; stroke: #b0b0b0; stroke-width: 0.8; stroke-linecap: square"/>
     </g>
     <g id="line2d_40">
      <g>
       <use xlink:href="#m7580d7d2b0" x="471.191286" y="534.04" style="stroke: #000000; stroke-width: 0.8"/>
      </g>
     </g>
     <g id="text_21">
      <!-- 150 -->
      <g transform="translate(461.647536 548.638438) scale(0.1 -0.1)">
       <use xlink:href="#DejaVuSans-31"/>
       <use xlink:href="#DejaVuSans-35" transform="translate(63.623047 0)"/>
       <use xlink:href="#DejaVuSans-30" transform="translate(127.246094 0)"/>
      </g>
     </g>
    </g>
    <g id="xtick_12">
     <g id="line2d_41">
      <path d="M 591.467321 534.04 
L 591.467321 302.44 
" clip-path="url(#pd7aa2246ec)" style="fill: none; stroke: #b0b0b0; stroke-width: 0.8; stroke-linecap: square"/>
     </g>
     <g id="line2d_42">
      <g>
       <use xlink:href="#m7580d7d2b0" x="591.467321" y="534.04" style="stroke: #000000; stroke-width: 0.8"/>
      </g>
     </g>
     <g id="text_22">
      <!-- 200 -->
      <g transform="translate(581.923571 548.638438) scale(0.1 -0.1)">
       <use xlink:href="#DejaVuSans-32"/>
       <use xlink:href="#DejaVuSans-30" transform="translate(63.623047 0)"/>
       <use xlink:href="#DejaVuSans-30" transform="translate(127.246094 0)"/>
      </g>
     </g>
    </g>
    <g id="xtick_13">
     <g id="line2d_43">
      <path d="M 711.743356 534.04 
L 711.743356 302.44 
" clip-path="url(#pd7aa2246ec)" style="fill: none; stroke: #b0b0b0; stroke-width: 0.8; stroke-linecap: square"/>
     </g>
     <g id="line2d_44">
      <g>
       <use xlink:href="#m7580d7d2b0" x="711.743356" y="534.04" style="stroke: #000000; stroke-width: 0.8"/>
      </g>
     </g>
     <g id="text_23">
      <!-- 250 -->
      <g transform="translate(702.199606 548.638438) scale(0.1 -0.1)">
       <use xlink:href="#DejaVuSans-32"/>
       <use xlink:href="#DejaVuSans-35" transform="translate(63.623047 0)"/>
       <use xlink:href="#DejaVuSans-30" transform="translate(127.246094 0)"/>
      </g>
     </g>
    </g>
    <g id="xtick_14">
     <g id="line2d_45">
      <path d="M 832.01939 534.04 
L 832.01939 302.44 
" clip-path="url(#pd7aa2246ec)" style="fill: none; stroke: #b0b0b0; stroke-width: 0.8; stroke-linecap: square"/>
     </g>
     <g id="line2d_46">
      <g>
       <use xlink:href="#m7580d7d2b0" x="832.01939" y="534.04" style="stroke: #000000; stroke-width: 0.8"/>
      </g>
     </g>
     <g id="text_24">
      <!-- 300 -->
      <g transform="translate(822.47564 548.638438) scale(0.1 -0.1)">
       <use xlink:href="#DejaVuSans-33"/>
       <use xlink:href="#DejaVuSans-30" transform="translate(63.623047 0)"/>
       <use xlink:href="#DejaVuSans-30" transform="translate(127.246094 0)"/>
      </g>
     </g>
    </g>
    <g id="text_25">
     <!-- Time (s) -->
     <g transform="translate(443.766094 562.316562) scale(0.1 -0.1)">
      <defs>
       <path id="DejaVuSans-54" d="M -19 4666 
L 3928 4666 
L 3928 4134 
L 2272 4134 
L 2272 0 
L 1638 0 
L 1638 4134 
L -19 4134 
L -19 4666 
z
" transform="scale(0.015625)"/>
       <path id="DejaVuSans-6d" d="M 3328 2828 
Q 3544 3216 3844 3400 
Q 4144 3584 4550 3584 
Q 5097 3584 5394 3201 
Q 5691 2819 5691 2113 
L 5691 0 
L 5113 0 
L 5113 2094 
Q 5113 2597 4934 2840 
Q 4756 3084 4391 3084 
Q 3944 3084 3684 2787 
Q 3425 2491 3425 1978 
L 3425 0 
L 2847 0 
L 2847 2094 
Q 2847 2600 2669 2842 
Q 2491 3084 2119 3084 
Q 1678 3084 1418 2786 
Q 1159 2488 1159 1978 
L 1159 0 
L 581 0 
L 581 3500 
L 1159 3500 
L 1159 2956 
Q 1356 3278 1631 3431 
Q 1906 3584 2284 3584 
Q 2666 3584 2933 3390 
Q 3200 3197 3328 2828 
z
" transform="scale(0.015625)"/>
      </defs>
      <use xlink:href="#DejaVuSans-54"/>
      <use xlink:href="#DejaVuSans-69" transform="translate(57.958984 0)"/>
      <use xlink:href="#DejaVuSans-6d" transform="translate(85.742188 0)"/>
      <use xlink:href="#DejaVuSans-65" transform="translate(183.154297 0)"/>
      <use xlink:href="#DejaVuSans-20" transform="translate(244.677734 0)"/>
      <use xlink:href="#DejaVuSans-28" transform="translate(276.464844 0)"/>
      <use xlink:href="#DejaVuSans-73" transform="translate(315.478516 0)"/>
      <use xlink:href="#DejaVuSans-29" transform="translate(367.578125 0)"/>
     </g>
    </g>
   </g>
   <g id="matplotlib.axis_4">
    <g id="ytick_7">
     <g id="line2d_47">
      <path d="M 74.99 494.346988 
L 853.2 494.346988 
" clip-path="url(#pd7aa2246ec)" style="fill: none; stroke: #b0b0b0; stroke-width: 0.8; stroke-linecap: square"/>
     </g>
     <g id="line2d_48">
      <g>
       <use xlink:href="#m14161aac16" x="74.99" y="494.346988" style="stroke: #000000; stroke-width: 0.8"/>
      </g>
     </g>
     <g id="text_26">
      <!-- −0.0015 -->
      <g transform="translate(24.619687 498.146207) scale(0.1 -0.1)">
       <defs>
        <path id="DejaVuSans-2212" d="M 678 2272 
L 4684 2272 
L 4684 1741 
L 678 1741 
L 678 2272 
z
" transform="scale(0.015625)"/>
       </defs>
       <use xlink:href="#DejaVuSans-2212"/>
       <use xlink:href="#DejaVuSans-30" transform="translate(83.789062 0)"/>
       <use xlink:href="#DejaVuSans-2e" transform="translate(147.412109 0)"/>
       <use xlink:href="#DejaVuSans-30" transform="translate(179.199219 0)"/>
       <use xlink:href="#DejaVuSans-30" transform="translate(242.822266 0)"/>
       <use xlink:href="#DejaVuSans-31" transform="translate(306.445312 0)"/>
       <use xlink:href="#DejaVuSans-35" transform="translate(370.068359 0)"/>
      </g>
     </g>
    </g>
    <g id="ytick_8">
     <g id="line2d_49">
      <path d="M 74.99 443.152406 
L 853.2 443.152406 
" clip-path="url(#pd7aa2246ec)" style="fill: none; stroke: #b0b0b0; stroke-width: 0.8; stroke-linecap: square"/>
     </g>
     <g id="line2d_50">
      <g>
       <use xlink:href="#m14161aac16" x="74.99" y="443.152406" style="stroke: #000000; stroke-width: 0.8"/>
      </g>
     </g>
     <g id="text_27">
      <!-- −0.0010 -->
      <g transform="translate(24.619687 446.951625) scale(0.1 -0.1)">
       <use xlink:href="#DejaVuSans-2212"/>
       <use xlink:href="#DejaVuSans-30" transform="translate(83.789062 0)"/>
       <use xlink:href="#DejaVuSans-2e" transform="translate(147.412109 0)"/>
       <use xlink:href="#DejaVuSans-30" transform="translate(179.199219 0)"/>
       <use xlink:href="#DejaVuSans-30" transform="translate(242.822266 0)"/>
       <use xlink:href="#DejaVuSans-31" transform="translate(306.445312 0)"/>
       <use xlink:href="#DejaVuSans-30" transform="translate(370.068359 0)"/>
      </g>
     </g>
    </g>
    <g id="ytick_9">
     <g id="line2d_51">
      <path d="M 74.99 391.957824 
L 853.2 391.957824 
" clip-path="url(#pd7aa2246ec)" style="fill: none; stroke: #b0b0b0; stroke-width: 0.8; stroke-linecap: square"/>
     </g>
     <g id="line2d_52">
      <g>
       <use xlink:href="#m14161aac16" x="74.99" y="391.957824" style="stroke: #000000; stroke-width: 0.8"/>
      </g>
     </g>
     <g id="text_28">
      <!-- −0.0005 -->
      <g transform="translate(24.619687 395.757043) scale(0.1 -0.1)">
       <use xlink:href="#DejaVuSans-2212"/>
       <use xlink:href="#DejaVuSans-30" transform="translate(83.789062 0)"/>
       <use xlink:href="#DejaVuSans-2e" transform="translate(147.412109 0)"/>
       <use xlink:href="#DejaVuSans-30" transform="translate(179.199219 0)"/>
       <use xlink:href="#DejaVuSans-30" transform="translate(242.822266 0)"/>
       <use xlink:href="#DejaVuSans-30" transform="translate(306.445312 0)"/>
       <use xlink:href="#DejaVuSans-35" transform="translate(370.068359 0)"/>
      </g>
     </g>
    </g>
    <g id="ytick_10">
     <g id="line2d_53">
      <path d="M 74.99 340.763242 
L 853.2 340.763242 
" clip-path="url(#pd7aa2246ec)" style="fill: none; stroke: #b0b0b0; stroke-width: 0.8; stroke-linecap: square"/>
     </g>
     <g id="line2d_54">
      <g>
       <use xlink:href="#m14161aac16" x="74.99" y="340.763242" style="stroke: #000000; stroke-width: 0.8"/>
      </g>
     </g>
     <g id="text_29">
      <!-- 0.0000 -->
      <g transform="translate(32.999375 344.56246) scale(0.1 -0.1)">
       <use xlink:href="#DejaVuSans-30"/>
       <use xlink:href="#DejaVuSans-2e" transform="translate(63.623047 0)"/>
       <use xlink:href="#DejaVuSans-30" transform="translate(95.410156 0)"/>
       <use xlink:href="#DejaVuSans-30" transform="translate(159.033203 0)"/>
       <use xlink:href="#DejaVuSans-30" transform="translate(222.65625 0)"/>
       <use xlink:href="#DejaVuSans-30" transform="translate(286.279297 0)"/>
      </g>
     </g>
    </g>
    <g id="text_30">
     <!-- Estimated Value -->
     <g transform="translate(18.54 458.818906) rotate(-90) scale(0.1 -0.1)">
      <defs>
       <path id="DejaVuSans-45" d="M 628 4666 
L 3578 4666 
L 3578 4134 
L 1259 4134 
L 1259 2753 
L 3481 2753 
L 3481 2222 
L 1259 2222 
L 1259 531 
L 3634 531 
L 3634 0 
L 628 0 
L 628 4666 
z
" transform="scale(0.015625)"/>
       <path id="DejaVuSans-56" d="M 1831 0 
L 50 4666 
L 709 4666 
L 2188 738 
L 3669 4666 
L 4325 4666 
L 2547 0 
L 1831 0 
z
" transform="scale(0.015625)"/>
      </defs>
      <use xlink:href="#DejaVuSans-45"/>
      <use xlink:href="#DejaVuSans-73" transform="translate(63.183594 0)"/>
      <use xlink:href="#DejaVuSans-74" transform="translate(115.283203 0)"/>
      <use xlink:href="#DejaVuSans-69" transform="translate(154.492188 0)"/>
      <use xlink:href="#DejaVuSans-6d" transform="translate(182.275391 0)"/>
      <use xlink:href="#DejaVuSans-61" transform="translate(279.6875 0)"/>
      <use xlink:href="#DejaVuSans-74" transform="translate(340.966797 0)"/>
      <use xlink:href="#DejaVuSans-65" transform="translate(380.175781 0)"/>
      <use xlink:href="#DejaVuSans-64" transform="translate(441.699219 0)"/>
      <use xlink:href="#DejaVuSans-20" transform="translate(505.175781 0)"/>
      <use xlink:href="#DejaVuSans-56" transform="translate(536.962891 0)"/>
      <use xlink:href="#DejaVuSans-61" transform="translate(597.621094 0)"/>
      <use xlink:href="#DejaVuSans-6c" transform="translate(658.900391 0)"/>
      <use xlink:href="#DejaVuSans-75" transform="translate(686.683594 0)"/>
      <use xlink:href="#DejaVuSans-65" transform="translate(750.0625 0)"/>
     </g>
    </g>
   </g>
   <g id="line2d_55">
    <path d="M 110.363182 340.763242 
L 119.648492 340.759715 
L 129.318685 340.758823 
L 129.463016 323.428202 
L 129.751679 322.336751 
L 130.040341 322.073418 
L 130.569556 321.962748 
L 132.012868 321.96726 
L 141.731172 322.22103 
L 149.332617 322.055289 
L 153.13334 322.021881 
L 153.277671 317.640562 
L 154.047438 317.481414 
L 155.971854 317.442384 
L 164.920391 317.462978 
L 165.064722 317.787276 
L 170.020095 317.804794 
L 177.092326 317.902225 
L 179.112963 318.216516 
L 181.999588 318.40262 
L 186.137084 318.432583 
L 188.494494 318.432583 
L 188.638825 317.365299 
L 189.937806 316.918961 
L 191.52545 316.669878 
L 194.267744 316.494989 
L 199.223116 316.428088 
L 204.900145 316.538692 
L 212.068597 316.620485 
L 212.261038 316.51795 
L 213.078915 316.48562 
L 218.804055 316.555473 
L 223.855648 316.675886 
L 223.903759 312.967273 
L 223.951869 313.505525 
L 224.240532 317.139036 
L 224.481084 317.682832 
L 224.865967 317.96537 
L 225.683844 318.21325 
L 227.848813 318.57417 
L 231.697646 318.992952 
L 234.199387 319.08566 
L 235.6427 319.08566 
L 235.73892 319.599142 
L 235.787031 319.593429 
L 237.567116 319.393558 
L 245.02423 318.99288 
L 247.429751 318.99288 
L 247.525972 320.601879 
L 247.574082 320.592783 
L 248.680622 320.393069 
L 250.84559 320.434653 
L 259.216802 320.686126 
L 259.361134 320.534496 
L 261.959096 320.112035 
L 265.230604 319.94784 
L 271.003854 319.891347 
L 271.148185 320.258438 
L 273.409375 320.572486 
L 276.921435 320.735559 
L 283.127678 320.795851 
L 286.83218 320.681834 
L 294.577957 320.638805 
L 294.722288 320.713606 
L 309.155412 320.79586 
L 318.873716 320.771734 
L 322.722549 320.860905 
L 329.891 320.875716 
L 330.035332 320.735777 
L 333.643613 320.653951 
L 346.15232 320.441159 
L 346.296652 340.76321 
L 365.252155 340.852637 
L 365.87759 341.051734 
L 368.427442 341.165132 
L 377.135427 341.355405 
L 388.826257 341.328887 
L 388.970589 341.328887 
L 389.11492 340.920353 
L 391.279889 340.875007 
L 404.847025 340.952871 
L 424.331743 340.962016 
L 424.476074 340.75805 
L 427.603251 340.612209 
L 435.445249 340.556452 
L 459.692897 340.580289 
L 459.837228 340.880245 
L 460.318333 340.949322 
L 466.620797 341.105274 
L 474.366573 341.128488 
L 483.267 341.057709 
L 483.411331 341.287138 
L 485.720631 341.253439 
L 496.06437 341.228574 
L 500.490528 341.143309 
L 506.841103 341.126764 
L 506.985434 341.221349 
L 511.892696 341.31194 
L 530.415206 341.344488 
L 530.655758 341.311214 
L 539.556184 341.314751 
L 581.989569 341.232754 
L 582.1339 340.76322 
L 624.807838 340.664443 
L 624.855948 341.136149 
L 624.952169 341.080277 
L 625.962488 339.859937 
L 626.732254 339.596361 
L 628.127456 339.398663 
L 630.821639 339.278586 
L 636.594889 339.276074 
L 636.73922 338.833385 
L 637.749539 338.654242 
L 639.722066 338.48712 
L 643.522789 338.416847 
L 648.38194 338.428035 
L 648.526272 339.044295 
L 648.911155 338.88191 
L 649.729032 338.596901 
L 651.076124 338.397818 
L 653.770307 338.265141 
L 660.168992 338.204329 
L 660.313323 337.236545 
L 666.182794 337.194887 
L 671.956043 337.18252 
L 672.100374 337.70216 
L 681.963009 337.418212 
L 683.839315 337.520148 
L 684.079868 337.5825 
L 689.708786 337.589862 
L 695.530146 337.538216 
L 695.674477 338.732912 
L 697.647004 339.269117 
L 699.811973 339.386226 
L 703.131591 339.33621 
L 707.317197 339.24659 
L 707.365308 339.778659 
L 707.461529 339.758886 
L 708.231295 339.538869 
L 709.674608 339.558324 
L 719.104249 339.967422 
L 719.24858 341.235317 
L 727.475461 341.239624 
L 733.970367 341.145867 
L 743.784891 341.193029 
L 758.266126 341.255841 
L 778.039506 341.12638 
L 778.183837 340.849537 
L 781.166683 340.807085 
L 817.826818 340.770757 
L 817.826818 340.770757 
" clip-path="url(#pd7aa2246ec)" style="fill: none; stroke: #0000ff; stroke-width: 1.5; stroke-linecap: square"/>
   </g>
   <g id="line2d_56">
    <path d="M 110.363182 340.763242 
L 113.538469 340.762614 
L 129.318685 340.758026 
L 129.463016 322.666362 
L 129.559237 322.417349 
L 129.992231 320.859486 
L 130.184672 320.839078 
L 130.425224 321.159295 
L 130.761997 321.153984 
L 131.05066 321.259953 
L 131.243101 321.230181 
L 132.686414 320.725103 
L 133.119408 320.790756 
L 133.841064 321.080275 
L 134.418389 321.178414 
L 135.140045 321.41894 
L 138.171001 322.237867 
L 139.036989 322.605082 
L 139.758645 322.806271 
L 140.239749 322.944609 
L 140.672743 323.092687 
L 142.356607 323.649385 
L 142.789601 323.767191 
L 143.703699 323.975367 
L 146.15733 324.241149 
L 146.830876 324.226449 
L 153.13334 324.160572 
L 153.277671 316.94657 
L 153.758775 316.90475 
L 154.720983 316.82738 
L 156.501069 316.84411 
L 164.920391 317.15802 
L 165.064722 317.509656 
L 167.374022 317.541063 
L 171.463407 317.519635 
L 174.638695 317.53019 
L 176.755553 317.639474 
L 177.717761 317.98657 
L 182.913686 318.645413 
L 188.494494 318.642103 
L 188.638825 318.403713 
L 191.717892 318.108731 
L 193.594198 318.100345 
L 194.363964 318.094968 
L 200.281545 318.273487 
L 200.425877 319.187127 
L 204.755814 320.674061 
L 206.199126 321.055618 
L 208.123543 321.362481 
L 210.769616 321.434936 
L 212.357259 321.330786 
L 213.175136 321.311697 
L 218.178619 321.397404 
L 223.855648 321.441477 
L 223.903759 314.957966 
L 223.951869 315.656897 
L 224.144311 319.422936 
L 224.336752 319.507979 
L 224.529194 319.458389 
L 224.769746 319.80509 
L 225.395181 320.076998 
L 225.731954 320.131936 
L 226.213058 320.141946 
L 228.7148 320.66468 
L 228.955352 320.799322 
L 229.244015 320.772379 
L 229.82134 320.757783 
L 230.254333 320.883366 
L 230.735437 321.039509 
L 231.07221 321.1379 
L 231.890087 321.195475 
L 234.439939 321.229476 
L 235.6427 321.229476 
L 235.69081 320.53591 
L 235.787031 320.572331 
L 236.220025 321.134056 
L 236.412466 321.107962 
L 236.701129 321.041968 
L 237.470895 321.028478 
L 237.903889 321.129532 
L 240.213189 321.352992 
L 244.495016 321.09206 
L 247.429751 321.095627 
L 247.477861 322.795276 
L 247.574082 322.772528 
L 251.278584 322.9979 
L 251.807799 323.015671 
L 253.251111 323.003204 
L 255.079307 323.053302 
L 258.254594 323.162987 
L 259.216802 323.162987 
L 259.361134 322.979931 
L 261.429881 322.399902 
L 264.316506 322.075324 
L 267.251242 321.938984 
L 271.003854 321.906705 
L 271.148185 322.149593 
L 272.591497 322.124498 
L 273.313154 322.113268 
L 275.285681 322.070331 
L 278.364747 321.951549 
L 281.973028 321.904215 
L 282.790905 321.904215 
L 282.935236 321.663545 
L 285.052095 321.602909 
L 286.206745 321.578987 
L 288.660376 321.553593 
L 294.577957 321.4845 
L 294.722288 321.832165 
L 306.365008 322.031021 
L 306.509339 321.004265 
L 306.749891 321.015168 
L 307.230995 321.060331 
L 308.193204 321.060002 
L 308.96297 321.003767 
L 311.560933 320.864584 
L 312.763693 320.77664 
L 315.072993 320.743487 
L 318.20017 320.811467 
L 323.299874 321.054826 
L 329.891 321.125302 
L 330.035332 320.978072 
L 334.028496 320.932267 
L 346.007989 320.948391 
L 346.15232 320.943404 
L 346.200431 340.763242 
L 346.296652 340.7612 
L 350.674699 340.765385 
L 365.155934 340.76358 
L 365.204044 340.440519 
L 365.300265 340.46371 
L 365.444596 340.759574 
L 365.781369 340.02454 
L 366.454915 340.487892 
L 366.695467 340.594975 
L 366.98413 340.676773 
L 367.753896 340.335881 
L 368.235 340.196883 
L 368.523663 340.095248 
L 368.956657 340.149889 
L 369.678313 340.41791 
L 370.255638 340.494831 
L 370.977294 340.713483 
L 373.96014 341.440239 
L 374.729906 341.782372 
L 378.097635 342.880552 
L 378.67496 343.033753 
L 381.128591 343.55532 
L 381.802137 343.594626 
L 382.475683 343.518198 
L 382.956787 343.535138 
L 383.389781 343.532124 
L 384.640651 343.648283 
L 388.248932 343.568705 
L 388.970589 343.568705 
L 389.06681 340.235037 
L 389.11492 340.236831 
L 389.499803 340.27792 
L 390.029018 340.288114 
L 392.675091 340.305867 
L 395.657936 340.430808 
L 398.640782 340.582426 
L 400.75764 340.582426 
L 400.901971 340.704776 
L 403.836707 340.733562 
L 412.544692 340.719085 
L 412.737133 340.856996 
L 413.603121 340.996796 
L 414.372887 340.974883 
L 422.407326 341.278141 
L 424.331743 341.278141 
L 424.476074 341.89439 
L 425.775055 342.055439 
L 426.641043 342.084596 
L 436.118794 342.494375 
L 436.263126 343.373828 
L 440.111959 344.694747 
L 440.881725 344.865266 
L 443.046694 345.313648 
L 445.115442 345.471222 
L 446.173871 345.47335 
L 459.692897 345.461594 
L 459.741008 341.773635 
L 459.837228 342.342575 
L 459.933449 342.831131 
L 460.174001 341.514306 
L 460.366443 341.152907 
L 460.558885 341.309022 
L 461.521093 341.36818 
L 462.290859 341.299711 
L 462.675743 341.281154 
L 463.012516 341.236552 
L 464.600159 341.567974 
L 464.888822 341.642217 
L 465.610478 341.511592 
L 466.476465 341.687595 
L 467.150011 341.816095 
L 468.833876 341.788995 
L 471.479949 341.788995 
L 471.528059 341.14848 
L 471.62428 341.195043 
L 472.057274 341.819488 
L 472.249715 341.810778 
L 472.538378 341.765216 
L 473.308144 341.794162 
L 473.741138 341.915775 
L 476.050438 342.242014 
L 480.524706 342.154104 
L 483.267 342.156102 
L 483.31511 342.736427 
L 483.411331 342.721684 
L 484.806533 342.957705 
L 486.057404 342.977418 
L 486.77906 343.03963 
L 487.645048 343.075431 
L 489.280802 342.993401 
L 495.679487 342.875314 
L 496.593585 342.716555 
L 497.603903 342.671143 
L 499.335878 342.515971 
L 508.621188 342.133375 
L 512.951125 341.84853 
L 518.628154 341.723201 
L 518.772485 341.531785 
L 520.889344 341.540645 
L 521.995883 341.53663 
L 530.415206 341.483109 
L 530.559537 341.713505 
L 536.910111 341.773703 
L 540.662724 341.847434 
L 542.202257 341.847434 
L 542.346588 340.882319 
L 542.58714 340.893436 
L 543.068244 340.941765 
L 544.030453 340.952763 
L 544.800219 340.906804 
L 547.398182 340.803614 
L 548.600942 340.733881 
L 550.958352 340.729619 
L 560.724766 340.93831 
L 577.515301 341.002074 
L 577.659632 341.111876 
L 581.989569 341.132637 
L 582.1339 340.76024 
L 583.096109 340.757996 
L 588.580696 341.036117 
L 589.158021 341.049653 
L 589.927788 341.045123 
L 595.412375 340.978968 
L 596.567025 340.932819 
L 600.993183 340.938919 
L 601.041293 340.100184 
L 601.089404 341.102892 
L 601.137514 340.449374 
L 601.185624 341.356447 
L 601.281845 341.101474 
L 601.570508 339.54339 
L 601.618618 339.514866 
L 601.666729 339.599593 
L 601.85917 339.75205 
L 602.099722 340.37466 
L 602.436495 340.313884 
L 602.628937 340.371892 
L 602.869489 340.369182 
L 603.494924 339.914034 
L 604.553353 339.907384 
L 604.745795 339.857197 
L 605.034458 339.990191 
L 605.226899 340.211479 
L 605.659893 340.945427 
L 605.804224 341.042617 
L 605.900445 341.092573 
L 606.044776 341.499369 
L 606.285328 341.938681 
L 606.958874 342.725335 
L 607.006984 342.680489 
L 607.103205 342.668185 
L 607.343757 342.694183 
L 607.488089 342.825999 
L 608.402186 344.161887 
L 608.546518 344.373222 
L 609.123843 345.316264 
L 609.460616 345.491947 
L 609.653057 345.695953 
L 611.000149 348.373281 
L 611.240701 348.417274 
L 611.529363 348.991643 
L 611.769915 349.268088 
L 612.058578 349.605198 
L 612.972676 351.540529 
L 613.068897 351.632034 
L 613.357559 352.124057 
L 613.598111 352.520599 
L 613.694332 352.610889 
L 613.886774 352.67072 
L 614.127326 352.649954 
L 614.271657 352.669951 
L 614.800872 353.619689 
L 614.993313 353.777816 
L 615.281976 354.120104 
L 615.426307 354.14306 
L 616.003632 354.941115 
L 616.051742 354.860287 
L 616.244184 354.807683 
L 616.484736 354.949441 
L 616.869619 355.316914 
L 617.591276 355.404062 
L 618.312932 354.788683 
L 618.505373 354.871224 
L 618.794036 354.766949 
L 618.986478 354.65367 
L 619.22703 354.682085 
L 619.563803 354.810163 
L 619.708134 354.892244 
L 619.852465 355.031709 
L 620.044907 355.195189 
L 620.574121 354.976787 
L 620.862784 354.757597 
L 621.488219 354.530224 
L 621.728771 354.516685 
L 621.921213 354.5038 
L 622.354207 354.41883 
L 624.807838 354.41883 
L 625.0965 343.186091 
L 625.288942 337.0892 
L 625.625715 326.207937 
L 625.673825 326.274997 
L 625.914377 330.698424 
L 625.962488 330.576495 
L 626.106819 331.782975 
L 626.154929 331.467961 
L 626.20304 331.23682 
L 626.25115 331.496227 
L 626.29926 331.441305 
L 626.395481 330.095031 
L 626.443592 330.372134 
L 626.587923 331.786336 
L 626.636033 331.252794 
L 626.684144 331.258505 
L 626.924696 328.95028 
L 627.261469 331.825289 
L 627.550131 333.616707 
L 627.694462 335.388294 
L 627.935015 338.434339 
L 628.079346 340.135358 
L 628.464229 344.332837 
L 628.60856 344.27939 
L 628.656671 344.379397 
L 628.704781 344.314514 
L 628.849112 343.854374 
L 628.897223 343.941277 
L 628.993444 344.070504 
L 629.233996 345.303581 
L 629.666989 351.316818 
L 630.099983 354.45767 
L 630.292425 355.679267 
L 630.436756 357.83805 
L 630.677308 359.900792 
L 630.821639 361.428176 
L 630.91786 361.404221 
L 631.014081 361.932066 
L 631.928179 371.547246 
L 631.976289 371.454913 
L 632.120621 372.665324 
L 632.168731 373.108856 
L 632.216841 372.874954 
L 632.361173 372.260704 
L 632.409283 372.415169 
L 633.130939 377.857858 
L 633.22716 377.654061 
L 633.371491 377.562385 
L 633.467712 377.15334 
L 633.515823 377.522543 
L 633.563933 377.449296 
L 633.804485 376.439075 
L 633.948816 377.151367 
L 636.594889 377.151367 
L 636.642999 384.038863 
L 636.73922 383.491706 
L 636.883552 381.404582 
L 637.220324 376.205291 
L 637.557097 373.320345 
L 637.797649 372.251871 
L 637.84576 372.325181 
L 637.89387 372.556649 
L 637.941981 372.437532 
L 638.038201 371.571126 
L 638.230643 370.564869 
L 638.423085 371.207532 
L 638.663637 368.894958 
L 638.759858 369.166958 
L 639.00041 371.523482 
L 639.144741 371.272312 
L 639.289072 371.295565 
L 639.433403 371.327295 
L 639.529624 371.606463 
L 639.577735 371.504308 
L 639.866397 370.791163 
L 639.914508 370.869885 
L 640.010728 371.379328 
L 640.058839 371.346892 
L 640.15506 370.680217 
L 640.20317 370.749053 
L 640.443722 371.518301 
L 640.491833 371.281108 
L 640.684274 370.16014 
L 640.732385 370.189811 
L 640.780495 370.361657 
L 641.069158 368.101022 
L 641.261599 367.218363 
L 641.454041 367.086702 
L 641.598372 366.777242 
L 641.838924 367.353732 
L 641.887035 367.279456 
L 641.983255 367.047121 
L 642.127587 367.667169 
L 642.175697 367.404804 
L 642.416249 366.903405 
L 642.56058 367.239112 
L 642.608691 367.096528 
L 642.704912 366.690657 
L 642.753022 366.745203 
L 643.282237 365.659508 
L 643.330347 365.852665 
L 643.378457 365.811495 
L 643.474678 365.658415 
L 643.763341 366.280566 
L 643.811451 366.240645 
L 643.859562 366.404284 
L 643.907672 366.362083 
L 644.148224 365.762202 
L 644.196334 365.839458 
L 644.533107 365.440052 
L 644.677439 365.138519 
L 644.966101 365.807893 
L 645.495316 367.884015 
L 645.591536 368.328945 
L 645.783978 367.362991 
L 648.38194 367.362991 
L 648.430051 352.314074 
L 648.526272 353.716514 
L 648.718713 356.357638 
L 648.863045 353.488128 
L 648.911155 354.015307 
L 649.055486 356.482018 
L 649.103597 356.236225 
L 649.392259 360.187487 
L 649.48848 359.664501 
L 649.632811 358.255608 
L 649.729032 357.39598 
L 649.825253 357.741971 
L 649.873363 357.879994 
L 650.113915 355.100583 
L 650.595019 350.489227 
L 650.835572 353.291825 
L 650.931792 352.785942 
L 651.028013 352.764045 
L 651.268565 354.329 
L 651.316676 354.332664 
L 651.412897 353.449475 
L 651.509117 353.632119 
L 652.567546 347.70936 
L 652.711878 347.790068 
L 653.048651 346.269374 
L 653.096761 346.349824 
L 653.241092 346.905576 
L 653.433534 345.644459 
L 653.529755 345.75929 
L 653.914638 346.117778 
L 654.10708 346.597442 
L 654.203301 346.663431 
L 654.395742 347.099244 
L 654.491963 346.924067 
L 655.021178 344.137196 
L 655.26173 343.879771 
L 655.454171 343.410831 
L 655.502282 343.52213 
L 655.550392 343.404333 
L 655.983386 341.96563 
L 656.368269 341.411257 
L 656.46449 341.053457 
L 656.5126 341.068984 
L 656.608821 341.146121 
L 656.801263 341.732008 
L 656.897484 341.419071 
L 657.138036 341.020939 
L 657.282367 340.80661 
L 657.61914 339.250714 
L 660.168992 339.250714 
L 660.313323 391.031787 
L 660.409544 391.237262 
L 660.457654 391.183564 
L 660.601986 390.94227 
L 660.890648 390.122431 
L 661.08309 389.971311 
L 661.275531 389.779068 
L 661.564194 389.717431 
L 661.708525 389.858438 
L 661.949077 389.717849 
L 662.141519 389.648649 
L 662.382071 389.618957 
L 662.670733 389.422601 
L 662.911285 389.212682 
L 663.248058 388.501086 
L 663.48861 388.441354 
L 663.921604 388.196689 
L 664.114046 388.218261 
L 664.354598 388.272883 
L 664.498929 388.143726 
L 664.691371 387.913982 
L 665.124364 387.764379 
L 665.413027 387.432354 
L 665.605469 387.417542 
L 665.79791 387.382237 
L 666.038462 387.243409 
L 666.327125 387.406692 
L 666.471456 387.490393 
L 667.096891 387.787167 
L 667.818548 387.344145 
L 668.155321 387.820192 
L 668.876977 388.679739 
L 669.165639 389.427645 
L 669.406191 389.842876 
L 671.956043 389.842876 
L 672.100374 421.073568 
L 672.292816 423.019786 
L 672.581479 426.213017 
L 673.110693 428.29402 
L 673.495576 430.652958 
L 673.591797 431.074864 
L 673.736129 431.829815 
L 673.784239 431.706875 
L 673.832349 431.772981 
L 673.92857 432.070069 
L 674.409674 434.651362 
L 674.505895 435.05742 
L 674.938889 437.492789 
L 675.275662 439.183783 
L 675.997318 441.429355 
L 676.18976 441.881973 
L 676.28598 442.106814 
L 676.622753 443.316055 
L 677.103858 445.560957 
L 677.39252 446.581844 
L 677.488741 446.597532 
L 677.825514 447.581673 
L 679.028274 450.050673 
L 679.172605 450.309758 
L 679.268826 450.270269 
L 679.413157 450.332431 
L 679.74993 450.355409 
L 679.846151 450.385437 
L 680.231034 450.012404 
L 680.279145 450.075824 
L 680.423476 450.27724 
L 680.567807 450.194966 
L 680.90458 449.869275 
L 680.952691 449.917033 
L 681.000801 449.949627 
L 681.145132 449.83401 
L 683.743095 449.83401 
L 683.887426 520.545416 
L 684.079868 522.600824 
L 684.224199 522.875225 
L 684.272309 522.807727 
L 684.36853 522.901672 
L 684.41664 522.856732 
L 686.148615 522.555086 
L 686.389167 522.550979 
L 686.67783 522.48051 
L 688.169253 523.175122 
L 688.457915 523.446194 
L 688.794688 523.272283 
L 688.890909 523.224396 
L 688.939019 523.282382 
L 689.372013 523.497373 
L 689.853117 523.26124 
L 689.901228 523.310126 
L 689.949338 523.248038 
L 690.238001 523.105089 
L 690.382332 523.127374 
L 690.719105 522.975108 
L 690.911546 523.283493 
L 690.959657 523.255053 
L 691.681313 522.070644 
L 691.969975 521.549904 
L 692.162417 521.248705 
L 692.45108 520.603151 
L 692.739742 520.190504 
L 692.932184 520.068867 
L 695.530146 520.068867 
L 695.674477 433.085089 
L 696.251802 422.049865 
L 696.348023 420.202063 
L 696.540465 415.643474 
L 696.636686 414.776775 
L 697.791336 401.120252 
L 697.887556 400.812308 
L 697.983777 401.137407 
L 698.079998 400.778126 
L 698.128108 400.868256 
L 698.224329 400.927016 
L 698.27244 400.840474 
L 698.32055 400.93599 
L 698.464881 400.880443 
L 698.897875 398.530426 
L 698.994096 398.604414 
L 699.042206 398.492308 
L 699.090317 398.54654 
L 699.234648 398.79304 
L 699.42709 398.477158 
L 699.571421 397.842739 
L 699.715752 397.91229 
L 699.956304 398.398028 
L 700.148746 397.577214 
L 700.293077 396.918725 
L 700.533629 398.617627 
L 700.62985 398.424574 
L 700.726071 398.105754 
L 701.207175 394.038198 
L 701.399617 393.614836 
L 701.592058 393.404485 
L 701.880721 394.270554 
L 701.928831 394.227877 
L 702.073162 393.87836 
L 702.121273 393.942506 
L 702.698598 394.887284 
L 703.131591 394.149301 
L 703.324033 393.98494 
L 703.612696 393.655342 
L 703.660806 393.708728 
L 703.708916 393.642582 
L 703.805137 393.545699 
L 704.045689 393.433963 
L 704.14191 393.502012 
L 704.478683 392.558083 
L 704.526793 392.589616 
L 704.671125 392.696042 
L 707.317197 392.696042 
L 707.461529 368.78315 
L 707.894522 357.970725 
L 707.942633 357.677007 
L 707.990743 358.124206 
L 708.038854 357.585825 
L 708.231295 355.458929 
L 708.327516 355.626225 
L 708.568068 354.432017 
L 708.952952 352.601517 
L 709.001062 352.677382 
L 709.097283 352.389408 
L 709.626497 350.647636 
L 709.770829 350.565381 
L 710.011381 350.026552 
L 710.492485 348.9305 
L 710.973589 347.148219 
L 711.021699 347.183893 
L 711.166031 347.298935 
L 711.502803 346.627305 
L 711.743356 346.131244 
L 711.791466 346.166469 
L 711.935797 346.278839 
L 712.128239 345.933994 
L 712.609343 345.272223 
L 712.801785 345.05939 
L 713.186668 344.212964 
L 713.330999 344.193182 
L 713.47533 344.228477 
L 713.715883 344.306466 
L 714.389428 343.849989 
L 714.966753 343.709898 
L 715.111085 343.689064 
L 715.303526 343.817803 
L 715.495968 343.862885 
L 715.73652 343.791717 
L 715.928962 343.741462 
L 716.698728 343.542103 
L 719.104249 343.542103 
L 719.24858 342.854944 
L 720.547561 343.205549 
L 721.50977 343.26125 
L 724.781278 343.286245 
L 725.358603 343.223395 
L 731.468625 343.150729 
L 732.334613 343.002467 
L 742.630241 342.61509 
L 743.303787 342.507041 
L 746.575295 342.17685 
L 751.097674 341.934007 
L 754.465403 341.893611 
L 754.609734 341.521013 
L 756.245488 341.560552 
L 761.970628 341.640464 
L 764.6167 341.603768 
L 766.252454 341.603768 
L 766.396786 341.950982 
L 766.87789 341.85474 
L 767.262773 341.865616 
L 768.802306 341.941098 
L 769.572073 341.993936 
L 770.630502 342.036592 
L 778.039506 342.250593 
L 778.183837 340.509529 
L 778.424389 340.518452 
L 778.857383 340.563934 
L 780.300695 340.55501 
L 788.527576 340.355355 
L 791.077428 340.465134 
L 791.750974 340.475186 
L 793.194286 340.49599 
L 801.565498 340.558993 
L 801.854161 340.537983 
L 813.35255 340.638413 
L 813.496881 340.764833 
L 817.826818 340.797151 
L 817.826818 340.797151 
" clip-path="url(#pd7aa2246ec)" style="fill: none; stroke-dasharray: 5.55,2.4; stroke-dashoffset: 0; stroke: #ff0000; stroke-width: 1.5"/>
   </g>
   <g id="line2d_57">
    <path d="M 346.200431 534.04 
L 346.200431 302.44 
" clip-path="url(#pd7aa2246ec)" style="fill: none; stroke-dasharray: 1.5,2.475; stroke-dashoffset: 0; stroke: #808080; stroke-opacity: 0.6; stroke-width: 1.5"/>
   </g>
   <g id="line2d_58">
    <path d="M 582.03768 534.04 
L 582.03768 302.44 
" clip-path="url(#pd7aa2246ec)" style="fill: none; stroke-dasharray: 1.5,2.475; stroke-dashoffset: 0; stroke: #808080; stroke-opacity: 0.6; stroke-width: 1.5"/>
   </g>
   <g id="patch_9">
    <path d="M 74.99 534.04 
L 74.99 302.44 
" style="fill: none; stroke: #000000; stroke-width: 0.8; stroke-linejoin: miter; stroke-linecap: square"/>
   </g>
   <g id="patch_10">
    <path d="M 853.2 534.04 
L 853.2 302.44 
" style="fill: none; stroke: #000000; stroke-width: 0.8; stroke-linejoin: miter; stroke-linecap: square"/>
   </g>
   <g id="patch_11">
    <path d="M 74.99 534.04 
L 853.2 534.04 
" style="fill: none; stroke: #000000; stroke-width: 0.8; stroke-linejoin: miter; stroke-linecap: square"/>
   </g>
   <g id="patch_12">
    <path d="M 74.99 302.44 
L 853.2 302.44 
" style="fill: none; stroke: #000000; stroke-width: 0.8; stroke-linejoin: miter; stroke-linecap: square"/>
   </g>
   <g id="text_31">
    <!-- [25] Ka_yz  —  State Estimate -->
    <g transform="translate(374.746563 296.44) scale(0.12 -0.12)">
     <use xlink:href="#DejaVuSans-5b"/>
     <use xlink:href="#DejaVuSans-32" transform="translate(39.013672 0)"/>
     <use xlink:href="#DejaVuSans-35" transform="translate(102.636719 0)"/>
     <use xlink:href="#DejaVuSans-5d" transform="translate(166.259766 0)"/>
     <use xlink:href="#DejaVuSans-20" transform="translate(205.273438 0)"/>
     <use xlink:href="#DejaVuSans-4b" transform="translate(237.060547 0)"/>
     <use xlink:href="#DejaVuSans-61" transform="translate(300.886719 0)"/>
     <use xlink:href="#DejaVuSans-5f" transform="translate(362.166016 0)"/>
     <use xlink:href="#DejaVuSans-79" transform="translate(412.166016 0)"/>
     <use xlink:href="#DejaVuSans-7a" transform="translate(471.345703 0)"/>
     <use xlink:href="#DejaVuSans-20" transform="translate(523.835938 0)"/>
     <use xlink:href="#DejaVuSans-20" transform="translate(555.623047 0)"/>
     <use xlink:href="#DejaVuSans-2014" transform="translate(587.410156 0)"/>
     <use xlink:href="#DejaVuSans-20" transform="translate(687.410156 0)"/>
     <use xlink:href="#DejaVuSans-20" transform="translate(719.197266 0)"/>
     <use xlink:href="#DejaVuSans-53" transform="translate(750.984375 0)"/>
     <use xlink:href="#DejaVuSans-74" transform="translate(814.460938 0)"/>
     <use xlink:href="#DejaVuSans-61" transform="translate(853.669922 0)"/>
     <use xlink:href="#DejaVuSans-74" transform="translate(914.949219 0)"/>
     <use xlink:href="#DejaVuSans-65" transform="translate(954.158203 0)"/>
     <use xlink:href="#DejaVuSans-20" transform="translate(1015.681641 0)"/>
     <use xlink:href="#DejaVuSans-45" transform="translate(1047.46875 0)"/>
     <use xlink:href="#DejaVuSans-73" transform="translate(1110.652344 0)"/>
     <use xlink:href="#DejaVuSans-74" transform="translate(1162.751953 0)"/>
     <use xlink:href="#DejaVuSans-69" transform="translate(1201.960938 0)"/>
     <use xlink:href="#DejaVuSans-6d" transform="translate(1229.744141 0)"/>
     <use xlink:href="#DejaVuSans-61" transform="translate(1327.15625 0)"/>
     <use xlink:href="#DejaVuSans-74" transform="translate(1388.435547 0)"/>
     <use xlink:href="#DejaVuSans-65" transform="translate(1427.644531 0)"/>
    </g>
   </g>
   <g id="legend_2">
    <g id="patch_13">
     <path d="M 734.342188 339.79625 
L 846.2 339.79625 
Q 848.2 339.79625 848.2 337.79625 
L 848.2 309.44 
Q 848.2 307.44 846.2 307.44 
L 734.342188 307.44 
Q 732.342188 307.44 732.342188 309.44 
L 732.342188 337.79625 
Q 732.342188 339.79625 734.342188 339.79625 
z
" style="fill: #ffffff; opacity: 0.8; stroke: #cccccc; stroke-linejoin: miter"/>
    </g>
    <g id="line2d_59">
     <path d="M 736.342188 315.538437 
L 746.342188 315.538437 
L 756.342188 315.538437 
" style="fill: none; stroke: #0000ff; stroke-width: 1.5; stroke-linecap: square"/>
    </g>
    <g id="text_32">
     <!-- Ideal (No Noise) -->
     <g transform="translate(764.342188 319.038437) scale(0.1 -0.1)">
      <use xlink:href="#DejaVuSans-49"/>
      <use xlink:href="#DejaVuSans-64" transform="translate(29.492188 0)"/>
      <use xlink:href="#DejaVuSans-65" transform="translate(92.96875 0)"/>
      <use xlink:href="#DejaVuSans-61" transform="translate(154.492188 0)"/>
      <use xlink:href="#DejaVuSans-6c" transform="translate(215.771484 0)"/>
      <use xlink:href="#DejaVuSans-20" transform="translate(243.554688 0)"/>
      <use xlink:href="#DejaVuSans-28" transform="translate(275.341797 0)"/>
      <use xlink:href="#DejaVuSans-4e" transform="translate(314.355469 0)"/>
      <use xlink:href="#DejaVuSans-6f" transform="translate(389.160156 0)"/>
      <use xlink:href="#DejaVuSans-20" transform="translate(450.341797 0)"/>
      <use xlink:href="#DejaVuSans-4e" transform="translate(482.128906 0)"/>
      <use xlink:href="#DejaVuSans-6f" transform="translate(556.933594 0)"/>
      <use xlink:href="#DejaVuSans-69" transform="translate(618.115234 0)"/>
      <use xlink:href="#DejaVuSans-73" transform="translate(645.898438 0)"/>
      <use xlink:href="#DejaVuSans-65" transform="translate(697.998047 0)"/>
      <use xlink:href="#DejaVuSans-29" transform="translate(759.521484 0)"/>
     </g>
    </g>
    <g id="line2d_60">
     <path d="M 736.342188 330.216562 
L 746.342188 330.216562 
L 756.342188 330.216562 
" style="fill: none; stroke-dasharray: 5.55,2.4; stroke-dashoffset: 0; stroke: #ff0000; stroke-width: 1.5"/>
    </g>
    <g id="text_33">
     <!-- With Full Noise -->
     <g transform="translate(764.342188 333.716562) scale(0.1 -0.1)">
      <use xlink:href="#DejaVuSans-57"/>
      <use xlink:href="#DejaVuSans-69" transform="translate(96.626953 0)"/>
      <use xlink:href="#DejaVuSans-74" transform="translate(124.410156 0)"/>
      <use xlink:href="#DejaVuSans-68" transform="translate(163.619141 0)"/>
      <use xlink:href="#DejaVuSans-20" transform="translate(226.998047 0)"/>
      <use xlink:href="#DejaVuSans-46" transform="translate(258.785156 0)"/>
      <use xlink:href="#DejaVuSans-75" transform="translate(310.804688 0)"/>
      <use xlink:href="#DejaVuSans-6c" transform="translate(374.183594 0)"/>
      <use xlink:href="#DejaVuSans-6c" transform="translate(401.966797 0)"/>
      <use xlink:href="#DejaVuSans-20" transform="translate(429.75 0)"/>
      <use xlink:href="#DejaVuSans-4e" transform="translate(461.537109 0)"/>
      <use xlink:href="#DejaVuSans-6f" transform="translate(536.341797 0)"/>
      <use xlink:href="#DejaVuSans-69" transform="translate(597.523438 0)"/>
      <use xlink:href="#DejaVuSans-73" transform="translate(625.306641 0)"/>
      <use xlink:href="#DejaVuSans-65" transform="translate(677.40625 0)"/>
     </g>
    </g>
   </g>
  </g>
 </g>
 <defs>
  <clipPath id="pddfe84ab4e">
   <rect x="74.99" y="26.88" width="778.21" height="231.6"/>
  </clipPath>
  <clipPath id="pd7aa2246ec">
   <rect x="74.99" y="302.44" width="778.21" height="231.6"/>
  </clipPath>
 </defs>
</svg>
