<?xml version="1.0" encoding="utf-8" standalone="no"?>
<!DOCTYPE svg PUBLIC "-//W3C//DTD SVG 1.1//EN"
  "http://www.w3.org/Graphics/SVG/1.1/DTD/svg11.dtd">
<svg xmlns:xlink="http://www.w3.org/1999/xlink" width="864pt" height="576pt" viewBox="0 0 864 576" xmlns="http://www.w3.org/2000/svg" version="1.1">
 <metadata>
  <rdf:RDF xmlns:dc="http://purl.org/dc/elements/1.1/" xmlns:cc="http://creativecommons.org/ns#" xmlns:rdf="http://www.w3.org/1999/02/22-rdf-syntax-ns#">
   <cc:Work>
    <dc:type rdf:resource="http://purl.org/dc/dcmitype/StillImage"/>
    <dc:date>2026-03-09T19:22:01.216590</dc:date>
    <dc:format>image/svg+xml</dc:format>
    <dc:creator>
     <cc:Agent>
      <dc:title>Matplotlib v3.10.8, https://matplotlib.org/</dc:title>
     </cc:Agent>
    </dc:creator>
   </cc:Work>
  </rdf:RDF>
 </metadata>
 <defs>
  <style type="text/css">*{stroke-linejoin: round; stroke-linecap: butt}</style>
 </defs>
 <g id="figure_1">
  <g id="patch_1">
   <path d="M 0 576 
L 864 576 
L 864 0 
L 0 0 
z
" style="fill: #ffffff"/>
  </g>
  <g id="axes_1">
   <g id="patch_2">
    <path d="M 72.92 258.48 
L 853.2 258.48 
L 853.2 26.88 
L 72.92 26.88 
z
" style="fill: #ffffff"/>
   </g>
   <g id="matplotlib.axis_1">
    <g id="xtick_1">
     <g id="line2d_1">
      <path d="M 108.387273 258.48 
L 108.387273 26.88 
" clip-path="url(#p54fd430510)" style="fill: none; stroke: #b0b0b0; stroke-width: 0.8; stroke-linecap: square"/>
     </g>
     <g id="line2d_2">
      <defs>
       <path id="m46889dc71e" d="M 0 0 
L 0 3.5 
" style="stroke: #000000; stroke-width: 0.8"/>
      </defs>
      <g>
       <use xlink:href="#m46889dc71e" x="108.387273" y="258.48" style="stroke: #000000; stroke-width: 0.8"/>
      </g>
     </g>
     <g id="text_1">
      <!-- 0 -->
      <g transform="translate(105.206023 273.078438) scale(0.1 -0.1)">
       <defs>
        <path id="DejaVuSans-30" d="M 2034 4250 
Q 1547 4250 1301 3770 
Q 1056 3291 1056 2328 
Q 1056 1369 1301 889 
Q 1547 409 2034 409 
Q 2525 409 2770 889 
Q 3016 1369 3016 2328 
Q 3016 3291 2770 3770 
Q 2525 4250 2034 4250 
z
M 2034 4750 
Q 2819 4750 3233 4129 
Q 3647 3509 3647 2328 
Q 3647 1150 3233 529 
Q 2819 -91 2034 -91 
Q 1250 -91 836 529 
Q 422 1150 422 2328 
Q 422 3509 836 4129 
Q 1250 4750 2034 4750 
z
" transform="scale(0.015625)"/>
       </defs>
       <use xlink:href="#DejaVuSans-30"/>
      </g>
     </g>
    </g>
    <g id="xtick_2">
     <g id="line2d_3">
      <path d="M 228.983236 258.48 
L 228.983236 26.88 
" clip-path="url(#p54fd430510)" style="fill: none; stroke: #b0b0b0; stroke-width: 0.8; stroke-linecap: square"/>
     </g>
     <g id="line2d_4">
      <g>
       <use xlink:href="#m46889dc71e" x="228.983236" y="258.48" style="stroke: #000000; stroke-width: 0.8"/>
      </g>
     </g>
     <g id="text_2">
      <!-- 50 -->
      <g transform="translate(222.620736 273.078438) scale(0.1 -0.1)">
       <defs>
        <path id="DejaVuSans-35" d="M 691 4666 
L 3169 4666 
L 3169 4134 
L 1269 4134 
L 1269 2991 
Q 1406 3038 1543 3061 
Q 1681 3084 1819 3084 
Q 2600 3084 3056 2656 
Q 3513 2228 3513 1497 
Q 3513 744 3044 326 
Q 2575 -91 1722 -91 
Q 1428 -91 1123 -41 
Q 819 9 494 109 
L 494 744 
Q 775 591 1075 516 
Q 1375 441 1709 441 
Q 2250 441 2565 725 
Q 2881 1009 2881 1497 
Q 2881 1984 2565 2268 
Q 2250 2553 1709 2553 
Q 1456 2553 1204 2497 
Q 953 2441 691 2322 
L 691 4666 
z
" transform="scale(0.015625)"/>
       </defs>
       <use xlink:href="#DejaVuSans-35"/>
       <use xlink:href="#DejaVuSans-30" transform="translate(63.623047 0)"/>
      </g>
     </g>
    </g>
    <g id="xtick_3">
     <g id="line2d_5">
      <path d="M 349.579199 258.48 
L 349.579199 26.88 
" clip-path="url(#p54fd430510)" style="fill: none; stroke: #b0b0b0; stroke-width: 0.8; stroke-linecap: square"/>
     </g>
     <g id="line2d_6">
      <g>
       <use xlink:href="#m46889dc71e" x="349.579199" y="258.48" style="stroke: #000000; stroke-width: 0.8"/>
      </g>
     </g>
     <g id="text_3">
      <!-- 100 -->
      <g transform="translate(340.035449 273.078438) scale(0.1 -0.1)">
       <defs>
        <path id="DejaVuSans-31" d="M 794 531 
L 1825 531 
L 1825 4091 
L 703 3866 
L 703 4441 
L 1819 4666 
L 2450 4666 
L 2450 531 
L 3481 531 
L 3481 0 
L 794 0 
L 794 531 
z
" transform="scale(0.015625)"/>
       </defs>
       <use xlink:href="#DejaVuSans-31"/>
       <use xlink:href="#DejaVuSans-30" transform="translate(63.623047 0)"/>
       <use xlink:href="#DejaVuSans-30" transform="translate(127.246094 0)"/>
      </g>
     </g>
    </g>
    <g id="xtick_4">
     <g id="line2d_7">
      <path d="M 470.175162 258.48 
L 470.175162 26.88 
" clip-path="url(#p54fd430510)" style="fill: none; stroke: #b0b0b0; stroke-width: 0.8; stroke-linecap: square"/>
     </g>
     <g id="line2d_8">
      <g>
       <use xlink:href="#m46889dc71e" x="470.175162" y="258.48" style="stroke: #000000; stroke-width: 0.8"/>
      </g>
     </g>
     <g id="text_4">
      <!-- 150 -->
      <g transform="translate(460.631412 273.078438) scale(0.1 -0.1)">
       <use xlink:href="#DejaVuSans-31"/>
       <use xlink:href="#DejaVuSans-35" transform="translate(63.623047 0)"/>
       <use xlink:href="#DejaVuSans-30" transform="translate(127.246094 0)"/>
      </g>
     </g>
    </g>
    <g id="xtick_5">
     <g id="line2d_9">
      <path d="M 590.771125 258.48 
L 590.771125 26.88 
" clip-path="url(#p54fd430510)" style="fill: none; stroke: #b0b0b0; stroke-width: 0.8; stroke-linecap: square"/>
     </g>
     <g id="line2d_10">
      <g>
       <use xlink:href="#m46889dc71e" x="590.771125" y="258.48" style="stroke: #000000; stroke-width: 0.8"/>
      </g>
     </g>
     <g id="text_5">
      <!-- 200 -->
      <g transform="translate(581.227375 273.078438) scale(0.1 -0.1)">
       <defs>
        <path id="DejaVuSans-32" d="M 1228 531 
L 3431 531 
L 3431 0 
L 469 0 
L 469 531 
Q 828 903 1448 1529 
Q 2069 2156 2228 2338 
Q 2531 2678 2651 2914 
Q 2772 3150 2772 3378 
Q 2772 3750 2511 3984 
Q 2250 4219 1831 4219 
Q 1534 4219 1204 4116 
Q 875 4013 500 3803 
L 500 4441 
Q 881 4594 1212 4672 
Q 1544 4750 1819 4750 
Q 2544 4750 2975 4387 
Q 3406 4025 3406 3419 
Q 3406 3131 3298 2873 
Q 3191 2616 2906 2266 
Q 2828 2175 2409 1742 
Q 1991 1309 1228 531 
z
" transform="scale(0.015625)"/>
       </defs>
       <use xlink:href="#DejaVuSans-32"/>
       <use xlink:href="#DejaVuSans-30" transform="translate(63.623047 0)"/>
       <use xlink:href="#DejaVuSans-30" transform="translate(127.246094 0)"/>
      </g>
     </g>
    </g>
    <g id="xtick_6">
     <g id="line2d_11">
      <path d="M 711.367088 258.48 
L 711.367088 26.88 
" clip-path="url(#p54fd430510)" style="fill: none; stroke: #b0b0b0; stroke-width: 0.8; stroke-linecap: square"/>
     </g>
     <g id="line2d_12">
      <g>
       <use xlink:href="#m46889dc71e" x="711.367088" y="258.48" style="stroke: #000000; stroke-width: 0.8"/>
      </g>
     </g>
     <g id="text_6">
      <!-- 250 -->
      <g transform="translate(701.823338 273.078438) scale(0.1 -0.1)">
       <use xlink:href="#DejaVuSans-32"/>
       <use xlink:href="#DejaVuSans-35" transform="translate(63.623047 0)"/>
       <use xlink:href="#DejaVuSans-30" transform="translate(127.246094 0)"/>
      </g>
     </g>
    </g>
    <g id="xtick_7">
     <g id="line2d_13">
      <path d="M 831.963051 258.48 
L 831.963051 26.88 
" clip-path="url(#p54fd430510)" style="fill: none; stroke: #b0b0b0; stroke-width: 0.8; stroke-linecap: square"/>
     </g>
     <g id="line2d_14">
      <g>
       <use xlink:href="#m46889dc71e" x="831.963051" y="258.48" style="stroke: #000000; stroke-width: 0.8"/>
      </g>
     </g>
     <g id="text_7">
      <!-- 300 -->
      <g transform="translate(822.419301 273.078438) scale(0.1 -0.1)">
       <defs>
        <path id="DejaVuSans-33" d="M 2597 2516 
Q 3050 2419 3304 2112 
Q 3559 1806 3559 1356 
Q 3559 666 3084 287 
Q 2609 -91 1734 -91 
Q 1441 -91 1130 -33 
Q 819 25 488 141 
L 488 750 
Q 750 597 1062 519 
Q 1375 441 1716 441 
Q 2309 441 2620 675 
Q 2931 909 2931 1356 
Q 2931 1769 2642 2001 
Q 2353 2234 1838 2234 
L 1294 2234 
L 1294 2753 
L 1863 2753 
Q 2328 2753 2575 2939 
Q 2822 3125 2822 3475 
Q 2822 3834 2567 4026 
Q 2313 4219 1838 4219 
Q 1578 4219 1281 4162 
Q 984 4106 628 3988 
L 628 4550 
Q 988 4650 1302 4700 
Q 1616 4750 1894 4750 
Q 2613 4750 3031 4423 
Q 3450 4097 3450 3541 
Q 3450 3153 3228 2886 
Q 3006 2619 2597 2516 
z
" transform="scale(0.015625)"/>
       </defs>
       <use xlink:href="#DejaVuSans-33"/>
       <use xlink:href="#DejaVuSans-30" transform="translate(63.623047 0)"/>
       <use xlink:href="#DejaVuSans-30" transform="translate(127.246094 0)"/>
      </g>
     </g>
    </g>
   </g>
   <g id="matplotlib.axis_2">
    <g id="ytick_1">
     <g id="line2d_15">
      <path d="M 72.92 251.000114 
L 853.2 251.000114 
" clip-path="url(#p54fd430510)" style="fill: none; stroke: #b0b0b0; stroke-width: 0.8; stroke-linecap: square"/>
     </g>
     <g id="line2d_16">
      <defs>
       <path id="m91e03f2a16" d="M 0 0 
L -3.5 0 
" style="stroke: #000000; stroke-width: 0.8"/>
      </defs>
      <g>
       <use xlink:href="#m91e03f2a16" x="72.92" y="251.000114" style="stroke: #000000; stroke-width: 0.8"/>
      </g>
     </g>
     <g id="text_8">
      <!-- 0.00000 -->
      <g transform="translate(24.566875 254.799333) scale(0.1 -0.1)">
       <defs>
        <path id="DejaVuSans-2e" d="M 684 794 
L 1344 794 
L 1344 0 
L 684 0 
L 684 794 
z
" transform="scale(0.015625)"/>
       </defs>
       <use xlink:href="#DejaVuSans-30"/>
       <use xlink:href="#DejaVuSans-2e" transform="translate(63.623047 0)"/>
       <use xlink:href="#DejaVuSans-30" transform="translate(95.410156 0)"/>
       <use xlink:href="#DejaVuSans-30" transform="translate(159.033203 0)"/>
       <use xlink:href="#DejaVuSans-30" transform="translate(222.65625 0)"/>
       <use xlink:href="#DejaVuSans-30" transform="translate(286.279297 0)"/>
       <use xlink:href="#DejaVuSans-30" transform="translate(349.902344 0)"/>
      </g>
     </g>
    </g>
    <g id="ytick_2">
     <g id="line2d_17">
      <path d="M 72.92 209.219959 
L 853.2 209.219959 
" clip-path="url(#p54fd430510)" style="fill: none; stroke: #b0b0b0; stroke-width: 0.8; stroke-linecap: square"/>
     </g>
     <g id="line2d_18">
      <g>
       <use xlink:href="#m91e03f2a16" x="72.92" y="209.219959" style="stroke: #000000; stroke-width: 0.8"/>
      </g>
     </g>
     <g id="text_9">
      <!-- 0.00002 -->
      <g transform="translate(24.566875 213.019177) scale(0.1 -0.1)">
       <use xlink:href="#DejaVuSans-30"/>
       <use xlink:href="#DejaVuSans-2e" transform="translate(63.623047 0)"/>
       <use xlink:href="#DejaVuSans-30" transform="translate(95.410156 0)"/>
       <use xlink:href="#DejaVuSans-30" transform="translate(159.033203 0)"/>
       <use xlink:href="#DejaVuSans-30" transform="translate(222.65625 0)"/>
       <use xlink:href="#DejaVuSans-30" transform="translate(286.279297 0)"/>
       <use xlink:href="#DejaVuSans-32" transform="translate(349.902344 0)"/>
      </g>
     </g>
    </g>
    <g id="ytick_3">
     <g id="line2d_19">
      <path d="M 72.92 167.439803 
L 853.2 167.439803 
" clip-path="url(#p54fd430510)" style="fill: none; stroke: #b0b0b0; stroke-width: 0.8; stroke-linecap: square"/>
     </g>
     <g id="line2d_20">
      <g>
       <use xlink:href="#m91e03f2a16" x="72.92" y="167.439803" style="stroke: #000000; stroke-width: 0.8"/>
      </g>
     </g>
     <g id="text_10">
      <!-- 0.00004 -->
      <g transform="translate(24.566875 171.239022) scale(0.1 -0.1)">
       <defs>
        <path id="DejaVuSans-34" d="M 2419 4116 
L 825 1625 
L 2419 1625 
L 2419 4116 
z
M 2253 4666 
L 3047 4666 
L 3047 1625 
L 3713 1625 
L 3713 1100 
L 3047 1100 
L 3047 0 
L 2419 0 
L 2419 1100 
L 313 1100 
L 313 1709 
L 2253 4666 
z
" transform="scale(0.015625)"/>
       </defs>
       <use xlink:href="#DejaVuSans-30"/>
       <use xlink:href="#DejaVuSans-2e" transform="translate(63.623047 0)"/>
       <use xlink:href="#DejaVuSans-30" transform="translate(95.410156 0)"/>
       <use xlink:href="#DejaVuSans-30" transform="translate(159.033203 0)"/>
       <use xlink:href="#DejaVuSans-30" transform="translate(222.65625 0)"/>
       <use xlink:href="#DejaVuSans-30" transform="translate(286.279297 0)"/>
       <use xlink:href="#DejaVuSans-34" transform="translate(349.902344 0)"/>
      </g>
     </g>
    </g>
    <g id="ytick_4">
     <g id="line2d_21">
      <path d="M 72.92 125.659647 
L 853.2 125.659647 
" clip-path="url(#p54fd430510)" style="fill: none; stroke: #b0b0b0; stroke-width: 0.8; stroke-linecap: square"/>
     </g>
     <g id="line2d_22">
      <g>
       <use xlink:href="#m91e03f2a16" x="72.92" y="125.659647" style="stroke: #000000; stroke-width: 0.8"/>
      </g>
     </g>
     <g id="text_11">
      <!-- 0.00006 -->
      <g transform="translate(24.566875 129.458866) scale(0.1 -0.1)">
       <defs>
        <path id="DejaVuSans-36" d="M 2113 2584 
Q 1688 2584 1439 2293 
Q 1191 2003 1191 1497 
Q 1191 994 1439 701 
Q 1688 409 2113 409 
Q 2538 409 2786 701 
Q 3034 994 3034 1497 
Q 3034 2003 2786 2293 
Q 2538 2584 2113 2584 
z
M 3366 4563 
L 3366 3988 
Q 3128 4100 2886 4159 
Q 2644 4219 2406 4219 
Q 1781 4219 1451 3797 
Q 1122 3375 1075 2522 
Q 1259 2794 1537 2939 
Q 1816 3084 2150 3084 
Q 2853 3084 3261 2657 
Q 3669 2231 3669 1497 
Q 3669 778 3244 343 
Q 2819 -91 2113 -91 
Q 1303 -91 875 529 
Q 447 1150 447 2328 
Q 447 3434 972 4092 
Q 1497 4750 2381 4750 
Q 2619 4750 2861 4703 
Q 3103 4656 3366 4563 
z
" transform="scale(0.015625)"/>
       </defs>
       <use xlink:href="#DejaVuSans-30"/>
       <use xlink:href="#DejaVuSans-2e" transform="translate(63.623047 0)"/>
       <use xlink:href="#DejaVuSans-30" transform="translate(95.410156 0)"/>
       <use xlink:href="#DejaVuSans-30" transform="translate(159.033203 0)"/>
       <use xlink:href="#DejaVuSans-30" transform="translate(222.65625 0)"/>
       <use xlink:href="#DejaVuSans-30" transform="translate(286.279297 0)"/>
       <use xlink:href="#DejaVuSans-36" transform="translate(349.902344 0)"/>
      </g>
     </g>
    </g>
    <g id="ytick_5">
     <g id="line2d_23">
      <path d="M 72.92 83.879491 
L 853.2 83.879491 
" clip-path="url(#p54fd430510)" style="fill: none; stroke: #b0b0b0; stroke-width: 0.8; stroke-linecap: square"/>
     </g>
     <g id="line2d_24">
      <g>
       <use xlink:href="#m91e03f2a16" x="72.92" y="83.879491" style="stroke: #000000; stroke-width: 0.8"/>
      </g>
     </g>
     <g id="text_12">
      <!-- 0.00008 -->
      <g transform="translate(24.566875 87.67871) scale(0.1 -0.1)">
       <defs>
        <path id="DejaVuSans-38" d="M 2034 2216 
Q 1584 2216 1326 1975 
Q 1069 1734 1069 1313 
Q 1069 891 1326 650 
Q 1584 409 2034 409 
Q 2484 409 2743 651 
Q 3003 894 3003 1313 
Q 3003 1734 2745 1975 
Q 2488 2216 2034 2216 
z
M 1403 2484 
Q 997 2584 770 2862 
Q 544 3141 544 3541 
Q 544 4100 942 4425 
Q 1341 4750 2034 4750 
Q 2731 4750 3128 4425 
Q 3525 4100 3525 3541 
Q 3525 3141 3298 2862 
Q 3072 2584 2669 2484 
Q 3125 2378 3379 2068 
Q 3634 1759 3634 1313 
Q 3634 634 3220 271 
Q 2806 -91 2034 -91 
Q 1263 -91 848 271 
Q 434 634 434 1313 
Q 434 1759 690 2068 
Q 947 2378 1403 2484 
z
M 1172 3481 
Q 1172 3119 1398 2916 
Q 1625 2713 2034 2713 
Q 2441 2713 2670 2916 
Q 2900 3119 2900 3481 
Q 2900 3844 2670 4047 
Q 2441 4250 2034 4250 
Q 1625 4250 1398 4047 
Q 1172 3844 1172 3481 
z
" transform="scale(0.015625)"/>
       </defs>
       <use xlink:href="#DejaVuSans-30"/>
       <use xlink:href="#DejaVuSans-2e" transform="translate(63.623047 0)"/>
       <use xlink:href="#DejaVuSans-30" transform="translate(95.410156 0)"/>
       <use xlink:href="#DejaVuSans-30" transform="translate(159.033203 0)"/>
       <use xlink:href="#DejaVuSans-30" transform="translate(222.65625 0)"/>
       <use xlink:href="#DejaVuSans-30" transform="translate(286.279297 0)"/>
       <use xlink:href="#DejaVuSans-38" transform="translate(349.902344 0)"/>
      </g>
     </g>
    </g>
    <g id="ytick_6">
     <g id="line2d_25">
      <path d="M 72.92 42.099336 
L 853.2 42.099336 
" clip-path="url(#p54fd430510)" style="fill: none; stroke: #b0b0b0; stroke-width: 0.8; stroke-linecap: square"/>
     </g>
     <g id="line2d_26">
      <g>
       <use xlink:href="#m91e03f2a16" x="72.92" y="42.099336" style="stroke: #000000; stroke-width: 0.8"/>
      </g>
     </g>
     <g id="text_13">
      <!-- 0.00010 -->
      <g transform="translate(24.566875 45.898554) scale(0.1 -0.1)">
       <use xlink:href="#DejaVuSans-30"/>
       <use xlink:href="#DejaVuSans-2e" transform="translate(63.623047 0)"/>
       <use xlink:href="#DejaVuSans-30" transform="translate(95.410156 0)"/>
       <use xlink:href="#DejaVuSans-30" transform="translate(159.033203 0)"/>
       <use xlink:href="#DejaVuSans-30" transform="translate(222.65625 0)"/>
       <use xlink:href="#DejaVuSans-31" transform="translate(286.279297 0)"/>
       <use xlink:href="#DejaVuSans-30" transform="translate(349.902344 0)"/>
      </g>
     </g>
    </g>
    <g id="text_14">
     <!-- Std Dev -->
     <g transform="translate(18.487187 162.463594) rotate(-90) scale(0.1 -0.1)">
      <defs>
       <path id="DejaVuSans-53" d="M 3425 4513 
L 3425 3897 
Q 3066 4069 2747 4153 
Q 2428 4238 2131 4238 
Q 1616 4238 1336 4038 
Q 1056 3838 1056 3469 
Q 1056 3159 1242 3001 
Q 1428 2844 1947 2747 
L 2328 2669 
Q 3034 2534 3370 2195 
Q 3706 1856 3706 1288 
Q 3706 609 3251 259 
Q 2797 -91 1919 -91 
Q 1588 -91 1214 -16 
Q 841 59 441 206 
L 441 856 
Q 825 641 1194 531 
Q 1563 422 1919 422 
Q 2459 422 2753 634 
Q 3047 847 3047 1241 
Q 3047 1584 2836 1778 
Q 2625 1972 2144 2069 
L 1759 2144 
Q 1053 2284 737 2584 
Q 422 2884 422 3419 
Q 422 4038 858 4394 
Q 1294 4750 2059 4750 
Q 2388 4750 2728 4690 
Q 3069 4631 3425 4513 
z
" transform="scale(0.015625)"/>
       <path id="DejaVuSans-74" d="M 1172 4494 
L 1172 3500 
L 2356 3500 
L 2356 3053 
L 1172 3053 
L 1172 1153 
Q 1172 725 1289 603 
Q 1406 481 1766 481 
L 2356 481 
L 2356 0 
L 1766 0 
Q 1100 0 847 248 
Q 594 497 594 1153 
L 594 3053 
L 172 3053 
L 172 3500 
L 594 3500 
L 594 4494 
L 1172 4494 
z
" transform="scale(0.015625)"/>
       <path id="DejaVuSans-64" d="M 2906 2969 
L 2906 4863 
L 3481 4863 
L 3481 0 
L 2906 0 
L 2906 525 
Q 2725 213 2448 61 
Q 2172 -91 1784 -91 
Q 1150 -91 751 415 
Q 353 922 353 1747 
Q 353 2572 751 3078 
Q 1150 3584 1784 3584 
Q 2172 3584 2448 3432 
Q 2725 3281 2906 2969 
z
M 947 1747 
Q 947 1113 1208 752 
Q 1469 391 1925 391 
Q 2381 391 2643 752 
Q 2906 1113 2906 1747 
Q 2906 2381 2643 2742 
Q 2381 3103 1925 3103 
Q 1469 3103 1208 2742 
Q 947 2381 947 1747 
z
" transform="scale(0.015625)"/>
       <path id="DejaVuSans-20" transform="scale(0.015625)"/>
       <path id="DejaVuSans-44" d="M 1259 4147 
L 1259 519 
L 2022 519 
Q 2988 519 3436 956 
Q 3884 1394 3884 2338 
Q 3884 3275 3436 3711 
Q 2988 4147 2022 4147 
L 1259 4147 
z
M 628 4666 
L 1925 4666 
Q 3281 4666 3915 4102 
Q 4550 3538 4550 2338 
Q 4550 1131 3912 565 
Q 3275 0 1925 0 
L 628 0 
L 628 4666 
z
" transform="scale(0.015625)"/>
       <path id="DejaVuSans-65" d="M 3597 1894 
L 3597 1613 
L 953 1613 
Q 991 1019 1311 708 
Q 1631 397 2203 397 
Q 2534 397 2845 478 
Q 3156 559 3463 722 
L 3463 178 
Q 3153 47 2828 -22 
Q 2503 -91 2169 -91 
Q 1331 -91 842 396 
Q 353 884 353 1716 
Q 353 2575 817 3079 
Q 1281 3584 2069 3584 
Q 2775 3584 3186 3129 
Q 3597 2675 3597 1894 
z
M 3022 2063 
Q 3016 2534 2758 2815 
Q 2500 3097 2075 3097 
Q 1594 3097 1305 2825 
Q 1016 2553 972 2059 
L 3022 2063 
z
" transform="scale(0.015625)"/>
       <path id="DejaVuSans-76" d="M 191 3500 
L 800 3500 
L 1894 563 
L 2988 3500 
L 3597 3500 
L 2284 0 
L 1503 0 
L 191 3500 
z
" transform="scale(0.015625)"/>
      </defs>
      <use xlink:href="#DejaVuSans-53"/>
      <use xlink:href="#DejaVuSans-74" transform="translate(63.476562 0)"/>
      <use xlink:href="#DejaVuSans-64" transform="translate(102.685547 0)"/>
      <use xlink:href="#DejaVuSans-20" transform="translate(166.162109 0)"/>
      <use xlink:href="#DejaVuSans-44" transform="translate(197.949219 0)"/>
      <use xlink:href="#DejaVuSans-65" transform="translate(274.951172 0)"/>
      <use xlink:href="#DejaVuSans-76" transform="translate(336.474609 0)"/>
     </g>
    </g>
   </g>
   <g id="line2d_27">
    <path d="M 108.387273 229.64083 
L 210.363219 229.64083 
L 210.604411 230.065534 
L 210.94208 230.139316 
L 213.546952 230.15784 
L 222.181623 230.15948 
L 222.326339 230.629876 
L 222.615769 230.826825 
L 223.435821 230.87892 
L 231.395155 230.898981 
L 234.000028 230.898981 
L 234.144743 231.229348 
L 236.218994 231.325744 
L 245.818432 231.348806 
L 245.963147 240.764129 
L 246.686723 241.59258 
L 247.362061 241.884822 
L 248.519782 242.108337 
L 250.835224 242.293212 
L 255.610824 242.420742 
L 257.636837 242.420742 
L 257.781552 242.551578 
L 281.273645 242.811173 
L 281.41836 243.186613 
L 284.167948 243.264079 
L 293.09205 243.297027 
L 293.236765 243.57398 
L 295.600446 243.678456 
L 304.910454 243.732943 
L 305.055169 246.336084 
L 305.875222 246.98961 
L 306.695274 247.233558 
L 308.238903 247.423988 
L 311.61559 247.572311 
L 320.87736 247.69402 
L 342.536395 247.919749 
L 344.803599 247.95119 
L 344.948314 229.64083 
L 446.827783 229.64083 
L 447.068975 230.065316 
L 447.406644 230.139067 
L 450.011517 230.157579 
L 458.646188 230.159213 
L 458.790903 230.629756 
L 459.080333 230.82696 
L 459.900386 230.879172 
L 467.859719 230.899228 
L 470.464592 230.899228 
L 470.609307 231.22999 
L 472.683558 231.32753 
L 482.282997 231.350725 
L 482.427712 240.766287 
L 483.151287 241.598141 
L 483.826625 241.891329 
L 484.984346 242.114985 
L 487.299789 242.298807 
L 492.075389 242.424013 
L 494.101401 242.424013 
L 494.246116 242.5576 
L 517.73821 242.821585 
L 517.882925 243.195151 
L 520.632513 243.270566 
L 529.556614 243.302288 
L 529.701329 243.578851 
L 532.06501 243.682987 
L 541.375018 243.737512 
L 541.519734 246.337793 
L 542.339786 246.99104 
L 543.159839 247.234852 
L 544.703467 247.425157 
L 548.080154 247.573369 
L 557.341924 247.695071 
L 578.95272 247.920226 
L 581.268163 247.952723 
L 581.412878 37.407273 
L 683.292348 37.407273 
L 683.53354 42.638408 
L 684.787738 42.651177 
L 695.110752 42.694342 
L 695.303706 55.575639 
L 695.737851 56.542066 
L 696.268473 57.235805 
L 696.943811 57.735733 
L 697.86034 58.123812 
L 699.259253 58.456417 
L 701.815888 58.800772 
L 705.192575 59.062073 
L 706.929156 59.062073 
L 707.073872 67.978404 
L 707.749209 90.258339 
L 708.135116 94.448105 
L 708.569262 97.004119 
L 709.099884 98.829247 
L 709.678744 100.057038 
L 710.354082 100.984071 
L 711.174134 101.722042 
L 712.18714 102.317442 
L 713.489577 102.807741 
L 715.226159 103.209157 
L 716.625072 103.346815 
L 718.747561 103.346815 
L 718.892276 237.115256 
L 719.615852 238.103725 
L 720.242951 238.443514 
L 721.304195 238.733461 
L 723.233731 239.00116 
L 726.803371 239.24573 
L 730.13182 239.29406 
L 730.565965 239.29406 
L 730.71068 239.653244 
L 734.087367 239.791188 
L 741.516079 239.913379 
L 742.38437 239.913379 
L 742.529085 240.044365 
L 754.202774 240.112509 
L 754.347489 240.889613 
L 756.469978 240.947712 
L 766.021178 240.97896 
L 766.165893 241.484944 
L 768.047191 241.643539 
L 774.800564 241.784903 
L 777.839583 241.789475 
L 777.984298 246.090965 
L 778.707874 246.818104 
L 779.383211 247.085988 
L 780.589171 247.296569 
L 783.049328 247.463006 
L 788.259074 247.563604 
L 803.02002 247.674391 
L 817.732727 247.910289 
L 817.732727 247.910289 
" clip-path="url(#p54fd430510)" style="fill: none; stroke: #0000ff; stroke-width: 1.5; stroke-linecap: square"/>
   </g>
   <g id="line2d_28">
    <path d="M 108.387273 229.64083 
L 210.363219 229.64083 
L 210.604411 230.065562 
L 210.94208 230.139354 
L 213.546952 230.157884 
L 222.181623 230.159518 
L 222.326339 230.629973 
L 222.615769 230.826902 
L 223.435821 230.878987 
L 231.395155 230.89911 
L 234.000028 230.89911 
L 234.144743 231.229255 
L 236.218994 231.32563 
L 245.818432 231.348655 
L 245.963147 240.764563 
L 246.686723 241.593184 
L 247.362061 241.885453 
L 248.519782 242.108934 
L 250.835224 242.293687 
L 255.610824 242.421051 
L 257.636837 242.421051 
L 257.781552 242.551992 
L 281.273645 242.811779 
L 281.41836 243.186977 
L 284.167948 243.264278 
L 293.09205 243.297148 
L 293.236765 243.574074 
L 295.600446 243.678483 
L 304.910454 243.732953 
L 305.055169 246.336055 
L 305.875222 246.989592 
L 306.695274 247.233538 
L 308.238903 247.423967 
L 311.61559 247.572296 
L 320.87736 247.694001 
L 342.488156 247.918671 
L 344.803599 247.951142 
L 344.948314 229.64083 
L 446.827783 229.64083 
L 447.068975 230.065322 
L 447.406644 230.139079 
L 450.011517 230.157596 
L 458.646188 230.159225 
L 458.790903 230.629804 
L 459.080333 230.826961 
L 459.900386 230.879158 
L 467.859719 230.899277 
L 470.464592 230.899277 
L 470.609307 231.229914 
L 472.683558 231.327438 
L 482.282997 231.350596 
L 482.427712 240.766498 
L 483.151287 241.598523 
L 483.826625 241.891745 
L 484.984346 242.115389 
L 487.299789 242.299157 
L 492.075389 242.424352 
L 494.101401 242.424352 
L 494.246116 242.557981 
L 517.73821 242.822089 
L 517.882925 243.195468 
L 520.680751 243.271386 
L 529.556614 243.302456 
L 529.701329 243.579006 
L 532.06501 243.683091 
L 541.375018 243.737598 
L 541.519734 246.337825 
L 542.339786 246.991068 
L 543.159839 247.23487 
L 544.703467 247.425166 
L 548.080154 247.573377 
L 557.341924 247.695081 
L 578.95272 247.920238 
L 581.268163 247.952727 
L 581.412878 37.407273 
L 683.292348 37.407273 
L 683.53354 42.641863 
L 684.739499 42.654862 
L 695.110752 42.698448 
L 695.303706 55.535792 
L 695.737851 56.493417 
L 696.268473 57.180277 
L 696.943811 57.675392 
L 697.86034 58.059687 
L 699.307492 58.397671 
L 701.912364 58.741362 
L 705.289051 58.990989 
L 706.929156 58.990989 
L 707.073872 67.860829 
L 707.749209 90.166592 
L 708.135116 94.359499 
L 708.569262 96.916984 
L 709.099884 98.744181 
L 709.678744 99.973438 
L 710.354082 100.901123 
L 711.174134 101.639317 
L 712.18714 102.233873 
L 713.441338 102.709291 
L 715.17792 103.11576 
L 716.625072 103.262289 
L 718.747561 103.262289 
L 718.892276 237.115758 
L 719.615852 238.104313 
L 720.242951 238.44413 
L 721.304195 238.734092 
L 723.233731 239.001787 
L 726.803371 239.246404 
L 730.13182 239.294762 
L 730.565965 239.294762 
L 730.71068 239.65381 
L 734.087367 239.79182 
L 741.516079 239.914043 
L 742.38437 239.914043 
L 742.529085 240.045005 
L 754.202774 240.113139 
L 754.347489 240.890007 
L 756.469978 240.948039 
L 766.021178 240.979234 
L 766.165893 241.485188 
L 768.047191 241.643694 
L 774.848803 241.78567 
L 777.839583 241.789581 
L 777.984298 246.09099 
L 778.707874 246.818127 
L 779.383211 247.086006 
L 780.589171 247.29658 
L 783.049328 247.463013 
L 788.259074 247.563611 
L 803.02002 247.6744 
L 817.732727 247.910284 
L 817.732727 247.910284 
" clip-path="url(#p54fd430510)" style="fill: none; stroke-dasharray: 5.55,2.4; stroke-dashoffset: 0; stroke: #ff0000; stroke-width: 1.5"/>
   </g>
   <g id="line2d_29">
    <path d="M 344.851837 258.48 
L 344.851837 26.88 
" clip-path="url(#p54fd430510)" style="fill: none; stroke-dasharray: 1.5,2.475; stroke-dashoffset: 0; stroke: #808080; stroke-opacity: 0.6; stroke-width: 1.5"/>
   </g>
   <g id="line2d_30">
    <path d="M 581.316401 258.48 
L 581.316401 26.88 
" clip-path="url(#p54fd430510)" style="fill: none; stroke-dasharray: 1.5,2.475; stroke-dashoffset: 0; stroke: #808080; stroke-opacity: 0.6; stroke-width: 1.5"/>
   </g>
   <g id="patch_3">
    <path d="M 72.92 258.48 
L 72.92 26.88 
" style="fill: none; stroke: #000000; stroke-width: 0.8; stroke-linejoin: miter; stroke-linecap: square"/>
   </g>
   <g id="patch_4">
    <path d="M 853.2 258.48 
L 853.2 26.88 
" style="fill: none; stroke: #000000; stroke-width: 0.8; stroke-linejoin: miter; stroke-linecap: square"/>
   </g>
   <g id="patch_5">
    <path d="M 72.92 258.48 
L 853.2 258.48 
" style="fill: none; stroke: #000000; stroke-width: 0.8; stroke-linejoin: miter; stroke-linecap: square"/>
   </g>
   <g id="patch_6">
    <path d="M 72.92 26.88 
L 853.2 26.88 
" style="fill: none; stroke: #000000; stroke-width: 0.8; stroke-linejoin: miter; stroke-linecap: square"/>
   </g>
   <g id="text_15">
    <!-- [28] Ka2_y  —  Uncertainty (std dev) -->
    <g transform="translate(353.445625 20.88) scale(0.12 -0.12)">
     <defs>
      <path id="DejaVuSans-5b" d="M 550 4863 
L 1875 4863 
L 1875 4416 
L 1125 4416 
L 1125 -397 
L 1875 -397 
L 1875 -844 
L 550 -844 
L 550 4863 
z
" transform="scale(0.015625)"/>
      <path id="DejaVuSans-5d" d="M 1947 4863 
L 1947 -844 
L 622 -844 
L 622 -397 
L 1369 -397 
L 1369 4416 
L 622 4416 
L 622 4863 
L 1947 4863 
z
" transform="scale(0.015625)"/>
      <path id="DejaVuSans-4b" d="M 628 4666 
L 1259 4666 
L 1259 2694 
L 3353 4666 
L 4166 4666 
L 1850 2491 
L 4331 0 
L 3500 0 
L 1259 2247 
L 1259 0 
L 628 0 
L 628 4666 
z
" transform="scale(0.015625)"/>
      <path id="DejaVuSans-61" d="M 2194 1759 
Q 1497 1759 1228 1600 
Q 959 1441 959 1056 
Q 959 750 1161 570 
Q 1363 391 1709 391 
Q 2188 391 2477 730 
Q 2766 1069 2766 1631 
L 2766 1759 
L 2194 1759 
z
M 3341 1997 
L 3341 0 
L 2766 0 
L 2766 531 
Q 2569 213 2275 61 
Q 1981 -91 1556 -91 
Q 1019 -91 701 211 
Q 384 513 384 1019 
Q 384 1609 779 1909 
Q 1175 2209 1959 2209 
L 2766 2209 
L 2766 2266 
Q 2766 2663 2505 2880 
Q 2244 3097 1772 3097 
Q 1472 3097 1187 3025 
Q 903 2953 641 2809 
L 641 3341 
Q 956 3463 1253 3523 
Q 1550 3584 1831 3584 
Q 2591 3584 2966 3190 
Q 3341 2797 3341 1997 
z
" transform="scale(0.015625)"/>
      <path id="DejaVuSans-5f" d="M 3263 -1063 
L 3263 -1509 
L -63 -1509 
L -63 -1063 
L 3263 -1063 
z
" transform="scale(0.015625)"/>
      <path id="DejaVuSans-79" d="M 2059 -325 
Q 1816 -950 1584 -1140 
Q 1353 -1331 966 -1331 
L 506 -1331 
L 506 -850 
L 844 -850 
Q 1081 -850 1212 -737 
Q 1344 -625 1503 -206 
L 1606 56 
L 191 3500 
L 800 3500 
L 1894 763 
L 2988 3500 
L 3597 3500 
L 2059 -325 
z
" transform="scale(0.015625)"/>
      <path id="DejaVuSans-2014" d="M 313 1978 
L 6088 1978 
L 6088 1528 
L 313 1528 
L 313 1978 
z
" transform="scale(0.015625)"/>
      <path id="DejaVuSans-55" d="M 556 4666 
L 1191 4666 
L 1191 1831 
Q 1191 1081 1462 751 
Q 1734 422 2344 422 
Q 2950 422 3222 751 
Q 3494 1081 3494 1831 
L 3494 4666 
L 4128 4666 
L 4128 1753 
Q 4128 841 3676 375 
Q 3225 -91 2344 -91 
Q 1459 -91 1007 375 
Q 556 841 556 1753 
L 556 4666 
z
" transform="scale(0.015625)"/>
      <path id="DejaVuSans-6e" d="M 3513 2113 
L 3513 0 
L 2938 0 
L 2938 2094 
Q 2938 2591 2744 2837 
Q 2550 3084 2163 3084 
Q 1697 3084 1428 2787 
Q 1159 2491 1159 1978 
L 1159 0 
L 581 0 
L 581 3500 
L 1159 3500 
L 1159 2956 
Q 1366 3272 1645 3428 
Q 1925 3584 2291 3584 
Q 2894 3584 3203 3211 
Q 3513 2838 3513 2113 
z
" transform="scale(0.015625)"/>
      <path id="DejaVuSans-63" d="M 3122 3366 
L 3122 2828 
Q 2878 2963 2633 3030 
Q 2388 3097 2138 3097 
Q 1578 3097 1268 2742 
Q 959 2388 959 1747 
Q 959 1106 1268 751 
Q 1578 397 2138 397 
Q 2388 397 2633 464 
Q 2878 531 3122 666 
L 3122 134 
Q 2881 22 2623 -34 
Q 2366 -91 2075 -91 
Q 1284 -91 818 406 
Q 353 903 353 1747 
Q 353 2603 823 3093 
Q 1294 3584 2113 3584 
Q 2378 3584 2631 3529 
Q 2884 3475 3122 3366 
z
" transform="scale(0.015625)"/>
      <path id="DejaVuSans-72" d="M 2631 2963 
Q 2534 3019 2420 3045 
Q 2306 3072 2169 3072 
Q 1681 3072 1420 2755 
Q 1159 2438 1159 1844 
L 1159 0 
L 581 0 
L 581 3500 
L 1159 3500 
L 1159 2956 
Q 1341 3275 1631 3429 
Q 1922 3584 2338 3584 
Q 2397 3584 2469 3576 
Q 2541 3569 2628 3553 
L 2631 2963 
z
" transform="scale(0.015625)"/>
      <path id="DejaVuSans-69" d="M 603 3500 
L 1178 3500 
L 1178 0 
L 603 0 
L 603 3500 
z
M 603 4863 
L 1178 4863 
L 1178 4134 
L 603 4134 
L 603 4863 
z
" transform="scale(0.015625)"/>
      <path id="DejaVuSans-28" d="M 1984 4856 
Q 1566 4138 1362 3434 
Q 1159 2731 1159 2009 
Q 1159 1288 1364 580 
Q 1569 -128 1984 -844 
L 1484 -844 
Q 1016 -109 783 600 
Q 550 1309 550 2009 
Q 550 2706 781 3412 
Q 1013 4119 1484 4856 
L 1984 4856 
z
" transform="scale(0.015625)"/>
      <path id="DejaVuSans-73" d="M 2834 3397 
L 2834 2853 
Q 2591 2978 2328 3040 
Q 2066 3103 1784 3103 
Q 1356 3103 1142 2972 
Q 928 2841 928 2578 
Q 928 2378 1081 2264 
Q 1234 2150 1697 2047 
L 1894 2003 
Q 2506 1872 2764 1633 
Q 3022 1394 3022 966 
Q 3022 478 2636 193 
Q 2250 -91 1575 -91 
Q 1294 -91 989 -36 
Q 684 19 347 128 
L 347 722 
Q 666 556 975 473 
Q 1284 391 1588 391 
Q 1994 391 2212 530 
Q 2431 669 2431 922 
Q 2431 1156 2273 1281 
Q 2116 1406 1581 1522 
L 1381 1569 
Q 847 1681 609 1914 
Q 372 2147 372 2553 
Q 372 3047 722 3315 
Q 1072 3584 1716 3584 
Q 2034 3584 2315 3537 
Q 2597 3491 2834 3397 
z
" transform="scale(0.015625)"/>
      <path id="DejaVuSans-29" d="M 513 4856 
L 1013 4856 
Q 1481 4119 1714 3412 
Q 1947 2706 1947 2009 
Q 1947 1309 1714 600 
Q 1481 -109 1013 -844 
L 513 -844 
Q 928 -128 1133 580 
Q 1338 1288 1338 2009 
Q 1338 2731 1133 3434 
Q 928 4138 513 4856 
z
" transform="scale(0.015625)"/>
     </defs>
     <use xlink:href="#DejaVuSans-5b"/>
     <use xlink:href="#DejaVuSans-32" transform="translate(39.013672 0)"/>
     <use xlink:href="#DejaVuSans-38" transform="translate(102.636719 0)"/>
     <use xlink:href="#DejaVuSans-5d" transform="translate(166.259766 0)"/>
     <use xlink:href="#DejaVuSans-20" transform="translate(205.273438 0)"/>
     <use xlink:href="#DejaVuSans-4b" transform="translate(237.060547 0)"/>
     <use xlink:href="#DejaVuSans-61" transform="translate(300.886719 0)"/>
     <use xlink:href="#DejaVuSans-32" transform="translate(362.166016 0)"/>
     <use xlink:href="#DejaVuSans-5f" transform="translate(425.789062 0)"/>
     <use xlink:href="#DejaVuSans-79" transform="translate(475.789062 0)"/>
     <use xlink:href="#DejaVuSans-20" transform="translate(534.96875 0)"/>
     <use xlink:href="#DejaVuSans-20" transform="translate(566.755859 0)"/>
     <use xlink:href="#DejaVuSans-2014" transform="translate(598.542969 0)"/>
     <use xlink:href="#DejaVuSans-20" transform="translate(698.542969 0)"/>
     <use xlink:href="#DejaVuSans-20" transform="translate(730.330078 0)"/>
     <use xlink:href="#DejaVuSans-55" transform="translate(762.117188 0)"/>
     <use xlink:href="#DejaVuSans-6e" transform="translate(835.310547 0)"/>
     <use xlink:href="#DejaVuSans-63" transform="translate(898.689453 0)"/>
     <use xlink:href="#DejaVuSans-65" transform="translate(953.669922 0)"/>
     <use xlink:href="#DejaVuSans-72" transform="translate(1015.193359 0)"/>
     <use xlink:href="#DejaVuSans-74" transform="translate(1056.306641 0)"/>
     <use xlink:href="#DejaVuSans-61" transform="translate(1095.515625 0)"/>
     <use xlink:href="#DejaVuSans-69" transform="translate(1156.794922 0)"/>
     <use xlink:href="#DejaVuSans-6e" transform="translate(1184.578125 0)"/>
     <use xlink:href="#DejaVuSans-74" transform="translate(1247.957031 0)"/>
     <use xlink:href="#DejaVuSans-79" transform="translate(1287.166016 0)"/>
     <use xlink:href="#DejaVuSans-20" transform="translate(1346.345703 0)"/>
     <use xlink:href="#DejaVuSans-28" transform="translate(1378.132812 0)"/>
     <use xlink:href="#DejaVuSans-73" transform="translate(1417.146484 0)"/>
     <use xlink:href="#DejaVuSans-74" transform="translate(1469.246094 0)"/>
     <use xlink:href="#DejaVuSans-64" transform="translate(1508.455078 0)"/>
     <use xlink:href="#DejaVuSans-20" transform="translate(1571.931641 0)"/>
     <use xlink:href="#DejaVuSans-64" transform="translate(1603.71875 0)"/>
     <use xlink:href="#DejaVuSans-65" transform="translate(1667.195312 0)"/>
     <use xlink:href="#DejaVuSans-76" transform="translate(1728.71875 0)"/>
     <use xlink:href="#DejaVuSans-29" transform="translate(1787.898438 0)"/>
    </g>
   </g>
   <g id="legend_1">
    <g id="patch_7">
     <path d="M 734.342188 64.23625 
L 846.2 64.23625 
Q 848.2 64.23625 848.2 62.23625 
L 848.2 33.88 
Q 848.2 31.88 846.2 31.88 
L 734.342188 31.88 
Q 732.342188 31.88 732.342188 33.88 
L 732.342188 62.23625 
Q 732.342188 64.23625 734.342188 64.23625 
z
" style="fill: #ffffff; opacity: 0.8; stroke: #cccccc; stroke-linejoin: miter"/>
    </g>
    <g id="line2d_31">
     <path d="M 736.342188 39.978437 
L 746.342188 39.978437 
L 756.342188 39.978437 
" style="fill: none; stroke: #0000ff; stroke-width: 1.5; stroke-linecap: square"/>
    </g>
    <g id="text_16">
     <!-- Ideal (No Noise) -->
     <g transform="translate(764.342188 43.478437) scale(0.1 -0.1)">
      <defs>
       <path id="DejaVuSans-49" d="M 628 4666 
L 1259 4666 
L 1259 0 
L 628 0 
L 628 4666 
z
" transform="scale(0.015625)"/>
       <path id="DejaVuSans-6c" d="M 603 4863 
L 1178 4863 
L 1178 0 
L 603 0 
L 603 4863 
z
" transform="scale(0.015625)"/>
       <path id="DejaVuSans-4e" d="M 628 4666 
L 1478 4666 
L 3547 763 
L 3547 4666 
L 4159 4666 
L 4159 0 
L 3309 0 
L 1241 3903 
L 1241 0 
L 628 0 
L 628 4666 
z
" transform="scale(0.015625)"/>
       <path id="DejaVuSans-6f" d="M 1959 3097 
Q 1497 3097 1228 2736 
Q 959 2375 959 1747 
Q 959 1119 1226 758 
Q 1494 397 1959 397 
Q 2419 397 2687 759 
Q 2956 1122 2956 1747 
Q 2956 2369 2687 2733 
Q 2419 3097 1959 3097 
z
M 1959 3584 
Q 2709 3584 3137 3096 
Q 3566 2609 3566 1747 
Q 3566 888 3137 398 
Q 2709 -91 1959 -91 
Q 1206 -91 779 398 
Q 353 888 353 1747 
Q 353 2609 779 3096 
Q 1206 3584 1959 3584 
z
" transform="scale(0.015625)"/>
      </defs>
      <use xlink:href="#DejaVuSans-49"/>
      <use xlink:href="#DejaVuSans-64" transform="translate(29.492188 0)"/>
      <use xlink:href="#DejaVuSans-65" transform="translate(92.96875 0)"/>
      <use xlink:href="#DejaVuSans-61" transform="translate(154.492188 0)"/>
      <use xlink:href="#DejaVuSans-6c" transform="translate(215.771484 0)"/>
      <use xlink:href="#DejaVuSans-20" transform="translate(243.554688 0)"/>
      <use xlink:href="#DejaVuSans-28" transform="translate(275.341797 0)"/>
      <use xlink:href="#DejaVuSans-4e" transform="translate(314.355469 0)"/>
      <use xlink:href="#DejaVuSans-6f" transform="translate(389.160156 0)"/>
      <use xlink:href="#DejaVuSans-20" transform="translate(450.341797 0)"/>
      <use xlink:href="#DejaVuSans-4e" transform="translate(482.128906 0)"/>
      <use xlink:href="#DejaVuSans-6f" transform="translate(556.933594 0)"/>
      <use xlink:href="#DejaVuSans-69" transform="translate(618.115234 0)"/>
      <use xlink:href="#DejaVuSans-73" transform="translate(645.898438 0)"/>
      <use xlink:href="#DejaVuSans-65" transform="translate(697.998047 0)"/>
      <use xlink:href="#DejaVuSans-29" transform="translate(759.521484 0)"/>
     </g>
    </g>
    <g id="line2d_32">
     <path d="M 736.342188 54.656562 
L 746.342188 54.656562 
L 756.342188 54.656562 
" style="fill: none; stroke-dasharray: 5.55,2.4; stroke-dashoffset: 0; stroke: #ff0000; stroke-width: 1.5"/>
    </g>
    <g id="text_17">
     <!-- With Full Noise -->
     <g transform="translate(764.342188 58.156562) scale(0.1 -0.1)">
      <defs>
       <path id="DejaVuSans-57" d="M 213 4666 
L 850 4666 
L 1831 722 
L 2809 4666 
L 3519 4666 
L 4500 722 
L 5478 4666 
L 6119 4666 
L 4947 0 
L 4153 0 
L 3169 4050 
L 2175 0 
L 1381 0 
L 213 4666 
z
" transform="scale(0.015625)"/>
       <path id="DejaVuSans-68" d="M 3513 2113 
L 3513 0 
L 2938 0 
L 2938 2094 
Q 2938 2591 2744 2837 
Q 2550 3084 2163 3084 
Q 1697 3084 1428 2787 
Q 1159 2491 1159 1978 
L 1159 0 
L 581 0 
L 581 4863 
L 1159 4863 
L 1159 2956 
Q 1366 3272 1645 3428 
Q 1925 3584 2291 3584 
Q 2894 3584 3203 3211 
Q 3513 2838 3513 2113 
z
" transform="scale(0.015625)"/>
       <path id="DejaVuSans-46" d="M 628 4666 
L 3309 4666 
L 3309 4134 
L 1259 4134 
L 1259 2759 
L 3109 2759 
L 3109 2228 
L 1259 2228 
L 1259 0 
L 628 0 
L 628 4666 
z
" transform="scale(0.015625)"/>
       <path id="DejaVuSans-75" d="M 544 1381 
L 544 3500 
L 1119 3500 
L 1119 1403 
Q 1119 906 1312 657 
Q 1506 409 1894 409 
Q 2359 409 2629 706 
Q 2900 1003 2900 1516 
L 2900 3500 
L 3475 3500 
L 3475 0 
L 2900 0 
L 2900 538 
Q 2691 219 2414 64 
Q 2138 -91 1772 -91 
Q 1169 -91 856 284 
Q 544 659 544 1381 
z
M 1991 3584 
L 1991 3584 
z
" transform="scale(0.015625)"/>
      </defs>
      <use xlink:href="#DejaVuSans-57"/>
      <use xlink:href="#DejaVuSans-69" transform="translate(96.626953 0)"/>
      <use xlink:href="#DejaVuSans-74" transform="translate(124.410156 0)"/>
      <use xlink:href="#DejaVuSans-68" transform="translate(163.619141 0)"/>
      <use xlink:href="#DejaVuSans-20" transform="translate(226.998047 0)"/>
      <use xlink:href="#DejaVuSans-46" transform="translate(258.785156 0)"/>
      <use xlink:href="#DejaVuSans-75" transform="translate(310.804688 0)"/>
      <use xlink:href="#DejaVuSans-6c" transform="translate(374.183594 0)"/>
      <use xlink:href="#DejaVuSans-6c" transform="translate(401.966797 0)"/>
      <use xlink:href="#DejaVuSans-20" transform="translate(429.75 0)"/>
      <use xlink:href="#DejaVuSans-4e" transform="translate(461.537109 0)"/>
      <use xlink:href="#DejaVuSans-6f" transform="translate(536.341797 0)"/>
      <use xlink:href="#DejaVuSans-69" transform="translate(597.523438 0)"/>
      <use xlink:href="#DejaVuSans-73" transform="translate(625.306641 0)"/>
      <use xlink:href="#DejaVuSans-65" transform="translate(677.40625 0)"/>
     </g>
    </g>
   </g>
  </g>
  <g id="axes_2">
   <g id="patch_8">
    <path d="M 72.92 534.04 
L 853.2 534.04 
L 853.2 302.44 
L 72.92 302.44 
z
" style="fill: #ffffff"/>
   </g>
   <g id="matplotlib.axis_3">
    <g id="xtick_8">
     <g id="line2d_33">
      <path d="M 108.387273 534.04 
L 108.387273 302.44 
" clip-path="url(#p3ed55bdbb4)" style="fill: none; stroke: #b0b0b0; stroke-width: 0.8; stroke-linecap: square"/>
     </g>
     <g id="line2d_34">
      <g>
       <use xlink:href="#m46889dc71e" x="108.387273" y="534.04" style="stroke: #000000; stroke-width: 0.8"/>
      </g>
     </g>
     <g id="text_18">
      <!-- 0 -->
      <g transform="translate(105.206023 548.638438) scale(0.1 -0.1)">
       <use xlink:href="#DejaVuSans-30"/>
      </g>
     </g>
    </g>
    <g id="xtick_9">
     <g id="line2d_35">
      <path d="M 228.983236 534.04 
L 228.983236 302.44 
" clip-path="url(#p3ed55bdbb4)" style="fill: none; stroke: #b0b0b0; stroke-width: 0.8; stroke-linecap: square"/>
     </g>
     <g id="line2d_36">
      <g>
       <use xlink:href="#m46889dc71e" x="228.983236" y="534.04" style="stroke: #000000; stroke-width: 0.8"/>
      </g>
     </g>
     <g id="text_19">
      <!-- 50 -->
      <g transform="translate(222.620736 548.638438) scale(0.1 -0.1)">
       <use xlink:href="#DejaVuSans-35"/>
       <use xlink:href="#DejaVuSans-30" transform="translate(63.623047 0)"/>
      </g>
     </g>
    </g>
    <g id="xtick_10">
     <g id="line2d_37">
      <path d="M 349.579199 534.04 
L 349.579199 302.44 
" clip-path="url(#p3ed55bdbb4)" style="fill: none; stroke: #b0b0b0; stroke-width: 0.8; stroke-linecap: square"/>
     </g>
     <g id="line2d_38">
      <g>
       <use xlink:href="#m46889dc71e" x="349.579199" y="534.04" style="stroke: #000000; stroke-width: 0.8"/>
      </g>
     </g>
     <g id="text_20">
      <!-- 100 -->
      <g transform="translate(340.035449 548.638438) scale(0.1 -0.1)">
       <use xlink:href="#DejaVuSans-31"/>
       <use xlink:href="#DejaVuSans-30" transform="translate(63.623047 0)"/>
       <use xlink:href="#DejaVuSans-30" transform="translate(127.246094 0)"/>
      </g>
     </g>
    </g>
    <g id="xtick_11">
     <g id="line2d_39">
      <path d="M 470.175162 534.04 
L 470.175162 302.44 
" clip-path="url(#p3ed55bdbb4)" style="fill: none; stroke: #b0b0b0; stroke-width: 0.8; stroke-linecap: square"/>
     </g>
     <g id="line2d_40">
      <g>
       <use xlink:href="#m46889dc71e" x="470.175162" y="534.04" style="stroke: #000000; stroke-width: 0.8"/>
      </g>
     </g>
     <g id="text_21">
      <!-- 150 -->
      <g transform="translate(460.631412 548.638438) scale(0.1 -0.1)">
       <use xlink:href="#DejaVuSans-31"/>
       <use xlink:href="#DejaVuSans-35" transform="translate(63.623047 0)"/>
       <use xlink:href="#DejaVuSans-30" transform="translate(127.246094 0)"/>
      </g>
     </g>
    </g>
    <g id="xtick_12">
     <g id="line2d_41">
      <path d="M 590.771125 534.04 
L 590.771125 302.44 
" clip-path="url(#p3ed55bdbb4)" style="fill: none; stroke: #b0b0b0; stroke-width: 0.8; stroke-linecap: square"/>
     </g>
     <g id="line2d_42">
      <g>
       <use xlink:href="#m46889dc71e" x="590.771125" y="534.04" style="stroke: #000000; stroke-width: 0.8"/>
      </g>
     </g>
     <g id="text_22">
      <!-- 200 -->
      <g transform="translate(581.227375 548.638438) scale(0.1 -0.1)">
       <use xlink:href="#DejaVuSans-32"/>
       <use xlink:href="#DejaVuSans-30" transform="translate(63.623047 0)"/>
       <use xlink:href="#DejaVuSans-30" transform="translate(127.246094 0)"/>
      </g>
     </g>
    </g>
    <g id="xtick_13">
     <g id="line2d_43">
      <path d="M 711.367088 534.04 
L 711.367088 302.44 
" clip-path="url(#p3ed55bdbb4)" style="fill: none; stroke: #b0b0b0; stroke-width: 0.8; stroke-linecap: square"/>
     </g>
     <g id="line2d_44">
      <g>
       <use xlink:href="#m46889dc71e" x="711.367088" y="534.04" style="stroke: #000000; stroke-width: 0.8"/>
      </g>
     </g>
     <g id="text_23">
      <!-- 250 -->
      <g transform="translate(701.823338 548.638438) scale(0.1 -0.1)">
       <use xlink:href="#DejaVuSans-32"/>
       <use xlink:href="#DejaVuSans-35" transform="translate(63.623047 0)"/>
       <use xlink:href="#DejaVuSans-30" transform="translate(127.246094 0)"/>
      </g>
     </g>
    </g>
    <g id="xtick_14">
     <g id="line2d_45">
      <path d="M 831.963051 534.04 
L 831.963051 302.44 
" clip-path="url(#p3ed55bdbb4)" style="fill: none; stroke: #b0b0b0; stroke-width: 0.8; stroke-linecap: square"/>
     </g>
     <g id="line2d_46">
      <g>
       <use xlink:href="#m46889dc71e" x="831.963051" y="534.04" style="stroke: #000000; stroke-width: 0.8"/>
      </g>
     </g>
     <g id="text_24">
      <!-- 300 -->
      <g transform="translate(822.419301 548.638438) scale(0.1 -0.1)">
       <use xlink:href="#DejaVuSans-33"/>
       <use xlink:href="#DejaVuSans-30" transform="translate(63.623047 0)"/>
       <use xlink:href="#DejaVuSans-30" transform="translate(127.246094 0)"/>
      </g>
     </g>
    </g>
    <g id="text_25">
     <!-- Time (s) -->
     <g transform="translate(442.731094 562.316562) scale(0.1 -0.1)">
      <defs>
       <path id="DejaVuSans-54" d="M -19 4666 
L 3928 4666 
L 3928 4134 
L 2272 4134 
L 2272 0 
L 1638 0 
L 1638 4134 
L -19 4134 
L -19 4666 
z
" transform="scale(0.015625)"/>
       <path id="DejaVuSans-6d" d="M 3328 2828 
Q 3544 3216 3844 3400 
Q 4144 3584 4550 3584 
Q 5097 3584 5394 3201 
Q 5691 2819 5691 2113 
L 5691 0 
L 5113 0 
L 5113 2094 
Q 5113 2597 4934 2840 
Q 4756 3084 4391 3084 
Q 3944 3084 3684 2787 
Q 3425 2491 3425 1978 
L 3425 0 
L 2847 0 
L 2847 2094 
Q 2847 2600 2669 2842 
Q 2491 3084 2119 3084 
Q 1678 3084 1418 2786 
Q 1159 2488 1159 1978 
L 1159 0 
L 581 0 
L 581 3500 
L 1159 3500 
L 1159 2956 
Q 1356 3278 1631 3431 
Q 1906 3584 2284 3584 
Q 2666 3584 2933 3390 
Q 3200 3197 3328 2828 
z
" transform="scale(0.015625)"/>
      </defs>
      <use xlink:href="#DejaVuSans-54"/>
      <use xlink:href="#DejaVuSans-69" transform="translate(57.958984 0)"/>
      <use xlink:href="#DejaVuSans-6d" transform="translate(85.742188 0)"/>
      <use xlink:href="#DejaVuSans-65" transform="translate(183.154297 0)"/>
      <use xlink:href="#DejaVuSans-20" transform="translate(244.677734 0)"/>
      <use xlink:href="#DejaVuSans-28" transform="translate(276.464844 0)"/>
      <use xlink:href="#DejaVuSans-73" transform="translate(315.478516 0)"/>
      <use xlink:href="#DejaVuSans-29" transform="translate(367.578125 0)"/>
     </g>
    </g>
   </g>
   <g id="matplotlib.axis_4">
    <g id="ytick_7">
     <g id="line2d_47">
      <path d="M 72.92 521.78683 
L 853.2 521.78683 
" clip-path="url(#p3ed55bdbb4)" style="fill: none; stroke: #b0b0b0; stroke-width: 0.8; stroke-linecap: square"/>
     </g>
     <g id="line2d_48">
      <g>
       <use xlink:href="#m91e03f2a16" x="72.92" y="521.78683" style="stroke: #000000; stroke-width: 0.8"/>
      </g>
     </g>
     <g id="text_26">
      <!-- −3.0 -->
      <g transform="translate(41.637187 525.586048) scale(0.1 -0.1)">
       <defs>
        <path id="DejaVuSans-2212" d="M 678 2272 
L 4684 2272 
L 4684 1741 
L 678 1741 
L 678 2272 
z
" transform="scale(0.015625)"/>
       </defs>
       <use xlink:href="#DejaVuSans-2212"/>
       <use xlink:href="#DejaVuSans-33" transform="translate(83.789062 0)"/>
       <use xlink:href="#DejaVuSans-2e" transform="translate(147.412109 0)"/>
       <use xlink:href="#DejaVuSans-30" transform="translate(179.199219 0)"/>
      </g>
     </g>
    </g>
    <g id="ytick_8">
     <g id="line2d_49">
      <path d="M 72.92 488.362602 
L 853.2 488.362602 
" clip-path="url(#p3ed55bdbb4)" style="fill: none; stroke: #b0b0b0; stroke-width: 0.8; stroke-linecap: square"/>
     </g>
     <g id="line2d_50">
      <g>
       <use xlink:href="#m91e03f2a16" x="72.92" y="488.362602" style="stroke: #000000; stroke-width: 0.8"/>
      </g>
     </g>
     <g id="text_27">
      <!-- −2.5 -->
      <g transform="translate(41.637187 492.161821) scale(0.1 -0.1)">
       <use xlink:href="#DejaVuSans-2212"/>
       <use xlink:href="#DejaVuSans-32" transform="translate(83.789062 0)"/>
       <use xlink:href="#DejaVuSans-2e" transform="translate(147.412109 0)"/>
       <use xlink:href="#DejaVuSans-35" transform="translate(179.199219 0)"/>
      </g>
     </g>
    </g>
    <g id="ytick_9">
     <g id="line2d_51">
      <path d="M 72.92 454.938374 
L 853.2 454.938374 
" clip-path="url(#p3ed55bdbb4)" style="fill: none; stroke: #b0b0b0; stroke-width: 0.8; stroke-linecap: square"/>
     </g>
     <g id="line2d_52">
      <g>
       <use xlink:href="#m91e03f2a16" x="72.92" y="454.938374" style="stroke: #000000; stroke-width: 0.8"/>
      </g>
     </g>
     <g id="text_28">
      <!-- −2.0 -->
      <g transform="translate(41.637187 458.737593) scale(0.1 -0.1)">
       <use xlink:href="#DejaVuSans-2212"/>
       <use xlink:href="#DejaVuSans-32" transform="translate(83.789062 0)"/>
       <use xlink:href="#DejaVuSans-2e" transform="translate(147.412109 0)"/>
       <use xlink:href="#DejaVuSans-30" transform="translate(179.199219 0)"/>
      </g>
     </g>
    </g>
    <g id="ytick_10">
     <g id="line2d_53">
      <path d="M 72.92 421.514146 
L 853.2 421.514146 
" clip-path="url(#p3ed55bdbb4)" style="fill: none; stroke: #b0b0b0; stroke-width: 0.8; stroke-linecap: square"/>
     </g>
     <g id="line2d_54">
      <g>
       <use xlink:href="#m91e03f2a16" x="72.92" y="421.514146" style="stroke: #000000; stroke-width: 0.8"/>
      </g>
     </g>
     <g id="text_29">
      <!-- −1.5 -->
      <g transform="translate(41.637187 425.313365) scale(0.1 -0.1)">
       <use xlink:href="#DejaVuSans-2212"/>
       <use xlink:href="#DejaVuSans-31" transform="translate(83.789062 0)"/>
       <use xlink:href="#DejaVuSans-2e" transform="translate(147.412109 0)"/>
       <use xlink:href="#DejaVuSans-35" transform="translate(179.199219 0)"/>
      </g>
     </g>
    </g>
    <g id="ytick_11">
     <g id="line2d_55">
      <path d="M 72.92 388.089918 
L 853.2 388.089918 
" clip-path="url(#p3ed55bdbb4)" style="fill: none; stroke: #b0b0b0; stroke-width: 0.8; stroke-linecap: square"/>
     </g>
     <g id="line2d_56">
      <g>
       <use xlink:href="#m91e03f2a16" x="72.92" y="388.089918" style="stroke: #000000; stroke-width: 0.8"/>
      </g>
     </g>
     <g id="text_30">
      <!-- −1.0 -->
      <g transform="translate(41.637187 391.889137) scale(0.1 -0.1)">
       <use xlink:href="#DejaVuSans-2212"/>
       <use xlink:href="#DejaVuSans-31" transform="translate(83.789062 0)"/>
       <use xlink:href="#DejaVuSans-2e" transform="translate(147.412109 0)"/>
       <use xlink:href="#DejaVuSans-30" transform="translate(179.199219 0)"/>
      </g>
     </g>
    </g>
    <g id="ytick_12">
     <g id="line2d_57">
      <path d="M 72.92 354.66569 
L 853.2 354.66569 
" clip-path="url(#p3ed55bdbb4)" style="fill: none; stroke: #b0b0b0; stroke-width: 0.8; stroke-linecap: square"/>
     </g>
     <g id="line2d_58">
      <g>
       <use xlink:href="#m91e03f2a16" x="72.92" y="354.66569" style="stroke: #000000; stroke-width: 0.8"/>
      </g>
     </g>
     <g id="text_31">
      <!-- −0.5 -->
      <g transform="translate(41.637187 358.464909) scale(0.1 -0.1)">
       <use xlink:href="#DejaVuSans-2212"/>
       <use xlink:href="#DejaVuSans-30" transform="translate(83.789062 0)"/>
       <use xlink:href="#DejaVuSans-2e" transform="translate(147.412109 0)"/>
       <use xlink:href="#DejaVuSans-35" transform="translate(179.199219 0)"/>
      </g>
     </g>
    </g>
    <g id="ytick_13">
     <g id="line2d_59">
      <path d="M 72.92 321.241462 
L 853.2 321.241462 
" clip-path="url(#p3ed55bdbb4)" style="fill: none; stroke: #b0b0b0; stroke-width: 0.8; stroke-linecap: square"/>
     </g>
     <g id="line2d_60">
      <g>
       <use xlink:href="#m91e03f2a16" x="72.92" y="321.241462" style="stroke: #000000; stroke-width: 0.8"/>
      </g>
     </g>
     <g id="text_32">
      <!-- 0.0 -->
      <g transform="translate(50.016875 325.040681) scale(0.1 -0.1)">
       <use xlink:href="#DejaVuSans-30"/>
       <use xlink:href="#DejaVuSans-2e" transform="translate(63.623047 0)"/>
       <use xlink:href="#DejaVuSans-30" transform="translate(95.410156 0)"/>
      </g>
     </g>
    </g>
    <g id="text_33">
     <!-- Estimated Value -->
     <g transform="translate(35.5575 458.818906) rotate(-90) scale(0.1 -0.1)">
      <defs>
       <path id="DejaVuSans-45" d="M 628 4666 
L 3578 4666 
L 3578 4134 
L 1259 4134 
L 1259 2753 
L 3481 2753 
L 3481 2222 
L 1259 2222 
L 1259 531 
L 3634 531 
L 3634 0 
L 628 0 
L 628 4666 
z
" transform="scale(0.015625)"/>
       <path id="DejaVuSans-56" d="M 1831 0 
L 50 4666 
L 709 4666 
L 2188 738 
L 3669 4666 
L 4325 4666 
L 2547 0 
L 1831 0 
z
" transform="scale(0.015625)"/>
      </defs>
      <use xlink:href="#DejaVuSans-45"/>
      <use xlink:href="#DejaVuSans-73" transform="translate(63.183594 0)"/>
      <use xlink:href="#DejaVuSans-74" transform="translate(115.283203 0)"/>
      <use xlink:href="#DejaVuSans-69" transform="translate(154.492188 0)"/>
      <use xlink:href="#DejaVuSans-6d" transform="translate(182.275391 0)"/>
      <use xlink:href="#DejaVuSans-61" transform="translate(279.6875 0)"/>
      <use xlink:href="#DejaVuSans-74" transform="translate(340.966797 0)"/>
      <use xlink:href="#DejaVuSans-65" transform="translate(380.175781 0)"/>
      <use xlink:href="#DejaVuSans-64" transform="translate(441.699219 0)"/>
      <use xlink:href="#DejaVuSans-20" transform="translate(505.175781 0)"/>
      <use xlink:href="#DejaVuSans-56" transform="translate(536.962891 0)"/>
      <use xlink:href="#DejaVuSans-61" transform="translate(597.621094 0)"/>
      <use xlink:href="#DejaVuSans-6c" transform="translate(658.900391 0)"/>
      <use xlink:href="#DejaVuSans-75" transform="translate(686.683594 0)"/>
      <use xlink:href="#DejaVuSans-65" transform="translate(750.0625 0)"/>
     </g>
    </g>
    <g id="text_34">
     <!-- 1e−5 -->
     <g transform="translate(72.92 299.44) scale(0.1 -0.1)">
      <use xlink:href="#DejaVuSans-31"/>
      <use xlink:href="#DejaVuSans-65" transform="translate(63.623047 0)"/>
      <use xlink:href="#DejaVuSans-2212" transform="translate(125.146484 0)"/>
      <use xlink:href="#DejaVuSans-35" transform="translate(208.935547 0)"/>
     </g>
    </g>
   </g>
   <g id="line2d_61">
    <path d="M 108.387273 321.241462 
L 210.363219 321.241531 
L 210.411457 320.955954 
L 210.700888 324.5207 
L 210.94208 324.791236 
L 211.472702 324.908701 
L 213.498714 325.000823 
L 220.252088 325.062898 
L 222.181623 325.062898 
L 222.326339 322.424838 
L 222.519292 321.3594 
L 222.760484 321.162206 
L 223.387583 321.098645 
L 226.47484 321.137289 
L 231.25044 321.393242 
L 232.74583 321.400702 
L 234.000028 321.400702 
L 234.144743 321.8072 
L 235.591895 321.829185 
L 240.367495 322.425927 
L 243.888897 322.760678 
L 245.818432 322.760678 
L 245.866671 332.893389 
L 245.963147 332.820182 
L 246.686723 331.625332 
L 247.169107 331.435981 
L 247.892683 331.43752 
L 249.098642 331.696484 
L 252.041184 332.623811 
L 255.128441 333.510445 
L 257.636837 333.510445 
L 257.781552 332.528905 
L 259.083988 331.638048 
L 260.193471 331.244255 
L 261.785338 330.933672 
L 264.149019 330.718344 
L 267.622182 330.638828 
L 269.455241 330.638828 
L 269.551718 330.934572 
L 269.599956 330.924766 
L 270.420009 330.549002 
L 271.529492 330.23814 
L 273.169597 330.026617 
L 275.726231 329.939501 
L 281.273645 329.99299 
L 281.41836 332.015843 
L 282.527843 332.802327 
L 283.637326 333.255022 
L 285.229193 333.639144 
L 287.592874 333.959505 
L 290.824846 334.170572 
L 293.09205 334.170572 
L 293.236765 334.351404 
L 298.253557 334.365571 
L 305.006931 334.441077 
L 305.971699 334.336906 
L 311.036729 333.328709 
L 314.413416 332.899998 
L 316.68062 332.899998 
L 316.825335 333.270098 
L 319.333731 334.427617 
L 321.118552 334.806594 
L 323.675186 335.10578 
L 326.714204 335.243178 
L 328.499024 335.243178 
L 328.64374 335.372813 
L 340.317429 335.012779 
L 340.462144 334.414315 
L 342.102249 334.033584 
L 344.562407 333.751087 
L 344.803599 333.731354 
L 344.948314 321.241463 
L 458.646188 321.336126 
L 458.839141 321.321615 
L 459.46624 321.282534 
L 467.136144 321.380871 
L 470.464592 321.395178 
L 470.609307 321.142787 
L 472.394128 321.099613 
L 482.282997 321.295533 
L 482.331235 322.701906 
L 482.427712 322.68199 
L 483.247764 322.44034 
L 484.550201 322.443347 
L 489.711708 322.807994 
L 492.94368 322.916553 
L 494.101401 322.916553 
L 494.246116 322.573671 
L 496.416843 322.255911 
L 499.600577 322.114154 
L 505.919805 322.070167 
L 506.112759 322.104471 
L 509.344731 321.9544 
L 517.159349 321.957196 
L 517.73821 321.957196 
L 517.882925 322.716279 
L 519.571268 322.896275 
L 523.333862 323.031308 
L 529.556614 323.079634 
L 529.701329 322.78727 
L 531.920295 322.692566 
L 541.375018 322.707386 
L 541.519734 322.393387 
L 547.356578 322.128434 
L 553.145184 322.044421 
L 553.338138 322.121039 
L 556.811302 322.380568 
L 562.599908 322.501719 
L 576.87847 322.392668 
L 581.268163 322.298733 
L 581.412878 321.241462 
L 687.923233 321.130537 
L 691.058728 320.876382 
L 693.567124 320.683773 
L 695.110752 320.683773 
L 695.351944 318.682171 
L 696.07552 318.269415 
L 697.040287 318.027876 
L 699.162776 317.787593 
L 702.684179 317.348973 
L 705.144336 317.023144 
L 706.929156 317.023144 
L 707.073872 314.711225 
L 707.652732 313.20445 
L 708.038639 312.991143 
L 708.569262 312.99258 
L 709.485791 313.251446 
L 711.463565 314.091086 
L 716.239165 316.145729 
L 718.747561 316.145729 
L 718.844038 324.586458 
L 718.892276 324.583702 
L 720.87005 324.509404 
L 730.565965 324.634173 
L 730.71068 324.280331 
L 733.604983 324.160099 
L 741.46784 324.127174 
L 745.085719 324.016526 
L 753.479198 323.981594 
L 754.202774 323.981594 
L 754.347489 324.530373 
L 756.566455 324.627407 
L 764.18812 324.701044 
L 766.021178 324.701044 
L 766.165893 324.028223 
L 767.805999 323.883767 
L 774.125227 323.824821 
L 777.839583 323.820987 
L 777.984298 321.780043 
L 778.852589 321.54518 
L 780.589171 321.435203 
L 786.474254 321.362144 
L 797.762036 321.420715 
L 817.732727 321.405881 
L 817.732727 321.405881 
" clip-path="url(#p3ed55bdbb4)" style="fill: none; stroke: #0000ff; stroke-width: 1.5; stroke-linecap: square"/>
   </g>
   <g id="line2d_62">
    <path d="M 108.387273 321.241462 
L 210.363219 321.240598 
L 210.411457 321.394717 
L 210.797365 325.576012 
L 211.376225 325.568147 
L 211.665655 325.424974 
L 212.148039 325.369104 
L 212.533946 325.382445 
L 213.01633 325.417735 
L 213.353999 325.437063 
L 215.476488 325.577523 
L 222.181623 325.505761 
L 222.374577 323.261656 
L 222.422815 323.019719 
L 222.471054 323.29517 
L 222.760484 323.739786 
L 223.19463 323.161522 
L 223.48406 323.301233 
L 224.159397 323.437407 
L 224.497066 323.594453 
L 224.786496 323.641102 
L 227.0537 324.179511 
L 227.343131 324.200609 
L 228.742044 324.424755 
L 229.948003 324.472582 
L 231.491632 324.678447 
L 234.144743 324.63471 
L 234.578888 323.428876 
L 234.771842 323.413843 
L 235.109511 323.415234 
L 235.350703 323.37895 
L 235.881325 323.219797 
L 236.31547 323.047152 
L 236.556662 322.992442 
L 237.617907 322.618751 
L 238.823866 322.517305 
L 240.174541 322.488304 
L 240.51221 322.530424 
L 241.139309 322.569206 
L 242.58646 322.721641 
L 244.515996 322.709868 
L 245.818432 322.709868 
L 245.866671 333.896108 
L 245.963147 333.759012 
L 246.011386 333.767244 
L 246.059624 333.605017 
L 246.107863 333.815083 
L 246.204339 333.894154 
L 246.252578 333.797152 
L 246.349054 333.846839 
L 246.590246 334.124949 
L 246.638485 333.981532 
L 246.686723 334.116321 
L 246.7832 334.346984 
L 246.976153 334.71573 
L 247.120869 334.572096 
L 247.313822 334.191269 
L 247.651491 334.303137 
L 247.892683 334.23843 
L 248.27859 334.55326 
L 248.471543 334.572158 
L 248.664497 334.408207 
L 248.712735 334.457653 
L 248.905689 334.611862 
L 249.291596 334.941657 
L 249.629265 335.191554 
L 249.918695 335.409617 
L 250.111648 335.414469 
L 250.594032 335.170229 
L 251.655277 335.286806 
L 252.185899 335.287463 
L 252.475329 335.509251 
L 252.861236 335.521075 
L 253.391859 335.581124 
L 253.874243 335.768992 
L 254.018958 335.783197 
L 254.356626 336.077019 
L 254.742533 336.27473 
L 257.009738 336.344869 
L 257.636837 336.344869 
L 257.781552 334.933575 
L 258.312174 333.881942 
L 258.649843 333.362431 
L 259.132227 332.783354 
L 259.421657 332.661001 
L 261.544146 330.937768 
L 262.508913 330.673176 
L 262.798344 330.457927 
L 263.280728 330.211606 
L 263.52192 330.029077 
L 264.10078 329.981733 
L 264.486687 329.921933 
L 264.679641 329.938025 
L 265.403217 329.68439 
L 269.455241 329.501505 
L 269.599956 330.338894 
L 271.143584 330.086164 
L 272.590736 330.095463 
L 273.024881 330.12361 
L 274.134364 330.290028 
L 274.520271 330.311415 
L 275.919185 330.303008 
L 277.607528 330.276711 
L 278.427581 330.267182 
L 281.273645 330.256285 
L 281.41836 330.623977 
L 282.527843 331.511629 
L 282.720797 331.640336 
L 283.299658 332.352459 
L 283.974995 332.695823 
L 284.360902 332.985587 
L 285.277431 333.618454 
L 286.242199 333.867168 
L 286.579868 333.970801 
L 286.965775 334.084071 
L 287.544635 334.181309 
L 288.075258 334.364261 
L 289.908316 334.895751 
L 291.258991 334.987067 
L 293.09205 334.987067 
L 293.236765 337.365822 
L 293.477957 337.283246 
L 293.767387 336.893255 
L 295.069823 337.250951 
L 295.407492 337.37544 
L 296.131068 337.46745 
L 297.964127 337.771614 
L 298.44651 337.855272 
L 298.977133 338.072838 
L 302.160866 338.72496 
L 304.910454 338.725834 
L 305.055169 331.116594 
L 305.151646 330.962825 
L 305.296361 331.077859 
L 305.537553 330.956608 
L 305.971699 331.364004 
L 306.164652 331.407383 
L 306.357606 331.369711 
L 306.743513 330.923167 
L 306.936466 330.753732 
L 307.467088 330.398467 
L 307.804757 330.216863 
L 308.045949 330.077585 
L 308.576571 329.801694 
L 308.962478 329.600582 
L 309.20367 329.364117 
L 309.686054 329.091423 
L 310.071961 328.824024 
L 310.40963 328.70568 
L 311.084967 328.016733 
L 312.676834 327.543243 
L 312.966264 327.529501 
L 313.255695 327.522653 
L 313.545125 327.528565 
L 313.834555 327.505933 
L 314.268701 327.554488 
L 316.68062 327.554488 
L 316.825335 328.175463 
L 317.307719 328.671807 
L 317.741865 329.099561 
L 318.368964 329.629768 
L 318.754871 329.67879 
L 319.912592 330.156314 
L 321.311505 330.473066 
L 327.389542 331.204966 
L 328.740216 331.100211 
L 332.116903 330.716282 
L 332.744002 330.632577 
L 334.384107 330.316217 
L 339.014992 330.105578 
L 340.317429 330.105578 
L 340.462144 330.47056 
L 341.041005 330.502276 
L 341.378673 330.523755 
L 342.68111 330.23226 
L 344.321215 330.268055 
L 344.803599 330.200556 
L 344.948314 321.241472 
L 446.827783 321.240452 
L 447.020737 322.277478 
L 447.068975 322.137608 
L 447.117214 322.240729 
L 447.21369 322.231686 
L 447.503121 321.973719 
L 447.647836 322.06777 
L 448.757319 321.689508 
L 449.287941 321.715149 
L 450.107994 321.736158 
L 451.313953 321.815046 
L 451.989291 321.833264 
L 452.954058 321.837806 
L 458.646188 321.740088 
L 458.742665 323.297218 
L 458.790903 323.289463 
L 458.839141 323.235096 
L 458.88738 323.31873 
L 459.080333 324.483721 
L 459.225048 324.564179 
L 459.273287 324.487936 
L 459.514479 324.08099 
L 459.707432 324.091815 
L 459.948624 324.192394 
L 460.623962 324.333833 
L 460.96163 324.48994 
L 461.251061 324.534675 
L 463.518265 325.035552 
L 463.807695 325.049332 
L 465.206608 325.227285 
L 466.460806 325.231115 
L 469.113917 325.35672 
L 470.464592 325.35672 
L 470.609307 324.176198 
L 471.043453 322.984151 
L 471.236406 322.968776 
L 471.574075 322.957946 
L 471.815267 322.907141 
L 472.345889 322.70849 
L 472.780035 322.498723 
L 473.021227 322.422673 
L 474.130709 321.937175 
L 474.468378 321.927472 
L 475.095477 321.763879 
L 476.20496 321.584147 
L 476.639105 321.582242 
L 476.976774 321.593936 
L 477.603873 321.577061 
L 479.051025 321.605557 
L 482.282997 321.546081 
L 482.331235 325.648488 
L 482.427712 325.569102 
L 482.910096 326.557025 
L 483.054811 326.820806 
L 483.103049 326.711891 
L 483.151287 326.877306 
L 483.537195 327.593077 
L 483.778386 327.143661 
L 483.826625 327.174758 
L 484.116055 327.271241 
L 484.357247 327.202095 
L 484.743154 327.4848 
L 484.936108 327.481152 
L 485.129061 327.29082 
L 485.1773 327.333153 
L 485.370253 327.45715 
L 485.75616 327.720957 
L 486.093829 327.905274 
L 486.335021 328.053601 
L 486.576213 328.032276 
L 487.106835 327.689533 
L 487.637457 327.632076 
L 487.878649 327.665697 
L 488.023364 327.63062 
L 488.698702 327.531603 
L 488.939894 327.644153 
L 489.325801 327.580082 
L 489.856423 327.544573 
L 490.338807 327.648422 
L 490.483522 327.636314 
L 490.821191 327.871073 
L 491.207098 327.998785 
L 491.978912 328.022599 
L 494.101401 328.022599 
L 494.246116 327.186449 
L 494.7285 326.484956 
L 495.355599 325.74189 
L 496.658035 325.06625 
L 497.333373 324.509701 
L 497.863995 324.205334 
L 498.249902 324.133331 
L 498.539332 324.074281 
L 499.021716 323.947867 
L 500.468868 323.411833 
L 501.240682 323.30167 
L 501.578351 323.162314 
L 503.073741 322.956854 
L 503.556124 322.952974 
L 505.919805 322.952974 
L 506.06452 323.559396 
L 506.98105 323.693439 
L 511.997842 324.437483 
L 513.107325 324.382134 
L 517.73821 324.363501 
L 517.834686 323.691926 
L 517.882925 323.7039 
L 518.606501 323.821675 
L 518.895931 323.965905 
L 519.474792 324.400892 
L 519.81246 324.56242 
L 520.439559 324.733805 
L 520.777228 324.907746 
L 521.741996 325.407185 
L 523.430339 325.68661 
L 524.0092 325.738513 
L 524.539822 325.883817 
L 526.421119 326.304701 
L 527.723555 326.368387 
L 529.556614 326.368387 
L 529.701329 328.123804 
L 529.942521 328.019979 
L 530.231951 327.619154 
L 531.486149 327.907116 
L 531.872057 328.054145 
L 532.595632 328.129974 
L 534.428691 328.397535 
L 534.911075 328.471895 
L 535.441697 328.678334 
L 538.432477 329.223724 
L 539.638437 329.236401 
L 541.375018 329.236401 
L 541.519734 322.119066 
L 541.61621 321.979155 
L 541.760925 322.121422 
L 541.953879 322.037016 
L 542.098594 322.181993 
L 542.436263 322.566624 
L 542.629216 322.655369 
L 542.82217 322.660642 
L 543.1116 322.41108 
L 543.352792 322.178213 
L 543.931653 321.911652 
L 544.221083 321.789166 
L 544.510513 321.693719 
L 545.041136 321.506136 
L 545.427043 321.366335 
L 545.668235 321.166823 
L 546.150619 320.965425 
L 546.488287 320.750798 
L 546.874194 320.680968 
L 547.501293 320.119991 
L 547.790724 320.014067 
L 548.369584 319.896937 
L 548.80373 319.828667 
L 549.237875 319.814424 
L 549.864974 319.886539 
L 550.974457 319.954271 
L 553.145184 319.954271 
L 553.2899 320.287567 
L 553.820522 320.59624 
L 554.109952 320.751416 
L 554.399382 320.926307 
L 554.737051 321.104443 
L 555.65358 321.096903 
L 556.57011 321.2738 
L 557.824308 321.376788 
L 558.596122 321.451564 
L 559.416174 321.518301 
L 560.429181 321.579468 
L 564.963589 321.787112 
L 565.108304 321.622418 
L 567.086078 321.460436 
L 567.713177 321.401722 
L 569.594474 321.198775 
L 570.125096 321.069774 
L 572.295823 320.891664 
L 573.88769 320.880349 
L 574.563027 320.876082 
L 576.781993 320.876082 
L 576.926708 321.724588 
L 577.505569 321.891468 
L 577.843238 321.977433 
L 579.338628 321.891576 
L 579.965727 322.071113 
L 580.689302 322.050357 
L 581.268163 322.006535 
L 581.412878 321.241469 
L 683.292348 321.146498 
L 683.388824 313.494994 
L 683.53354 314.901415 
L 683.630016 315.008346 
L 683.678255 314.950085 
L 683.967685 314.657828 
L 684.1124 314.757517 
L 684.835976 314.569736 
L 686.186651 314.66203 
L 686.620796 314.877561 
L 687.006703 314.593222 
L 687.247895 314.701019 
L 687.730279 314.363321 
L 688.019709 314.543428 
L 688.502093 314.180866 
L 688.743285 313.880798 
L 688.888 313.92027 
L 689.129192 313.667899 
L 689.322146 313.531869 
L 689.756291 313.961554 
L 690.09396 313.656471 
L 690.286914 313.195349 
L 690.335152 313.221811 
L 690.721059 313.444739 
L 691.010489 313.589072 
L 691.155204 313.638495 
L 691.251681 313.618486 
L 691.396396 313.562928 
L 691.492873 313.779266 
L 691.927019 314.719201 
L 692.071734 314.768753 
L 692.264687 314.700561 
L 692.361164 314.717934 
L 692.554118 314.5863 
L 695.110752 314.5863 
L 695.400182 456.503574 
L 695.834328 465.149749 
L 695.930805 467.517954 
L 696.123758 473.633174 
L 696.220235 474.898478 
L 697.233241 491.185471 
L 697.474433 493.497079 
L 697.522671 493.102056 
L 697.57091 492.9226 
L 697.619148 493.142314 
L 697.667386 493.321962 
L 697.715625 493.149655 
L 697.956817 492.637017 
L 698.14977 493.175602 
L 698.198009 493.149961 
L 698.439201 494.760949 
L 698.487439 494.688917 
L 698.632154 494.304613 
L 698.873346 493.743828 
L 698.921584 493.933686 
L 698.969823 493.800696 
L 699.018061 493.683059 
L 699.114538 494.010572 
L 699.162776 493.944015 
L 699.259253 493.692005 
L 699.64516 491.121628 
L 699.693399 491.349277 
L 699.838114 491.968437 
L 699.886352 491.865507 
L 700.272259 487.601664 
L 700.416974 488.552639 
L 700.85112 491.824134 
L 701.044073 491.368476 
L 701.092312 491.401618 
L 701.237027 491.878225 
L 701.381742 491.581387 
L 701.429981 491.641515 
L 701.478219 491.436101 
L 701.815888 493.247285 
L 701.864126 493.290509 
L 702.008841 493.795213 
L 702.105318 493.895507 
L 702.539463 494.705718 
L 702.587702 494.674943 
L 702.63594 494.68692 
L 702.828894 495.437667 
L 702.973609 495.141862 
L 703.021847 495.233103 
L 703.118324 495.456585 
L 703.263039 494.869721 
L 703.311278 495.053612 
L 703.552469 496.218161 
L 703.600708 496.105017 
L 703.648946 495.820785 
L 703.697185 495.93735 
L 704.13133 497.769172 
L 704.179568 497.778896 
L 704.324284 498.064314 
L 706.929156 498.064314 
L 706.977395 523.512727 
L 707.073872 517.373148 
L 707.508017 435.189648 
L 707.556255 432.899153 
L 707.604494 436.150723 
L 707.652732 432.384059 
L 707.845686 417.788022 
L 707.942163 418.911076 
L 708.183354 410.541484 
L 708.32807 404.705358 
L 708.424546 398.786718 
L 708.472785 399.03017 
L 708.521023 399.119173 
L 709.341076 382.711772 
L 709.389314 382.484703 
L 709.630506 378.314593 
L 710.161128 368.763135 
L 710.595274 357.2573 
L 710.739989 358.482411 
L 710.788227 358.428887 
L 711.125896 353.494139 
L 711.367088 349.599717 
L 711.415326 349.805293 
L 711.511803 350.61445 
L 711.560041 350.576696 
L 711.704757 348.842259 
L 712.18714 344.063332 
L 712.283617 343.652956 
L 712.717763 337.247613 
L 712.766001 336.525892 
L 712.862478 336.672254 
L 713.007193 336.171772 
L 713.055431 336.465011 
L 713.248385 337.684675 
L 713.344862 337.37946 
L 713.875484 333.922344 
L 713.923722 334.113265 
L 714.020199 334.30174 
L 714.068437 334.272329 
L 714.116676 334.347164 
L 714.261391 333.745096 
L 714.309629 334.13931 
L 714.406106 334.079686 
L 714.454345 334.154991 
L 714.59906 333.41526 
L 714.647298 333.075687 
L 714.695536 333.09132 
L 715.081444 334.426397 
L 715.129682 334.498488 
L 715.274397 334.152936 
L 715.515589 333.88454 
L 715.708543 332.942658 
L 715.949734 331.918378 
L 716.046211 332.056655 
L 716.190926 332.209693 
L 718.747561 332.209693 
L 718.844038 328.091571 
L 718.892276 328.103041 
L 719.66409 330.139744 
L 719.905282 331.111442 
L 720.001759 331.095989 
L 720.242951 330.534239 
L 720.291189 330.591854 
L 720.532381 330.849552 
L 720.821811 330.505231 
L 721.352434 331.00328 
L 721.593626 330.719467 
L 721.641864 330.775679 
L 721.883056 330.967993 
L 722.076009 331.208573 
L 722.220725 331.234294 
L 722.461916 331.358725 
L 722.751347 331.726438 
L 723.040777 331.710377 
L 723.523161 331.164613 
L 723.716114 331.226672 
L 723.86083 331.215681 
L 724.246737 331.086583 
L 724.487929 331.001757 
L 724.729121 330.688252 
L 724.873836 330.632179 
L 725.115028 330.696935 
L 725.307981 330.803212 
L 725.742127 330.72085 
L 726.320987 330.592882 
L 726.755133 330.820638 
L 726.899848 330.677481 
L 726.948086 330.725342 
L 727.285755 331.107885 
L 727.623424 331.282924 
L 728.732907 331.26058 
L 730.565965 331.26058 
L 730.71068 330.546019 
L 731.000111 330.215768 
L 731.386018 329.666483 
L 732.061355 329.079539 
L 732.350785 329.077865 
L 732.543739 328.783849 
L 732.784931 328.576972 
L 733.363792 328.105079 
L 733.70146 327.810741 
L 734.328559 327.360608 
L 734.61799 327.357858 
L 735.245089 327.301779 
L 735.389804 327.240685 
L 735.727472 326.903337 
L 736.065141 326.705591 
L 736.258095 326.509906 
L 736.499287 326.370407 
L 736.69224 326.391779 
L 737.657008 326.335671 
L 738.042915 326.069036 
L 738.47706 325.996185 
L 738.718252 326.002356 
L 738.959444 325.935679 
L 739.538305 325.823761 
L 739.875974 325.831698 
L 742.38437 325.831698 
L 742.529085 326.808028 
L 743.300899 327.017185 
L 743.638568 327.207882 
L 744.217428 327.441764 
L 747.497638 328.399521 
L 754.202774 328.50649 
L 754.347489 326.151247 
L 755.312257 326.318264 
L 756.469978 327.16905 
L 756.952362 327.349331 
L 757.579461 327.708751 
L 758.930136 328.231786 
L 759.364281 328.295225 
L 759.846665 328.426473 
L 760.329049 328.448093 
L 761.052625 328.664655 
L 763.705736 329.113869 
L 766.021178 329.113869 
L 766.165893 331.686336 
L 766.358847 331.667345 
L 766.744754 330.996183 
L 766.792992 331.026332 
L 767.130661 331.248357 
L 767.275376 331.194992 
L 767.46833 331.262236 
L 767.805999 331.552175 
L 767.998952 331.683994 
L 768.240144 331.868026 
L 768.481336 331.869382 
L 768.770766 331.878322 
L 769.204912 332.144566 
L 769.397865 332.256933 
L 769.639057 332.337689 
L 770.024964 332.358932 
L 770.314395 332.517191 
L 770.893255 332.675351 
L 771.279162 332.726171 
L 771.9545 333.231339 
L 772.340407 333.303953 
L 772.678075 333.423217 
L 773.160459 333.73265 
L 773.546366 333.732768 
L 774.02875 333.785723 
L 774.559373 333.964211 
L 774.800564 334.042724 
L 775.138233 334.089552 
L 777.839583 334.089552 
L 777.984298 321.500829 
L 778.032536 321.326369 
L 778.080775 321.339765 
L 778.22549 321.49979 
L 778.418443 321.403998 
L 778.563158 321.567048 
L 778.852589 321.946344 
L 779.190257 322.149095 
L 779.334973 322.074953 
L 779.962072 321.5923 
L 782.663421 320.377335 
L 782.952852 320.210105 
L 783.338759 320.148962 
L 783.965858 319.579246 
L 784.255288 319.476916 
L 784.834149 319.369342 
L 785.268294 319.308724 
L 785.654201 319.303357 
L 786.811922 319.42482 
L 787.149591 319.480506 
L 789.609749 319.480506 
L 789.754464 319.759581 
L 790.285086 320.019474 
L 790.574516 320.148471 
L 790.863947 320.29967 
L 791.153377 320.443396 
L 791.442807 320.397003 
L 792.069906 320.379585 
L 794.240634 320.577998 
L 795.687785 320.681162 
L 799.305664 320.866749 
L 801.428153 320.866749 
L 801.572868 320.617594 
L 803.068258 320.489147 
L 806.348468 320.124657 
L 806.975567 320.023305 
L 810.159301 319.936498 
L 812.619458 319.918204 
L 813.246557 319.918204 
L 813.391273 320.881462 
L 813.970133 321.068489 
L 814.307802 321.164073 
L 815.803192 321.094479 
L 816.382052 321.272163 
L 816.864436 321.279716 
L 817.732727 321.225805 
L 817.732727 321.225805 
" clip-path="url(#p3ed55bdbb4)" style="fill: none; stroke-dasharray: 5.55,2.4; stroke-dashoffset: 0; stroke: #ff0000; stroke-width: 1.5"/>
   </g>
   <g id="line2d_63">
    <path d="M 344.851837 534.04 
L 344.851837 302.44 
" clip-path="url(#p3ed55bdbb4)" style="fill: none; stroke-dasharray: 1.5,2.475; stroke-dashoffset: 0; stroke: #808080; stroke-opacity: 0.6; stroke-width: 1.5"/>
   </g>
   <g id="line2d_64">
    <path d="M 581.316401 534.04 
L 581.316401 302.44 
" clip-path="url(#p3ed55bdbb4)" style="fill: none; stroke-dasharray: 1.5,2.475; stroke-dashoffset: 0; stroke: #808080; stroke-opacity: 0.6; stroke-width: 1.5"/>
   </g>
   <g id="patch_9">
    <path d="M 72.92 534.04 
L 72.92 302.44 
" style="fill: none; stroke: #000000; stroke-width: 0.8; stroke-linejoin: miter; stroke-linecap: square"/>
   </g>
   <g id="patch_10">
    <path d="M 853.2 534.04 
L 853.2 302.44 
" style="fill: none; stroke: #000000; stroke-width: 0.8; stroke-linejoin: miter; stroke-linecap: square"/>
   </g>
   <g id="patch_11">
    <path d="M 72.92 534.04 
L 853.2 534.04 
" style="fill: none; stroke: #000000; stroke-width: 0.8; stroke-linejoin: miter; stroke-linecap: square"/>
   </g>
   <g id="patch_12">
    <path d="M 72.92 302.44 
L 853.2 302.44 
" style="fill: none; stroke: #000000; stroke-width: 0.8; stroke-linejoin: miter; stroke-linecap: square"/>
   </g>
   <g id="text_35">
    <!-- [28] Ka2_y  —  State Estimate -->
    <g transform="translate(373.043125 296.44) scale(0.12 -0.12)">
     <use xlink:href="#DejaVuSans-5b"/>
     <use xlink:href="#DejaVuSans-32" transform="translate(39.013672 0)"/>
     <use xlink:href="#DejaVuSans-38" transform="translate(102.636719 0)"/>
     <use xlink:href="#DejaVuSans-5d" transform="translate(166.259766 0)"/>
     <use xlink:href="#DejaVuSans-20" transform="translate(205.273438 0)"/>
     <use xlink:href="#DejaVuSans-4b" transform="translate(237.060547 0)"/>
     <use xlink:href="#DejaVuSans-61" transform="translate(300.886719 0)"/>
     <use xlink:href="#DejaVuSans-32" transform="translate(362.166016 0)"/>
     <use xlink:href="#DejaVuSans-5f" transform="translate(425.789062 0)"/>
     <use xlink:href="#DejaVuSans-79" transform="translate(475.789062 0)"/>
     <use xlink:href="#DejaVuSans-20" transform="translate(534.96875 0)"/>
     <use xlink:href="#DejaVuSans-20" transform="translate(566.755859 0)"/>
     <use xlink:href="#DejaVuSans-2014" transform="translate(598.542969 0)"/>
     <use xlink:href="#DejaVuSans-20" transform="translate(698.542969 0)"/>
     <use xlink:href="#DejaVuSans-20" transform="translate(730.330078 0)"/>
     <use xlink:href="#DejaVuSans-53" transform="translate(762.117188 0)"/>
     <use xlink:href="#DejaVuSans-74" transform="translate(825.59375 0)"/>
     <use xlink:href="#DejaVuSans-61" transform="translate(864.802734 0)"/>
     <use xlink:href="#DejaVuSans-74" transform="translate(926.082031 0)"/>
     <use xlink:href="#DejaVuSans-65" transform="translate(965.291016 0)"/>
     <use xlink:href="#DejaVuSans-20" transform="translate(1026.814453 0)"/>
     <use xlink:href="#DejaVuSans-45" transform="translate(1058.601562 0)"/>
     <use xlink:href="#DejaVuSans-73" transform="translate(1121.785156 0)"/>
     <use xlink:href="#DejaVuSans-74" transform="translate(1173.884766 0)"/>
     <use xlink:href="#DejaVuSans-69" transform="translate(1213.09375 0)"/>
     <use xlink:href="#DejaVuSans-6d" transform="translate(1240.876953 0)"/>
     <use xlink:href="#DejaVuSans-61" transform="translate(1338.289062 0)"/>
     <use xlink:href="#DejaVuSans-74" transform="translate(1399.568359 0)"/>
     <use xlink:href="#DejaVuSans-65" transform="translate(1438.777344 0)"/>
    </g>
   </g>
   <g id="legend_2">
    <g id="patch_13">
     <path d="M 79.92 529.04 
L 191.777813 529.04 
Q 193.777813 529.04 193.777813 527.04 
L 193.777813 498.68375 
Q 193.777813 496.68375 191.777813 496.68375 
L 79.92 496.68375 
Q 77.92 496.68375 77.92 498.68375 
L 77.92 527.04 
Q 77.92 529.04 79.92 529.04 
z
" style="fill: #ffffff; opacity: 0.8; stroke: #cccccc; stroke-linejoin: miter"/>
    </g>
    <g id="line2d_65">
     <path d="M 81.92 504.782187 
L 91.92 504.782187 
L 101.92 504.782187 
" style="fill: none; stroke: #0000ff; stroke-width: 1.5; stroke-linecap: square"/>
    </g>
    <g id="text_36">
     <!-- Ideal (No Noise) -->
     <g transform="translate(109.92 508.282187) scale(0.1 -0.1)">
      <use xlink:href="#DejaVuSans-49"/>
      <use xlink:href="#DejaVuSans-64" transform="translate(29.492188 0)"/>
      <use xlink:href="#DejaVuSans-65" transform="translate(92.96875 0)"/>
      <use xlink:href="#DejaVuSans-61" transform="translate(154.492188 0)"/>
      <use xlink:href="#DejaVuSans-6c" transform="translate(215.771484 0)"/>
      <use xlink:href="#DejaVuSans-20" transform="translate(243.554688 0)"/>
      <use xlink:href="#DejaVuSans-28" transform="translate(275.341797 0)"/>
      <use xlink:href="#DejaVuSans-4e" transform="translate(314.355469 0)"/>
      <use xlink:href="#DejaVuSans-6f" transform="translate(389.160156 0)"/>
      <use xlink:href="#DejaVuSans-20" transform="translate(450.341797 0)"/>
      <use xlink:href="#DejaVuSans-4e" transform="translate(482.128906 0)"/>
      <use xlink:href="#DejaVuSans-6f" transform="translate(556.933594 0)"/>
      <use xlink:href="#DejaVuSans-69" transform="translate(618.115234 0)"/>
      <use xlink:href="#DejaVuSans-73" transform="translate(645.898438 0)"/>
      <use xlink:href="#DejaVuSans-65" transform="translate(697.998047 0)"/>
      <use xlink:href="#DejaVuSans-29" transform="translate(759.521484 0)"/>
     </g>
    </g>
    <g id="line2d_66">
     <path d="M 81.92 519.460312 
L 91.92 519.460312 
L 101.92 519.460312 
" style="fill: none; stroke-dasharray: 5.55,2.4; stroke-dashoffset: 0; stroke: #ff0000; stroke-width: 1.5"/>
    </g>
    <g id="text_37">
     <!-- With Full Noise -->
     <g transform="translate(109.92 522.960312) scale(0.1 -0.1)">
      <use xlink:href="#DejaVuSans-57"/>
      <use xlink:href="#DejaVuSans-69" transform="translate(96.626953 0)"/>
      <use xlink:href="#DejaVuSans-74" transform="translate(124.410156 0)"/>
      <use xlink:href="#DejaVuSans-68" transform="translate(163.619141 0)"/>
      <use xlink:href="#DejaVuSans-20" transform="translate(226.998047 0)"/>
      <use xlink:href="#DejaVuSans-46" transform="translate(258.785156 0)"/>
      <use xlink:href="#DejaVuSans-75" transform="translate(310.804688 0)"/>
      <use xlink:href="#DejaVuSans-6c" transform="translate(374.183594 0)"/>
      <use xlink:href="#DejaVuSans-6c" transform="translate(401.966797 0)"/>
      <use xlink:href="#DejaVuSans-20" transform="translate(429.75 0)"/>
      <use xlink:href="#DejaVuSans-4e" transform="translate(461.537109 0)"/>
      <use xlink:href="#DejaVuSans-6f" transform="translate(536.341797 0)"/>
      <use xlink:href="#DejaVuSans-69" transform="translate(597.523438 0)"/>
      <use xlink:href="#DejaVuSans-73" transform="translate(625.306641 0)"/>
      <use xlink:href="#DejaVuSans-65" transform="translate(677.40625 0)"/>
     </g>
    </g>
   </g>
  </g>
 </g>
 <defs>
  <clipPath id="p54fd430510">
   <rect x="72.92" y="26.88" width="780.28" height="231.6"/>
  </clipPath>
  <clipPath id="p3ed55bdbb4">
   <rect x="72.92" y="302.44" width="780.28" height="231.6"/>
  </clipPath>
 </defs>
</svg>
