<?xml version="1.0" encoding="utf-8" standalone="no"?>
<!DOCTYPE svg PUBLIC "-//W3C//DTD SVG 1.1//EN"
  "http://www.w3.org/Graphics/SVG/1.1/DTD/svg11.dtd">
<svg xmlns:xlink="http://www.w3.org/1999/xlink" width="864pt" height="576pt" viewBox="0 0 864 576" xmlns="http://www.w3.org/2000/svg" version="1.1">
 <metadata>
  <rdf:RDF xmlns:dc="http://purl.org/dc/elements/1.1/" xmlns:cc="http://creativecommons.org/ns#" xmlns:rdf="http://www.w3.org/1999/02/22-rdf-syntax-ns#">
   <cc:Work>
    <dc:type rdf:resource="http://purl.org/dc/dcmitype/StillImage"/>
    <dc:date>2026-03-09T19:22:01.742225</dc:date>
    <dc:format>image/svg+xml</dc:format>
    <dc:creator>
     <cc:Agent>
      <dc:title>Matplotlib v3.10.8, https://matplotlib.org/</dc:title>
     </cc:Agent>
    </dc:creator>
   </cc:Work>
  </rdf:RDF>
 </metadata>
 <defs>
  <style type="text/css">*{stroke-linejoin: round; stroke-linecap: butt}</style>
 </defs>
 <g id="figure_1">
  <g id="patch_1">
   <path d="M 0 576 
L 864 576 
L 864 0 
L 0 0 
z
" style="fill: #ffffff"/>
  </g>
  <g id="axes_1">
   <g id="patch_2">
    <path d="M 68.69 258.48 
L 853.2 258.48 
L 853.2 26.88 
L 68.69 26.88 
z
" style="fill: #ffffff"/>
   </g>
   <g id="matplotlib.axis_1">
    <g id="xtick_1">
     <g id="line2d_1">
      <path d="M 104.349545 258.48 
L 104.349545 26.88 
" clip-path="url(#pe9446cb4ae)" style="fill: none; stroke: #b0b0b0; stroke-width: 0.8; stroke-linecap: square"/>
     </g>
     <g id="line2d_2">
      <defs>
       <path id="m82a5bdb1b5" d="M 0 0 
L 0 3.5 
" style="stroke: #000000; stroke-width: 0.8"/>
      </defs>
      <g>
       <use xlink:href="#m82a5bdb1b5" x="104.349545" y="258.48" style="stroke: #000000; stroke-width: 0.8"/>
      </g>
     </g>
     <g id="text_1">
      <!-- 0 -->
      <g transform="translate(101.168295 273.078438) scale(0.1 -0.1)">
       <defs>
        <path id="DejaVuSans-30" d="M 2034 4250 
Q 1547 4250 1301 3770 
Q 1056 3291 1056 2328 
Q 1056 1369 1301 889 
Q 1547 409 2034 409 
Q 2525 409 2770 889 
Q 3016 1369 3016 2328 
Q 3016 3291 2770 3770 
Q 2525 4250 2034 4250 
z
M 2034 4750 
Q 2819 4750 3233 4129 
Q 3647 3509 3647 2328 
Q 3647 1150 3233 529 
Q 2819 -91 2034 -91 
Q 1250 -91 836 529 
Q 422 1150 422 2328 
Q 422 3509 836 4129 
Q 1250 4750 2034 4750 
z
" transform="scale(0.015625)"/>
       </defs>
       <use xlink:href="#DejaVuSans-30"/>
      </g>
     </g>
    </g>
    <g id="xtick_2">
     <g id="line2d_3">
      <path d="M 225.599275 258.48 
L 225.599275 26.88 
" clip-path="url(#pe9446cb4ae)" style="fill: none; stroke: #b0b0b0; stroke-width: 0.8; stroke-linecap: square"/>
     </g>
     <g id="line2d_4">
      <g>
       <use xlink:href="#m82a5bdb1b5" x="225.599275" y="258.48" style="stroke: #000000; stroke-width: 0.8"/>
      </g>
     </g>
     <g id="text_2">
      <!-- 50 -->
      <g transform="translate(219.236775 273.078438) scale(0.1 -0.1)">
       <defs>
        <path id="DejaVuSans-35" d="M 691 4666 
L 3169 4666 
L 3169 4134 
L 1269 4134 
L 1269 2991 
Q 1406 3038 1543 3061 
Q 1681 3084 1819 3084 
Q 2600 3084 3056 2656 
Q 3513 2228 3513 1497 
Q 3513 744 3044 326 
Q 2575 -91 1722 -91 
Q 1428 -91 1123 -41 
Q 819 9 494 109 
L 494 744 
Q 775 591 1075 516 
Q 1375 441 1709 441 
Q 2250 441 2565 725 
Q 2881 1009 2881 1497 
Q 2881 1984 2565 2268 
Q 2250 2553 1709 2553 
Q 1456 2553 1204 2497 
Q 953 2441 691 2322 
L 691 4666 
z
" transform="scale(0.015625)"/>
       </defs>
       <use xlink:href="#DejaVuSans-35"/>
       <use xlink:href="#DejaVuSans-30" transform="translate(63.623047 0)"/>
      </g>
     </g>
    </g>
    <g id="xtick_3">
     <g id="line2d_5">
      <path d="M 346.849005 258.48 
L 346.849005 26.88 
" clip-path="url(#pe9446cb4ae)" style="fill: none; stroke: #b0b0b0; stroke-width: 0.8; stroke-linecap: square"/>
     </g>
     <g id="line2d_6">
      <g>
       <use xlink:href="#m82a5bdb1b5" x="346.849005" y="258.48" style="stroke: #000000; stroke-width: 0.8"/>
      </g>
     </g>
     <g id="text_3">
      <!-- 100 -->
      <g transform="translate(337.305255 273.078438) scale(0.1 -0.1)">
       <defs>
        <path id="DejaVuSans-31" d="M 794 531 
L 1825 531 
L 1825 4091 
L 703 3866 
L 703 4441 
L 1819 4666 
L 2450 4666 
L 2450 531 
L 3481 531 
L 3481 0 
L 794 0 
L 794 531 
z
" transform="scale(0.015625)"/>
       </defs>
       <use xlink:href="#DejaVuSans-31"/>
       <use xlink:href="#DejaVuSans-30" transform="translate(63.623047 0)"/>
       <use xlink:href="#DejaVuSans-30" transform="translate(127.246094 0)"/>
      </g>
     </g>
    </g>
    <g id="xtick_4">
     <g id="line2d_7">
      <path d="M 468.098734 258.48 
L 468.098734 26.88 
" clip-path="url(#pe9446cb4ae)" style="fill: none; stroke: #b0b0b0; stroke-width: 0.8; stroke-linecap: square"/>
     </g>
     <g id="line2d_8">
      <g>
       <use xlink:href="#m82a5bdb1b5" x="468.098734" y="258.48" style="stroke: #000000; stroke-width: 0.8"/>
      </g>
     </g>
     <g id="text_4">
      <!-- 150 -->
      <g transform="translate(458.554984 273.078438) scale(0.1 -0.1)">
       <use xlink:href="#DejaVuSans-31"/>
       <use xlink:href="#DejaVuSans-35" transform="translate(63.623047 0)"/>
       <use xlink:href="#DejaVuSans-30" transform="translate(127.246094 0)"/>
      </g>
     </g>
    </g>
    <g id="xtick_5">
     <g id="line2d_9">
      <path d="M 589.348464 258.48 
L 589.348464 26.88 
" clip-path="url(#pe9446cb4ae)" style="fill: none; stroke: #b0b0b0; stroke-width: 0.8; stroke-linecap: square"/>
     </g>
     <g id="line2d_10">
      <g>
       <use xlink:href="#m82a5bdb1b5" x="589.348464" y="258.48" style="stroke: #000000; stroke-width: 0.8"/>
      </g>
     </g>
     <g id="text_5">
      <!-- 200 -->
      <g transform="translate(579.804714 273.078438) scale(0.1 -0.1)">
       <defs>
        <path id="DejaVuSans-32" d="M 1228 531 
L 3431 531 
L 3431 0 
L 469 0 
L 469 531 
Q 828 903 1448 1529 
Q 2069 2156 2228 2338 
Q 2531 2678 2651 2914 
Q 2772 3150 2772 3378 
Q 2772 3750 2511 3984 
Q 2250 4219 1831 4219 
Q 1534 4219 1204 4116 
Q 875 4013 500 3803 
L 500 4441 
Q 881 4594 1212 4672 
Q 1544 4750 1819 4750 
Q 2544 4750 2975 4387 
Q 3406 4025 3406 3419 
Q 3406 3131 3298 2873 
Q 3191 2616 2906 2266 
Q 2828 2175 2409 1742 
Q 1991 1309 1228 531 
z
" transform="scale(0.015625)"/>
       </defs>
       <use xlink:href="#DejaVuSans-32"/>
       <use xlink:href="#DejaVuSans-30" transform="translate(63.623047 0)"/>
       <use xlink:href="#DejaVuSans-30" transform="translate(127.246094 0)"/>
      </g>
     </g>
    </g>
    <g id="xtick_6">
     <g id="line2d_11">
      <path d="M 710.598193 258.48 
L 710.598193 26.88 
" clip-path="url(#pe9446cb4ae)" style="fill: none; stroke: #b0b0b0; stroke-width: 0.8; stroke-linecap: square"/>
     </g>
     <g id="line2d_12">
      <g>
       <use xlink:href="#m82a5bdb1b5" x="710.598193" y="258.48" style="stroke: #000000; stroke-width: 0.8"/>
      </g>
     </g>
     <g id="text_6">
      <!-- 250 -->
      <g transform="translate(701.054443 273.078438) scale(0.1 -0.1)">
       <use xlink:href="#DejaVuSans-32"/>
       <use xlink:href="#DejaVuSans-35" transform="translate(63.623047 0)"/>
       <use xlink:href="#DejaVuSans-30" transform="translate(127.246094 0)"/>
      </g>
     </g>
    </g>
    <g id="xtick_7">
     <g id="line2d_13">
      <path d="M 831.847923 258.48 
L 831.847923 26.88 
" clip-path="url(#pe9446cb4ae)" style="fill: none; stroke: #b0b0b0; stroke-width: 0.8; stroke-linecap: square"/>
     </g>
     <g id="line2d_14">
      <g>
       <use xlink:href="#m82a5bdb1b5" x="831.847923" y="258.48" style="stroke: #000000; stroke-width: 0.8"/>
      </g>
     </g>
     <g id="text_7">
      <!-- 300 -->
      <g transform="translate(822.304173 273.078438) scale(0.1 -0.1)">
       <defs>
        <path id="DejaVuSans-33" d="M 2597 2516 
Q 3050 2419 3304 2112 
Q 3559 1806 3559 1356 
Q 3559 666 3084 287 
Q 2609 -91 1734 -91 
Q 1441 -91 1130 -33 
Q 819 25 488 141 
L 488 750 
Q 750 597 1062 519 
Q 1375 441 1716 441 
Q 2309 441 2620 675 
Q 2931 909 2931 1356 
Q 2931 1769 2642 2001 
Q 2353 2234 1838 2234 
L 1294 2234 
L 1294 2753 
L 1863 2753 
Q 2328 2753 2575 2939 
Q 2822 3125 2822 3475 
Q 2822 3834 2567 4026 
Q 2313 4219 1838 4219 
Q 1578 4219 1281 4162 
Q 984 4106 628 3988 
L 628 4550 
Q 988 4650 1302 4700 
Q 1616 4750 1894 4750 
Q 2613 4750 3031 4423 
Q 3450 4097 3450 3541 
Q 3450 3153 3228 2886 
Q 3006 2619 2597 2516 
z
" transform="scale(0.015625)"/>
       </defs>
       <use xlink:href="#DejaVuSans-33"/>
       <use xlink:href="#DejaVuSans-30" transform="translate(63.623047 0)"/>
       <use xlink:href="#DejaVuSans-30" transform="translate(127.246094 0)"/>
      </g>
     </g>
    </g>
   </g>
   <g id="matplotlib.axis_2">
    <g id="ytick_1">
     <g id="line2d_15">
      <path d="M 68.69 249.255512 
L 853.2 249.255512 
" clip-path="url(#pe9446cb4ae)" style="fill: none; stroke: #b0b0b0; stroke-width: 0.8; stroke-linecap: square"/>
     </g>
     <g id="line2d_16">
      <defs>
       <path id="mdc24b61c8a" d="M 0 0 
L -3.5 0 
" style="stroke: #000000; stroke-width: 0.8"/>
      </defs>
      <g>
       <use xlink:href="#mdc24b61c8a" x="68.69" y="249.255512" style="stroke: #000000; stroke-width: 0.8"/>
      </g>
     </g>
     <g id="text_8">
      <!-- 0.0 -->
      <g transform="translate(45.786875 253.05473) scale(0.1 -0.1)">
       <defs>
        <path id="DejaVuSans-2e" d="M 684 794 
L 1344 794 
L 1344 0 
L 684 0 
L 684 794 
z
" transform="scale(0.015625)"/>
       </defs>
       <use xlink:href="#DejaVuSans-30"/>
       <use xlink:href="#DejaVuSans-2e" transform="translate(63.623047 0)"/>
       <use xlink:href="#DejaVuSans-30" transform="translate(95.410156 0)"/>
      </g>
     </g>
    </g>
    <g id="ytick_2">
     <g id="line2d_17">
      <path d="M 68.69 206.885864 
L 853.2 206.885864 
" clip-path="url(#pe9446cb4ae)" style="fill: none; stroke: #b0b0b0; stroke-width: 0.8; stroke-linecap: square"/>
     </g>
     <g id="line2d_18">
      <g>
       <use xlink:href="#mdc24b61c8a" x="68.69" y="206.885864" style="stroke: #000000; stroke-width: 0.8"/>
      </g>
     </g>
     <g id="text_9">
      <!-- 0.2 -->
      <g transform="translate(45.786875 210.685083) scale(0.1 -0.1)">
       <use xlink:href="#DejaVuSans-30"/>
       <use xlink:href="#DejaVuSans-2e" transform="translate(63.623047 0)"/>
       <use xlink:href="#DejaVuSans-32" transform="translate(95.410156 0)"/>
      </g>
     </g>
    </g>
    <g id="ytick_3">
     <g id="line2d_19">
      <path d="M 68.69 164.516216 
L 853.2 164.516216 
" clip-path="url(#pe9446cb4ae)" style="fill: none; stroke: #b0b0b0; stroke-width: 0.8; stroke-linecap: square"/>
     </g>
     <g id="line2d_20">
      <g>
       <use xlink:href="#mdc24b61c8a" x="68.69" y="164.516216" style="stroke: #000000; stroke-width: 0.8"/>
      </g>
     </g>
     <g id="text_10">
      <!-- 0.4 -->
      <g transform="translate(45.786875 168.315435) scale(0.1 -0.1)">
       <defs>
        <path id="DejaVuSans-34" d="M 2419 4116 
L 825 1625 
L 2419 1625 
L 2419 4116 
z
M 2253 4666 
L 3047 4666 
L 3047 1625 
L 3713 1625 
L 3713 1100 
L 3047 1100 
L 3047 0 
L 2419 0 
L 2419 1100 
L 313 1100 
L 313 1709 
L 2253 4666 
z
" transform="scale(0.015625)"/>
       </defs>
       <use xlink:href="#DejaVuSans-30"/>
       <use xlink:href="#DejaVuSans-2e" transform="translate(63.623047 0)"/>
       <use xlink:href="#DejaVuSans-34" transform="translate(95.410156 0)"/>
      </g>
     </g>
    </g>
    <g id="ytick_4">
     <g id="line2d_21">
      <path d="M 68.69 122.146568 
L 853.2 122.146568 
" clip-path="url(#pe9446cb4ae)" style="fill: none; stroke: #b0b0b0; stroke-width: 0.8; stroke-linecap: square"/>
     </g>
     <g id="line2d_22">
      <g>
       <use xlink:href="#mdc24b61c8a" x="68.69" y="122.146568" style="stroke: #000000; stroke-width: 0.8"/>
      </g>
     </g>
     <g id="text_11">
      <!-- 0.6 -->
      <g transform="translate(45.786875 125.945787) scale(0.1 -0.1)">
       <defs>
        <path id="DejaVuSans-36" d="M 2113 2584 
Q 1688 2584 1439 2293 
Q 1191 2003 1191 1497 
Q 1191 994 1439 701 
Q 1688 409 2113 409 
Q 2538 409 2786 701 
Q 3034 994 3034 1497 
Q 3034 2003 2786 2293 
Q 2538 2584 2113 2584 
z
M 3366 4563 
L 3366 3988 
Q 3128 4100 2886 4159 
Q 2644 4219 2406 4219 
Q 1781 4219 1451 3797 
Q 1122 3375 1075 2522 
Q 1259 2794 1537 2939 
Q 1816 3084 2150 3084 
Q 2853 3084 3261 2657 
Q 3669 2231 3669 1497 
Q 3669 778 3244 343 
Q 2819 -91 2113 -91 
Q 1303 -91 875 529 
Q 447 1150 447 2328 
Q 447 3434 972 4092 
Q 1497 4750 2381 4750 
Q 2619 4750 2861 4703 
Q 3103 4656 3366 4563 
z
" transform="scale(0.015625)"/>
       </defs>
       <use xlink:href="#DejaVuSans-30"/>
       <use xlink:href="#DejaVuSans-2e" transform="translate(63.623047 0)"/>
       <use xlink:href="#DejaVuSans-36" transform="translate(95.410156 0)"/>
      </g>
     </g>
    </g>
    <g id="ytick_5">
     <g id="line2d_23">
      <path d="M 68.69 79.77692 
L 853.2 79.77692 
" clip-path="url(#pe9446cb4ae)" style="fill: none; stroke: #b0b0b0; stroke-width: 0.8; stroke-linecap: square"/>
     </g>
     <g id="line2d_24">
      <g>
       <use xlink:href="#mdc24b61c8a" x="68.69" y="79.77692" style="stroke: #000000; stroke-width: 0.8"/>
      </g>
     </g>
     <g id="text_12">
      <!-- 0.8 -->
      <g transform="translate(45.786875 83.576139) scale(0.1 -0.1)">
       <defs>
        <path id="DejaVuSans-38" d="M 2034 2216 
Q 1584 2216 1326 1975 
Q 1069 1734 1069 1313 
Q 1069 891 1326 650 
Q 1584 409 2034 409 
Q 2484 409 2743 651 
Q 3003 894 3003 1313 
Q 3003 1734 2745 1975 
Q 2488 2216 2034 2216 
z
M 1403 2484 
Q 997 2584 770 2862 
Q 544 3141 544 3541 
Q 544 4100 942 4425 
Q 1341 4750 2034 4750 
Q 2731 4750 3128 4425 
Q 3525 4100 3525 3541 
Q 3525 3141 3298 2862 
Q 3072 2584 2669 2484 
Q 3125 2378 3379 2068 
Q 3634 1759 3634 1313 
Q 3634 634 3220 271 
Q 2806 -91 2034 -91 
Q 1263 -91 848 271 
Q 434 634 434 1313 
Q 434 1759 690 2068 
Q 947 2378 1403 2484 
z
M 1172 3481 
Q 1172 3119 1398 2916 
Q 1625 2713 2034 2713 
Q 2441 2713 2670 2916 
Q 2900 3119 2900 3481 
Q 2900 3844 2670 4047 
Q 2441 4250 2034 4250 
Q 1625 4250 1398 4047 
Q 1172 3844 1172 3481 
z
" transform="scale(0.015625)"/>
       </defs>
       <use xlink:href="#DejaVuSans-30"/>
       <use xlink:href="#DejaVuSans-2e" transform="translate(63.623047 0)"/>
       <use xlink:href="#DejaVuSans-38" transform="translate(95.410156 0)"/>
      </g>
     </g>
    </g>
    <g id="ytick_6">
     <g id="line2d_25">
      <path d="M 68.69 37.407273 
L 853.2 37.407273 
" clip-path="url(#pe9446cb4ae)" style="fill: none; stroke: #b0b0b0; stroke-width: 0.8; stroke-linecap: square"/>
     </g>
     <g id="line2d_26">
      <g>
       <use xlink:href="#mdc24b61c8a" x="68.69" y="37.407273" style="stroke: #000000; stroke-width: 0.8"/>
      </g>
     </g>
     <g id="text_13">
      <!-- 1.0 -->
      <g transform="translate(45.786875 41.206491) scale(0.1 -0.1)">
       <use xlink:href="#DejaVuSans-31"/>
       <use xlink:href="#DejaVuSans-2e" transform="translate(63.623047 0)"/>
       <use xlink:href="#DejaVuSans-30" transform="translate(95.410156 0)"/>
      </g>
     </g>
    </g>
    <g id="text_14">
     <!-- Std Dev -->
     <g transform="translate(39.707187 162.463594) rotate(-90) scale(0.1 -0.1)">
      <defs>
       <path id="DejaVuSans-53" d="M 3425 4513 
L 3425 3897 
Q 3066 4069 2747 4153 
Q 2428 4238 2131 4238 
Q 1616 4238 1336 4038 
Q 1056 3838 1056 3469 
Q 1056 3159 1242 3001 
Q 1428 2844 1947 2747 
L 2328 2669 
Q 3034 2534 3370 2195 
Q 3706 1856 3706 1288 
Q 3706 609 3251 259 
Q 2797 -91 1919 -91 
Q 1588 -91 1214 -16 
Q 841 59 441 206 
L 441 856 
Q 825 641 1194 531 
Q 1563 422 1919 422 
Q 2459 422 2753 634 
Q 3047 847 3047 1241 
Q 3047 1584 2836 1778 
Q 2625 1972 2144 2069 
L 1759 2144 
Q 1053 2284 737 2584 
Q 422 2884 422 3419 
Q 422 4038 858 4394 
Q 1294 4750 2059 4750 
Q 2388 4750 2728 4690 
Q 3069 4631 3425 4513 
z
" transform="scale(0.015625)"/>
       <path id="DejaVuSans-74" d="M 1172 4494 
L 1172 3500 
L 2356 3500 
L 2356 3053 
L 1172 3053 
L 1172 1153 
Q 1172 725 1289 603 
Q 1406 481 1766 481 
L 2356 481 
L 2356 0 
L 1766 0 
Q 1100 0 847 248 
Q 594 497 594 1153 
L 594 3053 
L 172 3053 
L 172 3500 
L 594 3500 
L 594 4494 
L 1172 4494 
z
" transform="scale(0.015625)"/>
       <path id="DejaVuSans-64" d="M 2906 2969 
L 2906 4863 
L 3481 4863 
L 3481 0 
L 2906 0 
L 2906 525 
Q 2725 213 2448 61 
Q 2172 -91 1784 -91 
Q 1150 -91 751 415 
Q 353 922 353 1747 
Q 353 2572 751 3078 
Q 1150 3584 1784 3584 
Q 2172 3584 2448 3432 
Q 2725 3281 2906 2969 
z
M 947 1747 
Q 947 1113 1208 752 
Q 1469 391 1925 391 
Q 2381 391 2643 752 
Q 2906 1113 2906 1747 
Q 2906 2381 2643 2742 
Q 2381 3103 1925 3103 
Q 1469 3103 1208 2742 
Q 947 2381 947 1747 
z
" transform="scale(0.015625)"/>
       <path id="DejaVuSans-20" transform="scale(0.015625)"/>
       <path id="DejaVuSans-44" d="M 1259 4147 
L 1259 519 
L 2022 519 
Q 2988 519 3436 956 
Q 3884 1394 3884 2338 
Q 3884 3275 3436 3711 
Q 2988 4147 2022 4147 
L 1259 4147 
z
M 628 4666 
L 1925 4666 
Q 3281 4666 3915 4102 
Q 4550 3538 4550 2338 
Q 4550 1131 3912 565 
Q 3275 0 1925 0 
L 628 0 
L 628 4666 
z
" transform="scale(0.015625)"/>
       <path id="DejaVuSans-65" d="M 3597 1894 
L 3597 1613 
L 953 1613 
Q 991 1019 1311 708 
Q 1631 397 2203 397 
Q 2534 397 2845 478 
Q 3156 559 3463 722 
L 3463 178 
Q 3153 47 2828 -22 
Q 2503 -91 2169 -91 
Q 1331 -91 842 396 
Q 353 884 353 1716 
Q 353 2575 817 3079 
Q 1281 3584 2069 3584 
Q 2775 3584 3186 3129 
Q 3597 2675 3597 1894 
z
M 3022 2063 
Q 3016 2534 2758 2815 
Q 2500 3097 2075 3097 
Q 1594 3097 1305 2825 
Q 1016 2553 972 2059 
L 3022 2063 
z
" transform="scale(0.015625)"/>
       <path id="DejaVuSans-76" d="M 191 3500 
L 800 3500 
L 1894 563 
L 2988 3500 
L 3597 3500 
L 2284 0 
L 1503 0 
L 191 3500 
z
" transform="scale(0.015625)"/>
      </defs>
      <use xlink:href="#DejaVuSans-53"/>
      <use xlink:href="#DejaVuSans-74" transform="translate(63.476562 0)"/>
      <use xlink:href="#DejaVuSans-64" transform="translate(102.685547 0)"/>
      <use xlink:href="#DejaVuSans-20" transform="translate(166.162109 0)"/>
      <use xlink:href="#DejaVuSans-44" transform="translate(197.949219 0)"/>
      <use xlink:href="#DejaVuSans-65" transform="translate(274.951172 0)"/>
      <use xlink:href="#DejaVuSans-76" transform="translate(336.474609 0)"/>
     </g>
    </g>
   </g>
   <g id="line2d_27">
    <path d="M 104.349545 228.070688 
L 123.458503 228.070688 
L 123.555503 231.316227 
L 123.798002 241.317185 
L 124.040502 243.195883 
L 124.331501 243.881823 
L 124.7195 244.245108 
L 125.349999 244.492541 
L 126.513996 244.66746 
L 129.08449 244.784726 
L 136.407974 244.833716 
L 147.465949 244.838746 
L 147.611449 246.356498 
L 148.775446 246.717854 
L 150.860942 246.799957 
L 159.348423 246.83515 
L 159.493922 247.072786 
L 160.948919 247.31939 
L 164.440911 247.379446 
L 171.230896 247.392021 
L 171.376396 247.570252 
L 183.11337 247.635858 
L 183.258869 247.767431 
L 228.509268 247.912364 
L 342.047515 247.952691 
L 342.193015 228.070688 
L 361.204972 228.070688 
L 361.301972 231.316725 
L 361.544472 241.316964 
L 361.786971 243.195333 
L 362.077971 243.881153 
L 362.46597 244.244422 
L 363.096468 244.491942 
L 364.260466 244.667137 
L 366.83096 244.785153 
L 374.105944 244.83555 
L 385.212419 244.840473 
L 385.357919 246.357331 
L 386.521916 246.71795 
L 388.607411 246.79995 
L 397.094892 246.835296 
L 397.240392 247.072893 
L 398.695389 247.31958 
L 402.187381 247.379602 
L 408.977366 247.392124 
L 409.122866 247.570514 
L 420.859839 247.635923 
L 421.005339 247.767442 
L 466.304238 247.912402 
L 579.793985 247.952727 
L 579.939485 37.407273 
L 598.951442 37.407273 
L 598.999942 48.578519 
L 599.145442 214.427925 
L 599.339441 216.698514 
L 599.581941 217.04913 
L 600.01844 217.189448 
L 601.279437 217.267986 
L 607.293424 217.302814 
L 622.958889 217.305939 
L 623.104388 237.533874 
L 623.298388 239.474477 
L 623.589387 240.186459 
L 623.977386 240.516557 
L 624.607885 240.722661 
L 625.917382 240.868657 
L 629.166875 240.95251 
L 634.841362 240.964753 
L 634.986862 246.831624 
L 635.71436 247.182145 
L 636.878358 247.283511 
L 641.097848 247.341142 
L 646.723836 247.348855 
L 646.869335 247.535893 
L 658.606309 247.625503 
L 658.751809 247.76194 
L 696.630224 247.892518 
L 817.540455 247.947767 
L 817.540455 247.947767 
" clip-path="url(#pe9446cb4ae)" style="fill: none; stroke: #0000ff; stroke-width: 1.5; stroke-linecap: square"/>
   </g>
   <g id="line2d_28">
    <path d="M 104.349545 228.070688 
L 123.458503 228.070688 
L 123.555503 231.315862 
L 123.798002 241.317307 
L 124.040502 243.195982 
L 124.331501 243.881869 
L 124.7195 244.245265 
L 125.349999 244.492714 
L 126.513996 244.667552 
L 129.13299 244.785753 
L 136.553474 244.83345 
L 147.465949 244.838399 
L 147.611449 246.356341 
L 148.775446 246.717807 
L 150.860942 246.799926 
L 159.348423 246.835115 
L 159.493922 247.072796 
L 160.948919 247.319397 
L 164.440911 247.379444 
L 171.230896 247.39202 
L 171.376396 247.570254 
L 183.11337 247.635847 
L 183.258869 247.767493 
L 228.606268 247.912372 
L 342.047515 247.952699 
L 342.193015 228.070688 
L 361.204972 228.070688 
L 361.301972 231.316315 
L 361.544472 241.316985 
L 361.786971 243.195305 
L 362.077971 243.881075 
L 362.46597 244.244479 
L 363.096468 244.492036 
L 364.260466 244.667155 
L 366.87946 244.786189 
L 374.251443 244.83542 
L 385.212419 244.84022 
L 385.357919 246.357207 
L 386.521916 246.717922 
L 388.607411 246.799932 
L 397.094892 246.835262 
L 397.240392 247.072882 
L 398.695389 247.319567 
L 402.187381 247.379585 
L 408.977366 247.392109 
L 409.122866 247.570502 
L 420.859839 247.635902 
L 421.005339 247.767481 
L 466.401238 247.912398 
L 579.793985 247.952724 
L 579.939485 37.407273 
L 598.951442 37.407273 
L 598.999942 48.58842 
L 599.145442 214.430902 
L 599.339441 216.698788 
L 599.581941 217.052051 
L 600.01844 217.191365 
L 601.327937 217.271871 
L 608.311921 217.306939 
L 622.958889 217.311641 
L 623.104388 237.532863 
L 623.298388 239.473538 
L 623.589387 240.185336 
L 623.977386 240.5153 
L 624.607885 240.721337 
L 625.917382 240.867302 
L 629.166875 240.951353 
L 634.841362 240.963761 
L 634.986862 246.831803 
L 635.71436 247.182158 
L 636.878358 247.283501 
L 641.097848 247.341151 
L 646.723836 247.348863 
L 646.869335 247.535836 
L 658.606309 247.625429 
L 658.751809 247.761917 
L 696.630224 247.89251 
L 817.540455 247.947762 
L 817.540455 247.947762 
" clip-path="url(#pe9446cb4ae)" style="fill: none; stroke-dasharray: 5.55,2.4; stroke-dashoffset: 0; stroke: #ff0000; stroke-width: 1.5"/>
   </g>
   <g id="line2d_29">
    <path d="M 342.096015 258.48 
L 342.096015 26.88 
" clip-path="url(#pe9446cb4ae)" style="fill: none; stroke-dasharray: 1.5,2.475; stroke-dashoffset: 0; stroke: #808080; stroke-opacity: 0.6; stroke-width: 1.5"/>
   </g>
   <g id="line2d_30">
    <path d="M 579.842485 258.48 
L 579.842485 26.88 
" clip-path="url(#pe9446cb4ae)" style="fill: none; stroke-dasharray: 1.5,2.475; stroke-dashoffset: 0; stroke: #808080; stroke-opacity: 0.6; stroke-width: 1.5"/>
   </g>
   <g id="patch_3">
    <path d="M 68.69 258.48 
L 68.69 26.88 
" style="fill: none; stroke: #000000; stroke-width: 0.8; stroke-linejoin: miter; stroke-linecap: square"/>
   </g>
   <g id="patch_4">
    <path d="M 853.2 258.48 
L 853.2 26.88 
" style="fill: none; stroke: #000000; stroke-width: 0.8; stroke-linejoin: miter; stroke-linecap: square"/>
   </g>
   <g id="patch_5">
    <path d="M 68.69 258.48 
L 853.2 258.48 
" style="fill: none; stroke: #000000; stroke-width: 0.8; stroke-linejoin: miter; stroke-linecap: square"/>
   </g>
   <g id="patch_6">
    <path d="M 68.69 26.88 
L 853.2 26.88 
" style="fill: none; stroke: #000000; stroke-width: 0.8; stroke-linejoin: miter; stroke-linecap: square"/>
   </g>
   <g id="text_15">
    <!-- [30] rx_x  —  Uncertainty (std dev) -->
    <g transform="translate(356.794375 20.88) scale(0.12 -0.12)">
     <defs>
      <path id="DejaVuSans-5b" d="M 550 4863 
L 1875 4863 
L 1875 4416 
L 1125 4416 
L 1125 -397 
L 1875 -397 
L 1875 -844 
L 550 -844 
L 550 4863 
z
" transform="scale(0.015625)"/>
      <path id="DejaVuSans-5d" d="M 1947 4863 
L 1947 -844 
L 622 -844 
L 622 -397 
L 1369 -397 
L 1369 4416 
L 622 4416 
L 622 4863 
L 1947 4863 
z
" transform="scale(0.015625)"/>
      <path id="DejaVuSans-72" d="M 2631 2963 
Q 2534 3019 2420 3045 
Q 2306 3072 2169 3072 
Q 1681 3072 1420 2755 
Q 1159 2438 1159 1844 
L 1159 0 
L 581 0 
L 581 3500 
L 1159 3500 
L 1159 2956 
Q 1341 3275 1631 3429 
Q 1922 3584 2338 3584 
Q 2397 3584 2469 3576 
Q 2541 3569 2628 3553 
L 2631 2963 
z
" transform="scale(0.015625)"/>
      <path id="DejaVuSans-78" d="M 3513 3500 
L 2247 1797 
L 3578 0 
L 2900 0 
L 1881 1375 
L 863 0 
L 184 0 
L 1544 1831 
L 300 3500 
L 978 3500 
L 1906 2253 
L 2834 3500 
L 3513 3500 
z
" transform="scale(0.015625)"/>
      <path id="DejaVuSans-5f" d="M 3263 -1063 
L 3263 -1509 
L -63 -1509 
L -63 -1063 
L 3263 -1063 
z
" transform="scale(0.015625)"/>
      <path id="DejaVuSans-2014" d="M 313 1978 
L 6088 1978 
L 6088 1528 
L 313 1528 
L 313 1978 
z
" transform="scale(0.015625)"/>
      <path id="DejaVuSans-55" d="M 556 4666 
L 1191 4666 
L 1191 1831 
Q 1191 1081 1462 751 
Q 1734 422 2344 422 
Q 2950 422 3222 751 
Q 3494 1081 3494 1831 
L 3494 4666 
L 4128 4666 
L 4128 1753 
Q 4128 841 3676 375 
Q 3225 -91 2344 -91 
Q 1459 -91 1007 375 
Q 556 841 556 1753 
L 556 4666 
z
" transform="scale(0.015625)"/>
      <path id="DejaVuSans-6e" d="M 3513 2113 
L 3513 0 
L 2938 0 
L 2938 2094 
Q 2938 2591 2744 2837 
Q 2550 3084 2163 3084 
Q 1697 3084 1428 2787 
Q 1159 2491 1159 1978 
L 1159 0 
L 581 0 
L 581 3500 
L 1159 3500 
L 1159 2956 
Q 1366 3272 1645 3428 
Q 1925 3584 2291 3584 
Q 2894 3584 3203 3211 
Q 3513 2838 3513 2113 
z
" transform="scale(0.015625)"/>
      <path id="DejaVuSans-63" d="M 3122 3366 
L 3122 2828 
Q 2878 2963 2633 3030 
Q 2388 3097 2138 3097 
Q 1578 3097 1268 2742 
Q 959 2388 959 1747 
Q 959 1106 1268 751 
Q 1578 397 2138 397 
Q 2388 397 2633 464 
Q 2878 531 3122 666 
L 3122 134 
Q 2881 22 2623 -34 
Q 2366 -91 2075 -91 
Q 1284 -91 818 406 
Q 353 903 353 1747 
Q 353 2603 823 3093 
Q 1294 3584 2113 3584 
Q 2378 3584 2631 3529 
Q 2884 3475 3122 3366 
z
" transform="scale(0.015625)"/>
      <path id="DejaVuSans-61" d="M 2194 1759 
Q 1497 1759 1228 1600 
Q 959 1441 959 1056 
Q 959 750 1161 570 
Q 1363 391 1709 391 
Q 2188 391 2477 730 
Q 2766 1069 2766 1631 
L 2766 1759 
L 2194 1759 
z
M 3341 1997 
L 3341 0 
L 2766 0 
L 2766 531 
Q 2569 213 2275 61 
Q 1981 -91 1556 -91 
Q 1019 -91 701 211 
Q 384 513 384 1019 
Q 384 1609 779 1909 
Q 1175 2209 1959 2209 
L 2766 2209 
L 2766 2266 
Q 2766 2663 2505 2880 
Q 2244 3097 1772 3097 
Q 1472 3097 1187 3025 
Q 903 2953 641 2809 
L 641 3341 
Q 956 3463 1253 3523 
Q 1550 3584 1831 3584 
Q 2591 3584 2966 3190 
Q 3341 2797 3341 1997 
z
" transform="scale(0.015625)"/>
      <path id="DejaVuSans-69" d="M 603 3500 
L 1178 3500 
L 1178 0 
L 603 0 
L 603 3500 
z
M 603 4863 
L 1178 4863 
L 1178 4134 
L 603 4134 
L 603 4863 
z
" transform="scale(0.015625)"/>
      <path id="DejaVuSans-79" d="M 2059 -325 
Q 1816 -950 1584 -1140 
Q 1353 -1331 966 -1331 
L 506 -1331 
L 506 -850 
L 844 -850 
Q 1081 -850 1212 -737 
Q 1344 -625 1503 -206 
L 1606 56 
L 191 3500 
L 800 3500 
L 1894 763 
L 2988 3500 
L 3597 3500 
L 2059 -325 
z
" transform="scale(0.015625)"/>
      <path id="DejaVuSans-28" d="M 1984 4856 
Q 1566 4138 1362 3434 
Q 1159 2731 1159 2009 
Q 1159 1288 1364 580 
Q 1569 -128 1984 -844 
L 1484 -844 
Q 1016 -109 783 600 
Q 550 1309 550 2009 
Q 550 2706 781 3412 
Q 1013 4119 1484 4856 
L 1984 4856 
z
" transform="scale(0.015625)"/>
      <path id="DejaVuSans-73" d="M 2834 3397 
L 2834 2853 
Q 2591 2978 2328 3040 
Q 2066 3103 1784 3103 
Q 1356 3103 1142 2972 
Q 928 2841 928 2578 
Q 928 2378 1081 2264 
Q 1234 2150 1697 2047 
L 1894 2003 
Q 2506 1872 2764 1633 
Q 3022 1394 3022 966 
Q 3022 478 2636 193 
Q 2250 -91 1575 -91 
Q 1294 -91 989 -36 
Q 684 19 347 128 
L 347 722 
Q 666 556 975 473 
Q 1284 391 1588 391 
Q 1994 391 2212 530 
Q 2431 669 2431 922 
Q 2431 1156 2273 1281 
Q 2116 1406 1581 1522 
L 1381 1569 
Q 847 1681 609 1914 
Q 372 2147 372 2553 
Q 372 3047 722 3315 
Q 1072 3584 1716 3584 
Q 2034 3584 2315 3537 
Q 2597 3491 2834 3397 
z
" transform="scale(0.015625)"/>
      <path id="DejaVuSans-29" d="M 513 4856 
L 1013 4856 
Q 1481 4119 1714 3412 
Q 1947 2706 1947 2009 
Q 1947 1309 1714 600 
Q 1481 -109 1013 -844 
L 513 -844 
Q 928 -128 1133 580 
Q 1338 1288 1338 2009 
Q 1338 2731 1133 3434 
Q 928 4138 513 4856 
z
" transform="scale(0.015625)"/>
     </defs>
     <use xlink:href="#DejaVuSans-5b"/>
     <use xlink:href="#DejaVuSans-33" transform="translate(39.013672 0)"/>
     <use xlink:href="#DejaVuSans-30" transform="translate(102.636719 0)"/>
     <use xlink:href="#DejaVuSans-5d" transform="translate(166.259766 0)"/>
     <use xlink:href="#DejaVuSans-20" transform="translate(205.273438 0)"/>
     <use xlink:href="#DejaVuSans-72" transform="translate(237.060547 0)"/>
     <use xlink:href="#DejaVuSans-78" transform="translate(275.548828 0)"/>
     <use xlink:href="#DejaVuSans-5f" transform="translate(334.728516 0)"/>
     <use xlink:href="#DejaVuSans-78" transform="translate(384.728516 0)"/>
     <use xlink:href="#DejaVuSans-20" transform="translate(443.908203 0)"/>
     <use xlink:href="#DejaVuSans-20" transform="translate(475.695312 0)"/>
     <use xlink:href="#DejaVuSans-2014" transform="translate(507.482422 0)"/>
     <use xlink:href="#DejaVuSans-20" transform="translate(607.482422 0)"/>
     <use xlink:href="#DejaVuSans-20" transform="translate(639.269531 0)"/>
     <use xlink:href="#DejaVuSans-55" transform="translate(671.056641 0)"/>
     <use xlink:href="#DejaVuSans-6e" transform="translate(744.25 0)"/>
     <use xlink:href="#DejaVuSans-63" transform="translate(807.628906 0)"/>
     <use xlink:href="#DejaVuSans-65" transform="translate(862.609375 0)"/>
     <use xlink:href="#DejaVuSans-72" transform="translate(924.132812 0)"/>
     <use xlink:href="#DejaVuSans-74" transform="translate(965.246094 0)"/>
     <use xlink:href="#DejaVuSans-61" transform="translate(1004.455078 0)"/>
     <use xlink:href="#DejaVuSans-69" transform="translate(1065.734375 0)"/>
     <use xlink:href="#DejaVuSans-6e" transform="translate(1093.517578 0)"/>
     <use xlink:href="#DejaVuSans-74" transform="translate(1156.896484 0)"/>
     <use xlink:href="#DejaVuSans-79" transform="translate(1196.105469 0)"/>
     <use xlink:href="#DejaVuSans-20" transform="translate(1255.285156 0)"/>
     <use xlink:href="#DejaVuSans-28" transform="translate(1287.072266 0)"/>
     <use xlink:href="#DejaVuSans-73" transform="translate(1326.085938 0)"/>
     <use xlink:href="#DejaVuSans-74" transform="translate(1378.185547 0)"/>
     <use xlink:href="#DejaVuSans-64" transform="translate(1417.394531 0)"/>
     <use xlink:href="#DejaVuSans-20" transform="translate(1480.871094 0)"/>
     <use xlink:href="#DejaVuSans-64" transform="translate(1512.658203 0)"/>
     <use xlink:href="#DejaVuSans-65" transform="translate(1576.134766 0)"/>
     <use xlink:href="#DejaVuSans-76" transform="translate(1637.658203 0)"/>
     <use xlink:href="#DejaVuSans-29" transform="translate(1696.837891 0)"/>
    </g>
   </g>
   <g id="legend_1">
    <g id="patch_7">
     <path d="M 734.342187 64.23625 
L 846.2 64.23625 
Q 848.2 64.23625 848.2 62.23625 
L 848.2 33.88 
Q 848.2 31.88 846.2 31.88 
L 734.342187 31.88 
Q 732.342187 31.88 732.342187 33.88 
L 732.342187 62.23625 
Q 732.342187 64.23625 734.342187 64.23625 
z
" style="fill: #ffffff; opacity: 0.8; stroke: #cccccc; stroke-linejoin: miter"/>
    </g>
    <g id="line2d_31">
     <path d="M 736.342187 39.978437 
L 746.342187 39.978437 
L 756.342187 39.978437 
" style="fill: none; stroke: #0000ff; stroke-width: 1.5; stroke-linecap: square"/>
    </g>
    <g id="text_16">
     <!-- Ideal (No Noise) -->
     <g transform="translate(764.342187 43.478437) scale(0.1 -0.1)">
      <defs>
       <path id="DejaVuSans-49" d="M 628 4666 
L 1259 4666 
L 1259 0 
L 628 0 
L 628 4666 
z
" transform="scale(0.015625)"/>
       <path id="DejaVuSans-6c" d="M 603 4863 
L 1178 4863 
L 1178 0 
L 603 0 
L 603 4863 
z
" transform="scale(0.015625)"/>
       <path id="DejaVuSans-4e" d="M 628 4666 
L 1478 4666 
L 3547 763 
L 3547 4666 
L 4159 4666 
L 4159 0 
L 3309 0 
L 1241 3903 
L 1241 0 
L 628 0 
L 628 4666 
z
" transform="scale(0.015625)"/>
       <path id="DejaVuSans-6f" d="M 1959 3097 
Q 1497 3097 1228 2736 
Q 959 2375 959 1747 
Q 959 1119 1226 758 
Q 1494 397 1959 397 
Q 2419 397 2687 759 
Q 2956 1122 2956 1747 
Q 2956 2369 2687 2733 
Q 2419 3097 1959 3097 
z
M 1959 3584 
Q 2709 3584 3137 3096 
Q 3566 2609 3566 1747 
Q 3566 888 3137 398 
Q 2709 -91 1959 -91 
Q 1206 -91 779 398 
Q 353 888 353 1747 
Q 353 2609 779 3096 
Q 1206 3584 1959 3584 
z
" transform="scale(0.015625)"/>
      </defs>
      <use xlink:href="#DejaVuSans-49"/>
      <use xlink:href="#DejaVuSans-64" transform="translate(29.492188 0)"/>
      <use xlink:href="#DejaVuSans-65" transform="translate(92.96875 0)"/>
      <use xlink:href="#DejaVuSans-61" transform="translate(154.492188 0)"/>
      <use xlink:href="#DejaVuSans-6c" transform="translate(215.771484 0)"/>
      <use xlink:href="#DejaVuSans-20" transform="translate(243.554688 0)"/>
      <use xlink:href="#DejaVuSans-28" transform="translate(275.341797 0)"/>
      <use xlink:href="#DejaVuSans-4e" transform="translate(314.355469 0)"/>
      <use xlink:href="#DejaVuSans-6f" transform="translate(389.160156 0)"/>
      <use xlink:href="#DejaVuSans-20" transform="translate(450.341797 0)"/>
      <use xlink:href="#DejaVuSans-4e" transform="translate(482.128906 0)"/>
      <use xlink:href="#DejaVuSans-6f" transform="translate(556.933594 0)"/>
      <use xlink:href="#DejaVuSans-69" transform="translate(618.115234 0)"/>
      <use xlink:href="#DejaVuSans-73" transform="translate(645.898438 0)"/>
      <use xlink:href="#DejaVuSans-65" transform="translate(697.998047 0)"/>
      <use xlink:href="#DejaVuSans-29" transform="translate(759.521484 0)"/>
     </g>
    </g>
    <g id="line2d_32">
     <path d="M 736.342187 54.656562 
L 746.342187 54.656562 
L 756.342187 54.656562 
" style="fill: none; stroke-dasharray: 5.55,2.4; stroke-dashoffset: 0; stroke: #ff0000; stroke-width: 1.5"/>
    </g>
    <g id="text_17">
     <!-- With Full Noise -->
     <g transform="translate(764.342187 58.156562) scale(0.1 -0.1)">
      <defs>
       <path id="DejaVuSans-57" d="M 213 4666 
L 850 4666 
L 1831 722 
L 2809 4666 
L 3519 4666 
L 4500 722 
L 5478 4666 
L 6119 4666 
L 4947 0 
L 4153 0 
L 3169 4050 
L 2175 0 
L 1381 0 
L 213 4666 
z
" transform="scale(0.015625)"/>
       <path id="DejaVuSans-68" d="M 3513 2113 
L 3513 0 
L 2938 0 
L 2938 2094 
Q 2938 2591 2744 2837 
Q 2550 3084 2163 3084 
Q 1697 3084 1428 2787 
Q 1159 2491 1159 1978 
L 1159 0 
L 581 0 
L 581 4863 
L 1159 4863 
L 1159 2956 
Q 1366 3272 1645 3428 
Q 1925 3584 2291 3584 
Q 2894 3584 3203 3211 
Q 3513 2838 3513 2113 
z
" transform="scale(0.015625)"/>
       <path id="DejaVuSans-46" d="M 628 4666 
L 3309 4666 
L 3309 4134 
L 1259 4134 
L 1259 2759 
L 3109 2759 
L 3109 2228 
L 1259 2228 
L 1259 0 
L 628 0 
L 628 4666 
z
" transform="scale(0.015625)"/>
       <path id="DejaVuSans-75" d="M 544 1381 
L 544 3500 
L 1119 3500 
L 1119 1403 
Q 1119 906 1312 657 
Q 1506 409 1894 409 
Q 2359 409 2629 706 
Q 2900 1003 2900 1516 
L 2900 3500 
L 3475 3500 
L 3475 0 
L 2900 0 
L 2900 538 
Q 2691 219 2414 64 
Q 2138 -91 1772 -91 
Q 1169 -91 856 284 
Q 544 659 544 1381 
z
M 1991 3584 
L 1991 3584 
z
" transform="scale(0.015625)"/>
      </defs>
      <use xlink:href="#DejaVuSans-57"/>
      <use xlink:href="#DejaVuSans-69" transform="translate(96.626953 0)"/>
      <use xlink:href="#DejaVuSans-74" transform="translate(124.410156 0)"/>
      <use xlink:href="#DejaVuSans-68" transform="translate(163.619141 0)"/>
      <use xlink:href="#DejaVuSans-20" transform="translate(226.998047 0)"/>
      <use xlink:href="#DejaVuSans-46" transform="translate(258.785156 0)"/>
      <use xlink:href="#DejaVuSans-75" transform="translate(310.804688 0)"/>
      <use xlink:href="#DejaVuSans-6c" transform="translate(374.183594 0)"/>
      <use xlink:href="#DejaVuSans-6c" transform="translate(401.966797 0)"/>
      <use xlink:href="#DejaVuSans-20" transform="translate(429.75 0)"/>
      <use xlink:href="#DejaVuSans-4e" transform="translate(461.537109 0)"/>
      <use xlink:href="#DejaVuSans-6f" transform="translate(536.341797 0)"/>
      <use xlink:href="#DejaVuSans-69" transform="translate(597.523438 0)"/>
      <use xlink:href="#DejaVuSans-73" transform="translate(625.306641 0)"/>
      <use xlink:href="#DejaVuSans-65" transform="translate(677.40625 0)"/>
     </g>
    </g>
   </g>
  </g>
  <g id="axes_2">
   <g id="patch_8">
    <path d="M 68.69 534.04 
L 853.2 534.04 
L 853.2 302.44 
L 68.69 302.44 
z
" style="fill: #ffffff"/>
   </g>
   <g id="matplotlib.axis_3">
    <g id="xtick_8">
     <g id="line2d_33">
      <path d="M 104.349545 534.04 
L 104.349545 302.44 
" clip-path="url(#p90d7af9572)" style="fill: none; stroke: #b0b0b0; stroke-width: 0.8; stroke-linecap: square"/>
     </g>
     <g id="line2d_34">
      <g>
       <use xlink:href="#m82a5bdb1b5" x="104.349545" y="534.04" style="stroke: #000000; stroke-width: 0.8"/>
      </g>
     </g>
     <g id="text_18">
      <!-- 0 -->
      <g transform="translate(101.168295 548.638438) scale(0.1 -0.1)">
       <use xlink:href="#DejaVuSans-30"/>
      </g>
     </g>
    </g>
    <g id="xtick_9">
     <g id="line2d_35">
      <path d="M 225.599275 534.04 
L 225.599275 302.44 
" clip-path="url(#p90d7af9572)" style="fill: none; stroke: #b0b0b0; stroke-width: 0.8; stroke-linecap: square"/>
     </g>
     <g id="line2d_36">
      <g>
       <use xlink:href="#m82a5bdb1b5" x="225.599275" y="534.04" style="stroke: #000000; stroke-width: 0.8"/>
      </g>
     </g>
     <g id="text_19">
      <!-- 50 -->
      <g transform="translate(219.236775 548.638438) scale(0.1 -0.1)">
       <use xlink:href="#DejaVuSans-35"/>
       <use xlink:href="#DejaVuSans-30" transform="translate(63.623047 0)"/>
      </g>
     </g>
    </g>
    <g id="xtick_10">
     <g id="line2d_37">
      <path d="M 346.849005 534.04 
L 346.849005 302.44 
" clip-path="url(#p90d7af9572)" style="fill: none; stroke: #b0b0b0; stroke-width: 0.8; stroke-linecap: square"/>
     </g>
     <g id="line2d_38">
      <g>
       <use xlink:href="#m82a5bdb1b5" x="346.849005" y="534.04" style="stroke: #000000; stroke-width: 0.8"/>
      </g>
     </g>
     <g id="text_20">
      <!-- 100 -->
      <g transform="translate(337.305255 548.638438) scale(0.1 -0.1)">
       <use xlink:href="#DejaVuSans-31"/>
       <use xlink:href="#DejaVuSans-30" transform="translate(63.623047 0)"/>
       <use xlink:href="#DejaVuSans-30" transform="translate(127.246094 0)"/>
      </g>
     </g>
    </g>
    <g id="xtick_11">
     <g id="line2d_39">
      <path d="M 468.098734 534.04 
L 468.098734 302.44 
" clip-path="url(#p90d7af9572)" style="fill: none; stroke: #b0b0b0; stroke-width: 0.8; stroke-linecap: square"/>
     </g>
     <g id="line2d_40">
      <g>
       <use xlink:href="#m82a5bdb1b5" x="468.098734" y="534.04" style="stroke: #000000; stroke-width: 0.8"/>
      </g>
     </g>
     <g id="text_21">
      <!-- 150 -->
      <g transform="translate(458.554984 548.638438) scale(0.1 -0.1)">
       <use xlink:href="#DejaVuSans-31"/>
       <use xlink:href="#DejaVuSans-35" transform="translate(63.623047 0)"/>
       <use xlink:href="#DejaVuSans-30" transform="translate(127.246094 0)"/>
      </g>
     </g>
    </g>
    <g id="xtick_12">
     <g id="line2d_41">
      <path d="M 589.348464 534.04 
L 589.348464 302.44 
" clip-path="url(#p90d7af9572)" style="fill: none; stroke: #b0b0b0; stroke-width: 0.8; stroke-linecap: square"/>
     </g>
     <g id="line2d_42">
      <g>
       <use xlink:href="#m82a5bdb1b5" x="589.348464" y="534.04" style="stroke: #000000; stroke-width: 0.8"/>
      </g>
     </g>
     <g id="text_22">
      <!-- 200 -->
      <g transform="translate(579.804714 548.638438) scale(0.1 -0.1)">
       <use xlink:href="#DejaVuSans-32"/>
       <use xlink:href="#DejaVuSans-30" transform="translate(63.623047 0)"/>
       <use xlink:href="#DejaVuSans-30" transform="translate(127.246094 0)"/>
      </g>
     </g>
    </g>
    <g id="xtick_13">
     <g id="line2d_43">
      <path d="M 710.598193 534.04 
L 710.598193 302.44 
" clip-path="url(#p90d7af9572)" style="fill: none; stroke: #b0b0b0; stroke-width: 0.8; stroke-linecap: square"/>
     </g>
     <g id="line2d_44">
      <g>
       <use xlink:href="#m82a5bdb1b5" x="710.598193" y="534.04" style="stroke: #000000; stroke-width: 0.8"/>
      </g>
     </g>
     <g id="text_23">
      <!-- 250 -->
      <g transform="translate(701.054443 548.638438) scale(0.1 -0.1)">
       <use xlink:href="#DejaVuSans-32"/>
       <use xlink:href="#DejaVuSans-35" transform="translate(63.623047 0)"/>
       <use xlink:href="#DejaVuSans-30" transform="translate(127.246094 0)"/>
      </g>
     </g>
    </g>
    <g id="xtick_14">
     <g id="line2d_45">
      <path d="M 831.847923 534.04 
L 831.847923 302.44 
" clip-path="url(#p90d7af9572)" style="fill: none; stroke: #b0b0b0; stroke-width: 0.8; stroke-linecap: square"/>
     </g>
     <g id="line2d_46">
      <g>
       <use xlink:href="#m82a5bdb1b5" x="831.847923" y="534.04" style="stroke: #000000; stroke-width: 0.8"/>
      </g>
     </g>
     <g id="text_24">
      <!-- 300 -->
      <g transform="translate(822.304173 548.638438) scale(0.1 -0.1)">
       <use xlink:href="#DejaVuSans-33"/>
       <use xlink:href="#DejaVuSans-30" transform="translate(63.623047 0)"/>
       <use xlink:href="#DejaVuSans-30" transform="translate(127.246094 0)"/>
      </g>
     </g>
    </g>
    <g id="text_25">
     <!-- Time (s) -->
     <g transform="translate(440.616094 562.316562) scale(0.1 -0.1)">
      <defs>
       <path id="DejaVuSans-54" d="M -19 4666 
L 3928 4666 
L 3928 4134 
L 2272 4134 
L 2272 0 
L 1638 0 
L 1638 4134 
L -19 4134 
L -19 4666 
z
" transform="scale(0.015625)"/>
       <path id="DejaVuSans-6d" d="M 3328 2828 
Q 3544 3216 3844 3400 
Q 4144 3584 4550 3584 
Q 5097 3584 5394 3201 
Q 5691 2819 5691 2113 
L 5691 0 
L 5113 0 
L 5113 2094 
Q 5113 2597 4934 2840 
Q 4756 3084 4391 3084 
Q 3944 3084 3684 2787 
Q 3425 2491 3425 1978 
L 3425 0 
L 2847 0 
L 2847 2094 
Q 2847 2600 2669 2842 
Q 2491 3084 2119 3084 
Q 1678 3084 1418 2786 
Q 1159 2488 1159 1978 
L 1159 0 
L 581 0 
L 581 3500 
L 1159 3500 
L 1159 2956 
Q 1356 3278 1631 3431 
Q 1906 3584 2284 3584 
Q 2666 3584 2933 3390 
Q 3200 3197 3328 2828 
z
" transform="scale(0.015625)"/>
      </defs>
      <use xlink:href="#DejaVuSans-54"/>
      <use xlink:href="#DejaVuSans-69" transform="translate(57.958984 0)"/>
      <use xlink:href="#DejaVuSans-6d" transform="translate(85.742188 0)"/>
      <use xlink:href="#DejaVuSans-65" transform="translate(183.154297 0)"/>
      <use xlink:href="#DejaVuSans-20" transform="translate(244.677734 0)"/>
      <use xlink:href="#DejaVuSans-28" transform="translate(276.464844 0)"/>
      <use xlink:href="#DejaVuSans-73" transform="translate(315.478516 0)"/>
      <use xlink:href="#DejaVuSans-29" transform="translate(367.578125 0)"/>
     </g>
    </g>
   </g>
   <g id="matplotlib.axis_4">
    <g id="ytick_7">
     <g id="line2d_47">
      <path d="M 68.69 492.249759 
L 853.2 492.249759 
" clip-path="url(#p90d7af9572)" style="fill: none; stroke: #b0b0b0; stroke-width: 0.8; stroke-linecap: square"/>
     </g>
     <g id="line2d_48">
      <g>
       <use xlink:href="#mdc24b61c8a" x="68.69" y="492.249759" style="stroke: #000000; stroke-width: 0.8"/>
      </g>
     </g>
     <g id="text_26">
      <!-- −0.015 -->
      <g transform="translate(24.682187 496.048978) scale(0.1 -0.1)">
       <defs>
        <path id="DejaVuSans-2212" d="M 678 2272 
L 4684 2272 
L 4684 1741 
L 678 1741 
L 678 2272 
z
" transform="scale(0.015625)"/>
       </defs>
       <use xlink:href="#DejaVuSans-2212"/>
       <use xlink:href="#DejaVuSans-30" transform="translate(83.789062 0)"/>
       <use xlink:href="#DejaVuSans-2e" transform="translate(147.412109 0)"/>
       <use xlink:href="#DejaVuSans-30" transform="translate(179.199219 0)"/>
       <use xlink:href="#DejaVuSans-31" transform="translate(242.822266 0)"/>
       <use xlink:href="#DejaVuSans-35" transform="translate(306.445312 0)"/>
      </g>
     </g>
    </g>
    <g id="ytick_8">
     <g id="line2d_49">
      <path d="M 68.69 447.17019 
L 853.2 447.17019 
" clip-path="url(#p90d7af9572)" style="fill: none; stroke: #b0b0b0; stroke-width: 0.8; stroke-linecap: square"/>
     </g>
     <g id="line2d_50">
      <g>
       <use xlink:href="#mdc24b61c8a" x="68.69" y="447.17019" style="stroke: #000000; stroke-width: 0.8"/>
      </g>
     </g>
     <g id="text_27">
      <!-- −0.010 -->
      <g transform="translate(24.682187 450.969409) scale(0.1 -0.1)">
       <use xlink:href="#DejaVuSans-2212"/>
       <use xlink:href="#DejaVuSans-30" transform="translate(83.789062 0)"/>
       <use xlink:href="#DejaVuSans-2e" transform="translate(147.412109 0)"/>
       <use xlink:href="#DejaVuSans-30" transform="translate(179.199219 0)"/>
       <use xlink:href="#DejaVuSans-31" transform="translate(242.822266 0)"/>
       <use xlink:href="#DejaVuSans-30" transform="translate(306.445312 0)"/>
      </g>
     </g>
    </g>
    <g id="ytick_9">
     <g id="line2d_51">
      <path d="M 68.69 402.090621 
L 853.2 402.090621 
" clip-path="url(#p90d7af9572)" style="fill: none; stroke: #b0b0b0; stroke-width: 0.8; stroke-linecap: square"/>
     </g>
     <g id="line2d_52">
      <g>
       <use xlink:href="#mdc24b61c8a" x="68.69" y="402.090621" style="stroke: #000000; stroke-width: 0.8"/>
      </g>
     </g>
     <g id="text_28">
      <!-- −0.005 -->
      <g transform="translate(24.682187 405.889839) scale(0.1 -0.1)">
       <use xlink:href="#DejaVuSans-2212"/>
       <use xlink:href="#DejaVuSans-30" transform="translate(83.789062 0)"/>
       <use xlink:href="#DejaVuSans-2e" transform="translate(147.412109 0)"/>
       <use xlink:href="#DejaVuSans-30" transform="translate(179.199219 0)"/>
       <use xlink:href="#DejaVuSans-30" transform="translate(242.822266 0)"/>
       <use xlink:href="#DejaVuSans-35" transform="translate(306.445312 0)"/>
      </g>
     </g>
    </g>
    <g id="ytick_10">
     <g id="line2d_53">
      <path d="M 68.69 357.011051 
L 853.2 357.011051 
" clip-path="url(#p90d7af9572)" style="fill: none; stroke: #b0b0b0; stroke-width: 0.8; stroke-linecap: square"/>
     </g>
     <g id="line2d_54">
      <g>
       <use xlink:href="#mdc24b61c8a" x="68.69" y="357.011051" style="stroke: #000000; stroke-width: 0.8"/>
      </g>
     </g>
     <g id="text_29">
      <!-- 0.000 -->
      <g transform="translate(33.061875 360.81027) scale(0.1 -0.1)">
       <use xlink:href="#DejaVuSans-30"/>
       <use xlink:href="#DejaVuSans-2e" transform="translate(63.623047 0)"/>
       <use xlink:href="#DejaVuSans-30" transform="translate(95.410156 0)"/>
       <use xlink:href="#DejaVuSans-30" transform="translate(159.033203 0)"/>
       <use xlink:href="#DejaVuSans-30" transform="translate(222.65625 0)"/>
      </g>
     </g>
    </g>
    <g id="ytick_11">
     <g id="line2d_55">
      <path d="M 68.69 311.931482 
L 853.2 311.931482 
" clip-path="url(#p90d7af9572)" style="fill: none; stroke: #b0b0b0; stroke-width: 0.8; stroke-linecap: square"/>
     </g>
     <g id="line2d_56">
      <g>
       <use xlink:href="#mdc24b61c8a" x="68.69" y="311.931482" style="stroke: #000000; stroke-width: 0.8"/>
      </g>
     </g>
     <g id="text_30">
      <!-- 0.005 -->
      <g transform="translate(33.061875 315.730701) scale(0.1 -0.1)">
       <use xlink:href="#DejaVuSans-30"/>
       <use xlink:href="#DejaVuSans-2e" transform="translate(63.623047 0)"/>
       <use xlink:href="#DejaVuSans-30" transform="translate(95.410156 0)"/>
       <use xlink:href="#DejaVuSans-30" transform="translate(159.033203 0)"/>
       <use xlink:href="#DejaVuSans-35" transform="translate(222.65625 0)"/>
      </g>
     </g>
    </g>
    <g id="text_31">
     <!-- Estimated Value -->
     <g transform="translate(18.6025 458.818906) rotate(-90) scale(0.1 -0.1)">
      <defs>
       <path id="DejaVuSans-45" d="M 628 4666 
L 3578 4666 
L 3578 4134 
L 1259 4134 
L 1259 2753 
L 3481 2753 
L 3481 2222 
L 1259 2222 
L 1259 531 
L 3634 531 
L 3634 0 
L 628 0 
L 628 4666 
z
" transform="scale(0.015625)"/>
       <path id="DejaVuSans-56" d="M 1831 0 
L 50 4666 
L 709 4666 
L 2188 738 
L 3669 4666 
L 4325 4666 
L 2547 0 
L 1831 0 
z
" transform="scale(0.015625)"/>
      </defs>
      <use xlink:href="#DejaVuSans-45"/>
      <use xlink:href="#DejaVuSans-73" transform="translate(63.183594 0)"/>
      <use xlink:href="#DejaVuSans-74" transform="translate(115.283203 0)"/>
      <use xlink:href="#DejaVuSans-69" transform="translate(154.492188 0)"/>
      <use xlink:href="#DejaVuSans-6d" transform="translate(182.275391 0)"/>
      <use xlink:href="#DejaVuSans-61" transform="translate(279.6875 0)"/>
      <use xlink:href="#DejaVuSans-74" transform="translate(340.966797 0)"/>
      <use xlink:href="#DejaVuSans-65" transform="translate(380.175781 0)"/>
      <use xlink:href="#DejaVuSans-64" transform="translate(441.699219 0)"/>
      <use xlink:href="#DejaVuSans-20" transform="translate(505.175781 0)"/>
      <use xlink:href="#DejaVuSans-56" transform="translate(536.962891 0)"/>
      <use xlink:href="#DejaVuSans-61" transform="translate(597.621094 0)"/>
      <use xlink:href="#DejaVuSans-6c" transform="translate(658.900391 0)"/>
      <use xlink:href="#DejaVuSans-75" transform="translate(686.683594 0)"/>
      <use xlink:href="#DejaVuSans-65" transform="translate(750.0625 0)"/>
     </g>
    </g>
   </g>
   <g id="line2d_57">
    <path d="M 104.349545 357.011051 
L 123.458503 357.011048 
L 123.507003 316.010542 
L 123.555503 354.486751 
L 123.749502 454.314263 
L 123.943502 465.964251 
L 124.186001 469.429056 
L 124.477001 470.858393 
L 124.865 471.644099 
L 125.349999 472.074584 
L 125.980497 472.317471 
L 126.998995 472.443866 
L 128.890491 472.417184 
L 143.197959 471.835152 
L 147.465949 471.806653 
L 147.611449 464.258116 
L 148.387447 452.300538 
L 148.775446 450.559991 
L 149.260445 449.389463 
L 149.842444 448.596806 
L 150.521442 448.050838 
L 151.44294 447.615074 
L 152.703938 447.285434 
L 154.595433 447.045221 
L 157.359927 446.931437 
L 159.348423 446.931437 
L 159.396923 457.326567 
L 159.493922 457.036657 
L 160.172921 453.287696 
L 160.60942 452.470646 
L 161.142919 451.949696 
L 161.918917 451.533312 
L 163.082914 451.188753 
L 165.02291 450.872051 
L 168.417903 450.570268 
L 170.260898 450.560873 
L 171.230896 450.560873 
L 171.376396 448.390592 
L 171.764395 448.275415 
L 172.976892 447.857437 
L 174.771388 447.508712 
L 177.729882 447.184372 
L 181.270374 447.002847 
L 183.11337 447.002847 
L 183.258869 444.752273 
L 183.889368 444.880785 
L 185.247365 445.000695 
L 188.739357 445.013956 
L 194.995843 444.979738 
L 195.141343 446.655733 
L 197.129838 446.617171 
L 206.926817 446.49219 
L 207.217816 445.347447 
L 207.605815 445.268493 
L 209.98231 445.261108 
L 218.76079 445.306274 
L 218.90629 445.026481 
L 219.245789 444.856013 
L 220.312787 444.801114 
L 229.624766 444.716908 
L 230.643264 444.716908 
L 230.788763 445.098363 
L 234.280756 444.912569 
L 241.701239 444.710068 
L 242.525737 444.710068 
L 242.622737 445.211756 
L 242.671237 445.206977 
L 244.417233 445.050352 
L 249.121723 445.067327 
L 256.590706 445.079266 
L 261.149696 444.986044 
L 266.290684 444.970052 
L 266.436184 445.157226 
L 270.025176 445.259134 
L 281.66515 445.552859 
L 287.776136 445.664076 
L 290.055631 445.664076 
L 290.201131 445.856014 
L 300.192109 445.355224 
L 301.938105 445.355224 
L 302.083604 445.206762 
L 305.430097 444.344979 
L 308.291591 444.048901 
L 311.880583 443.897955 
L 313.772078 443.897955 
L 313.917578 444.248095 
L 315.809074 444.541437 
L 319.495066 444.895286 
L 323.908556 445.111453 
L 325.654552 445.111453 
L 325.800051 445.497434 
L 328.225046 445.670479 
L 334.045033 445.792071 
L 337.537025 445.801744 
L 337.682525 445.53542 
L 339.234521 445.65462 
L 342.047515 445.770774 
L 342.193015 357.011051 
L 361.204972 357.011051 
L 361.253472 356.88704 
L 361.495972 364.85268 
L 361.689971 365.514058 
L 361.980971 365.739513 
L 362.659969 365.874736 
L 365.084964 366.017682 
L 371.971948 366.207318 
L 377.985935 366.128878 
L 385.212419 365.998231 
L 385.357919 361.9302 
L 386.133917 358.974652 
L 386.570416 358.502484 
L 387.200915 358.167665 
L 388.219412 357.91365 
L 390.062408 357.721408 
L 393.8454 357.59 
L 397.094892 357.580484 
L 397.288892 357.294782 
L 397.822391 356.536157 
L 398.35589 356.2785 
L 399.325887 356.104926 
L 401.605382 355.973524 
L 407.716369 355.888269 
L 420.859839 355.87888 
L 421.005339 356.0418 
L 432.742313 356.203256 
L 432.887813 357.277017 
L 440.356796 357.359085 
L 473.142723 357.346362 
L 489.778186 357.310517 
L 527.802101 357.356509 
L 527.947601 357.532153 
L 531.633592 357.444664 
L 552.100547 357.168447 
L 556.999036 357.297989 
L 579.793985 357.506769 
L 579.939485 357.011051 
L 598.951442 357.011051 
L 598.999942 356.018176 
L 599.145442 359.539352 
L 600.212439 359.560964 
L 603.752931 359.459094 
L 609.330419 359.363893 
L 622.958889 359.346274 
L 623.201388 356.215574 
L 623.395388 356.090853 
L 624.510885 356.114597 
L 632.658867 356.189848 
L 634.841362 356.189848 
L 634.889862 353.848849 
L 634.986862 353.858753 
L 636.102359 353.993785 
L 640.46735 354.021888 
L 646.723836 354.019283 
L 646.869335 354.812205 
L 658.606309 354.987888 
L 658.751809 355.500871 
L 669.761284 355.620351 
L 670.488783 355.620351 
L 670.634282 355.926244 
L 692.653233 355.957206 
L 729.90115 356.064533 
L 730.04665 356.131823 
L 743.28712 356.110674 
L 753.666097 356.135014 
L 753.811597 356.062169 
L 765.548571 356.093616 
L 765.69407 356.356484 
L 768.216065 356.40191 
L 777.431044 356.42537 
L 777.576544 356.701062 
L 780.826036 356.661251 
L 789.459017 356.646034 
L 795.279004 356.705418 
L 817.540455 356.814638 
L 817.540455 356.814638 
" clip-path="url(#p90d7af9572)" style="fill: none; stroke: #0000ff; stroke-width: 1.5; stroke-linecap: square"/>
   </g>
   <g id="line2d_58">
    <path d="M 104.349545 357.011051 
L 123.458503 357.011052 
L 123.507003 312.967273 
L 123.555503 367.078904 
L 123.749502 496.577711 
L 123.798002 505.237007 
L 123.846502 495.872307 
L 124.040502 475.349314 
L 124.574 510.412522 
L 124.671 507.792991 
L 124.865 501.815954 
L 124.9135 501.616092 
L 125.010499 502.347103 
L 125.252999 497.883812 
L 125.446998 494.364078 
L 125.786498 486.804151 
L 125.883497 487.118127 
L 125.980497 486.275668 
L 126.028997 486.333539 
L 126.174497 486.836356 
L 126.271497 486.685298 
L 126.707996 485.445733 
L 126.853495 486.34752 
L 127.095995 485.401395 
L 127.144495 485.475335 
L 127.192994 485.413137 
L 127.483994 487.349721 
L 127.968993 493.126146 
L 128.308492 497.434566 
L 128.356992 497.423055 
L 128.453992 497.880247 
L 128.841991 501.97125 
L 128.938991 502.354176 
L 129.27849 504.954813 
L 129.472489 505.58384 
L 129.569489 505.316205 
L 129.617989 505.409952 
L 129.763489 505.479738 
L 129.908988 505.630761 
L 130.878986 509.568775 
L 131.121486 510.626752 
L 131.315485 511.337795 
L 131.606485 512.452361 
L 131.800484 512.914051 
L 132.818982 516.205466 
L 133.109981 517.023942 
L 133.49798 517.728902 
L 133.59498 517.743591 
L 133.64348 517.634752 
L 133.69198 517.737596 
L 133.88598 518.262763 
L 134.273979 519.104893 
L 134.613478 519.396389 
L 134.904477 520.04651 
L 135.389476 520.866548 
L 135.728975 521.046148 
L 136.553474 521.355571 
L 136.892973 521.266446 
L 137.426472 521.415714 
L 138.444969 521.53271 
L 138.590469 521.467294 
L 138.978468 521.465348 
L 139.172468 521.625215 
L 139.511967 521.923279 
L 139.657467 522.062765 
L 139.899966 522.222923 
L 140.142466 522.304353 
L 141.063964 523.066995 
L 141.403463 523.070586 
L 142.130961 523.210095 
L 142.71296 522.960873 
L 142.955459 523.054825 
L 143.100959 523.175446 
L 143.343458 523.263955 
L 143.779957 523.363535 
L 144.216457 523.498837 
L 144.410456 523.457596 
L 147.465949 523.464487 
L 147.611449 501.504965 
L 148.338947 480.391868 
L 149.066446 473.266461 
L 149.454445 471.998367 
L 149.551445 472.026999 
L 149.648444 471.673335 
L 149.987944 473.549699 
L 150.084943 473.293468 
L 150.133443 473.243211 
L 150.181943 473.310469 
L 150.327443 473.500267 
L 150.424443 473.320827 
L 150.521442 473.387345 
L 150.666942 473.129459 
L 150.715442 473.218677 
L 150.812442 473.453726 
L 150.860942 473.428823 
L 150.957941 473.370833 
L 151.151941 473.627862 
L 151.49144 473.052977 
L 151.53994 473.11195 
L 151.68544 473.121654 
L 151.879439 473.033539 
L 152.267439 473.403007 
L 152.509938 473.124034 
L 152.558438 473.106219 
L 153.528436 475.582004 
L 153.576936 475.541713 
L 153.867935 475.528036 
L 154.207434 476.032773 
L 154.255934 475.992976 
L 154.352934 475.971921 
L 154.643933 475.594832 
L 155.128932 474.926509 
L 155.419932 475.26384 
L 155.662431 475.51701 
L 156.24443 475.32057 
L 156.389929 475.269654 
L 156.632429 475.005528 
L 157.311427 474.997374 
L 159.348423 474.997374 
L 159.396923 478.241147 
L 159.493922 477.826032 
L 159.590922 477.091642 
L 159.687922 477.944854 
L 159.736422 477.768992 
L 159.784922 477.349474 
L 159.833422 477.615212 
L 159.881922 477.930987 
L 159.930421 477.585306 
L 160.221421 475.719861 
L 160.318421 475.670526 
L 160.46392 475.206216 
L 160.70642 473.594794 
L 161.191419 472.075114 
L 161.336918 471.976493 
L 161.579418 471.587959 
L 161.627918 471.654664 
L 161.967417 470.697243 
L 162.015917 470.747102 
L 162.306916 470.177609 
L 162.403916 470.049269 
L 162.452416 470.089542 
L 162.646415 470.456705 
L 162.743415 470.785759 
L 162.791915 470.767716 
L 162.985915 470.636524 
L 163.179914 470.609251 
L 163.276914 470.739159 
L 163.519413 471.33031 
L 163.664913 471.370839 
L 163.858913 471.626708 
L 164.295412 472.406136 
L 164.392412 472.509663 
L 164.440911 472.43644 
L 164.683411 472.346264 
L 164.780411 472.395228 
L 165.07141 471.959518 
L 165.750408 471.680786 
L 166.283907 471.740659 
L 166.526407 471.576081 
L 166.914406 471.794923 
L 167.059906 471.819022 
L 167.350905 471.682907 
L 167.496405 471.657073 
L 168.126903 471.15648 
L 168.466402 471.109787 
L 168.611902 471.186494 
L 171.230896 471.186494 
L 171.279396 464.967118 
L 171.376396 465.223613 
L 171.667395 465.117441 
L 171.764395 464.819275 
L 172.055394 463.570608 
L 172.249394 463.037329 
L 172.346394 463.249003 
L 172.540393 463.612273 
L 172.879893 462.945883 
L 172.928392 463.021502 
L 173.122392 463.405996 
L 173.267892 463.370197 
L 173.413391 463.388663 
L 173.510391 463.2958 
L 174.819888 460.192685 
L 175.110888 459.948448 
L 175.353387 460.162704 
L 175.644386 459.670287 
L 175.789886 459.527414 
L 175.983886 459.544714 
L 176.032386 459.458886 
L 176.080885 459.50235 
L 176.565884 459.834498 
L 176.711384 459.584193 
L 176.953883 459.197498 
L 177.147883 459.006616 
L 177.487382 458.494013 
L 177.681382 458.497034 
L 177.875381 458.590084 
L 178.117881 458.66376 
L 178.40888 458.769546 
L 178.845379 458.835071 
L 179.087879 458.737748 
L 179.524378 458.861537 
L 179.718377 458.601939 
L 179.766877 458.632515 
L 179.912377 458.758566 
L 180.154876 458.632977 
L 180.300376 458.540858 
L 180.591375 458.5849 
L 183.11337 458.5849 
L 183.307369 458.861282 
L 183.549869 458.993345 
L 183.840868 458.712 
L 184.083368 459.094823 
L 184.228867 459.25043 
L 184.471367 459.022309 
L 184.907866 458.880891 
L 185.344365 458.515475 
L 185.586864 458.478981 
L 185.926363 458.129881 
L 186.120363 458.238492 
L 186.362863 458.27477 
L 186.605362 458.35457 
L 187.28436 458.030803 
L 187.866359 458.05187 
L 188.302858 457.963182 
L 188.836357 457.975882 
L 189.078856 457.938696 
L 189.272856 457.879455 
L 189.854855 457.829102 
L 190.339854 457.815083 
L 190.533853 457.845759 
L 191.164352 457.500348 
L 192.376849 456.565725 
L 194.995843 456.565725 
L 195.092843 462.571577 
L 195.141343 462.569768 
L 195.335342 462.281174 
L 195.771842 461.327259 
L 196.790339 459.885371 
L 197.032839 459.716994 
L 197.420838 459.326444 
L 198.390836 458.476053 
L 198.681835 458.359274 
L 199.118334 458.133336 
L 199.603333 457.932832 
L 200.330831 457.375882 
L 201.05833 457.018843 
L 201.834328 456.773731 
L 202.222327 456.501276 
L 204.453322 455.969086 
L 206.926817 455.930875 
L 207.266316 454.74328 
L 207.605815 454.659815 
L 211.728306 454.627686 
L 218.76079 454.649356 
L 219.00329 454.21177 
L 219.294289 454.124051 
L 219.876288 454.130179 
L 222.398282 453.952364 
L 230.643264 453.78651 
L 230.788763 454.293265 
L 231.273762 454.707134 
L 231.564762 454.661808 
L 232.53476 454.66293 
L 233.601757 454.799101 
L 235.929752 454.859906 
L 239.712744 454.750073 
L 242.525737 454.750772 
L 242.574237 455.692275 
L 242.671237 455.681994 
L 243.301735 455.737194 
L 243.689735 455.42102 
L 244.417233 455.281499 
L 244.805232 455.377238 
L 245.193231 455.275239 
L 245.484231 455.225691 
L 247.327227 455.111406 
L 248.006225 455.092905 
L 248.345724 455.121696 
L 248.733723 455.204192 
L 249.170222 455.185807 
L 249.606721 455.221622 
L 249.897721 455.265269 
L 250.38272 455.175616 
L 251.207218 455.020176 
L 251.546717 454.991522 
L 252.419715 455.024124 
L 254.408211 455.024124 
L 254.55371 455.130361 
L 256.493706 454.940823 
L 267.357682 454.841215 
L 277.25166 454.719261 
L 278.173158 454.719261 
L 278.318657 455.027839 
L 280.404153 455.233065 
L 290.055631 455.55745 
L 290.201131 454.637322 
L 290.54063 454.394191 
L 290.78313 454.454739 
L 291.122629 453.896437 
L 291.462128 453.385496 
L 291.898627 452.773705 
L 292.092627 452.523277 
L 292.432126 452.0474 
L 292.723125 452.077927 
L 293.111124 451.531219 
L 293.935623 450.94571 
L 294.081122 450.809173 
L 294.323622 450.506583 
L 294.90562 450.013144 
L 295.05112 450.054152 
L 295.536119 449.499017 
L 296.215117 448.776466 
L 297.621614 448.198067 
L 298.058113 448.216456 
L 298.494612 447.918745 
L 298.737112 447.996215 
L 299.852609 447.822783 
L 301.938105 447.822783 
L 301.986605 448.373343 
L 302.083604 448.343214 
L 302.520103 448.195226 
L 303.393101 447.847964 
L 305.915096 447.429924 
L 308.097591 447.271652 
L 310.280086 447.164958 
L 312.753581 447.139495 
L 313.772078 447.139495 
L 313.869078 447.545636 
L 313.917578 447.527876 
L 314.693576 447.298233 
L 315.809074 446.745511 
L 316.003073 446.761059 
L 316.342573 446.745467 
L 316.779072 446.549605 
L 317.36107 446.107719 
L 317.65207 446.169695 
L 317.991569 446.099947 
L 318.234068 446.127496 
L 318.670567 446.063654 
L 318.913067 446.035913 
L 319.204066 445.844373 
L 319.640565 445.596741 
L 320.077064 445.427628 
L 321.338061 445.02149 
L 321.726061 444.726961 
L 322.11406 444.530813 
L 322.696058 444.429741 
L 324.684554 444.419437 
L 337.537025 444.520333 
L 337.682525 444.273686 
L 337.973524 444.156542 
L 338.458523 444.006862 
L 339.81652 443.641085 
L 340.786518 443.593399 
L 341.805016 443.529643 
L 342.047515 443.522775 
L 342.193015 357.011051 
L 361.204972 357.011057 
L 361.301972 380.280978 
L 361.447472 419.927195 
L 361.786971 378.795216 
L 361.835471 382.008875 
L 362.32047 410.57729 
L 362.41747 407.747078 
L 362.611469 401.450427 
L 362.659969 401.189229 
L 362.708469 401.461524 
L 362.756969 401.806127 
L 362.999468 397.130052 
L 363.193468 393.492047 
L 363.532967 385.78447 
L 363.629967 386.072002 
L 363.726967 385.201786 
L 363.775467 385.248312 
L 363.920966 385.721778 
L 364.017966 385.551911 
L 364.454465 384.255686 
L 364.599965 385.147247 
L 364.842464 384.180428 
L 364.890964 384.250708 
L 364.939464 384.184675 
L 365.230464 386.119274 
L 365.715462 391.910374 
L 366.054962 396.239519 
L 366.103462 396.227943 
L 366.200461 396.692508 
L 366.58846 400.824852 
L 366.68546 401.215131 
L 367.02496 403.845662 
L 367.218959 404.49056 
L 367.315959 404.223604 
L 367.364459 404.32143 
L 367.509958 404.401263 
L 367.655458 404.559254 
L 368.673956 408.750019 
L 368.819456 409.362664 
L 369.158955 410.906899 
L 369.595454 412.198073 
L 369.934953 413.001386 
L 370.662451 415.908592 
L 371.050451 416.706488 
L 371.34145 417.098879 
L 371.38995 416.988676 
L 371.43845 417.096061 
L 371.632449 417.644285 
L 372.068948 418.566436 
L 372.262948 418.584932 
L 373.329945 420.646082 
L 373.572445 420.69952 
L 374.251443 421.046312 
L 374.736442 421.050973 
L 375.075942 421.228325 
L 375.415441 421.199697 
L 375.90044 421.315174 
L 376.239939 421.420291 
L 376.821938 421.428824 
L 377.258437 421.868785 
L 377.403936 422.017876 
L 377.646436 422.181911 
L 377.888935 422.278284 
L 378.810433 423.035665 
L 379.149932 423.040887 
L 380.022931 423.188398 
L 380.36243 422.950516 
L 380.750429 423.08636 
L 381.089928 423.280816 
L 381.526427 423.368211 
L 381.962926 423.50833 
L 382.156926 423.466314 
L 385.212419 423.475078 
L 385.357919 403.588085 
L 386.036917 389.07658 
L 386.667416 383.730385 
L 386.958415 382.781469 
L 387.394914 381.886263 
L 387.782913 383.963195 
L 387.831413 383.742989 
L 387.879913 383.712941 
L 387.928413 383.800257 
L 388.073913 384.046645 
L 388.122412 383.984801 
L 388.170912 383.907633 
L 388.219412 383.959292 
L 388.267912 384.010143 
L 388.316412 383.956454 
L 388.413412 383.798556 
L 388.461912 383.903277 
L 388.607411 384.157237 
L 388.704411 384.126352 
L 388.898411 384.429007 
L 389.23791 383.914081 
L 389.28641 383.979639 
L 389.43191 384.01198 
L 389.625909 383.952901 
L 390.013908 384.385404 
L 390.256408 384.136584 
L 390.304908 384.123667 
L 391.274905 386.703095 
L 391.323405 386.665802 
L 391.614405 386.673035 
L 391.953904 387.203687 
L 392.002404 387.16803 
L 392.099404 387.155079 
L 392.390403 386.795973 
L 392.875402 386.141888 
L 393.166401 386.489694 
L 393.408901 386.753256 
L 393.990899 386.565441 
L 394.136399 386.51451 
L 394.330399 386.301072 
L 394.524398 386.247295 
L 397.094892 386.247295 
L 397.240392 381.990109 
L 397.288892 381.504512 
L 397.337392 381.638818 
L 397.482892 382.937261 
L 397.531391 382.693826 
L 397.628391 383.571621 
L 397.676891 383.350428 
L 397.96789 381.995248 
L 398.06489 382.062435 
L 398.11339 382.01427 
L 398.16189 382.05203 
L 398.549889 380.004999 
L 398.598389 379.989747 
L 398.937888 379.021392 
L 399.083388 378.97244 
L 399.325887 378.659149 
L 399.374387 378.740151 
L 399.665387 377.845422 
L 399.713887 377.867819 
L 399.762386 377.927933 
L 400.053386 377.417128 
L 400.150386 377.306462 
L 400.198886 377.355136 
L 400.441385 377.959064 
L 400.586885 378.090717 
L 400.683884 378.077478 
L 400.780884 377.951491 
L 400.829384 378.006601 
L 400.974884 378.006685 
L 401.411383 378.805113 
L 401.605382 379.081236 
L 402.041881 379.904654 
L 402.138881 380.017244 
L 402.187381 379.948669 
L 402.429881 379.881452 
L 402.52688 379.93888 
L 402.81788 379.52836 
L 403.496878 379.301825 
L 404.030377 379.397875 
L 404.272876 379.250419 
L 404.660876 379.493869 
L 404.806375 379.526877 
L 405.097375 379.407585 
L 405.242874 379.389418 
L 405.727873 379.044323 
L 406.212872 378.897541 
L 406.358372 378.978781 
L 408.977366 378.978781 
L 409.025866 374.828835 
L 409.122866 375.121302 
L 409.462365 375.052149 
L 409.947364 373.247912 
L 410.044364 373.349222 
L 410.286863 373.949802 
L 410.529362 373.568929 
L 410.626362 373.383367 
L 410.674862 373.471448 
L 410.868862 373.904267 
L 411.014361 373.902081 
L 411.208361 373.933281 
L 411.305361 373.766021 
L 411.49936 373.351153 
L 411.59636 373.290718 
L 411.69336 373.114263 
L 412.323858 371.233071 
L 412.711858 370.844422 
L 412.905857 370.851302 
L 413.099857 371.023286 
L 413.390856 370.561589 
L 413.536356 370.433011 
L 413.730355 370.468759 
L 413.778855 370.387909 
L 413.827355 370.435848 
L 414.312354 370.809738 
L 414.457854 370.570886 
L 414.700353 370.203295 
L 414.894353 370.026646 
L 415.233852 369.537179 
L 415.427852 369.55272 
L 415.621851 369.657579 
L 415.864351 369.745284 
L 416.15535 369.867642 
L 416.591849 369.955648 
L 416.834348 369.870207 
L 417.270847 370.013819 
L 417.464847 369.763023 
L 417.513347 369.795644 
L 417.658847 369.927756 
L 417.901346 369.811789 
L 418.046846 369.725314 
L 418.337845 369.774435 
L 420.859839 369.774435 
L 420.956839 372.32572 
L 421.005339 372.323917 
L 421.247839 372.552874 
L 421.587338 372.195057 
L 421.635838 372.320349 
L 421.975337 372.708183 
L 422.217836 372.470398 
L 422.654335 372.319569 
L 423.090834 371.951264 
L 423.333334 371.91482 
L 423.672833 371.567596 
L 423.866833 371.677644 
L 424.109332 371.716498 
L 424.351832 371.798649 
L 425.03083 371.483275 
L 425.612829 371.512109 
L 426.049328 371.429325 
L 426.582827 371.449123 
L 426.825326 371.414943 
L 427.019326 371.358135 
L 427.601324 371.314811 
L 428.086323 371.306525 
L 428.280323 371.339336 
L 428.910821 371.001062 
L 430.123319 370.078083 
L 432.742313 370.078083 
L 432.839313 375.735764 
L 432.887813 375.73122 
L 433.081812 375.446194 
L 433.469811 374.610175 
L 434.00331 373.785596 
L 434.342809 373.379395 
L 434.633809 373.071595 
L 434.973308 372.758308 
L 435.506807 372.191668 
L 435.749306 371.987428 
L 435.991806 371.776105 
L 436.234305 371.721355 
L 436.670804 371.527368 
L 436.961803 371.416465 
L 437.107303 371.367942 
L 437.495302 371.107281 
L 438.950299 370.290252 
L 439.532298 370.136015 
L 440.017297 369.80886 
L 442.199792 369.307887 
L 445.497784 369.19694 
L 446.807282 369.134049 
L 452.336269 369.175693 
L 456.50726 369.159 
L 456.60426 369.231666 
L 456.846759 369.144707 
L 461.16325 369.032336 
L 462.812246 368.967653 
L 464.946241 368.92911 
L 468.001734 368.904469 
L 468.389733 368.904469 
L 468.535233 369.140451 
L 469.020232 369.585771 
L 469.311231 369.552886 
L 470.281229 369.587544 
L 471.348227 369.758266 
L 473.627722 369.891423 
L 474.937219 369.89177 
L 476.780215 369.867875 
L 479.05971 369.871922 
L 480.272207 369.871922 
L 480.417707 370.409749 
L 481.048205 370.540604 
L 481.436204 370.242788 
L 482.163703 370.115009 
L 482.551702 370.212683 
L 482.939701 370.110231 
L 483.2307 370.059688 
L 485.122196 369.934567 
L 486.140694 369.952327 
L 486.577193 369.977598 
L 487.110692 369.981161 
L 487.64419 370.052276 
L 488.129189 369.95656 
L 488.953688 369.788171 
L 489.293187 369.753147 
L 490.263185 369.781404 
L 492.979179 369.67044 
L 494.337176 369.662086 
L 496.228671 369.649899 
L 503.018656 369.705393 
L 504.037154 369.705393 
L 504.182654 369.493427 
L 515.289129 369.258363 
L 515.919627 369.258363 
L 516.065127 369.506151 
L 518.102123 369.560101 
L 519.654119 369.618197 
L 525.183107 369.740713 
L 527.802101 369.740713 
L 527.947601 368.861947 
L 528.2871 368.658604 
L 528.529599 368.747141 
L 528.869098 368.217866 
L 529.160098 367.789377 
L 530.324095 366.440243 
L 530.469595 366.481419 
L 530.857594 365.94891 
L 531.682092 365.389382 
L 531.827592 365.257091 
L 532.070091 364.961443 
L 532.65209 364.483405 
L 532.79759 364.527996 
L 533.282589 363.983439 
L 533.961587 363.273559 
L 535.368084 362.712664 
L 535.804583 362.734572 
L 536.241082 362.438969 
L 536.483581 362.518213 
L 537.599079 362.345517 
L 539.684574 362.345517 
L 539.733074 362.960706 
L 539.830074 362.944987 
L 540.363573 362.886529 
L 540.897072 362.787537 
L 551.518548 362.654775 
L 551.615548 362.83439 
L 551.664048 362.808487 
L 552.488546 362.437419 
L 553.555543 361.801543 
L 553.749543 361.796856 
L 554.089042 361.748801 
L 554.525541 361.514428 
L 555.10754 361.025751 
L 555.350039 361.076128 
L 556.417037 360.885902 
L 556.611037 360.85723 
L 556.902036 360.668659 
L 557.775034 360.178754 
L 558.745032 359.848139 
L 560.442528 359.053305 
L 563.401021 359.028476 
L 563.546521 358.654021 
L 568.44501 358.628683 
L 575.283495 358.604259 
L 577.32049 357.828232 
L 577.65999 357.844751 
L 578.290488 357.820199 
L 578.775487 357.760268 
L 579.114986 357.724506 
L 579.793985 357.657859 
L 579.939485 357.011052 
L 598.951442 357.011621 
L 598.999942 353.829855 
L 599.096942 451.885069 
L 599.145442 440.98126 
L 599.533441 375.026915 
L 600.06694 407.574738 
L 600.212439 401.569124 
L 600.406439 397.666481 
L 600.503439 398.208686 
L 600.745938 393.311329 
L 600.939938 389.777816 
L 601.279437 382.291933 
L 601.376437 382.696274 
L 601.473437 381.84936 
L 601.521936 381.950448 
L 601.667436 382.617737 
L 601.764436 382.462302 
L 601.909936 381.998146 
L 602.006935 382.147845 
L 602.103935 382.633605 
L 602.152435 382.422221 
L 602.200935 382.432421 
L 602.346435 383.516838 
L 602.685934 382.405661 
L 602.734434 382.530687 
L 602.879933 383.333061 
L 602.928433 383.202196 
L 603.413432 387.743432 
L 603.849931 393.083599 
L 603.995431 394.171801 
L 604.23793 396.712362 
L 604.28643 396.715977 
L 604.52893 398.054281 
L 604.965429 400.352369 
L 605.062429 400.135197 
L 605.110928 400.175974 
L 605.159428 400.283066 
L 605.207928 400.182749 
L 605.401928 400.186977 
L 605.741427 401.37393 
L 606.080926 402.561948 
L 606.517425 403.435982 
L 606.856925 404.827858 
L 607.438923 405.814864 
L 607.535923 405.778803 
L 607.972422 406.414421 
L 608.117922 406.578054 
L 608.263421 406.485953 
L 608.360421 406.70184 
L 608.554421 406.977872 
L 609.03942 407.50771 
L 609.281919 407.276897 
L 609.572918 407.747496 
L 609.669918 407.745537 
L 609.766918 407.829778 
L 610.009417 407.543804 
L 610.397417 407.897753 
L 610.930915 407.427624 
L 611.124915 407.451873 
L 611.318915 407.202323 
L 611.512914 407.228848 
L 612.531412 406.318902 
L 612.676912 406.550327 
L 613.25891 405.82318 
L 613.50141 406.042656 
L 613.598409 405.995716 
L 613.695409 406.140567 
L 613.743909 406.05285 
L 613.840909 405.815286 
L 613.889409 405.855283 
L 614.034909 405.864638 
L 614.131908 405.818703 
L 614.422908 405.96182 
L 614.519907 405.925812 
L 614.616907 406.037156 
L 614.665407 406.015996 
L 615.004906 406.425298 
L 615.683905 407.050686 
L 616.120404 408.14985 
L 616.362903 408.504614 
L 616.411403 408.605669 
L 616.459903 408.536715 
L 616.702403 408.494207 
L 617.284401 408.901006 
L 617.7209 409.052228 
L 617.7694 409.041311 
L 618.108899 408.362789 
L 618.448399 408.566534 
L 618.496899 408.583194 
L 618.739398 409.023068 
L 618.836398 409.031103 
L 619.078897 409.281749 
L 619.127397 409.289323 
L 619.224397 409.631831 
L 619.272897 409.615574 
L 619.757896 409.928641 
L 619.806396 409.900815 
L 619.951895 410.223157 
L 620.145895 410.2656 
L 620.291395 410.285277 
L 622.958889 410.285277 
L 623.201388 374.080493 
L 623.395388 378.275033 
L 623.540887 373.354862 
L 624.074386 391.716353 
L 624.122886 390.372268 
L 624.268386 386.957412 
L 624.316886 387.521911 
L 624.365385 387.607355 
L 624.559385 386.586098 
L 624.607885 386.786858 
L 624.656385 387.409673 
L 624.704885 387.012213 
L 624.753385 386.900026 
L 624.898884 385.536496 
L 624.947384 385.404273 
L 624.995884 385.612071 
L 625.189884 387.379307 
L 625.286883 387.809476 
L 625.674883 393.333596 
L 626.014382 398.770658 
L 626.64488 404.976862 
L 626.83888 405.483944 
L 626.88738 405.479391 
L 626.93588 405.100258 
L 627.03288 405.184357 
L 627.129879 405.28112 
L 627.226879 405.238715 
L 627.372379 406.122345 
L 627.517878 407.358715 
L 627.760378 408.999933 
L 627.857378 409.372527 
L 628.148377 410.515469 
L 628.342377 409.961453 
L 628.390876 410.102183 
L 628.536376 410.525457 
L 628.633376 411.269726 
L 628.730376 411.817995 
L 628.778876 411.594831 
L 628.972875 411.591124 
L 629.021375 411.780682 
L 629.118375 411.432827 
L 629.166875 411.461759 
L 629.360874 411.984159 
L 629.651874 413.501226 
L 629.942873 414.472488 
L 630.136873 414.688012 
L 630.185372 414.592316 
L 630.233872 414.681584 
L 630.379372 415.208053 
L 630.427872 415.132083 
L 630.573372 414.936531 
L 630.621872 415.000881 
L 631.25237 416.486476 
L 631.44637 416.558927 
L 632.270868 416.418459 
L 634.841362 416.418459 
L 634.889862 367.967629 
L 634.986862 368.355285 
L 635.035362 368.280601 
L 635.374861 374.082118 
L 635.520361 373.375013 
L 635.56886 372.805801 
L 635.61736 373.018791 
L 635.66586 373.040151 
L 635.71436 372.86252 
L 635.76286 373.063681 
L 635.90836 373.19916 
L 636.247859 371.402848 
L 636.393359 371.358985 
L 636.538858 370.620581 
L 636.587358 370.637529 
L 636.635858 370.727041 
L 636.781358 370.567545 
L 636.926857 370.462744 
L 637.072357 370.245607 
L 637.120857 370.349232 
L 637.411856 369.478017 
L 637.460356 369.52843 
L 637.508856 369.624521 
L 637.751356 369.147682 
L 637.945355 369.157986 
L 638.139355 369.657811 
L 638.333354 370.184119 
L 638.430354 370.255364 
L 638.527354 370.149329 
L 639.206352 371.159918 
L 639.303352 371.264536 
L 639.691351 372.359224 
L 639.885351 372.598814 
L 640.07935 372.446691 
L 640.32185 372.369541 
L 640.41885 372.070627 
L 640.46735 372.100176 
L 640.612849 371.978257 
L 641.049348 371.76229 
L 641.825347 371.76907 
L 642.019346 371.68239 
L 642.698345 371.951122 
L 643.813842 371.356664 
L 643.959342 371.410698 
L 644.104841 371.477275 
L 646.723836 371.477275 
L 646.772335 367.040031 
L 646.869335 367.170801 
L 647.063335 367.11494 
L 647.208835 367.293083 
L 647.693833 365.543545 
L 647.790833 365.732756 
L 648.033333 366.663891 
L 648.275832 366.408886 
L 648.372832 366.271227 
L 648.712331 367.078915 
L 648.954831 367.281159 
L 649.05183 367.111148 
L 649.24583 366.728439 
L 649.34283 366.705894 
L 649.43983 366.533431 
L 650.021828 364.795825 
L 650.409827 364.588566 
L 650.603827 364.510175 
L 650.846326 364.875704 
L 650.894826 364.843911 
L 651.088826 364.609551 
L 651.282825 364.413003 
L 651.476825 364.519427 
L 651.525325 364.438363 
L 651.573825 364.499315 
L 652.058824 365.025297 
L 652.204323 364.809502 
L 652.446823 364.457759 
L 652.640822 364.285152 
L 652.980322 363.861096 
L 653.174321 363.944189 
L 653.416821 364.15 
L 654.338319 364.765446 
L 654.580818 364.727653 
L 655.017317 364.99684 
L 655.211317 364.748652 
L 655.259817 364.794908 
L 655.405316 364.985767 
L 655.647816 364.923373 
L 655.744815 364.860151 
L 655.793315 364.896163 
L 656.035815 365.013189 
L 658.606309 365.013189 
L 658.751809 373.703402 
L 658.848809 373.773048 
L 659.333807 372.906084 
L 659.479307 372.975105 
L 659.576307 373.027437 
L 659.721807 373.042893 
L 660.012806 372.549263 
L 660.400805 372.144032 
L 660.837304 371.545378 
L 661.079804 371.406252 
L 661.419303 370.93985 
L 661.564802 371.025293 
L 661.807302 370.944387 
L 662.146801 370.930941 
L 662.437801 370.722223 
L 662.922799 370.461629 
L 663.213799 370.496154 
L 663.456298 370.416368 
L 663.650298 370.341763 
L 663.844297 370.302214 
L 664.183797 370.197257 
L 664.571796 370.216625 
L 664.814295 370.14522 
L 665.784293 369.989743 
L 666.075292 370.012713 
L 666.608791 369.760349 
L 667.04529 369.412752 
L 667.530289 369.111828 
L 667.966788 368.889936 
L 670.488783 368.889936 
L 670.537282 372.077287 
L 670.634282 372.028235 
L 670.828282 371.746678 
L 671.167781 371.040322 
L 671.264781 370.968976 
L 672.283279 369.993198 
L 672.477278 369.97318 
L 673.350276 369.327514 
L 673.495776 369.238656 
L 673.738275 369.08227 
L 674.029275 369.080992 
L 674.611273 368.903204 
L 675.193272 368.758988 
L 676.502769 368.217892 
L 677.521267 367.984393 
L 678.297265 367.819429 
L 680.334261 367.727405 
L 682.371256 367.727405 
L 682.565256 367.412804 
L 684.117252 367.403685 
L 694.350729 367.322619 
L 694.738728 367.235516 
L 701.043714 366.988996 
L 704.729706 366.969686 
L 706.281703 367.076959 
L 706.766702 368.02459 
L 707.203201 367.959178 
L 708.076199 368.02699 
L 708.803697 368.191115 
L 711.277192 368.409863 
L 711.762191 368.392362 
L 712.392689 368.368109 
L 713.411187 368.346359 
L 714.284185 368.327404 
L 716.757679 368.34066 
L 718.018677 368.34066 
L 718.164176 369.195825 
L 718.794675 369.318842 
L 719.231174 368.877524 
L 719.522173 368.878452 
L 719.910172 368.769383 
L 720.249672 368.938782 
L 720.637671 368.773552 
L 721.850168 368.590419 
L 722.189667 368.506281 
L 722.529166 368.521706 
L 722.868666 368.578346 
L 723.838664 368.59121 
L 724.178163 368.723211 
L 724.614662 368.666642 
L 725.778659 368.687786 
L 726.118158 368.597724 
L 726.312158 368.590485 
L 726.748657 368.400584 
L 728.785653 368.418006 
L 735.527137 368.529072 
L 736.400136 368.545166 
L 741.783624 368.582374 
L 741.929123 368.198548 
L 751.532102 367.728433 
L 753.666097 367.728433 
L 753.811597 368.299225 
L 754.878594 368.270419 
L 757.255089 368.213993 
L 762.881076 368.27413 
L 765.548571 368.27413 
L 765.69407 367.15499 
L 765.93657 366.883686 
L 765.98507 366.967489 
L 766.324569 367.068343 
L 767.246067 365.608807 
L 768.119065 364.829631 
L 768.216065 364.841664 
L 768.604064 364.292844 
L 769.428562 363.742029 
L 769.574062 363.610377 
L 769.816561 363.309286 
L 770.39856 362.830656 
L 770.544059 362.885239 
L 770.980558 362.409563 
L 771.465557 361.803371 
L 771.853556 361.604349 
L 772.193056 361.466706 
L 772.823554 361.043098 
L 773.066054 361.070812 
L 773.405553 361.116912 
L 773.551053 361.098322 
L 773.987552 360.797455 
L 774.230051 360.886851 
L 775.394049 360.719901 
L 777.431044 360.719901 
L 777.479544 362.33416 
L 777.576544 362.329727 
L 777.819043 362.301003 
L 778.304042 362.246947 
L 780.050038 362.242274 
L 782.863032 362.321724 
L 788.780019 362.383351 
L 789.944016 362.283609 
L 790.574515 361.739833 
L 791.253513 361.303043 
L 791.593012 361.301546 
L 792.70851 360.536935 
L 792.90251 360.500444 
L 793.096509 360.515092 
L 794.115007 360.296836 
L 794.503006 360.195836 
L 795.182004 359.735123 
L 795.376004 359.657504 
L 795.715503 359.518426 
L 796.103502 359.4067 
L 796.491501 359.20782 
L 798.188998 358.384041 
L 801.147491 358.353891 
L 801.292991 357.901924 
L 804.008985 357.86225 
L 813.369464 357.70194 
L 814.193962 357.353159 
L 815.357959 357.018562 
L 815.697459 357.020706 
L 816.036958 357.004586 
L 816.521957 356.945558 
L 816.861456 356.910521 
L 817.540455 356.845895 
L 817.540455 356.845895 
" clip-path="url(#p90d7af9572)" style="fill: none; stroke-dasharray: 5.55,2.4; stroke-dashoffset: 0; stroke: #ff0000; stroke-width: 1.5"/>
   </g>
   <g id="line2d_59">
    <path d="M 342.096015 534.04 
L 342.096015 302.44 
" clip-path="url(#p90d7af9572)" style="fill: none; stroke-dasharray: 1.5,2.475; stroke-dashoffset: 0; stroke: #808080; stroke-opacity: 0.6; stroke-width: 1.5"/>
   </g>
   <g id="line2d_60">
    <path d="M 579.842485 534.04 
L 579.842485 302.44 
" clip-path="url(#p90d7af9572)" style="fill: none; stroke-dasharray: 1.5,2.475; stroke-dashoffset: 0; stroke: #808080; stroke-opacity: 0.6; stroke-width: 1.5"/>
   </g>
   <g id="patch_9">
    <path d="M 68.69 534.04 
L 68.69 302.44 
" style="fill: none; stroke: #000000; stroke-width: 0.8; stroke-linejoin: miter; stroke-linecap: square"/>
   </g>
   <g id="patch_10">
    <path d="M 853.2 534.04 
L 853.2 302.44 
" style="fill: none; stroke: #000000; stroke-width: 0.8; stroke-linejoin: miter; stroke-linecap: square"/>
   </g>
   <g id="patch_11">
    <path d="M 68.69 534.04 
L 853.2 534.04 
" style="fill: none; stroke: #000000; stroke-width: 0.8; stroke-linejoin: miter; stroke-linecap: square"/>
   </g>
   <g id="patch_12">
    <path d="M 68.69 302.44 
L 853.2 302.44 
" style="fill: none; stroke: #000000; stroke-width: 0.8; stroke-linejoin: miter; stroke-linecap: square"/>
   </g>
   <g id="text_32">
    <!-- [30] rx_x  —  State Estimate -->
    <g transform="translate(376.391875 296.44) scale(0.12 -0.12)">
     <use xlink:href="#DejaVuSans-5b"/>
     <use xlink:href="#DejaVuSans-33" transform="translate(39.013672 0)"/>
     <use xlink:href="#DejaVuSans-30" transform="translate(102.636719 0)"/>
     <use xlink:href="#DejaVuSans-5d" transform="translate(166.259766 0)"/>
     <use xlink:href="#DejaVuSans-20" transform="translate(205.273438 0)"/>
     <use xlink:href="#DejaVuSans-72" transform="translate(237.060547 0)"/>
     <use xlink:href="#DejaVuSans-78" transform="translate(275.548828 0)"/>
     <use xlink:href="#DejaVuSans-5f" transform="translate(334.728516 0)"/>
     <use xlink:href="#DejaVuSans-78" transform="translate(384.728516 0)"/>
     <use xlink:href="#DejaVuSans-20" transform="translate(443.908203 0)"/>
     <use xlink:href="#DejaVuSans-20" transform="translate(475.695312 0)"/>
     <use xlink:href="#DejaVuSans-2014" transform="translate(507.482422 0)"/>
     <use xlink:href="#DejaVuSans-20" transform="translate(607.482422 0)"/>
     <use xlink:href="#DejaVuSans-20" transform="translate(639.269531 0)"/>
     <use xlink:href="#DejaVuSans-53" transform="translate(671.056641 0)"/>
     <use xlink:href="#DejaVuSans-74" transform="translate(734.533203 0)"/>
     <use xlink:href="#DejaVuSans-61" transform="translate(773.742188 0)"/>
     <use xlink:href="#DejaVuSans-74" transform="translate(835.021484 0)"/>
     <use xlink:href="#DejaVuSans-65" transform="translate(874.230469 0)"/>
     <use xlink:href="#DejaVuSans-20" transform="translate(935.753906 0)"/>
     <use xlink:href="#DejaVuSans-45" transform="translate(967.541016 0)"/>
     <use xlink:href="#DejaVuSans-73" transform="translate(1030.724609 0)"/>
     <use xlink:href="#DejaVuSans-74" transform="translate(1082.824219 0)"/>
     <use xlink:href="#DejaVuSans-69" transform="translate(1122.033203 0)"/>
     <use xlink:href="#DejaVuSans-6d" transform="translate(1149.816406 0)"/>
     <use xlink:href="#DejaVuSans-61" transform="translate(1247.228516 0)"/>
     <use xlink:href="#DejaVuSans-74" transform="translate(1308.507812 0)"/>
     <use xlink:href="#DejaVuSans-65" transform="translate(1347.716797 0)"/>
    </g>
   </g>
   <g id="legend_2">
    <g id="patch_13">
     <path d="M 734.342187 339.79625 
L 846.2 339.79625 
Q 848.2 339.79625 848.2 337.79625 
L 848.2 309.44 
Q 848.2 307.44 846.2 307.44 
L 734.342187 307.44 
Q 732.342187 307.44 732.342187 309.44 
L 732.342187 337.79625 
Q 732.342187 339.79625 734.342187 339.79625 
z
" style="fill: #ffffff; opacity: 0.8; stroke: #cccccc; stroke-linejoin: miter"/>
    </g>
    <g id="line2d_61">
     <path d="M 736.342187 315.538437 
L 746.342187 315.538437 
L 756.342187 315.538437 
" style="fill: none; stroke: #0000ff; stroke-width: 1.5; stroke-linecap: square"/>
    </g>
    <g id="text_33">
     <!-- Ideal (No Noise) -->
     <g transform="translate(764.342187 319.038437) scale(0.1 -0.1)">
      <use xlink:href="#DejaVuSans-49"/>
      <use xlink:href="#DejaVuSans-64" transform="translate(29.492188 0)"/>
      <use xlink:href="#DejaVuSans-65" transform="translate(92.96875 0)"/>
      <use xlink:href="#DejaVuSans-61" transform="translate(154.492188 0)"/>
      <use xlink:href="#DejaVuSans-6c" transform="translate(215.771484 0)"/>
      <use xlink:href="#DejaVuSans-20" transform="translate(243.554688 0)"/>
      <use xlink:href="#DejaVuSans-28" transform="translate(275.341797 0)"/>
      <use xlink:href="#DejaVuSans-4e" transform="translate(314.355469 0)"/>
      <use xlink:href="#DejaVuSans-6f" transform="translate(389.160156 0)"/>
      <use xlink:href="#DejaVuSans-20" transform="translate(450.341797 0)"/>
      <use xlink:href="#DejaVuSans-4e" transform="translate(482.128906 0)"/>
      <use xlink:href="#DejaVuSans-6f" transform="translate(556.933594 0)"/>
      <use xlink:href="#DejaVuSans-69" transform="translate(618.115234 0)"/>
      <use xlink:href="#DejaVuSans-73" transform="translate(645.898438 0)"/>
      <use xlink:href="#DejaVuSans-65" transform="translate(697.998047 0)"/>
      <use xlink:href="#DejaVuSans-29" transform="translate(759.521484 0)"/>
     </g>
    </g>
    <g id="line2d_62">
     <path d="M 736.342187 330.216562 
L 746.342187 330.216562 
L 756.342187 330.216562 
" style="fill: none; stroke-dasharray: 5.55,2.4; stroke-dashoffset: 0; stroke: #ff0000; stroke-width: 1.5"/>
    </g>
    <g id="text_34">
     <!-- With Full Noise -->
     <g transform="translate(764.342187 333.716562) scale(0.1 -0.1)">
      <use xlink:href="#DejaVuSans-57"/>
      <use xlink:href="#DejaVuSans-69" transform="translate(96.626953 0)"/>
      <use xlink:href="#DejaVuSans-74" transform="translate(124.410156 0)"/>
      <use xlink:href="#DejaVuSans-68" transform="translate(163.619141 0)"/>
      <use xlink:href="#DejaVuSans-20" transform="translate(226.998047 0)"/>
      <use xlink:href="#DejaVuSans-46" transform="translate(258.785156 0)"/>
      <use xlink:href="#DejaVuSans-75" transform="translate(310.804688 0)"/>
      <use xlink:href="#DejaVuSans-6c" transform="translate(374.183594 0)"/>
      <use xlink:href="#DejaVuSans-6c" transform="translate(401.966797 0)"/>
      <use xlink:href="#DejaVuSans-20" transform="translate(429.75 0)"/>
      <use xlink:href="#DejaVuSans-4e" transform="translate(461.537109 0)"/>
      <use xlink:href="#DejaVuSans-6f" transform="translate(536.341797 0)"/>
      <use xlink:href="#DejaVuSans-69" transform="translate(597.523438 0)"/>
      <use xlink:href="#DejaVuSans-73" transform="translate(625.306641 0)"/>
      <use xlink:href="#DejaVuSans-65" transform="translate(677.40625 0)"/>
     </g>
    </g>
   </g>
  </g>
 </g>
 <defs>
  <clipPath id="pe9446cb4ae">
   <rect x="68.69" y="26.88" width="784.51" height="231.6"/>
  </clipPath>
  <clipPath id="p90d7af9572">
   <rect x="68.69" y="302.44" width="784.51" height="231.6"/>
  </clipPath>
 </defs>
</svg>
