<?xml version="1.0" encoding="utf-8" standalone="no"?>
<!DOCTYPE svg PUBLIC "-//W3C//DTD SVG 1.1//EN"
  "http://www.w3.org/Graphics/SVG/1.1/DTD/svg11.dtd">
<svg xmlns:xlink="http://www.w3.org/1999/xlink" width="864pt" height="576pt" viewBox="0 0 864 576" xmlns="http://www.w3.org/2000/svg" version="1.1">
 <metadata>
  <rdf:RDF xmlns:dc="http://purl.org/dc/elements/1.1/" xmlns:cc="http://creativecommons.org/ns#" xmlns:rdf="http://www.w3.org/1999/02/22-rdf-syntax-ns#">
   <cc:Work>
    <dc:type rdf:resource="http://purl.org/dc/dcmitype/StillImage"/>
    <dc:date>2026-03-03T11:38:13.045651</dc:date>
    <dc:format>image/svg+xml</dc:format>
    <dc:creator>
     <cc:Agent>
      <dc:title>Matplotlib v3.10.8, https://matplotlib.org/</dc:title>
     </cc:Agent>
    </dc:creator>
   </cc:Work>
  </rdf:RDF>
 </metadata>
 <defs>
  <style type="text/css">*{stroke-linejoin: round; stroke-linecap: butt}</style>
 </defs>
 <g id="figure_1">
  <g id="patch_1">
   <path d="M 0 576 
L 864 576 
L 864 0 
L 0 0 
z
" style="fill: #ffffff"/>
  </g>
  <g id="axes_1">
   <g id="patch_2">
    <path d="M 72.92 258.48 
L 853.2 258.48 
L 853.2 26.88 
L 72.92 26.88 
z
" style="fill: #ffffff"/>
   </g>
   <g id="matplotlib.axis_1">
    <g id="xtick_1">
     <g id="line2d_1">
      <path d="M 108.387273 258.48 
L 108.387273 26.88 
" clip-path="url(#pa79a8ac4a4)" style="fill: none; stroke: #b0b0b0; stroke-width: 0.8; stroke-linecap: square"/>
     </g>
     <g id="line2d_2">
      <defs>
       <path id="m47dcb6905d" d="M 0 0 
L 0 3.5 
" style="stroke: #000000; stroke-width: 0.8"/>
      </defs>
      <g>
       <use xlink:href="#m47dcb6905d" x="108.387273" y="258.48" style="stroke: #000000; stroke-width: 0.8"/>
      </g>
     </g>
     <g id="text_1">
      <!-- 0 -->
      <g transform="translate(105.206023 273.078438) scale(0.1 -0.1)">
       <defs>
        <path id="DejaVuSans-30" d="M 2034 4250 
Q 1547 4250 1301 3770 
Q 1056 3291 1056 2328 
Q 1056 1369 1301 889 
Q 1547 409 2034 409 
Q 2525 409 2770 889 
Q 3016 1369 3016 2328 
Q 3016 3291 2770 3770 
Q 2525 4250 2034 4250 
z
M 2034 4750 
Q 2819 4750 3233 4129 
Q 3647 3509 3647 2328 
Q 3647 1150 3233 529 
Q 2819 -91 2034 -91 
Q 1250 -91 836 529 
Q 422 1150 422 2328 
Q 422 3509 836 4129 
Q 1250 4750 2034 4750 
z
" transform="scale(0.015625)"/>
       </defs>
       <use xlink:href="#DejaVuSans-30"/>
      </g>
     </g>
    </g>
    <g id="xtick_2">
     <g id="line2d_3">
      <path d="M 228.983236 258.48 
L 228.983236 26.88 
" clip-path="url(#pa79a8ac4a4)" style="fill: none; stroke: #b0b0b0; stroke-width: 0.8; stroke-linecap: square"/>
     </g>
     <g id="line2d_4">
      <g>
       <use xlink:href="#m47dcb6905d" x="228.983236" y="258.48" style="stroke: #000000; stroke-width: 0.8"/>
      </g>
     </g>
     <g id="text_2">
      <!-- 50 -->
      <g transform="translate(222.620736 273.078438) scale(0.1 -0.1)">
       <defs>
        <path id="DejaVuSans-35" d="M 691 4666 
L 3169 4666 
L 3169 4134 
L 1269 4134 
L 1269 2991 
Q 1406 3038 1543 3061 
Q 1681 3084 1819 3084 
Q 2600 3084 3056 2656 
Q 3513 2228 3513 1497 
Q 3513 744 3044 326 
Q 2575 -91 1722 -91 
Q 1428 -91 1123 -41 
Q 819 9 494 109 
L 494 744 
Q 775 591 1075 516 
Q 1375 441 1709 441 
Q 2250 441 2565 725 
Q 2881 1009 2881 1497 
Q 2881 1984 2565 2268 
Q 2250 2553 1709 2553 
Q 1456 2553 1204 2497 
Q 953 2441 691 2322 
L 691 4666 
z
" transform="scale(0.015625)"/>
       </defs>
       <use xlink:href="#DejaVuSans-35"/>
       <use xlink:href="#DejaVuSans-30" transform="translate(63.623047 0)"/>
      </g>
     </g>
    </g>
    <g id="xtick_3">
     <g id="line2d_5">
      <path d="M 349.579199 258.48 
L 349.579199 26.88 
" clip-path="url(#pa79a8ac4a4)" style="fill: none; stroke: #b0b0b0; stroke-width: 0.8; stroke-linecap: square"/>
     </g>
     <g id="line2d_6">
      <g>
       <use xlink:href="#m47dcb6905d" x="349.579199" y="258.48" style="stroke: #000000; stroke-width: 0.8"/>
      </g>
     </g>
     <g id="text_3">
      <!-- 100 -->
      <g transform="translate(340.035449 273.078438) scale(0.1 -0.1)">
       <defs>
        <path id="DejaVuSans-31" d="M 794 531 
L 1825 531 
L 1825 4091 
L 703 3866 
L 703 4441 
L 1819 4666 
L 2450 4666 
L 2450 531 
L 3481 531 
L 3481 0 
L 794 0 
L 794 531 
z
" transform="scale(0.015625)"/>
       </defs>
       <use xlink:href="#DejaVuSans-31"/>
       <use xlink:href="#DejaVuSans-30" transform="translate(63.623047 0)"/>
       <use xlink:href="#DejaVuSans-30" transform="translate(127.246094 0)"/>
      </g>
     </g>
    </g>
    <g id="xtick_4">
     <g id="line2d_7">
      <path d="M 470.175162 258.48 
L 470.175162 26.88 
" clip-path="url(#pa79a8ac4a4)" style="fill: none; stroke: #b0b0b0; stroke-width: 0.8; stroke-linecap: square"/>
     </g>
     <g id="line2d_8">
      <g>
       <use xlink:href="#m47dcb6905d" x="470.175162" y="258.48" style="stroke: #000000; stroke-width: 0.8"/>
      </g>
     </g>
     <g id="text_4">
      <!-- 150 -->
      <g transform="translate(460.631412 273.078438) scale(0.1 -0.1)">
       <use xlink:href="#DejaVuSans-31"/>
       <use xlink:href="#DejaVuSans-35" transform="translate(63.623047 0)"/>
       <use xlink:href="#DejaVuSans-30" transform="translate(127.246094 0)"/>
      </g>
     </g>
    </g>
    <g id="xtick_5">
     <g id="line2d_9">
      <path d="M 590.771125 258.48 
L 590.771125 26.88 
" clip-path="url(#pa79a8ac4a4)" style="fill: none; stroke: #b0b0b0; stroke-width: 0.8; stroke-linecap: square"/>
     </g>
     <g id="line2d_10">
      <g>
       <use xlink:href="#m47dcb6905d" x="590.771125" y="258.48" style="stroke: #000000; stroke-width: 0.8"/>
      </g>
     </g>
     <g id="text_5">
      <!-- 200 -->
      <g transform="translate(581.227375 273.078438) scale(0.1 -0.1)">
       <defs>
        <path id="DejaVuSans-32" d="M 1228 531 
L 3431 531 
L 3431 0 
L 469 0 
L 469 531 
Q 828 903 1448 1529 
Q 2069 2156 2228 2338 
Q 2531 2678 2651 2914 
Q 2772 3150 2772 3378 
Q 2772 3750 2511 3984 
Q 2250 4219 1831 4219 
Q 1534 4219 1204 4116 
Q 875 4013 500 3803 
L 500 4441 
Q 881 4594 1212 4672 
Q 1544 4750 1819 4750 
Q 2544 4750 2975 4387 
Q 3406 4025 3406 3419 
Q 3406 3131 3298 2873 
Q 3191 2616 2906 2266 
Q 2828 2175 2409 1742 
Q 1991 1309 1228 531 
z
" transform="scale(0.015625)"/>
       </defs>
       <use xlink:href="#DejaVuSans-32"/>
       <use xlink:href="#DejaVuSans-30" transform="translate(63.623047 0)"/>
       <use xlink:href="#DejaVuSans-30" transform="translate(127.246094 0)"/>
      </g>
     </g>
    </g>
    <g id="xtick_6">
     <g id="line2d_11">
      <path d="M 711.367088 258.48 
L 711.367088 26.88 
" clip-path="url(#pa79a8ac4a4)" style="fill: none; stroke: #b0b0b0; stroke-width: 0.8; stroke-linecap: square"/>
     </g>
     <g id="line2d_12">
      <g>
       <use xlink:href="#m47dcb6905d" x="711.367088" y="258.48" style="stroke: #000000; stroke-width: 0.8"/>
      </g>
     </g>
     <g id="text_6">
      <!-- 250 -->
      <g transform="translate(701.823338 273.078438) scale(0.1 -0.1)">
       <use xlink:href="#DejaVuSans-32"/>
       <use xlink:href="#DejaVuSans-35" transform="translate(63.623047 0)"/>
       <use xlink:href="#DejaVuSans-30" transform="translate(127.246094 0)"/>
      </g>
     </g>
    </g>
    <g id="xtick_7">
     <g id="line2d_13">
      <path d="M 831.963051 258.48 
L 831.963051 26.88 
" clip-path="url(#pa79a8ac4a4)" style="fill: none; stroke: #b0b0b0; stroke-width: 0.8; stroke-linecap: square"/>
     </g>
     <g id="line2d_14">
      <g>
       <use xlink:href="#m47dcb6905d" x="831.963051" y="258.48" style="stroke: #000000; stroke-width: 0.8"/>
      </g>
     </g>
     <g id="text_7">
      <!-- 300 -->
      <g transform="translate(822.419301 273.078438) scale(0.1 -0.1)">
       <defs>
        <path id="DejaVuSans-33" d="M 2597 2516 
Q 3050 2419 3304 2112 
Q 3559 1806 3559 1356 
Q 3559 666 3084 287 
Q 2609 -91 1734 -91 
Q 1441 -91 1130 -33 
Q 819 25 488 141 
L 488 750 
Q 750 597 1062 519 
Q 1375 441 1716 441 
Q 2309 441 2620 675 
Q 2931 909 2931 1356 
Q 2931 1769 2642 2001 
Q 2353 2234 1838 2234 
L 1294 2234 
L 1294 2753 
L 1863 2753 
Q 2328 2753 2575 2939 
Q 2822 3125 2822 3475 
Q 2822 3834 2567 4026 
Q 2313 4219 1838 4219 
Q 1578 4219 1281 4162 
Q 984 4106 628 3988 
L 628 4550 
Q 988 4650 1302 4700 
Q 1616 4750 1894 4750 
Q 2613 4750 3031 4423 
Q 3450 4097 3450 3541 
Q 3450 3153 3228 2886 
Q 3006 2619 2597 2516 
z
" transform="scale(0.015625)"/>
       </defs>
       <use xlink:href="#DejaVuSans-33"/>
       <use xlink:href="#DejaVuSans-30" transform="translate(63.623047 0)"/>
       <use xlink:href="#DejaVuSans-30" transform="translate(127.246094 0)"/>
      </g>
     </g>
    </g>
   </g>
   <g id="matplotlib.axis_2">
    <g id="ytick_1">
     <g id="line2d_15">
      <path d="M 72.92 251.000093 
L 853.2 251.000093 
" clip-path="url(#pa79a8ac4a4)" style="fill: none; stroke: #b0b0b0; stroke-width: 0.8; stroke-linecap: square"/>
     </g>
     <g id="line2d_16">
      <defs>
       <path id="m2305aa73ed" d="M 0 0 
L -3.5 0 
" style="stroke: #000000; stroke-width: 0.8"/>
      </defs>
      <g>
       <use xlink:href="#m2305aa73ed" x="72.92" y="251.000093" style="stroke: #000000; stroke-width: 0.8"/>
      </g>
     </g>
     <g id="text_8">
      <!-- 0.00000 -->
      <g transform="translate(24.566875 254.799312) scale(0.1 -0.1)">
       <defs>
        <path id="DejaVuSans-2e" d="M 684 794 
L 1344 794 
L 1344 0 
L 684 0 
L 684 794 
z
" transform="scale(0.015625)"/>
       </defs>
       <use xlink:href="#DejaVuSans-30"/>
       <use xlink:href="#DejaVuSans-2e" transform="translate(63.623047 0)"/>
       <use xlink:href="#DejaVuSans-30" transform="translate(95.410156 0)"/>
       <use xlink:href="#DejaVuSans-30" transform="translate(159.033203 0)"/>
       <use xlink:href="#DejaVuSans-30" transform="translate(222.65625 0)"/>
       <use xlink:href="#DejaVuSans-30" transform="translate(286.279297 0)"/>
       <use xlink:href="#DejaVuSans-30" transform="translate(349.902344 0)"/>
      </g>
     </g>
    </g>
    <g id="ytick_2">
     <g id="line2d_17">
      <path d="M 72.92 209.219942 
L 853.2 209.219942 
" clip-path="url(#pa79a8ac4a4)" style="fill: none; stroke: #b0b0b0; stroke-width: 0.8; stroke-linecap: square"/>
     </g>
     <g id="line2d_18">
      <g>
       <use xlink:href="#m2305aa73ed" x="72.92" y="209.219942" style="stroke: #000000; stroke-width: 0.8"/>
      </g>
     </g>
     <g id="text_9">
      <!-- 0.00002 -->
      <g transform="translate(24.566875 213.019161) scale(0.1 -0.1)">
       <use xlink:href="#DejaVuSans-30"/>
       <use xlink:href="#DejaVuSans-2e" transform="translate(63.623047 0)"/>
       <use xlink:href="#DejaVuSans-30" transform="translate(95.410156 0)"/>
       <use xlink:href="#DejaVuSans-30" transform="translate(159.033203 0)"/>
       <use xlink:href="#DejaVuSans-30" transform="translate(222.65625 0)"/>
       <use xlink:href="#DejaVuSans-30" transform="translate(286.279297 0)"/>
       <use xlink:href="#DejaVuSans-32" transform="translate(349.902344 0)"/>
      </g>
     </g>
    </g>
    <g id="ytick_3">
     <g id="line2d_19">
      <path d="M 72.92 167.43979 
L 853.2 167.43979 
" clip-path="url(#pa79a8ac4a4)" style="fill: none; stroke: #b0b0b0; stroke-width: 0.8; stroke-linecap: square"/>
     </g>
     <g id="line2d_20">
      <g>
       <use xlink:href="#m2305aa73ed" x="72.92" y="167.43979" style="stroke: #000000; stroke-width: 0.8"/>
      </g>
     </g>
     <g id="text_10">
      <!-- 0.00004 -->
      <g transform="translate(24.566875 171.239009) scale(0.1 -0.1)">
       <defs>
        <path id="DejaVuSans-34" d="M 2419 4116 
L 825 1625 
L 2419 1625 
L 2419 4116 
z
M 2253 4666 
L 3047 4666 
L 3047 1625 
L 3713 1625 
L 3713 1100 
L 3047 1100 
L 3047 0 
L 2419 0 
L 2419 1100 
L 313 1100 
L 313 1709 
L 2253 4666 
z
" transform="scale(0.015625)"/>
       </defs>
       <use xlink:href="#DejaVuSans-30"/>
       <use xlink:href="#DejaVuSans-2e" transform="translate(63.623047 0)"/>
       <use xlink:href="#DejaVuSans-30" transform="translate(95.410156 0)"/>
       <use xlink:href="#DejaVuSans-30" transform="translate(159.033203 0)"/>
       <use xlink:href="#DejaVuSans-30" transform="translate(222.65625 0)"/>
       <use xlink:href="#DejaVuSans-30" transform="translate(286.279297 0)"/>
       <use xlink:href="#DejaVuSans-34" transform="translate(349.902344 0)"/>
      </g>
     </g>
    </g>
    <g id="ytick_4">
     <g id="line2d_21">
      <path d="M 72.92 125.659638 
L 853.2 125.659638 
" clip-path="url(#pa79a8ac4a4)" style="fill: none; stroke: #b0b0b0; stroke-width: 0.8; stroke-linecap: square"/>
     </g>
     <g id="line2d_22">
      <g>
       <use xlink:href="#m2305aa73ed" x="72.92" y="125.659638" style="stroke: #000000; stroke-width: 0.8"/>
      </g>
     </g>
     <g id="text_11">
      <!-- 0.00006 -->
      <g transform="translate(24.566875 129.458857) scale(0.1 -0.1)">
       <defs>
        <path id="DejaVuSans-36" d="M 2113 2584 
Q 1688 2584 1439 2293 
Q 1191 2003 1191 1497 
Q 1191 994 1439 701 
Q 1688 409 2113 409 
Q 2538 409 2786 701 
Q 3034 994 3034 1497 
Q 3034 2003 2786 2293 
Q 2538 2584 2113 2584 
z
M 3366 4563 
L 3366 3988 
Q 3128 4100 2886 4159 
Q 2644 4219 2406 4219 
Q 1781 4219 1451 3797 
Q 1122 3375 1075 2522 
Q 1259 2794 1537 2939 
Q 1816 3084 2150 3084 
Q 2853 3084 3261 2657 
Q 3669 2231 3669 1497 
Q 3669 778 3244 343 
Q 2819 -91 2113 -91 
Q 1303 -91 875 529 
Q 447 1150 447 2328 
Q 447 3434 972 4092 
Q 1497 4750 2381 4750 
Q 2619 4750 2861 4703 
Q 3103 4656 3366 4563 
z
" transform="scale(0.015625)"/>
       </defs>
       <use xlink:href="#DejaVuSans-30"/>
       <use xlink:href="#DejaVuSans-2e" transform="translate(63.623047 0)"/>
       <use xlink:href="#DejaVuSans-30" transform="translate(95.410156 0)"/>
       <use xlink:href="#DejaVuSans-30" transform="translate(159.033203 0)"/>
       <use xlink:href="#DejaVuSans-30" transform="translate(222.65625 0)"/>
       <use xlink:href="#DejaVuSans-30" transform="translate(286.279297 0)"/>
       <use xlink:href="#DejaVuSans-36" transform="translate(349.902344 0)"/>
      </g>
     </g>
    </g>
    <g id="ytick_5">
     <g id="line2d_23">
      <path d="M 72.92 83.879487 
L 853.2 83.879487 
" clip-path="url(#pa79a8ac4a4)" style="fill: none; stroke: #b0b0b0; stroke-width: 0.8; stroke-linecap: square"/>
     </g>
     <g id="line2d_24">
      <g>
       <use xlink:href="#m2305aa73ed" x="72.92" y="83.879487" style="stroke: #000000; stroke-width: 0.8"/>
      </g>
     </g>
     <g id="text_12">
      <!-- 0.00008 -->
      <g transform="translate(24.566875 87.678706) scale(0.1 -0.1)">
       <defs>
        <path id="DejaVuSans-38" d="M 2034 2216 
Q 1584 2216 1326 1975 
Q 1069 1734 1069 1313 
Q 1069 891 1326 650 
Q 1584 409 2034 409 
Q 2484 409 2743 651 
Q 3003 894 3003 1313 
Q 3003 1734 2745 1975 
Q 2488 2216 2034 2216 
z
M 1403 2484 
Q 997 2584 770 2862 
Q 544 3141 544 3541 
Q 544 4100 942 4425 
Q 1341 4750 2034 4750 
Q 2731 4750 3128 4425 
Q 3525 4100 3525 3541 
Q 3525 3141 3298 2862 
Q 3072 2584 2669 2484 
Q 3125 2378 3379 2068 
Q 3634 1759 3634 1313 
Q 3634 634 3220 271 
Q 2806 -91 2034 -91 
Q 1263 -91 848 271 
Q 434 634 434 1313 
Q 434 1759 690 2068 
Q 947 2378 1403 2484 
z
M 1172 3481 
Q 1172 3119 1398 2916 
Q 1625 2713 2034 2713 
Q 2441 2713 2670 2916 
Q 2900 3119 2900 3481 
Q 2900 3844 2670 4047 
Q 2441 4250 2034 4250 
Q 1625 4250 1398 4047 
Q 1172 3844 1172 3481 
z
" transform="scale(0.015625)"/>
       </defs>
       <use xlink:href="#DejaVuSans-30"/>
       <use xlink:href="#DejaVuSans-2e" transform="translate(63.623047 0)"/>
       <use xlink:href="#DejaVuSans-30" transform="translate(95.410156 0)"/>
       <use xlink:href="#DejaVuSans-30" transform="translate(159.033203 0)"/>
       <use xlink:href="#DejaVuSans-30" transform="translate(222.65625 0)"/>
       <use xlink:href="#DejaVuSans-30" transform="translate(286.279297 0)"/>
       <use xlink:href="#DejaVuSans-38" transform="translate(349.902344 0)"/>
      </g>
     </g>
    </g>
    <g id="ytick_6">
     <g id="line2d_25">
      <path d="M 72.92 42.099335 
L 853.2 42.099335 
" clip-path="url(#pa79a8ac4a4)" style="fill: none; stroke: #b0b0b0; stroke-width: 0.8; stroke-linecap: square"/>
     </g>
     <g id="line2d_26">
      <g>
       <use xlink:href="#m2305aa73ed" x="72.92" y="42.099335" style="stroke: #000000; stroke-width: 0.8"/>
      </g>
     </g>
     <g id="text_13">
      <!-- 0.00010 -->
      <g transform="translate(24.566875 45.898554) scale(0.1 -0.1)">
       <use xlink:href="#DejaVuSans-30"/>
       <use xlink:href="#DejaVuSans-2e" transform="translate(63.623047 0)"/>
       <use xlink:href="#DejaVuSans-30" transform="translate(95.410156 0)"/>
       <use xlink:href="#DejaVuSans-30" transform="translate(159.033203 0)"/>
       <use xlink:href="#DejaVuSans-30" transform="translate(222.65625 0)"/>
       <use xlink:href="#DejaVuSans-31" transform="translate(286.279297 0)"/>
       <use xlink:href="#DejaVuSans-30" transform="translate(349.902344 0)"/>
      </g>
     </g>
    </g>
    <g id="text_14">
     <!-- Std Dev -->
     <g transform="translate(18.487187 162.463594) rotate(-90) scale(0.1 -0.1)">
      <defs>
       <path id="DejaVuSans-53" d="M 3425 4513 
L 3425 3897 
Q 3066 4069 2747 4153 
Q 2428 4238 2131 4238 
Q 1616 4238 1336 4038 
Q 1056 3838 1056 3469 
Q 1056 3159 1242 3001 
Q 1428 2844 1947 2747 
L 2328 2669 
Q 3034 2534 3370 2195 
Q 3706 1856 3706 1288 
Q 3706 609 3251 259 
Q 2797 -91 1919 -91 
Q 1588 -91 1214 -16 
Q 841 59 441 206 
L 441 856 
Q 825 641 1194 531 
Q 1563 422 1919 422 
Q 2459 422 2753 634 
Q 3047 847 3047 1241 
Q 3047 1584 2836 1778 
Q 2625 1972 2144 2069 
L 1759 2144 
Q 1053 2284 737 2584 
Q 422 2884 422 3419 
Q 422 4038 858 4394 
Q 1294 4750 2059 4750 
Q 2388 4750 2728 4690 
Q 3069 4631 3425 4513 
z
" transform="scale(0.015625)"/>
       <path id="DejaVuSans-74" d="M 1172 4494 
L 1172 3500 
L 2356 3500 
L 2356 3053 
L 1172 3053 
L 1172 1153 
Q 1172 725 1289 603 
Q 1406 481 1766 481 
L 2356 481 
L 2356 0 
L 1766 0 
Q 1100 0 847 248 
Q 594 497 594 1153 
L 594 3053 
L 172 3053 
L 172 3500 
L 594 3500 
L 594 4494 
L 1172 4494 
z
" transform="scale(0.015625)"/>
       <path id="DejaVuSans-64" d="M 2906 2969 
L 2906 4863 
L 3481 4863 
L 3481 0 
L 2906 0 
L 2906 525 
Q 2725 213 2448 61 
Q 2172 -91 1784 -91 
Q 1150 -91 751 415 
Q 353 922 353 1747 
Q 353 2572 751 3078 
Q 1150 3584 1784 3584 
Q 2172 3584 2448 3432 
Q 2725 3281 2906 2969 
z
M 947 1747 
Q 947 1113 1208 752 
Q 1469 391 1925 391 
Q 2381 391 2643 752 
Q 2906 1113 2906 1747 
Q 2906 2381 2643 2742 
Q 2381 3103 1925 3103 
Q 1469 3103 1208 2742 
Q 947 2381 947 1747 
z
" transform="scale(0.015625)"/>
       <path id="DejaVuSans-20" transform="scale(0.015625)"/>
       <path id="DejaVuSans-44" d="M 1259 4147 
L 1259 519 
L 2022 519 
Q 2988 519 3436 956 
Q 3884 1394 3884 2338 
Q 3884 3275 3436 3711 
Q 2988 4147 2022 4147 
L 1259 4147 
z
M 628 4666 
L 1925 4666 
Q 3281 4666 3915 4102 
Q 4550 3538 4550 2338 
Q 4550 1131 3912 565 
Q 3275 0 1925 0 
L 628 0 
L 628 4666 
z
" transform="scale(0.015625)"/>
       <path id="DejaVuSans-65" d="M 3597 1894 
L 3597 1613 
L 953 1613 
Q 991 1019 1311 708 
Q 1631 397 2203 397 
Q 2534 397 2845 478 
Q 3156 559 3463 722 
L 3463 178 
Q 3153 47 2828 -22 
Q 2503 -91 2169 -91 
Q 1331 -91 842 396 
Q 353 884 353 1716 
Q 353 2575 817 3079 
Q 1281 3584 2069 3584 
Q 2775 3584 3186 3129 
Q 3597 2675 3597 1894 
z
M 3022 2063 
Q 3016 2534 2758 2815 
Q 2500 3097 2075 3097 
Q 1594 3097 1305 2825 
Q 1016 2553 972 2059 
L 3022 2063 
z
" transform="scale(0.015625)"/>
       <path id="DejaVuSans-76" d="M 191 3500 
L 800 3500 
L 1894 563 
L 2988 3500 
L 3597 3500 
L 2284 0 
L 1503 0 
L 191 3500 
z
" transform="scale(0.015625)"/>
      </defs>
      <use xlink:href="#DejaVuSans-53"/>
      <use xlink:href="#DejaVuSans-74" transform="translate(63.476562 0)"/>
      <use xlink:href="#DejaVuSans-64" transform="translate(102.685547 0)"/>
      <use xlink:href="#DejaVuSans-20" transform="translate(166.162109 0)"/>
      <use xlink:href="#DejaVuSans-44" transform="translate(197.949219 0)"/>
      <use xlink:href="#DejaVuSans-65" transform="translate(274.951172 0)"/>
      <use xlink:href="#DejaVuSans-76" transform="translate(336.474609 0)"/>
     </g>
    </g>
   </g>
   <g id="line2d_27">
    <path d="M 108.387273 229.640811 
L 210.363219 229.640811 
L 210.652649 230.242033 
L 210.990318 230.352684 
L 212.533946 230.38904 
L 222.181623 230.396303 
L 222.326339 230.721304 
L 222.615769 230.841708 
L 223.966444 230.870383 
L 234.000028 230.878657 
L 234.144743 231.160692 
L 236.267232 231.250784 
L 245.818432 231.272004 
L 245.963147 240.54007 
L 246.638485 241.503863 
L 247.217345 241.80939 
L 248.230351 242.048567 
L 250.208125 242.242234 
L 254.453103 242.39485 
L 279.151156 242.794549 
L 281.273645 242.794549 
L 281.41836 243.170274 
L 284.11971 243.254585 
L 293.09205 243.28973 
L 293.236765 243.570647 
L 295.455731 243.677491 
L 304.910454 243.734194 
L 305.055169 246.25355 
L 305.875222 246.973208 
L 306.647036 247.218728 
L 308.094188 247.411529 
L 311.229683 247.562 
L 319.719638 247.685775 
L 344.803599 247.950245 
L 344.948314 229.640811 
L 446.827783 229.640811 
L 447.117214 230.241524 
L 447.454882 230.352033 
L 448.998511 230.388333 
L 458.646188 230.395574 
L 458.790903 230.720455 
L 459.080333 230.840949 
L 460.431008 230.86962 
L 470.464592 230.877827 
L 470.609307 231.160473 
L 472.731796 231.250968 
L 482.282997 231.272301 
L 482.427712 240.543535 
L 483.103049 241.511175 
L 483.68191 241.817764 
L 484.694916 242.057219 
L 486.624451 242.246939 
L 490.821191 242.397742 
L 516.194581 242.806117 
L 517.73821 242.806117 
L 517.882925 243.17989 
L 520.632513 243.26235 
L 529.556614 243.295415 
L 529.701329 243.575384 
L 531.920295 243.681985 
L 541.375018 243.738695 
L 541.519734 246.255656 
L 542.339786 246.975102 
L 543.1116 247.220457 
L 544.558752 247.413047 
L 547.694247 247.563254 
L 556.184203 247.687181 
L 581.268163 247.952698 
L 581.412878 37.407273 
L 683.292348 37.407273 
L 683.340586 38.976985 
L 683.485301 47.428398 
L 683.726493 47.526251 
L 685.60779 47.541798 
L 695.110752 47.598055 
L 695.303706 54.842423 
L 695.882566 55.41434 
L 696.557904 55.751564 
L 697.667386 56.018388 
L 699.789875 56.25258 
L 705.385528 56.591064 
L 706.929156 56.591064 
L 707.073872 64.038811 
L 707.700971 85.304773 
L 708.086878 89.572411 
L 708.521023 92.104033 
L 709.051645 93.8959 
L 709.630506 95.108669 
L 710.354082 96.097004 
L 711.222373 96.888324 
L 712.331856 97.577985 
L 713.779007 98.2002 
L 715.756781 98.796884 
L 716.528595 98.880973 
L 718.747561 98.880973 
L 718.892276 236.847746 
L 719.519375 237.970003 
L 720.049997 238.341166 
L 720.918288 238.641519 
L 722.510155 238.917618 
L 725.452696 239.17135 
L 729.263529 239.292728 
L 730.565965 239.292728 
L 730.71068 239.64421 
L 733.990891 239.777195 
L 741.46784 239.900909 
L 742.38437 239.900909 
L 742.529085 240.03133 
L 754.202774 240.102454 
L 754.347489 240.883053 
L 756.42174 240.944996 
L 766.021178 240.978385 
L 766.165893 241.474571 
L 767.950714 241.638354 
L 774.318181 241.776835 
L 777.839583 241.788153 
L 777.984298 245.986424 
L 778.707874 246.7956 
L 779.383211 247.078574 
L 780.540932 247.289422 
L 782.904613 247.456827 
L 788.017882 247.563246 
L 803.02002 247.674108 
L 817.732727 247.910238 
L 817.732727 247.910238 
" clip-path="url(#pa79a8ac4a4)" style="fill: none; stroke: #0000ff; stroke-width: 1.5; stroke-linecap: square"/>
   </g>
   <g id="line2d_28">
    <path d="M 108.387273 229.640811 
L 210.363219 229.640811 
L 210.652649 230.242059 
L 210.990318 230.352705 
L 212.533946 230.389037 
L 222.181623 230.396316 
L 222.326339 230.721396 
L 222.615769 230.84176 
L 223.966444 230.870428 
L 234.000028 230.878715 
L 234.144743 231.160654 
L 236.267232 231.25083 
L 245.818432 231.272077 
L 245.963147 240.540263 
L 246.638485 241.504337 
L 247.217345 241.809834 
L 248.230351 242.048981 
L 250.208125 242.242539 
L 254.453103 242.395048 
L 279.151156 242.794732 
L 281.273645 242.794732 
L 281.41836 243.170363 
L 284.11971 243.254654 
L 293.09205 243.289795 
L 293.236765 243.570742 
L 295.455731 243.677567 
L 304.910454 243.734257 
L 305.055169 246.253609 
L 305.875222 246.973229 
L 306.647036 247.218735 
L 308.094188 247.411525 
L 311.229683 247.561996 
L 319.719638 247.685757 
L 344.803599 247.950227 
L 344.948314 229.640811 
L 446.827783 229.640811 
L 447.117214 230.241529 
L 447.454882 230.352036 
L 448.998511 230.38831 
L 458.646188 230.395565 
L 458.790903 230.720485 
L 459.080333 230.840929 
L 460.431008 230.869593 
L 470.464592 230.877816 
L 470.609307 231.16041 
L 472.731796 231.251011 
L 482.282997 231.272364 
L 482.427712 240.543469 
L 483.103049 241.511358 
L 483.68191 241.817973 
L 484.694916 242.057428 
L 486.624451 242.247096 
L 490.821191 242.39783 
L 516.194581 242.806282 
L 517.73821 242.806282 
L 517.882925 243.179991 
L 520.632513 243.262464 
L 529.556614 243.295531 
L 529.701329 243.57551 
L 531.920295 243.682089 
L 541.375018 243.738788 
L 541.519734 246.255748 
L 542.339786 246.975188 
L 543.1116 247.220536 
L 544.558752 247.413121 
L 547.694247 247.563328 
L 556.184203 247.687246 
L 581.268163 247.952727 
L 581.412878 37.407273 
L 683.292348 37.407273 
L 683.340586 39.045251 
L 683.485301 47.438998 
L 683.726493 47.536464 
L 685.656029 47.551885 
L 695.110752 47.610167 
L 695.303706 54.86417 
L 695.882566 55.436967 
L 696.557904 55.774738 
L 697.667386 56.041955 
L 699.789875 56.276758 
L 705.433766 56.613501 
L 706.929156 56.613501 
L 707.073872 64.072183 
L 707.700971 85.33923 
L 708.086878 89.607125 
L 708.521023 92.141205 
L 709.051645 93.933071 
L 709.630506 95.14435 
L 710.354082 96.132501 
L 711.222373 96.925845 
L 712.331856 97.614933 
L 713.779007 98.236868 
L 715.756781 98.831948 
L 716.528595 98.916069 
L 718.747561 98.916069 
L 718.892276 236.847764 
L 719.519375 237.970261 
L 720.049997 238.341451 
L 720.918288 238.641793 
L 722.510155 238.917897 
L 725.452696 239.171524 
L 729.263529 239.292955 
L 730.565965 239.292955 
L 730.71068 239.64443 
L 734.039129 239.778925 
L 741.516079 239.901093 
L 742.38437 239.901093 
L 742.529085 240.031537 
L 754.202774 240.102732 
L 754.347489 240.88326 
L 756.42174 240.94519 
L 766.021178 240.978564 
L 766.165893 241.474732 
L 767.950714 241.638501 
L 774.318181 241.776946 
L 777.839583 241.788265 
L 777.984298 245.986551 
L 778.707874 246.795707 
L 779.383211 247.07867 
L 780.540932 247.289506 
L 782.904613 247.4569 
L 788.017882 247.563318 
L 803.02002 247.674176 
L 817.732727 247.910279 
L 817.732727 247.910279 
" clip-path="url(#pa79a8ac4a4)" style="fill: none; stroke-dasharray: 5.55,2.4; stroke-dashoffset: 0; stroke: #ff0000; stroke-width: 1.5"/>
   </g>
   <g id="line2d_29">
    <path d="M 344.851837 258.48 
L 344.851837 26.88 
" clip-path="url(#pa79a8ac4a4)" style="fill: none; stroke-dasharray: 1.5,2.475; stroke-dashoffset: 0; stroke: #808080; stroke-opacity: 0.6; stroke-width: 1.5"/>
   </g>
   <g id="line2d_30">
    <path d="M 581.316401 258.48 
L 581.316401 26.88 
" clip-path="url(#pa79a8ac4a4)" style="fill: none; stroke-dasharray: 1.5,2.475; stroke-dashoffset: 0; stroke: #808080; stroke-opacity: 0.6; stroke-width: 1.5"/>
   </g>
   <g id="patch_3">
    <path d="M 72.92 258.48 
L 72.92 26.88 
" style="fill: none; stroke: #000000; stroke-width: 0.8; stroke-linejoin: miter; stroke-linecap: square"/>
   </g>
   <g id="patch_4">
    <path d="M 853.2 258.48 
L 853.2 26.88 
" style="fill: none; stroke: #000000; stroke-width: 0.8; stroke-linejoin: miter; stroke-linecap: square"/>
   </g>
   <g id="patch_5">
    <path d="M 72.92 258.48 
L 853.2 258.48 
" style="fill: none; stroke: #000000; stroke-width: 0.8; stroke-linejoin: miter; stroke-linecap: square"/>
   </g>
   <g id="patch_6">
    <path d="M 72.92 26.88 
L 853.2 26.88 
" style="fill: none; stroke: #000000; stroke-width: 0.8; stroke-linejoin: miter; stroke-linecap: square"/>
   </g>
   <g id="text_15">
    <!-- [31] dKa2_y  —  Uncertainty (std dev) -->
    <g transform="translate(349.636563 20.88) scale(0.12 -0.12)">
     <defs>
      <path id="DejaVuSans-5b" d="M 550 4863 
L 1875 4863 
L 1875 4416 
L 1125 4416 
L 1125 -397 
L 1875 -397 
L 1875 -844 
L 550 -844 
L 550 4863 
z
" transform="scale(0.015625)"/>
      <path id="DejaVuSans-5d" d="M 1947 4863 
L 1947 -844 
L 622 -844 
L 622 -397 
L 1369 -397 
L 1369 4416 
L 622 4416 
L 622 4863 
L 1947 4863 
z
" transform="scale(0.015625)"/>
      <path id="DejaVuSans-4b" d="M 628 4666 
L 1259 4666 
L 1259 2694 
L 3353 4666 
L 4166 4666 
L 1850 2491 
L 4331 0 
L 3500 0 
L 1259 2247 
L 1259 0 
L 628 0 
L 628 4666 
z
" transform="scale(0.015625)"/>
      <path id="DejaVuSans-61" d="M 2194 1759 
Q 1497 1759 1228 1600 
Q 959 1441 959 1056 
Q 959 750 1161 570 
Q 1363 391 1709 391 
Q 2188 391 2477 730 
Q 2766 1069 2766 1631 
L 2766 1759 
L 2194 1759 
z
M 3341 1997 
L 3341 0 
L 2766 0 
L 2766 531 
Q 2569 213 2275 61 
Q 1981 -91 1556 -91 
Q 1019 -91 701 211 
Q 384 513 384 1019 
Q 384 1609 779 1909 
Q 1175 2209 1959 2209 
L 2766 2209 
L 2766 2266 
Q 2766 2663 2505 2880 
Q 2244 3097 1772 3097 
Q 1472 3097 1187 3025 
Q 903 2953 641 2809 
L 641 3341 
Q 956 3463 1253 3523 
Q 1550 3584 1831 3584 
Q 2591 3584 2966 3190 
Q 3341 2797 3341 1997 
z
" transform="scale(0.015625)"/>
      <path id="DejaVuSans-5f" d="M 3263 -1063 
L 3263 -1509 
L -63 -1509 
L -63 -1063 
L 3263 -1063 
z
" transform="scale(0.015625)"/>
      <path id="DejaVuSans-79" d="M 2059 -325 
Q 1816 -950 1584 -1140 
Q 1353 -1331 966 -1331 
L 506 -1331 
L 506 -850 
L 844 -850 
Q 1081 -850 1212 -737 
Q 1344 -625 1503 -206 
L 1606 56 
L 191 3500 
L 800 3500 
L 1894 763 
L 2988 3500 
L 3597 3500 
L 2059 -325 
z
" transform="scale(0.015625)"/>
      <path id="DejaVuSans-2014" d="M 313 1978 
L 6088 1978 
L 6088 1528 
L 313 1528 
L 313 1978 
z
" transform="scale(0.015625)"/>
      <path id="DejaVuSans-55" d="M 556 4666 
L 1191 4666 
L 1191 1831 
Q 1191 1081 1462 751 
Q 1734 422 2344 422 
Q 2950 422 3222 751 
Q 3494 1081 3494 1831 
L 3494 4666 
L 4128 4666 
L 4128 1753 
Q 4128 841 3676 375 
Q 3225 -91 2344 -91 
Q 1459 -91 1007 375 
Q 556 841 556 1753 
L 556 4666 
z
" transform="scale(0.015625)"/>
      <path id="DejaVuSans-6e" d="M 3513 2113 
L 3513 0 
L 2938 0 
L 2938 2094 
Q 2938 2591 2744 2837 
Q 2550 3084 2163 3084 
Q 1697 3084 1428 2787 
Q 1159 2491 1159 1978 
L 1159 0 
L 581 0 
L 581 3500 
L 1159 3500 
L 1159 2956 
Q 1366 3272 1645 3428 
Q 1925 3584 2291 3584 
Q 2894 3584 3203 3211 
Q 3513 2838 3513 2113 
z
" transform="scale(0.015625)"/>
      <path id="DejaVuSans-63" d="M 3122 3366 
L 3122 2828 
Q 2878 2963 2633 3030 
Q 2388 3097 2138 3097 
Q 1578 3097 1268 2742 
Q 959 2388 959 1747 
Q 959 1106 1268 751 
Q 1578 397 2138 397 
Q 2388 397 2633 464 
Q 2878 531 3122 666 
L 3122 134 
Q 2881 22 2623 -34 
Q 2366 -91 2075 -91 
Q 1284 -91 818 406 
Q 353 903 353 1747 
Q 353 2603 823 3093 
Q 1294 3584 2113 3584 
Q 2378 3584 2631 3529 
Q 2884 3475 3122 3366 
z
" transform="scale(0.015625)"/>
      <path id="DejaVuSans-72" d="M 2631 2963 
Q 2534 3019 2420 3045 
Q 2306 3072 2169 3072 
Q 1681 3072 1420 2755 
Q 1159 2438 1159 1844 
L 1159 0 
L 581 0 
L 581 3500 
L 1159 3500 
L 1159 2956 
Q 1341 3275 1631 3429 
Q 1922 3584 2338 3584 
Q 2397 3584 2469 3576 
Q 2541 3569 2628 3553 
L 2631 2963 
z
" transform="scale(0.015625)"/>
      <path id="DejaVuSans-69" d="M 603 3500 
L 1178 3500 
L 1178 0 
L 603 0 
L 603 3500 
z
M 603 4863 
L 1178 4863 
L 1178 4134 
L 603 4134 
L 603 4863 
z
" transform="scale(0.015625)"/>
      <path id="DejaVuSans-28" d="M 1984 4856 
Q 1566 4138 1362 3434 
Q 1159 2731 1159 2009 
Q 1159 1288 1364 580 
Q 1569 -128 1984 -844 
L 1484 -844 
Q 1016 -109 783 600 
Q 550 1309 550 2009 
Q 550 2706 781 3412 
Q 1013 4119 1484 4856 
L 1984 4856 
z
" transform="scale(0.015625)"/>
      <path id="DejaVuSans-73" d="M 2834 3397 
L 2834 2853 
Q 2591 2978 2328 3040 
Q 2066 3103 1784 3103 
Q 1356 3103 1142 2972 
Q 928 2841 928 2578 
Q 928 2378 1081 2264 
Q 1234 2150 1697 2047 
L 1894 2003 
Q 2506 1872 2764 1633 
Q 3022 1394 3022 966 
Q 3022 478 2636 193 
Q 2250 -91 1575 -91 
Q 1294 -91 989 -36 
Q 684 19 347 128 
L 347 722 
Q 666 556 975 473 
Q 1284 391 1588 391 
Q 1994 391 2212 530 
Q 2431 669 2431 922 
Q 2431 1156 2273 1281 
Q 2116 1406 1581 1522 
L 1381 1569 
Q 847 1681 609 1914 
Q 372 2147 372 2553 
Q 372 3047 722 3315 
Q 1072 3584 1716 3584 
Q 2034 3584 2315 3537 
Q 2597 3491 2834 3397 
z
" transform="scale(0.015625)"/>
      <path id="DejaVuSans-29" d="M 513 4856 
L 1013 4856 
Q 1481 4119 1714 3412 
Q 1947 2706 1947 2009 
Q 1947 1309 1714 600 
Q 1481 -109 1013 -844 
L 513 -844 
Q 928 -128 1133 580 
Q 1338 1288 1338 2009 
Q 1338 2731 1133 3434 
Q 928 4138 513 4856 
z
" transform="scale(0.015625)"/>
     </defs>
     <use xlink:href="#DejaVuSans-5b"/>
     <use xlink:href="#DejaVuSans-33" transform="translate(39.013672 0)"/>
     <use xlink:href="#DejaVuSans-31" transform="translate(102.636719 0)"/>
     <use xlink:href="#DejaVuSans-5d" transform="translate(166.259766 0)"/>
     <use xlink:href="#DejaVuSans-20" transform="translate(205.273438 0)"/>
     <use xlink:href="#DejaVuSans-64" transform="translate(237.060547 0)"/>
     <use xlink:href="#DejaVuSans-4b" transform="translate(300.537109 0)"/>
     <use xlink:href="#DejaVuSans-61" transform="translate(364.363281 0)"/>
     <use xlink:href="#DejaVuSans-32" transform="translate(425.642578 0)"/>
     <use xlink:href="#DejaVuSans-5f" transform="translate(489.265625 0)"/>
     <use xlink:href="#DejaVuSans-79" transform="translate(539.265625 0)"/>
     <use xlink:href="#DejaVuSans-20" transform="translate(598.445312 0)"/>
     <use xlink:href="#DejaVuSans-20" transform="translate(630.232422 0)"/>
     <use xlink:href="#DejaVuSans-2014" transform="translate(662.019531 0)"/>
     <use xlink:href="#DejaVuSans-20" transform="translate(762.019531 0)"/>
     <use xlink:href="#DejaVuSans-20" transform="translate(793.806641 0)"/>
     <use xlink:href="#DejaVuSans-55" transform="translate(825.59375 0)"/>
     <use xlink:href="#DejaVuSans-6e" transform="translate(898.787109 0)"/>
     <use xlink:href="#DejaVuSans-63" transform="translate(962.166016 0)"/>
     <use xlink:href="#DejaVuSans-65" transform="translate(1017.146484 0)"/>
     <use xlink:href="#DejaVuSans-72" transform="translate(1078.669922 0)"/>
     <use xlink:href="#DejaVuSans-74" transform="translate(1119.783203 0)"/>
     <use xlink:href="#DejaVuSans-61" transform="translate(1158.992188 0)"/>
     <use xlink:href="#DejaVuSans-69" transform="translate(1220.271484 0)"/>
     <use xlink:href="#DejaVuSans-6e" transform="translate(1248.054688 0)"/>
     <use xlink:href="#DejaVuSans-74" transform="translate(1311.433594 0)"/>
     <use xlink:href="#DejaVuSans-79" transform="translate(1350.642578 0)"/>
     <use xlink:href="#DejaVuSans-20" transform="translate(1409.822266 0)"/>
     <use xlink:href="#DejaVuSans-28" transform="translate(1441.609375 0)"/>
     <use xlink:href="#DejaVuSans-73" transform="translate(1480.623047 0)"/>
     <use xlink:href="#DejaVuSans-74" transform="translate(1532.722656 0)"/>
     <use xlink:href="#DejaVuSans-64" transform="translate(1571.931641 0)"/>
     <use xlink:href="#DejaVuSans-20" transform="translate(1635.408203 0)"/>
     <use xlink:href="#DejaVuSans-64" transform="translate(1667.195312 0)"/>
     <use xlink:href="#DejaVuSans-65" transform="translate(1730.671875 0)"/>
     <use xlink:href="#DejaVuSans-76" transform="translate(1792.195312 0)"/>
     <use xlink:href="#DejaVuSans-29" transform="translate(1851.375 0)"/>
    </g>
   </g>
   <g id="legend_1">
    <g id="patch_7">
     <path d="M 738.401563 64.23625 
L 846.2 64.23625 
Q 848.2 64.23625 848.2 62.23625 
L 848.2 33.88 
Q 848.2 31.88 846.2 31.88 
L 738.401563 31.88 
Q 736.401563 31.88 736.401563 33.88 
L 736.401563 62.23625 
Q 736.401563 64.23625 738.401563 64.23625 
z
" style="fill: #ffffff; opacity: 0.8; stroke: #cccccc; stroke-linejoin: miter"/>
    </g>
    <g id="line2d_31">
     <path d="M 740.401563 39.978437 
L 750.401563 39.978437 
L 760.401563 39.978437 
" style="fill: none; stroke: #0000ff; stroke-width: 1.5; stroke-linecap: square"/>
    </g>
    <g id="text_16">
     <!-- No Noise -->
     <g transform="translate(768.401563 43.478437) scale(0.1 -0.1)">
      <defs>
       <path id="DejaVuSans-4e" d="M 628 4666 
L 1478 4666 
L 3547 763 
L 3547 4666 
L 4159 4666 
L 4159 0 
L 3309 0 
L 1241 3903 
L 1241 0 
L 628 0 
L 628 4666 
z
" transform="scale(0.015625)"/>
       <path id="DejaVuSans-6f" d="M 1959 3097 
Q 1497 3097 1228 2736 
Q 959 2375 959 1747 
Q 959 1119 1226 758 
Q 1494 397 1959 397 
Q 2419 397 2687 759 
Q 2956 1122 2956 1747 
Q 2956 2369 2687 2733 
Q 2419 3097 1959 3097 
z
M 1959 3584 
Q 2709 3584 3137 3096 
Q 3566 2609 3566 1747 
Q 3566 888 3137 398 
Q 2709 -91 1959 -91 
Q 1206 -91 779 398 
Q 353 888 353 1747 
Q 353 2609 779 3096 
Q 1206 3584 1959 3584 
z
" transform="scale(0.015625)"/>
      </defs>
      <use xlink:href="#DejaVuSans-4e"/>
      <use xlink:href="#DejaVuSans-6f" transform="translate(74.804688 0)"/>
      <use xlink:href="#DejaVuSans-20" transform="translate(135.986328 0)"/>
      <use xlink:href="#DejaVuSans-4e" transform="translate(167.773438 0)"/>
      <use xlink:href="#DejaVuSans-6f" transform="translate(242.578125 0)"/>
      <use xlink:href="#DejaVuSans-69" transform="translate(303.759766 0)"/>
      <use xlink:href="#DejaVuSans-73" transform="translate(331.542969 0)"/>
      <use xlink:href="#DejaVuSans-65" transform="translate(383.642578 0)"/>
     </g>
    </g>
    <g id="line2d_32">
     <path d="M 740.401563 54.656562 
L 750.401563 54.656562 
L 760.401563 54.656562 
" style="fill: none; stroke-dasharray: 5.55,2.4; stroke-dashoffset: 0; stroke: #ff0000; stroke-width: 1.5"/>
    </g>
    <g id="text_17">
     <!-- With ARW/VRW -->
     <g transform="translate(768.401563 58.156562) scale(0.1 -0.1)">
      <defs>
       <path id="DejaVuSans-57" d="M 213 4666 
L 850 4666 
L 1831 722 
L 2809 4666 
L 3519 4666 
L 4500 722 
L 5478 4666 
L 6119 4666 
L 4947 0 
L 4153 0 
L 3169 4050 
L 2175 0 
L 1381 0 
L 213 4666 
z
" transform="scale(0.015625)"/>
       <path id="DejaVuSans-68" d="M 3513 2113 
L 3513 0 
L 2938 0 
L 2938 2094 
Q 2938 2591 2744 2837 
Q 2550 3084 2163 3084 
Q 1697 3084 1428 2787 
Q 1159 2491 1159 1978 
L 1159 0 
L 581 0 
L 581 4863 
L 1159 4863 
L 1159 2956 
Q 1366 3272 1645 3428 
Q 1925 3584 2291 3584 
Q 2894 3584 3203 3211 
Q 3513 2838 3513 2113 
z
" transform="scale(0.015625)"/>
       <path id="DejaVuSans-41" d="M 2188 4044 
L 1331 1722 
L 3047 1722 
L 2188 4044 
z
M 1831 4666 
L 2547 4666 
L 4325 0 
L 3669 0 
L 3244 1197 
L 1141 1197 
L 716 0 
L 50 0 
L 1831 4666 
z
" transform="scale(0.015625)"/>
       <path id="DejaVuSans-52" d="M 2841 2188 
Q 3044 2119 3236 1894 
Q 3428 1669 3622 1275 
L 4263 0 
L 3584 0 
L 2988 1197 
Q 2756 1666 2539 1819 
Q 2322 1972 1947 1972 
L 1259 1972 
L 1259 0 
L 628 0 
L 628 4666 
L 2053 4666 
Q 2853 4666 3247 4331 
Q 3641 3997 3641 3322 
Q 3641 2881 3436 2590 
Q 3231 2300 2841 2188 
z
M 1259 4147 
L 1259 2491 
L 2053 2491 
Q 2509 2491 2742 2702 
Q 2975 2913 2975 3322 
Q 2975 3731 2742 3939 
Q 2509 4147 2053 4147 
L 1259 4147 
z
" transform="scale(0.015625)"/>
       <path id="DejaVuSans-2f" d="M 1625 4666 
L 2156 4666 
L 531 -594 
L 0 -594 
L 1625 4666 
z
" transform="scale(0.015625)"/>
       <path id="DejaVuSans-56" d="M 1831 0 
L 50 4666 
L 709 4666 
L 2188 738 
L 3669 4666 
L 4325 4666 
L 2547 0 
L 1831 0 
z
" transform="scale(0.015625)"/>
      </defs>
      <use xlink:href="#DejaVuSans-57"/>
      <use xlink:href="#DejaVuSans-69" transform="translate(96.626953 0)"/>
      <use xlink:href="#DejaVuSans-74" transform="translate(124.410156 0)"/>
      <use xlink:href="#DejaVuSans-68" transform="translate(163.619141 0)"/>
      <use xlink:href="#DejaVuSans-20" transform="translate(226.998047 0)"/>
      <use xlink:href="#DejaVuSans-41" transform="translate(258.785156 0)"/>
      <use xlink:href="#DejaVuSans-52" transform="translate(327.193359 0)"/>
      <use xlink:href="#DejaVuSans-57" transform="translate(392.675781 0)"/>
      <use xlink:href="#DejaVuSans-2f" transform="translate(491.552734 0)"/>
      <use xlink:href="#DejaVuSans-56" transform="translate(525.244141 0)"/>
      <use xlink:href="#DejaVuSans-52" transform="translate(593.652344 0)"/>
      <use xlink:href="#DejaVuSans-57" transform="translate(659.134766 0)"/>
     </g>
    </g>
   </g>
  </g>
  <g id="axes_2">
   <g id="patch_8">
    <path d="M 72.92 534.04 
L 853.2 534.04 
L 853.2 302.44 
L 72.92 302.44 
z
" style="fill: #ffffff"/>
   </g>
   <g id="matplotlib.axis_3">
    <g id="xtick_8">
     <g id="line2d_33">
      <path d="M 108.387273 534.04 
L 108.387273 302.44 
" clip-path="url(#pcafca8b9c9)" style="fill: none; stroke: #b0b0b0; stroke-width: 0.8; stroke-linecap: square"/>
     </g>
     <g id="line2d_34">
      <g>
       <use xlink:href="#m47dcb6905d" x="108.387273" y="534.04" style="stroke: #000000; stroke-width: 0.8"/>
      </g>
     </g>
     <g id="text_18">
      <!-- 0 -->
      <g transform="translate(105.206023 548.638438) scale(0.1 -0.1)">
       <use xlink:href="#DejaVuSans-30"/>
      </g>
     </g>
    </g>
    <g id="xtick_9">
     <g id="line2d_35">
      <path d="M 228.983236 534.04 
L 228.983236 302.44 
" clip-path="url(#pcafca8b9c9)" style="fill: none; stroke: #b0b0b0; stroke-width: 0.8; stroke-linecap: square"/>
     </g>
     <g id="line2d_36">
      <g>
       <use xlink:href="#m47dcb6905d" x="228.983236" y="534.04" style="stroke: #000000; stroke-width: 0.8"/>
      </g>
     </g>
     <g id="text_19">
      <!-- 50 -->
      <g transform="translate(222.620736 548.638438) scale(0.1 -0.1)">
       <use xlink:href="#DejaVuSans-35"/>
       <use xlink:href="#DejaVuSans-30" transform="translate(63.623047 0)"/>
      </g>
     </g>
    </g>
    <g id="xtick_10">
     <g id="line2d_37">
      <path d="M 349.579199 534.04 
L 349.579199 302.44 
" clip-path="url(#pcafca8b9c9)" style="fill: none; stroke: #b0b0b0; stroke-width: 0.8; stroke-linecap: square"/>
     </g>
     <g id="line2d_38">
      <g>
       <use xlink:href="#m47dcb6905d" x="349.579199" y="534.04" style="stroke: #000000; stroke-width: 0.8"/>
      </g>
     </g>
     <g id="text_20">
      <!-- 100 -->
      <g transform="translate(340.035449 548.638438) scale(0.1 -0.1)">
       <use xlink:href="#DejaVuSans-31"/>
       <use xlink:href="#DejaVuSans-30" transform="translate(63.623047 0)"/>
       <use xlink:href="#DejaVuSans-30" transform="translate(127.246094 0)"/>
      </g>
     </g>
    </g>
    <g id="xtick_11">
     <g id="line2d_39">
      <path d="M 470.175162 534.04 
L 470.175162 302.44 
" clip-path="url(#pcafca8b9c9)" style="fill: none; stroke: #b0b0b0; stroke-width: 0.8; stroke-linecap: square"/>
     </g>
     <g id="line2d_40">
      <g>
       <use xlink:href="#m47dcb6905d" x="470.175162" y="534.04" style="stroke: #000000; stroke-width: 0.8"/>
      </g>
     </g>
     <g id="text_21">
      <!-- 150 -->
      <g transform="translate(460.631412 548.638438) scale(0.1 -0.1)">
       <use xlink:href="#DejaVuSans-31"/>
       <use xlink:href="#DejaVuSans-35" transform="translate(63.623047 0)"/>
       <use xlink:href="#DejaVuSans-30" transform="translate(127.246094 0)"/>
      </g>
     </g>
    </g>
    <g id="xtick_12">
     <g id="line2d_41">
      <path d="M 590.771125 534.04 
L 590.771125 302.44 
" clip-path="url(#pcafca8b9c9)" style="fill: none; stroke: #b0b0b0; stroke-width: 0.8; stroke-linecap: square"/>
     </g>
     <g id="line2d_42">
      <g>
       <use xlink:href="#m47dcb6905d" x="590.771125" y="534.04" style="stroke: #000000; stroke-width: 0.8"/>
      </g>
     </g>
     <g id="text_22">
      <!-- 200 -->
      <g transform="translate(581.227375 548.638438) scale(0.1 -0.1)">
       <use xlink:href="#DejaVuSans-32"/>
       <use xlink:href="#DejaVuSans-30" transform="translate(63.623047 0)"/>
       <use xlink:href="#DejaVuSans-30" transform="translate(127.246094 0)"/>
      </g>
     </g>
    </g>
    <g id="xtick_13">
     <g id="line2d_43">
      <path d="M 711.367088 534.04 
L 711.367088 302.44 
" clip-path="url(#pcafca8b9c9)" style="fill: none; stroke: #b0b0b0; stroke-width: 0.8; stroke-linecap: square"/>
     </g>
     <g id="line2d_44">
      <g>
       <use xlink:href="#m47dcb6905d" x="711.367088" y="534.04" style="stroke: #000000; stroke-width: 0.8"/>
      </g>
     </g>
     <g id="text_23">
      <!-- 250 -->
      <g transform="translate(701.823338 548.638438) scale(0.1 -0.1)">
       <use xlink:href="#DejaVuSans-32"/>
       <use xlink:href="#DejaVuSans-35" transform="translate(63.623047 0)"/>
       <use xlink:href="#DejaVuSans-30" transform="translate(127.246094 0)"/>
      </g>
     </g>
    </g>
    <g id="xtick_14">
     <g id="line2d_45">
      <path d="M 831.963051 534.04 
L 831.963051 302.44 
" clip-path="url(#pcafca8b9c9)" style="fill: none; stroke: #b0b0b0; stroke-width: 0.8; stroke-linecap: square"/>
     </g>
     <g id="line2d_46">
      <g>
       <use xlink:href="#m47dcb6905d" x="831.963051" y="534.04" style="stroke: #000000; stroke-width: 0.8"/>
      </g>
     </g>
     <g id="text_24">
      <!-- 300 -->
      <g transform="translate(822.419301 548.638438) scale(0.1 -0.1)">
       <use xlink:href="#DejaVuSans-33"/>
       <use xlink:href="#DejaVuSans-30" transform="translate(63.623047 0)"/>
       <use xlink:href="#DejaVuSans-30" transform="translate(127.246094 0)"/>
      </g>
     </g>
    </g>
    <g id="text_25">
     <!-- Time (s) -->
     <g transform="translate(442.731094 562.316562) scale(0.1 -0.1)">
      <defs>
       <path id="DejaVuSans-54" d="M -19 4666 
L 3928 4666 
L 3928 4134 
L 2272 4134 
L 2272 0 
L 1638 0 
L 1638 4134 
L -19 4134 
L -19 4666 
z
" transform="scale(0.015625)"/>
       <path id="DejaVuSans-6d" d="M 3328 2828 
Q 3544 3216 3844 3400 
Q 4144 3584 4550 3584 
Q 5097 3584 5394 3201 
Q 5691 2819 5691 2113 
L 5691 0 
L 5113 0 
L 5113 2094 
Q 5113 2597 4934 2840 
Q 4756 3084 4391 3084 
Q 3944 3084 3684 2787 
Q 3425 2491 3425 1978 
L 3425 0 
L 2847 0 
L 2847 2094 
Q 2847 2600 2669 2842 
Q 2491 3084 2119 3084 
Q 1678 3084 1418 2786 
Q 1159 2488 1159 1978 
L 1159 0 
L 581 0 
L 581 3500 
L 1159 3500 
L 1159 2956 
Q 1356 3278 1631 3431 
Q 1906 3584 2284 3584 
Q 2666 3584 2933 3390 
Q 3200 3197 3328 2828 
z
" transform="scale(0.015625)"/>
      </defs>
      <use xlink:href="#DejaVuSans-54"/>
      <use xlink:href="#DejaVuSans-69" transform="translate(57.958984 0)"/>
      <use xlink:href="#DejaVuSans-6d" transform="translate(85.742188 0)"/>
      <use xlink:href="#DejaVuSans-65" transform="translate(183.154297 0)"/>
      <use xlink:href="#DejaVuSans-20" transform="translate(244.677734 0)"/>
      <use xlink:href="#DejaVuSans-28" transform="translate(276.464844 0)"/>
      <use xlink:href="#DejaVuSans-73" transform="translate(315.478516 0)"/>
      <use xlink:href="#DejaVuSans-29" transform="translate(367.578125 0)"/>
     </g>
    </g>
   </g>
   <g id="matplotlib.axis_4">
    <g id="ytick_7">
     <g id="line2d_47">
      <path d="M 72.92 490.235307 
L 853.2 490.235307 
" clip-path="url(#pcafca8b9c9)" style="fill: none; stroke: #b0b0b0; stroke-width: 0.8; stroke-linecap: square"/>
     </g>
     <g id="line2d_48">
      <g>
       <use xlink:href="#m2305aa73ed" x="72.92" y="490.235307" style="stroke: #000000; stroke-width: 0.8"/>
      </g>
     </g>
     <g id="text_26">
      <!-- 0.0 -->
      <g transform="translate(50.016875 494.034526) scale(0.1 -0.1)">
       <use xlink:href="#DejaVuSans-30"/>
       <use xlink:href="#DejaVuSans-2e" transform="translate(63.623047 0)"/>
       <use xlink:href="#DejaVuSans-30" transform="translate(95.410156 0)"/>
      </g>
     </g>
    </g>
    <g id="ytick_8">
     <g id="line2d_49">
      <path d="M 72.92 439.635133 
L 853.2 439.635133 
" clip-path="url(#pcafca8b9c9)" style="fill: none; stroke: #b0b0b0; stroke-width: 0.8; stroke-linecap: square"/>
     </g>
     <g id="line2d_50">
      <g>
       <use xlink:href="#m2305aa73ed" x="72.92" y="439.635133" style="stroke: #000000; stroke-width: 0.8"/>
      </g>
     </g>
     <g id="text_27">
      <!-- 0.5 -->
      <g transform="translate(50.016875 443.434352) scale(0.1 -0.1)">
       <use xlink:href="#DejaVuSans-30"/>
       <use xlink:href="#DejaVuSans-2e" transform="translate(63.623047 0)"/>
       <use xlink:href="#DejaVuSans-35" transform="translate(95.410156 0)"/>
      </g>
     </g>
    </g>
    <g id="ytick_9">
     <g id="line2d_51">
      <path d="M 72.92 389.03496 
L 853.2 389.03496 
" clip-path="url(#pcafca8b9c9)" style="fill: none; stroke: #b0b0b0; stroke-width: 0.8; stroke-linecap: square"/>
     </g>
     <g id="line2d_52">
      <g>
       <use xlink:href="#m2305aa73ed" x="72.92" y="389.03496" style="stroke: #000000; stroke-width: 0.8"/>
      </g>
     </g>
     <g id="text_28">
      <!-- 1.0 -->
      <g transform="translate(50.016875 392.834179) scale(0.1 -0.1)">
       <use xlink:href="#DejaVuSans-31"/>
       <use xlink:href="#DejaVuSans-2e" transform="translate(63.623047 0)"/>
       <use xlink:href="#DejaVuSans-30" transform="translate(95.410156 0)"/>
      </g>
     </g>
    </g>
    <g id="ytick_10">
     <g id="line2d_53">
      <path d="M 72.92 338.434786 
L 853.2 338.434786 
" clip-path="url(#pcafca8b9c9)" style="fill: none; stroke: #b0b0b0; stroke-width: 0.8; stroke-linecap: square"/>
     </g>
     <g id="line2d_54">
      <g>
       <use xlink:href="#m2305aa73ed" x="72.92" y="338.434786" style="stroke: #000000; stroke-width: 0.8"/>
      </g>
     </g>
     <g id="text_29">
      <!-- 1.5 -->
      <g transform="translate(50.016875 342.234005) scale(0.1 -0.1)">
       <use xlink:href="#DejaVuSans-31"/>
       <use xlink:href="#DejaVuSans-2e" transform="translate(63.623047 0)"/>
       <use xlink:href="#DejaVuSans-35" transform="translate(95.410156 0)"/>
      </g>
     </g>
    </g>
    <g id="text_30">
     <!-- Estimated Value -->
     <g transform="translate(43.937187 458.818906) rotate(-90) scale(0.1 -0.1)">
      <defs>
       <path id="DejaVuSans-45" d="M 628 4666 
L 3578 4666 
L 3578 4134 
L 1259 4134 
L 1259 2753 
L 3481 2753 
L 3481 2222 
L 1259 2222 
L 1259 531 
L 3634 531 
L 3634 0 
L 628 0 
L 628 4666 
z
" transform="scale(0.015625)"/>
       <path id="DejaVuSans-6c" d="M 603 4863 
L 1178 4863 
L 1178 0 
L 603 0 
L 603 4863 
z
" transform="scale(0.015625)"/>
       <path id="DejaVuSans-75" d="M 544 1381 
L 544 3500 
L 1119 3500 
L 1119 1403 
Q 1119 906 1312 657 
Q 1506 409 1894 409 
Q 2359 409 2629 706 
Q 2900 1003 2900 1516 
L 2900 3500 
L 3475 3500 
L 3475 0 
L 2900 0 
L 2900 538 
Q 2691 219 2414 64 
Q 2138 -91 1772 -91 
Q 1169 -91 856 284 
Q 544 659 544 1381 
z
M 1991 3584 
L 1991 3584 
z
" transform="scale(0.015625)"/>
      </defs>
      <use xlink:href="#DejaVuSans-45"/>
      <use xlink:href="#DejaVuSans-73" transform="translate(63.183594 0)"/>
      <use xlink:href="#DejaVuSans-74" transform="translate(115.283203 0)"/>
      <use xlink:href="#DejaVuSans-69" transform="translate(154.492188 0)"/>
      <use xlink:href="#DejaVuSans-6d" transform="translate(182.275391 0)"/>
      <use xlink:href="#DejaVuSans-61" transform="translate(279.6875 0)"/>
      <use xlink:href="#DejaVuSans-74" transform="translate(340.966797 0)"/>
      <use xlink:href="#DejaVuSans-65" transform="translate(380.175781 0)"/>
      <use xlink:href="#DejaVuSans-64" transform="translate(441.699219 0)"/>
      <use xlink:href="#DejaVuSans-20" transform="translate(505.175781 0)"/>
      <use xlink:href="#DejaVuSans-56" transform="translate(536.962891 0)"/>
      <use xlink:href="#DejaVuSans-61" transform="translate(597.621094 0)"/>
      <use xlink:href="#DejaVuSans-6c" transform="translate(658.900391 0)"/>
      <use xlink:href="#DejaVuSans-75" transform="translate(686.683594 0)"/>
      <use xlink:href="#DejaVuSans-65" transform="translate(750.0625 0)"/>
     </g>
    </g>
    <g id="text_31">
     <!-- 1e−5 -->
     <g transform="translate(72.92 299.44) scale(0.1 -0.1)">
      <defs>
       <path id="DejaVuSans-2212" d="M 678 2272 
L 4684 2272 
L 4684 1741 
L 678 1741 
L 678 2272 
z
" transform="scale(0.015625)"/>
      </defs>
      <use xlink:href="#DejaVuSans-31"/>
      <use xlink:href="#DejaVuSans-65" transform="translate(63.623047 0)"/>
      <use xlink:href="#DejaVuSans-2212" transform="translate(125.146484 0)"/>
      <use xlink:href="#DejaVuSans-35" transform="translate(208.935547 0)"/>
     </g>
    </g>
   </g>
   <g id="line2d_55">
    <path d="M 108.387273 490.235307 
L 210.363219 490.235498 
L 210.411457 489.560346 
L 210.749126 495.83419 
L 210.990318 496.311077 
L 211.376225 496.526724 
L 212.244516 496.685832 
L 214.897627 496.875051 
L 219.721466 497.004098 
L 222.181623 497.004098 
L 222.229862 499.000068 
L 222.2781 498.582508 
L 222.567531 495.832629 
L 222.808722 495.446458 
L 223.242868 495.233144 
L 224.352351 495.024991 
L 227.101939 494.769391 
L 230.140957 494.697125 
L 234.000028 494.730741 
L 234.144743 496.851329 
L 236.411947 497.247758 
L 243.454751 498.534506 
L 245.818432 498.534506 
L 245.866671 506.765048 
L 245.963147 506.558006 
L 246.638485 504.207046 
L 247.024392 503.823204 
L 247.506776 503.676476 
L 248.182113 503.73071 
L 249.291596 504.078112 
L 251.5588 505.075767 
L 255.031964 506.561297 
L 257.636837 506.561297 
L 257.781552 505.357777 
L 259.083988 504.29108 
L 260.096994 503.889567 
L 261.495907 503.590913 
L 263.618396 503.381543 
L 266.946845 503.296405 
L 269.455241 503.296405 
L 269.551718 503.633862 
L 269.599956 503.621541 
L 270.034102 503.328434 
L 270.854154 502.871853 
L 271.963637 502.532212 
L 273.507265 502.309841 
L 275.774469 502.224008 
L 281.273645 502.305861 
L 281.41836 504.311933 
L 282.62432 505.497233 
L 283.589088 506.035535 
L 284.891524 506.491731 
L 286.724583 506.881431 
L 289.425932 507.209192 
L 291.548421 507.287326 
L 293.09205 507.287326 
L 293.236765 507.060167 
L 294.346248 507.189919 
L 301.871436 507.561554 
L 304.476309 507.577952 
L 304.910454 507.577952 
L 305.055169 508.926329 
L 305.63403 509.084785 
L 306.454082 508.936901 
L 313.545125 507.232312 
L 314.654608 507.13415 
L 316.68062 507.13415 
L 316.825335 507.635911 
L 317.645388 508.360109 
L 318.610155 508.964275 
L 319.864353 509.46922 
L 321.504459 509.879248 
L 323.771663 510.202545 
L 326.424774 510.361882 
L 329.849699 510.253558 
L 332.599287 510.045078 
L 338.48437 509.852183 
L 340.317429 509.852183 
L 340.462144 509.085943 
L 342.005772 508.498059 
L 343.742354 508.151801 
L 344.803599 508.008787 
L 344.948314 490.235307 
L 446.827783 490.235304 
L 447.020737 490.534515 
L 447.310167 490.660642 
L 448.612604 490.701954 
L 470.271639 490.835725 
L 470.464592 490.835725 
L 470.609307 490.535119 
L 475.336669 490.788879 
L 482.282997 490.941646 
L 482.379473 494.206884 
L 482.427712 494.188596 
L 483.151287 493.932252 
L 484.26077 493.93897 
L 488.361033 494.301867 
L 492.316581 494.5486 
L 494.197878 494.444874 
L 496.706274 494.124134 
L 500.420629 494.033105 
L 505.919805 494.025535 
L 506.06452 494.12958 
L 510.068306 493.96589 
L 517.73821 493.992044 
L 517.882925 494.945975 
L 519.378315 495.118231 
L 522.755002 495.25 
L 529.556614 495.305088 
L 529.701329 494.596378 
L 531.196719 494.433322 
L 535.972319 494.446054 
L 541.375018 494.467248 
L 541.519734 493.473029 
L 542.53274 493.257269 
L 544.896421 493.088717 
L 551.022695 492.905641 
L 553.434615 493.013052 
L 556.039487 493.24413 
L 560.863326 493.39194 
L 567.32727 493.385661 
L 581.268163 493.000551 
L 581.412878 490.235307 
L 683.340586 490.202332 
L 683.485301 489.515678 
L 684.932453 489.507486 
L 689.322146 489.386253 
L 695.110752 489.08525 
L 695.255467 489.906454 
L 697.812102 489.607165 
L 700.85112 489.63941 
L 704.227807 489.89508 
L 705.289051 489.900256 
L 706.929156 489.900256 
L 707.073872 488.786964 
L 707.604494 486.319877 
L 707.942163 485.908372 
L 708.376308 485.750441 
L 709.051645 485.787671 
L 710.209367 486.114519 
L 712.380094 486.995564 
L 716.576833 488.753388 
L 718.747561 488.753388 
L 718.844038 498.060343 
L 718.892276 498.059096 
L 722.461916 497.905353 
L 731.91664 497.70536 
L 736.885194 497.64747 
L 746.002248 497.524346 
L 754.202774 497.505748 
L 754.347489 497.944008 
L 756.759408 498.045595 
L 764.76698 498.113922 
L 766.021178 498.113922 
L 766.165893 496.674529 
L 767.275376 496.380995 
L 769.397865 496.279212 
L 776.826577 496.208302 
L 777.839583 496.208302 
L 777.984298 491.560895 
L 778.611397 491.030436 
L 779.334973 490.825861 
L 780.830363 490.68628 
L 784.737672 490.604471 
L 799.595094 490.607926 
L 815.127854 490.497298 
L 817.732727 490.45995 
L 817.732727 490.45995 
" clip-path="url(#pcafca8b9c9)" style="fill: none; stroke: #0000ff; stroke-width: 1.5; stroke-linecap: square"/>
   </g>
   <g id="line2d_56">
    <path d="M 108.387273 490.235307 
L 210.363219 490.234367 
L 210.411457 489.673567 
L 210.700888 495.65231 
L 211.135033 495.828685 
L 211.23151 495.810149 
L 211.376225 495.744149 
L 211.810371 495.935291 
L 212.533946 496.161379 
L 212.871615 496.37572 
L 213.257522 496.465879 
L 213.546952 496.455883 
L 214.656435 496.556744 
L 215.71768 496.732047 
L 216.875401 496.684942 
L 219.239082 496.709134 
L 222.036908 496.715185 
L 222.181623 496.715185 
L 222.229862 499.586498 
L 222.326339 498.758049 
L 222.615769 497.622122 
L 223.001676 496.427652 
L 223.435821 496.034997 
L 225.075927 495.766372 
L 225.365357 495.801838 
L 225.847741 495.828498 
L 226.281886 495.786769 
L 226.957224 495.750865 
L 228.211422 495.607123 
L 228.742044 495.530273 
L 231.781062 495.541174 
L 234.000028 495.541174 
L 234.144743 497.812779 
L 235.013034 498.328992 
L 235.254226 498.256655 
L 235.543656 498.444072 
L 235.688371 498.467073 
L 236.074278 498.910661 
L 236.363709 498.791795 
L 236.701377 499.003125 
L 236.942569 499.111696 
L 237.424953 499.597076 
L 237.617907 499.661724 
L 237.907337 499.794508 
L 238.100291 499.756548 
L 238.630913 499.622771 
L 241.766408 500.44712 
L 242.345268 500.337303 
L 245.818432 500.395352 
L 245.914909 508.320036 
L 245.963147 508.144879 
L 246.059624 508.46089 
L 246.107863 508.325703 
L 246.300816 507.155245 
L 246.445531 506.838349 
L 246.49377 506.93668 
L 246.686723 506.16903 
L 246.7832 506.279968 
L 246.927915 506.761641 
L 247.024392 506.974779 
L 247.07263 506.92419 
L 247.169107 506.87988 
L 247.555014 505.387481 
L 247.603252 505.442948 
L 247.796206 505.698183 
L 247.844444 505.617947 
L 247.892683 505.707415 
L 248.037398 505.759495 
L 248.085636 505.795996 
L 248.133875 505.722782 
L 248.230351 505.591965 
L 248.27859 505.663777 
L 248.85745 506.918151 
L 248.953927 507.096434 
L 249.195119 507.443298 
L 249.725741 508.083421 
L 250.015172 508.123513 
L 250.304602 508.38192 
L 250.449317 508.410319 
L 251.028178 508.79638 
L 251.172893 508.694379 
L 251.5588 508.523345 
L 252.282376 508.681121 
L 252.523568 508.929059 
L 252.812998 509.387555 
L 253.05419 509.509528 
L 254.501342 511.495485 
L 254.742533 511.597202 
L 255.128441 511.861144 
L 257.636837 511.861144 
L 257.781552 509.666431 
L 258.215697 509.394281 
L 258.698081 509.025546 
L 259.32518 508.275598 
L 259.61461 508.181578 
L 259.855802 507.854402 
L 260.241709 507.403679 
L 260.386425 507.413752 
L 260.579378 507.365071 
L 261.061762 507.482668 
L 261.351192 507.776364 
L 261.544146 507.830074 
L 261.737099 507.803805 
L 262.267722 507.967975 
L 263.666635 507.750977 
L 263.859588 507.852398 
L 264.197257 507.75242 
L 264.486687 507.614301 
L 264.920833 507.837463 
L 265.113786 507.890918 
L 265.451455 508.091261 
L 266.126792 508.06419 
L 266.464461 508.156976 
L 266.657415 508.281768 
L 267.09156 508.246206 
L 269.455241 508.246206 
L 269.551718 508.737805 
L 269.599956 508.728836 
L 269.79291 508.614078 
L 270.468247 508.01516 
L 272.108352 507.903329 
L 272.735451 507.778683 
L 273.121358 507.739069 
L 274.086126 507.653481 
L 274.472033 507.659956 
L 275.292086 507.572226 
L 276.690999 507.618309 
L 277.896958 507.679574 
L 278.427581 507.714163 
L 279.488825 507.707443 
L 281.273645 507.707443 
L 281.41836 504.365879 
L 281.707791 503.938534 
L 281.804268 503.855181 
L 282.093698 503.379384 
L 282.431367 503.395535 
L 282.961989 502.845783 
L 283.299658 502.719529 
L 283.540849 502.594161 
L 283.685565 502.533991 
L 284.023233 502.339341 
L 284.216187 502.353502 
L 284.40914 502.306567 
L 284.602094 502.385182 
L 284.988001 502.5185 
L 285.229193 502.545735 
L 285.518623 502.617518 
L 286.724583 502.612172 
L 288.798833 502.904041 
L 290.631892 502.54211 
L 293.09205 502.54211 
L 293.236765 503.20467 
L 294.105056 503.129636 
L 294.58744 502.772483 
L 294.732155 502.718283 
L 295.069823 502.450756 
L 295.455731 502.47074 
L 295.648684 502.562226 
L 296.275783 502.493171 
L 296.468737 502.483281 
L 296.854644 502.56314 
L 297.674696 502.559472 
L 298.060603 502.460602 
L 298.350034 502.423173 
L 300.520761 502.492416 
L 300.713715 502.516191 
L 301.244337 502.718586 
L 301.919674 502.879058 
L 302.595012 502.940502 
L 304.910454 502.940502 
L 305.006931 497.628529 
L 305.055169 497.64937 
L 305.199884 497.398537 
L 305.441076 498.032564 
L 305.489315 497.986173 
L 305.537553 497.982924 
L 305.778745 498.670275 
L 305.826983 498.620298 
L 306.21289 497.550862 
L 306.405844 497.058224 
L 306.550559 496.907149 
L 306.695274 496.982731 
L 307.274135 496.781042 
L 307.41885 496.919661 
L 307.756519 496.432623 
L 309.010717 494.908185 
L 309.348386 494.742083 
L 309.493101 494.650172 
L 309.830769 494.371608 
L 310.168438 494.282498 
L 311.181444 493.600541 
L 312.001497 493.417749 
L 312.483881 493.218114 
L 312.773311 493.208272 
L 313.40041 492.957926 
L 313.641602 492.892529 
L 316.246475 492.939929 
L 316.68062 492.939929 
L 316.825335 493.811294 
L 317.163004 494.519456 
L 317.790103 495.796781 
L 318.417202 496.625853 
L 318.706632 496.79745 
L 319.092539 496.824416 
L 319.574923 497.140882 
L 322.517465 497.516934 
L 324.398762 497.384796 
L 326.376536 497.380401 
L 328.499024 497.380401 
L 328.64374 497.661358 
L 329.319077 497.499985 
L 329.608507 497.488321 
L 330.573275 497.405546 
L 330.862705 497.340333 
L 331.489804 497.512624 
L 333.081671 497.457925 
L 333.41934 497.35845 
L 334.287631 497.353557 
L 337.857271 496.824601 
L 340.317429 496.824601 
L 340.462144 495.670425 
L 340.896289 495.316968 
L 341.18572 495.144166 
L 341.378673 495.117593 
L 341.76458 494.799673 
L 342.439918 494.343005 
L 342.874063 494.380943 
L 343.163494 494.353351 
L 343.887069 494.020634 
L 344.369453 494.001438 
L 344.803599 493.780563 
L 344.948314 490.235322 
L 446.827783 490.234125 
L 446.972499 491.015054 
L 447.068975 490.963057 
L 447.358406 490.442697 
L 447.454882 490.431707 
L 447.889028 490.065516 
L 448.081981 490.202311 
L 448.274935 490.142707 
L 448.950272 490.214066 
L 449.191464 490.407557 
L 449.722086 490.53149 
L 450.011517 490.50183 
L 451.121 490.538317 
L 452.182244 490.665932 
L 453.291727 490.581881 
L 457.199036 490.568606 
L 458.646188 490.568606 
L 458.839141 492.37887 
L 459.032095 492.969547 
L 459.080333 492.999538 
L 459.562717 492.152669 
L 460.6722 491.869877 
L 461.058107 491.890911 
L 461.444014 491.82495 
L 462.119351 491.963925 
L 462.794689 491.977498 
L 469.210394 491.847673 
L 470.657546 491.953486 
L 470.850499 492.162795 
L 470.995214 492.099907 
L 471.043453 492.090758 
L 471.236406 492.339301 
L 471.381121 492.267551 
L 471.574075 492.261239 
L 471.71879 492.234671 
L 471.959982 492.401299 
L 472.152936 492.383556 
L 472.538843 492.772252 
L 472.828273 492.610778 
L 473.117703 492.757957 
L 473.50361 492.96239 
L 473.744802 493.241099 
L 474.130709 493.340211 
L 474.323663 493.37331 
L 474.516616 493.370755 
L 474.950762 493.130433 
L 475.336669 493.169252 
L 476.253198 493.283426 
L 476.49439 493.37532 
L 476.832059 493.404731 
L 477.893303 493.528238 
L 478.568641 493.430281 
L 479.099263 493.338303 
L 479.533409 493.347022 
L 479.871077 493.311068 
L 482.282997 493.311068 
L 482.379473 506.210327 
L 482.427712 506.203062 
L 482.572427 507.115786 
L 482.668904 506.667845 
L 482.717142 506.850821 
L 482.861857 506.930959 
L 482.958334 507.24022 
L 483.006572 507.194318 
L 483.151287 506.85642 
L 483.585433 508.095567 
L 483.633671 508.062366 
L 484.019578 506.727799 
L 484.067817 506.794511 
L 484.26077 507.084747 
L 484.309009 507.010854 
L 484.357247 507.10458 
L 484.501962 507.16664 
L 484.550201 507.204213 
L 484.598439 507.131082 
L 484.694916 506.998862 
L 484.743154 507.068978 
L 485.322015 508.259685 
L 485.418492 508.422363 
L 485.611445 508.684852 
L 485.804399 509.005006 
L 486.093829 509.261241 
L 486.527974 509.281816 
L 486.720928 509.421194 
L 487.058597 509.486353 
L 487.396265 509.698649 
L 488.45751 509.059366 
L 489.181086 509.604243 
L 489.325801 509.679401 
L 489.566993 509.790451 
L 490.001138 510.268539 
L 490.290568 510.611206 
L 490.579999 510.970117 
L 491.062383 511.255792 
L 491.207098 511.298938 
L 491.593005 511.492 
L 494.101401 511.492 
L 494.246116 510.084227 
L 494.583785 510.039193 
L 494.776738 510.140568 
L 494.873215 510.175234 
L 495.01793 510.202579 
L 495.548552 509.60308 
L 495.886221 509.493634 
L 496.127413 509.446666 
L 496.320367 509.20666 
L 496.706274 508.830414 
L 496.850989 508.869372 
L 497.043942 508.850697 
L 497.526326 509.037279 
L 497.863995 509.409729 
L 498.00871 509.448308 
L 498.201664 509.442788 
L 498.732286 509.64607 
L 500.131199 509.478697 
L 500.324153 509.583034 
L 500.661821 509.477966 
L 500.951252 509.341644 
L 501.385397 509.573192 
L 501.578351 509.629787 
L 501.916019 509.839532 
L 502.591357 509.821566 
L 502.929025 509.922026 
L 503.121979 510.047332 
L 503.604363 510.016037 
L 505.919805 510.016037 
L 506.06452 510.338108 
L 506.305712 510.288623 
L 506.546904 510.1927 
L 506.836335 510.041361 
L 507.222242 510.174052 
L 507.945817 510.423784 
L 508.283486 510.4845 
L 508.862347 510.399457 
L 514.699191 510.470327 
L 515.422767 510.457325 
L 517.73821 510.457325 
L 517.882925 506.394252 
L 518.461785 504.94108 
L 518.654739 504.811332 
L 518.751216 504.788251 
L 519.52303 503.713215 
L 520.632513 502.85521 
L 520.825466 502.82876 
L 521.01842 502.777591 
L 521.30785 502.881362 
L 521.790234 502.8667 
L 522.369095 502.834805 
L 522.996194 502.701438 
L 523.430339 502.735048 
L 525.359875 502.728857 
L 525.890497 502.559759 
L 526.276404 502.454608 
L 526.807026 502.311731 
L 527.096456 502.290562 
L 529.556614 502.290562 
L 529.653091 501.922361 
L 529.701329 501.957766 
L 530.28019 501.78491 
L 530.424905 501.705885 
L 531.052004 501.189754 
L 531.196719 501.120265 
L 531.534388 500.825686 
L 531.920295 500.818702 
L 532.113248 500.899299 
L 532.740347 500.797939 
L 532.933301 500.778933 
L 533.319208 500.841597 
L 534.139261 500.804525 
L 534.525168 500.691961 
L 534.814598 500.644021 
L 537.467709 500.826225 
L 537.660663 500.861787 
L 538.04657 500.877629 
L 538.914861 501.024576 
L 541.375018 501.024576 
L 541.471495 495.494234 
L 541.519734 495.500625 
L 541.664449 495.201108 
L 541.905641 495.793591 
L 541.953879 495.745073 
L 542.002117 495.742264 
L 542.243309 496.447865 
L 542.291548 496.403792 
L 542.677455 495.406638 
L 542.870408 494.957651 
L 543.015123 494.840184 
L 543.159839 494.950171 
L 543.738699 494.891612 
L 543.883414 495.065726 
L 544.221083 494.661995 
L 545.427043 493.482167 
L 545.716473 493.277895 
L 545.909427 493.324274 
L 546.343572 493.093006 
L 546.825956 492.98246 
L 547.501293 492.637851 
L 547.838962 492.595803 
L 548.466061 492.574717 
L 548.900206 492.473429 
L 549.864974 492.369048 
L 550.106166 492.345291 
L 551.119172 492.465253 
L 553.145184 492.465253 
L 553.2899 492.921661 
L 553.627568 493.366825 
L 554.206429 494.143401 
L 555.122958 494.73595 
L 555.605342 494.629589 
L 555.894772 494.754558 
L 556.232441 494.717168 
L 557.293686 494.659849 
L 557.776069 494.725553 
L 558.596122 494.613964 
L 559.030267 494.543019 
L 562.358716 494.1159 
L 564.963589 494.1159 
L 565.108304 494.438068 
L 567.086078 494.350886 
L 567.375508 494.357425 
L 567.954369 494.542121 
L 569.497997 494.582013 
L 569.883904 494.466458 
L 570.703957 494.504949 
L 571.234579 494.429539 
L 571.958155 494.265646 
L 572.3923 494.173321 
L 573.453545 494.050321 
L 574.611266 494.03795 
L 576.781993 494.03795 
L 576.926708 493.586652 
L 577.360854 493.433108 
L 577.650284 493.378077 
L 577.843238 493.420754 
L 578.180906 493.2283 
L 578.518575 493.086838 
L 579.049197 492.944637 
L 579.821011 492.985115 
L 580.399872 492.882156 
L 580.737541 492.928557 
L 581.075209 492.812024 
L 581.268163 492.74718 
L 581.412878 490.235301 
L 683.292348 490.110079 
L 683.340586 486.346208 
L 683.485301 448.776901 
L 683.774732 447.372739 
L 683.919447 447.357768 
L 684.257115 446.821705 
L 684.353592 446.808839 
L 684.498307 447.036484 
L 685.221883 446.840708 
L 685.366598 447.006485 
L 685.656029 447.451694 
L 686.138412 447.967701 
L 686.427843 448.177566 
L 686.669035 447.901082 
L 686.81375 447.835311 
L 686.958465 447.893308 
L 687.344372 448.599693 
L 687.39261 448.56395 
L 687.537326 448.156477 
L 687.730279 447.618078 
L 687.971471 447.501466 
L 688.019709 447.62416 
L 688.067948 447.596931 
L 688.695047 446.794755 
L 688.791524 446.823373 
L 689.032716 446.258932 
L 689.370384 445.401661 
L 689.515099 445.381359 
L 689.659815 445.471963 
L 689.80453 445.727473 
L 690.045722 445.332195 
L 690.09396 445.393131 
L 690.142198 445.3146 
L 690.817536 442.839367 
L 691.203443 442.352722 
L 691.29992 442.517881 
L 691.396396 442.792971 
L 691.444635 442.737765 
L 691.541112 442.681773 
L 691.58935 442.762386 
L 691.637588 442.778594 
L 691.830542 442.203138 
L 691.927019 442.256581 
L 692.023495 442.201103 
L 692.457641 440.120666 
L 695.110752 440.120666 
L 695.255467 359.048496 
L 695.351944 358.893725 
L 695.400182 357.472498 
L 695.496659 357.55222 
L 695.641374 356.586026 
L 695.979043 347.800406 
L 696.027281 347.852829 
L 696.268473 344.618639 
L 696.413188 344.210484 
L 696.799096 339.015402 
L 697.088526 340.638195 
L 697.281479 342.980298 
L 697.426195 342.459789 
L 697.474433 342.463914 
L 697.522671 342.58568 
L 697.956817 338.53342 
L 698.005055 338.935124 
L 698.053294 339.07343 
L 698.101532 339.044425 
L 698.246247 338.23114 
L 698.294485 338.569266 
L 698.487439 337.22187 
L 698.583916 336.819594 
L 698.680393 337.060431 
L 698.921584 337.991555 
L 699.018061 338.25944 
L 699.307492 335.707134 
L 699.35573 335.352062 
L 699.403968 335.622668 
L 699.500445 335.270095 
L 699.548684 335.482934 
L 699.596922 335.461192 
L 699.934591 337.554519 
L 700.079306 337.795157 
L 700.127544 337.69297 
L 700.175783 337.832479 
L 700.465213 339.537706 
L 700.513451 339.354023 
L 700.609928 339.638358 
L 700.706405 339.255399 
L 700.754643 339.467957 
L 700.85112 339.504821 
L 700.947597 340.296036 
L 700.995835 340.078346 
L 701.092312 339.771782 
L 701.381742 337.073305 
L 701.864126 339.021337 
L 702.201795 340.942707 
L 702.250033 340.68309 
L 702.34651 340.304991 
L 702.828894 343.256979 
L 702.877132 343.061916 
L 703.070086 341.893826 
L 703.311278 340.708855 
L 703.359516 340.568669 
L 703.648946 338.462973 
L 704.13133 341.119139 
L 704.179568 340.986269 
L 704.372522 340.408394 
L 706.929156 340.408394 
L 706.977395 312.967273 
L 707.073872 318.006483 
L 707.700971 379.320939 
L 707.749209 380.041629 
L 707.942163 397.116559 
L 708.086878 394.205598 
L 708.135116 394.235886 
L 708.424546 403.080949 
L 708.472785 402.590488 
L 708.569262 400.786096 
L 708.6175 401.281428 
L 708.955169 418.180153 
L 709.003407 417.398476 
L 709.196361 408.831882 
L 709.292837 410.320518 
L 709.534029 415.65476 
L 709.871698 419.269674 
L 710.161128 434.555049 
L 710.257605 434.266208 
L 710.305843 434.290157 
L 710.354082 434.448091 
L 710.450559 433.31775 
L 710.498797 433.623427 
L 710.643512 436.557174 
L 710.69175 436.218717 
L 710.788227 434.942583 
L 710.884704 436.110077 
L 710.932942 436.000873 
L 711.415326 425.684973 
L 711.511803 424.535018 
L 711.560041 425.018082 
L 711.656518 425.589042 
L 711.994187 430.071574 
L 712.042425 431.054686 
L 712.090664 430.896654 
L 712.138902 430.652278 
L 712.18714 430.667225 
L 712.524809 435.972997 
L 712.573048 435.918284 
L 712.621286 435.548711 
L 712.910716 440.592517 
L 712.958955 440.761528 
L 713.055431 439.772703 
L 713.151908 439.995641 
L 713.344862 442.364105 
L 713.537815 441.07467 
L 713.586054 441.128537 
L 713.68253 441.35126 
L 713.875484 444.618314 
L 714.068437 447.545743 
L 714.502583 450.632345 
L 714.550821 450.615137 
L 714.59906 450.548245 
L 714.647298 450.842947 
L 714.695536 450.80042 
L 714.984967 446.484523 
L 715.467351 442.590082 
L 715.563827 442.784819 
L 715.756781 443.922388 
L 715.805019 443.460069 
L 715.853258 443.523381 
L 715.901496 443.617573 
L 715.949734 443.55769 
L 715.997973 443.541582 
L 716.142688 442.637321 
L 718.747561 442.637321 
L 718.844038 519.047879 
L 718.892276 518.978645 
L 719.036991 519.89648 
L 719.133468 519.227249 
L 719.181706 519.402321 
L 719.278183 519.265209 
L 719.326421 519.366603 
L 719.37466 519.435022 
L 719.422898 519.702013 
L 719.471137 519.612349 
L 719.615852 518.997274 
L 719.66409 519.10568 
L 719.808805 519.358982 
L 719.95352 520.207157 
L 720.146474 519.915576 
L 720.484143 518.369669 
L 720.580619 518.551365 
L 720.628858 518.510112 
L 720.677096 518.589692 
L 720.725335 518.689081 
L 720.773573 518.56116 
L 720.87005 518.654196 
L 720.918288 518.530482 
L 720.966527 518.549957 
L 721.014765 518.599257 
L 721.063003 518.521755 
L 721.15948 518.327889 
L 721.207718 518.424182 
L 721.690102 519.766124 
L 721.883056 520.158956 
L 722.027771 520.599319 
L 722.076009 520.579124 
L 722.317201 521.046183 
L 722.36544 521.177718 
L 722.413678 521.149233 
L 722.751347 520.819621 
L 722.9443 520.731304 
L 723.233731 520.973648 
L 723.426684 520.885925 
L 723.764353 521.218845 
L 723.909068 521.220497 
L 724.102022 521.026799 
L 724.584405 520.323234 
L 724.777359 520.190972 
L 724.970313 520.043472 
L 725.066789 520.100723 
L 725.163266 520.003744 
L 725.211504 520.042502 
L 725.307981 520.092243 
L 725.742127 520.729169 
L 725.93508 520.698658 
L 726.128034 521.073517 
L 726.417464 521.61007 
L 726.562179 521.681468 
L 726.706894 522.031005 
L 727.092801 522.764528 
L 727.382232 523.231427 
L 727.43047 523.169742 
L 727.623424 523.179949 
L 728.057569 523.512727 
L 730.565965 523.512727 
L 730.71068 520.537261 
L 731.096587 520.477547 
L 731.482495 520.540718 
L 731.868402 519.933203 
L 732.157832 519.561118 
L 732.302547 519.541995 
L 732.688454 519.392767 
L 733.1226 518.504813 
L 733.315553 518.543446 
L 733.41203 518.51553 
L 733.749699 518.64587 
L 733.846175 518.553313 
L 733.894414 518.61313 
L 734.280321 519.178605 
L 734.473274 519.268876 
L 734.61799 519.17946 
L 735.052135 519.632528 
L 736.306333 519.469933 
L 736.499287 519.414989 
L 737.029909 519.634562 
L 737.608769 519.576368 
L 737.801723 519.739865 
L 738.091153 519.903107 
L 738.332345 520.100033 
L 738.525299 520.081425 
L 738.814729 520.054252 
L 739.007683 520.091676 
L 739.297113 520.131999 
L 739.634782 520.37058 
L 739.827735 520.338155 
L 742.38437 520.338155 
L 742.480846 520.842193 
L 742.529085 520.837024 
L 742.6738 520.783812 
L 743.397376 520.18272 
L 744.651574 520.609051 
L 744.892766 520.496021 
L 745.037481 520.430728 
L 745.519865 520.238398 
L 746.098725 520.240091 
L 746.581109 520.23169 
L 746.774063 520.230056 
L 747.111731 520.224233 
L 747.352923 520.242175 
L 748.124737 520.032743 
L 748.896552 519.99794 
L 749.378935 519.913624 
L 750.006034 519.857214 
L 750.777849 519.832727 
L 751.115517 519.901627 
L 754.202774 519.864008 
L 754.347489 513.796744 
L 754.636919 513.120844 
L 754.781635 512.854548 
L 755.022826 512.372719 
L 755.360495 512.247865 
L 756.035833 511.338956 
L 756.469978 511.081693 
L 756.614693 511.016968 
L 756.952362 510.807717 
L 757.145315 510.778211 
L 757.290031 510.751595 
L 757.482984 510.713492 
L 757.772414 510.858517 
L 758.158322 510.847537 
L 758.544229 510.91358 
L 759.460758 510.904882 
L 759.943142 510.902825 
L 760.522002 510.975036 
L 762.065631 510.979112 
L 762.837445 510.871227 
L 766.021178 510.770688 
L 766.117655 510.243093 
L 766.165893 510.27256 
L 766.648277 509.868429 
L 766.696516 509.948459 
L 766.744754 509.894307 
L 766.841231 509.805728 
L 767.46833 508.909172 
L 767.613045 508.896095 
L 767.998952 508.321016 
L 768.336621 508.309129 
L 768.67429 508.420872 
L 768.915481 508.347448 
L 769.301389 508.338905 
L 769.590819 508.264247 
L 769.783772 508.376651 
L 769.976726 508.318334 
L 770.169679 508.294564 
L 770.314395 508.284597 
L 770.989732 508.028438 
L 771.230924 507.935944 
L 773.160459 507.883525 
L 773.835797 507.949266 
L 774.076989 508.120957 
L 774.607611 508.17137 
L 775.041756 508.376 
L 775.572379 508.38708 
L 777.839583 508.38708 
L 777.984298 494.596004 
L 778.129013 494.044227 
L 778.370205 494.405574 
L 778.466682 494.25899 
L 778.707874 494.865855 
L 778.756112 494.79098 
L 779.479688 492.888691 
L 779.624403 492.98102 
L 780.203264 492.851051 
L 780.347979 493.021982 
L 780.685647 492.572647 
L 781.843369 491.324735 
L 782.277514 491.144154 
L 782.422229 491.081448 
L 782.759898 490.864026 
L 783.097567 490.847459 
L 784.062334 490.371576 
L 784.448241 490.364337 
L 784.78591 490.3832 
L 785.413009 490.23152 
L 785.702439 490.279963 
L 786.329538 490.14425 
L 786.57073 490.122091 
L 787.535498 490.252157 
L 789.609749 490.252157 
L 789.754464 490.621227 
L 790.092133 491.036611 
L 790.670993 491.766865 
L 791.587522 492.305712 
L 792.069906 492.182526 
L 792.359337 492.299569 
L 792.697005 492.253462 
L 793.75825 492.182495 
L 794.240634 492.244814 
L 795.060686 492.132177 
L 795.54307 492.053934 
L 796.604315 491.847585 
L 797.134937 491.760813 
L 799.112711 491.657985 
L 801.428153 491.657985 
L 801.572868 492.171931 
L 803.357688 492.264196 
L 803.984787 492.363765 
L 804.370695 492.490275 
L 805.238986 492.596114 
L 805.769608 492.607135 
L 806.0108 492.563725 
L 806.348468 492.477555 
L 807.168521 492.528201 
L 807.699143 492.454491 
L 808.422719 492.295796 
L 808.856864 492.204431 
L 809.821632 492.10872 
L 810.593446 492.084869 
L 811.413499 492.091728 
L 813.246557 492.091728 
L 813.391273 491.716538 
L 813.77718 491.586242 
L 814.114848 491.51118 
L 814.307802 491.557791 
L 814.645471 491.363421 
L 814.983139 491.222233 
L 815.513762 491.080872 
L 816.285576 491.129869 
L 816.864436 491.031045 
L 817.202105 491.082306 
L 817.539774 490.966382 
L 817.732727 490.902337 
L 817.732727 490.902337 
" clip-path="url(#pcafca8b9c9)" style="fill: none; stroke-dasharray: 5.55,2.4; stroke-dashoffset: 0; stroke: #ff0000; stroke-width: 1.5"/>
   </g>
   <g id="line2d_57">
    <path d="M 344.851837 534.04 
L 344.851837 302.44 
" clip-path="url(#pcafca8b9c9)" style="fill: none; stroke-dasharray: 1.5,2.475; stroke-dashoffset: 0; stroke: #808080; stroke-opacity: 0.6; stroke-width: 1.5"/>
   </g>
   <g id="line2d_58">
    <path d="M 581.316401 534.04 
L 581.316401 302.44 
" clip-path="url(#pcafca8b9c9)" style="fill: none; stroke-dasharray: 1.5,2.475; stroke-dashoffset: 0; stroke: #808080; stroke-opacity: 0.6; stroke-width: 1.5"/>
   </g>
   <g id="patch_9">
    <path d="M 72.92 534.04 
L 72.92 302.44 
" style="fill: none; stroke: #000000; stroke-width: 0.8; stroke-linejoin: miter; stroke-linecap: square"/>
   </g>
   <g id="patch_10">
    <path d="M 853.2 534.04 
L 853.2 302.44 
" style="fill: none; stroke: #000000; stroke-width: 0.8; stroke-linejoin: miter; stroke-linecap: square"/>
   </g>
   <g id="patch_11">
    <path d="M 72.92 534.04 
L 853.2 534.04 
" style="fill: none; stroke: #000000; stroke-width: 0.8; stroke-linejoin: miter; stroke-linecap: square"/>
   </g>
   <g id="patch_12">
    <path d="M 72.92 302.44 
L 853.2 302.44 
" style="fill: none; stroke: #000000; stroke-width: 0.8; stroke-linejoin: miter; stroke-linecap: square"/>
   </g>
   <g id="text_32">
    <!-- [31] dKa2_y  —  State Estimate -->
    <g transform="translate(369.234063 296.44) scale(0.12 -0.12)">
     <use xlink:href="#DejaVuSans-5b"/>
     <use xlink:href="#DejaVuSans-33" transform="translate(39.013672 0)"/>
     <use xlink:href="#DejaVuSans-31" transform="translate(102.636719 0)"/>
     <use xlink:href="#DejaVuSans-5d" transform="translate(166.259766 0)"/>
     <use xlink:href="#DejaVuSans-20" transform="translate(205.273438 0)"/>
     <use xlink:href="#DejaVuSans-64" transform="translate(237.060547 0)"/>
     <use xlink:href="#DejaVuSans-4b" transform="translate(300.537109 0)"/>
     <use xlink:href="#DejaVuSans-61" transform="translate(364.363281 0)"/>
     <use xlink:href="#DejaVuSans-32" transform="translate(425.642578 0)"/>
     <use xlink:href="#DejaVuSans-5f" transform="translate(489.265625 0)"/>
     <use xlink:href="#DejaVuSans-79" transform="translate(539.265625 0)"/>
     <use xlink:href="#DejaVuSans-20" transform="translate(598.445312 0)"/>
     <use xlink:href="#DejaVuSans-20" transform="translate(630.232422 0)"/>
     <use xlink:href="#DejaVuSans-2014" transform="translate(662.019531 0)"/>
     <use xlink:href="#DejaVuSans-20" transform="translate(762.019531 0)"/>
     <use xlink:href="#DejaVuSans-20" transform="translate(793.806641 0)"/>
     <use xlink:href="#DejaVuSans-53" transform="translate(825.59375 0)"/>
     <use xlink:href="#DejaVuSans-74" transform="translate(889.070312 0)"/>
     <use xlink:href="#DejaVuSans-61" transform="translate(928.279297 0)"/>
     <use xlink:href="#DejaVuSans-74" transform="translate(989.558594 0)"/>
     <use xlink:href="#DejaVuSans-65" transform="translate(1028.767578 0)"/>
     <use xlink:href="#DejaVuSans-20" transform="translate(1090.291016 0)"/>
     <use xlink:href="#DejaVuSans-45" transform="translate(1122.078125 0)"/>
     <use xlink:href="#DejaVuSans-73" transform="translate(1185.261719 0)"/>
     <use xlink:href="#DejaVuSans-74" transform="translate(1237.361328 0)"/>
     <use xlink:href="#DejaVuSans-69" transform="translate(1276.570312 0)"/>
     <use xlink:href="#DejaVuSans-6d" transform="translate(1304.353516 0)"/>
     <use xlink:href="#DejaVuSans-61" transform="translate(1401.765625 0)"/>
     <use xlink:href="#DejaVuSans-74" transform="translate(1463.044922 0)"/>
     <use xlink:href="#DejaVuSans-65" transform="translate(1502.253906 0)"/>
    </g>
   </g>
   <g id="legend_2">
    <g id="patch_13">
     <path d="M 738.401563 339.79625 
L 846.2 339.79625 
Q 848.2 339.79625 848.2 337.79625 
L 848.2 309.44 
Q 848.2 307.44 846.2 307.44 
L 738.401563 307.44 
Q 736.401563 307.44 736.401563 309.44 
L 736.401563 337.79625 
Q 736.401563 339.79625 738.401563 339.79625 
z
" style="fill: #ffffff; opacity: 0.8; stroke: #cccccc; stroke-linejoin: miter"/>
    </g>
    <g id="line2d_59">
     <path d="M 740.401563 315.538437 
L 750.401563 315.538437 
L 760.401563 315.538437 
" style="fill: none; stroke: #0000ff; stroke-width: 1.5; stroke-linecap: square"/>
    </g>
    <g id="text_33">
     <!-- No Noise -->
     <g transform="translate(768.401563 319.038437) scale(0.1 -0.1)">
      <use xlink:href="#DejaVuSans-4e"/>
      <use xlink:href="#DejaVuSans-6f" transform="translate(74.804688 0)"/>
      <use xlink:href="#DejaVuSans-20" transform="translate(135.986328 0)"/>
      <use xlink:href="#DejaVuSans-4e" transform="translate(167.773438 0)"/>
      <use xlink:href="#DejaVuSans-6f" transform="translate(242.578125 0)"/>
      <use xlink:href="#DejaVuSans-69" transform="translate(303.759766 0)"/>
      <use xlink:href="#DejaVuSans-73" transform="translate(331.542969 0)"/>
      <use xlink:href="#DejaVuSans-65" transform="translate(383.642578 0)"/>
     </g>
    </g>
    <g id="line2d_60">
     <path d="M 740.401563 330.216562 
L 750.401563 330.216562 
L 760.401563 330.216562 
" style="fill: none; stroke-dasharray: 5.55,2.4; stroke-dashoffset: 0; stroke: #ff0000; stroke-width: 1.5"/>
    </g>
    <g id="text_34">
     <!-- With ARW/VRW -->
     <g transform="translate(768.401563 333.716562) scale(0.1 -0.1)">
      <use xlink:href="#DejaVuSans-57"/>
      <use xlink:href="#DejaVuSans-69" transform="translate(96.626953 0)"/>
      <use xlink:href="#DejaVuSans-74" transform="translate(124.410156 0)"/>
      <use xlink:href="#DejaVuSans-68" transform="translate(163.619141 0)"/>
      <use xlink:href="#DejaVuSans-20" transform="translate(226.998047 0)"/>
      <use xlink:href="#DejaVuSans-41" transform="translate(258.785156 0)"/>
      <use xlink:href="#DejaVuSans-52" transform="translate(327.193359 0)"/>
      <use xlink:href="#DejaVuSans-57" transform="translate(392.675781 0)"/>
      <use xlink:href="#DejaVuSans-2f" transform="translate(491.552734 0)"/>
      <use xlink:href="#DejaVuSans-56" transform="translate(525.244141 0)"/>
      <use xlink:href="#DejaVuSans-52" transform="translate(593.652344 0)"/>
      <use xlink:href="#DejaVuSans-57" transform="translate(659.134766 0)"/>
     </g>
    </g>
   </g>
  </g>
 </g>
 <defs>
  <clipPath id="pa79a8ac4a4">
   <rect x="72.92" y="26.88" width="780.28" height="231.6"/>
  </clipPath>
  <clipPath id="pcafca8b9c9">
   <rect x="72.92" y="302.44" width="780.28" height="231.6"/>
  </clipPath>
 </defs>
</svg>
