<?xml version="1.0" encoding="utf-8" standalone="no"?>
<!DOCTYPE svg PUBLIC "-//W3C//DTD SVG 1.1//EN"
  "http://www.w3.org/Graphics/SVG/1.1/DTD/svg11.dtd">
<svg xmlns:xlink="http://www.w3.org/1999/xlink" width="864pt" height="576pt" viewBox="0 0 864 576" xmlns="http://www.w3.org/2000/svg" version="1.1">
 <metadata>
  <rdf:RDF xmlns:dc="http://purl.org/dc/elements/1.1/" xmlns:cc="http://creativecommons.org/ns#" xmlns:rdf="http://www.w3.org/1999/02/22-rdf-syntax-ns#">
   <cc:Work>
    <dc:type rdf:resource="http://purl.org/dc/dcmitype/StillImage"/>
    <dc:date>2026-03-09T19:22:02.314412</dc:date>
    <dc:format>image/svg+xml</dc:format>
    <dc:creator>
     <cc:Agent>
      <dc:title>Matplotlib v3.10.8, https://matplotlib.org/</dc:title>
     </cc:Agent>
    </dc:creator>
   </cc:Work>
  </rdf:RDF>
 </metadata>
 <defs>
  <style type="text/css">*{stroke-linejoin: round; stroke-linecap: butt}</style>
 </defs>
 <g id="figure_1">
  <g id="patch_1">
   <path d="M 0 576 
L 864 576 
L 864 0 
L 0 0 
z
" style="fill: #ffffff"/>
  </g>
  <g id="axes_1">
   <g id="patch_2">
    <path d="M 62.39 258.48 
L 853.2 258.48 
L 853.2 26.88 
L 62.39 26.88 
z
" style="fill: #ffffff"/>
   </g>
   <g id="matplotlib.axis_1">
    <g id="xtick_1">
     <g id="line2d_1">
      <path d="M 98.335909 258.48 
L 98.335909 26.88 
" clip-path="url(#p4c7a8e51bf)" style="fill: none; stroke: #b0b0b0; stroke-width: 0.8; stroke-linecap: square"/>
     </g>
     <g id="line2d_2">
      <defs>
       <path id="m3a8c8edee3" d="M 0 0 
L 0 3.5 
" style="stroke: #000000; stroke-width: 0.8"/>
      </defs>
      <g>
       <use xlink:href="#m3a8c8edee3" x="98.335909" y="258.48" style="stroke: #000000; stroke-width: 0.8"/>
      </g>
     </g>
     <g id="text_1">
      <!-- 0 -->
      <g transform="translate(95.154659 273.078438) scale(0.1 -0.1)">
       <defs>
        <path id="DejaVuSans-30" d="M 2034 4250 
Q 1547 4250 1301 3770 
Q 1056 3291 1056 2328 
Q 1056 1369 1301 889 
Q 1547 409 2034 409 
Q 2525 409 2770 889 
Q 3016 1369 3016 2328 
Q 3016 3291 2770 3770 
Q 2525 4250 2034 4250 
z
M 2034 4750 
Q 2819 4750 3233 4129 
Q 3647 3509 3647 2328 
Q 3647 1150 3233 529 
Q 2819 -91 2034 -91 
Q 1250 -91 836 529 
Q 422 1150 422 2328 
Q 422 3509 836 4129 
Q 1250 4750 2034 4750 
z
" transform="scale(0.015625)"/>
       </defs>
       <use xlink:href="#DejaVuSans-30"/>
      </g>
     </g>
    </g>
    <g id="xtick_2">
     <g id="line2d_3">
      <path d="M 220.559333 258.48 
L 220.559333 26.88 
" clip-path="url(#p4c7a8e51bf)" style="fill: none; stroke: #b0b0b0; stroke-width: 0.8; stroke-linecap: square"/>
     </g>
     <g id="line2d_4">
      <g>
       <use xlink:href="#m3a8c8edee3" x="220.559333" y="258.48" style="stroke: #000000; stroke-width: 0.8"/>
      </g>
     </g>
     <g id="text_2">
      <!-- 50 -->
      <g transform="translate(214.196833 273.078438) scale(0.1 -0.1)">
       <defs>
        <path id="DejaVuSans-35" d="M 691 4666 
L 3169 4666 
L 3169 4134 
L 1269 4134 
L 1269 2991 
Q 1406 3038 1543 3061 
Q 1681 3084 1819 3084 
Q 2600 3084 3056 2656 
Q 3513 2228 3513 1497 
Q 3513 744 3044 326 
Q 2575 -91 1722 -91 
Q 1428 -91 1123 -41 
Q 819 9 494 109 
L 494 744 
Q 775 591 1075 516 
Q 1375 441 1709 441 
Q 2250 441 2565 725 
Q 2881 1009 2881 1497 
Q 2881 1984 2565 2268 
Q 2250 2553 1709 2553 
Q 1456 2553 1204 2497 
Q 953 2441 691 2322 
L 691 4666 
z
" transform="scale(0.015625)"/>
       </defs>
       <use xlink:href="#DejaVuSans-35"/>
       <use xlink:href="#DejaVuSans-30" transform="translate(63.623047 0)"/>
      </g>
     </g>
    </g>
    <g id="xtick_3">
     <g id="line2d_5">
      <path d="M 342.782758 258.48 
L 342.782758 26.88 
" clip-path="url(#p4c7a8e51bf)" style="fill: none; stroke: #b0b0b0; stroke-width: 0.8; stroke-linecap: square"/>
     </g>
     <g id="line2d_6">
      <g>
       <use xlink:href="#m3a8c8edee3" x="342.782758" y="258.48" style="stroke: #000000; stroke-width: 0.8"/>
      </g>
     </g>
     <g id="text_3">
      <!-- 100 -->
      <g transform="translate(333.239008 273.078438) scale(0.1 -0.1)">
       <defs>
        <path id="DejaVuSans-31" d="M 794 531 
L 1825 531 
L 1825 4091 
L 703 3866 
L 703 4441 
L 1819 4666 
L 2450 4666 
L 2450 531 
L 3481 531 
L 3481 0 
L 794 0 
L 794 531 
z
" transform="scale(0.015625)"/>
       </defs>
       <use xlink:href="#DejaVuSans-31"/>
       <use xlink:href="#DejaVuSans-30" transform="translate(63.623047 0)"/>
       <use xlink:href="#DejaVuSans-30" transform="translate(127.246094 0)"/>
      </g>
     </g>
    </g>
    <g id="xtick_4">
     <g id="line2d_7">
      <path d="M 465.006182 258.48 
L 465.006182 26.88 
" clip-path="url(#p4c7a8e51bf)" style="fill: none; stroke: #b0b0b0; stroke-width: 0.8; stroke-linecap: square"/>
     </g>
     <g id="line2d_8">
      <g>
       <use xlink:href="#m3a8c8edee3" x="465.006182" y="258.48" style="stroke: #000000; stroke-width: 0.8"/>
      </g>
     </g>
     <g id="text_4">
      <!-- 150 -->
      <g transform="translate(455.462432 273.078438) scale(0.1 -0.1)">
       <use xlink:href="#DejaVuSans-31"/>
       <use xlink:href="#DejaVuSans-35" transform="translate(63.623047 0)"/>
       <use xlink:href="#DejaVuSans-30" transform="translate(127.246094 0)"/>
      </g>
     </g>
    </g>
    <g id="xtick_5">
     <g id="line2d_9">
      <path d="M 587.229606 258.48 
L 587.229606 26.88 
" clip-path="url(#p4c7a8e51bf)" style="fill: none; stroke: #b0b0b0; stroke-width: 0.8; stroke-linecap: square"/>
     </g>
     <g id="line2d_10">
      <g>
       <use xlink:href="#m3a8c8edee3" x="587.229606" y="258.48" style="stroke: #000000; stroke-width: 0.8"/>
      </g>
     </g>
     <g id="text_5">
      <!-- 200 -->
      <g transform="translate(577.685856 273.078438) scale(0.1 -0.1)">
       <defs>
        <path id="DejaVuSans-32" d="M 1228 531 
L 3431 531 
L 3431 0 
L 469 0 
L 469 531 
Q 828 903 1448 1529 
Q 2069 2156 2228 2338 
Q 2531 2678 2651 2914 
Q 2772 3150 2772 3378 
Q 2772 3750 2511 3984 
Q 2250 4219 1831 4219 
Q 1534 4219 1204 4116 
Q 875 4013 500 3803 
L 500 4441 
Q 881 4594 1212 4672 
Q 1544 4750 1819 4750 
Q 2544 4750 2975 4387 
Q 3406 4025 3406 3419 
Q 3406 3131 3298 2873 
Q 3191 2616 2906 2266 
Q 2828 2175 2409 1742 
Q 1991 1309 1228 531 
z
" transform="scale(0.015625)"/>
       </defs>
       <use xlink:href="#DejaVuSans-32"/>
       <use xlink:href="#DejaVuSans-30" transform="translate(63.623047 0)"/>
       <use xlink:href="#DejaVuSans-30" transform="translate(127.246094 0)"/>
      </g>
     </g>
    </g>
    <g id="xtick_6">
     <g id="line2d_11">
      <path d="M 709.453031 258.48 
L 709.453031 26.88 
" clip-path="url(#p4c7a8e51bf)" style="fill: none; stroke: #b0b0b0; stroke-width: 0.8; stroke-linecap: square"/>
     </g>
     <g id="line2d_12">
      <g>
       <use xlink:href="#m3a8c8edee3" x="709.453031" y="258.48" style="stroke: #000000; stroke-width: 0.8"/>
      </g>
     </g>
     <g id="text_6">
      <!-- 250 -->
      <g transform="translate(699.909281 273.078438) scale(0.1 -0.1)">
       <use xlink:href="#DejaVuSans-32"/>
       <use xlink:href="#DejaVuSans-35" transform="translate(63.623047 0)"/>
       <use xlink:href="#DejaVuSans-30" transform="translate(127.246094 0)"/>
      </g>
     </g>
    </g>
    <g id="xtick_7">
     <g id="line2d_13">
      <path d="M 831.676455 258.48 
L 831.676455 26.88 
" clip-path="url(#p4c7a8e51bf)" style="fill: none; stroke: #b0b0b0; stroke-width: 0.8; stroke-linecap: square"/>
     </g>
     <g id="line2d_14">
      <g>
       <use xlink:href="#m3a8c8edee3" x="831.676455" y="258.48" style="stroke: #000000; stroke-width: 0.8"/>
      </g>
     </g>
     <g id="text_7">
      <!-- 300 -->
      <g transform="translate(822.132705 273.078438) scale(0.1 -0.1)">
       <defs>
        <path id="DejaVuSans-33" d="M 2597 2516 
Q 3050 2419 3304 2112 
Q 3559 1806 3559 1356 
Q 3559 666 3084 287 
Q 2609 -91 1734 -91 
Q 1441 -91 1130 -33 
Q 819 25 488 141 
L 488 750 
Q 750 597 1062 519 
Q 1375 441 1716 441 
Q 2309 441 2620 675 
Q 2931 909 2931 1356 
Q 2931 1769 2642 2001 
Q 2353 2234 1838 2234 
L 1294 2234 
L 1294 2753 
L 1863 2753 
Q 2328 2753 2575 2939 
Q 2822 3125 2822 3475 
Q 2822 3834 2567 4026 
Q 2313 4219 1838 4219 
Q 1578 4219 1281 4162 
Q 984 4106 628 3988 
L 628 4550 
Q 988 4650 1302 4700 
Q 1616 4750 1894 4750 
Q 2613 4750 3031 4423 
Q 3450 4097 3450 3541 
Q 3450 3153 3228 2886 
Q 3006 2619 2597 2516 
z
" transform="scale(0.015625)"/>
       </defs>
       <use xlink:href="#DejaVuSans-33"/>
       <use xlink:href="#DejaVuSans-30" transform="translate(63.623047 0)"/>
       <use xlink:href="#DejaVuSans-30" transform="translate(127.246094 0)"/>
      </g>
     </g>
    </g>
   </g>
   <g id="matplotlib.axis_2">
    <g id="ytick_1">
     <g id="line2d_15">
      <path d="M 62.39 249.261695 
L 853.2 249.261695 
" clip-path="url(#p4c7a8e51bf)" style="fill: none; stroke: #b0b0b0; stroke-width: 0.8; stroke-linecap: square"/>
     </g>
     <g id="line2d_16">
      <defs>
       <path id="m008a8b2eff" d="M 0 0 
L -3.5 0 
" style="stroke: #000000; stroke-width: 0.8"/>
      </defs>
      <g>
       <use xlink:href="#m008a8b2eff" x="62.39" y="249.261695" style="stroke: #000000; stroke-width: 0.8"/>
      </g>
     </g>
     <g id="text_8">
      <!-- 0.0 -->
      <g transform="translate(39.486875 253.060913) scale(0.1 -0.1)">
       <defs>
        <path id="DejaVuSans-2e" d="M 684 794 
L 1344 794 
L 1344 0 
L 684 0 
L 684 794 
z
" transform="scale(0.015625)"/>
       </defs>
       <use xlink:href="#DejaVuSans-30"/>
       <use xlink:href="#DejaVuSans-2e" transform="translate(63.623047 0)"/>
       <use xlink:href="#DejaVuSans-30" transform="translate(95.410156 0)"/>
      </g>
     </g>
    </g>
    <g id="ytick_2">
     <g id="line2d_17">
      <path d="M 62.39 206.89081 
L 853.2 206.89081 
" clip-path="url(#p4c7a8e51bf)" style="fill: none; stroke: #b0b0b0; stroke-width: 0.8; stroke-linecap: square"/>
     </g>
     <g id="line2d_18">
      <g>
       <use xlink:href="#m008a8b2eff" x="62.39" y="206.89081" style="stroke: #000000; stroke-width: 0.8"/>
      </g>
     </g>
     <g id="text_9">
      <!-- 0.2 -->
      <g transform="translate(39.486875 210.690029) scale(0.1 -0.1)">
       <use xlink:href="#DejaVuSans-30"/>
       <use xlink:href="#DejaVuSans-2e" transform="translate(63.623047 0)"/>
       <use xlink:href="#DejaVuSans-32" transform="translate(95.410156 0)"/>
      </g>
     </g>
    </g>
    <g id="ytick_3">
     <g id="line2d_19">
      <path d="M 62.39 164.519926 
L 853.2 164.519926 
" clip-path="url(#p4c7a8e51bf)" style="fill: none; stroke: #b0b0b0; stroke-width: 0.8; stroke-linecap: square"/>
     </g>
     <g id="line2d_20">
      <g>
       <use xlink:href="#m008a8b2eff" x="62.39" y="164.519926" style="stroke: #000000; stroke-width: 0.8"/>
      </g>
     </g>
     <g id="text_10">
      <!-- 0.4 -->
      <g transform="translate(39.486875 168.319145) scale(0.1 -0.1)">
       <defs>
        <path id="DejaVuSans-34" d="M 2419 4116 
L 825 1625 
L 2419 1625 
L 2419 4116 
z
M 2253 4666 
L 3047 4666 
L 3047 1625 
L 3713 1625 
L 3713 1100 
L 3047 1100 
L 3047 0 
L 2419 0 
L 2419 1100 
L 313 1100 
L 313 1709 
L 2253 4666 
z
" transform="scale(0.015625)"/>
       </defs>
       <use xlink:href="#DejaVuSans-30"/>
       <use xlink:href="#DejaVuSans-2e" transform="translate(63.623047 0)"/>
       <use xlink:href="#DejaVuSans-34" transform="translate(95.410156 0)"/>
      </g>
     </g>
    </g>
    <g id="ytick_4">
     <g id="line2d_21">
      <path d="M 62.39 122.149042 
L 853.2 122.149042 
" clip-path="url(#p4c7a8e51bf)" style="fill: none; stroke: #b0b0b0; stroke-width: 0.8; stroke-linecap: square"/>
     </g>
     <g id="line2d_22">
      <g>
       <use xlink:href="#m008a8b2eff" x="62.39" y="122.149042" style="stroke: #000000; stroke-width: 0.8"/>
      </g>
     </g>
     <g id="text_11">
      <!-- 0.6 -->
      <g transform="translate(39.486875 125.94826) scale(0.1 -0.1)">
       <defs>
        <path id="DejaVuSans-36" d="M 2113 2584 
Q 1688 2584 1439 2293 
Q 1191 2003 1191 1497 
Q 1191 994 1439 701 
Q 1688 409 2113 409 
Q 2538 409 2786 701 
Q 3034 994 3034 1497 
Q 3034 2003 2786 2293 
Q 2538 2584 2113 2584 
z
M 3366 4563 
L 3366 3988 
Q 3128 4100 2886 4159 
Q 2644 4219 2406 4219 
Q 1781 4219 1451 3797 
Q 1122 3375 1075 2522 
Q 1259 2794 1537 2939 
Q 1816 3084 2150 3084 
Q 2853 3084 3261 2657 
Q 3669 2231 3669 1497 
Q 3669 778 3244 343 
Q 2819 -91 2113 -91 
Q 1303 -91 875 529 
Q 447 1150 447 2328 
Q 447 3434 972 4092 
Q 1497 4750 2381 4750 
Q 2619 4750 2861 4703 
Q 3103 4656 3366 4563 
z
" transform="scale(0.015625)"/>
       </defs>
       <use xlink:href="#DejaVuSans-30"/>
       <use xlink:href="#DejaVuSans-2e" transform="translate(63.623047 0)"/>
       <use xlink:href="#DejaVuSans-36" transform="translate(95.410156 0)"/>
      </g>
     </g>
    </g>
    <g id="ytick_5">
     <g id="line2d_23">
      <path d="M 62.39 79.778157 
L 853.2 79.778157 
" clip-path="url(#p4c7a8e51bf)" style="fill: none; stroke: #b0b0b0; stroke-width: 0.8; stroke-linecap: square"/>
     </g>
     <g id="line2d_24">
      <g>
       <use xlink:href="#m008a8b2eff" x="62.39" y="79.778157" style="stroke: #000000; stroke-width: 0.8"/>
      </g>
     </g>
     <g id="text_12">
      <!-- 0.8 -->
      <g transform="translate(39.486875 83.577376) scale(0.1 -0.1)">
       <defs>
        <path id="DejaVuSans-38" d="M 2034 2216 
Q 1584 2216 1326 1975 
Q 1069 1734 1069 1313 
Q 1069 891 1326 650 
Q 1584 409 2034 409 
Q 2484 409 2743 651 
Q 3003 894 3003 1313 
Q 3003 1734 2745 1975 
Q 2488 2216 2034 2216 
z
M 1403 2484 
Q 997 2584 770 2862 
Q 544 3141 544 3541 
Q 544 4100 942 4425 
Q 1341 4750 2034 4750 
Q 2731 4750 3128 4425 
Q 3525 4100 3525 3541 
Q 3525 3141 3298 2862 
Q 3072 2584 2669 2484 
Q 3125 2378 3379 2068 
Q 3634 1759 3634 1313 
Q 3634 634 3220 271 
Q 2806 -91 2034 -91 
Q 1263 -91 848 271 
Q 434 634 434 1313 
Q 434 1759 690 2068 
Q 947 2378 1403 2484 
z
M 1172 3481 
Q 1172 3119 1398 2916 
Q 1625 2713 2034 2713 
Q 2441 2713 2670 2916 
Q 2900 3119 2900 3481 
Q 2900 3844 2670 4047 
Q 2441 4250 2034 4250 
Q 1625 4250 1398 4047 
Q 1172 3844 1172 3481 
z
" transform="scale(0.015625)"/>
       </defs>
       <use xlink:href="#DejaVuSans-30"/>
       <use xlink:href="#DejaVuSans-2e" transform="translate(63.623047 0)"/>
       <use xlink:href="#DejaVuSans-38" transform="translate(95.410156 0)"/>
      </g>
     </g>
    </g>
    <g id="ytick_6">
     <g id="line2d_25">
      <path d="M 62.39 37.407273 
L 853.2 37.407273 
" clip-path="url(#p4c7a8e51bf)" style="fill: none; stroke: #b0b0b0; stroke-width: 0.8; stroke-linecap: square"/>
     </g>
     <g id="line2d_26">
      <g>
       <use xlink:href="#m008a8b2eff" x="62.39" y="37.407273" style="stroke: #000000; stroke-width: 0.8"/>
      </g>
     </g>
     <g id="text_13">
      <!-- 1.0 -->
      <g transform="translate(39.486875 41.206491) scale(0.1 -0.1)">
       <use xlink:href="#DejaVuSans-31"/>
       <use xlink:href="#DejaVuSans-2e" transform="translate(63.623047 0)"/>
       <use xlink:href="#DejaVuSans-30" transform="translate(95.410156 0)"/>
      </g>
     </g>
    </g>
    <g id="text_14">
     <!-- Std Dev -->
     <g transform="translate(33.407187 162.463594) rotate(-90) scale(0.1 -0.1)">
      <defs>
       <path id="DejaVuSans-53" d="M 3425 4513 
L 3425 3897 
Q 3066 4069 2747 4153 
Q 2428 4238 2131 4238 
Q 1616 4238 1336 4038 
Q 1056 3838 1056 3469 
Q 1056 3159 1242 3001 
Q 1428 2844 1947 2747 
L 2328 2669 
Q 3034 2534 3370 2195 
Q 3706 1856 3706 1288 
Q 3706 609 3251 259 
Q 2797 -91 1919 -91 
Q 1588 -91 1214 -16 
Q 841 59 441 206 
L 441 856 
Q 825 641 1194 531 
Q 1563 422 1919 422 
Q 2459 422 2753 634 
Q 3047 847 3047 1241 
Q 3047 1584 2836 1778 
Q 2625 1972 2144 2069 
L 1759 2144 
Q 1053 2284 737 2584 
Q 422 2884 422 3419 
Q 422 4038 858 4394 
Q 1294 4750 2059 4750 
Q 2388 4750 2728 4690 
Q 3069 4631 3425 4513 
z
" transform="scale(0.015625)"/>
       <path id="DejaVuSans-74" d="M 1172 4494 
L 1172 3500 
L 2356 3500 
L 2356 3053 
L 1172 3053 
L 1172 1153 
Q 1172 725 1289 603 
Q 1406 481 1766 481 
L 2356 481 
L 2356 0 
L 1766 0 
Q 1100 0 847 248 
Q 594 497 594 1153 
L 594 3053 
L 172 3053 
L 172 3500 
L 594 3500 
L 594 4494 
L 1172 4494 
z
" transform="scale(0.015625)"/>
       <path id="DejaVuSans-64" d="M 2906 2969 
L 2906 4863 
L 3481 4863 
L 3481 0 
L 2906 0 
L 2906 525 
Q 2725 213 2448 61 
Q 2172 -91 1784 -91 
Q 1150 -91 751 415 
Q 353 922 353 1747 
Q 353 2572 751 3078 
Q 1150 3584 1784 3584 
Q 2172 3584 2448 3432 
Q 2725 3281 2906 2969 
z
M 947 1747 
Q 947 1113 1208 752 
Q 1469 391 1925 391 
Q 2381 391 2643 752 
Q 2906 1113 2906 1747 
Q 2906 2381 2643 2742 
Q 2381 3103 1925 3103 
Q 1469 3103 1208 2742 
Q 947 2381 947 1747 
z
" transform="scale(0.015625)"/>
       <path id="DejaVuSans-20" transform="scale(0.015625)"/>
       <path id="DejaVuSans-44" d="M 1259 4147 
L 1259 519 
L 2022 519 
Q 2988 519 3436 956 
Q 3884 1394 3884 2338 
Q 3884 3275 3436 3711 
Q 2988 4147 2022 4147 
L 1259 4147 
z
M 628 4666 
L 1925 4666 
Q 3281 4666 3915 4102 
Q 4550 3538 4550 2338 
Q 4550 1131 3912 565 
Q 3275 0 1925 0 
L 628 0 
L 628 4666 
z
" transform="scale(0.015625)"/>
       <path id="DejaVuSans-65" d="M 3597 1894 
L 3597 1613 
L 953 1613 
Q 991 1019 1311 708 
Q 1631 397 2203 397 
Q 2534 397 2845 478 
Q 3156 559 3463 722 
L 3463 178 
Q 3153 47 2828 -22 
Q 2503 -91 2169 -91 
Q 1331 -91 842 396 
Q 353 884 353 1716 
Q 353 2575 817 3079 
Q 1281 3584 2069 3584 
Q 2775 3584 3186 3129 
Q 3597 2675 3597 1894 
z
M 3022 2063 
Q 3016 2534 2758 2815 
Q 2500 3097 2075 3097 
Q 1594 3097 1305 2825 
Q 1016 2553 972 2059 
L 3022 2063 
z
" transform="scale(0.015625)"/>
       <path id="DejaVuSans-76" d="M 191 3500 
L 800 3500 
L 1894 563 
L 2988 3500 
L 3597 3500 
L 2284 0 
L 1503 0 
L 191 3500 
z
" transform="scale(0.015625)"/>
      </defs>
      <use xlink:href="#DejaVuSans-53"/>
      <use xlink:href="#DejaVuSans-74" transform="translate(63.476562 0)"/>
      <use xlink:href="#DejaVuSans-64" transform="translate(102.685547 0)"/>
      <use xlink:href="#DejaVuSans-20" transform="translate(166.162109 0)"/>
      <use xlink:href="#DejaVuSans-44" transform="translate(197.949219 0)"/>
      <use xlink:href="#DejaVuSans-65" transform="translate(274.951172 0)"/>
      <use xlink:href="#DejaVuSans-76" transform="translate(336.474609 0)"/>
     </g>
    </g>
   </g>
   <g id="line2d_27">
    <path d="M 98.335909 228.076252 
L 117.598321 228.076253 
L 117.744989 238.753299 
L 117.989436 242.965392 
L 118.233883 243.860973 
L 118.576108 244.254288 
L 119.113891 244.474998 
L 120.189457 244.627238 
L 122.976151 244.739327 
L 132.558468 244.829659 
L 141.798559 244.848732 
L 141.945227 246.445746 
L 143.314129 246.794519 
L 145.807487 246.877082 
L 153.776454 246.90886 
L 153.923122 247.211979 
L 156.367591 247.377826 
L 203.252497 247.929729 
L 337.94271 247.952709 
L 338.089378 228.076252 
L 357.254011 228.076253 
L 357.400679 238.761716 
L 357.645126 242.976233 
L 357.889573 243.872858 
L 358.231799 244.266663 
L 358.769582 244.487525 
L 359.845148 244.639522 
L 362.631842 244.750259 
L 372.214158 244.834938 
L 381.454249 244.851785 
L 381.600917 246.445145 
L 382.96982 246.794304 
L 385.463177 246.877124 
L 393.432145 246.908918 
L 393.578813 247.211797 
L 396.023281 247.37765 
L 442.908187 247.929811 
L 577.598401 247.952719 
L 577.745069 37.407273 
L 596.909702 37.407919 
L 597.105259 215.568463 
L 597.300817 216.905569 
L 597.545263 217.112073 
L 598.131936 217.206721 
L 600.625294 217.257294 
L 619.985484 217.281056 
L 621.10994 217.281056 
L 621.256608 241.111619 
L 621.892169 241.618622 
L 622.674399 241.750722 
L 624.92331 241.831593 
L 633.087835 241.859671 
L 633.234503 247.089489 
L 634.114512 247.302131 
L 636.363423 247.359323 
L 657.043626 247.536337 
L 657.190294 247.725375 
L 669.021522 247.755469 
L 669.16819 247.887312 
L 694.199547 247.922955 
L 817.254091 247.950038 
L 817.254091 247.950038 
" clip-path="url(#p4c7a8e51bf)" style="fill: none; stroke: #0000ff; stroke-width: 1.5; stroke-linecap: square"/>
   </g>
   <g id="line2d_28">
    <path d="M 98.335909 228.076252 
L 117.598321 228.07843 
L 117.744989 238.754126 
L 117.989436 242.965669 
L 118.233883 243.860776 
L 118.576108 244.254338 
L 119.113891 244.475228 
L 120.189457 244.627253 
L 122.976151 244.739382 
L 132.558468 244.830076 
L 141.798559 244.84905 
L 141.945227 246.445855 
L 143.314129 246.794519 
L 145.807487 246.877053 
L 153.776454 246.908821 
L 153.923122 247.21199 
L 156.367591 247.37783 
L 203.399165 247.92975 
L 337.94271 247.952725 
L 338.089378 228.076253 
L 357.254011 228.07843 
L 357.400679 238.762687 
L 357.645126 242.976625 
L 357.889573 243.872816 
L 358.231799 244.266838 
L 358.769582 244.487857 
L 359.845148 244.639656 
L 362.631842 244.750402 
L 372.214158 244.835238 
L 381.454249 244.851975 
L 381.600917 246.445198 
L 382.96982 246.794316 
L 385.463177 246.877117 
L 393.432145 246.9089 
L 393.578813 247.211788 
L 396.023281 247.377631 
L 443.054855 247.929817 
L 577.598401 247.952727 
L 577.696179 37.407273 
L 577.745069 37.407288 
L 583.562904 38.212997 
L 584.540691 38.311451 
L 584.980695 38.365579 
L 586.056261 38.485399 
L 586.887381 38.630598 
L 592.314101 39.386655 
L 594.905237 39.551878 
L 596.909702 39.551878 
L 597.105259 215.574121 
L 597.300817 216.914725 
L 597.545263 217.120257 
L 598.180825 217.218747 
L 600.820851 217.268158 
L 615.976556 217.296575 
L 621.10994 217.298681 
L 621.256608 241.112424 
L 621.892169 241.619343 
L 622.674399 241.751502 
L 624.9722 241.832978 
L 633.087835 241.860616 
L 633.234503 247.089835 
L 634.114512 247.302225 
L 636.363423 247.359445 
L 657.043626 247.536433 
L 657.190294 247.725454 
L 669.021522 247.755577 
L 669.16819 247.887355 
L 693.270649 247.92222 
L 817.254091 247.950047 
L 817.254091 247.950047 
" clip-path="url(#p4c7a8e51bf)" style="fill: none; stroke-dasharray: 5.55,2.4; stroke-dashoffset: 0; stroke: #ff0000; stroke-width: 1.5"/>
   </g>
   <g id="line2d_29">
    <path d="M 337.991599 258.48 
L 337.991599 26.88 
" clip-path="url(#p4c7a8e51bf)" style="fill: none; stroke-dasharray: 1.5,2.475; stroke-dashoffset: 0; stroke: #808080; stroke-opacity: 0.6; stroke-width: 1.5"/>
   </g>
   <g id="line2d_30">
    <path d="M 577.64729 258.48 
L 577.64729 26.88 
" clip-path="url(#p4c7a8e51bf)" style="fill: none; stroke-dasharray: 1.5,2.475; stroke-dashoffset: 0; stroke: #808080; stroke-opacity: 0.6; stroke-width: 1.5"/>
   </g>
   <g id="patch_3">
    <path d="M 62.39 258.48 
L 62.39 26.88 
" style="fill: none; stroke: #000000; stroke-width: 0.8; stroke-linejoin: miter; stroke-linecap: square"/>
   </g>
   <g id="patch_4">
    <path d="M 853.2 258.48 
L 853.2 26.88 
" style="fill: none; stroke: #000000; stroke-width: 0.8; stroke-linejoin: miter; stroke-linecap: square"/>
   </g>
   <g id="patch_5">
    <path d="M 62.39 258.48 
L 853.2 258.48 
" style="fill: none; stroke: #000000; stroke-width: 0.8; stroke-linejoin: miter; stroke-linecap: square"/>
   </g>
   <g id="patch_6">
    <path d="M 62.39 26.88 
L 853.2 26.88 
" style="fill: none; stroke: #000000; stroke-width: 0.8; stroke-linejoin: miter; stroke-linecap: square"/>
   </g>
   <g id="text_15">
    <!-- [32] rx_z  —  Uncertainty (std dev) -->
    <g transform="translate(354.046563 20.88) scale(0.12 -0.12)">
     <defs>
      <path id="DejaVuSans-5b" d="M 550 4863 
L 1875 4863 
L 1875 4416 
L 1125 4416 
L 1125 -397 
L 1875 -397 
L 1875 -844 
L 550 -844 
L 550 4863 
z
" transform="scale(0.015625)"/>
      <path id="DejaVuSans-5d" d="M 1947 4863 
L 1947 -844 
L 622 -844 
L 622 -397 
L 1369 -397 
L 1369 4416 
L 622 4416 
L 622 4863 
L 1947 4863 
z
" transform="scale(0.015625)"/>
      <path id="DejaVuSans-72" d="M 2631 2963 
Q 2534 3019 2420 3045 
Q 2306 3072 2169 3072 
Q 1681 3072 1420 2755 
Q 1159 2438 1159 1844 
L 1159 0 
L 581 0 
L 581 3500 
L 1159 3500 
L 1159 2956 
Q 1341 3275 1631 3429 
Q 1922 3584 2338 3584 
Q 2397 3584 2469 3576 
Q 2541 3569 2628 3553 
L 2631 2963 
z
" transform="scale(0.015625)"/>
      <path id="DejaVuSans-78" d="M 3513 3500 
L 2247 1797 
L 3578 0 
L 2900 0 
L 1881 1375 
L 863 0 
L 184 0 
L 1544 1831 
L 300 3500 
L 978 3500 
L 1906 2253 
L 2834 3500 
L 3513 3500 
z
" transform="scale(0.015625)"/>
      <path id="DejaVuSans-5f" d="M 3263 -1063 
L 3263 -1509 
L -63 -1509 
L -63 -1063 
L 3263 -1063 
z
" transform="scale(0.015625)"/>
      <path id="DejaVuSans-7a" d="M 353 3500 
L 3084 3500 
L 3084 2975 
L 922 459 
L 3084 459 
L 3084 0 
L 275 0 
L 275 525 
L 2438 3041 
L 353 3041 
L 353 3500 
z
" transform="scale(0.015625)"/>
      <path id="DejaVuSans-2014" d="M 313 1978 
L 6088 1978 
L 6088 1528 
L 313 1528 
L 313 1978 
z
" transform="scale(0.015625)"/>
      <path id="DejaVuSans-55" d="M 556 4666 
L 1191 4666 
L 1191 1831 
Q 1191 1081 1462 751 
Q 1734 422 2344 422 
Q 2950 422 3222 751 
Q 3494 1081 3494 1831 
L 3494 4666 
L 4128 4666 
L 4128 1753 
Q 4128 841 3676 375 
Q 3225 -91 2344 -91 
Q 1459 -91 1007 375 
Q 556 841 556 1753 
L 556 4666 
z
" transform="scale(0.015625)"/>
      <path id="DejaVuSans-6e" d="M 3513 2113 
L 3513 0 
L 2938 0 
L 2938 2094 
Q 2938 2591 2744 2837 
Q 2550 3084 2163 3084 
Q 1697 3084 1428 2787 
Q 1159 2491 1159 1978 
L 1159 0 
L 581 0 
L 581 3500 
L 1159 3500 
L 1159 2956 
Q 1366 3272 1645 3428 
Q 1925 3584 2291 3584 
Q 2894 3584 3203 3211 
Q 3513 2838 3513 2113 
z
" transform="scale(0.015625)"/>
      <path id="DejaVuSans-63" d="M 3122 3366 
L 3122 2828 
Q 2878 2963 2633 3030 
Q 2388 3097 2138 3097 
Q 1578 3097 1268 2742 
Q 959 2388 959 1747 
Q 959 1106 1268 751 
Q 1578 397 2138 397 
Q 2388 397 2633 464 
Q 2878 531 3122 666 
L 3122 134 
Q 2881 22 2623 -34 
Q 2366 -91 2075 -91 
Q 1284 -91 818 406 
Q 353 903 353 1747 
Q 353 2603 823 3093 
Q 1294 3584 2113 3584 
Q 2378 3584 2631 3529 
Q 2884 3475 3122 3366 
z
" transform="scale(0.015625)"/>
      <path id="DejaVuSans-61" d="M 2194 1759 
Q 1497 1759 1228 1600 
Q 959 1441 959 1056 
Q 959 750 1161 570 
Q 1363 391 1709 391 
Q 2188 391 2477 730 
Q 2766 1069 2766 1631 
L 2766 1759 
L 2194 1759 
z
M 3341 1997 
L 3341 0 
L 2766 0 
L 2766 531 
Q 2569 213 2275 61 
Q 1981 -91 1556 -91 
Q 1019 -91 701 211 
Q 384 513 384 1019 
Q 384 1609 779 1909 
Q 1175 2209 1959 2209 
L 2766 2209 
L 2766 2266 
Q 2766 2663 2505 2880 
Q 2244 3097 1772 3097 
Q 1472 3097 1187 3025 
Q 903 2953 641 2809 
L 641 3341 
Q 956 3463 1253 3523 
Q 1550 3584 1831 3584 
Q 2591 3584 2966 3190 
Q 3341 2797 3341 1997 
z
" transform="scale(0.015625)"/>
      <path id="DejaVuSans-69" d="M 603 3500 
L 1178 3500 
L 1178 0 
L 603 0 
L 603 3500 
z
M 603 4863 
L 1178 4863 
L 1178 4134 
L 603 4134 
L 603 4863 
z
" transform="scale(0.015625)"/>
      <path id="DejaVuSans-79" d="M 2059 -325 
Q 1816 -950 1584 -1140 
Q 1353 -1331 966 -1331 
L 506 -1331 
L 506 -850 
L 844 -850 
Q 1081 -850 1212 -737 
Q 1344 -625 1503 -206 
L 1606 56 
L 191 3500 
L 800 3500 
L 1894 763 
L 2988 3500 
L 3597 3500 
L 2059 -325 
z
" transform="scale(0.015625)"/>
      <path id="DejaVuSans-28" d="M 1984 4856 
Q 1566 4138 1362 3434 
Q 1159 2731 1159 2009 
Q 1159 1288 1364 580 
Q 1569 -128 1984 -844 
L 1484 -844 
Q 1016 -109 783 600 
Q 550 1309 550 2009 
Q 550 2706 781 3412 
Q 1013 4119 1484 4856 
L 1984 4856 
z
" transform="scale(0.015625)"/>
      <path id="DejaVuSans-73" d="M 2834 3397 
L 2834 2853 
Q 2591 2978 2328 3040 
Q 2066 3103 1784 3103 
Q 1356 3103 1142 2972 
Q 928 2841 928 2578 
Q 928 2378 1081 2264 
Q 1234 2150 1697 2047 
L 1894 2003 
Q 2506 1872 2764 1633 
Q 3022 1394 3022 966 
Q 3022 478 2636 193 
Q 2250 -91 1575 -91 
Q 1294 -91 989 -36 
Q 684 19 347 128 
L 347 722 
Q 666 556 975 473 
Q 1284 391 1588 391 
Q 1994 391 2212 530 
Q 2431 669 2431 922 
Q 2431 1156 2273 1281 
Q 2116 1406 1581 1522 
L 1381 1569 
Q 847 1681 609 1914 
Q 372 2147 372 2553 
Q 372 3047 722 3315 
Q 1072 3584 1716 3584 
Q 2034 3584 2315 3537 
Q 2597 3491 2834 3397 
z
" transform="scale(0.015625)"/>
      <path id="DejaVuSans-29" d="M 513 4856 
L 1013 4856 
Q 1481 4119 1714 3412 
Q 1947 2706 1947 2009 
Q 1947 1309 1714 600 
Q 1481 -109 1013 -844 
L 513 -844 
Q 928 -128 1133 580 
Q 1338 1288 1338 2009 
Q 1338 2731 1133 3434 
Q 928 4138 513 4856 
z
" transform="scale(0.015625)"/>
     </defs>
     <use xlink:href="#DejaVuSans-5b"/>
     <use xlink:href="#DejaVuSans-33" transform="translate(39.013672 0)"/>
     <use xlink:href="#DejaVuSans-32" transform="translate(102.636719 0)"/>
     <use xlink:href="#DejaVuSans-5d" transform="translate(166.259766 0)"/>
     <use xlink:href="#DejaVuSans-20" transform="translate(205.273438 0)"/>
     <use xlink:href="#DejaVuSans-72" transform="translate(237.060547 0)"/>
     <use xlink:href="#DejaVuSans-78" transform="translate(275.548828 0)"/>
     <use xlink:href="#DejaVuSans-5f" transform="translate(334.728516 0)"/>
     <use xlink:href="#DejaVuSans-7a" transform="translate(384.728516 0)"/>
     <use xlink:href="#DejaVuSans-20" transform="translate(437.21875 0)"/>
     <use xlink:href="#DejaVuSans-20" transform="translate(469.005859 0)"/>
     <use xlink:href="#DejaVuSans-2014" transform="translate(500.792969 0)"/>
     <use xlink:href="#DejaVuSans-20" transform="translate(600.792969 0)"/>
     <use xlink:href="#DejaVuSans-20" transform="translate(632.580078 0)"/>
     <use xlink:href="#DejaVuSans-55" transform="translate(664.367188 0)"/>
     <use xlink:href="#DejaVuSans-6e" transform="translate(737.560547 0)"/>
     <use xlink:href="#DejaVuSans-63" transform="translate(800.939453 0)"/>
     <use xlink:href="#DejaVuSans-65" transform="translate(855.919922 0)"/>
     <use xlink:href="#DejaVuSans-72" transform="translate(917.443359 0)"/>
     <use xlink:href="#DejaVuSans-74" transform="translate(958.556641 0)"/>
     <use xlink:href="#DejaVuSans-61" transform="translate(997.765625 0)"/>
     <use xlink:href="#DejaVuSans-69" transform="translate(1059.044922 0)"/>
     <use xlink:href="#DejaVuSans-6e" transform="translate(1086.828125 0)"/>
     <use xlink:href="#DejaVuSans-74" transform="translate(1150.207031 0)"/>
     <use xlink:href="#DejaVuSans-79" transform="translate(1189.416016 0)"/>
     <use xlink:href="#DejaVuSans-20" transform="translate(1248.595703 0)"/>
     <use xlink:href="#DejaVuSans-28" transform="translate(1280.382812 0)"/>
     <use xlink:href="#DejaVuSans-73" transform="translate(1319.396484 0)"/>
     <use xlink:href="#DejaVuSans-74" transform="translate(1371.496094 0)"/>
     <use xlink:href="#DejaVuSans-64" transform="translate(1410.705078 0)"/>
     <use xlink:href="#DejaVuSans-20" transform="translate(1474.181641 0)"/>
     <use xlink:href="#DejaVuSans-64" transform="translate(1505.96875 0)"/>
     <use xlink:href="#DejaVuSans-65" transform="translate(1569.445312 0)"/>
     <use xlink:href="#DejaVuSans-76" transform="translate(1630.96875 0)"/>
     <use xlink:href="#DejaVuSans-29" transform="translate(1690.148438 0)"/>
    </g>
   </g>
   <g id="legend_1">
    <g id="patch_7">
     <path d="M 734.342188 64.23625 
L 846.2 64.23625 
Q 848.2 64.23625 848.2 62.23625 
L 848.2 33.88 
Q 848.2 31.88 846.2 31.88 
L 734.342188 31.88 
Q 732.342188 31.88 732.342188 33.88 
L 732.342188 62.23625 
Q 732.342188 64.23625 734.342188 64.23625 
z
" style="fill: #ffffff; opacity: 0.8; stroke: #cccccc; stroke-linejoin: miter"/>
    </g>
    <g id="line2d_31">
     <path d="M 736.342188 39.978437 
L 746.342188 39.978437 
L 756.342188 39.978437 
" style="fill: none; stroke: #0000ff; stroke-width: 1.5; stroke-linecap: square"/>
    </g>
    <g id="text_16">
     <!-- Ideal (No Noise) -->
     <g transform="translate(764.342188 43.478437) scale(0.1 -0.1)">
      <defs>
       <path id="DejaVuSans-49" d="M 628 4666 
L 1259 4666 
L 1259 0 
L 628 0 
L 628 4666 
z
" transform="scale(0.015625)"/>
       <path id="DejaVuSans-6c" d="M 603 4863 
L 1178 4863 
L 1178 0 
L 603 0 
L 603 4863 
z
" transform="scale(0.015625)"/>
       <path id="DejaVuSans-4e" d="M 628 4666 
L 1478 4666 
L 3547 763 
L 3547 4666 
L 4159 4666 
L 4159 0 
L 3309 0 
L 1241 3903 
L 1241 0 
L 628 0 
L 628 4666 
z
" transform="scale(0.015625)"/>
       <path id="DejaVuSans-6f" d="M 1959 3097 
Q 1497 3097 1228 2736 
Q 959 2375 959 1747 
Q 959 1119 1226 758 
Q 1494 397 1959 397 
Q 2419 397 2687 759 
Q 2956 1122 2956 1747 
Q 2956 2369 2687 2733 
Q 2419 3097 1959 3097 
z
M 1959 3584 
Q 2709 3584 3137 3096 
Q 3566 2609 3566 1747 
Q 3566 888 3137 398 
Q 2709 -91 1959 -91 
Q 1206 -91 779 398 
Q 353 888 353 1747 
Q 353 2609 779 3096 
Q 1206 3584 1959 3584 
z
" transform="scale(0.015625)"/>
      </defs>
      <use xlink:href="#DejaVuSans-49"/>
      <use xlink:href="#DejaVuSans-64" transform="translate(29.492188 0)"/>
      <use xlink:href="#DejaVuSans-65" transform="translate(92.96875 0)"/>
      <use xlink:href="#DejaVuSans-61" transform="translate(154.492188 0)"/>
      <use xlink:href="#DejaVuSans-6c" transform="translate(215.771484 0)"/>
      <use xlink:href="#DejaVuSans-20" transform="translate(243.554688 0)"/>
      <use xlink:href="#DejaVuSans-28" transform="translate(275.341797 0)"/>
      <use xlink:href="#DejaVuSans-4e" transform="translate(314.355469 0)"/>
      <use xlink:href="#DejaVuSans-6f" transform="translate(389.160156 0)"/>
      <use xlink:href="#DejaVuSans-20" transform="translate(450.341797 0)"/>
      <use xlink:href="#DejaVuSans-4e" transform="translate(482.128906 0)"/>
      <use xlink:href="#DejaVuSans-6f" transform="translate(556.933594 0)"/>
      <use xlink:href="#DejaVuSans-69" transform="translate(618.115234 0)"/>
      <use xlink:href="#DejaVuSans-73" transform="translate(645.898438 0)"/>
      <use xlink:href="#DejaVuSans-65" transform="translate(697.998047 0)"/>
      <use xlink:href="#DejaVuSans-29" transform="translate(759.521484 0)"/>
     </g>
    </g>
    <g id="line2d_32">
     <path d="M 736.342188 54.656562 
L 746.342188 54.656562 
L 756.342188 54.656562 
" style="fill: none; stroke-dasharray: 5.55,2.4; stroke-dashoffset: 0; stroke: #ff0000; stroke-width: 1.5"/>
    </g>
    <g id="text_17">
     <!-- With Full Noise -->
     <g transform="translate(764.342188 58.156562) scale(0.1 -0.1)">
      <defs>
       <path id="DejaVuSans-57" d="M 213 4666 
L 850 4666 
L 1831 722 
L 2809 4666 
L 3519 4666 
L 4500 722 
L 5478 4666 
L 6119 4666 
L 4947 0 
L 4153 0 
L 3169 4050 
L 2175 0 
L 1381 0 
L 213 4666 
z
" transform="scale(0.015625)"/>
       <path id="DejaVuSans-68" d="M 3513 2113 
L 3513 0 
L 2938 0 
L 2938 2094 
Q 2938 2591 2744 2837 
Q 2550 3084 2163 3084 
Q 1697 3084 1428 2787 
Q 1159 2491 1159 1978 
L 1159 0 
L 581 0 
L 581 4863 
L 1159 4863 
L 1159 2956 
Q 1366 3272 1645 3428 
Q 1925 3584 2291 3584 
Q 2894 3584 3203 3211 
Q 3513 2838 3513 2113 
z
" transform="scale(0.015625)"/>
       <path id="DejaVuSans-46" d="M 628 4666 
L 3309 4666 
L 3309 4134 
L 1259 4134 
L 1259 2759 
L 3109 2759 
L 3109 2228 
L 1259 2228 
L 1259 0 
L 628 0 
L 628 4666 
z
" transform="scale(0.015625)"/>
       <path id="DejaVuSans-75" d="M 544 1381 
L 544 3500 
L 1119 3500 
L 1119 1403 
Q 1119 906 1312 657 
Q 1506 409 1894 409 
Q 2359 409 2629 706 
Q 2900 1003 2900 1516 
L 2900 3500 
L 3475 3500 
L 3475 0 
L 2900 0 
L 2900 538 
Q 2691 219 2414 64 
Q 2138 -91 1772 -91 
Q 1169 -91 856 284 
Q 544 659 544 1381 
z
M 1991 3584 
L 1991 3584 
z
" transform="scale(0.015625)"/>
      </defs>
      <use xlink:href="#DejaVuSans-57"/>
      <use xlink:href="#DejaVuSans-69" transform="translate(96.626953 0)"/>
      <use xlink:href="#DejaVuSans-74" transform="translate(124.410156 0)"/>
      <use xlink:href="#DejaVuSans-68" transform="translate(163.619141 0)"/>
      <use xlink:href="#DejaVuSans-20" transform="translate(226.998047 0)"/>
      <use xlink:href="#DejaVuSans-46" transform="translate(258.785156 0)"/>
      <use xlink:href="#DejaVuSans-75" transform="translate(310.804688 0)"/>
      <use xlink:href="#DejaVuSans-6c" transform="translate(374.183594 0)"/>
      <use xlink:href="#DejaVuSans-6c" transform="translate(401.966797 0)"/>
      <use xlink:href="#DejaVuSans-20" transform="translate(429.75 0)"/>
      <use xlink:href="#DejaVuSans-4e" transform="translate(461.537109 0)"/>
      <use xlink:href="#DejaVuSans-6f" transform="translate(536.341797 0)"/>
      <use xlink:href="#DejaVuSans-69" transform="translate(597.523438 0)"/>
      <use xlink:href="#DejaVuSans-73" transform="translate(625.306641 0)"/>
      <use xlink:href="#DejaVuSans-65" transform="translate(677.40625 0)"/>
     </g>
    </g>
   </g>
  </g>
  <g id="axes_2">
   <g id="patch_8">
    <path d="M 62.39 534.04 
L 853.2 534.04 
L 853.2 302.44 
L 62.39 302.44 
z
" style="fill: #ffffff"/>
   </g>
   <g id="matplotlib.axis_3">
    <g id="xtick_8">
     <g id="line2d_33">
      <path d="M 98.335909 534.04 
L 98.335909 302.44 
" clip-path="url(#p044764d2fa)" style="fill: none; stroke: #b0b0b0; stroke-width: 0.8; stroke-linecap: square"/>
     </g>
     <g id="line2d_34">
      <g>
       <use xlink:href="#m3a8c8edee3" x="98.335909" y="534.04" style="stroke: #000000; stroke-width: 0.8"/>
      </g>
     </g>
     <g id="text_18">
      <!-- 0 -->
      <g transform="translate(95.154659 548.638438) scale(0.1 -0.1)">
       <use xlink:href="#DejaVuSans-30"/>
      </g>
     </g>
    </g>
    <g id="xtick_9">
     <g id="line2d_35">
      <path d="M 220.559333 534.04 
L 220.559333 302.44 
" clip-path="url(#p044764d2fa)" style="fill: none; stroke: #b0b0b0; stroke-width: 0.8; stroke-linecap: square"/>
     </g>
     <g id="line2d_36">
      <g>
       <use xlink:href="#m3a8c8edee3" x="220.559333" y="534.04" style="stroke: #000000; stroke-width: 0.8"/>
      </g>
     </g>
     <g id="text_19">
      <!-- 50 -->
      <g transform="translate(214.196833 548.638438) scale(0.1 -0.1)">
       <use xlink:href="#DejaVuSans-35"/>
       <use xlink:href="#DejaVuSans-30" transform="translate(63.623047 0)"/>
      </g>
     </g>
    </g>
    <g id="xtick_10">
     <g id="line2d_37">
      <path d="M 342.782758 534.04 
L 342.782758 302.44 
" clip-path="url(#p044764d2fa)" style="fill: none; stroke: #b0b0b0; stroke-width: 0.8; stroke-linecap: square"/>
     </g>
     <g id="line2d_38">
      <g>
       <use xlink:href="#m3a8c8edee3" x="342.782758" y="534.04" style="stroke: #000000; stroke-width: 0.8"/>
      </g>
     </g>
     <g id="text_20">
      <!-- 100 -->
      <g transform="translate(333.239008 548.638438) scale(0.1 -0.1)">
       <use xlink:href="#DejaVuSans-31"/>
       <use xlink:href="#DejaVuSans-30" transform="translate(63.623047 0)"/>
       <use xlink:href="#DejaVuSans-30" transform="translate(127.246094 0)"/>
      </g>
     </g>
    </g>
    <g id="xtick_11">
     <g id="line2d_39">
      <path d="M 465.006182 534.04 
L 465.006182 302.44 
" clip-path="url(#p044764d2fa)" style="fill: none; stroke: #b0b0b0; stroke-width: 0.8; stroke-linecap: square"/>
     </g>
     <g id="line2d_40">
      <g>
       <use xlink:href="#m3a8c8edee3" x="465.006182" y="534.04" style="stroke: #000000; stroke-width: 0.8"/>
      </g>
     </g>
     <g id="text_21">
      <!-- 150 -->
      <g transform="translate(455.462432 548.638438) scale(0.1 -0.1)">
       <use xlink:href="#DejaVuSans-31"/>
       <use xlink:href="#DejaVuSans-35" transform="translate(63.623047 0)"/>
       <use xlink:href="#DejaVuSans-30" transform="translate(127.246094 0)"/>
      </g>
     </g>
    </g>
    <g id="xtick_12">
     <g id="line2d_41">
      <path d="M 587.229606 534.04 
L 587.229606 302.44 
" clip-path="url(#p044764d2fa)" style="fill: none; stroke: #b0b0b0; stroke-width: 0.8; stroke-linecap: square"/>
     </g>
     <g id="line2d_42">
      <g>
       <use xlink:href="#m3a8c8edee3" x="587.229606" y="534.04" style="stroke: #000000; stroke-width: 0.8"/>
      </g>
     </g>
     <g id="text_22">
      <!-- 200 -->
      <g transform="translate(577.685856 548.638438) scale(0.1 -0.1)">
       <use xlink:href="#DejaVuSans-32"/>
       <use xlink:href="#DejaVuSans-30" transform="translate(63.623047 0)"/>
       <use xlink:href="#DejaVuSans-30" transform="translate(127.246094 0)"/>
      </g>
     </g>
    </g>
    <g id="xtick_13">
     <g id="line2d_43">
      <path d="M 709.453031 534.04 
L 709.453031 302.44 
" clip-path="url(#p044764d2fa)" style="fill: none; stroke: #b0b0b0; stroke-width: 0.8; stroke-linecap: square"/>
     </g>
     <g id="line2d_44">
      <g>
       <use xlink:href="#m3a8c8edee3" x="709.453031" y="534.04" style="stroke: #000000; stroke-width: 0.8"/>
      </g>
     </g>
     <g id="text_23">
      <!-- 250 -->
      <g transform="translate(699.909281 548.638438) scale(0.1 -0.1)">
       <use xlink:href="#DejaVuSans-32"/>
       <use xlink:href="#DejaVuSans-35" transform="translate(63.623047 0)"/>
       <use xlink:href="#DejaVuSans-30" transform="translate(127.246094 0)"/>
      </g>
     </g>
    </g>
    <g id="xtick_14">
     <g id="line2d_45">
      <path d="M 831.676455 534.04 
L 831.676455 302.44 
" clip-path="url(#p044764d2fa)" style="fill: none; stroke: #b0b0b0; stroke-width: 0.8; stroke-linecap: square"/>
     </g>
     <g id="line2d_46">
      <g>
       <use xlink:href="#m3a8c8edee3" x="831.676455" y="534.04" style="stroke: #000000; stroke-width: 0.8"/>
      </g>
     </g>
     <g id="text_24">
      <!-- 300 -->
      <g transform="translate(822.132705 548.638438) scale(0.1 -0.1)">
       <use xlink:href="#DejaVuSans-33"/>
       <use xlink:href="#DejaVuSans-30" transform="translate(63.623047 0)"/>
       <use xlink:href="#DejaVuSans-30" transform="translate(127.246094 0)"/>
      </g>
     </g>
    </g>
    <g id="text_25">
     <!-- Time (s) -->
     <g transform="translate(437.466094 562.316562) scale(0.1 -0.1)">
      <defs>
       <path id="DejaVuSans-54" d="M -19 4666 
L 3928 4666 
L 3928 4134 
L 2272 4134 
L 2272 0 
L 1638 0 
L 1638 4134 
L -19 4134 
L -19 4666 
z
" transform="scale(0.015625)"/>
       <path id="DejaVuSans-6d" d="M 3328 2828 
Q 3544 3216 3844 3400 
Q 4144 3584 4550 3584 
Q 5097 3584 5394 3201 
Q 5691 2819 5691 2113 
L 5691 0 
L 5113 0 
L 5113 2094 
Q 5113 2597 4934 2840 
Q 4756 3084 4391 3084 
Q 3944 3084 3684 2787 
Q 3425 2491 3425 1978 
L 3425 0 
L 2847 0 
L 2847 2094 
Q 2847 2600 2669 2842 
Q 2491 3084 2119 3084 
Q 1678 3084 1418 2786 
Q 1159 2488 1159 1978 
L 1159 0 
L 581 0 
L 581 3500 
L 1159 3500 
L 1159 2956 
Q 1356 3278 1631 3431 
Q 1906 3584 2284 3584 
Q 2666 3584 2933 3390 
Q 3200 3197 3328 2828 
z
" transform="scale(0.015625)"/>
      </defs>
      <use xlink:href="#DejaVuSans-54"/>
      <use xlink:href="#DejaVuSans-69" transform="translate(57.958984 0)"/>
      <use xlink:href="#DejaVuSans-6d" transform="translate(85.742188 0)"/>
      <use xlink:href="#DejaVuSans-65" transform="translate(183.154297 0)"/>
      <use xlink:href="#DejaVuSans-20" transform="translate(244.677734 0)"/>
      <use xlink:href="#DejaVuSans-28" transform="translate(276.464844 0)"/>
      <use xlink:href="#DejaVuSans-73" transform="translate(315.478516 0)"/>
      <use xlink:href="#DejaVuSans-29" transform="translate(367.578125 0)"/>
     </g>
    </g>
   </g>
   <g id="matplotlib.axis_4">
    <g id="ytick_7">
     <g id="line2d_47">
      <path d="M 62.39 525.650603 
L 853.2 525.650603 
" clip-path="url(#p044764d2fa)" style="fill: none; stroke: #b0b0b0; stroke-width: 0.8; stroke-linecap: square"/>
     </g>
     <g id="line2d_48">
      <g>
       <use xlink:href="#m008a8b2eff" x="62.39" y="525.650603" style="stroke: #000000; stroke-width: 0.8"/>
      </g>
     </g>
     <g id="text_26">
      <!-- −0.04 -->
      <g transform="translate(24.744687 529.449822) scale(0.1 -0.1)">
       <defs>
        <path id="DejaVuSans-2212" d="M 678 2272 
L 4684 2272 
L 4684 1741 
L 678 1741 
L 678 2272 
z
" transform="scale(0.015625)"/>
       </defs>
       <use xlink:href="#DejaVuSans-2212"/>
       <use xlink:href="#DejaVuSans-30" transform="translate(83.789062 0)"/>
       <use xlink:href="#DejaVuSans-2e" transform="translate(147.412109 0)"/>
       <use xlink:href="#DejaVuSans-30" transform="translate(179.199219 0)"/>
       <use xlink:href="#DejaVuSans-34" transform="translate(242.822266 0)"/>
      </g>
     </g>
    </g>
    <g id="ytick_8">
     <g id="line2d_49">
      <path d="M 62.39 484.932748 
L 853.2 484.932748 
" clip-path="url(#p044764d2fa)" style="fill: none; stroke: #b0b0b0; stroke-width: 0.8; stroke-linecap: square"/>
     </g>
     <g id="line2d_50">
      <g>
       <use xlink:href="#m008a8b2eff" x="62.39" y="484.932748" style="stroke: #000000; stroke-width: 0.8"/>
      </g>
     </g>
     <g id="text_27">
      <!-- −0.03 -->
      <g transform="translate(24.744687 488.731967) scale(0.1 -0.1)">
       <use xlink:href="#DejaVuSans-2212"/>
       <use xlink:href="#DejaVuSans-30" transform="translate(83.789062 0)"/>
       <use xlink:href="#DejaVuSans-2e" transform="translate(147.412109 0)"/>
       <use xlink:href="#DejaVuSans-30" transform="translate(179.199219 0)"/>
       <use xlink:href="#DejaVuSans-33" transform="translate(242.822266 0)"/>
      </g>
     </g>
    </g>
    <g id="ytick_9">
     <g id="line2d_51">
      <path d="M 62.39 444.214892 
L 853.2 444.214892 
" clip-path="url(#p044764d2fa)" style="fill: none; stroke: #b0b0b0; stroke-width: 0.8; stroke-linecap: square"/>
     </g>
     <g id="line2d_52">
      <g>
       <use xlink:href="#m008a8b2eff" x="62.39" y="444.214892" style="stroke: #000000; stroke-width: 0.8"/>
      </g>
     </g>
     <g id="text_28">
      <!-- −0.02 -->
      <g transform="translate(24.744687 448.014111) scale(0.1 -0.1)">
       <use xlink:href="#DejaVuSans-2212"/>
       <use xlink:href="#DejaVuSans-30" transform="translate(83.789062 0)"/>
       <use xlink:href="#DejaVuSans-2e" transform="translate(147.412109 0)"/>
       <use xlink:href="#DejaVuSans-30" transform="translate(179.199219 0)"/>
       <use xlink:href="#DejaVuSans-32" transform="translate(242.822266 0)"/>
      </g>
     </g>
    </g>
    <g id="ytick_10">
     <g id="line2d_53">
      <path d="M 62.39 403.497037 
L 853.2 403.497037 
" clip-path="url(#p044764d2fa)" style="fill: none; stroke: #b0b0b0; stroke-width: 0.8; stroke-linecap: square"/>
     </g>
     <g id="line2d_54">
      <g>
       <use xlink:href="#m008a8b2eff" x="62.39" y="403.497037" style="stroke: #000000; stroke-width: 0.8"/>
      </g>
     </g>
     <g id="text_29">
      <!-- −0.01 -->
      <g transform="translate(24.744687 407.296255) scale(0.1 -0.1)">
       <use xlink:href="#DejaVuSans-2212"/>
       <use xlink:href="#DejaVuSans-30" transform="translate(83.789062 0)"/>
       <use xlink:href="#DejaVuSans-2e" transform="translate(147.412109 0)"/>
       <use xlink:href="#DejaVuSans-30" transform="translate(179.199219 0)"/>
       <use xlink:href="#DejaVuSans-31" transform="translate(242.822266 0)"/>
      </g>
     </g>
    </g>
    <g id="ytick_11">
     <g id="line2d_55">
      <path d="M 62.39 362.779181 
L 853.2 362.779181 
" clip-path="url(#p044764d2fa)" style="fill: none; stroke: #b0b0b0; stroke-width: 0.8; stroke-linecap: square"/>
     </g>
     <g id="line2d_56">
      <g>
       <use xlink:href="#m008a8b2eff" x="62.39" y="362.779181" style="stroke: #000000; stroke-width: 0.8"/>
      </g>
     </g>
     <g id="text_30">
      <!-- 0.00 -->
      <g transform="translate(33.124375 366.5784) scale(0.1 -0.1)">
       <use xlink:href="#DejaVuSans-30"/>
       <use xlink:href="#DejaVuSans-2e" transform="translate(63.623047 0)"/>
       <use xlink:href="#DejaVuSans-30" transform="translate(95.410156 0)"/>
       <use xlink:href="#DejaVuSans-30" transform="translate(159.033203 0)"/>
      </g>
     </g>
    </g>
    <g id="ytick_12">
     <g id="line2d_57">
      <path d="M 62.39 322.061325 
L 853.2 322.061325 
" clip-path="url(#p044764d2fa)" style="fill: none; stroke: #b0b0b0; stroke-width: 0.8; stroke-linecap: square"/>
     </g>
     <g id="line2d_58">
      <g>
       <use xlink:href="#m008a8b2eff" x="62.39" y="322.061325" style="stroke: #000000; stroke-width: 0.8"/>
      </g>
     </g>
     <g id="text_31">
      <!-- 0.01 -->
      <g transform="translate(33.124375 325.860544) scale(0.1 -0.1)">
       <use xlink:href="#DejaVuSans-30"/>
       <use xlink:href="#DejaVuSans-2e" transform="translate(63.623047 0)"/>
       <use xlink:href="#DejaVuSans-30" transform="translate(95.410156 0)"/>
       <use xlink:href="#DejaVuSans-31" transform="translate(159.033203 0)"/>
      </g>
     </g>
    </g>
    <g id="text_32">
     <!-- Estimated Value -->
     <g transform="translate(18.665 458.818906) rotate(-90) scale(0.1 -0.1)">
      <defs>
       <path id="DejaVuSans-45" d="M 628 4666 
L 3578 4666 
L 3578 4134 
L 1259 4134 
L 1259 2753 
L 3481 2753 
L 3481 2222 
L 1259 2222 
L 1259 531 
L 3634 531 
L 3634 0 
L 628 0 
L 628 4666 
z
" transform="scale(0.015625)"/>
       <path id="DejaVuSans-56" d="M 1831 0 
L 50 4666 
L 709 4666 
L 2188 738 
L 3669 4666 
L 4325 4666 
L 2547 0 
L 1831 0 
z
" transform="scale(0.015625)"/>
      </defs>
      <use xlink:href="#DejaVuSans-45"/>
      <use xlink:href="#DejaVuSans-73" transform="translate(63.183594 0)"/>
      <use xlink:href="#DejaVuSans-74" transform="translate(115.283203 0)"/>
      <use xlink:href="#DejaVuSans-69" transform="translate(154.492188 0)"/>
      <use xlink:href="#DejaVuSans-6d" transform="translate(182.275391 0)"/>
      <use xlink:href="#DejaVuSans-61" transform="translate(279.6875 0)"/>
      <use xlink:href="#DejaVuSans-74" transform="translate(340.966797 0)"/>
      <use xlink:href="#DejaVuSans-65" transform="translate(380.175781 0)"/>
      <use xlink:href="#DejaVuSans-64" transform="translate(441.699219 0)"/>
      <use xlink:href="#DejaVuSans-20" transform="translate(505.175781 0)"/>
      <use xlink:href="#DejaVuSans-56" transform="translate(536.962891 0)"/>
      <use xlink:href="#DejaVuSans-61" transform="translate(597.621094 0)"/>
      <use xlink:href="#DejaVuSans-6c" transform="translate(658.900391 0)"/>
      <use xlink:href="#DejaVuSans-75" transform="translate(686.683594 0)"/>
      <use xlink:href="#DejaVuSans-65" transform="translate(750.0625 0)"/>
     </g>
    </g>
   </g>
   <g id="line2d_59">
    <path d="M 98.335909 362.779181 
L 117.598321 362.778978 
L 117.64721 523.512727 
L 117.744989 502.487947 
L 117.940546 484.530602 
L 118.184993 481.403902 
L 118.478329 480.469572 
L 118.869444 480.000522 
L 119.456117 479.684773 
L 120.531683 479.403995 
L 122.829483 479.082648 
L 127.229527 478.709096 
L 132.36291 478.49641 
L 139.891873 478.438198 
L 141.798559 478.438198 
L 141.896338 481.741036 
L 141.945227 481.738855 
L 142.434121 481.793012 
L 143.558576 481.904701 
L 146.491938 481.89836 
L 153.776454 481.758691 
L 153.923122 482.445494 
L 154.754242 483.657633 
L 155.389804 483.911235 
L 156.514259 484.081515 
L 159.007617 484.186156 
L 165.75435 484.212273 
L 165.901018 485.751513 
L 166.732137 485.622861 
L 168.589933 485.495225 
L 173.234424 485.455414 
L 177.732246 485.462661 
L 177.878914 485.086026 
L 188.536796 484.75348 
L 189.710141 484.75348 
L 189.856809 484.232459 
L 197.434662 484.101265 
L 213.665932 483.982922 
L 213.8126 483.848257 
L 214.888167 483.829427 
L 225.643828 483.8321 
L 225.839385 483.77315 
L 234.346136 483.76838 
L 245.199576 483.863717 
L 249.599619 483.882694 
L 249.746287 483.751417 
L 254.488556 483.741701 
L 285.533306 483.812035 
L 285.679974 484.075764 
L 289.933349 483.96591 
L 297.804538 483.76609 
L 299.515666 483.391032 
L 302.057913 483.120929 
L 306.360177 482.910108 
L 309.440208 482.897688 
L 309.586876 483.027407 
L 313.058021 483.348519 
L 318.484741 483.574833 
L 321.418103 483.58286 
L 321.564771 483.848025 
L 325.378142 483.858667 
L 333.395999 483.867623 
L 333.542667 483.753209 
L 337.94271 483.827107 
L 338.089378 362.779181 
L 357.254011 362.779151 
L 357.302901 364.079501 
L 357.35179 363.541682 
L 357.547347 361.626883 
L 357.791794 361.258792 
L 358.231799 361.132819 
L 359.747369 361.044172 
L 365.516315 360.980338 
L 374.951963 361.121735 
L 381.454249 361.188156 
L 381.600917 361.490596 
L 382.92093 361.486727 
L 391.329902 361.485984 
L 393.432145 361.485984 
L 393.578813 362.649257 
L 394.947715 363.095368 
L 397.049958 363.185831 
L 405.214483 363.218167 
L 405.41004 363.218167 
L 405.556708 363.645353 
L 417.387936 363.824005 
L 417.534604 363.655204 
L 429.365832 363.537164 
L 429.5125 363.277687 
L 435.036998 363.30708 
L 538.486905 363.280157 
L 543.571399 363.155762 
L 549.73146 363.185978 
L 555.304848 363.319008 
L 572.17168 363.433212 
L 577.598401 363.409889 
L 577.745069 362.779181 
L 596.909702 362.779138 
L 596.958591 362.577026 
L 597.105259 361.759673 
L 599.403059 361.770172 
L 609.963163 361.901467 
L 633.087835 361.837334 
L 633.234503 362.328375 
L 636.412312 362.318187 
L 646.972416 362.427908 
L 654.305822 362.465832 
L 817.254091 362.653404 
L 817.254091 362.653404 
" clip-path="url(#p044764d2fa)" style="fill: none; stroke: #0000ff; stroke-width: 1.5; stroke-linecap: square"/>
   </g>
   <g id="line2d_60">
    <path d="M 98.335909 362.779181 
L 98.873692 362.701049 
L 99.215918 362.670966 
L 99.753701 362.647759 
L 101.562607 362.490884 
L 102.93151 362.46144 
L 106.744881 362.373005 
L 106.989328 362.373667 
L 108.504898 362.486453 
L 109.14046 362.486315 
L 109.531575 362.511884 
L 117.598321 362.552229 
L 117.64721 520.811512 
L 117.744989 497.980427 
L 117.891657 484.428723 
L 118.136104 481.605761 
L 118.331661 478.912942 
L 118.380551 479.261674 
L 118.527219 479.03109 
L 118.722776 479.851881 
L 118.771666 479.565858 
L 118.967223 478.355435 
L 119.162781 476.590637 
L 119.309449 475.843755 
L 119.505006 476.439157 
L 119.553896 476.402212 
L 119.700564 475.725278 
L 119.896121 476.111745 
L 119.945011 475.998417 
L 120.042789 475.903831 
L 120.189457 476.439227 
L 120.336125 476.61862 
L 120.385015 476.535927 
L 120.482794 476.752018 
L 120.531683 476.660808 
L 120.825019 477.054154 
L 121.069466 477.610465 
L 121.118355 477.4855 
L 121.362802 476.364964 
L 121.607249 476.911763 
L 121.656138 476.8577 
L 121.851696 476.625386 
L 121.998364 476.804075 
L 122.193922 476.855951 
L 122.2917 476.954965 
L 122.536147 476.49328 
L 122.585036 476.622988 
L 122.682815 476.973401 
L 122.927262 477.909379 
L 123.12282 478.339508 
L 123.171709 478.314202 
L 123.269488 478.256538 
L 123.416156 478.071005 
L 123.660603 478.476304 
L 123.758381 478.323233 
L 123.807271 478.36864 
L 124.296164 478.514088 
L 124.393943 478.532974 
L 124.736169 479.161836 
L 124.833947 479.273133 
L 125.078394 479.669969 
L 125.225062 479.600548 
L 125.909514 480.266857 
L 126.105071 480.271725 
L 126.251739 480.197524 
L 126.496186 480.415385 
L 126.789522 481.144286 
L 127.082858 481.454024 
L 127.473973 481.972154 
L 127.620642 482.1628 
L 128.402871 482.523943 
L 128.50065 482.620128 
L 128.842876 483.030067 
L 129.185101 483.267923 
L 129.380659 483.757845 
L 129.673995 484.298938 
L 129.967331 484.545713 
L 130.358446 485.171792 
L 131.189566 485.828678 
L 131.482902 486.226613 
L 132.118464 486.857244 
L 132.265132 486.865225 
L 132.851804 487.496752 
L 133.096251 487.428658 
L 133.585145 487.57316 
L 133.780702 487.516641 
L 134.025149 487.39976 
L 134.220706 487.357316 
L 134.416264 487.360051 
L 135.247383 486.603879 
L 135.638498 486.621538 
L 136.518507 486.547966 
L 136.714064 486.741086 
L 136.958511 486.855554 
L 138.376303 486.349421 
L 139.500758 486.369823 
L 141.798559 486.369823 
L 141.896338 483.624945 
L 141.945227 483.683472 
L 142.140784 483.337851 
L 142.238563 483.432263 
L 142.434121 483.896692 
L 142.531899 483.81512 
L 142.776346 482.372701 
L 142.923014 481.739702 
L 142.971904 481.920853 
L 143.069682 482.075832 
L 143.118572 482.015423 
L 143.21635 481.920661 
L 143.411908 482.036269 
L 143.607465 482.007568 
L 143.803023 482.213493 
L 143.900802 482.112274 
L 144.04747 481.984482 
L 144.243027 482.029114 
L 144.438585 481.76872 
L 144.8297 480.609246 
L 145.758598 479.260707 
L 145.807487 479.298656 
L 146.296381 479.03641 
L 147.029721 478.132177 
L 147.371947 478.267879 
L 147.518615 478.168442 
L 147.714173 478.142225 
L 148.154177 478.071136 
L 148.300845 477.927 
L 149.767526 476.71042 
L 150.549756 476.306407 
L 153.092003 476.137018 
L 153.776454 476.137018 
L 153.874233 477.810567 
L 153.923122 477.786614 
L 153.972012 477.785202 
L 154.020901 477.555368 
L 154.11868 477.604002 
L 154.216459 477.955905 
L 154.265348 477.910928 
L 154.314237 477.672913 
L 154.363127 477.729096 
L 154.607574 478.047425 
L 154.85202 478.009205 
L 154.998689 478.206219 
L 155.047578 478.179114 
L 155.194246 477.909581 
L 155.389804 477.407117 
L 155.487582 477.392721 
L 155.732029 477.549485 
L 155.976476 477.557187 
L 156.220923 477.594957 
L 156.612038 477.434886 
L 156.709817 477.367244 
L 157.003153 477.106648 
L 157.149821 476.952019 
L 157.492046 476.428149 
L 157.736493 476.286457 
L 158.372055 476.365099 
L 158.665391 476.153851 
L 159.056506 476.109611 
L 160.278741 476.558788 
L 160.523187 476.503346 
L 160.816524 476.558905 
L 161.647643 476.456904 
L 162.332094 476.609513 
L 163.065435 476.536586 
L 165.75435 476.536586 
L 165.852129 480.64079 
L 165.901018 480.627739 
L 166.53658 479.944091 
L 166.829916 479.412446 
L 167.025474 479.46645 
L 167.172142 479.296827 
L 167.416589 479.132541 
L 167.563257 479.193601 
L 167.807703 479.04623 
L 168.10104 478.779473 
L 168.296597 478.57804 
L 168.443265 478.434876 
L 168.736601 478.135373 
L 169.225495 477.817521 
L 169.518831 477.688344 
L 169.958836 477.577898 
L 170.252172 477.498257 
L 171.767742 476.654489 
L 172.012189 476.567785 
L 172.452194 476.605414 
L 173.234424 476.607621 
L 173.52776 476.588077 
L 173.918875 476.576393 
L 177.732246 476.586394 
L 177.878914 477.301183 
L 178.12336 477.302833 
L 178.661144 477.189846 
L 179.052259 476.934704 
L 179.443373 476.776229 
L 180.372271 476.47527 
L 180.567829 476.431243 
L 180.958944 476.187127 
L 183.110076 475.773695 
L 183.305634 475.737956 
L 183.745638 475.643843 
L 184.283421 475.495127 
L 184.625647 475.381382 
L 185.701213 475.238753 
L 186.043438 475.173771 
L 187.705677 475.097193 
L 189.710141 475.097193 
L 189.856809 485.175693 
L 190.003477 485.085182 
L 191.225712 483.237089 
L 192.447946 482.264216 
L 193.230176 481.620318 
L 193.425733 481.492438 
L 194.012406 481.105344 
L 194.45241 480.938672 
L 196.359095 480.110471 
L 198.31467 479.92559 
L 200.856917 479.963321 
L 213.665932 479.870236 
L 213.8126 479.741942 
L 214.252605 479.722323 
L 214.545941 479.711121 
L 217.381524 479.467945 
L 218.212644 479.514455 
L 222.612687 479.239111 
L 223.248249 479.201249 
L 237.621723 479.165685 
L 237.768392 479.367743 
L 238.501732 479.413414 
L 238.990626 479.508054 
L 239.332851 479.574638 
L 243.048443 479.699428 
L 243.977342 479.657198 
L 247.20404 479.763269 
L 249.599619 479.763269 
L 249.746287 479.568063 
L 251.701862 479.555911 
L 263.141974 479.683985 
L 263.435311 479.697959 
L 265.635332 479.581122 
L 266.173115 479.508095 
L 266.759788 479.505654 
L 267.493128 479.538826 
L 268.030911 479.55372 
L 269.155367 479.624343 
L 269.888707 479.572027 
L 270.670937 479.610414 
L 272.03984 479.616944 
L 273.55541 479.616944 
L 273.702078 479.737382 
L 278.102122 479.815117 
L 297.511201 479.660609 
L 297.560091 480.096743 
L 297.657869 480.078565 
L 298.097874 479.965532 
L 299.222329 479.646456 
L 302.791253 479.352905 
L 305.871284 479.224096 
L 308.315752 479.19654 
L 309.880212 479.300756 
L 310.80911 479.358008 
L 311.640229 479.417025 
L 312.911353 479.495302 
L 319.31586 479.639942 
L 321.418103 479.639942 
L 321.564771 479.958175 
L 327.187049 479.993548 
L 333.395999 480.008904 
L 333.542667 479.832434 
L 334.764901 479.981044 
L 335.64491 480.085816 
L 337.551595 480.217742 
L 337.94271 480.232182 
L 337.991599 362.779181 
L 338.089378 362.779407 
L 339.360502 362.67416 
L 339.604949 362.650976 
L 340.436068 362.558404 
L 340.778294 362.51143 
L 344.493886 362.348938 
L 344.640554 362.396827 
L 345.325005 362.389819 
L 345.862788 362.340299 
L 347.916142 362.432954 
L 348.209478 362.463876 
L 349.627269 362.529256 
L 349.871716 362.498991 
L 354.809543 362.527843 
L 357.254011 362.527843 
L 357.302901 369.887206 
L 357.35179 367.757766 
L 357.498458 362.219272 
L 357.645126 365.5656 
L 357.694015 365.502741 
L 357.889573 363.96516 
L 357.987352 362.934852 
L 358.036241 363.382932 
L 358.13402 363.297554 
L 358.182909 363.375584 
L 358.378467 364.397737 
L 358.427356 364.147621 
L 358.574024 363.382607 
L 358.965139 360.699115 
L 359.014028 360.97743 
L 359.062918 360.933888 
L 359.160697 361.35546 
L 359.209586 361.330953 
L 359.356254 360.68906 
L 359.551812 361.115044 
L 359.600701 361.00983 
L 359.69848 360.931677 
L 359.845148 361.49114 
L 359.991816 361.69009 
L 360.040705 361.614747 
L 360.138484 361.845305 
L 360.187373 361.761094 
L 360.529599 362.264461 
L 360.725156 362.759232 
L 360.822935 362.342792 
L 361.018493 361.557112 
L 361.262939 362.130985 
L 361.311829 362.082267 
L 361.507386 361.864914 
L 361.654054 362.050882 
L 361.849612 362.109083 
L 361.947391 362.203699 
L 362.191838 361.756485 
L 362.436284 362.70539 
L 362.77851 363.607653 
L 362.925178 363.529088 
L 363.071846 363.349786 
L 363.316293 363.760741 
L 363.414072 363.619398 
L 363.462961 363.667501 
L 363.951855 363.839649 
L 364.049634 363.86016 
L 364.391859 364.489359 
L 364.489638 364.602177 
L 364.734085 364.999981 
L 364.880753 364.937656 
L 365.614093 365.620689 
L 365.760761 365.610555 
L 365.90743 365.545179 
L 366.151876 365.761586 
L 366.445213 366.475064 
L 366.738549 366.774304 
L 367.129664 367.279651 
L 367.325221 367.497895 
L 367.569668 367.605368 
L 368.107451 367.836123 
L 368.498566 368.331573 
L 368.840792 368.554992 
L 369.085239 369.1491 
L 369.378575 369.57359 
L 369.525243 369.665266 
L 370.356362 370.608619 
L 370.796367 370.920695 
L 371.040813 371.277258 
L 371.431928 371.706046 
L 371.774154 372.022044 
L 371.920822 372.030719 
L 372.507495 372.623929 
L 372.751941 372.565806 
L 373.240835 372.682243 
L 373.436393 372.624707 
L 373.680839 372.506653 
L 373.876397 372.465581 
L 374.071954 372.462908 
L 374.951963 371.753089 
L 375.343078 371.753969 
L 375.587525 371.688009 
L 375.783082 371.692339 
L 376.320865 371.798213 
L 376.565312 371.96876 
L 376.956427 371.876803 
L 377.298653 371.704617 
L 377.836436 371.568703 
L 378.423108 371.530074 
L 378.618666 371.492231 
L 379.254228 371.519108 
L 381.454249 371.519108 
L 381.552028 365.959107 
L 381.600917 366.014187 
L 381.894254 365.692169 
L 382.089811 366.112155 
L 382.18759 366.012391 
L 382.432037 364.530573 
L 382.578705 363.8799 
L 382.627594 364.057253 
L 382.725373 364.204939 
L 382.774262 364.141144 
L 382.872041 364.042016 
L 383.067598 364.151717 
L 383.263156 364.117711 
L 383.458713 364.322355 
L 383.556492 364.220519 
L 383.70316 364.091379 
L 383.898718 364.135436 
L 384.094275 363.87518 
L 384.48539 362.716563 
L 385.414288 361.380995 
L 385.463177 361.420139 
L 385.952071 361.168501 
L 386.685412 360.281818 
L 387.076527 360.428213 
L 387.223195 360.294047 
L 387.369863 360.311232 
L 387.809867 360.253214 
L 387.956535 360.113582 
L 389.423216 358.942983 
L 390.205446 358.564281 
L 393.432145 358.411978 
L 393.529923 361.518223 
L 393.578813 361.457427 
L 393.627702 361.398303 
L 393.77437 360.995 
L 393.872149 361.21221 
L 393.921038 361.108634 
L 393.969928 360.817692 
L 394.067707 360.884971 
L 394.263264 360.972656 
L 394.507711 360.827223 
L 394.60549 361.011332 
L 394.654379 360.978073 
L 394.801047 360.811986 
L 395.094383 360.041436 
L 395.681056 360.195205 
L 396.463286 359.786479 
L 396.854401 359.377316 
L 397.294405 358.790072 
L 397.734409 358.900565 
L 397.929967 358.968524 
L 398.516639 358.597295 
L 398.907754 358.677165 
L 400.081099 358.997633 
L 401.058886 358.946909 
L 401.401112 358.979332 
L 401.890006 359.116599 
L 402.378899 359.088778 
L 402.672236 359.013629 
L 403.014461 359.030438 
L 405.41004 359.030438 
L 405.507819 362.163418 
L 405.556708 362.143961 
L 405.850045 361.997054 
L 405.947823 361.896336 
L 406.094492 361.626365 
L 406.143381 361.647429 
L 406.290049 361.400738 
L 406.485606 361.139101 
L 406.730053 361.216568 
L 407.072279 360.953283 
L 407.218947 361.033899 
L 407.414504 360.905353 
L 407.610062 360.853851 
L 407.707841 360.754309 
L 408.001177 360.474367 
L 408.636739 359.917042 
L 409.076743 359.687045 
L 409.272301 359.614992 
L 409.761194 359.554469 
L 410.250088 359.346838 
L 410.934539 359.046299 
L 411.423433 358.680849 
L 411.66788 358.596946 
L 412.107884 358.641539 
L 412.890114 358.650321 
L 413.18345 358.632975 
L 413.574565 358.623555 
L 417.387936 358.638721 
L 417.534604 359.581687 
L 417.779051 359.601232 
L 418.316834 359.536176 
L 418.707949 359.305372 
L 419.050174 359.193161 
L 419.832404 358.862576 
L 420.125741 358.906127 
L 420.321298 358.767766 
L 420.663524 358.60927 
L 421.152417 358.439551 
L 421.641311 358.422391 
L 422.716877 358.219894 
L 422.961324 358.200742 
L 423.401328 358.109812 
L 423.939111 357.964482 
L 424.281337 357.85261 
L 425.356903 357.715442 
L 425.699129 357.652321 
L 427.361367 357.580365 
L 429.365832 357.580365 
L 429.5125 367.796834 
L 429.659168 367.710491 
L 430.881402 365.923576 
L 432.005857 365.071028 
L 433.130313 364.203171 
L 434.743662 363.317166 
L 435.183667 363.136704 
L 435.67256 362.999783 
L 436.210343 362.871021 
L 436.601458 362.780858 
L 437.677024 362.757281 
L 438.410365 362.784777 
L 444.717094 362.801311 
L 454.641636 362.77546 
L 455.032751 362.70963 
L 455.374976 362.609827 
L 455.961649 362.57208 
L 456.59721 362.545538 
L 457.037215 362.553398 
L 457.917223 362.598818 
L 458.308338 362.638595 
L 458.601675 362.666397 
L 459.286126 362.453555 
L 474.881835 362.320658 
L 477.277414 362.320658 
L 477.424082 362.474213 
L 478.157422 362.535776 
L 478.646316 362.630878 
L 478.988542 362.696287 
L 482.21524 362.774956 
L 485.979722 362.790071 
L 487.495292 362.79687 
L 502.015435 362.907944 
L 502.40655 362.902183 
L 502.797665 362.93135 
L 503.091001 362.938941 
L 505.339912 362.787669 
L 506.024363 362.723841 
L 506.708814 362.738843 
L 507.83327 362.781021 
L 509.055504 362.774446 
L 509.739955 362.791584 
L 511.353305 362.812043 
L 517.073361 362.923138 
L 524.797881 362.95478 
L 525.188996 362.95478 
L 525.335664 362.767631 
L 529.491261 362.801932 
L 537.166892 362.719424 
L 537.31356 363.190867 
L 537.802454 363.149699 
L 538.682462 363.019326 
L 552.81149 362.945793 
L 554.767065 362.959793 
L 559.753781 362.901574 
L 561.073794 362.901574 
L 561.220462 363.023115 
L 574.371702 363.073411 
L 575.251711 363.175453 
L 577.500622 363.292678 
L 577.598401 363.299291 
L 577.745069 362.771586 
L 577.842847 362.972969 
L 577.891737 363.169852 
L 578.038405 359.659153 
L 578.136184 354.413963 
L 578.185073 354.577841 
L 578.331741 351.920725 
L 578.38063 353.599774 
L 578.42952 352.909472 
L 578.527299 351.72412 
L 578.576188 352.378789 
L 578.673967 352.160999 
L 578.771745 351.570815 
L 578.918413 351.837965 
L 578.967303 351.739484 
L 579.016192 352.297302 
L 579.113971 348.702863 
L 579.16286 351.368786 
L 579.21175 349.906005 
L 579.309528 349.987762 
L 579.407307 348.953696 
L 579.553975 342.14546 
L 579.651754 342.286006 
L 579.749533 341.557867 
L 579.798422 343.180186 
L 579.847312 342.975422 
L 580.140648 338.553772 
L 580.189537 340.486564 
L 580.287316 336.543332 
L 580.336205 337.165188 
L 580.385095 337.090179 
L 580.531763 335.591644 
L 580.580652 335.588049 
L 580.72732 332.852141 
L 580.77621 333.920667 
L 580.825099 333.859335 
L 580.971767 333.590354 
L 581.020656 334.432774 
L 581.069546 334.168256 
L 581.118435 332.895043 
L 581.216214 333.228825 
L 581.265103 335.119308 
L 581.313993 334.717964 
L 581.411771 333.991028 
L 581.460661 334.134276 
L 581.558439 334.10658 
L 581.656218 335.150562 
L 581.851776 332.990616 
L 581.998444 331.625605 
L 582.047333 332.296143 
L 582.145112 333.084521 
L 582.29178 330.298525 
L 582.389559 330.063285 
L 582.536227 327.905012 
L 582.585116 328.104036 
L 582.634006 328.056479 
L 582.780674 327.182642 
L 582.927342 328.990787 
L 583.025121 327.867374 
L 583.171789 318.53789 
L 583.269567 319.056114 
L 583.465125 316.449944 
L 583.514014 316.385196 
L 583.660682 312.967273 
L 583.905129 320.361466 
L 584.051797 320.147378 
L 584.149576 320.087406 
L 584.198465 325.03068 
L 584.296244 324.862514 
L 584.491802 323.339985 
L 584.540691 323.184276 
L 584.687359 321.799023 
L 584.736248 321.765117 
L 584.785138 322.084438 
L 584.834027 323.845464 
L 584.882917 321.933154 
L 584.931806 323.759214 
L 585.029585 324.709823 
L 585.127363 323.301907 
L 585.225142 319.284835 
L 585.274032 320.37177 
L 585.322921 320.213814 
L 585.469589 319.309771 
L 585.567368 319.295759 
L 585.665147 319.496021 
L 585.714036 319.355551 
L 585.762925 318.5955 
L 585.909593 319.814237 
L 585.958483 319.96596 
L 586.007372 318.798251 
L 586.20293 325.708075 
L 586.398487 319.344253 
L 586.496266 318.987604 
L 586.691823 320.597818 
L 586.789602 320.866307 
L 586.887381 319.951379 
L 587.131828 326.567518 
L 587.229606 326.391805 
L 587.278496 328.32638 
L 587.376274 328.219599 
L 587.425164 328.025319 
L 587.474053 328.114229 
L 587.571832 328.534163 
L 587.767389 332.793641 
L 587.914058 331.522184 
L 587.962947 332.827087 
L 588.011836 331.233571 
L 588.060726 328.643416 
L 588.109615 329.322827 
L 588.207394 331.209127 
L 588.256283 330.774692 
L 588.305172 330.339539 
L 588.354062 330.377817 
L 588.549619 334.304837 
L 588.598509 333.670394 
L 588.647398 335.881882 
L 588.696287 335.788379 
L 588.794066 334.518091 
L 588.842956 334.6954 
L 588.989624 334.627717 
L 589.087402 335.924001 
L 589.136292 334.789926 
L 589.185181 334.915714 
L 589.331849 339.68504 
L 589.478517 335.081374 
L 589.527407 335.169509 
L 589.576296 335.303215 
L 589.722964 339.756178 
L 589.918522 337.053862 
L 590.162969 332.607353 
L 590.211858 332.302718 
L 590.309637 336.969682 
L 590.358526 341.640237 
L 590.407415 339.771222 
L 590.554083 336.67239 
L 590.602973 339.265403 
L 590.700752 333.825737 
L 590.749641 333.848304 
L 590.896309 331.15539 
L 590.945198 331.880733 
L 590.994088 331.766854 
L 591.091867 331.357305 
L 591.825207 341.30615 
L 591.874096 341.061117 
L 591.971875 337.482178 
L 592.020765 337.688443 
L 592.069654 341.85452 
L 592.118543 340.865525 
L 592.216322 339.457473 
L 592.265211 339.703171 
L 592.314101 339.823416 
L 592.460769 340.913142 
L 592.509658 340.916036 
L 592.558548 340.51392 
L 592.607437 341.480481 
L 592.656326 339.898147 
L 592.705216 341.028206 
L 592.900773 339.852468 
L 592.949663 339.95988 
L 592.998552 341.680651 
L 593.047441 341.303129 
L 593.242999 339.819324 
L 593.291888 340.713155 
L 593.340778 339.273945 
L 593.389667 340.004393 
L 593.438556 340.43738 
L 593.487446 342.789115 
L 593.536335 338.114205 
L 593.634114 338.395204 
L 593.683003 338.448061 
L 593.878561 336.945121 
L 593.92745 337.136387 
L 594.025229 337.048119 
L 594.074118 337.873154 
L 594.123007 337.864592 
L 594.171897 338.830666 
L 594.220786 338.087124 
L 596.909702 338.087124 
L 596.958591 361.363533 
L 597.05637 358.621624 
L 597.105259 357.046814 
L 597.154148 357.709319 
L 597.300817 362.424699 
L 597.447485 361.747584 
L 597.643042 359.68809 
L 597.691931 360.337671 
L 597.78971 360.45864 
L 597.985268 361.220275 
L 598.034157 361.875136 
L 598.083046 361.617221 
L 598.229715 360.754061 
L 598.620829 358.186358 
L 598.816387 358.929917 
L 598.865276 358.871935 
L 599.011944 357.956006 
L 599.060834 358.076341 
L 599.207502 358.319637 
L 599.305281 357.957005 
L 599.35417 357.985872 
L 599.500838 358.545421 
L 599.647506 358.656913 
L 599.696396 358.570074 
L 599.794174 358.811168 
L 599.843064 358.687709 
L 599.891953 358.72937 
L 599.940842 358.748175 
L 600.1364 358.47516 
L 600.185289 358.460299 
L 600.380847 358.909784 
L 600.527515 358.189834 
L 600.674183 357.876835 
L 601.016409 359.047893 
L 601.163077 359.047891 
L 601.358634 359.706224 
L 601.407524 359.615404 
L 601.456413 359.737905 
L 601.603081 359.809921 
L 601.847528 359.364652 
L 601.945307 359.588347 
L 602.385311 361.786877 
L 602.531979 361.867626 
L 602.580868 361.878902 
L 602.727537 361.62565 
L 602.923094 361.981184 
L 602.971983 362.006496 
L 603.069762 361.847505 
L 603.118652 361.934411 
L 603.411988 362.149885 
L 604.487554 363.785524 
L 604.585333 363.829151 
L 604.78089 363.961839 
L 604.927558 364.072923 
L 605.172005 364.452145 
L 605.269784 364.487859 
L 605.318673 364.549704 
L 605.367563 364.499948 
L 605.56312 364.514709 
L 605.856456 364.999151 
L 606.100903 365.628982 
L 606.149792 365.648497 
L 606.443129 366.357993 
L 606.687575 366.545636 
L 607.420916 367.133048 
L 607.469805 367.069853 
L 607.518695 367.036661 
L 607.665363 367.206801 
L 607.812031 367.245997 
L 608.056478 367.637068 
L 608.349814 367.641875 
L 609.034265 368.821677 
L 609.180933 368.853019 
L 609.42538 369.159483 
L 609.572048 369.288819 
L 610.109831 369.710637 
L 610.452057 369.909249 
L 610.598725 370.180901 
L 610.745393 370.028137 
L 611.185398 370.544908 
L 611.234287 370.501145 
L 611.332066 370.650005 
L 611.380955 370.609042 
L 611.576512 370.512197 
L 611.674291 370.561865 
L 611.77207 370.461411 
L 611.820959 370.525055 
L 611.918738 370.7048 
L 611.967627 370.660772 
L 612.114296 370.648928 
L 612.260964 370.673936 
L 612.50541 370.604573 
L 612.749857 370.53583 
L 612.994304 370.264786 
L 613.28764 370.175145 
L 613.532087 370.008597 
L 613.678755 370.020635 
L 614.020981 369.655434 
L 614.216538 369.291343 
L 614.460985 369.118041 
L 614.607653 369.096913 
L 615.096547 369.057378 
L 615.878777 368.794221 
L 616.221003 369.116614 
L 616.465449 368.988814 
L 616.612118 368.98297 
L 616.856564 368.799827 
L 617.052122 368.759521 
L 617.247679 368.677616 
L 617.345458 368.477156 
L 617.394347 368.521783 
L 618.323245 368.117829 
L 618.469914 368.152472 
L 621.10994 368.152472 
L 621.158829 363.805274 
L 621.256608 364.281652 
L 621.305497 364.203756 
L 621.354386 364.343024 
L 621.403276 364.215552 
L 621.452165 363.749912 
L 621.549944 363.865253 
L 621.696612 364.852275 
L 621.745501 364.795279 
L 621.84328 364.528514 
L 622.087727 361.471227 
L 622.234395 360.302311 
L 622.381063 361.124516 
L 622.429953 361.094632 
L 622.478842 360.90417 
L 622.527731 360.923951 
L 622.723289 361.182697 
L 622.821068 360.983032 
L 622.869957 361.125115 
L 622.918846 361.163928 
L 623.114404 361.56747 
L 623.163293 361.547657 
L 623.358851 361.152291 
L 623.456629 361.224308 
L 623.749966 360.668624 
L 624.14108 358.711365 
L 625.069979 356.668479 
L 625.216647 356.767076 
L 625.509983 356.602166 
L 626.194434 355.260005 
L 626.48777 355.412061 
L 626.634438 355.507743 
L 626.781106 355.498068 
L 626.927775 355.267484 
L 627.123332 355.438161 
L 627.416668 355.466033 
L 628.932239 353.963767 
L 629.225575 353.853801 
L 629.861137 353.591586 
L 630.301141 353.540988 
L 630.936703 353.512774 
L 633.087835 353.512774 
L 633.136725 360.45475 
L 633.234503 360.147659 
L 633.674508 357.948374 
L 633.772286 357.970022 
L 633.918954 357.889037 
L 634.163401 357.590933 
L 634.26118 357.749433 
L 634.310069 357.697122 
L 634.456738 357.480403 
L 634.750074 356.631672 
L 635.336746 356.718042 
L 636.167865 356.247892 
L 637.047874 355.346192 
L 637.683436 355.390166 
L 638.025661 355.164061 
L 638.612334 355.213754 
L 638.807891 355.312297 
L 639.296785 355.513635 
L 640.127904 355.542619 
L 641.154581 355.512123 
L 642.279037 355.548815 
L 644.234611 355.558408 
L 645.065731 355.558408 
L 645.163509 356.985919 
L 645.212399 356.949193 
L 645.407956 356.902871 
L 645.603514 356.89827 
L 645.750182 356.673484 
L 645.847961 356.712278 
L 646.092407 356.344583 
L 646.483522 356.558738 
L 646.727969 356.520157 
L 646.923527 356.653148 
L 647.41242 356.559112 
L 647.607978 356.427775 
L 647.754646 356.350276 
L 648.047982 356.128949 
L 649.221327 355.887386 
L 649.563553 355.860429 
L 651.030234 355.442059 
L 651.372459 355.374899 
L 653.425813 355.618364 
L 653.768039 355.59506 
L 654.843605 355.697868 
L 657.043626 355.697868 
L 657.190294 356.099528 
L 657.776967 356.352266 
L 658.31475 356.148697 
L 658.656976 356.155592 
L 658.901422 356.100374 
L 659.683652 355.973979 
L 659.87921 355.95545 
L 660.221435 355.721562 
L 660.563661 355.614492 
L 661.101444 355.577337 
L 661.39478 355.573815 
L 661.688116 355.469938 
L 664.230364 355.047371 
L 664.5237 354.922082 
L 669.021522 354.909919 
L 669.16819 365.049078 
L 669.314858 364.959274 
L 670.145977 363.867907 
L 671.905995 362.695766 
L 672.052663 362.624551 
L 672.492667 362.328565 
L 672.883782 362.143935 
L 673.323786 361.933991 
L 673.714901 361.865392 
L 675.181582 361.318204 
L 677.332715 361.319318 
L 678.017166 361.426473 
L 679.874962 361.452593 
L 681.292754 361.563428 
L 691.608411 361.562375 
L 692.977313 361.562375 
L 693.026202 361.794528 
L 693.123981 361.749831 
L 695.666228 361.288687 
L 705.346324 361.39949 
L 705.884107 361.399571 
L 712.533061 361.418107 
L 716.933104 361.420585 
L 717.079772 361.698957 
L 717.862002 361.76777 
L 718.253117 361.836931 
L 718.546453 361.847026 
L 718.888679 361.850523 
L 719.328683 361.850892 
L 720.159803 361.875803 
L 721.577594 361.913693 
L 723.337612 361.858717 
L 727.34654 361.87187 
L 735.608843 361.982968 
L 745.093381 361.917756 
L 746.071169 361.871274 
L 746.804509 361.901763 
L 747.342292 361.914303 
L 748.417858 361.983723 
L 752.866791 361.9717 
L 753.013459 362.116303 
L 757.315724 362.117018 
L 759.711303 362.11728 
L 763.720231 362.148886 
L 764.844687 362.148886 
L 764.991355 361.839572 
L 768.902504 361.856393 
L 771.346973 361.786683 
L 776.529246 361.712503 
L 776.822582 361.712503 
L 776.96925 362.699886 
L 777.458144 362.684355 
L 778.338153 362.58596 
L 784.595992 362.636766 
L 786.991571 362.655445 
L 790.071601 362.548311 
L 790.804942 362.515789 
L 793.396078 362.502037 
L 814.516286 362.580559 
L 815.249627 362.611045 
L 817.254091 362.738211 
L 817.254091 362.738211 
" clip-path="url(#p044764d2fa)" style="fill: none; stroke-dasharray: 5.55,2.4; stroke-dashoffset: 0; stroke: #ff0000; stroke-width: 1.5"/>
   </g>
   <g id="line2d_61">
    <path d="M 337.991599 534.04 
L 337.991599 302.44 
" clip-path="url(#p044764d2fa)" style="fill: none; stroke-dasharray: 1.5,2.475; stroke-dashoffset: 0; stroke: #808080; stroke-opacity: 0.6; stroke-width: 1.5"/>
   </g>
   <g id="line2d_62">
    <path d="M 577.64729 534.04 
L 577.64729 302.44 
" clip-path="url(#p044764d2fa)" style="fill: none; stroke-dasharray: 1.5,2.475; stroke-dashoffset: 0; stroke: #808080; stroke-opacity: 0.6; stroke-width: 1.5"/>
   </g>
   <g id="patch_9">
    <path d="M 62.39 534.04 
L 62.39 302.44 
" style="fill: none; stroke: #000000; stroke-width: 0.8; stroke-linejoin: miter; stroke-linecap: square"/>
   </g>
   <g id="patch_10">
    <path d="M 853.2 534.04 
L 853.2 302.44 
" style="fill: none; stroke: #000000; stroke-width: 0.8; stroke-linejoin: miter; stroke-linecap: square"/>
   </g>
   <g id="patch_11">
    <path d="M 62.39 534.04 
L 853.2 534.04 
" style="fill: none; stroke: #000000; stroke-width: 0.8; stroke-linejoin: miter; stroke-linecap: square"/>
   </g>
   <g id="patch_12">
    <path d="M 62.39 302.44 
L 853.2 302.44 
" style="fill: none; stroke: #000000; stroke-width: 0.8; stroke-linejoin: miter; stroke-linecap: square"/>
   </g>
   <g id="text_33">
    <!-- [32] rx_z  —  State Estimate -->
    <g transform="translate(373.644063 296.44) scale(0.12 -0.12)">
     <use xlink:href="#DejaVuSans-5b"/>
     <use xlink:href="#DejaVuSans-33" transform="translate(39.013672 0)"/>
     <use xlink:href="#DejaVuSans-32" transform="translate(102.636719 0)"/>
     <use xlink:href="#DejaVuSans-5d" transform="translate(166.259766 0)"/>
     <use xlink:href="#DejaVuSans-20" transform="translate(205.273438 0)"/>
     <use xlink:href="#DejaVuSans-72" transform="translate(237.060547 0)"/>
     <use xlink:href="#DejaVuSans-78" transform="translate(275.548828 0)"/>
     <use xlink:href="#DejaVuSans-5f" transform="translate(334.728516 0)"/>
     <use xlink:href="#DejaVuSans-7a" transform="translate(384.728516 0)"/>
     <use xlink:href="#DejaVuSans-20" transform="translate(437.21875 0)"/>
     <use xlink:href="#DejaVuSans-20" transform="translate(469.005859 0)"/>
     <use xlink:href="#DejaVuSans-2014" transform="translate(500.792969 0)"/>
     <use xlink:href="#DejaVuSans-20" transform="translate(600.792969 0)"/>
     <use xlink:href="#DejaVuSans-20" transform="translate(632.580078 0)"/>
     <use xlink:href="#DejaVuSans-53" transform="translate(664.367188 0)"/>
     <use xlink:href="#DejaVuSans-74" transform="translate(727.84375 0)"/>
     <use xlink:href="#DejaVuSans-61" transform="translate(767.052734 0)"/>
     <use xlink:href="#DejaVuSans-74" transform="translate(828.332031 0)"/>
     <use xlink:href="#DejaVuSans-65" transform="translate(867.541016 0)"/>
     <use xlink:href="#DejaVuSans-20" transform="translate(929.064453 0)"/>
     <use xlink:href="#DejaVuSans-45" transform="translate(960.851562 0)"/>
     <use xlink:href="#DejaVuSans-73" transform="translate(1024.035156 0)"/>
     <use xlink:href="#DejaVuSans-74" transform="translate(1076.134766 0)"/>
     <use xlink:href="#DejaVuSans-69" transform="translate(1115.34375 0)"/>
     <use xlink:href="#DejaVuSans-6d" transform="translate(1143.126953 0)"/>
     <use xlink:href="#DejaVuSans-61" transform="translate(1240.539062 0)"/>
     <use xlink:href="#DejaVuSans-74" transform="translate(1301.818359 0)"/>
     <use xlink:href="#DejaVuSans-65" transform="translate(1341.027344 0)"/>
    </g>
   </g>
   <g id="legend_2">
    <g id="patch_13">
     <path d="M 734.342188 339.79625 
L 846.2 339.79625 
Q 848.2 339.79625 848.2 337.79625 
L 848.2 309.44 
Q 848.2 307.44 846.2 307.44 
L 734.342188 307.44 
Q 732.342188 307.44 732.342188 309.44 
L 732.342188 337.79625 
Q 732.342188 339.79625 734.342188 339.79625 
z
" style="fill: #ffffff; opacity: 0.8; stroke: #cccccc; stroke-linejoin: miter"/>
    </g>
    <g id="line2d_63">
     <path d="M 736.342188 315.538437 
L 746.342188 315.538437 
L 756.342188 315.538437 
" style="fill: none; stroke: #0000ff; stroke-width: 1.5; stroke-linecap: square"/>
    </g>
    <g id="text_34">
     <!-- Ideal (No Noise) -->
     <g transform="translate(764.342188 319.038437) scale(0.1 -0.1)">
      <use xlink:href="#DejaVuSans-49"/>
      <use xlink:href="#DejaVuSans-64" transform="translate(29.492188 0)"/>
      <use xlink:href="#DejaVuSans-65" transform="translate(92.96875 0)"/>
      <use xlink:href="#DejaVuSans-61" transform="translate(154.492188 0)"/>
      <use xlink:href="#DejaVuSans-6c" transform="translate(215.771484 0)"/>
      <use xlink:href="#DejaVuSans-20" transform="translate(243.554688 0)"/>
      <use xlink:href="#DejaVuSans-28" transform="translate(275.341797 0)"/>
      <use xlink:href="#DejaVuSans-4e" transform="translate(314.355469 0)"/>
      <use xlink:href="#DejaVuSans-6f" transform="translate(389.160156 0)"/>
      <use xlink:href="#DejaVuSans-20" transform="translate(450.341797 0)"/>
      <use xlink:href="#DejaVuSans-4e" transform="translate(482.128906 0)"/>
      <use xlink:href="#DejaVuSans-6f" transform="translate(556.933594 0)"/>
      <use xlink:href="#DejaVuSans-69" transform="translate(618.115234 0)"/>
      <use xlink:href="#DejaVuSans-73" transform="translate(645.898438 0)"/>
      <use xlink:href="#DejaVuSans-65" transform="translate(697.998047 0)"/>
      <use xlink:href="#DejaVuSans-29" transform="translate(759.521484 0)"/>
     </g>
    </g>
    <g id="line2d_64">
     <path d="M 736.342188 330.216562 
L 746.342188 330.216562 
L 756.342188 330.216562 
" style="fill: none; stroke-dasharray: 5.55,2.4; stroke-dashoffset: 0; stroke: #ff0000; stroke-width: 1.5"/>
    </g>
    <g id="text_35">
     <!-- With Full Noise -->
     <g transform="translate(764.342188 333.716562) scale(0.1 -0.1)">
      <use xlink:href="#DejaVuSans-57"/>
      <use xlink:href="#DejaVuSans-69" transform="translate(96.626953 0)"/>
      <use xlink:href="#DejaVuSans-74" transform="translate(124.410156 0)"/>
      <use xlink:href="#DejaVuSans-68" transform="translate(163.619141 0)"/>
      <use xlink:href="#DejaVuSans-20" transform="translate(226.998047 0)"/>
      <use xlink:href="#DejaVuSans-46" transform="translate(258.785156 0)"/>
      <use xlink:href="#DejaVuSans-75" transform="translate(310.804688 0)"/>
      <use xlink:href="#DejaVuSans-6c" transform="translate(374.183594 0)"/>
      <use xlink:href="#DejaVuSans-6c" transform="translate(401.966797 0)"/>
      <use xlink:href="#DejaVuSans-20" transform="translate(429.75 0)"/>
      <use xlink:href="#DejaVuSans-4e" transform="translate(461.537109 0)"/>
      <use xlink:href="#DejaVuSans-6f" transform="translate(536.341797 0)"/>
      <use xlink:href="#DejaVuSans-69" transform="translate(597.523438 0)"/>
      <use xlink:href="#DejaVuSans-73" transform="translate(625.306641 0)"/>
      <use xlink:href="#DejaVuSans-65" transform="translate(677.40625 0)"/>
     </g>
    </g>
   </g>
  </g>
 </g>
 <defs>
  <clipPath id="p4c7a8e51bf">
   <rect x="62.39" y="26.88" width="790.81" height="231.6"/>
  </clipPath>
  <clipPath id="p044764d2fa">
   <rect x="62.39" y="302.44" width="790.81" height="231.6"/>
  </clipPath>
 </defs>
</svg>
