<?xml version="1.0" encoding="utf-8" standalone="no"?>
<!DOCTYPE svg PUBLIC "-//W3C//DTD SVG 1.1//EN"
  "http://www.w3.org/Graphics/SVG/1.1/DTD/svg11.dtd">
<svg xmlns:xlink="http://www.w3.org/1999/xlink" width="864pt" height="576pt" viewBox="0 0 864 576" xmlns="http://www.w3.org/2000/svg" version="1.1">
 <metadata>
  <rdf:RDF xmlns:dc="http://purl.org/dc/elements/1.1/" xmlns:cc="http://creativecommons.org/ns#" xmlns:rdf="http://www.w3.org/1999/02/22-rdf-syntax-ns#">
   <cc:Work>
    <dc:type rdf:resource="http://purl.org/dc/dcmitype/StillImage"/>
    <dc:date>2026-03-03T11:38:13.564548</dc:date>
    <dc:format>image/svg+xml</dc:format>
    <dc:creator>
     <cc:Agent>
      <dc:title>Matplotlib v3.10.8, https://matplotlib.org/</dc:title>
     </cc:Agent>
    </dc:creator>
   </cc:Work>
  </rdf:RDF>
 </metadata>
 <defs>
  <style type="text/css">*{stroke-linejoin: round; stroke-linecap: butt}</style>
 </defs>
 <g id="figure_1">
  <g id="patch_1">
   <path d="M 0 576 
L 864 576 
L 864 0 
L 0 0 
z
" style="fill: #ffffff"/>
  </g>
  <g id="axes_1">
   <g id="patch_2">
    <path d="M 68.69 258.48 
L 853.2 258.48 
L 853.2 26.88 
L 68.69 26.88 
z
" style="fill: #ffffff"/>
   </g>
   <g id="matplotlib.axis_1">
    <g id="xtick_1">
     <g id="line2d_1">
      <path d="M 104.349545 258.48 
L 104.349545 26.88 
" clip-path="url(#pa636876bc3)" style="fill: none; stroke: #b0b0b0; stroke-width: 0.8; stroke-linecap: square"/>
     </g>
     <g id="line2d_2">
      <defs>
       <path id="mdd029c8873" d="M 0 0 
L 0 3.5 
" style="stroke: #000000; stroke-width: 0.8"/>
      </defs>
      <g>
       <use xlink:href="#mdd029c8873" x="104.349545" y="258.48" style="stroke: #000000; stroke-width: 0.8"/>
      </g>
     </g>
     <g id="text_1">
      <!-- 0 -->
      <g transform="translate(101.168295 273.078438) scale(0.1 -0.1)">
       <defs>
        <path id="DejaVuSans-30" d="M 2034 4250 
Q 1547 4250 1301 3770 
Q 1056 3291 1056 2328 
Q 1056 1369 1301 889 
Q 1547 409 2034 409 
Q 2525 409 2770 889 
Q 3016 1369 3016 2328 
Q 3016 3291 2770 3770 
Q 2525 4250 2034 4250 
z
M 2034 4750 
Q 2819 4750 3233 4129 
Q 3647 3509 3647 2328 
Q 3647 1150 3233 529 
Q 2819 -91 2034 -91 
Q 1250 -91 836 529 
Q 422 1150 422 2328 
Q 422 3509 836 4129 
Q 1250 4750 2034 4750 
z
" transform="scale(0.015625)"/>
       </defs>
       <use xlink:href="#DejaVuSans-30"/>
      </g>
     </g>
    </g>
    <g id="xtick_2">
     <g id="line2d_3">
      <path d="M 225.599275 258.48 
L 225.599275 26.88 
" clip-path="url(#pa636876bc3)" style="fill: none; stroke: #b0b0b0; stroke-width: 0.8; stroke-linecap: square"/>
     </g>
     <g id="line2d_4">
      <g>
       <use xlink:href="#mdd029c8873" x="225.599275" y="258.48" style="stroke: #000000; stroke-width: 0.8"/>
      </g>
     </g>
     <g id="text_2">
      <!-- 50 -->
      <g transform="translate(219.236775 273.078438) scale(0.1 -0.1)">
       <defs>
        <path id="DejaVuSans-35" d="M 691 4666 
L 3169 4666 
L 3169 4134 
L 1269 4134 
L 1269 2991 
Q 1406 3038 1543 3061 
Q 1681 3084 1819 3084 
Q 2600 3084 3056 2656 
Q 3513 2228 3513 1497 
Q 3513 744 3044 326 
Q 2575 -91 1722 -91 
Q 1428 -91 1123 -41 
Q 819 9 494 109 
L 494 744 
Q 775 591 1075 516 
Q 1375 441 1709 441 
Q 2250 441 2565 725 
Q 2881 1009 2881 1497 
Q 2881 1984 2565 2268 
Q 2250 2553 1709 2553 
Q 1456 2553 1204 2497 
Q 953 2441 691 2322 
L 691 4666 
z
" transform="scale(0.015625)"/>
       </defs>
       <use xlink:href="#DejaVuSans-35"/>
       <use xlink:href="#DejaVuSans-30" transform="translate(63.623047 0)"/>
      </g>
     </g>
    </g>
    <g id="xtick_3">
     <g id="line2d_5">
      <path d="M 346.849005 258.48 
L 346.849005 26.88 
" clip-path="url(#pa636876bc3)" style="fill: none; stroke: #b0b0b0; stroke-width: 0.8; stroke-linecap: square"/>
     </g>
     <g id="line2d_6">
      <g>
       <use xlink:href="#mdd029c8873" x="346.849005" y="258.48" style="stroke: #000000; stroke-width: 0.8"/>
      </g>
     </g>
     <g id="text_3">
      <!-- 100 -->
      <g transform="translate(337.305255 273.078438) scale(0.1 -0.1)">
       <defs>
        <path id="DejaVuSans-31" d="M 794 531 
L 1825 531 
L 1825 4091 
L 703 3866 
L 703 4441 
L 1819 4666 
L 2450 4666 
L 2450 531 
L 3481 531 
L 3481 0 
L 794 0 
L 794 531 
z
" transform="scale(0.015625)"/>
       </defs>
       <use xlink:href="#DejaVuSans-31"/>
       <use xlink:href="#DejaVuSans-30" transform="translate(63.623047 0)"/>
       <use xlink:href="#DejaVuSans-30" transform="translate(127.246094 0)"/>
      </g>
     </g>
    </g>
    <g id="xtick_4">
     <g id="line2d_7">
      <path d="M 468.098734 258.48 
L 468.098734 26.88 
" clip-path="url(#pa636876bc3)" style="fill: none; stroke: #b0b0b0; stroke-width: 0.8; stroke-linecap: square"/>
     </g>
     <g id="line2d_8">
      <g>
       <use xlink:href="#mdd029c8873" x="468.098734" y="258.48" style="stroke: #000000; stroke-width: 0.8"/>
      </g>
     </g>
     <g id="text_4">
      <!-- 150 -->
      <g transform="translate(458.554984 273.078438) scale(0.1 -0.1)">
       <use xlink:href="#DejaVuSans-31"/>
       <use xlink:href="#DejaVuSans-35" transform="translate(63.623047 0)"/>
       <use xlink:href="#DejaVuSans-30" transform="translate(127.246094 0)"/>
      </g>
     </g>
    </g>
    <g id="xtick_5">
     <g id="line2d_9">
      <path d="M 589.348464 258.48 
L 589.348464 26.88 
" clip-path="url(#pa636876bc3)" style="fill: none; stroke: #b0b0b0; stroke-width: 0.8; stroke-linecap: square"/>
     </g>
     <g id="line2d_10">
      <g>
       <use xlink:href="#mdd029c8873" x="589.348464" y="258.48" style="stroke: #000000; stroke-width: 0.8"/>
      </g>
     </g>
     <g id="text_5">
      <!-- 200 -->
      <g transform="translate(579.804714 273.078438) scale(0.1 -0.1)">
       <defs>
        <path id="DejaVuSans-32" d="M 1228 531 
L 3431 531 
L 3431 0 
L 469 0 
L 469 531 
Q 828 903 1448 1529 
Q 2069 2156 2228 2338 
Q 2531 2678 2651 2914 
Q 2772 3150 2772 3378 
Q 2772 3750 2511 3984 
Q 2250 4219 1831 4219 
Q 1534 4219 1204 4116 
Q 875 4013 500 3803 
L 500 4441 
Q 881 4594 1212 4672 
Q 1544 4750 1819 4750 
Q 2544 4750 2975 4387 
Q 3406 4025 3406 3419 
Q 3406 3131 3298 2873 
Q 3191 2616 2906 2266 
Q 2828 2175 2409 1742 
Q 1991 1309 1228 531 
z
" transform="scale(0.015625)"/>
       </defs>
       <use xlink:href="#DejaVuSans-32"/>
       <use xlink:href="#DejaVuSans-30" transform="translate(63.623047 0)"/>
       <use xlink:href="#DejaVuSans-30" transform="translate(127.246094 0)"/>
      </g>
     </g>
    </g>
    <g id="xtick_6">
     <g id="line2d_11">
      <path d="M 710.598193 258.48 
L 710.598193 26.88 
" clip-path="url(#pa636876bc3)" style="fill: none; stroke: #b0b0b0; stroke-width: 0.8; stroke-linecap: square"/>
     </g>
     <g id="line2d_12">
      <g>
       <use xlink:href="#mdd029c8873" x="710.598193" y="258.48" style="stroke: #000000; stroke-width: 0.8"/>
      </g>
     </g>
     <g id="text_6">
      <!-- 250 -->
      <g transform="translate(701.054443 273.078438) scale(0.1 -0.1)">
       <use xlink:href="#DejaVuSans-32"/>
       <use xlink:href="#DejaVuSans-35" transform="translate(63.623047 0)"/>
       <use xlink:href="#DejaVuSans-30" transform="translate(127.246094 0)"/>
      </g>
     </g>
    </g>
    <g id="xtick_7">
     <g id="line2d_13">
      <path d="M 831.847923 258.48 
L 831.847923 26.88 
" clip-path="url(#pa636876bc3)" style="fill: none; stroke: #b0b0b0; stroke-width: 0.8; stroke-linecap: square"/>
     </g>
     <g id="line2d_14">
      <g>
       <use xlink:href="#mdd029c8873" x="831.847923" y="258.48" style="stroke: #000000; stroke-width: 0.8"/>
      </g>
     </g>
     <g id="text_7">
      <!-- 300 -->
      <g transform="translate(822.304173 273.078438) scale(0.1 -0.1)">
       <defs>
        <path id="DejaVuSans-33" d="M 2597 2516 
Q 3050 2419 3304 2112 
Q 3559 1806 3559 1356 
Q 3559 666 3084 287 
Q 2609 -91 1734 -91 
Q 1441 -91 1130 -33 
Q 819 25 488 141 
L 488 750 
Q 750 597 1062 519 
Q 1375 441 1716 441 
Q 2309 441 2620 675 
Q 2931 909 2931 1356 
Q 2931 1769 2642 2001 
Q 2353 2234 1838 2234 
L 1294 2234 
L 1294 2753 
L 1863 2753 
Q 2328 2753 2575 2939 
Q 2822 3125 2822 3475 
Q 2822 3834 2567 4026 
Q 2313 4219 1838 4219 
Q 1578 4219 1281 4162 
Q 984 4106 628 3988 
L 628 4550 
Q 988 4650 1302 4700 
Q 1616 4750 1894 4750 
Q 2613 4750 3031 4423 
Q 3450 4097 3450 3541 
Q 3450 3153 3228 2886 
Q 3006 2619 2597 2516 
z
" transform="scale(0.015625)"/>
       </defs>
       <use xlink:href="#DejaVuSans-33"/>
       <use xlink:href="#DejaVuSans-30" transform="translate(63.623047 0)"/>
       <use xlink:href="#DejaVuSans-30" transform="translate(127.246094 0)"/>
      </g>
     </g>
    </g>
   </g>
   <g id="matplotlib.axis_2">
    <g id="ytick_1">
     <g id="line2d_15">
      <path d="M 68.69 249.255564 
L 853.2 249.255564 
" clip-path="url(#pa636876bc3)" style="fill: none; stroke: #b0b0b0; stroke-width: 0.8; stroke-linecap: square"/>
     </g>
     <g id="line2d_16">
      <defs>
       <path id="m9908d6df71" d="M 0 0 
L -3.5 0 
" style="stroke: #000000; stroke-width: 0.8"/>
      </defs>
      <g>
       <use xlink:href="#m9908d6df71" x="68.69" y="249.255564" style="stroke: #000000; stroke-width: 0.8"/>
      </g>
     </g>
     <g id="text_8">
      <!-- 0.0 -->
      <g transform="translate(45.786875 253.054782) scale(0.1 -0.1)">
       <defs>
        <path id="DejaVuSans-2e" d="M 684 794 
L 1344 794 
L 1344 0 
L 684 0 
L 684 794 
z
" transform="scale(0.015625)"/>
       </defs>
       <use xlink:href="#DejaVuSans-30"/>
       <use xlink:href="#DejaVuSans-2e" transform="translate(63.623047 0)"/>
       <use xlink:href="#DejaVuSans-30" transform="translate(95.410156 0)"/>
      </g>
     </g>
    </g>
    <g id="ytick_2">
     <g id="line2d_17">
      <path d="M 68.69 206.885906 
L 853.2 206.885906 
" clip-path="url(#pa636876bc3)" style="fill: none; stroke: #b0b0b0; stroke-width: 0.8; stroke-linecap: square"/>
     </g>
     <g id="line2d_18">
      <g>
       <use xlink:href="#m9908d6df71" x="68.69" y="206.885906" style="stroke: #000000; stroke-width: 0.8"/>
      </g>
     </g>
     <g id="text_9">
      <!-- 0.2 -->
      <g transform="translate(45.786875 210.685124) scale(0.1 -0.1)">
       <use xlink:href="#DejaVuSans-30"/>
       <use xlink:href="#DejaVuSans-2e" transform="translate(63.623047 0)"/>
       <use xlink:href="#DejaVuSans-32" transform="translate(95.410156 0)"/>
      </g>
     </g>
    </g>
    <g id="ytick_3">
     <g id="line2d_19">
      <path d="M 68.69 164.516247 
L 853.2 164.516247 
" clip-path="url(#pa636876bc3)" style="fill: none; stroke: #b0b0b0; stroke-width: 0.8; stroke-linecap: square"/>
     </g>
     <g id="line2d_20">
      <g>
       <use xlink:href="#m9908d6df71" x="68.69" y="164.516247" style="stroke: #000000; stroke-width: 0.8"/>
      </g>
     </g>
     <g id="text_10">
      <!-- 0.4 -->
      <g transform="translate(45.786875 168.315466) scale(0.1 -0.1)">
       <defs>
        <path id="DejaVuSans-34" d="M 2419 4116 
L 825 1625 
L 2419 1625 
L 2419 4116 
z
M 2253 4666 
L 3047 4666 
L 3047 1625 
L 3713 1625 
L 3713 1100 
L 3047 1100 
L 3047 0 
L 2419 0 
L 2419 1100 
L 313 1100 
L 313 1709 
L 2253 4666 
z
" transform="scale(0.015625)"/>
       </defs>
       <use xlink:href="#DejaVuSans-30"/>
       <use xlink:href="#DejaVuSans-2e" transform="translate(63.623047 0)"/>
       <use xlink:href="#DejaVuSans-34" transform="translate(95.410156 0)"/>
      </g>
     </g>
    </g>
    <g id="ytick_4">
     <g id="line2d_21">
      <path d="M 68.69 122.146589 
L 853.2 122.146589 
" clip-path="url(#pa636876bc3)" style="fill: none; stroke: #b0b0b0; stroke-width: 0.8; stroke-linecap: square"/>
     </g>
     <g id="line2d_22">
      <g>
       <use xlink:href="#m9908d6df71" x="68.69" y="122.146589" style="stroke: #000000; stroke-width: 0.8"/>
      </g>
     </g>
     <g id="text_11">
      <!-- 0.6 -->
      <g transform="translate(45.786875 125.945808) scale(0.1 -0.1)">
       <defs>
        <path id="DejaVuSans-36" d="M 2113 2584 
Q 1688 2584 1439 2293 
Q 1191 2003 1191 1497 
Q 1191 994 1439 701 
Q 1688 409 2113 409 
Q 2538 409 2786 701 
Q 3034 994 3034 1497 
Q 3034 2003 2786 2293 
Q 2538 2584 2113 2584 
z
M 3366 4563 
L 3366 3988 
Q 3128 4100 2886 4159 
Q 2644 4219 2406 4219 
Q 1781 4219 1451 3797 
Q 1122 3375 1075 2522 
Q 1259 2794 1537 2939 
Q 1816 3084 2150 3084 
Q 2853 3084 3261 2657 
Q 3669 2231 3669 1497 
Q 3669 778 3244 343 
Q 2819 -91 2113 -91 
Q 1303 -91 875 529 
Q 447 1150 447 2328 
Q 447 3434 972 4092 
Q 1497 4750 2381 4750 
Q 2619 4750 2861 4703 
Q 3103 4656 3366 4563 
z
" transform="scale(0.015625)"/>
       </defs>
       <use xlink:href="#DejaVuSans-30"/>
       <use xlink:href="#DejaVuSans-2e" transform="translate(63.623047 0)"/>
       <use xlink:href="#DejaVuSans-36" transform="translate(95.410156 0)"/>
      </g>
     </g>
    </g>
    <g id="ytick_5">
     <g id="line2d_23">
      <path d="M 68.69 79.776931 
L 853.2 79.776931 
" clip-path="url(#pa636876bc3)" style="fill: none; stroke: #b0b0b0; stroke-width: 0.8; stroke-linecap: square"/>
     </g>
     <g id="line2d_24">
      <g>
       <use xlink:href="#m9908d6df71" x="68.69" y="79.776931" style="stroke: #000000; stroke-width: 0.8"/>
      </g>
     </g>
     <g id="text_12">
      <!-- 0.8 -->
      <g transform="translate(45.786875 83.57615) scale(0.1 -0.1)">
       <defs>
        <path id="DejaVuSans-38" d="M 2034 2216 
Q 1584 2216 1326 1975 
Q 1069 1734 1069 1313 
Q 1069 891 1326 650 
Q 1584 409 2034 409 
Q 2484 409 2743 651 
Q 3003 894 3003 1313 
Q 3003 1734 2745 1975 
Q 2488 2216 2034 2216 
z
M 1403 2484 
Q 997 2584 770 2862 
Q 544 3141 544 3541 
Q 544 4100 942 4425 
Q 1341 4750 2034 4750 
Q 2731 4750 3128 4425 
Q 3525 4100 3525 3541 
Q 3525 3141 3298 2862 
Q 3072 2584 2669 2484 
Q 3125 2378 3379 2068 
Q 3634 1759 3634 1313 
Q 3634 634 3220 271 
Q 2806 -91 2034 -91 
Q 1263 -91 848 271 
Q 434 634 434 1313 
Q 434 1759 690 2068 
Q 947 2378 1403 2484 
z
M 1172 3481 
Q 1172 3119 1398 2916 
Q 1625 2713 2034 2713 
Q 2441 2713 2670 2916 
Q 2900 3119 2900 3481 
Q 2900 3844 2670 4047 
Q 2441 4250 2034 4250 
Q 1625 4250 1398 4047 
Q 1172 3844 1172 3481 
z
" transform="scale(0.015625)"/>
       </defs>
       <use xlink:href="#DejaVuSans-30"/>
       <use xlink:href="#DejaVuSans-2e" transform="translate(63.623047 0)"/>
       <use xlink:href="#DejaVuSans-38" transform="translate(95.410156 0)"/>
      </g>
     </g>
    </g>
    <g id="ytick_6">
     <g id="line2d_25">
      <path d="M 68.69 37.407273 
L 853.2 37.407273 
" clip-path="url(#pa636876bc3)" style="fill: none; stroke: #b0b0b0; stroke-width: 0.8; stroke-linecap: square"/>
     </g>
     <g id="line2d_26">
      <g>
       <use xlink:href="#m9908d6df71" x="68.69" y="37.407273" style="stroke: #000000; stroke-width: 0.8"/>
      </g>
     </g>
     <g id="text_13">
      <!-- 1.0 -->
      <g transform="translate(45.786875 41.206491) scale(0.1 -0.1)">
       <use xlink:href="#DejaVuSans-31"/>
       <use xlink:href="#DejaVuSans-2e" transform="translate(63.623047 0)"/>
       <use xlink:href="#DejaVuSans-30" transform="translate(95.410156 0)"/>
      </g>
     </g>
    </g>
    <g id="text_14">
     <!-- Std Dev -->
     <g transform="translate(39.707187 162.463594) rotate(-90) scale(0.1 -0.1)">
      <defs>
       <path id="DejaVuSans-53" d="M 3425 4513 
L 3425 3897 
Q 3066 4069 2747 4153 
Q 2428 4238 2131 4238 
Q 1616 4238 1336 4038 
Q 1056 3838 1056 3469 
Q 1056 3159 1242 3001 
Q 1428 2844 1947 2747 
L 2328 2669 
Q 3034 2534 3370 2195 
Q 3706 1856 3706 1288 
Q 3706 609 3251 259 
Q 2797 -91 1919 -91 
Q 1588 -91 1214 -16 
Q 841 59 441 206 
L 441 856 
Q 825 641 1194 531 
Q 1563 422 1919 422 
Q 2459 422 2753 634 
Q 3047 847 3047 1241 
Q 3047 1584 2836 1778 
Q 2625 1972 2144 2069 
L 1759 2144 
Q 1053 2284 737 2584 
Q 422 2884 422 3419 
Q 422 4038 858 4394 
Q 1294 4750 2059 4750 
Q 2388 4750 2728 4690 
Q 3069 4631 3425 4513 
z
" transform="scale(0.015625)"/>
       <path id="DejaVuSans-74" d="M 1172 4494 
L 1172 3500 
L 2356 3500 
L 2356 3053 
L 1172 3053 
L 1172 1153 
Q 1172 725 1289 603 
Q 1406 481 1766 481 
L 2356 481 
L 2356 0 
L 1766 0 
Q 1100 0 847 248 
Q 594 497 594 1153 
L 594 3053 
L 172 3053 
L 172 3500 
L 594 3500 
L 594 4494 
L 1172 4494 
z
" transform="scale(0.015625)"/>
       <path id="DejaVuSans-64" d="M 2906 2969 
L 2906 4863 
L 3481 4863 
L 3481 0 
L 2906 0 
L 2906 525 
Q 2725 213 2448 61 
Q 2172 -91 1784 -91 
Q 1150 -91 751 415 
Q 353 922 353 1747 
Q 353 2572 751 3078 
Q 1150 3584 1784 3584 
Q 2172 3584 2448 3432 
Q 2725 3281 2906 2969 
z
M 947 1747 
Q 947 1113 1208 752 
Q 1469 391 1925 391 
Q 2381 391 2643 752 
Q 2906 1113 2906 1747 
Q 2906 2381 2643 2742 
Q 2381 3103 1925 3103 
Q 1469 3103 1208 2742 
Q 947 2381 947 1747 
z
" transform="scale(0.015625)"/>
       <path id="DejaVuSans-20" transform="scale(0.015625)"/>
       <path id="DejaVuSans-44" d="M 1259 4147 
L 1259 519 
L 2022 519 
Q 2988 519 3436 956 
Q 3884 1394 3884 2338 
Q 3884 3275 3436 3711 
Q 2988 4147 2022 4147 
L 1259 4147 
z
M 628 4666 
L 1925 4666 
Q 3281 4666 3915 4102 
Q 4550 3538 4550 2338 
Q 4550 1131 3912 565 
Q 3275 0 1925 0 
L 628 0 
L 628 4666 
z
" transform="scale(0.015625)"/>
       <path id="DejaVuSans-65" d="M 3597 1894 
L 3597 1613 
L 953 1613 
Q 991 1019 1311 708 
Q 1631 397 2203 397 
Q 2534 397 2845 478 
Q 3156 559 3463 722 
L 3463 178 
Q 3153 47 2828 -22 
Q 2503 -91 2169 -91 
Q 1331 -91 842 396 
Q 353 884 353 1716 
Q 353 2575 817 3079 
Q 1281 3584 2069 3584 
Q 2775 3584 3186 3129 
Q 3597 2675 3597 1894 
z
M 3022 2063 
Q 3016 2534 2758 2815 
Q 2500 3097 2075 3097 
Q 1594 3097 1305 2825 
Q 1016 2553 972 2059 
L 3022 2063 
z
" transform="scale(0.015625)"/>
       <path id="DejaVuSans-76" d="M 191 3500 
L 800 3500 
L 1894 563 
L 2988 3500 
L 3597 3500 
L 2284 0 
L 1503 0 
L 191 3500 
z
" transform="scale(0.015625)"/>
      </defs>
      <use xlink:href="#DejaVuSans-53"/>
      <use xlink:href="#DejaVuSans-74" transform="translate(63.476562 0)"/>
      <use xlink:href="#DejaVuSans-64" transform="translate(102.685547 0)"/>
      <use xlink:href="#DejaVuSans-20" transform="translate(166.162109 0)"/>
      <use xlink:href="#DejaVuSans-44" transform="translate(197.949219 0)"/>
      <use xlink:href="#DejaVuSans-65" transform="translate(274.951172 0)"/>
      <use xlink:href="#DejaVuSans-76" transform="translate(336.474609 0)"/>
     </g>
    </g>
   </g>
   <g id="line2d_27">
    <path d="M 104.349545 228.070735 
L 123.458503 228.070735 
L 123.895002 233.971605 
L 124.186001 234.158387 
L 124.9135 234.249655 
L 128.017493 234.294753 
L 147.465949 234.308631 
L 147.611449 242.424989 
L 147.853948 244.846201 
L 148.096448 245.399413 
L 148.484447 245.680619 
L 149.211945 245.850666 
L 150.957941 245.962992 
L 156.680929 246.030393 
L 159.348423 246.030393 
L 159.493922 246.54074 
L 160.221421 247.086649 
L 161.094419 247.220208 
L 163.567913 247.303472 
L 183.11337 247.531739 
L 183.258869 247.72758 
L 217.305793 247.911796 
L 342.047515 247.952679 
L 342.193015 228.070735 
L 361.204972 228.070735 
L 361.641472 233.970806 
L 361.932471 234.157535 
L 362.659969 234.248795 
L 365.763962 234.293965 
L 385.212419 234.307637 
L 385.357919 242.425343 
L 385.600418 244.84792 
L 385.842918 245.401288 
L 386.230917 245.682428 
L 386.958415 245.852306 
L 388.704411 245.964314 
L 394.427398 246.030952 
L 397.094892 246.030952 
L 397.240392 246.540715 
L 397.96789 247.086746 
L 398.840889 247.22029 
L 401.314383 247.303507 
L 420.859839 247.531695 
L 421.005339 247.727659 
L 455.197763 247.911826 
L 579.793985 247.952711 
L 579.939485 37.407273 
L 598.951442 37.407273 
L 598.999942 45.709908 
L 599.145442 101.071633 
L 599.339441 101.255565 
L 600.06694 101.294527 
L 611.755414 101.303106 
L 622.958889 101.30393 
L 623.152888 235.163671 
L 623.346888 237.068969 
L 623.589387 237.394588 
L 624.025886 237.528045 
L 625.335383 237.60512 
L 632.270868 237.652751 
L 634.841362 237.652751 
L 634.986862 246.274085 
L 635.56886 246.955132 
L 636.199359 247.124555 
L 637.702856 247.230126 
L 642.795344 247.286837 
L 646.723836 247.289626 
L 646.869335 247.455971 
L 658.606309 247.519091 
L 658.751809 247.718795 
L 686.008748 247.892221 
L 817.540455 247.947751 
L 817.540455 247.947751 
" clip-path="url(#pa636876bc3)" style="fill: none; stroke: #0000ff; stroke-width: 1.5; stroke-linecap: square"/>
   </g>
   <g id="line2d_28">
    <path d="M 104.349545 228.070735 
L 123.458503 228.070735 
L 123.895002 233.971472 
L 124.186001 234.159215 
L 124.9135 234.250596 
L 128.017493 234.295927 
L 147.465949 234.310551 
L 147.611449 242.42548 
L 147.853948 244.846259 
L 148.096448 245.399481 
L 148.484447 245.680677 
L 149.211945 245.85071 
L 150.957941 245.963004 
L 156.680929 246.030423 
L 159.348423 246.030423 
L 159.493922 246.540721 
L 160.221421 247.086576 
L 161.094419 247.220146 
L 163.567913 247.303421 
L 183.11337 247.531722 
L 183.258869 247.727676 
L 217.354293 247.911798 
L 342.047515 247.952678 
L 342.193015 228.070735 
L 361.204972 228.070735 
L 361.641472 233.970688 
L 361.932471 234.158376 
L 362.659969 234.249743 
L 365.812462 234.295304 
L 385.212419 234.309574 
L 385.357919 242.425799 
L 385.600418 244.847937 
L 385.842918 245.401328 
L 386.230917 245.682466 
L 386.958415 245.852337 
L 388.704411 245.964328 
L 394.427398 246.030983 
L 397.094892 246.030983 
L 397.240392 246.540743 
L 397.96789 247.086714 
L 398.840889 247.220258 
L 401.314383 247.303479 
L 420.859839 247.531691 
L 421.005339 247.727799 
L 455.246263 247.911846 
L 579.793985 247.952727 
L 579.939485 37.407273 
L 598.951442 37.407273 
L 598.999942 45.720092 
L 599.145442 101.747219 
L 599.339441 101.952964 
L 600.309439 102.029033 
L 604.28643 102.25136 
L 605.450428 102.300325 
L 610.979415 102.558115 
L 612.531412 102.642647 
L 615.101906 102.760268 
L 615.586905 102.78656 
L 619.321397 102.949017 
L 620.145895 102.977096 
L 622.958889 102.983307 
L 623.152888 235.163149 
L 623.346888 237.068992 
L 623.589387 237.394732 
L 624.025886 237.528377 
L 625.335383 237.605442 
L 632.222368 237.653194 
L 634.841362 237.653194 
L 634.986862 246.274595 
L 635.56886 246.95514 
L 636.199359 247.124537 
L 637.702856 247.230091 
L 642.795344 247.286839 
L 646.723836 247.289628 
L 646.869335 247.455974 
L 658.606309 247.519157 
L 658.751809 247.718866 
L 686.008748 247.892244 
L 817.540455 247.947769 
L 817.540455 247.947769 
" clip-path="url(#pa636876bc3)" style="fill: none; stroke-dasharray: 5.55,2.4; stroke-dashoffset: 0; stroke: #ff0000; stroke-width: 1.5"/>
   </g>
   <g id="line2d_29">
    <path d="M 342.096015 258.48 
L 342.096015 26.88 
" clip-path="url(#pa636876bc3)" style="fill: none; stroke-dasharray: 1.5,2.475; stroke-dashoffset: 0; stroke: #808080; stroke-opacity: 0.6; stroke-width: 1.5"/>
   </g>
   <g id="line2d_30">
    <path d="M 579.842485 258.48 
L 579.842485 26.88 
" clip-path="url(#pa636876bc3)" style="fill: none; stroke-dasharray: 1.5,2.475; stroke-dashoffset: 0; stroke: #808080; stroke-opacity: 0.6; stroke-width: 1.5"/>
   </g>
   <g id="patch_3">
    <path d="M 68.69 258.48 
L 68.69 26.88 
" style="fill: none; stroke: #000000; stroke-width: 0.8; stroke-linejoin: miter; stroke-linecap: square"/>
   </g>
   <g id="patch_4">
    <path d="M 853.2 258.48 
L 853.2 26.88 
" style="fill: none; stroke: #000000; stroke-width: 0.8; stroke-linejoin: miter; stroke-linecap: square"/>
   </g>
   <g id="patch_5">
    <path d="M 68.69 258.48 
L 853.2 258.48 
" style="fill: none; stroke: #000000; stroke-width: 0.8; stroke-linejoin: miter; stroke-linecap: square"/>
   </g>
   <g id="patch_6">
    <path d="M 68.69 26.88 
L 853.2 26.88 
" style="fill: none; stroke: #000000; stroke-width: 0.8; stroke-linejoin: miter; stroke-linecap: square"/>
   </g>
   <g id="text_15">
    <!-- [33] rx  —  Uncertainty (std dev) -->
    <g transform="translate(363.345625 20.88) scale(0.12 -0.12)">
     <defs>
      <path id="DejaVuSans-5b" d="M 550 4863 
L 1875 4863 
L 1875 4416 
L 1125 4416 
L 1125 -397 
L 1875 -397 
L 1875 -844 
L 550 -844 
L 550 4863 
z
" transform="scale(0.015625)"/>
      <path id="DejaVuSans-5d" d="M 1947 4863 
L 1947 -844 
L 622 -844 
L 622 -397 
L 1369 -397 
L 1369 4416 
L 622 4416 
L 622 4863 
L 1947 4863 
z
" transform="scale(0.015625)"/>
      <path id="DejaVuSans-72" d="M 2631 2963 
Q 2534 3019 2420 3045 
Q 2306 3072 2169 3072 
Q 1681 3072 1420 2755 
Q 1159 2438 1159 1844 
L 1159 0 
L 581 0 
L 581 3500 
L 1159 3500 
L 1159 2956 
Q 1341 3275 1631 3429 
Q 1922 3584 2338 3584 
Q 2397 3584 2469 3576 
Q 2541 3569 2628 3553 
L 2631 2963 
z
" transform="scale(0.015625)"/>
      <path id="DejaVuSans-78" d="M 3513 3500 
L 2247 1797 
L 3578 0 
L 2900 0 
L 1881 1375 
L 863 0 
L 184 0 
L 1544 1831 
L 300 3500 
L 978 3500 
L 1906 2253 
L 2834 3500 
L 3513 3500 
z
" transform="scale(0.015625)"/>
      <path id="DejaVuSans-2014" d="M 313 1978 
L 6088 1978 
L 6088 1528 
L 313 1528 
L 313 1978 
z
" transform="scale(0.015625)"/>
      <path id="DejaVuSans-55" d="M 556 4666 
L 1191 4666 
L 1191 1831 
Q 1191 1081 1462 751 
Q 1734 422 2344 422 
Q 2950 422 3222 751 
Q 3494 1081 3494 1831 
L 3494 4666 
L 4128 4666 
L 4128 1753 
Q 4128 841 3676 375 
Q 3225 -91 2344 -91 
Q 1459 -91 1007 375 
Q 556 841 556 1753 
L 556 4666 
z
" transform="scale(0.015625)"/>
      <path id="DejaVuSans-6e" d="M 3513 2113 
L 3513 0 
L 2938 0 
L 2938 2094 
Q 2938 2591 2744 2837 
Q 2550 3084 2163 3084 
Q 1697 3084 1428 2787 
Q 1159 2491 1159 1978 
L 1159 0 
L 581 0 
L 581 3500 
L 1159 3500 
L 1159 2956 
Q 1366 3272 1645 3428 
Q 1925 3584 2291 3584 
Q 2894 3584 3203 3211 
Q 3513 2838 3513 2113 
z
" transform="scale(0.015625)"/>
      <path id="DejaVuSans-63" d="M 3122 3366 
L 3122 2828 
Q 2878 2963 2633 3030 
Q 2388 3097 2138 3097 
Q 1578 3097 1268 2742 
Q 959 2388 959 1747 
Q 959 1106 1268 751 
Q 1578 397 2138 397 
Q 2388 397 2633 464 
Q 2878 531 3122 666 
L 3122 134 
Q 2881 22 2623 -34 
Q 2366 -91 2075 -91 
Q 1284 -91 818 406 
Q 353 903 353 1747 
Q 353 2603 823 3093 
Q 1294 3584 2113 3584 
Q 2378 3584 2631 3529 
Q 2884 3475 3122 3366 
z
" transform="scale(0.015625)"/>
      <path id="DejaVuSans-61" d="M 2194 1759 
Q 1497 1759 1228 1600 
Q 959 1441 959 1056 
Q 959 750 1161 570 
Q 1363 391 1709 391 
Q 2188 391 2477 730 
Q 2766 1069 2766 1631 
L 2766 1759 
L 2194 1759 
z
M 3341 1997 
L 3341 0 
L 2766 0 
L 2766 531 
Q 2569 213 2275 61 
Q 1981 -91 1556 -91 
Q 1019 -91 701 211 
Q 384 513 384 1019 
Q 384 1609 779 1909 
Q 1175 2209 1959 2209 
L 2766 2209 
L 2766 2266 
Q 2766 2663 2505 2880 
Q 2244 3097 1772 3097 
Q 1472 3097 1187 3025 
Q 903 2953 641 2809 
L 641 3341 
Q 956 3463 1253 3523 
Q 1550 3584 1831 3584 
Q 2591 3584 2966 3190 
Q 3341 2797 3341 1997 
z
" transform="scale(0.015625)"/>
      <path id="DejaVuSans-69" d="M 603 3500 
L 1178 3500 
L 1178 0 
L 603 0 
L 603 3500 
z
M 603 4863 
L 1178 4863 
L 1178 4134 
L 603 4134 
L 603 4863 
z
" transform="scale(0.015625)"/>
      <path id="DejaVuSans-79" d="M 2059 -325 
Q 1816 -950 1584 -1140 
Q 1353 -1331 966 -1331 
L 506 -1331 
L 506 -850 
L 844 -850 
Q 1081 -850 1212 -737 
Q 1344 -625 1503 -206 
L 1606 56 
L 191 3500 
L 800 3500 
L 1894 763 
L 2988 3500 
L 3597 3500 
L 2059 -325 
z
" transform="scale(0.015625)"/>
      <path id="DejaVuSans-28" d="M 1984 4856 
Q 1566 4138 1362 3434 
Q 1159 2731 1159 2009 
Q 1159 1288 1364 580 
Q 1569 -128 1984 -844 
L 1484 -844 
Q 1016 -109 783 600 
Q 550 1309 550 2009 
Q 550 2706 781 3412 
Q 1013 4119 1484 4856 
L 1984 4856 
z
" transform="scale(0.015625)"/>
      <path id="DejaVuSans-73" d="M 2834 3397 
L 2834 2853 
Q 2591 2978 2328 3040 
Q 2066 3103 1784 3103 
Q 1356 3103 1142 2972 
Q 928 2841 928 2578 
Q 928 2378 1081 2264 
Q 1234 2150 1697 2047 
L 1894 2003 
Q 2506 1872 2764 1633 
Q 3022 1394 3022 966 
Q 3022 478 2636 193 
Q 2250 -91 1575 -91 
Q 1294 -91 989 -36 
Q 684 19 347 128 
L 347 722 
Q 666 556 975 473 
Q 1284 391 1588 391 
Q 1994 391 2212 530 
Q 2431 669 2431 922 
Q 2431 1156 2273 1281 
Q 2116 1406 1581 1522 
L 1381 1569 
Q 847 1681 609 1914 
Q 372 2147 372 2553 
Q 372 3047 722 3315 
Q 1072 3584 1716 3584 
Q 2034 3584 2315 3537 
Q 2597 3491 2834 3397 
z
" transform="scale(0.015625)"/>
      <path id="DejaVuSans-29" d="M 513 4856 
L 1013 4856 
Q 1481 4119 1714 3412 
Q 1947 2706 1947 2009 
Q 1947 1309 1714 600 
Q 1481 -109 1013 -844 
L 513 -844 
Q 928 -128 1133 580 
Q 1338 1288 1338 2009 
Q 1338 2731 1133 3434 
Q 928 4138 513 4856 
z
" transform="scale(0.015625)"/>
     </defs>
     <use xlink:href="#DejaVuSans-5b"/>
     <use xlink:href="#DejaVuSans-33" transform="translate(39.013672 0)"/>
     <use xlink:href="#DejaVuSans-33" transform="translate(102.636719 0)"/>
     <use xlink:href="#DejaVuSans-5d" transform="translate(166.259766 0)"/>
     <use xlink:href="#DejaVuSans-20" transform="translate(205.273438 0)"/>
     <use xlink:href="#DejaVuSans-72" transform="translate(237.060547 0)"/>
     <use xlink:href="#DejaVuSans-78" transform="translate(275.548828 0)"/>
     <use xlink:href="#DejaVuSans-20" transform="translate(334.728516 0)"/>
     <use xlink:href="#DejaVuSans-20" transform="translate(366.515625 0)"/>
     <use xlink:href="#DejaVuSans-2014" transform="translate(398.302734 0)"/>
     <use xlink:href="#DejaVuSans-20" transform="translate(498.302734 0)"/>
     <use xlink:href="#DejaVuSans-20" transform="translate(530.089844 0)"/>
     <use xlink:href="#DejaVuSans-55" transform="translate(561.876953 0)"/>
     <use xlink:href="#DejaVuSans-6e" transform="translate(635.070312 0)"/>
     <use xlink:href="#DejaVuSans-63" transform="translate(698.449219 0)"/>
     <use xlink:href="#DejaVuSans-65" transform="translate(753.429688 0)"/>
     <use xlink:href="#DejaVuSans-72" transform="translate(814.953125 0)"/>
     <use xlink:href="#DejaVuSans-74" transform="translate(856.066406 0)"/>
     <use xlink:href="#DejaVuSans-61" transform="translate(895.275391 0)"/>
     <use xlink:href="#DejaVuSans-69" transform="translate(956.554688 0)"/>
     <use xlink:href="#DejaVuSans-6e" transform="translate(984.337891 0)"/>
     <use xlink:href="#DejaVuSans-74" transform="translate(1047.716797 0)"/>
     <use xlink:href="#DejaVuSans-79" transform="translate(1086.925781 0)"/>
     <use xlink:href="#DejaVuSans-20" transform="translate(1146.105469 0)"/>
     <use xlink:href="#DejaVuSans-28" transform="translate(1177.892578 0)"/>
     <use xlink:href="#DejaVuSans-73" transform="translate(1216.90625 0)"/>
     <use xlink:href="#DejaVuSans-74" transform="translate(1269.005859 0)"/>
     <use xlink:href="#DejaVuSans-64" transform="translate(1308.214844 0)"/>
     <use xlink:href="#DejaVuSans-20" transform="translate(1371.691406 0)"/>
     <use xlink:href="#DejaVuSans-64" transform="translate(1403.478516 0)"/>
     <use xlink:href="#DejaVuSans-65" transform="translate(1466.955078 0)"/>
     <use xlink:href="#DejaVuSans-76" transform="translate(1528.478516 0)"/>
     <use xlink:href="#DejaVuSans-29" transform="translate(1587.658203 0)"/>
    </g>
   </g>
   <g id="legend_1">
    <g id="patch_7">
     <path d="M 738.401562 64.23625 
L 846.2 64.23625 
Q 848.2 64.23625 848.2 62.23625 
L 848.2 33.88 
Q 848.2 31.88 846.2 31.88 
L 738.401562 31.88 
Q 736.401562 31.88 736.401562 33.88 
L 736.401562 62.23625 
Q 736.401562 64.23625 738.401562 64.23625 
z
" style="fill: #ffffff; opacity: 0.8; stroke: #cccccc; stroke-linejoin: miter"/>
    </g>
    <g id="line2d_31">
     <path d="M 740.401562 39.978437 
L 750.401562 39.978437 
L 760.401562 39.978437 
" style="fill: none; stroke: #0000ff; stroke-width: 1.5; stroke-linecap: square"/>
    </g>
    <g id="text_16">
     <!-- No Noise -->
     <g transform="translate(768.401562 43.478437) scale(0.1 -0.1)">
      <defs>
       <path id="DejaVuSans-4e" d="M 628 4666 
L 1478 4666 
L 3547 763 
L 3547 4666 
L 4159 4666 
L 4159 0 
L 3309 0 
L 1241 3903 
L 1241 0 
L 628 0 
L 628 4666 
z
" transform="scale(0.015625)"/>
       <path id="DejaVuSans-6f" d="M 1959 3097 
Q 1497 3097 1228 2736 
Q 959 2375 959 1747 
Q 959 1119 1226 758 
Q 1494 397 1959 397 
Q 2419 397 2687 759 
Q 2956 1122 2956 1747 
Q 2956 2369 2687 2733 
Q 2419 3097 1959 3097 
z
M 1959 3584 
Q 2709 3584 3137 3096 
Q 3566 2609 3566 1747 
Q 3566 888 3137 398 
Q 2709 -91 1959 -91 
Q 1206 -91 779 398 
Q 353 888 353 1747 
Q 353 2609 779 3096 
Q 1206 3584 1959 3584 
z
" transform="scale(0.015625)"/>
      </defs>
      <use xlink:href="#DejaVuSans-4e"/>
      <use xlink:href="#DejaVuSans-6f" transform="translate(74.804688 0)"/>
      <use xlink:href="#DejaVuSans-20" transform="translate(135.986328 0)"/>
      <use xlink:href="#DejaVuSans-4e" transform="translate(167.773438 0)"/>
      <use xlink:href="#DejaVuSans-6f" transform="translate(242.578125 0)"/>
      <use xlink:href="#DejaVuSans-69" transform="translate(303.759766 0)"/>
      <use xlink:href="#DejaVuSans-73" transform="translate(331.542969 0)"/>
      <use xlink:href="#DejaVuSans-65" transform="translate(383.642578 0)"/>
     </g>
    </g>
    <g id="line2d_32">
     <path d="M 740.401562 54.656562 
L 750.401562 54.656562 
L 760.401562 54.656562 
" style="fill: none; stroke-dasharray: 5.55,2.4; stroke-dashoffset: 0; stroke: #ff0000; stroke-width: 1.5"/>
    </g>
    <g id="text_17">
     <!-- With ARW/VRW -->
     <g transform="translate(768.401562 58.156562) scale(0.1 -0.1)">
      <defs>
       <path id="DejaVuSans-57" d="M 213 4666 
L 850 4666 
L 1831 722 
L 2809 4666 
L 3519 4666 
L 4500 722 
L 5478 4666 
L 6119 4666 
L 4947 0 
L 4153 0 
L 3169 4050 
L 2175 0 
L 1381 0 
L 213 4666 
z
" transform="scale(0.015625)"/>
       <path id="DejaVuSans-68" d="M 3513 2113 
L 3513 0 
L 2938 0 
L 2938 2094 
Q 2938 2591 2744 2837 
Q 2550 3084 2163 3084 
Q 1697 3084 1428 2787 
Q 1159 2491 1159 1978 
L 1159 0 
L 581 0 
L 581 4863 
L 1159 4863 
L 1159 2956 
Q 1366 3272 1645 3428 
Q 1925 3584 2291 3584 
Q 2894 3584 3203 3211 
Q 3513 2838 3513 2113 
z
" transform="scale(0.015625)"/>
       <path id="DejaVuSans-41" d="M 2188 4044 
L 1331 1722 
L 3047 1722 
L 2188 4044 
z
M 1831 4666 
L 2547 4666 
L 4325 0 
L 3669 0 
L 3244 1197 
L 1141 1197 
L 716 0 
L 50 0 
L 1831 4666 
z
" transform="scale(0.015625)"/>
       <path id="DejaVuSans-52" d="M 2841 2188 
Q 3044 2119 3236 1894 
Q 3428 1669 3622 1275 
L 4263 0 
L 3584 0 
L 2988 1197 
Q 2756 1666 2539 1819 
Q 2322 1972 1947 1972 
L 1259 1972 
L 1259 0 
L 628 0 
L 628 4666 
L 2053 4666 
Q 2853 4666 3247 4331 
Q 3641 3997 3641 3322 
Q 3641 2881 3436 2590 
Q 3231 2300 2841 2188 
z
M 1259 4147 
L 1259 2491 
L 2053 2491 
Q 2509 2491 2742 2702 
Q 2975 2913 2975 3322 
Q 2975 3731 2742 3939 
Q 2509 4147 2053 4147 
L 1259 4147 
z
" transform="scale(0.015625)"/>
       <path id="DejaVuSans-2f" d="M 1625 4666 
L 2156 4666 
L 531 -594 
L 0 -594 
L 1625 4666 
z
" transform="scale(0.015625)"/>
       <path id="DejaVuSans-56" d="M 1831 0 
L 50 4666 
L 709 4666 
L 2188 738 
L 3669 4666 
L 4325 4666 
L 2547 0 
L 1831 0 
z
" transform="scale(0.015625)"/>
      </defs>
      <use xlink:href="#DejaVuSans-57"/>
      <use xlink:href="#DejaVuSans-69" transform="translate(96.626953 0)"/>
      <use xlink:href="#DejaVuSans-74" transform="translate(124.410156 0)"/>
      <use xlink:href="#DejaVuSans-68" transform="translate(163.619141 0)"/>
      <use xlink:href="#DejaVuSans-20" transform="translate(226.998047 0)"/>
      <use xlink:href="#DejaVuSans-41" transform="translate(258.785156 0)"/>
      <use xlink:href="#DejaVuSans-52" transform="translate(327.193359 0)"/>
      <use xlink:href="#DejaVuSans-57" transform="translate(392.675781 0)"/>
      <use xlink:href="#DejaVuSans-2f" transform="translate(491.552734 0)"/>
      <use xlink:href="#DejaVuSans-56" transform="translate(525.244141 0)"/>
      <use xlink:href="#DejaVuSans-52" transform="translate(593.652344 0)"/>
      <use xlink:href="#DejaVuSans-57" transform="translate(659.134766 0)"/>
     </g>
    </g>
   </g>
  </g>
  <g id="axes_2">
   <g id="patch_8">
    <path d="M 68.69 534.04 
L 853.2 534.04 
L 853.2 302.44 
L 68.69 302.44 
z
" style="fill: #ffffff"/>
   </g>
   <g id="matplotlib.axis_3">
    <g id="xtick_8">
     <g id="line2d_33">
      <path d="M 104.349545 534.04 
L 104.349545 302.44 
" clip-path="url(#pa252252ef5)" style="fill: none; stroke: #b0b0b0; stroke-width: 0.8; stroke-linecap: square"/>
     </g>
     <g id="line2d_34">
      <g>
       <use xlink:href="#mdd029c8873" x="104.349545" y="534.04" style="stroke: #000000; stroke-width: 0.8"/>
      </g>
     </g>
     <g id="text_18">
      <!-- 0 -->
      <g transform="translate(101.168295 548.638438) scale(0.1 -0.1)">
       <use xlink:href="#DejaVuSans-30"/>
      </g>
     </g>
    </g>
    <g id="xtick_9">
     <g id="line2d_35">
      <path d="M 225.599275 534.04 
L 225.599275 302.44 
" clip-path="url(#pa252252ef5)" style="fill: none; stroke: #b0b0b0; stroke-width: 0.8; stroke-linecap: square"/>
     </g>
     <g id="line2d_36">
      <g>
       <use xlink:href="#mdd029c8873" x="225.599275" y="534.04" style="stroke: #000000; stroke-width: 0.8"/>
      </g>
     </g>
     <g id="text_19">
      <!-- 50 -->
      <g transform="translate(219.236775 548.638438) scale(0.1 -0.1)">
       <use xlink:href="#DejaVuSans-35"/>
       <use xlink:href="#DejaVuSans-30" transform="translate(63.623047 0)"/>
      </g>
     </g>
    </g>
    <g id="xtick_10">
     <g id="line2d_37">
      <path d="M 346.849005 534.04 
L 346.849005 302.44 
" clip-path="url(#pa252252ef5)" style="fill: none; stroke: #b0b0b0; stroke-width: 0.8; stroke-linecap: square"/>
     </g>
     <g id="line2d_38">
      <g>
       <use xlink:href="#mdd029c8873" x="346.849005" y="534.04" style="stroke: #000000; stroke-width: 0.8"/>
      </g>
     </g>
     <g id="text_20">
      <!-- 100 -->
      <g transform="translate(337.305255 548.638438) scale(0.1 -0.1)">
       <use xlink:href="#DejaVuSans-31"/>
       <use xlink:href="#DejaVuSans-30" transform="translate(63.623047 0)"/>
       <use xlink:href="#DejaVuSans-30" transform="translate(127.246094 0)"/>
      </g>
     </g>
    </g>
    <g id="xtick_11">
     <g id="line2d_39">
      <path d="M 468.098734 534.04 
L 468.098734 302.44 
" clip-path="url(#pa252252ef5)" style="fill: none; stroke: #b0b0b0; stroke-width: 0.8; stroke-linecap: square"/>
     </g>
     <g id="line2d_40">
      <g>
       <use xlink:href="#mdd029c8873" x="468.098734" y="534.04" style="stroke: #000000; stroke-width: 0.8"/>
      </g>
     </g>
     <g id="text_21">
      <!-- 150 -->
      <g transform="translate(458.554984 548.638438) scale(0.1 -0.1)">
       <use xlink:href="#DejaVuSans-31"/>
       <use xlink:href="#DejaVuSans-35" transform="translate(63.623047 0)"/>
       <use xlink:href="#DejaVuSans-30" transform="translate(127.246094 0)"/>
      </g>
     </g>
    </g>
    <g id="xtick_12">
     <g id="line2d_41">
      <path d="M 589.348464 534.04 
L 589.348464 302.44 
" clip-path="url(#pa252252ef5)" style="fill: none; stroke: #b0b0b0; stroke-width: 0.8; stroke-linecap: square"/>
     </g>
     <g id="line2d_42">
      <g>
       <use xlink:href="#mdd029c8873" x="589.348464" y="534.04" style="stroke: #000000; stroke-width: 0.8"/>
      </g>
     </g>
     <g id="text_22">
      <!-- 200 -->
      <g transform="translate(579.804714 548.638438) scale(0.1 -0.1)">
       <use xlink:href="#DejaVuSans-32"/>
       <use xlink:href="#DejaVuSans-30" transform="translate(63.623047 0)"/>
       <use xlink:href="#DejaVuSans-30" transform="translate(127.246094 0)"/>
      </g>
     </g>
    </g>
    <g id="xtick_13">
     <g id="line2d_43">
      <path d="M 710.598193 534.04 
L 710.598193 302.44 
" clip-path="url(#pa252252ef5)" style="fill: none; stroke: #b0b0b0; stroke-width: 0.8; stroke-linecap: square"/>
     </g>
     <g id="line2d_44">
      <g>
       <use xlink:href="#mdd029c8873" x="710.598193" y="534.04" style="stroke: #000000; stroke-width: 0.8"/>
      </g>
     </g>
     <g id="text_23">
      <!-- 250 -->
      <g transform="translate(701.054443 548.638438) scale(0.1 -0.1)">
       <use xlink:href="#DejaVuSans-32"/>
       <use xlink:href="#DejaVuSans-35" transform="translate(63.623047 0)"/>
       <use xlink:href="#DejaVuSans-30" transform="translate(127.246094 0)"/>
      </g>
     </g>
    </g>
    <g id="xtick_14">
     <g id="line2d_45">
      <path d="M 831.847923 534.04 
L 831.847923 302.44 
" clip-path="url(#pa252252ef5)" style="fill: none; stroke: #b0b0b0; stroke-width: 0.8; stroke-linecap: square"/>
     </g>
     <g id="line2d_46">
      <g>
       <use xlink:href="#mdd029c8873" x="831.847923" y="534.04" style="stroke: #000000; stroke-width: 0.8"/>
      </g>
     </g>
     <g id="text_24">
      <!-- 300 -->
      <g transform="translate(822.304173 548.638438) scale(0.1 -0.1)">
       <use xlink:href="#DejaVuSans-33"/>
       <use xlink:href="#DejaVuSans-30" transform="translate(63.623047 0)"/>
       <use xlink:href="#DejaVuSans-30" transform="translate(127.246094 0)"/>
      </g>
     </g>
    </g>
    <g id="text_25">
     <!-- Time (s) -->
     <g transform="translate(440.616094 562.316562) scale(0.1 -0.1)">
      <defs>
       <path id="DejaVuSans-54" d="M -19 4666 
L 3928 4666 
L 3928 4134 
L 2272 4134 
L 2272 0 
L 1638 0 
L 1638 4134 
L -19 4134 
L -19 4666 
z
" transform="scale(0.015625)"/>
       <path id="DejaVuSans-6d" d="M 3328 2828 
Q 3544 3216 3844 3400 
Q 4144 3584 4550 3584 
Q 5097 3584 5394 3201 
Q 5691 2819 5691 2113 
L 5691 0 
L 5113 0 
L 5113 2094 
Q 5113 2597 4934 2840 
Q 4756 3084 4391 3084 
Q 3944 3084 3684 2787 
Q 3425 2491 3425 1978 
L 3425 0 
L 2847 0 
L 2847 2094 
Q 2847 2600 2669 2842 
Q 2491 3084 2119 3084 
Q 1678 3084 1418 2786 
Q 1159 2488 1159 1978 
L 1159 0 
L 581 0 
L 581 3500 
L 1159 3500 
L 1159 2956 
Q 1356 3278 1631 3431 
Q 1906 3584 2284 3584 
Q 2666 3584 2933 3390 
Q 3200 3197 3328 2828 
z
" transform="scale(0.015625)"/>
      </defs>
      <use xlink:href="#DejaVuSans-54"/>
      <use xlink:href="#DejaVuSans-69" transform="translate(57.958984 0)"/>
      <use xlink:href="#DejaVuSans-6d" transform="translate(85.742188 0)"/>
      <use xlink:href="#DejaVuSans-65" transform="translate(183.154297 0)"/>
      <use xlink:href="#DejaVuSans-20" transform="translate(244.677734 0)"/>
      <use xlink:href="#DejaVuSans-28" transform="translate(276.464844 0)"/>
      <use xlink:href="#DejaVuSans-73" transform="translate(315.478516 0)"/>
      <use xlink:href="#DejaVuSans-29" transform="translate(367.578125 0)"/>
     </g>
    </g>
   </g>
   <g id="matplotlib.axis_4">
    <g id="ytick_7">
     <g id="line2d_47">
      <path d="M 68.69 501.536688 
L 853.2 501.536688 
" clip-path="url(#pa252252ef5)" style="fill: none; stroke: #b0b0b0; stroke-width: 0.8; stroke-linecap: square"/>
     </g>
     <g id="line2d_48">
      <g>
       <use xlink:href="#m9908d6df71" x="68.69" y="501.536688" style="stroke: #000000; stroke-width: 0.8"/>
      </g>
     </g>
     <g id="text_26">
      <!-- −0.010 -->
      <g transform="translate(24.682187 505.335907) scale(0.1 -0.1)">
       <defs>
        <path id="DejaVuSans-2212" d="M 678 2272 
L 4684 2272 
L 4684 1741 
L 678 1741 
L 678 2272 
z
" transform="scale(0.015625)"/>
       </defs>
       <use xlink:href="#DejaVuSans-2212"/>
       <use xlink:href="#DejaVuSans-30" transform="translate(83.789062 0)"/>
       <use xlink:href="#DejaVuSans-2e" transform="translate(147.412109 0)"/>
       <use xlink:href="#DejaVuSans-30" transform="translate(179.199219 0)"/>
       <use xlink:href="#DejaVuSans-31" transform="translate(242.822266 0)"/>
       <use xlink:href="#DejaVuSans-30" transform="translate(306.445312 0)"/>
      </g>
     </g>
    </g>
    <g id="ytick_8">
     <g id="line2d_49">
      <path d="M 68.69 464.037104 
L 853.2 464.037104 
" clip-path="url(#pa252252ef5)" style="fill: none; stroke: #b0b0b0; stroke-width: 0.8; stroke-linecap: square"/>
     </g>
     <g id="line2d_50">
      <g>
       <use xlink:href="#m9908d6df71" x="68.69" y="464.037104" style="stroke: #000000; stroke-width: 0.8"/>
      </g>
     </g>
     <g id="text_27">
      <!-- −0.005 -->
      <g transform="translate(24.682187 467.836322) scale(0.1 -0.1)">
       <use xlink:href="#DejaVuSans-2212"/>
       <use xlink:href="#DejaVuSans-30" transform="translate(83.789062 0)"/>
       <use xlink:href="#DejaVuSans-2e" transform="translate(147.412109 0)"/>
       <use xlink:href="#DejaVuSans-30" transform="translate(179.199219 0)"/>
       <use xlink:href="#DejaVuSans-30" transform="translate(242.822266 0)"/>
       <use xlink:href="#DejaVuSans-35" transform="translate(306.445312 0)"/>
      </g>
     </g>
    </g>
    <g id="ytick_9">
     <g id="line2d_51">
      <path d="M 68.69 426.53752 
L 853.2 426.53752 
" clip-path="url(#pa252252ef5)" style="fill: none; stroke: #b0b0b0; stroke-width: 0.8; stroke-linecap: square"/>
     </g>
     <g id="line2d_52">
      <g>
       <use xlink:href="#m9908d6df71" x="68.69" y="426.53752" style="stroke: #000000; stroke-width: 0.8"/>
      </g>
     </g>
     <g id="text_28">
      <!-- 0.000 -->
      <g transform="translate(33.061875 430.336738) scale(0.1 -0.1)">
       <use xlink:href="#DejaVuSans-30"/>
       <use xlink:href="#DejaVuSans-2e" transform="translate(63.623047 0)"/>
       <use xlink:href="#DejaVuSans-30" transform="translate(95.410156 0)"/>
       <use xlink:href="#DejaVuSans-30" transform="translate(159.033203 0)"/>
       <use xlink:href="#DejaVuSans-30" transform="translate(222.65625 0)"/>
      </g>
     </g>
    </g>
    <g id="ytick_10">
     <g id="line2d_53">
      <path d="M 68.69 389.037935 
L 853.2 389.037935 
" clip-path="url(#pa252252ef5)" style="fill: none; stroke: #b0b0b0; stroke-width: 0.8; stroke-linecap: square"/>
     </g>
     <g id="line2d_54">
      <g>
       <use xlink:href="#m9908d6df71" x="68.69" y="389.037935" style="stroke: #000000; stroke-width: 0.8"/>
      </g>
     </g>
     <g id="text_29">
      <!-- 0.005 -->
      <g transform="translate(33.061875 392.837154) scale(0.1 -0.1)">
       <use xlink:href="#DejaVuSans-30"/>
       <use xlink:href="#DejaVuSans-2e" transform="translate(63.623047 0)"/>
       <use xlink:href="#DejaVuSans-30" transform="translate(95.410156 0)"/>
       <use xlink:href="#DejaVuSans-30" transform="translate(159.033203 0)"/>
       <use xlink:href="#DejaVuSans-35" transform="translate(222.65625 0)"/>
      </g>
     </g>
    </g>
    <g id="ytick_11">
     <g id="line2d_55">
      <path d="M 68.69 351.538351 
L 853.2 351.538351 
" clip-path="url(#pa252252ef5)" style="fill: none; stroke: #b0b0b0; stroke-width: 0.8; stroke-linecap: square"/>
     </g>
     <g id="line2d_56">
      <g>
       <use xlink:href="#m9908d6df71" x="68.69" y="351.538351" style="stroke: #000000; stroke-width: 0.8"/>
      </g>
     </g>
     <g id="text_30">
      <!-- 0.010 -->
      <g transform="translate(33.061875 355.33757) scale(0.1 -0.1)">
       <use xlink:href="#DejaVuSans-30"/>
       <use xlink:href="#DejaVuSans-2e" transform="translate(63.623047 0)"/>
       <use xlink:href="#DejaVuSans-30" transform="translate(95.410156 0)"/>
       <use xlink:href="#DejaVuSans-31" transform="translate(159.033203 0)"/>
       <use xlink:href="#DejaVuSans-30" transform="translate(222.65625 0)"/>
      </g>
     </g>
    </g>
    <g id="ytick_12">
     <g id="line2d_57">
      <path d="M 68.69 314.038767 
L 853.2 314.038767 
" clip-path="url(#pa252252ef5)" style="fill: none; stroke: #b0b0b0; stroke-width: 0.8; stroke-linecap: square"/>
     </g>
     <g id="line2d_58">
      <g>
       <use xlink:href="#m9908d6df71" x="68.69" y="314.038767" style="stroke: #000000; stroke-width: 0.8"/>
      </g>
     </g>
     <g id="text_31">
      <!-- 0.015 -->
      <g transform="translate(33.061875 317.837986) scale(0.1 -0.1)">
       <use xlink:href="#DejaVuSans-30"/>
       <use xlink:href="#DejaVuSans-2e" transform="translate(63.623047 0)"/>
       <use xlink:href="#DejaVuSans-30" transform="translate(95.410156 0)"/>
       <use xlink:href="#DejaVuSans-31" transform="translate(159.033203 0)"/>
       <use xlink:href="#DejaVuSans-35" transform="translate(222.65625 0)"/>
      </g>
     </g>
    </g>
    <g id="text_32">
     <!-- Estimated Value -->
     <g transform="translate(18.6025 458.818906) rotate(-90) scale(0.1 -0.1)">
      <defs>
       <path id="DejaVuSans-45" d="M 628 4666 
L 3578 4666 
L 3578 4134 
L 1259 4134 
L 1259 2753 
L 3481 2753 
L 3481 2222 
L 1259 2222 
L 1259 531 
L 3634 531 
L 3634 0 
L 628 0 
L 628 4666 
z
" transform="scale(0.015625)"/>
       <path id="DejaVuSans-6c" d="M 603 4863 
L 1178 4863 
L 1178 0 
L 603 0 
L 603 4863 
z
" transform="scale(0.015625)"/>
       <path id="DejaVuSans-75" d="M 544 1381 
L 544 3500 
L 1119 3500 
L 1119 1403 
Q 1119 906 1312 657 
Q 1506 409 1894 409 
Q 2359 409 2629 706 
Q 2900 1003 2900 1516 
L 2900 3500 
L 3475 3500 
L 3475 0 
L 2900 0 
L 2900 538 
Q 2691 219 2414 64 
Q 2138 -91 1772 -91 
Q 1169 -91 856 284 
Q 544 659 544 1381 
z
M 1991 3584 
L 1991 3584 
z
" transform="scale(0.015625)"/>
      </defs>
      <use xlink:href="#DejaVuSans-45"/>
      <use xlink:href="#DejaVuSans-73" transform="translate(63.183594 0)"/>
      <use xlink:href="#DejaVuSans-74" transform="translate(115.283203 0)"/>
      <use xlink:href="#DejaVuSans-69" transform="translate(154.492188 0)"/>
      <use xlink:href="#DejaVuSans-6d" transform="translate(182.275391 0)"/>
      <use xlink:href="#DejaVuSans-61" transform="translate(279.6875 0)"/>
      <use xlink:href="#DejaVuSans-74" transform="translate(340.966797 0)"/>
      <use xlink:href="#DejaVuSans-65" transform="translate(380.175781 0)"/>
      <use xlink:href="#DejaVuSans-64" transform="translate(441.699219 0)"/>
      <use xlink:href="#DejaVuSans-20" transform="translate(505.175781 0)"/>
      <use xlink:href="#DejaVuSans-56" transform="translate(536.962891 0)"/>
      <use xlink:href="#DejaVuSans-61" transform="translate(597.621094 0)"/>
      <use xlink:href="#DejaVuSans-6c" transform="translate(658.900391 0)"/>
      <use xlink:href="#DejaVuSans-75" transform="translate(686.683594 0)"/>
      <use xlink:href="#DejaVuSans-65" transform="translate(750.0625 0)"/>
     </g>
    </g>
   </g>
   <g id="line2d_59">
    <path d="M 104.349545 426.53752 
L 123.458503 426.537517 
L 123.604003 315.088549 
L 123.895002 323.690871 
L 124.137501 324.924649 
L 124.477001 325.461687 
L 124.961999 325.744972 
L 125.834998 325.939369 
L 127.920493 326.108289 
L 138.638969 326.830688 
L 145.234954 327.159687 
L 147.465949 327.159687 
L 147.611449 482.090829 
L 147.805449 500.543118 
L 147.999448 502.271333 
L 148.096448 502.24144 
L 149.502945 500.500251 
L 150.375943 500.072264 
L 151.68544 499.703197 
L 153.964935 499.323518 
L 157.068928 499.019618 
L 159.348423 499.019618 
L 159.396923 514.187241 
L 159.493922 513.607204 
L 159.978921 508.925794 
L 160.318421 507.823929 
L 160.75492 507.148009 
L 161.336918 506.679704 
L 162.161416 506.317765 
L 163.519413 505.99068 
L 165.895908 505.67906 
L 169.145401 505.470383 
L 171.230896 505.470383 
L 171.376396 503.781092 
L 172.055394 503.64831 
L 173.752891 503.396436 
L 176.953883 503.179189 
L 181.949372 503.062949 
L 183.11337 503.062949 
L 183.258869 501.37892 
L 183.695368 501.543934 
L 184.568367 501.766152 
L 186.120363 501.889887 
L 190.097354 501.920516 
L 194.995843 501.909882 
L 195.141343 502.892772 
L 201.05833 502.87255 
L 206.878317 502.857597 
L 207.314816 501.581773 
L 207.945314 501.523474 
L 213.231803 501.503061 
L 222.495282 501.381284 
L 230.643264 501.37374 
L 230.788763 501.624449 
L 232.53476 501.473767 
L 240.294742 501.270429 
L 242.525737 501.270429 
L 242.671237 501.448698 
L 243.932234 501.270886 
L 247.278727 501.268266 
L 254.408211 501.342193 
L 254.55371 501.518494 
L 260.761697 501.201654 
L 266.290684 501.176472 
L 266.436184 501.369187 
L 270.704174 501.380702 
L 278.900656 501.508419 
L 282.683648 501.6072 
L 290.055631 501.64261 
L 290.201131 501.857497 
L 294.178122 501.596246 
L 300.919607 501.503089 
L 301.938105 501.503089 
L 302.083604 501.276099 
L 305.333097 500.635561 
L 308.58259 500.394611 
L 312.753581 500.303299 
L 313.772078 500.303299 
L 313.917578 500.532898 
L 316.924571 500.825995 
L 322.453559 501.135219 
L 335.742529 501.578508 
L 337.537025 501.578508 
L 337.682525 501.326804 
L 340.641018 501.509549 
L 342.047515 501.550123 
L 342.193015 426.53752 
L 361.204972 426.53752 
L 361.253472 426.248388 
L 361.495972 433.792129 
L 361.689971 434.41873 
L 361.980971 434.636356 
L 362.659969 434.763347 
L 364.987964 434.869352 
L 374.251443 435.01909 
L 385.212419 435.028536 
L 385.260919 428.493065 
L 385.357919 429.585111 
L 385.503418 430.297182 
L 385.745918 429.68496 
L 386.133917 428.981214 
L 386.618916 428.570592 
L 387.346414 428.278283 
L 388.607411 428.051592 
L 391.080906 427.871295 
L 395.833895 427.762978 
L 397.094892 427.762978 
L 397.240392 426.403027 
L 397.822391 425.307433 
L 398.30739 425.04387 
L 399.180388 424.864074 
L 401.217383 424.725018 
L 406.794871 424.62159 
L 408.977366 424.62159 
L 409.122866 423.90404 
L 412.469358 423.800589 
L 420.180841 423.658452 
L 421.732837 423.766651 
L 423.624333 423.885401 
L 429.104821 423.93645 
L 432.742313 423.937308 
L 432.887813 425.099406 
L 439.289798 425.16435 
L 469.262731 425.158424 
L 476.052716 425.10749 
L 508.596144 425.077609 
L 527.802101 425.053888 
L 527.947601 425.243645 
L 530.663594 425.199638 
L 539.684574 425.111152 
L 539.830074 425.204605 
L 551.033549 425.019271 
L 556.271537 425.130271 
L 579.793985 425.276535 
L 579.939485 426.53752 
L 598.951442 426.53752 
L 598.999942 426.227222 
L 599.145442 429.833193 
L 600.260939 429.850082 
L 622.958889 429.867621 
L 623.007388 426.602878 
L 623.104388 427.246649 
L 623.298388 426.65486 
L 623.637887 426.56971 
L 625.480883 426.551061 
L 634.841362 426.597396 
L 634.889862 423.698672 
L 634.986862 423.74199 
L 635.520361 424.11369 
L 636.344859 424.216314 
L 639.400352 424.269923 
L 646.723836 424.278999 
L 646.869335 424.658956 
L 658.606309 424.694552 
L 658.751809 425.057249 
L 670.488783 425.167263 
L 670.634282 425.32035 
L 704.826706 425.355058 
L 729.90115 425.458975 
L 730.192149 425.477739 
L 739.843628 425.429199 
L 765.548571 425.458861 
L 765.69407 425.764147 
L 767.779566 425.83357 
L 777.431044 425.880831 
L 777.576544 426.278254 
L 779.904538 426.291495 
L 799.158996 426.273843 
L 817.540455 426.377935 
L 817.540455 426.377935 
" clip-path="url(#pa252252ef5)" style="fill: none; stroke: #0000ff; stroke-width: 1.5; stroke-linecap: square"/>
   </g>
   <g id="line2d_60">
    <path d="M 104.349545 426.53752 
L 123.458503 426.537512 
L 123.555503 312.967273 
L 123.604003 321.826141 
L 123.749502 334.86224 
L 123.992002 325.979124 
L 124.234501 328.430927 
L 124.331501 328.716213 
L 124.380001 327.540896 
L 124.428501 327.629621 
L 124.477001 328.007833 
L 124.6225 327.466032 
L 124.7195 327.843584 
L 124.768 327.650016 
L 124.8165 327.225747 
L 124.865 327.444688 
L 125.107499 329.058892 
L 125.252999 328.474853 
L 125.737998 330.611781 
L 125.786498 330.449806 
L 125.980497 330.520396 
L 126.319996 331.957115 
L 126.368496 331.845711 
L 126.659496 333.286961 
L 126.804995 333.746583 
L 126.853495 333.715694 
L 126.998995 334.103568 
L 127.095995 333.712348 
L 127.338494 333.082842 
L 127.386994 332.951097 
L 127.435494 332.97509 
L 127.726493 333.343377 
L 127.871993 333.779852 
L 127.968993 333.805203 
L 128.405492 333.261684 
L 128.502492 333.313575 
L 128.98749 332.416675 
L 129.08449 332.572715 
L 129.22999 333.031709 
L 129.27849 333.018931 
L 129.37549 332.866791 
L 129.569489 333.129928 
L 129.617989 333.064407 
L 129.666489 333.179056 
L 129.860489 333.25223 
L 130.054488 332.777695 
L 130.345487 332.0446 
L 130.393987 332.104054 
L 130.442487 332.023291 
L 130.636487 331.956036 
L 130.830486 332.340054 
L 131.024486 332.647563 
L 131.169986 332.612736 
L 131.412485 332.326673 
L 131.460985 332.3805 
L 131.703484 332.575819 
L 131.751984 332.52137 
L 131.897484 332.500243 
L 132.236983 332.146488 
L 132.915982 331.590509 
L 133.158481 331.564416 
L 133.206981 331.479247 
L 133.255481 331.516753 
L 133.49798 331.541567 
L 133.78898 331.231588 
L 134.031479 330.983588 
L 134.710478 330.411453 
L 134.758978 330.479305 
L 134.952977 330.625666 
L 135.243977 330.51072 
L 135.486476 330.329581 
L 135.825975 330.428948 
L 136.068475 330.702138 
L 136.165474 330.650439 
L 136.262474 330.755668 
L 136.310974 330.730176 
L 136.407974 330.684849 
L 136.456474 330.744673 
L 136.650473 330.810532 
L 136.989973 330.577307 
L 137.086972 330.634547 
L 137.280972 330.740845 
L 137.668971 330.667886 
L 137.95997 330.767428 
L 138.20247 330.466304 
L 138.39647 330.472994 
L 138.590469 330.640108 
L 138.929968 330.741626 
L 139.026968 330.712703 
L 139.220968 330.959248 
L 139.511967 330.930522 
L 139.802966 331.041786 
L 140.093966 331.431405 
L 140.287965 331.60935 
L 140.433465 331.702825 
L 140.627465 331.594174 
L 141.500463 331.510859 
L 141.645962 331.411625 
L 141.791462 331.337862 
L 142.61596 330.881897 
L 143.246459 330.805335 
L 143.682958 331.05873 
L 143.973957 331.25579 
L 144.555956 331.248532 
L 145.040955 331.13193 
L 147.465949 331.13193 
L 147.611449 490.03852 
L 147.902448 514.420482 
L 147.999448 512.979593 
L 148.096448 514.123258 
L 148.144948 513.901172 
L 148.193448 513.562473 
L 148.290447 513.647679 
L 148.435947 512.639091 
L 148.484447 513.116777 
L 148.532947 513.491879 
L 148.581447 513.406351 
L 148.726946 513.047325 
L 148.872446 511.964066 
L 148.920946 512.043049 
L 148.969446 512.426932 
L 149.066446 512.397189 
L 149.163445 512.031727 
L 149.308945 512.682699 
L 149.357445 512.661447 
L 149.502945 512.079025 
L 149.599945 511.547002 
L 149.939444 513.561156 
L 149.987944 513.443621 
L 150.036444 513.502164 
L 150.181943 513.6763 
L 150.569942 515.615944 
L 150.618442 515.416604 
L 150.666942 515.482653 
L 150.763942 515.616422 
L 150.812442 515.552691 
L 151.054941 514.866711 
L 151.200441 514.940642 
L 151.297441 514.903191 
L 151.49144 514.957709 
L 151.68544 514.540906 
L 151.927939 514.70453 
L 152.121939 515.410674 
L 152.170439 515.437698 
L 152.509938 516.761484 
L 153.140437 517.819839 
L 153.188937 517.710701 
L 153.285936 517.695907 
L 153.576936 518.087135 
L 154.061935 519.395948 
L 154.110434 519.366154 
L 154.255934 519.267395 
L 154.498434 519.081017 
L 154.692433 518.90467 
L 154.886433 518.509299 
L 155.031932 518.498522 
L 155.177432 518.709584 
L 155.225932 518.667253 
L 155.468431 518.76054 
L 155.613931 518.712328 
L 155.856431 518.380931 
L 156.14743 518.162251 
L 156.29293 518.194019 
L 156.583929 518.483716 
L 157.020428 518.499571 
L 159.348423 518.499571 
L 159.396923 523.512727 
L 159.445423 522.733829 
L 159.639422 519.309232 
L 159.687922 519.911964 
L 159.784922 521.848026 
L 160.221421 515.271563 
L 160.318421 514.715768 
L 160.60942 512.405226 
L 160.70642 513.049435 
L 160.75492 513.023214 
L 160.900419 512.925332 
L 160.997419 513.042988 
L 161.045919 512.905688 
L 161.094419 512.959201 
L 161.191419 513.630926 
L 161.336918 514.343522 
L 161.482418 514.148379 
L 161.579418 514.010544 
L 161.627918 514.070263 
L 161.918917 514.644827 
L 162.209916 514.92833 
L 162.306916 514.967805 
L 162.452416 515.265835 
L 162.549416 515.178248 
L 162.694915 514.514877 
L 162.743415 514.651459 
L 162.840415 514.611269 
L 163.034415 514.141848 
L 163.131414 514.295528 
L 163.228414 514.395257 
L 163.276914 514.361463 
L 163.761913 513.893846 
L 164.343912 515.301588 
L 164.634911 515.10298 
L 164.87741 515.453498 
L 165.26541 515.851871 
L 165.653409 516.073255 
L 165.798908 516.110499 
L 166.380907 516.811918 
L 166.477907 516.850838 
L 166.865906 517.498329 
L 167.205405 517.324514 
L 167.302405 517.330648 
L 167.544904 517.531578 
L 168.029903 517.713154 
L 168.223903 517.792538 
L 168.999901 517.843664 
L 171.230896 517.843664 
L 171.327896 516.292088 
L 171.376396 516.318556 
L 171.521896 516.30718 
L 171.861395 515.815631 
L 171.909895 515.962021 
L 172.055394 516.162764 
L 172.103894 516.060414 
L 172.152394 516.100101 
L 172.249394 516.201784 
L 172.394894 516.361222 
L 172.540393 516.296027 
L 172.637393 516.502517 
L 172.831393 516.900854 
L 173.558891 516.739301 
L 174.18939 517.445612 
L 174.286389 517.389685 
L 174.431889 517.402764 
L 174.722888 517.569916 
L 174.965388 517.66154 
L 175.547387 518.13973 
L 175.644386 518.2112 
L 175.789886 518.388455 
L 175.983886 518.315474 
L 176.420385 518.913521 
L 176.614384 518.946454 
L 176.808384 519.194014 
L 177.002383 519.05409 
L 177.293383 518.798312 
L 177.487382 518.724174 
L 177.632882 518.536361 
L 178.020881 518.61635 
L 178.166381 518.600241 
L 178.31188 518.60844 
L 178.40888 518.631174 
L 178.942379 518.098364 
L 179.766877 518.118746 
L 179.960877 518.370368 
L 180.154876 518.544708 
L 180.300376 518.590037 
L 180.542875 518.491067 
L 183.11337 518.491067 
L 183.258869 515.464893 
L 183.452869 515.433382 
L 183.986368 513.880209 
L 184.228867 513.187627 
L 184.325867 513.128208 
L 184.374367 513.169299 
L 184.471367 513.024763 
L 184.859366 512.403318 
L 185.053365 512.531568 
L 185.295865 512.932843 
L 185.926363 512.984917 
L 186.314363 512.366958 
L 186.993361 512.394025 
L 187.138861 512.458019 
L 187.47836 512.552726 
L 188.060359 512.24474 
L 188.836357 512.102352 
L 189.078856 511.825696 
L 189.806355 511.489401 
L 191.358351 510.888828 
L 192.03735 510.767894 
L 192.813348 510.593137 
L 194.995843 510.593137 
L 195.092843 512.206452 
L 195.141343 512.185117 
L 195.529342 512.416414 
L 195.917341 512.758075 
L 196.208341 513.00642 
L 196.741839 512.952779 
L 197.129838 512.666799 
L 197.517838 512.595691 
L 197.663337 512.651866 
L 197.905837 512.767377 
L 198.148336 512.857828 
L 198.730335 512.907811 
L 198.924334 512.929302 
L 199.457833 512.905209 
L 200.039832 512.962167 
L 202.367827 512.68776 
L 206.199318 512.680537 
L 206.878317 512.680537 
L 207.266316 511.30144 
L 207.508815 511.215856 
L 212.358805 511.226391 
L 218.76079 511.212169 
L 218.90629 511.255937 
L 219.730788 511.195628 
L 230.643264 511.248782 
L 230.740264 511.545835 
L 230.788763 511.536978 
L 231.661761 511.505524 
L 232.09826 511.496065 
L 234.474755 511.213785 
L 242.622737 511.046557 
L 243.592735 510.919065 
L 243.980734 510.849717 
L 244.174734 510.836774 
L 244.611233 510.895213 
L 244.853732 510.925463 
L 245.144731 510.832831 
L 245.338731 510.774791 
L 245.67823 510.841778 
L 246.017729 510.773878 
L 246.357229 510.850705 
L 246.793728 510.99748 
L 248.636724 511.125144 
L 249.170222 511.19825 
L 250.479719 511.090632 
L 250.770719 511.032404 
L 254.311211 510.90974 
L 254.408211 510.90974 
L 254.55371 511.230814 
L 259.694699 511.015879 
L 266.290684 510.941928 
L 266.436184 511.21088 
L 271.819672 511.222278 
L 286.12714 511.321334 
L 289.279633 511.270632 
L 291.656128 511.339751 
L 291.995627 511.58407 
L 292.383626 511.443041 
L 292.965625 511.185068 
L 293.402124 511.181863 
L 293.644623 511.196189 
L 293.887123 511.071365 
L 294.372122 511.073394 
L 295.487619 511.296183 
L 295.875618 511.225353 
L 296.554617 511.313358 
L 296.845616 511.178723 
L 297.330615 511.32966 
L 297.524615 511.381018 
L 297.718614 511.409155 
L 298.300613 511.185928 
L 300.046609 510.916799 
L 301.938105 510.916799 
L 301.986605 511.273574 
L 302.083604 511.249796 
L 302.762603 511.084193 
L 303.538601 510.980361 
L 305.042098 510.812597 
L 307.467092 510.722939 
L 313.772078 510.603673 
L 313.917578 510.777688 
L 314.548077 510.835527 
L 314.887576 510.877108 
L 315.130075 510.92982 
L 315.518074 511.00195 
L 315.760574 511.04248 
L 316.585072 511.189367 
L 317.167071 511.141167 
L 318.331068 511.281776 
L 318.622067 511.350148 
L 320.174064 511.457002 
L 321.192562 511.543578 
L 321.629061 511.421219 
L 322.502059 511.859921 
L 322.841558 512.01692 
L 324.102555 512.05292 
L 325.654552 512.05292 
L 325.800051 512.471153 
L 337.537025 512.604439 
L 337.682525 512.240647 
L 338.264524 512.383043 
L 338.652523 512.461951 
L 339.186022 512.467029 
L 339.86502 512.57872 
L 342.047515 512.509475 
L 342.193015 426.537519 
L 361.204972 426.537516 
L 361.301972 422.96309 
L 361.398972 440.531624 
L 361.447472 440.481478 
L 361.495972 442.913966 
L 361.738471 431.492303 
L 361.980971 433.333534 
L 362.029471 433.351054 
L 362.077971 433.498731 
L 362.12647 432.275079 
L 362.17497 432.323006 
L 362.22347 432.664448 
L 362.36897 432.036314 
L 362.46597 432.370615 
L 362.562969 431.718064 
L 362.611469 431.92322 
L 362.853969 433.482604 
L 362.999468 432.873184 
L 363.484467 434.9576 
L 363.532967 434.793821 
L 363.678467 434.659132 
L 363.726967 434.852869 
L 364.066466 436.283251 
L 364.114966 436.170605 
L 364.405965 437.612749 
L 364.551465 438.078294 
L 364.599965 438.048022 
L 364.745465 438.43458 
L 364.842464 438.04485 
L 365.084964 437.408119 
L 365.133464 437.277048 
L 365.181964 437.300926 
L 365.472963 437.671882 
L 365.618463 438.113858 
L 365.715462 438.143386 
L 366.103462 437.613544 
L 366.297461 437.57715 
L 366.442961 437.205481 
L 366.58846 437.009171 
L 366.73396 436.761159 
L 366.78246 436.84162 
L 366.87946 437.109255 
L 366.97646 437.379378 
L 367.02496 437.36489 
L 367.121959 437.2126 
L 367.315959 437.472533 
L 367.364459 437.404902 
L 367.412959 437.520909 
L 367.606958 437.596718 
L 367.800958 437.121477 
L 368.091957 436.372566 
L 368.140457 436.432788 
L 368.188957 436.350916 
L 368.382956 436.284159 
L 368.576956 436.669868 
L 368.770956 436.972496 
L 368.916455 436.929414 
L 369.158955 436.633339 
L 369.207455 436.686913 
L 369.449954 436.878881 
L 369.498454 436.822035 
L 369.643954 436.799921 
L 370.031953 436.380691 
L 370.322952 436.117277 
L 370.371452 436.17084 
L 370.419952 436.107087 
L 370.613952 435.886647 
L 370.759451 435.879692 
L 370.856451 435.821999 
L 371.535449 435.426798 
L 371.777949 435.177285 
L 372.456947 434.557749 
L 372.553947 434.703174 
L 372.747947 434.751616 
L 372.796447 434.688813 
L 372.844947 434.798349 
L 373.378445 434.38918 
L 373.814944 434.772456 
L 373.911944 434.710671 
L 374.008944 434.800198 
L 374.057444 434.771479 
L 374.202943 434.773479 
L 374.396943 434.815715 
L 374.736442 434.564438 
L 374.833442 434.612232 
L 375.027442 434.702571 
L 375.415441 434.608909 
L 375.70644 434.685705 
L 375.94894 434.35799 
L 376.142939 434.352235 
L 376.336939 434.500082 
L 376.676438 434.574006 
L 376.773438 434.538186 
L 376.967437 434.763828 
L 377.258437 434.707444 
L 377.694936 434.9228 
L 378.179935 435.378264 
L 378.228435 435.314062 
L 379.246932 435.118511 
L 379.440932 435.007374 
L 380.31393 434.458172 
L 380.944428 434.26916 
L 381.380927 434.520252 
L 382.253926 434.683179 
L 382.496425 434.573171 
L 382.787424 434.551054 
L 385.212419 434.551054 
L 385.357919 420.831806 
L 385.406419 420.788254 
L 385.551918 430.133947 
L 385.745918 427.503606 
L 385.842918 428.603682 
L 385.891417 428.400348 
L 385.939917 428.089673 
L 385.988417 428.214191 
L 386.036917 428.260369 
L 386.085417 428.068034 
L 386.182417 427.399801 
L 386.279417 428.344372 
L 386.327916 428.303919 
L 386.473416 428.070042 
L 386.618916 427.092276 
L 386.667416 427.201756 
L 386.812915 427.639997 
L 386.909915 427.335036 
L 387.103915 428.078039 
L 387.249414 427.566536 
L 387.346414 427.077826 
L 387.685913 429.213958 
L 387.734413 429.11102 
L 387.782913 429.185505 
L 387.928413 429.407137 
L 388.316412 431.449981 
L 388.364912 431.261225 
L 388.510412 431.492073 
L 388.558911 431.43479 
L 388.801411 430.791808 
L 388.946911 430.886327 
L 388.99541 430.823587 
L 389.04391 430.863987 
L 389.23791 430.946519 
L 389.43191 430.554771 
L 389.674409 430.756657 
L 389.965408 431.791335 
L 390.256408 432.867524 
L 390.886906 433.990631 
L 390.935406 433.886343 
L 391.032406 433.88296 
L 391.323405 434.300416 
L 391.808404 435.633582 
L 391.856904 435.607428 
L 392.002404 435.52032 
L 392.244903 435.358891 
L 392.438903 435.203958 
L 392.632902 434.825866 
L 392.778402 434.825561 
L 392.923902 435.044351 
L 392.972402 435.005869 
L 393.214901 435.120853 
L 393.360401 435.086699 
L 393.6029 434.782296 
L 393.8454 434.589765 
L 394.039399 434.633801 
L 394.378898 434.957234 
L 395.494396 434.962282 
L 397.094892 434.962282 
L 397.240392 422.847461 
L 397.288892 421.992501 
L 397.385892 422.001568 
L 397.531391 425.866722 
L 397.579891 425.268401 
L 398.01639 421.019794 
L 398.30739 418.819475 
L 398.40439 419.222255 
L 398.501389 419.595291 
L 398.549889 419.56851 
L 398.743889 419.81031 
L 398.792389 419.70496 
L 398.840889 419.789716 
L 398.937888 420.518472 
L 399.083388 421.308925 
L 399.131888 421.300057 
L 399.277388 421.113744 
L 399.374387 421.166339 
L 399.713887 421.933551 
L 399.859386 422.029686 
L 400.150386 422.592773 
L 400.295885 422.544397 
L 400.441385 421.912722 
L 400.538385 422.078914 
L 400.586885 422.038553 
L 400.780884 421.605811 
L 400.877884 421.776465 
L 401.023384 421.867133 
L 401.508383 421.472045 
L 402.090381 422.95193 
L 402.332881 422.749575 
L 402.57538 423.055392 
L 402.86638 423.51793 
L 402.963379 423.51757 
L 403.254379 423.799748 
L 403.399878 423.85148 
L 403.496878 423.825616 
L 404.127377 424.645551 
L 404.224377 424.691517 
L 404.612376 425.363799 
L 404.951875 425.211622 
L 405.048875 425.223462 
L 405.291374 425.437762 
L 405.776373 425.645411 
L 405.970373 425.734572 
L 406.649371 425.802644 
L 408.977366 425.802644 
L 409.025866 425.356812 
L 409.122866 425.397019 
L 409.316865 425.360081 
L 409.462365 425.182527 
L 409.607865 424.997277 
L 409.801864 425.392511 
L 409.850364 425.301406 
L 409.898864 425.351317 
L 410.044364 425.561338 
L 410.141363 425.660472 
L 410.189863 425.59534 
L 410.335363 425.691556 
L 410.626362 426.263693 
L 410.868862 426.163475 
L 411.014361 426.134376 
L 411.159861 426.155468 
L 411.79036 426.957 
L 411.887359 426.912064 
L 411.935859 426.955763 
L 412.032859 426.906797 
L 412.178359 426.930593 
L 412.469358 427.116899 
L 412.711858 427.22271 
L 413.293856 427.729427 
L 413.390856 427.805143 
L 413.536356 427.988512 
L 413.730355 427.923729 
L 414.166854 428.537631 
L 414.360854 428.576636 
L 414.554853 428.830482 
L 414.748853 428.696368 
L 415.039852 428.448615 
L 415.233852 428.379793 
L 415.379352 428.195281 
L 415.767351 428.284187 
L 415.91285 428.271362 
L 416.05835 428.282342 
L 416.15535 428.307123 
L 416.688849 427.784359 
L 417.513347 427.817306 
L 417.707346 428.071533 
L 417.901346 428.2485 
L 418.046846 428.295696 
L 418.289345 428.198506 
L 420.859839 428.198506 
L 421.005339 426.797541 
L 421.199339 426.72898 
L 421.781337 424.850567 
L 422.023837 424.273209 
L 422.169336 424.294625 
L 422.508836 423.621911 
L 422.799835 423.643811 
L 423.042335 424.03991 
L 423.672833 424.085367 
L 424.060832 423.467317 
L 424.739831 423.497031 
L 424.88533 423.561821 
L 425.22483 423.658765 
L 425.806828 423.355131 
L 426.582827 423.219203 
L 426.825326 422.944581 
L 427.552824 422.614103 
L 429.104821 422.025259 
L 429.78382 421.909177 
L 430.559818 421.736568 
L 432.742313 421.736568 
L 432.839313 423.253904 
L 432.887813 423.232011 
L 433.130312 423.417739 
L 433.712311 423.90781 
L 434.05181 424.090693 
L 434.24581 424.10105 
L 434.439809 424.112259 
L 434.973308 423.750076 
L 435.409807 423.792029 
L 435.652306 423.913201 
L 435.894806 424.008829 
L 436.476805 424.070062 
L 436.719304 424.083272 
L 437.155803 424.075106 
L 438.125801 424.072038 
L 438.3683 424.036056 
L 438.804799 423.943442 
L 439.241298 423.847912 
L 439.871797 423.898977 
L 440.793295 423.907502 
L 441.326794 423.958048 
L 443.07279 423.909725 
L 444.964286 423.821069 
L 445.206785 423.748157 
L 446.710282 423.821392 
L 449.183776 423.804335 
L 469.505231 424.084566 
L 469.94173 424.073125 
L 470.281229 424.014857 
L 470.620728 424.021584 
L 471.202727 423.984846 
L 472.221225 423.853707 
L 482.891201 423.920783 
L 483.085201 423.862403 
L 483.4247 423.928006 
L 483.764199 423.858021 
L 484.103698 423.932128 
L 484.540197 424.074641 
L 486.431693 424.194502 
L 487.013692 424.243573 
L 487.353191 424.244869 
L 487.74119 424.185859 
L 488.129189 424.143242 
L 490.651184 423.913012 
L 492.15468 423.913012 
L 492.30018 424.072026 
L 502.145658 423.986473 
L 504.037154 423.986473 
L 504.182654 424.120611 
L 507.141147 424.122845 
L 516.986625 424.098403 
L 521.497115 423.959426 
L 522.806612 423.977101 
L 527.802101 423.898929 
L 527.899101 424.088311 
L 527.947601 424.072688 
L 528.3356 424.013935 
L 528.626599 424.039693 
L 528.869098 424.157872 
L 529.063098 424.145418 
L 529.645097 424.401466 
L 529.887596 424.408878 
L 530.227095 424.203762 
L 530.469595 424.081233 
L 531.536593 423.941302 
L 532.50659 423.978768 
L 533.088589 424.192426 
L 533.816087 424.160281 
L 534.349586 424.127999 
L 534.592086 424.031173 
L 535.077085 424.179053 
L 535.271084 424.228828 
L 535.465084 424.255573 
L 536.047082 424.02822 
L 537.793079 423.748025 
L 539.684574 423.748025 
L 539.733074 424.243311 
L 539.830074 424.233447 
L 540.654572 424.198265 
L 541.867069 424.229467 
L 542.497568 424.22813 
L 544.825563 424.276229 
L 552.343046 424.3225 
L 552.537046 424.35151 
L 552.828045 424.333448 
L 553.070544 424.341533 
L 553.458544 424.414695 
L 554.186042 424.576908 
L 554.91354 424.446058 
L 556.077538 424.522032 
L 556.368537 424.576012 
L 557.920534 424.613091 
L 558.939031 424.660914 
L 559.37553 424.522832 
L 560.248528 424.928028 
L 560.588028 425.072657 
L 562.334024 425.101712 
L 563.401021 425.101712 
L 563.546521 425.426489 
L 569.997007 425.355317 
L 575.283495 425.361362 
L 575.428995 425.234416 
L 576.107993 425.368034 
L 576.641492 425.386727 
L 578.484488 425.438551 
L 579.017987 425.493566 
L 579.793985 425.326897 
L 579.939485 426.537522 
L 598.951442 426.537146 
L 599.048442 387.697449 
L 599.096942 413.861936 
L 599.145442 415.552592 
L 599.484941 395.555987 
L 599.581941 394.293329 
L 599.72744 398.526106 
L 599.82444 398.484362 
L 599.96994 396.894601 
L 600.01844 396.959148 
L 600.06694 400.462431 
L 600.11544 397.792719 
L 600.260939 398.462135 
L 600.357939 396.219403 
L 600.406439 396.596384 
L 600.454939 396.945496 
L 600.551939 394.91055 
L 600.697438 398.975221 
L 600.745938 398.277841 
L 601.133937 399.994179 
L 601.230937 399.556503 
L 601.279437 397.195587 
L 601.327937 399.006861 
L 601.473437 400.453092 
L 601.618936 405.017542 
L 601.667436 406.077807 
L 601.764436 404.512274 
L 601.812936 404.876337 
L 601.861436 404.786196 
L 601.909936 404.965094 
L 601.958435 406.039777 
L 602.055435 401.877624 
L 602.103935 405.675089 
L 602.152435 400.183174 
L 602.200935 403.578159 
L 602.249435 407.948626 
L 602.346435 407.901655 
L 602.394934 409.481503 
L 602.443434 407.805963 
L 602.540434 408.639184 
L 602.588934 408.142439 
L 602.637434 407.989634 
L 602.685934 405.866585 
L 602.734434 411.892071 
L 602.831433 411.028481 
L 602.879933 411.086706 
L 602.928433 410.822696 
L 602.976933 410.917252 
L 603.122433 407.645581 
L 603.170933 407.835734 
L 603.413432 415.417411 
L 603.510432 413.852326 
L 603.558932 412.823927 
L 603.607432 412.987705 
L 603.655932 413.796241 
L 603.704432 412.762163 
L 603.752931 413.039716 
L 603.801431 412.655881 
L 603.849931 410.966269 
L 603.898431 412.889018 
L 604.043931 414.751205 
L 604.092431 414.48911 
L 604.140931 414.238387 
L 604.18943 416.705169 
L 604.23793 412.651744 
L 604.33493 413.414256 
L 604.38343 412.940084 
L 604.43193 414.377551 
L 604.48043 413.151353 
L 604.625929 413.555152 
L 604.674429 412.191313 
L 604.722929 412.325556 
L 604.771429 412.793929 
L 604.819929 412.626894 
L 604.868429 412.549783 
L 604.965429 412.974337 
L 605.013929 412.367134 
L 605.062429 412.420331 
L 605.159428 413.408709 
L 605.207928 412.049075 
L 605.304928 412.338645 
L 605.353428 413.242784 
L 605.401928 412.936376 
L 605.498928 412.877925 
L 605.547427 412.798727 
L 605.644427 414.885462 
L 605.741427 412.335269 
L 605.838427 413.159182 
L 605.886927 413.477077 
L 605.935427 412.540154 
L 605.983926 412.841692 
L 606.032426 412.829393 
L 606.080926 416.076252 
L 606.177926 408.316531 
L 606.226426 409.275887 
L 606.274926 410.156822 
L 606.371926 410.087119 
L 606.468925 410.43477 
L 606.953924 415.296857 
L 607.002424 417.577594 
L 607.050924 417.080114 
L 607.196424 415.595869 
L 607.244924 413.602933 
L 607.293424 414.951355 
L 607.390423 415.956344 
L 607.438923 414.371004 
L 607.487423 415.266264 
L 607.584423 414.595335 
L 607.681423 414.699422 
L 607.729923 414.825882 
L 607.778422 414.007658 
L 607.826922 414.43143 
L 607.875422 414.284004 
L 608.069422 409.802785 
L 608.214921 411.424348 
L 608.311921 411.311579 
L 608.505921 414.31143 
L 608.554421 414.117125 
L 608.69992 409.736702 
L 608.94242 414.940694 
L 608.99092 414.790539 
L 609.136419 412.611108 
L 609.184919 412.832485 
L 609.281919 413.037033 
L 609.378919 412.764497 
L 609.427419 410.601196 
L 609.572918 416.608228 
L 609.621418 416.564157 
L 609.766918 414.549578 
L 610.009417 415.816341 
L 610.057917 415.242788 
L 610.251917 419.119571 
L 610.348917 419.496967 
L 610.397417 418.701566 
L 610.445917 420.305523 
L 610.494416 419.621027 
L 610.542916 416.761374 
L 610.639916 432.275106 
L 610.688416 429.126227 
L 610.736916 428.863978 
L 610.833916 426.840189 
L 610.930915 428.178955 
L 611.124915 425.704368 
L 611.318915 424.622524 
L 611.464414 425.506247 
L 611.561414 428.481266 
L 611.609914 428.318058 
L 611.658414 426.875798 
L 611.755414 431.876062 
L 611.803913 431.299542 
L 611.852413 431.291557 
L 611.900913 430.300192 
L 612.094913 436.297146 
L 612.143413 435.759525 
L 612.191913 436.389564 
L 612.240413 436.481126 
L 612.385912 437.912154 
L 612.434412 437.746896 
L 612.579912 435.990738 
L 612.676912 437.954293 
L 612.870911 435.096456 
L 612.919411 435.519732 
L 613.064911 436.483778 
L 613.25891 435.344438 
L 613.30741 435.460392 
L 613.45291 434.917501 
L 613.50141 434.62295 
L 613.54991 433.311274 
L 613.598409 434.082603 
L 613.646909 434.310245 
L 613.889409 431.191587 
L 614.083408 437.662915 
L 614.228908 438.509119 
L 614.325908 438.47676 
L 614.519907 437.188703 
L 614.665407 441.757808 
L 614.810907 437.335413 
L 614.859407 437.916399 
L 614.956406 439.005211 
L 615.004906 438.094685 
L 615.053406 438.975118 
L 615.101906 439.15482 
L 615.150406 437.444301 
L 615.198906 437.695621 
L 615.392905 442.06609 
L 615.441405 440.560872 
L 615.489905 441.188326 
L 615.538405 444.187138 
L 615.635405 444.15407 
L 615.732405 438.952757 
L 615.877904 444.288427 
L 615.974904 442.328363 
L 616.023404 443.844289 
L 616.120404 443.74919 
L 616.168904 442.461304 
L 616.217404 442.930477 
L 616.314403 443.96993 
L 616.362903 443.741735 
L 616.459903 439.562484 
L 616.508403 439.93364 
L 616.556903 439.840529 
L 616.799402 442.794491 
L 616.993402 443.327928 
L 617.041902 441.901483 
L 617.090402 441.949102 
L 617.187401 444.453952 
L 617.235901 443.795463 
L 617.429901 442.350255 
L 617.526901 437.918992 
L 617.6239 438.145098 
L 617.6724 438.443673 
L 617.7209 441.606572 
L 617.7694 439.366686 
L 617.8179 439.52913 
L 617.8664 441.735799 
L 617.9634 441.197716 
L 618.0119 441.090693 
L 618.108899 440.49727 
L 618.157399 441.174333 
L 618.254399 440.994351 
L 618.302899 441.256228 
L 618.593898 438.570838 
L 618.642398 438.520082 
L 618.836398 443.184726 
L 618.884898 443.939852 
L 618.981897 442.120827 
L 619.030397 442.143795 
L 619.078897 442.481748 
L 619.175897 442.39155 
L 619.224397 442.259808 
L 619.272897 441.798729 
L 619.321397 441.887148 
L 619.515396 443.589724 
L 619.563896 443.509012 
L 619.612396 443.785787 
L 620.000395 439.763911 
L 620.097395 441.384051 
L 620.242895 437.170173 
L 620.291395 437.80673 
L 622.958889 437.80673 
L 623.104388 410.099689 
L 623.152888 406.294045 
L 623.298388 419.333271 
L 623.346888 418.936636 
L 623.395388 419.880491 
L 623.443888 419.322643 
L 623.492387 418.530563 
L 623.589387 420.190401 
L 623.637887 420.1638 
L 623.686387 420.216717 
L 623.831887 421.170459 
L 623.880387 420.769407 
L 623.928886 421.040244 
L 624.122886 423.301983 
L 624.171386 423.487439 
L 624.219886 423.404102 
L 624.365385 422.68279 
L 624.413885 422.927863 
L 624.559385 423.560619 
L 624.656385 423.286184 
L 624.801884 424.062598 
L 624.850384 424.034435 
L 624.898884 423.927473 
L 625.092884 422.780189 
L 625.432383 424.931061 
L 625.480883 424.829871 
L 625.577883 424.878526 
L 625.626383 424.825543 
L 625.674883 424.93069 
L 626.014382 426.996519 
L 626.111382 426.821578 
L 626.305381 427.087398 
L 626.547881 426.544247 
L 626.69338 426.764454 
L 626.74188 426.701334 
L 626.79038 426.750496 
L 626.98438 426.914447 
L 627.03288 426.760387 
L 627.372379 426.48813 
L 627.469379 426.872843 
L 628.245377 429.682148 
L 628.633376 430.211395 
L 628.778876 430.059907 
L 628.924375 430.211983 
L 629.554874 432.452883 
L 630.330872 430.9556 
L 630.379372 430.881206 
L 630.427872 430.974509 
L 630.573372 431.537352 
L 630.767371 431.941358 
L 630.815871 431.893424 
L 630.864371 431.99351 
L 630.961371 432.136449 
L 631.009871 432.0239 
L 631.15537 431.486013 
L 631.20387 431.594851 
L 631.30087 431.639197 
L 631.44637 431.383434 
L 631.49487 431.4242 
L 631.543369 431.352786 
L 631.834369 431.136043 
L 631.931369 431.264086 
L 631.979868 431.144344 
L 632.028368 431.190511 
L 632.173868 431.23466 
L 634.841362 431.23466 
L 634.986862 413.995136 
L 635.035362 413.796604 
L 635.277861 421.523812 
L 635.374861 420.85576 
L 635.66586 417.854807 
L 635.76286 418.090801 
L 635.81136 417.892809 
L 636.053859 416.375617 
L 636.102359 416.461127 
L 636.296359 417.318276 
L 636.490358 417.643245 
L 636.538858 417.566517 
L 636.587358 417.696752 
L 636.684358 418.541233 
L 636.878358 419.44886 
L 636.926857 419.33682 
L 637.023857 419.384088 
L 637.120857 419.524507 
L 637.460356 420.497839 
L 637.605856 420.647162 
L 637.896855 421.276882 
L 638.042355 421.216614 
L 638.187855 420.604221 
L 638.284854 420.813733 
L 638.333354 420.78155 
L 638.527354 420.336709 
L 638.624354 420.49733 
L 638.721353 420.599907 
L 638.769853 420.561671 
L 639.254852 420.089335 
L 639.836851 421.601656 
L 640.07935 421.422039 
L 640.32185 421.767827 
L 640.612849 422.183925 
L 640.709849 422.158364 
L 641.049348 422.490043 
L 641.243348 422.490319 
L 641.922346 423.323167 
L 642.019346 423.471351 
L 642.261846 423.934456 
L 642.407345 423.890961 
L 642.601345 423.737811 
L 642.892344 423.826822 
L 643.086344 423.88644 
L 644.153341 424.102621 
L 646.723836 424.102621 
L 646.869335 425.851386 
L 647.014835 425.843464 
L 647.354334 425.28911 
L 647.402834 425.44583 
L 647.548334 425.667755 
L 647.596834 425.561486 
L 647.645334 425.607789 
L 647.742333 425.718651 
L 647.887833 425.890918 
L 648.033333 425.819701 
L 648.130332 426.031865 
L 648.324332 426.440742 
L 649.05183 426.240426 
L 649.682329 426.968781 
L 649.779329 426.910219 
L 649.924828 426.921442 
L 650.215828 427.090817 
L 650.458327 427.188049 
L 651.040326 427.690404 
L 651.137326 427.768036 
L 651.282825 427.956187 
L 651.428325 427.863871 
L 651.573825 428.035975 
L 652.301323 428.810606 
L 652.495323 428.667162 
L 652.786322 428.402365 
L 652.980322 428.331354 
L 653.125821 428.139116 
L 653.465321 428.211501 
L 653.65932 428.207771 
L 653.80482 428.210235 
L 653.90182 428.229665 
L 654.435318 427.665317 
L 655.211317 427.641615 
L 655.744815 428.213504 
L 657.830311 428.110217 
L 658.606309 428.110217 
L 658.751809 426.391153 
L 658.945808 426.366951 
L 659.479307 424.751952 
L 659.721807 424.06137 
L 659.818806 424.014111 
L 659.915806 424.053578 
L 660.255305 423.41397 
L 660.546305 423.490947 
L 660.788804 423.920125 
L 661.370803 424.086775 
L 661.855802 423.417952 
L 662.049801 423.474481 
L 662.292301 423.549451 
L 662.7773 423.59585 
L 662.922799 423.597577 
L 663.310799 423.386673 
L 663.601798 423.263579 
L 664.183797 423.27795 
L 665.347794 422.480342 
L 665.784293 422.216326 
L 666.317792 422.030834 
L 667.384789 421.841147 
L 668.306287 421.656184 
L 670.488783 421.656184 
L 670.585782 423.417562 
L 670.634282 423.401463 
L 671.216281 423.633342 
L 671.60428 423.964404 
L 672.186279 423.843036 
L 672.719778 423.364618 
L 673.156277 423.324489 
L 673.350276 423.399623 
L 673.883775 423.416529 
L 674.077775 423.433259 
L 674.902273 423.400647 
L 675.872271 423.319605 
L 676.16327 423.261123 
L 676.890768 423.054786 
L 677.181768 423.058753 
L 677.424267 423.068225 
L 678.394265 422.983056 
L 679.364263 423.004655 
L 679.897762 422.973182 
L 682.468256 423.079583 
L 683.195754 423.089009 
L 706.378703 423.314129 
L 707.3972 423.667164 
L 708.221698 423.532729 
L 708.900697 423.525326 
L 710.840693 423.367275 
L 711.713691 423.390646 
L 712.586689 423.356471 
L 718.018677 423.36284 
L 718.164176 422.985622 
L 718.406676 422.981597 
L 718.988674 423.030533 
L 719.376674 423.042635 
L 719.764673 423.021431 
L 720.104172 423.121982 
L 720.298171 423.191243 
L 720.97717 423.074836 
L 721.219669 423.028985 
L 721.462169 422.97162 
L 721.898668 423.113648 
L 722.189667 423.262027 
L 722.723166 423.316608 
L 723.547664 423.288412 
L 724.420662 423.565054 
L 724.760162 423.578891 
L 725.051161 423.564192 
L 725.39066 423.550376 
L 726.215158 423.311334 
L 726.409158 423.269632 
L 726.845657 423.189354 
L 727.573155 423.15148 
L 729.90115 423.15148 
L 730.04665 423.520123 
L 733.926641 423.41469 
L 736.206136 423.249726 
L 738.388631 423.15812 
L 740.377127 423.145923 
L 741.783624 423.145923 
L 741.929123 423.336038 
L 744.451118 423.377424 
L 746.730613 423.403856 
L 753.666097 423.492233 
L 753.811597 423.873349 
L 755.169594 423.790031 
L 756.382091 423.731465 
L 757.934088 423.736796 
L 765.548571 423.630597 
L 765.69407 423.783147 
L 766.082069 423.789897 
L 766.421569 423.912932 
L 766.664068 423.984937 
L 767.246067 424.254961 
L 767.537066 424.403954 
L 767.925065 424.258036 
L 768.167565 424.070951 
L 768.749563 424.088372 
L 768.895063 424.078524 
L 769.137563 424.106939 
L 769.380062 423.985747 
L 769.865061 424.011743 
L 770.980558 424.292448 
L 771.368558 424.229781 
L 772.047556 424.342485 
L 772.338555 424.207435 
L 772.823554 424.379991 
L 773.017554 424.438777 
L 773.211553 424.471617 
L 773.793552 424.245971 
L 775.636548 423.97829 
L 777.431044 423.97829 
L 777.479544 424.93806 
L 777.576544 424.924341 
L 778.061543 424.942434 
L 778.740541 424.938762 
L 779.08004 424.960668 
L 779.710539 424.963336 
L 784.124029 424.968627 
L 786.355024 424.920224 
L 788.586019 424.906581 
L 790.186516 425.014552 
L 791.835512 425.291751 
L 792.078011 425.247453 
L 792.66001 425.193596 
L 794.018007 425.343893 
L 794.794005 425.381465 
L 795.036505 425.356033 
L 796.685501 425.52336 
L 797.122 425.395331 
L 797.994998 425.816515 
L 798.334497 425.966975 
L 799.837994 425.999105 
L 801.147491 425.999105 
L 801.292991 426.379672 
L 814.824461 426.396576 
L 815.551959 426.379225 
L 815.891458 426.344109 
L 816.327957 426.421507 
L 816.715956 426.465261 
L 817.152455 426.346847 
L 817.540455 426.261968 
L 817.540455 426.261968 
" clip-path="url(#pa252252ef5)" style="fill: none; stroke-dasharray: 5.55,2.4; stroke-dashoffset: 0; stroke: #ff0000; stroke-width: 1.5"/>
   </g>
   <g id="line2d_61">
    <path d="M 342.096015 534.04 
L 342.096015 302.44 
" clip-path="url(#pa252252ef5)" style="fill: none; stroke-dasharray: 1.5,2.475; stroke-dashoffset: 0; stroke: #808080; stroke-opacity: 0.6; stroke-width: 1.5"/>
   </g>
   <g id="line2d_62">
    <path d="M 579.842485 534.04 
L 579.842485 302.44 
" clip-path="url(#pa252252ef5)" style="fill: none; stroke-dasharray: 1.5,2.475; stroke-dashoffset: 0; stroke: #808080; stroke-opacity: 0.6; stroke-width: 1.5"/>
   </g>
   <g id="patch_9">
    <path d="M 68.69 534.04 
L 68.69 302.44 
" style="fill: none; stroke: #000000; stroke-width: 0.8; stroke-linejoin: miter; stroke-linecap: square"/>
   </g>
   <g id="patch_10">
    <path d="M 853.2 534.04 
L 853.2 302.44 
" style="fill: none; stroke: #000000; stroke-width: 0.8; stroke-linejoin: miter; stroke-linecap: square"/>
   </g>
   <g id="patch_11">
    <path d="M 68.69 534.04 
L 853.2 534.04 
" style="fill: none; stroke: #000000; stroke-width: 0.8; stroke-linejoin: miter; stroke-linecap: square"/>
   </g>
   <g id="patch_12">
    <path d="M 68.69 302.44 
L 853.2 302.44 
" style="fill: none; stroke: #000000; stroke-width: 0.8; stroke-linejoin: miter; stroke-linecap: square"/>
   </g>
   <g id="text_33">
    <!-- [33] rx  —  State Estimate -->
    <g transform="translate(382.943125 296.44) scale(0.12 -0.12)">
     <use xlink:href="#DejaVuSans-5b"/>
     <use xlink:href="#DejaVuSans-33" transform="translate(39.013672 0)"/>
     <use xlink:href="#DejaVuSans-33" transform="translate(102.636719 0)"/>
     <use xlink:href="#DejaVuSans-5d" transform="translate(166.259766 0)"/>
     <use xlink:href="#DejaVuSans-20" transform="translate(205.273438 0)"/>
     <use xlink:href="#DejaVuSans-72" transform="translate(237.060547 0)"/>
     <use xlink:href="#DejaVuSans-78" transform="translate(275.548828 0)"/>
     <use xlink:href="#DejaVuSans-20" transform="translate(334.728516 0)"/>
     <use xlink:href="#DejaVuSans-20" transform="translate(366.515625 0)"/>
     <use xlink:href="#DejaVuSans-2014" transform="translate(398.302734 0)"/>
     <use xlink:href="#DejaVuSans-20" transform="translate(498.302734 0)"/>
     <use xlink:href="#DejaVuSans-20" transform="translate(530.089844 0)"/>
     <use xlink:href="#DejaVuSans-53" transform="translate(561.876953 0)"/>
     <use xlink:href="#DejaVuSans-74" transform="translate(625.353516 0)"/>
     <use xlink:href="#DejaVuSans-61" transform="translate(664.5625 0)"/>
     <use xlink:href="#DejaVuSans-74" transform="translate(725.841797 0)"/>
     <use xlink:href="#DejaVuSans-65" transform="translate(765.050781 0)"/>
     <use xlink:href="#DejaVuSans-20" transform="translate(826.574219 0)"/>
     <use xlink:href="#DejaVuSans-45" transform="translate(858.361328 0)"/>
     <use xlink:href="#DejaVuSans-73" transform="translate(921.544922 0)"/>
     <use xlink:href="#DejaVuSans-74" transform="translate(973.644531 0)"/>
     <use xlink:href="#DejaVuSans-69" transform="translate(1012.853516 0)"/>
     <use xlink:href="#DejaVuSans-6d" transform="translate(1040.636719 0)"/>
     <use xlink:href="#DejaVuSans-61" transform="translate(1138.048828 0)"/>
     <use xlink:href="#DejaVuSans-74" transform="translate(1199.328125 0)"/>
     <use xlink:href="#DejaVuSans-65" transform="translate(1238.537109 0)"/>
    </g>
   </g>
   <g id="legend_2">
    <g id="patch_13">
     <path d="M 738.401562 339.79625 
L 846.2 339.79625 
Q 848.2 339.79625 848.2 337.79625 
L 848.2 309.44 
Q 848.2 307.44 846.2 307.44 
L 738.401562 307.44 
Q 736.401562 307.44 736.401562 309.44 
L 736.401562 337.79625 
Q 736.401562 339.79625 738.401562 339.79625 
z
" style="fill: #ffffff; opacity: 0.8; stroke: #cccccc; stroke-linejoin: miter"/>
    </g>
    <g id="line2d_63">
     <path d="M 740.401562 315.538437 
L 750.401562 315.538437 
L 760.401562 315.538437 
" style="fill: none; stroke: #0000ff; stroke-width: 1.5; stroke-linecap: square"/>
    </g>
    <g id="text_34">
     <!-- No Noise -->
     <g transform="translate(768.401562 319.038437) scale(0.1 -0.1)">
      <use xlink:href="#DejaVuSans-4e"/>
      <use xlink:href="#DejaVuSans-6f" transform="translate(74.804688 0)"/>
      <use xlink:href="#DejaVuSans-20" transform="translate(135.986328 0)"/>
      <use xlink:href="#DejaVuSans-4e" transform="translate(167.773438 0)"/>
      <use xlink:href="#DejaVuSans-6f" transform="translate(242.578125 0)"/>
      <use xlink:href="#DejaVuSans-69" transform="translate(303.759766 0)"/>
      <use xlink:href="#DejaVuSans-73" transform="translate(331.542969 0)"/>
      <use xlink:href="#DejaVuSans-65" transform="translate(383.642578 0)"/>
     </g>
    </g>
    <g id="line2d_64">
     <path d="M 740.401562 330.216562 
L 750.401562 330.216562 
L 760.401562 330.216562 
" style="fill: none; stroke-dasharray: 5.55,2.4; stroke-dashoffset: 0; stroke: #ff0000; stroke-width: 1.5"/>
    </g>
    <g id="text_35">
     <!-- With ARW/VRW -->
     <g transform="translate(768.401562 333.716562) scale(0.1 -0.1)">
      <use xlink:href="#DejaVuSans-57"/>
      <use xlink:href="#DejaVuSans-69" transform="translate(96.626953 0)"/>
      <use xlink:href="#DejaVuSans-74" transform="translate(124.410156 0)"/>
      <use xlink:href="#DejaVuSans-68" transform="translate(163.619141 0)"/>
      <use xlink:href="#DejaVuSans-20" transform="translate(226.998047 0)"/>
      <use xlink:href="#DejaVuSans-41" transform="translate(258.785156 0)"/>
      <use xlink:href="#DejaVuSans-52" transform="translate(327.193359 0)"/>
      <use xlink:href="#DejaVuSans-57" transform="translate(392.675781 0)"/>
      <use xlink:href="#DejaVuSans-2f" transform="translate(491.552734 0)"/>
      <use xlink:href="#DejaVuSans-56" transform="translate(525.244141 0)"/>
      <use xlink:href="#DejaVuSans-52" transform="translate(593.652344 0)"/>
      <use xlink:href="#DejaVuSans-57" transform="translate(659.134766 0)"/>
     </g>
    </g>
   </g>
  </g>
 </g>
 <defs>
  <clipPath id="pa636876bc3">
   <rect x="68.69" y="26.88" width="784.51" height="231.6"/>
  </clipPath>
  <clipPath id="pa252252ef5">
   <rect x="68.69" y="302.44" width="784.51" height="231.6"/>
  </clipPath>
 </defs>
</svg>
