<?xml version="1.0" encoding="utf-8" standalone="no"?>
<!DOCTYPE svg PUBLIC "-//W3C//DTD SVG 1.1//EN"
  "http://www.w3.org/Graphics/SVG/1.1/DTD/svg11.dtd">
<svg xmlns:xlink="http://www.w3.org/1999/xlink" width="864pt" height="576pt" viewBox="0 0 864 576" xmlns="http://www.w3.org/2000/svg" version="1.1">
 <metadata>
  <rdf:RDF xmlns:dc="http://purl.org/dc/elements/1.1/" xmlns:cc="http://creativecommons.org/ns#" xmlns:rdf="http://www.w3.org/1999/02/22-rdf-syntax-ns#">
   <cc:Work>
    <dc:type rdf:resource="http://purl.org/dc/dcmitype/StillImage"/>
    <dc:date>2026-03-03T11:38:14.071706</dc:date>
    <dc:format>image/svg+xml</dc:format>
    <dc:creator>
     <cc:Agent>
      <dc:title>Matplotlib v3.10.8, https://matplotlib.org/</dc:title>
     </cc:Agent>
    </dc:creator>
   </cc:Work>
  </rdf:RDF>
 </metadata>
 <defs>
  <style type="text/css">*{stroke-linejoin: round; stroke-linecap: butt}</style>
 </defs>
 <g id="figure_1">
  <g id="patch_1">
   <path d="M 0 576 
L 864 576 
L 864 0 
L 0 0 
z
" style="fill: #ffffff"/>
  </g>
  <g id="axes_1">
   <g id="patch_2">
    <path d="M 68.69 258.48 
L 853.2 258.48 
L 853.2 26.88 
L 68.69 26.88 
z
" style="fill: #ffffff"/>
   </g>
   <g id="matplotlib.axis_1">
    <g id="xtick_1">
     <g id="line2d_1">
      <path d="M 104.349545 258.48 
L 104.349545 26.88 
" clip-path="url(#p08376091d4)" style="fill: none; stroke: #b0b0b0; stroke-width: 0.8; stroke-linecap: square"/>
     </g>
     <g id="line2d_2">
      <defs>
       <path id="m5f21a4cd15" d="M 0 0 
L 0 3.5 
" style="stroke: #000000; stroke-width: 0.8"/>
      </defs>
      <g>
       <use xlink:href="#m5f21a4cd15" x="104.349545" y="258.48" style="stroke: #000000; stroke-width: 0.8"/>
      </g>
     </g>
     <g id="text_1">
      <!-- 0 -->
      <g transform="translate(101.168295 273.078438) scale(0.1 -0.1)">
       <defs>
        <path id="DejaVuSans-30" d="M 2034 4250 
Q 1547 4250 1301 3770 
Q 1056 3291 1056 2328 
Q 1056 1369 1301 889 
Q 1547 409 2034 409 
Q 2525 409 2770 889 
Q 3016 1369 3016 2328 
Q 3016 3291 2770 3770 
Q 2525 4250 2034 4250 
z
M 2034 4750 
Q 2819 4750 3233 4129 
Q 3647 3509 3647 2328 
Q 3647 1150 3233 529 
Q 2819 -91 2034 -91 
Q 1250 -91 836 529 
Q 422 1150 422 2328 
Q 422 3509 836 4129 
Q 1250 4750 2034 4750 
z
" transform="scale(0.015625)"/>
       </defs>
       <use xlink:href="#DejaVuSans-30"/>
      </g>
     </g>
    </g>
    <g id="xtick_2">
     <g id="line2d_3">
      <path d="M 225.599275 258.48 
L 225.599275 26.88 
" clip-path="url(#p08376091d4)" style="fill: none; stroke: #b0b0b0; stroke-width: 0.8; stroke-linecap: square"/>
     </g>
     <g id="line2d_4">
      <g>
       <use xlink:href="#m5f21a4cd15" x="225.599275" y="258.48" style="stroke: #000000; stroke-width: 0.8"/>
      </g>
     </g>
     <g id="text_2">
      <!-- 50 -->
      <g transform="translate(219.236775 273.078438) scale(0.1 -0.1)">
       <defs>
        <path id="DejaVuSans-35" d="M 691 4666 
L 3169 4666 
L 3169 4134 
L 1269 4134 
L 1269 2991 
Q 1406 3038 1543 3061 
Q 1681 3084 1819 3084 
Q 2600 3084 3056 2656 
Q 3513 2228 3513 1497 
Q 3513 744 3044 326 
Q 2575 -91 1722 -91 
Q 1428 -91 1123 -41 
Q 819 9 494 109 
L 494 744 
Q 775 591 1075 516 
Q 1375 441 1709 441 
Q 2250 441 2565 725 
Q 2881 1009 2881 1497 
Q 2881 1984 2565 2268 
Q 2250 2553 1709 2553 
Q 1456 2553 1204 2497 
Q 953 2441 691 2322 
L 691 4666 
z
" transform="scale(0.015625)"/>
       </defs>
       <use xlink:href="#DejaVuSans-35"/>
       <use xlink:href="#DejaVuSans-30" transform="translate(63.623047 0)"/>
      </g>
     </g>
    </g>
    <g id="xtick_3">
     <g id="line2d_5">
      <path d="M 346.849005 258.48 
L 346.849005 26.88 
" clip-path="url(#p08376091d4)" style="fill: none; stroke: #b0b0b0; stroke-width: 0.8; stroke-linecap: square"/>
     </g>
     <g id="line2d_6">
      <g>
       <use xlink:href="#m5f21a4cd15" x="346.849005" y="258.48" style="stroke: #000000; stroke-width: 0.8"/>
      </g>
     </g>
     <g id="text_3">
      <!-- 100 -->
      <g transform="translate(337.305255 273.078438) scale(0.1 -0.1)">
       <defs>
        <path id="DejaVuSans-31" d="M 794 531 
L 1825 531 
L 1825 4091 
L 703 3866 
L 703 4441 
L 1819 4666 
L 2450 4666 
L 2450 531 
L 3481 531 
L 3481 0 
L 794 0 
L 794 531 
z
" transform="scale(0.015625)"/>
       </defs>
       <use xlink:href="#DejaVuSans-31"/>
       <use xlink:href="#DejaVuSans-30" transform="translate(63.623047 0)"/>
       <use xlink:href="#DejaVuSans-30" transform="translate(127.246094 0)"/>
      </g>
     </g>
    </g>
    <g id="xtick_4">
     <g id="line2d_7">
      <path d="M 468.098734 258.48 
L 468.098734 26.88 
" clip-path="url(#p08376091d4)" style="fill: none; stroke: #b0b0b0; stroke-width: 0.8; stroke-linecap: square"/>
     </g>
     <g id="line2d_8">
      <g>
       <use xlink:href="#m5f21a4cd15" x="468.098734" y="258.48" style="stroke: #000000; stroke-width: 0.8"/>
      </g>
     </g>
     <g id="text_4">
      <!-- 150 -->
      <g transform="translate(458.554984 273.078438) scale(0.1 -0.1)">
       <use xlink:href="#DejaVuSans-31"/>
       <use xlink:href="#DejaVuSans-35" transform="translate(63.623047 0)"/>
       <use xlink:href="#DejaVuSans-30" transform="translate(127.246094 0)"/>
      </g>
     </g>
    </g>
    <g id="xtick_5">
     <g id="line2d_9">
      <path d="M 589.348464 258.48 
L 589.348464 26.88 
" clip-path="url(#p08376091d4)" style="fill: none; stroke: #b0b0b0; stroke-width: 0.8; stroke-linecap: square"/>
     </g>
     <g id="line2d_10">
      <g>
       <use xlink:href="#m5f21a4cd15" x="589.348464" y="258.48" style="stroke: #000000; stroke-width: 0.8"/>
      </g>
     </g>
     <g id="text_5">
      <!-- 200 -->
      <g transform="translate(579.804714 273.078438) scale(0.1 -0.1)">
       <defs>
        <path id="DejaVuSans-32" d="M 1228 531 
L 3431 531 
L 3431 0 
L 469 0 
L 469 531 
Q 828 903 1448 1529 
Q 2069 2156 2228 2338 
Q 2531 2678 2651 2914 
Q 2772 3150 2772 3378 
Q 2772 3750 2511 3984 
Q 2250 4219 1831 4219 
Q 1534 4219 1204 4116 
Q 875 4013 500 3803 
L 500 4441 
Q 881 4594 1212 4672 
Q 1544 4750 1819 4750 
Q 2544 4750 2975 4387 
Q 3406 4025 3406 3419 
Q 3406 3131 3298 2873 
Q 3191 2616 2906 2266 
Q 2828 2175 2409 1742 
Q 1991 1309 1228 531 
z
" transform="scale(0.015625)"/>
       </defs>
       <use xlink:href="#DejaVuSans-32"/>
       <use xlink:href="#DejaVuSans-30" transform="translate(63.623047 0)"/>
       <use xlink:href="#DejaVuSans-30" transform="translate(127.246094 0)"/>
      </g>
     </g>
    </g>
    <g id="xtick_6">
     <g id="line2d_11">
      <path d="M 710.598193 258.48 
L 710.598193 26.88 
" clip-path="url(#p08376091d4)" style="fill: none; stroke: #b0b0b0; stroke-width: 0.8; stroke-linecap: square"/>
     </g>
     <g id="line2d_12">
      <g>
       <use xlink:href="#m5f21a4cd15" x="710.598193" y="258.48" style="stroke: #000000; stroke-width: 0.8"/>
      </g>
     </g>
     <g id="text_6">
      <!-- 250 -->
      <g transform="translate(701.054443 273.078438) scale(0.1 -0.1)">
       <use xlink:href="#DejaVuSans-32"/>
       <use xlink:href="#DejaVuSans-35" transform="translate(63.623047 0)"/>
       <use xlink:href="#DejaVuSans-30" transform="translate(127.246094 0)"/>
      </g>
     </g>
    </g>
    <g id="xtick_7">
     <g id="line2d_13">
      <path d="M 831.847923 258.48 
L 831.847923 26.88 
" clip-path="url(#p08376091d4)" style="fill: none; stroke: #b0b0b0; stroke-width: 0.8; stroke-linecap: square"/>
     </g>
     <g id="line2d_14">
      <g>
       <use xlink:href="#m5f21a4cd15" x="831.847923" y="258.48" style="stroke: #000000; stroke-width: 0.8"/>
      </g>
     </g>
     <g id="text_7">
      <!-- 300 -->
      <g transform="translate(822.304173 273.078438) scale(0.1 -0.1)">
       <defs>
        <path id="DejaVuSans-33" d="M 2597 2516 
Q 3050 2419 3304 2112 
Q 3559 1806 3559 1356 
Q 3559 666 3084 287 
Q 2609 -91 1734 -91 
Q 1441 -91 1130 -33 
Q 819 25 488 141 
L 488 750 
Q 750 597 1062 519 
Q 1375 441 1716 441 
Q 2309 441 2620 675 
Q 2931 909 2931 1356 
Q 2931 1769 2642 2001 
Q 2353 2234 1838 2234 
L 1294 2234 
L 1294 2753 
L 1863 2753 
Q 2328 2753 2575 2939 
Q 2822 3125 2822 3475 
Q 2822 3834 2567 4026 
Q 2313 4219 1838 4219 
Q 1578 4219 1281 4162 
Q 984 4106 628 3988 
L 628 4550 
Q 988 4650 1302 4700 
Q 1616 4750 1894 4750 
Q 2613 4750 3031 4423 
Q 3450 4097 3450 3541 
Q 3450 3153 3228 2886 
Q 3006 2619 2597 2516 
z
" transform="scale(0.015625)"/>
       </defs>
       <use xlink:href="#DejaVuSans-33"/>
       <use xlink:href="#DejaVuSans-30" transform="translate(63.623047 0)"/>
       <use xlink:href="#DejaVuSans-30" transform="translate(127.246094 0)"/>
      </g>
     </g>
    </g>
   </g>
   <g id="matplotlib.axis_2">
    <g id="ytick_1">
     <g id="line2d_15">
      <path d="M 68.69 249.261695 
L 853.2 249.261695 
" clip-path="url(#p08376091d4)" style="fill: none; stroke: #b0b0b0; stroke-width: 0.8; stroke-linecap: square"/>
     </g>
     <g id="line2d_16">
      <defs>
       <path id="m3c5dbb50d8" d="M 0 0 
L -3.5 0 
" style="stroke: #000000; stroke-width: 0.8"/>
      </defs>
      <g>
       <use xlink:href="#m3c5dbb50d8" x="68.69" y="249.261695" style="stroke: #000000; stroke-width: 0.8"/>
      </g>
     </g>
     <g id="text_8">
      <!-- 0.0 -->
      <g transform="translate(45.786875 253.060914) scale(0.1 -0.1)">
       <defs>
        <path id="DejaVuSans-2e" d="M 684 794 
L 1344 794 
L 1344 0 
L 684 0 
L 684 794 
z
" transform="scale(0.015625)"/>
       </defs>
       <use xlink:href="#DejaVuSans-30"/>
       <use xlink:href="#DejaVuSans-2e" transform="translate(63.623047 0)"/>
       <use xlink:href="#DejaVuSans-30" transform="translate(95.410156 0)"/>
      </g>
     </g>
    </g>
    <g id="ytick_2">
     <g id="line2d_17">
      <path d="M 68.69 206.890811 
L 853.2 206.890811 
" clip-path="url(#p08376091d4)" style="fill: none; stroke: #b0b0b0; stroke-width: 0.8; stroke-linecap: square"/>
     </g>
     <g id="line2d_18">
      <g>
       <use xlink:href="#m3c5dbb50d8" x="68.69" y="206.890811" style="stroke: #000000; stroke-width: 0.8"/>
      </g>
     </g>
     <g id="text_9">
      <!-- 0.2 -->
      <g transform="translate(45.786875 210.690029) scale(0.1 -0.1)">
       <use xlink:href="#DejaVuSans-30"/>
       <use xlink:href="#DejaVuSans-2e" transform="translate(63.623047 0)"/>
       <use xlink:href="#DejaVuSans-32" transform="translate(95.410156 0)"/>
      </g>
     </g>
    </g>
    <g id="ytick_3">
     <g id="line2d_19">
      <path d="M 68.69 164.519926 
L 853.2 164.519926 
" clip-path="url(#p08376091d4)" style="fill: none; stroke: #b0b0b0; stroke-width: 0.8; stroke-linecap: square"/>
     </g>
     <g id="line2d_20">
      <g>
       <use xlink:href="#m3c5dbb50d8" x="68.69" y="164.519926" style="stroke: #000000; stroke-width: 0.8"/>
      </g>
     </g>
     <g id="text_10">
      <!-- 0.4 -->
      <g transform="translate(45.786875 168.319145) scale(0.1 -0.1)">
       <defs>
        <path id="DejaVuSans-34" d="M 2419 4116 
L 825 1625 
L 2419 1625 
L 2419 4116 
z
M 2253 4666 
L 3047 4666 
L 3047 1625 
L 3713 1625 
L 3713 1100 
L 3047 1100 
L 3047 0 
L 2419 0 
L 2419 1100 
L 313 1100 
L 313 1709 
L 2253 4666 
z
" transform="scale(0.015625)"/>
       </defs>
       <use xlink:href="#DejaVuSans-30"/>
       <use xlink:href="#DejaVuSans-2e" transform="translate(63.623047 0)"/>
       <use xlink:href="#DejaVuSans-34" transform="translate(95.410156 0)"/>
      </g>
     </g>
    </g>
    <g id="ytick_4">
     <g id="line2d_21">
      <path d="M 68.69 122.149042 
L 853.2 122.149042 
" clip-path="url(#p08376091d4)" style="fill: none; stroke: #b0b0b0; stroke-width: 0.8; stroke-linecap: square"/>
     </g>
     <g id="line2d_22">
      <g>
       <use xlink:href="#m3c5dbb50d8" x="68.69" y="122.149042" style="stroke: #000000; stroke-width: 0.8"/>
      </g>
     </g>
     <g id="text_11">
      <!-- 0.6 -->
      <g transform="translate(45.786875 125.94826) scale(0.1 -0.1)">
       <defs>
        <path id="DejaVuSans-36" d="M 2113 2584 
Q 1688 2584 1439 2293 
Q 1191 2003 1191 1497 
Q 1191 994 1439 701 
Q 1688 409 2113 409 
Q 2538 409 2786 701 
Q 3034 994 3034 1497 
Q 3034 2003 2786 2293 
Q 2538 2584 2113 2584 
z
M 3366 4563 
L 3366 3988 
Q 3128 4100 2886 4159 
Q 2644 4219 2406 4219 
Q 1781 4219 1451 3797 
Q 1122 3375 1075 2522 
Q 1259 2794 1537 2939 
Q 1816 3084 2150 3084 
Q 2853 3084 3261 2657 
Q 3669 2231 3669 1497 
Q 3669 778 3244 343 
Q 2819 -91 2113 -91 
Q 1303 -91 875 529 
Q 447 1150 447 2328 
Q 447 3434 972 4092 
Q 1497 4750 2381 4750 
Q 2619 4750 2861 4703 
Q 3103 4656 3366 4563 
z
" transform="scale(0.015625)"/>
       </defs>
       <use xlink:href="#DejaVuSans-30"/>
       <use xlink:href="#DejaVuSans-2e" transform="translate(63.623047 0)"/>
       <use xlink:href="#DejaVuSans-36" transform="translate(95.410156 0)"/>
      </g>
     </g>
    </g>
    <g id="ytick_5">
     <g id="line2d_23">
      <path d="M 68.69 79.778157 
L 853.2 79.778157 
" clip-path="url(#p08376091d4)" style="fill: none; stroke: #b0b0b0; stroke-width: 0.8; stroke-linecap: square"/>
     </g>
     <g id="line2d_24">
      <g>
       <use xlink:href="#m3c5dbb50d8" x="68.69" y="79.778157" style="stroke: #000000; stroke-width: 0.8"/>
      </g>
     </g>
     <g id="text_12">
      <!-- 0.8 -->
      <g transform="translate(45.786875 83.577376) scale(0.1 -0.1)">
       <defs>
        <path id="DejaVuSans-38" d="M 2034 2216 
Q 1584 2216 1326 1975 
Q 1069 1734 1069 1313 
Q 1069 891 1326 650 
Q 1584 409 2034 409 
Q 2484 409 2743 651 
Q 3003 894 3003 1313 
Q 3003 1734 2745 1975 
Q 2488 2216 2034 2216 
z
M 1403 2484 
Q 997 2584 770 2862 
Q 544 3141 544 3541 
Q 544 4100 942 4425 
Q 1341 4750 2034 4750 
Q 2731 4750 3128 4425 
Q 3525 4100 3525 3541 
Q 3525 3141 3298 2862 
Q 3072 2584 2669 2484 
Q 3125 2378 3379 2068 
Q 3634 1759 3634 1313 
Q 3634 634 3220 271 
Q 2806 -91 2034 -91 
Q 1263 -91 848 271 
Q 434 634 434 1313 
Q 434 1759 690 2068 
Q 947 2378 1403 2484 
z
M 1172 3481 
Q 1172 3119 1398 2916 
Q 1625 2713 2034 2713 
Q 2441 2713 2670 2916 
Q 2900 3119 2900 3481 
Q 2900 3844 2670 4047 
Q 2441 4250 2034 4250 
Q 1625 4250 1398 4047 
Q 1172 3844 1172 3481 
z
" transform="scale(0.015625)"/>
       </defs>
       <use xlink:href="#DejaVuSans-30"/>
       <use xlink:href="#DejaVuSans-2e" transform="translate(63.623047 0)"/>
       <use xlink:href="#DejaVuSans-38" transform="translate(95.410156 0)"/>
      </g>
     </g>
    </g>
    <g id="ytick_6">
     <g id="line2d_25">
      <path d="M 68.69 37.407273 
L 853.2 37.407273 
" clip-path="url(#p08376091d4)" style="fill: none; stroke: #b0b0b0; stroke-width: 0.8; stroke-linecap: square"/>
     </g>
     <g id="line2d_26">
      <g>
       <use xlink:href="#m3c5dbb50d8" x="68.69" y="37.407273" style="stroke: #000000; stroke-width: 0.8"/>
      </g>
     </g>
     <g id="text_13">
      <!-- 1.0 -->
      <g transform="translate(45.786875 41.206491) scale(0.1 -0.1)">
       <use xlink:href="#DejaVuSans-31"/>
       <use xlink:href="#DejaVuSans-2e" transform="translate(63.623047 0)"/>
       <use xlink:href="#DejaVuSans-30" transform="translate(95.410156 0)"/>
      </g>
     </g>
    </g>
    <g id="text_14">
     <!-- Std Dev -->
     <g transform="translate(39.707187 162.463594) rotate(-90) scale(0.1 -0.1)">
      <defs>
       <path id="DejaVuSans-53" d="M 3425 4513 
L 3425 3897 
Q 3066 4069 2747 4153 
Q 2428 4238 2131 4238 
Q 1616 4238 1336 4038 
Q 1056 3838 1056 3469 
Q 1056 3159 1242 3001 
Q 1428 2844 1947 2747 
L 2328 2669 
Q 3034 2534 3370 2195 
Q 3706 1856 3706 1288 
Q 3706 609 3251 259 
Q 2797 -91 1919 -91 
Q 1588 -91 1214 -16 
Q 841 59 441 206 
L 441 856 
Q 825 641 1194 531 
Q 1563 422 1919 422 
Q 2459 422 2753 634 
Q 3047 847 3047 1241 
Q 3047 1584 2836 1778 
Q 2625 1972 2144 2069 
L 1759 2144 
Q 1053 2284 737 2584 
Q 422 2884 422 3419 
Q 422 4038 858 4394 
Q 1294 4750 2059 4750 
Q 2388 4750 2728 4690 
Q 3069 4631 3425 4513 
z
" transform="scale(0.015625)"/>
       <path id="DejaVuSans-74" d="M 1172 4494 
L 1172 3500 
L 2356 3500 
L 2356 3053 
L 1172 3053 
L 1172 1153 
Q 1172 725 1289 603 
Q 1406 481 1766 481 
L 2356 481 
L 2356 0 
L 1766 0 
Q 1100 0 847 248 
Q 594 497 594 1153 
L 594 3053 
L 172 3053 
L 172 3500 
L 594 3500 
L 594 4494 
L 1172 4494 
z
" transform="scale(0.015625)"/>
       <path id="DejaVuSans-64" d="M 2906 2969 
L 2906 4863 
L 3481 4863 
L 3481 0 
L 2906 0 
L 2906 525 
Q 2725 213 2448 61 
Q 2172 -91 1784 -91 
Q 1150 -91 751 415 
Q 353 922 353 1747 
Q 353 2572 751 3078 
Q 1150 3584 1784 3584 
Q 2172 3584 2448 3432 
Q 2725 3281 2906 2969 
z
M 947 1747 
Q 947 1113 1208 752 
Q 1469 391 1925 391 
Q 2381 391 2643 752 
Q 2906 1113 2906 1747 
Q 2906 2381 2643 2742 
Q 2381 3103 1925 3103 
Q 1469 3103 1208 2742 
Q 947 2381 947 1747 
z
" transform="scale(0.015625)"/>
       <path id="DejaVuSans-20" transform="scale(0.015625)"/>
       <path id="DejaVuSans-44" d="M 1259 4147 
L 1259 519 
L 2022 519 
Q 2988 519 3436 956 
Q 3884 1394 3884 2338 
Q 3884 3275 3436 3711 
Q 2988 4147 2022 4147 
L 1259 4147 
z
M 628 4666 
L 1925 4666 
Q 3281 4666 3915 4102 
Q 4550 3538 4550 2338 
Q 4550 1131 3912 565 
Q 3275 0 1925 0 
L 628 0 
L 628 4666 
z
" transform="scale(0.015625)"/>
       <path id="DejaVuSans-65" d="M 3597 1894 
L 3597 1613 
L 953 1613 
Q 991 1019 1311 708 
Q 1631 397 2203 397 
Q 2534 397 2845 478 
Q 3156 559 3463 722 
L 3463 178 
Q 3153 47 2828 -22 
Q 2503 -91 2169 -91 
Q 1331 -91 842 396 
Q 353 884 353 1716 
Q 353 2575 817 3079 
Q 1281 3584 2069 3584 
Q 2775 3584 3186 3129 
Q 3597 2675 3597 1894 
z
M 3022 2063 
Q 3016 2534 2758 2815 
Q 2500 3097 2075 3097 
Q 1594 3097 1305 2825 
Q 1016 2553 972 2059 
L 3022 2063 
z
" transform="scale(0.015625)"/>
       <path id="DejaVuSans-76" d="M 191 3500 
L 800 3500 
L 1894 563 
L 2988 3500 
L 3597 3500 
L 2284 0 
L 1503 0 
L 191 3500 
z
" transform="scale(0.015625)"/>
      </defs>
      <use xlink:href="#DejaVuSans-53"/>
      <use xlink:href="#DejaVuSans-74" transform="translate(63.476562 0)"/>
      <use xlink:href="#DejaVuSans-64" transform="translate(102.685547 0)"/>
      <use xlink:href="#DejaVuSans-20" transform="translate(166.162109 0)"/>
      <use xlink:href="#DejaVuSans-44" transform="translate(197.949219 0)"/>
      <use xlink:href="#DejaVuSans-65" transform="translate(274.951172 0)"/>
      <use xlink:href="#DejaVuSans-76" transform="translate(336.474609 0)"/>
     </g>
    </g>
   </g>
   <g id="line2d_27">
    <path d="M 104.349545 228.076253 
L 123.458503 228.076253 
L 123.798002 233.343592 
L 124.040502 233.620168 
L 124.5255 233.726069 
L 126.319996 233.781206 
L 140.239465 233.802041 
L 147.465949 233.803698 
L 147.611449 243.910371 
L 147.853948 245.975439 
L 148.096448 246.43889 
L 148.484447 246.660032 
L 149.308945 246.793908 
L 151.68544 246.876575 
L 159.348423 246.908388 
L 159.493922 247.206872 
L 161.773417 247.348835 
L 183.11337 247.597709 
L 183.258869 247.757223 
L 195.723342 247.908257 
L 208.527313 247.929734 
L 342.047515 247.952708 
L 342.193015 228.076253 
L 361.204972 228.076253 
L 361.544472 233.34501 
L 361.786971 233.62164 
L 362.27197 233.727571 
L 364.066466 233.782761 
L 377.937435 233.803494 
L 385.212419 233.805078 
L 385.357919 243.909324 
L 385.600418 245.975232 
L 385.842918 246.438897 
L 386.230917 246.66014 
L 387.055415 246.794058 
L 389.43191 246.876698 
L 397.094892 246.908438 
L 397.240392 247.20677 
L 399.519887 247.348795 
L 420.859839 247.597912 
L 421.005339 247.757247 
L 433.469811 247.908369 
L 446.273783 247.929795 
L 579.793985 247.952721 
L 579.939485 37.407273 
L 598.951442 37.407919 
L 598.999942 48.139857 
L 599.145442 95.861084 
L 599.339441 96.019403 
L 600.163939 96.053561 
L 616.702403 96.060591 
L 622.958889 96.061087 
L 623.104388 238.150822 
L 623.298388 241.199484 
L 623.540887 241.533741 
L 624.025886 241.654315 
L 625.674883 241.715032 
L 634.841362 241.73734 
L 634.986862 247.078024 
L 635.81136 247.27423 
L 638.139355 247.323844 
L 647.548334 247.492283 
L 652.931822 247.532379 
L 658.606309 247.535127 
L 658.751809 247.717687 
L 670.488783 247.740603 
L 670.634282 247.884978 
L 695.272227 247.922814 
L 817.540455 247.950034 
L 817.540455 247.950034 
" clip-path="url(#p08376091d4)" style="fill: none; stroke: #0000ff; stroke-width: 1.5; stroke-linecap: square"/>
   </g>
   <g id="line2d_28">
    <path d="M 104.349545 228.076253 
L 123.458503 228.078456 
L 123.798002 233.346323 
L 124.040502 233.620835 
L 124.574 233.731309 
L 126.610996 233.784475 
L 141.403463 233.804173 
L 147.465949 233.805541 
L 147.611449 243.910618 
L 147.853948 245.975423 
L 148.096448 246.438934 
L 148.484447 246.660093 
L 149.308945 246.793979 
L 151.68544 246.876602 
L 159.348423 246.908406 
L 159.493922 247.206849 
L 161.773417 247.348808 
L 183.11337 247.597717 
L 183.258869 247.757219 
L 195.674842 247.90773 
L 208.187814 247.929725 
L 342.047515 247.952706 
L 342.193015 228.076253 
L 361.204972 228.078456 
L 361.544472 233.347697 
L 361.786971 233.622256 
L 362.32047 233.732755 
L 364.357465 233.785973 
L 379.101433 233.805546 
L 385.212419 233.806871 
L 385.357919 243.909547 
L 385.600418 245.975192 
L 385.842918 246.438915 
L 386.230917 246.660172 
L 387.055415 246.7941 
L 389.43191 246.876696 
L 397.094892 246.908435 
L 397.240392 247.206752 
L 399.519887 247.348782 
L 420.859839 247.597928 
L 421.005339 247.757249 
L 433.421311 247.907841 
L 445.934283 247.929796 
L 579.793985 247.952727 
L 579.890985 37.407274 
L 579.939485 37.407292 
L 581.442981 37.651264 
L 582.412979 37.759335 
L 584.255975 37.994176 
L 586.29297 38.190104 
L 586.68097 38.267614 
L 587.699467 38.388796 
L 587.941967 38.440712 
L 589.445463 38.569446 
L 591.482459 38.829833 
L 597.205446 39.577108 
L 598.951442 39.577108 
L 598.999942 50.001081 
L 599.145442 96.704251 
L 599.339441 96.870271 
L 600.212439 96.922408 
L 602.491934 97.061918 
L 606.274926 97.28429 
L 608.554421 97.39507 
L 609.03942 97.432015 
L 611.076415 97.567949 
L 611.512914 97.603889 
L 613.889409 97.713857 
L 620.048895 98.053396 
L 622.958889 98.063445 
L 623.104388 238.152715 
L 623.298388 241.200014 
L 623.540887 241.534197 
L 624.025886 241.65486 
L 625.723382 241.71615 
L 634.841362 241.73782 
L 634.986862 247.078555 
L 635.81136 247.274512 
L 638.139355 247.324087 
L 647.548334 247.492466 
L 652.931822 247.53261 
L 658.606309 247.535354 
L 658.751809 247.717829 
L 670.488783 247.74072 
L 670.634282 247.885223 
L 695.999726 247.923112 
L 817.540455 247.95004 
L 817.540455 247.95004 
" clip-path="url(#p08376091d4)" style="fill: none; stroke-dasharray: 5.55,2.4; stroke-dashoffset: 0; stroke: #ff0000; stroke-width: 1.5"/>
   </g>
   <g id="line2d_29">
    <path d="M 342.096015 258.48 
L 342.096015 26.88 
" clip-path="url(#p08376091d4)" style="fill: none; stroke-dasharray: 1.5,2.475; stroke-dashoffset: 0; stroke: #808080; stroke-opacity: 0.6; stroke-width: 1.5"/>
   </g>
   <g id="line2d_30">
    <path d="M 579.842485 258.48 
L 579.842485 26.88 
" clip-path="url(#p08376091d4)" style="fill: none; stroke-dasharray: 1.5,2.475; stroke-dashoffset: 0; stroke: #808080; stroke-opacity: 0.6; stroke-width: 1.5"/>
   </g>
   <g id="patch_3">
    <path d="M 68.69 258.48 
L 68.69 26.88 
" style="fill: none; stroke: #000000; stroke-width: 0.8; stroke-linejoin: miter; stroke-linecap: square"/>
   </g>
   <g id="patch_4">
    <path d="M 853.2 258.48 
L 853.2 26.88 
" style="fill: none; stroke: #000000; stroke-width: 0.8; stroke-linejoin: miter; stroke-linecap: square"/>
   </g>
   <g id="patch_5">
    <path d="M 68.69 258.48 
L 853.2 258.48 
" style="fill: none; stroke: #000000; stroke-width: 0.8; stroke-linejoin: miter; stroke-linecap: square"/>
   </g>
   <g id="patch_6">
    <path d="M 68.69 26.88 
L 853.2 26.88 
" style="fill: none; stroke: #000000; stroke-width: 0.8; stroke-linejoin: miter; stroke-linecap: square"/>
   </g>
   <g id="text_15">
    <!-- [35] rz  —  Uncertainty (std dev) -->
    <g transform="translate(363.590312 20.88) scale(0.12 -0.12)">
     <defs>
      <path id="DejaVuSans-5b" d="M 550 4863 
L 1875 4863 
L 1875 4416 
L 1125 4416 
L 1125 -397 
L 1875 -397 
L 1875 -844 
L 550 -844 
L 550 4863 
z
" transform="scale(0.015625)"/>
      <path id="DejaVuSans-5d" d="M 1947 4863 
L 1947 -844 
L 622 -844 
L 622 -397 
L 1369 -397 
L 1369 4416 
L 622 4416 
L 622 4863 
L 1947 4863 
z
" transform="scale(0.015625)"/>
      <path id="DejaVuSans-72" d="M 2631 2963 
Q 2534 3019 2420 3045 
Q 2306 3072 2169 3072 
Q 1681 3072 1420 2755 
Q 1159 2438 1159 1844 
L 1159 0 
L 581 0 
L 581 3500 
L 1159 3500 
L 1159 2956 
Q 1341 3275 1631 3429 
Q 1922 3584 2338 3584 
Q 2397 3584 2469 3576 
Q 2541 3569 2628 3553 
L 2631 2963 
z
" transform="scale(0.015625)"/>
      <path id="DejaVuSans-7a" d="M 353 3500 
L 3084 3500 
L 3084 2975 
L 922 459 
L 3084 459 
L 3084 0 
L 275 0 
L 275 525 
L 2438 3041 
L 353 3041 
L 353 3500 
z
" transform="scale(0.015625)"/>
      <path id="DejaVuSans-2014" d="M 313 1978 
L 6088 1978 
L 6088 1528 
L 313 1528 
L 313 1978 
z
" transform="scale(0.015625)"/>
      <path id="DejaVuSans-55" d="M 556 4666 
L 1191 4666 
L 1191 1831 
Q 1191 1081 1462 751 
Q 1734 422 2344 422 
Q 2950 422 3222 751 
Q 3494 1081 3494 1831 
L 3494 4666 
L 4128 4666 
L 4128 1753 
Q 4128 841 3676 375 
Q 3225 -91 2344 -91 
Q 1459 -91 1007 375 
Q 556 841 556 1753 
L 556 4666 
z
" transform="scale(0.015625)"/>
      <path id="DejaVuSans-6e" d="M 3513 2113 
L 3513 0 
L 2938 0 
L 2938 2094 
Q 2938 2591 2744 2837 
Q 2550 3084 2163 3084 
Q 1697 3084 1428 2787 
Q 1159 2491 1159 1978 
L 1159 0 
L 581 0 
L 581 3500 
L 1159 3500 
L 1159 2956 
Q 1366 3272 1645 3428 
Q 1925 3584 2291 3584 
Q 2894 3584 3203 3211 
Q 3513 2838 3513 2113 
z
" transform="scale(0.015625)"/>
      <path id="DejaVuSans-63" d="M 3122 3366 
L 3122 2828 
Q 2878 2963 2633 3030 
Q 2388 3097 2138 3097 
Q 1578 3097 1268 2742 
Q 959 2388 959 1747 
Q 959 1106 1268 751 
Q 1578 397 2138 397 
Q 2388 397 2633 464 
Q 2878 531 3122 666 
L 3122 134 
Q 2881 22 2623 -34 
Q 2366 -91 2075 -91 
Q 1284 -91 818 406 
Q 353 903 353 1747 
Q 353 2603 823 3093 
Q 1294 3584 2113 3584 
Q 2378 3584 2631 3529 
Q 2884 3475 3122 3366 
z
" transform="scale(0.015625)"/>
      <path id="DejaVuSans-61" d="M 2194 1759 
Q 1497 1759 1228 1600 
Q 959 1441 959 1056 
Q 959 750 1161 570 
Q 1363 391 1709 391 
Q 2188 391 2477 730 
Q 2766 1069 2766 1631 
L 2766 1759 
L 2194 1759 
z
M 3341 1997 
L 3341 0 
L 2766 0 
L 2766 531 
Q 2569 213 2275 61 
Q 1981 -91 1556 -91 
Q 1019 -91 701 211 
Q 384 513 384 1019 
Q 384 1609 779 1909 
Q 1175 2209 1959 2209 
L 2766 2209 
L 2766 2266 
Q 2766 2663 2505 2880 
Q 2244 3097 1772 3097 
Q 1472 3097 1187 3025 
Q 903 2953 641 2809 
L 641 3341 
Q 956 3463 1253 3523 
Q 1550 3584 1831 3584 
Q 2591 3584 2966 3190 
Q 3341 2797 3341 1997 
z
" transform="scale(0.015625)"/>
      <path id="DejaVuSans-69" d="M 603 3500 
L 1178 3500 
L 1178 0 
L 603 0 
L 603 3500 
z
M 603 4863 
L 1178 4863 
L 1178 4134 
L 603 4134 
L 603 4863 
z
" transform="scale(0.015625)"/>
      <path id="DejaVuSans-79" d="M 2059 -325 
Q 1816 -950 1584 -1140 
Q 1353 -1331 966 -1331 
L 506 -1331 
L 506 -850 
L 844 -850 
Q 1081 -850 1212 -737 
Q 1344 -625 1503 -206 
L 1606 56 
L 191 3500 
L 800 3500 
L 1894 763 
L 2988 3500 
L 3597 3500 
L 2059 -325 
z
" transform="scale(0.015625)"/>
      <path id="DejaVuSans-28" d="M 1984 4856 
Q 1566 4138 1362 3434 
Q 1159 2731 1159 2009 
Q 1159 1288 1364 580 
Q 1569 -128 1984 -844 
L 1484 -844 
Q 1016 -109 783 600 
Q 550 1309 550 2009 
Q 550 2706 781 3412 
Q 1013 4119 1484 4856 
L 1984 4856 
z
" transform="scale(0.015625)"/>
      <path id="DejaVuSans-73" d="M 2834 3397 
L 2834 2853 
Q 2591 2978 2328 3040 
Q 2066 3103 1784 3103 
Q 1356 3103 1142 2972 
Q 928 2841 928 2578 
Q 928 2378 1081 2264 
Q 1234 2150 1697 2047 
L 1894 2003 
Q 2506 1872 2764 1633 
Q 3022 1394 3022 966 
Q 3022 478 2636 193 
Q 2250 -91 1575 -91 
Q 1294 -91 989 -36 
Q 684 19 347 128 
L 347 722 
Q 666 556 975 473 
Q 1284 391 1588 391 
Q 1994 391 2212 530 
Q 2431 669 2431 922 
Q 2431 1156 2273 1281 
Q 2116 1406 1581 1522 
L 1381 1569 
Q 847 1681 609 1914 
Q 372 2147 372 2553 
Q 372 3047 722 3315 
Q 1072 3584 1716 3584 
Q 2034 3584 2315 3537 
Q 2597 3491 2834 3397 
z
" transform="scale(0.015625)"/>
      <path id="DejaVuSans-29" d="M 513 4856 
L 1013 4856 
Q 1481 4119 1714 3412 
Q 1947 2706 1947 2009 
Q 1947 1309 1714 600 
Q 1481 -109 1013 -844 
L 513 -844 
Q 928 -128 1133 580 
Q 1338 1288 1338 2009 
Q 1338 2731 1133 3434 
Q 928 4138 513 4856 
z
" transform="scale(0.015625)"/>
     </defs>
     <use xlink:href="#DejaVuSans-5b"/>
     <use xlink:href="#DejaVuSans-33" transform="translate(39.013672 0)"/>
     <use xlink:href="#DejaVuSans-35" transform="translate(102.636719 0)"/>
     <use xlink:href="#DejaVuSans-5d" transform="translate(166.259766 0)"/>
     <use xlink:href="#DejaVuSans-20" transform="translate(205.273438 0)"/>
     <use xlink:href="#DejaVuSans-72" transform="translate(237.060547 0)"/>
     <use xlink:href="#DejaVuSans-7a" transform="translate(278.173828 0)"/>
     <use xlink:href="#DejaVuSans-20" transform="translate(330.664062 0)"/>
     <use xlink:href="#DejaVuSans-20" transform="translate(362.451172 0)"/>
     <use xlink:href="#DejaVuSans-2014" transform="translate(394.238281 0)"/>
     <use xlink:href="#DejaVuSans-20" transform="translate(494.238281 0)"/>
     <use xlink:href="#DejaVuSans-20" transform="translate(526.025391 0)"/>
     <use xlink:href="#DejaVuSans-55" transform="translate(557.8125 0)"/>
     <use xlink:href="#DejaVuSans-6e" transform="translate(631.005859 0)"/>
     <use xlink:href="#DejaVuSans-63" transform="translate(694.384766 0)"/>
     <use xlink:href="#DejaVuSans-65" transform="translate(749.365234 0)"/>
     <use xlink:href="#DejaVuSans-72" transform="translate(810.888672 0)"/>
     <use xlink:href="#DejaVuSans-74" transform="translate(852.001953 0)"/>
     <use xlink:href="#DejaVuSans-61" transform="translate(891.210938 0)"/>
     <use xlink:href="#DejaVuSans-69" transform="translate(952.490234 0)"/>
     <use xlink:href="#DejaVuSans-6e" transform="translate(980.273438 0)"/>
     <use xlink:href="#DejaVuSans-74" transform="translate(1043.652344 0)"/>
     <use xlink:href="#DejaVuSans-79" transform="translate(1082.861328 0)"/>
     <use xlink:href="#DejaVuSans-20" transform="translate(1142.041016 0)"/>
     <use xlink:href="#DejaVuSans-28" transform="translate(1173.828125 0)"/>
     <use xlink:href="#DejaVuSans-73" transform="translate(1212.841797 0)"/>
     <use xlink:href="#DejaVuSans-74" transform="translate(1264.941406 0)"/>
     <use xlink:href="#DejaVuSans-64" transform="translate(1304.150391 0)"/>
     <use xlink:href="#DejaVuSans-20" transform="translate(1367.626953 0)"/>
     <use xlink:href="#DejaVuSans-64" transform="translate(1399.414062 0)"/>
     <use xlink:href="#DejaVuSans-65" transform="translate(1462.890625 0)"/>
     <use xlink:href="#DejaVuSans-76" transform="translate(1524.414062 0)"/>
     <use xlink:href="#DejaVuSans-29" transform="translate(1583.59375 0)"/>
    </g>
   </g>
   <g id="legend_1">
    <g id="patch_7">
     <path d="M 738.401562 64.23625 
L 846.2 64.23625 
Q 848.2 64.23625 848.2 62.23625 
L 848.2 33.88 
Q 848.2 31.88 846.2 31.88 
L 738.401562 31.88 
Q 736.401562 31.88 736.401562 33.88 
L 736.401562 62.23625 
Q 736.401562 64.23625 738.401562 64.23625 
z
" style="fill: #ffffff; opacity: 0.8; stroke: #cccccc; stroke-linejoin: miter"/>
    </g>
    <g id="line2d_31">
     <path d="M 740.401562 39.978437 
L 750.401562 39.978437 
L 760.401562 39.978437 
" style="fill: none; stroke: #0000ff; stroke-width: 1.5; stroke-linecap: square"/>
    </g>
    <g id="text_16">
     <!-- No Noise -->
     <g transform="translate(768.401562 43.478437) scale(0.1 -0.1)">
      <defs>
       <path id="DejaVuSans-4e" d="M 628 4666 
L 1478 4666 
L 3547 763 
L 3547 4666 
L 4159 4666 
L 4159 0 
L 3309 0 
L 1241 3903 
L 1241 0 
L 628 0 
L 628 4666 
z
" transform="scale(0.015625)"/>
       <path id="DejaVuSans-6f" d="M 1959 3097 
Q 1497 3097 1228 2736 
Q 959 2375 959 1747 
Q 959 1119 1226 758 
Q 1494 397 1959 397 
Q 2419 397 2687 759 
Q 2956 1122 2956 1747 
Q 2956 2369 2687 2733 
Q 2419 3097 1959 3097 
z
M 1959 3584 
Q 2709 3584 3137 3096 
Q 3566 2609 3566 1747 
Q 3566 888 3137 398 
Q 2709 -91 1959 -91 
Q 1206 -91 779 398 
Q 353 888 353 1747 
Q 353 2609 779 3096 
Q 1206 3584 1959 3584 
z
" transform="scale(0.015625)"/>
      </defs>
      <use xlink:href="#DejaVuSans-4e"/>
      <use xlink:href="#DejaVuSans-6f" transform="translate(74.804688 0)"/>
      <use xlink:href="#DejaVuSans-20" transform="translate(135.986328 0)"/>
      <use xlink:href="#DejaVuSans-4e" transform="translate(167.773438 0)"/>
      <use xlink:href="#DejaVuSans-6f" transform="translate(242.578125 0)"/>
      <use xlink:href="#DejaVuSans-69" transform="translate(303.759766 0)"/>
      <use xlink:href="#DejaVuSans-73" transform="translate(331.542969 0)"/>
      <use xlink:href="#DejaVuSans-65" transform="translate(383.642578 0)"/>
     </g>
    </g>
    <g id="line2d_32">
     <path d="M 740.401562 54.656562 
L 750.401562 54.656562 
L 760.401562 54.656562 
" style="fill: none; stroke-dasharray: 5.55,2.4; stroke-dashoffset: 0; stroke: #ff0000; stroke-width: 1.5"/>
    </g>
    <g id="text_17">
     <!-- With ARW/VRW -->
     <g transform="translate(768.401562 58.156562) scale(0.1 -0.1)">
      <defs>
       <path id="DejaVuSans-57" d="M 213 4666 
L 850 4666 
L 1831 722 
L 2809 4666 
L 3519 4666 
L 4500 722 
L 5478 4666 
L 6119 4666 
L 4947 0 
L 4153 0 
L 3169 4050 
L 2175 0 
L 1381 0 
L 213 4666 
z
" transform="scale(0.015625)"/>
       <path id="DejaVuSans-68" d="M 3513 2113 
L 3513 0 
L 2938 0 
L 2938 2094 
Q 2938 2591 2744 2837 
Q 2550 3084 2163 3084 
Q 1697 3084 1428 2787 
Q 1159 2491 1159 1978 
L 1159 0 
L 581 0 
L 581 4863 
L 1159 4863 
L 1159 2956 
Q 1366 3272 1645 3428 
Q 1925 3584 2291 3584 
Q 2894 3584 3203 3211 
Q 3513 2838 3513 2113 
z
" transform="scale(0.015625)"/>
       <path id="DejaVuSans-41" d="M 2188 4044 
L 1331 1722 
L 3047 1722 
L 2188 4044 
z
M 1831 4666 
L 2547 4666 
L 4325 0 
L 3669 0 
L 3244 1197 
L 1141 1197 
L 716 0 
L 50 0 
L 1831 4666 
z
" transform="scale(0.015625)"/>
       <path id="DejaVuSans-52" d="M 2841 2188 
Q 3044 2119 3236 1894 
Q 3428 1669 3622 1275 
L 4263 0 
L 3584 0 
L 2988 1197 
Q 2756 1666 2539 1819 
Q 2322 1972 1947 1972 
L 1259 1972 
L 1259 0 
L 628 0 
L 628 4666 
L 2053 4666 
Q 2853 4666 3247 4331 
Q 3641 3997 3641 3322 
Q 3641 2881 3436 2590 
Q 3231 2300 2841 2188 
z
M 1259 4147 
L 1259 2491 
L 2053 2491 
Q 2509 2491 2742 2702 
Q 2975 2913 2975 3322 
Q 2975 3731 2742 3939 
Q 2509 4147 2053 4147 
L 1259 4147 
z
" transform="scale(0.015625)"/>
       <path id="DejaVuSans-2f" d="M 1625 4666 
L 2156 4666 
L 531 -594 
L 0 -594 
L 1625 4666 
z
" transform="scale(0.015625)"/>
       <path id="DejaVuSans-56" d="M 1831 0 
L 50 4666 
L 709 4666 
L 2188 738 
L 3669 4666 
L 4325 4666 
L 2547 0 
L 1831 0 
z
" transform="scale(0.015625)"/>
      </defs>
      <use xlink:href="#DejaVuSans-57"/>
      <use xlink:href="#DejaVuSans-69" transform="translate(96.626953 0)"/>
      <use xlink:href="#DejaVuSans-74" transform="translate(124.410156 0)"/>
      <use xlink:href="#DejaVuSans-68" transform="translate(163.619141 0)"/>
      <use xlink:href="#DejaVuSans-20" transform="translate(226.998047 0)"/>
      <use xlink:href="#DejaVuSans-41" transform="translate(258.785156 0)"/>
      <use xlink:href="#DejaVuSans-52" transform="translate(327.193359 0)"/>
      <use xlink:href="#DejaVuSans-57" transform="translate(392.675781 0)"/>
      <use xlink:href="#DejaVuSans-2f" transform="translate(491.552734 0)"/>
      <use xlink:href="#DejaVuSans-56" transform="translate(525.244141 0)"/>
      <use xlink:href="#DejaVuSans-52" transform="translate(593.652344 0)"/>
      <use xlink:href="#DejaVuSans-57" transform="translate(659.134766 0)"/>
     </g>
    </g>
   </g>
  </g>
  <g id="axes_2">
   <g id="patch_8">
    <path d="M 68.69 534.04 
L 853.2 534.04 
L 853.2 302.44 
L 68.69 302.44 
z
" style="fill: #ffffff"/>
   </g>
   <g id="matplotlib.axis_3">
    <g id="xtick_8">
     <g id="line2d_33">
      <path d="M 104.349545 534.04 
L 104.349545 302.44 
" clip-path="url(#p71f4cbf20b)" style="fill: none; stroke: #b0b0b0; stroke-width: 0.8; stroke-linecap: square"/>
     </g>
     <g id="line2d_34">
      <g>
       <use xlink:href="#m5f21a4cd15" x="104.349545" y="534.04" style="stroke: #000000; stroke-width: 0.8"/>
      </g>
     </g>
     <g id="text_18">
      <!-- 0 -->
      <g transform="translate(101.168295 548.638438) scale(0.1 -0.1)">
       <use xlink:href="#DejaVuSans-30"/>
      </g>
     </g>
    </g>
    <g id="xtick_9">
     <g id="line2d_35">
      <path d="M 225.599275 534.04 
L 225.599275 302.44 
" clip-path="url(#p71f4cbf20b)" style="fill: none; stroke: #b0b0b0; stroke-width: 0.8; stroke-linecap: square"/>
     </g>
     <g id="line2d_36">
      <g>
       <use xlink:href="#m5f21a4cd15" x="225.599275" y="534.04" style="stroke: #000000; stroke-width: 0.8"/>
      </g>
     </g>
     <g id="text_19">
      <!-- 50 -->
      <g transform="translate(219.236775 548.638438) scale(0.1 -0.1)">
       <use xlink:href="#DejaVuSans-35"/>
       <use xlink:href="#DejaVuSans-30" transform="translate(63.623047 0)"/>
      </g>
     </g>
    </g>
    <g id="xtick_10">
     <g id="line2d_37">
      <path d="M 346.849005 534.04 
L 346.849005 302.44 
" clip-path="url(#p71f4cbf20b)" style="fill: none; stroke: #b0b0b0; stroke-width: 0.8; stroke-linecap: square"/>
     </g>
     <g id="line2d_38">
      <g>
       <use xlink:href="#m5f21a4cd15" x="346.849005" y="534.04" style="stroke: #000000; stroke-width: 0.8"/>
      </g>
     </g>
     <g id="text_20">
      <!-- 100 -->
      <g transform="translate(337.305255 548.638438) scale(0.1 -0.1)">
       <use xlink:href="#DejaVuSans-31"/>
       <use xlink:href="#DejaVuSans-30" transform="translate(63.623047 0)"/>
       <use xlink:href="#DejaVuSans-30" transform="translate(127.246094 0)"/>
      </g>
     </g>
    </g>
    <g id="xtick_11">
     <g id="line2d_39">
      <path d="M 468.098734 534.04 
L 468.098734 302.44 
" clip-path="url(#p71f4cbf20b)" style="fill: none; stroke: #b0b0b0; stroke-width: 0.8; stroke-linecap: square"/>
     </g>
     <g id="line2d_40">
      <g>
       <use xlink:href="#m5f21a4cd15" x="468.098734" y="534.04" style="stroke: #000000; stroke-width: 0.8"/>
      </g>
     </g>
     <g id="text_21">
      <!-- 150 -->
      <g transform="translate(458.554984 548.638438) scale(0.1 -0.1)">
       <use xlink:href="#DejaVuSans-31"/>
       <use xlink:href="#DejaVuSans-35" transform="translate(63.623047 0)"/>
       <use xlink:href="#DejaVuSans-30" transform="translate(127.246094 0)"/>
      </g>
     </g>
    </g>
    <g id="xtick_12">
     <g id="line2d_41">
      <path d="M 589.348464 534.04 
L 589.348464 302.44 
" clip-path="url(#p71f4cbf20b)" style="fill: none; stroke: #b0b0b0; stroke-width: 0.8; stroke-linecap: square"/>
     </g>
     <g id="line2d_42">
      <g>
       <use xlink:href="#m5f21a4cd15" x="589.348464" y="534.04" style="stroke: #000000; stroke-width: 0.8"/>
      </g>
     </g>
     <g id="text_22">
      <!-- 200 -->
      <g transform="translate(579.804714 548.638438) scale(0.1 -0.1)">
       <use xlink:href="#DejaVuSans-32"/>
       <use xlink:href="#DejaVuSans-30" transform="translate(63.623047 0)"/>
       <use xlink:href="#DejaVuSans-30" transform="translate(127.246094 0)"/>
      </g>
     </g>
    </g>
    <g id="xtick_13">
     <g id="line2d_43">
      <path d="M 710.598193 534.04 
L 710.598193 302.44 
" clip-path="url(#p71f4cbf20b)" style="fill: none; stroke: #b0b0b0; stroke-width: 0.8; stroke-linecap: square"/>
     </g>
     <g id="line2d_44">
      <g>
       <use xlink:href="#m5f21a4cd15" x="710.598193" y="534.04" style="stroke: #000000; stroke-width: 0.8"/>
      </g>
     </g>
     <g id="text_23">
      <!-- 250 -->
      <g transform="translate(701.054443 548.638438) scale(0.1 -0.1)">
       <use xlink:href="#DejaVuSans-32"/>
       <use xlink:href="#DejaVuSans-35" transform="translate(63.623047 0)"/>
       <use xlink:href="#DejaVuSans-30" transform="translate(127.246094 0)"/>
      </g>
     </g>
    </g>
    <g id="xtick_14">
     <g id="line2d_45">
      <path d="M 831.847923 534.04 
L 831.847923 302.44 
" clip-path="url(#p71f4cbf20b)" style="fill: none; stroke: #b0b0b0; stroke-width: 0.8; stroke-linecap: square"/>
     </g>
     <g id="line2d_46">
      <g>
       <use xlink:href="#m5f21a4cd15" x="831.847923" y="534.04" style="stroke: #000000; stroke-width: 0.8"/>
      </g>
     </g>
     <g id="text_24">
      <!-- 300 -->
      <g transform="translate(822.304173 548.638438) scale(0.1 -0.1)">
       <use xlink:href="#DejaVuSans-33"/>
       <use xlink:href="#DejaVuSans-30" transform="translate(63.623047 0)"/>
       <use xlink:href="#DejaVuSans-30" transform="translate(127.246094 0)"/>
      </g>
     </g>
    </g>
    <g id="text_25">
     <!-- Time (s) -->
     <g transform="translate(440.616094 562.316562) scale(0.1 -0.1)">
      <defs>
       <path id="DejaVuSans-54" d="M -19 4666 
L 3928 4666 
L 3928 4134 
L 2272 4134 
L 2272 0 
L 1638 0 
L 1638 4134 
L -19 4134 
L -19 4666 
z
" transform="scale(0.015625)"/>
       <path id="DejaVuSans-6d" d="M 3328 2828 
Q 3544 3216 3844 3400 
Q 4144 3584 4550 3584 
Q 5097 3584 5394 3201 
Q 5691 2819 5691 2113 
L 5691 0 
L 5113 0 
L 5113 2094 
Q 5113 2597 4934 2840 
Q 4756 3084 4391 3084 
Q 3944 3084 3684 2787 
Q 3425 2491 3425 1978 
L 3425 0 
L 2847 0 
L 2847 2094 
Q 2847 2600 2669 2842 
Q 2491 3084 2119 3084 
Q 1678 3084 1418 2786 
Q 1159 2488 1159 1978 
L 1159 0 
L 581 0 
L 581 3500 
L 1159 3500 
L 1159 2956 
Q 1356 3278 1631 3431 
Q 1906 3584 2284 3584 
Q 2666 3584 2933 3390 
Q 3200 3197 3328 2828 
z
" transform="scale(0.015625)"/>
      </defs>
      <use xlink:href="#DejaVuSans-54"/>
      <use xlink:href="#DejaVuSans-69" transform="translate(57.958984 0)"/>
      <use xlink:href="#DejaVuSans-6d" transform="translate(85.742188 0)"/>
      <use xlink:href="#DejaVuSans-65" transform="translate(183.154297 0)"/>
      <use xlink:href="#DejaVuSans-20" transform="translate(244.677734 0)"/>
      <use xlink:href="#DejaVuSans-28" transform="translate(276.464844 0)"/>
      <use xlink:href="#DejaVuSans-73" transform="translate(315.478516 0)"/>
      <use xlink:href="#DejaVuSans-29" transform="translate(367.578125 0)"/>
     </g>
    </g>
   </g>
   <g id="matplotlib.axis_4">
    <g id="ytick_7">
     <g id="line2d_47">
      <path d="M 68.69 531.32685 
L 853.2 531.32685 
" clip-path="url(#p71f4cbf20b)" style="fill: none; stroke: #b0b0b0; stroke-width: 0.8; stroke-linecap: square"/>
     </g>
     <g id="line2d_48">
      <g>
       <use xlink:href="#m3c5dbb50d8" x="68.69" y="531.32685" style="stroke: #000000; stroke-width: 0.8"/>
      </g>
     </g>
     <g id="text_26">
      <!-- −0.035 -->
      <g transform="translate(24.682187 535.126069) scale(0.1 -0.1)">
       <defs>
        <path id="DejaVuSans-2212" d="M 678 2272 
L 4684 2272 
L 4684 1741 
L 678 1741 
L 678 2272 
z
" transform="scale(0.015625)"/>
       </defs>
       <use xlink:href="#DejaVuSans-2212"/>
       <use xlink:href="#DejaVuSans-30" transform="translate(83.789062 0)"/>
       <use xlink:href="#DejaVuSans-2e" transform="translate(147.412109 0)"/>
       <use xlink:href="#DejaVuSans-30" transform="translate(179.199219 0)"/>
       <use xlink:href="#DejaVuSans-33" transform="translate(242.822266 0)"/>
       <use xlink:href="#DejaVuSans-35" transform="translate(306.445312 0)"/>
      </g>
     </g>
    </g>
    <g id="ytick_8">
     <g id="line2d_49">
      <path d="M 68.69 505.018206 
L 853.2 505.018206 
" clip-path="url(#p71f4cbf20b)" style="fill: none; stroke: #b0b0b0; stroke-width: 0.8; stroke-linecap: square"/>
     </g>
     <g id="line2d_50">
      <g>
       <use xlink:href="#m3c5dbb50d8" x="68.69" y="505.018206" style="stroke: #000000; stroke-width: 0.8"/>
      </g>
     </g>
     <g id="text_27">
      <!-- −0.030 -->
      <g transform="translate(24.682187 508.817425) scale(0.1 -0.1)">
       <use xlink:href="#DejaVuSans-2212"/>
       <use xlink:href="#DejaVuSans-30" transform="translate(83.789062 0)"/>
       <use xlink:href="#DejaVuSans-2e" transform="translate(147.412109 0)"/>
       <use xlink:href="#DejaVuSans-30" transform="translate(179.199219 0)"/>
       <use xlink:href="#DejaVuSans-33" transform="translate(242.822266 0)"/>
       <use xlink:href="#DejaVuSans-30" transform="translate(306.445312 0)"/>
      </g>
     </g>
    </g>
    <g id="ytick_9">
     <g id="line2d_51">
      <path d="M 68.69 478.709562 
L 853.2 478.709562 
" clip-path="url(#p71f4cbf20b)" style="fill: none; stroke: #b0b0b0; stroke-width: 0.8; stroke-linecap: square"/>
     </g>
     <g id="line2d_52">
      <g>
       <use xlink:href="#m3c5dbb50d8" x="68.69" y="478.709562" style="stroke: #000000; stroke-width: 0.8"/>
      </g>
     </g>
     <g id="text_28">
      <!-- −0.025 -->
      <g transform="translate(24.682187 482.508781) scale(0.1 -0.1)">
       <use xlink:href="#DejaVuSans-2212"/>
       <use xlink:href="#DejaVuSans-30" transform="translate(83.789062 0)"/>
       <use xlink:href="#DejaVuSans-2e" transform="translate(147.412109 0)"/>
       <use xlink:href="#DejaVuSans-30" transform="translate(179.199219 0)"/>
       <use xlink:href="#DejaVuSans-32" transform="translate(242.822266 0)"/>
       <use xlink:href="#DejaVuSans-35" transform="translate(306.445312 0)"/>
      </g>
     </g>
    </g>
    <g id="ytick_10">
     <g id="line2d_53">
      <path d="M 68.69 452.400918 
L 853.2 452.400918 
" clip-path="url(#p71f4cbf20b)" style="fill: none; stroke: #b0b0b0; stroke-width: 0.8; stroke-linecap: square"/>
     </g>
     <g id="line2d_54">
      <g>
       <use xlink:href="#m3c5dbb50d8" x="68.69" y="452.400918" style="stroke: #000000; stroke-width: 0.8"/>
      </g>
     </g>
     <g id="text_29">
      <!-- −0.020 -->
      <g transform="translate(24.682187 456.200137) scale(0.1 -0.1)">
       <use xlink:href="#DejaVuSans-2212"/>
       <use xlink:href="#DejaVuSans-30" transform="translate(83.789062 0)"/>
       <use xlink:href="#DejaVuSans-2e" transform="translate(147.412109 0)"/>
       <use xlink:href="#DejaVuSans-30" transform="translate(179.199219 0)"/>
       <use xlink:href="#DejaVuSans-32" transform="translate(242.822266 0)"/>
       <use xlink:href="#DejaVuSans-30" transform="translate(306.445312 0)"/>
      </g>
     </g>
    </g>
    <g id="ytick_11">
     <g id="line2d_55">
      <path d="M 68.69 426.092274 
L 853.2 426.092274 
" clip-path="url(#p71f4cbf20b)" style="fill: none; stroke: #b0b0b0; stroke-width: 0.8; stroke-linecap: square"/>
     </g>
     <g id="line2d_56">
      <g>
       <use xlink:href="#m3c5dbb50d8" x="68.69" y="426.092274" style="stroke: #000000; stroke-width: 0.8"/>
      </g>
     </g>
     <g id="text_30">
      <!-- −0.015 -->
      <g transform="translate(24.682187 429.891493) scale(0.1 -0.1)">
       <use xlink:href="#DejaVuSans-2212"/>
       <use xlink:href="#DejaVuSans-30" transform="translate(83.789062 0)"/>
       <use xlink:href="#DejaVuSans-2e" transform="translate(147.412109 0)"/>
       <use xlink:href="#DejaVuSans-30" transform="translate(179.199219 0)"/>
       <use xlink:href="#DejaVuSans-31" transform="translate(242.822266 0)"/>
       <use xlink:href="#DejaVuSans-35" transform="translate(306.445312 0)"/>
      </g>
     </g>
    </g>
    <g id="ytick_12">
     <g id="line2d_57">
      <path d="M 68.69 399.78363 
L 853.2 399.78363 
" clip-path="url(#p71f4cbf20b)" style="fill: none; stroke: #b0b0b0; stroke-width: 0.8; stroke-linecap: square"/>
     </g>
     <g id="line2d_58">
      <g>
       <use xlink:href="#m3c5dbb50d8" x="68.69" y="399.78363" style="stroke: #000000; stroke-width: 0.8"/>
      </g>
     </g>
     <g id="text_31">
      <!-- −0.010 -->
      <g transform="translate(24.682187 403.582849) scale(0.1 -0.1)">
       <use xlink:href="#DejaVuSans-2212"/>
       <use xlink:href="#DejaVuSans-30" transform="translate(83.789062 0)"/>
       <use xlink:href="#DejaVuSans-2e" transform="translate(147.412109 0)"/>
       <use xlink:href="#DejaVuSans-30" transform="translate(179.199219 0)"/>
       <use xlink:href="#DejaVuSans-31" transform="translate(242.822266 0)"/>
       <use xlink:href="#DejaVuSans-30" transform="translate(306.445312 0)"/>
      </g>
     </g>
    </g>
    <g id="ytick_13">
     <g id="line2d_59">
      <path d="M 68.69 373.474986 
L 853.2 373.474986 
" clip-path="url(#p71f4cbf20b)" style="fill: none; stroke: #b0b0b0; stroke-width: 0.8; stroke-linecap: square"/>
     </g>
     <g id="line2d_60">
      <g>
       <use xlink:href="#m3c5dbb50d8" x="68.69" y="373.474986" style="stroke: #000000; stroke-width: 0.8"/>
      </g>
     </g>
     <g id="text_32">
      <!-- −0.005 -->
      <g transform="translate(24.682187 377.274204) scale(0.1 -0.1)">
       <use xlink:href="#DejaVuSans-2212"/>
       <use xlink:href="#DejaVuSans-30" transform="translate(83.789062 0)"/>
       <use xlink:href="#DejaVuSans-2e" transform="translate(147.412109 0)"/>
       <use xlink:href="#DejaVuSans-30" transform="translate(179.199219 0)"/>
       <use xlink:href="#DejaVuSans-30" transform="translate(242.822266 0)"/>
       <use xlink:href="#DejaVuSans-35" transform="translate(306.445312 0)"/>
      </g>
     </g>
    </g>
    <g id="ytick_14">
     <g id="line2d_61">
      <path d="M 68.69 347.166342 
L 853.2 347.166342 
" clip-path="url(#p71f4cbf20b)" style="fill: none; stroke: #b0b0b0; stroke-width: 0.8; stroke-linecap: square"/>
     </g>
     <g id="line2d_62">
      <g>
       <use xlink:href="#m3c5dbb50d8" x="68.69" y="347.166342" style="stroke: #000000; stroke-width: 0.8"/>
      </g>
     </g>
     <g id="text_33">
      <!-- 0.000 -->
      <g transform="translate(33.061875 350.96556) scale(0.1 -0.1)">
       <use xlink:href="#DejaVuSans-30"/>
       <use xlink:href="#DejaVuSans-2e" transform="translate(63.623047 0)"/>
       <use xlink:href="#DejaVuSans-30" transform="translate(95.410156 0)"/>
       <use xlink:href="#DejaVuSans-30" transform="translate(159.033203 0)"/>
       <use xlink:href="#DejaVuSans-30" transform="translate(222.65625 0)"/>
      </g>
     </g>
    </g>
    <g id="ytick_15">
     <g id="line2d_63">
      <path d="M 68.69 320.857698 
L 853.2 320.857698 
" clip-path="url(#p71f4cbf20b)" style="fill: none; stroke: #b0b0b0; stroke-width: 0.8; stroke-linecap: square"/>
     </g>
     <g id="line2d_64">
      <g>
       <use xlink:href="#m3c5dbb50d8" x="68.69" y="320.857698" style="stroke: #000000; stroke-width: 0.8"/>
      </g>
     </g>
     <g id="text_34">
      <!-- 0.005 -->
      <g transform="translate(33.061875 324.656916) scale(0.1 -0.1)">
       <use xlink:href="#DejaVuSans-30"/>
       <use xlink:href="#DejaVuSans-2e" transform="translate(63.623047 0)"/>
       <use xlink:href="#DejaVuSans-30" transform="translate(95.410156 0)"/>
       <use xlink:href="#DejaVuSans-30" transform="translate(159.033203 0)"/>
       <use xlink:href="#DejaVuSans-35" transform="translate(222.65625 0)"/>
      </g>
     </g>
    </g>
    <g id="text_35">
     <!-- Estimated Value -->
     <g transform="translate(18.6025 458.818906) rotate(-90) scale(0.1 -0.1)">
      <defs>
       <path id="DejaVuSans-45" d="M 628 4666 
L 3578 4666 
L 3578 4134 
L 1259 4134 
L 1259 2753 
L 3481 2753 
L 3481 2222 
L 1259 2222 
L 1259 531 
L 3634 531 
L 3634 0 
L 628 0 
L 628 4666 
z
" transform="scale(0.015625)"/>
       <path id="DejaVuSans-6c" d="M 603 4863 
L 1178 4863 
L 1178 0 
L 603 0 
L 603 4863 
z
" transform="scale(0.015625)"/>
       <path id="DejaVuSans-75" d="M 544 1381 
L 544 3500 
L 1119 3500 
L 1119 1403 
Q 1119 906 1312 657 
Q 1506 409 1894 409 
Q 2359 409 2629 706 
Q 2900 1003 2900 1516 
L 2900 3500 
L 3475 3500 
L 3475 0 
L 2900 0 
L 2900 538 
Q 2691 219 2414 64 
Q 2138 -91 1772 -91 
Q 1169 -91 856 284 
Q 544 659 544 1381 
z
M 1991 3584 
L 1991 3584 
z
" transform="scale(0.015625)"/>
      </defs>
      <use xlink:href="#DejaVuSans-45"/>
      <use xlink:href="#DejaVuSans-73" transform="translate(63.183594 0)"/>
      <use xlink:href="#DejaVuSans-74" transform="translate(115.283203 0)"/>
      <use xlink:href="#DejaVuSans-69" transform="translate(154.492188 0)"/>
      <use xlink:href="#DejaVuSans-6d" transform="translate(182.275391 0)"/>
      <use xlink:href="#DejaVuSans-61" transform="translate(279.6875 0)"/>
      <use xlink:href="#DejaVuSans-74" transform="translate(340.966797 0)"/>
      <use xlink:href="#DejaVuSans-65" transform="translate(380.175781 0)"/>
      <use xlink:href="#DejaVuSans-64" transform="translate(441.699219 0)"/>
      <use xlink:href="#DejaVuSans-20" transform="translate(505.175781 0)"/>
      <use xlink:href="#DejaVuSans-56" transform="translate(536.962891 0)"/>
      <use xlink:href="#DejaVuSans-61" transform="translate(597.621094 0)"/>
      <use xlink:href="#DejaVuSans-6c" transform="translate(658.900391 0)"/>
      <use xlink:href="#DejaVuSans-75" transform="translate(686.683594 0)"/>
      <use xlink:href="#DejaVuSans-65" transform="translate(750.0625 0)"/>
     </g>
    </g>
   </g>
   <g id="line2d_65">
    <path d="M 104.349545 347.166342 
L 123.458503 347.166078 
L 123.604003 373.98251 
L 123.846502 366.526168 
L 124.089001 365.20284 
L 124.380001 364.735475 
L 124.8165 364.47156 
L 125.640998 364.285892 
L 127.629494 364.132033 
L 145.089455 363.354528 
L 147.465949 363.354528 
L 147.611449 487.148447 
L 147.805449 499.388461 
L 148.047948 502.087433 
L 148.338947 502.876962 
L 148.726946 503.231921 
L 149.308945 503.426546 
L 150.472943 503.539024 
L 153.140437 503.528227 
L 159.445423 503.431399 
L 159.639422 503.810402 
L 160.027421 504.489405 
L 160.46392 504.817119 
L 161.191419 505.050284 
L 162.549416 505.211306 
L 165.653409 505.309125 
L 171.230896 505.330111 
L 171.376396 506.72886 
L 171.909895 506.598222 
L 173.122392 506.397289 
L 175.401887 506.284158 
L 181.124874 506.282718 
L 183.11337 506.282718 
L 183.258869 506.152044 
L 184.228867 506.034617 
L 186.653862 505.899109 
L 193.201347 505.806159 
L 194.995843 505.806159 
L 195.141343 505.457113 
L 204.210823 505.358711 
L 206.878317 505.358711 
L 207.023816 505.185583 
L 207.460315 505.136737 
L 216.626795 505.106289 
L 230.643264 505.035594 
L 230.837263 504.978125 
L 234.668755 504.971271 
L 256.833205 504.914453 
L 279.967654 504.998968 
L 290.055631 505.033013 
L 290.201131 505.381791 
L 293.159624 505.249227 
L 302.132104 504.978785 
L 304.1691 504.478747 
L 306.594094 504.219591 
L 310.571085 504.035663 
L 313.772078 504.022236 
L 313.917578 504.191727 
L 316.876071 504.482486 
L 321.96856 504.726528 
L 325.654552 504.75971 
L 325.800051 505.059949 
L 329.195044 505.070058 
L 337.585525 504.972719 
L 338.507023 505.009877 
L 342.047515 505.103024 
L 342.193015 347.166342 
L 361.253472 347.180054 
L 361.495972 342.233749 
L 361.689971 341.815598 
L 362.029471 341.658334 
L 362.999468 341.566787 
L 367.800958 341.468951 
L 380.750429 341.4065 
L 385.212419 341.408237 
L 385.260919 341.246246 
L 385.697418 342.946664 
L 386.133917 343.029064 
L 388.510412 343.048002 
L 397.094892 343.028019 
L 397.240392 344.800601 
L 398.40439 345.694759 
L 399.471387 345.860626 
L 401.993382 345.974306 
L 408.977366 346.021996 
L 409.122866 346.764963 
L 420.859839 346.951987 
L 421.005339 346.450692 
L 432.742313 346.312727 
L 432.887813 345.90264 
L 436.185805 345.93059 
L 468.389733 345.904339 
L 469.117232 345.894521 
L 527.802101 345.894729 
L 527.947601 345.985362 
L 544.680063 345.868816 
L 552.197546 345.883308 
L 558.842032 345.993198 
L 579.551485 346.057792 
L 579.793985 346.057922 
L 579.939485 347.166342 
L 598.951442 347.166292 
L 598.999942 347.312753 
L 599.145442 344.965073 
L 600.794438 344.952057 
L 622.958889 344.942998 
L 623.007388 344.143328 
L 623.152888 345.608516 
L 623.492387 345.664678 
L 628.487876 345.674546 
L 634.841362 345.675296 
L 634.986862 346.570985 
L 639.982351 346.61213 
L 777.431044 346.675814 
L 777.576544 346.966996 
L 779.807539 346.997318 
L 796.9765 347.031653 
L 817.540455 347.034077 
L 817.540455 347.034077 
" clip-path="url(#p71f4cbf20b)" style="fill: none; stroke: #0000ff; stroke-width: 1.5; stroke-linecap: square"/>
   </g>
   <g id="line2d_66">
    <path d="M 104.349545 347.166342 
L 106.095542 347.127335 
L 108.035537 347.191617 
L 108.181037 347.146279 
L 108.520536 347.146345 
L 109.296534 347.116456 
L 109.587534 347.074746 
L 110.218032 347.013937 
L 110.654531 347.065915 
L 111.43053 347.04664 
L 111.770029 347.010637 
L 112.788527 346.970256 
L 114.389023 347.054615 
L 114.631523 347.061156 
L 115.60152 346.964147 
L 115.79552 346.923389 
L 116.474518 346.9807 
L 116.668518 346.922504 
L 117.396016 346.955473 
L 117.638516 346.997524 
L 117.784015 346.976012 
L 119.190512 347.01528 
L 119.724011 346.989313 
L 120.20901 346.872957 
L 122.440005 346.855175 
L 123.458503 346.855175 
L 123.555503 377.377297 
L 123.604003 369.957084 
L 123.749502 360.004333 
L 123.992002 365.582757 
L 124.234501 363.618517 
L 124.331501 363.324314 
L 124.380001 364.107603 
L 124.428501 364.045666 
L 124.477001 363.743237 
L 124.5255 364.056041 
L 124.7195 363.665166 
L 124.768 363.778264 
L 124.8165 364.016015 
L 124.865 363.840398 
L 125.107499 362.737564 
L 125.252999 363.134031 
L 125.737998 361.607035 
L 125.834998 361.686072 
L 125.931997 361.755355 
L 126.998995 359.515582 
L 127.435494 360.306911 
L 127.532494 360.231988 
L 127.677993 360.156612 
L 127.920493 359.855882 
L 128.017493 359.907671 
L 128.162992 360.105206 
L 128.211492 360.053686 
L 128.550991 360.283884 
L 128.696491 360.586054 
L 128.793491 360.601472 
L 128.98749 360.852545 
L 129.569489 360.346817 
L 129.617989 360.39971 
L 129.666489 360.328371 
L 129.811989 360.249384 
L 129.957488 360.385647 
L 130.296988 361.09644 
L 130.684987 361.06185 
L 130.878986 360.773507 
L 131.024486 360.672534 
L 131.218486 360.752847 
L 131.412485 360.948283 
L 131.848984 360.829755 
L 132.527983 361.271151 
L 132.673482 361.2594 
L 132.867482 361.422639 
L 133.012982 361.448829 
L 133.206981 361.471379 
L 133.449481 361.490497 
L 133.78898 361.71103 
L 134.128479 361.967224 
L 134.273979 362.029599 
L 134.807478 362.285823 
L 135.049977 362.25907 
L 135.437976 362.597984 
L 135.825975 362.497013 
L 136.068475 362.357729 
L 136.262474 362.368383 
L 137.183972 362.474272 
L 137.377972 362.469797 
L 137.571971 362.522845 
L 137.862971 362.454624 
L 138.00847 362.476878 
L 138.20247 362.600267 
L 139.075468 362.463276 
L 139.414967 362.323952 
L 139.802966 362.277667 
L 140.433465 361.837692 
L 140.675964 361.90688 
L 141.112463 361.842833 
L 141.500463 361.972854 
L 141.985462 362.190149 
L 142.80996 362.425905 
L 143.003959 362.4555 
L 143.197959 362.473561 
L 143.634458 362.293557 
L 144.555956 362.127631 
L 144.846955 362.16486 
L 147.465949 362.16486 
L 147.611449 495.356226 
L 147.902448 513.54157 
L 147.999448 513.769717 
L 148.193448 515.691976 
L 148.290447 516.032538 
L 148.338947 515.990269 
L 148.435947 515.607302 
L 148.484447 515.649175 
L 148.581447 515.523815 
L 148.872446 514.468655 
L 148.920946 514.436783 
L 149.066446 514.884665 
L 149.114946 514.864927 
L 149.163445 514.793839 
L 149.405945 515.446464 
L 149.454445 515.459515 
L 149.745444 516.816657 
L 149.987944 517.924155 
L 150.424443 519.625097 
L 150.569942 519.817742 
L 150.618442 519.75057 
L 150.666942 519.823889 
L 150.812442 520.053712 
L 151.006441 520.080733 
L 151.054941 520.014945 
L 151.103441 520.119977 
L 151.394441 520.495903 
L 151.53994 520.571469 
L 151.83094 520.704557 
L 151.976439 520.93295 
L 152.218939 521.400282 
L 152.461438 521.967324 
L 153.043437 522.492182 
L 153.237436 522.528942 
L 153.479936 522.619606 
L 153.770935 522.817302 
L 154.207434 523.512727 
L 155.080432 523.242627 
L 155.274432 523.24667 
L 155.516931 523.223668 
L 155.613931 523.213849 
L 155.90493 522.964718 
L 156.14743 522.842799 
L 156.341429 522.885348 
L 156.680929 522.990644 
L 159.348423 522.990644 
L 159.396923 521.138563 
L 159.493922 521.3357 
L 159.687922 520.768649 
L 159.736422 520.961174 
L 159.833422 520.966147 
L 159.930421 520.869047 
L 160.124421 521.501364 
L 160.60942 520.609107 
L 160.851919 520.830242 
L 160.997419 520.948152 
L 161.191419 520.80765 
L 161.627918 520.401611 
L 162.064417 520.103988 
L 162.403916 520.03707 
L 162.646415 520.155004 
L 162.888915 520.020927 
L 163.276914 520.346307 
L 163.713413 520.722552 
L 164.392412 520.798874 
L 165.07141 520.832231 
L 165.459409 520.945236 
L 165.992908 520.800138 
L 166.477907 520.72694 
L 166.768906 520.71806 
L 168.029903 521.184788 
L 168.272403 521.175932 
L 168.466402 521.139307 
L 169.872899 521.131176 
L 171.230896 521.131176 
L 171.376396 515.163517 
L 171.764395 515.18804 
L 171.861395 515.082236 
L 172.103894 515.681222 
L 172.588893 517.271221 
L 172.928392 517.572587 
L 173.073892 517.623574 
L 173.219392 517.827329 
L 173.461891 518.136051 
L 173.655891 518.171014 
L 173.99539 518.773578 
L 174.14089 518.800496 
L 174.383389 519.021779 
L 174.916888 518.902825 
L 175.595887 519.395992 
L 175.838386 519.573481 
L 176.323385 519.765252 
L 176.565884 519.914686 
L 177.196383 520.335022 
L 177.438882 520.366989 
L 177.778382 520.497214 
L 178.40888 520.525561 
L 178.748379 520.52007 
L 178.893879 520.477058 
L 179.233378 520.482917 
L 180.348876 520.763725 
L 181.124874 520.783557 
L 183.11337 520.783557 
L 183.258869 516.722685 
L 183.598369 516.768632 
L 184.956366 517.161095 
L 185.392865 517.057995 
L 185.732364 517.088669 
L 186.314363 517.126786 
L 186.847861 517.136382 
L 187.041861 517.047453 
L 187.38136 516.797455 
L 187.67236 516.702645 
L 187.914859 516.761727 
L 189.612355 517.073982 
L 190.679353 517.281442 
L 191.067352 517.335635 
L 191.600851 517.37915 
L 192.279849 517.587375 
L 193.007348 517.579794 
L 194.995843 517.579794 
L 195.141343 513.985161 
L 195.238343 514.027944 
L 195.480842 514.218416 
L 195.820341 514.495277 
L 196.159841 514.867853 
L 196.54784 514.976908 
L 197.663337 514.697023 
L 198.002837 514.877804 
L 199.118334 514.908843 
L 199.894332 515.123288 
L 200.427831 515.034935 
L 200.81583 514.939316 
L 201.300829 514.840879 
L 201.688828 514.82685 
L 202.173827 514.805462 
L 202.755826 514.762319 
L 203.046825 514.770706 
L 203.531824 514.703939 
L 204.259323 514.647444 
L 206.878317 514.647444 
L 207.023816 514.461756 
L 207.508815 514.417108 
L 218.76079 514.377226 
L 218.95479 514.33502 
L 219.779288 514.433084 
L 220.846286 514.517905 
L 221.379784 514.570834 
L 221.719284 514.608316 
L 222.931781 514.696934 
L 223.31978 514.708183 
L 223.998779 514.652167 
L 224.920276 514.751074 
L 225.211276 514.811398 
L 225.890274 514.765417 
L 226.375273 514.715937 
L 226.714772 514.731841 
L 227.102772 514.793596 
L 227.92727 514.798053 
L 230.643264 514.80007 
L 230.788763 514.735046 
L 240.197742 514.754845 
L 242.525737 514.754845 
L 242.671237 514.601836 
L 245.144731 514.615598 
L 245.387231 514.658766 
L 245.67823 514.660022 
L 246.114729 514.744318 
L 246.551228 514.64896 
L 247.424226 514.654389 
L 248.103225 514.650531 
L 248.491224 514.599915 
L 250.528219 514.723903 
L 251.352718 514.851928 
L 253.535213 514.885585 
L 254.408211 514.885585 
L 254.55371 514.694635 
L 257.657703 514.705861 
L 266.290684 514.71636 
L 266.436184 514.616402 
L 267.163682 514.67415 
L 268.909678 514.504139 
L 269.491677 514.578329 
L 269.976676 514.508366 
L 270.558675 514.491408 
L 271.237673 514.455641 
L 280.258653 514.574042 
L 283.847645 514.56693 
L 287.630637 514.555752 
L 290.055631 514.555752 
L 290.152631 515.069883 
L 290.201131 515.06023 
L 291.850127 514.927104 
L 296.360617 514.881193 
L 301.938105 514.836108 
L 301.986605 515.278707 
L 302.083604 515.263712 
L 302.471604 515.166819 
L 304.557099 514.883471 
L 307.515592 514.831447 
L 309.843587 514.759143 
L 315.857574 514.8808 
L 317.215571 514.973519 
L 325.654552 515.088219 
L 325.800051 515.32812 
L 337.537025 515.344672 
L 337.731025 515.296718 
L 339.234521 515.35771 
L 341.562516 515.295693 
L 342.047515 515.323203 
L 342.193015 347.165946 
L 342.484014 347.182698 
L 343.842011 347.123361 
L 345.782007 347.183279 
L 345.927507 347.137249 
L 346.267006 347.137445 
L 347.043004 347.106454 
L 347.334003 347.063934 
L 347.964502 347.002736 
L 348.401001 347.052338 
L 349.176999 347.031681 
L 349.419499 347.010092 
L 349.952998 346.98047 
L 353.105491 346.96713 
L 356.112484 346.996717 
L 357.470481 346.957039 
L 357.95548 346.838548 
L 360.428974 346.819934 
L 361.204972 346.819934 
L 361.301972 350.076448 
L 361.398972 337.980949 
L 361.447472 338.234388 
L 361.495972 336.732458 
L 361.738471 344.473031 
L 361.980971 343.010298 
L 362.077971 342.813942 
L 362.12647 343.637509 
L 362.17497 343.612833 
L 362.22347 343.342309 
L 362.27197 343.679632 
L 362.46597 343.369175 
L 362.562969 343.752013 
L 362.611469 343.58959 
L 362.853969 342.537451 
L 362.999468 342.953432 
L 363.484467 341.473391 
L 363.581467 341.558535 
L 363.678467 341.632691 
L 364.745465 339.410569 
L 365.181964 340.211213 
L 365.278963 340.134873 
L 365.424463 340.058674 
L 365.666963 339.760458 
L 365.763962 339.810613 
L 365.909462 340.0052 
L 365.957962 339.956386 
L 366.394461 340.388871 
L 366.68546 340.741232 
L 366.78246 340.701629 
L 366.87946 340.527851 
L 367.02496 340.342584 
L 367.121959 340.447281 
L 367.170459 340.364348 
L 367.461459 340.17614 
L 367.703958 340.297966 
L 368.043457 341.020053 
L 368.431456 340.988654 
L 368.625456 340.702556 
L 368.770956 340.606745 
L 368.964955 340.691175 
L 369.158955 340.891215 
L 369.595454 340.779719 
L 370.322952 341.218307 
L 370.419952 341.242464 
L 370.662451 341.450017 
L 371.535449 341.739473 
L 371.874949 342.008011 
L 372.020448 342.072721 
L 372.553947 342.354258 
L 372.796447 342.336223 
L 373.184446 342.681119 
L 373.572445 342.599799 
L 373.814944 342.478982 
L 374.008944 342.502792 
L 374.930442 342.662461 
L 375.172941 342.697624 
L 375.318441 342.72468 
L 375.60944 342.671882 
L 375.75494 342.699835 
L 375.94894 342.836415 
L 376.482438 342.773383 
L 376.676438 342.747784 
L 376.821938 342.750693 
L 377.161437 342.635382 
L 377.549436 342.609721 
L 378.179935 342.22142 
L 378.422434 342.301897 
L 378.858933 342.257917 
L 379.198432 342.366769 
L 379.731931 342.638007 
L 380.604929 342.886622 
L 380.798929 342.967784 
L 380.992928 342.936262 
L 381.235428 342.862619 
L 382.302425 342.673525 
L 382.593425 342.718845 
L 385.212419 342.718845 
L 385.357919 337.686064 
L 385.406419 338.134087 
L 385.551918 344.97511 
L 385.600418 344.848175 
L 385.648918 344.983031 
L 385.745918 344.554476 
L 385.891417 345.95702 
L 385.939917 345.857708 
L 385.988417 345.972142 
L 386.036917 346.033191 
L 386.085417 345.926951 
L 386.230917 345.444159 
L 386.327916 345.249482 
L 386.618916 344.06162 
L 386.667416 344.013383 
L 386.812915 344.422184 
L 386.909915 344.309436 
L 387.152415 344.91941 
L 387.200915 344.925339 
L 387.491914 346.250352 
L 387.734413 347.338833 
L 388.170912 349.017192 
L 388.316412 349.204841 
L 388.364912 349.136266 
L 388.413412 349.208194 
L 388.510412 349.330562 
L 388.704411 349.494682 
L 388.801411 349.391698 
L 388.849911 349.496068 
L 389.14091 349.869796 
L 389.28641 349.945123 
L 389.577409 350.078659 
L 389.722909 350.307462 
L 389.965408 350.777144 
L 390.207908 351.347104 
L 390.789906 351.881452 
L 390.983906 351.92231 
L 391.226406 352.018433 
L 391.517405 352.223264 
L 391.953904 352.929924 
L 392.826902 352.685472 
L 393.020902 352.695554 
L 393.263401 352.680087 
L 393.360401 352.673226 
L 393.6514 352.433662 
L 393.8939 352.3195 
L 394.087899 352.368191 
L 394.427398 352.484365 
L 397.094892 352.484365 
L 397.240392 353.044938 
L 397.579891 352.194104 
L 397.676891 352.005635 
L 397.822391 352.512707 
L 397.870891 352.507561 
L 398.35589 351.44017 
L 398.598389 351.612279 
L 398.743889 351.707316 
L 398.937888 351.540436 
L 399.665387 350.869638 
L 399.907886 350.730341 
L 400.101886 350.66012 
L 400.441385 350.74244 
L 400.635385 350.646549 
L 401.023384 350.960271 
L 401.459883 351.32617 
L 402.138881 351.38991 
L 402.81788 351.412881 
L 403.205879 351.521831 
L 403.739378 351.371968 
L 404.272876 351.280697 
L 404.515376 351.286168 
L 405.824873 351.766606 
L 406.018873 351.740601 
L 406.212872 351.703556 
L 407.667869 351.69519 
L 408.977366 351.69519 
L 409.122866 344.884557 
L 409.316865 345.032358 
L 409.413865 345.145666 
L 409.462365 345.08352 
L 409.607865 344.96481 
L 409.898864 345.865373 
L 410.480863 347.687988 
L 410.626362 347.739532 
L 410.820362 347.800953 
L 411.014361 348.144142 
L 411.256861 348.373329 
L 411.402361 348.417868 
L 411.74186 349.052149 
L 411.887359 349.089726 
L 412.129859 349.327811 
L 412.663358 349.235849 
L 413.342356 349.755102 
L 413.584856 349.940159 
L 414.069855 350.14389 
L 414.312354 350.297996 
L 414.942853 350.727168 
L 415.185352 350.760997 
L 415.524851 350.894131 
L 416.15535 350.922778 
L 416.494849 350.916606 
L 416.640349 350.872885 
L 416.979848 350.877864 
L 418.046846 351.149937 
L 419.016844 351.176088 
L 420.859839 351.176088 
L 421.005339 346.728531 
L 421.296338 346.772921 
L 422.120837 347.107966 
L 422.411836 347.242724 
L 422.654335 347.301048 
L 423.187834 347.218517 
L 423.478834 347.235642 
L 424.109332 347.298712 
L 424.594331 347.305921 
L 424.788331 347.219963 
L 425.12783 346.974587 
L 425.418829 346.883373 
L 425.661329 346.945202 
L 427.358825 347.271747 
L 428.425823 347.485454 
L 428.813822 347.541507 
L 429.34732 347.587328 
L 430.026319 347.798154 
L 430.802317 347.79075 
L 432.742313 347.79075 
L 432.887813 344.19761 
L 432.984812 344.242466 
L 433.227312 344.447407 
L 433.566811 344.747106 
L 433.90631 345.138875 
L 434.294309 345.265916 
L 435.409807 345.024254 
L 435.749306 345.213541 
L 436.864804 345.267903 
L 437.640802 345.495116 
L 438.174301 345.414297 
L 438.5623 345.323778 
L 439.047299 345.231612 
L 439.435298 345.221887 
L 439.920297 345.205493 
L 440.502296 345.168446 
L 440.793295 345.179575 
L 441.278294 345.117263 
L 442.005792 345.066106 
L 457.331758 345.169196 
L 458.495755 345.317451 
L 458.786755 345.260198 
L 459.271754 345.359978 
L 459.659753 345.371302 
L 459.902252 345.386458 
L 462.084747 345.438373 
L 462.327247 345.417202 
L 462.569746 345.432997 
L 463.006245 345.517254 
L 464.412742 345.424275 
L 464.752242 345.504175 
L 467.177236 345.521705 
L 480.272207 345.535019 
L 480.417707 345.382294 
L 482.406202 345.379813 
L 482.697201 345.369775 
L 484.103698 345.538127 
L 484.637197 345.454175 
L 485.413195 345.504192 
L 487.64419 345.405131 
L 489.002187 345.648546 
L 492.15468 345.685346 
L 492.30018 345.626234 
L 498.896165 345.671397 
L 505.443651 345.641269 
L 505.88015 345.488128 
L 507.432146 345.530086 
L 507.965645 345.489672 
L 511.894136 345.575533 
L 512.573135 345.563292 
L 513.543133 345.56922 
L 516.259127 345.458764 
L 519.945118 345.386031 
L 527.802101 345.35781 
L 527.947601 345.627576 
L 530.081596 345.595832 
L 535.998583 345.585011 
L 539.684574 345.568301 
L 539.830074 346.043473 
L 540.315073 346.045285 
L 540.848572 345.999463 
L 541.52757 346.054508 
L 543.031067 346.129295 
L 543.613066 346.180115 
L 546.377559 346.193832 
L 548.705554 346.183507 
L 554.089042 346.164636 
L 557.096036 346.199882 
L 566.844514 346.157562 
L 577.61149 346.14824 
L 579.017987 346.060703 
L 579.793985 346.082938 
L 579.987984 349.382592 
L 580.133484 347.211637 
L 580.181984 348.803191 
L 580.230484 348.800162 
L 580.278984 348.197682 
L 580.327484 348.798329 
L 580.521483 351.108215 
L 580.763983 342.647911 
L 580.812483 343.712655 
L 580.860983 339.053087 
L 580.957982 339.858291 
L 581.151982 342.875001 
L 581.200482 342.358013 
L 581.248982 332.314162 
L 581.297482 334.143479 
L 581.442981 341.251224 
L 581.491481 341.373592 
L 581.685481 344.115741 
L 581.78248 342.372892 
L 581.83098 342.54753 
L 581.92798 342.430677 
L 581.97648 343.712861 
L 582.02498 343.290228 
L 582.07348 342.902307 
L 582.12198 345.59383 
L 582.17048 343.902984 
L 582.267479 344.317674 
L 582.315979 345.264205 
L 582.364479 344.520785 
L 582.412979 344.609525 
L 582.461479 344.308504 
L 582.509979 342.342816 
L 582.558479 343.230002 
L 582.606979 343.274244 
L 582.655479 343.518577 
L 582.897978 348.940665 
L 582.946478 348.685378 
L 582.994978 348.832071 
L 583.091978 352.25896 
L 583.140477 350.765632 
L 583.237477 350.26924 
L 583.285977 349.554167 
L 583.334477 350.331022 
L 583.382977 350.553497 
L 583.431477 351.484074 
L 583.479977 357.007396 
L 583.576976 343.744819 
L 583.625476 348.615791 
L 583.673976 344.275559 
L 583.722476 345.938991 
L 583.964976 344.542766 
L 584.013475 344.296732 
L 584.158975 345.83412 
L 584.255975 345.627108 
L 584.401475 344.307055 
L 584.449974 344.721143 
L 584.498474 344.677485 
L 585.031973 336.072754 
L 585.080473 336.990507 
L 585.322973 333.216989 
L 585.419972 333.397518 
L 585.468472 334.479973 
L 585.516972 334.473793 
L 585.662472 330.993984 
L 585.710972 330.936851 
L 585.759472 332.824487 
L 585.807971 331.18761 
L 585.856471 330.096062 
L 586.001971 335.853953 
L 586.050471 335.842097 
L 586.147471 335.839499 
L 586.24447 336.697449 
L 586.29297 336.184896 
L 586.34147 335.59565 
L 586.43847 335.735013 
L 586.53547 329.916061 
L 586.68097 334.391956 
L 586.729469 334.822155 
L 586.777969 334.364149 
L 586.826469 334.469176 
L 586.874969 334.437856 
L 586.923469 333.825682 
L 586.971969 331.517878 
L 587.068969 331.872097 
L 587.117469 331.569489 
L 587.165968 331.675158 
L 587.214468 332.358471 
L 587.359968 329.2843 
L 587.408468 328.964223 
L 587.456968 329.077452 
L 587.553968 331.102918 
L 587.699467 328.775284 
L 587.796467 329.599314 
L 587.941967 324.107629 
L 587.990467 324.598051 
L 588.038966 324.004378 
L 588.087466 324.347488 
L 588.184466 325.724945 
L 588.232966 325.484404 
L 588.620965 329.69683 
L 588.669465 329.628384 
L 588.766465 333.680938 
L 588.814965 333.67636 
L 588.863465 333.772927 
L 589.008964 335.652523 
L 589.057464 335.523516 
L 589.202964 335.83521 
L 589.396963 332.532859 
L 589.590963 335.11212 
L 589.639463 334.991771 
L 589.687963 332.17649 
L 589.736463 332.973983 
L 589.784963 335.262834 
L 589.833462 334.021581 
L 589.881962 334.111771 
L 589.930462 336.336477 
L 589.978962 335.571336 
L 590.027462 335.555895 
L 590.075962 335.661196 
L 590.221462 334.520823 
L 590.318461 333.900273 
L 590.463961 337.357339 
L 590.560961 330.541203 
L 590.609461 331.050161 
L 590.706461 332.083919 
L 590.85196 327.476639 
L 591.04596 327.007742 
L 591.288459 321.077411 
L 591.336959 322.100622 
L 591.385459 321.748552 
L 591.433959 321.188711 
L 591.530959 323.891674 
L 591.579459 323.220668 
L 591.627958 323.273015 
L 591.724958 325.1448 
L 591.870458 324.149051 
L 591.967458 326.56528 
L 592.064458 320.533342 
L 592.112957 320.702921 
L 592.209957 320.325124 
L 592.258457 321.329042 
L 592.306957 320.132687 
L 592.355457 318.420479 
L 592.452457 318.78682 
L 592.500957 318.330245 
L 592.597956 322.724315 
L 592.646456 320.507539 
L 592.694956 317.599771 
L 592.840456 323.274282 
L 592.888956 323.782878 
L 593.034455 327.4346 
L 593.082955 329.145971 
L 593.131455 327.734817 
L 593.179955 321.993682 
L 593.228455 322.870049 
L 593.422454 328.367255 
L 593.470954 328.385446 
L 593.567954 326.490864 
L 593.616454 328.268023 
L 593.664954 327.912647 
L 593.713454 327.453447 
L 593.858954 330.543505 
L 593.907453 330.707962 
L 593.955953 331.809565 
L 594.004453 331.346223 
L 594.198453 328.079895 
L 594.246953 328.120489 
L 594.295453 327.973401 
L 594.489452 325.483183 
L 594.586452 329.604724 
L 594.634952 329.50153 
L 594.683452 329.240665 
L 594.731952 329.930519 
L 594.828951 328.651389 
L 594.974451 334.742941 
L 595.022951 328.058948 
L 595.071451 328.508663 
L 595.119951 331.826765 
L 595.168451 327.56915 
L 595.26545 324.394864 
L 595.31395 320.088205 
L 595.41095 320.653957 
L 595.45945 321.045084 
L 595.55645 317.307102 
L 595.60495 319.412004 
L 595.701949 315.074766 
L 595.750449 315.242927 
L 595.847449 312.967273 
L 595.895949 314.108682 
L 595.944449 316.5176 
L 596.041449 316.288005 
L 596.186948 314.636779 
L 596.235448 316.232345 
L 596.380948 313.287341 
L 598.951442 313.287341 
L 599.048442 335.585963 
L 599.096942 317.918949 
L 599.145442 316.717627 
L 599.387941 325.894386 
L 599.484941 327.145925 
L 599.630441 325.120882 
L 599.72744 326.603899 
L 599.77594 325.881982 
L 599.92144 327.211955 
L 599.96994 326.358451 
L 600.01844 327.20706 
L 600.06694 329.764943 
L 600.11544 327.841917 
L 600.163939 327.741456 
L 600.212439 327.784678 
L 600.260939 328.156089 
L 600.551939 323.982143 
L 600.697438 327.269079 
L 600.794438 326.888805 
L 600.988438 327.227434 
L 601.279437 323.159043 
L 601.521936 328.780666 
L 601.570436 328.533872 
L 601.618936 328.566279 
L 601.667436 328.931559 
L 601.764436 327.173495 
L 601.812936 327.222688 
L 601.861436 327.323236 
L 601.909936 327.213107 
L 601.958435 327.913293 
L 602.055435 324.206631 
L 602.103935 326.547833 
L 602.152435 321.862024 
L 602.200935 324.156254 
L 602.346435 327.567246 
L 602.394934 328.527246 
L 602.443434 327.013442 
L 602.491934 327.234207 
L 602.637434 328.066113 
L 602.685934 326.498642 
L 602.734434 331.415201 
L 602.831433 330.987714 
L 602.879933 331.244882 
L 602.928433 331.010747 
L 602.976933 330.985286 
L 603.122433 328.445499 
L 603.170933 328.467709 
L 603.364932 332.467473 
L 603.413432 333.776135 
L 603.461932 333.038011 
L 603.558932 332.136927 
L 603.607432 332.347903 
L 603.655932 333.112772 
L 603.704432 332.209281 
L 603.752931 332.501699 
L 603.801431 332.465874 
L 603.849931 331.135335 
L 603.898431 332.727282 
L 604.18943 336.577811 
L 604.23793 333.462392 
L 604.28643 333.690486 
L 604.43193 335.405196 
L 604.57743 334.34722 
L 604.625929 334.38245 
L 604.674429 333.075382 
L 604.722929 333.095593 
L 604.868429 333.514876 
L 604.965429 333.532735 
L 605.013929 332.945793 
L 605.062429 332.969325 
L 605.159428 333.702655 
L 605.207928 332.574058 
L 605.304928 332.778423 
L 605.450428 333.596535 
L 605.547427 333.977266 
L 605.644427 336.088058 
L 605.692927 335.653403 
L 605.741427 334.385355 
L 605.789927 335.046573 
L 605.886927 335.378306 
L 605.935427 334.722505 
L 605.983926 335.027173 
L 606.032426 335.122642 
L 606.080926 337.688201 
L 606.177926 331.660966 
L 606.226426 332.366834 
L 606.274926 332.922806 
L 606.323426 332.81335 
L 606.420425 332.487605 
L 606.517425 333.085358 
L 606.759925 335.445925 
L 606.808425 335.197785 
L 606.953924 337.01337 
L 607.002424 338.824277 
L 607.050924 338.330221 
L 607.244924 335.680077 
L 607.293424 336.8083 
L 607.390423 337.716394 
L 607.438923 336.56014 
L 607.487423 337.390419 
L 607.584423 337.015892 
L 607.632923 337.469056 
L 607.729923 337.382876 
L 607.778422 336.855136 
L 607.826922 337.320678 
L 607.875422 337.366254 
L 608.069422 333.980375 
L 608.214921 335.461249 
L 608.311921 335.537909 
L 608.457421 337.88405 
L 608.554421 337.626747 
L 608.69992 334.294828 
L 608.94242 338.315037 
L 608.99092 338.253433 
L 609.08792 336.831077 
L 609.136419 336.873624 
L 609.281919 337.49551 
L 609.330419 337.485874 
L 609.378919 337.495973 
L 609.427419 335.887546 
L 609.572918 340.946311 
L 609.621418 340.895073 
L 609.766918 339.604305 
L 610.009417 340.837857 
L 610.057917 340.627079 
L 610.203417 343.78182 
L 610.251917 343.683314 
L 610.348917 343.878589 
L 610.397417 343.14213 
L 610.445917 344.492761 
L 610.494416 343.984136 
L 610.542916 341.911087 
L 610.639916 354.394247 
L 610.688416 352.049115 
L 610.736916 351.910892 
L 610.833916 350.493179 
L 610.930915 351.719505 
L 611.124915 349.959447 
L 611.318915 348.823889 
L 611.367414 348.939687 
L 611.415914 348.6674 
L 611.464414 349.153614 
L 611.561414 351.276218 
L 611.609914 351.21741 
L 611.658414 350.024292 
L 611.755414 353.758892 
L 611.803913 353.329021 
L 611.852413 353.395588 
L 611.900913 352.589511 
L 612.094913 356.838504 
L 612.143413 356.446753 
L 612.385912 358.554482 
L 612.434412 358.457334 
L 612.579912 356.981894 
L 612.628412 358.362091 
L 612.676912 358.360183 
L 612.822411 356.189966 
L 612.919411 356.69677 
L 612.967911 357.473565 
L 613.064911 357.45624 
L 613.25891 356.412971 
L 613.30741 356.4944 
L 613.45291 355.952855 
L 613.50141 355.902215 
L 613.54991 355.091821 
L 613.598409 355.767387 
L 613.646909 355.955916 
L 613.889409 353.367192 
L 614.083408 358.204625 
L 614.228908 358.777273 
L 614.325908 358.644942 
L 614.519907 357.623684 
L 614.568407 360.834243 
L 614.665407 360.821684 
L 614.810907 357.254759 
L 614.859407 357.685135 
L 614.956406 358.475718 
L 615.004906 357.781546 
L 615.053406 358.48321 
L 615.101906 358.596184 
L 615.150406 357.23298 
L 615.198906 357.433426 
L 615.344406 360.451435 
L 615.392905 360.409898 
L 615.441405 359.153437 
L 615.489905 359.517027 
L 615.538405 361.621225 
L 615.635405 361.38963 
L 615.732405 357.063633 
L 615.780905 359.788126 
L 615.829405 360.827621 
L 615.877904 360.817547 
L 615.974904 359.347332 
L 616.120404 360.572466 
L 616.168904 359.522606 
L 616.217404 359.793578 
L 616.314403 360.461825 
L 616.362903 360.274911 
L 616.459903 357.051387 
L 616.508403 357.375173 
L 616.556903 357.284123 
L 616.799402 359.835723 
L 616.993402 360.396378 
L 617.041902 359.406186 
L 617.090402 359.451358 
L 617.187401 361.515068 
L 617.235901 361.052601 
L 617.332901 360.797709 
L 617.381401 361.028496 
L 617.526901 356.910914 
L 617.6724 357.377451 
L 617.7209 359.895885 
L 617.7694 358.229663 
L 617.8179 358.478774 
L 617.8664 360.253799 
L 617.9634 359.973962 
L 618.0119 359.928013 
L 618.0604 359.449174 
L 618.108899 359.465715 
L 618.205899 360.049237 
L 618.254399 359.957145 
L 618.302899 360.153274 
L 618.545398 358.255718 
L 618.642398 358.228965 
L 618.836398 361.525631 
L 618.884898 362.109801 
L 619.030397 360.533553 
L 619.078897 360.721393 
L 619.127397 360.590568 
L 619.175897 360.547052 
L 619.272897 359.941522 
L 619.321397 360.008488 
L 619.515396 361.26666 
L 619.563896 361.182963 
L 619.612396 361.372524 
L 620.000395 358.338574 
L 620.097395 359.72694 
L 620.242895 356.517999 
L 620.291395 357.055359 
L 622.958889 357.055359 
L 623.104388 339.410304 
L 623.152888 340.939003 
L 623.298388 349.547532 
L 623.492387 348.129281 
L 623.637887 349.541234 
L 623.686387 349.358094 
L 623.783387 349.419645 
L 624.074386 348.147437 
L 624.316886 346.737393 
L 624.413885 346.605752 
L 624.559385 347.036002 
L 624.607885 347.013131 
L 624.656385 346.927189 
L 624.898884 347.606558 
L 624.947384 347.652824 
L 625.335383 349.799419 
L 625.577883 350.978365 
L 626.208381 352.544151 
L 626.450881 352.888766 
L 626.547881 352.788218 
L 626.59638 352.905802 
L 626.83888 353.267611 
L 627.081379 353.476942 
L 627.614878 354.069649 
L 627.711878 354.348033 
L 627.954377 354.9365 
L 628.487876 355.438487 
L 629.263875 355.764189 
L 629.700374 356.515529 
L 630.961371 356.260723 
L 631.20387 356.148591 
L 631.640369 355.898798 
L 631.834369 355.942446 
L 632.173868 356.042971 
L 634.841362 356.042971 
L 634.938362 357.892909 
L 634.986862 357.758746 
L 635.374861 354.025884 
L 635.423361 353.851291 
L 635.56886 354.188714 
L 635.66586 353.883651 
L 635.95686 352.981168 
L 636.199359 352.554812 
L 636.393359 352.693702 
L 636.635858 352.534582 
L 636.829858 352.342642 
L 636.975357 352.194726 
L 637.217857 351.847675 
L 637.363356 351.749726 
L 637.605856 351.535166 
L 637.993855 351.487807 
L 638.187855 351.502078 
L 638.381854 351.407604 
L 638.818353 351.743032 
L 639.157852 352.012071 
L 639.448852 351.988094 
L 640.07935 352.002474 
L 640.612849 351.987881 
L 640.855349 352.032159 
L 641.291848 351.964175 
L 641.679847 351.757955 
L 642.504345 351.759144 
L 643.474343 351.939957 
L 644.298841 351.85804 
L 646.723836 351.85804 
L 646.869335 345.737062 
L 647.160335 345.763776 
L 647.354334 345.318672 
L 647.402834 345.397307 
L 647.839333 346.65286 
L 648.081833 347.193586 
L 648.372832 347.40727 
L 648.566831 347.338466 
L 648.712331 347.458903 
L 648.906331 347.661477 
L 649.19733 347.722398 
L 649.488329 348.122859 
L 649.633829 348.100982 
L 649.876329 348.22526 
L 650.409827 348.007551 
L 651.137326 348.425814 
L 651.379825 348.502306 
L 651.719324 348.616761 
L 652.155823 348.798384 
L 652.592322 348.983717 
L 653.028822 348.990851 
L 653.465321 349.055081 
L 653.70782 349.036812 
L 654.871817 348.827584 
L 656.714813 349.012739 
L 658.606309 349.012739 
L 658.751809 345.349748 
L 658.994308 345.398902 
L 660.400805 346.258937 
L 660.934304 346.146099 
L 661.128303 346.154283 
L 661.613302 346.220791 
L 662.049801 346.368415 
L 662.7773 346.034663 
L 663.068299 345.838945 
L 664.329296 346.19007 
L 664.620296 346.368132 
L 666.802791 346.849987 
L 667.19079 346.909643 
L 667.966788 347.172047 
L 670.488783 347.172047 
L 670.585782 345.843399 
L 670.634282 345.854985 
L 670.731282 345.900294 
L 670.925282 346.041447 
L 671.119281 346.051137 
L 671.895279 346.495595 
L 672.525778 346.309092 
L 672.768277 346.041856 
L 673.447276 346.089394 
L 673.592776 346.079092 
L 674.223274 345.970542 
L 674.417274 345.984493 
L 674.562773 345.992028 
L 675.193272 346.19991 
L 675.484271 346.185501 
L 675.726771 346.146409 
L 677.278767 345.733935 
L 678.782264 345.564227 
L 679.218763 345.46888 
L 679.897762 345.42808 
L 694.25373 345.387735 
L 694.302229 345.117227 
L 694.350729 345.319022 
L 694.544729 345.410461 
L 694.981228 345.505262 
L 695.999726 345.645477 
L 697.551722 345.648141 
L 699.346218 345.64459 
L 701.043714 345.66754 
L 706.136203 345.673264 
L 706.281703 345.845968 
L 708.318698 345.927783 
L 712.829188 345.907474 
L 718.018677 345.916132 
L 718.164176 345.656003 
L 719.667673 345.634129 
L 720.540671 345.585782 
L 720.88017 345.659101 
L 721.219669 345.6712 
L 721.656168 345.711012 
L 722.383667 345.602178 
L 723.402165 345.628247 
L 724.663162 345.491713 
L 726.360658 345.668177 
L 727.233656 345.739508 
L 732.083645 345.845242 
L 733.247643 345.87052 
L 736.691135 345.841304 
L 741.007625 345.841302 
L 743.28712 345.74232 
L 744.063118 345.62066 
L 744.742117 345.729785 
L 746.051614 345.660152 
L 746.730613 345.626853 
L 755.121094 345.870329 
L 758.613086 345.830449 
L 765.548571 345.797285 
L 766.276069 345.782655 
L 767.391566 345.861133 
L 768.410064 345.86798 
L 770.39856 345.885847 
L 772.144556 345.889768 
L 772.920554 345.903823 
L 777.431044 345.858178 
L 777.576544 346.72183 
L 778.013043 346.74712 
L 779.22554 346.768538 
L 781.068536 346.861121 
L 782.378033 346.872698 
L 785.433526 346.804999 
L 787.422022 346.768396 
L 791.787012 346.877097 
L 794.551506 347.004518 
L 800.322993 347.020774 
L 816.521957 346.920909 
L 817.055456 346.890325 
L 817.540455 346.903443 
L 817.540455 346.903443 
" clip-path="url(#p71f4cbf20b)" style="fill: none; stroke-dasharray: 5.55,2.4; stroke-dashoffset: 0; stroke: #ff0000; stroke-width: 1.5"/>
   </g>
   <g id="line2d_67">
    <path d="M 342.096015 534.04 
L 342.096015 302.44 
" clip-path="url(#p71f4cbf20b)" style="fill: none; stroke-dasharray: 1.5,2.475; stroke-dashoffset: 0; stroke: #808080; stroke-opacity: 0.6; stroke-width: 1.5"/>
   </g>
   <g id="line2d_68">
    <path d="M 579.842485 534.04 
L 579.842485 302.44 
" clip-path="url(#p71f4cbf20b)" style="fill: none; stroke-dasharray: 1.5,2.475; stroke-dashoffset: 0; stroke: #808080; stroke-opacity: 0.6; stroke-width: 1.5"/>
   </g>
   <g id="patch_9">
    <path d="M 68.69 534.04 
L 68.69 302.44 
" style="fill: none; stroke: #000000; stroke-width: 0.8; stroke-linejoin: miter; stroke-linecap: square"/>
   </g>
   <g id="patch_10">
    <path d="M 853.2 534.04 
L 853.2 302.44 
" style="fill: none; stroke: #000000; stroke-width: 0.8; stroke-linejoin: miter; stroke-linecap: square"/>
   </g>
   <g id="patch_11">
    <path d="M 68.69 534.04 
L 853.2 534.04 
" style="fill: none; stroke: #000000; stroke-width: 0.8; stroke-linejoin: miter; stroke-linecap: square"/>
   </g>
   <g id="patch_12">
    <path d="M 68.69 302.44 
L 853.2 302.44 
" style="fill: none; stroke: #000000; stroke-width: 0.8; stroke-linejoin: miter; stroke-linecap: square"/>
   </g>
   <g id="text_36">
    <!-- [35] rz  —  State Estimate -->
    <g transform="translate(383.187813 296.44) scale(0.12 -0.12)">
     <use xlink:href="#DejaVuSans-5b"/>
     <use xlink:href="#DejaVuSans-33" transform="translate(39.013672 0)"/>
     <use xlink:href="#DejaVuSans-35" transform="translate(102.636719 0)"/>
     <use xlink:href="#DejaVuSans-5d" transform="translate(166.259766 0)"/>
     <use xlink:href="#DejaVuSans-20" transform="translate(205.273438 0)"/>
     <use xlink:href="#DejaVuSans-72" transform="translate(237.060547 0)"/>
     <use xlink:href="#DejaVuSans-7a" transform="translate(278.173828 0)"/>
     <use xlink:href="#DejaVuSans-20" transform="translate(330.664062 0)"/>
     <use xlink:href="#DejaVuSans-20" transform="translate(362.451172 0)"/>
     <use xlink:href="#DejaVuSans-2014" transform="translate(394.238281 0)"/>
     <use xlink:href="#DejaVuSans-20" transform="translate(494.238281 0)"/>
     <use xlink:href="#DejaVuSans-20" transform="translate(526.025391 0)"/>
     <use xlink:href="#DejaVuSans-53" transform="translate(557.8125 0)"/>
     <use xlink:href="#DejaVuSans-74" transform="translate(621.289062 0)"/>
     <use xlink:href="#DejaVuSans-61" transform="translate(660.498047 0)"/>
     <use xlink:href="#DejaVuSans-74" transform="translate(721.777344 0)"/>
     <use xlink:href="#DejaVuSans-65" transform="translate(760.986328 0)"/>
     <use xlink:href="#DejaVuSans-20" transform="translate(822.509766 0)"/>
     <use xlink:href="#DejaVuSans-45" transform="translate(854.296875 0)"/>
     <use xlink:href="#DejaVuSans-73" transform="translate(917.480469 0)"/>
     <use xlink:href="#DejaVuSans-74" transform="translate(969.580078 0)"/>
     <use xlink:href="#DejaVuSans-69" transform="translate(1008.789062 0)"/>
     <use xlink:href="#DejaVuSans-6d" transform="translate(1036.572266 0)"/>
     <use xlink:href="#DejaVuSans-61" transform="translate(1133.984375 0)"/>
     <use xlink:href="#DejaVuSans-74" transform="translate(1195.263672 0)"/>
     <use xlink:href="#DejaVuSans-65" transform="translate(1234.472656 0)"/>
    </g>
   </g>
   <g id="legend_2">
    <g id="patch_13">
     <path d="M 738.401562 339.79625 
L 846.2 339.79625 
Q 848.2 339.79625 848.2 337.79625 
L 848.2 309.44 
Q 848.2 307.44 846.2 307.44 
L 738.401562 307.44 
Q 736.401562 307.44 736.401562 309.44 
L 736.401562 337.79625 
Q 736.401562 339.79625 738.401562 339.79625 
z
" style="fill: #ffffff; opacity: 0.8; stroke: #cccccc; stroke-linejoin: miter"/>
    </g>
    <g id="line2d_69">
     <path d="M 740.401562 315.538437 
L 750.401562 315.538437 
L 760.401562 315.538437 
" style="fill: none; stroke: #0000ff; stroke-width: 1.5; stroke-linecap: square"/>
    </g>
    <g id="text_37">
     <!-- No Noise -->
     <g transform="translate(768.401562 319.038437) scale(0.1 -0.1)">
      <use xlink:href="#DejaVuSans-4e"/>
      <use xlink:href="#DejaVuSans-6f" transform="translate(74.804688 0)"/>
      <use xlink:href="#DejaVuSans-20" transform="translate(135.986328 0)"/>
      <use xlink:href="#DejaVuSans-4e" transform="translate(167.773438 0)"/>
      <use xlink:href="#DejaVuSans-6f" transform="translate(242.578125 0)"/>
      <use xlink:href="#DejaVuSans-69" transform="translate(303.759766 0)"/>
      <use xlink:href="#DejaVuSans-73" transform="translate(331.542969 0)"/>
      <use xlink:href="#DejaVuSans-65" transform="translate(383.642578 0)"/>
     </g>
    </g>
    <g id="line2d_70">
     <path d="M 740.401562 330.216562 
L 750.401562 330.216562 
L 760.401562 330.216562 
" style="fill: none; stroke-dasharray: 5.55,2.4; stroke-dashoffset: 0; stroke: #ff0000; stroke-width: 1.5"/>
    </g>
    <g id="text_38">
     <!-- With ARW/VRW -->
     <g transform="translate(768.401562 333.716562) scale(0.1 -0.1)">
      <use xlink:href="#DejaVuSans-57"/>
      <use xlink:href="#DejaVuSans-69" transform="translate(96.626953 0)"/>
      <use xlink:href="#DejaVuSans-74" transform="translate(124.410156 0)"/>
      <use xlink:href="#DejaVuSans-68" transform="translate(163.619141 0)"/>
      <use xlink:href="#DejaVuSans-20" transform="translate(226.998047 0)"/>
      <use xlink:href="#DejaVuSans-41" transform="translate(258.785156 0)"/>
      <use xlink:href="#DejaVuSans-52" transform="translate(327.193359 0)"/>
      <use xlink:href="#DejaVuSans-57" transform="translate(392.675781 0)"/>
      <use xlink:href="#DejaVuSans-2f" transform="translate(491.552734 0)"/>
      <use xlink:href="#DejaVuSans-56" transform="translate(525.244141 0)"/>
      <use xlink:href="#DejaVuSans-52" transform="translate(593.652344 0)"/>
      <use xlink:href="#DejaVuSans-57" transform="translate(659.134766 0)"/>
     </g>
    </g>
   </g>
  </g>
 </g>
 <defs>
  <clipPath id="p08376091d4">
   <rect x="68.69" y="26.88" width="784.51" height="231.6"/>
  </clipPath>
  <clipPath id="p71f4cbf20b">
   <rect x="68.69" y="302.44" width="784.51" height="231.6"/>
  </clipPath>
 </defs>
</svg>
