<?xml version="1.0" encoding="utf-8" standalone="no"?>
<!DOCTYPE svg PUBLIC "-//W3C//DTD SVG 1.1//EN"
  "http://www.w3.org/Graphics/SVG/1.1/DTD/svg11.dtd">
<svg xmlns:xlink="http://www.w3.org/1999/xlink" width="864pt" height="576pt" viewBox="0 0 864 576" xmlns="http://www.w3.org/2000/svg" version="1.1">
 <metadata>
  <rdf:RDF xmlns:dc="http://purl.org/dc/elements/1.1/" xmlns:cc="http://creativecommons.org/ns#" xmlns:rdf="http://www.w3.org/1999/02/22-rdf-syntax-ns#">
   <cc:Work>
    <dc:type rdf:resource="http://purl.org/dc/dcmitype/StillImage"/>
    <dc:date>2026-03-03T11:38:14.598540</dc:date>
    <dc:format>image/svg+xml</dc:format>
    <dc:creator>
     <cc:Agent>
      <dc:title>Matplotlib v3.10.8, https://matplotlib.org/</dc:title>
     </cc:Agent>
    </dc:creator>
   </cc:Work>
  </rdf:RDF>
 </metadata>
 <defs>
  <style type="text/css">*{stroke-linejoin: round; stroke-linecap: butt}</style>
 </defs>
 <g id="figure_1">
  <g id="patch_1">
   <path d="M 0 576 
L 864 576 
L 864 0 
L 0 0 
z
" style="fill: #ffffff"/>
  </g>
  <g id="axes_1">
   <g id="patch_2">
    <path d="M 68.6 258.48 
L 853.2 258.48 
L 853.2 26.88 
L 68.6 26.88 
z
" style="fill: #ffffff"/>
   </g>
   <g id="matplotlib.axis_1">
    <g id="xtick_1">
     <g id="line2d_1">
      <path d="M 104.263636 258.48 
L 104.263636 26.88 
" clip-path="url(#pd667bffdcb)" style="fill: none; stroke: #b0b0b0; stroke-width: 0.8; stroke-linecap: square"/>
     </g>
     <g id="line2d_2">
      <defs>
       <path id="m9593accc14" d="M 0 0 
L 0 3.5 
" style="stroke: #000000; stroke-width: 0.8"/>
      </defs>
      <g>
       <use xlink:href="#m9593accc14" x="104.263636" y="258.48" style="stroke: #000000; stroke-width: 0.8"/>
      </g>
     </g>
     <g id="text_1">
      <!-- 0 -->
      <g transform="translate(101.082386 273.078438) scale(0.1 -0.1)">
       <defs>
        <path id="DejaVuSans-30" d="M 2034 4250 
Q 1547 4250 1301 3770 
Q 1056 3291 1056 2328 
Q 1056 1369 1301 889 
Q 1547 409 2034 409 
Q 2525 409 2770 889 
Q 3016 1369 3016 2328 
Q 3016 3291 2770 3770 
Q 2525 4250 2034 4250 
z
M 2034 4750 
Q 2819 4750 3233 4129 
Q 3647 3509 3647 2328 
Q 3647 1150 3233 529 
Q 2819 -91 2034 -91 
Q 1250 -91 836 529 
Q 422 1150 422 2328 
Q 422 3509 836 4129 
Q 1250 4750 2034 4750 
z
" transform="scale(0.015625)"/>
       </defs>
       <use xlink:href="#DejaVuSans-30"/>
      </g>
     </g>
    </g>
    <g id="xtick_2">
     <g id="line2d_3">
      <path d="M 225.527276 258.48 
L 225.527276 26.88 
" clip-path="url(#pd667bffdcb)" style="fill: none; stroke: #b0b0b0; stroke-width: 0.8; stroke-linecap: square"/>
     </g>
     <g id="line2d_4">
      <g>
       <use xlink:href="#m9593accc14" x="225.527276" y="258.48" style="stroke: #000000; stroke-width: 0.8"/>
      </g>
     </g>
     <g id="text_2">
      <!-- 50 -->
      <g transform="translate(219.164776 273.078438) scale(0.1 -0.1)">
       <defs>
        <path id="DejaVuSans-35" d="M 691 4666 
L 3169 4666 
L 3169 4134 
L 1269 4134 
L 1269 2991 
Q 1406 3038 1543 3061 
Q 1681 3084 1819 3084 
Q 2600 3084 3056 2656 
Q 3513 2228 3513 1497 
Q 3513 744 3044 326 
Q 2575 -91 1722 -91 
Q 1428 -91 1123 -41 
Q 819 9 494 109 
L 494 744 
Q 775 591 1075 516 
Q 1375 441 1709 441 
Q 2250 441 2565 725 
Q 2881 1009 2881 1497 
Q 2881 1984 2565 2268 
Q 2250 2553 1709 2553 
Q 1456 2553 1204 2497 
Q 953 2441 691 2322 
L 691 4666 
z
" transform="scale(0.015625)"/>
       </defs>
       <use xlink:href="#DejaVuSans-35"/>
       <use xlink:href="#DejaVuSans-30" transform="translate(63.623047 0)"/>
      </g>
     </g>
    </g>
    <g id="xtick_3">
     <g id="line2d_5">
      <path d="M 346.790915 258.48 
L 346.790915 26.88 
" clip-path="url(#pd667bffdcb)" style="fill: none; stroke: #b0b0b0; stroke-width: 0.8; stroke-linecap: square"/>
     </g>
     <g id="line2d_6">
      <g>
       <use xlink:href="#m9593accc14" x="346.790915" y="258.48" style="stroke: #000000; stroke-width: 0.8"/>
      </g>
     </g>
     <g id="text_3">
      <!-- 100 -->
      <g transform="translate(337.247165 273.078438) scale(0.1 -0.1)">
       <defs>
        <path id="DejaVuSans-31" d="M 794 531 
L 1825 531 
L 1825 4091 
L 703 3866 
L 703 4441 
L 1819 4666 
L 2450 4666 
L 2450 531 
L 3481 531 
L 3481 0 
L 794 0 
L 794 531 
z
" transform="scale(0.015625)"/>
       </defs>
       <use xlink:href="#DejaVuSans-31"/>
       <use xlink:href="#DejaVuSans-30" transform="translate(63.623047 0)"/>
       <use xlink:href="#DejaVuSans-30" transform="translate(127.246094 0)"/>
      </g>
     </g>
    </g>
    <g id="xtick_4">
     <g id="line2d_7">
      <path d="M 468.054555 258.48 
L 468.054555 26.88 
" clip-path="url(#pd667bffdcb)" style="fill: none; stroke: #b0b0b0; stroke-width: 0.8; stroke-linecap: square"/>
     </g>
     <g id="line2d_8">
      <g>
       <use xlink:href="#m9593accc14" x="468.054555" y="258.48" style="stroke: #000000; stroke-width: 0.8"/>
      </g>
     </g>
     <g id="text_4">
      <!-- 150 -->
      <g transform="translate(458.510805 273.078438) scale(0.1 -0.1)">
       <use xlink:href="#DejaVuSans-31"/>
       <use xlink:href="#DejaVuSans-35" transform="translate(63.623047 0)"/>
       <use xlink:href="#DejaVuSans-30" transform="translate(127.246094 0)"/>
      </g>
     </g>
    </g>
    <g id="xtick_5">
     <g id="line2d_9">
      <path d="M 589.318194 258.48 
L 589.318194 26.88 
" clip-path="url(#pd667bffdcb)" style="fill: none; stroke: #b0b0b0; stroke-width: 0.8; stroke-linecap: square"/>
     </g>
     <g id="line2d_10">
      <g>
       <use xlink:href="#m9593accc14" x="589.318194" y="258.48" style="stroke: #000000; stroke-width: 0.8"/>
      </g>
     </g>
     <g id="text_5">
      <!-- 200 -->
      <g transform="translate(579.774444 273.078438) scale(0.1 -0.1)">
       <defs>
        <path id="DejaVuSans-32" d="M 1228 531 
L 3431 531 
L 3431 0 
L 469 0 
L 469 531 
Q 828 903 1448 1529 
Q 2069 2156 2228 2338 
Q 2531 2678 2651 2914 
Q 2772 3150 2772 3378 
Q 2772 3750 2511 3984 
Q 2250 4219 1831 4219 
Q 1534 4219 1204 4116 
Q 875 4013 500 3803 
L 500 4441 
Q 881 4594 1212 4672 
Q 1544 4750 1819 4750 
Q 2544 4750 2975 4387 
Q 3406 4025 3406 3419 
Q 3406 3131 3298 2873 
Q 3191 2616 2906 2266 
Q 2828 2175 2409 1742 
Q 1991 1309 1228 531 
z
" transform="scale(0.015625)"/>
       </defs>
       <use xlink:href="#DejaVuSans-32"/>
       <use xlink:href="#DejaVuSans-30" transform="translate(63.623047 0)"/>
       <use xlink:href="#DejaVuSans-30" transform="translate(127.246094 0)"/>
      </g>
     </g>
    </g>
    <g id="xtick_6">
     <g id="line2d_11">
      <path d="M 710.581834 258.48 
L 710.581834 26.88 
" clip-path="url(#pd667bffdcb)" style="fill: none; stroke: #b0b0b0; stroke-width: 0.8; stroke-linecap: square"/>
     </g>
     <g id="line2d_12">
      <g>
       <use xlink:href="#m9593accc14" x="710.581834" y="258.48" style="stroke: #000000; stroke-width: 0.8"/>
      </g>
     </g>
     <g id="text_6">
      <!-- 250 -->
      <g transform="translate(701.038084 273.078438) scale(0.1 -0.1)">
       <use xlink:href="#DejaVuSans-32"/>
       <use xlink:href="#DejaVuSans-35" transform="translate(63.623047 0)"/>
       <use xlink:href="#DejaVuSans-30" transform="translate(127.246094 0)"/>
      </g>
     </g>
    </g>
    <g id="xtick_7">
     <g id="line2d_13">
      <path d="M 831.845473 258.48 
L 831.845473 26.88 
" clip-path="url(#pd667bffdcb)" style="fill: none; stroke: #b0b0b0; stroke-width: 0.8; stroke-linecap: square"/>
     </g>
     <g id="line2d_14">
      <g>
       <use xlink:href="#m9593accc14" x="831.845473" y="258.48" style="stroke: #000000; stroke-width: 0.8"/>
      </g>
     </g>
     <g id="text_7">
      <!-- 300 -->
      <g transform="translate(822.301723 273.078438) scale(0.1 -0.1)">
       <defs>
        <path id="DejaVuSans-33" d="M 2597 2516 
Q 3050 2419 3304 2112 
Q 3559 1806 3559 1356 
Q 3559 666 3084 287 
Q 2609 -91 1734 -91 
Q 1441 -91 1130 -33 
Q 819 25 488 141 
L 488 750 
Q 750 597 1062 519 
Q 1375 441 1716 441 
Q 2309 441 2620 675 
Q 2931 909 2931 1356 
Q 2931 1769 2642 2001 
Q 2353 2234 1838 2234 
L 1294 2234 
L 1294 2753 
L 1863 2753 
Q 2328 2753 2575 2939 
Q 2822 3125 2822 3475 
Q 2822 3834 2567 4026 
Q 2313 4219 1838 4219 
Q 1578 4219 1281 4162 
Q 984 4106 628 3988 
L 628 4550 
Q 988 4650 1302 4700 
Q 1616 4750 1894 4750 
Q 2613 4750 3031 4423 
Q 3450 4097 3450 3541 
Q 3450 3153 3228 2886 
Q 3006 2619 2597 2516 
z
" transform="scale(0.015625)"/>
       </defs>
       <use xlink:href="#DejaVuSans-33"/>
       <use xlink:href="#DejaVuSans-30" transform="translate(63.623047 0)"/>
       <use xlink:href="#DejaVuSans-30" transform="translate(127.246094 0)"/>
      </g>
     </g>
    </g>
   </g>
   <g id="matplotlib.axis_2">
    <g id="ytick_1">
     <g id="line2d_15">
      <path d="M 68.6 249.279176 
L 853.2 249.279176 
" clip-path="url(#pd667bffdcb)" style="fill: none; stroke: #b0b0b0; stroke-width: 0.8; stroke-linecap: square"/>
     </g>
     <g id="line2d_16">
      <defs>
       <path id="md4fba5d76b" d="M 0 0 
L -3.5 0 
" style="stroke: #000000; stroke-width: 0.8"/>
      </defs>
      <g>
       <use xlink:href="#md4fba5d76b" x="68.6" y="249.279176" style="stroke: #000000; stroke-width: 0.8"/>
      </g>
     </g>
     <g id="text_8">
      <!-- 0.0 -->
      <g transform="translate(45.696875 253.078394) scale(0.1 -0.1)">
       <defs>
        <path id="DejaVuSans-2e" d="M 684 794 
L 1344 794 
L 1344 0 
L 684 0 
L 684 794 
z
" transform="scale(0.015625)"/>
       </defs>
       <use xlink:href="#DejaVuSans-30"/>
       <use xlink:href="#DejaVuSans-2e" transform="translate(63.623047 0)"/>
       <use xlink:href="#DejaVuSans-30" transform="translate(95.410156 0)"/>
      </g>
     </g>
    </g>
    <g id="ytick_2">
     <g id="line2d_17">
      <path d="M 68.6 206.904795 
L 853.2 206.904795 
" clip-path="url(#pd667bffdcb)" style="fill: none; stroke: #b0b0b0; stroke-width: 0.8; stroke-linecap: square"/>
     </g>
     <g id="line2d_18">
      <g>
       <use xlink:href="#md4fba5d76b" x="68.6" y="206.904795" style="stroke: #000000; stroke-width: 0.8"/>
      </g>
     </g>
     <g id="text_9">
      <!-- 0.2 -->
      <g transform="translate(45.696875 210.704014) scale(0.1 -0.1)">
       <use xlink:href="#DejaVuSans-30"/>
       <use xlink:href="#DejaVuSans-2e" transform="translate(63.623047 0)"/>
       <use xlink:href="#DejaVuSans-32" transform="translate(95.410156 0)"/>
      </g>
     </g>
    </g>
    <g id="ytick_3">
     <g id="line2d_19">
      <path d="M 68.6 164.530415 
L 853.2 164.530415 
" clip-path="url(#pd667bffdcb)" style="fill: none; stroke: #b0b0b0; stroke-width: 0.8; stroke-linecap: square"/>
     </g>
     <g id="line2d_20">
      <g>
       <use xlink:href="#md4fba5d76b" x="68.6" y="164.530415" style="stroke: #000000; stroke-width: 0.8"/>
      </g>
     </g>
     <g id="text_10">
      <!-- 0.4 -->
      <g transform="translate(45.696875 168.329633) scale(0.1 -0.1)">
       <defs>
        <path id="DejaVuSans-34" d="M 2419 4116 
L 825 1625 
L 2419 1625 
L 2419 4116 
z
M 2253 4666 
L 3047 4666 
L 3047 1625 
L 3713 1625 
L 3713 1100 
L 3047 1100 
L 3047 0 
L 2419 0 
L 2419 1100 
L 313 1100 
L 313 1709 
L 2253 4666 
z
" transform="scale(0.015625)"/>
       </defs>
       <use xlink:href="#DejaVuSans-30"/>
       <use xlink:href="#DejaVuSans-2e" transform="translate(63.623047 0)"/>
       <use xlink:href="#DejaVuSans-34" transform="translate(95.410156 0)"/>
      </g>
     </g>
    </g>
    <g id="ytick_4">
     <g id="line2d_21">
      <path d="M 68.6 122.156034 
L 853.2 122.156034 
" clip-path="url(#pd667bffdcb)" style="fill: none; stroke: #b0b0b0; stroke-width: 0.8; stroke-linecap: square"/>
     </g>
     <g id="line2d_22">
      <g>
       <use xlink:href="#md4fba5d76b" x="68.6" y="122.156034" style="stroke: #000000; stroke-width: 0.8"/>
      </g>
     </g>
     <g id="text_11">
      <!-- 0.6 -->
      <g transform="translate(45.696875 125.955253) scale(0.1 -0.1)">
       <defs>
        <path id="DejaVuSans-36" d="M 2113 2584 
Q 1688 2584 1439 2293 
Q 1191 2003 1191 1497 
Q 1191 994 1439 701 
Q 1688 409 2113 409 
Q 2538 409 2786 701 
Q 3034 994 3034 1497 
Q 3034 2003 2786 2293 
Q 2538 2584 2113 2584 
z
M 3366 4563 
L 3366 3988 
Q 3128 4100 2886 4159 
Q 2644 4219 2406 4219 
Q 1781 4219 1451 3797 
Q 1122 3375 1075 2522 
Q 1259 2794 1537 2939 
Q 1816 3084 2150 3084 
Q 2853 3084 3261 2657 
Q 3669 2231 3669 1497 
Q 3669 778 3244 343 
Q 2819 -91 2113 -91 
Q 1303 -91 875 529 
Q 447 1150 447 2328 
Q 447 3434 972 4092 
Q 1497 4750 2381 4750 
Q 2619 4750 2861 4703 
Q 3103 4656 3366 4563 
z
" transform="scale(0.015625)"/>
       </defs>
       <use xlink:href="#DejaVuSans-30"/>
       <use xlink:href="#DejaVuSans-2e" transform="translate(63.623047 0)"/>
       <use xlink:href="#DejaVuSans-36" transform="translate(95.410156 0)"/>
      </g>
     </g>
    </g>
    <g id="ytick_5">
     <g id="line2d_23">
      <path d="M 68.6 79.781653 
L 853.2 79.781653 
" clip-path="url(#pd667bffdcb)" style="fill: none; stroke: #b0b0b0; stroke-width: 0.8; stroke-linecap: square"/>
     </g>
     <g id="line2d_24">
      <g>
       <use xlink:href="#md4fba5d76b" x="68.6" y="79.781653" style="stroke: #000000; stroke-width: 0.8"/>
      </g>
     </g>
     <g id="text_12">
      <!-- 0.8 -->
      <g transform="translate(45.696875 83.580872) scale(0.1 -0.1)">
       <defs>
        <path id="DejaVuSans-38" d="M 2034 2216 
Q 1584 2216 1326 1975 
Q 1069 1734 1069 1313 
Q 1069 891 1326 650 
Q 1584 409 2034 409 
Q 2484 409 2743 651 
Q 3003 894 3003 1313 
Q 3003 1734 2745 1975 
Q 2488 2216 2034 2216 
z
M 1403 2484 
Q 997 2584 770 2862 
Q 544 3141 544 3541 
Q 544 4100 942 4425 
Q 1341 4750 2034 4750 
Q 2731 4750 3128 4425 
Q 3525 4100 3525 3541 
Q 3525 3141 3298 2862 
Q 3072 2584 2669 2484 
Q 3125 2378 3379 2068 
Q 3634 1759 3634 1313 
Q 3634 634 3220 271 
Q 2806 -91 2034 -91 
Q 1263 -91 848 271 
Q 434 634 434 1313 
Q 434 1759 690 2068 
Q 947 2378 1403 2484 
z
M 1172 3481 
Q 1172 3119 1398 2916 
Q 1625 2713 2034 2713 
Q 2441 2713 2670 2916 
Q 2900 3119 2900 3481 
Q 2900 3844 2670 4047 
Q 2441 4250 2034 4250 
Q 1625 4250 1398 4047 
Q 1172 3844 1172 3481 
z
" transform="scale(0.015625)"/>
       </defs>
       <use xlink:href="#DejaVuSans-30"/>
       <use xlink:href="#DejaVuSans-2e" transform="translate(63.623047 0)"/>
       <use xlink:href="#DejaVuSans-38" transform="translate(95.410156 0)"/>
      </g>
     </g>
    </g>
    <g id="ytick_6">
     <g id="line2d_25">
      <path d="M 68.6 37.407273 
L 853.2 37.407273 
" clip-path="url(#pd667bffdcb)" style="fill: none; stroke: #b0b0b0; stroke-width: 0.8; stroke-linecap: square"/>
     </g>
     <g id="line2d_26">
      <g>
       <use xlink:href="#md4fba5d76b" x="68.6" y="37.407273" style="stroke: #000000; stroke-width: 0.8"/>
      </g>
     </g>
     <g id="text_13">
      <!-- 1.0 -->
      <g transform="translate(45.696875 41.206491) scale(0.1 -0.1)">
       <use xlink:href="#DejaVuSans-31"/>
       <use xlink:href="#DejaVuSans-2e" transform="translate(63.623047 0)"/>
       <use xlink:href="#DejaVuSans-30" transform="translate(95.410156 0)"/>
      </g>
     </g>
    </g>
    <g id="text_14">
     <!-- Std Dev -->
     <g transform="translate(39.617187 162.463594) rotate(-90) scale(0.1 -0.1)">
      <defs>
       <path id="DejaVuSans-53" d="M 3425 4513 
L 3425 3897 
Q 3066 4069 2747 4153 
Q 2428 4238 2131 4238 
Q 1616 4238 1336 4038 
Q 1056 3838 1056 3469 
Q 1056 3159 1242 3001 
Q 1428 2844 1947 2747 
L 2328 2669 
Q 3034 2534 3370 2195 
Q 3706 1856 3706 1288 
Q 3706 609 3251 259 
Q 2797 -91 1919 -91 
Q 1588 -91 1214 -16 
Q 841 59 441 206 
L 441 856 
Q 825 641 1194 531 
Q 1563 422 1919 422 
Q 2459 422 2753 634 
Q 3047 847 3047 1241 
Q 3047 1584 2836 1778 
Q 2625 1972 2144 2069 
L 1759 2144 
Q 1053 2284 737 2584 
Q 422 2884 422 3419 
Q 422 4038 858 4394 
Q 1294 4750 2059 4750 
Q 2388 4750 2728 4690 
Q 3069 4631 3425 4513 
z
" transform="scale(0.015625)"/>
       <path id="DejaVuSans-74" d="M 1172 4494 
L 1172 3500 
L 2356 3500 
L 2356 3053 
L 1172 3053 
L 1172 1153 
Q 1172 725 1289 603 
Q 1406 481 1766 481 
L 2356 481 
L 2356 0 
L 1766 0 
Q 1100 0 847 248 
Q 594 497 594 1153 
L 594 3053 
L 172 3053 
L 172 3500 
L 594 3500 
L 594 4494 
L 1172 4494 
z
" transform="scale(0.015625)"/>
       <path id="DejaVuSans-64" d="M 2906 2969 
L 2906 4863 
L 3481 4863 
L 3481 0 
L 2906 0 
L 2906 525 
Q 2725 213 2448 61 
Q 2172 -91 1784 -91 
Q 1150 -91 751 415 
Q 353 922 353 1747 
Q 353 2572 751 3078 
Q 1150 3584 1784 3584 
Q 2172 3584 2448 3432 
Q 2725 3281 2906 2969 
z
M 947 1747 
Q 947 1113 1208 752 
Q 1469 391 1925 391 
Q 2381 391 2643 752 
Q 2906 1113 2906 1747 
Q 2906 2381 2643 2742 
Q 2381 3103 1925 3103 
Q 1469 3103 1208 2742 
Q 947 2381 947 1747 
z
" transform="scale(0.015625)"/>
       <path id="DejaVuSans-20" transform="scale(0.015625)"/>
       <path id="DejaVuSans-44" d="M 1259 4147 
L 1259 519 
L 2022 519 
Q 2988 519 3436 956 
Q 3884 1394 3884 2338 
Q 3884 3275 3436 3711 
Q 2988 4147 2022 4147 
L 1259 4147 
z
M 628 4666 
L 1925 4666 
Q 3281 4666 3915 4102 
Q 4550 3538 4550 2338 
Q 4550 1131 3912 565 
Q 3275 0 1925 0 
L 628 0 
L 628 4666 
z
" transform="scale(0.015625)"/>
       <path id="DejaVuSans-65" d="M 3597 1894 
L 3597 1613 
L 953 1613 
Q 991 1019 1311 708 
Q 1631 397 2203 397 
Q 2534 397 2845 478 
Q 3156 559 3463 722 
L 3463 178 
Q 3153 47 2828 -22 
Q 2503 -91 2169 -91 
Q 1331 -91 842 396 
Q 353 884 353 1716 
Q 353 2575 817 3079 
Q 1281 3584 2069 3584 
Q 2775 3584 3186 3129 
Q 3597 2675 3597 1894 
z
M 3022 2063 
Q 3016 2534 2758 2815 
Q 2500 3097 2075 3097 
Q 1594 3097 1305 2825 
Q 1016 2553 972 2059 
L 3022 2063 
z
" transform="scale(0.015625)"/>
       <path id="DejaVuSans-76" d="M 191 3500 
L 800 3500 
L 1894 563 
L 2988 3500 
L 3597 3500 
L 2284 0 
L 1503 0 
L 191 3500 
z
" transform="scale(0.015625)"/>
      </defs>
      <use xlink:href="#DejaVuSans-53"/>
      <use xlink:href="#DejaVuSans-74" transform="translate(63.476562 0)"/>
      <use xlink:href="#DejaVuSans-64" transform="translate(102.685547 0)"/>
      <use xlink:href="#DejaVuSans-20" transform="translate(166.162109 0)"/>
      <use xlink:href="#DejaVuSans-44" transform="translate(197.949219 0)"/>
      <use xlink:href="#DejaVuSans-65" transform="translate(274.951172 0)"/>
      <use xlink:href="#DejaVuSans-76" transform="translate(336.474609 0)"/>
     </g>
    </g>
   </g>
   <g id="line2d_27">
    <path d="M 104.263636 228.091985 
L 206.80417 228.091985 
L 206.949686 233.40564 
L 207.192214 233.960475 
L 207.531752 234.071801 
L 208.841399 234.123423 
L 218.688007 234.140301 
L 218.882028 240.084666 
L 219.124556 243.122203 
L 219.415588 244.02626 
L 219.803632 244.420285 
L 220.385698 244.648159 
L 221.549828 244.815846 
L 224.314639 244.934276 
L 230.571843 244.982652 
L 230.71736 246.332437 
L 232.269534 246.609883 
L 235.761927 246.675587 
L 242.45568 246.691416 
L 242.601196 247.115864 
L 244.298887 247.326299 
L 249.100927 247.376982 
L 254.339517 247.382368 
L 254.485033 247.551356 
L 266.223353 247.612951 
L 266.36887 247.759487 
L 303.524049 247.937225 
L 341.988875 247.952681 
L 342.134392 228.091985 
L 444.577914 228.091985 
L 444.72343 233.405867 
L 444.965958 233.960763 
L 445.305496 234.072092 
L 446.615143 234.123716 
L 456.461751 234.1406 
L 456.655773 240.083382 
L 456.8983 243.120748 
L 457.189333 244.02479 
L 457.577376 244.418838 
L 458.159442 244.646776 
L 459.323573 244.814614 
L 462.088384 244.933396 
L 468.345587 244.982119 
L 468.491104 246.332268 
L 470.043278 246.609632 
L 473.535671 246.675346 
L 480.229424 246.691221 
L 480.37494 247.115958 
L 482.072631 247.326476 
L 486.874672 247.377071 
L 492.113261 247.382405 
L 492.258777 247.551942 
L 503.997097 247.613105 
L 504.142614 247.759384 
L 541.152277 247.936907 
L 579.762619 247.952727 
L 579.908136 37.407273 
L 682.351658 37.407273 
L 682.497175 98.629299 
L 682.691197 98.850009 
L 683.564295 98.877506 
L 694.235495 98.883272 
L 694.429517 219.448305 
L 694.623539 222.13539 
L 695.011582 223.984215 
L 695.496637 225.277655 
L 696.078702 226.234375 
L 696.806284 226.994825 
L 697.679382 227.584919 
L 698.843513 228.094202 
L 700.444193 228.538244 
L 702.820961 228.946992 
L 704.227619 229.028523 
L 706.119332 229.028523 
L 706.264848 239.762375 
L 707.040935 240.948324 
L 707.623001 241.199988 
L 708.690121 241.387819 
L 711.066888 241.532909 
L 716.839037 241.62255 
L 718.003168 241.62255 
L 718.148685 247.06285 
L 719.555343 247.289911 
L 723.144747 247.348069 
L 729.887005 247.359699 
L 730.032521 247.539448 
L 741.770842 247.601736 
L 741.916358 247.751748 
L 779.993141 247.933549 
L 817.536364 247.947317 
L 817.536364 247.947317 
" clip-path="url(#pd667bffdcb)" style="fill: none; stroke: #0000ff; stroke-width: 1.5; stroke-linecap: square"/>
   </g>
   <g id="line2d_28">
    <path d="M 104.263636 228.091985 
L 206.80417 228.091985 
L 206.949686 233.409009 
L 207.192214 233.964652 
L 207.580257 234.082191 
L 209.132432 234.130604 
L 218.688007 234.144907 
L 218.882028 240.085144 
L 219.124556 243.122233 
L 219.415588 244.026331 
L 219.803632 244.420383 
L 220.385698 244.648261 
L 221.549828 244.815882 
L 224.314639 244.934331 
L 230.571843 244.982724 
L 230.71736 246.332439 
L 232.269534 246.609916 
L 235.761927 246.675624 
L 242.45568 246.691453 
L 242.601196 247.115837 
L 244.298887 247.326255 
L 249.100927 247.376947 
L 254.339517 247.38235 
L 254.485033 247.551251 
L 266.223353 247.612931 
L 266.36887 247.759512 
L 303.62106 247.937443 
L 341.988875 247.952677 
L 342.134392 228.091985 
L 444.577914 228.091985 
L 444.72343 233.409344 
L 444.965958 233.965037 
L 445.354001 234.082578 
L 446.906176 234.130993 
L 456.461751 234.145303 
L 456.655773 240.08389 
L 456.8983 243.120786 
L 457.189333 244.024877 
L 457.577376 244.418958 
L 458.159442 244.646896 
L 459.323573 244.814655 
L 462.088384 244.933431 
L 468.345587 244.982144 
L 468.491104 246.332245 
L 470.043278 246.609654 
L 473.535671 246.675374 
L 480.229424 246.691249 
L 480.37494 247.115922 
L 482.072631 247.326422 
L 486.874672 247.377031 
L 492.113261 247.382382 
L 492.258777 247.551815 
L 503.997097 247.613073 
L 504.142614 247.759421 
L 541.249288 247.937129 
L 579.762619 247.95272 
L 579.908136 37.407273 
L 682.351658 37.407273 
L 682.497175 102.614636 
L 682.642691 102.845333 
L 683.467284 102.92788 
L 694.235495 103.28821 
L 694.478022 220.645452 
L 694.72055 222.748676 
L 695.157099 224.460771 
L 695.690659 225.658606 
L 696.32123 226.536639 
L 697.097317 227.228622 
L 698.067426 227.787644 
L 699.377073 228.272415 
L 701.220281 228.700367 
L 703.645553 229.033555 
L 706.119332 229.033555 
L 706.264848 239.764153 
L 707.040935 240.95061 
L 707.623001 241.202551 
L 708.690121 241.39026 
L 711.066888 241.535385 
L 716.839037 241.624966 
L 718.003168 241.624966 
L 718.148685 247.062823 
L 719.555343 247.289904 
L 723.144747 247.348071 
L 729.887005 247.359708 
L 730.032521 247.53944 
L 741.770842 247.601733 
L 741.916358 247.751737 
L 779.993141 247.933545 
L 817.536364 247.947313 
L 817.536364 247.947313 
" clip-path="url(#pd667bffdcb)" style="fill: none; stroke-dasharray: 5.55,2.4; stroke-dashoffset: 0; stroke: #ff0000; stroke-width: 1.5"/>
   </g>
   <g id="line2d_29">
    <path d="M 342.037381 258.48 
L 342.037381 26.88 
" clip-path="url(#pd667bffdcb)" style="fill: none; stroke-dasharray: 1.5,2.475; stroke-dashoffset: 0; stroke: #808080; stroke-opacity: 0.6; stroke-width: 1.5"/>
   </g>
   <g id="line2d_30">
    <path d="M 579.811125 258.48 
L 579.811125 26.88 
" clip-path="url(#pd667bffdcb)" style="fill: none; stroke-dasharray: 1.5,2.475; stroke-dashoffset: 0; stroke: #808080; stroke-opacity: 0.6; stroke-width: 1.5"/>
   </g>
   <g id="patch_3">
    <path d="M 68.6 258.48 
L 68.6 26.88 
" style="fill: none; stroke: #000000; stroke-width: 0.8; stroke-linejoin: miter; stroke-linecap: square"/>
   </g>
   <g id="patch_4">
    <path d="M 853.2 258.48 
L 853.2 26.88 
" style="fill: none; stroke: #000000; stroke-width: 0.8; stroke-linejoin: miter; stroke-linecap: square"/>
   </g>
   <g id="patch_5">
    <path d="M 68.6 258.48 
L 853.2 258.48 
" style="fill: none; stroke: #000000; stroke-width: 0.8; stroke-linejoin: miter; stroke-linecap: square"/>
   </g>
   <g id="patch_6">
    <path d="M 68.6 26.88 
L 853.2 26.88 
" style="fill: none; stroke: #000000; stroke-width: 0.8; stroke-linejoin: miter; stroke-linecap: square"/>
   </g>
   <g id="text_15">
    <!-- [37] ry_ext2  —  Uncertainty (std dev) -->
    <g transform="translate(346.835312 20.88) scale(0.12 -0.12)">
     <defs>
      <path id="DejaVuSans-5b" d="M 550 4863 
L 1875 4863 
L 1875 4416 
L 1125 4416 
L 1125 -397 
L 1875 -397 
L 1875 -844 
L 550 -844 
L 550 4863 
z
" transform="scale(0.015625)"/>
      <path id="DejaVuSans-37" d="M 525 4666 
L 3525 4666 
L 3525 4397 
L 1831 0 
L 1172 0 
L 2766 4134 
L 525 4134 
L 525 4666 
z
" transform="scale(0.015625)"/>
      <path id="DejaVuSans-5d" d="M 1947 4863 
L 1947 -844 
L 622 -844 
L 622 -397 
L 1369 -397 
L 1369 4416 
L 622 4416 
L 622 4863 
L 1947 4863 
z
" transform="scale(0.015625)"/>
      <path id="DejaVuSans-72" d="M 2631 2963 
Q 2534 3019 2420 3045 
Q 2306 3072 2169 3072 
Q 1681 3072 1420 2755 
Q 1159 2438 1159 1844 
L 1159 0 
L 581 0 
L 581 3500 
L 1159 3500 
L 1159 2956 
Q 1341 3275 1631 3429 
Q 1922 3584 2338 3584 
Q 2397 3584 2469 3576 
Q 2541 3569 2628 3553 
L 2631 2963 
z
" transform="scale(0.015625)"/>
      <path id="DejaVuSans-79" d="M 2059 -325 
Q 1816 -950 1584 -1140 
Q 1353 -1331 966 -1331 
L 506 -1331 
L 506 -850 
L 844 -850 
Q 1081 -850 1212 -737 
Q 1344 -625 1503 -206 
L 1606 56 
L 191 3500 
L 800 3500 
L 1894 763 
L 2988 3500 
L 3597 3500 
L 2059 -325 
z
" transform="scale(0.015625)"/>
      <path id="DejaVuSans-5f" d="M 3263 -1063 
L 3263 -1509 
L -63 -1509 
L -63 -1063 
L 3263 -1063 
z
" transform="scale(0.015625)"/>
      <path id="DejaVuSans-78" d="M 3513 3500 
L 2247 1797 
L 3578 0 
L 2900 0 
L 1881 1375 
L 863 0 
L 184 0 
L 1544 1831 
L 300 3500 
L 978 3500 
L 1906 2253 
L 2834 3500 
L 3513 3500 
z
" transform="scale(0.015625)"/>
      <path id="DejaVuSans-2014" d="M 313 1978 
L 6088 1978 
L 6088 1528 
L 313 1528 
L 313 1978 
z
" transform="scale(0.015625)"/>
      <path id="DejaVuSans-55" d="M 556 4666 
L 1191 4666 
L 1191 1831 
Q 1191 1081 1462 751 
Q 1734 422 2344 422 
Q 2950 422 3222 751 
Q 3494 1081 3494 1831 
L 3494 4666 
L 4128 4666 
L 4128 1753 
Q 4128 841 3676 375 
Q 3225 -91 2344 -91 
Q 1459 -91 1007 375 
Q 556 841 556 1753 
L 556 4666 
z
" transform="scale(0.015625)"/>
      <path id="DejaVuSans-6e" d="M 3513 2113 
L 3513 0 
L 2938 0 
L 2938 2094 
Q 2938 2591 2744 2837 
Q 2550 3084 2163 3084 
Q 1697 3084 1428 2787 
Q 1159 2491 1159 1978 
L 1159 0 
L 581 0 
L 581 3500 
L 1159 3500 
L 1159 2956 
Q 1366 3272 1645 3428 
Q 1925 3584 2291 3584 
Q 2894 3584 3203 3211 
Q 3513 2838 3513 2113 
z
" transform="scale(0.015625)"/>
      <path id="DejaVuSans-63" d="M 3122 3366 
L 3122 2828 
Q 2878 2963 2633 3030 
Q 2388 3097 2138 3097 
Q 1578 3097 1268 2742 
Q 959 2388 959 1747 
Q 959 1106 1268 751 
Q 1578 397 2138 397 
Q 2388 397 2633 464 
Q 2878 531 3122 666 
L 3122 134 
Q 2881 22 2623 -34 
Q 2366 -91 2075 -91 
Q 1284 -91 818 406 
Q 353 903 353 1747 
Q 353 2603 823 3093 
Q 1294 3584 2113 3584 
Q 2378 3584 2631 3529 
Q 2884 3475 3122 3366 
z
" transform="scale(0.015625)"/>
      <path id="DejaVuSans-61" d="M 2194 1759 
Q 1497 1759 1228 1600 
Q 959 1441 959 1056 
Q 959 750 1161 570 
Q 1363 391 1709 391 
Q 2188 391 2477 730 
Q 2766 1069 2766 1631 
L 2766 1759 
L 2194 1759 
z
M 3341 1997 
L 3341 0 
L 2766 0 
L 2766 531 
Q 2569 213 2275 61 
Q 1981 -91 1556 -91 
Q 1019 -91 701 211 
Q 384 513 384 1019 
Q 384 1609 779 1909 
Q 1175 2209 1959 2209 
L 2766 2209 
L 2766 2266 
Q 2766 2663 2505 2880 
Q 2244 3097 1772 3097 
Q 1472 3097 1187 3025 
Q 903 2953 641 2809 
L 641 3341 
Q 956 3463 1253 3523 
Q 1550 3584 1831 3584 
Q 2591 3584 2966 3190 
Q 3341 2797 3341 1997 
z
" transform="scale(0.015625)"/>
      <path id="DejaVuSans-69" d="M 603 3500 
L 1178 3500 
L 1178 0 
L 603 0 
L 603 3500 
z
M 603 4863 
L 1178 4863 
L 1178 4134 
L 603 4134 
L 603 4863 
z
" transform="scale(0.015625)"/>
      <path id="DejaVuSans-28" d="M 1984 4856 
Q 1566 4138 1362 3434 
Q 1159 2731 1159 2009 
Q 1159 1288 1364 580 
Q 1569 -128 1984 -844 
L 1484 -844 
Q 1016 -109 783 600 
Q 550 1309 550 2009 
Q 550 2706 781 3412 
Q 1013 4119 1484 4856 
L 1984 4856 
z
" transform="scale(0.015625)"/>
      <path id="DejaVuSans-73" d="M 2834 3397 
L 2834 2853 
Q 2591 2978 2328 3040 
Q 2066 3103 1784 3103 
Q 1356 3103 1142 2972 
Q 928 2841 928 2578 
Q 928 2378 1081 2264 
Q 1234 2150 1697 2047 
L 1894 2003 
Q 2506 1872 2764 1633 
Q 3022 1394 3022 966 
Q 3022 478 2636 193 
Q 2250 -91 1575 -91 
Q 1294 -91 989 -36 
Q 684 19 347 128 
L 347 722 
Q 666 556 975 473 
Q 1284 391 1588 391 
Q 1994 391 2212 530 
Q 2431 669 2431 922 
Q 2431 1156 2273 1281 
Q 2116 1406 1581 1522 
L 1381 1569 
Q 847 1681 609 1914 
Q 372 2147 372 2553 
Q 372 3047 722 3315 
Q 1072 3584 1716 3584 
Q 2034 3584 2315 3537 
Q 2597 3491 2834 3397 
z
" transform="scale(0.015625)"/>
      <path id="DejaVuSans-29" d="M 513 4856 
L 1013 4856 
Q 1481 4119 1714 3412 
Q 1947 2706 1947 2009 
Q 1947 1309 1714 600 
Q 1481 -109 1013 -844 
L 513 -844 
Q 928 -128 1133 580 
Q 1338 1288 1338 2009 
Q 1338 2731 1133 3434 
Q 928 4138 513 4856 
z
" transform="scale(0.015625)"/>
     </defs>
     <use xlink:href="#DejaVuSans-5b"/>
     <use xlink:href="#DejaVuSans-33" transform="translate(39.013672 0)"/>
     <use xlink:href="#DejaVuSans-37" transform="translate(102.636719 0)"/>
     <use xlink:href="#DejaVuSans-5d" transform="translate(166.259766 0)"/>
     <use xlink:href="#DejaVuSans-20" transform="translate(205.273438 0)"/>
     <use xlink:href="#DejaVuSans-72" transform="translate(237.060547 0)"/>
     <use xlink:href="#DejaVuSans-79" transform="translate(278.173828 0)"/>
     <use xlink:href="#DejaVuSans-5f" transform="translate(337.353516 0)"/>
     <use xlink:href="#DejaVuSans-65" transform="translate(387.353516 0)"/>
     <use xlink:href="#DejaVuSans-78" transform="translate(447.126953 0)"/>
     <use xlink:href="#DejaVuSans-74" transform="translate(506.306641 0)"/>
     <use xlink:href="#DejaVuSans-32" transform="translate(545.515625 0)"/>
     <use xlink:href="#DejaVuSans-20" transform="translate(609.138672 0)"/>
     <use xlink:href="#DejaVuSans-20" transform="translate(640.925781 0)"/>
     <use xlink:href="#DejaVuSans-2014" transform="translate(672.712891 0)"/>
     <use xlink:href="#DejaVuSans-20" transform="translate(772.712891 0)"/>
     <use xlink:href="#DejaVuSans-20" transform="translate(804.5 0)"/>
     <use xlink:href="#DejaVuSans-55" transform="translate(836.287109 0)"/>
     <use xlink:href="#DejaVuSans-6e" transform="translate(909.480469 0)"/>
     <use xlink:href="#DejaVuSans-63" transform="translate(972.859375 0)"/>
     <use xlink:href="#DejaVuSans-65" transform="translate(1027.839844 0)"/>
     <use xlink:href="#DejaVuSans-72" transform="translate(1089.363281 0)"/>
     <use xlink:href="#DejaVuSans-74" transform="translate(1130.476562 0)"/>
     <use xlink:href="#DejaVuSans-61" transform="translate(1169.685547 0)"/>
     <use xlink:href="#DejaVuSans-69" transform="translate(1230.964844 0)"/>
     <use xlink:href="#DejaVuSans-6e" transform="translate(1258.748047 0)"/>
     <use xlink:href="#DejaVuSans-74" transform="translate(1322.126953 0)"/>
     <use xlink:href="#DejaVuSans-79" transform="translate(1361.335938 0)"/>
     <use xlink:href="#DejaVuSans-20" transform="translate(1420.515625 0)"/>
     <use xlink:href="#DejaVuSans-28" transform="translate(1452.302734 0)"/>
     <use xlink:href="#DejaVuSans-73" transform="translate(1491.316406 0)"/>
     <use xlink:href="#DejaVuSans-74" transform="translate(1543.416016 0)"/>
     <use xlink:href="#DejaVuSans-64" transform="translate(1582.625 0)"/>
     <use xlink:href="#DejaVuSans-20" transform="translate(1646.101562 0)"/>
     <use xlink:href="#DejaVuSans-64" transform="translate(1677.888672 0)"/>
     <use xlink:href="#DejaVuSans-65" transform="translate(1741.365234 0)"/>
     <use xlink:href="#DejaVuSans-76" transform="translate(1802.888672 0)"/>
     <use xlink:href="#DejaVuSans-29" transform="translate(1862.068359 0)"/>
    </g>
   </g>
   <g id="legend_1">
    <g id="patch_7">
     <path d="M 738.401563 64.23625 
L 846.2 64.23625 
Q 848.2 64.23625 848.2 62.23625 
L 848.2 33.88 
Q 848.2 31.88 846.2 31.88 
L 738.401563 31.88 
Q 736.401563 31.88 736.401563 33.88 
L 736.401563 62.23625 
Q 736.401563 64.23625 738.401563 64.23625 
z
" style="fill: #ffffff; opacity: 0.8; stroke: #cccccc; stroke-linejoin: miter"/>
    </g>
    <g id="line2d_31">
     <path d="M 740.401563 39.978437 
L 750.401563 39.978437 
L 760.401563 39.978437 
" style="fill: none; stroke: #0000ff; stroke-width: 1.5; stroke-linecap: square"/>
    </g>
    <g id="text_16">
     <!-- No Noise -->
     <g transform="translate(768.401563 43.478437) scale(0.1 -0.1)">
      <defs>
       <path id="DejaVuSans-4e" d="M 628 4666 
L 1478 4666 
L 3547 763 
L 3547 4666 
L 4159 4666 
L 4159 0 
L 3309 0 
L 1241 3903 
L 1241 0 
L 628 0 
L 628 4666 
z
" transform="scale(0.015625)"/>
       <path id="DejaVuSans-6f" d="M 1959 3097 
Q 1497 3097 1228 2736 
Q 959 2375 959 1747 
Q 959 1119 1226 758 
Q 1494 397 1959 397 
Q 2419 397 2687 759 
Q 2956 1122 2956 1747 
Q 2956 2369 2687 2733 
Q 2419 3097 1959 3097 
z
M 1959 3584 
Q 2709 3584 3137 3096 
Q 3566 2609 3566 1747 
Q 3566 888 3137 398 
Q 2709 -91 1959 -91 
Q 1206 -91 779 398 
Q 353 888 353 1747 
Q 353 2609 779 3096 
Q 1206 3584 1959 3584 
z
" transform="scale(0.015625)"/>
      </defs>
      <use xlink:href="#DejaVuSans-4e"/>
      <use xlink:href="#DejaVuSans-6f" transform="translate(74.804688 0)"/>
      <use xlink:href="#DejaVuSans-20" transform="translate(135.986328 0)"/>
      <use xlink:href="#DejaVuSans-4e" transform="translate(167.773438 0)"/>
      <use xlink:href="#DejaVuSans-6f" transform="translate(242.578125 0)"/>
      <use xlink:href="#DejaVuSans-69" transform="translate(303.759766 0)"/>
      <use xlink:href="#DejaVuSans-73" transform="translate(331.542969 0)"/>
      <use xlink:href="#DejaVuSans-65" transform="translate(383.642578 0)"/>
     </g>
    </g>
    <g id="line2d_32">
     <path d="M 740.401563 54.656562 
L 750.401563 54.656562 
L 760.401563 54.656562 
" style="fill: none; stroke-dasharray: 5.55,2.4; stroke-dashoffset: 0; stroke: #ff0000; stroke-width: 1.5"/>
    </g>
    <g id="text_17">
     <!-- With ARW/VRW -->
     <g transform="translate(768.401563 58.156562) scale(0.1 -0.1)">
      <defs>
       <path id="DejaVuSans-57" d="M 213 4666 
L 850 4666 
L 1831 722 
L 2809 4666 
L 3519 4666 
L 4500 722 
L 5478 4666 
L 6119 4666 
L 4947 0 
L 4153 0 
L 3169 4050 
L 2175 0 
L 1381 0 
L 213 4666 
z
" transform="scale(0.015625)"/>
       <path id="DejaVuSans-68" d="M 3513 2113 
L 3513 0 
L 2938 0 
L 2938 2094 
Q 2938 2591 2744 2837 
Q 2550 3084 2163 3084 
Q 1697 3084 1428 2787 
Q 1159 2491 1159 1978 
L 1159 0 
L 581 0 
L 581 4863 
L 1159 4863 
L 1159 2956 
Q 1366 3272 1645 3428 
Q 1925 3584 2291 3584 
Q 2894 3584 3203 3211 
Q 3513 2838 3513 2113 
z
" transform="scale(0.015625)"/>
       <path id="DejaVuSans-41" d="M 2188 4044 
L 1331 1722 
L 3047 1722 
L 2188 4044 
z
M 1831 4666 
L 2547 4666 
L 4325 0 
L 3669 0 
L 3244 1197 
L 1141 1197 
L 716 0 
L 50 0 
L 1831 4666 
z
" transform="scale(0.015625)"/>
       <path id="DejaVuSans-52" d="M 2841 2188 
Q 3044 2119 3236 1894 
Q 3428 1669 3622 1275 
L 4263 0 
L 3584 0 
L 2988 1197 
Q 2756 1666 2539 1819 
Q 2322 1972 1947 1972 
L 1259 1972 
L 1259 0 
L 628 0 
L 628 4666 
L 2053 4666 
Q 2853 4666 3247 4331 
Q 3641 3997 3641 3322 
Q 3641 2881 3436 2590 
Q 3231 2300 2841 2188 
z
M 1259 4147 
L 1259 2491 
L 2053 2491 
Q 2509 2491 2742 2702 
Q 2975 2913 2975 3322 
Q 2975 3731 2742 3939 
Q 2509 4147 2053 4147 
L 1259 4147 
z
" transform="scale(0.015625)"/>
       <path id="DejaVuSans-2f" d="M 1625 4666 
L 2156 4666 
L 531 -594 
L 0 -594 
L 1625 4666 
z
" transform="scale(0.015625)"/>
       <path id="DejaVuSans-56" d="M 1831 0 
L 50 4666 
L 709 4666 
L 2188 738 
L 3669 4666 
L 4325 4666 
L 2547 0 
L 1831 0 
z
" transform="scale(0.015625)"/>
      </defs>
      <use xlink:href="#DejaVuSans-57"/>
      <use xlink:href="#DejaVuSans-69" transform="translate(96.626953 0)"/>
      <use xlink:href="#DejaVuSans-74" transform="translate(124.410156 0)"/>
      <use xlink:href="#DejaVuSans-68" transform="translate(163.619141 0)"/>
      <use xlink:href="#DejaVuSans-20" transform="translate(226.998047 0)"/>
      <use xlink:href="#DejaVuSans-41" transform="translate(258.785156 0)"/>
      <use xlink:href="#DejaVuSans-52" transform="translate(327.193359 0)"/>
      <use xlink:href="#DejaVuSans-57" transform="translate(392.675781 0)"/>
      <use xlink:href="#DejaVuSans-2f" transform="translate(491.552734 0)"/>
      <use xlink:href="#DejaVuSans-56" transform="translate(525.244141 0)"/>
      <use xlink:href="#DejaVuSans-52" transform="translate(593.652344 0)"/>
      <use xlink:href="#DejaVuSans-57" transform="translate(659.134766 0)"/>
     </g>
    </g>
   </g>
  </g>
  <g id="axes_2">
   <g id="patch_8">
    <path d="M 68.6 534.04 
L 853.2 534.04 
L 853.2 302.44 
L 68.6 302.44 
z
" style="fill: #ffffff"/>
   </g>
   <g id="matplotlib.axis_3">
    <g id="xtick_8">
     <g id="line2d_33">
      <path d="M 104.263636 534.04 
L 104.263636 302.44 
" clip-path="url(#pae1c153fcb)" style="fill: none; stroke: #b0b0b0; stroke-width: 0.8; stroke-linecap: square"/>
     </g>
     <g id="line2d_34">
      <g>
       <use xlink:href="#m9593accc14" x="104.263636" y="534.04" style="stroke: #000000; stroke-width: 0.8"/>
      </g>
     </g>
     <g id="text_18">
      <!-- 0 -->
      <g transform="translate(101.082386 548.638438) scale(0.1 -0.1)">
       <use xlink:href="#DejaVuSans-30"/>
      </g>
     </g>
    </g>
    <g id="xtick_9">
     <g id="line2d_35">
      <path d="M 225.527276 534.04 
L 225.527276 302.44 
" clip-path="url(#pae1c153fcb)" style="fill: none; stroke: #b0b0b0; stroke-width: 0.8; stroke-linecap: square"/>
     </g>
     <g id="line2d_36">
      <g>
       <use xlink:href="#m9593accc14" x="225.527276" y="534.04" style="stroke: #000000; stroke-width: 0.8"/>
      </g>
     </g>
     <g id="text_19">
      <!-- 50 -->
      <g transform="translate(219.164776 548.638438) scale(0.1 -0.1)">
       <use xlink:href="#DejaVuSans-35"/>
       <use xlink:href="#DejaVuSans-30" transform="translate(63.623047 0)"/>
      </g>
     </g>
    </g>
    <g id="xtick_10">
     <g id="line2d_37">
      <path d="M 346.790915 534.04 
L 346.790915 302.44 
" clip-path="url(#pae1c153fcb)" style="fill: none; stroke: #b0b0b0; stroke-width: 0.8; stroke-linecap: square"/>
     </g>
     <g id="line2d_38">
      <g>
       <use xlink:href="#m9593accc14" x="346.790915" y="534.04" style="stroke: #000000; stroke-width: 0.8"/>
      </g>
     </g>
     <g id="text_20">
      <!-- 100 -->
      <g transform="translate(337.247165 548.638438) scale(0.1 -0.1)">
       <use xlink:href="#DejaVuSans-31"/>
       <use xlink:href="#DejaVuSans-30" transform="translate(63.623047 0)"/>
       <use xlink:href="#DejaVuSans-30" transform="translate(127.246094 0)"/>
      </g>
     </g>
    </g>
    <g id="xtick_11">
     <g id="line2d_39">
      <path d="M 468.054555 534.04 
L 468.054555 302.44 
" clip-path="url(#pae1c153fcb)" style="fill: none; stroke: #b0b0b0; stroke-width: 0.8; stroke-linecap: square"/>
     </g>
     <g id="line2d_40">
      <g>
       <use xlink:href="#m9593accc14" x="468.054555" y="534.04" style="stroke: #000000; stroke-width: 0.8"/>
      </g>
     </g>
     <g id="text_21">
      <!-- 150 -->
      <g transform="translate(458.510805 548.638438) scale(0.1 -0.1)">
       <use xlink:href="#DejaVuSans-31"/>
       <use xlink:href="#DejaVuSans-35" transform="translate(63.623047 0)"/>
       <use xlink:href="#DejaVuSans-30" transform="translate(127.246094 0)"/>
      </g>
     </g>
    </g>
    <g id="xtick_12">
     <g id="line2d_41">
      <path d="M 589.318194 534.04 
L 589.318194 302.44 
" clip-path="url(#pae1c153fcb)" style="fill: none; stroke: #b0b0b0; stroke-width: 0.8; stroke-linecap: square"/>
     </g>
     <g id="line2d_42">
      <g>
       <use xlink:href="#m9593accc14" x="589.318194" y="534.04" style="stroke: #000000; stroke-width: 0.8"/>
      </g>
     </g>
     <g id="text_22">
      <!-- 200 -->
      <g transform="translate(579.774444 548.638438) scale(0.1 -0.1)">
       <use xlink:href="#DejaVuSans-32"/>
       <use xlink:href="#DejaVuSans-30" transform="translate(63.623047 0)"/>
       <use xlink:href="#DejaVuSans-30" transform="translate(127.246094 0)"/>
      </g>
     </g>
    </g>
    <g id="xtick_13">
     <g id="line2d_43">
      <path d="M 710.581834 534.04 
L 710.581834 302.44 
" clip-path="url(#pae1c153fcb)" style="fill: none; stroke: #b0b0b0; stroke-width: 0.8; stroke-linecap: square"/>
     </g>
     <g id="line2d_44">
      <g>
       <use xlink:href="#m9593accc14" x="710.581834" y="534.04" style="stroke: #000000; stroke-width: 0.8"/>
      </g>
     </g>
     <g id="text_23">
      <!-- 250 -->
      <g transform="translate(701.038084 548.638438) scale(0.1 -0.1)">
       <use xlink:href="#DejaVuSans-32"/>
       <use xlink:href="#DejaVuSans-35" transform="translate(63.623047 0)"/>
       <use xlink:href="#DejaVuSans-30" transform="translate(127.246094 0)"/>
      </g>
     </g>
    </g>
    <g id="xtick_14">
     <g id="line2d_45">
      <path d="M 831.845473 534.04 
L 831.845473 302.44 
" clip-path="url(#pae1c153fcb)" style="fill: none; stroke: #b0b0b0; stroke-width: 0.8; stroke-linecap: square"/>
     </g>
     <g id="line2d_46">
      <g>
       <use xlink:href="#m9593accc14" x="831.845473" y="534.04" style="stroke: #000000; stroke-width: 0.8"/>
      </g>
     </g>
     <g id="text_24">
      <!-- 300 -->
      <g transform="translate(822.301723 548.638438) scale(0.1 -0.1)">
       <use xlink:href="#DejaVuSans-33"/>
       <use xlink:href="#DejaVuSans-30" transform="translate(63.623047 0)"/>
       <use xlink:href="#DejaVuSans-30" transform="translate(127.246094 0)"/>
      </g>
     </g>
    </g>
    <g id="text_25">
     <!-- Time (s) -->
     <g transform="translate(440.571094 562.316562) scale(0.1 -0.1)">
      <defs>
       <path id="DejaVuSans-54" d="M -19 4666 
L 3928 4666 
L 3928 4134 
L 2272 4134 
L 2272 0 
L 1638 0 
L 1638 4134 
L -19 4134 
L -19 4666 
z
" transform="scale(0.015625)"/>
       <path id="DejaVuSans-6d" d="M 3328 2828 
Q 3544 3216 3844 3400 
Q 4144 3584 4550 3584 
Q 5097 3584 5394 3201 
Q 5691 2819 5691 2113 
L 5691 0 
L 5113 0 
L 5113 2094 
Q 5113 2597 4934 2840 
Q 4756 3084 4391 3084 
Q 3944 3084 3684 2787 
Q 3425 2491 3425 1978 
L 3425 0 
L 2847 0 
L 2847 2094 
Q 2847 2600 2669 2842 
Q 2491 3084 2119 3084 
Q 1678 3084 1418 2786 
Q 1159 2488 1159 1978 
L 1159 0 
L 581 0 
L 581 3500 
L 1159 3500 
L 1159 2956 
Q 1356 3278 1631 3431 
Q 1906 3584 2284 3584 
Q 2666 3584 2933 3390 
Q 3200 3197 3328 2828 
z
" transform="scale(0.015625)"/>
      </defs>
      <use xlink:href="#DejaVuSans-54"/>
      <use xlink:href="#DejaVuSans-69" transform="translate(57.958984 0)"/>
      <use xlink:href="#DejaVuSans-6d" transform="translate(85.742188 0)"/>
      <use xlink:href="#DejaVuSans-65" transform="translate(183.154297 0)"/>
      <use xlink:href="#DejaVuSans-20" transform="translate(244.677734 0)"/>
      <use xlink:href="#DejaVuSans-28" transform="translate(276.464844 0)"/>
      <use xlink:href="#DejaVuSans-73" transform="translate(315.478516 0)"/>
      <use xlink:href="#DejaVuSans-29" transform="translate(367.578125 0)"/>
     </g>
    </g>
   </g>
   <g id="matplotlib.axis_4">
    <g id="ytick_7">
     <g id="line2d_47">
      <path d="M 68.6 523.004726 
L 853.2 523.004726 
" clip-path="url(#pae1c153fcb)" style="fill: none; stroke: #b0b0b0; stroke-width: 0.8; stroke-linecap: square"/>
     </g>
     <g id="line2d_48">
      <g>
       <use xlink:href="#md4fba5d76b" x="68.6" y="523.004726" style="stroke: #000000; stroke-width: 0.8"/>
      </g>
     </g>
     <g id="text_26">
      <!-- −0.050 -->
      <g transform="translate(24.592187 526.803945) scale(0.1 -0.1)">
       <defs>
        <path id="DejaVuSans-2212" d="M 678 2272 
L 4684 2272 
L 4684 1741 
L 678 1741 
L 678 2272 
z
" transform="scale(0.015625)"/>
       </defs>
       <use xlink:href="#DejaVuSans-2212"/>
       <use xlink:href="#DejaVuSans-30" transform="translate(83.789062 0)"/>
       <use xlink:href="#DejaVuSans-2e" transform="translate(147.412109 0)"/>
       <use xlink:href="#DejaVuSans-30" transform="translate(179.199219 0)"/>
       <use xlink:href="#DejaVuSans-35" transform="translate(242.822266 0)"/>
       <use xlink:href="#DejaVuSans-30" transform="translate(306.445312 0)"/>
      </g>
     </g>
    </g>
    <g id="ytick_8">
     <g id="line2d_49">
      <path d="M 68.6 492.735459 
L 853.2 492.735459 
" clip-path="url(#pae1c153fcb)" style="fill: none; stroke: #b0b0b0; stroke-width: 0.8; stroke-linecap: square"/>
     </g>
     <g id="line2d_50">
      <g>
       <use xlink:href="#md4fba5d76b" x="68.6" y="492.735459" style="stroke: #000000; stroke-width: 0.8"/>
      </g>
     </g>
     <g id="text_27">
      <!-- −0.025 -->
      <g transform="translate(24.592187 496.534678) scale(0.1 -0.1)">
       <use xlink:href="#DejaVuSans-2212"/>
       <use xlink:href="#DejaVuSans-30" transform="translate(83.789062 0)"/>
       <use xlink:href="#DejaVuSans-2e" transform="translate(147.412109 0)"/>
       <use xlink:href="#DejaVuSans-30" transform="translate(179.199219 0)"/>
       <use xlink:href="#DejaVuSans-32" transform="translate(242.822266 0)"/>
       <use xlink:href="#DejaVuSans-35" transform="translate(306.445312 0)"/>
      </g>
     </g>
    </g>
    <g id="ytick_9">
     <g id="line2d_51">
      <path d="M 68.6 462.466191 
L 853.2 462.466191 
" clip-path="url(#pae1c153fcb)" style="fill: none; stroke: #b0b0b0; stroke-width: 0.8; stroke-linecap: square"/>
     </g>
     <g id="line2d_52">
      <g>
       <use xlink:href="#md4fba5d76b" x="68.6" y="462.466191" style="stroke: #000000; stroke-width: 0.8"/>
      </g>
     </g>
     <g id="text_28">
      <!-- 0.000 -->
      <g transform="translate(32.971875 466.26541) scale(0.1 -0.1)">
       <use xlink:href="#DejaVuSans-30"/>
       <use xlink:href="#DejaVuSans-2e" transform="translate(63.623047 0)"/>
       <use xlink:href="#DejaVuSans-30" transform="translate(95.410156 0)"/>
       <use xlink:href="#DejaVuSans-30" transform="translate(159.033203 0)"/>
       <use xlink:href="#DejaVuSans-30" transform="translate(222.65625 0)"/>
      </g>
     </g>
    </g>
    <g id="ytick_10">
     <g id="line2d_53">
      <path d="M 68.6 432.196923 
L 853.2 432.196923 
" clip-path="url(#pae1c153fcb)" style="fill: none; stroke: #b0b0b0; stroke-width: 0.8; stroke-linecap: square"/>
     </g>
     <g id="line2d_54">
      <g>
       <use xlink:href="#md4fba5d76b" x="68.6" y="432.196923" style="stroke: #000000; stroke-width: 0.8"/>
      </g>
     </g>
     <g id="text_29">
      <!-- 0.025 -->
      <g transform="translate(32.971875 435.996142) scale(0.1 -0.1)">
       <use xlink:href="#DejaVuSans-30"/>
       <use xlink:href="#DejaVuSans-2e" transform="translate(63.623047 0)"/>
       <use xlink:href="#DejaVuSans-30" transform="translate(95.410156 0)"/>
       <use xlink:href="#DejaVuSans-32" transform="translate(159.033203 0)"/>
       <use xlink:href="#DejaVuSans-35" transform="translate(222.65625 0)"/>
      </g>
     </g>
    </g>
    <g id="ytick_11">
     <g id="line2d_55">
      <path d="M 68.6 401.927656 
L 853.2 401.927656 
" clip-path="url(#pae1c153fcb)" style="fill: none; stroke: #b0b0b0; stroke-width: 0.8; stroke-linecap: square"/>
     </g>
     <g id="line2d_56">
      <g>
       <use xlink:href="#md4fba5d76b" x="68.6" y="401.927656" style="stroke: #000000; stroke-width: 0.8"/>
      </g>
     </g>
     <g id="text_30">
      <!-- 0.050 -->
      <g transform="translate(32.971875 405.726875) scale(0.1 -0.1)">
       <use xlink:href="#DejaVuSans-30"/>
       <use xlink:href="#DejaVuSans-2e" transform="translate(63.623047 0)"/>
       <use xlink:href="#DejaVuSans-30" transform="translate(95.410156 0)"/>
       <use xlink:href="#DejaVuSans-35" transform="translate(159.033203 0)"/>
       <use xlink:href="#DejaVuSans-30" transform="translate(222.65625 0)"/>
      </g>
     </g>
    </g>
    <g id="ytick_12">
     <g id="line2d_57">
      <path d="M 68.6 371.658388 
L 853.2 371.658388 
" clip-path="url(#pae1c153fcb)" style="fill: none; stroke: #b0b0b0; stroke-width: 0.8; stroke-linecap: square"/>
     </g>
     <g id="line2d_58">
      <g>
       <use xlink:href="#md4fba5d76b" x="68.6" y="371.658388" style="stroke: #000000; stroke-width: 0.8"/>
      </g>
     </g>
     <g id="text_31">
      <!-- 0.075 -->
      <g transform="translate(32.971875 375.457607) scale(0.1 -0.1)">
       <use xlink:href="#DejaVuSans-30"/>
       <use xlink:href="#DejaVuSans-2e" transform="translate(63.623047 0)"/>
       <use xlink:href="#DejaVuSans-30" transform="translate(95.410156 0)"/>
       <use xlink:href="#DejaVuSans-37" transform="translate(159.033203 0)"/>
       <use xlink:href="#DejaVuSans-35" transform="translate(222.65625 0)"/>
      </g>
     </g>
    </g>
    <g id="ytick_13">
     <g id="line2d_59">
      <path d="M 68.6 341.389121 
L 853.2 341.389121 
" clip-path="url(#pae1c153fcb)" style="fill: none; stroke: #b0b0b0; stroke-width: 0.8; stroke-linecap: square"/>
     </g>
     <g id="line2d_60">
      <g>
       <use xlink:href="#md4fba5d76b" x="68.6" y="341.389121" style="stroke: #000000; stroke-width: 0.8"/>
      </g>
     </g>
     <g id="text_32">
      <!-- 0.100 -->
      <g transform="translate(32.971875 345.188339) scale(0.1 -0.1)">
       <use xlink:href="#DejaVuSans-30"/>
       <use xlink:href="#DejaVuSans-2e" transform="translate(63.623047 0)"/>
       <use xlink:href="#DejaVuSans-31" transform="translate(95.410156 0)"/>
       <use xlink:href="#DejaVuSans-30" transform="translate(159.033203 0)"/>
       <use xlink:href="#DejaVuSans-30" transform="translate(222.65625 0)"/>
      </g>
     </g>
    </g>
    <g id="ytick_14">
     <g id="line2d_61">
      <path d="M 68.6 311.119853 
L 853.2 311.119853 
" clip-path="url(#pae1c153fcb)" style="fill: none; stroke: #b0b0b0; stroke-width: 0.8; stroke-linecap: square"/>
     </g>
     <g id="line2d_62">
      <g>
       <use xlink:href="#md4fba5d76b" x="68.6" y="311.119853" style="stroke: #000000; stroke-width: 0.8"/>
      </g>
     </g>
     <g id="text_33">
      <!-- 0.125 -->
      <g transform="translate(32.971875 314.919072) scale(0.1 -0.1)">
       <use xlink:href="#DejaVuSans-30"/>
       <use xlink:href="#DejaVuSans-2e" transform="translate(63.623047 0)"/>
       <use xlink:href="#DejaVuSans-31" transform="translate(95.410156 0)"/>
       <use xlink:href="#DejaVuSans-32" transform="translate(159.033203 0)"/>
       <use xlink:href="#DejaVuSans-35" transform="translate(222.65625 0)"/>
      </g>
     </g>
    </g>
    <g id="text_34">
     <!-- Estimated Value -->
     <g transform="translate(18.5125 458.818906) rotate(-90) scale(0.1 -0.1)">
      <defs>
       <path id="DejaVuSans-45" d="M 628 4666 
L 3578 4666 
L 3578 4134 
L 1259 4134 
L 1259 2753 
L 3481 2753 
L 3481 2222 
L 1259 2222 
L 1259 531 
L 3634 531 
L 3634 0 
L 628 0 
L 628 4666 
z
" transform="scale(0.015625)"/>
       <path id="DejaVuSans-6c" d="M 603 4863 
L 1178 4863 
L 1178 0 
L 603 0 
L 603 4863 
z
" transform="scale(0.015625)"/>
       <path id="DejaVuSans-75" d="M 544 1381 
L 544 3500 
L 1119 3500 
L 1119 1403 
Q 1119 906 1312 657 
Q 1506 409 1894 409 
Q 2359 409 2629 706 
Q 2900 1003 2900 1516 
L 2900 3500 
L 3475 3500 
L 3475 0 
L 2900 0 
L 2900 538 
Q 2691 219 2414 64 
Q 2138 -91 1772 -91 
Q 1169 -91 856 284 
Q 544 659 544 1381 
z
M 1991 3584 
L 1991 3584 
z
" transform="scale(0.015625)"/>
      </defs>
      <use xlink:href="#DejaVuSans-45"/>
      <use xlink:href="#DejaVuSans-73" transform="translate(63.183594 0)"/>
      <use xlink:href="#DejaVuSans-74" transform="translate(115.283203 0)"/>
      <use xlink:href="#DejaVuSans-69" transform="translate(154.492188 0)"/>
      <use xlink:href="#DejaVuSans-6d" transform="translate(182.275391 0)"/>
      <use xlink:href="#DejaVuSans-61" transform="translate(279.6875 0)"/>
      <use xlink:href="#DejaVuSans-74" transform="translate(340.966797 0)"/>
      <use xlink:href="#DejaVuSans-65" transform="translate(380.175781 0)"/>
      <use xlink:href="#DejaVuSans-64" transform="translate(441.699219 0)"/>
      <use xlink:href="#DejaVuSans-20" transform="translate(505.175781 0)"/>
      <use xlink:href="#DejaVuSans-56" transform="translate(536.962891 0)"/>
      <use xlink:href="#DejaVuSans-61" transform="translate(597.621094 0)"/>
      <use xlink:href="#DejaVuSans-6c" transform="translate(658.900391 0)"/>
      <use xlink:href="#DejaVuSans-75" transform="translate(686.683594 0)"/>
      <use xlink:href="#DejaVuSans-65" transform="translate(750.0625 0)"/>
     </g>
    </g>
   </g>
   <g id="line2d_63">
    <path d="M 104.263636 462.466191 
L 206.80417 462.466029 
L 207.095203 475.739424 
L 207.33773 477.170801 
L 207.628763 477.561302 
L 208.113817 477.779826 
L 209.180937 477.957891 
L 212.430803 478.202655 
L 217.523876 478.402565 
L 218.688007 478.402565 
L 218.833523 506.037482 
L 219.07605 515.036518 
L 219.318577 516.775362 
L 219.658116 517.583095 
L 220.14317 518.122535 
L 221.016268 518.706793 
L 222.713959 519.533028 
L 225.381759 520.578069 
L 227.904043 521.34214 
L 230.571843 521.34214 
L 230.620349 519.556146 
L 230.71736 519.606784 
L 231.444941 520.243997 
L 232.269534 520.443862 
L 234.306763 520.646738 
L 239.884891 520.936784 
L 242.45568 520.936784 
L 242.601196 521.861027 
L 243.5228 522.420118 
L 244.444404 522.483729 
L 246.627149 522.355471 
L 253.175386 521.907191 
L 254.339517 521.907191 
L 254.485033 523.512727 
L 254.921582 523.371049 
L 256.037208 523.048889 
L 257.831909 522.79392 
L 261.081775 522.588131 
L 265.738299 522.506391 
L 266.223353 522.506391 
L 266.36887 521.280609 
L 266.756913 521.457512 
L 267.727022 521.866039 
L 269.133681 522.190865 
L 271.364932 522.455629 
L 275.148357 522.656401 
L 278.10719 522.665523 
L 278.252706 522.028899 
L 279.222815 522.121491 
L 282.084637 522.263881 
L 289.020917 522.34603 
L 305.027718 522.235546 
L 314.874325 522.215869 
L 323.605307 522.264655 
L 341.988875 522.29701 
L 342.134392 462.466191 
L 444.577914 462.466191 
L 444.62642 461.435215 
L 444.72343 461.522323 
L 444.965958 461.72472 
L 445.596529 461.782596 
L 451.514194 461.836571 
L 456.461751 461.850879 
L 456.510256 462.111259 
L 456.607267 462.07459 
L 456.995311 462.026619 
L 460.681725 462.266342 
L 466.599391 462.542665 
L 468.345587 462.542665 
L 468.491104 462.867832 
L 469.752246 463.084751 
L 473.244638 463.167622 
L 480.229424 463.211779 
L 480.37494 463.635319 
L 482.121137 463.698708 
L 492.113261 463.589047 
L 492.258777 463.858921 
L 503.997097 463.689152 
L 504.142614 463.442626 
L 513.746694 463.642702 
L 515.880934 463.642702 
L 516.02645 463.373199 
L 537.465862 463.387839 
L 579.762619 463.387347 
L 579.908136 462.466191 
L 682.351658 462.466191 
L 682.400164 462.79616 
L 682.54568 462.078526 
L 684.049349 462.068721 
L 694.235495 461.966337 
L 694.284 463.23099 
L 694.332506 461.881052 
L 694.478022 461.744549 
L 697.533866 462.064911 
L 704.615663 462.267494 
L 718.003168 462.337936 
L 718.148685 462.885767 
L 722.950725 462.857822 
L 771.35917 462.61211 
L 777.664879 462.499684 
L 782.321403 462.491756 
L 817.536364 462.509086 
L 817.536364 462.509086 
" clip-path="url(#pae1c153fcb)" style="fill: none; stroke: #0000ff; stroke-width: 1.5; stroke-linecap: square"/>
   </g>
   <g id="line2d_64">
    <path d="M 104.263636 462.466191 
L 206.80417 462.465954 
L 207.143708 474.936973 
L 207.434741 475.467134 
L 207.531752 475.383316 
L 207.725774 475.101375 
L 207.87129 475.165745 
L 208.065312 475.422039 
L 208.259334 475.384391 
L 208.647377 475.392096 
L 208.792894 475.377352 
L 209.665992 476.177424 
L 210.490585 476.121332 
L 210.781617 476.234572 
L 211.509199 476.447258 
L 212.333792 476.508312 
L 214.225505 476.500831 
L 214.856076 476.633949 
L 215.923196 476.559113 
L 216.602272 476.592123 
L 218.688007 476.592123 
L 218.833523 505.092078 
L 219.124556 509.991133 
L 219.512599 515.273192 
L 219.803632 516.351249 
L 220.14317 517.120875 
L 220.337192 517.141918 
L 220.531214 517.364633 
L 220.725236 517.497962 
L 221.064774 517.505937 
L 221.355807 517.920999 
L 222.27741 517.042441 
L 222.519938 517.07697 
L 223.150508 517.194501 
L 223.296025 517.298985 
L 223.635563 517.522557 
L 224.120618 517.882919 
L 224.508661 518.291217 
L 224.993716 518.557269 
L 225.284749 518.722357 
L 226.351869 519.28499 
L 226.691407 519.441418 
L 227.030945 519.560908 
L 227.273472 519.525666 
L 227.710021 519.79781 
L 228.001054 519.842656 
L 230.571843 519.842656 
L 230.620349 518.009119 
L 230.71736 518.056042 
L 231.105403 518.244707 
L 231.153909 518.188499 
L 231.202414 518.275307 
L 231.396436 518.203557 
L 231.687469 517.906996 
L 231.832985 517.877037 
L 232.124018 517.983197 
L 232.269534 518.045503 
L 232.560567 518.288536 
L 233.579181 518.473974 
L 234.597796 518.947859 
L 235.373883 518.885327 
L 235.810432 518.834889 
L 236.489509 518.877787 
L 238.381222 518.950967 
L 241.92212 518.962341 
L 242.45568 518.962341 
L 242.601196 520.405743 
L 242.746713 520.377904 
L 242.940734 520.658839 
L 243.280273 520.858999 
L 243.425789 520.830488 
L 243.813833 520.72173 
L 244.250382 521.037982 
L 244.686931 520.90329 
L 245.463018 520.762379 
L 246.966687 520.401084 
L 249.149433 520.173545 
L 250.362069 519.954147 
L 251.5262 519.829818 
L 252.447804 519.802291 
L 254.339517 519.802291 
L 254.485033 522.44424 
L 255.212615 522.320151 
L 256.910306 521.596432 
L 259.432589 521.642374 
L 260.257182 521.536365 
L 261.857862 521.473079 
L 262.439928 521.50666 
L 265.204739 521.575034 
L 266.223353 521.575034 
L 266.320364 519.878247 
L 266.36887 519.882758 
L 266.805419 520.146084 
L 267.241968 520.419724 
L 267.727022 520.46029 
L 268.454604 520.559168 
L 270.394822 520.928452 
L 271.267921 521.034765 
L 272.432052 521.148715 
L 274.37227 521.243505 
L 276.263983 521.253608 
L 278.10719 521.253608 
L 278.252706 522.237835 
L 278.737761 522.189314 
L 279.222815 522.158032 
L 289.651488 521.983709 
L 297.363856 521.872738 
L 303.184511 521.741011 
L 304.057609 521.717476 
L 304.736685 521.741317 
L 308.180572 521.596081 
L 312.594569 521.567506 
L 317.978675 521.678595 
L 332.627322 521.708936 
L 334.616046 521.675836 
L 337.477868 521.67236 
L 337.623384 521.607676 
L 341.988875 521.58021 
L 342.134392 462.466191 
L 444.577914 462.466202 
L 444.62642 460.231724 
L 444.674925 460.337388 
L 444.72343 461.029618 
L 444.820441 460.892051 
L 445.111474 460.162204 
L 445.15998 460.21352 
L 445.208485 460.142228 
L 445.645034 459.523136 
L 445.790551 459.73284 
L 446.566638 459.534705 
L 447.488241 460.227423 
L 447.682263 460.20191 
L 447.973296 460.191157 
L 448.215823 460.11747 
L 448.603867 460.214224 
L 449.573976 460.428341 
L 450.059031 460.392269 
L 451.611205 460.216956 
L 452.532809 460.369436 
L 455.394631 460.253317 
L 456.461751 460.253317 
L 456.510256 462.774654 
L 456.558762 461.901806 
L 456.655773 459.213547 
L 456.849794 456.511016 
L 456.8983 456.364362 
L 457.383354 460.136704 
L 457.480365 460.37942 
L 457.771398 460.945276 
L 457.819904 460.897488 
L 458.013925 460.928395 
L 458.110936 460.92232 
L 458.256453 460.997664 
L 458.49898 461.058786 
L 458.838518 460.904055 
L 459.129551 461.194012 
L 460.051155 459.964762 
L 460.293682 459.915291 
L 460.924253 459.825021 
L 461.069769 459.883673 
L 461.409307 460.00265 
L 461.894362 460.219155 
L 462.2339 460.512041 
L 462.76746 460.650855 
L 463.009987 460.738654 
L 463.204009 460.815279 
L 463.543547 460.996456 
L 464.319635 461.060734 
L 464.950206 461.104383 
L 465.144227 461.147507 
L 465.774798 461.271387 
L 468.879147 461.170978 
L 469.024664 461.135192 
L 469.121675 461.119982 
L 469.412707 460.650662 
L 469.946268 460.638296 
L 470.528333 460.857484 
L 470.77086 460.874328 
L 470.964882 460.94335 
L 471.158904 460.950902 
L 471.643958 461.207622 
L 472.032002 461.33254 
L 472.274529 461.43004 
L 472.517057 461.377064 
L 472.953606 461.318566 
L 473.729693 461.236869 
L 474.311759 461.288823 
L 476.591515 461.261675 
L 476.979559 461.26325 
L 477.513119 461.273759 
L 477.998173 461.262042 
L 480.229424 461.262042 
L 480.326435 463.134829 
L 480.37494 463.130631 
L 480.520457 462.962539 
L 480.568962 463.03831 
L 480.762984 463.058234 
L 481.054017 463.050472 
L 481.199533 462.9735 
L 481.587577 462.787859 
L 482.024126 463.066343 
L 482.41217 462.913947 
L 483.042741 462.880425 
L 483.527795 462.74296 
L 483.818828 462.681119 
L 484.255377 462.539981 
L 486.050079 462.487245 
L 486.68065 462.427042 
L 487.553748 462.308077 
L 488.960406 462.202718 
L 489.784999 462.182856 
L 492.113261 462.182856 
L 492.210272 463.690102 
L 492.258777 463.688297 
L 493.374403 463.604589 
L 493.810952 463.503716 
L 494.296006 463.43748 
L 494.732555 463.293673 
L 495.266115 463.324678 
L 495.605654 463.374635 
L 496.042203 463.477297 
L 496.381741 463.526182 
L 496.672774 463.542343 
L 497.497366 463.470495 
L 498.758508 463.37947 
L 499.195057 463.37901 
L 499.825628 463.478121 
L 500.55321 463.485448 
L 503.997097 463.565113 
L 504.045603 462.690957 
L 504.142614 462.702219 
L 504.724679 462.910722 
L 504.918701 462.95899 
L 507.004436 462.843371 
L 507.732018 462.914019 
L 508.459599 462.942184 
L 509.720741 462.996447 
L 510.496829 463.024846 
L 515.880934 462.998744 
L 516.02645 464.265698 
L 516.414494 464.219296 
L 516.851043 464.12898 
L 521.362051 463.844741 
L 524.078356 463.816672 
L 525.145476 463.749882 
L 539.648607 463.67425 
L 539.794124 463.584057 
L 540.521706 463.623274 
L 544.20812 463.542169 
L 547.021437 463.481837 
L 563.367775 463.522993 
L 563.755819 463.539483 
L 579.762619 463.414209 
L 579.908136 462.466188 
L 682.351658 462.467221 
L 682.400164 484.234539 
L 682.448669 458.232478 
L 682.642691 453.855307 
L 682.691197 453.684281 
L 682.836713 452.475164 
L 683.07924 452.229553 
L 683.127746 452.47542 
L 683.273262 451.754086 
L 683.321767 451.633125 
L 683.467284 452.251068 
L 683.564295 452.039311 
L 683.6128 452.159173 
L 683.661306 452.019788 
L 683.758317 451.77946 
L 683.855328 451.824706 
L 683.952338 451.822272 
L 684.000844 451.95123 
L 684.097855 451.89802 
L 684.340382 451.880454 
L 684.534404 452.136054 
L 684.631415 452.312315 
L 684.67992 452.032989 
L 684.776931 452.091986 
L 685.019458 452.078353 
L 685.067964 452.131671 
L 685.21348 451.822942 
L 685.261986 452.15915 
L 685.310491 451.857086 
L 685.358997 451.622867 
L 685.553018 452.999957 
L 685.601524 452.964489 
L 685.650029 453.254247 
L 685.74704 453.207788 
L 685.844051 452.720715 
L 685.892557 452.770288 
L 685.989568 452.76555 
L 686.135084 452.531812 
L 686.2806 453.890358 
L 686.377611 453.872882 
L 686.426117 453.859814 
L 686.474622 453.588337 
L 686.571633 454.79706 
L 686.620138 454.383253 
L 686.765655 454.665581 
L 687.056688 453.622633 
L 687.153698 453.647235 
L 687.202204 453.309688 
L 687.250709 453.713058 
L 687.396226 453.746234 
L 687.493237 453.775931 
L 687.735764 452.73354 
L 687.784269 453.118215 
L 687.88128 453.077483 
L 688.026797 452.753665 
L 688.075302 452.83307 
L 688.123808 452.745683 
L 688.172313 452.428232 
L 688.269324 452.481966 
L 688.366335 452.428285 
L 688.41484 452.176178 
L 688.463346 452.488862 
L 688.511851 452.453082 
L 688.560357 452.529783 
L 688.608862 452.948222 
L 688.657368 452.666285 
L 688.754379 451.361033 
L 688.802884 452.03784 
L 688.9484 452.152256 
L 688.996906 452.133456 
L 689.287939 451.381093 
L 689.433455 451.350928 
L 689.627477 450.768856 
L 689.675982 450.839365 
L 689.772993 450.562469 
L 689.821499 450.011812 
L 689.870004 450.145195 
L 689.967015 450.269742 
L 690.01552 450.115813 
L 690.064026 450.273811 
L 690.161037 450.480583 
L 690.306553 450.143075 
L 690.355059 450.069981 
L 690.54908 450.651363 
L 690.646091 450.698532 
L 690.791608 450.408599 
L 691.08264 449.778327 
L 691.131146 449.960904 
L 691.179651 449.858655 
L 691.228157 449.847376 
L 691.276662 449.516753 
L 691.373673 449.576917 
L 691.470684 449.595729 
L 691.51919 449.475266 
L 691.664706 450.067732 
L 694.235495 450.067732 
L 694.284 312.967273 
L 694.332506 404.581162 
L 694.478022 416.871203 
L 694.526528 419.50789 
L 694.623539 418.880875 
L 694.769055 421.109398 
L 695.108593 431.44825 
L 695.157099 431.425859 
L 695.448131 435.180366 
L 695.545142 435.475114 
L 695.933186 440.083651 
L 696.272724 437.741803 
L 696.418241 436.443542 
L 696.466746 436.678047 
L 696.563757 436.655489 
L 696.660768 436.721375 
L 697.000306 439.372005 
L 697.048811 439.579849 
L 697.097317 439.409149 
L 697.242833 438.182923 
L 697.38835 438.602528 
L 697.436855 438.024031 
L 697.485361 438.356264 
L 697.582371 438.454196 
L 697.630877 438.364779 
L 698.164437 436.692118 
L 698.503975 438.659254 
L 698.552481 438.475469 
L 698.649492 438.56615 
L 698.892019 438.060089 
L 698.98903 437.844892 
L 699.086041 437.638541 
L 699.231557 437.935955 
L 699.280062 437.995713 
L 699.474084 437.598342 
L 699.52259 437.663243 
L 699.862128 439.55502 
L 699.959139 439.265496 
L 700.05615 438.933421 
L 700.201666 438.528818 
L 700.395688 439.518682 
L 700.58971 440.397736 
L 700.686721 440.442104 
L 700.880742 440.073296 
L 700.929248 440.034526 
L 701.12327 440.466064 
L 701.171775 440.400001 
L 701.317292 440.419361 
L 701.414302 440.30968 
L 701.462808 440.349435 
L 701.608324 440.127349 
L 701.947863 439.405904 
L 701.996368 439.333552 
L 702.044873 439.370912 
L 702.141884 439.609958 
L 702.335906 440.442402 
L 702.529928 440.334665 
L 702.578433 440.369171 
L 702.772455 439.870574 
L 702.820961 439.730985 
L 702.869466 439.92197 
L 703.209004 440.660321 
L 703.403026 440.467211 
L 703.597048 440.425511 
L 706.119332 440.425511 
L 706.264848 451.369824 
L 706.410364 452.53062 
L 706.507375 452.990402 
L 706.555881 452.842785 
L 706.701397 453.204949 
L 706.895419 454.178106 
L 706.943924 454.084412 
L 707.137946 454.673018 
L 707.331968 454.368692 
L 707.623001 454.923675 
L 707.720012 454.781718 
L 707.817023 454.84188 
L 708.156561 455.985713 
L 708.205066 455.930067 
L 708.447594 455.390117 
L 708.496099 455.476545 
L 708.738626 455.866185 
L 708.932648 455.96307 
L 709.466208 457.154589 
L 709.805746 457.354795 
L 709.902757 457.450658 
L 709.951263 457.401789 
L 710.242295 457.280385 
L 710.72735 456.711871 
L 711.79447 457.239056 
L 711.842975 457.207567 
L 711.891481 457.286953 
L 712.279525 457.512672 
L 713.104117 457.839296 
L 713.298139 457.984287 
L 713.92871 458.12608 
L 714.219743 457.892175 
L 714.801808 457.664303 
L 715.092841 457.734836 
L 718.003168 457.645574 
L 718.148685 462.452641 
L 718.294201 462.299339 
L 718.488223 462.446688 
L 718.876267 462.505 
L 719.26431 462.251965 
L 719.409827 462.303044 
L 719.749365 462.560142 
L 723.144747 461.91502 
L 724.405889 461.872339 
L 725.715536 461.71477 
L 729.887005 461.632473 
L 730.032521 463.267054 
L 730.90562 463.218175 
L 731.584696 462.99699 
L 732.069751 462.909756 
L 732.5063 462.747394 
L 733.03986 462.760485 
L 733.379398 462.800247 
L 733.767442 462.8933 
L 737.30834 462.754796 
L 738.035922 462.81159 
L 738.763503 462.860068 
L 739.151547 462.888187 
L 741.770842 462.888187 
L 741.867853 461.375516 
L 741.916358 461.379655 
L 742.401413 461.611859 
L 742.740951 461.788696 
L 743.128994 461.735062 
L 743.759565 461.761007 
L 744.729675 461.869989 
L 745.893805 462.006515 
L 749.289187 462.233677 
L 752.102504 462.226525 
L 753.654678 462.226525 
L 753.800195 463.479703 
L 754.236744 463.421983 
L 755.012831 463.323698 
L 757.680631 463.203642 
L 758.747751 463.169704 
L 759.620849 463.194556 
L 762.094628 463.133329 
L 764.616911 463.096873 
L 777.422352 463.044142 
L 777.567868 462.732143 
L 778.149934 462.741619 
L 778.634988 462.694641 
L 779.605097 462.668088 
L 780.332679 462.696176 
L 782.175886 462.651873 
L 782.854963 462.633248 
L 784.16461 462.585796 
L 786.492872 462.565356 
L 787.851025 462.576354 
L 802.548178 462.684097 
L 804.051847 462.689421 
L 806.865163 462.702304 
L 817.536364 462.589763 
L 817.536364 462.589763 
" clip-path="url(#pae1c153fcb)" style="fill: none; stroke-dasharray: 5.55,2.4; stroke-dashoffset: 0; stroke: #ff0000; stroke-width: 1.5"/>
   </g>
   <g id="line2d_65">
    <path d="M 342.037381 534.04 
L 342.037381 302.44 
" clip-path="url(#pae1c153fcb)" style="fill: none; stroke-dasharray: 1.5,2.475; stroke-dashoffset: 0; stroke: #808080; stroke-opacity: 0.6; stroke-width: 1.5"/>
   </g>
   <g id="line2d_66">
    <path d="M 579.811125 534.04 
L 579.811125 302.44 
" clip-path="url(#pae1c153fcb)" style="fill: none; stroke-dasharray: 1.5,2.475; stroke-dashoffset: 0; stroke: #808080; stroke-opacity: 0.6; stroke-width: 1.5"/>
   </g>
   <g id="patch_9">
    <path d="M 68.6 534.04 
L 68.6 302.44 
" style="fill: none; stroke: #000000; stroke-width: 0.8; stroke-linejoin: miter; stroke-linecap: square"/>
   </g>
   <g id="patch_10">
    <path d="M 853.2 534.04 
L 853.2 302.44 
" style="fill: none; stroke: #000000; stroke-width: 0.8; stroke-linejoin: miter; stroke-linecap: square"/>
   </g>
   <g id="patch_11">
    <path d="M 68.6 534.04 
L 853.2 534.04 
" style="fill: none; stroke: #000000; stroke-width: 0.8; stroke-linejoin: miter; stroke-linecap: square"/>
   </g>
   <g id="patch_12">
    <path d="M 68.6 302.44 
L 853.2 302.44 
" style="fill: none; stroke: #000000; stroke-width: 0.8; stroke-linejoin: miter; stroke-linecap: square"/>
   </g>
   <g id="text_35">
    <!-- [37] ry_ext2  —  State Estimate -->
    <g transform="translate(366.432812 296.44) scale(0.12 -0.12)">
     <use xlink:href="#DejaVuSans-5b"/>
     <use xlink:href="#DejaVuSans-33" transform="translate(39.013672 0)"/>
     <use xlink:href="#DejaVuSans-37" transform="translate(102.636719 0)"/>
     <use xlink:href="#DejaVuSans-5d" transform="translate(166.259766 0)"/>
     <use xlink:href="#DejaVuSans-20" transform="translate(205.273438 0)"/>
     <use xlink:href="#DejaVuSans-72" transform="translate(237.060547 0)"/>
     <use xlink:href="#DejaVuSans-79" transform="translate(278.173828 0)"/>
     <use xlink:href="#DejaVuSans-5f" transform="translate(337.353516 0)"/>
     <use xlink:href="#DejaVuSans-65" transform="translate(387.353516 0)"/>
     <use xlink:href="#DejaVuSans-78" transform="translate(447.126953 0)"/>
     <use xlink:href="#DejaVuSans-74" transform="translate(506.306641 0)"/>
     <use xlink:href="#DejaVuSans-32" transform="translate(545.515625 0)"/>
     <use xlink:href="#DejaVuSans-20" transform="translate(609.138672 0)"/>
     <use xlink:href="#DejaVuSans-20" transform="translate(640.925781 0)"/>
     <use xlink:href="#DejaVuSans-2014" transform="translate(672.712891 0)"/>
     <use xlink:href="#DejaVuSans-20" transform="translate(772.712891 0)"/>
     <use xlink:href="#DejaVuSans-20" transform="translate(804.5 0)"/>
     <use xlink:href="#DejaVuSans-53" transform="translate(836.287109 0)"/>
     <use xlink:href="#DejaVuSans-74" transform="translate(899.763672 0)"/>
     <use xlink:href="#DejaVuSans-61" transform="translate(938.972656 0)"/>
     <use xlink:href="#DejaVuSans-74" transform="translate(1000.251953 0)"/>
     <use xlink:href="#DejaVuSans-65" transform="translate(1039.460938 0)"/>
     <use xlink:href="#DejaVuSans-20" transform="translate(1100.984375 0)"/>
     <use xlink:href="#DejaVuSans-45" transform="translate(1132.771484 0)"/>
     <use xlink:href="#DejaVuSans-73" transform="translate(1195.955078 0)"/>
     <use xlink:href="#DejaVuSans-74" transform="translate(1248.054688 0)"/>
     <use xlink:href="#DejaVuSans-69" transform="translate(1287.263672 0)"/>
     <use xlink:href="#DejaVuSans-6d" transform="translate(1315.046875 0)"/>
     <use xlink:href="#DejaVuSans-61" transform="translate(1412.458984 0)"/>
     <use xlink:href="#DejaVuSans-74" transform="translate(1473.738281 0)"/>
     <use xlink:href="#DejaVuSans-65" transform="translate(1512.947266 0)"/>
    </g>
   </g>
   <g id="legend_2">
    <g id="patch_13">
     <path d="M 738.401563 339.79625 
L 846.2 339.79625 
Q 848.2 339.79625 848.2 337.79625 
L 848.2 309.44 
Q 848.2 307.44 846.2 307.44 
L 738.401563 307.44 
Q 736.401563 307.44 736.401563 309.44 
L 736.401563 337.79625 
Q 736.401563 339.79625 738.401563 339.79625 
z
" style="fill: #ffffff; opacity: 0.8; stroke: #cccccc; stroke-linejoin: miter"/>
    </g>
    <g id="line2d_67">
     <path d="M 740.401563 315.538437 
L 750.401563 315.538437 
L 760.401563 315.538437 
" style="fill: none; stroke: #0000ff; stroke-width: 1.5; stroke-linecap: square"/>
    </g>
    <g id="text_36">
     <!-- No Noise -->
     <g transform="translate(768.401563 319.038437) scale(0.1 -0.1)">
      <use xlink:href="#DejaVuSans-4e"/>
      <use xlink:href="#DejaVuSans-6f" transform="translate(74.804688 0)"/>
      <use xlink:href="#DejaVuSans-20" transform="translate(135.986328 0)"/>
      <use xlink:href="#DejaVuSans-4e" transform="translate(167.773438 0)"/>
      <use xlink:href="#DejaVuSans-6f" transform="translate(242.578125 0)"/>
      <use xlink:href="#DejaVuSans-69" transform="translate(303.759766 0)"/>
      <use xlink:href="#DejaVuSans-73" transform="translate(331.542969 0)"/>
      <use xlink:href="#DejaVuSans-65" transform="translate(383.642578 0)"/>
     </g>
    </g>
    <g id="line2d_68">
     <path d="M 740.401563 330.216562 
L 750.401563 330.216562 
L 760.401563 330.216562 
" style="fill: none; stroke-dasharray: 5.55,2.4; stroke-dashoffset: 0; stroke: #ff0000; stroke-width: 1.5"/>
    </g>
    <g id="text_37">
     <!-- With ARW/VRW -->
     <g transform="translate(768.401563 333.716562) scale(0.1 -0.1)">
      <use xlink:href="#DejaVuSans-57"/>
      <use xlink:href="#DejaVuSans-69" transform="translate(96.626953 0)"/>
      <use xlink:href="#DejaVuSans-74" transform="translate(124.410156 0)"/>
      <use xlink:href="#DejaVuSans-68" transform="translate(163.619141 0)"/>
      <use xlink:href="#DejaVuSans-20" transform="translate(226.998047 0)"/>
      <use xlink:href="#DejaVuSans-41" transform="translate(258.785156 0)"/>
      <use xlink:href="#DejaVuSans-52" transform="translate(327.193359 0)"/>
      <use xlink:href="#DejaVuSans-57" transform="translate(392.675781 0)"/>
      <use xlink:href="#DejaVuSans-2f" transform="translate(491.552734 0)"/>
      <use xlink:href="#DejaVuSans-56" transform="translate(525.244141 0)"/>
      <use xlink:href="#DejaVuSans-52" transform="translate(593.652344 0)"/>
      <use xlink:href="#DejaVuSans-57" transform="translate(659.134766 0)"/>
     </g>
    </g>
   </g>
  </g>
 </g>
 <defs>
  <clipPath id="pd667bffdcb">
   <rect x="68.6" y="26.88" width="784.6" height="231.6"/>
  </clipPath>
  <clipPath id="pae1c153fcb">
   <rect x="68.6" y="302.44" width="784.6" height="231.6"/>
  </clipPath>
 </defs>
</svg>
