<?xml version="1.0" encoding="utf-8" standalone="no"?>
<!DOCTYPE svg PUBLIC "-//W3C//DTD SVG 1.1//EN"
  "http://www.w3.org/Graphics/SVG/1.1/DTD/svg11.dtd">
<svg xmlns:xlink="http://www.w3.org/1999/xlink" width="864pt" height="576pt" viewBox="0 0 864 576" xmlns="http://www.w3.org/2000/svg" version="1.1">
 <metadata>
  <rdf:RDF xmlns:dc="http://purl.org/dc/elements/1.1/" xmlns:cc="http://creativecommons.org/ns#" xmlns:rdf="http://www.w3.org/1999/02/22-rdf-syntax-ns#">
   <cc:Work>
    <dc:type rdf:resource="http://purl.org/dc/dcmitype/StillImage"/>
    <dc:date>2026-03-03T11:38:15.819065</dc:date>
    <dc:format>image/svg+xml</dc:format>
    <dc:creator>
     <cc:Agent>
      <dc:title>Matplotlib v3.10.8, https://matplotlib.org/</dc:title>
     </cc:Agent>
    </dc:creator>
   </cc:Work>
  </rdf:RDF>
 </metadata>
 <defs>
  <style type="text/css">*{stroke-linejoin: round; stroke-linecap: butt}</style>
 </defs>
 <g id="figure_1">
  <g id="patch_1">
   <path d="M 0 576 
L 864 576 
L 864 0 
L 0 0 
z
" style="fill: #ffffff"/>
  </g>
  <g id="axes_1">
   <g id="patch_2">
    <path d="M 68.69 258.48 
L 853.2 258.48 
L 853.2 26.88 
L 68.69 26.88 
z
" style="fill: #ffffff"/>
   </g>
   <g id="matplotlib.axis_1">
    <g id="xtick_1">
     <g id="line2d_1">
      <path d="M 104.349545 258.48 
L 104.349545 26.88 
" clip-path="url(#pe269830ca5)" style="fill: none; stroke: #b0b0b0; stroke-width: 0.8; stroke-linecap: square"/>
     </g>
     <g id="line2d_2">
      <defs>
       <path id="mb424fad629" d="M 0 0 
L 0 3.5 
" style="stroke: #000000; stroke-width: 0.8"/>
      </defs>
      <g>
       <use xlink:href="#mb424fad629" x="104.349545" y="258.48" style="stroke: #000000; stroke-width: 0.8"/>
      </g>
     </g>
     <g id="text_1">
      <!-- 0 -->
      <g transform="translate(101.168295 273.078438) scale(0.1 -0.1)">
       <defs>
        <path id="DejaVuSans-30" d="M 2034 4250 
Q 1547 4250 1301 3770 
Q 1056 3291 1056 2328 
Q 1056 1369 1301 889 
Q 1547 409 2034 409 
Q 2525 409 2770 889 
Q 3016 1369 3016 2328 
Q 3016 3291 2770 3770 
Q 2525 4250 2034 4250 
z
M 2034 4750 
Q 2819 4750 3233 4129 
Q 3647 3509 3647 2328 
Q 3647 1150 3233 529 
Q 2819 -91 2034 -91 
Q 1250 -91 836 529 
Q 422 1150 422 2328 
Q 422 3509 836 4129 
Q 1250 4750 2034 4750 
z
" transform="scale(0.015625)"/>
       </defs>
       <use xlink:href="#DejaVuSans-30"/>
      </g>
     </g>
    </g>
    <g id="xtick_2">
     <g id="line2d_3">
      <path d="M 225.599275 258.48 
L 225.599275 26.88 
" clip-path="url(#pe269830ca5)" style="fill: none; stroke: #b0b0b0; stroke-width: 0.8; stroke-linecap: square"/>
     </g>
     <g id="line2d_4">
      <g>
       <use xlink:href="#mb424fad629" x="225.599275" y="258.48" style="stroke: #000000; stroke-width: 0.8"/>
      </g>
     </g>
     <g id="text_2">
      <!-- 50 -->
      <g transform="translate(219.236775 273.078438) scale(0.1 -0.1)">
       <defs>
        <path id="DejaVuSans-35" d="M 691 4666 
L 3169 4666 
L 3169 4134 
L 1269 4134 
L 1269 2991 
Q 1406 3038 1543 3061 
Q 1681 3084 1819 3084 
Q 2600 3084 3056 2656 
Q 3513 2228 3513 1497 
Q 3513 744 3044 326 
Q 2575 -91 1722 -91 
Q 1428 -91 1123 -41 
Q 819 9 494 109 
L 494 744 
Q 775 591 1075 516 
Q 1375 441 1709 441 
Q 2250 441 2565 725 
Q 2881 1009 2881 1497 
Q 2881 1984 2565 2268 
Q 2250 2553 1709 2553 
Q 1456 2553 1204 2497 
Q 953 2441 691 2322 
L 691 4666 
z
" transform="scale(0.015625)"/>
       </defs>
       <use xlink:href="#DejaVuSans-35"/>
       <use xlink:href="#DejaVuSans-30" transform="translate(63.623047 0)"/>
      </g>
     </g>
    </g>
    <g id="xtick_3">
     <g id="line2d_5">
      <path d="M 346.849005 258.48 
L 346.849005 26.88 
" clip-path="url(#pe269830ca5)" style="fill: none; stroke: #b0b0b0; stroke-width: 0.8; stroke-linecap: square"/>
     </g>
     <g id="line2d_6">
      <g>
       <use xlink:href="#mb424fad629" x="346.849005" y="258.48" style="stroke: #000000; stroke-width: 0.8"/>
      </g>
     </g>
     <g id="text_3">
      <!-- 100 -->
      <g transform="translate(337.305255 273.078438) scale(0.1 -0.1)">
       <defs>
        <path id="DejaVuSans-31" d="M 794 531 
L 1825 531 
L 1825 4091 
L 703 3866 
L 703 4441 
L 1819 4666 
L 2450 4666 
L 2450 531 
L 3481 531 
L 3481 0 
L 794 0 
L 794 531 
z
" transform="scale(0.015625)"/>
       </defs>
       <use xlink:href="#DejaVuSans-31"/>
       <use xlink:href="#DejaVuSans-30" transform="translate(63.623047 0)"/>
       <use xlink:href="#DejaVuSans-30" transform="translate(127.246094 0)"/>
      </g>
     </g>
    </g>
    <g id="xtick_4">
     <g id="line2d_7">
      <path d="M 468.098734 258.48 
L 468.098734 26.88 
" clip-path="url(#pe269830ca5)" style="fill: none; stroke: #b0b0b0; stroke-width: 0.8; stroke-linecap: square"/>
     </g>
     <g id="line2d_8">
      <g>
       <use xlink:href="#mb424fad629" x="468.098734" y="258.48" style="stroke: #000000; stroke-width: 0.8"/>
      </g>
     </g>
     <g id="text_4">
      <!-- 150 -->
      <g transform="translate(458.554984 273.078438) scale(0.1 -0.1)">
       <use xlink:href="#DejaVuSans-31"/>
       <use xlink:href="#DejaVuSans-35" transform="translate(63.623047 0)"/>
       <use xlink:href="#DejaVuSans-30" transform="translate(127.246094 0)"/>
      </g>
     </g>
    </g>
    <g id="xtick_5">
     <g id="line2d_9">
      <path d="M 589.348464 258.48 
L 589.348464 26.88 
" clip-path="url(#pe269830ca5)" style="fill: none; stroke: #b0b0b0; stroke-width: 0.8; stroke-linecap: square"/>
     </g>
     <g id="line2d_10">
      <g>
       <use xlink:href="#mb424fad629" x="589.348464" y="258.48" style="stroke: #000000; stroke-width: 0.8"/>
      </g>
     </g>
     <g id="text_5">
      <!-- 200 -->
      <g transform="translate(579.804714 273.078438) scale(0.1 -0.1)">
       <defs>
        <path id="DejaVuSans-32" d="M 1228 531 
L 3431 531 
L 3431 0 
L 469 0 
L 469 531 
Q 828 903 1448 1529 
Q 2069 2156 2228 2338 
Q 2531 2678 2651 2914 
Q 2772 3150 2772 3378 
Q 2772 3750 2511 3984 
Q 2250 4219 1831 4219 
Q 1534 4219 1204 4116 
Q 875 4013 500 3803 
L 500 4441 
Q 881 4594 1212 4672 
Q 1544 4750 1819 4750 
Q 2544 4750 2975 4387 
Q 3406 4025 3406 3419 
Q 3406 3131 3298 2873 
Q 3191 2616 2906 2266 
Q 2828 2175 2409 1742 
Q 1991 1309 1228 531 
z
" transform="scale(0.015625)"/>
       </defs>
       <use xlink:href="#DejaVuSans-32"/>
       <use xlink:href="#DejaVuSans-30" transform="translate(63.623047 0)"/>
       <use xlink:href="#DejaVuSans-30" transform="translate(127.246094 0)"/>
      </g>
     </g>
    </g>
    <g id="xtick_6">
     <g id="line2d_11">
      <path d="M 710.598193 258.48 
L 710.598193 26.88 
" clip-path="url(#pe269830ca5)" style="fill: none; stroke: #b0b0b0; stroke-width: 0.8; stroke-linecap: square"/>
     </g>
     <g id="line2d_12">
      <g>
       <use xlink:href="#mb424fad629" x="710.598193" y="258.48" style="stroke: #000000; stroke-width: 0.8"/>
      </g>
     </g>
     <g id="text_6">
      <!-- 250 -->
      <g transform="translate(701.054443 273.078438) scale(0.1 -0.1)">
       <use xlink:href="#DejaVuSans-32"/>
       <use xlink:href="#DejaVuSans-35" transform="translate(63.623047 0)"/>
       <use xlink:href="#DejaVuSans-30" transform="translate(127.246094 0)"/>
      </g>
     </g>
    </g>
    <g id="xtick_7">
     <g id="line2d_13">
      <path d="M 831.847923 258.48 
L 831.847923 26.88 
" clip-path="url(#pe269830ca5)" style="fill: none; stroke: #b0b0b0; stroke-width: 0.8; stroke-linecap: square"/>
     </g>
     <g id="line2d_14">
      <g>
       <use xlink:href="#mb424fad629" x="831.847923" y="258.48" style="stroke: #000000; stroke-width: 0.8"/>
      </g>
     </g>
     <g id="text_7">
      <!-- 300 -->
      <g transform="translate(822.304173 273.078438) scale(0.1 -0.1)">
       <defs>
        <path id="DejaVuSans-33" d="M 2597 2516 
Q 3050 2419 3304 2112 
Q 3559 1806 3559 1356 
Q 3559 666 3084 287 
Q 2609 -91 1734 -91 
Q 1441 -91 1130 -33 
Q 819 25 488 141 
L 488 750 
Q 750 597 1062 519 
Q 1375 441 1716 441 
Q 2309 441 2620 675 
Q 2931 909 2931 1356 
Q 2931 1769 2642 2001 
Q 2353 2234 1838 2234 
L 1294 2234 
L 1294 2753 
L 1863 2753 
Q 2328 2753 2575 2939 
Q 2822 3125 2822 3475 
Q 2822 3834 2567 4026 
Q 2313 4219 1838 4219 
Q 1578 4219 1281 4162 
Q 984 4106 628 3988 
L 628 4550 
Q 988 4650 1302 4700 
Q 1616 4750 1894 4750 
Q 2613 4750 3031 4423 
Q 3450 4097 3450 3541 
Q 3450 3153 3228 2886 
Q 3006 2619 2597 2516 
z
" transform="scale(0.015625)"/>
       </defs>
       <use xlink:href="#DejaVuSans-33"/>
       <use xlink:href="#DejaVuSans-30" transform="translate(63.623047 0)"/>
       <use xlink:href="#DejaVuSans-30" transform="translate(127.246094 0)"/>
      </g>
     </g>
    </g>
   </g>
   <g id="matplotlib.axis_2">
    <g id="ytick_1">
     <g id="line2d_15">
      <path d="M 68.69 248.074131 
L 853.2 248.074131 
" clip-path="url(#pe269830ca5)" style="fill: none; stroke: #b0b0b0; stroke-width: 0.8; stroke-linecap: square"/>
     </g>
     <g id="line2d_16">
      <defs>
       <path id="maf5163d9bf" d="M 0 0 
L -3.5 0 
" style="stroke: #000000; stroke-width: 0.8"/>
      </defs>
      <g>
       <use xlink:href="#maf5163d9bf" x="68.69" y="248.074131" style="stroke: #000000; stroke-width: 0.8"/>
      </g>
     </g>
     <g id="text_8">
      <!-- 0.00 -->
      <g transform="translate(39.424375 251.87335) scale(0.1 -0.1)">
       <defs>
        <path id="DejaVuSans-2e" d="M 684 794 
L 1344 794 
L 1344 0 
L 684 0 
L 684 794 
z
" transform="scale(0.015625)"/>
       </defs>
       <use xlink:href="#DejaVuSans-30"/>
       <use xlink:href="#DejaVuSans-2e" transform="translate(63.623047 0)"/>
       <use xlink:href="#DejaVuSans-30" transform="translate(95.410156 0)"/>
       <use xlink:href="#DejaVuSans-30" transform="translate(159.033203 0)"/>
      </g>
     </g>
    </g>
    <g id="ytick_2">
     <g id="line2d_17">
      <path d="M 68.69 205.940759 
L 853.2 205.940759 
" clip-path="url(#pe269830ca5)" style="fill: none; stroke: #b0b0b0; stroke-width: 0.8; stroke-linecap: square"/>
     </g>
     <g id="line2d_18">
      <g>
       <use xlink:href="#maf5163d9bf" x="68.69" y="205.940759" style="stroke: #000000; stroke-width: 0.8"/>
      </g>
     </g>
     <g id="text_9">
      <!-- 0.02 -->
      <g transform="translate(39.424375 209.739978) scale(0.1 -0.1)">
       <use xlink:href="#DejaVuSans-30"/>
       <use xlink:href="#DejaVuSans-2e" transform="translate(63.623047 0)"/>
       <use xlink:href="#DejaVuSans-30" transform="translate(95.410156 0)"/>
       <use xlink:href="#DejaVuSans-32" transform="translate(159.033203 0)"/>
      </g>
     </g>
    </g>
    <g id="ytick_3">
     <g id="line2d_19">
      <path d="M 68.69 163.807388 
L 853.2 163.807388 
" clip-path="url(#pe269830ca5)" style="fill: none; stroke: #b0b0b0; stroke-width: 0.8; stroke-linecap: square"/>
     </g>
     <g id="line2d_20">
      <g>
       <use xlink:href="#maf5163d9bf" x="68.69" y="163.807388" style="stroke: #000000; stroke-width: 0.8"/>
      </g>
     </g>
     <g id="text_10">
      <!-- 0.04 -->
      <g transform="translate(39.424375 167.606607) scale(0.1 -0.1)">
       <defs>
        <path id="DejaVuSans-34" d="M 2419 4116 
L 825 1625 
L 2419 1625 
L 2419 4116 
z
M 2253 4666 
L 3047 4666 
L 3047 1625 
L 3713 1625 
L 3713 1100 
L 3047 1100 
L 3047 0 
L 2419 0 
L 2419 1100 
L 313 1100 
L 313 1709 
L 2253 4666 
z
" transform="scale(0.015625)"/>
       </defs>
       <use xlink:href="#DejaVuSans-30"/>
       <use xlink:href="#DejaVuSans-2e" transform="translate(63.623047 0)"/>
       <use xlink:href="#DejaVuSans-30" transform="translate(95.410156 0)"/>
       <use xlink:href="#DejaVuSans-34" transform="translate(159.033203 0)"/>
      </g>
     </g>
    </g>
    <g id="ytick_4">
     <g id="line2d_21">
      <path d="M 68.69 121.674016 
L 853.2 121.674016 
" clip-path="url(#pe269830ca5)" style="fill: none; stroke: #b0b0b0; stroke-width: 0.8; stroke-linecap: square"/>
     </g>
     <g id="line2d_22">
      <g>
       <use xlink:href="#maf5163d9bf" x="68.69" y="121.674016" style="stroke: #000000; stroke-width: 0.8"/>
      </g>
     </g>
     <g id="text_11">
      <!-- 0.06 -->
      <g transform="translate(39.424375 125.473235) scale(0.1 -0.1)">
       <defs>
        <path id="DejaVuSans-36" d="M 2113 2584 
Q 1688 2584 1439 2293 
Q 1191 2003 1191 1497 
Q 1191 994 1439 701 
Q 1688 409 2113 409 
Q 2538 409 2786 701 
Q 3034 994 3034 1497 
Q 3034 2003 2786 2293 
Q 2538 2584 2113 2584 
z
M 3366 4563 
L 3366 3988 
Q 3128 4100 2886 4159 
Q 2644 4219 2406 4219 
Q 1781 4219 1451 3797 
Q 1122 3375 1075 2522 
Q 1259 2794 1537 2939 
Q 1816 3084 2150 3084 
Q 2853 3084 3261 2657 
Q 3669 2231 3669 1497 
Q 3669 778 3244 343 
Q 2819 -91 2113 -91 
Q 1303 -91 875 529 
Q 447 1150 447 2328 
Q 447 3434 972 4092 
Q 1497 4750 2381 4750 
Q 2619 4750 2861 4703 
Q 3103 4656 3366 4563 
z
" transform="scale(0.015625)"/>
       </defs>
       <use xlink:href="#DejaVuSans-30"/>
       <use xlink:href="#DejaVuSans-2e" transform="translate(63.623047 0)"/>
       <use xlink:href="#DejaVuSans-30" transform="translate(95.410156 0)"/>
       <use xlink:href="#DejaVuSans-36" transform="translate(159.033203 0)"/>
      </g>
     </g>
    </g>
    <g id="ytick_5">
     <g id="line2d_23">
      <path d="M 68.69 79.540644 
L 853.2 79.540644 
" clip-path="url(#pe269830ca5)" style="fill: none; stroke: #b0b0b0; stroke-width: 0.8; stroke-linecap: square"/>
     </g>
     <g id="line2d_24">
      <g>
       <use xlink:href="#maf5163d9bf" x="68.69" y="79.540644" style="stroke: #000000; stroke-width: 0.8"/>
      </g>
     </g>
     <g id="text_12">
      <!-- 0.08 -->
      <g transform="translate(39.424375 83.339863) scale(0.1 -0.1)">
       <defs>
        <path id="DejaVuSans-38" d="M 2034 2216 
Q 1584 2216 1326 1975 
Q 1069 1734 1069 1313 
Q 1069 891 1326 650 
Q 1584 409 2034 409 
Q 2484 409 2743 651 
Q 3003 894 3003 1313 
Q 3003 1734 2745 1975 
Q 2488 2216 2034 2216 
z
M 1403 2484 
Q 997 2584 770 2862 
Q 544 3141 544 3541 
Q 544 4100 942 4425 
Q 1341 4750 2034 4750 
Q 2731 4750 3128 4425 
Q 3525 4100 3525 3541 
Q 3525 3141 3298 2862 
Q 3072 2584 2669 2484 
Q 3125 2378 3379 2068 
Q 3634 1759 3634 1313 
Q 3634 634 3220 271 
Q 2806 -91 2034 -91 
Q 1263 -91 848 271 
Q 434 634 434 1313 
Q 434 1759 690 2068 
Q 947 2378 1403 2484 
z
M 1172 3481 
Q 1172 3119 1398 2916 
Q 1625 2713 2034 2713 
Q 2441 2713 2670 2916 
Q 2900 3119 2900 3481 
Q 2900 3844 2670 4047 
Q 2441 4250 2034 4250 
Q 1625 4250 1398 4047 
Q 1172 3844 1172 3481 
z
" transform="scale(0.015625)"/>
       </defs>
       <use xlink:href="#DejaVuSans-30"/>
       <use xlink:href="#DejaVuSans-2e" transform="translate(63.623047 0)"/>
       <use xlink:href="#DejaVuSans-30" transform="translate(95.410156 0)"/>
       <use xlink:href="#DejaVuSans-38" transform="translate(159.033203 0)"/>
      </g>
     </g>
    </g>
    <g id="ytick_6">
     <g id="line2d_25">
      <path d="M 68.69 37.407273 
L 853.2 37.407273 
" clip-path="url(#pe269830ca5)" style="fill: none; stroke: #b0b0b0; stroke-width: 0.8; stroke-linecap: square"/>
     </g>
     <g id="line2d_26">
      <g>
       <use xlink:href="#maf5163d9bf" x="68.69" y="37.407273" style="stroke: #000000; stroke-width: 0.8"/>
      </g>
     </g>
     <g id="text_13">
      <!-- 0.10 -->
      <g transform="translate(39.424375 41.206491) scale(0.1 -0.1)">
       <use xlink:href="#DejaVuSans-30"/>
       <use xlink:href="#DejaVuSans-2e" transform="translate(63.623047 0)"/>
       <use xlink:href="#DejaVuSans-31" transform="translate(95.410156 0)"/>
       <use xlink:href="#DejaVuSans-30" transform="translate(159.033203 0)"/>
      </g>
     </g>
    </g>
    <g id="text_14">
     <!-- Std Dev -->
     <g transform="translate(33.344687 162.463594) rotate(-90) scale(0.1 -0.1)">
      <defs>
       <path id="DejaVuSans-53" d="M 3425 4513 
L 3425 3897 
Q 3066 4069 2747 4153 
Q 2428 4238 2131 4238 
Q 1616 4238 1336 4038 
Q 1056 3838 1056 3469 
Q 1056 3159 1242 3001 
Q 1428 2844 1947 2747 
L 2328 2669 
Q 3034 2534 3370 2195 
Q 3706 1856 3706 1288 
Q 3706 609 3251 259 
Q 2797 -91 1919 -91 
Q 1588 -91 1214 -16 
Q 841 59 441 206 
L 441 856 
Q 825 641 1194 531 
Q 1563 422 1919 422 
Q 2459 422 2753 634 
Q 3047 847 3047 1241 
Q 3047 1584 2836 1778 
Q 2625 1972 2144 2069 
L 1759 2144 
Q 1053 2284 737 2584 
Q 422 2884 422 3419 
Q 422 4038 858 4394 
Q 1294 4750 2059 4750 
Q 2388 4750 2728 4690 
Q 3069 4631 3425 4513 
z
" transform="scale(0.015625)"/>
       <path id="DejaVuSans-74" d="M 1172 4494 
L 1172 3500 
L 2356 3500 
L 2356 3053 
L 1172 3053 
L 1172 1153 
Q 1172 725 1289 603 
Q 1406 481 1766 481 
L 2356 481 
L 2356 0 
L 1766 0 
Q 1100 0 847 248 
Q 594 497 594 1153 
L 594 3053 
L 172 3053 
L 172 3500 
L 594 3500 
L 594 4494 
L 1172 4494 
z
" transform="scale(0.015625)"/>
       <path id="DejaVuSans-64" d="M 2906 2969 
L 2906 4863 
L 3481 4863 
L 3481 0 
L 2906 0 
L 2906 525 
Q 2725 213 2448 61 
Q 2172 -91 1784 -91 
Q 1150 -91 751 415 
Q 353 922 353 1747 
Q 353 2572 751 3078 
Q 1150 3584 1784 3584 
Q 2172 3584 2448 3432 
Q 2725 3281 2906 2969 
z
M 947 1747 
Q 947 1113 1208 752 
Q 1469 391 1925 391 
Q 2381 391 2643 752 
Q 2906 1113 2906 1747 
Q 2906 2381 2643 2742 
Q 2381 3103 1925 3103 
Q 1469 3103 1208 2742 
Q 947 2381 947 1747 
z
" transform="scale(0.015625)"/>
       <path id="DejaVuSans-20" transform="scale(0.015625)"/>
       <path id="DejaVuSans-44" d="M 1259 4147 
L 1259 519 
L 2022 519 
Q 2988 519 3436 956 
Q 3884 1394 3884 2338 
Q 3884 3275 3436 3711 
Q 2988 4147 2022 4147 
L 1259 4147 
z
M 628 4666 
L 1925 4666 
Q 3281 4666 3915 4102 
Q 4550 3538 4550 2338 
Q 4550 1131 3912 565 
Q 3275 0 1925 0 
L 628 0 
L 628 4666 
z
" transform="scale(0.015625)"/>
       <path id="DejaVuSans-65" d="M 3597 1894 
L 3597 1613 
L 953 1613 
Q 991 1019 1311 708 
Q 1631 397 2203 397 
Q 2534 397 2845 478 
Q 3156 559 3463 722 
L 3463 178 
Q 3153 47 2828 -22 
Q 2503 -91 2169 -91 
Q 1331 -91 842 396 
Q 353 884 353 1716 
Q 353 2575 817 3079 
Q 1281 3584 2069 3584 
Q 2775 3584 3186 3129 
Q 3597 2675 3597 1894 
z
M 3022 2063 
Q 3016 2534 2758 2815 
Q 2500 3097 2075 3097 
Q 1594 3097 1305 2825 
Q 1016 2553 972 2059 
L 3022 2063 
z
" transform="scale(0.015625)"/>
       <path id="DejaVuSans-76" d="M 191 3500 
L 800 3500 
L 1894 563 
L 2988 3500 
L 3597 3500 
L 2284 0 
L 1503 0 
L 191 3500 
z
" transform="scale(0.015625)"/>
      </defs>
      <use xlink:href="#DejaVuSans-53"/>
      <use xlink:href="#DejaVuSans-74" transform="translate(63.476562 0)"/>
      <use xlink:href="#DejaVuSans-64" transform="translate(102.685547 0)"/>
      <use xlink:href="#DejaVuSans-20" transform="translate(166.162109 0)"/>
      <use xlink:href="#DejaVuSans-44" transform="translate(197.949219 0)"/>
      <use xlink:href="#DejaVuSans-65" transform="translate(274.951172 0)"/>
      <use xlink:href="#DejaVuSans-76" transform="translate(336.474609 0)"/>
     </g>
    </g>
   </g>
   <g id="line2d_27">
    <path d="M 104.349545 227.007445 
L 123.458503 227.007446 
L 123.604003 244.016883 
L 123.798002 244.573631 
L 124.137501 244.677815 
L 125.689498 244.71617 
L 146.738451 244.726786 
L 147.465949 244.726786 
L 147.611449 246.571073 
L 147.853948 247.240729 
L 148.193448 247.43239 
L 149.017946 247.52377 
L 152.461438 247.571743 
L 160.221421 247.713431 
L 163.179914 247.751755 
L 240.003743 247.881514 
L 342.047515 247.95272 
L 342.193015 227.007446 
L 361.204972 227.007446 
L 361.350472 244.018205 
L 361.544472 244.574655 
L 361.883971 244.678773 
L 363.435968 244.71708 
L 384.53342 244.727559 
L 385.212419 244.727559 
L 385.357919 246.571362 
L 385.600418 247.241167 
L 385.939917 247.432914 
L 386.764415 247.524317 
L 390.207908 247.57215 
L 397.96789 247.713506 
L 400.974884 247.751945 
L 479.835708 247.881523 
L 579.793985 247.952727 
L 579.939485 37.407282 
L 598.951442 37.407288 
L 599.096942 214.831312 
L 599.290941 214.952423 
L 600.794438 214.968075 
L 622.958889 214.969342 
L 623.152888 246.344344 
L 623.346888 247.111453 
L 623.637887 247.303165 
L 624.365385 247.392663 
L 627.566378 247.436611 
L 634.841362 247.442934 
L 634.986862 247.590595 
L 636.005359 247.721668 
L 640.37035 247.753966 
L 817.540455 247.952715 
L 817.540455 247.952715 
" clip-path="url(#pe269830ca5)" style="fill: none; stroke: #0000ff; stroke-width: 1.5; stroke-linecap: square"/>
   </g>
   <g id="line2d_28">
    <path d="M 104.349545 227.007445 
L 123.458503 227.00757 
L 123.604003 244.017276 
L 123.798002 244.574947 
L 124.137501 244.678037 
L 125.640998 244.716183 
L 146.447452 244.727262 
L 147.465949 244.727262 
L 147.611449 246.571194 
L 147.853948 247.240779 
L 148.193448 247.432455 
L 149.017946 247.523844 
L 152.461438 247.571795 
L 160.221421 247.71345 
L 163.179914 247.75177 
L 240.197742 247.88151 
L 342.047515 247.95272 
L 342.193015 227.007446 
L 361.204972 227.00757 
L 361.350472 244.018603 
L 361.544472 244.575981 
L 361.883971 244.679007 
L 363.387468 244.717108 
L 384.242421 244.728047 
L 385.212419 244.728047 
L 385.357919 246.571481 
L 385.600418 247.241202 
L 385.939917 247.432959 
L 386.764415 247.524365 
L 390.207908 247.572177 
L 397.96789 247.71352 
L 400.974884 247.751955 
L 479.932708 247.881521 
L 579.793985 247.952727 
L 579.890985 37.407283 
L 579.939485 37.407342 
L 598.951442 37.530683 
L 599.096942 215.005553 
L 599.290941 215.136568 
L 617.6724 215.363652 
L 622.958889 215.384595 
L 623.152888 246.344357 
L 623.346888 247.111494 
L 623.637887 247.303232 
L 624.365385 247.392751 
L 627.566378 247.436695 
L 634.841362 247.443026 
L 634.986862 247.590668 
L 636.005359 247.721686 
L 640.37035 247.753973 
L 817.540455 247.952715 
L 817.540455 247.952715 
" clip-path="url(#pe269830ca5)" style="fill: none; stroke-dasharray: 5.55,2.4; stroke-dashoffset: 0; stroke: #ff0000; stroke-width: 1.5"/>
   </g>
   <g id="line2d_29">
    <path d="M 342.096015 258.48 
L 342.096015 26.88 
" clip-path="url(#pe269830ca5)" style="fill: none; stroke-dasharray: 1.5,2.475; stroke-dashoffset: 0; stroke: #808080; stroke-opacity: 0.6; stroke-width: 1.5"/>
   </g>
   <g id="line2d_30">
    <path d="M 579.842485 258.48 
L 579.842485 26.88 
" clip-path="url(#pe269830ca5)" style="fill: none; stroke-dasharray: 1.5,2.475; stroke-dashoffset: 0; stroke: #808080; stroke-opacity: 0.6; stroke-width: 1.5"/>
   </g>
   <g id="patch_3">
    <path d="M 68.69 258.48 
L 68.69 26.88 
" style="fill: none; stroke: #000000; stroke-width: 0.8; stroke-linejoin: miter; stroke-linecap: square"/>
   </g>
   <g id="patch_4">
    <path d="M 853.2 258.48 
L 853.2 26.88 
" style="fill: none; stroke: #000000; stroke-width: 0.8; stroke-linejoin: miter; stroke-linecap: square"/>
   </g>
   <g id="patch_5">
    <path d="M 68.69 258.48 
L 853.2 258.48 
" style="fill: none; stroke: #000000; stroke-width: 0.8; stroke-linejoin: miter; stroke-linecap: square"/>
   </g>
   <g id="patch_6">
    <path d="M 68.69 26.88 
L 853.2 26.88 
" style="fill: none; stroke: #000000; stroke-width: 0.8; stroke-linejoin: miter; stroke-linecap: square"/>
   </g>
   <g id="text_15">
    <!-- [42] tGA  —  Uncertainty (std dev) -->
    <g transform="translate(358.100312 20.88) scale(0.12 -0.12)">
     <defs>
      <path id="DejaVuSans-5b" d="M 550 4863 
L 1875 4863 
L 1875 4416 
L 1125 4416 
L 1125 -397 
L 1875 -397 
L 1875 -844 
L 550 -844 
L 550 4863 
z
" transform="scale(0.015625)"/>
      <path id="DejaVuSans-5d" d="M 1947 4863 
L 1947 -844 
L 622 -844 
L 622 -397 
L 1369 -397 
L 1369 4416 
L 622 4416 
L 622 4863 
L 1947 4863 
z
" transform="scale(0.015625)"/>
      <path id="DejaVuSans-47" d="M 3809 666 
L 3809 1919 
L 2778 1919 
L 2778 2438 
L 4434 2438 
L 4434 434 
Q 4069 175 3628 42 
Q 3188 -91 2688 -91 
Q 1594 -91 976 548 
Q 359 1188 359 2328 
Q 359 3472 976 4111 
Q 1594 4750 2688 4750 
Q 3144 4750 3555 4637 
Q 3966 4525 4313 4306 
L 4313 3634 
Q 3963 3931 3569 4081 
Q 3175 4231 2741 4231 
Q 1884 4231 1454 3753 
Q 1025 3275 1025 2328 
Q 1025 1384 1454 906 
Q 1884 428 2741 428 
Q 3075 428 3337 486 
Q 3600 544 3809 666 
z
" transform="scale(0.015625)"/>
      <path id="DejaVuSans-41" d="M 2188 4044 
L 1331 1722 
L 3047 1722 
L 2188 4044 
z
M 1831 4666 
L 2547 4666 
L 4325 0 
L 3669 0 
L 3244 1197 
L 1141 1197 
L 716 0 
L 50 0 
L 1831 4666 
z
" transform="scale(0.015625)"/>
      <path id="DejaVuSans-2014" d="M 313 1978 
L 6088 1978 
L 6088 1528 
L 313 1528 
L 313 1978 
z
" transform="scale(0.015625)"/>
      <path id="DejaVuSans-55" d="M 556 4666 
L 1191 4666 
L 1191 1831 
Q 1191 1081 1462 751 
Q 1734 422 2344 422 
Q 2950 422 3222 751 
Q 3494 1081 3494 1831 
L 3494 4666 
L 4128 4666 
L 4128 1753 
Q 4128 841 3676 375 
Q 3225 -91 2344 -91 
Q 1459 -91 1007 375 
Q 556 841 556 1753 
L 556 4666 
z
" transform="scale(0.015625)"/>
      <path id="DejaVuSans-6e" d="M 3513 2113 
L 3513 0 
L 2938 0 
L 2938 2094 
Q 2938 2591 2744 2837 
Q 2550 3084 2163 3084 
Q 1697 3084 1428 2787 
Q 1159 2491 1159 1978 
L 1159 0 
L 581 0 
L 581 3500 
L 1159 3500 
L 1159 2956 
Q 1366 3272 1645 3428 
Q 1925 3584 2291 3584 
Q 2894 3584 3203 3211 
Q 3513 2838 3513 2113 
z
" transform="scale(0.015625)"/>
      <path id="DejaVuSans-63" d="M 3122 3366 
L 3122 2828 
Q 2878 2963 2633 3030 
Q 2388 3097 2138 3097 
Q 1578 3097 1268 2742 
Q 959 2388 959 1747 
Q 959 1106 1268 751 
Q 1578 397 2138 397 
Q 2388 397 2633 464 
Q 2878 531 3122 666 
L 3122 134 
Q 2881 22 2623 -34 
Q 2366 -91 2075 -91 
Q 1284 -91 818 406 
Q 353 903 353 1747 
Q 353 2603 823 3093 
Q 1294 3584 2113 3584 
Q 2378 3584 2631 3529 
Q 2884 3475 3122 3366 
z
" transform="scale(0.015625)"/>
      <path id="DejaVuSans-72" d="M 2631 2963 
Q 2534 3019 2420 3045 
Q 2306 3072 2169 3072 
Q 1681 3072 1420 2755 
Q 1159 2438 1159 1844 
L 1159 0 
L 581 0 
L 581 3500 
L 1159 3500 
L 1159 2956 
Q 1341 3275 1631 3429 
Q 1922 3584 2338 3584 
Q 2397 3584 2469 3576 
Q 2541 3569 2628 3553 
L 2631 2963 
z
" transform="scale(0.015625)"/>
      <path id="DejaVuSans-61" d="M 2194 1759 
Q 1497 1759 1228 1600 
Q 959 1441 959 1056 
Q 959 750 1161 570 
Q 1363 391 1709 391 
Q 2188 391 2477 730 
Q 2766 1069 2766 1631 
L 2766 1759 
L 2194 1759 
z
M 3341 1997 
L 3341 0 
L 2766 0 
L 2766 531 
Q 2569 213 2275 61 
Q 1981 -91 1556 -91 
Q 1019 -91 701 211 
Q 384 513 384 1019 
Q 384 1609 779 1909 
Q 1175 2209 1959 2209 
L 2766 2209 
L 2766 2266 
Q 2766 2663 2505 2880 
Q 2244 3097 1772 3097 
Q 1472 3097 1187 3025 
Q 903 2953 641 2809 
L 641 3341 
Q 956 3463 1253 3523 
Q 1550 3584 1831 3584 
Q 2591 3584 2966 3190 
Q 3341 2797 3341 1997 
z
" transform="scale(0.015625)"/>
      <path id="DejaVuSans-69" d="M 603 3500 
L 1178 3500 
L 1178 0 
L 603 0 
L 603 3500 
z
M 603 4863 
L 1178 4863 
L 1178 4134 
L 603 4134 
L 603 4863 
z
" transform="scale(0.015625)"/>
      <path id="DejaVuSans-79" d="M 2059 -325 
Q 1816 -950 1584 -1140 
Q 1353 -1331 966 -1331 
L 506 -1331 
L 506 -850 
L 844 -850 
Q 1081 -850 1212 -737 
Q 1344 -625 1503 -206 
L 1606 56 
L 191 3500 
L 800 3500 
L 1894 763 
L 2988 3500 
L 3597 3500 
L 2059 -325 
z
" transform="scale(0.015625)"/>
      <path id="DejaVuSans-28" d="M 1984 4856 
Q 1566 4138 1362 3434 
Q 1159 2731 1159 2009 
Q 1159 1288 1364 580 
Q 1569 -128 1984 -844 
L 1484 -844 
Q 1016 -109 783 600 
Q 550 1309 550 2009 
Q 550 2706 781 3412 
Q 1013 4119 1484 4856 
L 1984 4856 
z
" transform="scale(0.015625)"/>
      <path id="DejaVuSans-73" d="M 2834 3397 
L 2834 2853 
Q 2591 2978 2328 3040 
Q 2066 3103 1784 3103 
Q 1356 3103 1142 2972 
Q 928 2841 928 2578 
Q 928 2378 1081 2264 
Q 1234 2150 1697 2047 
L 1894 2003 
Q 2506 1872 2764 1633 
Q 3022 1394 3022 966 
Q 3022 478 2636 193 
Q 2250 -91 1575 -91 
Q 1294 -91 989 -36 
Q 684 19 347 128 
L 347 722 
Q 666 556 975 473 
Q 1284 391 1588 391 
Q 1994 391 2212 530 
Q 2431 669 2431 922 
Q 2431 1156 2273 1281 
Q 2116 1406 1581 1522 
L 1381 1569 
Q 847 1681 609 1914 
Q 372 2147 372 2553 
Q 372 3047 722 3315 
Q 1072 3584 1716 3584 
Q 2034 3584 2315 3537 
Q 2597 3491 2834 3397 
z
" transform="scale(0.015625)"/>
      <path id="DejaVuSans-29" d="M 513 4856 
L 1013 4856 
Q 1481 4119 1714 3412 
Q 1947 2706 1947 2009 
Q 1947 1309 1714 600 
Q 1481 -109 1013 -844 
L 513 -844 
Q 928 -128 1133 580 
Q 1338 1288 1338 2009 
Q 1338 2731 1133 3434 
Q 928 4138 513 4856 
z
" transform="scale(0.015625)"/>
     </defs>
     <use xlink:href="#DejaVuSans-5b"/>
     <use xlink:href="#DejaVuSans-34" transform="translate(39.013672 0)"/>
     <use xlink:href="#DejaVuSans-32" transform="translate(102.636719 0)"/>
     <use xlink:href="#DejaVuSans-5d" transform="translate(166.259766 0)"/>
     <use xlink:href="#DejaVuSans-20" transform="translate(205.273438 0)"/>
     <use xlink:href="#DejaVuSans-74" transform="translate(237.060547 0)"/>
     <use xlink:href="#DejaVuSans-47" transform="translate(276.269531 0)"/>
     <use xlink:href="#DejaVuSans-41" transform="translate(353.759766 0)"/>
     <use xlink:href="#DejaVuSans-20" transform="translate(422.167969 0)"/>
     <use xlink:href="#DejaVuSans-20" transform="translate(453.955078 0)"/>
     <use xlink:href="#DejaVuSans-2014" transform="translate(485.742188 0)"/>
     <use xlink:href="#DejaVuSans-20" transform="translate(585.742188 0)"/>
     <use xlink:href="#DejaVuSans-20" transform="translate(617.529297 0)"/>
     <use xlink:href="#DejaVuSans-55" transform="translate(649.316406 0)"/>
     <use xlink:href="#DejaVuSans-6e" transform="translate(722.509766 0)"/>
     <use xlink:href="#DejaVuSans-63" transform="translate(785.888672 0)"/>
     <use xlink:href="#DejaVuSans-65" transform="translate(840.869141 0)"/>
     <use xlink:href="#DejaVuSans-72" transform="translate(902.392578 0)"/>
     <use xlink:href="#DejaVuSans-74" transform="translate(943.505859 0)"/>
     <use xlink:href="#DejaVuSans-61" transform="translate(982.714844 0)"/>
     <use xlink:href="#DejaVuSans-69" transform="translate(1043.994141 0)"/>
     <use xlink:href="#DejaVuSans-6e" transform="translate(1071.777344 0)"/>
     <use xlink:href="#DejaVuSans-74" transform="translate(1135.15625 0)"/>
     <use xlink:href="#DejaVuSans-79" transform="translate(1174.365234 0)"/>
     <use xlink:href="#DejaVuSans-20" transform="translate(1233.544922 0)"/>
     <use xlink:href="#DejaVuSans-28" transform="translate(1265.332031 0)"/>
     <use xlink:href="#DejaVuSans-73" transform="translate(1304.345703 0)"/>
     <use xlink:href="#DejaVuSans-74" transform="translate(1356.445312 0)"/>
     <use xlink:href="#DejaVuSans-64" transform="translate(1395.654297 0)"/>
     <use xlink:href="#DejaVuSans-20" transform="translate(1459.130859 0)"/>
     <use xlink:href="#DejaVuSans-64" transform="translate(1490.917969 0)"/>
     <use xlink:href="#DejaVuSans-65" transform="translate(1554.394531 0)"/>
     <use xlink:href="#DejaVuSans-76" transform="translate(1615.917969 0)"/>
     <use xlink:href="#DejaVuSans-29" transform="translate(1675.097656 0)"/>
    </g>
   </g>
   <g id="legend_1">
    <g id="patch_7">
     <path d="M 738.401562 64.23625 
L 846.2 64.23625 
Q 848.2 64.23625 848.2 62.23625 
L 848.2 33.88 
Q 848.2 31.88 846.2 31.88 
L 738.401562 31.88 
Q 736.401562 31.88 736.401562 33.88 
L 736.401562 62.23625 
Q 736.401562 64.23625 738.401562 64.23625 
z
" style="fill: #ffffff; opacity: 0.8; stroke: #cccccc; stroke-linejoin: miter"/>
    </g>
    <g id="line2d_31">
     <path d="M 740.401562 39.978437 
L 750.401562 39.978437 
L 760.401562 39.978437 
" style="fill: none; stroke: #0000ff; stroke-width: 1.5; stroke-linecap: square"/>
    </g>
    <g id="text_16">
     <!-- No Noise -->
     <g transform="translate(768.401562 43.478437) scale(0.1 -0.1)">
      <defs>
       <path id="DejaVuSans-4e" d="M 628 4666 
L 1478 4666 
L 3547 763 
L 3547 4666 
L 4159 4666 
L 4159 0 
L 3309 0 
L 1241 3903 
L 1241 0 
L 628 0 
L 628 4666 
z
" transform="scale(0.015625)"/>
       <path id="DejaVuSans-6f" d="M 1959 3097 
Q 1497 3097 1228 2736 
Q 959 2375 959 1747 
Q 959 1119 1226 758 
Q 1494 397 1959 397 
Q 2419 397 2687 759 
Q 2956 1122 2956 1747 
Q 2956 2369 2687 2733 
Q 2419 3097 1959 3097 
z
M 1959 3584 
Q 2709 3584 3137 3096 
Q 3566 2609 3566 1747 
Q 3566 888 3137 398 
Q 2709 -91 1959 -91 
Q 1206 -91 779 398 
Q 353 888 353 1747 
Q 353 2609 779 3096 
Q 1206 3584 1959 3584 
z
" transform="scale(0.015625)"/>
      </defs>
      <use xlink:href="#DejaVuSans-4e"/>
      <use xlink:href="#DejaVuSans-6f" transform="translate(74.804688 0)"/>
      <use xlink:href="#DejaVuSans-20" transform="translate(135.986328 0)"/>
      <use xlink:href="#DejaVuSans-4e" transform="translate(167.773438 0)"/>
      <use xlink:href="#DejaVuSans-6f" transform="translate(242.578125 0)"/>
      <use xlink:href="#DejaVuSans-69" transform="translate(303.759766 0)"/>
      <use xlink:href="#DejaVuSans-73" transform="translate(331.542969 0)"/>
      <use xlink:href="#DejaVuSans-65" transform="translate(383.642578 0)"/>
     </g>
    </g>
    <g id="line2d_32">
     <path d="M 740.401562 54.656562 
L 750.401562 54.656562 
L 760.401562 54.656562 
" style="fill: none; stroke-dasharray: 5.55,2.4; stroke-dashoffset: 0; stroke: #ff0000; stroke-width: 1.5"/>
    </g>
    <g id="text_17">
     <!-- With ARW/VRW -->
     <g transform="translate(768.401562 58.156562) scale(0.1 -0.1)">
      <defs>
       <path id="DejaVuSans-57" d="M 213 4666 
L 850 4666 
L 1831 722 
L 2809 4666 
L 3519 4666 
L 4500 722 
L 5478 4666 
L 6119 4666 
L 4947 0 
L 4153 0 
L 3169 4050 
L 2175 0 
L 1381 0 
L 213 4666 
z
" transform="scale(0.015625)"/>
       <path id="DejaVuSans-68" d="M 3513 2113 
L 3513 0 
L 2938 0 
L 2938 2094 
Q 2938 2591 2744 2837 
Q 2550 3084 2163 3084 
Q 1697 3084 1428 2787 
Q 1159 2491 1159 1978 
L 1159 0 
L 581 0 
L 581 4863 
L 1159 4863 
L 1159 2956 
Q 1366 3272 1645 3428 
Q 1925 3584 2291 3584 
Q 2894 3584 3203 3211 
Q 3513 2838 3513 2113 
z
" transform="scale(0.015625)"/>
       <path id="DejaVuSans-52" d="M 2841 2188 
Q 3044 2119 3236 1894 
Q 3428 1669 3622 1275 
L 4263 0 
L 3584 0 
L 2988 1197 
Q 2756 1666 2539 1819 
Q 2322 1972 1947 1972 
L 1259 1972 
L 1259 0 
L 628 0 
L 628 4666 
L 2053 4666 
Q 2853 4666 3247 4331 
Q 3641 3997 3641 3322 
Q 3641 2881 3436 2590 
Q 3231 2300 2841 2188 
z
M 1259 4147 
L 1259 2491 
L 2053 2491 
Q 2509 2491 2742 2702 
Q 2975 2913 2975 3322 
Q 2975 3731 2742 3939 
Q 2509 4147 2053 4147 
L 1259 4147 
z
" transform="scale(0.015625)"/>
       <path id="DejaVuSans-2f" d="M 1625 4666 
L 2156 4666 
L 531 -594 
L 0 -594 
L 1625 4666 
z
" transform="scale(0.015625)"/>
       <path id="DejaVuSans-56" d="M 1831 0 
L 50 4666 
L 709 4666 
L 2188 738 
L 3669 4666 
L 4325 4666 
L 2547 0 
L 1831 0 
z
" transform="scale(0.015625)"/>
      </defs>
      <use xlink:href="#DejaVuSans-57"/>
      <use xlink:href="#DejaVuSans-69" transform="translate(96.626953 0)"/>
      <use xlink:href="#DejaVuSans-74" transform="translate(124.410156 0)"/>
      <use xlink:href="#DejaVuSans-68" transform="translate(163.619141 0)"/>
      <use xlink:href="#DejaVuSans-20" transform="translate(226.998047 0)"/>
      <use xlink:href="#DejaVuSans-41" transform="translate(258.785156 0)"/>
      <use xlink:href="#DejaVuSans-52" transform="translate(327.193359 0)"/>
      <use xlink:href="#DejaVuSans-57" transform="translate(392.675781 0)"/>
      <use xlink:href="#DejaVuSans-2f" transform="translate(491.552734 0)"/>
      <use xlink:href="#DejaVuSans-56" transform="translate(525.244141 0)"/>
      <use xlink:href="#DejaVuSans-52" transform="translate(593.652344 0)"/>
      <use xlink:href="#DejaVuSans-57" transform="translate(659.134766 0)"/>
     </g>
    </g>
   </g>
  </g>
  <g id="axes_2">
   <g id="patch_8">
    <path d="M 68.69 534.04 
L 853.2 534.04 
L 853.2 302.44 
L 68.69 302.44 
z
" style="fill: #ffffff"/>
   </g>
   <g id="matplotlib.axis_3">
    <g id="xtick_8">
     <g id="line2d_33">
      <path d="M 104.349545 534.04 
L 104.349545 302.44 
" clip-path="url(#p3aae20ed90)" style="fill: none; stroke: #b0b0b0; stroke-width: 0.8; stroke-linecap: square"/>
     </g>
     <g id="line2d_34">
      <g>
       <use xlink:href="#mb424fad629" x="104.349545" y="534.04" style="stroke: #000000; stroke-width: 0.8"/>
      </g>
     </g>
     <g id="text_18">
      <!-- 0 -->
      <g transform="translate(101.168295 548.638438) scale(0.1 -0.1)">
       <use xlink:href="#DejaVuSans-30"/>
      </g>
     </g>
    </g>
    <g id="xtick_9">
     <g id="line2d_35">
      <path d="M 225.599275 534.04 
L 225.599275 302.44 
" clip-path="url(#p3aae20ed90)" style="fill: none; stroke: #b0b0b0; stroke-width: 0.8; stroke-linecap: square"/>
     </g>
     <g id="line2d_36">
      <g>
       <use xlink:href="#mb424fad629" x="225.599275" y="534.04" style="stroke: #000000; stroke-width: 0.8"/>
      </g>
     </g>
     <g id="text_19">
      <!-- 50 -->
      <g transform="translate(219.236775 548.638438) scale(0.1 -0.1)">
       <use xlink:href="#DejaVuSans-35"/>
       <use xlink:href="#DejaVuSans-30" transform="translate(63.623047 0)"/>
      </g>
     </g>
    </g>
    <g id="xtick_10">
     <g id="line2d_37">
      <path d="M 346.849005 534.04 
L 346.849005 302.44 
" clip-path="url(#p3aae20ed90)" style="fill: none; stroke: #b0b0b0; stroke-width: 0.8; stroke-linecap: square"/>
     </g>
     <g id="line2d_38">
      <g>
       <use xlink:href="#mb424fad629" x="346.849005" y="534.04" style="stroke: #000000; stroke-width: 0.8"/>
      </g>
     </g>
     <g id="text_20">
      <!-- 100 -->
      <g transform="translate(337.305255 548.638438) scale(0.1 -0.1)">
       <use xlink:href="#DejaVuSans-31"/>
       <use xlink:href="#DejaVuSans-30" transform="translate(63.623047 0)"/>
       <use xlink:href="#DejaVuSans-30" transform="translate(127.246094 0)"/>
      </g>
     </g>
    </g>
    <g id="xtick_11">
     <g id="line2d_39">
      <path d="M 468.098734 534.04 
L 468.098734 302.44 
" clip-path="url(#p3aae20ed90)" style="fill: none; stroke: #b0b0b0; stroke-width: 0.8; stroke-linecap: square"/>
     </g>
     <g id="line2d_40">
      <g>
       <use xlink:href="#mb424fad629" x="468.098734" y="534.04" style="stroke: #000000; stroke-width: 0.8"/>
      </g>
     </g>
     <g id="text_21">
      <!-- 150 -->
      <g transform="translate(458.554984 548.638438) scale(0.1 -0.1)">
       <use xlink:href="#DejaVuSans-31"/>
       <use xlink:href="#DejaVuSans-35" transform="translate(63.623047 0)"/>
       <use xlink:href="#DejaVuSans-30" transform="translate(127.246094 0)"/>
      </g>
     </g>
    </g>
    <g id="xtick_12">
     <g id="line2d_41">
      <path d="M 589.348464 534.04 
L 589.348464 302.44 
" clip-path="url(#p3aae20ed90)" style="fill: none; stroke: #b0b0b0; stroke-width: 0.8; stroke-linecap: square"/>
     </g>
     <g id="line2d_42">
      <g>
       <use xlink:href="#mb424fad629" x="589.348464" y="534.04" style="stroke: #000000; stroke-width: 0.8"/>
      </g>
     </g>
     <g id="text_22">
      <!-- 200 -->
      <g transform="translate(579.804714 548.638438) scale(0.1 -0.1)">
       <use xlink:href="#DejaVuSans-32"/>
       <use xlink:href="#DejaVuSans-30" transform="translate(63.623047 0)"/>
       <use xlink:href="#DejaVuSans-30" transform="translate(127.246094 0)"/>
      </g>
     </g>
    </g>
    <g id="xtick_13">
     <g id="line2d_43">
      <path d="M 710.598193 534.04 
L 710.598193 302.44 
" clip-path="url(#p3aae20ed90)" style="fill: none; stroke: #b0b0b0; stroke-width: 0.8; stroke-linecap: square"/>
     </g>
     <g id="line2d_44">
      <g>
       <use xlink:href="#mb424fad629" x="710.598193" y="534.04" style="stroke: #000000; stroke-width: 0.8"/>
      </g>
     </g>
     <g id="text_23">
      <!-- 250 -->
      <g transform="translate(701.054443 548.638438) scale(0.1 -0.1)">
       <use xlink:href="#DejaVuSans-32"/>
       <use xlink:href="#DejaVuSans-35" transform="translate(63.623047 0)"/>
       <use xlink:href="#DejaVuSans-30" transform="translate(127.246094 0)"/>
      </g>
     </g>
    </g>
    <g id="xtick_14">
     <g id="line2d_45">
      <path d="M 831.847923 534.04 
L 831.847923 302.44 
" clip-path="url(#p3aae20ed90)" style="fill: none; stroke: #b0b0b0; stroke-width: 0.8; stroke-linecap: square"/>
     </g>
     <g id="line2d_46">
      <g>
       <use xlink:href="#mb424fad629" x="831.847923" y="534.04" style="stroke: #000000; stroke-width: 0.8"/>
      </g>
     </g>
     <g id="text_24">
      <!-- 300 -->
      <g transform="translate(822.304173 548.638438) scale(0.1 -0.1)">
       <use xlink:href="#DejaVuSans-33"/>
       <use xlink:href="#DejaVuSans-30" transform="translate(63.623047 0)"/>
       <use xlink:href="#DejaVuSans-30" transform="translate(127.246094 0)"/>
      </g>
     </g>
    </g>
    <g id="text_25">
     <!-- Time (s) -->
     <g transform="translate(440.616094 562.316562) scale(0.1 -0.1)">
      <defs>
       <path id="DejaVuSans-54" d="M -19 4666 
L 3928 4666 
L 3928 4134 
L 2272 4134 
L 2272 0 
L 1638 0 
L 1638 4134 
L -19 4134 
L -19 4666 
z
" transform="scale(0.015625)"/>
       <path id="DejaVuSans-6d" d="M 3328 2828 
Q 3544 3216 3844 3400 
Q 4144 3584 4550 3584 
Q 5097 3584 5394 3201 
Q 5691 2819 5691 2113 
L 5691 0 
L 5113 0 
L 5113 2094 
Q 5113 2597 4934 2840 
Q 4756 3084 4391 3084 
Q 3944 3084 3684 2787 
Q 3425 2491 3425 1978 
L 3425 0 
L 2847 0 
L 2847 2094 
Q 2847 2600 2669 2842 
Q 2491 3084 2119 3084 
Q 1678 3084 1418 2786 
Q 1159 2488 1159 1978 
L 1159 0 
L 581 0 
L 581 3500 
L 1159 3500 
L 1159 2956 
Q 1356 3278 1631 3431 
Q 1906 3584 2284 3584 
Q 2666 3584 2933 3390 
Q 3200 3197 3328 2828 
z
" transform="scale(0.015625)"/>
      </defs>
      <use xlink:href="#DejaVuSans-54"/>
      <use xlink:href="#DejaVuSans-69" transform="translate(57.958984 0)"/>
      <use xlink:href="#DejaVuSans-6d" transform="translate(85.742188 0)"/>
      <use xlink:href="#DejaVuSans-65" transform="translate(183.154297 0)"/>
      <use xlink:href="#DejaVuSans-20" transform="translate(244.677734 0)"/>
      <use xlink:href="#DejaVuSans-28" transform="translate(276.464844 0)"/>
      <use xlink:href="#DejaVuSans-73" transform="translate(315.478516 0)"/>
      <use xlink:href="#DejaVuSans-29" transform="translate(367.578125 0)"/>
     </g>
    </g>
   </g>
   <g id="matplotlib.axis_4">
    <g id="ytick_7">
     <g id="line2d_47">
      <path d="M 68.69 522.930863 
L 853.2 522.930863 
" clip-path="url(#p3aae20ed90)" style="fill: none; stroke: #b0b0b0; stroke-width: 0.8; stroke-linecap: square"/>
     </g>
     <g id="line2d_48">
      <g>
       <use xlink:href="#maf5163d9bf" x="68.69" y="522.930863" style="stroke: #000000; stroke-width: 0.8"/>
      </g>
     </g>
     <g id="text_26">
      <!-- −0.005 -->
      <g transform="translate(24.682187 526.730081) scale(0.1 -0.1)">
       <defs>
        <path id="DejaVuSans-2212" d="M 678 2272 
L 4684 2272 
L 4684 1741 
L 678 1741 
L 678 2272 
z
" transform="scale(0.015625)"/>
       </defs>
       <use xlink:href="#DejaVuSans-2212"/>
       <use xlink:href="#DejaVuSans-30" transform="translate(83.789062 0)"/>
       <use xlink:href="#DejaVuSans-2e" transform="translate(147.412109 0)"/>
       <use xlink:href="#DejaVuSans-30" transform="translate(179.199219 0)"/>
       <use xlink:href="#DejaVuSans-30" transform="translate(242.822266 0)"/>
       <use xlink:href="#DejaVuSans-35" transform="translate(306.445312 0)"/>
      </g>
     </g>
    </g>
    <g id="ytick_8">
     <g id="line2d_49">
      <path d="M 68.69 484.411465 
L 853.2 484.411465 
" clip-path="url(#p3aae20ed90)" style="fill: none; stroke: #b0b0b0; stroke-width: 0.8; stroke-linecap: square"/>
     </g>
     <g id="line2d_50">
      <g>
       <use xlink:href="#maf5163d9bf" x="68.69" y="484.411465" style="stroke: #000000; stroke-width: 0.8"/>
      </g>
     </g>
     <g id="text_27">
      <!-- −0.004 -->
      <g transform="translate(24.682187 488.210684) scale(0.1 -0.1)">
       <use xlink:href="#DejaVuSans-2212"/>
       <use xlink:href="#DejaVuSans-30" transform="translate(83.789062 0)"/>
       <use xlink:href="#DejaVuSans-2e" transform="translate(147.412109 0)"/>
       <use xlink:href="#DejaVuSans-30" transform="translate(179.199219 0)"/>
       <use xlink:href="#DejaVuSans-30" transform="translate(242.822266 0)"/>
       <use xlink:href="#DejaVuSans-34" transform="translate(306.445312 0)"/>
      </g>
     </g>
    </g>
    <g id="ytick_9">
     <g id="line2d_51">
      <path d="M 68.69 445.892067 
L 853.2 445.892067 
" clip-path="url(#p3aae20ed90)" style="fill: none; stroke: #b0b0b0; stroke-width: 0.8; stroke-linecap: square"/>
     </g>
     <g id="line2d_52">
      <g>
       <use xlink:href="#maf5163d9bf" x="68.69" y="445.892067" style="stroke: #000000; stroke-width: 0.8"/>
      </g>
     </g>
     <g id="text_28">
      <!-- −0.003 -->
      <g transform="translate(24.682187 449.691286) scale(0.1 -0.1)">
       <use xlink:href="#DejaVuSans-2212"/>
       <use xlink:href="#DejaVuSans-30" transform="translate(83.789062 0)"/>
       <use xlink:href="#DejaVuSans-2e" transform="translate(147.412109 0)"/>
       <use xlink:href="#DejaVuSans-30" transform="translate(179.199219 0)"/>
       <use xlink:href="#DejaVuSans-30" transform="translate(242.822266 0)"/>
       <use xlink:href="#DejaVuSans-33" transform="translate(306.445312 0)"/>
      </g>
     </g>
    </g>
    <g id="ytick_10">
     <g id="line2d_53">
      <path d="M 68.69 407.372669 
L 853.2 407.372669 
" clip-path="url(#p3aae20ed90)" style="fill: none; stroke: #b0b0b0; stroke-width: 0.8; stroke-linecap: square"/>
     </g>
     <g id="line2d_54">
      <g>
       <use xlink:href="#maf5163d9bf" x="68.69" y="407.372669" style="stroke: #000000; stroke-width: 0.8"/>
      </g>
     </g>
     <g id="text_29">
      <!-- −0.002 -->
      <g transform="translate(24.682187 411.171888) scale(0.1 -0.1)">
       <use xlink:href="#DejaVuSans-2212"/>
       <use xlink:href="#DejaVuSans-30" transform="translate(83.789062 0)"/>
       <use xlink:href="#DejaVuSans-2e" transform="translate(147.412109 0)"/>
       <use xlink:href="#DejaVuSans-30" transform="translate(179.199219 0)"/>
       <use xlink:href="#DejaVuSans-30" transform="translate(242.822266 0)"/>
       <use xlink:href="#DejaVuSans-32" transform="translate(306.445312 0)"/>
      </g>
     </g>
    </g>
    <g id="ytick_11">
     <g id="line2d_55">
      <path d="M 68.69 368.853272 
L 853.2 368.853272 
" clip-path="url(#p3aae20ed90)" style="fill: none; stroke: #b0b0b0; stroke-width: 0.8; stroke-linecap: square"/>
     </g>
     <g id="line2d_56">
      <g>
       <use xlink:href="#maf5163d9bf" x="68.69" y="368.853272" style="stroke: #000000; stroke-width: 0.8"/>
      </g>
     </g>
     <g id="text_30">
      <!-- −0.001 -->
      <g transform="translate(24.682187 372.65249) scale(0.1 -0.1)">
       <use xlink:href="#DejaVuSans-2212"/>
       <use xlink:href="#DejaVuSans-30" transform="translate(83.789062 0)"/>
       <use xlink:href="#DejaVuSans-2e" transform="translate(147.412109 0)"/>
       <use xlink:href="#DejaVuSans-30" transform="translate(179.199219 0)"/>
       <use xlink:href="#DejaVuSans-30" transform="translate(242.822266 0)"/>
       <use xlink:href="#DejaVuSans-31" transform="translate(306.445312 0)"/>
      </g>
     </g>
    </g>
    <g id="ytick_12">
     <g id="line2d_57">
      <path d="M 68.69 330.333874 
L 853.2 330.333874 
" clip-path="url(#p3aae20ed90)" style="fill: none; stroke: #b0b0b0; stroke-width: 0.8; stroke-linecap: square"/>
     </g>
     <g id="line2d_58">
      <g>
       <use xlink:href="#maf5163d9bf" x="68.69" y="330.333874" style="stroke: #000000; stroke-width: 0.8"/>
      </g>
     </g>
     <g id="text_31">
      <!-- 0.000 -->
      <g transform="translate(33.061875 334.133093) scale(0.1 -0.1)">
       <use xlink:href="#DejaVuSans-30"/>
       <use xlink:href="#DejaVuSans-2e" transform="translate(63.623047 0)"/>
       <use xlink:href="#DejaVuSans-30" transform="translate(95.410156 0)"/>
       <use xlink:href="#DejaVuSans-30" transform="translate(159.033203 0)"/>
       <use xlink:href="#DejaVuSans-30" transform="translate(222.65625 0)"/>
      </g>
     </g>
    </g>
    <g id="text_32">
     <!-- Estimated Value -->
     <g transform="translate(18.6025 458.818906) rotate(-90) scale(0.1 -0.1)">
      <defs>
       <path id="DejaVuSans-45" d="M 628 4666 
L 3578 4666 
L 3578 4134 
L 1259 4134 
L 1259 2753 
L 3481 2753 
L 3481 2222 
L 1259 2222 
L 1259 531 
L 3634 531 
L 3634 0 
L 628 0 
L 628 4666 
z
" transform="scale(0.015625)"/>
       <path id="DejaVuSans-6c" d="M 603 4863 
L 1178 4863 
L 1178 0 
L 603 0 
L 603 4863 
z
" transform="scale(0.015625)"/>
       <path id="DejaVuSans-75" d="M 544 1381 
L 544 3500 
L 1119 3500 
L 1119 1403 
Q 1119 906 1312 657 
Q 1506 409 1894 409 
Q 2359 409 2629 706 
Q 2900 1003 2900 1516 
L 2900 3500 
L 3475 3500 
L 3475 0 
L 2900 0 
L 2900 538 
Q 2691 219 2414 64 
Q 2138 -91 1772 -91 
Q 1169 -91 856 284 
Q 544 659 544 1381 
z
M 1991 3584 
L 1991 3584 
z
" transform="scale(0.015625)"/>
      </defs>
      <use xlink:href="#DejaVuSans-45"/>
      <use xlink:href="#DejaVuSans-73" transform="translate(63.183594 0)"/>
      <use xlink:href="#DejaVuSans-74" transform="translate(115.283203 0)"/>
      <use xlink:href="#DejaVuSans-69" transform="translate(154.492188 0)"/>
      <use xlink:href="#DejaVuSans-6d" transform="translate(182.275391 0)"/>
      <use xlink:href="#DejaVuSans-61" transform="translate(279.6875 0)"/>
      <use xlink:href="#DejaVuSans-74" transform="translate(340.966797 0)"/>
      <use xlink:href="#DejaVuSans-65" transform="translate(380.175781 0)"/>
      <use xlink:href="#DejaVuSans-64" transform="translate(441.699219 0)"/>
      <use xlink:href="#DejaVuSans-20" transform="translate(505.175781 0)"/>
      <use xlink:href="#DejaVuSans-56" transform="translate(536.962891 0)"/>
      <use xlink:href="#DejaVuSans-61" transform="translate(597.621094 0)"/>
      <use xlink:href="#DejaVuSans-6c" transform="translate(658.900391 0)"/>
      <use xlink:href="#DejaVuSans-75" transform="translate(686.683594 0)"/>
      <use xlink:href="#DejaVuSans-65" transform="translate(750.0625 0)"/>
     </g>
    </g>
   </g>
   <g id="line2d_59">
    <path d="M 104.349545 330.333874 
L 123.458503 330.335206 
L 123.604003 491.82687 
L 123.798002 498.167869 
L 124.040502 499.202266 
L 124.331501 499.509946 
L 124.865 499.69529 
L 126.125997 499.831607 
L 130.151488 499.968955 
L 140.142466 500.075636 
L 147.465949 500.083959 
L 147.611449 518.991187 
L 147.805449 521.717475 
L 148.047948 522.355405 
L 148.387447 522.577705 
L 149.114946 522.703783 
L 151.248941 522.764549 
L 159.348423 522.732687 
L 159.396923 523.461281 
L 159.493922 523.417209 
L 160.027421 523.093452 
L 160.900419 522.997442 
L 164.537911 522.929605 
L 190.679353 522.807293 
L 219.148789 522.931159 
L 221.331285 522.951479 
L 243.301735 522.907084 
L 244.999232 522.878968 
L 254.408211 523.006323 
L 254.55371 523.512727 
L 255.766208 523.392105 
L 258.918701 523.250287 
L 266.290684 523.173039 
L 266.436184 523.496895 
L 275.311664 523.072923 
L 278.173158 523.070375 
L 278.318657 523.285386 
L 287.194138 523.006188 
L 313.772078 522.752345 
L 313.917578 522.657646 
L 325.654552 522.827114 
L 325.800051 522.601553 
L 328.758545 522.712674 
L 337.246026 522.780279 
L 337.537025 522.780279 
L 337.682525 522.623924 
L 342.047515 522.723037 
L 342.193015 330.333875 
L 361.204972 330.334052 
L 361.253472 330.93908 
L 361.301972 330.738816 
L 361.495972 330.432739 
L 362.32047 330.408717 
L 385.212419 330.399468 
L 385.260919 330.129207 
L 385.309419 330.184061 
L 385.551918 330.494967 
L 386.036917 330.570762 
L 388.946911 330.598653 
L 408.977366 330.54504 
L 409.122866 330.464947 
L 492.15468 330.559529 
L 492.30018 330.622041 
L 579.793985 330.530514 
L 579.939485 330.333868 
L 598.951442 330.333864 
L 598.999942 330.544472 
L 599.145442 330.247018 
L 620.776393 330.243003 
L 622.958889 330.243003 
L 623.007388 330.02012 
L 623.055888 330.286297 
L 623.346888 330.330789 
L 634.841362 330.333989 
L 634.986862 330.278696 
L 636.684358 330.328524 
L 670.391783 330.346679 
L 817.540455 330.352661 
L 817.540455 330.352661 
" clip-path="url(#p3aae20ed90)" style="fill: none; stroke: #0000ff; stroke-width: 1.5; stroke-linecap: square"/>
   </g>
   <g id="line2d_60">
    <path d="M 104.349545 330.333874 
L 110.072533 330.256336 
L 110.654531 330.269146 
L 111.28503 330.296202 
L 112.352028 330.164423 
L 113.031026 330.230353 
L 114.098024 330.174062 
L 116.038019 330.291549 
L 116.620018 330.203904 
L 123.458503 330.108225 
L 123.604003 488.809209 
L 123.749502 492.743473 
L 124.089001 494.352154 
L 124.671 496.148973 
L 125.010499 496.513459 
L 125.107499 496.418291 
L 125.155999 496.465863 
L 125.446998 496.565746 
L 125.834998 496.868982 
L 125.931997 496.955857 
L 125.980497 496.904846 
L 126.319996 496.665945 
L 126.513996 496.574432 
L 126.901995 496.167499 
L 127.241494 496.226021 
L 127.435494 496.255725 
L 127.726493 496.183475 
L 128.308492 496.043034 
L 129.569489 495.885969 
L 130.587987 495.901805 
L 130.830486 495.83336 
L 132.139983 495.802204 
L 133.255481 495.822113 
L 135.098477 495.738502 
L 135.728975 495.681288 
L 138.10547 495.773592 
L 141.257963 495.910577 
L 147.465949 495.891918 
L 147.611449 515.793227 
L 147.902448 519.893896 
L 147.999448 519.977608 
L 148.193448 520.442848 
L 148.338947 520.519652 
L 148.484447 520.440647 
L 148.726946 520.277977 
L 148.920946 520.160878 
L 149.114946 520.263296 
L 149.211945 520.299804 
L 150.909442 521.50181 
L 151.78244 521.648907 
L 152.267439 521.846908 
L 152.558438 521.950839 
L 153.431436 522.055957 
L 154.983433 522.18849 
L 156.00193 522.119378 
L 156.632429 522.132763 
L 159.493922 522.173453 
L 159.639422 521.88485 
L 159.687922 521.940432 
L 159.784922 522.135375 
L 159.833422 522.052956 
L 160.172921 521.61992 
L 160.80342 521.333508 
L 161.530918 521.404075 
L 161.870417 521.416751 
L 165.07141 521.583882 
L 165.653409 521.629896 
L 166.283907 521.671747 
L 171.133896 521.810982 
L 171.230896 521.810982 
L 171.376396 522.887468 
L 172.249394 522.807235 
L 172.879893 522.709215 
L 173.84989 522.639153 
L 174.819888 522.620844 
L 177.535882 522.493692 
L 180.736875 522.452389 
L 183.792368 522.345368 
L 185.247365 522.168295 
L 186.217363 522.121173 
L 186.896361 522.122194 
L 188.157359 522.102085 
L 190.048854 521.998155 
L 191.309851 521.942451 
L 194.995843 521.905787 
L 195.141343 521.767139 
L 200.379331 521.945501 
L 201.882828 521.907985 
L 231.516262 522.189108 
L 232.14676 522.241372 
L 236.075252 522.322542 
L 239.082245 522.391058 
L 249.073223 522.439448 
L 254.408211 522.542018 
L 254.55371 523.395567 
L 256.202707 523.262396 
L 257.851703 523.191923 
L 262.944192 523.029133 
L 266.290684 523.025563 
L 266.436184 523.477019 
L 276.039162 523.053118 
L 278.173158 523.053118 
L 278.318657 522.812379 
L 282.344148 522.963893 
L 290.055631 522.957171 
L 290.201131 523.071325 
L 291.995627 523.116569 
L 294.85712 523.133279 
L 301.938105 523.100886 
L 302.083604 523.201411 
L 302.617103 523.214238 
L 303.150602 523.195527 
L 304.363099 523.124645 
L 305.381597 523.0477 
L 307.515592 522.971107 
L 313.772078 522.909139 
L 313.917578 522.567793 
L 314.936076 522.65309 
L 317.167071 522.729419 
L 328.322046 522.637269 
L 330.74704 522.683807 
L 333.269035 522.737594 
L 337.537025 522.740964 
L 337.682525 522.492416 
L 342.047515 522.617062 
L 342.096015 330.333874 
L 342.193015 330.33544 
L 344.133011 330.333159 
L 348.449501 330.288443 
L 349.419499 330.265061 
L 350.049997 330.251582 
L 351.698994 330.251988 
L 353.44499 330.241169 
L 355.045486 330.206798 
L 356.015484 330.207878 
L 361.204972 330.148476 
L 361.253472 327.057261 
L 361.301972 327.343055 
L 361.398972 328.10166 
L 361.592972 326.484788 
L 361.641472 326.428509 
L 361.689971 326.527631 
L 362.12647 327.763374 
L 362.22347 327.840617 
L 362.659969 328.694833 
L 362.805469 328.659573 
L 362.950969 328.711277 
L 363.581467 329.016559 
L 363.678467 329.096355 
L 363.726967 329.04231 
L 364.066466 328.783682 
L 364.260466 328.682216 
L 364.648465 328.259142 
L 364.987964 328.302556 
L 365.181964 328.324379 
L 365.472963 328.240845 
L 366.054962 328.081175 
L 367.267459 327.879438 
L 367.703958 327.838731 
L 368.043457 327.885229 
L 368.673956 327.806714 
L 374.348443 327.653615 
L 380.45943 327.707139 
L 385.212419 327.712789 
L 385.357919 326.685645 
L 385.406419 326.799659 
L 385.551918 328.334459 
L 385.600418 328.318033 
L 385.697418 328.294666 
L 385.745918 328.278212 
L 385.891417 328.608129 
L 385.939917 328.58875 
L 386.085417 328.60545 
L 386.279417 328.462705 
L 386.812915 328.236219 
L 387.006915 328.298185 
L 387.491914 328.674905 
L 387.782913 328.988575 
L 388.316412 329.347448 
L 388.510412 329.377459 
L 388.752911 329.418896 
L 388.946911 329.457613 
L 389.965408 329.723942 
L 390.304908 329.866927 
L 391.177906 329.974636 
L 392.729902 330.115675 
L 393.7484 330.055707 
L 394.427398 330.076895 
L 397.094892 330.076895 
L 397.240392 329.439051 
L 397.385892 329.266592 
L 397.531391 329.611825 
L 397.579891 329.55206 
L 397.96789 329.186198 
L 398.452889 328.973954 
L 399.325887 329.069692 
L 401.847882 329.208626 
L 402.235881 329.246187 
L 403.011879 329.340091 
L 407.376869 329.552679 
L 408.977366 329.552679 
L 409.122866 330.686905 
L 409.898864 330.606692 
L 410.723362 330.466518 
L 416.591849 330.186929 
L 418.046846 330.158876 
L 420.859839 330.153372 
L 421.005339 330.305108 
L 421.441838 330.212989 
L 422.702835 329.933668 
L 423.672833 329.98882 
L 424.303332 329.924968 
L 425.370329 329.933949 
L 427.261825 329.836579 
L 432.742313 329.71397 
L 432.887813 329.569775 
L 433.809311 329.730386 
L 434.536809 329.744328 
L 469.117232 329.848633 
L 470.135729 329.942172 
L 472.172725 329.983282 
L 473.482222 329.973392 
L 475.422218 330.007962 
L 478.138212 330.011972 
L 484.443198 330.121608 
L 489.826686 330.206941 
L 492.15468 330.206941 
L 492.30018 330.670655 
L 504.037154 330.534843 
L 504.182654 330.783133 
L 515.919627 330.685638 
L 516.065127 330.302585 
L 520.381617 330.625478 
L 529.111598 330.771742 
L 530.906094 330.839123 
L 539.684574 330.832685 
L 539.830074 330.939713 
L 540.363573 330.960707 
L 540.897072 330.956067 
L 542.158069 330.918039 
L 550.79105 330.798723 
L 551.518548 330.798723 
L 551.664048 330.552842 
L 553.167544 330.623482 
L 556.902036 330.630196 
L 563.401021 330.596897 
L 563.546521 330.679377 
L 566.408015 330.57254 
L 568.833009 330.590067 
L 579.793985 330.54468 
L 579.890985 330.334156 
L 579.939485 330.370939 
L 580.230484 331.516583 
L 580.472983 332.457079 
L 580.763983 331.593198 
L 580.957982 332.455084 
L 581.006482 332.442489 
L 581.103482 332.139601 
L 581.200482 332.288893 
L 581.588481 333.917207 
L 581.636981 333.862441 
L 581.78248 331.253492 
L 581.92798 330.283195 
L 582.02498 330.356518 
L 582.07348 330.840978 
L 582.12198 330.537632 
L 582.17048 330.50487 
L 582.267479 330.826789 
L 582.315979 331.270632 
L 582.364479 331.043722 
L 582.412979 331.087517 
L 582.800978 328.940535 
L 582.849478 329.154814 
L 582.897978 329.374341 
L 583.091978 328.25168 
L 583.188977 328.542312 
L 583.237477 328.466887 
L 583.334477 329.500833 
L 583.382977 329.39043 
L 583.431477 329.322734 
L 583.479977 329.449883 
L 583.576976 328.930868 
L 583.625476 328.95915 
L 583.722476 329.342265 
L 583.770976 329.332512 
L 583.867976 329.270825 
L 584.013475 328.7882 
L 584.061975 329.089612 
L 584.158975 329.241059 
L 584.207475 329.068613 
L 584.401475 327.289712 
L 584.449974 327.030006 
L 584.546974 328.248155 
L 584.595474 327.98546 
L 584.789474 328.40267 
L 584.886474 327.646237 
L 584.934973 328.130977 
L 585.128973 327.587204 
L 585.177473 328.106653 
L 585.274473 327.979287 
L 585.322973 327.864222 
L 585.371472 328.015533 
L 585.468472 327.685082 
L 585.759472 325.663272 
L 585.807971 325.791296 
L 585.904971 325.210769 
L 585.953471 325.356529 
L 586.001971 325.7603 
L 586.050471 325.248829 
L 586.098971 325.150714 
L 586.38997 326.734668 
L 586.43847 326.674186 
L 586.48697 326.424815 
L 586.53547 326.657898 
L 586.68097 327.01563 
L 586.729469 327.407367 
L 586.777969 326.905449 
L 587.020469 325.143415 
L 587.117469 325.464766 
L 587.359968 323.823894 
L 587.456968 323.980328 
L 587.553968 324.422367 
L 587.602467 324.348711 
L 587.699467 324.077668 
L 588.038966 327.236082 
L 588.184466 327.648216 
L 588.232966 327.621675 
L 588.281466 327.543556 
L 588.426966 327.858816 
L 588.669465 326.376232 
L 588.717965 326.288079 
L 588.766465 326.656424 
L 588.814965 326.528411 
L 589.008964 325.793528 
L 589.105964 325.589667 
L 589.202964 325.262374 
L 589.348464 325.886085 
L 589.396963 325.76416 
L 589.639463 324.265887 
L 589.881962 321.964735 
L 589.930462 322.142738 
L 590.075962 322.659159 
L 590.172962 322.326218 
L 590.318461 322.887617 
L 590.512461 322.039112 
L 590.609461 321.066583 
L 590.657961 321.105944 
L 590.90046 320.297217 
L 591.09446 318.163079 
L 591.14296 318.353261 
L 591.288459 319.308394 
L 591.336959 319.149268 
L 591.433959 319.576445 
L 591.482459 319.429894 
L 591.870458 317.243449 
L 591.918958 317.271115 
L 591.967458 317.01367 
L 592.015958 317.190498 
L 592.064458 317.328067 
L 592.112957 317.266142 
L 592.161457 316.638247 
L 592.258457 316.771452 
L 592.403957 317.076756 
L 592.452457 317.407459 
L 592.500957 317.364631 
L 592.597956 316.693758 
L 592.646456 316.723938 
L 592.694956 316.819187 
L 592.743456 316.674161 
L 592.791956 316.664511 
L 592.937456 316.143794 
L 592.985955 316.356029 
L 593.082955 316.317199 
L 593.179955 316.320603 
L 593.325455 315.908239 
L 593.373955 316.032261 
L 593.422454 316.028275 
L 593.519454 315.332669 
L 593.567954 315.449746 
L 593.907453 317.144681 
L 594.004453 316.143703 
L 594.149953 314.702997 
L 594.246953 314.822084 
L 594.295453 314.521506 
L 594.343952 314.83658 
L 594.731952 316.524246 
L 594.974451 315.810474 
L 595.119951 315.922645 
L 595.21695 316.173924 
L 595.26545 316.07148 
L 595.41095 315.539 
L 595.45945 315.697395 
L 595.798949 313.522074 
L 595.895949 313.627966 
L 595.992949 313.76746 
L 596.041449 313.730795 
L 596.138448 313.732173 
L 596.477948 312.967273 
L 598.951442 312.967273 
L 599.096942 325.866158 
L 599.193942 324.205351 
L 599.339441 323.027107 
L 599.436441 322.906598 
L 599.484941 322.948576 
L 599.678941 323.559072 
L 599.87294 324.174339 
L 599.96994 324.189217 
L 600.260939 325.184801 
L 600.406439 325.067202 
L 600.503439 325.020614 
L 600.551939 324.738393 
L 600.600438 324.900318 
L 600.697438 325.287218 
L 600.745938 325.24108 
L 600.891438 325.259835 
L 600.988438 325.3911 
L 601.036937 325.319527 
L 601.230937 325.332964 
L 601.279437 325.109337 
L 601.327937 325.389624 
L 601.521936 326.033188 
L 601.618936 325.94739 
L 601.667436 325.994453 
L 601.812936 325.68957 
L 601.958435 325.759494 
L 602.152435 324.680323 
L 602.394934 325.525483 
L 602.443434 325.300991 
L 602.491934 325.333584 
L 602.637434 325.396429 
L 602.685934 325.163564 
L 602.734434 325.952172 
L 602.831433 325.904552 
L 602.976933 325.883695 
L 603.122433 325.420094 
L 603.170933 325.432054 
L 603.413432 326.156025 
L 603.510432 325.937737 
L 603.558932 325.820141 
L 603.607432 325.848711 
L 603.655932 325.974522 
L 603.704432 325.849798 
L 603.801431 325.84802 
L 603.849931 325.63147 
L 603.898431 325.852467 
L 604.18943 326.274458 
L 604.28643 325.744693 
L 604.33493 325.838142 
L 604.38343 325.794344 
L 604.43193 325.994475 
L 604.48043 325.857922 
L 604.625929 325.854267 
L 604.722929 325.66251 
L 604.868429 325.714726 
L 605.159428 325.808656 
L 605.207928 325.627258 
L 605.304928 325.65502 
L 605.450428 325.736208 
L 605.547427 325.746025 
L 605.644427 326.050306 
L 605.692927 325.990172 
L 605.741427 325.796538 
L 605.789927 325.894356 
L 605.983926 325.8987 
L 606.032426 325.903287 
L 606.080926 326.282594 
L 606.177926 325.305855 
L 606.226426 325.407881 
L 606.371926 325.461404 
L 606.517425 325.532388 
L 606.759925 325.877897 
L 606.808425 325.831214 
L 606.856925 325.920365 
L 607.002424 326.382488 
L 607.099424 326.253752 
L 607.147924 326.282602 
L 607.244924 325.878075 
L 607.293424 326.038418 
L 607.390423 326.160601 
L 607.438923 325.976987 
L 607.487423 326.09723 
L 607.923922 325.791879 
L 608.069422 325.470028 
L 608.214921 325.680514 
L 608.311921 325.675261 
L 608.505921 326.048836 
L 608.554421 326.023378 
L 608.69992 325.515596 
L 608.99092 326.132321 
L 609.136419 325.87773 
L 609.184919 325.911919 
L 609.378919 325.930933 
L 609.427419 325.670454 
L 609.572918 326.415523 
L 609.621418 326.409346 
L 609.766918 326.176165 
L 610.057917 326.290594 
L 610.251917 326.768065 
L 610.348917 326.806012 
L 610.397417 326.702478 
L 610.445917 326.902033 
L 610.494416 326.819678 
L 610.542916 326.480054 
L 610.639916 328.382933 
L 610.688416 328.00629 
L 610.736916 327.978068 
L 610.833916 327.741679 
L 610.930915 327.913986 
L 611.124915 327.622024 
L 611.415914 327.46482 
L 611.464414 327.558057 
L 611.561414 327.908463 
L 611.609914 327.893122 
L 611.658414 327.714567 
L 611.755414 328.311827 
L 611.803913 328.243317 
L 611.852413 328.247187 
L 611.900913 328.125172 
L 612.094913 328.827846 
L 612.143413 328.764591 
L 612.191913 328.848043 
L 612.337412 328.974848 
L 612.434412 329.035126 
L 612.579912 328.815108 
L 612.676912 329.042875 
L 612.870911 328.709383 
L 612.919411 328.767956 
L 613.064911 328.8868 
L 613.25891 328.738916 
L 613.45291 328.677617 
L 613.840909 328.399019 
L 613.889409 328.235497 
L 614.083408 329.006132 
L 614.374408 329.046867 
L 614.519907 328.932744 
L 614.665407 329.460392 
L 614.810907 328.910134 
L 614.859407 328.977527 
L 614.956406 329.105562 
L 615.004906 328.997852 
L 615.053406 329.107191 
L 615.101906 329.127692 
L 615.150406 328.917289 
L 615.198906 328.947954 
L 615.392905 329.438821 
L 615.441405 329.247524 
L 615.489905 329.312454 
L 615.538405 329.657094 
L 615.635405 329.633784 
L 615.732405 328.977877 
L 615.780905 329.413665 
L 615.877904 329.588187 
L 615.974904 329.349662 
L 616.120404 329.531336 
L 616.168904 329.371281 
L 616.217404 329.419526 
L 616.314403 329.533111 
L 616.362903 329.504389 
L 616.459903 329.001687 
L 616.508403 329.049903 
L 616.556903 329.037588 
L 616.799402 329.417703 
L 616.993402 329.496974 
L 617.090402 329.340482 
L 617.187401 329.653775 
L 617.235901 329.576273 
L 617.429901 329.417206 
L 617.526901 328.895219 
L 617.6239 328.930891 
L 617.6724 328.96489 
L 617.7209 329.357481 
L 617.7694 329.096071 
L 617.8179 329.128251 
L 617.8664 329.4037 
L 617.9634 329.352121 
L 618.351399 329.283176 
L 618.496899 329.061156 
L 618.642398 329.040597 
L 618.836398 329.572576 
L 618.884898 329.665473 
L 618.933398 329.528807 
L 619.030397 329.431285 
L 619.078897 329.46402 
L 619.321397 329.371823 
L 619.515396 329.576262 
L 619.806396 329.39966 
L 620.000395 329.122224 
L 620.097395 329.333555 
L 620.242895 328.828832 
L 620.291395 328.906442 
L 622.958889 328.906442 
L 623.104388 326.163764 
L 623.152888 326.447955 
L 623.298388 328.281897 
L 623.492387 327.984055 
L 623.637887 328.277697 
L 624.462385 327.744042 
L 625.044384 327.977505 
L 625.238384 328.218843 
L 625.529383 328.528509 
L 626.062882 328.881365 
L 626.256881 328.909791 
L 626.499381 328.948904 
L 626.69338 328.986216 
L 627.711878 329.23627 
L 628.051377 329.37751 
L 629.263875 329.522007 
L 629.797373 329.648909 
L 631.20387 329.591275 
L 632.367868 329.572606 
L 634.841362 329.572606 
L 635.035362 329.001177 
L 635.132361 328.918218 
L 635.180861 329.026243 
L 635.277861 329.311214 
L 635.326361 329.24347 
L 635.66586 328.875219 
L 636.296359 328.638592 
L 636.975357 328.762783 
L 637.266357 328.76409 
L 637.848355 328.807657 
L 638.139355 328.782386 
L 638.527354 328.740162 
L 639.012353 328.792204 
L 643.280343 329.186539 
L 645.947837 329.20499 
L 646.723836 329.20499 
L 646.869335 330.042228 
L 647.936333 329.859877 
L 648.372832 329.815002 
L 648.954831 329.774557 
L 650.991826 329.721107 
L 652.107324 329.667952 
L 654.677818 329.62781 
L 659.382307 329.518543 
L 660.206806 329.333721 
L 660.643305 329.366413 
L 661.225303 329.409906 
L 664.765795 329.256149 
L 669.227785 329.142551 
L 671.361781 329.253518 
L 672.089279 329.282092 
L 682.419756 329.207937 
L 682.759255 329.231555 
L 694.25373 329.253951 
L 694.496229 329.42171 
L 696.775724 329.455953 
L 705.748204 329.468818 
L 706.524202 329.576236 
L 709.046197 329.78335 
L 712.780688 329.814411 
L 725.34216 329.941408 
L 728.688653 329.990007 
L 729.90115 329.990007 
L 730.04665 330.60541 
L 734.60564 330.520199 
L 738.388631 330.434959 
L 741.783624 330.435454 
L 741.929123 330.834135 
L 752.5021 330.593006 
L 753.666097 330.593006 
L 753.811597 330.260203 
L 757.643088 330.512887 
L 760.407582 330.494279 
L 766.664068 330.565086 
L 768.458564 330.657887 
L 777.431044 330.663054 
L 777.576544 330.778751 
L 778.061543 330.764984 
L 778.692041 330.747334 
L 779.32254 330.705906 
L 782.426533 330.598795 
L 789.265018 330.572383 
L 789.410517 330.382067 
L 791.156513 330.468958 
L 803.184487 330.455041 
L 807.355477 330.413869 
L 810.847469 330.409785 
L 817.540455 330.337632 
L 817.540455 330.337632 
" clip-path="url(#p3aae20ed90)" style="fill: none; stroke-dasharray: 5.55,2.4; stroke-dashoffset: 0; stroke: #ff0000; stroke-width: 1.5"/>
   </g>
   <g id="line2d_61">
    <path d="M 342.096015 534.04 
L 342.096015 302.44 
" clip-path="url(#p3aae20ed90)" style="fill: none; stroke-dasharray: 1.5,2.475; stroke-dashoffset: 0; stroke: #808080; stroke-opacity: 0.6; stroke-width: 1.5"/>
   </g>
   <g id="line2d_62">
    <path d="M 579.842485 534.04 
L 579.842485 302.44 
" clip-path="url(#p3aae20ed90)" style="fill: none; stroke-dasharray: 1.5,2.475; stroke-dashoffset: 0; stroke: #808080; stroke-opacity: 0.6; stroke-width: 1.5"/>
   </g>
   <g id="patch_9">
    <path d="M 68.69 534.04 
L 68.69 302.44 
" style="fill: none; stroke: #000000; stroke-width: 0.8; stroke-linejoin: miter; stroke-linecap: square"/>
   </g>
   <g id="patch_10">
    <path d="M 853.2 534.04 
L 853.2 302.44 
" style="fill: none; stroke: #000000; stroke-width: 0.8; stroke-linejoin: miter; stroke-linecap: square"/>
   </g>
   <g id="patch_11">
    <path d="M 68.69 534.04 
L 853.2 534.04 
" style="fill: none; stroke: #000000; stroke-width: 0.8; stroke-linejoin: miter; stroke-linecap: square"/>
   </g>
   <g id="patch_12">
    <path d="M 68.69 302.44 
L 853.2 302.44 
" style="fill: none; stroke: #000000; stroke-width: 0.8; stroke-linejoin: miter; stroke-linecap: square"/>
   </g>
   <g id="text_33">
    <!-- [42] tGA  —  State Estimate -->
    <g transform="translate(377.697812 296.44) scale(0.12 -0.12)">
     <use xlink:href="#DejaVuSans-5b"/>
     <use xlink:href="#DejaVuSans-34" transform="translate(39.013672 0)"/>
     <use xlink:href="#DejaVuSans-32" transform="translate(102.636719 0)"/>
     <use xlink:href="#DejaVuSans-5d" transform="translate(166.259766 0)"/>
     <use xlink:href="#DejaVuSans-20" transform="translate(205.273438 0)"/>
     <use xlink:href="#DejaVuSans-74" transform="translate(237.060547 0)"/>
     <use xlink:href="#DejaVuSans-47" transform="translate(276.269531 0)"/>
     <use xlink:href="#DejaVuSans-41" transform="translate(353.759766 0)"/>
     <use xlink:href="#DejaVuSans-20" transform="translate(422.167969 0)"/>
     <use xlink:href="#DejaVuSans-20" transform="translate(453.955078 0)"/>
     <use xlink:href="#DejaVuSans-2014" transform="translate(485.742188 0)"/>
     <use xlink:href="#DejaVuSans-20" transform="translate(585.742188 0)"/>
     <use xlink:href="#DejaVuSans-20" transform="translate(617.529297 0)"/>
     <use xlink:href="#DejaVuSans-53" transform="translate(649.316406 0)"/>
     <use xlink:href="#DejaVuSans-74" transform="translate(712.792969 0)"/>
     <use xlink:href="#DejaVuSans-61" transform="translate(752.001953 0)"/>
     <use xlink:href="#DejaVuSans-74" transform="translate(813.28125 0)"/>
     <use xlink:href="#DejaVuSans-65" transform="translate(852.490234 0)"/>
     <use xlink:href="#DejaVuSans-20" transform="translate(914.013672 0)"/>
     <use xlink:href="#DejaVuSans-45" transform="translate(945.800781 0)"/>
     <use xlink:href="#DejaVuSans-73" transform="translate(1008.984375 0)"/>
     <use xlink:href="#DejaVuSans-74" transform="translate(1061.083984 0)"/>
     <use xlink:href="#DejaVuSans-69" transform="translate(1100.292969 0)"/>
     <use xlink:href="#DejaVuSans-6d" transform="translate(1128.076172 0)"/>
     <use xlink:href="#DejaVuSans-61" transform="translate(1225.488281 0)"/>
     <use xlink:href="#DejaVuSans-74" transform="translate(1286.767578 0)"/>
     <use xlink:href="#DejaVuSans-65" transform="translate(1325.976562 0)"/>
    </g>
   </g>
   <g id="legend_2">
    <g id="patch_13">
     <path d="M 738.401562 529.04 
L 846.2 529.04 
Q 848.2 529.04 848.2 527.04 
L 848.2 498.68375 
Q 848.2 496.68375 846.2 496.68375 
L 738.401562 496.68375 
Q 736.401562 496.68375 736.401562 498.68375 
L 736.401562 527.04 
Q 736.401562 529.04 738.401562 529.04 
z
" style="fill: #ffffff; opacity: 0.8; stroke: #cccccc; stroke-linejoin: miter"/>
    </g>
    <g id="line2d_63">
     <path d="M 740.401562 504.782187 
L 750.401562 504.782187 
L 760.401562 504.782187 
" style="fill: none; stroke: #0000ff; stroke-width: 1.5; stroke-linecap: square"/>
    </g>
    <g id="text_34">
     <!-- No Noise -->
     <g transform="translate(768.401562 508.282187) scale(0.1 -0.1)">
      <use xlink:href="#DejaVuSans-4e"/>
      <use xlink:href="#DejaVuSans-6f" transform="translate(74.804688 0)"/>
      <use xlink:href="#DejaVuSans-20" transform="translate(135.986328 0)"/>
      <use xlink:href="#DejaVuSans-4e" transform="translate(167.773438 0)"/>
      <use xlink:href="#DejaVuSans-6f" transform="translate(242.578125 0)"/>
      <use xlink:href="#DejaVuSans-69" transform="translate(303.759766 0)"/>
      <use xlink:href="#DejaVuSans-73" transform="translate(331.542969 0)"/>
      <use xlink:href="#DejaVuSans-65" transform="translate(383.642578 0)"/>
     </g>
    </g>
    <g id="line2d_64">
     <path d="M 740.401562 519.460312 
L 750.401562 519.460312 
L 760.401562 519.460312 
" style="fill: none; stroke-dasharray: 5.55,2.4; stroke-dashoffset: 0; stroke: #ff0000; stroke-width: 1.5"/>
    </g>
    <g id="text_35">
     <!-- With ARW/VRW -->
     <g transform="translate(768.401562 522.960312) scale(0.1 -0.1)">
      <use xlink:href="#DejaVuSans-57"/>
      <use xlink:href="#DejaVuSans-69" transform="translate(96.626953 0)"/>
      <use xlink:href="#DejaVuSans-74" transform="translate(124.410156 0)"/>
      <use xlink:href="#DejaVuSans-68" transform="translate(163.619141 0)"/>
      <use xlink:href="#DejaVuSans-20" transform="translate(226.998047 0)"/>
      <use xlink:href="#DejaVuSans-41" transform="translate(258.785156 0)"/>
      <use xlink:href="#DejaVuSans-52" transform="translate(327.193359 0)"/>
      <use xlink:href="#DejaVuSans-57" transform="translate(392.675781 0)"/>
      <use xlink:href="#DejaVuSans-2f" transform="translate(491.552734 0)"/>
      <use xlink:href="#DejaVuSans-56" transform="translate(525.244141 0)"/>
      <use xlink:href="#DejaVuSans-52" transform="translate(593.652344 0)"/>
      <use xlink:href="#DejaVuSans-57" transform="translate(659.134766 0)"/>
     </g>
    </g>
   </g>
  </g>
 </g>
 <defs>
  <clipPath id="pe269830ca5">
   <rect x="68.69" y="26.88" width="784.51" height="231.6"/>
  </clipPath>
  <clipPath id="p3aae20ed90">
   <rect x="68.69" y="302.44" width="784.51" height="231.6"/>
  </clipPath>
 </defs>
</svg>
