<?xml version="1.0" encoding="utf-8" standalone="no"?>
<!DOCTYPE svg PUBLIC "-//W3C//DTD SVG 1.1//EN"
  "http://www.w3.org/Graphics/SVG/1.1/DTD/svg11.dtd">
<svg xmlns:xlink="http://www.w3.org/1999/xlink" width="1584pt" height="576pt" viewBox="0 0 1584 576" xmlns="http://www.w3.org/2000/svg" version="1.1">
 <metadata>
  <rdf:RDF xmlns:dc="http://purl.org/dc/elements/1.1/" xmlns:cc="http://creativecommons.org/ns#" xmlns:rdf="http://www.w3.org/1999/02/22-rdf-syntax-ns#">
   <cc:Work>
    <dc:type rdf:resource="http://purl.org/dc/dcmitype/StillImage"/>
    <dc:date>2026-03-09T19:21:53.588278</dc:date>
    <dc:format>image/svg+xml</dc:format>
    <dc:creator>
     <cc:Agent>
      <dc:title>Matplotlib v3.10.8, https://matplotlib.org/</dc:title>
     </cc:Agent>
    </dc:creator>
   </cc:Work>
  </rdf:RDF>
 </metadata>
 <defs>
  <style type="text/css">*{stroke-linejoin: round; stroke-linecap: butt}</style>
 </defs>
 <g id="figure_1">
  <g id="patch_1">
   <path d="M 0 576 
L 1584 576 
L 1584 0 
L 0 0 
z
" style="fill: #ffffff"/>
  </g>
  <g id="axes_1">
   <g id="patch_2">
    <path d="M 55.772054 532.09185 
L 1573.2 532.09185 
L 1573.2 26.88 
L 55.772054 26.88 
z
" style="fill: #ffffff"/>
   </g>
   <g id="patch_3">
    <path d="M 124.746051 124865.186301 
L 133.440253 124865.186301 
L 133.440253 138.501628 
L 124.746051 138.501628 
z
" clip-path="url(#p61a667eeb1)" style="fill: #4682b4; opacity: 0.85"/>
   </g>
   <g id="patch_4">
    <path d="M 171.115125 124865.186301 
L 179.809327 124865.186301 
L 179.809327 181.914973 
L 171.115125 181.914973 
z
" clip-path="url(#p61a667eeb1)" style="fill: #4682b4; opacity: 0.85"/>
   </g>
   <g id="patch_5">
    <path d="M 217.484199 124865.186301 
L 226.178401 124865.186301 
L 226.178401 243.320653 
L 217.484199 243.320653 
z
" clip-path="url(#p61a667eeb1)" style="fill: #4682b4; opacity: 0.85"/>
   </g>
   <g id="patch_6">
    <path d="M 263.853273 124865.186301 
L 272.547475 124865.186301 
L 272.547475 407.409134 
L 263.853273 407.409134 
z
" clip-path="url(#p61a667eeb1)" style="fill: #4682b4; opacity: 0.85"/>
   </g>
   <g id="patch_7">
    <path d="M 310.222347 124865.186301 
L 318.916549 124865.186301 
L 318.916549 441.650908 
L 310.222347 441.650908 
z
" clip-path="url(#p61a667eeb1)" style="fill: #4682b4; opacity: 0.85"/>
   </g>
   <g id="patch_8">
    <path d="M 356.591421 124865.186301 
L 365.285623 124865.186301 
L 365.285623 504.835316 
L 356.591421 504.835316 
z
" clip-path="url(#p61a667eeb1)" style="fill: #4682b4; opacity: 0.85"/>
   </g>
   <g id="patch_9">
    <path d="M 402.960495 124865.186301 
L 411.654697 124865.186301 
L 411.654697 390.724995 
L 402.960495 390.724995 
z
" clip-path="url(#p61a667eeb1)" style="fill: #4682b4; opacity: 0.85"/>
   </g>
   <g id="patch_10">
    <path d="M 449.329569 124865.186301 
L 458.023771 124865.186301 
L 458.023771 380.607113 
L 449.329569 380.607113 
z
" clip-path="url(#p61a667eeb1)" style="fill: #4682b4; opacity: 0.85"/>
   </g>
   <g id="patch_11">
    <path d="M 495.698643 124865.186301 
L 504.392845 124865.186301 
L 504.392845 439.116353 
L 495.698643 439.116353 
z
" clip-path="url(#p61a667eeb1)" style="fill: #4682b4; opacity: 0.85"/>
   </g>
   <g id="patch_12">
    <path d="M 542.067717 124865.186301 
L 550.761919 124865.186301 
L 550.761919 305.321905 
L 542.067717 305.321905 
z
" clip-path="url(#p61a667eeb1)" style="fill: #4682b4; opacity: 0.85"/>
   </g>
   <g id="patch_13">
    <path d="M 588.436791 124865.186301 
L 597.130993 124865.186301 
L 597.130993 437.348429 
L 588.436791 437.348429 
z
" clip-path="url(#p61a667eeb1)" style="fill: #4682b4; opacity: 0.85"/>
   </g>
   <g id="patch_14">
    <path d="M 634.805865 124865.186301 
L 643.500067 124865.186301 
L 643.500067 417.918014 
L 634.805865 417.918014 
z
" clip-path="url(#p61a667eeb1)" style="fill: #4682b4; opacity: 0.85"/>
   </g>
   <g id="patch_15">
    <path d="M 681.174939 124865.186301 
L 689.869141 124865.186301 
L 689.869141 394.983161 
L 681.174939 394.983161 
z
" clip-path="url(#p61a667eeb1)" style="fill: #4682b4; opacity: 0.85"/>
   </g>
   <g id="patch_16">
    <path d="M 727.544013 124865.186301 
L 736.238215 124865.186301 
L 736.238215 427.415646 
L 727.544013 427.415646 
z
" clip-path="url(#p61a667eeb1)" style="fill: #4682b4; opacity: 0.85"/>
   </g>
   <g id="patch_17">
    <path d="M 773.913087 124865.186301 
L 782.607289 124865.186301 
L 782.607289 447.196524 
L 773.913087 447.196524 
z
" clip-path="url(#p61a667eeb1)" style="fill: #4682b4; opacity: 0.85"/>
   </g>
   <g id="patch_18">
    <path d="M 820.282161 124865.186301 
L 828.976363 124865.186301 
L 828.976363 245.872643 
L 820.282161 245.872643 
z
" clip-path="url(#p61a667eeb1)" style="fill: #4682b4; opacity: 0.85"/>
   </g>
   <g id="patch_19">
    <path d="M 866.651235 124865.186301 
L 875.345437 124865.186301 
L 875.345437 316.711944 
L 866.651235 316.711944 
z
" clip-path="url(#p61a667eeb1)" style="fill: #4682b4; opacity: 0.85"/>
   </g>
   <g id="patch_20">
    <path d="M 913.020309 124865.186301 
L 921.714511 124865.186301 
L 921.714511 405.184538 
L 913.020309 405.184538 
z
" clip-path="url(#p61a667eeb1)" style="fill: #4682b4; opacity: 0.85"/>
   </g>
   <g id="patch_21">
    <path d="M 959.389383 124865.186301 
L 968.083585 124865.186301 
L 968.083585 275.002386 
L 959.389383 275.002386 
z
" clip-path="url(#p61a667eeb1)" style="fill: #4682b4; opacity: 0.85"/>
   </g>
   <g id="patch_22">
    <path d="M 1005.758457 124865.186301 
L 1014.452659 124865.186301 
L 1014.452659 509.127675 
L 1005.758457 509.127675 
z
" clip-path="url(#p61a667eeb1)" style="fill: #4682b4; opacity: 0.85"/>
   </g>
   <g id="patch_23">
    <path d="M 1052.127531 124865.186301 
L 1060.821732 124865.186301 
L 1060.821732 302.859559 
L 1052.127531 302.859559 
z
" clip-path="url(#p61a667eeb1)" style="fill: #4682b4; opacity: 0.85"/>
   </g>
   <g id="patch_24">
    <path d="M 1098.496605 124865.186301 
L 1107.190806 124865.186301 
L 1107.190806 295.85263 
L 1098.496605 295.85263 
z
" clip-path="url(#p61a667eeb1)" style="fill: #4682b4; opacity: 0.85"/>
   </g>
   <g id="patch_25">
    <path d="M 1144.865679 124865.186301 
L 1153.55988 124865.186301 
L 1153.55988 293.344851 
L 1144.865679 293.344851 
z
" clip-path="url(#p61a667eeb1)" style="fill: #4682b4; opacity: 0.85"/>
   </g>
   <g id="patch_26">
    <path d="M 1191.234753 124865.186301 
L 1199.928954 124865.186301 
L 1199.928954 498.646807 
L 1191.234753 498.646807 
z
" clip-path="url(#p61a667eeb1)" style="fill: #4682b4; opacity: 0.85"/>
   </g>
   <g id="patch_27">
    <path d="M 1237.603827 124865.186301 
L 1246.298028 124865.186301 
L 1246.298028 287.426979 
L 1237.603827 287.426979 
z
" clip-path="url(#p61a667eeb1)" style="fill: #4682b4; opacity: 0.85"/>
   </g>
   <g id="patch_28">
    <path d="M 1283.972901 124865.186301 
L 1292.667102 124865.186301 
L 1292.667102 270.754812 
L 1283.972901 270.754812 
z
" clip-path="url(#p61a667eeb1)" style="fill: #4682b4; opacity: 0.85"/>
   </g>
   <g id="patch_29">
    <path d="M 1330.341975 124865.186301 
L 1339.036176 124865.186301 
L 1339.036176 338.664159 
L 1330.341975 338.664159 
z
" clip-path="url(#p61a667eeb1)" style="fill: #4682b4; opacity: 0.85"/>
   </g>
   <g id="patch_30">
    <path d="M 1376.711049 124865.186301 
L 1385.40525 124865.186301 
L 1385.40525 435.993276 
L 1376.711049 435.993276 
z
" clip-path="url(#p61a667eeb1)" style="fill: #4682b4; opacity: 0.85"/>
   </g>
   <g id="patch_31">
    <path d="M 1423.080123 124865.186301 
L 1431.774324 124865.186301 
L 1431.774324 364.272883 
L 1423.080123 364.272883 
z
" clip-path="url(#p61a667eeb1)" style="fill: #4682b4; opacity: 0.85"/>
   </g>
   <g id="patch_32">
    <path d="M 1469.449197 124865.186301 
L 1478.143398 124865.186301 
L 1478.143398 376.125145 
L 1469.449197 376.125145 
z
" clip-path="url(#p61a667eeb1)" style="fill: #4682b4; opacity: 0.85"/>
   </g>
   <g id="patch_33">
    <path d="M 133.440253 124865.186301 
L 142.134454 124865.186301 
L 142.134454 168.07017 
L 133.440253 168.07017 
z
" clip-path="url(#p61a667eeb1)" style="fill: #ff6347; opacity: 0.85"/>
   </g>
   <g id="patch_34">
    <path d="M 179.809327 124865.186301 
L 188.503528 124865.186301 
L 188.503528 175.414764 
L 179.809327 175.414764 
z
" clip-path="url(#p61a667eeb1)" style="fill: #ff6347; opacity: 0.85"/>
   </g>
   <g id="patch_35">
    <path d="M 226.178401 124865.186301 
L 234.872602 124865.186301 
L 234.872602 167.077493 
L 226.178401 167.077493 
z
" clip-path="url(#p61a667eeb1)" style="fill: #ff6347; opacity: 0.85"/>
   </g>
   <g id="patch_36">
    <path d="M 272.547475 124865.186301 
L 281.241676 124865.186301 
L 281.241676 182.035353 
L 272.547475 182.035353 
z
" clip-path="url(#p61a667eeb1)" style="fill: #ff6347; opacity: 0.85"/>
   </g>
   <g id="patch_37">
    <path d="M 318.916549 124865.186301 
L 327.61075 124865.186301 
L 327.61075 188.373326 
L 318.916549 188.373326 
z
" clip-path="url(#p61a667eeb1)" style="fill: #ff6347; opacity: 0.85"/>
   </g>
   <g id="patch_38">
    <path d="M 365.285623 124865.186301 
L 373.979824 124865.186301 
L 373.979824 174.962879 
L 365.285623 174.962879 
z
" clip-path="url(#p61a667eeb1)" style="fill: #ff6347; opacity: 0.85"/>
   </g>
   <g id="patch_39">
    <path d="M 411.654697 124865.186301 
L 420.348898 124865.186301 
L 420.348898 50.074545 
L 411.654697 50.074545 
z
" clip-path="url(#p61a667eeb1)" style="fill: #ff6347; opacity: 0.85"/>
   </g>
   <g id="patch_40">
    <path d="M 458.023771 124865.186301 
L 466.717972 124865.186301 
L 466.717972 220.211494 
L 458.023771 220.211494 
z
" clip-path="url(#p61a667eeb1)" style="fill: #ff6347; opacity: 0.85"/>
   </g>
   <g id="patch_41">
    <path d="M 504.392845 124865.186301 
L 513.087046 124865.186301 
L 513.087046 201.954045 
L 504.392845 201.954045 
z
" clip-path="url(#p61a667eeb1)" style="fill: #ff6347; opacity: 0.85"/>
   </g>
   <g id="patch_42">
    <path d="M 550.761919 124865.186301 
L 559.45612 124865.186301 
L 559.45612 124.476714 
L 550.761919 124.476714 
z
" clip-path="url(#p61a667eeb1)" style="fill: #ff6347; opacity: 0.85"/>
   </g>
   <g id="patch_43">
    <path d="M 597.130993 124865.186301 
L 605.825194 124865.186301 
L 605.825194 103.174827 
L 597.130993 103.174827 
z
" clip-path="url(#p61a667eeb1)" style="fill: #ff6347; opacity: 0.85"/>
   </g>
   <g id="patch_44">
    <path d="M 643.500067 124865.186301 
L 652.194268 124865.186301 
L 652.194268 285.247622 
L 643.500067 285.247622 
z
" clip-path="url(#p61a667eeb1)" style="fill: #ff6347; opacity: 0.85"/>
   </g>
   <g id="patch_45">
    <path d="M 689.869141 124865.186301 
L 698.563342 124865.186301 
L 698.563342 196.495367 
L 689.869141 196.495367 
z
" clip-path="url(#p61a667eeb1)" style="fill: #ff6347; opacity: 0.85"/>
   </g>
   <g id="patch_46">
    <path d="M 736.238215 124865.186301 
L 744.932416 124865.186301 
L 744.932416 236.739123 
L 736.238215 236.739123 
z
" clip-path="url(#p61a667eeb1)" style="fill: #ff6347; opacity: 0.85"/>
   </g>
   <g id="patch_47">
    <path d="M 782.607289 124865.186301 
L 791.30149 124865.186301 
L 791.30149 119.147929 
L 782.607289 119.147929 
z
" clip-path="url(#p61a667eeb1)" style="fill: #ff6347; opacity: 0.85"/>
   </g>
   <g id="patch_48">
    <path d="M 828.976363 124865.186301 
L 837.670564 124865.186301 
L 837.670564 104.437066 
L 828.976363 104.437066 
z
" clip-path="url(#p61a667eeb1)" style="fill: #ff6347; opacity: 0.85"/>
   </g>
   <g id="patch_49">
    <path d="M 875.345437 124865.186301 
L 884.039638 124865.186301 
L 884.039638 157.047569 
L 875.345437 157.047569 
z
" clip-path="url(#p61a667eeb1)" style="fill: #ff6347; opacity: 0.85"/>
   </g>
   <g id="patch_50">
    <path d="M 921.714511 124865.186301 
L 930.408712 124865.186301 
L 930.408712 157.941594 
L 921.714511 157.941594 
z
" clip-path="url(#p61a667eeb1)" style="fill: #ff6347; opacity: 0.85"/>
   </g>
   <g id="patch_51">
    <path d="M 968.083585 124865.186301 
L 976.777786 124865.186301 
L 976.777786 185.856613 
L 968.083585 185.856613 
z
" clip-path="url(#p61a667eeb1)" style="fill: #ff6347; opacity: 0.85"/>
   </g>
   <g id="patch_52">
    <path d="M 1014.452659 124865.186301 
L 1023.14686 124865.186301 
L 1023.14686 248.930764 
L 1014.452659 248.930764 
z
" clip-path="url(#p61a667eeb1)" style="fill: #ff6347; opacity: 0.85"/>
   </g>
   <g id="patch_53">
    <path d="M 1060.821732 124865.186301 
L 1069.515934 124865.186301 
L 1069.515934 142.924339 
L 1060.821732 142.924339 
z
" clip-path="url(#p61a667eeb1)" style="fill: #ff6347; opacity: 0.85"/>
   </g>
   <g id="patch_54">
    <path d="M 1107.190806 124865.186301 
L 1115.885008 124865.186301 
L 1115.885008 81.665186 
L 1107.190806 81.665186 
z
" clip-path="url(#p61a667eeb1)" style="fill: #ff6347; opacity: 0.85"/>
   </g>
   <g id="patch_55">
    <path d="M 1153.55988 124865.186301 
L 1162.254082 124865.186301 
L 1162.254082 105.62393 
L 1153.55988 105.62393 
z
" clip-path="url(#p61a667eeb1)" style="fill: #ff6347; opacity: 0.85"/>
   </g>
   <g id="patch_56">
    <path d="M 1199.928954 124865.186301 
L 1208.623156 124865.186301 
L 1208.623156 98.525889 
L 1199.928954 98.525889 
z
" clip-path="url(#p61a667eeb1)" style="fill: #ff6347; opacity: 0.85"/>
   </g>
   <g id="patch_57">
    <path d="M 1246.298028 124865.186301 
L 1254.99223 124865.186301 
L 1254.99223 222.498862 
L 1246.298028 222.498862 
z
" clip-path="url(#p61a667eeb1)" style="fill: #ff6347; opacity: 0.85"/>
   </g>
   <g id="patch_58">
    <path d="M 1292.667102 124865.186301 
L 1301.361304 124865.186301 
L 1301.361304 147.0327 
L 1292.667102 147.0327 
z
" clip-path="url(#p61a667eeb1)" style="fill: #ff6347; opacity: 0.85"/>
   </g>
   <g id="patch_59">
    <path d="M 1339.036176 124865.186301 
L 1347.730378 124865.186301 
L 1347.730378 220.989234 
L 1339.036176 220.989234 
z
" clip-path="url(#p61a667eeb1)" style="fill: #ff6347; opacity: 0.85"/>
   </g>
   <g id="patch_60">
    <path d="M 1385.40525 124865.186301 
L 1394.099452 124865.186301 
L 1394.099452 193.647473 
L 1385.40525 193.647473 
z
" clip-path="url(#p61a667eeb1)" style="fill: #ff6347; opacity: 0.85"/>
   </g>
   <g id="patch_61">
    <path d="M 1431.774324 124865.186301 
L 1440.468526 124865.186301 
L 1440.468526 249.254765 
L 1431.774324 249.254765 
z
" clip-path="url(#p61a667eeb1)" style="fill: #ff6347; opacity: 0.85"/>
   </g>
   <g id="patch_62">
    <path d="M 1478.143398 124865.186301 
L 1486.8376 124865.186301 
L 1486.8376 209.068076 
L 1478.143398 209.068076 
z
" clip-path="url(#p61a667eeb1)" style="fill: #ff6347; opacity: 0.85"/>
   </g>
   <g id="patch_63">
    <path d="M 142.134454 124865.186301 
L 150.828656 124865.186301 
L 150.828656 181.961515 
L 142.134454 181.961515 
z
" clip-path="url(#p61a667eeb1)" style="fill: #228b22; opacity: 0.85"/>
   </g>
   <g id="patch_64">
    <path d="M 188.503528 124865.186301 
L 197.19773 124865.186301 
L 197.19773 183.197506 
L 188.503528 183.197506 
z
" clip-path="url(#p61a667eeb1)" style="fill: #228b22; opacity: 0.85"/>
   </g>
   <g id="patch_65">
    <path d="M 234.872602 124865.186301 
L 243.566804 124865.186301 
L 243.566804 169.742829 
L 234.872602 169.742829 
z
" clip-path="url(#p61a667eeb1)" style="fill: #228b22; opacity: 0.85"/>
   </g>
   <g id="patch_66">
    <path d="M 281.241676 124865.186301 
L 289.935878 124865.186301 
L 289.935878 239.714401 
L 281.241676 239.714401 
z
" clip-path="url(#p61a667eeb1)" style="fill: #228b22; opacity: 0.85"/>
   </g>
   <g id="patch_67">
    <path d="M 327.61075 124865.186301 
L 336.304952 124865.186301 
L 336.304952 219.375973 
L 327.61075 219.375973 
z
" clip-path="url(#p61a667eeb1)" style="fill: #228b22; opacity: 0.85"/>
   </g>
   <g id="patch_68">
    <path d="M 373.979824 124865.186301 
L 382.674025 124865.186301 
L 382.674025 177.485055 
L 373.979824 177.485055 
z
" clip-path="url(#p61a667eeb1)" style="fill: #228b22; opacity: 0.85"/>
   </g>
   <g id="patch_69">
    <path d="M 420.348898 124865.186301 
L 429.043099 124865.186301 
L 429.043099 51.99644 
L 420.348898 51.99644 
z
" clip-path="url(#p61a667eeb1)" style="fill: #228b22; opacity: 0.85"/>
   </g>
   <g id="patch_70">
    <path d="M 466.717972 124865.186301 
L 475.412173 124865.186301 
L 475.412173 185.004244 
L 466.717972 185.004244 
z
" clip-path="url(#p61a667eeb1)" style="fill: #228b22; opacity: 0.85"/>
   </g>
   <g id="patch_71">
    <path d="M 513.087046 124865.186301 
L 521.781247 124865.186301 
L 521.781247 205.236721 
L 513.087046 205.236721 
z
" clip-path="url(#p61a667eeb1)" style="fill: #228b22; opacity: 0.85"/>
   </g>
   <g id="patch_72">
    <path d="M 559.45612 124865.186301 
L 568.150321 124865.186301 
L 568.150321 126.13623 
L 559.45612 126.13623 
z
" clip-path="url(#p61a667eeb1)" style="fill: #228b22; opacity: 0.85"/>
   </g>
   <g id="patch_73">
    <path d="M 605.825194 124865.186301 
L 614.519395 124865.186301 
L 614.519395 112.318337 
L 605.825194 112.318337 
z
" clip-path="url(#p61a667eeb1)" style="fill: #228b22; opacity: 0.85"/>
   </g>
   <g id="patch_74">
    <path d="M 652.194268 124865.186301 
L 660.888469 124865.186301 
L 660.888469 274.961776 
L 652.194268 274.961776 
z
" clip-path="url(#p61a667eeb1)" style="fill: #228b22; opacity: 0.85"/>
   </g>
   <g id="patch_75">
    <path d="M 698.563342 124865.186301 
L 707.257543 124865.186301 
L 707.257543 193.41571 
L 698.563342 193.41571 
z
" clip-path="url(#p61a667eeb1)" style="fill: #228b22; opacity: 0.85"/>
   </g>
   <g id="patch_76">
    <path d="M 744.932416 124865.186301 
L 753.626617 124865.186301 
L 753.626617 237.137573 
L 744.932416 237.137573 
z
" clip-path="url(#p61a667eeb1)" style="fill: #228b22; opacity: 0.85"/>
   </g>
   <g id="patch_77">
    <path d="M 791.30149 124865.186301 
L 799.995691 124865.186301 
L 799.995691 147.344649 
L 791.30149 147.344649 
z
" clip-path="url(#p61a667eeb1)" style="fill: #228b22; opacity: 0.85"/>
   </g>
   <g id="patch_78">
    <path d="M 837.670564 124865.186301 
L 846.364765 124865.186301 
L 846.364765 97.913944 
L 837.670564 97.913944 
z
" clip-path="url(#p61a667eeb1)" style="fill: #228b22; opacity: 0.85"/>
   </g>
   <g id="patch_79">
    <path d="M 884.039638 124865.186301 
L 892.733839 124865.186301 
L 892.733839 268.444619 
L 884.039638 268.444619 
z
" clip-path="url(#p61a667eeb1)" style="fill: #228b22; opacity: 0.85"/>
   </g>
   <g id="patch_80">
    <path d="M 930.408712 124865.186301 
L 939.102913 124865.186301 
L 939.102913 160.889178 
L 930.408712 160.889178 
z
" clip-path="url(#p61a667eeb1)" style="fill: #228b22; opacity: 0.85"/>
   </g>
   <g id="patch_81">
    <path d="M 976.777786 124865.186301 
L 985.471987 124865.186301 
L 985.471987 207.514352 
L 976.777786 207.514352 
z
" clip-path="url(#p61a667eeb1)" style="fill: #228b22; opacity: 0.85"/>
   </g>
   <g id="patch_82">
    <path d="M 1023.14686 124865.186301 
L 1031.841061 124865.186301 
L 1031.841061 241.754276 
L 1023.14686 241.754276 
z
" clip-path="url(#p61a667eeb1)" style="fill: #228b22; opacity: 0.85"/>
   </g>
   <g id="patch_83">
    <path d="M 1069.515934 124865.186301 
L 1078.210135 124865.186301 
L 1078.210135 150.652963 
L 1069.515934 150.652963 
z
" clip-path="url(#p61a667eeb1)" style="fill: #228b22; opacity: 0.85"/>
   </g>
   <g id="patch_84">
    <path d="M 1115.885008 124865.186301 
L 1124.579209 124865.186301 
L 1124.579209 93.311532 
L 1115.885008 93.311532 
z
" clip-path="url(#p61a667eeb1)" style="fill: #228b22; opacity: 0.85"/>
   </g>
   <g id="patch_85">
    <path d="M 1162.254082 124865.186301 
L 1170.948283 124865.186301 
L 1170.948283 128.265058 
L 1162.254082 128.265058 
z
" clip-path="url(#p61a667eeb1)" style="fill: #228b22; opacity: 0.85"/>
   </g>
   <g id="patch_86">
    <path d="M 1208.623156 124865.186301 
L 1217.317357 124865.186301 
L 1217.317357 106.008712 
L 1208.623156 106.008712 
z
" clip-path="url(#p61a667eeb1)" style="fill: #228b22; opacity: 0.85"/>
   </g>
   <g id="patch_87">
    <path d="M 1254.99223 124865.186301 
L 1263.686431 124865.186301 
L 1263.686431 242.133034 
L 1254.99223 242.133034 
z
" clip-path="url(#p61a667eeb1)" style="fill: #228b22; opacity: 0.85"/>
   </g>
   <g id="patch_88">
    <path d="M 1301.361304 124865.186301 
L 1310.055505 124865.186301 
L 1310.055505 158.29911 
L 1301.361304 158.29911 
z
" clip-path="url(#p61a667eeb1)" style="fill: #228b22; opacity: 0.85"/>
   </g>
   <g id="patch_89">
    <path d="M 1347.730378 124865.186301 
L 1356.424579 124865.186301 
L 1356.424579 213.131172 
L 1347.730378 213.131172 
z
" clip-path="url(#p61a667eeb1)" style="fill: #228b22; opacity: 0.85"/>
   </g>
   <g id="patch_90">
    <path d="M 1394.099452 124865.186301 
L 1402.793653 124865.186301 
L 1402.793653 230.138244 
L 1394.099452 230.138244 
z
" clip-path="url(#p61a667eeb1)" style="fill: #228b22; opacity: 0.85"/>
   </g>
   <g id="patch_91">
    <path d="M 1440.468526 124865.186301 
L 1449.162727 124865.186301 
L 1449.162727 268.033436 
L 1440.468526 268.033436 
z
" clip-path="url(#p61a667eeb1)" style="fill: #228b22; opacity: 0.85"/>
   </g>
   <g id="patch_92">
    <path d="M 1486.8376 124865.186301 
L 1495.531801 124865.186301 
L 1495.531801 206.115813 
L 1486.8376 206.115813 
z
" clip-path="url(#p61a667eeb1)" style="fill: #228b22; opacity: 0.85"/>
   </g>
   <g id="patch_93">
    <path d="M 150.828656 124865.186301 
L 159.522857 124865.186301 
L 159.522857 171.246176 
L 150.828656 171.246176 
z
" clip-path="url(#p61a667eeb1)" style="fill: #ff8c00; opacity: 0.85"/>
   </g>
   <g id="patch_94">
    <path d="M 197.19773 124865.186301 
L 205.891931 124865.186301 
L 205.891931 186.553171 
L 197.19773 186.553171 
z
" clip-path="url(#p61a667eeb1)" style="fill: #ff8c00; opacity: 0.85"/>
   </g>
   <g id="patch_95">
    <path d="M 243.566804 124865.186301 
L 252.261005 124865.186301 
L 252.261005 170.16176 
L 243.566804 170.16176 
z
" clip-path="url(#p61a667eeb1)" style="fill: #ff8c00; opacity: 0.85"/>
   </g>
   <g id="patch_96">
    <path d="M 289.935878 124865.186301 
L 298.630079 124865.186301 
L 298.630079 291.821631 
L 289.935878 291.821631 
z
" clip-path="url(#p61a667eeb1)" style="fill: #ff8c00; opacity: 0.85"/>
   </g>
   <g id="patch_97">
    <path d="M 336.304952 124865.186301 
L 344.999153 124865.186301 
L 344.999153 231.071917 
L 336.304952 231.071917 
z
" clip-path="url(#p61a667eeb1)" style="fill: #ff8c00; opacity: 0.85"/>
   </g>
   <g id="patch_98">
    <path d="M 382.674025 124865.186301 
L 391.368227 124865.186301 
L 391.368227 178.140889 
L 382.674025 178.140889 
z
" clip-path="url(#p61a667eeb1)" style="fill: #ff8c00; opacity: 0.85"/>
   </g>
   <g id="patch_99">
    <path d="M 429.043099 124865.186301 
L 437.737301 124865.186301 
L 437.737301 49.844175 
L 429.043099 49.844175 
z
" clip-path="url(#p61a667eeb1)" style="fill: #ff8c00; opacity: 0.85"/>
   </g>
   <g id="patch_100">
    <path d="M 475.412173 124865.186301 
L 484.106375 124865.186301 
L 484.106375 181.181995 
L 475.412173 181.181995 
z
" clip-path="url(#p61a667eeb1)" style="fill: #ff8c00; opacity: 0.85"/>
   </g>
   <g id="patch_101">
    <path d="M 521.781247 124865.186301 
L 530.475449 124865.186301 
L 530.475449 208.453089 
L 521.781247 208.453089 
z
" clip-path="url(#p61a667eeb1)" style="fill: #ff8c00; opacity: 0.85"/>
   </g>
   <g id="patch_102">
    <path d="M 568.150321 124865.186301 
L 576.844523 124865.186301 
L 576.844523 124.02785 
L 568.150321 124.02785 
z
" clip-path="url(#p61a667eeb1)" style="fill: #ff8c00; opacity: 0.85"/>
   </g>
   <g id="patch_103">
    <path d="M 614.519395 124865.186301 
L 623.213597 124865.186301 
L 623.213597 115.092714 
L 614.519395 115.092714 
z
" clip-path="url(#p61a667eeb1)" style="fill: #ff8c00; opacity: 0.85"/>
   </g>
   <g id="patch_104">
    <path d="M 660.888469 124865.186301 
L 669.582671 124865.186301 
L 669.582671 286.859993 
L 660.888469 286.859993 
z
" clip-path="url(#p61a667eeb1)" style="fill: #ff8c00; opacity: 0.85"/>
   </g>
   <g id="patch_105">
    <path d="M 707.257543 124865.186301 
L 715.951745 124865.186301 
L 715.951745 193.115398 
L 707.257543 193.115398 
z
" clip-path="url(#p61a667eeb1)" style="fill: #ff8c00; opacity: 0.85"/>
   </g>
   <g id="patch_106">
    <path d="M 753.626617 124865.186301 
L 762.320819 124865.186301 
L 762.320819 235.827323 
L 753.626617 235.827323 
z
" clip-path="url(#p61a667eeb1)" style="fill: #ff8c00; opacity: 0.85"/>
   </g>
   <g id="patch_107">
    <path d="M 799.995691 124865.186301 
L 808.689893 124865.186301 
L 808.689893 153.650773 
L 799.995691 153.650773 
z
" clip-path="url(#p61a667eeb1)" style="fill: #ff8c00; opacity: 0.85"/>
   </g>
   <g id="patch_108">
    <path d="M 846.364765 124865.186301 
L 855.058967 124865.186301 
L 855.058967 91.667737 
L 846.364765 91.667737 
z
" clip-path="url(#p61a667eeb1)" style="fill: #ff8c00; opacity: 0.85"/>
   </g>
   <g id="patch_109">
    <path d="M 892.733839 124865.186301 
L 901.428041 124865.186301 
L 901.428041 424.637085 
L 892.733839 424.637085 
z
" clip-path="url(#p61a667eeb1)" style="fill: #ff8c00; opacity: 0.85"/>
   </g>
   <g id="patch_110">
    <path d="M 939.102913 124865.186301 
L 947.797115 124865.186301 
L 947.797115 164.875653 
L 939.102913 164.875653 
z
" clip-path="url(#p61a667eeb1)" style="fill: #ff8c00; opacity: 0.85"/>
   </g>
   <g id="patch_111">
    <path d="M 985.471987 124865.186301 
L 994.166189 124865.186301 
L 994.166189 217.480366 
L 985.471987 217.480366 
z
" clip-path="url(#p61a667eeb1)" style="fill: #ff8c00; opacity: 0.85"/>
   </g>
   <g id="patch_112">
    <path d="M 1031.841061 124865.186301 
L 1040.535263 124865.186301 
L 1040.535263 250.022648 
L 1031.841061 250.022648 
z
" clip-path="url(#p61a667eeb1)" style="fill: #ff8c00; opacity: 0.85"/>
   </g>
   <g id="patch_113">
    <path d="M 1078.210135 124865.186301 
L 1086.904337 124865.186301 
L 1086.904337 150.756495 
L 1078.210135 150.756495 
z
" clip-path="url(#p61a667eeb1)" style="fill: #ff8c00; opacity: 0.85"/>
   </g>
   <g id="patch_114">
    <path d="M 1124.579209 124865.186301 
L 1133.273411 124865.186301 
L 1133.273411 90.996883 
L 1124.579209 90.996883 
z
" clip-path="url(#p61a667eeb1)" style="fill: #ff8c00; opacity: 0.85"/>
   </g>
   <g id="patch_115">
    <path d="M 1170.948283 124865.186301 
L 1179.642485 124865.186301 
L 1179.642485 128.33738 
L 1170.948283 128.33738 
z
" clip-path="url(#p61a667eeb1)" style="fill: #ff8c00; opacity: 0.85"/>
   </g>
   <g id="patch_116">
    <path d="M 1217.317357 124865.186301 
L 1226.011559 124865.186301 
L 1226.011559 105.480304 
L 1217.317357 105.480304 
z
" clip-path="url(#p61a667eeb1)" style="fill: #ff8c00; opacity: 0.85"/>
   </g>
   <g id="patch_117">
    <path d="M 1263.686431 124865.186301 
L 1272.380633 124865.186301 
L 1272.380633 232.646728 
L 1263.686431 232.646728 
z
" clip-path="url(#p61a667eeb1)" style="fill: #ff8c00; opacity: 0.85"/>
   </g>
   <g id="patch_118">
    <path d="M 1310.055505 124865.186301 
L 1318.749707 124865.186301 
L 1318.749707 161.483743 
L 1310.055505 161.483743 
z
" clip-path="url(#p61a667eeb1)" style="fill: #ff8c00; opacity: 0.85"/>
   </g>
   <g id="patch_119">
    <path d="M 1356.424579 124865.186301 
L 1365.118781 124865.186301 
L 1365.118781 219.489472 
L 1356.424579 219.489472 
z
" clip-path="url(#p61a667eeb1)" style="fill: #ff8c00; opacity: 0.85"/>
   </g>
   <g id="patch_120">
    <path d="M 1402.793653 124865.186301 
L 1411.487854 124865.186301 
L 1411.487854 237.448924 
L 1402.793653 237.448924 
z
" clip-path="url(#p61a667eeb1)" style="fill: #ff8c00; opacity: 0.85"/>
   </g>
   <g id="patch_121">
    <path d="M 1449.162727 124865.186301 
L 1457.856928 124865.186301 
L 1457.856928 273.395941 
L 1449.162727 273.395941 
z
" clip-path="url(#p61a667eeb1)" style="fill: #ff8c00; opacity: 0.85"/>
   </g>
   <g id="patch_122">
    <path d="M 1495.531801 124865.186301 
L 1504.226002 124865.186301 
L 1504.226002 203.939439 
L 1495.531801 203.939439 
z
" clip-path="url(#p61a667eeb1)" style="fill: #ff8c00; opacity: 0.85"/>
   </g>
   <g id="matplotlib.axis_1">
    <g id="xtick_1">
     <g id="line2d_1">
      <defs>
       <path id="mf559a98b44" d="M 0 0 
L 0 3.5 
" style="stroke: #000000; stroke-width: 0.8"/>
      </defs>
      <g>
       <use xlink:href="#mf559a98b44" x="142.134454" y="532.09185" style="stroke: #000000; stroke-width: 0.8"/>
      </g>
     </g>
     <g id="text_1">
      <!-- eb_x -->
      <g transform="translate(127.552145 556.638705) rotate(-45) scale(0.08 -0.08)">
       <defs>
        <path id="DejaVuSans-65" d="M 3597 1894 
L 3597 1613 
L 953 1613 
Q 991 1019 1311 708 
Q 1631 397 2203 397 
Q 2534 397 2845 478 
Q 3156 559 3463 722 
L 3463 178 
Q 3153 47 2828 -22 
Q 2503 -91 2169 -91 
Q 1331 -91 842 396 
Q 353 884 353 1716 
Q 353 2575 817 3079 
Q 1281 3584 2069 3584 
Q 2775 3584 3186 3129 
Q 3597 2675 3597 1894 
z
M 3022 2063 
Q 3016 2534 2758 2815 
Q 2500 3097 2075 3097 
Q 1594 3097 1305 2825 
Q 1016 2553 972 2059 
L 3022 2063 
z
" transform="scale(0.015625)"/>
        <path id="DejaVuSans-62" d="M 3116 1747 
Q 3116 2381 2855 2742 
Q 2594 3103 2138 3103 
Q 1681 3103 1420 2742 
Q 1159 2381 1159 1747 
Q 1159 1113 1420 752 
Q 1681 391 2138 391 
Q 2594 391 2855 752 
Q 3116 1113 3116 1747 
z
M 1159 2969 
Q 1341 3281 1617 3432 
Q 1894 3584 2278 3584 
Q 2916 3584 3314 3078 
Q 3713 2572 3713 1747 
Q 3713 922 3314 415 
Q 2916 -91 2278 -91 
Q 1894 -91 1617 61 
Q 1341 213 1159 525 
L 1159 0 
L 581 0 
L 581 4863 
L 1159 4863 
L 1159 2969 
z
" transform="scale(0.015625)"/>
        <path id="DejaVuSans-5f" d="M 3263 -1063 
L 3263 -1509 
L -63 -1509 
L -63 -1063 
L 3263 -1063 
z
" transform="scale(0.015625)"/>
        <path id="DejaVuSans-78" d="M 3513 3500 
L 2247 1797 
L 3578 0 
L 2900 0 
L 1881 1375 
L 863 0 
L 184 0 
L 1544 1831 
L 300 3500 
L 978 3500 
L 1906 2253 
L 2834 3500 
L 3513 3500 
z
" transform="scale(0.015625)"/>
       </defs>
       <use xlink:href="#DejaVuSans-65"/>
       <use xlink:href="#DejaVuSans-62" transform="translate(61.523438 0)"/>
       <use xlink:href="#DejaVuSans-5f" transform="translate(125 0)"/>
       <use xlink:href="#DejaVuSans-78" transform="translate(175 0)"/>
      </g>
     </g>
    </g>
    <g id="xtick_2">
     <g id="line2d_2">
      <g>
       <use xlink:href="#mf559a98b44" x="188.503528" y="532.09185" style="stroke: #000000; stroke-width: 0.8"/>
      </g>
     </g>
     <g id="text_2">
      <!-- eb_y -->
      <g transform="translate(173.921219 556.638705) rotate(-45) scale(0.08 -0.08)">
       <defs>
        <path id="DejaVuSans-79" d="M 2059 -325 
Q 1816 -950 1584 -1140 
Q 1353 -1331 966 -1331 
L 506 -1331 
L 506 -850 
L 844 -850 
Q 1081 -850 1212 -737 
Q 1344 -625 1503 -206 
L 1606 56 
L 191 3500 
L 800 3500 
L 1894 763 
L 2988 3500 
L 3597 3500 
L 2059 -325 
z
" transform="scale(0.015625)"/>
       </defs>
       <use xlink:href="#DejaVuSans-65"/>
       <use xlink:href="#DejaVuSans-62" transform="translate(61.523438 0)"/>
       <use xlink:href="#DejaVuSans-5f" transform="translate(125 0)"/>
       <use xlink:href="#DejaVuSans-79" transform="translate(175 0)"/>
      </g>
     </g>
    </g>
    <g id="xtick_3">
     <g id="line2d_3">
      <g>
       <use xlink:href="#mf559a98b44" x="234.872602" y="532.09185" style="stroke: #000000; stroke-width: 0.8"/>
      </g>
     </g>
     <g id="text_3">
      <!-- eb_z -->
      <g transform="translate(220.669479 556.259519) rotate(-45) scale(0.08 -0.08)">
       <defs>
        <path id="DejaVuSans-7a" d="M 353 3500 
L 3084 3500 
L 3084 2975 
L 922 459 
L 3084 459 
L 3084 0 
L 275 0 
L 275 525 
L 2438 3041 
L 353 3041 
L 353 3500 
z
" transform="scale(0.015625)"/>
       </defs>
       <use xlink:href="#DejaVuSans-65"/>
       <use xlink:href="#DejaVuSans-62" transform="translate(61.523438 0)"/>
       <use xlink:href="#DejaVuSans-5f" transform="translate(125 0)"/>
       <use xlink:href="#DejaVuSans-7a" transform="translate(175 0)"/>
      </g>
     </g>
    </g>
    <g id="xtick_4">
     <g id="line2d_4">
      <g>
       <use xlink:href="#mf559a98b44" x="281.241676" y="532.09185" style="stroke: #000000; stroke-width: 0.8"/>
      </g>
     </g>
     <g id="text_4">
      <!-- db_x -->
      <g transform="translate(266.548881 556.74919) rotate(-45) scale(0.08 -0.08)">
       <defs>
        <path id="DejaVuSans-64" d="M 2906 2969 
L 2906 4863 
L 3481 4863 
L 3481 0 
L 2906 0 
L 2906 525 
Q 2725 213 2448 61 
Q 2172 -91 1784 -91 
Q 1150 -91 751 415 
Q 353 922 353 1747 
Q 353 2572 751 3078 
Q 1150 3584 1784 3584 
Q 2172 3584 2448 3432 
Q 2725 3281 2906 2969 
z
M 947 1747 
Q 947 1113 1208 752 
Q 1469 391 1925 391 
Q 2381 391 2643 752 
Q 2906 1113 2906 1747 
Q 2906 2381 2643 2742 
Q 2381 3103 1925 3103 
Q 1469 3103 1208 2742 
Q 947 2381 947 1747 
z
" transform="scale(0.015625)"/>
       </defs>
       <use xlink:href="#DejaVuSans-64"/>
       <use xlink:href="#DejaVuSans-62" transform="translate(63.476562 0)"/>
       <use xlink:href="#DejaVuSans-5f" transform="translate(126.953125 0)"/>
       <use xlink:href="#DejaVuSans-78" transform="translate(176.953125 0)"/>
      </g>
     </g>
    </g>
    <g id="xtick_5">
     <g id="line2d_5">
      <g>
       <use xlink:href="#mf559a98b44" x="327.61075" y="532.09185" style="stroke: #000000; stroke-width: 0.8"/>
      </g>
     </g>
     <g id="text_5">
      <!-- db_y -->
      <g transform="translate(312.917955 556.74919) rotate(-45) scale(0.08 -0.08)">
       <use xlink:href="#DejaVuSans-64"/>
       <use xlink:href="#DejaVuSans-62" transform="translate(63.476562 0)"/>
       <use xlink:href="#DejaVuSans-5f" transform="translate(126.953125 0)"/>
       <use xlink:href="#DejaVuSans-79" transform="translate(176.953125 0)"/>
      </g>
     </g>
    </g>
    <g id="xtick_6">
     <g id="line2d_6">
      <g>
       <use xlink:href="#mf559a98b44" x="373.979824" y="532.09185" style="stroke: #000000; stroke-width: 0.8"/>
      </g>
     </g>
     <g id="text_6">
      <!-- db_z -->
      <g transform="translate(359.666215 556.370004) rotate(-45) scale(0.08 -0.08)">
       <use xlink:href="#DejaVuSans-64"/>
       <use xlink:href="#DejaVuSans-62" transform="translate(63.476562 0)"/>
       <use xlink:href="#DejaVuSans-5f" transform="translate(126.953125 0)"/>
       <use xlink:href="#DejaVuSans-7a" transform="translate(176.953125 0)"/>
      </g>
     </g>
    </g>
    <g id="xtick_7">
     <g id="line2d_7">
      <g>
       <use xlink:href="#mf559a98b44" x="420.348898" y="532.09185" style="stroke: #000000; stroke-width: 0.8"/>
      </g>
     </g>
     <g id="text_7">
      <!-- dKg_xx -->
      <g transform="translate(398.598294 563.807) rotate(-45) scale(0.08 -0.08)">
       <defs>
        <path id="DejaVuSans-4b" d="M 628 4666 
L 1259 4666 
L 1259 2694 
L 3353 4666 
L 4166 4666 
L 1850 2491 
L 4331 0 
L 3500 0 
L 1259 2247 
L 1259 0 
L 628 0 
L 628 4666 
z
" transform="scale(0.015625)"/>
        <path id="DejaVuSans-67" d="M 2906 1791 
Q 2906 2416 2648 2759 
Q 2391 3103 1925 3103 
Q 1463 3103 1205 2759 
Q 947 2416 947 1791 
Q 947 1169 1205 825 
Q 1463 481 1925 481 
Q 2391 481 2648 825 
Q 2906 1169 2906 1791 
z
M 3481 434 
Q 3481 -459 3084 -895 
Q 2688 -1331 1869 -1331 
Q 1566 -1331 1297 -1286 
Q 1028 -1241 775 -1147 
L 775 -588 
Q 1028 -725 1275 -790 
Q 1522 -856 1778 -856 
Q 2344 -856 2625 -561 
Q 2906 -266 2906 331 
L 2906 616 
Q 2728 306 2450 153 
Q 2172 0 1784 0 
Q 1141 0 747 490 
Q 353 981 353 1791 
Q 353 2603 747 3093 
Q 1141 3584 1784 3584 
Q 2172 3584 2450 3431 
Q 2728 3278 2906 2969 
L 2906 3500 
L 3481 3500 
L 3481 434 
z
" transform="scale(0.015625)"/>
       </defs>
       <use xlink:href="#DejaVuSans-64"/>
       <use xlink:href="#DejaVuSans-4b" transform="translate(63.476562 0)"/>
       <use xlink:href="#DejaVuSans-67" transform="translate(129.052734 0)"/>
       <use xlink:href="#DejaVuSans-5f" transform="translate(192.529297 0)"/>
       <use xlink:href="#DejaVuSans-78" transform="translate(242.529297 0)"/>
       <use xlink:href="#DejaVuSans-78" transform="translate(301.708984 0)"/>
      </g>
     </g>
    </g>
    <g id="xtick_8">
     <g id="line2d_8">
      <g>
       <use xlink:href="#mf559a98b44" x="466.717972" y="532.09185" style="stroke: #000000; stroke-width: 0.8"/>
      </g>
     </g>
     <g id="text_8">
      <!-- dKg_yx -->
      <g transform="translate(444.967367 563.807) rotate(-45) scale(0.08 -0.08)">
       <use xlink:href="#DejaVuSans-64"/>
       <use xlink:href="#DejaVuSans-4b" transform="translate(63.476562 0)"/>
       <use xlink:href="#DejaVuSans-67" transform="translate(129.052734 0)"/>
       <use xlink:href="#DejaVuSans-5f" transform="translate(192.529297 0)"/>
       <use xlink:href="#DejaVuSans-79" transform="translate(242.529297 0)"/>
       <use xlink:href="#DejaVuSans-78" transform="translate(301.708984 0)"/>
      </g>
     </g>
    </g>
    <g id="xtick_9">
     <g id="line2d_9">
      <g>
       <use xlink:href="#mf559a98b44" x="513.087046" y="532.09185" style="stroke: #000000; stroke-width: 0.8"/>
      </g>
     </g>
     <g id="text_9">
      <!-- dKg_zx -->
      <g transform="translate(491.715627 563.427814) rotate(-45) scale(0.08 -0.08)">
       <use xlink:href="#DejaVuSans-64"/>
       <use xlink:href="#DejaVuSans-4b" transform="translate(63.476562 0)"/>
       <use xlink:href="#DejaVuSans-67" transform="translate(129.052734 0)"/>
       <use xlink:href="#DejaVuSans-5f" transform="translate(192.529297 0)"/>
       <use xlink:href="#DejaVuSans-7a" transform="translate(242.529297 0)"/>
       <use xlink:href="#DejaVuSans-78" transform="translate(295.019531 0)"/>
      </g>
     </g>
    </g>
    <g id="xtick_10">
     <g id="line2d_10">
      <g>
       <use xlink:href="#mf559a98b44" x="559.45612" y="532.09185" style="stroke: #000000; stroke-width: 0.8"/>
      </g>
     </g>
     <g id="text_10">
      <!-- dKg_xy -->
      <g transform="translate(537.705515 563.807) rotate(-45) scale(0.08 -0.08)">
       <use xlink:href="#DejaVuSans-64"/>
       <use xlink:href="#DejaVuSans-4b" transform="translate(63.476562 0)"/>
       <use xlink:href="#DejaVuSans-67" transform="translate(129.052734 0)"/>
       <use xlink:href="#DejaVuSans-5f" transform="translate(192.529297 0)"/>
       <use xlink:href="#DejaVuSans-78" transform="translate(242.529297 0)"/>
       <use xlink:href="#DejaVuSans-79" transform="translate(301.708984 0)"/>
      </g>
     </g>
    </g>
    <g id="xtick_11">
     <g id="line2d_11">
      <g>
       <use xlink:href="#mf559a98b44" x="605.825194" y="532.09185" style="stroke: #000000; stroke-width: 0.8"/>
      </g>
     </g>
     <g id="text_11">
      <!-- dKg_yy -->
      <g transform="translate(584.074589 563.807) rotate(-45) scale(0.08 -0.08)">
       <use xlink:href="#DejaVuSans-64"/>
       <use xlink:href="#DejaVuSans-4b" transform="translate(63.476562 0)"/>
       <use xlink:href="#DejaVuSans-67" transform="translate(129.052734 0)"/>
       <use xlink:href="#DejaVuSans-5f" transform="translate(192.529297 0)"/>
       <use xlink:href="#DejaVuSans-79" transform="translate(242.529297 0)"/>
       <use xlink:href="#DejaVuSans-79" transform="translate(301.708984 0)"/>
      </g>
     </g>
    </g>
    <g id="xtick_12">
     <g id="line2d_12">
      <g>
       <use xlink:href="#mf559a98b44" x="652.194268" y="532.09185" style="stroke: #000000; stroke-width: 0.8"/>
      </g>
     </g>
     <g id="text_12">
      <!-- dKg_zy -->
      <g transform="translate(630.822849 563.427814) rotate(-45) scale(0.08 -0.08)">
       <use xlink:href="#DejaVuSans-64"/>
       <use xlink:href="#DejaVuSans-4b" transform="translate(63.476562 0)"/>
       <use xlink:href="#DejaVuSans-67" transform="translate(129.052734 0)"/>
       <use xlink:href="#DejaVuSans-5f" transform="translate(192.529297 0)"/>
       <use xlink:href="#DejaVuSans-7a" transform="translate(242.529297 0)"/>
       <use xlink:href="#DejaVuSans-79" transform="translate(295.019531 0)"/>
      </g>
     </g>
    </g>
    <g id="xtick_13">
     <g id="line2d_13">
      <g>
       <use xlink:href="#mf559a98b44" x="698.563342" y="532.09185" style="stroke: #000000; stroke-width: 0.8"/>
      </g>
     </g>
     <g id="text_13">
      <!-- dKg_xz -->
      <g transform="translate(677.191923 563.427814) rotate(-45) scale(0.08 -0.08)">
       <use xlink:href="#DejaVuSans-64"/>
       <use xlink:href="#DejaVuSans-4b" transform="translate(63.476562 0)"/>
       <use xlink:href="#DejaVuSans-67" transform="translate(129.052734 0)"/>
       <use xlink:href="#DejaVuSans-5f" transform="translate(192.529297 0)"/>
       <use xlink:href="#DejaVuSans-78" transform="translate(242.529297 0)"/>
       <use xlink:href="#DejaVuSans-7a" transform="translate(301.708984 0)"/>
      </g>
     </g>
    </g>
    <g id="xtick_14">
     <g id="line2d_14">
      <g>
       <use xlink:href="#mf559a98b44" x="744.932416" y="532.09185" style="stroke: #000000; stroke-width: 0.8"/>
      </g>
     </g>
     <g id="text_14">
      <!-- dKg_yz -->
      <g transform="translate(723.560997 563.427814) rotate(-45) scale(0.08 -0.08)">
       <use xlink:href="#DejaVuSans-64"/>
       <use xlink:href="#DejaVuSans-4b" transform="translate(63.476562 0)"/>
       <use xlink:href="#DejaVuSans-67" transform="translate(129.052734 0)"/>
       <use xlink:href="#DejaVuSans-5f" transform="translate(192.529297 0)"/>
       <use xlink:href="#DejaVuSans-79" transform="translate(242.529297 0)"/>
       <use xlink:href="#DejaVuSans-7a" transform="translate(301.708984 0)"/>
      </g>
     </g>
    </g>
    <g id="xtick_15">
     <g id="line2d_15">
      <g>
       <use xlink:href="#mf559a98b44" x="791.30149" y="532.09185" style="stroke: #000000; stroke-width: 0.8"/>
      </g>
     </g>
     <g id="text_15">
      <!-- dKg_zz -->
      <g transform="translate(770.309257 563.048628) rotate(-45) scale(0.08 -0.08)">
       <use xlink:href="#DejaVuSans-64"/>
       <use xlink:href="#DejaVuSans-4b" transform="translate(63.476562 0)"/>
       <use xlink:href="#DejaVuSans-67" transform="translate(129.052734 0)"/>
       <use xlink:href="#DejaVuSans-5f" transform="translate(192.529297 0)"/>
       <use xlink:href="#DejaVuSans-7a" transform="translate(242.529297 0)"/>
       <use xlink:href="#DejaVuSans-7a" transform="translate(295.019531 0)"/>
      </g>
     </g>
    </g>
    <g id="xtick_16">
     <g id="line2d_16">
      <g>
       <use xlink:href="#mf559a98b44" x="837.670564" y="532.09185" style="stroke: #000000; stroke-width: 0.8"/>
      </g>
     </g>
     <g id="text_16">
      <!-- dKa_xx -->
      <g transform="translate(816.143582 563.583377) rotate(-45) scale(0.08 -0.08)">
       <defs>
        <path id="DejaVuSans-61" d="M 2194 1759 
Q 1497 1759 1228 1600 
Q 959 1441 959 1056 
Q 959 750 1161 570 
Q 1363 391 1709 391 
Q 2188 391 2477 730 
Q 2766 1069 2766 1631 
L 2766 1759 
L 2194 1759 
z
M 3341 1997 
L 3341 0 
L 2766 0 
L 2766 531 
Q 2569 213 2275 61 
Q 1981 -91 1556 -91 
Q 1019 -91 701 211 
Q 384 513 384 1019 
Q 384 1609 779 1909 
Q 1175 2209 1959 2209 
L 2766 2209 
L 2766 2266 
Q 2766 2663 2505 2880 
Q 2244 3097 1772 3097 
Q 1472 3097 1187 3025 
Q 903 2953 641 2809 
L 641 3341 
Q 956 3463 1253 3523 
Q 1550 3584 1831 3584 
Q 2591 3584 2966 3190 
Q 3341 2797 3341 1997 
z
" transform="scale(0.015625)"/>
       </defs>
       <use xlink:href="#DejaVuSans-64"/>
       <use xlink:href="#DejaVuSans-4b" transform="translate(63.476562 0)"/>
       <use xlink:href="#DejaVuSans-61" transform="translate(127.302734 0)"/>
       <use xlink:href="#DejaVuSans-5f" transform="translate(188.582031 0)"/>
       <use xlink:href="#DejaVuSans-78" transform="translate(238.582031 0)"/>
       <use xlink:href="#DejaVuSans-78" transform="translate(297.761719 0)"/>
      </g>
     </g>
    </g>
    <g id="xtick_17">
     <g id="line2d_17">
      <g>
       <use xlink:href="#mf559a98b44" x="884.039638" y="532.09185" style="stroke: #000000; stroke-width: 0.8"/>
      </g>
     </g>
     <g id="text_17">
      <!-- dKa_xy -->
      <g transform="translate(862.512656 563.583377) rotate(-45) scale(0.08 -0.08)">
       <use xlink:href="#DejaVuSans-64"/>
       <use xlink:href="#DejaVuSans-4b" transform="translate(63.476562 0)"/>
       <use xlink:href="#DejaVuSans-61" transform="translate(127.302734 0)"/>
       <use xlink:href="#DejaVuSans-5f" transform="translate(188.582031 0)"/>
       <use xlink:href="#DejaVuSans-78" transform="translate(238.582031 0)"/>
       <use xlink:href="#DejaVuSans-79" transform="translate(297.761719 0)"/>
      </g>
     </g>
    </g>
    <g id="xtick_18">
     <g id="line2d_18">
      <g>
       <use xlink:href="#mf559a98b44" x="930.408712" y="532.09185" style="stroke: #000000; stroke-width: 0.8"/>
      </g>
     </g>
     <g id="text_18">
      <!-- dKa_xz -->
      <g transform="translate(909.260916 563.204191) rotate(-45) scale(0.08 -0.08)">
       <use xlink:href="#DejaVuSans-64"/>
       <use xlink:href="#DejaVuSans-4b" transform="translate(63.476562 0)"/>
       <use xlink:href="#DejaVuSans-61" transform="translate(127.302734 0)"/>
       <use xlink:href="#DejaVuSans-5f" transform="translate(188.582031 0)"/>
       <use xlink:href="#DejaVuSans-78" transform="translate(238.582031 0)"/>
       <use xlink:href="#DejaVuSans-7a" transform="translate(297.761719 0)"/>
      </g>
     </g>
    </g>
    <g id="xtick_19">
     <g id="line2d_19">
      <g>
       <use xlink:href="#mf559a98b44" x="976.777786" y="532.09185" style="stroke: #000000; stroke-width: 0.8"/>
      </g>
     </g>
     <g id="text_19">
      <!-- dKa_yy -->
      <g transform="translate(955.250804 563.583377) rotate(-45) scale(0.08 -0.08)">
       <use xlink:href="#DejaVuSans-64"/>
       <use xlink:href="#DejaVuSans-4b" transform="translate(63.476562 0)"/>
       <use xlink:href="#DejaVuSans-61" transform="translate(127.302734 0)"/>
       <use xlink:href="#DejaVuSans-5f" transform="translate(188.582031 0)"/>
       <use xlink:href="#DejaVuSans-79" transform="translate(238.582031 0)"/>
       <use xlink:href="#DejaVuSans-79" transform="translate(297.761719 0)"/>
      </g>
     </g>
    </g>
    <g id="xtick_20">
     <g id="line2d_20">
      <g>
       <use xlink:href="#mf559a98b44" x="1023.14686" y="532.09185" style="stroke: #000000; stroke-width: 0.8"/>
      </g>
     </g>
     <g id="text_20">
      <!-- dKa_yz -->
      <g transform="translate(1001.999064 563.204191) rotate(-45) scale(0.08 -0.08)">
       <use xlink:href="#DejaVuSans-64"/>
       <use xlink:href="#DejaVuSans-4b" transform="translate(63.476562 0)"/>
       <use xlink:href="#DejaVuSans-61" transform="translate(127.302734 0)"/>
       <use xlink:href="#DejaVuSans-5f" transform="translate(188.582031 0)"/>
       <use xlink:href="#DejaVuSans-79" transform="translate(238.582031 0)"/>
       <use xlink:href="#DejaVuSans-7a" transform="translate(297.761719 0)"/>
      </g>
     </g>
    </g>
    <g id="xtick_21">
     <g id="line2d_21">
      <g>
       <use xlink:href="#mf559a98b44" x="1069.515934" y="532.09185" style="stroke: #000000; stroke-width: 0.8"/>
      </g>
     </g>
     <g id="text_21">
      <!-- dKa_zz -->
      <g transform="translate(1048.747324 562.825005) rotate(-45) scale(0.08 -0.08)">
       <use xlink:href="#DejaVuSans-64"/>
       <use xlink:href="#DejaVuSans-4b" transform="translate(63.476562 0)"/>
       <use xlink:href="#DejaVuSans-61" transform="translate(127.302734 0)"/>
       <use xlink:href="#DejaVuSans-5f" transform="translate(188.582031 0)"/>
       <use xlink:href="#DejaVuSans-7a" transform="translate(238.582031 0)"/>
       <use xlink:href="#DejaVuSans-7a" transform="translate(291.072266 0)"/>
      </g>
     </g>
    </g>
    <g id="xtick_22">
     <g id="line2d_22">
      <g>
       <use xlink:href="#mf559a98b44" x="1115.885008" y="532.09185" style="stroke: #000000; stroke-width: 0.8"/>
      </g>
     </g>
     <g id="text_22">
      <!-- Ka2_x -->
      <g transform="translate(1097.698221 560.143303) rotate(-45) scale(0.08 -0.08)">
       <defs>
        <path id="DejaVuSans-32" d="M 1228 531 
L 3431 531 
L 3431 0 
L 469 0 
L 469 531 
Q 828 903 1448 1529 
Q 2069 2156 2228 2338 
Q 2531 2678 2651 2914 
Q 2772 3150 2772 3378 
Q 2772 3750 2511 3984 
Q 2250 4219 1831 4219 
Q 1534 4219 1204 4116 
Q 875 4013 500 3803 
L 500 4441 
Q 881 4594 1212 4672 
Q 1544 4750 1819 4750 
Q 2544 4750 2975 4387 
Q 3406 4025 3406 3419 
Q 3406 3131 3298 2873 
Q 3191 2616 2906 2266 
Q 2828 2175 2409 1742 
Q 1991 1309 1228 531 
z
" transform="scale(0.015625)"/>
       </defs>
       <use xlink:href="#DejaVuSans-4b"/>
       <use xlink:href="#DejaVuSans-61" transform="translate(63.826172 0)"/>
       <use xlink:href="#DejaVuSans-32" transform="translate(125.105469 0)"/>
       <use xlink:href="#DejaVuSans-5f" transform="translate(188.728516 0)"/>
       <use xlink:href="#DejaVuSans-78" transform="translate(238.728516 0)"/>
      </g>
     </g>
    </g>
    <g id="xtick_23">
     <g id="line2d_23">
      <g>
       <use xlink:href="#mf559a98b44" x="1162.254082" y="532.09185" style="stroke: #000000; stroke-width: 0.8"/>
      </g>
     </g>
     <g id="text_23">
      <!-- Ka2_y -->
      <g transform="translate(1144.067295 560.143303) rotate(-45) scale(0.08 -0.08)">
       <use xlink:href="#DejaVuSans-4b"/>
       <use xlink:href="#DejaVuSans-61" transform="translate(63.826172 0)"/>
       <use xlink:href="#DejaVuSans-32" transform="translate(125.105469 0)"/>
       <use xlink:href="#DejaVuSans-5f" transform="translate(188.728516 0)"/>
       <use xlink:href="#DejaVuSans-79" transform="translate(238.728516 0)"/>
      </g>
     </g>
    </g>
    <g id="xtick_24">
     <g id="line2d_24">
      <g>
       <use xlink:href="#mf559a98b44" x="1208.623156" y="532.09185" style="stroke: #000000; stroke-width: 0.8"/>
      </g>
     </g>
     <g id="text_24">
      <!-- Ka2_z -->
      <g transform="translate(1190.815555 559.764117) rotate(-45) scale(0.08 -0.08)">
       <use xlink:href="#DejaVuSans-4b"/>
       <use xlink:href="#DejaVuSans-61" transform="translate(63.826172 0)"/>
       <use xlink:href="#DejaVuSans-32" transform="translate(125.105469 0)"/>
       <use xlink:href="#DejaVuSans-5f" transform="translate(188.728516 0)"/>
       <use xlink:href="#DejaVuSans-7a" transform="translate(238.728516 0)"/>
      </g>
     </g>
    </g>
    <g id="xtick_25">
     <g id="line2d_25">
      <g>
       <use xlink:href="#mf559a98b44" x="1254.99223" y="532.09185" style="stroke: #000000; stroke-width: 0.8"/>
      </g>
     </g>
     <g id="text_25">
      <!-- rx_x -->
      <g transform="translate(1241.956716 554.934577) rotate(-45) scale(0.08 -0.08)">
       <defs>
        <path id="DejaVuSans-72" d="M 2631 2963 
Q 2534 3019 2420 3045 
Q 2306 3072 2169 3072 
Q 1681 3072 1420 2755 
Q 1159 2438 1159 1844 
L 1159 0 
L 581 0 
L 581 3500 
L 1159 3500 
L 1159 2956 
Q 1341 3275 1631 3429 
Q 1922 3584 2338 3584 
Q 2397 3584 2469 3576 
Q 2541 3569 2628 3553 
L 2631 2963 
z
" transform="scale(0.015625)"/>
       </defs>
       <use xlink:href="#DejaVuSans-72"/>
       <use xlink:href="#DejaVuSans-78" transform="translate(38.488281 0)"/>
       <use xlink:href="#DejaVuSans-5f" transform="translate(97.667969 0)"/>
       <use xlink:href="#DejaVuSans-78" transform="translate(147.667969 0)"/>
      </g>
     </g>
    </g>
    <g id="xtick_26">
     <g id="line2d_26">
      <g>
       <use xlink:href="#mf559a98b44" x="1301.361304" y="532.09185" style="stroke: #000000; stroke-width: 0.8"/>
      </g>
     </g>
     <g id="text_26">
      <!-- rx_y -->
      <g transform="translate(1288.32579 554.934577) rotate(-45) scale(0.08 -0.08)">
       <use xlink:href="#DejaVuSans-72"/>
       <use xlink:href="#DejaVuSans-78" transform="translate(38.488281 0)"/>
       <use xlink:href="#DejaVuSans-5f" transform="translate(97.667969 0)"/>
       <use xlink:href="#DejaVuSans-79" transform="translate(147.667969 0)"/>
      </g>
     </g>
    </g>
    <g id="xtick_27">
     <g id="line2d_27">
      <g>
       <use xlink:href="#mf559a98b44" x="1347.730378" y="532.09185" style="stroke: #000000; stroke-width: 0.8"/>
      </g>
     </g>
     <g id="text_27">
      <!-- rx_z -->
      <g transform="translate(1335.07405 554.555391) rotate(-45) scale(0.08 -0.08)">
       <use xlink:href="#DejaVuSans-72"/>
       <use xlink:href="#DejaVuSans-78" transform="translate(38.488281 0)"/>
       <use xlink:href="#DejaVuSans-5f" transform="translate(97.667969 0)"/>
       <use xlink:href="#DejaVuSans-7a" transform="translate(147.667969 0)"/>
      </g>
     </g>
    </g>
    <g id="xtick_28">
     <g id="line2d_28">
      <g>
       <use xlink:href="#mf559a98b44" x="1394.099452" y="532.09185" style="stroke: #000000; stroke-width: 0.8"/>
      </g>
     </g>
     <g id="text_28">
      <!-- ry_x -->
      <g transform="translate(1380.915446 555.08307) rotate(-45) scale(0.08 -0.08)">
       <use xlink:href="#DejaVuSans-72"/>
       <use xlink:href="#DejaVuSans-79" transform="translate(41.113281 0)"/>
       <use xlink:href="#DejaVuSans-5f" transform="translate(100.292969 0)"/>
       <use xlink:href="#DejaVuSans-78" transform="translate(150.292969 0)"/>
      </g>
     </g>
    </g>
    <g id="xtick_29">
     <g id="line2d_29">
      <g>
       <use xlink:href="#mf559a98b44" x="1440.468526" y="532.09185" style="stroke: #000000; stroke-width: 0.8"/>
      </g>
     </g>
     <g id="text_29">
      <!-- ry_y -->
      <g transform="translate(1427.28452 555.08307) rotate(-45) scale(0.08 -0.08)">
       <use xlink:href="#DejaVuSans-72"/>
       <use xlink:href="#DejaVuSans-79" transform="translate(41.113281 0)"/>
       <use xlink:href="#DejaVuSans-5f" transform="translate(100.292969 0)"/>
       <use xlink:href="#DejaVuSans-79" transform="translate(150.292969 0)"/>
      </g>
     </g>
    </g>
    <g id="xtick_30">
     <g id="line2d_30">
      <g>
       <use xlink:href="#mf559a98b44" x="1486.8376" y="532.09185" style="stroke: #000000; stroke-width: 0.8"/>
      </g>
     </g>
     <g id="text_30">
      <!-- ry_z -->
      <g transform="translate(1474.03278 554.703884) rotate(-45) scale(0.08 -0.08)">
       <use xlink:href="#DejaVuSans-72"/>
       <use xlink:href="#DejaVuSans-79" transform="translate(41.113281 0)"/>
       <use xlink:href="#DejaVuSans-5f" transform="translate(100.292969 0)"/>
       <use xlink:href="#DejaVuSans-7a" transform="translate(150.292969 0)"/>
      </g>
     </g>
    </g>
   </g>
   <g id="matplotlib.axis_2">
    <g id="ytick_1">
     <g id="line2d_31">
      <path d="M 55.772054 412.130876 
L 1573.2 412.130876 
" clip-path="url(#p61a667eeb1)" style="fill: none; stroke: #b0b0b0; stroke-opacity: 0.4; stroke-width: 0.8; stroke-linecap: square"/>
     </g>
     <g id="line2d_32">
      <defs>
       <path id="meb164e2b3d" d="M 0 0 
L -3.5 0 
" style="stroke: #000000; stroke-width: 0.8"/>
      </defs>
      <g>
       <use xlink:href="#meb164e2b3d" x="55.772054" y="412.130876" style="stroke: #000000; stroke-width: 0.8"/>
      </g>
     </g>
     <g id="text_31">
      <!-- $\mathdefault{10^{-1}}$ -->
      <g transform="translate(25.272054 415.930095) scale(0.1 -0.1)">
       <defs>
        <path id="DejaVuSans-31" d="M 794 531 
L 1825 531 
L 1825 4091 
L 703 3866 
L 703 4441 
L 1819 4666 
L 2450 4666 
L 2450 531 
L 3481 531 
L 3481 0 
L 794 0 
L 794 531 
z
" transform="scale(0.015625)"/>
        <path id="DejaVuSans-30" d="M 2034 4250 
Q 1547 4250 1301 3770 
Q 1056 3291 1056 2328 
Q 1056 1369 1301 889 
Q 1547 409 2034 409 
Q 2525 409 2770 889 
Q 3016 1369 3016 2328 
Q 3016 3291 2770 3770 
Q 2525 4250 2034 4250 
z
M 2034 4750 
Q 2819 4750 3233 4129 
Q 3647 3509 3647 2328 
Q 3647 1150 3233 529 
Q 2819 -91 2034 -91 
Q 1250 -91 836 529 
Q 422 1150 422 2328 
Q 422 3509 836 4129 
Q 1250 4750 2034 4750 
z
" transform="scale(0.015625)"/>
        <path id="DejaVuSans-2212" d="M 678 2272 
L 4684 2272 
L 4684 1741 
L 678 1741 
L 678 2272 
z
" transform="scale(0.015625)"/>
       </defs>
       <use xlink:href="#DejaVuSans-31" transform="translate(0 0.684375)"/>
       <use xlink:href="#DejaVuSans-30" transform="translate(63.623047 0.684375)"/>
       <use xlink:href="#DejaVuSans-2212" transform="translate(128.203125 38.965625) scale(0.7)"/>
       <use xlink:href="#DejaVuSans-31" transform="translate(186.855469 38.965625) scale(0.7)"/>
      </g>
     </g>
    </g>
    <g id="ytick_2">
     <g id="line2d_33">
      <path d="M 55.772054 287.553243 
L 1573.2 287.553243 
" clip-path="url(#p61a667eeb1)" style="fill: none; stroke: #b0b0b0; stroke-opacity: 0.4; stroke-width: 0.8; stroke-linecap: square"/>
     </g>
     <g id="line2d_34">
      <g>
       <use xlink:href="#meb164e2b3d" x="55.772054" y="287.553243" style="stroke: #000000; stroke-width: 0.8"/>
      </g>
     </g>
     <g id="text_32">
      <!-- $\mathdefault{10^{0}}$ -->
      <g transform="translate(31.172054 291.352462) scale(0.1 -0.1)">
       <use xlink:href="#DejaVuSans-31" transform="translate(0 0.765625)"/>
       <use xlink:href="#DejaVuSans-30" transform="translate(63.623047 0.765625)"/>
       <use xlink:href="#DejaVuSans-30" transform="translate(128.203125 39.046875) scale(0.7)"/>
      </g>
     </g>
    </g>
    <g id="ytick_3">
     <g id="line2d_35">
      <path d="M 55.772054 162.97561 
L 1573.2 162.97561 
" clip-path="url(#p61a667eeb1)" style="fill: none; stroke: #b0b0b0; stroke-opacity: 0.4; stroke-width: 0.8; stroke-linecap: square"/>
     </g>
     <g id="line2d_36">
      <g>
       <use xlink:href="#meb164e2b3d" x="55.772054" y="162.97561" style="stroke: #000000; stroke-width: 0.8"/>
      </g>
     </g>
     <g id="text_33">
      <!-- $\mathdefault{10^{1}}$ -->
      <g transform="translate(31.172054 166.774828) scale(0.1 -0.1)">
       <use xlink:href="#DejaVuSans-31" transform="translate(0 0.684375)"/>
       <use xlink:href="#DejaVuSans-30" transform="translate(63.623047 0.684375)"/>
       <use xlink:href="#DejaVuSans-31" transform="translate(128.203125 38.965625) scale(0.7)"/>
      </g>
     </g>
    </g>
    <g id="ytick_4">
     <g id="line2d_37">
      <path d="M 55.772054 38.397977 
L 1573.2 38.397977 
" clip-path="url(#p61a667eeb1)" style="fill: none; stroke: #b0b0b0; stroke-opacity: 0.4; stroke-width: 0.8; stroke-linecap: square"/>
     </g>
     <g id="line2d_38">
      <g>
       <use xlink:href="#meb164e2b3d" x="55.772054" y="38.397977" style="stroke: #000000; stroke-width: 0.8"/>
      </g>
     </g>
     <g id="text_34">
      <!-- $\mathdefault{10^{2}}$ -->
      <g transform="translate(31.172054 42.197195) scale(0.1 -0.1)">
       <use xlink:href="#DejaVuSans-31" transform="translate(0 0.765625)"/>
       <use xlink:href="#DejaVuSans-30" transform="translate(63.623047 0.765625)"/>
       <use xlink:href="#DejaVuSans-32" transform="translate(128.203125 39.046875) scale(0.7)"/>
      </g>
     </g>
    </g>
    <g id="ytick_5">
     <g id="line2d_39">
      <defs>
       <path id="m1d03c69e0e" d="M 0 0 
L -2 0 
" style="stroke: #000000; stroke-width: 0.6"/>
      </defs>
      <g>
       <use xlink:href="#m1d03c69e0e" x="55.772054" y="499.206905" style="stroke: #000000; stroke-width: 0.6"/>
      </g>
     </g>
    </g>
    <g id="ytick_6">
     <g id="line2d_40">
      <g>
       <use xlink:href="#m1d03c69e0e" x="55.772054" y="477.269872" style="stroke: #000000; stroke-width: 0.6"/>
      </g>
     </g>
    </g>
    <g id="ytick_7">
     <g id="line2d_41">
      <g>
       <use xlink:href="#m1d03c69e0e" x="55.772054" y="461.7053" style="stroke: #000000; stroke-width: 0.6"/>
      </g>
     </g>
    </g>
    <g id="ytick_8">
     <g id="line2d_42">
      <g>
       <use xlink:href="#m1d03c69e0e" x="55.772054" y="449.63248" style="stroke: #000000; stroke-width: 0.6"/>
      </g>
     </g>
    </g>
    <g id="ytick_9">
     <g id="line2d_43">
      <g>
       <use xlink:href="#m1d03c69e0e" x="55.772054" y="439.768268" style="stroke: #000000; stroke-width: 0.6"/>
      </g>
     </g>
    </g>
    <g id="ytick_10">
     <g id="line2d_44">
      <g>
       <use xlink:href="#m1d03c69e0e" x="55.772054" y="431.428195" style="stroke: #000000; stroke-width: 0.6"/>
      </g>
     </g>
    </g>
    <g id="ytick_11">
     <g id="line2d_45">
      <g>
       <use xlink:href="#m1d03c69e0e" x="55.772054" y="424.203696" style="stroke: #000000; stroke-width: 0.6"/>
      </g>
     </g>
    </g>
    <g id="ytick_12">
     <g id="line2d_46">
      <g>
       <use xlink:href="#m1d03c69e0e" x="55.772054" y="417.831236" style="stroke: #000000; stroke-width: 0.6"/>
      </g>
     </g>
    </g>
    <g id="ytick_13">
     <g id="line2d_47">
      <g>
       <use xlink:href="#m1d03c69e0e" x="55.772054" y="374.629272" style="stroke: #000000; stroke-width: 0.6"/>
      </g>
     </g>
    </g>
    <g id="ytick_14">
     <g id="line2d_48">
      <g>
       <use xlink:href="#m1d03c69e0e" x="55.772054" y="352.692239" style="stroke: #000000; stroke-width: 0.6"/>
      </g>
     </g>
    </g>
    <g id="ytick_15">
     <g id="line2d_49">
      <g>
       <use xlink:href="#m1d03c69e0e" x="55.772054" y="337.127667" style="stroke: #000000; stroke-width: 0.6"/>
      </g>
     </g>
    </g>
    <g id="ytick_16">
     <g id="line2d_50">
      <g>
       <use xlink:href="#m1d03c69e0e" x="55.772054" y="325.054847" style="stroke: #000000; stroke-width: 0.6"/>
      </g>
     </g>
    </g>
    <g id="ytick_17">
     <g id="line2d_51">
      <g>
       <use xlink:href="#m1d03c69e0e" x="55.772054" y="315.190635" style="stroke: #000000; stroke-width: 0.6"/>
      </g>
     </g>
    </g>
    <g id="ytick_18">
     <g id="line2d_52">
      <g>
       <use xlink:href="#m1d03c69e0e" x="55.772054" y="306.850562" style="stroke: #000000; stroke-width: 0.6"/>
      </g>
     </g>
    </g>
    <g id="ytick_19">
     <g id="line2d_53">
      <g>
       <use xlink:href="#m1d03c69e0e" x="55.772054" y="299.626063" style="stroke: #000000; stroke-width: 0.6"/>
      </g>
     </g>
    </g>
    <g id="ytick_20">
     <g id="line2d_54">
      <g>
       <use xlink:href="#m1d03c69e0e" x="55.772054" y="293.253603" style="stroke: #000000; stroke-width: 0.6"/>
      </g>
     </g>
    </g>
    <g id="ytick_21">
     <g id="line2d_55">
      <g>
       <use xlink:href="#m1d03c69e0e" x="55.772054" y="250.051638" style="stroke: #000000; stroke-width: 0.6"/>
      </g>
     </g>
    </g>
    <g id="ytick_22">
     <g id="line2d_56">
      <g>
       <use xlink:href="#m1d03c69e0e" x="55.772054" y="228.114606" style="stroke: #000000; stroke-width: 0.6"/>
      </g>
     </g>
    </g>
    <g id="ytick_23">
     <g id="line2d_57">
      <g>
       <use xlink:href="#m1d03c69e0e" x="55.772054" y="212.550034" style="stroke: #000000; stroke-width: 0.6"/>
      </g>
     </g>
    </g>
    <g id="ytick_24">
     <g id="line2d_58">
      <g>
       <use xlink:href="#m1d03c69e0e" x="55.772054" y="200.477214" style="stroke: #000000; stroke-width: 0.6"/>
      </g>
     </g>
    </g>
    <g id="ytick_25">
     <g id="line2d_59">
      <g>
       <use xlink:href="#m1d03c69e0e" x="55.772054" y="190.613002" style="stroke: #000000; stroke-width: 0.6"/>
      </g>
     </g>
    </g>
    <g id="ytick_26">
     <g id="line2d_60">
      <g>
       <use xlink:href="#m1d03c69e0e" x="55.772054" y="182.272929" style="stroke: #000000; stroke-width: 0.6"/>
      </g>
     </g>
    </g>
    <g id="ytick_27">
     <g id="line2d_61">
      <g>
       <use xlink:href="#m1d03c69e0e" x="55.772054" y="175.04843" style="stroke: #000000; stroke-width: 0.6"/>
      </g>
     </g>
    </g>
    <g id="ytick_28">
     <g id="line2d_62">
      <g>
       <use xlink:href="#m1d03c69e0e" x="55.772054" y="168.67597" style="stroke: #000000; stroke-width: 0.6"/>
      </g>
     </g>
    </g>
    <g id="ytick_29">
     <g id="line2d_63">
      <g>
       <use xlink:href="#m1d03c69e0e" x="55.772054" y="125.474005" style="stroke: #000000; stroke-width: 0.6"/>
      </g>
     </g>
    </g>
    <g id="ytick_30">
     <g id="line2d_64">
      <g>
       <use xlink:href="#m1d03c69e0e" x="55.772054" y="103.536973" style="stroke: #000000; stroke-width: 0.6"/>
      </g>
     </g>
    </g>
    <g id="ytick_31">
     <g id="line2d_65">
      <g>
       <use xlink:href="#m1d03c69e0e" x="55.772054" y="87.972401" style="stroke: #000000; stroke-width: 0.6"/>
      </g>
     </g>
    </g>
    <g id="ytick_32">
     <g id="line2d_66">
      <g>
       <use xlink:href="#m1d03c69e0e" x="55.772054" y="75.899581" style="stroke: #000000; stroke-width: 0.6"/>
      </g>
     </g>
    </g>
    <g id="ytick_33">
     <g id="line2d_67">
      <g>
       <use xlink:href="#m1d03c69e0e" x="55.772054" y="66.035369" style="stroke: #000000; stroke-width: 0.6"/>
      </g>
     </g>
    </g>
    <g id="ytick_34">
     <g id="line2d_68">
      <g>
       <use xlink:href="#m1d03c69e0e" x="55.772054" y="57.695296" style="stroke: #000000; stroke-width: 0.6"/>
      </g>
     </g>
    </g>
    <g id="ytick_35">
     <g id="line2d_69">
      <g>
       <use xlink:href="#m1d03c69e0e" x="55.772054" y="50.470797" style="stroke: #000000; stroke-width: 0.6"/>
      </g>
     </g>
    </g>
    <g id="ytick_36">
     <g id="line2d_70">
      <g>
       <use xlink:href="#m1d03c69e0e" x="55.772054" y="44.098337" style="stroke: #000000; stroke-width: 0.6"/>
      </g>
     </g>
    </g>
    <g id="text_35">
     <!-- Calibration Error (%) -->
     <g transform="translate(19.192366 330.706237) rotate(-90) scale(0.1 -0.1)">
      <defs>
       <path id="DejaVuSans-43" d="M 4122 4306 
L 4122 3641 
Q 3803 3938 3442 4084 
Q 3081 4231 2675 4231 
Q 1875 4231 1450 3742 
Q 1025 3253 1025 2328 
Q 1025 1406 1450 917 
Q 1875 428 2675 428 
Q 3081 428 3442 575 
Q 3803 722 4122 1019 
L 4122 359 
Q 3791 134 3420 21 
Q 3050 -91 2638 -91 
Q 1578 -91 968 557 
Q 359 1206 359 2328 
Q 359 3453 968 4101 
Q 1578 4750 2638 4750 
Q 3056 4750 3426 4639 
Q 3797 4528 4122 4306 
z
" transform="scale(0.015625)"/>
       <path id="DejaVuSans-6c" d="M 603 4863 
L 1178 4863 
L 1178 0 
L 603 0 
L 603 4863 
z
" transform="scale(0.015625)"/>
       <path id="DejaVuSans-69" d="M 603 3500 
L 1178 3500 
L 1178 0 
L 603 0 
L 603 3500 
z
M 603 4863 
L 1178 4863 
L 1178 4134 
L 603 4134 
L 603 4863 
z
" transform="scale(0.015625)"/>
       <path id="DejaVuSans-74" d="M 1172 4494 
L 1172 3500 
L 2356 3500 
L 2356 3053 
L 1172 3053 
L 1172 1153 
Q 1172 725 1289 603 
Q 1406 481 1766 481 
L 2356 481 
L 2356 0 
L 1766 0 
Q 1100 0 847 248 
Q 594 497 594 1153 
L 594 3053 
L 172 3053 
L 172 3500 
L 594 3500 
L 594 4494 
L 1172 4494 
z
" transform="scale(0.015625)"/>
       <path id="DejaVuSans-6f" d="M 1959 3097 
Q 1497 3097 1228 2736 
Q 959 2375 959 1747 
Q 959 1119 1226 758 
Q 1494 397 1959 397 
Q 2419 397 2687 759 
Q 2956 1122 2956 1747 
Q 2956 2369 2687 2733 
Q 2419 3097 1959 3097 
z
M 1959 3584 
Q 2709 3584 3137 3096 
Q 3566 2609 3566 1747 
Q 3566 888 3137 398 
Q 2709 -91 1959 -91 
Q 1206 -91 779 398 
Q 353 888 353 1747 
Q 353 2609 779 3096 
Q 1206 3584 1959 3584 
z
" transform="scale(0.015625)"/>
       <path id="DejaVuSans-6e" d="M 3513 2113 
L 3513 0 
L 2938 0 
L 2938 2094 
Q 2938 2591 2744 2837 
Q 2550 3084 2163 3084 
Q 1697 3084 1428 2787 
Q 1159 2491 1159 1978 
L 1159 0 
L 581 0 
L 581 3500 
L 1159 3500 
L 1159 2956 
Q 1366 3272 1645 3428 
Q 1925 3584 2291 3584 
Q 2894 3584 3203 3211 
Q 3513 2838 3513 2113 
z
" transform="scale(0.015625)"/>
       <path id="DejaVuSans-20" transform="scale(0.015625)"/>
       <path id="DejaVuSans-45" d="M 628 4666 
L 3578 4666 
L 3578 4134 
L 1259 4134 
L 1259 2753 
L 3481 2753 
L 3481 2222 
L 1259 2222 
L 1259 531 
L 3634 531 
L 3634 0 
L 628 0 
L 628 4666 
z
" transform="scale(0.015625)"/>
       <path id="DejaVuSans-28" d="M 1984 4856 
Q 1566 4138 1362 3434 
Q 1159 2731 1159 2009 
Q 1159 1288 1364 580 
Q 1569 -128 1984 -844 
L 1484 -844 
Q 1016 -109 783 600 
Q 550 1309 550 2009 
Q 550 2706 781 3412 
Q 1013 4119 1484 4856 
L 1984 4856 
z
" transform="scale(0.015625)"/>
       <path id="DejaVuSans-25" d="M 4653 2053 
Q 4381 2053 4226 1822 
Q 4072 1591 4072 1178 
Q 4072 772 4226 539 
Q 4381 306 4653 306 
Q 4919 306 5073 539 
Q 5228 772 5228 1178 
Q 5228 1588 5073 1820 
Q 4919 2053 4653 2053 
z
M 4653 2450 
Q 5147 2450 5437 2106 
Q 5728 1763 5728 1178 
Q 5728 594 5436 251 
Q 5144 -91 4653 -91 
Q 4153 -91 3862 251 
Q 3572 594 3572 1178 
Q 3572 1766 3864 2108 
Q 4156 2450 4653 2450 
z
M 1428 4353 
Q 1159 4353 1004 4120 
Q 850 3888 850 3481 
Q 850 3069 1003 2837 
Q 1156 2606 1428 2606 
Q 1700 2606 1854 2837 
Q 2009 3069 2009 3481 
Q 2009 3884 1853 4118 
Q 1697 4353 1428 4353 
z
M 4250 4750 
L 4750 4750 
L 1831 -91 
L 1331 -91 
L 4250 4750 
z
M 1428 4750 
Q 1922 4750 2215 4408 
Q 2509 4066 2509 3481 
Q 2509 2891 2217 2550 
Q 1925 2209 1428 2209 
Q 931 2209 642 2551 
Q 353 2894 353 3481 
Q 353 4063 643 4406 
Q 934 4750 1428 4750 
z
" transform="scale(0.015625)"/>
       <path id="DejaVuSans-29" d="M 513 4856 
L 1013 4856 
Q 1481 4119 1714 3412 
Q 1947 2706 1947 2009 
Q 1947 1309 1714 600 
Q 1481 -109 1013 -844 
L 513 -844 
Q 928 -128 1133 580 
Q 1338 1288 1338 2009 
Q 1338 2731 1133 3434 
Q 928 4138 513 4856 
z
" transform="scale(0.015625)"/>
      </defs>
      <use xlink:href="#DejaVuSans-43"/>
      <use xlink:href="#DejaVuSans-61" transform="translate(69.824219 0)"/>
      <use xlink:href="#DejaVuSans-6c" transform="translate(131.103516 0)"/>
      <use xlink:href="#DejaVuSans-69" transform="translate(158.886719 0)"/>
      <use xlink:href="#DejaVuSans-62" transform="translate(186.669922 0)"/>
      <use xlink:href="#DejaVuSans-72" transform="translate(250.146484 0)"/>
      <use xlink:href="#DejaVuSans-61" transform="translate(291.259766 0)"/>
      <use xlink:href="#DejaVuSans-74" transform="translate(352.539062 0)"/>
      <use xlink:href="#DejaVuSans-69" transform="translate(391.748047 0)"/>
      <use xlink:href="#DejaVuSans-6f" transform="translate(419.53125 0)"/>
      <use xlink:href="#DejaVuSans-6e" transform="translate(480.712891 0)"/>
      <use xlink:href="#DejaVuSans-20" transform="translate(544.091797 0)"/>
      <use xlink:href="#DejaVuSans-45" transform="translate(575.878906 0)"/>
      <use xlink:href="#DejaVuSans-72" transform="translate(639.0625 0)"/>
      <use xlink:href="#DejaVuSans-72" transform="translate(678.425781 0)"/>
      <use xlink:href="#DejaVuSans-6f" transform="translate(717.289062 0)"/>
      <use xlink:href="#DejaVuSans-72" transform="translate(778.470703 0)"/>
      <use xlink:href="#DejaVuSans-20" transform="translate(819.583984 0)"/>
      <use xlink:href="#DejaVuSans-28" transform="translate(851.371094 0)"/>
      <use xlink:href="#DejaVuSans-25" transform="translate(890.384766 0)"/>
      <use xlink:href="#DejaVuSans-29" transform="translate(985.404297 0)"/>
     </g>
    </g>
   </g>
   <g id="patch_123">
    <path d="M 55.772054 532.09185 
L 55.772054 26.88 
" style="fill: none; stroke: #000000; stroke-width: 0.8; stroke-linejoin: miter; stroke-linecap: square"/>
   </g>
   <g id="patch_124">
    <path d="M 1573.2 532.09185 
L 1573.2 26.88 
" style="fill: none; stroke: #000000; stroke-width: 0.8; stroke-linejoin: miter; stroke-linecap: square"/>
   </g>
   <g id="patch_125">
    <path d="M 55.772054 532.09185 
L 1573.2 532.09185 
" style="fill: none; stroke: #000000; stroke-width: 0.8; stroke-linejoin: miter; stroke-linecap: square"/>
   </g>
   <g id="patch_126">
    <path d="M 55.772054 26.88 
L 1573.2 26.88 
" style="fill: none; stroke: #000000; stroke-width: 0.8; stroke-linejoin: miter; stroke-linecap: square"/>
   </g>
   <g id="text_36">
    <!-- Pruned (36/42/48 state, Upper Ka, No tGA, No rz) Calibration Accuracy -->
    <g transform="translate(603.028214 20.88) scale(0.12 -0.12)">
     <defs>
      <path id="DejaVuSans-50" d="M 1259 4147 
L 1259 2394 
L 2053 2394 
Q 2494 2394 2734 2622 
Q 2975 2850 2975 3272 
Q 2975 3691 2734 3919 
Q 2494 4147 2053 4147 
L 1259 4147 
z
M 628 4666 
L 2053 4666 
Q 2838 4666 3239 4311 
Q 3641 3956 3641 3272 
Q 3641 2581 3239 2228 
Q 2838 1875 2053 1875 
L 1259 1875 
L 1259 0 
L 628 0 
L 628 4666 
z
" transform="scale(0.015625)"/>
      <path id="DejaVuSans-75" d="M 544 1381 
L 544 3500 
L 1119 3500 
L 1119 1403 
Q 1119 906 1312 657 
Q 1506 409 1894 409 
Q 2359 409 2629 706 
Q 2900 1003 2900 1516 
L 2900 3500 
L 3475 3500 
L 3475 0 
L 2900 0 
L 2900 538 
Q 2691 219 2414 64 
Q 2138 -91 1772 -91 
Q 1169 -91 856 284 
Q 544 659 544 1381 
z
M 1991 3584 
L 1991 3584 
z
" transform="scale(0.015625)"/>
      <path id="DejaVuSans-33" d="M 2597 2516 
Q 3050 2419 3304 2112 
Q 3559 1806 3559 1356 
Q 3559 666 3084 287 
Q 2609 -91 1734 -91 
Q 1441 -91 1130 -33 
Q 819 25 488 141 
L 488 750 
Q 750 597 1062 519 
Q 1375 441 1716 441 
Q 2309 441 2620 675 
Q 2931 909 2931 1356 
Q 2931 1769 2642 2001 
Q 2353 2234 1838 2234 
L 1294 2234 
L 1294 2753 
L 1863 2753 
Q 2328 2753 2575 2939 
Q 2822 3125 2822 3475 
Q 2822 3834 2567 4026 
Q 2313 4219 1838 4219 
Q 1578 4219 1281 4162 
Q 984 4106 628 3988 
L 628 4550 
Q 988 4650 1302 4700 
Q 1616 4750 1894 4750 
Q 2613 4750 3031 4423 
Q 3450 4097 3450 3541 
Q 3450 3153 3228 2886 
Q 3006 2619 2597 2516 
z
" transform="scale(0.015625)"/>
      <path id="DejaVuSans-36" d="M 2113 2584 
Q 1688 2584 1439 2293 
Q 1191 2003 1191 1497 
Q 1191 994 1439 701 
Q 1688 409 2113 409 
Q 2538 409 2786 701 
Q 3034 994 3034 1497 
Q 3034 2003 2786 2293 
Q 2538 2584 2113 2584 
z
M 3366 4563 
L 3366 3988 
Q 3128 4100 2886 4159 
Q 2644 4219 2406 4219 
Q 1781 4219 1451 3797 
Q 1122 3375 1075 2522 
Q 1259 2794 1537 2939 
Q 1816 3084 2150 3084 
Q 2853 3084 3261 2657 
Q 3669 2231 3669 1497 
Q 3669 778 3244 343 
Q 2819 -91 2113 -91 
Q 1303 -91 875 529 
Q 447 1150 447 2328 
Q 447 3434 972 4092 
Q 1497 4750 2381 4750 
Q 2619 4750 2861 4703 
Q 3103 4656 3366 4563 
z
" transform="scale(0.015625)"/>
      <path id="DejaVuSans-2f" d="M 1625 4666 
L 2156 4666 
L 531 -594 
L 0 -594 
L 1625 4666 
z
" transform="scale(0.015625)"/>
      <path id="DejaVuSans-34" d="M 2419 4116 
L 825 1625 
L 2419 1625 
L 2419 4116 
z
M 2253 4666 
L 3047 4666 
L 3047 1625 
L 3713 1625 
L 3713 1100 
L 3047 1100 
L 3047 0 
L 2419 0 
L 2419 1100 
L 313 1100 
L 313 1709 
L 2253 4666 
z
" transform="scale(0.015625)"/>
      <path id="DejaVuSans-38" d="M 2034 2216 
Q 1584 2216 1326 1975 
Q 1069 1734 1069 1313 
Q 1069 891 1326 650 
Q 1584 409 2034 409 
Q 2484 409 2743 651 
Q 3003 894 3003 1313 
Q 3003 1734 2745 1975 
Q 2488 2216 2034 2216 
z
M 1403 2484 
Q 997 2584 770 2862 
Q 544 3141 544 3541 
Q 544 4100 942 4425 
Q 1341 4750 2034 4750 
Q 2731 4750 3128 4425 
Q 3525 4100 3525 3541 
Q 3525 3141 3298 2862 
Q 3072 2584 2669 2484 
Q 3125 2378 3379 2068 
Q 3634 1759 3634 1313 
Q 3634 634 3220 271 
Q 2806 -91 2034 -91 
Q 1263 -91 848 271 
Q 434 634 434 1313 
Q 434 1759 690 2068 
Q 947 2378 1403 2484 
z
M 1172 3481 
Q 1172 3119 1398 2916 
Q 1625 2713 2034 2713 
Q 2441 2713 2670 2916 
Q 2900 3119 2900 3481 
Q 2900 3844 2670 4047 
Q 2441 4250 2034 4250 
Q 1625 4250 1398 4047 
Q 1172 3844 1172 3481 
z
" transform="scale(0.015625)"/>
      <path id="DejaVuSans-73" d="M 2834 3397 
L 2834 2853 
Q 2591 2978 2328 3040 
Q 2066 3103 1784 3103 
Q 1356 3103 1142 2972 
Q 928 2841 928 2578 
Q 928 2378 1081 2264 
Q 1234 2150 1697 2047 
L 1894 2003 
Q 2506 1872 2764 1633 
Q 3022 1394 3022 966 
Q 3022 478 2636 193 
Q 2250 -91 1575 -91 
Q 1294 -91 989 -36 
Q 684 19 347 128 
L 347 722 
Q 666 556 975 473 
Q 1284 391 1588 391 
Q 1994 391 2212 530 
Q 2431 669 2431 922 
Q 2431 1156 2273 1281 
Q 2116 1406 1581 1522 
L 1381 1569 
Q 847 1681 609 1914 
Q 372 2147 372 2553 
Q 372 3047 722 3315 
Q 1072 3584 1716 3584 
Q 2034 3584 2315 3537 
Q 2597 3491 2834 3397 
z
" transform="scale(0.015625)"/>
      <path id="DejaVuSans-2c" d="M 750 794 
L 1409 794 
L 1409 256 
L 897 -744 
L 494 -744 
L 750 256 
L 750 794 
z
" transform="scale(0.015625)"/>
      <path id="DejaVuSans-55" d="M 556 4666 
L 1191 4666 
L 1191 1831 
Q 1191 1081 1462 751 
Q 1734 422 2344 422 
Q 2950 422 3222 751 
Q 3494 1081 3494 1831 
L 3494 4666 
L 4128 4666 
L 4128 1753 
Q 4128 841 3676 375 
Q 3225 -91 2344 -91 
Q 1459 -91 1007 375 
Q 556 841 556 1753 
L 556 4666 
z
" transform="scale(0.015625)"/>
      <path id="DejaVuSans-70" d="M 1159 525 
L 1159 -1331 
L 581 -1331 
L 581 3500 
L 1159 3500 
L 1159 2969 
Q 1341 3281 1617 3432 
Q 1894 3584 2278 3584 
Q 2916 3584 3314 3078 
Q 3713 2572 3713 1747 
Q 3713 922 3314 415 
Q 2916 -91 2278 -91 
Q 1894 -91 1617 61 
Q 1341 213 1159 525 
z
M 3116 1747 
Q 3116 2381 2855 2742 
Q 2594 3103 2138 3103 
Q 1681 3103 1420 2742 
Q 1159 2381 1159 1747 
Q 1159 1113 1420 752 
Q 1681 391 2138 391 
Q 2594 391 2855 752 
Q 3116 1113 3116 1747 
z
" transform="scale(0.015625)"/>
      <path id="DejaVuSans-4e" d="M 628 4666 
L 1478 4666 
L 3547 763 
L 3547 4666 
L 4159 4666 
L 4159 0 
L 3309 0 
L 1241 3903 
L 1241 0 
L 628 0 
L 628 4666 
z
" transform="scale(0.015625)"/>
      <path id="DejaVuSans-47" d="M 3809 666 
L 3809 1919 
L 2778 1919 
L 2778 2438 
L 4434 2438 
L 4434 434 
Q 4069 175 3628 42 
Q 3188 -91 2688 -91 
Q 1594 -91 976 548 
Q 359 1188 359 2328 
Q 359 3472 976 4111 
Q 1594 4750 2688 4750 
Q 3144 4750 3555 4637 
Q 3966 4525 4313 4306 
L 4313 3634 
Q 3963 3931 3569 4081 
Q 3175 4231 2741 4231 
Q 1884 4231 1454 3753 
Q 1025 3275 1025 2328 
Q 1025 1384 1454 906 
Q 1884 428 2741 428 
Q 3075 428 3337 486 
Q 3600 544 3809 666 
z
" transform="scale(0.015625)"/>
      <path id="DejaVuSans-41" d="M 2188 4044 
L 1331 1722 
L 3047 1722 
L 2188 4044 
z
M 1831 4666 
L 2547 4666 
L 4325 0 
L 3669 0 
L 3244 1197 
L 1141 1197 
L 716 0 
L 50 0 
L 1831 4666 
z
" transform="scale(0.015625)"/>
      <path id="DejaVuSans-63" d="M 3122 3366 
L 3122 2828 
Q 2878 2963 2633 3030 
Q 2388 3097 2138 3097 
Q 1578 3097 1268 2742 
Q 959 2388 959 1747 
Q 959 1106 1268 751 
Q 1578 397 2138 397 
Q 2388 397 2633 464 
Q 2878 531 3122 666 
L 3122 134 
Q 2881 22 2623 -34 
Q 2366 -91 2075 -91 
Q 1284 -91 818 406 
Q 353 903 353 1747 
Q 353 2603 823 3093 
Q 1294 3584 2113 3584 
Q 2378 3584 2631 3529 
Q 2884 3475 3122 3366 
z
" transform="scale(0.015625)"/>
     </defs>
     <use xlink:href="#DejaVuSans-50"/>
     <use xlink:href="#DejaVuSans-72" transform="translate(58.552734 0)"/>
     <use xlink:href="#DejaVuSans-75" transform="translate(99.666016 0)"/>
     <use xlink:href="#DejaVuSans-6e" transform="translate(163.044922 0)"/>
     <use xlink:href="#DejaVuSans-65" transform="translate(226.423828 0)"/>
     <use xlink:href="#DejaVuSans-64" transform="translate(287.947266 0)"/>
     <use xlink:href="#DejaVuSans-20" transform="translate(351.423828 0)"/>
     <use xlink:href="#DejaVuSans-28" transform="translate(383.210938 0)"/>
     <use xlink:href="#DejaVuSans-33" transform="translate(422.224609 0)"/>
     <use xlink:href="#DejaVuSans-36" transform="translate(485.847656 0)"/>
     <use xlink:href="#DejaVuSans-2f" transform="translate(549.470703 0)"/>
     <use xlink:href="#DejaVuSans-34" transform="translate(583.162109 0)"/>
     <use xlink:href="#DejaVuSans-32" transform="translate(646.785156 0)"/>
     <use xlink:href="#DejaVuSans-2f" transform="translate(710.408203 0)"/>
     <use xlink:href="#DejaVuSans-34" transform="translate(744.099609 0)"/>
     <use xlink:href="#DejaVuSans-38" transform="translate(807.722656 0)"/>
     <use xlink:href="#DejaVuSans-20" transform="translate(871.345703 0)"/>
     <use xlink:href="#DejaVuSans-73" transform="translate(903.132812 0)"/>
     <use xlink:href="#DejaVuSans-74" transform="translate(955.232422 0)"/>
     <use xlink:href="#DejaVuSans-61" transform="translate(994.441406 0)"/>
     <use xlink:href="#DejaVuSans-74" transform="translate(1055.720703 0)"/>
     <use xlink:href="#DejaVuSans-65" transform="translate(1094.929688 0)"/>
     <use xlink:href="#DejaVuSans-2c" transform="translate(1156.453125 0)"/>
     <use xlink:href="#DejaVuSans-20" transform="translate(1188.240234 0)"/>
     <use xlink:href="#DejaVuSans-55" transform="translate(1220.027344 0)"/>
     <use xlink:href="#DejaVuSans-70" transform="translate(1293.220703 0)"/>
     <use xlink:href="#DejaVuSans-70" transform="translate(1356.697266 0)"/>
     <use xlink:href="#DejaVuSans-65" transform="translate(1420.173828 0)"/>
     <use xlink:href="#DejaVuSans-72" transform="translate(1481.697266 0)"/>
     <use xlink:href="#DejaVuSans-20" transform="translate(1522.810547 0)"/>
     <use xlink:href="#DejaVuSans-4b" transform="translate(1554.597656 0)"/>
     <use xlink:href="#DejaVuSans-61" transform="translate(1618.423828 0)"/>
     <use xlink:href="#DejaVuSans-2c" transform="translate(1679.703125 0)"/>
     <use xlink:href="#DejaVuSans-20" transform="translate(1711.490234 0)"/>
     <use xlink:href="#DejaVuSans-4e" transform="translate(1743.277344 0)"/>
     <use xlink:href="#DejaVuSans-6f" transform="translate(1818.082031 0)"/>
     <use xlink:href="#DejaVuSans-20" transform="translate(1879.263672 0)"/>
     <use xlink:href="#DejaVuSans-74" transform="translate(1911.050781 0)"/>
     <use xlink:href="#DejaVuSans-47" transform="translate(1950.259766 0)"/>
     <use xlink:href="#DejaVuSans-41" transform="translate(2027.75 0)"/>
     <use xlink:href="#DejaVuSans-2c" transform="translate(2096.158203 0)"/>
     <use xlink:href="#DejaVuSans-20" transform="translate(2127.945312 0)"/>
     <use xlink:href="#DejaVuSans-4e" transform="translate(2159.732422 0)"/>
     <use xlink:href="#DejaVuSans-6f" transform="translate(2234.537109 0)"/>
     <use xlink:href="#DejaVuSans-20" transform="translate(2295.71875 0)"/>
     <use xlink:href="#DejaVuSans-72" transform="translate(2327.505859 0)"/>
     <use xlink:href="#DejaVuSans-7a" transform="translate(2368.619141 0)"/>
     <use xlink:href="#DejaVuSans-29" transform="translate(2421.109375 0)"/>
     <use xlink:href="#DejaVuSans-20" transform="translate(2460.123047 0)"/>
     <use xlink:href="#DejaVuSans-43" transform="translate(2491.910156 0)"/>
     <use xlink:href="#DejaVuSans-61" transform="translate(2561.734375 0)"/>
     <use xlink:href="#DejaVuSans-6c" transform="translate(2623.013672 0)"/>
     <use xlink:href="#DejaVuSans-69" transform="translate(2650.796875 0)"/>
     <use xlink:href="#DejaVuSans-62" transform="translate(2678.580078 0)"/>
     <use xlink:href="#DejaVuSans-72" transform="translate(2742.056641 0)"/>
     <use xlink:href="#DejaVuSans-61" transform="translate(2783.169922 0)"/>
     <use xlink:href="#DejaVuSans-74" transform="translate(2844.449219 0)"/>
     <use xlink:href="#DejaVuSans-69" transform="translate(2883.658203 0)"/>
     <use xlink:href="#DejaVuSans-6f" transform="translate(2911.441406 0)"/>
     <use xlink:href="#DejaVuSans-6e" transform="translate(2972.623047 0)"/>
     <use xlink:href="#DejaVuSans-20" transform="translate(3036.001953 0)"/>
     <use xlink:href="#DejaVuSans-41" transform="translate(3067.789062 0)"/>
     <use xlink:href="#DejaVuSans-63" transform="translate(3134.447266 0)"/>
     <use xlink:href="#DejaVuSans-63" transform="translate(3189.427734 0)"/>
     <use xlink:href="#DejaVuSans-75" transform="translate(3244.408203 0)"/>
     <use xlink:href="#DejaVuSans-72" transform="translate(3307.787109 0)"/>
     <use xlink:href="#DejaVuSans-61" transform="translate(3348.900391 0)"/>
     <use xlink:href="#DejaVuSans-63" transform="translate(3410.179688 0)"/>
     <use xlink:href="#DejaVuSans-79" transform="translate(3465.160156 0)"/>
    </g>
   </g>
   <g id="legend_1">
    <g id="patch_127">
     <path d="M 1485.9675 86.92125 
L 1566.9 86.92125 
Q 1568.7 86.92125 1568.7 85.12125 
L 1568.7 33.18 
Q 1568.7 31.38 1566.9 31.38 
L 1485.9675 31.38 
Q 1484.1675 31.38 1484.1675 33.18 
L 1484.1675 85.12125 
Q 1484.1675 86.92125 1485.9675 86.92125 
z
" style="fill: #ffffff; opacity: 0.8; stroke: #cccccc; stroke-linejoin: miter"/>
    </g>
    <g id="patch_128">
     <path d="M 1487.7675 41.818594 
L 1505.7675 41.818594 
L 1505.7675 35.518594 
L 1487.7675 35.518594 
z
" style="fill: #4682b4; opacity: 0.85"/>
    </g>
    <g id="text_37">
     <!-- A: Clean-36 -->
     <g transform="translate(1512.9675 41.818594) scale(0.09 -0.09)">
      <defs>
       <path id="DejaVuSans-3a" d="M 750 794 
L 1409 794 
L 1409 0 
L 750 0 
L 750 794 
z
M 750 3309 
L 1409 3309 
L 1409 2516 
L 750 2516 
L 750 3309 
z
" transform="scale(0.015625)"/>
       <path id="DejaVuSans-2d" d="M 313 2009 
L 1997 2009 
L 1997 1497 
L 313 1497 
L 313 2009 
z
" transform="scale(0.015625)"/>
      </defs>
      <use xlink:href="#DejaVuSans-41"/>
      <use xlink:href="#DejaVuSans-3a" transform="translate(66.658203 0)"/>
      <use xlink:href="#DejaVuSans-20" transform="translate(100.349609 0)"/>
      <use xlink:href="#DejaVuSans-43" transform="translate(132.136719 0)"/>
      <use xlink:href="#DejaVuSans-6c" transform="translate(201.960938 0)"/>
      <use xlink:href="#DejaVuSans-65" transform="translate(229.744141 0)"/>
      <use xlink:href="#DejaVuSans-61" transform="translate(291.267578 0)"/>
      <use xlink:href="#DejaVuSans-6e" transform="translate(352.546875 0)"/>
      <use xlink:href="#DejaVuSans-2d" transform="translate(415.925781 0)"/>
      <use xlink:href="#DejaVuSans-33" transform="translate(452.009766 0)"/>
      <use xlink:href="#DejaVuSans-36" transform="translate(515.632812 0)"/>
     </g>
    </g>
    <g id="patch_129">
     <path d="M 1487.7675 55.028906 
L 1505.7675 55.028906 
L 1505.7675 48.728906 
L 1487.7675 48.728906 
z
" style="fill: #ff6347; opacity: 0.85"/>
    </g>
    <g id="text_38">
     <!-- B: 36-state -->
     <g transform="translate(1512.9675 55.028906) scale(0.09 -0.09)">
      <defs>
       <path id="DejaVuSans-42" d="M 1259 2228 
L 1259 519 
L 2272 519 
Q 2781 519 3026 730 
Q 3272 941 3272 1375 
Q 3272 1813 3026 2020 
Q 2781 2228 2272 2228 
L 1259 2228 
z
M 1259 4147 
L 1259 2741 
L 2194 2741 
Q 2656 2741 2882 2914 
Q 3109 3088 3109 3444 
Q 3109 3797 2882 3972 
Q 2656 4147 2194 4147 
L 1259 4147 
z
M 628 4666 
L 2241 4666 
Q 2963 4666 3353 4366 
Q 3744 4066 3744 3513 
Q 3744 3084 3544 2831 
Q 3344 2578 2956 2516 
Q 3422 2416 3680 2098 
Q 3938 1781 3938 1306 
Q 3938 681 3513 340 
Q 3088 0 2303 0 
L 628 0 
L 628 4666 
z
" transform="scale(0.015625)"/>
      </defs>
      <use xlink:href="#DejaVuSans-42"/>
      <use xlink:href="#DejaVuSans-3a" transform="translate(68.603516 0)"/>
      <use xlink:href="#DejaVuSans-20" transform="translate(102.294922 0)"/>
      <use xlink:href="#DejaVuSans-33" transform="translate(134.082031 0)"/>
      <use xlink:href="#DejaVuSans-36" transform="translate(197.705078 0)"/>
      <use xlink:href="#DejaVuSans-2d" transform="translate(261.328125 0)"/>
      <use xlink:href="#DejaVuSans-73" transform="translate(297.412109 0)"/>
      <use xlink:href="#DejaVuSans-74" transform="translate(349.511719 0)"/>
      <use xlink:href="#DejaVuSans-61" transform="translate(388.720703 0)"/>
      <use xlink:href="#DejaVuSans-74" transform="translate(450 0)"/>
      <use xlink:href="#DejaVuSans-65" transform="translate(489.208984 0)"/>
     </g>
    </g>
    <g id="patch_130">
     <path d="M 1487.7675 68.239219 
L 1505.7675 68.239219 
L 1505.7675 61.939219 
L 1487.7675 61.939219 
z
" style="fill: #228b22; opacity: 0.85"/>
    </g>
    <g id="text_39">
     <!-- C: 42-GM1 -->
     <g transform="translate(1512.9675 68.239219) scale(0.09 -0.09)">
      <defs>
       <path id="DejaVuSans-4d" d="M 628 4666 
L 1569 4666 
L 2759 1491 
L 3956 4666 
L 4897 4666 
L 4897 0 
L 4281 0 
L 4281 4097 
L 3078 897 
L 2444 897 
L 1241 4097 
L 1241 0 
L 628 0 
L 628 4666 
z
" transform="scale(0.015625)"/>
      </defs>
      <use xlink:href="#DejaVuSans-43"/>
      <use xlink:href="#DejaVuSans-3a" transform="translate(69.824219 0)"/>
      <use xlink:href="#DejaVuSans-20" transform="translate(103.515625 0)"/>
      <use xlink:href="#DejaVuSans-34" transform="translate(135.302734 0)"/>
      <use xlink:href="#DejaVuSans-32" transform="translate(198.925781 0)"/>
      <use xlink:href="#DejaVuSans-2d" transform="translate(262.548828 0)"/>
      <use xlink:href="#DejaVuSans-47" transform="translate(302.257812 0)"/>
      <use xlink:href="#DejaVuSans-4d" transform="translate(379.748047 0)"/>
      <use xlink:href="#DejaVuSans-31" transform="translate(466.027344 0)"/>
     </g>
    </g>
    <g id="patch_131">
     <path d="M 1487.7675 81.449531 
L 1505.7675 81.449531 
L 1505.7675 75.149531 
L 1487.7675 75.149531 
z
" style="fill: #ff8c00; opacity: 0.85"/>
    </g>
    <g id="text_40">
     <!-- D: 48-GM2 -->
     <g transform="translate(1512.9675 81.449531) scale(0.09 -0.09)">
      <defs>
       <path id="DejaVuSans-44" d="M 1259 4147 
L 1259 519 
L 2022 519 
Q 2988 519 3436 956 
Q 3884 1394 3884 2338 
Q 3884 3275 3436 3711 
Q 2988 4147 2022 4147 
L 1259 4147 
z
M 628 4666 
L 1925 4666 
Q 3281 4666 3915 4102 
Q 4550 3538 4550 2338 
Q 4550 1131 3912 565 
Q 3275 0 1925 0 
L 628 0 
L 628 4666 
z
" transform="scale(0.015625)"/>
      </defs>
      <use xlink:href="#DejaVuSans-44"/>
      <use xlink:href="#DejaVuSans-3a" transform="translate(77.001953 0)"/>
      <use xlink:href="#DejaVuSans-20" transform="translate(110.693359 0)"/>
      <use xlink:href="#DejaVuSans-34" transform="translate(142.480469 0)"/>
      <use xlink:href="#DejaVuSans-38" transform="translate(206.103516 0)"/>
      <use xlink:href="#DejaVuSans-2d" transform="translate(269.726562 0)"/>
      <use xlink:href="#DejaVuSans-47" transform="translate(309.435547 0)"/>
      <use xlink:href="#DejaVuSans-4d" transform="translate(386.925781 0)"/>
      <use xlink:href="#DejaVuSans-32" transform="translate(473.205078 0)"/>
     </g>
    </g>
   </g>
  </g>
 </g>
 <defs>
  <clipPath id="p61a667eeb1">
   <rect x="55.772054" y="26.88" width="1517.427946" height="505.21185"/>
  </clipPath>
 </defs>
</svg>
