<?xml version="1.0" encoding="utf-8" standalone="no"?>
<!DOCTYPE svg PUBLIC "-//W3C//DTD SVG 1.1//EN"
  "http://www.w3.org/Graphics/SVG/1.1/DTD/svg11.dtd">
<svg xmlns:xlink="http://www.w3.org/1999/xlink" width="864pt" height="576pt" viewBox="0 0 864 576" xmlns="http://www.w3.org/2000/svg" version="1.1">
 <metadata>
  <rdf:RDF xmlns:dc="http://purl.org/dc/elements/1.1/" xmlns:cc="http://creativecommons.org/ns#" xmlns:rdf="http://www.w3.org/1999/02/22-rdf-syntax-ns#">
   <cc:Work>
    <dc:type rdf:resource="http://purl.org/dc/dcmitype/StillImage"/>
    <dc:date>2026-03-25T09:38:09.576733</dc:date>
    <dc:format>image/svg+xml</dc:format>
    <dc:creator>
     <cc:Agent>
      <dc:title>Matplotlib v3.10.8, https://matplotlib.org/</dc:title>
     </cc:Agent>
    </dc:creator>
   </cc:Work>
  </rdf:RDF>
 </metadata>
 <defs>
  <style type="text/css">*{stroke-linejoin: round; stroke-linecap: butt}</style>
 </defs>
 <g id="figure_1">
  <g id="patch_1">
   <path d="M 0 576 
L 864 576 
L 864 0 
L 0 0 
z
" style="fill: #ffffff"/>
  </g>
  <g id="axes_1">
   <g id="patch_2">
    <path d="M 58.84 265.52 
L 853.2 265.52 
L 853.2 26.88 
L 58.84 26.88 
z
" style="fill: #ffffff"/>
   </g>
   <g id="matplotlib.axis_1">
    <g id="xtick_1">
     <g id="line2d_1">
      <path d="M 94.947273 265.52 
L 94.947273 26.88 
" clip-path="url(#p7629e2fcc7)" style="fill: none; stroke: #b0b0b0; stroke-width: 0.8; stroke-linecap: square"/>
     </g>
     <g id="line2d_2">
      <defs>
       <path id="m48c1f9faa9" d="M 0 0 
L 0 3.5 
" style="stroke: #000000; stroke-width: 0.8"/>
      </defs>
      <g>
       <use xlink:href="#m48c1f9faa9" x="94.947273" y="265.52" style="stroke: #000000; stroke-width: 0.8"/>
      </g>
     </g>
     <g id="text_1">
      <!-- 0 -->
      <g transform="translate(91.766023 280.118437) scale(0.1 -0.1)">
       <defs>
        <path id="DejaVuSans-30" d="M 2034 4250 
Q 1547 4250 1301 3770 
Q 1056 3291 1056 2328 
Q 1056 1369 1301 889 
Q 1547 409 2034 409 
Q 2525 409 2770 889 
Q 3016 1369 3016 2328 
Q 3016 3291 2770 3770 
Q 2525 4250 2034 4250 
z
M 2034 4750 
Q 2819 4750 3233 4129 
Q 3647 3509 3647 2328 
Q 3647 1150 3233 529 
Q 2819 -91 2034 -91 
Q 1250 -91 836 529 
Q 422 1150 422 2328 
Q 422 3509 836 4129 
Q 1250 4750 2034 4750 
z
" transform="scale(0.015625)"/>
       </defs>
       <use xlink:href="#DejaVuSans-30"/>
      </g>
     </g>
    </g>
    <g id="xtick_2">
     <g id="line2d_3">
      <path d="M 217.719366 265.52 
L 217.719366 26.88 
" clip-path="url(#p7629e2fcc7)" style="fill: none; stroke: #b0b0b0; stroke-width: 0.8; stroke-linecap: square"/>
     </g>
     <g id="line2d_4">
      <g>
       <use xlink:href="#m48c1f9faa9" x="217.719366" y="265.52" style="stroke: #000000; stroke-width: 0.8"/>
      </g>
     </g>
     <g id="text_2">
      <!-- 50 -->
      <g transform="translate(211.356866 280.118437) scale(0.1 -0.1)">
       <defs>
        <path id="DejaVuSans-35" d="M 691 4666 
L 3169 4666 
L 3169 4134 
L 1269 4134 
L 1269 2991 
Q 1406 3038 1543 3061 
Q 1681 3084 1819 3084 
Q 2600 3084 3056 2656 
Q 3513 2228 3513 1497 
Q 3513 744 3044 326 
Q 2575 -91 1722 -91 
Q 1428 -91 1123 -41 
Q 819 9 494 109 
L 494 744 
Q 775 591 1075 516 
Q 1375 441 1709 441 
Q 2250 441 2565 725 
Q 2881 1009 2881 1497 
Q 2881 1984 2565 2268 
Q 2250 2553 1709 2553 
Q 1456 2553 1204 2497 
Q 953 2441 691 2322 
L 691 4666 
z
" transform="scale(0.015625)"/>
       </defs>
       <use xlink:href="#DejaVuSans-35"/>
       <use xlink:href="#DejaVuSans-30" transform="translate(63.623047 0)"/>
      </g>
     </g>
    </g>
    <g id="xtick_3">
     <g id="line2d_5">
      <path d="M 340.49146 265.52 
L 340.49146 26.88 
" clip-path="url(#p7629e2fcc7)" style="fill: none; stroke: #b0b0b0; stroke-width: 0.8; stroke-linecap: square"/>
     </g>
     <g id="line2d_6">
      <g>
       <use xlink:href="#m48c1f9faa9" x="340.49146" y="265.52" style="stroke: #000000; stroke-width: 0.8"/>
      </g>
     </g>
     <g id="text_3">
      <!-- 100 -->
      <g transform="translate(330.94771 280.118437) scale(0.1 -0.1)">
       <defs>
        <path id="DejaVuSans-31" d="M 794 531 
L 1825 531 
L 1825 4091 
L 703 3866 
L 703 4441 
L 1819 4666 
L 2450 4666 
L 2450 531 
L 3481 531 
L 3481 0 
L 794 0 
L 794 531 
z
" transform="scale(0.015625)"/>
       </defs>
       <use xlink:href="#DejaVuSans-31"/>
       <use xlink:href="#DejaVuSans-30" transform="translate(63.623047 0)"/>
       <use xlink:href="#DejaVuSans-30" transform="translate(127.246094 0)"/>
      </g>
     </g>
    </g>
    <g id="xtick_4">
     <g id="line2d_7">
      <path d="M 463.263554 265.52 
L 463.263554 26.88 
" clip-path="url(#p7629e2fcc7)" style="fill: none; stroke: #b0b0b0; stroke-width: 0.8; stroke-linecap: square"/>
     </g>
     <g id="line2d_8">
      <g>
       <use xlink:href="#m48c1f9faa9" x="463.263554" y="265.52" style="stroke: #000000; stroke-width: 0.8"/>
      </g>
     </g>
     <g id="text_4">
      <!-- 150 -->
      <g transform="translate(453.719804 280.118437) scale(0.1 -0.1)">
       <use xlink:href="#DejaVuSans-31"/>
       <use xlink:href="#DejaVuSans-35" transform="translate(63.623047 0)"/>
       <use xlink:href="#DejaVuSans-30" transform="translate(127.246094 0)"/>
      </g>
     </g>
    </g>
    <g id="xtick_5">
     <g id="line2d_9">
      <path d="M 586.035647 265.52 
L 586.035647 26.88 
" clip-path="url(#p7629e2fcc7)" style="fill: none; stroke: #b0b0b0; stroke-width: 0.8; stroke-linecap: square"/>
     </g>
     <g id="line2d_10">
      <g>
       <use xlink:href="#m48c1f9faa9" x="586.035647" y="265.52" style="stroke: #000000; stroke-width: 0.8"/>
      </g>
     </g>
     <g id="text_5">
      <!-- 200 -->
      <g transform="translate(576.491897 280.118437) scale(0.1 -0.1)">
       <defs>
        <path id="DejaVuSans-32" d="M 1228 531 
L 3431 531 
L 3431 0 
L 469 0 
L 469 531 
Q 828 903 1448 1529 
Q 2069 2156 2228 2338 
Q 2531 2678 2651 2914 
Q 2772 3150 2772 3378 
Q 2772 3750 2511 3984 
Q 2250 4219 1831 4219 
Q 1534 4219 1204 4116 
Q 875 4013 500 3803 
L 500 4441 
Q 881 4594 1212 4672 
Q 1544 4750 1819 4750 
Q 2544 4750 2975 4387 
Q 3406 4025 3406 3419 
Q 3406 3131 3298 2873 
Q 3191 2616 2906 2266 
Q 2828 2175 2409 1742 
Q 1991 1309 1228 531 
z
" transform="scale(0.015625)"/>
       </defs>
       <use xlink:href="#DejaVuSans-32"/>
       <use xlink:href="#DejaVuSans-30" transform="translate(63.623047 0)"/>
       <use xlink:href="#DejaVuSans-30" transform="translate(127.246094 0)"/>
      </g>
     </g>
    </g>
    <g id="xtick_6">
     <g id="line2d_11">
      <path d="M 708.807741 265.52 
L 708.807741 26.88 
" clip-path="url(#p7629e2fcc7)" style="fill: none; stroke: #b0b0b0; stroke-width: 0.8; stroke-linecap: square"/>
     </g>
     <g id="line2d_12">
      <g>
       <use xlink:href="#m48c1f9faa9" x="708.807741" y="265.52" style="stroke: #000000; stroke-width: 0.8"/>
      </g>
     </g>
     <g id="text_6">
      <!-- 250 -->
      <g transform="translate(699.263991 280.118437) scale(0.1 -0.1)">
       <use xlink:href="#DejaVuSans-32"/>
       <use xlink:href="#DejaVuSans-35" transform="translate(63.623047 0)"/>
       <use xlink:href="#DejaVuSans-30" transform="translate(127.246094 0)"/>
      </g>
     </g>
    </g>
    <g id="xtick_7">
     <g id="line2d_13">
      <path d="M 831.579834 265.52 
L 831.579834 26.88 
" clip-path="url(#p7629e2fcc7)" style="fill: none; stroke: #b0b0b0; stroke-width: 0.8; stroke-linecap: square"/>
     </g>
     <g id="line2d_14">
      <g>
       <use xlink:href="#m48c1f9faa9" x="831.579834" y="265.52" style="stroke: #000000; stroke-width: 0.8"/>
      </g>
     </g>
     <g id="text_7">
      <!-- 300 -->
      <g transform="translate(822.036084 280.118437) scale(0.1 -0.1)">
       <defs>
        <path id="DejaVuSans-33" d="M 2597 2516 
Q 3050 2419 3304 2112 
Q 3559 1806 3559 1356 
Q 3559 666 3084 287 
Q 2609 -91 1734 -91 
Q 1441 -91 1130 -33 
Q 819 25 488 141 
L 488 750 
Q 750 597 1062 519 
Q 1375 441 1716 441 
Q 2309 441 2620 675 
Q 2931 909 2931 1356 
Q 2931 1769 2642 2001 
Q 2353 2234 1838 2234 
L 1294 2234 
L 1294 2753 
L 1863 2753 
Q 2328 2753 2575 2939 
Q 2822 3125 2822 3475 
Q 2822 3834 2567 4026 
Q 2313 4219 1838 4219 
Q 1578 4219 1281 4162 
Q 984 4106 628 3988 
L 628 4550 
Q 988 4650 1302 4700 
Q 1616 4750 1894 4750 
Q 2613 4750 3031 4423 
Q 3450 4097 3450 3541 
Q 3450 3153 3228 2886 
Q 3006 2619 2597 2516 
z
" transform="scale(0.015625)"/>
       </defs>
       <use xlink:href="#DejaVuSans-33"/>
       <use xlink:href="#DejaVuSans-30" transform="translate(63.623047 0)"/>
       <use xlink:href="#DejaVuSans-30" transform="translate(127.246094 0)"/>
      </g>
     </g>
    </g>
   </g>
   <g id="matplotlib.axis_2">
    <g id="ytick_1">
     <g id="line2d_15">
      <path d="M 58.84 254.672727 
L 853.2 254.672727 
" clip-path="url(#p7629e2fcc7)" style="fill: none; stroke: #b0b0b0; stroke-width: 0.8; stroke-linecap: square"/>
     </g>
     <g id="line2d_16">
      <defs>
       <path id="m345f2f06f8" d="M 0 0 
L -3.5 0 
" style="stroke: #000000; stroke-width: 0.8"/>
      </defs>
      <g>
       <use xlink:href="#m345f2f06f8" x="58.84" y="254.672727" style="stroke: #000000; stroke-width: 0.8"/>
      </g>
     </g>
     <g id="text_8">
      <!-- 0.00000 -->
      <g transform="translate(10.486875 258.471946) scale(0.1 -0.1)">
       <defs>
        <path id="DejaVuSans-2e" d="M 684 794 
L 1344 794 
L 1344 0 
L 684 0 
L 684 794 
z
" transform="scale(0.015625)"/>
       </defs>
       <use xlink:href="#DejaVuSans-30"/>
       <use xlink:href="#DejaVuSans-2e" transform="translate(63.623047 0)"/>
       <use xlink:href="#DejaVuSans-30" transform="translate(95.410156 0)"/>
       <use xlink:href="#DejaVuSans-30" transform="translate(159.033203 0)"/>
       <use xlink:href="#DejaVuSans-30" transform="translate(222.65625 0)"/>
       <use xlink:href="#DejaVuSans-30" transform="translate(286.279297 0)"/>
       <use xlink:href="#DejaVuSans-30" transform="translate(349.902344 0)"/>
      </g>
     </g>
    </g>
    <g id="ytick_2">
     <g id="line2d_17">
      <path d="M 58.84 211.283636 
L 853.2 211.283636 
" clip-path="url(#p7629e2fcc7)" style="fill: none; stroke: #b0b0b0; stroke-width: 0.8; stroke-linecap: square"/>
     </g>
     <g id="line2d_18">
      <g>
       <use xlink:href="#m345f2f06f8" x="58.84" y="211.283636" style="stroke: #000000; stroke-width: 0.8"/>
      </g>
     </g>
     <g id="text_9">
      <!-- 0.00002 -->
      <g transform="translate(10.486875 215.082854) scale(0.1 -0.1)">
       <use xlink:href="#DejaVuSans-30"/>
       <use xlink:href="#DejaVuSans-2e" transform="translate(63.623047 0)"/>
       <use xlink:href="#DejaVuSans-30" transform="translate(95.410156 0)"/>
       <use xlink:href="#DejaVuSans-30" transform="translate(159.033203 0)"/>
       <use xlink:href="#DejaVuSans-30" transform="translate(222.65625 0)"/>
       <use xlink:href="#DejaVuSans-30" transform="translate(286.279297 0)"/>
       <use xlink:href="#DejaVuSans-32" transform="translate(349.902344 0)"/>
      </g>
     </g>
    </g>
    <g id="ytick_3">
     <g id="line2d_19">
      <path d="M 58.84 167.894544 
L 853.2 167.894544 
" clip-path="url(#p7629e2fcc7)" style="fill: none; stroke: #b0b0b0; stroke-width: 0.8; stroke-linecap: square"/>
     </g>
     <g id="line2d_20">
      <g>
       <use xlink:href="#m345f2f06f8" x="58.84" y="167.894544" style="stroke: #000000; stroke-width: 0.8"/>
      </g>
     </g>
     <g id="text_10">
      <!-- 0.00004 -->
      <g transform="translate(10.486875 171.693763) scale(0.1 -0.1)">
       <defs>
        <path id="DejaVuSans-34" d="M 2419 4116 
L 825 1625 
L 2419 1625 
L 2419 4116 
z
M 2253 4666 
L 3047 4666 
L 3047 1625 
L 3713 1625 
L 3713 1100 
L 3047 1100 
L 3047 0 
L 2419 0 
L 2419 1100 
L 313 1100 
L 313 1709 
L 2253 4666 
z
" transform="scale(0.015625)"/>
       </defs>
       <use xlink:href="#DejaVuSans-30"/>
       <use xlink:href="#DejaVuSans-2e" transform="translate(63.623047 0)"/>
       <use xlink:href="#DejaVuSans-30" transform="translate(95.410156 0)"/>
       <use xlink:href="#DejaVuSans-30" transform="translate(159.033203 0)"/>
       <use xlink:href="#DejaVuSans-30" transform="translate(222.65625 0)"/>
       <use xlink:href="#DejaVuSans-30" transform="translate(286.279297 0)"/>
       <use xlink:href="#DejaVuSans-34" transform="translate(349.902344 0)"/>
      </g>
     </g>
    </g>
    <g id="ytick_4">
     <g id="line2d_21">
      <path d="M 58.84 124.505452 
L 853.2 124.505452 
" clip-path="url(#p7629e2fcc7)" style="fill: none; stroke: #b0b0b0; stroke-width: 0.8; stroke-linecap: square"/>
     </g>
     <g id="line2d_22">
      <g>
       <use xlink:href="#m345f2f06f8" x="58.84" y="124.505452" style="stroke: #000000; stroke-width: 0.8"/>
      </g>
     </g>
     <g id="text_11">
      <!-- 0.00006 -->
      <g transform="translate(10.486875 128.304671) scale(0.1 -0.1)">
       <defs>
        <path id="DejaVuSans-36" d="M 2113 2584 
Q 1688 2584 1439 2293 
Q 1191 2003 1191 1497 
Q 1191 994 1439 701 
Q 1688 409 2113 409 
Q 2538 409 2786 701 
Q 3034 994 3034 1497 
Q 3034 2003 2786 2293 
Q 2538 2584 2113 2584 
z
M 3366 4563 
L 3366 3988 
Q 3128 4100 2886 4159 
Q 2644 4219 2406 4219 
Q 1781 4219 1451 3797 
Q 1122 3375 1075 2522 
Q 1259 2794 1537 2939 
Q 1816 3084 2150 3084 
Q 2853 3084 3261 2657 
Q 3669 2231 3669 1497 
Q 3669 778 3244 343 
Q 2819 -91 2113 -91 
Q 1303 -91 875 529 
Q 447 1150 447 2328 
Q 447 3434 972 4092 
Q 1497 4750 2381 4750 
Q 2619 4750 2861 4703 
Q 3103 4656 3366 4563 
z
" transform="scale(0.015625)"/>
       </defs>
       <use xlink:href="#DejaVuSans-30"/>
       <use xlink:href="#DejaVuSans-2e" transform="translate(63.623047 0)"/>
       <use xlink:href="#DejaVuSans-30" transform="translate(95.410156 0)"/>
       <use xlink:href="#DejaVuSans-30" transform="translate(159.033203 0)"/>
       <use xlink:href="#DejaVuSans-30" transform="translate(222.65625 0)"/>
       <use xlink:href="#DejaVuSans-30" transform="translate(286.279297 0)"/>
       <use xlink:href="#DejaVuSans-36" transform="translate(349.902344 0)"/>
      </g>
     </g>
    </g>
    <g id="ytick_5">
     <g id="line2d_23">
      <path d="M 58.84 81.11636 
L 853.2 81.11636 
" clip-path="url(#p7629e2fcc7)" style="fill: none; stroke: #b0b0b0; stroke-width: 0.8; stroke-linecap: square"/>
     </g>
     <g id="line2d_24">
      <g>
       <use xlink:href="#m345f2f06f8" x="58.84" y="81.11636" style="stroke: #000000; stroke-width: 0.8"/>
      </g>
     </g>
     <g id="text_12">
      <!-- 0.00008 -->
      <g transform="translate(10.486875 84.915579) scale(0.1 -0.1)">
       <defs>
        <path id="DejaVuSans-38" d="M 2034 2216 
Q 1584 2216 1326 1975 
Q 1069 1734 1069 1313 
Q 1069 891 1326 650 
Q 1584 409 2034 409 
Q 2484 409 2743 651 
Q 3003 894 3003 1313 
Q 3003 1734 2745 1975 
Q 2488 2216 2034 2216 
z
M 1403 2484 
Q 997 2584 770 2862 
Q 544 3141 544 3541 
Q 544 4100 942 4425 
Q 1341 4750 2034 4750 
Q 2731 4750 3128 4425 
Q 3525 4100 3525 3541 
Q 3525 3141 3298 2862 
Q 3072 2584 2669 2484 
Q 3125 2378 3379 2068 
Q 3634 1759 3634 1313 
Q 3634 634 3220 271 
Q 2806 -91 2034 -91 
Q 1263 -91 848 271 
Q 434 634 434 1313 
Q 434 1759 690 2068 
Q 947 2378 1403 2484 
z
M 1172 3481 
Q 1172 3119 1398 2916 
Q 1625 2713 2034 2713 
Q 2441 2713 2670 2916 
Q 2900 3119 2900 3481 
Q 2900 3844 2670 4047 
Q 2441 4250 2034 4250 
Q 1625 4250 1398 4047 
Q 1172 3844 1172 3481 
z
" transform="scale(0.015625)"/>
       </defs>
       <use xlink:href="#DejaVuSans-30"/>
       <use xlink:href="#DejaVuSans-2e" transform="translate(63.623047 0)"/>
       <use xlink:href="#DejaVuSans-30" transform="translate(95.410156 0)"/>
       <use xlink:href="#DejaVuSans-30" transform="translate(159.033203 0)"/>
       <use xlink:href="#DejaVuSans-30" transform="translate(222.65625 0)"/>
       <use xlink:href="#DejaVuSans-30" transform="translate(286.279297 0)"/>
       <use xlink:href="#DejaVuSans-38" transform="translate(349.902344 0)"/>
      </g>
     </g>
    </g>
    <g id="ytick_6">
     <g id="line2d_25">
      <path d="M 58.84 37.727269 
L 853.2 37.727269 
" clip-path="url(#p7629e2fcc7)" style="fill: none; stroke: #b0b0b0; stroke-width: 0.8; stroke-linecap: square"/>
     </g>
     <g id="line2d_26">
      <g>
       <use xlink:href="#m345f2f06f8" x="58.84" y="37.727269" style="stroke: #000000; stroke-width: 0.8"/>
      </g>
     </g>
     <g id="text_13">
      <!-- 0.00010 -->
      <g transform="translate(10.486875 41.526487) scale(0.1 -0.1)">
       <use xlink:href="#DejaVuSans-30"/>
       <use xlink:href="#DejaVuSans-2e" transform="translate(63.623047 0)"/>
       <use xlink:href="#DejaVuSans-30" transform="translate(95.410156 0)"/>
       <use xlink:href="#DejaVuSans-30" transform="translate(159.033203 0)"/>
       <use xlink:href="#DejaVuSans-30" transform="translate(222.65625 0)"/>
       <use xlink:href="#DejaVuSans-31" transform="translate(286.279297 0)"/>
       <use xlink:href="#DejaVuSans-30" transform="translate(349.902344 0)"/>
      </g>
     </g>
    </g>
   </g>
   <g id="line2d_27">
    <path d="M 94.947273 37.727273 
L 95.094599 38.727219 
L 95.389252 38.785698 
L 99.514395 38.79467 
L 114.296155 38.795101 
L 114.590808 42.027589 
L 114.836352 42.467393 
L 115.229223 42.601688 
L 116.456944 42.674589 
L 123.037528 42.700603 
L 138.605029 42.705028 
L 138.752356 158.373238 
L 139.341662 188.399418 
L 139.734532 196.589699 
L 140.225621 202.21857 
L 140.765818 205.902833 
L 141.355124 208.492665 
L 142.042648 210.524144 
L 142.77928 212.035755 
L 143.614131 213.261245 
L 144.596307 214.301434 
L 145.725811 215.168416 
L 147.100858 215.932286 
L 148.083035 216.292705 
L 150.636694 216.292705 
L 150.784021 216.586437 
L 152.159068 216.768326 
L 156.529755 216.813638 
L 163.012121 216.934246 
L 166.056869 217.740498 
L 169.101617 218.253387 
L 172.391909 218.592406 
L 186.73169 218.613551 
L 186.879016 218.726417 
L 197.584743 219.441904 
L 198.763355 219.441904 
L 198.910682 235.673095 
L 199.107117 237.626141 
L 199.352661 237.955986 
L 199.794641 238.075831 
L 201.267906 238.142608 
L 210.009279 238.170456 
L 211.138782 238.279461 
L 212.808483 238.29889 
L 222.826685 238.300567 
L 222.974012 238.585287 
L 225.674998 238.624089 
L 234.858351 238.628114 
L 235.005677 238.836009 
L 242.715765 238.854106 
L 282.985011 238.891084 
L 283.132338 239.150039 
L 289.516487 240.333623 
L 292.806779 240.67526 
L 306.999233 240.778472 
L 307.244777 240.821778 
L 317.704959 241.585228 
L 331.062563 241.60322 
L 331.20989 241.737873 
L 335.629685 242.251517 
L 335.678794 37.727273 
L 335.777012 38.653775 
L 335.973447 38.776722 
L 337.397603 38.793813 
L 355.027676 38.79533 
L 355.322329 42.029742 
L 355.567873 42.469498 
L 355.960744 42.603791 
L 357.188465 42.676838 
L 363.769049 42.703519 
L 379.33655 42.707202 
L 379.483877 158.298681 
L 380.073183 188.268922 
L 380.466054 196.429286 
L 380.957142 202.031986 
L 381.497339 205.695942 
L 382.086645 208.269664 
L 382.774169 210.28727 
L 383.510802 211.787762 
L 384.345652 213.003687 
L 385.327829 214.03534 
L 386.457332 214.894894 
L 387.832379 215.651971 
L 388.863665 216.009102 
L 391.368216 216.009102 
L 391.515542 216.306864 
L 392.890589 216.481795 
L 397.359494 216.525902 
L 403.792751 216.654727 
L 406.493737 217.378262 
L 409.440268 217.893909 
L 412.926995 218.285079 
L 427.463211 218.309607 
L 427.610538 218.424559 
L 438.316264 219.132989 
L 439.494876 219.132989 
L 439.642203 235.599459 
L 439.838638 237.591719 
L 440.084182 237.928585 
L 440.526162 238.051013 
L 441.999427 238.119238 
L 450.593473 238.14769 
L 451.870303 238.258549 
L 453.540004 238.278473 
L 463.558207 238.280212 
L 463.705533 238.571626 
L 466.35741 238.611098 
L 475.589872 238.615282 
L 475.737198 238.826488 
L 483.349068 238.844897 
L 523.716532 238.883121 
L 523.863859 239.144223 
L 530.198899 240.324239 
L 533.5383 240.673402 
L 547.730754 240.778203 
L 547.976298 240.821513 
L 558.43648 241.585483 
L 571.794084 241.603515 
L 571.941411 241.737968 
L 576.361206 242.251654 
L 576.410315 37.727273 
L 576.508533 38.653779 
L 576.704968 38.776726 
L 578.129124 38.793817 
L 595.759197 38.795334 
L 596.05385 42.031101 
L 596.299394 42.47061 
L 596.692265 42.604881 
L 597.919986 42.678231 
L 604.50057 42.706979 
L 620.068071 42.709161 
L 620.215398 158.323058 
L 620.804704 188.271073 
L 621.197575 196.431193 
L 621.688663 202.035158 
L 622.22886 205.700609 
L 622.818166 208.275729 
L 623.50569 210.294659 
L 624.242323 211.796292 
L 625.077173 213.013269 
L 626.05935 214.045938 
L 627.188853 214.906475 
L 628.5639 215.664589 
L 629.595186 216.022299 
L 632.099737 216.022299 
L 632.247063 216.316876 
L 633.622111 216.492852 
L 638.091015 216.537152 
L 644.475164 216.652988 
L 647.519912 217.454873 
L 650.56466 217.964721 
L 653.854952 218.301754 
L 668.194732 218.327632 
L 668.342059 218.443729 
L 679.047785 219.151286 
L 680.226397 219.151286 
L 680.373724 235.600272 
L 680.570159 237.591988 
L 680.815703 237.928779 
L 681.257683 238.051182 
L 682.730948 238.119392 
L 691.324995 238.147842 
L 692.552716 238.254472 
L 693.731328 238.279627 
L 704.289728 238.282357 
L 704.437054 238.571854 
L 707.088931 238.611378 
L 716.321393 238.615466 
L 716.468719 238.82654 
L 724.080589 238.844948 
L 764.448054 238.883172 
L 764.59538 239.144363 
L 770.93042 240.324387 
L 774.269821 240.673541 
L 788.462275 240.778221 
L 788.707819 240.821526 
L 799.168002 241.58551 
L 812.525605 241.603552 
L 812.672932 241.73804 
L 817.092727 242.251674 
L 817.092727 242.251674 
" clip-path="url(#p7629e2fcc7)" style="fill: none; stroke: #0000ff; stroke-opacity: 0.8; stroke-width: 1.5; stroke-linecap: square"/>
   </g>
   <g id="line2d_28">
    <path d="M 94.947273 37.727273 
L 95.094599 38.727201 
L 95.389252 38.785708 
L 99.514395 38.794663 
L 114.296155 38.79509 
L 114.590808 42.027593 
L 114.836352 42.467273 
L 115.229223 42.601607 
L 116.407835 42.673385 
L 122.693766 42.700573 
L 138.605029 42.705168 
L 138.752356 158.383093 
L 139.341662 188.406817 
L 139.734532 196.599354 
L 140.225621 202.229534 
L 140.765818 205.915476 
L 141.355124 208.507066 
L 142.042648 210.540736 
L 142.77928 212.052874 
L 143.614131 213.279512 
L 144.596307 214.320695 
L 145.725811 215.18966 
L 147.100858 215.954115 
L 148.132144 216.314492 
L 150.636694 216.314492 
L 150.784021 216.608736 
L 152.159068 216.790883 
L 156.529755 216.835982 
L 163.012121 216.956913 
L 166.056869 217.766327 
L 169.052508 218.275945 
L 172.342801 218.625474 
L 186.73169 218.646588 
L 186.879016 218.762184 
L 197.535634 219.497404 
L 198.763355 219.497404 
L 198.910682 235.68783 
L 199.107117 237.632731 
L 199.352661 237.961392 
L 199.794641 238.080827 
L 201.267906 238.147349 
L 210.107497 238.175112 
L 211.138782 238.283852 
L 212.808483 238.303217 
L 222.826685 238.304894 
L 222.974012 238.588396 
L 225.674998 238.627097 
L 234.858351 238.631107 
L 235.005677 238.838581 
L 242.666656 238.856652 
L 282.985011 238.893399 
L 283.132338 239.151817 
L 289.565595 240.341163 
L 292.806779 240.675889 
L 306.999233 240.778741 
L 307.244777 240.822045 
L 317.704959 241.585271 
L 331.062563 241.603249 
L 331.20989 241.737951 
L 335.629685 242.251634 
L 335.678794 37.727273 
L 335.777012 38.653767 
L 335.973447 38.776728 
L 337.397603 38.793818 
L 355.027676 38.79533 
L 355.322329 42.029572 
L 355.567873 42.469152 
L 355.960744 42.603481 
L 357.139356 42.675412 
L 363.376178 42.703269 
L 379.33655 42.707111 
L 379.483877 158.282223 
L 380.073183 188.227273 
L 380.466054 196.380116 
L 380.957142 201.975845 
L 381.497339 205.635138 
L 382.086645 208.205614 
L 382.774169 210.221111 
L 383.510802 211.718682 
L 384.345652 212.932792 
L 385.327829 213.962795 
L 386.457332 214.82203 
L 387.832379 215.577577 
L 388.863665 215.93364 
L 391.368216 215.93364 
L 391.515542 216.231161 
L 392.890589 216.406043 
L 397.359494 216.449861 
L 403.743643 216.563889 
L 406.78839 217.364851 
L 409.78403 217.869068 
L 413.074322 218.214845 
L 427.463211 218.239308 
L 427.610538 218.355965 
L 438.316264 219.082045 
L 439.494876 219.082045 
L 439.642203 235.588949 
L 439.838638 237.586558 
L 440.084182 237.924663 
L 440.526162 238.047574 
L 441.999427 238.116042 
L 450.593473 238.144618 
L 451.821194 238.250487 
L 453.048915 238.27496 
L 463.558207 238.277598 
L 463.705533 238.570082 
L 466.35741 238.609721 
L 475.589872 238.61392 
L 475.737198 238.825994 
L 483.299959 238.8445 
L 523.716532 238.882842 
L 523.863859 239.144064 
L 530.198899 240.324095 
L 533.5383 240.673261 
L 547.730754 240.778164 
L 547.976298 240.821475 
L 558.43648 241.585357 
L 571.794084 241.603391 
L 571.941411 241.737842 
L 576.361206 242.251601 
L 576.410315 37.727273 
L 576.508533 38.65377 
L 576.704968 38.776731 
L 578.129124 38.793821 
L 595.759197 38.795333 
L 596.05385 42.03097 
L 596.299394 42.470247 
L 596.692265 42.604564 
L 597.870877 42.676807 
L 604.156808 42.706716 
L 620.068071 42.70911 
L 620.215398 158.307496 
L 620.804704 188.229493 
L 621.197575 196.381959 
L 621.688663 201.978878 
L 622.22886 205.639624 
L 622.818166 208.211471 
L 623.50569 210.228262 
L 624.242323 211.726953 
L 625.077173 212.94209 
L 626.05935 213.97309 
L 627.188853 214.833273 
L 628.5639 215.589821 
L 629.595186 215.946445 
L 632.099737 215.946445 
L 632.247063 216.240741 
L 633.622111 216.416685 
L 638.091015 216.460762 
L 644.475164 216.57657 
L 647.519912 217.379441 
L 650.515551 217.884636 
L 653.805843 218.231133 
L 668.194732 218.256855 
L 668.342059 218.37484 
L 679.047785 219.099909 
L 680.226397 219.099909 
L 680.373724 235.589732 
L 680.570159 237.586822 
L 680.815703 237.924856 
L 681.257683 238.047742 
L 682.730948 238.116197 
L 691.324995 238.14477 
L 692.552716 238.251746 
L 693.731328 238.276968 
L 704.289728 238.279713 
L 704.437054 238.5703 
L 707.088931 238.609995 
L 716.321393 238.6141 
L 716.468719 238.826058 
L 724.03148 238.844561 
L 764.448054 238.8829 
L 764.59538 239.144208 
L 770.93042 240.324248 
L 774.269821 240.673403 
L 788.462275 240.778182 
L 788.707819 240.821487 
L 799.168002 241.58538 
L 812.525605 241.603424 
L 812.672932 241.737911 
L 817.092727 242.251619 
L 817.092727 242.251619 
" clip-path="url(#p7629e2fcc7)" style="fill: none; stroke-dasharray: 7.4,3.2; stroke-dashoffset: 0; stroke: #ff0000; stroke-width: 2"/>
   </g>
   <g id="line2d_29">
    <path d="M 94.947273 37.727273 
L 95.094599 38.727201 
L 95.389252 38.785708 
L 96.125885 38.792678 
L 96.960735 117.458295 
L 97.648259 164.8324 
L 98.237565 191.611002 
L 98.87598 210.851979 
L 99.514395 223.77291 
L 100.201918 233.247888 
L 100.889442 239.724591 
L 101.576966 244.203607 
L 102.26449 247.322744 
L 102.952013 249.504273 
L 103.688646 251.124266 
L 104.425278 252.234347 
L 105.21102 253.037423 
L 106.094979 253.628798 
L 107.175373 254.069205 
L 108.550421 254.372049 
L 110.563883 254.564236 
L 113.510413 254.615291 
L 335.629685 254.672727 
L 335.678794 37.727273 
L 335.777012 38.653795 
L 335.973447 38.776759 
L 336.857406 38.792949 
L 337.692256 117.45939 
L 338.37978 164.833864 
L 338.969086 191.611964 
L 339.607501 210.852442 
L 340.245916 223.773088 
L 340.933439 233.247921 
L 341.620963 239.724566 
L 342.308487 244.203564 
L 342.996011 247.3227 
L 343.683534 249.504235 
L 344.420167 251.124235 
L 345.156799 252.234324 
L 345.942541 253.037406 
L 346.8265 253.628786 
L 347.906894 254.069197 
L 349.281942 254.372045 
L 351.295404 254.564235 
L 354.241934 254.61529 
L 576.361206 254.672727 
L 576.410315 37.727273 
L 576.508533 38.653793 
L 576.704968 38.776757 
L 577.588927 38.792947 
L 578.423777 117.459384 
L 579.111301 164.833872 
L 579.700607 191.611988 
L 580.339022 210.852475 
L 580.977437 223.773122 
L 581.664961 233.247952 
L 582.352484 239.724592 
L 583.040008 244.203586 
L 583.727532 247.322717 
L 584.415055 249.504248 
L 585.151688 251.124245 
L 585.888321 252.234331 
L 586.674062 253.037411 
L 587.558021 253.628789 
L 588.638416 254.069199 
L 590.013463 254.372046 
L 592.026925 254.564235 
L 594.973456 254.61529 
L 817.092727 254.672727 
L 817.092727 254.672727 
" clip-path="url(#p7629e2fcc7)" style="fill: none; stroke: #008000; stroke-opacity: 0.6; stroke-width: 2; stroke-linecap: square"/>
   </g>
   <g id="line2d_30">
    <path d="M 335.678794 265.52 
L 335.678794 26.88 
" clip-path="url(#p7629e2fcc7)" style="fill: none; stroke-dasharray: 1.5,2.475; stroke-dashoffset: 0; stroke: #808080; stroke-opacity: 0.8; stroke-width: 1.5"/>
   </g>
   <g id="line2d_31">
    <path d="M 576.410315 265.52 
L 576.410315 26.88 
" clip-path="url(#p7629e2fcc7)" style="fill: none; stroke-dasharray: 1.5,2.475; stroke-dashoffset: 0; stroke: #808080; stroke-opacity: 0.8; stroke-width: 1.5"/>
   </g>
   <g id="patch_3">
    <path d="M 58.84 265.52 
L 58.84 26.88 
" style="fill: none; stroke: #000000; stroke-width: 0.8; stroke-linejoin: miter; stroke-linecap: square"/>
   </g>
   <g id="patch_4">
    <path d="M 853.2 265.52 
L 853.2 26.88 
" style="fill: none; stroke: #000000; stroke-width: 0.8; stroke-linejoin: miter; stroke-linecap: square"/>
   </g>
   <g id="patch_5">
    <path d="M 58.84 265.52 
L 853.2 265.52 
" style="fill: none; stroke: #000000; stroke-width: 0.8; stroke-linejoin: miter; stroke-linecap: square"/>
   </g>
   <g id="patch_6">
    <path d="M 58.84 26.88 
L 853.2 26.88 
" style="fill: none; stroke: #000000; stroke-width: 0.8; stroke-linejoin: miter; stroke-linecap: square"/>
   </g>
   <g id="text_14">
    <!-- [21] Ka_xx  —  Uncertainty (std dev) -->
    <g transform="translate(346.671875 20.88) scale(0.12 -0.12)">
     <defs>
      <path id="DejaVuSans-5b" d="M 550 4863 
L 1875 4863 
L 1875 4416 
L 1125 4416 
L 1125 -397 
L 1875 -397 
L 1875 -844 
L 550 -844 
L 550 4863 
z
" transform="scale(0.015625)"/>
      <path id="DejaVuSans-5d" d="M 1947 4863 
L 1947 -844 
L 622 -844 
L 622 -397 
L 1369 -397 
L 1369 4416 
L 622 4416 
L 622 4863 
L 1947 4863 
z
" transform="scale(0.015625)"/>
      <path id="DejaVuSans-20" transform="scale(0.015625)"/>
      <path id="DejaVuSans-4b" d="M 628 4666 
L 1259 4666 
L 1259 2694 
L 3353 4666 
L 4166 4666 
L 1850 2491 
L 4331 0 
L 3500 0 
L 1259 2247 
L 1259 0 
L 628 0 
L 628 4666 
z
" transform="scale(0.015625)"/>
      <path id="DejaVuSans-61" d="M 2194 1759 
Q 1497 1759 1228 1600 
Q 959 1441 959 1056 
Q 959 750 1161 570 
Q 1363 391 1709 391 
Q 2188 391 2477 730 
Q 2766 1069 2766 1631 
L 2766 1759 
L 2194 1759 
z
M 3341 1997 
L 3341 0 
L 2766 0 
L 2766 531 
Q 2569 213 2275 61 
Q 1981 -91 1556 -91 
Q 1019 -91 701 211 
Q 384 513 384 1019 
Q 384 1609 779 1909 
Q 1175 2209 1959 2209 
L 2766 2209 
L 2766 2266 
Q 2766 2663 2505 2880 
Q 2244 3097 1772 3097 
Q 1472 3097 1187 3025 
Q 903 2953 641 2809 
L 641 3341 
Q 956 3463 1253 3523 
Q 1550 3584 1831 3584 
Q 2591 3584 2966 3190 
Q 3341 2797 3341 1997 
z
" transform="scale(0.015625)"/>
      <path id="DejaVuSans-5f" d="M 3263 -1063 
L 3263 -1509 
L -63 -1509 
L -63 -1063 
L 3263 -1063 
z
" transform="scale(0.015625)"/>
      <path id="DejaVuSans-78" d="M 3513 3500 
L 2247 1797 
L 3578 0 
L 2900 0 
L 1881 1375 
L 863 0 
L 184 0 
L 1544 1831 
L 300 3500 
L 978 3500 
L 1906 2253 
L 2834 3500 
L 3513 3500 
z
" transform="scale(0.015625)"/>
      <path id="DejaVuSans-2014" d="M 313 1978 
L 6088 1978 
L 6088 1528 
L 313 1528 
L 313 1978 
z
" transform="scale(0.015625)"/>
      <path id="DejaVuSans-55" d="M 556 4666 
L 1191 4666 
L 1191 1831 
Q 1191 1081 1462 751 
Q 1734 422 2344 422 
Q 2950 422 3222 751 
Q 3494 1081 3494 1831 
L 3494 4666 
L 4128 4666 
L 4128 1753 
Q 4128 841 3676 375 
Q 3225 -91 2344 -91 
Q 1459 -91 1007 375 
Q 556 841 556 1753 
L 556 4666 
z
" transform="scale(0.015625)"/>
      <path id="DejaVuSans-6e" d="M 3513 2113 
L 3513 0 
L 2938 0 
L 2938 2094 
Q 2938 2591 2744 2837 
Q 2550 3084 2163 3084 
Q 1697 3084 1428 2787 
Q 1159 2491 1159 1978 
L 1159 0 
L 581 0 
L 581 3500 
L 1159 3500 
L 1159 2956 
Q 1366 3272 1645 3428 
Q 1925 3584 2291 3584 
Q 2894 3584 3203 3211 
Q 3513 2838 3513 2113 
z
" transform="scale(0.015625)"/>
      <path id="DejaVuSans-63" d="M 3122 3366 
L 3122 2828 
Q 2878 2963 2633 3030 
Q 2388 3097 2138 3097 
Q 1578 3097 1268 2742 
Q 959 2388 959 1747 
Q 959 1106 1268 751 
Q 1578 397 2138 397 
Q 2388 397 2633 464 
Q 2878 531 3122 666 
L 3122 134 
Q 2881 22 2623 -34 
Q 2366 -91 2075 -91 
Q 1284 -91 818 406 
Q 353 903 353 1747 
Q 353 2603 823 3093 
Q 1294 3584 2113 3584 
Q 2378 3584 2631 3529 
Q 2884 3475 3122 3366 
z
" transform="scale(0.015625)"/>
      <path id="DejaVuSans-65" d="M 3597 1894 
L 3597 1613 
L 953 1613 
Q 991 1019 1311 708 
Q 1631 397 2203 397 
Q 2534 397 2845 478 
Q 3156 559 3463 722 
L 3463 178 
Q 3153 47 2828 -22 
Q 2503 -91 2169 -91 
Q 1331 -91 842 396 
Q 353 884 353 1716 
Q 353 2575 817 3079 
Q 1281 3584 2069 3584 
Q 2775 3584 3186 3129 
Q 3597 2675 3597 1894 
z
M 3022 2063 
Q 3016 2534 2758 2815 
Q 2500 3097 2075 3097 
Q 1594 3097 1305 2825 
Q 1016 2553 972 2059 
L 3022 2063 
z
" transform="scale(0.015625)"/>
      <path id="DejaVuSans-72" d="M 2631 2963 
Q 2534 3019 2420 3045 
Q 2306 3072 2169 3072 
Q 1681 3072 1420 2755 
Q 1159 2438 1159 1844 
L 1159 0 
L 581 0 
L 581 3500 
L 1159 3500 
L 1159 2956 
Q 1341 3275 1631 3429 
Q 1922 3584 2338 3584 
Q 2397 3584 2469 3576 
Q 2541 3569 2628 3553 
L 2631 2963 
z
" transform="scale(0.015625)"/>
      <path id="DejaVuSans-74" d="M 1172 4494 
L 1172 3500 
L 2356 3500 
L 2356 3053 
L 1172 3053 
L 1172 1153 
Q 1172 725 1289 603 
Q 1406 481 1766 481 
L 2356 481 
L 2356 0 
L 1766 0 
Q 1100 0 847 248 
Q 594 497 594 1153 
L 594 3053 
L 172 3053 
L 172 3500 
L 594 3500 
L 594 4494 
L 1172 4494 
z
" transform="scale(0.015625)"/>
      <path id="DejaVuSans-69" d="M 603 3500 
L 1178 3500 
L 1178 0 
L 603 0 
L 603 3500 
z
M 603 4863 
L 1178 4863 
L 1178 4134 
L 603 4134 
L 603 4863 
z
" transform="scale(0.015625)"/>
      <path id="DejaVuSans-79" d="M 2059 -325 
Q 1816 -950 1584 -1140 
Q 1353 -1331 966 -1331 
L 506 -1331 
L 506 -850 
L 844 -850 
Q 1081 -850 1212 -737 
Q 1344 -625 1503 -206 
L 1606 56 
L 191 3500 
L 800 3500 
L 1894 763 
L 2988 3500 
L 3597 3500 
L 2059 -325 
z
" transform="scale(0.015625)"/>
      <path id="DejaVuSans-28" d="M 1984 4856 
Q 1566 4138 1362 3434 
Q 1159 2731 1159 2009 
Q 1159 1288 1364 580 
Q 1569 -128 1984 -844 
L 1484 -844 
Q 1016 -109 783 600 
Q 550 1309 550 2009 
Q 550 2706 781 3412 
Q 1013 4119 1484 4856 
L 1984 4856 
z
" transform="scale(0.015625)"/>
      <path id="DejaVuSans-73" d="M 2834 3397 
L 2834 2853 
Q 2591 2978 2328 3040 
Q 2066 3103 1784 3103 
Q 1356 3103 1142 2972 
Q 928 2841 928 2578 
Q 928 2378 1081 2264 
Q 1234 2150 1697 2047 
L 1894 2003 
Q 2506 1872 2764 1633 
Q 3022 1394 3022 966 
Q 3022 478 2636 193 
Q 2250 -91 1575 -91 
Q 1294 -91 989 -36 
Q 684 19 347 128 
L 347 722 
Q 666 556 975 473 
Q 1284 391 1588 391 
Q 1994 391 2212 530 
Q 2431 669 2431 922 
Q 2431 1156 2273 1281 
Q 2116 1406 1581 1522 
L 1381 1569 
Q 847 1681 609 1914 
Q 372 2147 372 2553 
Q 372 3047 722 3315 
Q 1072 3584 1716 3584 
Q 2034 3584 2315 3537 
Q 2597 3491 2834 3397 
z
" transform="scale(0.015625)"/>
      <path id="DejaVuSans-64" d="M 2906 2969 
L 2906 4863 
L 3481 4863 
L 3481 0 
L 2906 0 
L 2906 525 
Q 2725 213 2448 61 
Q 2172 -91 1784 -91 
Q 1150 -91 751 415 
Q 353 922 353 1747 
Q 353 2572 751 3078 
Q 1150 3584 1784 3584 
Q 2172 3584 2448 3432 
Q 2725 3281 2906 2969 
z
M 947 1747 
Q 947 1113 1208 752 
Q 1469 391 1925 391 
Q 2381 391 2643 752 
Q 2906 1113 2906 1747 
Q 2906 2381 2643 2742 
Q 2381 3103 1925 3103 
Q 1469 3103 1208 2742 
Q 947 2381 947 1747 
z
" transform="scale(0.015625)"/>
      <path id="DejaVuSans-76" d="M 191 3500 
L 800 3500 
L 1894 563 
L 2988 3500 
L 3597 3500 
L 2284 0 
L 1503 0 
L 191 3500 
z
" transform="scale(0.015625)"/>
      <path id="DejaVuSans-29" d="M 513 4856 
L 1013 4856 
Q 1481 4119 1714 3412 
Q 1947 2706 1947 2009 
Q 1947 1309 1714 600 
Q 1481 -109 1013 -844 
L 513 -844 
Q 928 -128 1133 580 
Q 1338 1288 1338 2009 
Q 1338 2731 1133 3434 
Q 928 4138 513 4856 
z
" transform="scale(0.015625)"/>
     </defs>
     <use xlink:href="#DejaVuSans-5b"/>
     <use xlink:href="#DejaVuSans-32" transform="translate(39.013672 0)"/>
     <use xlink:href="#DejaVuSans-31" transform="translate(102.636719 0)"/>
     <use xlink:href="#DejaVuSans-5d" transform="translate(166.259766 0)"/>
     <use xlink:href="#DejaVuSans-20" transform="translate(205.273438 0)"/>
     <use xlink:href="#DejaVuSans-4b" transform="translate(237.060547 0)"/>
     <use xlink:href="#DejaVuSans-61" transform="translate(300.886719 0)"/>
     <use xlink:href="#DejaVuSans-5f" transform="translate(362.166016 0)"/>
     <use xlink:href="#DejaVuSans-78" transform="translate(412.166016 0)"/>
     <use xlink:href="#DejaVuSans-78" transform="translate(471.345703 0)"/>
     <use xlink:href="#DejaVuSans-20" transform="translate(530.525391 0)"/>
     <use xlink:href="#DejaVuSans-20" transform="translate(562.3125 0)"/>
     <use xlink:href="#DejaVuSans-2014" transform="translate(594.099609 0)"/>
     <use xlink:href="#DejaVuSans-20" transform="translate(694.099609 0)"/>
     <use xlink:href="#DejaVuSans-20" transform="translate(725.886719 0)"/>
     <use xlink:href="#DejaVuSans-55" transform="translate(757.673828 0)"/>
     <use xlink:href="#DejaVuSans-6e" transform="translate(830.867188 0)"/>
     <use xlink:href="#DejaVuSans-63" transform="translate(894.246094 0)"/>
     <use xlink:href="#DejaVuSans-65" transform="translate(949.226562 0)"/>
     <use xlink:href="#DejaVuSans-72" transform="translate(1010.75 0)"/>
     <use xlink:href="#DejaVuSans-74" transform="translate(1051.863281 0)"/>
     <use xlink:href="#DejaVuSans-61" transform="translate(1091.072266 0)"/>
     <use xlink:href="#DejaVuSans-69" transform="translate(1152.351562 0)"/>
     <use xlink:href="#DejaVuSans-6e" transform="translate(1180.134766 0)"/>
     <use xlink:href="#DejaVuSans-74" transform="translate(1243.513672 0)"/>
     <use xlink:href="#DejaVuSans-79" transform="translate(1282.722656 0)"/>
     <use xlink:href="#DejaVuSans-20" transform="translate(1341.902344 0)"/>
     <use xlink:href="#DejaVuSans-28" transform="translate(1373.689453 0)"/>
     <use xlink:href="#DejaVuSans-73" transform="translate(1412.703125 0)"/>
     <use xlink:href="#DejaVuSans-74" transform="translate(1464.802734 0)"/>
     <use xlink:href="#DejaVuSans-64" transform="translate(1504.011719 0)"/>
     <use xlink:href="#DejaVuSans-20" transform="translate(1567.488281 0)"/>
     <use xlink:href="#DejaVuSans-64" transform="translate(1599.275391 0)"/>
     <use xlink:href="#DejaVuSans-65" transform="translate(1662.751953 0)"/>
     <use xlink:href="#DejaVuSans-76" transform="translate(1724.275391 0)"/>
     <use xlink:href="#DejaVuSans-29" transform="translate(1783.455078 0)"/>
    </g>
   </g>
   <g id="legend_1">
    <g id="patch_7">
     <path d="M 739.1625 78.914375 
L 846.2 78.914375 
Q 848.2 78.914375 848.2 76.914375 
L 848.2 33.88 
Q 848.2 31.88 846.2 31.88 
L 739.1625 31.88 
Q 737.1625 31.88 737.1625 33.88 
L 737.1625 76.914375 
Q 737.1625 78.914375 739.1625 78.914375 
z
" style="fill: #ffffff; opacity: 0.8; stroke: #cccccc; stroke-linejoin: miter"/>
    </g>
    <g id="line2d_32">
     <path d="M 741.1625 39.978438 
L 751.1625 39.978438 
L 761.1625 39.978438 
" style="fill: none; stroke: #0000ff; stroke-opacity: 0.8; stroke-width: 1.5; stroke-linecap: square"/>
    </g>
    <g id="text_15">
     <!-- Clean -->
     <g transform="translate(769.1625 43.478438) scale(0.1 -0.1)">
      <defs>
       <path id="DejaVuSans-43" d="M 4122 4306 
L 4122 3641 
Q 3803 3938 3442 4084 
Q 3081 4231 2675 4231 
Q 1875 4231 1450 3742 
Q 1025 3253 1025 2328 
Q 1025 1406 1450 917 
Q 1875 428 2675 428 
Q 3081 428 3442 575 
Q 3803 722 4122 1019 
L 4122 359 
Q 3791 134 3420 21 
Q 3050 -91 2638 -91 
Q 1578 -91 968 557 
Q 359 1206 359 2328 
Q 359 3453 968 4101 
Q 1578 4750 2638 4750 
Q 3056 4750 3426 4639 
Q 3797 4528 4122 4306 
z
" transform="scale(0.015625)"/>
       <path id="DejaVuSans-6c" d="M 603 4863 
L 1178 4863 
L 1178 0 
L 603 0 
L 603 4863 
z
" transform="scale(0.015625)"/>
      </defs>
      <use xlink:href="#DejaVuSans-43"/>
      <use xlink:href="#DejaVuSans-6c" transform="translate(69.824219 0)"/>
      <use xlink:href="#DejaVuSans-65" transform="translate(97.607422 0)"/>
      <use xlink:href="#DejaVuSans-61" transform="translate(159.130859 0)"/>
      <use xlink:href="#DejaVuSans-6e" transform="translate(220.410156 0)"/>
     </g>
    </g>
    <g id="line2d_33">
     <path d="M 741.1625 54.656563 
L 751.1625 54.656563 
L 761.1625 54.656563 
" style="fill: none; stroke-dasharray: 7.4,3.2; stroke-dashoffset: 0; stroke: #ff0000; stroke-width: 2"/>
    </g>
    <g id="text_16">
     <!-- Noisy (No LLM) -->
     <g transform="translate(769.1625 58.156563) scale(0.1 -0.1)">
      <defs>
       <path id="DejaVuSans-4e" d="M 628 4666 
L 1478 4666 
L 3547 763 
L 3547 4666 
L 4159 4666 
L 4159 0 
L 3309 0 
L 1241 3903 
L 1241 0 
L 628 0 
L 628 4666 
z
" transform="scale(0.015625)"/>
       <path id="DejaVuSans-6f" d="M 1959 3097 
Q 1497 3097 1228 2736 
Q 959 2375 959 1747 
Q 959 1119 1226 758 
Q 1494 397 1959 397 
Q 2419 397 2687 759 
Q 2956 1122 2956 1747 
Q 2956 2369 2687 2733 
Q 2419 3097 1959 3097 
z
M 1959 3584 
Q 2709 3584 3137 3096 
Q 3566 2609 3566 1747 
Q 3566 888 3137 398 
Q 2709 -91 1959 -91 
Q 1206 -91 779 398 
Q 353 888 353 1747 
Q 353 2609 779 3096 
Q 1206 3584 1959 3584 
z
" transform="scale(0.015625)"/>
       <path id="DejaVuSans-4c" d="M 628 4666 
L 1259 4666 
L 1259 531 
L 3531 531 
L 3531 0 
L 628 0 
L 628 4666 
z
" transform="scale(0.015625)"/>
       <path id="DejaVuSans-4d" d="M 628 4666 
L 1569 4666 
L 2759 1491 
L 3956 4666 
L 4897 4666 
L 4897 0 
L 4281 0 
L 4281 4097 
L 3078 897 
L 2444 897 
L 1241 4097 
L 1241 0 
L 628 0 
L 628 4666 
z
" transform="scale(0.015625)"/>
      </defs>
      <use xlink:href="#DejaVuSans-4e"/>
      <use xlink:href="#DejaVuSans-6f" transform="translate(74.804688 0)"/>
      <use xlink:href="#DejaVuSans-69" transform="translate(135.986328 0)"/>
      <use xlink:href="#DejaVuSans-73" transform="translate(163.769531 0)"/>
      <use xlink:href="#DejaVuSans-79" transform="translate(215.869141 0)"/>
      <use xlink:href="#DejaVuSans-20" transform="translate(275.048828 0)"/>
      <use xlink:href="#DejaVuSans-28" transform="translate(306.835938 0)"/>
      <use xlink:href="#DejaVuSans-4e" transform="translate(345.849609 0)"/>
      <use xlink:href="#DejaVuSans-6f" transform="translate(420.654297 0)"/>
      <use xlink:href="#DejaVuSans-20" transform="translate(481.835938 0)"/>
      <use xlink:href="#DejaVuSans-4c" transform="translate(513.623047 0)"/>
      <use xlink:href="#DejaVuSans-4c" transform="translate(569.335938 0)"/>
      <use xlink:href="#DejaVuSans-4d" transform="translate(625.048828 0)"/>
      <use xlink:href="#DejaVuSans-29" transform="translate(711.328125 0)"/>
     </g>
    </g>
    <g id="line2d_34">
     <path d="M 741.1625 69.334688 
L 751.1625 69.334688 
L 761.1625 69.334688 
" style="fill: none; stroke: #008000; stroke-opacity: 0.6; stroke-width: 2; stroke-linecap: square"/>
    </g>
    <g id="text_17">
     <!-- Noisy w/ LLM -->
     <g transform="translate(769.1625 72.834688) scale(0.1 -0.1)">
      <defs>
       <path id="DejaVuSans-77" d="M 269 3500 
L 844 3500 
L 1563 769 
L 2278 3500 
L 2956 3500 
L 3675 769 
L 4391 3500 
L 4966 3500 
L 4050 0 
L 3372 0 
L 2619 2869 
L 1863 0 
L 1184 0 
L 269 3500 
z
" transform="scale(0.015625)"/>
       <path id="DejaVuSans-2f" d="M 1625 4666 
L 2156 4666 
L 531 -594 
L 0 -594 
L 1625 4666 
z
" transform="scale(0.015625)"/>
      </defs>
      <use xlink:href="#DejaVuSans-4e"/>
      <use xlink:href="#DejaVuSans-6f" transform="translate(74.804688 0)"/>
      <use xlink:href="#DejaVuSans-69" transform="translate(135.986328 0)"/>
      <use xlink:href="#DejaVuSans-73" transform="translate(163.769531 0)"/>
      <use xlink:href="#DejaVuSans-79" transform="translate(215.869141 0)"/>
      <use xlink:href="#DejaVuSans-20" transform="translate(275.048828 0)"/>
      <use xlink:href="#DejaVuSans-77" transform="translate(306.835938 0)"/>
      <use xlink:href="#DejaVuSans-2f" transform="translate(388.623047 0)"/>
      <use xlink:href="#DejaVuSans-20" transform="translate(422.314453 0)"/>
      <use xlink:href="#DejaVuSans-4c" transform="translate(454.101562 0)"/>
      <use xlink:href="#DejaVuSans-4c" transform="translate(509.814453 0)"/>
      <use xlink:href="#DejaVuSans-4d" transform="translate(565.527344 0)"/>
     </g>
    </g>
   </g>
  </g>
  <g id="axes_2">
   <g id="patch_8">
    <path d="M 58.84 548.12 
L 853.2 548.12 
L 853.2 309.48 
L 58.84 309.48 
z
" style="fill: #ffffff"/>
   </g>
   <g id="matplotlib.axis_3">
    <g id="xtick_8">
     <g id="line2d_35">
      <path d="M 94.947273 548.12 
L 94.947273 309.48 
" clip-path="url(#p1ff098508e)" style="fill: none; stroke: #b0b0b0; stroke-width: 0.8; stroke-linecap: square"/>
     </g>
     <g id="line2d_36">
      <g>
       <use xlink:href="#m48c1f9faa9" x="94.947273" y="548.12" style="stroke: #000000; stroke-width: 0.8"/>
      </g>
     </g>
     <g id="text_18">
      <!-- 0 -->
      <g transform="translate(91.766023 562.718437) scale(0.1 -0.1)">
       <use xlink:href="#DejaVuSans-30"/>
      </g>
     </g>
    </g>
    <g id="xtick_9">
     <g id="line2d_37">
      <path d="M 217.719366 548.12 
L 217.719366 309.48 
" clip-path="url(#p1ff098508e)" style="fill: none; stroke: #b0b0b0; stroke-width: 0.8; stroke-linecap: square"/>
     </g>
     <g id="line2d_38">
      <g>
       <use xlink:href="#m48c1f9faa9" x="217.719366" y="548.12" style="stroke: #000000; stroke-width: 0.8"/>
      </g>
     </g>
     <g id="text_19">
      <!-- 50 -->
      <g transform="translate(211.356866 562.718437) scale(0.1 -0.1)">
       <use xlink:href="#DejaVuSans-35"/>
       <use xlink:href="#DejaVuSans-30" transform="translate(63.623047 0)"/>
      </g>
     </g>
    </g>
    <g id="xtick_10">
     <g id="line2d_39">
      <path d="M 340.49146 548.12 
L 340.49146 309.48 
" clip-path="url(#p1ff098508e)" style="fill: none; stroke: #b0b0b0; stroke-width: 0.8; stroke-linecap: square"/>
     </g>
     <g id="line2d_40">
      <g>
       <use xlink:href="#m48c1f9faa9" x="340.49146" y="548.12" style="stroke: #000000; stroke-width: 0.8"/>
      </g>
     </g>
     <g id="text_20">
      <!-- 100 -->
      <g transform="translate(330.94771 562.718437) scale(0.1 -0.1)">
       <use xlink:href="#DejaVuSans-31"/>
       <use xlink:href="#DejaVuSans-30" transform="translate(63.623047 0)"/>
       <use xlink:href="#DejaVuSans-30" transform="translate(127.246094 0)"/>
      </g>
     </g>
    </g>
    <g id="xtick_11">
     <g id="line2d_41">
      <path d="M 463.263554 548.12 
L 463.263554 309.48 
" clip-path="url(#p1ff098508e)" style="fill: none; stroke: #b0b0b0; stroke-width: 0.8; stroke-linecap: square"/>
     </g>
     <g id="line2d_42">
      <g>
       <use xlink:href="#m48c1f9faa9" x="463.263554" y="548.12" style="stroke: #000000; stroke-width: 0.8"/>
      </g>
     </g>
     <g id="text_21">
      <!-- 150 -->
      <g transform="translate(453.719804 562.718437) scale(0.1 -0.1)">
       <use xlink:href="#DejaVuSans-31"/>
       <use xlink:href="#DejaVuSans-35" transform="translate(63.623047 0)"/>
       <use xlink:href="#DejaVuSans-30" transform="translate(127.246094 0)"/>
      </g>
     </g>
    </g>
    <g id="xtick_12">
     <g id="line2d_43">
      <path d="M 586.035647 548.12 
L 586.035647 309.48 
" clip-path="url(#p1ff098508e)" style="fill: none; stroke: #b0b0b0; stroke-width: 0.8; stroke-linecap: square"/>
     </g>
     <g id="line2d_44">
      <g>
       <use xlink:href="#m48c1f9faa9" x="586.035647" y="548.12" style="stroke: #000000; stroke-width: 0.8"/>
      </g>
     </g>
     <g id="text_22">
      <!-- 200 -->
      <g transform="translate(576.491897 562.718437) scale(0.1 -0.1)">
       <use xlink:href="#DejaVuSans-32"/>
       <use xlink:href="#DejaVuSans-30" transform="translate(63.623047 0)"/>
       <use xlink:href="#DejaVuSans-30" transform="translate(127.246094 0)"/>
      </g>
     </g>
    </g>
    <g id="xtick_13">
     <g id="line2d_45">
      <path d="M 708.807741 548.12 
L 708.807741 309.48 
" clip-path="url(#p1ff098508e)" style="fill: none; stroke: #b0b0b0; stroke-width: 0.8; stroke-linecap: square"/>
     </g>
     <g id="line2d_46">
      <g>
       <use xlink:href="#m48c1f9faa9" x="708.807741" y="548.12" style="stroke: #000000; stroke-width: 0.8"/>
      </g>
     </g>
     <g id="text_23">
      <!-- 250 -->
      <g transform="translate(699.263991 562.718437) scale(0.1 -0.1)">
       <use xlink:href="#DejaVuSans-32"/>
       <use xlink:href="#DejaVuSans-35" transform="translate(63.623047 0)"/>
       <use xlink:href="#DejaVuSans-30" transform="translate(127.246094 0)"/>
      </g>
     </g>
    </g>
    <g id="xtick_14">
     <g id="line2d_47">
      <path d="M 831.579834 548.12 
L 831.579834 309.48 
" clip-path="url(#p1ff098508e)" style="fill: none; stroke: #b0b0b0; stroke-width: 0.8; stroke-linecap: square"/>
     </g>
     <g id="line2d_48">
      <g>
       <use xlink:href="#m48c1f9faa9" x="831.579834" y="548.12" style="stroke: #000000; stroke-width: 0.8"/>
      </g>
     </g>
     <g id="text_24">
      <!-- 300 -->
      <g transform="translate(822.036084 562.718437) scale(0.1 -0.1)">
       <use xlink:href="#DejaVuSans-33"/>
       <use xlink:href="#DejaVuSans-30" transform="translate(63.623047 0)"/>
       <use xlink:href="#DejaVuSans-30" transform="translate(127.246094 0)"/>
      </g>
     </g>
    </g>
   </g>
   <g id="matplotlib.axis_4">
    <g id="ytick_7">
     <g id="line2d_49">
      <path d="M 58.84 524.465586 
L 853.2 524.465586 
" clip-path="url(#p1ff098508e)" style="fill: none; stroke: #b0b0b0; stroke-width: 0.8; stroke-linecap: square"/>
     </g>
     <g id="line2d_50">
      <g>
       <use xlink:href="#m345f2f06f8" x="58.84" y="524.465586" style="stroke: #000000; stroke-width: 0.8"/>
      </g>
     </g>
     <g id="text_25">
      <!-- −1 -->
      <g transform="translate(37.097812 528.264805) scale(0.1 -0.1)">
       <defs>
        <path id="DejaVuSans-2212" d="M 678 2272 
L 4684 2272 
L 4684 1741 
L 678 1741 
L 678 2272 
z
" transform="scale(0.015625)"/>
       </defs>
       <use xlink:href="#DejaVuSans-2212"/>
       <use xlink:href="#DejaVuSans-31" transform="translate(83.789062 0)"/>
      </g>
     </g>
    </g>
    <g id="ytick_8">
     <g id="line2d_51">
      <path d="M 58.84 480.830246 
L 853.2 480.830246 
" clip-path="url(#p1ff098508e)" style="fill: none; stroke: #b0b0b0; stroke-width: 0.8; stroke-linecap: square"/>
     </g>
     <g id="line2d_52">
      <g>
       <use xlink:href="#m345f2f06f8" x="58.84" y="480.830246" style="stroke: #000000; stroke-width: 0.8"/>
      </g>
     </g>
     <g id="text_26">
      <!-- 0 -->
      <g transform="translate(45.4775 484.629465) scale(0.1 -0.1)">
       <use xlink:href="#DejaVuSans-30"/>
      </g>
     </g>
    </g>
    <g id="ytick_9">
     <g id="line2d_53">
      <path d="M 58.84 437.194905 
L 853.2 437.194905 
" clip-path="url(#p1ff098508e)" style="fill: none; stroke: #b0b0b0; stroke-width: 0.8; stroke-linecap: square"/>
     </g>
     <g id="line2d_54">
      <g>
       <use xlink:href="#m345f2f06f8" x="58.84" y="437.194905" style="stroke: #000000; stroke-width: 0.8"/>
      </g>
     </g>
     <g id="text_27">
      <!-- 1 -->
      <g transform="translate(45.4775 440.994124) scale(0.1 -0.1)">
       <use xlink:href="#DejaVuSans-31"/>
      </g>
     </g>
    </g>
    <g id="ytick_10">
     <g id="line2d_55">
      <path d="M 58.84 393.559565 
L 853.2 393.559565 
" clip-path="url(#p1ff098508e)" style="fill: none; stroke: #b0b0b0; stroke-width: 0.8; stroke-linecap: square"/>
     </g>
     <g id="line2d_56">
      <g>
       <use xlink:href="#m345f2f06f8" x="58.84" y="393.559565" style="stroke: #000000; stroke-width: 0.8"/>
      </g>
     </g>
     <g id="text_28">
      <!-- 2 -->
      <g transform="translate(45.4775 397.358784) scale(0.1 -0.1)">
       <use xlink:href="#DejaVuSans-32"/>
      </g>
     </g>
    </g>
    <g id="ytick_11">
     <g id="line2d_57">
      <path d="M 58.84 349.924224 
L 853.2 349.924224 
" clip-path="url(#p1ff098508e)" style="fill: none; stroke: #b0b0b0; stroke-width: 0.8; stroke-linecap: square"/>
     </g>
     <g id="line2d_58">
      <g>
       <use xlink:href="#m345f2f06f8" x="58.84" y="349.924224" style="stroke: #000000; stroke-width: 0.8"/>
      </g>
     </g>
     <g id="text_29">
      <!-- 3 -->
      <g transform="translate(45.4775 353.723443) scale(0.1 -0.1)">
       <use xlink:href="#DejaVuSans-33"/>
      </g>
     </g>
    </g>
    <g id="text_30">
     <!-- 1e−5 -->
     <g transform="translate(58.84 306.48) scale(0.1 -0.1)">
      <use xlink:href="#DejaVuSans-31"/>
      <use xlink:href="#DejaVuSans-65" transform="translate(63.623047 0)"/>
      <use xlink:href="#DejaVuSans-2212" transform="translate(125.146484 0)"/>
      <use xlink:href="#DejaVuSans-35" transform="translate(208.935547 0)"/>
     </g>
    </g>
   </g>
   <g id="line2d_59">
    <path d="M 94.947273 480.830266 
L 95.094599 485.60533 
L 95.291035 485.860913 
L 95.880341 485.912808 
L 101.82251 485.919323 
L 114.296155 485.881168 
L 114.443481 496.91202 
L 114.689025 498.489595 
L 114.93457 498.800094 
L 115.376549 498.948504 
L 116.60427 499.043279 
L 121.564263 499.104233 
L 138.605029 499.198492 
L 138.654138 490.174253 
L 138.703247 491.342371 
L 139.538097 521.219716 
L 139.930968 524.927388 
L 140.372947 527.237846 
L 140.913145 528.914656 
L 141.502451 530.060083 
L 142.189974 530.939755 
L 143.024825 531.656079 
L 144.105219 532.276917 
L 145.529375 532.818837 
L 147.44462 533.296852 
L 148.475906 533.391746 
L 150.636694 533.391746 
L 150.685803 535.204714 
L 150.784021 535.144099 
L 151.569762 534.322763 
L 152.306395 534.113701 
L 153.828769 533.964232 
L 157.708367 533.860786 
L 162.66836 533.841884 
L 162.815686 533.441971 
L 163.552319 533.473854 
L 167.677461 533.669878 
L 174.650916 533.7794 
L 174.700025 533.7794 
L 174.847351 534.400975 
L 175.780419 534.283216 
L 178.137643 534.121077 
L 183.244962 534.034413 
L 186.73169 534.031267 
L 186.879016 533.700132 
L 188.00852 533.751336 
L 195.031083 534.041805 
L 198.763355 534.06859 
L 198.812464 537.272727 
L 198.861573 534.193565 
L 199.058008 526.050387 
L 199.254443 525.021689 
L 199.549096 524.677317 
L 200.040185 524.521876 
L 201.317015 524.424413 
L 206.375225 524.366389 
L 210.79502 524.355729 
L 210.991456 523.69005 
L 211.237 523.519064 
L 212.170068 523.495059 
L 222.826685 523.599689 
L 222.974012 522.330447 
L 223.759753 522.107144 
L 225.331236 522.072264 
L 234.858351 522.213729 
L 234.956568 523.239053 
L 235.005677 523.234746 
L 236.528051 523.107719 
L 241.242499 523.209935 
L 246.890016 523.277157 
L 247.037342 523.068177 
L 249.689219 523.094715 
L 260.64049 523.051436 
L 264.323653 522.931656 
L 270.953346 522.895662 
L 271.100673 523.095504 
L 274.636509 523.188128 
L 282.985011 523.219751 
L 283.132338 522.238656 
L 284.507385 522.372094 
L 289.516487 522.737957 
L 293.887173 522.874665 
L 307.244777 522.983241 
L 310.731504 523.134278 
L 319.030898 523.190205 
L 319.178224 522.803262 
L 322.173864 522.852512 
L 331.062563 522.876758 
L 331.20989 523.304625 
L 335.629685 523.106257 
L 335.678794 480.830246 
L 335.777012 480.844692 
L 340.589678 480.846322 
L 355.125893 480.942369 
L 355.616982 481.071468 
L 360.429648 481.043393 
L 371.675572 481.091218 
L 379.33655 481.145834 
L 379.385659 470.55129 
L 379.483877 471.26527 
L 380.024074 477.27137 
L 380.367836 478.631262 
L 380.809815 479.508152 
L 381.350013 480.081417 
L 382.086645 480.513244 
L 383.16704 480.854967 
L 384.885849 481.13186 
L 387.881488 481.356892 
L 390.828018 481.393325 
L 392.203066 481.288409 
L 393.578113 481.201842 
L 399.667609 481.152096 
L 407.67235 481.239593 
L 414.793131 481.358696 
L 415.431546 481.358696 
L 415.578872 481.472798 
L 427.463211 481.409664 
L 427.610538 481.191636 
L 430.065979 481.212651 
L 451.722977 481.365613 
L 453.638221 481.357866 
L 523.716532 481.544157 
L 523.863859 481.200278 
L 525.582668 481.185182 
L 535.748198 481.334262 
L 535.895524 481.251889 
L 572.285173 481.227309 
L 576.361206 481.246784 
L 576.508533 480.837338 
L 586.182974 480.838026 
L 620.068071 480.786877 
L 620.11718 476.363395 
L 620.215398 476.6899 
L 620.804704 479.573907 
L 621.197575 480.198956 
L 621.737772 480.606129 
L 622.523513 480.890896 
L 623.898561 481.114986 
L 626.550438 481.282407 
L 631.510431 481.35739 
L 632.345281 481.25582 
L 633.376566 481.137223 
L 637.207056 481.09291 
L 646.488626 481.17638 
L 656.064849 481.28215 
L 668.194732 481.303152 
L 668.342059 481.125183 
L 672.07433 481.141731 
L 680.226397 481.163964 
L 680.275506 481.023092 
L 680.324615 481.06266 
L 680.570159 481.174828 
L 682.23986 481.190327 
L 716.321393 481.173745 
L 716.468719 481.354045 
L 734.540772 481.350366 
L 764.448054 481.407601 
L 764.59538 481.101977 
L 766.412407 481.03834 
L 788.462275 480.905912 
L 788.65871 480.843688 
L 795.042859 480.915952 
L 804.32443 480.897344 
L 817.092727 480.851835 
L 817.092727 480.851835 
" clip-path="url(#p1ff098508e)" style="fill: none; stroke: #0000ff; stroke-opacity: 0.8; stroke-width: 1.5; stroke-linecap: square"/>
   </g>
   <g id="line2d_60">
    <path d="M 94.947273 480.830265 
L 95.094599 485.996904 
L 95.143708 486.170581 
L 95.192817 486.146501 
L 95.389252 485.721145 
L 95.683905 485.932998 
L 95.929449 485.971895 
L 96.715191 486.036945 
L 96.911626 486.030131 
L 100.349245 486.112363 
L 100.889442 486.110064 
L 102.460925 486.150124 
L 103.885081 486.105344 
L 110.26923 486.075186 
L 114.296155 486.090246 
L 114.345264 496.72813 
L 114.443481 494.891657 
L 114.49259 494.891624 
L 114.590808 495.070631 
L 114.639917 494.934829 
L 114.93457 497.894047 
L 115.032787 497.965489 
L 115.229223 497.030489 
L 115.425658 496.312281 
L 115.474767 496.441852 
L 116.014964 497.823434 
L 116.064073 497.745555 
L 116.653379 498.273004 
L 116.751597 498.254174 
L 116.948032 498.075953 
L 117.8811 497.732074 
L 118.077535 497.848954 
L 118.71595 497.157479 
L 119.207038 496.81874 
L 119.354365 496.749665 
L 119.845453 496.225227 
L 120.680304 496.087736 
L 121.122283 496.111334 
L 121.809807 495.979321 
L 122.202678 495.980144 
L 123.086637 495.953706 
L 126.278711 496.452025 
L 129.765438 497.137199 
L 130.207418 497.229659 
L 130.698506 497.381061 
L 131.336921 497.459283 
L 131.778901 497.441195 
L 133.203057 497.595777 
L 134.087016 497.883002 
L 134.921866 497.932275 
L 136.149587 498.099194 
L 138.605029 498.099194 
L 138.654138 326.980253 
L 138.752356 334.319747 
L 139.243444 375.71457 
L 139.783641 393.341415 
L 140.225621 402.942232 
L 140.520274 405.629085 
L 140.814927 407.235053 
L 141.158689 403.706489 
L 141.207798 403.98989 
L 141.453342 406.767585 
L 141.551559 407.736488 
L 141.895321 410.612201 
L 141.94443 410.602822 
L 142.042648 411.142261 
L 142.140866 412.10284 
L 142.189974 411.953466 
L 142.38641 412.766053 
L 142.631954 414.819892 
L 142.681063 414.95358 
L 142.730172 414.87923 
L 142.77928 414.877087 
L 143.22126 416.345368 
L 143.270369 416.311873 
L 143.466804 417.155443 
L 143.761457 419.074037 
L 144.05611 417.882709 
L 144.792743 414.321024 
L 144.89096 414.406473 
L 144.989178 414.865454 
L 145.038287 414.778034 
L 145.185613 414.746688 
L 145.431158 414.599334 
L 146.462443 419.260786 
L 146.511552 419.276421 
L 146.707987 418.912787 
L 146.757096 418.943973 
L 146.904423 419.010377 
L 147.641055 420.607751 
L 147.935708 421.893817 
L 150.636694 421.893817 
L 150.980456 422.492347 
L 151.127783 422.554745 
L 151.226 422.71992 
L 151.275109 422.690335 
L 151.520653 422.690991 
L 151.717089 422.826492 
L 151.913524 422.773842 
L 152.650157 423.213302 
L 153.730551 423.555097 
L 154.712728 424.257842 
L 155.400252 424.457691 
L 155.793122 424.583183 
L 156.284211 424.533363 
L 157.315496 424.455566 
L 161.7844 424.566124 
L 162.66836 424.566124 
L 162.815686 422.051314 
L 162.913904 421.919714 
L 163.012121 421.821688 
L 163.159448 421.557779 
L 163.601427 422.198183 
L 163.797863 421.459566 
L 164.092516 420.475839 
L 164.33806 420.492014 
L 164.485387 419.892252 
L 164.78004 419.094618 
L 165.074693 418.625606 
L 165.271128 418.544794 
L 165.418454 418.373408 
L 165.467563 418.457813 
L 165.61489 418.545336 
L 165.909543 419.259586 
L 166.105978 419.297854 
L 166.351522 419.061561 
L 166.547958 418.939268 
L 166.646175 418.714131 
L 166.842611 418.303878 
L 167.235481 418.751267 
L 167.28459 418.681552 
L 168.070332 417.313564 
L 168.119441 417.346492 
L 168.364985 417.66911 
L 168.414094 417.613228 
L 168.708747 417.404287 
L 168.905182 417.533245 
L 169.199835 417.267637 
L 170.083794 415.414513 
L 170.6731 414.382936 
L 170.967753 413.638394 
L 171.262406 413.486139 
L 171.606168 412.890447 
L 171.851712 412.943091 
L 172.048148 412.818143 
L 174.700025 412.818143 
L 174.847351 413.445232 
L 175.092895 413.404788 
L 178.677841 411.386302 
L 179.95467 410.989958 
L 182.999418 410.097212 
L 184.128922 409.656785 
L 186.73169 409.656785 
L 186.879016 411.602807 
L 189.236241 425.16924 
L 190.021982 428.855805 
L 190.463962 431.282332 
L 191.446138 435.261531 
L 192.575642 438.58928 
L 192.968512 439.455675 
L 193.606927 440.864786 
L 193.803362 440.820542 
L 193.90158 440.843892 
L 194.245342 441.171259 
L 194.490886 441.162509 
L 195.080192 441.973668 
L 195.276628 441.924921 
L 195.473063 441.980719 
L 195.767716 441.909826 
L 195.964151 441.955028 
L 196.602566 441.963809 
L 198.763355 441.963809 
L 199.008899 424.235132 
L 199.205335 422.075338 
L 199.794641 421.682304 
L 200.089294 421.640764 
L 200.334838 421.666913 
L 200.825926 421.778288 
L 201.857212 421.573371 
L 203.134042 421.574642 
L 204.754633 421.539941 
L 205.982354 421.73233 
L 207.84849 421.921391 
L 210.79502 421.944128 
L 210.844129 422.143154 
L 210.893238 422.120561 
L 211.040564 421.936179 
L 211.286109 422.208675 
L 211.482544 422.153813 
L 211.777197 422.069594 
L 213.397789 422.200043 
L 215.804122 422.433376 
L 218.161346 422.586702 
L 221.598964 422.715866 
L 222.826685 422.715866 
L 222.924903 417.268435 
L 222.974012 417.274653 
L 223.661536 417.30215 
L 224.005298 417.24999 
L 226.01876 417.153345 
L 227.246481 417.072603 
L 234.858351 417.03503 
L 234.907459 418.018012 
L 235.005677 418.002295 
L 242.715765 417.84677 
L 247.528431 417.882634 
L 254.010797 417.418806 
L 258.921681 417.34951 
L 259.069007 417.473074 
L 259.903858 417.466022 
L 262.604844 417.447946 
L 270.953346 417.21543 
L 271.100673 416.765261 
L 272.672155 417.129289 
L 273.801659 417.342093 
L 275.86423 417.569556 
L 282.985011 417.681743 
L 283.132338 421.023122 
L 284.016297 424.595937 
L 284.752929 428.389446 
L 286.078868 433.574221 
L 286.913718 436.025 
L 287.061045 436.422942 
L 287.404807 437.501168 
L 288.485201 440.259326 
L 289.172725 442.473675 
L 289.860249 444.012265 
L 290.400446 445.224978 
L 290.940643 446.03164 
L 291.137078 446.406893 
L 291.677276 447.44461 
L 291.824602 447.682693 
L 292.217473 448.531157 
L 292.364799 448.603768 
L 295.998853 448.708665 
L 296.489942 448.752733 
L 298.552513 448.627895 
L 299.829343 448.583698 
L 302.824982 448.484347 
L 306.999233 448.471557 
L 307.146559 449.25542 
L 307.686757 450.403574 
L 308.37428 452.333547 
L 309.160022 454.214265 
L 310.731504 457.842665 
L 311.026157 458.383348 
L 314.758429 465.072217 
L 315.298626 466.246524 
L 316.477238 467.606586 
L 319.030898 467.606586 
L 319.178224 467.885946 
L 320.504163 467.814031 
L 327.281183 467.292403 
L 330.080386 467.233629 
L 331.062563 467.233629 
L 331.160781 467.541575 
L 331.20989 467.520547 
L 331.357216 467.34055 
L 331.700978 466.589839 
L 331.995631 465.938003 
L 332.486719 464.666275 
L 333.223352 462.834034 
L 333.518005 462.639399 
L 333.763549 462.335692 
L 333.959985 462.115463 
L 334.058202 462.043753 
L 335.335032 460.21532 
L 335.531467 460.130932 
L 335.629685 459.994507 
L 335.727903 480.868818 
L 335.777012 480.752685 
L 335.924338 480.636051 
L 336.120773 480.121704 
L 336.415426 480.308999 
L 336.660971 480.339842 
L 337.446712 480.396948 
L 337.643147 480.38942 
L 341.178984 480.45834 
L 341.915616 480.491727 
L 342.848684 480.505209 
L 343.929079 480.475211 
L 350.067683 480.443382 
L 353.308866 480.476929 
L 355.027676 480.476929 
L 355.076785 483.660361 
L 355.125893 483.060742 
L 355.27322 481.777715 
L 355.371438 481.384252 
L 355.616982 484.083915 
L 355.666091 484.074213 
L 355.764308 484.115797 
L 355.960744 483.142798 
L 356.157179 482.405709 
L 356.206288 482.530458 
L 356.746485 483.883424 
L 356.795594 483.803781 
L 357.3849 484.310924 
L 357.483118 484.288184 
L 357.679553 484.103539 
L 358.612621 483.734394 
L 358.809056 483.849684 
L 359.447471 483.139691 
L 359.987668 482.785908 
L 360.233213 482.470117 
L 360.576974 482.157478 
L 361.362716 482.007725 
L 362.541328 481.857096 
L 362.88509 481.848631 
L 364.407464 481.74609 
L 365.045879 481.777029 
L 365.684294 481.86284 
L 369.662109 482.584273 
L 370.644286 482.689352 
L 371.184483 482.838222 
L 372.117551 482.973461 
L 372.559531 482.979052 
L 373.197946 483.057253 
L 373.590816 483.075467 
L 374.229231 483.222753 
L 374.818537 483.395666 
L 375.702496 483.456725 
L 376.488238 483.590832 
L 378.305265 483.600206 
L 379.33655 483.600206 
L 379.385659 320.327273 
L 379.483877 328.356057 
L 379.974965 374.590249 
L 380.466054 393.343714 
L 380.564271 395.467335 
L 380.809815 401.764789 
L 381.300904 407.448932 
L 381.44823 407.782972 
L 381.546448 408.897385 
L 381.89021 405.545556 
L 381.939319 405.850889 
L 382.184863 408.717337 
L 382.283081 409.719234 
L 382.626842 412.691643 
L 382.675951 412.693795 
L 382.774169 413.256479 
L 382.872387 414.240514 
L 382.921495 414.101595 
L 383.117931 414.952312 
L 383.363475 417.043031 
L 383.412584 417.183506 
L 383.461693 417.116575 
L 383.510802 417.121839 
L 383.952781 418.648508 
L 384.00189 418.621735 
L 384.198325 419.485496 
L 384.492978 421.430979 
L 384.787631 420.267275 
L 385.524264 416.765916 
L 385.622482 416.85742 
L 385.720699 417.320975 
L 385.769808 417.2358 
L 385.917135 417.212509 
L 386.162679 417.078799 
L 387.193964 421.769548 
L 387.243073 421.786262 
L 387.439509 421.429793 
L 387.488617 421.461622 
L 387.635944 421.531688 
L 388.372576 423.138589 
L 388.667229 424.425881 
L 391.368216 424.425881 
L 391.417324 423.821174 
L 391.515542 423.930591 
L 391.564651 423.93423 
L 391.711977 424.252324 
L 391.761086 424.219058 
L 391.810195 424.179146 
L 391.859304 424.267297 
L 391.957522 424.408229 
L 392.00663 424.369748 
L 392.252175 424.336576 
L 392.44861 424.451931 
L 392.645045 424.389968 
L 393.430787 424.816324 
L 394.167419 425.004228 
L 394.363855 425.077067 
L 394.953161 425.594483 
L 395.296923 425.781739 
L 396.917514 426.112623 
L 398.636323 426.015047 
L 399.323847 426.099365 
L 400.846221 426.117059 
L 403.399881 426.117059 
L 403.547207 423.860504 
L 403.645425 423.735536 
L 403.743643 423.645485 
L 403.890969 423.398167 
L 404.332949 424.082537 
L 404.529384 423.364379 
L 404.824037 422.413903 
L 405.020472 422.538629 
L 405.069581 422.455019 
L 405.216908 421.871508 
L 405.511561 421.104726 
L 405.806214 420.663263 
L 406.002649 420.600848 
L 406.149976 420.442496 
L 406.199084 420.530891 
L 406.346411 420.631032 
L 406.641064 421.369619 
L 406.837499 421.424105 
L 407.083043 421.209672 
L 407.279479 421.10342 
L 407.377697 420.886653 
L 407.574132 420.492186 
L 407.967003 420.968249 
L 408.016111 420.90263 
L 408.801853 419.591222 
L 408.850962 419.627469 
L 409.096506 419.965121 
L 409.145615 419.912494 
L 409.440268 419.722858 
L 409.685812 419.837914 
L 409.833138 419.804097 
L 411.257295 417.053268 
L 411.355512 416.936519 
L 411.846601 416.004918 
L 411.993927 415.949594 
L 412.337689 415.37032 
L 412.583233 415.433049 
L 412.779669 415.314663 
L 415.431546 415.314663 
L 415.578872 415.557071 
L 415.873525 415.498335 
L 417.494117 414.445815 
L 418.181641 414.037372 
L 419.114709 413.669433 
L 419.998668 413.341096 
L 421.079062 413.026133 
L 422.110348 412.755142 
L 422.994307 412.509802 
L 424.222028 412.01214 
L 425.007769 411.742888 
L 427.463211 411.742888 
L 427.708755 413.413573 
L 428.592714 419.271856 
L 430.507959 428.658941 
L 430.753503 429.942173 
L 431.195483 432.36633 
L 432.177659 436.341876 
L 433.307163 439.666383 
L 433.700033 440.532926 
L 434.338448 441.942974 
L 434.534884 441.898604 
L 434.633101 441.922049 
L 434.976863 442.250352 
L 435.222407 442.242076 
L 435.811713 443.05586 
L 436.008149 443.007354 
L 436.204584 443.063874 
L 436.499237 442.994224 
L 436.695672 443.040806 
L 437.334087 443.049913 
L 439.494876 443.049913 
L 439.74042 440.420634 
L 439.838638 439.897699 
L 439.887747 439.979174 
L 439.985965 440.080934 
L 440.084182 440.325146 
L 440.133291 440.280652 
L 440.427944 440.149039 
L 440.820815 440.231174 
L 441.115468 440.320896 
L 441.557447 440.445544 
L 442.588733 440.276751 
L 443.816454 440.301736 
L 445.68259 440.328414 
L 446.370113 440.424636 
L 449.513079 440.707307 
L 451.526541 440.707307 
L 451.673868 441.484861 
L 451.772086 441.53196 
L 451.968521 441.87242 
L 452.214065 441.832231 
L 452.508718 441.748861 
L 454.080201 441.883406 
L 456.044554 442.072533 
L 458.35267 442.247491 
L 463.558207 442.380905 
L 463.607315 438.717932 
L 463.705533 438.752456 
L 464.294839 438.975931 
L 464.68771 438.898324 
L 472.643341 438.596798 
L 475.589872 438.613796 
L 475.737198 438.300519 
L 487.375993 438.058954 
L 487.768863 438.167724 
L 488.505496 438.110404 
L 495.08608 437.611847 
L 497.836175 437.557715 
L 500.438943 437.667629 
L 501.961317 437.780844 
L 504.465868 437.749261 
L 507.952596 437.646803 
L 510.604473 437.610165 
L 511.684867 437.610165 
L 511.832194 437.129827 
L 513.25635 437.409579 
L 514.680506 437.671248 
L 521.801288 437.966001 
L 523.716532 437.966001 
L 523.863859 442.095176 
L 524.747818 445.65324 
L 525.484451 449.441058 
L 526.810389 454.621723 
L 527.645239 457.071645 
L 527.792566 457.469248 
L 528.136328 458.5471 
L 529.216722 461.30454 
L 529.904246 463.520394 
L 530.59177 465.060078 
L 531.131967 466.273984 
L 531.672164 467.081363 
L 531.868599 467.457005 
L 532.408797 468.495979 
L 532.556123 468.734301 
L 532.948994 469.584103 
L 533.09632 469.656799 
L 536.877701 469.759485 
L 537.368789 469.754533 
L 538.154531 469.712574 
L 543.900265 469.572437 
L 547.632536 469.565382 
L 547.730754 469.565382 
L 547.87808 470.182307 
L 548.369169 471.193461 
L 549.105801 473.226386 
L 549.891543 475.09784 
L 551.463026 478.723567 
L 551.757679 479.265294 
L 555.48995 485.972291 
L 556.030147 487.150148 
L 557.20876 488.518021 
L 559.762419 488.518021 
L 559.909746 489.035391 
L 560.941031 488.964291 
L 568.012704 488.387634 
L 570.762799 488.327739 
L 571.843193 488.220338 
L 572.039628 488.109601 
L 573.169132 485.571588 
L 573.954873 483.637821 
L 574.200417 483.486644 
L 574.445961 483.232821 
L 575.428138 481.997738 
L 575.624574 481.747396 
L 576.115662 481.092527 
L 576.262988 481.007811 
L 576.557641 480.704969 
L 576.655859 480.632009 
L 576.852295 480.117605 
L 577.146948 480.304904 
L 577.392492 480.335747 
L 578.178233 480.392895 
L 578.374668 480.385381 
L 581.910505 480.45468 
L 582.647137 480.488234 
L 583.580205 480.502124 
L 584.6606 480.472899 
L 590.848313 480.445001 
L 593.794843 480.473499 
L 595.759197 480.473499 
L 595.808306 483.836895 
L 595.857415 483.230571 
L 596.004741 481.834066 
L 596.102959 481.379685 
L 596.348503 484.007726 
L 596.397612 483.994204 
L 596.495829 484.035975 
L 596.692265 483.070118 
L 596.8887 482.348546 
L 596.937809 482.474453 
L 597.478006 483.858034 
L 597.527115 483.780984 
L 598.116421 484.307335 
L 598.214639 484.286084 
L 598.411074 484.104652 
L 599.344142 483.748491 
L 599.540577 483.873264 
L 600.228101 483.108824 
L 601.455822 482.04214 
L 601.652257 481.992259 
L 601.897802 481.913423 
L 602.241563 481.916172 
L 602.732652 481.824935 
L 603.321958 481.701596 
L 603.862155 481.546736 
L 604.156808 481.476953 
L 607.201556 481.140085 
L 610.884719 481.25594 
L 614.027684 481.694466 
L 614.420555 481.747505 
L 618.054609 482.221174 
L 620.068071 482.221174 
L 620.11718 324.030937 
L 620.215398 331.89586 
L 620.706486 376.671371 
L 621.197575 394.89092 
L 621.295792 396.957704 
L 621.541337 403.147075 
L 622.032425 408.694015 
L 622.179751 408.994121 
L 622.277969 410.093306 
L 622.621731 406.699835 
L 622.67084 407.000703 
L 622.916384 409.84461 
L 623.014602 410.841805 
L 623.358364 413.802023 
L 623.407472 413.802565 
L 623.50569 414.362967 
L 623.603908 415.345741 
L 623.653017 415.206518 
L 623.849452 416.047149 
L 624.094996 418.126426 
L 624.144105 418.264771 
L 624.193214 418.194959 
L 624.242323 418.198626 
L 624.684302 419.721287 
L 624.733411 419.695299 
L 624.929846 420.563178 
L 625.224499 422.509951 
L 625.519152 421.352543 
L 626.255785 417.878016 
L 626.354003 417.971031 
L 626.45222 418.439325 
L 626.501329 418.355823 
L 626.648656 418.339618 
L 626.8942 418.218318 
L 627.925485 422.943478 
L 627.974594 422.960725 
L 628.17103 422.612865 
L 628.220138 422.645133 
L 628.367465 422.723535 
L 629.104098 424.339352 
L 629.398751 425.633388 
L 632.099737 425.633388 
L 632.148845 424.639085 
L 632.247063 424.746521 
L 632.296172 424.757151 
L 632.443499 425.105887 
L 632.492607 425.079716 
L 632.541716 425.045635 
L 632.590825 425.140465 
L 632.689043 425.297614 
L 632.738152 425.263552 
L 632.983696 425.244148 
L 633.180131 425.369351 
L 633.376566 425.31303 
L 634.014981 425.714221 
L 634.358743 425.803544 
L 634.800723 425.978054 
L 635.095376 426.046016 
L 635.684682 426.584363 
L 636.077552 426.799547 
L 636.519532 426.866835 
L 636.765076 426.975601 
L 637.305273 427.15425 
L 639.416953 427.078691 
L 640.006259 427.16811 
L 640.988436 427.138858 
L 643.836749 427.202963 
L 644.131402 427.202963 
L 644.278728 425.001533 
L 644.376946 424.889872 
L 644.475164 424.809251 
L 644.62249 424.564093 
L 645.06447 425.291052 
L 645.260905 424.581951 
L 645.555558 423.633476 
L 645.751993 423.762259 
L 645.801102 423.678876 
L 645.948429 423.088579 
L 646.243082 422.316649 
L 646.537735 421.892234 
L 646.73417 421.837109 
L 646.881497 421.687264 
L 646.930606 421.779777 
L 647.077932 421.88723 
L 647.372585 422.629443 
L 647.56902 422.682536 
L 647.814565 422.460712 
L 648.011 422.351598 
L 648.109218 422.132391 
L 648.305653 421.732916 
L 648.698524 422.20622 
L 648.747633 422.139753 
L 649.533374 420.825938 
L 649.582483 420.861952 
L 649.828027 421.204729 
L 649.877136 421.152827 
L 650.171789 420.967633 
L 650.368224 421.108684 
L 650.662877 420.848578 
L 651.546836 419.017199 
L 652.136142 417.996175 
L 652.430795 417.253255 
L 652.725448 417.114058 
L 653.06921 416.520054 
L 653.314754 416.567078 
L 653.51119 416.436406 
L 656.163067 416.436406 
L 656.310393 417.081131 
L 656.555938 417.031114 
L 659.453359 415.089047 
L 660.2391 414.730101 
L 661.859692 414.182571 
L 662.645434 413.95763 
L 664.020481 413.539342 
L 665.051767 413.030215 
L 665.591964 412.781558 
L 668.194732 412.781558 
L 668.636712 415.577729 
L 669.913541 422.83306 
L 670.40463 425.103583 
L 670.895718 427.342113 
L 671.386807 429.622221 
L 672.07433 433.304897 
L 672.614528 435.64111 
L 673.007398 436.768477 
L 673.694922 438.90305 
L 674.136901 439.868198 
L 674.333337 440.321677 
L 674.971752 441.872002 
L 675.069969 441.928497 
L 675.266405 441.873267 
L 675.364622 441.891806 
L 675.708384 442.203908 
L 675.953928 442.187912 
L 676.543235 442.985063 
L 676.73967 442.931334 
L 676.936105 442.983278 
L 677.230758 442.908999 
L 677.427194 442.950769 
L 678.065608 442.959533 
L 680.226397 442.959533 
L 680.471942 440.533291 
L 680.570159 440.029438 
L 680.619268 440.115593 
L 680.717486 440.22286 
L 680.815703 440.469997 
L 680.864812 440.426551 
L 681.159465 440.298176 
L 681.552336 440.381864 
L 681.846989 440.472194 
L 682.288969 440.59736 
L 683.320254 440.429203 
L 684.547975 440.454465 
L 686.414111 440.481057 
L 687.101635 440.577353 
L 690.293709 440.860665 
L 692.258063 440.860665 
L 692.405389 441.635908 
L 692.503607 441.687656 
L 692.700042 442.035141 
L 692.945586 441.993151 
L 693.240239 441.907648 
L 694.664396 442.023988 
L 696.825184 442.215393 
L 698.985973 442.33444 
L 704.289728 442.397469 
L 704.338837 438.877914 
L 704.437054 438.914197 
L 705.02636 439.149921 
L 705.419231 439.075168 
L 713.325754 438.762454 
L 716.321393 438.780064 
L 716.468719 438.480694 
L 720.986732 438.365711 
L 721.968909 438.318528 
L 726.536031 438.23674 
L 728.353058 438.23674 
L 728.500385 438.383653 
L 729.237017 438.321904 
L 735.375622 437.840948 
L 740.384723 437.760541 
L 740.53205 437.833462 
L 741.219573 437.880188 
L 743.085709 437.999408 
L 748.14392 437.935375 
L 750.64847 437.872587 
L 752.416388 437.872587 
L 752.563715 437.345716 
L 753.938762 437.604046 
L 756.295987 437.959075 
L 759.733605 438.16421 
L 763.122115 438.154208 
L 764.448054 438.154208 
L 764.59538 442.296926 
L 765.479339 445.827062 
L 766.215972 449.59685 
L 767.54191 454.752412 
L 768.376761 457.188959 
L 768.524087 457.584416 
L 768.867849 458.65748 
L 769.948243 461.401095 
L 770.635767 463.608272 
L 771.323291 465.139405 
L 771.863488 466.346675 
L 772.403685 467.147687 
L 772.600121 467.52125 
L 773.140318 468.554417 
L 773.287644 468.791375 
L 773.680515 469.636847 
L 773.827841 469.709089 
L 782.421888 469.600807 
L 784.386242 469.549247 
L 786.497922 469.552697 
L 788.462275 469.552697 
L 788.609602 470.155667 
L 789.10069 471.158426 
L 789.837322 473.182521 
L 790.623064 475.047195 
L 792.194547 478.663111 
L 792.4892 479.202944 
L 796.221471 485.903308 
L 796.761669 487.081129 
L 797.940281 488.448251 
L 800.49394 488.448251 
L 800.641267 489.008077 
L 801.623443 488.933512 
L 810.610361 488.267341 
L 812.525605 488.267341 
L 812.672932 488.036951 
L 812.820258 487.865112 
L 813.16402 487.157335 
L 813.409564 486.661668 
L 814.784612 483.477934 
L 815.177483 483.146265 
L 816.159659 481.92786 
L 816.356095 481.679961 
L 816.847183 481.031196 
L 816.99451 480.948285 
L 817.092727 480.814842 
L 817.092727 480.814842 
" clip-path="url(#p1ff098508e)" style="fill: none; stroke-dasharray: 7.4,3.2; stroke-dashoffset: 0; stroke: #ff0000; stroke-width: 2"/>
   </g>
   <g id="line2d_61">
    <path d="M 94.947273 480.830265 
L 95.094599 485.996904 
L 95.143708 486.170581 
L 95.192817 486.146501 
L 95.389252 485.721145 
L 95.683905 485.932998 
L 95.929449 485.971895 
L 96.224103 486.027326 
L 96.273211 486.103318 
L 96.420538 484.884705 
L 96.567864 482.972133 
L 96.616973 483.122729 
L 96.715191 483.862779 
L 96.7643 481.60379 
L 96.813409 483.63172 
L 96.862517 484.714642 
L 96.911626 484.635411 
L 97.108062 482.832793 
L 97.206279 481.339244 
L 97.304497 478.908967 
L 97.353606 479.831307 
L 97.402715 480.005165 
L 97.648259 484.257114 
L 97.697368 483.721069 
L 97.992021 480.365576 
L 98.041129 480.449988 
L 98.286674 482.77105 
L 98.581327 484.188815 
L 98.630436 484.207042 
L 98.679544 484.407634 
L 98.728653 484.165206 
L 99.170633 482.469221 
L 99.317959 482.232481 
L 99.416177 482.340029 
L 99.465286 482.306839 
L 99.514395 482.35473 
L 99.563503 482.269574 
L 99.759939 481.845008 
L 99.907265 481.549177 
L 100.054592 481.510359 
L 100.251027 481.241357 
L 100.300136 481.178073 
L 100.349245 481.244093 
L 100.496571 481.577046 
L 100.54568 481.554511 
L 100.643898 481.529197 
L 100.791224 481.546342 
L 100.938551 481.364629 
L 101.282313 481.051599 
L 101.576966 481.03904 
L 101.773401 481.052995 
L 102.215381 481.177364 
L 102.559143 481.176696 
L 103.295775 481.319344 
L 104.523496 481.367359 
L 127.899303 481.393249 
L 335.629685 481.405957 
L 335.678794 480.830244 
L 335.727903 481.058421 
L 335.973447 480.709044 
L 336.120773 480.422681 
L 336.169882 480.47343 
L 336.366318 480.624905 
L 336.660971 480.641795 
L 336.955624 480.696746 
L 337.004732 480.777596 
L 337.152059 479.586698 
L 337.299385 477.714028 
L 337.348494 477.879006 
L 337.446712 478.647486 
L 337.495821 476.401901 
L 337.54493 478.443021 
L 337.594039 479.538282 
L 337.643147 479.470472 
L 337.839583 477.704248 
L 337.9378 476.223483 
L 338.036018 473.802753 
L 338.085127 474.728889 
L 338.134236 474.905852 
L 338.37978 479.165678 
L 338.428889 478.630059 
L 338.723542 475.272453 
L 338.772651 475.355867 
L 339.018195 477.670648 
L 339.312848 479.079929 
L 339.361957 479.096742 
L 339.411066 479.295915 
L 339.460174 479.052108 
L 339.902154 477.344605 
L 340.04948 477.104449 
L 340.147698 477.20985 
L 340.196807 477.175639 
L 340.245916 477.222511 
L 340.295025 477.13638 
L 340.49146 476.708198 
L 340.638786 476.409961 
L 340.786113 476.368876 
L 340.982548 476.097127 
L 341.031657 476.033207 
L 341.080766 476.098588 
L 341.228092 476.429693 
L 341.277201 476.40659 
L 341.375419 476.380202 
L 341.522746 476.395861 
L 341.670072 476.212828 
L 342.013834 475.897141 
L 342.308487 475.882704 
L 342.504922 475.895587 
L 342.946902 476.017952 
L 343.290664 476.016093 
L 344.027296 476.156974 
L 345.255017 476.203456 
L 372.363095 476.230878 
L 576.361206 476.200478 
L 576.459424 481.116945 
L 576.508533 481.09299 
L 576.655859 481.019661 
L 576.852295 480.513262 
L 577.146948 480.700931 
L 577.392492 480.732947 
L 577.687145 480.787833 
L 577.736254 480.868454 
L 577.88358 479.676098 
L 578.030907 477.80091 
L 578.080015 477.964843 
L 578.178233 478.730984 
L 578.227342 476.484187 
L 578.276451 478.524085 
L 578.32556 479.618088 
L 578.374668 479.548964 
L 578.571104 477.777706 
L 578.669322 476.294543 
L 578.767539 473.871587 
L 578.816648 474.796719 
L 578.865757 474.972644 
L 579.111301 479.227456 
L 579.16041 478.690896 
L 579.455063 475.327845 
L 579.504172 475.410583 
L 579.749716 477.723012 
L 580.044369 479.130459 
L 580.093478 479.147205 
L 580.142587 479.346306 
L 580.191695 479.102124 
L 580.633675 477.391918 
L 580.781002 477.151176 
L 580.879219 477.256516 
L 580.928328 477.222342 
L 580.977437 477.269172 
L 581.026546 477.182942 
L 581.222981 476.754664 
L 581.370308 476.456568 
L 581.517634 476.415575 
L 581.714069 476.143484 
L 581.763178 476.079567 
L 581.812287 476.144927 
L 581.959614 476.475691 
L 582.008722 476.452413 
L 582.10694 476.426364 
L 582.254267 476.442605 
L 582.401593 476.260206 
L 582.745355 475.946562 
L 583.040008 475.93401 
L 583.236443 475.947777 
L 583.678423 476.070919 
L 584.022185 476.069549 
L 584.758817 476.211775 
L 586.035647 476.25859 
L 587.656239 476.277515 
L 678.507588 476.266294 
L 817.092727 476.257167 
L 817.092727 476.257167 
" clip-path="url(#p1ff098508e)" style="fill: none; stroke: #008000; stroke-opacity: 0.6; stroke-width: 2; stroke-linecap: square"/>
   </g>
   <g id="line2d_62">
    <path d="M 335.678794 548.12 
L 335.678794 309.48 
" clip-path="url(#p1ff098508e)" style="fill: none; stroke-dasharray: 1.5,2.475; stroke-dashoffset: 0; stroke: #808080; stroke-opacity: 0.8; stroke-width: 1.5"/>
   </g>
   <g id="line2d_63">
    <path d="M 576.410315 548.12 
L 576.410315 309.48 
" clip-path="url(#p1ff098508e)" style="fill: none; stroke-dasharray: 1.5,2.475; stroke-dashoffset: 0; stroke: #808080; stroke-opacity: 0.8; stroke-width: 1.5"/>
   </g>
   <g id="patch_9">
    <path d="M 58.84 548.12 
L 58.84 309.48 
" style="fill: none; stroke: #000000; stroke-width: 0.8; stroke-linejoin: miter; stroke-linecap: square"/>
   </g>
   <g id="patch_10">
    <path d="M 853.2 548.12 
L 853.2 309.48 
" style="fill: none; stroke: #000000; stroke-width: 0.8; stroke-linejoin: miter; stroke-linecap: square"/>
   </g>
   <g id="patch_11">
    <path d="M 58.84 548.12 
L 853.2 548.12 
" style="fill: none; stroke: #000000; stroke-width: 0.8; stroke-linejoin: miter; stroke-linecap: square"/>
   </g>
   <g id="patch_12">
    <path d="M 58.84 309.48 
L 853.2 309.48 
" style="fill: none; stroke: #000000; stroke-width: 0.8; stroke-linejoin: miter; stroke-linecap: square"/>
   </g>
   <g id="text_31">
    <!-- [21] Ka_xx  —  State Estimate -->
    <g transform="translate(366.269375 303.48) scale(0.12 -0.12)">
     <defs>
      <path id="DejaVuSans-53" d="M 3425 4513 
L 3425 3897 
Q 3066 4069 2747 4153 
Q 2428 4238 2131 4238 
Q 1616 4238 1336 4038 
Q 1056 3838 1056 3469 
Q 1056 3159 1242 3001 
Q 1428 2844 1947 2747 
L 2328 2669 
Q 3034 2534 3370 2195 
Q 3706 1856 3706 1288 
Q 3706 609 3251 259 
Q 2797 -91 1919 -91 
Q 1588 -91 1214 -16 
Q 841 59 441 206 
L 441 856 
Q 825 641 1194 531 
Q 1563 422 1919 422 
Q 2459 422 2753 634 
Q 3047 847 3047 1241 
Q 3047 1584 2836 1778 
Q 2625 1972 2144 2069 
L 1759 2144 
Q 1053 2284 737 2584 
Q 422 2884 422 3419 
Q 422 4038 858 4394 
Q 1294 4750 2059 4750 
Q 2388 4750 2728 4690 
Q 3069 4631 3425 4513 
z
" transform="scale(0.015625)"/>
      <path id="DejaVuSans-45" d="M 628 4666 
L 3578 4666 
L 3578 4134 
L 1259 4134 
L 1259 2753 
L 3481 2753 
L 3481 2222 
L 1259 2222 
L 1259 531 
L 3634 531 
L 3634 0 
L 628 0 
L 628 4666 
z
" transform="scale(0.015625)"/>
      <path id="DejaVuSans-6d" d="M 3328 2828 
Q 3544 3216 3844 3400 
Q 4144 3584 4550 3584 
Q 5097 3584 5394 3201 
Q 5691 2819 5691 2113 
L 5691 0 
L 5113 0 
L 5113 2094 
Q 5113 2597 4934 2840 
Q 4756 3084 4391 3084 
Q 3944 3084 3684 2787 
Q 3425 2491 3425 1978 
L 3425 0 
L 2847 0 
L 2847 2094 
Q 2847 2600 2669 2842 
Q 2491 3084 2119 3084 
Q 1678 3084 1418 2786 
Q 1159 2488 1159 1978 
L 1159 0 
L 581 0 
L 581 3500 
L 1159 3500 
L 1159 2956 
Q 1356 3278 1631 3431 
Q 1906 3584 2284 3584 
Q 2666 3584 2933 3390 
Q 3200 3197 3328 2828 
z
" transform="scale(0.015625)"/>
     </defs>
     <use xlink:href="#DejaVuSans-5b"/>
     <use xlink:href="#DejaVuSans-32" transform="translate(39.013672 0)"/>
     <use xlink:href="#DejaVuSans-31" transform="translate(102.636719 0)"/>
     <use xlink:href="#DejaVuSans-5d" transform="translate(166.259766 0)"/>
     <use xlink:href="#DejaVuSans-20" transform="translate(205.273438 0)"/>
     <use xlink:href="#DejaVuSans-4b" transform="translate(237.060547 0)"/>
     <use xlink:href="#DejaVuSans-61" transform="translate(300.886719 0)"/>
     <use xlink:href="#DejaVuSans-5f" transform="translate(362.166016 0)"/>
     <use xlink:href="#DejaVuSans-78" transform="translate(412.166016 0)"/>
     <use xlink:href="#DejaVuSans-78" transform="translate(471.345703 0)"/>
     <use xlink:href="#DejaVuSans-20" transform="translate(530.525391 0)"/>
     <use xlink:href="#DejaVuSans-20" transform="translate(562.3125 0)"/>
     <use xlink:href="#DejaVuSans-2014" transform="translate(594.099609 0)"/>
     <use xlink:href="#DejaVuSans-20" transform="translate(694.099609 0)"/>
     <use xlink:href="#DejaVuSans-20" transform="translate(725.886719 0)"/>
     <use xlink:href="#DejaVuSans-53" transform="translate(757.673828 0)"/>
     <use xlink:href="#DejaVuSans-74" transform="translate(821.150391 0)"/>
     <use xlink:href="#DejaVuSans-61" transform="translate(860.359375 0)"/>
     <use xlink:href="#DejaVuSans-74" transform="translate(921.638672 0)"/>
     <use xlink:href="#DejaVuSans-65" transform="translate(960.847656 0)"/>
     <use xlink:href="#DejaVuSans-20" transform="translate(1022.371094 0)"/>
     <use xlink:href="#DejaVuSans-45" transform="translate(1054.158203 0)"/>
     <use xlink:href="#DejaVuSans-73" transform="translate(1117.341797 0)"/>
     <use xlink:href="#DejaVuSans-74" transform="translate(1169.441406 0)"/>
     <use xlink:href="#DejaVuSans-69" transform="translate(1208.650391 0)"/>
     <use xlink:href="#DejaVuSans-6d" transform="translate(1236.433594 0)"/>
     <use xlink:href="#DejaVuSans-61" transform="translate(1333.845703 0)"/>
     <use xlink:href="#DejaVuSans-74" transform="translate(1395.125 0)"/>
     <use xlink:href="#DejaVuSans-65" transform="translate(1434.333984 0)"/>
    </g>
   </g>
   <g id="legend_2">
    <g id="patch_13">
     <path d="M 739.1625 361.514375 
L 846.2 361.514375 
Q 848.2 361.514375 848.2 359.514375 
L 848.2 316.48 
Q 848.2 314.48 846.2 314.48 
L 739.1625 314.48 
Q 737.1625 314.48 737.1625 316.48 
L 737.1625 359.514375 
Q 737.1625 361.514375 739.1625 361.514375 
z
" style="fill: #ffffff; opacity: 0.8; stroke: #cccccc; stroke-linejoin: miter"/>
    </g>
    <g id="line2d_64">
     <path d="M 741.1625 322.578437 
L 751.1625 322.578437 
L 761.1625 322.578437 
" style="fill: none; stroke: #0000ff; stroke-opacity: 0.8; stroke-width: 1.5; stroke-linecap: square"/>
    </g>
    <g id="text_32">
     <!-- Clean -->
     <g transform="translate(769.1625 326.078437) scale(0.1 -0.1)">
      <use xlink:href="#DejaVuSans-43"/>
      <use xlink:href="#DejaVuSans-6c" transform="translate(69.824219 0)"/>
      <use xlink:href="#DejaVuSans-65" transform="translate(97.607422 0)"/>
      <use xlink:href="#DejaVuSans-61" transform="translate(159.130859 0)"/>
      <use xlink:href="#DejaVuSans-6e" transform="translate(220.410156 0)"/>
     </g>
    </g>
    <g id="line2d_65">
     <path d="M 741.1625 337.256562 
L 751.1625 337.256562 
L 761.1625 337.256562 
" style="fill: none; stroke-dasharray: 7.4,3.2; stroke-dashoffset: 0; stroke: #ff0000; stroke-width: 2"/>
    </g>
    <g id="text_33">
     <!-- Noisy (No LLM) -->
     <g transform="translate(769.1625 340.756562) scale(0.1 -0.1)">
      <use xlink:href="#DejaVuSans-4e"/>
      <use xlink:href="#DejaVuSans-6f" transform="translate(74.804688 0)"/>
      <use xlink:href="#DejaVuSans-69" transform="translate(135.986328 0)"/>
      <use xlink:href="#DejaVuSans-73" transform="translate(163.769531 0)"/>
      <use xlink:href="#DejaVuSans-79" transform="translate(215.869141 0)"/>
      <use xlink:href="#DejaVuSans-20" transform="translate(275.048828 0)"/>
      <use xlink:href="#DejaVuSans-28" transform="translate(306.835938 0)"/>
      <use xlink:href="#DejaVuSans-4e" transform="translate(345.849609 0)"/>
      <use xlink:href="#DejaVuSans-6f" transform="translate(420.654297 0)"/>
      <use xlink:href="#DejaVuSans-20" transform="translate(481.835938 0)"/>
      <use xlink:href="#DejaVuSans-4c" transform="translate(513.623047 0)"/>
      <use xlink:href="#DejaVuSans-4c" transform="translate(569.335938 0)"/>
      <use xlink:href="#DejaVuSans-4d" transform="translate(625.048828 0)"/>
      <use xlink:href="#DejaVuSans-29" transform="translate(711.328125 0)"/>
     </g>
    </g>
    <g id="line2d_66">
     <path d="M 741.1625 351.934687 
L 751.1625 351.934687 
L 761.1625 351.934687 
" style="fill: none; stroke: #008000; stroke-opacity: 0.6; stroke-width: 2; stroke-linecap: square"/>
    </g>
    <g id="text_34">
     <!-- Noisy w/ LLM -->
     <g transform="translate(769.1625 355.434687) scale(0.1 -0.1)">
      <use xlink:href="#DejaVuSans-4e"/>
      <use xlink:href="#DejaVuSans-6f" transform="translate(74.804688 0)"/>
      <use xlink:href="#DejaVuSans-69" transform="translate(135.986328 0)"/>
      <use xlink:href="#DejaVuSans-73" transform="translate(163.769531 0)"/>
      <use xlink:href="#DejaVuSans-79" transform="translate(215.869141 0)"/>
      <use xlink:href="#DejaVuSans-20" transform="translate(275.048828 0)"/>
      <use xlink:href="#DejaVuSans-77" transform="translate(306.835938 0)"/>
      <use xlink:href="#DejaVuSans-2f" transform="translate(388.623047 0)"/>
      <use xlink:href="#DejaVuSans-20" transform="translate(422.314453 0)"/>
      <use xlink:href="#DejaVuSans-4c" transform="translate(454.101562 0)"/>
      <use xlink:href="#DejaVuSans-4c" transform="translate(509.814453 0)"/>
      <use xlink:href="#DejaVuSans-4d" transform="translate(565.527344 0)"/>
     </g>
    </g>
   </g>
  </g>
 </g>
 <defs>
  <clipPath id="p7629e2fcc7">
   <rect x="58.84" y="26.88" width="794.36" height="238.64"/>
  </clipPath>
  <clipPath id="p1ff098508e">
   <rect x="58.84" y="309.48" width="794.36" height="238.64"/>
  </clipPath>
 </defs>
</svg>
